<?xml version="1.0" encoding="UTF-8" standalone="no"?>
<!DOCTYPE svg PUBLIC "-//W3C//DTD SVG 1.1//EN"
 "http://www.w3.org/Graphics/SVG/1.1/DTD/svg11.dtd">
<!-- Generated by graphviz version 8.0.5 (20230430.1635)
 -->
<!-- Title: pt Pages: 1 -->
<svg width="3596pt" height="680pt"
 viewBox="0.00 0.00 3596.41 680.00" xmlns="http://www.w3.org/2000/svg" xmlns:xlink="http://www.w3.org/1999/xlink">
<g id="graph0" class="graph" transform="scale(1 1) rotate(0) translate(4 676)">
<title>pt</title>
<polygon fill="white" stroke="none" points="-4,4 -4,-676 3592.41,-676 3592.41,4 -4,4"/>
<!-- 6620910416 -->
<g id="node1" class="node">
<title>6620910416</title>
<ellipse fill="none" stroke="black" cx="27" cy="-384" rx="27" ry="18"/>
<text text-anchor="middle" x="27" y="-378.38" font-family="Times,serif" font-size="15.00">seq</text>
</g>
<!-- 6620920080 -->
<g id="node2" class="node">
<title>6620920080</title>
<ellipse fill="none" stroke="black" cx="250.64" cy="-654" rx="149.06" ry="18"/>
<text text-anchor="middle" x="250.64" y="-648.38" font-family="Times,serif" font-size="15.00">register submission date request</text>
</g>
<!-- 6620910416&#45;&#45;6620920080 -->
<g id="edge1" class="edge">
<title>6620910416&#45;&#45;6620920080</title>
<path fill="none" stroke="black" d="M40.87,-399.68C79.4,-446.62 193.65,-585.8 234.72,-635.83"/>
</g>
<!-- 6620909008 -->
<g id="node3" class="node">
<title>6620909008</title>
<ellipse fill="none" stroke="black" cx="250.64" cy="-600" rx="27" ry="18"/>
<text text-anchor="middle" x="250.64" y="-594.38" font-family="Times,serif" font-size="15.00">xor</text>
</g>
<!-- 6620910416&#45;&#45;6620909008 -->
<g id="edge4" class="edge">
<title>6620910416&#45;&#45;6620909008</title>
<path fill="none" stroke="black" d="M43.23,-398.85C83.82,-438.4 194.22,-545.99 234.59,-585.34"/>
</g>
<!-- 6620920528 -->
<g id="node6" class="node">
<title>6620920528</title>
<ellipse fill="none" stroke="black" cx="250.64" cy="-546" rx="27" ry="18"/>
<text text-anchor="middle" x="250.64" y="-540.38" font-family="Times,serif" font-size="15.00">and</text>
</g>
<!-- 6620910416&#45;&#45;6620920528 -->
<g id="edge51" class="edge">
<title>6620910416&#45;&#45;6620920528</title>
<path fill="none" stroke="black" d="M46.14,-397.26C87.8,-427.71 189.96,-502.38 231.56,-532.79"/>
</g>
<!-- 6620912848 -->
<g id="node53" class="node">
<title>6620912848</title>
<ellipse fill="none" stroke="black" cx="250.64" cy="-492" rx="160.64" ry="18"/>
<text text-anchor="middle" x="250.64" y="-486.38" font-family="Times,serif" font-size="15.00">forward to the competent authority</text>
</g>
<!-- 6620910416&#45;&#45;6620912848 -->
<g id="edge52" class="edge">
<title>6620910416&#45;&#45;6620912848</title>
<path fill="none" stroke="black" d="M49.25,-394.36C87.07,-412.78 166.44,-451.46 213.14,-474.21"/>
</g>
<!-- 6620988944 -->
<g id="node54" class="node">
<title>6620988944</title>
<ellipse fill="none" stroke="black" cx="250.64" cy="-438" rx="147.49" ry="18"/>
<text text-anchor="middle" x="250.64" y="-432.38" font-family="Times,serif" font-size="15.00">regular procedure without MER</text>
</g>
<!-- 6620910416&#45;&#45;6620988944 -->
<g id="edge53" class="edge">
<title>6620910416&#45;&#45;6620988944</title>
<path fill="none" stroke="black" d="M52.57,-389.99C83.67,-397.56 138.51,-410.92 182.45,-421.63"/>
</g>
<!-- 6620997264 -->
<g id="node55" class="node">
<title>6620997264</title>
<ellipse fill="none" stroke="black" cx="250.64" cy="-384" rx="27" ry="18"/>
<text text-anchor="middle" x="250.64" y="-378.38" font-family="Times,serif" font-size="15.00">xor</text>
</g>
<!-- 6620910416&#45;&#45;6620997264 -->
<g id="edge56" class="edge">
<title>6620910416&#45;&#45;6620997264</title>
<path fill="none" stroke="black" d="M54.3,-384C96.95,-384 180.74,-384 223.38,-384"/>
</g>
<!-- 6620989840 -->
<g id="node58" class="node">
<title>6620989840</title>
<ellipse fill="none" stroke="black" cx="250.64" cy="-330" rx="27" ry="18"/>
<text text-anchor="middle" x="250.64" y="-324.38" font-family="Times,serif" font-size="15.00">xor</text>
</g>
<!-- 6620910416&#45;&#45;6620989840 -->
<g id="edge59" class="edge">
<title>6620910416&#45;&#45;6620989840</title>
<path fill="none" stroke="black" d="M52.57,-378.01C95.17,-367.63 182.28,-346.41 224.96,-336.01"/>
</g>
<!-- 6620995856 -->
<g id="node61" class="node">
<title>6620995856</title>
<ellipse fill="none" stroke="black" cx="250.64" cy="-276" rx="27" ry="18"/>
<text text-anchor="middle" x="250.64" y="-270.38" font-family="Times,serif" font-size="15.00">xor</text>
</g>
<!-- 6620910416&#45;&#45;6620995856 -->
<g id="edge64" class="edge">
<title>6620910416&#45;&#45;6620995856</title>
<path fill="none" stroke="black" d="M49.25,-373.64C91.51,-353.05 185.66,-307.18 228.13,-286.48"/>
</g>
<!-- 6620880336 -->
<g id="node66" class="node">
<title>6620880336</title>
<ellipse fill="none" stroke="black" cx="250.64" cy="-213" rx="27" ry="18"/>
<text text-anchor="middle" x="250.64" y="-207.38" font-family="Times,serif" font-size="15.00">xor</text>
</g>
<!-- 6620910416&#45;&#45;6620880336 -->
<g id="edge67" class="edge">
<title>6620910416&#45;&#45;6620880336</title>
<path fill="none" stroke="black" d="M45.39,-370.58C86.72,-338.69 190.46,-258.65 232.02,-226.59"/>
</g>
<!-- 6620998032 -->
<g id="node69" class="node">
<title>6620998032</title>
<ellipse fill="none" stroke="black" cx="250.64" cy="-135" rx="27" ry="18"/>
<text text-anchor="middle" x="250.64" y="-129.38" font-family="Times,serif" font-size="15.00">xor</text>
</g>
<!-- 6620910416&#45;&#45;6620998032 -->
<g id="edge70" class="edge">
<title>6620910416&#45;&#45;6620998032</title>
<path fill="none" stroke="black" d="M41.53,-368.8C81.1,-324.35 196.3,-194.92 236,-150.32"/>
</g>
<!-- 6620887376 -->
<g id="node72" class="node">
<title>6620887376</title>
<ellipse fill="none" stroke="black" cx="250.64" cy="-57" rx="27" ry="18"/>
<text text-anchor="middle" x="250.64" y="-51.38" font-family="Times,serif" font-size="15.00">xor</text>
</g>
<!-- 6620910416&#45;&#45;6620887376 -->
<g id="edge73" class="edge">
<title>6620910416&#45;&#45;6620887376</title>
<path fill="none" stroke="black" d="M38.99,-367.78C76.73,-312.11 200.75,-129.13 238.58,-73.31"/>
</g>
<!-- 6620921616 -->
<g id="node4" class="node">
<title>6620921616</title>
<ellipse fill="black" stroke="black" cx="623.7" cy="-639" rx="2.7" ry="2.7"/>
</g>
<!-- 6620909008&#45;&#45;6620921616 -->
<g id="edge2" class="edge">
<title>6620909008&#45;&#45;6620921616</title>
<path fill="none" stroke="black" d="M277.73,-602.74C357.9,-611.17 596.7,-636.27 620.74,-638.79"/>
</g>
<!-- 6620907920 -->
<g id="node5" class="node">
<title>6620907920</title>
<ellipse fill="none" stroke="black" cx="623.7" cy="-600" rx="108.55" ry="18"/>
<text text-anchor="middle" x="623.7" y="-594.38" font-family="Times,serif" font-size="15.00">OLO messaging active</text>
</g>
<!-- 6620909008&#45;&#45;6620907920 -->
<g id="edge3" class="edge">
<title>6620909008&#45;&#45;6620907920</title>
<path fill="none" stroke="black" d="M278.03,-600C326.71,-600 433.13,-600 514.93,-600"/>
</g>
<!-- 6620921680 -->
<g id="node7" class="node">
<title>6620921680</title>
<ellipse fill="none" stroke="black" cx="623.7" cy="-546" rx="27" ry="18"/>
<text text-anchor="middle" x="623.7" y="-540.38" font-family="Times,serif" font-size="15.00">xor</text>
</g>
<!-- 6620920528&#45;&#45;6620921680 -->
<g id="edge7" class="edge">
<title>6620920528&#45;&#45;6620921680</title>
<path fill="none" stroke="black" d="M278.03,-546C346.41,-546 528.74,-546 596.69,-546"/>
</g>
<!-- 6620911376 -->
<g id="node10" class="node">
<title>6620911376</title>
<ellipse fill="none" stroke="black" cx="623.7" cy="-492" rx="27" ry="18"/>
<text text-anchor="middle" x="623.7" y="-486.38" font-family="Times,serif" font-size="15.00">seq</text>
</g>
<!-- 6620920528&#45;&#45;6620911376 -->
<g id="edge50" class="edge">
<title>6620920528&#45;&#45;6620911376</title>
<path fill="none" stroke="black" d="M277.44,-542.25C345.48,-532.34 529.23,-505.6 597.07,-495.73"/>
</g>
<!-- 6620910928 -->
<g id="node8" class="node">
<title>6620910928</title>
<ellipse fill="black" stroke="black" cx="1036.22" cy="-585" rx="2.7" ry="2.7"/>
</g>
<!-- 6620921680&#45;&#45;6620910928 -->
<g id="edge5" class="edge">
<title>6620921680&#45;&#45;6620910928</title>
<path fill="none" stroke="black" d="M650.69,-548.47C736.7,-556.64 1008.08,-582.42 1033.33,-584.82"/>
</g>
<!-- 6620912464 -->
<g id="node9" class="node">
<title>6620912464</title>
<ellipse fill="none" stroke="black" cx="1036.22" cy="-546" rx="152.75" ry="18"/>
<text text-anchor="middle" x="1036.22" y="-540.38" font-family="Times,serif" font-size="15.00">enter senddate acknowledgement</text>
</g>
<!-- 6620921680&#45;&#45;6620912464 -->
<g id="edge6" class="edge">
<title>6620921680&#45;&#45;6620912464</title>
<path fill="none" stroke="black" d="M651,-546C697.37,-546 796.89,-546 883.03,-546"/>
</g>
<!-- 6620737488 -->
<g id="node11" class="node">
<title>6620737488</title>
<ellipse fill="none" stroke="black" cx="1036.22" cy="-492" rx="27" ry="18"/>
<text text-anchor="middle" x="1036.22" y="-486.38" font-family="Times,serif" font-size="15.00">xor</text>
</g>
<!-- 6620911376&#45;&#45;6620737488 -->
<g id="edge10" class="edge">
<title>6620911376&#45;&#45;6620737488</title>
<path fill="none" stroke="black" d="M651,-492C725.06,-492 934.75,-492 1008.87,-492"/>
</g>
<!-- 6620733328 -->
<g id="node14" class="node">
<title>6620733328</title>
<ellipse fill="none" stroke="black" cx="1036.22" cy="-438" rx="27" ry="18"/>
<text text-anchor="middle" x="1036.22" y="-432.38" font-family="Times,serif" font-size="15.00">and</text>
</g>
<!-- 6620911376&#45;&#45;6620733328 -->
<g id="edge49" class="edge">
<title>6620911376&#45;&#45;6620733328</title>
<path fill="none" stroke="black" d="M650.69,-488.58C724.63,-478.86 935.54,-451.11 1009.34,-441.4"/>
</g>
<!-- 6620727952 -->
<g id="node12" class="node">
<title>6620727952</title>
<ellipse fill="black" stroke="black" cx="1403.49" cy="-531" rx="2.7" ry="2.7"/>
</g>
<!-- 6620737488&#45;&#45;6620727952 -->
<g id="edge8" class="edge">
<title>6620737488&#45;&#45;6620727952</title>
<path fill="none" stroke="black" d="M1063.2,-494.77C1142.41,-503.23 1376.95,-528.27 1400.57,-530.79"/>
</g>
<!-- 6620731664 -->
<g id="node13" class="node">
<title>6620731664</title>
<ellipse fill="none" stroke="black" cx="1403.49" cy="-492" rx="131.18" ry="18"/>
<text text-anchor="middle" x="1403.49" y="-486.38" font-family="Times,serif" font-size="15.00">treat subcases completeness</text>
</g>
<!-- 6620737488&#45;&#45;6620731664 -->
<g id="edge9" class="edge">
<title>6620737488&#45;&#45;6620731664</title>
<path fill="none" stroke="black" d="M1063.49,-492C1106.84,-492 1196.13,-492 1272.19,-492"/>
</g>
<!-- 6620725904 -->
<g id="node15" class="node">
<title>6620725904</title>
<ellipse fill="none" stroke="black" cx="1403.49" cy="-438" rx="27" ry="18"/>
<text text-anchor="middle" x="1403.49" y="-432.38" font-family="Times,serif" font-size="15.00">xor</text>
</g>
<!-- 6620733328&#45;&#45;6620725904 -->
<g id="edge13" class="edge">
<title>6620733328&#45;&#45;6620725904</title>
<path fill="none" stroke="black" d="M1063.49,-438C1130.88,-438 1309.33,-438 1376.46,-438"/>
</g>
<!-- 6620734608 -->
<g id="node18" class="node">
<title>6620734608</title>
<ellipse fill="none" stroke="black" cx="1403.49" cy="-357" rx="27" ry="18"/>
<text text-anchor="middle" x="1403.49" y="-351.38" font-family="Times,serif" font-size="15.00">seq</text>
</g>
<!-- 6620733328&#45;&#45;6620734608 -->
<g id="edge48" class="edge">
<title>6620733328&#45;&#45;6620734608</title>
<path fill="none" stroke="black" d="M1062.33,-432.43C1129.22,-417.6 1311.16,-377.25 1377.69,-362.5"/>
</g>
<!-- 6620732368 -->
<g id="node16" class="node">
<title>6620732368</title>
<ellipse fill="black" stroke="black" cx="1686.06" cy="-477" rx="2.7" ry="2.7"/>
</g>
<!-- 6620725904&#45;&#45;6620732368 -->
<g id="edge11" class="edge">
<title>6620725904&#45;&#45;6620732368</title>
<path fill="none" stroke="black" d="M1430.39,-441.6C1495.5,-450.65 1662.36,-473.84 1682.97,-476.71"/>
</g>
<!-- 6620731536 -->
<g id="node17" class="node">
<title>6620731536</title>
<ellipse fill="none" stroke="black" cx="1686.06" cy="-438" rx="115.39" ry="18"/>
<text text-anchor="middle" x="1686.06" y="-432.38" font-family="Times,serif" font-size="15.00">phase procedure aborted</text>
</g>
<!-- 6620725904&#45;&#45;6620731536 -->
<g id="edge12" class="edge">
<title>6620725904&#45;&#45;6620731536</title>
<path fill="none" stroke="black" d="M1430.89,-438C1462.88,-438 1518.88,-438 1570.19,-438"/>
</g>
<!-- 6620730640 -->
<g id="node19" class="node">
<title>6620730640</title>
<ellipse fill="none" stroke="black" cx="1686.06" cy="-384" rx="27" ry="18"/>
<text text-anchor="middle" x="1686.06" y="-378.38" font-family="Times,serif" font-size="15.00">xor</text>
</g>
<!-- 6620734608&#45;&#45;6620730640 -->
<g id="edge18" class="edge">
<title>6620734608&#45;&#45;6620730640</title>
<path fill="none" stroke="black" d="M1430.64,-359.52C1484.1,-364.66 1605.39,-376.33 1658.88,-381.48"/>
</g>
<!-- 6620735248 -->
<g id="node24" class="node">
<title>6620735248</title>
<ellipse fill="none" stroke="black" cx="1686.06" cy="-330" rx="27" ry="18"/>
<text text-anchor="middle" x="1686.06" y="-324.38" font-family="Times,serif" font-size="15.00">and</text>
</g>
<!-- 6620734608&#45;&#45;6620735248 -->
<g id="edge40" class="edge">
<title>6620734608&#45;&#45;6620735248</title>
<path fill="none" stroke="black" d="M1430.64,-354.48C1484.1,-349.34 1605.39,-337.67 1658.88,-332.52"/>
</g>
<!-- 6620741200 -->
<g id="node46" class="node">
<title>6620741200</title>
<ellipse fill="none" stroke="black" cx="1686.06" cy="-222" rx="27" ry="18"/>
<text text-anchor="middle" x="1686.06" y="-216.38" font-family="Times,serif" font-size="15.00">xor</text>
</g>
<!-- 6620734608&#45;&#45;6620741200 -->
<g id="edge47" class="edge">
<title>6620734608&#45;&#45;6620741200</title>
<path fill="none" stroke="black" d="M1426.04,-346.63C1478.27,-321.5 1611.14,-257.57 1663.44,-232.4"/>
</g>
<!-- 6620738000 -->
<g id="node20" class="node">
<title>6620738000</title>
<ellipse fill="black" stroke="black" cx="1962.32" cy="-423" rx="2.7" ry="2.7"/>
</g>
<!-- 6620730640&#45;&#45;6620738000 -->
<g id="edge14" class="edge">
<title>6620730640&#45;&#45;6620738000</title>
<path fill="none" stroke="black" d="M1712.86,-387.67C1776.87,-396.77 1939.23,-419.86 1959.28,-422.71"/>
</g>
<!-- 6620726224 -->
<g id="node21" class="node">
<title>6620726224</title>
<ellipse fill="none" stroke="black" cx="1962.32" cy="-384" rx="27" ry="18"/>
<text text-anchor="middle" x="1962.32" y="-378.38" font-family="Times,serif" font-size="15.00">seq</text>
</g>
<!-- 6620730640&#45;&#45;6620726224 -->
<g id="edge17" class="edge">
<title>6620730640&#45;&#45;6620726224</title>
<path fill="none" stroke="black" d="M1713.36,-384C1765.78,-384 1882.75,-384 1935.1,-384"/>
</g>
<!-- 6620737552 -->
<g id="node22" class="node">
<title>6620737552</title>
<ellipse fill="none" stroke="black" cx="2321.18" cy="-438" rx="197.99" ry="18"/>
<text text-anchor="middle" x="2321.18" y="-432.38" font-family="Times,serif" font-size="15.00">enter senddate letter to competent authority</text>
</g>
<!-- 6620726224&#45;&#45;6620737552 -->
<g id="edge15" class="edge">
<title>6620726224&#45;&#45;6620737552</title>
<path fill="none" stroke="black" d="M1988.98,-387.88C2035.97,-394.99 2138.2,-410.46 2216.73,-422.35"/>
</g>
<!-- 6620731728 -->
<g id="node23" class="node">
<title>6620731728</title>
<ellipse fill="none" stroke="black" cx="2321.18" cy="-384" rx="165.37" ry="18"/>
<text text-anchor="middle" x="2321.18" y="-378.38" font-family="Times,serif" font-size="15.00">enter senddate letter to stakeholders</text>
</g>
<!-- 6620726224&#45;&#45;6620731728 -->
<g id="edge16" class="edge">
<title>6620726224&#45;&#45;6620731728</title>
<path fill="none" stroke="black" d="M1989.56,-384C2025.13,-384 2091.59,-384 2155.65,-384"/>
</g>
<!-- 6620739920 -->
<g id="node25" class="node">
<title>6620739920</title>
<ellipse fill="none" stroke="black" cx="1962.32" cy="-330" rx="124.86" ry="18"/>
<text text-anchor="middle" x="1962.32" y="-324.38" font-family="Times,serif" font-size="15.00">phase application received</text>
</g>
<!-- 6620735248&#45;&#45;6620739920 -->
<g id="edge19" class="edge">
<title>6620735248&#45;&#45;6620739920</title>
<path fill="none" stroke="black" d="M1713.36,-330C1742.25,-330 1790.75,-330 1837.23,-330"/>
</g>
<!-- 6620733904 -->
<g id="node26" class="node">
<title>6620733904</title>
<ellipse fill="none" stroke="black" cx="1962.32" cy="-276" rx="27" ry="18"/>
<text text-anchor="middle" x="1962.32" y="-270.38" font-family="Times,serif" font-size="15.00">seq</text>
</g>
<!-- 6620735248&#45;&#45;6620733904 -->
<g id="edge39" class="edge">
<title>6620735248&#45;&#45;6620733904</title>
<path fill="none" stroke="black" d="M1712.37,-325.02C1764.62,-314.73 1883.88,-291.25 1936.07,-280.97"/>
</g>
<!-- 6620725776 -->
<g id="node27" class="node">
<title>6620725776</title>
<ellipse fill="none" stroke="black" cx="2321.18" cy="-330" rx="27" ry="18"/>
<text text-anchor="middle" x="2321.18" y="-324.38" font-family="Times,serif" font-size="15.00">xor</text>
</g>
<!-- 6620733904&#45;&#45;6620725776 -->
<g id="edge22" class="edge">
<title>6620733904&#45;&#45;6620725776</title>
<path fill="none" stroke="black" d="M1988.98,-279.88C2054.83,-289.85 2229.16,-316.23 2294.74,-326.15"/>
</g>
<!-- 6620739152 -->
<g id="node30" class="node">
<title>6620739152</title>
<ellipse fill="none" stroke="black" cx="2321.18" cy="-276" rx="27" ry="18"/>
<text text-anchor="middle" x="2321.18" y="-270.38" font-family="Times,serif" font-size="15.00">and</text>
</g>
<!-- 6620733904&#45;&#45;6620739152 -->
<g id="edge38" class="edge">
<title>6620733904&#45;&#45;6620739152</title>
<path fill="none" stroke="black" d="M1989.56,-276C2055.55,-276 2227.86,-276 2293.9,-276"/>
</g>
<!-- 6620725520 -->
<g id="node28" class="node">
<title>6620725520</title>
<ellipse fill="black" stroke="black" cx="2665.83" cy="-369" rx="2.7" ry="2.7"/>
</g>
<!-- 6620725776&#45;&#45;6620725520 -->
<g id="edge20" class="edge">
<title>6620725776&#45;&#45;6620725520</title>
<path fill="none" stroke="black" d="M2348.21,-332.96C2423.8,-341.57 2639.41,-366.11 2662.77,-368.77"/>
</g>
<!-- 6620734352 -->
<g id="node29" class="node">
<title>6620734352</title>
<ellipse fill="none" stroke="black" cx="2665.83" cy="-330" rx="110.66" ry="18"/>
<text text-anchor="middle" x="2665.83" y="-324.38" font-family="Times,serif" font-size="15.00">reception through OLO</text>
</g>
<!-- 6620725776&#45;&#45;6620734352 -->
<g id="edge21" class="edge">
<title>6620725776&#45;&#45;6620734352</title>
<path fill="none" stroke="black" d="M2348.49,-330C2392.14,-330 2481.9,-330 2554.69,-330"/>
</g>
<!-- 6620741520 -->
<g id="node31" class="node">
<title>6620741520</title>
<ellipse fill="none" stroke="black" cx="2665.83" cy="-276" rx="27" ry="18"/>
<text text-anchor="middle" x="2665.83" y="-270.38" font-family="Times,serif" font-size="15.00">xor</text>
</g>
<!-- 6620739152&#45;&#45;6620741520 -->
<g id="edge25" class="edge">
<title>6620739152&#45;&#45;6620741520</title>
<path fill="none" stroke="black" d="M2348.49,-276C2412.28,-276 2574.55,-276 2638.42,-276"/>
</g>
<!-- 6620729552 -->
<g id="node34" class="node">
<title>6620729552</title>
<ellipse fill="none" stroke="black" cx="2665.83" cy="-222" rx="47" ry="18"/>
<text text-anchor="middle" x="2665.83" y="-216.38" font-family="Times,serif" font-size="15.00">xor loop</text>
</g>
<!-- 6620739152&#45;&#45;6620729552 -->
<g id="edge28" class="edge">
<title>6620739152&#45;&#45;6620729552</title>
<path fill="none" stroke="black" d="M2347.93,-271.94C2406.37,-262.73 2549.54,-240.17 2621.73,-228.79"/>
</g>
<!-- 6620732816 -->
<g id="node37" class="node">
<title>6620732816</title>
<ellipse fill="none" stroke="black" cx="2665.83" cy="-160" rx="27" ry="18"/>
<text text-anchor="middle" x="2665.83" y="-154.38" font-family="Times,serif" font-size="15.00">xor</text>
</g>
<!-- 6620739152&#45;&#45;6620732816 -->
<g id="edge37" class="edge">
<title>6620739152&#45;&#45;6620732816</title>
<path fill="none" stroke="black" d="M2345.73,-268.03C2408.33,-246.84 2578.33,-189.28 2641.11,-168.03"/>
</g>
<!-- 6620736272 -->
<g id="node32" class="node">
<title>6620736272</title>
<ellipse fill="black" stroke="black" cx="2933.67" cy="-315" rx="2.7" ry="2.7"/>
</g>
<!-- 6620741520&#45;&#45;6620736272 -->
<g id="edge23" class="edge">
<title>6620741520&#45;&#45;6620736272</title>
<path fill="none" stroke="black" d="M2692.32,-279.74C2754.7,-288.89 2911.36,-311.87 2930.7,-314.71"/>
</g>
<!-- 6620739024 -->
<g id="node33" class="node">
<title>6620739024</title>
<ellipse fill="none" stroke="black" cx="2933.67" cy="-276" rx="112.76" ry="18"/>
<text text-anchor="middle" x="2933.67" y="-270.38" font-family="Times,serif" font-size="15.00">applicant is stakeholder</text>
</g>
<!-- 6620741520&#45;&#45;6620739024 -->
<g id="edge24" class="edge">
<title>6620741520&#45;&#45;6620739024</title>
<path fill="none" stroke="black" d="M2693.29,-276C2723.1,-276 2773.53,-276 2820.44,-276"/>
</g>
<!-- 6620733520 -->
<g id="node35" class="node">
<title>6620733520</title>
<ellipse fill="none" stroke="black" cx="2933.67" cy="-222" rx="121.18" ry="18"/>
<text text-anchor="middle" x="2933.67" y="-216.38" font-family="Times,serif" font-size="15.00">send confirmation receipt</text>
</g>
<!-- 6620729552&#45;&#45;6620733520 -->
<g id="edge26" class="edge">
<title>6620729552&#45;&#45;6620733520</title>
<path fill="none" stroke="black" d="M2713.13,-222C2740.65,-222 2776.95,-222 2812.08,-222"/>
</g>
<!-- 6620734416 -->
<g id="node36" class="node">
<title>6620734416</title>
<ellipse fill="black" stroke="black" cx="2933.67" cy="-183" rx="2.7" ry="2.7"/>
</g>
<!-- 6620729552&#45;&#45;6620734416 -->
<g id="edge27" class="edge">
<title>6620729552&#45;&#45;6620734416</title>
<path fill="none" stroke="black" d="M2710.13,-215.65C2780.16,-205.37 2912.32,-185.98 2930.56,-183.31"/>
</g>
<!-- 6621001360 -->
<g id="node38" class="node">
<title>6621001360</title>
<ellipse fill="black" stroke="black" cx="2933.67" cy="-160" rx="2.7" ry="2.7"/>
</g>
<!-- 6620732816&#45;&#45;6621001360 -->
<g id="edge29" class="edge">
<title>6620732816&#45;&#45;6621001360</title>
<path fill="none" stroke="black" d="M2693.29,-160C2756.06,-160 2910.27,-160 2930.47,-160"/>
</g>
<!-- 6621002384 -->
<g id="node39" class="node">
<title>6621002384</title>
<ellipse fill="none" stroke="black" cx="2933.67" cy="-121" rx="27" ry="18"/>
<text text-anchor="middle" x="2933.67" y="-115.38" font-family="Times,serif" font-size="15.00">and</text>
</g>
<!-- 6620732816&#45;&#45;6621002384 -->
<g id="edge36" class="edge">
<title>6620732816&#45;&#45;6621002384</title>
<path fill="none" stroke="black" d="M2692.32,-156.26C2743,-148.83 2855.93,-132.26 2906.86,-124.79"/>
</g>
<!-- 6621001296 -->
<g id="node40" class="node">
<title>6621001296</title>
<ellipse fill="none" stroke="black" cx="3117.85" cy="-148" rx="27" ry="18"/>
<text text-anchor="middle" x="3117.85" y="-142.38" font-family="Times,serif" font-size="15.00">xor</text>
</g>
<!-- 6621002384&#45;&#45;6621001296 -->
<g id="edge32" class="edge">
<title>6621002384&#45;&#45;6621001296</title>
<path fill="none" stroke="black" d="M2960.38,-124.81C2995.01,-129.94 3056.26,-139.02 3090.97,-144.16"/>
</g>
<!-- 6621002640 -->
<g id="node43" class="node">
<title>6621002640</title>
<ellipse fill="none" stroke="black" cx="3117.85" cy="-94" rx="27" ry="18"/>
<text text-anchor="middle" x="3117.85" y="-88.38" font-family="Times,serif" font-size="15.00">xor</text>
</g>
<!-- 6621002384&#45;&#45;6621002640 -->
<g id="edge35" class="edge">
<title>6621002384&#45;&#45;6621002640</title>
<path fill="none" stroke="black" d="M2960.38,-117.19C2995.01,-112.06 3056.26,-102.98 3090.97,-97.84"/>
</g>
<!-- 6621003728 -->
<g id="node41" class="node">
<title>6621003728</title>
<ellipse fill="black" stroke="black" cx="3384.63" cy="-183" rx="2.7" ry="2.7"/>
</g>
<!-- 6621001296&#45;&#45;6621003728 -->
<g id="edge30" class="edge">
<title>6621001296&#45;&#45;6621003728</title>
<path fill="none" stroke="black" d="M3144.72,-151.42C3207.18,-159.68 3362.5,-180.21 3381.68,-182.74"/>
</g>
<!-- 6620987984 -->
<g id="node42" class="node">
<title>6620987984</title>
<ellipse fill="none" stroke="black" cx="3384.63" cy="-144" rx="99.08" ry="18"/>
<text text-anchor="middle" x="3384.63" y="-138.38" font-family="Times,serif" font-size="15.00">terminate on request</text>
</g>
<!-- 6621001296&#45;&#45;6620987984 -->
<g id="edge31" class="edge">
<title>6621001296&#45;&#45;6620987984</title>
<path fill="none" stroke="black" d="M3145.2,-147.6C3177.84,-147.11 3235.29,-146.24 3285.61,-145.48"/>
</g>
<!-- 6620998672 -->
<g id="node44" class="node">
<title>6620998672</title>
<ellipse fill="black" stroke="black" cx="3384.63" cy="-98" rx="2.7" ry="2.7"/>
</g>
<!-- 6621002640&#45;&#45;6620998672 -->
<g id="edge33" class="edge">
<title>6621002640&#45;&#45;6620998672</title>
<path fill="none" stroke="black" d="M3145.2,-94.4C3207.73,-95.34 3361.32,-97.66 3381.44,-97.97"/>
</g>
<!-- 6620999696 -->
<g id="node45" class="node">
<title>6620999696</title>
<ellipse fill="none" stroke="black" cx="3384.63" cy="-59" rx="203.78" ry="18"/>
<text text-anchor="middle" x="3384.63" y="-53.38" font-family="Times,serif" font-size="15.00">no permit needed or only notification needed</text>
</g>
<!-- 6621002640&#45;&#45;6620999696 -->
<g id="edge34" class="edge">
<title>6621002640&#45;&#45;6620999696</title>
<path fill="none" stroke="black" d="M3144.72,-90.58C3173.67,-86.75 3222.58,-80.29 3268.63,-74.2"/>
</g>
<!-- 6620988368 -->
<g id="node47" class="node">
<title>6620988368</title>
<ellipse fill="black" stroke="black" cx="1962.32" cy="-222" rx="2.7" ry="2.7"/>
</g>
<!-- 6620741200&#45;&#45;6620988368 -->
<g id="edge41" class="edge">
<title>6620741200&#45;&#45;6620988368</title>
<path fill="none" stroke="black" d="M1713.36,-222C1777.71,-222 1939.34,-222 1959.29,-222"/>
</g>
<!-- 6621001616 -->
<g id="node48" class="node">
<title>6621001616</title>
<ellipse fill="none" stroke="black" cx="1962.32" cy="-168" rx="27" ry="18"/>
<text text-anchor="middle" x="1962.32" y="-162.38" font-family="Times,serif" font-size="15.00">seq</text>
</g>
<!-- 6620741200&#45;&#45;6621001616 -->
<g id="edge46" class="edge">
<title>6620741200&#45;&#45;6621001616</title>
<path fill="none" stroke="black" d="M1712.37,-217.02C1764.62,-206.73 1883.88,-183.25 1936.07,-172.97"/>
</g>
<!-- 6620995920 -->
<g id="node49" class="node">
<title>6620995920</title>
<ellipse fill="none" stroke="black" cx="2321.18" cy="-222" rx="178.53" ry="18"/>
<text text-anchor="middle" x="2321.18" y="-216.38" font-family="Times,serif" font-size="15.00">enter date termination request received</text>
</g>
<!-- 6621001616&#45;&#45;6620995920 -->
<g id="edge42" class="edge">
<title>6621001616&#45;&#45;6620995920</title>
<path fill="none" stroke="black" d="M1988.98,-171.88C2036.61,-179.09 2140.99,-194.89 2219.93,-206.83"/>
</g>
<!-- 6620999440 -->
<g id="node50" class="node">
<title>6620999440</title>
<ellipse fill="none" stroke="black" cx="2321.18" cy="-168" rx="124.86" ry="18"/>
<text text-anchor="middle" x="2321.18" y="-162.38" font-family="Times,serif" font-size="15.00">message terminate request</text>
</g>
<!-- 6621001616&#45;&#45;6620999440 -->
<g id="edge43" class="edge">
<title>6621001616&#45;&#45;6620999440</title>
<path fill="none" stroke="black" d="M1989.56,-168C2032.7,-168 2121.26,-168 2195.87,-168"/>
</g>
<!-- 6620994064 -->
<g id="node51" class="node">
<title>6620994064</title>
<ellipse fill="none" stroke="black" cx="2321.18" cy="-114" rx="159.06" ry="18"/>
<text text-anchor="middle" x="2321.18" y="-108.38" font-family="Times,serif" font-size="15.00">enter senddate request termination</text>
</g>
<!-- 6621001616&#45;&#45;6620994064 -->
<g id="edge44" class="edge">
<title>6621001616&#45;&#45;6620994064</title>
<path fill="none" stroke="black" d="M1988.98,-164.12C2037.41,-156.79 2144.51,-140.58 2223.88,-128.57"/>
</g>
<!-- 6620987792 -->
<g id="node52" class="node">
<title>6620987792</title>
<ellipse fill="none" stroke="black" cx="2321.18" cy="-60" rx="82.77" ry="18"/>
<text text-anchor="middle" x="2321.18" y="-54.38" font-family="Times,serif" font-size="15.00">register deadline</text>
</g>
<!-- 6621001616&#45;&#45;6620987792 -->
<g id="edge45" class="edge">
<title>6621001616&#45;&#45;6620987792</title>
<path fill="none" stroke="black" d="M1987.29,-160.75C2045.27,-143.2 2194.01,-98.18 2271.53,-74.72"/>
</g>
<!-- 6620997008 -->
<g id="node56" class="node">
<title>6620997008</title>
<ellipse fill="black" stroke="black" cx="623.7" cy="-447" rx="2.7" ry="2.7"/>
</g>
<!-- 6620997264&#45;&#45;6620997008 -->
<g id="edge54" class="edge">
<title>6620997264&#45;&#45;6620997008</title>
<path fill="none" stroke="black" d="M277.14,-388.33C356.72,-401.84 596.58,-442.56 620.73,-446.67"/>
</g>
<!-- 6620988880 -->
<g id="node57" class="node">
<title>6620988880</title>
<ellipse fill="none" stroke="black" cx="623.7" cy="-408" rx="125.39" ry="18"/>
<text text-anchor="middle" x="623.7" y="-402.38" font-family="Times,serif" font-size="15.00">inform BAG administrator</text>
</g>
<!-- 6620997264&#45;&#45;6620988880 -->
<g id="edge55" class="edge">
<title>6620997264&#45;&#45;6620988880</title>
<path fill="none" stroke="black" d="M277.73,-385.69C324.99,-388.74 427.38,-395.37 508.4,-400.61"/>
</g>
<!-- 6621002192 -->
<g id="node59" class="node">
<title>6621002192</title>
<ellipse fill="black" stroke="black" cx="623.7" cy="-369" rx="2.7" ry="2.7"/>
</g>
<!-- 6620989840&#45;&#45;6621002192 -->
<g id="edge57" class="edge">
<title>6620989840&#45;&#45;6621002192</title>
<path fill="none" stroke="black" d="M277.73,-332.74C357.9,-341.17 596.7,-366.27 620.74,-368.79"/>
</g>
<!-- 6620989456 -->
<g id="node60" class="node">
<title>6620989456</title>
<ellipse fill="none" stroke="black" cx="623.7" cy="-330" rx="176.42" ry="18"/>
<text text-anchor="middle" x="623.7" y="-324.38" font-family="Times,serif" font-size="15.00">enter senddate procedure confirmation</text>
</g>
<!-- 6620989840&#45;&#45;6620989456 -->
<g id="edge58" class="edge">
<title>6620989840&#45;&#45;6620989456</title>
<path fill="none" stroke="black" d="M278.03,-330C313.96,-330 381.34,-330 447.07,-330"/>
</g>
<!-- 6620884688 -->
<g id="node62" class="node">
<title>6620884688</title>
<ellipse fill="black" stroke="black" cx="623.7" cy="-291" rx="2.7" ry="2.7"/>
</g>
<!-- 6620995856&#45;&#45;6620884688 -->
<g id="edge60" class="edge">
<title>6620995856&#45;&#45;6620884688</title>
<path fill="none" stroke="black" d="M278.03,-277.07C358.49,-280.32 596.76,-289.95 620.75,-290.92"/>
</g>
<!-- 6620874064 -->
<g id="node63" class="node">
<title>6620874064</title>
<ellipse fill="none" stroke="black" cx="623.7" cy="-252" rx="47" ry="18"/>
<text text-anchor="middle" x="623.7" y="-246.38" font-family="Times,serif" font-size="15.00">xor loop</text>
</g>
<!-- 6620995856&#45;&#45;6620874064 -->
<g id="edge63" class="edge">
<title>6620995856&#45;&#45;6620874064</title>
<path fill="none" stroke="black" d="M277.73,-274.31C340.09,-270.28 498.4,-260.04 576.99,-254.96"/>
</g>
<!-- 6620883984 -->
<g id="node64" class="node">
<title>6620883984</title>
<ellipse fill="none" stroke="black" cx="1036.22" cy="-279" rx="200.1" ry="18"/>
<text text-anchor="middle" x="1036.22" y="-273.38" font-family="Times,serif" font-size="15.00">registrer date of publishing received request</text>
</g>
<!-- 6620874064&#45;&#45;6620883984 -->
<g id="edge61" class="edge">
<title>6620874064&#45;&#45;6620883984</title>
<path fill="none" stroke="black" d="M670.2,-254.99C719.15,-258.21 799.84,-263.52 872.91,-268.33"/>
</g>
<!-- 6620878032 -->
<g id="node65" class="node">
<title>6620878032</title>
<ellipse fill="none" stroke="black" cx="1036.22" cy="-225" rx="68.04" ry="18"/>
<text text-anchor="middle" x="1036.22" y="-219.38" font-family="Times,serif" font-size="15.00">suspend term</text>
</g>
<!-- 6620874064&#45;&#45;6620878032 -->
<g id="edge62" class="edge">
<title>6620874064&#45;&#45;6620878032</title>
<path fill="none" stroke="black" d="M670.2,-249.01C742.95,-244.22 885.78,-234.83 969.58,-229.32"/>
</g>
<!-- 6620886992 -->
<g id="node67" class="node">
<title>6620886992</title>
<ellipse fill="black" stroke="black" cx="623.7" cy="-213" rx="2.7" ry="2.7"/>
</g>
<!-- 6620880336&#45;&#45;6620886992 -->
<g id="edge65" class="edge">
<title>6620880336&#45;&#45;6620886992</title>
<path fill="none" stroke="black" d="M278.03,-213C358.49,-213 596.76,-213 620.75,-213"/>
</g>
<!-- 6620887760 -->
<g id="node68" class="node">
<title>6620887760</title>
<ellipse fill="none" stroke="black" cx="623.7" cy="-174" rx="134.33" ry="18"/>
<text text-anchor="middle" x="623.7" y="-168.38" font-family="Times,serif" font-size="15.00">send procedure confirmation</text>
</g>
<!-- 6620880336&#45;&#45;6620887760 -->
<g id="edge66" class="edge">
<title>6620880336&#45;&#45;6620887760</title>
<path fill="none" stroke="black" d="M277.73,-210.26C326.56,-205.13 434.23,-193.81 516.38,-185.17"/>
</g>
<!-- 6620887248 -->
<g id="node70" class="node">
<title>6620887248</title>
<ellipse fill="black" stroke="black" cx="623.7" cy="-135" rx="2.7" ry="2.7"/>
</g>
<!-- 6620998032&#45;&#45;6620887248 -->
<g id="edge68" class="edge">
<title>6620998032&#45;&#45;6620887248</title>
<path fill="none" stroke="black" d="M278.03,-135C358.49,-135 596.76,-135 620.75,-135"/>
</g>
<!-- 6620888400 -->
<g id="node71" class="node">
<title>6620888400</title>
<ellipse fill="none" stroke="black" cx="623.7" cy="-96" rx="132.23" ry="18"/>
<text text-anchor="middle" x="623.7" y="-90.38" font-family="Times,serif" font-size="15.00">registration date publication</text>
</g>
<!-- 6620998032&#45;&#45;6620888400 -->
<g id="edge69" class="edge">
<title>6620998032&#45;&#45;6620888400</title>
<path fill="none" stroke="black" d="M277.73,-132.26C326.81,-127.1 435.32,-115.69 517.63,-107.04"/>
</g>
<!-- 6620888720 -->
<g id="node73" class="node">
<title>6620888720</title>
<ellipse fill="black" stroke="black" cx="623.7" cy="-57" rx="2.7" ry="2.7"/>
</g>
<!-- 6620887376&#45;&#45;6620888720 -->
<g id="edge71" class="edge">
<title>6620887376&#45;&#45;6620888720</title>
<path fill="none" stroke="black" d="M278.03,-57C358.49,-57 596.76,-57 620.75,-57"/>
</g>
<!-- 6620873424 -->
<g id="node74" class="node">
<title>6620873424</title>
<ellipse fill="none" stroke="black" cx="623.7" cy="-18" rx="54.36" ry="18"/>
<text text-anchor="middle" x="623.7" y="-12.38" font-family="Times,serif" font-size="15.00">close case</text>
</g>
<!-- 6620887376&#45;&#45;6620873424 -->
<g id="edge72" class="edge">
<title>6620887376&#45;&#45;6620873424</title>
<path fill="none" stroke="black" d="M277.73,-54.26C338.6,-47.86 490.91,-31.85 571.25,-23.41"/>
</g>
</g>
</svg>
