<?xml version="1.0" encoding="UTF-8" standalone="no"?>
<!DOCTYPE svg PUBLIC "-//W3C//DTD SVG 1.1//EN"
 "http://www.w3.org/Graphics/SVG/1.1/DTD/svg11.dtd">
<!-- Generated by graphviz version 8.0.5 (20230430.1635)
 -->
<!-- Title: pt Pages: 1 -->
<svg width="2743pt" height="789pt"
 viewBox="0.00 0.00 2742.87 789.00" xmlns="http://www.w3.org/2000/svg" xmlns:xlink="http://www.w3.org/1999/xlink">
<g id="graph0" class="graph" transform="scale(1 1) rotate(0) translate(4 785)">
<title>pt</title>
<polygon fill="white" stroke="none" points="-4,4 -4,-785 2738.87,-785 2738.87,4 -4,4"/>
<!-- 6620313616 -->
<g id="node1" class="node">
<title>6620313616</title>
<ellipse fill="none" stroke="black" cx="27" cy="-382" rx="27" ry="18"/>
<text text-anchor="middle" x="27" y="-376.38" font-family="Times,serif" font-size="15.00">seq</text>
</g>
<!-- 6620373712 -->
<g id="node2" class="node">
<title>6620373712</title>
<ellipse fill="none" stroke="black" cx="266.42" cy="-691" rx="149.06" ry="18"/>
<text text-anchor="middle" x="266.42" y="-685.38" font-family="Times,serif" font-size="15.00">register submission date request</text>
</g>
<!-- 6620313616&#45;&#45;6620373712 -->
<g id="edge1" class="edge">
<title>6620313616&#45;&#45;6620373712</title>
<path fill="none" stroke="black" d="M40.1,-397.75C80.17,-449.89 208.4,-616.78 251.29,-672.61"/>
</g>
<!-- 5453384080 -->
<g id="node3" class="node">
<title>5453384080</title>
<ellipse fill="none" stroke="black" cx="266.42" cy="-637" rx="27" ry="18"/>
<text text-anchor="middle" x="266.42" y="-631.38" font-family="Times,serif" font-size="15.00">xor</text>
</g>
<!-- 6620313616&#45;&#45;5453384080 -->
<g id="edge4" class="edge">
<title>6620313616&#45;&#45;5453384080</title>
<path fill="none" stroke="black" d="M42.14,-397.19C84.37,-442.54 209.22,-576.64 251.36,-621.89"/>
</g>
<!-- 5453396496 -->
<g id="node6" class="node">
<title>5453396496</title>
<ellipse fill="none" stroke="black" cx="266.42" cy="-571" rx="27" ry="18"/>
<text text-anchor="middle" x="266.42" y="-565.38" font-family="Times,serif" font-size="15.00">xor</text>
</g>
<!-- 6620313616&#45;&#45;5453396496 -->
<g id="edge34" class="edge">
<title>6620313616&#45;&#45;5453396496</title>
<path fill="none" stroke="black" d="M45.07,-395.59C88.77,-430.38 204.3,-522.35 248.18,-557.28"/>
</g>
<!-- 5453382352 -->
<g id="node36" class="node">
<title>5453382352</title>
<ellipse fill="none" stroke="black" cx="266.42" cy="-517" rx="27" ry="18"/>
<text text-anchor="middle" x="266.42" y="-511.38" font-family="Times,serif" font-size="15.00">and</text>
</g>
<!-- 6620313616&#45;&#45;5453382352 -->
<g id="edge41" class="edge">
<title>6620313616&#45;&#45;5453382352</title>
<path fill="none" stroke="black" d="M48.24,-393.51C93.1,-419.02 200.42,-480.04 245.23,-505.52"/>
</g>
<!-- 5453406992 -->
<g id="node43" class="node">
<title>5453406992</title>
<ellipse fill="none" stroke="black" cx="266.42" cy="-463" rx="160.64" ry="18"/>
<text text-anchor="middle" x="266.42" y="-457.38" font-family="Times,serif" font-size="15.00">forward to the competent authority</text>
</g>
<!-- 6620313616&#45;&#45;5453406992 -->
<g id="edge42" class="edge">
<title>6620313616&#45;&#45;5453406992</title>
<path fill="none" stroke="black" d="M51.63,-390.06C89.4,-402.95 164.22,-428.47 214.55,-445.65"/>
</g>
<!-- 5453413328 -->
<g id="node44" class="node">
<title>5453413328</title>
<ellipse fill="none" stroke="black" cx="266.42" cy="-409" rx="147.49" ry="18"/>
<text text-anchor="middle" x="266.42" y="-403.38" font-family="Times,serif" font-size="15.00">regular procedure without MER</text>
</g>
<!-- 6620313616&#45;&#45;5453413328 -->
<g id="edge43" class="edge">
<title>6620313616&#45;&#45;5453413328</title>
<path fill="none" stroke="black" d="M53.86,-384.94C78.86,-387.78 118.46,-392.29 156.68,-396.63"/>
</g>
<!-- 5453400208 -->
<g id="node45" class="node">
<title>5453400208</title>
<ellipse fill="none" stroke="black" cx="266.42" cy="-355" rx="27" ry="18"/>
<text text-anchor="middle" x="266.42" y="-349.38" font-family="Times,serif" font-size="15.00">xor</text>
</g>
<!-- 6620313616&#45;&#45;5453400208 -->
<g id="edge46" class="edge">
<title>6620313616&#45;&#45;5453400208</title>
<path fill="none" stroke="black" d="M53.86,-379.06C99.53,-373.87 193.95,-363.13 239.59,-357.94"/>
</g>
<!-- 5453406160 -->
<g id="node48" class="node">
<title>5453406160</title>
<ellipse fill="none" stroke="black" cx="266.42" cy="-301" rx="176.42" ry="18"/>
<text text-anchor="middle" x="266.42" y="-295.38" font-family="Times,serif" font-size="15.00">enter senddate procedure confirmation</text>
</g>
<!-- 6620313616&#45;&#45;5453406160 -->
<g id="edge47" class="edge">
<title>6620313616&#45;&#45;5453406160</title>
<path fill="none" stroke="black" d="M51.63,-373.94C89.28,-361.09 163.76,-335.68 214.08,-318.52"/>
</g>
<!-- 5453412880 -->
<g id="node49" class="node">
<title>5453412880</title>
<ellipse fill="none" stroke="black" cx="266.42" cy="-247" rx="27" ry="18"/>
<text text-anchor="middle" x="266.42" y="-241.38" font-family="Times,serif" font-size="15.00">xor</text>
</g>
<!-- 6620313616&#45;&#45;5453412880 -->
<g id="edge52" class="edge">
<title>6620313616&#45;&#45;5453412880</title>
<path fill="none" stroke="black" d="M48.24,-370.49C93.1,-344.98 200.42,-283.96 245.23,-258.48"/>
</g>
<!-- 5453405264 -->
<g id="node54" class="node">
<title>5453405264</title>
<ellipse fill="none" stroke="black" cx="266.42" cy="-193" rx="27" ry="18"/>
<text text-anchor="middle" x="266.42" y="-187.38" font-family="Times,serif" font-size="15.00">xor</text>
</g>
<!-- 6620313616&#45;&#45;5453405264 -->
<g id="edge55" class="edge">
<title>6620313616&#45;&#45;5453405264</title>
<path fill="none" stroke="black" d="M45.07,-368.41C88.77,-333.62 204.3,-241.65 248.18,-206.72"/>
</g>
<!-- 6620425360 -->
<g id="node57" class="node">
<title>6620425360</title>
<ellipse fill="none" stroke="black" cx="266.42" cy="-135" rx="27" ry="18"/>
<text text-anchor="middle" x="266.42" y="-129.38" font-family="Times,serif" font-size="15.00">xor</text>
</g>
<!-- 6620313616&#45;&#45;6620425360 -->
<g id="edge58" class="edge">
<title>6620313616&#45;&#45;6620425360</title>
<path fill="none" stroke="black" d="M42.49,-366.92C84.88,-322.82 208.29,-194.44 250.82,-150.2"/>
</g>
<!-- 6620428112 -->
<g id="node60" class="node">
<title>6620428112</title>
<ellipse fill="none" stroke="black" cx="266.42" cy="-57" rx="27" ry="18"/>
<text text-anchor="middle" x="266.42" y="-51.38" font-family="Times,serif" font-size="15.00">xor</text>
</g>
<!-- 6620313616&#45;&#45;6620428112 -->
<g id="edge61" class="edge">
<title>6620313616&#45;&#45;6620428112</title>
<path fill="none" stroke="black" d="M39.77,-365.88C80.2,-310.55 213.05,-128.69 253.58,-73.21"/>
</g>
<!-- 5453386576 -->
<g id="node4" class="node">
<title>5453386576</title>
<ellipse fill="black" stroke="black" cx="631.59" cy="-682" rx="2.7" ry="2.7"/>
</g>
<!-- 5453384080&#45;&#45;5453386576 -->
<g id="edge2" class="edge">
<title>5453384080&#45;&#45;5453386576</title>
<path fill="none" stroke="black" d="M293.25,-640.2C372.01,-649.96 605.2,-678.85 628.68,-681.76"/>
</g>
<!-- 5453397520 -->
<g id="node5" class="node">
<title>5453397520</title>
<ellipse fill="none" stroke="black" cx="631.59" cy="-643" rx="108.55" ry="18"/>
<text text-anchor="middle" x="631.59" y="-637.38" font-family="Times,serif" font-size="15.00">OLO messaging active</text>
</g>
<!-- 5453384080&#45;&#45;5453397520 -->
<g id="edge3" class="edge">
<title>5453384080&#45;&#45;5453397520</title>
<path fill="none" stroke="black" d="M293.83,-637.44C341.33,-638.22 443.62,-639.91 523.08,-641.22"/>
</g>
<!-- 5453385296 -->
<g id="node7" class="node">
<title>5453385296</title>
<ellipse fill="black" stroke="black" cx="631.59" cy="-604" rx="2.7" ry="2.7"/>
</g>
<!-- 5453396496&#45;&#45;5453385296 -->
<g id="edge5" class="edge">
<title>5453396496&#45;&#45;5453385296</title>
<path fill="none" stroke="black" d="M293.54,-573.37C372.58,-580.56 605.26,-601.7 628.68,-603.83"/>
</g>
<!-- 5453390160 -->
<g id="node8" class="node">
<title>5453390160</title>
<ellipse fill="none" stroke="black" cx="631.59" cy="-565" rx="27" ry="18"/>
<text text-anchor="middle" x="631.59" y="-559.38" font-family="Times,serif" font-size="15.00">seq</text>
</g>
<!-- 5453396496&#45;&#45;5453390160 -->
<g id="edge33" class="edge">
<title>5453396496&#45;&#45;5453390160</title>
<path fill="none" stroke="black" d="M293.83,-570.56C360.92,-569.46 537.3,-566.54 604.28,-565.43"/>
</g>
<!-- 5453389456 -->
<g id="node9" class="node">
<title>5453389456</title>
<ellipse fill="none" stroke="black" cx="1020.44" cy="-673" rx="27" ry="18"/>
<text text-anchor="middle" x="1020.44" y="-667.38" font-family="Times,serif" font-size="15.00">xor</text>
</g>
<!-- 5453390160&#45;&#45;5453389456 -->
<g id="edge10" class="edge">
<title>5453390160&#45;&#45;5453389456</title>
<path fill="none" stroke="black" d="M657.08,-571.84C726.76,-591.29 925.51,-646.78 995.05,-666.19"/>
</g>
<!-- 5453387088 -->
<g id="node14" class="node">
<title>5453387088</title>
<ellipse fill="none" stroke="black" cx="1020.44" cy="-619" rx="99.08" ry="18"/>
<text text-anchor="middle" x="1020.44" y="-613.38" font-family="Times,serif" font-size="15.00">terminate on request</text>
</g>
<!-- 5453390160&#45;&#45;5453387088 -->
<g id="edge11" class="edge">
<title>5453390160&#45;&#45;5453387088</title>
<path fill="none" stroke="black" d="M658.27,-568.58C714.97,-576.5 852.79,-595.74 940.85,-608.03"/>
</g>
<!-- 5453394704 -->
<g id="node15" class="node">
<title>5453394704</title>
<ellipse fill="none" stroke="black" cx="1020.44" cy="-565" rx="27" ry="18"/>
<text text-anchor="middle" x="1020.44" y="-559.38" font-family="Times,serif" font-size="15.00">xor</text>
</g>
<!-- 5453390160&#45;&#45;5453394704 -->
<g id="edge27" class="edge">
<title>5453390160&#45;&#45;5453394704</title>
<path fill="none" stroke="black" d="M658.88,-565C729.45,-565 922.5,-565 993.11,-565"/>
</g>
<!-- 5453393808 -->
<g id="node31" class="node">
<title>5453393808</title>
<ellipse fill="none" stroke="black" cx="1020.44" cy="-511" rx="27" ry="18"/>
<text text-anchor="middle" x="1020.44" y="-505.38" font-family="Times,serif" font-size="15.00">xor</text>
</g>
<!-- 5453390160&#45;&#45;5453393808 -->
<g id="edge32" class="edge">
<title>5453390160&#45;&#45;5453393808</title>
<path fill="none" stroke="black" d="M658.27,-561.42C728.47,-551.62 923.02,-524.46 993.51,-514.62"/>
</g>
<!-- 5453395216 -->
<g id="node10" class="node">
<title>5453395216</title>
<ellipse fill="black" stroke="black" cx="1377.71" cy="-712" rx="2.7" ry="2.7"/>
</g>
<!-- 5453389456&#45;&#45;5453395216 -->
<g id="edge6" class="edge">
<title>5453389456&#45;&#45;5453395216</title>
<path fill="none" stroke="black" d="M1047.56,-675.87C1125.12,-684.38 1350.18,-709.09 1374.56,-711.76"/>
</g>
<!-- 5453397648 -->
<g id="node11" class="node">
<title>5453397648</title>
<ellipse fill="none" stroke="black" cx="1377.71" cy="-673" rx="27" ry="18"/>
<text text-anchor="middle" x="1377.71" y="-667.38" font-family="Times,serif" font-size="15.00">seq</text>
</g>
<!-- 5453389456&#45;&#45;5453397648 -->
<g id="edge9" class="edge">
<title>5453389456&#45;&#45;5453397648</title>
<path fill="none" stroke="black" d="M1047.85,-673C1113.78,-673 1285,-673 1350.61,-673"/>
</g>
<!-- 5453384208 -->
<g id="node12" class="node">
<title>5453384208</title>
<ellipse fill="none" stroke="black" cx="1738.67" cy="-727" rx="203.78" ry="18"/>
<text text-anchor="middle" x="1738.67" y="-721.38" font-family="Times,serif" font-size="15.00">no permit needed or only notification needed</text>
</g>
<!-- 5453397648&#45;&#45;5453384208 -->
<g id="edge7" class="edge">
<title>5453397648&#45;&#45;5453384208</title>
<path fill="none" stroke="black" d="M1404.53,-676.88C1451.63,-683.97 1553.92,-699.36 1632.82,-711.23"/>
</g>
<!-- 5453392144 -->
<g id="node13" class="node">
<title>5453392144</title>
<ellipse fill="none" stroke="black" cx="1738.67" cy="-673" rx="112.76" ry="18"/>
<text text-anchor="middle" x="1738.67" y="-667.38" font-family="Times,serif" font-size="15.00">applicant is stakeholder</text>
</g>
<!-- 5453397648&#45;&#45;5453392144 -->
<g id="edge8" class="edge">
<title>5453397648&#45;&#45;5453392144</title>
<path fill="none" stroke="black" d="M1405.11,-673C1451.01,-673 1548.04,-673 1625.51,-673"/>
</g>
<!-- 5453386768 -->
<g id="node16" class="node">
<title>5453386768</title>
<ellipse fill="black" stroke="black" cx="1377.71" cy="-604" rx="2.7" ry="2.7"/>
</g>
<!-- 5453394704&#45;&#45;5453386768 -->
<g id="edge12" class="edge">
<title>5453394704&#45;&#45;5453386768</title>
<path fill="none" stroke="black" d="M1047.56,-567.87C1125.12,-576.38 1350.18,-601.09 1374.56,-603.76"/>
</g>
<!-- 5453382096 -->
<g id="node17" class="node">
<title>5453382096</title>
<ellipse fill="none" stroke="black" cx="1377.71" cy="-565" rx="27" ry="18"/>
<text text-anchor="middle" x="1377.71" y="-559.38" font-family="Times,serif" font-size="15.00">seq</text>
</g>
<!-- 5453394704&#45;&#45;5453382096 -->
<g id="edge26" class="edge">
<title>5453394704&#45;&#45;5453382096</title>
<path fill="none" stroke="black" d="M1047.85,-565C1113.78,-565 1285,-565 1350.61,-565"/>
</g>
<!-- 5453392464 -->
<g id="node18" class="node">
<title>5453392464</title>
<ellipse fill="none" stroke="black" cx="1738.67" cy="-619" rx="27" ry="18"/>
<text text-anchor="middle" x="1738.67" y="-613.38" font-family="Times,serif" font-size="15.00">xor</text>
</g>
<!-- 5453382096&#45;&#45;5453392464 -->
<g id="edge21" class="edge">
<title>5453382096&#45;&#45;5453392464</title>
<path fill="none" stroke="black" d="M1404.53,-568.88C1470.76,-578.85 1646.12,-605.23 1712.09,-615.15"/>
</g>
<!-- 5453382928 -->
<g id="node27" class="node">
<title>5453382928</title>
<ellipse fill="none" stroke="black" cx="1738.67" cy="-565" rx="115.39" ry="18"/>
<text text-anchor="middle" x="1738.67" y="-559.38" font-family="Times,serif" font-size="15.00">phase procedure aborted</text>
</g>
<!-- 5453382096&#45;&#45;5453382928 -->
<g id="edge22" class="edge">
<title>5453382096&#45;&#45;5453382928</title>
<path fill="none" stroke="black" d="M1405.11,-565C1450.52,-565 1545.99,-565 1623.04,-565"/>
</g>
<!-- 5453391632 -->
<g id="node28" class="node">
<title>5453391632</title>
<ellipse fill="none" stroke="black" cx="1738.67" cy="-511" rx="27" ry="18"/>
<text text-anchor="middle" x="1738.67" y="-505.38" font-family="Times,serif" font-size="15.00">xor</text>
</g>
<!-- 5453382096&#45;&#45;5453391632 -->
<g id="edge25" class="edge">
<title>5453382096&#45;&#45;5453391632</title>
<path fill="none" stroke="black" d="M1404.53,-561.12C1470.76,-551.15 1646.12,-524.77 1712.09,-514.85"/>
</g>
<!-- 5453382608 -->
<g id="node19" class="node">
<title>5453382608</title>
<ellipse fill="none" stroke="black" cx="2160.14" cy="-709" rx="27" ry="18"/>
<text text-anchor="middle" x="2160.14" y="-703.38" font-family="Times,serif" font-size="15.00">seq</text>
</g>
<!-- 5453392464&#45;&#45;5453382608 -->
<g id="edge15" class="edge">
<title>5453392464&#45;&#45;5453382608</title>
<path fill="none" stroke="black" d="M1764.66,-624.36C1839.17,-640.35 2059.33,-687.59 2134.02,-703.61"/>
</g>
<!-- 5453394576 -->
<g id="node22" class="node">
<title>5453394576</title>
<ellipse fill="none" stroke="black" cx="2160.14" cy="-601" rx="27" ry="18"/>
<text text-anchor="middle" x="2160.14" y="-595.38" font-family="Times,serif" font-size="15.00">seq</text>
</g>
<!-- 5453392464&#45;&#45;5453394576 -->
<g id="edge20" class="edge">
<title>5453392464&#45;&#45;5453394576</title>
<path fill="none" stroke="black" d="M1765.91,-617.87C1841.24,-614.64 2057.59,-605.36 2132.91,-602.13"/>
</g>
<!-- 5453389648 -->
<g id="node20" class="node">
<title>5453389648</title>
<ellipse fill="none" stroke="black" cx="2556.35" cy="-763" rx="142.23" ry="18"/>
<text text-anchor="middle" x="2556.35" y="-757.38" font-family="Times,serif" font-size="15.00">request to competent authority</text>
</g>
<!-- 5453382608&#45;&#45;5453389648 -->
<g id="edge13" class="edge">
<title>5453382608&#45;&#45;5453389648</title>
<path fill="none" stroke="black" d="M2187,-712.54C2241.05,-719.95 2368.35,-737.38 2458.11,-749.68"/>
</g>
<!-- 5453396880 -->
<g id="node21" class="node">
<title>5453396880</title>
<ellipse fill="none" stroke="black" cx="2556.35" cy="-709" rx="155.9" ry="18"/>
<text text-anchor="middle" x="2556.35" y="-703.38" font-family="Times,serif" font-size="15.00">forward transcript to stakeholders</text>
</g>
<!-- 5453382608&#45;&#45;5453396880 -->
<g id="edge14" class="edge">
<title>5453382608&#45;&#45;5453396880</title>
<path fill="none" stroke="black" d="M2187.61,-709C2231.03,-709 2320.52,-709 2400.35,-709"/>
</g>
<!-- 5453395600 -->
<g id="node23" class="node">
<title>5453395600</title>
<ellipse fill="none" stroke="black" cx="2556.35" cy="-655" rx="178.53" ry="18"/>
<text text-anchor="middle" x="2556.35" y="-649.38" font-family="Times,serif" font-size="15.00">enter date termination request received</text>
</g>
<!-- 5453394576&#45;&#45;5453395600 -->
<g id="edge16" class="edge">
<title>5453394576&#45;&#45;5453395600</title>
<path fill="none" stroke="black" d="M2187,-604.54C2239.08,-611.68 2359.17,-628.13 2448.15,-640.32"/>
</g>
<!-- 5453385680 -->
<g id="node24" class="node">
<title>5453385680</title>
<ellipse fill="none" stroke="black" cx="2556.35" cy="-601" rx="124.86" ry="18"/>
<text text-anchor="middle" x="2556.35" y="-595.38" font-family="Times,serif" font-size="15.00">message terminate request</text>
</g>
<!-- 5453394576&#45;&#45;5453385680 -->
<g id="edge17" class="edge">
<title>5453394576&#45;&#45;5453385680</title>
<path fill="none" stroke="black" d="M2187.61,-601C2236.73,-601 2344.8,-601 2431.15,-601"/>
</g>
<!-- 5453391056 -->
<g id="node25" class="node">
<title>5453391056</title>
<ellipse fill="none" stroke="black" cx="2556.35" cy="-547" rx="159.06" ry="18"/>
<text text-anchor="middle" x="2556.35" y="-541.38" font-family="Times,serif" font-size="15.00">enter senddate request termination</text>
</g>
<!-- 5453394576&#45;&#45;5453391056 -->
<g id="edge18" class="edge">
<title>5453394576&#45;&#45;5453391056</title>
<path fill="none" stroke="black" d="M2187,-597.46C2240.02,-590.19 2363.54,-573.27 2452.95,-561.03"/>
</g>
<!-- 5453381840 -->
<g id="node26" class="node">
<title>5453381840</title>
<ellipse fill="none" stroke="black" cx="2556.35" cy="-493" rx="82.77" ry="18"/>
<text text-anchor="middle" x="2556.35" y="-487.38" font-family="Times,serif" font-size="15.00">register deadline</text>
</g>
<!-- 5453394576&#45;&#45;5453381840 -->
<g id="edge19" class="edge">
<title>5453394576&#45;&#45;5453381840</title>
<path fill="none" stroke="black" d="M2185.5,-594.33C2248.45,-577.08 2417.59,-530.74 2503.6,-507.18"/>
</g>
<!-- 5453390992 -->
<g id="node29" class="node">
<title>5453390992</title>
<ellipse fill="black" stroke="black" cx="2160.14" cy="-528" rx="2.7" ry="2.7"/>
</g>
<!-- 5453391632&#45;&#45;5453390992 -->
<g id="edge23" class="edge">
<title>5453391632&#45;&#45;5453390992</title>
<path fill="none" stroke="black" d="M1765.91,-512.06C1853.44,-515.61 2131.34,-526.87 2157.2,-527.92"/>
</g>
<!-- 5453393232 -->
<g id="node30" class="node">
<title>5453393232</title>
<ellipse fill="none" stroke="black" cx="2160.14" cy="-489" rx="181.68" ry="18"/>
<text text-anchor="middle" x="2160.14" y="-483.38" font-family="Times,serif" font-size="15.00">phase forwarded to competent authority</text>
</g>
<!-- 5453391632&#45;&#45;5453393232 -->
<g id="edge24" class="edge">
<title>5453391632&#45;&#45;5453393232</title>
<path fill="none" stroke="black" d="M1765.91,-509.62C1812.05,-507.2 1911.1,-502.01 1998.23,-497.44"/>
</g>
<!-- 5453396944 -->
<g id="node32" class="node">
<title>5453396944</title>
<ellipse fill="black" stroke="black" cx="1377.71" cy="-511" rx="2.7" ry="2.7"/>
</g>
<!-- 5453393808&#45;&#45;5453396944 -->
<g id="edge28" class="edge">
<title>5453393808&#45;&#45;5453396944</title>
<path fill="none" stroke="black" d="M1047.85,-511C1125.68,-511 1350.24,-511 1374.57,-511"/>
</g>
<!-- 5453384464 -->
<g id="node33" class="node">
<title>5453384464</title>
<ellipse fill="none" stroke="black" cx="1377.71" cy="-457" rx="27" ry="18"/>
<text text-anchor="middle" x="1377.71" y="-451.38" font-family="Times,serif" font-size="15.00">and</text>
</g>
<!-- 5453393808&#45;&#45;5453384464 -->
<g id="edge31" class="edge">
<title>5453393808&#45;&#45;5453384464</title>
<path fill="none" stroke="black" d="M1047.27,-507.07C1112.9,-497.1 1285.45,-470.87 1350.97,-460.91"/>
</g>
<!-- 5453404624 -->
<g id="node34" class="node">
<title>5453404624</title>
<ellipse fill="none" stroke="black" cx="1738.67" cy="-457" rx="165.37" ry="18"/>
<text text-anchor="middle" x="1738.67" y="-451.38" font-family="Times,serif" font-size="15.00">enter senddate letter to stakeholders</text>
</g>
<!-- 5453384464&#45;&#45;5453404624 -->
<g id="edge29" class="edge">
<title>5453384464&#45;&#45;5453404624</title>
<path fill="none" stroke="black" d="M1405.11,-457C1441.05,-457 1508.35,-457 1573.05,-457"/>
</g>
<!-- 5453403088 -->
<g id="node35" class="node">
<title>5453403088</title>
<ellipse fill="none" stroke="black" cx="1738.67" cy="-403" rx="197.99" ry="18"/>
<text text-anchor="middle" x="1738.67" y="-397.38" font-family="Times,serif" font-size="15.00">enter senddate letter to competent authority</text>
</g>
<!-- 5453384464&#45;&#45;5453403088 -->
<g id="edge30" class="edge">
<title>5453384464&#45;&#45;5453403088</title>
<path fill="none" stroke="black" d="M1404.53,-453.12C1451.79,-446.01 1554.62,-430.54 1633.62,-418.65"/>
</g>
<!-- 5453402832 -->
<g id="node37" class="node">
<title>5453402832</title>
<ellipse fill="none" stroke="black" cx="631.59" cy="-511" rx="152.75" ry="18"/>
<text text-anchor="middle" x="631.59" y="-505.38" font-family="Times,serif" font-size="15.00">enter senddate acknowledgement</text>
</g>
<!-- 5453382352&#45;&#45;5453402832 -->
<g id="edge35" class="edge">
<title>5453382352&#45;&#45;5453402832</title>
<path fill="none" stroke="black" d="M293.83,-516.56C333.09,-515.92 409.77,-514.65 480.05,-513.49"/>
</g>
<!-- 5453398352 -->
<g id="node38" class="node">
<title>5453398352</title>
<ellipse fill="none" stroke="black" cx="631.59" cy="-457" rx="27" ry="18"/>
<text text-anchor="middle" x="631.59" y="-451.38" font-family="Times,serif" font-size="15.00">seq</text>
</g>
<!-- 5453382352&#45;&#45;5453398352 -->
<g id="edge40" class="edge">
<title>5453382352&#45;&#45;5453398352</title>
<path fill="none" stroke="black" d="M292.96,-512.78C359.64,-501.76 538.43,-472.23 605.08,-461.21"/>
</g>
<!-- 5453406032 -->
<g id="node39" class="node">
<title>5453406032</title>
<ellipse fill="none" stroke="black" cx="1020.44" cy="-457" rx="124.86" ry="18"/>
<text text-anchor="middle" x="1020.44" y="-451.38" font-family="Times,serif" font-size="15.00">phase application received</text>
</g>
<!-- 5453398352&#45;&#45;5453406032 -->
<g id="edge36" class="edge">
<title>5453398352&#45;&#45;5453406032</title>
<path fill="none" stroke="black" d="M658.88,-457C706.75,-457 810.97,-457 895.11,-457"/>
</g>
<!-- 5453402448 -->
<g id="node40" class="node">
<title>5453402448</title>
<ellipse fill="none" stroke="black" cx="1020.44" cy="-403" rx="47" ry="18"/>
<text text-anchor="middle" x="1020.44" y="-397.38" font-family="Times,serif" font-size="15.00">xor loop</text>
</g>
<!-- 5453398352&#45;&#45;5453402448 -->
<g id="edge39" class="edge">
<title>5453398352&#45;&#45;5453402448</title>
<path fill="none" stroke="black" d="M658.27,-453.42C723.24,-444.35 894.72,-420.41 975.79,-409.09"/>
</g>
<!-- 5453409168 -->
<g id="node41" class="node">
<title>5453409168</title>
<ellipse fill="none" stroke="black" cx="1377.71" cy="-403" rx="121.18" ry="18"/>
<text text-anchor="middle" x="1377.71" y="-397.38" font-family="Times,serif" font-size="15.00">send confirmation receipt</text>
</g>
<!-- 5453402448&#45;&#45;5453409168 -->
<g id="edge37" class="edge">
<title>5453402448&#45;&#45;5453409168</title>
<path fill="none" stroke="black" d="M1067.88,-403C1115.47,-403 1191.44,-403 1256.12,-403"/>
</g>
<!-- 5453412560 -->
<g id="node42" class="node">
<title>5453412560</title>
<ellipse fill="black" stroke="black" cx="1377.71" cy="-364" rx="2.7" ry="2.7"/>
</g>
<!-- 5453402448&#45;&#45;5453412560 -->
<g id="edge38" class="edge">
<title>5453402448&#45;&#45;5453412560</title>
<path fill="none" stroke="black" d="M1066.07,-398.1C1156.27,-388.2 1353.53,-366.54 1374.84,-364.21"/>
</g>
<!-- 5453403856 -->
<g id="node46" class="node">
<title>5453403856</title>
<ellipse fill="black" stroke="black" cx="631.59" cy="-382" rx="2.7" ry="2.7"/>
</g>
<!-- 5453400208&#45;&#45;5453403856 -->
<g id="edge44" class="edge">
<title>5453400208&#45;&#45;5453403856</title>
<path fill="none" stroke="black" d="M293.54,-356.94C372.58,-362.82 605.26,-380.12 628.68,-381.86"/>
</g>
<!-- 5453413136 -->
<g id="node47" class="node">
<title>5453413136</title>
<ellipse fill="none" stroke="black" cx="631.59" cy="-343" rx="125.39" ry="18"/>
<text text-anchor="middle" x="631.59" y="-337.38" font-family="Times,serif" font-size="15.00">inform BAG administrator</text>
</g>
<!-- 5453400208&#45;&#45;5453413136 -->
<g id="edge45" class="edge">
<title>5453400208&#45;&#45;5453413136</title>
<path fill="none" stroke="black" d="M293.83,-354.13C338.56,-352.65 431.86,-349.57 508.93,-347.02"/>
</g>
<!-- 5453401552 -->
<g id="node50" class="node">
<title>5453401552</title>
<ellipse fill="black" stroke="black" cx="631.59" cy="-291" rx="2.7" ry="2.7"/>
</g>
<!-- 5453412880&#45;&#45;5453401552 -->
<g id="edge48" class="edge">
<title>5453412880&#45;&#45;5453401552</title>
<path fill="none" stroke="black" d="M293.25,-250.13C372.01,-259.67 605.2,-287.92 628.68,-290.77"/>
</g>
<!-- 5453412688 -->
<g id="node51" class="node">
<title>5453412688</title>
<ellipse fill="none" stroke="black" cx="631.59" cy="-252" rx="47" ry="18"/>
<text text-anchor="middle" x="631.59" y="-246.38" font-family="Times,serif" font-size="15.00">xor loop</text>
</g>
<!-- 5453412880&#45;&#45;5453412688 -->
<g id="edge51" class="edge">
<title>5453412880&#45;&#45;5453412688</title>
<path fill="none" stroke="black" d="M293.83,-247.36C355.04,-248.21 507.24,-250.3 584.31,-251.36"/>
</g>
<!-- 5453405136 -->
<g id="node52" class="node">
<title>5453405136</title>
<ellipse fill="none" stroke="black" cx="1020.44" cy="-279" rx="200.1" ry="18"/>
<text text-anchor="middle" x="1020.44" y="-273.38" font-family="Times,serif" font-size="15.00">registrer date of publishing received request</text>
</g>
<!-- 5453412688&#45;&#45;5453405136 -->
<g id="edge49" class="edge">
<title>5453412688&#45;&#45;5453405136</title>
<path fill="none" stroke="black" d="M678.11,-255.18C723.04,-258.31 794.4,-263.29 860.28,-267.89"/>
</g>
<!-- 5453413584 -->
<g id="node53" class="node">
<title>5453413584</title>
<ellipse fill="none" stroke="black" cx="1020.44" cy="-225" rx="68.04" ry="18"/>
<text text-anchor="middle" x="1020.44" y="-219.38" font-family="Times,serif" font-size="15.00">suspend term</text>
</g>
<!-- 5453412688&#45;&#45;5453413584 -->
<g id="edge50" class="edge">
<title>5453412688&#45;&#45;5453413584</title>
<path fill="none" stroke="black" d="M678.11,-248.82C746.41,-244.06 875.76,-235.03 954.13,-229.56"/>
</g>
<!-- 5453407888 -->
<g id="node55" class="node">
<title>5453407888</title>
<ellipse fill="black" stroke="black" cx="631.59" cy="-213" rx="2.7" ry="2.7"/>
</g>
<!-- 5453405264&#45;&#45;5453407888 -->
<g id="edge53" class="edge">
<title>5453405264&#45;&#45;5453407888</title>
<path fill="none" stroke="black" d="M293.83,-194.45C373.16,-198.82 605.31,-211.61 628.69,-212.9"/>
</g>
<!-- 5444394256 -->
<g id="node56" class="node">
<title>5444394256</title>
<ellipse fill="none" stroke="black" cx="631.59" cy="-174" rx="134.33" ry="18"/>
<text text-anchor="middle" x="631.59" y="-168.38" font-family="Times,serif" font-size="15.00">send procedure confirmation</text>
</g>
<!-- 5453405264&#45;&#45;5444394256 -->
<g id="edge54" class="edge">
<title>5453405264&#45;&#45;5444394256</title>
<path fill="none" stroke="black" d="M293.83,-191.62C337.9,-189.31 429.14,-184.54 505.55,-180.54"/>
</g>
<!-- 6620311440 -->
<g id="node58" class="node">
<title>6620311440</title>
<ellipse fill="black" stroke="black" cx="631.59" cy="-135" rx="2.7" ry="2.7"/>
</g>
<!-- 6620425360&#45;&#45;6620311440 -->
<g id="edge56" class="edge">
<title>6620425360&#45;&#45;6620311440</title>
<path fill="none" stroke="black" d="M293.83,-135C373.16,-135 605.31,-135 628.69,-135"/>
</g>
<!-- 6620314704 -->
<g id="node59" class="node">
<title>6620314704</title>
<ellipse fill="none" stroke="black" cx="631.59" cy="-96" rx="132.23" ry="18"/>
<text text-anchor="middle" x="631.59" y="-90.38" font-family="Times,serif" font-size="15.00">registration date publication</text>
</g>
<!-- 6620425360&#45;&#45;6620314704 -->
<g id="edge57" class="edge">
<title>6620425360&#45;&#45;6620314704</title>
<path fill="none" stroke="black" d="M293.54,-132.2C341.52,-127.04 446.1,-115.81 526.13,-107.22"/>
</g>
<!-- 6620305296 -->
<g id="node61" class="node">
<title>6620305296</title>
<ellipse fill="black" stroke="black" cx="631.59" cy="-57" rx="2.7" ry="2.7"/>
</g>
<!-- 6620428112&#45;&#45;6620305296 -->
<g id="edge59" class="edge">
<title>6620428112&#45;&#45;6620305296</title>
<path fill="none" stroke="black" d="M293.83,-57C373.16,-57 605.31,-57 628.69,-57"/>
</g>
<!-- 6620299600 -->
<g id="node62" class="node">
<title>6620299600</title>
<ellipse fill="none" stroke="black" cx="631.59" cy="-18" rx="54.36" ry="18"/>
<text text-anchor="middle" x="631.59" y="-12.38" font-family="Times,serif" font-size="15.00">close case</text>
</g>
<!-- 6620428112&#45;&#45;6620299600 -->
<g id="edge60" class="edge">
<title>6620428112&#45;&#45;6620299600</title>
<path fill="none" stroke="black" d="M293.54,-54.2C353.31,-47.78 500.93,-31.92 579.49,-23.49"/>
</g>
</g>
</svg>
