<?xml version="1.0" encoding="UTF-8" standalone="no"?>
<!DOCTYPE svg PUBLIC "-//W3C//DTD SVG 1.1//EN"
 "http://www.w3.org/Graphics/SVG/1.1/DTD/svg11.dtd">
<!-- Generated by graphviz version 8.0.5 (20230430.1635)
 -->
<!-- Title: pt Pages: 1 -->
<svg width="2774pt" height="1522pt"
 viewBox="0.00 0.00 2774.44 1522.00" xmlns="http://www.w3.org/2000/svg" xmlns:xlink="http://www.w3.org/1999/xlink">
<g id="graph0" class="graph" transform="scale(1 1) rotate(0) translate(4 1518)">
<title>pt</title>
<polygon fill="white" stroke="none" points="-4,4 -4,-1518 2770.44,-1518 2770.44,4 -4,4"/>
<!-- 6621674128 -->
<g id="node1" class="node">
<title>6621674128</title>
<ellipse fill="none" stroke="black" cx="27" cy="-508" rx="27" ry="18"/>
<text text-anchor="middle" x="27" y="-502.38" font-family="Times,serif" font-size="15.00">seq</text>
</g>
<!-- 6623586640 -->
<g id="node2" class="node">
<title>6623586640</title>
<ellipse fill="none" stroke="black" cx="205.39" cy="-693" rx="27" ry="18"/>
<text text-anchor="middle" x="205.39" y="-687.38" font-family="Times,serif" font-size="15.00">xor</text>
</g>
<!-- 6621674128&#45;&#45;6623586640 -->
<g id="edge78" class="edge">
<title>6621674128&#45;&#45;6623586640</title>
<path fill="none" stroke="black" d="M42.44,-523.14C75.59,-557.92 156.89,-643.18 190.01,-677.91"/>
</g>
<!-- 6621767952 -->
<g id="node80" class="node">
<title>6621767952</title>
<ellipse fill="none" stroke="black" cx="205.39" cy="-535" rx="115.39" ry="18"/>
<text text-anchor="middle" x="205.39" y="-529.38" font-family="Times,serif" font-size="15.00">phase procedure aborted</text>
</g>
<!-- 6621674128&#45;&#45;6621767952 -->
<g id="edge79" class="edge">
<title>6621674128&#45;&#45;6621767952</title>
<path fill="none" stroke="black" d="M53.65,-511.93C71.61,-514.68 96.71,-518.52 121.28,-522.28"/>
</g>
<!-- 6621765648 -->
<g id="node81" class="node">
<title>6621765648</title>
<ellipse fill="none" stroke="black" cx="205.39" cy="-481" rx="54.36" ry="18"/>
<text text-anchor="middle" x="205.39" y="-475.38" font-family="Times,serif" font-size="15.00">close case</text>
</g>
<!-- 6621674128&#45;&#45;6621765648 -->
<g id="edge80" class="edge">
<title>6621674128&#45;&#45;6621765648</title>
<path fill="none" stroke="black" d="M53.65,-504.07C80.21,-500.01 122.37,-493.55 155.36,-488.51"/>
</g>
<!-- 6621771408 -->
<g id="node82" class="node">
<title>6621771408</title>
<ellipse fill="none" stroke="black" cx="205.39" cy="-312" rx="27" ry="18"/>
<text text-anchor="middle" x="205.39" y="-306.38" font-family="Times,serif" font-size="15.00">xor</text>
</g>
<!-- 6621674128&#45;&#45;6621771408 -->
<g id="edge90" class="edge">
<title>6621674128&#45;&#45;6621771408</title>
<path fill="none" stroke="black" d="M41.84,-492.62C74.82,-455.98 157.71,-363.88 190.62,-327.31"/>
</g>
<!-- 6622573328 -->
<g id="node3" class="node">
<title>6622573328</title>
<ellipse fill="black" stroke="black" cx="533.74" cy="-732" rx="2.7" ry="2.7"/>
</g>
<!-- 6623586640&#45;&#45;6622573328 -->
<g id="edge1" class="edge">
<title>6623586640&#45;&#45;6622573328</title>
<path fill="none" stroke="black" d="M232.27,-696.09C305.24,-704.81 508.75,-729.13 530.79,-731.77"/>
</g>
<!-- 6622568848 -->
<g id="node4" class="node">
<title>6622568848</title>
<ellipse fill="none" stroke="black" cx="533.74" cy="-693" rx="27" ry="18"/>
<text text-anchor="middle" x="533.74" y="-687.38" font-family="Times,serif" font-size="15.00">seq</text>
</g>
<!-- 6623586640&#45;&#45;6622568848 -->
<g id="edge77" class="edge">
<title>6623586640&#45;&#45;6622568848</title>
<path fill="none" stroke="black" d="M232.82,-693C294.13,-693 445.42,-693 506.51,-693"/>
</g>
<!-- 6623256272 -->
<g id="node5" class="node">
<title>6623256272</title>
<ellipse fill="none" stroke="black" cx="925.21" cy="-1098" rx="149.06" ry="18"/>
<text text-anchor="middle" x="925.21" y="-1092.38" font-family="Times,serif" font-size="15.00">register submission date request</text>
</g>
<!-- 6622568848&#45;&#45;6623256272 -->
<g id="edge2" class="edge">
<title>6622568848&#45;&#45;6623256272</title>
<path fill="none" stroke="black" d="M549.06,-707.89C609.17,-770.4 840.98,-1011.45 906.73,-1079.83"/>
</g>
<!-- 6623254288 -->
<g id="node6" class="node">
<title>6623254288</title>
<ellipse fill="none" stroke="black" cx="925.21" cy="-1044" rx="27" ry="18"/>
<text text-anchor="middle" x="925.21" y="-1038.38" font-family="Times,serif" font-size="15.00">xor</text>
</g>
<!-- 6622568848&#45;&#45;6623254288 -->
<g id="edge34" class="edge">
<title>6622568848&#45;&#45;6623254288</title>
<path fill="none" stroke="black" d="M550.49,-707.19C613.25,-763.75 845.15,-972.75 908.26,-1029.63"/>
</g>
<!-- 6623257872 -->
<g id="node38" class="node">
<title>6623257872</title>
<ellipse fill="none" stroke="black" cx="925.21" cy="-990" rx="124.86" ry="18"/>
<text text-anchor="middle" x="925.21" y="-984.38" font-family="Times,serif" font-size="15.00">phase application received</text>
</g>
<!-- 6622568848&#45;&#45;6623257872 -->
<g id="edge35" class="edge">
<title>6622568848&#45;&#45;6623257872</title>
<path fill="none" stroke="black" d="M552.48,-706.53C615.58,-754.65 829.1,-917.47 900.63,-972.02"/>
</g>
<!-- 6622783824 -->
<g id="node39" class="node">
<title>6622783824</title>
<ellipse fill="none" stroke="black" cx="925.21" cy="-936" rx="27" ry="18"/>
<text text-anchor="middle" x="925.21" y="-930.38" font-family="Times,serif" font-size="15.00">xor</text>
</g>
<!-- 6622568848&#45;&#45;6622783824 -->
<g id="edge38" class="edge">
<title>6622568848&#45;&#45;6622783824</title>
<path fill="none" stroke="black" d="M554.32,-705.22C620.95,-746.79 838.47,-882.51 904.82,-923.9"/>
</g>
<!-- 6622779408 -->
<g id="node42" class="node">
<title>6622779408</title>
<ellipse fill="none" stroke="black" cx="925.21" cy="-882" rx="47" ry="18"/>
<text text-anchor="middle" x="925.21" y="-876.38" font-family="Times,serif" font-size="15.00">xor loop</text>
</g>
<!-- 6622568848&#45;&#45;6622779408 -->
<g id="edge41" class="edge">
<title>6622568848&#45;&#45;6622779408</title>
<path fill="none" stroke="black" d="M556.23,-703.43C621.93,-735.31 820.17,-831.51 895.1,-867.87"/>
</g>
<!-- 6622775632 -->
<g id="node45" class="node">
<title>6622775632</title>
<ellipse fill="none" stroke="black" cx="925.21" cy="-828" rx="160.64" ry="18"/>
<text text-anchor="middle" x="925.21" y="-822.38" font-family="Times,serif" font-size="15.00">forward to the competent authority</text>
</g>
<!-- 6622568848&#45;&#45;6622775632 -->
<g id="edge42" class="edge">
<title>6622568848&#45;&#45;6622775632</title>
<path fill="none" stroke="black" d="M558.22,-701.14C620.14,-722.6 788.9,-781.1 873.89,-810.56"/>
</g>
<!-- 6622788240 -->
<g id="node46" class="node">
<title>6622788240</title>
<ellipse fill="none" stroke="black" cx="925.21" cy="-774" rx="147.49" ry="18"/>
<text text-anchor="middle" x="925.21" y="-768.38" font-family="Times,serif" font-size="15.00">regular procedure without MER</text>
</g>
<!-- 6622568848&#45;&#45;6622788240 -->
<g id="edge43" class="edge">
<title>6622568848&#45;&#45;6622788240</title>
<path fill="none" stroke="black" d="M559.99,-698.25C617.39,-710.19 759.53,-739.75 848.31,-758.22"/>
</g>
<!-- 6622780944 -->
<g id="node47" class="node">
<title>6622780944</title>
<ellipse fill="none" stroke="black" cx="925.21" cy="-720" rx="27" ry="18"/>
<text text-anchor="middle" x="925.21" y="-714.38" font-family="Times,serif" font-size="15.00">and</text>
</g>
<!-- 6622568848&#45;&#45;6622780944 -->
<g id="edge50" class="edge">
<title>6622568848&#45;&#45;6622780944</title>
<path fill="none" stroke="black" d="M560.89,-694.81C631.76,-699.73 826.88,-713.25 897.91,-718.18"/>
</g>
<!-- 6622779344 -->
<g id="node54" class="node">
<title>6622779344</title>
<ellipse fill="none" stroke="black" cx="925.21" cy="-666" rx="27" ry="18"/>
<text text-anchor="middle" x="925.21" y="-660.38" font-family="Times,serif" font-size="15.00">xor</text>
</g>
<!-- 6622568848&#45;&#45;6622779344 -->
<g id="edge53" class="edge">
<title>6622568848&#45;&#45;6622779344</title>
<path fill="none" stroke="black" d="M560.89,-691.19C631.76,-686.27 826.88,-672.75 897.91,-667.82"/>
</g>
<!-- 6622777104 -->
<g id="node57" class="node">
<title>6622777104</title>
<ellipse fill="none" stroke="black" cx="925.21" cy="-612" rx="27" ry="18"/>
<text text-anchor="middle" x="925.21" y="-606.38" font-family="Times,serif" font-size="15.00">xor</text>
</g>
<!-- 6622568848&#45;&#45;6622777104 -->
<g id="edge61" class="edge">
<title>6622568848&#45;&#45;6622777104</title>
<path fill="none" stroke="black" d="M559.99,-687.75C630.45,-673.09 828.62,-631.88 899.01,-617.24"/>
</g>
<!-- 6622778320 -->
<g id="node65" class="node">
<title>6622778320</title>
<ellipse fill="none" stroke="black" cx="925.21" cy="-558" rx="132.23" ry="18"/>
<text text-anchor="middle" x="925.21" y="-552.38" font-family="Times,serif" font-size="15.00">registration date publication</text>
</g>
<!-- 6622568848&#45;&#45;6622778320 -->
<g id="edge62" class="edge">
<title>6622568848&#45;&#45;6622778320</title>
<path fill="none" stroke="black" d="M558.22,-684.86C620.39,-663.31 790.25,-604.43 874.9,-575.09"/>
</g>
<!-- 6621771024 -->
<g id="node66" class="node">
<title>6621771024</title>
<ellipse fill="none" stroke="black" cx="925.21" cy="-504" rx="99.08" ry="18"/>
<text text-anchor="middle" x="925.21" y="-498.38" font-family="Times,serif" font-size="15.00">terminate on request</text>
</g>
<!-- 6622568848&#45;&#45;6621771024 -->
<g id="edge63" class="edge">
<title>6622568848&#45;&#45;6621771024</title>
<path fill="none" stroke="black" d="M556.23,-682.57C620.18,-651.54 809.68,-559.58 888.84,-521.16"/>
</g>
<!-- 6621768784 -->
<g id="node67" class="node">
<title>6621768784</title>
<ellipse fill="none" stroke="black" cx="925.21" cy="-450" rx="178.53" ry="18"/>
<text text-anchor="middle" x="925.21" y="-444.38" font-family="Times,serif" font-size="15.00">enter date termination request received</text>
</g>
<!-- 6622568848&#45;&#45;6621768784 -->
<g id="edge64" class="edge">
<title>6622568848&#45;&#45;6621768784</title>
<path fill="none" stroke="black" d="M554.32,-680.78C618.02,-641.03 819.63,-515.25 895.22,-468.09"/>
</g>
<!-- 6621767824 -->
<g id="node68" class="node">
<title>6621767824</title>
<ellipse fill="none" stroke="black" cx="925.21" cy="-396" rx="27" ry="18"/>
<text text-anchor="middle" x="925.21" y="-390.38" font-family="Times,serif" font-size="15.00">xor</text>
</g>
<!-- 6622568848&#45;&#45;6621767824 -->
<g id="edge73" class="edge">
<title>6622568848&#45;&#45;6621767824</title>
<path fill="none" stroke="black" d="M552.48,-679.47C617.51,-629.88 842.33,-458.44 906.8,-409.27"/>
</g>
<!-- 6621766608 -->
<g id="node77" class="node">
<title>6621766608</title>
<ellipse fill="none" stroke="black" cx="925.21" cy="-342" rx="27" ry="18"/>
<text text-anchor="middle" x="925.21" y="-336.38" font-family="Times,serif" font-size="15.00">xor</text>
</g>
<!-- 6622568848&#45;&#45;6621766608 -->
<g id="edge76" class="edge">
<title>6622568848&#45;&#45;6621766608</title>
<path fill="none" stroke="black" d="M550.49,-678.81C613.25,-622.25 845.15,-413.25 908.26,-356.37"/>
</g>
<!-- 6622873424 -->
<g id="node7" class="node">
<title>6622873424</title>
<ellipse fill="none" stroke="black" cx="1332.99" cy="-1096" rx="108.55" ry="18"/>
<text text-anchor="middle" x="1332.99" y="-1090.38" font-family="Times,serif" font-size="15.00">OLO messaging active</text>
</g>
<!-- 6623254288&#45;&#45;6622873424 -->
<g id="edge3" class="edge">
<title>6623254288&#45;&#45;6622873424</title>
<path fill="none" stroke="black" d="M952.21,-1047.33C1010.29,-1054.77 1152.73,-1073.03 1245.71,-1084.94"/>
</g>
<!-- 6623259024 -->
<g id="node8" class="node">
<title>6623259024</title>
<ellipse fill="none" stroke="black" cx="1332.99" cy="-1042" rx="27" ry="18"/>
<text text-anchor="middle" x="1332.99" y="-1036.38" font-family="Times,serif" font-size="15.00">seq</text>
</g>
<!-- 6623254288&#45;&#45;6623259024 -->
<g id="edge33" class="edge">
<title>6623254288&#45;&#45;6623259024</title>
<path fill="none" stroke="black" d="M952.52,-1043.87C1025.93,-1043.51 1232.4,-1042.49 1305.74,-1042.13"/>
</g>
<!-- 6622872976 -->
<g id="node9" class="node">
<title>6622872976</title>
<ellipse fill="none" stroke="black" cx="1738.67" cy="-1229" rx="152.75" ry="18"/>
<text text-anchor="middle" x="1738.67" y="-1223.38" font-family="Times,serif" font-size="15.00">enter senddate acknowledgement</text>
</g>
<!-- 6623259024&#45;&#45;6622872976 -->
<g id="edge4" class="edge">
<title>6623259024&#45;&#45;6622872976</title>
<path fill="none" stroke="black" d="M1355.7,-1052.05C1420.96,-1082.29 1616.03,-1172.65 1699.3,-1211.23"/>
</g>
<!-- 6622459856 -->
<g id="node10" class="node">
<title>6622459856</title>
<ellipse fill="none" stroke="black" cx="1738.67" cy="-1175" rx="27" ry="18"/>
<text text-anchor="middle" x="1738.67" y="-1169.38" font-family="Times,serif" font-size="15.00">xor</text>
</g>
<!-- 6623259024&#45;&#45;6622459856 -->
<g id="edge18" class="edge">
<title>6623259024&#45;&#45;6622459856</title>
<path fill="none" stroke="black" d="M1357.74,-1049.82C1429.31,-1073.4 1642.42,-1143.62 1713.96,-1167.19"/>
</g>
<!-- 6622454928 -->
<g id="node24" class="node">
<title>6622454928</title>
<ellipse fill="none" stroke="black" cx="1738.67" cy="-1035" rx="27" ry="18"/>
<text text-anchor="middle" x="1738.67" y="-1029.38" font-family="Times,serif" font-size="15.00">and</text>
</g>
<!-- 6623259024&#45;&#45;6622454928 -->
<g id="edge25" class="edge">
<title>6623259024&#45;&#45;6622454928</title>
<path fill="none" stroke="black" d="M1360.48,-1041.54C1433.71,-1040.27 1638.32,-1036.72 1711.35,-1035.46"/>
</g>
<!-- 6622113488 -->
<g id="node31" class="node">
<title>6622113488</title>
<ellipse fill="none" stroke="black" cx="1738.67" cy="-862" rx="27" ry="18"/>
<text text-anchor="middle" x="1738.67" y="-856.38" font-family="Times,serif" font-size="15.00">xor</text>
</g>
<!-- 6623259024&#45;&#45;6622113488 -->
<g id="edge32" class="edge">
<title>6623259024&#45;&#45;6622113488</title>
<path fill="none" stroke="black" d="M1355.98,-1032.19C1426.4,-1000.8 1645.81,-902.96 1715.91,-871.7"/>
</g>
<!-- 6622460048 -->
<g id="node11" class="node">
<title>6622460048</title>
<ellipse fill="none" stroke="black" cx="2115.94" cy="-1457" rx="47" ry="18"/>
<text text-anchor="middle" x="2115.94" y="-1451.38" font-family="Times,serif" font-size="15.00">xor loop</text>
</g>
<!-- 6622459856&#45;&#45;6622460048 -->
<g id="edge7" class="edge">
<title>6622459856&#45;&#45;6622460048</title>
<path fill="none" stroke="black" d="M1757.27,-1188.22C1819.15,-1234.72 2026.59,-1390.6 2093.76,-1441.08"/>
</g>
<!-- 6622445712 -->
<g id="node14" class="node">
<title>6622445712</title>
<ellipse fill="none" stroke="black" cx="2115.94" cy="-1364" rx="27" ry="18"/>
<text text-anchor="middle" x="2115.94" y="-1358.38" font-family="Times,serif" font-size="15.00">seq</text>
</g>
<!-- 6622459856&#45;&#45;6622445712 -->
<g id="edge10" class="edge">
<title>6622459856&#45;&#45;6622445712</title>
<path fill="none" stroke="black" d="M1760.93,-1185.7C1826.98,-1218.97 2028.19,-1320.31 2093.93,-1353.41"/>
</g>
<!-- 6622446672 -->
<g id="node17" class="node">
<title>6622446672</title>
<ellipse fill="none" stroke="black" cx="2115.94" cy="-1175" rx="27" ry="18"/>
<text text-anchor="middle" x="2115.94" y="-1169.38" font-family="Times,serif" font-size="15.00">seq</text>
</g>
<!-- 6622459856&#45;&#45;6622446672 -->
<g id="edge17" class="edge">
<title>6622459856&#45;&#45;6622446672</title>
<path fill="none" stroke="black" d="M1766.06,-1175C1834.97,-1175 2019.72,-1175 2088.59,-1175"/>
</g>
<!-- 6622454032 -->
<g id="node12" class="node">
<title>6622454032</title>
<ellipse fill="none" stroke="black" cx="2541.62" cy="-1496" rx="200.1" ry="18"/>
<text text-anchor="middle" x="2541.62" y="-1490.38" font-family="Times,serif" font-size="15.00">registrer date of publishing received request</text>
</g>
<!-- 6622460048&#45;&#45;6622454032 -->
<g id="edge5" class="edge">
<title>6622460048&#45;&#45;6622454032</title>
<path fill="none" stroke="black" d="M2161.88,-1461.14C2218,-1466.3 2316.67,-1475.38 2399.23,-1482.98"/>
</g>
<!-- 6622453136 -->
<g id="node13" class="node">
<title>6622453136</title>
<ellipse fill="black" stroke="black" cx="2541.62" cy="-1457" rx="2.7" ry="2.7"/>
</g>
<!-- 6622460048&#45;&#45;6622453136 -->
<g id="edge6" class="edge">
<title>6622460048&#45;&#45;6622453136</title>
<path fill="none" stroke="black" d="M2163.09,-1457C2267.32,-1457 2513.83,-1457 2538.6,-1457"/>
</g>
<!-- 6622451408 -->
<g id="node15" class="node">
<title>6622451408</title>
<ellipse fill="none" stroke="black" cx="2541.62" cy="-1418" rx="203.25" ry="18"/>
<text text-anchor="middle" x="2541.62" y="-1412.38" font-family="Times,serif" font-size="15.00">enter date decision procedure term extension</text>
</g>
<!-- 6622445712&#45;&#45;6622451408 -->
<g id="edge8" class="edge">
<title>6622445712&#45;&#45;6622451408</title>
<path fill="none" stroke="black" d="M2142.81,-1367.3C2197.25,-1374.23 2326.57,-1390.72 2423.09,-1403.02"/>
</g>
<!-- 6622111632 -->
<g id="node16" class="node">
<title>6622111632</title>
<ellipse fill="none" stroke="black" cx="2541.62" cy="-1364" rx="222.72" ry="18"/>
<text text-anchor="middle" x="2541.62" y="-1358.38" font-family="Times,serif" font-size="15.00">enter senddate decision procedure term extension</text>
</g>
<!-- 6622445712&#45;&#45;6622111632 -->
<g id="edge9" class="edge">
<title>6622445712&#45;&#45;6622111632</title>
<path fill="none" stroke="black" d="M2143.13,-1364C2179.3,-1364 2248.1,-1364 2318.42,-1364"/>
</g>
<!-- 6622106576 -->
<g id="node18" class="node">
<title>6622106576</title>
<ellipse fill="none" stroke="black" cx="2541.62" cy="-1310" rx="125.39" ry="18"/>
<text text-anchor="middle" x="2541.62" y="-1304.38" font-family="Times,serif" font-size="15.00">inform BAG administrator</text>
</g>
<!-- 6622446672&#45;&#45;6622106576 -->
<g id="edge11" class="edge">
<title>6622446672&#45;&#45;6622106576</title>
<path fill="none" stroke="black" d="M2140.94,-1182.64C2207.54,-1203.87 2395.89,-1263.88 2488.25,-1293.31"/>
</g>
<!-- 6622115152 -->
<g id="node19" class="node">
<title>6622115152</title>
<ellipse fill="none" stroke="black" cx="2541.62" cy="-1256" rx="67.52" ry="18"/>
<text text-anchor="middle" x="2541.62" y="-1250.38" font-family="Times,serif" font-size="15.00">MER present</text>
</g>
<!-- 6622446672&#45;&#45;6622115152 -->
<g id="edge12" class="edge">
<title>6622446672&#45;&#45;6622115152</title>
<path fill="none" stroke="black" d="M2142.18,-1179.82C2209.25,-1192.65 2393.13,-1227.8 2485.76,-1245.51"/>
</g>
<!-- 6622113808 -->
<g id="node20" class="node">
<title>6622113808</title>
<ellipse fill="none" stroke="black" cx="2541.62" cy="-1202" rx="129.07" ry="18"/>
<text text-anchor="middle" x="2541.62" y="-1196.38" font-family="Times,serif" font-size="15.00">activities regular procedure</text>
</g>
<!-- 6622446672&#45;&#45;6622113808 -->
<g id="edge13" class="edge">
<title>6622446672&#45;&#45;6622113808</title>
<path fill="none" stroke="black" d="M2143.13,-1176.67C2197.79,-1180.15 2326.97,-1188.38 2423.32,-1194.52"/>
</g>
<!-- 6622109136 -->
<g id="node21" class="node">
<title>6622109136</title>
<ellipse fill="none" stroke="black" cx="2541.62" cy="-1148" rx="91.19" ry="18"/>
<text text-anchor="middle" x="2541.62" y="-1142.38" font-family="Times,serif" font-size="15.00">phased application</text>
</g>
<!-- 6622446672&#45;&#45;6622109136 -->
<g id="edge14" class="edge">
<title>6622446672&#45;&#45;6622109136</title>
<path fill="none" stroke="black" d="M2143.13,-1173.33C2203.93,-1169.46 2356.89,-1159.71 2454.36,-1153.5"/>
</g>
<!-- 6622105488 -->
<g id="node22" class="node">
<title>6622105488</title>
<ellipse fill="none" stroke="black" cx="2541.62" cy="-1094" rx="99.61" ry="18"/>
<text text-anchor="middle" x="2541.62" y="-1088.38" font-family="Times,serif" font-size="15.00">first or second phase</text>
</g>
<!-- 6622446672&#45;&#45;6622105488 -->
<g id="edge15" class="edge">
<title>6622446672&#45;&#45;6622105488</title>
<path fill="none" stroke="black" d="M2142.18,-1170.18C2206.04,-1157.97 2375.82,-1125.51 2471.87,-1107.14"/>
</g>
<!-- 6622111056 -->
<g id="node23" class="node">
<title>6622111056</title>
<ellipse fill="none" stroke="black" cx="2541.62" cy="-1040" rx="203.78" ry="18"/>
<text text-anchor="middle" x="2541.62" y="-1034.38" font-family="Times,serif" font-size="15.00">no permit needed or only notification needed</text>
</g>
<!-- 6622446672&#45;&#45;6622111056 -->
<g id="edge16" class="edge">
<title>6622446672&#45;&#45;6622111056</title>
<path fill="none" stroke="black" d="M2140.94,-1167.36C2206.76,-1146.38 2391.45,-1087.53 2484.93,-1057.74"/>
</g>
<!-- 6622115408 -->
<g id="node25" class="node">
<title>6622115408</title>
<ellipse fill="none" stroke="black" cx="2115.94" cy="-1083" rx="97.51" ry="18"/>
<text text-anchor="middle" x="2115.94" y="-1077.38" font-family="Times,serif" font-size="15.00">WAW permit aspect</text>
</g>
<!-- 6622454928&#45;&#45;6622115408 -->
<g id="edge19" class="edge">
<title>6622454928&#45;&#45;6622115408</title>
<path fill="none" stroke="black" d="M1765.47,-1038.3C1820.11,-1045.29 1949.5,-1061.84 2034.58,-1072.72"/>
</g>
<!-- 6622107280 -->
<g id="node26" class="node">
<title>6622107280</title>
<ellipse fill="none" stroke="black" cx="2115.94" cy="-1029" rx="112.76" ry="18"/>
<text text-anchor="middle" x="2115.94" y="-1023.38" font-family="Times,serif" font-size="15.00">applicant is stakeholder</text>
</g>
<!-- 6622454928&#45;&#45;6622107280 -->
<g id="edge20" class="edge">
<title>6622454928&#45;&#45;6622107280</title>
<path fill="none" stroke="black" d="M1766.06,-1034.58C1814.69,-1033.8 1921.04,-1032.1 2003.62,-1030.78"/>
</g>
<!-- 6622111824 -->
<g id="node27" class="node">
<title>6622111824</title>
<ellipse fill="none" stroke="black" cx="2115.94" cy="-963" rx="27" ry="18"/>
<text text-anchor="middle" x="2115.94" y="-957.38" font-family="Times,serif" font-size="15.00">seq</text>
</g>
<!-- 6622454928&#45;&#45;6622111824 -->
<g id="edge24" class="edge">
<title>6622454928&#45;&#45;6622111824</title>
<path fill="none" stroke="black" d="M1765.17,-1030.11C1833.8,-1016.94 2021.81,-980.87 2089.9,-967.8"/>
</g>
<!-- 6621229648 -->
<g id="node28" class="node">
<title>6621229648</title>
<ellipse fill="none" stroke="black" cx="2541.62" cy="-986" rx="107.5" ry="18"/>
<text text-anchor="middle" x="2541.62" y="-980.38" font-family="Times,serif" font-size="15.00">extend procedure term</text>
</g>
<!-- 6622111824&#45;&#45;6621229648 -->
<g id="edge21" class="edge">
<title>6622111824&#45;&#45;6621229648</title>
<path fill="none" stroke="black" d="M2143.13,-964.42C2200.77,-967.55 2341.25,-975.18 2438.75,-980.47"/>
</g>
<!-- 6621227216 -->
<g id="node29" class="node">
<title>6621227216</title>
<ellipse fill="none" stroke="black" cx="2541.62" cy="-932" rx="68.04" ry="18"/>
<text text-anchor="middle" x="2541.62" y="-926.38" font-family="Times,serif" font-size="15.00">suspend term</text>
</g>
<!-- 6622111824&#45;&#45;6621227216 -->
<g id="edge22" class="edge">
<title>6622111824&#45;&#45;6621227216</title>
<path fill="none" stroke="black" d="M2143.13,-961.08C2208.53,-956.3 2380.57,-943.71 2475.47,-936.77"/>
</g>
<!-- 6621219280 -->
<g id="node30" class="node">
<title>6621219280</title>
<ellipse fill="none" stroke="black" cx="2541.62" cy="-878" rx="131.18" ry="18"/>
<text text-anchor="middle" x="2541.62" y="-872.38" font-family="Times,serif" font-size="15.00">treat subcases completeness</text>
</g>
<!-- 6622111824&#45;&#45;6621219280 -->
<g id="edge23" class="edge">
<title>6622111824&#45;&#45;6621219280</title>
<path fill="none" stroke="black" d="M2142.18,-957.94C2204.71,-945.39 2368.76,-912.48 2465.75,-893.02"/>
</g>
<!-- 6621926288 -->
<g id="node32" class="node">
<title>6621926288</title>
<ellipse fill="none" stroke="black" cx="2115.94" cy="-862" rx="156.43" ry="18"/>
<text text-anchor="middle" x="2115.94" y="-856.38" font-family="Times,serif" font-size="15.00">subcases completeness completed</text>
</g>
<!-- 6622113488&#45;&#45;6621926288 -->
<g id="edge26" class="edge">
<title>6622113488&#45;&#45;6621926288</title>
<path fill="none" stroke="black" d="M1766.06,-862C1806.35,-862 1886.26,-862 1959.44,-862"/>
</g>
<!-- 6621931984 -->
<g id="node33" class="node">
<title>6621931984</title>
<ellipse fill="none" stroke="black" cx="2115.94" cy="-770" rx="27" ry="18"/>
<text text-anchor="middle" x="2115.94" y="-764.38" font-family="Times,serif" font-size="15.00">seq</text>
</g>
<!-- 6622113488&#45;&#45;6621931984 -->
<g id="edge31" class="edge">
<title>6622113488&#45;&#45;6621931984</title>
<path fill="none" stroke="black" d="M1764.59,-855.89C1832.85,-839.16 2022.32,-792.71 2090.29,-776.05"/>
</g>
<!-- 6621932304 -->
<g id="node34" class="node">
<title>6621932304</title>
<ellipse fill="none" stroke="black" cx="2541.62" cy="-824" rx="186.42" ry="18"/>
<text text-anchor="middle" x="2541.62" y="-818.38" font-family="Times,serif" font-size="15.00">register number of days extension period</text>
</g>
<!-- 6621931984&#45;&#45;6621932304 -->
<g id="edge27" class="edge">
<title>6621931984&#45;&#45;6621932304</title>
<path fill="none" stroke="black" d="M2142.81,-773.3C2197.87,-780.32 2329.57,-797.1 2426.42,-809.44"/>
</g>
<!-- 6621929104 -->
<g id="node35" class="node">
<title>6621929104</title>
<ellipse fill="none" stroke="black" cx="2541.62" cy="-770" rx="195.89" ry="18"/>
<text text-anchor="middle" x="2541.62" y="-764.38" font-family="Times,serif" font-size="15.00">creating decision procedure term extension</text>
</g>
<!-- 6621931984&#45;&#45;6621929104 -->
<g id="edge28" class="edge">
<title>6621931984&#45;&#45;6621929104</title>
<path fill="none" stroke="black" d="M2143.13,-770C2183.9,-770 2266.12,-770 2345.26,-770"/>
</g>
<!-- 6622774608 -->
<g id="node36" class="node">
<title>6622774608</title>
<ellipse fill="none" stroke="black" cx="2541.62" cy="-716" rx="158.53" ry="18"/>
<text text-anchor="middle" x="2541.62" y="-710.38" font-family="Times,serif" font-size="15.00">decision procedure term extension</text>
</g>
<!-- 6621931984&#45;&#45;6622774608 -->
<g id="edge29" class="edge">
<title>6621931984&#45;&#45;6622774608</title>
<path fill="none" stroke="black" d="M2142.81,-766.7C2199.31,-759.5 2336.5,-742.02 2433.93,-729.6"/>
</g>
<!-- 6622787600 -->
<g id="node37" class="node">
<title>6622787600</title>
<ellipse fill="none" stroke="black" cx="2541.62" cy="-662" rx="224.82" ry="18"/>
<text text-anchor="middle" x="2541.62" y="-656.38" font-family="Times,serif" font-size="15.00">copy decision to extend procedure to stakeholders</text>
</g>
<!-- 6621931984&#45;&#45;6622787600 -->
<g id="edge30" class="edge">
<title>6621931984&#45;&#45;6622787600</title>
<path fill="none" stroke="black" d="M2141.55,-763.73C2204.96,-747.56 2375.64,-704.05 2471.99,-679.49"/>
</g>
<!-- 6622784976 -->
<g id="node40" class="node">
<title>6622784976</title>
<ellipse fill="black" stroke="black" cx="1332.99" cy="-975" rx="2.7" ry="2.7"/>
</g>
<!-- 6622783824&#45;&#45;6622784976 -->
<g id="edge36" class="edge">
<title>6622783824&#45;&#45;6622784976</title>
<path fill="none" stroke="black" d="M952.21,-938.5C1037.22,-946.67 1303.04,-972.22 1329.81,-974.79"/>
</g>
<!-- 6622783568 -->
<g id="node41" class="node">
<title>6622783568</title>
<ellipse fill="none" stroke="black" cx="1332.99" cy="-936" rx="110.66" ry="18"/>
<text text-anchor="middle" x="1332.99" y="-930.38" font-family="Times,serif" font-size="15.00">reception through OLO</text>
</g>
<!-- 6622783824&#45;&#45;6622783568 -->
<g id="edge37" class="edge">
<title>6622783824&#45;&#45;6622783568</title>
<path fill="none" stroke="black" d="M952.52,-936C1006,-936 1130.09,-936 1221.88,-936"/>
</g>
<!-- 6622788112 -->
<g id="node43" class="node">
<title>6622788112</title>
<ellipse fill="none" stroke="black" cx="1332.99" cy="-882" rx="121.18" ry="18"/>
<text text-anchor="middle" x="1332.99" y="-876.38" font-family="Times,serif" font-size="15.00">send confirmation receipt</text>
</g>
<!-- 6622779408&#45;&#45;6622788112 -->
<g id="edge39" class="edge">
<title>6622779408&#45;&#45;6622788112</title>
<path fill="none" stroke="black" d="M972.36,-882C1030.11,-882 1131.17,-882 1211.49,-882"/>
</g>
<!-- 6622784144 -->
<g id="node44" class="node">
<title>6622784144</title>
<ellipse fill="black" stroke="black" cx="1332.99" cy="-843" rx="2.7" ry="2.7"/>
</g>
<!-- 6622779408&#45;&#45;6622784144 -->
<g id="edge40" class="edge">
<title>6622779408&#45;&#45;6622784144</title>
<path fill="none" stroke="black" d="M971.19,-877.68C1071.47,-868.04 1306.47,-845.45 1330.07,-843.18"/>
</g>
<!-- 6622775376 -->
<g id="node48" class="node">
<title>6622775376</title>
<ellipse fill="none" stroke="black" cx="1332.99" cy="-778" rx="134.33" ry="18"/>
<text text-anchor="middle" x="1332.99" y="-772.38" font-family="Times,serif" font-size="15.00">send procedure confirmation</text>
</g>
<!-- 6622780944&#45;&#45;6622775376 -->
<g id="edge44" class="edge">
<title>6622780944&#45;&#45;6622775376</title>
<path fill="none" stroke="black" d="M951.9,-723.67C1008.44,-731.75 1145.99,-751.41 1239.15,-764.73"/>
</g>
<!-- 6622780240 -->
<g id="node49" class="node">
<title>6622780240</title>
<ellipse fill="none" stroke="black" cx="1332.99" cy="-724" rx="27" ry="18"/>
<text text-anchor="middle" x="1332.99" y="-718.38" font-family="Times,serif" font-size="15.00">seq</text>
</g>
<!-- 6622780944&#45;&#45;6622780240 -->
<g id="edge49" class="edge">
<title>6622780944&#45;&#45;6622780240</title>
<path fill="none" stroke="black" d="M952.52,-720.26C1025.93,-720.98 1232.4,-723.02 1305.74,-723.74"/>
</g>
<!-- 6622784848 -->
<g id="node50" class="node">
<title>6622784848</title>
<ellipse fill="none" stroke="black" cx="1738.67" cy="-778" rx="176.42" ry="18"/>
<text text-anchor="middle" x="1738.67" y="-772.38" font-family="Times,serif" font-size="15.00">enter senddate procedure confirmation</text>
</g>
<!-- 6622780240&#45;&#45;6622784848 -->
<g id="edge45" class="edge">
<title>6622780240&#45;&#45;6622784848</title>
<path fill="none" stroke="black" d="M1359.86,-727.46C1413.11,-734.58 1537.66,-751.24 1629.27,-763.5"/>
</g>
<!-- 6622782672 -->
<g id="node51" class="node">
<title>6622782672</title>
<ellipse fill="none" stroke="black" cx="1738.67" cy="-724" rx="27" ry="18"/>
<text text-anchor="middle" x="1738.67" y="-718.38" font-family="Times,serif" font-size="15.00">xor</text>
</g>
<!-- 6622780240&#45;&#45;6622782672 -->
<g id="edge48" class="edge">
<title>6622780240&#45;&#45;6622782672</title>
<path fill="none" stroke="black" d="M1360.48,-724C1433.71,-724 1638.32,-724 1711.35,-724"/>
</g>
<!-- 6622773712 -->
<g id="node52" class="node">
<title>6622773712</title>
<ellipse fill="black" stroke="black" cx="2115.94" cy="-730" rx="2.7" ry="2.7"/>
</g>
<!-- 6622782672&#45;&#45;6622773712 -->
<g id="edge46" class="edge">
<title>6622782672&#45;&#45;6622773712</title>
<path fill="none" stroke="black" d="M1766.06,-724.42C1847.14,-725.72 2088.65,-729.58 2112.96,-729.97"/>
</g>
<!-- 6622785424 -->
<g id="node53" class="node">
<title>6622785424</title>
<ellipse fill="none" stroke="black" cx="2115.94" cy="-691" rx="164.85" ry="18"/>
<text text-anchor="middle" x="2115.94" y="-685.38" font-family="Times,serif" font-size="15.00">enter senddate confirmation request</text>
</g>
<!-- 6622782672&#45;&#45;6622785424 -->
<g id="edge47" class="edge">
<title>6622782672&#45;&#45;6622785424</title>
<path fill="none" stroke="black" d="M1765.76,-721.71C1810.81,-717.74 1905.99,-709.37 1985.62,-702.37"/>
</g>
<!-- 6622785616 -->
<g id="node55" class="node">
<title>6622785616</title>
<ellipse fill="black" stroke="black" cx="1332.99" cy="-685" rx="2.7" ry="2.7"/>
</g>
<!-- 6622779344&#45;&#45;6622785616 -->
<g id="edge51" class="edge">
<title>6622779344&#45;&#45;6622785616</title>
<path fill="none" stroke="black" d="M952.52,-667.23C1037.88,-671.23 1303.1,-683.65 1329.82,-684.9"/>
</g>
<!-- 6622776016 -->
<g id="node56" class="node">
<title>6622776016</title>
<ellipse fill="none" stroke="black" cx="1332.99" cy="-646" rx="193.26" ry="18"/>
<text text-anchor="middle" x="1332.99" y="-640.38" font-family="Times,serif" font-size="15.00">register date decision terminate on request</text>
</g>
<!-- 6622779344&#45;&#45;6622776016 -->
<g id="edge52" class="edge">
<title>6622779344&#45;&#45;6622776016</title>
<path fill="none" stroke="black" d="M952.52,-664.7C994.76,-662.62 1081.05,-658.37 1160.68,-654.44"/>
</g>
<!-- 6622966416 -->
<g id="node58" class="node">
<title>6622966416</title>
<ellipse fill="black" stroke="black" cx="1332.99" cy="-607" rx="2.7" ry="2.7"/>
</g>
<!-- 6622777104&#45;&#45;6622966416 -->
<g id="edge54" class="edge">
<title>6622777104&#45;&#45;6622966416</title>
<path fill="none" stroke="black" d="M952.52,-611.68C1037.88,-610.62 1303.1,-607.36 1329.82,-607.03"/>
</g>
<!-- 6622958864 -->
<g id="node59" class="node">
<title>6622958864</title>
<ellipse fill="none" stroke="black" cx="1332.99" cy="-565" rx="27" ry="18"/>
<text text-anchor="middle" x="1332.99" y="-559.38" font-family="Times,serif" font-size="15.00">seq</text>
</g>
<!-- 6622777104&#45;&#45;6622958864 -->
<g id="edge60" class="edge">
<title>6622777104&#45;&#45;6622958864</title>
<path fill="none" stroke="black" d="M952.21,-608.99C1025.42,-600.51 1232.69,-576.5 1305.95,-568.02"/>
</g>
<!-- 6622953680 -->
<g id="node60" class="node">
<title>6622953680</title>
<ellipse fill="none" stroke="black" cx="1738.67" cy="-670" rx="140.65" ry="18"/>
<text text-anchor="middle" x="1738.67" y="-664.38" font-family="Times,serif" font-size="15.00">create procedure confirmation</text>
</g>
<!-- 6622958864&#45;&#45;6622953680 -->
<g id="edge55" class="edge">
<title>6622958864&#45;&#45;6622953680</title>
<path fill="none" stroke="black" d="M1358.64,-571.41C1420.52,-587.51 1583.97,-630.02 1674.72,-653.62"/>
</g>
<!-- 6622960784 -->
<g id="node61" class="node">
<title>6622960784</title>
<ellipse fill="none" stroke="black" cx="1738.67" cy="-616" rx="42.79" ry="18"/>
<text text-anchor="middle" x="1738.67" y="-610.38" font-family="Times,serif" font-size="15.00">publish</text>
</g>
<!-- 6622958864&#45;&#45;6622960784 -->
<g id="edge56" class="edge">
<title>6622958864&#45;&#45;6622960784</title>
<path fill="none" stroke="black" d="M1359.86,-568.27C1428.34,-576.92 1614.72,-600.47 1697.33,-610.9"/>
</g>
<!-- 6622964752 -->
<g id="node62" class="node">
<title>6622964752</title>
<ellipse fill="none" stroke="black" cx="1738.67" cy="-562" rx="132.76" ry="18"/>
<text text-anchor="middle" x="1738.67" y="-556.38" font-family="Times,serif" font-size="15.00">create publication document</text>
</g>
<!-- 6622958864&#45;&#45;6622964752 -->
<g id="edge57" class="edge">
<title>6622958864&#45;&#45;6622964752</title>
<path fill="none" stroke="black" d="M1360.48,-564.8C1409.59,-564.44 1517.8,-563.63 1605.77,-562.98"/>
</g>
<!-- 6622968528 -->
<g id="node63" class="node">
<title>6622968528</title>
<ellipse fill="none" stroke="black" cx="1738.67" cy="-508" rx="137.49" ry="18"/>
<text text-anchor="middle" x="1738.67" y="-502.38" font-family="Times,serif" font-size="15.00">create subcases completeness</text>
</g>
<!-- 6622958864&#45;&#45;6622968528 -->
<g id="edge58" class="edge">
<title>6622958864&#45;&#45;6622968528</title>
<path fill="none" stroke="black" d="M1359.86,-561.35C1415.89,-553.44 1550.88,-534.38 1643.35,-521.32"/>
</g>
<!-- 6621772048 -->
<g id="node64" class="node">
<title>6621772048</title>
<ellipse fill="none" stroke="black" cx="1738.67" cy="-454" rx="86.46" ry="18"/>
<text text-anchor="middle" x="1738.67" y="-448.38" font-family="Times,serif" font-size="15.00">procedure change</text>
</g>
<!-- 6622958864&#45;&#45;6621772048 -->
<g id="edge59" class="edge">
<title>6622958864&#45;&#45;6621772048</title>
<path fill="none" stroke="black" d="M1358.34,-558.31C1422.43,-540.68 1596.97,-492.69 1685.17,-468.44"/>
</g>
<!-- 6621769360 -->
<g id="node69" class="node">
<title>6621769360</title>
<ellipse fill="black" stroke="black" cx="1332.99" cy="-431" rx="2.7" ry="2.7"/>
</g>
<!-- 6621767824&#45;&#45;6621769360 -->
<g id="edge65" class="edge">
<title>6621767824&#45;&#45;6621769360</title>
<path fill="none" stroke="black" d="M952.21,-398.24C1037.22,-405.58 1303.04,-428.5 1329.81,-430.81"/>
</g>
<!-- 6621761424 -->
<g id="node70" class="node">
<title>6621761424</title>
<ellipse fill="none" stroke="black" cx="1332.99" cy="-392" rx="27" ry="18"/>
<text text-anchor="middle" x="1332.99" y="-386.38" font-family="Times,serif" font-size="15.00">seq</text>
</g>
<!-- 6621767824&#45;&#45;6621761424 -->
<g id="edge72" class="edge">
<title>6621767824&#45;&#45;6621761424</title>
<path fill="none" stroke="black" d="M952.52,-395.74C1025.93,-395.02 1232.4,-392.98 1305.74,-392.26"/>
</g>
<!-- 6621765392 -->
<g id="node71" class="node">
<title>6621765392</title>
<ellipse fill="none" stroke="black" cx="1738.67" cy="-398" rx="27" ry="18"/>
<text text-anchor="middle" x="1738.67" y="-392.38" font-family="Times,serif" font-size="15.00">and</text>
</g>
<!-- 6621761424&#45;&#45;6621765392 -->
<g id="edge68" class="edge">
<title>6621761424&#45;&#45;6621765392</title>
<path fill="none" stroke="black" d="M1360.48,-392.39C1433.71,-393.48 1638.32,-396.52 1711.35,-397.61"/>
</g>
<!-- 6621758928 -->
<g id="node74" class="node">
<title>6621758928</title>
<ellipse fill="none" stroke="black" cx="1738.67" cy="-344" rx="27" ry="18"/>
<text text-anchor="middle" x="1738.67" y="-338.38" font-family="Times,serif" font-size="15.00">xor</text>
</g>
<!-- 6621761424&#45;&#45;6621758928 -->
<g id="edge71" class="edge">
<title>6621761424&#45;&#45;6621758928</title>
<path fill="none" stroke="black" d="M1359.86,-388.92C1432.69,-380.26 1638.88,-355.75 1711.76,-347.08"/>
</g>
<!-- 6621770832 -->
<g id="node72" class="node">
<title>6621770832</title>
<ellipse fill="none" stroke="black" cx="2115.94" cy="-448" rx="124.86" ry="18"/>
<text text-anchor="middle" x="2115.94" y="-442.38" font-family="Times,serif" font-size="15.00">message terminate request</text>
</g>
<!-- 6621765392&#45;&#45;6621770832 -->
<g id="edge66" class="edge">
<title>6621765392&#45;&#45;6621770832</title>
<path fill="none" stroke="black" d="M1765.47,-401.44C1817.63,-408.39 1937.89,-424.41 2022.71,-435.71"/>
</g>
<!-- 6621771664 -->
<g id="node73" class="node">
<title>6621771664</title>
<ellipse fill="none" stroke="black" cx="2115.94" cy="-394" rx="159.06" ry="18"/>
<text text-anchor="middle" x="2115.94" y="-388.38" font-family="Times,serif" font-size="15.00">enter senddate request termination</text>
</g>
<!-- 6621765392&#45;&#45;6621771664 -->
<g id="edge67" class="edge">
<title>6621765392&#45;&#45;6621771664</title>
<path fill="none" stroke="black" d="M1766.06,-397.72C1805.94,-397.29 1884.61,-396.46 1957.16,-395.68"/>
</g>
<!-- 6621760336 -->
<g id="node75" class="node">
<title>6621760336</title>
<ellipse fill="black" stroke="black" cx="2115.94" cy="-348" rx="2.7" ry="2.7"/>
</g>
<!-- 6621758928&#45;&#45;6621760336 -->
<g id="edge69" class="edge">
<title>6621758928&#45;&#45;6621760336</title>
<path fill="none" stroke="black" d="M1766.06,-344.28C1847.14,-345.15 2088.65,-347.72 2112.96,-347.98"/>
</g>
<!-- 6621766160 -->
<g id="node76" class="node">
<title>6621766160</title>
<ellipse fill="none" stroke="black" cx="2115.94" cy="-309" rx="134.33" ry="18"/>
<text text-anchor="middle" x="2115.94" y="-303.38" font-family="Times,serif" font-size="15.00">cancel BAG objects research</text>
</g>
<!-- 6621758928&#45;&#45;6621766160 -->
<g id="edge70" class="edge">
<title>6621758928&#45;&#45;6621766160</title>
<path fill="none" stroke="black" d="M1765.76,-341.57C1814.38,-337.03 1921.41,-327.05 2004.25,-319.32"/>
</g>
<!-- 6621770576 -->
<g id="node78" class="node">
<title>6621770576</title>
<ellipse fill="black" stroke="black" cx="1332.99" cy="-346" rx="2.7" ry="2.7"/>
</g>
<!-- 6621766608&#45;&#45;6621770576 -->
<g id="edge74" class="edge">
<title>6621766608&#45;&#45;6621770576</title>
<path fill="none" stroke="black" d="M952.52,-342.26C1037.88,-343.1 1303.1,-345.72 1329.82,-345.98"/>
</g>
<!-- 6621757904 -->
<g id="node79" class="node">
<title>6621757904</title>
<ellipse fill="none" stroke="black" cx="1332.99" cy="-307" rx="82.77" ry="18"/>
<text text-anchor="middle" x="1332.99" y="-301.38" font-family="Times,serif" font-size="15.00">register deadline</text>
</g>
<!-- 6621766608&#45;&#45;6621757904 -->
<g id="edge75" class="edge">
<title>6621766608&#45;&#45;6621757904</title>
<path fill="none" stroke="black" d="M952.21,-339.76C1012.38,-334.57 1163.14,-321.56 1255.6,-313.59"/>
</g>
<!-- 6621766096 -->
<g id="node83" class="node">
<title>6621766096</title>
<ellipse fill="black" stroke="black" cx="533.74" cy="-331" rx="2.7" ry="2.7"/>
</g>
<!-- 6621771408&#45;&#45;6621766096 -->
<g id="edge81" class="edge">
<title>6621771408&#45;&#45;6621766096</title>
<path fill="none" stroke="black" d="M232.55,-313.52C305.75,-317.78 508.81,-329.61 530.8,-330.89"/>
</g>
<!-- 6621763472 -->
<g id="node84" class="node">
<title>6621763472</title>
<ellipse fill="none" stroke="black" cx="533.74" cy="-292" rx="176.95" ry="18"/>
<text text-anchor="middle" x="533.74" y="-286.38" font-family="Times,serif" font-size="15.00">stop process after terminate on request</text>
</g>
<!-- 6621771408&#45;&#45;6621763472 -->
<g id="edge82" class="edge">
<title>6621771408&#45;&#45;6621763472</title>
<path fill="none" stroke="black" d="M232.55,-310.4C265.22,-308.39 323.75,-304.81 380.51,-301.33"/>
</g>
<!-- 6621772944 -->
<g id="node85" class="node">
<title>6621772944</title>
<ellipse fill="none" stroke="black" cx="533.74" cy="-180" rx="27" ry="18"/>
<text text-anchor="middle" x="533.74" y="-174.38" font-family="Times,serif" font-size="15.00">seq</text>
</g>
<!-- 6621771408&#45;&#45;6621772944 -->
<g id="edge89" class="edge">
<title>6621771408&#45;&#45;6621772944</title>
<path fill="none" stroke="black" d="M229.08,-302.82C288.92,-278.62 450.53,-213.25 510.2,-189.12"/>
</g>
<!-- 6621759952 -->
<g id="node86" class="node">
<title>6621759952</title>
<ellipse fill="none" stroke="black" cx="925.21" cy="-288" rx="84.35" ry="18"/>
<text text-anchor="middle" x="925.21" y="-282.38" font-family="Times,serif" font-size="15.00">request complete</text>
</g>
<!-- 6621772944&#45;&#45;6621759952 -->
<g id="edge83" class="edge">
<title>6621772944&#45;&#45;6621759952</title>
<path fill="none" stroke="black" d="M559.1,-186.76C621.3,-204 787.05,-249.97 872.17,-273.57"/>
</g>
<!-- 6621758352 -->
<g id="node87" class="node">
<title>6621758352</title>
<ellipse fill="none" stroke="black" cx="925.21" cy="-234" rx="148.01" ry="18"/>
<text text-anchor="middle" x="925.21" y="-228.38" font-family="Times,serif" font-size="15.00">term for supplying missing data</text>
</g>
<!-- 6621772944&#45;&#45;6621758352 -->
<g id="edge84" class="edge">
<title>6621772944&#45;&#45;6621758352</title>
<path fill="none" stroke="black" d="M560.59,-183.58C613.68,-190.95 737.43,-208.1 825.79,-220.35"/>
</g>
<!-- 6621759312 -->
<g id="node88" class="node">
<title>6621759312</title>
<ellipse fill="none" stroke="black" cx="925.21" cy="-180" rx="166.43" ry="18"/>
<text text-anchor="middle" x="925.21" y="-174.38" font-family="Times,serif" font-size="15.00">create letter requesting missing data</text>
</g>
<!-- 6621772944&#45;&#45;6621759312 -->
<g id="edge85" class="edge">
<title>6621772944&#45;&#45;6621759312</title>
<path fill="none" stroke="black" d="M561.2,-180C601.95,-180 683.25,-180 758.6,-180"/>
</g>
<!-- 6622012432 -->
<g id="node89" class="node">
<title>6622012432</title>
<ellipse fill="none" stroke="black" cx="925.21" cy="-126" rx="101.19" ry="18"/>
<text text-anchor="middle" x="925.21" y="-120.38" font-family="Times,serif" font-size="15.00">retrieve missing data</text>
</g>
<!-- 6621772944&#45;&#45;6622012432 -->
<g id="edge86" class="edge">
<title>6621772944&#45;&#45;6622012432</title>
<path fill="none" stroke="black" d="M560.59,-176.42C617.51,-168.52 755.61,-149.38 844.29,-137.08"/>
</g>
<!-- 6622017232 -->
<g id="node90" class="node">
<title>6622017232</title>
<ellipse fill="none" stroke="black" cx="925.21" cy="-72" rx="161.69" ry="18"/>
<text text-anchor="middle" x="925.21" y="-66.38" font-family="Times,serif" font-size="15.00">phase asked additional information</text>
</g>
<!-- 6621772944&#45;&#45;6622017232 -->
<g id="edge87" class="edge">
<title>6621772944&#45;&#45;6622017232</title>
<path fill="none" stroke="black" d="M559.1,-173.24C619.13,-156.6 775.63,-113.2 862.99,-88.97"/>
</g>
<!-- 6622011600 -->
<g id="node91" class="node">
<title>6622011600</title>
<ellipse fill="none" stroke="black" cx="925.21" cy="-18" rx="165.37" ry="18"/>
<text text-anchor="middle" x="925.21" y="-12.38" font-family="Times,serif" font-size="15.00">enter senddate retrieve missing data</text>
</g>
<!-- 6621772944&#45;&#45;6622011600 -->
<g id="edge88" class="edge">
<title>6621772944&#45;&#45;6622011600</title>
<path fill="none" stroke="black" d="M557.36,-170.59C620.43,-144.36 799.01,-70.08 881.48,-35.77"/>
</g>
</g>
</svg>
