<?xml version="1.0" encoding="UTF-8" standalone="no"?>
<!DOCTYPE svg PUBLIC "-//W3C//DTD SVG 1.1//EN"
 "http://www.w3.org/Graphics/SVG/1.1/DTD/svg11.dtd">
<!-- Generated by graphviz version 8.0.5 (20230430.1635)
 -->
<!-- Title: pt Pages: 1 -->
<svg width="2108pt" height="1028pt"
 viewBox="0.00 0.00 2107.81 1028.00" xmlns="http://www.w3.org/2000/svg" xmlns:xlink="http://www.w3.org/1999/xlink">
<g id="graph0" class="graph" transform="scale(1 1) rotate(0) translate(4 1024)">
<title>pt</title>
<polygon fill="white" stroke="none" points="-4,4 -4,-1024 2103.81,-1024 2103.81,4 -4,4"/>
<!-- 6620899536 -->
<g id="node1" class="node">
<title>6620899536</title>
<ellipse fill="none" stroke="black" cx="27" cy="-427" rx="27" ry="18"/>
<text text-anchor="middle" x="27" y="-421.38" font-family="Times,serif" font-size="15.00">seq</text>
</g>
<!-- 5453524304 -->
<g id="node2" class="node">
<title>5453524304</title>
<ellipse fill="none" stroke="black" cx="239.06" cy="-508" rx="149.06" ry="18"/>
<text text-anchor="middle" x="239.06" y="-502.38" font-family="Times,serif" font-size="15.00">register submission date request</text>
</g>
<!-- 6620899536&#45;&#45;5453524304 -->
<g id="edge1" class="edge">
<title>6620899536&#45;&#45;5453524304</title>
<path fill="none" stroke="black" d="M50.88,-435.82C84.8,-448.9 149.12,-473.7 192.78,-490.54"/>
</g>
<!-- 5453513360 -->
<g id="node3" class="node">
<title>5453513360</title>
<ellipse fill="none" stroke="black" cx="239.06" cy="-454" rx="108.55" ry="18"/>
<text text-anchor="middle" x="239.06" y="-448.38" font-family="Times,serif" font-size="15.00">OLO messaging active</text>
</g>
<!-- 6620899536&#45;&#45;5453513360 -->
<g id="edge2" class="edge">
<title>6620899536&#45;&#45;5453513360</title>
<path fill="none" stroke="black" d="M53.76,-430.31C78.3,-433.47 116.64,-438.39 152.02,-442.94"/>
</g>
<!-- 5452616528 -->
<g id="node4" class="node">
<title>5452616528</title>
<ellipse fill="none" stroke="black" cx="239.06" cy="-400" rx="27" ry="18"/>
<text text-anchor="middle" x="239.06" y="-394.38" font-family="Times,serif" font-size="15.00">xor</text>
</g>
<!-- 6620899536&#45;&#45;5452616528 -->
<g id="edge48" class="edge">
<title>6620899536&#45;&#45;5452616528</title>
<path fill="none" stroke="black" d="M53.76,-423.69C94.08,-418.51 171.65,-408.54 212.1,-403.34"/>
</g>
<!-- 5452614160 -->
<g id="node50" class="node">
<title>5452614160</title>
<ellipse fill="none" stroke="black" cx="239.06" cy="-346" rx="27" ry="18"/>
<text text-anchor="middle" x="239.06" y="-340.38" font-family="Times,serif" font-size="15.00">xor</text>
</g>
<!-- 6620899536&#45;&#45;5452614160 -->
<g id="edge51" class="edge">
<title>6620899536&#45;&#45;5452614160</title>
<path fill="none" stroke="black" d="M50.88,-418.18C91.29,-402.6 174.82,-370.39 215.21,-354.81"/>
</g>
<!-- 5452619344 -->
<g id="node5" class="node">
<title>5452619344</title>
<ellipse fill="none" stroke="black" cx="478.49" cy="-867" rx="27" ry="18"/>
<text text-anchor="middle" x="478.49" y="-861.38" font-family="Times,serif" font-size="15.00">seq</text>
</g>
<!-- 5452616528&#45;&#45;5452619344 -->
<g id="edge8" class="edge">
<title>5452616528&#45;&#45;5452619344</title>
<path fill="none" stroke="black" d="M248.8,-417.17C286.11,-490.57 431.95,-777.43 468.93,-850.16"/>
</g>
<!-- 5452617808 -->
<g id="node11" class="node">
<title>5452617808</title>
<ellipse fill="none" stroke="black" cx="478.49" cy="-396" rx="27" ry="18"/>
<text text-anchor="middle" x="478.49" y="-390.38" font-family="Times,serif" font-size="15.00">seq</text>
</g>
<!-- 5452616528&#45;&#45;5452617808 -->
<g id="edge47" class="edge">
<title>5452616528&#45;&#45;5452617808</title>
<path fill="none" stroke="black" d="M266.38,-399.56C312.02,-398.79 405.34,-397.22 451.06,-396.45"/>
</g>
<!-- 5452624464 -->
<g id="node6" class="node">
<title>5452624464</title>
<ellipse fill="none" stroke="black" cx="747.38" cy="-1002" rx="178.53" ry="18"/>
<text text-anchor="middle" x="747.38" y="-996.38" font-family="Times,serif" font-size="15.00">enter date termination request received</text>
</g>
<!-- 5452619344&#45;&#45;5452624464 -->
<g id="edge3" class="edge">
<title>5452619344&#45;&#45;5452624464</title>
<path fill="none" stroke="black" d="M500.44,-877.59C545.9,-900.59 654.1,-955.32 710.62,-983.91"/>
</g>
<!-- 5452622544 -->
<g id="node7" class="node">
<title>5452622544</title>
<ellipse fill="none" stroke="black" cx="747.38" cy="-948" rx="124.86" ry="18"/>
<text text-anchor="middle" x="747.38" y="-942.38" font-family="Times,serif" font-size="15.00">message terminate request</text>
</g>
<!-- 5452619344&#45;&#45;5452622544 -->
<g id="edge4" class="edge">
<title>5452619344&#45;&#45;5452622544</title>
<path fill="none" stroke="black" d="M503.65,-874.33C545.93,-887.16 634.32,-913.99 691.97,-931.48"/>
</g>
<!-- 5452616144 -->
<g id="node8" class="node">
<title>5452616144</title>
<ellipse fill="none" stroke="black" cx="747.38" cy="-894" rx="159.06" ry="18"/>
<text text-anchor="middle" x="747.38" y="-888.38" font-family="Times,serif" font-size="15.00">enter senddate request termination</text>
</g>
<!-- 5452619344&#45;&#45;5452616144 -->
<g id="edge5" class="edge">
<title>5452619344&#45;&#45;5452616144</title>
<path fill="none" stroke="black" d="M505.57,-869.64C534.03,-872.52 581.63,-877.33 627.02,-881.92"/>
</g>
<!-- 5452619408 -->
<g id="node9" class="node">
<title>5452619408</title>
<ellipse fill="none" stroke="black" cx="747.38" cy="-840" rx="82.77" ry="18"/>
<text text-anchor="middle" x="747.38" y="-834.38" font-family="Times,serif" font-size="15.00">register deadline</text>
</g>
<!-- 5452619344&#45;&#45;5452619408 -->
<g id="edge6" class="edge">
<title>5452619344&#45;&#45;5452619408</title>
<path fill="none" stroke="black" d="M505.57,-864.36C543.67,-860.51 616.06,-853.18 671.56,-847.57"/>
</g>
<!-- 5452623440 -->
<g id="node10" class="node">
<title>5452623440</title>
<ellipse fill="none" stroke="black" cx="747.38" cy="-786" rx="115.39" ry="18"/>
<text text-anchor="middle" x="747.38" y="-780.38" font-family="Times,serif" font-size="15.00">phase procedure aborted</text>
</g>
<!-- 5452619344&#45;&#45;5452623440 -->
<g id="edge7" class="edge">
<title>5452619344&#45;&#45;5452623440</title>
<path fill="none" stroke="black" d="M503.65,-859.67C546.12,-846.78 635.13,-819.77 692.75,-802.28"/>
</g>
<!-- 5452621648 -->
<g id="node12" class="node">
<title>5452621648</title>
<ellipse fill="none" stroke="black" cx="747.38" cy="-732" rx="27" ry="18"/>
<text text-anchor="middle" x="747.38" y="-726.38" font-family="Times,serif" font-size="15.00">xor</text>
</g>
<!-- 5452617808&#45;&#45;5452621648 -->
<g id="edge13" class="edge">
<title>5452617808&#45;&#45;5452621648</title>
<path fill="none" stroke="black" d="M492.01,-411.76C536.84,-468.19 689.11,-659.9 733.9,-716.28"/>
</g>
<!-- 5452614992 -->
<g id="node17" class="node">
<title>5452614992</title>
<ellipse fill="none" stroke="black" cx="747.38" cy="-666" rx="99.08" ry="18"/>
<text text-anchor="middle" x="747.38" y="-660.38" font-family="Times,serif" font-size="15.00">terminate on request</text>
</g>
<!-- 5452617808&#45;&#45;5452614992 -->
<g id="edge14" class="edge">
<title>5452617808&#45;&#45;5452614992</title>
<path fill="none" stroke="black" d="M494.22,-410.9C539.9,-457.11 679.07,-597.9 728.63,-648.03"/>
</g>
<!-- 5452616272 -->
<g id="node18" class="node">
<title>5452616272</title>
<ellipse fill="none" stroke="black" cx="747.38" cy="-612" rx="27" ry="18"/>
<text text-anchor="middle" x="747.38" y="-606.38" font-family="Times,serif" font-size="15.00">xor</text>
</g>
<!-- 5452617808&#45;&#45;5452616272 -->
<g id="edge23" class="edge">
<title>5452617808&#45;&#45;5452616272</title>
<path fill="none" stroke="black" d="M496.59,-409.84C544.8,-448.85 681.39,-559.4 729.43,-598.27"/>
</g>
<!-- 5452471824 -->
<g id="node27" class="node">
<title>5452471824</title>
<ellipse fill="none" stroke="black" cx="747.38" cy="-558" rx="152.75" ry="18"/>
<text text-anchor="middle" x="747.38" y="-552.38" font-family="Times,serif" font-size="15.00">enter senddate acknowledgement</text>
</g>
<!-- 5452617808&#45;&#45;5452471824 -->
<g id="edge24" class="edge">
<title>5452617808&#45;&#45;5452471824</title>
<path fill="none" stroke="black" d="M499.12,-407.91C545.47,-436.04 661.92,-506.73 716.85,-540.07"/>
</g>
<!-- 5452480144 -->
<g id="node28" class="node">
<title>5452480144</title>
<ellipse fill="none" stroke="black" cx="747.38" cy="-504" rx="124.86" ry="18"/>
<text text-anchor="middle" x="747.38" y="-498.38" font-family="Times,serif" font-size="15.00">phase application received</text>
</g>
<!-- 5452617808&#45;&#45;5452480144 -->
<g id="edge25" class="edge">
<title>5452617808&#45;&#45;5452480144</title>
<path fill="none" stroke="black" d="M502.25,-405.21C546.87,-423.27 646.5,-463.58 703.74,-486.74"/>
</g>
<!-- 5451964240 -->
<g id="node29" class="node">
<title>5451964240</title>
<ellipse fill="none" stroke="black" cx="747.38" cy="-450" rx="27" ry="18"/>
<text text-anchor="middle" x="747.38" y="-444.38" font-family="Times,serif" font-size="15.00">xor</text>
</g>
<!-- 5452617808&#45;&#45;5451964240 -->
<g id="edge30" class="edge">
<title>5452617808&#45;&#45;5451964240</title>
<path fill="none" stroke="black" d="M504.6,-401.08C555.47,-411.37 670.17,-434.58 721.15,-444.89"/>
</g>
<!-- 5451970128 -->
<g id="node34" class="node">
<title>5451970128</title>
<ellipse fill="none" stroke="black" cx="747.38" cy="-396" rx="47" ry="18"/>
<text text-anchor="middle" x="747.38" y="-390.38" font-family="Times,serif" font-size="15.00">xor loop</text>
</g>
<!-- 5452617808&#45;&#45;5451970128 -->
<g id="edge33" class="edge">
<title>5452617808&#45;&#45;5451970128</title>
<path fill="none" stroke="black" d="M505.57,-396C550.69,-396 643.89,-396 700.19,-396"/>
</g>
<!-- 5452204304 -->
<g id="node37" class="node">
<title>5452204304</title>
<ellipse fill="none" stroke="black" cx="747.38" cy="-342" rx="160.64" ry="18"/>
<text text-anchor="middle" x="747.38" y="-336.38" font-family="Times,serif" font-size="15.00">forward to the competent authority</text>
</g>
<!-- 5452617808&#45;&#45;5452204304 -->
<g id="edge34" class="edge">
<title>5452617808&#45;&#45;5452204304</title>
<path fill="none" stroke="black" d="M504.6,-390.92C541.45,-383.46 611.82,-369.23 667.17,-358.03"/>
</g>
<!-- 5452212560 -->
<g id="node38" class="node">
<title>5452212560</title>
<ellipse fill="none" stroke="black" cx="747.38" cy="-288" rx="147.49" ry="18"/>
<text text-anchor="middle" x="747.38" y="-282.38" font-family="Times,serif" font-size="15.00">regular procedure without MER</text>
</g>
<!-- 5452617808&#45;&#45;5452212560 -->
<g id="edge35" class="edge">
<title>5452617808&#45;&#45;5452212560</title>
<path fill="none" stroke="black" d="M502.25,-386.79C546.75,-368.79 645.94,-328.65 703.25,-305.46"/>
</g>
<!-- 5452465232 -->
<g id="node39" class="node">
<title>5452465232</title>
<ellipse fill="none" stroke="black" cx="747.38" cy="-234" rx="27" ry="18"/>
<text text-anchor="middle" x="747.38" y="-228.38" font-family="Times,serif" font-size="15.00">xor</text>
</g>
<!-- 5452617808&#45;&#45;5452465232 -->
<g id="edge38" class="edge">
<title>5452617808&#45;&#45;5452465232</title>
<path fill="none" stroke="black" d="M499.12,-384.09C548.48,-354.13 677.34,-275.91 726.73,-245.93"/>
</g>
<!-- 5452216976 -->
<g id="node42" class="node">
<title>5452216976</title>
<ellipse fill="none" stroke="black" cx="747.38" cy="-180" rx="176.42" ry="18"/>
<text text-anchor="middle" x="747.38" y="-174.38" font-family="Times,serif" font-size="15.00">enter senddate procedure confirmation</text>
</g>
<!-- 5452617808&#45;&#45;5452216976 -->
<g id="edge39" class="edge">
<title>5452617808&#45;&#45;5452216976</title>
<path fill="none" stroke="black" d="M496.59,-382.16C543.08,-344.54 671.73,-240.42 723.94,-198.17"/>
</g>
<!-- 5452214736 -->
<g id="node43" class="node">
<title>5452214736</title>
<ellipse fill="none" stroke="black" cx="747.38" cy="-126" rx="27" ry="18"/>
<text text-anchor="middle" x="747.38" y="-120.38" font-family="Times,serif" font-size="15.00">xor</text>
</g>
<!-- 5452617808&#45;&#45;5452214736 -->
<g id="edge44" class="edge">
<title>5452617808&#45;&#45;5452214736</title>
<path fill="none" stroke="black" d="M494.22,-381.1C540.89,-333.89 685.1,-188 731.7,-140.85"/>
</g>
<!-- 5452204496 -->
<g id="node48" class="node">
<title>5452204496</title>
<ellipse fill="none" stroke="black" cx="747.38" cy="-72" rx="134.33" ry="18"/>
<text text-anchor="middle" x="747.38" y="-66.38" font-family="Times,serif" font-size="15.00">send procedure confirmation</text>
</g>
<!-- 5452617808&#45;&#45;5452204496 -->
<g id="edge45" class="edge">
<title>5452617808&#45;&#45;5452204496</title>
<path fill="none" stroke="black" d="M492.37,-380.37C536.83,-326.4 683.81,-147.97 731.38,-90.21"/>
</g>
<!-- 5452182160 -->
<g id="node49" class="node">
<title>5452182160</title>
<ellipse fill="none" stroke="black" cx="747.38" cy="-18" rx="132.23" ry="18"/>
<text text-anchor="middle" x="747.38" y="-12.38" font-family="Times,serif" font-size="15.00">registration date publication</text>
</g>
<!-- 5452617808&#45;&#45;5452182160 -->
<g id="edge46" class="edge">
<title>5452617808&#45;&#45;5452182160</title>
<path fill="none" stroke="black" d="M490.96,-379.76C534.26,-318.43 687.68,-101.14 733.42,-36.36"/>
</g>
<!-- 5452621200 -->
<g id="node13" class="node">
<title>5452621200</title>
<ellipse fill="black" stroke="black" cx="1093.09" cy="-777" rx="2.7" ry="2.7"/>
</g>
<!-- 5452621648&#45;&#45;5452621200 -->
<g id="edge9" class="edge">
<title>5452621648&#45;&#45;5452621200</title>
<path fill="none" stroke="black" d="M774.22,-735.38C849.78,-745.28 1066.54,-773.65 1090.02,-776.73"/>
</g>
<!-- 5452622096 -->
<g id="node14" class="node">
<title>5452622096</title>
<ellipse fill="none" stroke="black" cx="1093.09" cy="-738" rx="27" ry="18"/>
<text text-anchor="middle" x="1093.09" y="-732.38" font-family="Times,serif" font-size="15.00">seq</text>
</g>
<!-- 5452621648&#45;&#45;5452622096 -->
<g id="edge12" class="edge">
<title>5452621648&#45;&#45;5452622096</title>
<path fill="none" stroke="black" d="M774.78,-732.46C838.76,-733.58 1001.53,-736.42 1065.6,-737.54"/>
</g>
<!-- 5452474640 -->
<g id="node15" class="node">
<title>5452474640</title>
<ellipse fill="none" stroke="black" cx="1464.04" cy="-793" rx="140.65" ry="18"/>
<text text-anchor="middle" x="1464.04" y="-787.38" font-family="Times,serif" font-size="15.00">create procedure confirmation</text>
</g>
<!-- 5452622096&#45;&#45;5452474640 -->
<g id="edge10" class="edge">
<title>5452622096&#45;&#45;5452474640</title>
<path fill="none" stroke="black" d="M1119.74,-741.82C1170.81,-749.44 1287.43,-766.82 1370.56,-779.21"/>
</g>
<!-- 5452475856 -->
<g id="node16" class="node">
<title>5452475856</title>
<ellipse fill="none" stroke="black" cx="1464.04" cy="-739" rx="132.76" ry="18"/>
<text text-anchor="middle" x="1464.04" y="-733.38" font-family="Times,serif" font-size="15.00">create publication document</text>
</g>
<!-- 5452622096&#45;&#45;5452475856 -->
<g id="edge11" class="edge">
<title>5452622096&#45;&#45;5452475856</title>
<path fill="none" stroke="black" d="M1120.33,-738.07C1163.95,-738.19 1254.23,-738.43 1331.18,-738.64"/>
</g>
<!-- 5452471312 -->
<g id="node19" class="node">
<title>5452471312</title>
<ellipse fill="none" stroke="black" cx="1093.09" cy="-633" rx="27" ry="18"/>
<text text-anchor="middle" x="1093.09" y="-627.38" font-family="Times,serif" font-size="15.00">seq</text>
</g>
<!-- 5452616272&#45;&#45;5452471312 -->
<g id="edge19" class="edge">
<title>5452616272&#45;&#45;5452471312</title>
<path fill="none" stroke="black" d="M774.5,-613.6C838.42,-617.5 1002.14,-627.5 1066.01,-631.41"/>
</g>
<!-- 5452467984 -->
<g id="node24" class="node">
<title>5452467984</title>
<ellipse fill="none" stroke="black" cx="1093.09" cy="-579" rx="27" ry="18"/>
<text text-anchor="middle" x="1093.09" y="-573.38" font-family="Times,serif" font-size="15.00">seq</text>
</g>
<!-- 5452616272&#45;&#45;5452467984 -->
<g id="edge22" class="edge">
<title>5452616272&#45;&#45;5452467984</title>
<path fill="none" stroke="black" d="M774.5,-609.49C838.42,-603.36 1002.14,-587.64 1066.01,-581.5"/>
</g>
<!-- 5452468176 -->
<g id="node20" class="node">
<title>5452468176</title>
<ellipse fill="none" stroke="black" cx="1464.04" cy="-685" rx="181.68" ry="18"/>
<text text-anchor="middle" x="1464.04" y="-679.38" font-family="Times,serif" font-size="15.00">phase forwarded to competent authority</text>
</g>
<!-- 5452471312&#45;&#45;5452468176 -->
<g id="edge15" class="edge">
<title>5452471312&#45;&#45;5452468176</title>
<path fill="none" stroke="black" d="M1120.03,-636.66C1168.5,-643.49 1275.28,-658.54 1356.92,-670.04"/>
</g>
<!-- 5452473552 -->
<g id="node21" class="node">
<title>5452473552</title>
<ellipse fill="none" stroke="black" cx="1464.04" cy="-631" rx="27" ry="18"/>
<text text-anchor="middle" x="1464.04" y="-625.38" font-family="Times,serif" font-size="15.00">and</text>
</g>
<!-- 5452471312&#45;&#45;5452473552 -->
<g id="edge18" class="edge">
<title>5452471312&#45;&#45;5452473552</title>
<path fill="none" stroke="black" d="M1120.33,-632.86C1188.16,-632.49 1368.74,-631.51 1436.69,-631.14"/>
</g>
<!-- 5452477008 -->
<g id="node22" class="node">
<title>5452477008</title>
<ellipse fill="none" stroke="black" cx="1901.82" cy="-658" rx="165.37" ry="18"/>
<text text-anchor="middle" x="1901.82" y="-652.38" font-family="Times,serif" font-size="15.00">enter senddate letter to stakeholders</text>
</g>
<!-- 5452473552&#45;&#45;5452477008 -->
<g id="edge16" class="edge">
<title>5452473552&#45;&#45;5452477008</title>
<path fill="none" stroke="black" d="M1491.32,-632.63C1542.89,-635.82 1660.69,-643.12 1756.77,-649.08"/>
</g>
<!-- 5452467280 -->
<g id="node23" class="node">
<title>5452467280</title>
<ellipse fill="none" stroke="black" cx="1901.82" cy="-604" rx="197.99" ry="18"/>
<text text-anchor="middle" x="1901.82" y="-598.38" font-family="Times,serif" font-size="15.00">enter senddate letter to competent authority</text>
</g>
<!-- 5452473552&#45;&#45;5452467280 -->
<g id="edge17" class="edge">
<title>5452473552&#45;&#45;5452467280</title>
<path fill="none" stroke="black" d="M1491.32,-629.37C1539.3,-626.4 1644.62,-619.87 1736.43,-614.19"/>
</g>
<!-- 5452468880 -->
<g id="node25" class="node">
<title>5452468880</title>
<ellipse fill="none" stroke="black" cx="1464.04" cy="-577" rx="203.78" ry="18"/>
<text text-anchor="middle" x="1464.04" y="-571.38" font-family="Times,serif" font-size="15.00">no permit needed or only notification needed</text>
</g>
<!-- 5452467984&#45;&#45;5452468880 -->
<g id="edge20" class="edge">
<title>5452467984&#45;&#45;5452468880</title>
<path fill="none" stroke="black" d="M1120.33,-578.86C1150.95,-578.69 1204.55,-578.4 1260.4,-578.1"/>
</g>
<!-- 5452477520 -->
<g id="node26" class="node">
<title>5452477520</title>
<ellipse fill="none" stroke="black" cx="1464.04" cy="-523" rx="112.76" ry="18"/>
<text text-anchor="middle" x="1464.04" y="-517.38" font-family="Times,serif" font-size="15.00">applicant is stakeholder</text>
</g>
<!-- 5452467984&#45;&#45;5452477520 -->
<g id="edge21" class="edge">
<title>5452467984&#45;&#45;5452477520</title>
<path fill="none" stroke="black" d="M1119.74,-575.11C1172.93,-567.03 1297.24,-548.17 1380.75,-535.49"/>
</g>
<!-- 5451970384 -->
<g id="node30" class="node">
<title>5451970384</title>
<ellipse fill="black" stroke="black" cx="1093.09" cy="-540" rx="2.7" ry="2.7"/>
</g>
<!-- 5451964240&#45;&#45;5451970384 -->
<g id="edge26" class="edge">
<title>5451964240&#45;&#45;5451970384</title>
<path fill="none" stroke="black" d="M773.1,-456.47C847.6,-475.98 1066.3,-533.25 1090,-539.45"/>
</g>
<!-- 5451963728 -->
<g id="node31" class="node">
<title>5451963728</title>
<ellipse fill="none" stroke="black" cx="1093.09" cy="-501" rx="105.92" ry="18"/>
<text text-anchor="middle" x="1093.09" y="-495.38" font-family="Times,serif" font-size="15.00">start WABOprocedure</text>
</g>
<!-- 5451964240&#45;&#45;5451963728 -->
<g id="edge27" class="edge">
<title>5451964240&#45;&#45;5451963728</title>
<path fill="none" stroke="black" d="M774.22,-453.83C824.02,-461.22 935.16,-477.71 1011.87,-489.1"/>
</g>
<!-- 5451957840 -->
<g id="node32" class="node">
<title>5451957840</title>
<ellipse fill="none" stroke="black" cx="1093.09" cy="-447" rx="110.66" ry="18"/>
<text text-anchor="middle" x="1093.09" y="-441.38" font-family="Times,serif" font-size="15.00">reception through OLO</text>
</g>
<!-- 5451964240&#45;&#45;5451957840 -->
<g id="edge28" class="edge">
<title>5451964240&#45;&#45;5451957840</title>
<path fill="none" stroke="black" d="M774.78,-449.77C818.72,-449.39 909.24,-448.6 982.4,-447.96"/>
</g>
<!-- 5452208336 -->
<g id="node33" class="node">
<title>5452208336</title>
<ellipse fill="none" stroke="black" cx="1093.09" cy="-393" rx="131.18" ry="18"/>
<text text-anchor="middle" x="1093.09" y="-387.38" font-family="Times,serif" font-size="15.00">treat subcases completeness</text>
</g>
<!-- 5451964240&#45;&#45;5452208336 -->
<g id="edge29" class="edge">
<title>5451964240&#45;&#45;5452208336</title>
<path fill="none" stroke="black" d="M773.94,-445.76C822.71,-437.67 931.04,-419.71 1007.7,-407"/>
</g>
<!-- 5452211728 -->
<g id="node35" class="node">
<title>5452211728</title>
<ellipse fill="none" stroke="black" cx="1093.09" cy="-339" rx="121.18" ry="18"/>
<text text-anchor="middle" x="1093.09" y="-333.38" font-family="Times,serif" font-size="15.00">send confirmation receipt</text>
</g>
<!-- 5451970128&#45;&#45;5452211728 -->
<g id="edge31" class="edge">
<title>5451970128&#45;&#45;5452211728</title>
<path fill="none" stroke="black" d="M791.22,-388.9C845.93,-379.82 941.74,-363.93 1010.55,-352.52"/>
</g>
<!-- 5452209744 -->
<g id="node36" class="node">
<title>5452209744</title>
<ellipse fill="black" stroke="black" cx="1093.09" cy="-300" rx="2.7" ry="2.7"/>
</g>
<!-- 5451970128&#45;&#45;5452209744 -->
<g id="edge32" class="edge">
<title>5451970128&#45;&#45;5452209744</title>
<path fill="none" stroke="black" d="M786.15,-385.45C870.55,-361.88 1068.77,-306.51 1090.2,-300.53"/>
</g>
<!-- 5452208656 -->
<g id="node40" class="node">
<title>5452208656</title>
<ellipse fill="black" stroke="black" cx="1093.09" cy="-246" rx="2.7" ry="2.7"/>
</g>
<!-- 5452465232&#45;&#45;5452208656 -->
<g id="edge36" class="edge">
<title>5452465232&#45;&#45;5452208656</title>
<path fill="none" stroke="black" d="M774.78,-234.92C850.87,-237.58 1066.65,-245.11 1090.03,-245.93"/>
</g>
<!-- 5452217808 -->
<g id="node41" class="node">
<title>5452217808</title>
<ellipse fill="none" stroke="black" cx="1093.09" cy="-207" rx="125.39" ry="18"/>
<text text-anchor="middle" x="1093.09" y="-201.38" font-family="Times,serif" font-size="15.00">inform BAG administrator</text>
</g>
<!-- 5452465232&#45;&#45;5452217808 -->
<g id="edge37" class="edge">
<title>5452465232&#45;&#45;5452217808</title>
<path fill="none" stroke="black" d="M774.5,-231.95C818.29,-228.51 908.91,-221.39 982.19,-215.63"/>
</g>
<!-- 5452202192 -->
<g id="node44" class="node">
<title>5452202192</title>
<ellipse fill="black" stroke="black" cx="1093.09" cy="-153" rx="2.7" ry="2.7"/>
</g>
<!-- 5452214736&#45;&#45;5452202192 -->
<g id="edge40" class="edge">
<title>5452214736&#45;&#45;5452202192</title>
<path fill="none" stroke="black" d="M774.5,-128.05C850.32,-134.01 1066.6,-151 1090.02,-152.84"/>
</g>
<!-- 5452204624 -->
<g id="node45" class="node">
<title>5452204624</title>
<ellipse fill="none" stroke="black" cx="1093.09" cy="-114" rx="47" ry="18"/>
<text text-anchor="middle" x="1093.09" y="-108.38" font-family="Times,serif" font-size="15.00">xor loop</text>
</g>
<!-- 5452214736&#45;&#45;5452204624 -->
<g id="edge43" class="edge">
<title>5452214736&#45;&#45;5452204624</title>
<path fill="none" stroke="black" d="M774.78,-125.08C832.95,-123.05 972.75,-118.17 1045.83,-115.62"/>
</g>
<!-- 5452204112 -->
<g id="node46" class="node">
<title>5452204112</title>
<ellipse fill="none" stroke="black" cx="1464.04" cy="-141" rx="200.1" ry="18"/>
<text text-anchor="middle" x="1464.04" y="-135.38" font-family="Times,serif" font-size="15.00">registrer date of publishing received request</text>
</g>
<!-- 5452204624&#45;&#45;5452204112 -->
<g id="edge41" class="edge">
<title>5452204624&#45;&#45;5452204112</title>
<path fill="none" stroke="black" d="M1139.7,-117.34C1181.63,-120.41 1246.29,-125.14 1306.8,-129.57"/>
</g>
<!-- 5452215888 -->
<g id="node47" class="node">
<title>5452215888</title>
<ellipse fill="none" stroke="black" cx="1464.04" cy="-87" rx="68.04" ry="18"/>
<text text-anchor="middle" x="1464.04" y="-81.38" font-family="Times,serif" font-size="15.00">suspend term</text>
</g>
<!-- 5452204624&#45;&#45;5452215888 -->
<g id="edge42" class="edge">
<title>5452204624&#45;&#45;5452215888</title>
<path fill="none" stroke="black" d="M1139.7,-110.66C1204.58,-105.91 1323.84,-97.19 1397.98,-91.76"/>
</g>
<!-- 5452182672 -->
<g id="node51" class="node">
<title>5452182672</title>
<ellipse fill="black" stroke="black" cx="478.49" cy="-350" rx="2.7" ry="2.7"/>
</g>
<!-- 5452614160&#45;&#45;5452182672 -->
<g id="edge49" class="edge">
<title>5452614160&#45;&#45;5452182672</title>
<path fill="none" stroke="black" d="M266.38,-346.44C323.85,-347.41 456.93,-349.65 475.36,-349.96"/>
</g>
<!-- 5452171088 -->
<g id="node52" class="node">
<title>5452171088</title>
<ellipse fill="none" stroke="black" cx="478.49" cy="-311" rx="54.36" ry="18"/>
<text text-anchor="middle" x="478.49" y="-305.38" font-family="Times,serif" font-size="15.00">close case</text>
</g>
<!-- 5452614160&#45;&#45;5452171088 -->
<g id="edge50" class="edge">
<title>5452614160&#45;&#45;5452171088</title>
<path fill="none" stroke="black" d="M265.93,-342.19C304.75,-336.47 378.79,-325.55 428.16,-318.27"/>
</g>
</g>
</svg>
