<?xml version="1.0" encoding="UTF-8" standalone="no"?>
<!DOCTYPE svg PUBLIC "-//W3C//DTD SVG 1.1//EN"
 "http://www.w3.org/Graphics/SVG/1.1/DTD/svg11.dtd">
<!-- Generated by graphviz version 8.0.5 (20230430.1635)
 -->
<!-- Title: pt Pages: 1 -->
<svg width="3485pt" height="638pt"
 viewBox="0.00 0.00 3485.42 638.00" xmlns="http://www.w3.org/2000/svg" xmlns:xlink="http://www.w3.org/1999/xlink">
<g id="graph0" class="graph" transform="scale(1 1) rotate(0) translate(4 634)">
<title>pt</title>
<polygon fill="white" stroke="none" points="-4,4 -4,-634 3481.42,-634 3481.42,4 -4,4"/>
<!-- 6623999632 -->
<g id="node1" class="node">
<title>6623999632</title>
<ellipse fill="none" stroke="black" cx="27" cy="-339" rx="27" ry="18"/>
<text text-anchor="middle" x="27" y="-333.38" font-family="Times,serif" font-size="15.00">seq</text>
</g>
<!-- 6623423376 -->
<g id="node2" class="node">
<title>6623423376</title>
<ellipse fill="none" stroke="black" cx="239.06" cy="-393" rx="149.06" ry="18"/>
<text text-anchor="middle" x="239.06" y="-387.38" font-family="Times,serif" font-size="15.00">register submission date request</text>
</g>
<!-- 6623999632&#45;&#45;6623423376 -->
<g id="edge1" class="edge">
<title>6623999632&#45;&#45;6623423376</title>
<path fill="none" stroke="black" d="M52.51,-345.3C82.05,-352.9 132.85,-365.95 173.83,-376.49"/>
</g>
<!-- 6623422416 -->
<g id="node3" class="node">
<title>6623422416</title>
<ellipse fill="none" stroke="black" cx="239.06" cy="-339" rx="27" ry="18"/>
<text text-anchor="middle" x="239.06" y="-333.38" font-family="Times,serif" font-size="15.00">xor</text>
</g>
<!-- 6623999632&#45;&#45;6623422416 -->
<g id="edge59" class="edge">
<title>6623999632&#45;&#45;6623422416</title>
<path fill="none" stroke="black" d="M54.18,-339C94.54,-339 171.52,-339 211.89,-339"/>
</g>
<!-- 6623427664 -->
<g id="node61" class="node">
<title>6623427664</title>
<ellipse fill="none" stroke="black" cx="239.06" cy="-251" rx="27" ry="18"/>
<text text-anchor="middle" x="239.06" y="-245.38" font-family="Times,serif" font-size="15.00">xor</text>
</g>
<!-- 6623999632&#45;&#45;6623427664 -->
<g id="edge65" class="edge">
<title>6623999632&#45;&#45;6623427664</title>
<path fill="none" stroke="black" d="M50.48,-329.58C90.91,-312.64 175.43,-277.24 215.75,-260.35"/>
</g>
<!-- 6623417616 -->
<g id="node4" class="node">
<title>6623417616</title>
<ellipse fill="black" stroke="black" cx="451.13" cy="-489" rx="2.7" ry="2.7"/>
</g>
<!-- 6623422416&#45;&#45;6623417616 -->
<g id="edge2" class="edge">
<title>6623422416&#45;&#45;6623417616</title>
<path fill="none" stroke="black" d="M258.34,-352.05C306.25,-386.26 432.89,-476.69 448.54,-487.86"/>
</g>
<!-- 6623421328 -->
<g id="node5" class="node">
<title>6623421328</title>
<ellipse fill="none" stroke="black" cx="451.13" cy="-450" rx="27" ry="18"/>
<text text-anchor="middle" x="451.13" y="-444.38" font-family="Times,serif" font-size="15.00">seq</text>
</g>
<!-- 6623422416&#45;&#45;6623421328 -->
<g id="edge16" class="edge">
<title>6623422416&#45;&#45;6623421328</title>
<path fill="none" stroke="black" d="M260.97,-350.05C301.24,-371.33 389.11,-417.75 429.3,-439"/>
</g>
<!-- 6623426768 -->
<g id="node19" class="node">
<title>6623426768</title>
<ellipse fill="none" stroke="black" cx="451.13" cy="-315" rx="27" ry="18"/>
<text text-anchor="middle" x="451.13" y="-309.38" font-family="Times,serif" font-size="15.00">and</text>
</g>
<!-- 6623422416&#45;&#45;6623426768 -->
<g id="edge58" class="edge">
<title>6623422416&#45;&#45;6623426768</title>
<path fill="none" stroke="black" d="M265.82,-336.06C306.14,-331.45 383.71,-322.59 424.16,-317.97"/>
</g>
<!-- 6623419728 -->
<g id="node6" class="node">
<title>6623419728</title>
<ellipse fill="none" stroke="black" cx="674.77" cy="-558" rx="27" ry="18"/>
<text text-anchor="middle" x="674.77" y="-552.38" font-family="Times,serif" font-size="15.00">and</text>
</g>
<!-- 6623421328&#45;&#45;6623419728 -->
<g id="edge11" class="edge">
<title>6623421328&#45;&#45;6623419728</title>
<path fill="none" stroke="black" d="M473.38,-460.36C515.64,-480.95 609.79,-526.82 652.25,-547.52"/>
</g>
<!-- 6623419792 -->
<g id="node15" class="node">
<title>6623419792</title>
<ellipse fill="none" stroke="black" cx="674.77" cy="-504" rx="95.93" ry="18"/>
<text text-anchor="middle" x="674.77" y="-498.38" font-family="Times,serif" font-size="15.00">phase archived case</text>
</g>
<!-- 6623421328&#45;&#45;6623419792 -->
<g id="edge12" class="edge">
<title>6623421328&#45;&#45;6623419792</title>
<path fill="none" stroke="black" d="M476.7,-455.99C509.72,-464.03 569.48,-478.59 614.57,-489.58"/>
</g>
<!-- 6623413584 -->
<g id="node16" class="node">
<title>6623413584</title>
<ellipse fill="none" stroke="black" cx="674.77" cy="-450" rx="27" ry="18"/>
<text text-anchor="middle" x="674.77" y="-444.38" font-family="Times,serif" font-size="15.00">and</text>
</g>
<!-- 6623421328&#45;&#45;6623413584 -->
<g id="edge15" class="edge">
<title>6623421328&#45;&#45;6623413584</title>
<path fill="none" stroke="black" d="M478.42,-450C521.08,-450 604.87,-450 647.51,-450"/>
</g>
<!-- 6623422992 -->
<g id="node7" class="node">
<title>6623422992</title>
<ellipse fill="none" stroke="black" cx="1055.72" cy="-612" rx="82.77" ry="18"/>
<text text-anchor="middle" x="1055.72" y="-606.38" font-family="Times,serif" font-size="15.00">register deadline</text>
</g>
<!-- 6623419728&#45;&#45;6623422992 -->
<g id="edge3" class="edge">
<title>6623419728&#45;&#45;6623422992</title>
<path fill="none" stroke="black" d="M701.52,-561.67C759.16,-569.88 900.19,-589.98 985.59,-602.15"/>
</g>
<!-- 6623428496 -->
<g id="node8" class="node">
<title>6623428496</title>
<ellipse fill="none" stroke="black" cx="1055.72" cy="-558" rx="184.31" ry="18"/>
<text text-anchor="middle" x="1055.72" y="-552.38" font-family="Times,serif" font-size="15.00">phase procedure prematurely terminated</text>
</g>
<!-- 6623419728&#45;&#45;6623428496 -->
<g id="edge4" class="edge">
<title>6623419728&#45;&#45;6623428496</title>
<path fill="none" stroke="black" d="M702.11,-558C737.87,-558 804.9,-558 870.99,-558"/>
</g>
<!-- 6623420240 -->
<g id="node9" class="node">
<title>6623420240</title>
<ellipse fill="none" stroke="black" cx="1055.72" cy="-504" rx="27" ry="18"/>
<text text-anchor="middle" x="1055.72" y="-498.38" font-family="Times,serif" font-size="15.00">seq</text>
</g>
<!-- 6623419728&#45;&#45;6623420240 -->
<g id="edge10" class="edge">
<title>6623419728&#45;&#45;6623420240</title>
<path fill="none" stroke="black" d="M701.52,-554.33C770.65,-544.48 959.76,-517.53 1028.94,-507.67"/>
</g>
<!-- 6623413520 -->
<g id="node10" class="node">
<title>6623413520</title>
<ellipse fill="none" stroke="black" cx="1454.56" cy="-612" rx="99.08" ry="18"/>
<text text-anchor="middle" x="1454.56" y="-606.38" font-family="Times,serif" font-size="15.00">terminate on request</text>
</g>
<!-- 6623420240&#45;&#45;6623413520 -->
<g id="edge5" class="edge">
<title>6623420240&#45;&#45;6623413520</title>
<path fill="none" stroke="black" d="M1081.25,-510.67C1143.77,-527.69 1310.36,-573.03 1397.96,-596.87"/>
</g>
<!-- 6623413712 -->
<g id="node11" class="node">
<title>6623413712</title>
<ellipse fill="none" stroke="black" cx="1454.56" cy="-558" rx="178.53" ry="18"/>
<text text-anchor="middle" x="1454.56" y="-552.38" font-family="Times,serif" font-size="15.00">enter date termination request received</text>
</g>
<!-- 6623420240&#45;&#45;6623413712 -->
<g id="edge6" class="edge">
<title>6623420240&#45;&#45;6623413712</title>
<path fill="none" stroke="black" d="M1082.45,-507.5C1134.75,-514.62 1256.1,-531.13 1345.88,-543.35"/>
</g>
<!-- 6623412496 -->
<g id="node12" class="node">
<title>6623412496</title>
<ellipse fill="none" stroke="black" cx="1454.56" cy="-504" rx="124.86" ry="18"/>
<text text-anchor="middle" x="1454.56" y="-498.38" font-family="Times,serif" font-size="15.00">message terminate request</text>
</g>
<!-- 6623420240&#45;&#45;6623412496 -->
<g id="edge7" class="edge">
<title>6623420240&#45;&#45;6623412496</title>
<path fill="none" stroke="black" d="M1083.07,-504C1132.49,-504 1241.99,-504 1329.21,-504"/>
</g>
<!-- 6623414160 -->
<g id="node13" class="node">
<title>6623414160</title>
<ellipse fill="none" stroke="black" cx="1454.56" cy="-450" rx="159.06" ry="18"/>
<text text-anchor="middle" x="1454.56" y="-444.38" font-family="Times,serif" font-size="15.00">enter senddate request termination</text>
</g>
<!-- 6623420240&#45;&#45;6623414160 -->
<g id="edge8" class="edge">
<title>6623420240&#45;&#45;6623414160</title>
<path fill="none" stroke="black" d="M1082.45,-500.5C1135.7,-493.25 1260.51,-476.27 1350.71,-464"/>
</g>
<!-- 6623418256 -->
<g id="node14" class="node">
<title>6623418256</title>
<ellipse fill="none" stroke="black" cx="1454.56" cy="-396" rx="115.39" ry="18"/>
<text text-anchor="middle" x="1454.56" y="-390.38" font-family="Times,serif" font-size="15.00">phase procedure aborted</text>
</g>
<!-- 6623420240&#45;&#45;6623418256 -->
<g id="edge9" class="edge">
<title>6623420240&#45;&#45;6623418256</title>
<path fill="none" stroke="black" d="M1081.25,-497.33C1143.18,-480.47 1307.22,-435.83 1395.45,-411.81"/>
</g>
<!-- 6623418512 -->
<g id="node17" class="node">
<title>6623418512</title>
<ellipse fill="none" stroke="black" cx="1055.72" cy="-450" rx="92.77" ry="18"/>
<text text-anchor="middle" x="1055.72" y="-444.38" font-family="Times,serif" font-size="15.00">phase case handled</text>
</g>
<!-- 6623413584&#45;&#45;6623418512 -->
<g id="edge13" class="edge">
<title>6623413584&#45;&#45;6623418512</title>
<path fill="none" stroke="black" d="M702.11,-450C755.15,-450 877.04,-450 962.58,-450"/>
</g>
<!-- 6623414352 -->
<g id="node18" class="node">
<title>6623414352</title>
<ellipse fill="none" stroke="black" cx="1055.72" cy="-396" rx="54.36" ry="18"/>
<text text-anchor="middle" x="1055.72" y="-390.38" font-family="Times,serif" font-size="15.00">close case</text>
</g>
<!-- 6623413584&#45;&#45;6623414352 -->
<g id="edge14" class="edge">
<title>6623413584&#45;&#45;6623414352</title>
<path fill="none" stroke="black" d="M701.52,-446.33C763.82,-437.45 923.57,-414.69 1005.15,-403.06"/>
</g>
<!-- 6623426384 -->
<g id="node20" class="node">
<title>6623426384</title>
<ellipse fill="none" stroke="black" cx="674.77" cy="-396" rx="160.64" ry="18"/>
<text text-anchor="middle" x="674.77" y="-390.38" font-family="Times,serif" font-size="15.00">forward to the competent authority</text>
</g>
<!-- 6623426768&#45;&#45;6623426384 -->
<g id="edge17" class="edge">
<title>6623426768&#45;&#45;6623426384</title>
<path fill="none" stroke="black" d="M475.43,-323.52C510.88,-336.47 579.15,-361.42 625.58,-378.39"/>
</g>
<!-- 6623419408 -->
<g id="node21" class="node">
<title>6623419408</title>
<ellipse fill="none" stroke="black" cx="674.77" cy="-342" rx="132.23" ry="18"/>
<text text-anchor="middle" x="674.77" y="-336.38" font-family="Times,serif" font-size="15.00">registration date publication</text>
</g>
<!-- 6623426768&#45;&#45;6623419408 -->
<g id="edge18" class="edge">
<title>6623426768&#45;&#45;6623419408</title>
<path fill="none" stroke="black" d="M477.99,-318.15C501.91,-321.06 539.04,-325.59 574.55,-329.91"/>
</g>
<!-- 6623418704 -->
<g id="node22" class="node">
<title>6623418704</title>
<ellipse fill="none" stroke="black" cx="674.77" cy="-288" rx="124.86" ry="18"/>
<text text-anchor="middle" x="674.77" y="-282.38" font-family="Times,serif" font-size="15.00">phase application received</text>
</g>
<!-- 6623426768&#45;&#45;6623418704 -->
<g id="edge19" class="edge">
<title>6623426768&#45;&#45;6623418704</title>
<path fill="none" stroke="black" d="M477.99,-311.85C502.65,-308.85 541.35,-304.13 577.85,-299.68"/>
</g>
<!-- 6623424656 -->
<g id="node23" class="node">
<title>6623424656</title>
<ellipse fill="none" stroke="black" cx="674.77" cy="-234" rx="147.49" ry="18"/>
<text text-anchor="middle" x="674.77" y="-228.38" font-family="Times,serif" font-size="15.00">regular procedure without MER</text>
</g>
<!-- 6623426768&#45;&#45;6623424656 -->
<g id="edge20" class="edge">
<title>6623426768&#45;&#45;6623424656</title>
<path fill="none" stroke="black" d="M475.43,-306.48C510.99,-293.49 579.58,-268.42 626.02,-251.45"/>
</g>
<!-- 6623413136 -->
<g id="node24" class="node">
<title>6623413136</title>
<ellipse fill="none" stroke="black" cx="674.77" cy="-180" rx="27" ry="18"/>
<text text-anchor="middle" x="674.77" y="-174.38" font-family="Times,serif" font-size="15.00">seq</text>
</g>
<!-- 6623426768&#45;&#45;6623413136 -->
<g id="edge57" class="edge">
<title>6623426768&#45;&#45;6623413136</title>
<path fill="none" stroke="black" d="M471.8,-303.02C513.86,-277.4 612.12,-217.55 654.14,-191.95"/>
</g>
<!-- 6623412944 -->
<g id="node25" class="node">
<title>6623412944</title>
<ellipse fill="none" stroke="black" cx="1055.72" cy="-207" rx="27" ry="18"/>
<text text-anchor="middle" x="1055.72" y="-201.38" font-family="Times,serif" font-size="15.00">and</text>
</g>
<!-- 6623413136&#45;&#45;6623412944 -->
<g id="edge53" class="edge">
<title>6623413136&#45;&#45;6623412944</title>
<path fill="none" stroke="black" d="M702.11,-181.88C771.6,-186.83 959.26,-200.2 1028.55,-205.14"/>
</g>
<!-- 6623417680 -->
<g id="node58" class="node">
<title>6623417680</title>
<ellipse fill="none" stroke="black" cx="1055.72" cy="-153" rx="27" ry="18"/>
<text text-anchor="middle" x="1055.72" y="-147.38" font-family="Times,serif" font-size="15.00">xor</text>
</g>
<!-- 6623413136&#45;&#45;6623417680 -->
<g id="edge56" class="edge">
<title>6623413136&#45;&#45;6623417680</title>
<path fill="none" stroke="black" d="M702.11,-178.12C771.6,-173.17 959.26,-159.8 1028.55,-154.86"/>
</g>
<!-- 6623425232 -->
<g id="node26" class="node">
<title>6623425232</title>
<ellipse fill="none" stroke="black" cx="1454.56" cy="-257" rx="105.92" ry="18"/>
<text text-anchor="middle" x="1454.56" y="-251.38" font-family="Times,serif" font-size="15.00">start WABOprocedure</text>
</g>
<!-- 6623412944&#45;&#45;6623425232 -->
<g id="edge21" class="edge">
<title>6623412944&#45;&#45;6623425232</title>
<path fill="none" stroke="black" d="M1082.76,-210.28C1139.75,-217.46 1277.67,-234.84 1368.29,-246.26"/>
</g>
<!-- 6623426192 -->
<g id="node27" class="node">
<title>6623426192</title>
<ellipse fill="none" stroke="black" cx="1454.56" cy="-203" rx="27" ry="18"/>
<text text-anchor="middle" x="1454.56" y="-197.38" font-family="Times,serif" font-size="15.00">seq</text>
</g>
<!-- 6623412944&#45;&#45;6623426192 -->
<g id="edge52" class="edge">
<title>6623412944&#45;&#45;6623426192</title>
<path fill="none" stroke="black" d="M1083.07,-206.73C1155.17,-206.01 1355.14,-203.99 1427.23,-203.27"/>
</g>
<!-- 6623415248 -->
<g id="node28" class="node">
<title>6623415248</title>
<ellipse fill="none" stroke="black" cx="1696.09" cy="-230" rx="27" ry="18"/>
<text text-anchor="middle" x="1696.09" y="-224.38" font-family="Times,serif" font-size="15.00">xor</text>
</g>
<!-- 6623426192&#45;&#45;6623415248 -->
<g id="edge48" class="edge">
<title>6623426192&#45;&#45;6623415248</title>
<path fill="none" stroke="black" d="M1481.65,-205.94C1527.73,-211.13 1622.98,-221.87 1669.03,-227.06"/>
</g>
<!-- 6623423184 -->
<g id="node55" class="node">
<title>6623423184</title>
<ellipse fill="none" stroke="black" cx="1696.09" cy="-176" rx="27" ry="18"/>
<text text-anchor="middle" x="1696.09" y="-170.38" font-family="Times,serif" font-size="15.00">xor</text>
</g>
<!-- 6623426192&#45;&#45;6623423184 -->
<g id="edge51" class="edge">
<title>6623426192&#45;&#45;6623423184</title>
<path fill="none" stroke="black" d="M1481.65,-200.06C1527.73,-194.87 1622.98,-184.13 1669.03,-178.94"/>
</g>
<!-- 6623414672 -->
<g id="node29" class="node">
<title>6623414672</title>
<ellipse fill="none" stroke="black" cx="1893.95" cy="-388" rx="27" ry="18"/>
<text text-anchor="middle" x="1893.95" y="-382.38" font-family="Times,serif" font-size="15.00">seq</text>
</g>
<!-- 6623415248&#45;&#45;6623414672 -->
<g id="edge33" class="edge">
<title>6623415248&#45;&#45;6623414672</title>
<path fill="none" stroke="black" d="M1714.13,-243.75C1751.17,-273.63 1838.68,-344.22 1875.81,-374.17"/>
</g>
<!-- 6623427472 -->
<g id="node41" class="node">
<title>6623427472</title>
<ellipse fill="none" stroke="black" cx="1893.95" cy="-226" rx="27" ry="18"/>
<text text-anchor="middle" x="1893.95" y="-220.38" font-family="Times,serif" font-size="15.00">seq</text>
</g>
<!-- 6623415248&#45;&#45;6623427472 -->
<g id="edge47" class="edge">
<title>6623415248&#45;&#45;6623427472</title>
<path fill="none" stroke="black" d="M1723.5,-229.46C1760.99,-228.69 1829.21,-227.3 1866.64,-226.54"/>
</g>
<!-- 6623422608 -->
<g id="node30" class="node">
<title>6623422608</title>
<ellipse fill="none" stroke="black" cx="2217.55" cy="-523" rx="27" ry="18"/>
<text text-anchor="middle" x="2217.55" y="-517.38" font-family="Times,serif" font-size="15.00">xor</text>
</g>
<!-- 6623414672&#45;&#45;6623422608 -->
<g id="edge24" class="edge">
<title>6623414672&#45;&#45;6623422608</title>
<path fill="none" stroke="black" d="M1917.31,-397.39C1976.28,-422.14 2135.54,-488.99 2194.34,-513.68"/>
</g>
<!-- 6623420880 -->
<g id="node33" class="node">
<title>6623420880</title>
<ellipse fill="none" stroke="black" cx="2217.55" cy="-469" rx="129.07" ry="18"/>
<text text-anchor="middle" x="2217.55" y="-463.38" font-family="Times,serif" font-size="15.00">activities regular procedure</text>
</g>
<!-- 6623414672&#45;&#45;6623420880 -->
<g id="edge25" class="edge">
<title>6623414672&#45;&#45;6623420880</title>
<path fill="none" stroke="black" d="M1919.65,-394.22C1969.07,-406.67 2081.49,-434.98 2152.94,-452.98"/>
</g>
<!-- 6623418128 -->
<g id="node34" class="node">
<title>6623418128</title>
<ellipse fill="none" stroke="black" cx="2217.55" cy="-415" rx="91.19" ry="18"/>
<text text-anchor="middle" x="2217.55" y="-409.38" font-family="Times,serif" font-size="15.00">phased application</text>
</g>
<!-- 6623414672&#45;&#45;6623418128 -->
<g id="edge26" class="edge">
<title>6623414672&#45;&#45;6623418128</title>
<path fill="none" stroke="black" d="M1920.99,-390.19C1966.6,-394.02 2062.76,-402.09 2133.05,-407.99"/>
</g>
<!-- 6623413072 -->
<g id="node35" class="node">
<title>6623413072</title>
<ellipse fill="none" stroke="black" cx="2217.55" cy="-361" rx="27" ry="18"/>
<text text-anchor="middle" x="2217.55" y="-355.38" font-family="Times,serif" font-size="15.00">xor</text>
</g>
<!-- 6623414672&#45;&#45;6623413072 -->
<g id="edge31" class="edge">
<title>6623414672&#45;&#45;6623413072</title>
<path fill="none" stroke="black" d="M1920.99,-385.81C1981.26,-380.75 2129.76,-368.29 2190.26,-363.21"/>
</g>
<!-- 6623421264 -->
<g id="node40" class="node">
<title>6623421264</title>
<ellipse fill="none" stroke="black" cx="2217.55" cy="-307" rx="42.79" ry="18"/>
<text text-anchor="middle" x="2217.55" y="-301.38" font-family="Times,serif" font-size="15.00">publish</text>
</g>
<!-- 6623414672&#45;&#45;6623421264 -->
<g id="edge32" class="edge">
<title>6623414672&#45;&#45;6623421264</title>
<path fill="none" stroke="black" d="M1919.65,-381.78C1975.98,-367.59 2114.18,-332.78 2180.24,-316.15"/>
</g>
<!-- 6623423952 -->
<g id="node31" class="node">
<title>6623423952</title>
<ellipse fill="none" stroke="black" cx="2546.95" cy="-550" rx="72.25" ry="18"/>
<text text-anchor="middle" x="2546.95" y="-544.38" font-family="Times,serif" font-size="15.00">MER required</text>
</g>
<!-- 6623422608&#45;&#45;6623423952 -->
<g id="edge22" class="edge">
<title>6623422608&#45;&#45;6623423952</title>
<path fill="none" stroke="black" d="M2244.79,-525.16C2294.87,-529.29 2405.5,-538.42 2477.82,-544.38"/>
</g>
<!-- 6623425744 -->
<g id="node32" class="node">
<title>6623425744</title>
<ellipse fill="none" stroke="black" cx="2546.95" cy="-496" rx="67.52" ry="18"/>
<text text-anchor="middle" x="2546.95" y="-490.38" font-family="Times,serif" font-size="15.00">MER present</text>
</g>
<!-- 6623422608&#45;&#45;6623425744 -->
<g id="edge23" class="edge">
<title>6623422608&#45;&#45;6623425744</title>
<path fill="none" stroke="black" d="M2244.79,-520.84C2295.85,-516.63 2409.88,-507.22 2482.05,-501.27"/>
</g>
<!-- 6623427728 -->
<g id="node36" class="node">
<title>6623427728</title>
<ellipse fill="none" stroke="black" cx="2546.95" cy="-415" rx="140.65" ry="18"/>
<text text-anchor="middle" x="2546.95" y="-409.38" font-family="Times,serif" font-size="15.00">create procedure confirmation</text>
</g>
<!-- 6623413072&#45;&#45;6623427728 -->
<g id="edge27" class="edge">
<title>6623413072&#45;&#45;6623427728</title>
<path fill="none" stroke="black" d="M2244.24,-365.24C2289.84,-372.76 2386.88,-388.76 2458.65,-400.6"/>
</g>
<!-- 6623414800 -->
<g id="node37" class="node">
<title>6623414800</title>
<ellipse fill="none" stroke="black" cx="2546.95" cy="-361" rx="27" ry="18"/>
<text text-anchor="middle" x="2546.95" y="-355.38" font-family="Times,serif" font-size="15.00">seq</text>
</g>
<!-- 6623413072&#45;&#45;6623414800 -->
<g id="edge30" class="edge">
<title>6623413072&#45;&#45;6623414800</title>
<path fill="none" stroke="black" d="M2244.79,-361C2306.09,-361 2458.16,-361 2519.58,-361"/>
</g>
<!-- 6623660112 -->
<g id="node38" class="node">
<title>6623660112</title>
<ellipse fill="none" stroke="black" cx="2900.02" cy="-401" rx="134.33" ry="18"/>
<text text-anchor="middle" x="2900.02" y="-395.38" font-family="Times,serif" font-size="15.00">send procedure confirmation</text>
</g>
<!-- 6623414800&#45;&#45;6623660112 -->
<g id="edge28" class="edge">
<title>6623414800&#45;&#45;6623660112</title>
<path fill="none" stroke="black" d="M2574.05,-363.97C2620.37,-369.25 2719.28,-380.52 2795.89,-389.25"/>
</g>
<!-- 6623414416 -->
<g id="node39" class="node">
<title>6623414416</title>
<ellipse fill="none" stroke="black" cx="2900.02" cy="-347" rx="176.42" ry="18"/>
<text text-anchor="middle" x="2900.02" y="-341.38" font-family="Times,serif" font-size="15.00">enter senddate procedure confirmation</text>
</g>
<!-- 6623414800&#45;&#45;6623414416 -->
<g id="edge29" class="edge">
<title>6623414800&#45;&#45;6623414416</title>
<path fill="none" stroke="black" d="M2574.34,-359.95C2609.02,-358.56 2672.83,-356.02 2734.76,-353.55"/>
</g>
<!-- 6620493328 -->
<g id="node42" class="node">
<title>6620493328</title>
<ellipse fill="none" stroke="black" cx="2217.55" cy="-253" rx="27" ry="18"/>
<text text-anchor="middle" x="2217.55" y="-247.38" font-family="Times,serif" font-size="15.00">xor</text>
</g>
<!-- 6623427472&#45;&#45;6620493328 -->
<g id="edge42" class="edge">
<title>6623427472&#45;&#45;6620493328</title>
<path fill="none" stroke="black" d="M1920.99,-228.19C1981.26,-233.25 2129.76,-245.71 2190.26,-250.79"/>
</g>
<!-- 6620424848 -->
<g id="node51" class="node">
<title>6620424848</title>
<ellipse fill="none" stroke="black" cx="2217.55" cy="-199" rx="47" ry="18"/>
<text text-anchor="middle" x="2217.55" y="-193.38" font-family="Times,serif" font-size="15.00">xor loop</text>
</g>
<!-- 6623427472&#45;&#45;6620424848 -->
<g id="edge45" class="edge">
<title>6623427472&#45;&#45;6620424848</title>
<path fill="none" stroke="black" d="M1920.99,-223.81C1975.65,-219.22 2102.89,-208.54 2171.23,-202.8"/>
</g>
<!-- 6622944528 -->
<g id="node54" class="node">
<title>6622944528</title>
<ellipse fill="none" stroke="black" cx="2217.55" cy="-145" rx="152.75" ry="18"/>
<text text-anchor="middle" x="2217.55" y="-139.38" font-family="Times,serif" font-size="15.00">enter senddate acknowledgement</text>
</g>
<!-- 6623427472&#45;&#45;6622944528 -->
<g id="edge46" class="edge">
<title>6623427472&#45;&#45;6622944528</title>
<path fill="none" stroke="black" d="M1919.65,-219.78C1968.56,-207.46 2079.16,-179.6 2150.7,-161.59"/>
</g>
<!-- 6622940112 -->
<g id="node43" class="node">
<title>6622940112</title>
<ellipse fill="none" stroke="black" cx="2546.95" cy="-307" rx="110.66" ry="18"/>
<text text-anchor="middle" x="2546.95" y="-301.38" font-family="Times,serif" font-size="15.00">reception through OLO</text>
</g>
<!-- 6620493328&#45;&#45;6622940112 -->
<g id="edge34" class="edge">
<title>6620493328&#45;&#45;6622940112</title>
<path fill="none" stroke="black" d="M2244.24,-257.24C2291.8,-265.08 2395.31,-282.15 2467.76,-294.1"/>
</g>
<!-- 6622948880 -->
<g id="node44" class="node">
<title>6622948880</title>
<ellipse fill="none" stroke="black" cx="2546.95" cy="-253" rx="27" ry="18"/>
<text text-anchor="middle" x="2546.95" y="-247.38" font-family="Times,serif" font-size="15.00">seq</text>
</g>
<!-- 6620493328&#45;&#45;6622948880 -->
<g id="edge41" class="edge">
<title>6620493328&#45;&#45;6622948880</title>
<path fill="none" stroke="black" d="M2244.79,-253C2306.09,-253 2458.16,-253 2519.58,-253"/>
</g>
<!-- 6622953040 -->
<g id="node45" class="node">
<title>6622953040</title>
<ellipse fill="none" stroke="black" cx="2900.02" cy="-266" rx="27" ry="18"/>
<text text-anchor="middle" x="2900.02" y="-260.38" font-family="Times,serif" font-size="15.00">xor</text>
</g>
<!-- 6622948880&#45;&#45;6622953040 -->
<g id="edge39" class="edge">
<title>6622948880&#45;&#45;6622953040</title>
<path fill="none" stroke="black" d="M2574.34,-253.98C2639.56,-256.39 2807.76,-262.62 2872.8,-265.03"/>
</g>
<!-- 6622948688 -->
<g id="node50" class="node">
<title>6622948688</title>
<ellipse fill="none" stroke="black" cx="2900.02" cy="-212" rx="108.55" ry="18"/>
<text text-anchor="middle" x="2900.02" y="-206.38" font-family="Times,serif" font-size="15.00">OLO messaging active</text>
</g>
<!-- 6622948880&#45;&#45;6622948688 -->
<g id="edge40" class="edge">
<title>6622948880&#45;&#45;6622948688</title>
<path fill="none" stroke="black" d="M2574.05,-249.95C2623.31,-244.2 2732.05,-231.5 2810.18,-222.37"/>
</g>
<!-- 6622940176 -->
<g id="node46" class="node">
<title>6622940176</title>
<ellipse fill="black" stroke="black" cx="3139.44" cy="-285" rx="2.7" ry="2.7"/>
</g>
<!-- 6622953040&#45;&#45;6622940176 -->
<g id="edge35" class="edge">
<title>6622953040&#45;&#45;6622940176</title>
<path fill="none" stroke="black" d="M2927.33,-268.11C2984.8,-272.7 3117.88,-283.35 3136.31,-284.83"/>
</g>
<!-- 6622943568 -->
<g id="node47" class="node">
<title>6622943568</title>
<ellipse fill="none" stroke="black" cx="3139.44" cy="-246" rx="27" ry="18"/>
<text text-anchor="middle" x="3139.44" y="-240.38" font-family="Times,serif" font-size="15.00">seq</text>
</g>
<!-- 6622953040&#45;&#45;6622943568 -->
<g id="edge38" class="edge">
<title>6622953040&#45;&#45;6622943568</title>
<path fill="none" stroke="black" d="M2926.88,-263.82C2972.43,-259.98 3066.47,-252.06 3112.25,-248.21"/>
</g>
<!-- 6622952848 -->
<g id="node48" class="node">
<title>6622952848</title>
<ellipse fill="none" stroke="black" cx="3339.93" cy="-273" rx="137.49" ry="18"/>
<text text-anchor="middle" x="3339.93" y="-267.38" font-family="Times,serif" font-size="15.00">create subcases completeness</text>
</g>
<!-- 6622943568&#45;&#45;6622952848 -->
<g id="edge36" class="edge">
<title>6622943568&#45;&#45;6622952848</title>
<path fill="none" stroke="black" d="M3166.39,-249.53C3186.14,-252.22 3214.65,-256.1 3242.83,-259.93"/>
</g>
<!-- 6622944272 -->
<g id="node49" class="node">
<title>6622944272</title>
<ellipse fill="none" stroke="black" cx="3339.93" cy="-219" rx="132.76" ry="18"/>
<text text-anchor="middle" x="3339.93" y="-213.38" font-family="Times,serif" font-size="15.00">create publication document</text>
</g>
<!-- 6622943568&#45;&#45;6622944272 -->
<g id="edge37" class="edge">
<title>6622943568&#45;&#45;6622944272</title>
<path fill="none" stroke="black" d="M3166.39,-242.47C3186.56,-239.73 3215.87,-235.74 3244.63,-231.83"/>
</g>
<!-- 6622945552 -->
<g id="node52" class="node">
<title>6622945552</title>
<ellipse fill="none" stroke="black" cx="2546.95" cy="-199" rx="121.18" ry="18"/>
<text text-anchor="middle" x="2546.95" y="-193.38" font-family="Times,serif" font-size="15.00">send confirmation receipt</text>
</g>
<!-- 6620424848&#45;&#45;6622945552 -->
<g id="edge43" class="edge">
<title>6620424848&#45;&#45;6622945552</title>
<path fill="none" stroke="black" d="M2264.77,-199C2306.45,-199 2369.62,-199 2425.53,-199"/>
</g>
<!-- 6622950224 -->
<g id="node53" class="node">
<title>6622950224</title>
<ellipse fill="black" stroke="black" cx="2546.95" cy="-160" rx="2.7" ry="2.7"/>
</g>
<!-- 6620424848&#45;&#45;6622950224 -->
<g id="edge44" class="edge">
<title>6620424848&#45;&#45;6622950224</title>
<path fill="none" stroke="black" d="M2263.05,-193.7C2347.67,-183.62 2525.11,-162.48 2544.26,-160.2"/>
</g>
<!-- 6622946896 -->
<g id="node56" class="node">
<title>6622946896</title>
<ellipse fill="black" stroke="black" cx="1893.95" cy="-180" rx="2.7" ry="2.7"/>
</g>
<!-- 6623423184&#45;&#45;6622946896 -->
<g id="edge49" class="edge">
<title>6623423184&#45;&#45;6622946896</title>
<path fill="none" stroke="black" d="M1723.5,-176.54C1772.79,-177.55 1875.21,-179.64 1890.91,-179.96"/>
</g>
<!-- 6622946704 -->
<g id="node57" class="node">
<title>6622946704</title>
<ellipse fill="none" stroke="black" cx="1893.95" cy="-141" rx="134.86" ry="18"/>
<text text-anchor="middle" x="1893.95" y="-135.38" font-family="Times,serif" font-size="15.00">read field phased application</text>
</g>
<!-- 6623423184&#45;&#45;6622946704 -->
<g id="edge50" class="edge">
<title>6623423184&#45;&#45;6622946704</title>
<path fill="none" stroke="black" d="M1722.69,-171.42C1745.3,-167.38 1779.52,-161.27 1811.37,-155.58"/>
</g>
<!-- 6623420688 -->
<g id="node59" class="node">
<title>6623420688</title>
<ellipse fill="black" stroke="black" cx="1454.56" cy="-157" rx="2.7" ry="2.7"/>
</g>
<!-- 6623417680&#45;&#45;6623420688 -->
<g id="edge54" class="edge">
<title>6623417680&#45;&#45;6623420688</title>
<path fill="none" stroke="black" d="M1083.07,-153.27C1167.2,-154.11 1425.43,-156.72 1451.44,-156.98"/>
</g>
<!-- 6622116176 -->
<g id="node60" class="node">
<title>6622116176</title>
<ellipse fill="none" stroke="black" cx="1454.56" cy="-118" rx="125.39" ry="18"/>
<text text-anchor="middle" x="1454.56" y="-112.38" font-family="Times,serif" font-size="15.00">inform BAG administrator</text>
</g>
<!-- 6623417680&#45;&#45;6622116176 -->
<g id="edge55" class="edge">
<title>6623417680&#45;&#45;6622116176</title>
<path fill="none" stroke="black" d="M1082.76,-150.7C1135.35,-146.07 1256.87,-135.35 1346.53,-127.44"/>
</g>
<!-- 6622788304 -->
<g id="node62" class="node">
<title>6622788304</title>
<ellipse fill="black" stroke="black" cx="451.13" cy="-251" rx="2.7" ry="2.7"/>
</g>
<!-- 6623427664&#45;&#45;6622788304 -->
<g id="edge60" class="edge">
<title>6623427664&#45;&#45;6622788304</title>
<path fill="none" stroke="black" d="M266.24,-251C318.6,-251 432.54,-251 448.31,-251"/>
</g>
<!-- 6622786640 -->
<g id="node63" class="node">
<title>6622786640</title>
<ellipse fill="none" stroke="black" cx="451.13" cy="-99" rx="27" ry="18"/>
<text text-anchor="middle" x="451.13" y="-93.38" font-family="Times,serif" font-size="15.00">seq</text>
</g>
<!-- 6623427664&#45;&#45;6622786640 -->
<g id="edge64" class="edge">
<title>6623427664&#45;&#45;6622786640</title>
<path fill="none" stroke="black" d="M257.97,-238.04C297.56,-209.4 392.14,-140.96 431.97,-112.14"/>
</g>
<!-- 6622775056 -->
<g id="node64" class="node">
<title>6622775056</title>
<ellipse fill="none" stroke="black" cx="674.77" cy="-126" rx="131.18" ry="18"/>
<text text-anchor="middle" x="674.77" y="-120.38" font-family="Times,serif" font-size="15.00">treat subcases completeness</text>
</g>
<!-- 6622786640&#45;&#45;6622775056 -->
<g id="edge61" class="edge">
<title>6622786640&#45;&#45;6622775056</title>
<path fill="none" stroke="black" d="M477.99,-102.15C502.02,-105.08 539.39,-109.63 575.06,-113.98"/>
</g>
<!-- 6622777104 -->
<g id="node65" class="node">
<title>6622777104</title>
<ellipse fill="none" stroke="black" cx="674.77" cy="-72" rx="156.43" ry="18"/>
<text text-anchor="middle" x="674.77" y="-66.38" font-family="Times,serif" font-size="15.00">subcases completeness completed</text>
</g>
<!-- 6622786640&#45;&#45;6622777104 -->
<g id="edge62" class="edge">
<title>6622786640&#45;&#45;6622777104</title>
<path fill="none" stroke="black" d="M477.99,-95.85C499.86,-93.19 532.75,-89.18 565.37,-85.2"/>
</g>
<!-- 6623764880 -->
<g id="node66" class="node">
<title>6623764880</title>
<ellipse fill="none" stroke="black" cx="674.77" cy="-18" rx="86.46" ry="18"/>
<text text-anchor="middle" x="674.77" y="-12.38" font-family="Times,serif" font-size="15.00">procedure change</text>
</g>
<!-- 6622786640&#45;&#45;6623764880 -->
<g id="edge63" class="edge">
<title>6622786640&#45;&#45;6623764880</title>
<path fill="none" stroke="black" d="M475.43,-90.48C512.11,-77.08 583.9,-50.84 630.3,-33.88"/>
</g>
</g>
</svg>
