<?xml version="1.0" encoding="UTF-8" standalone="no"?>
<!DOCTYPE svg PUBLIC "-//W3C//DTD SVG 1.1//EN"
 "http://www.w3.org/Graphics/SVG/1.1/DTD/svg11.dtd">
<!-- Generated by graphviz version 8.0.5 (20230430.1635)
 -->
<!-- Title: pt Pages: 1 -->
<svg width="3881pt" height="758pt"
 viewBox="0.00 0.00 3880.58 758.00" xmlns="http://www.w3.org/2000/svg" xmlns:xlink="http://www.w3.org/1999/xlink">
<g id="graph0" class="graph" transform="scale(1 1) rotate(0) translate(4 754)">
<title>pt</title>
<polygon fill="white" stroke="none" points="-4,4 -4,-754 3876.58,-754 3876.58,4 -4,4"/>
<!-- 5452560976 -->
<g id="node1" class="node">
<title>5452560976</title>
<ellipse fill="none" stroke="black" cx="27" cy="-249" rx="27" ry="18"/>
<text text-anchor="middle" x="27" y="-243.38" font-family="Times,serif" font-size="15.00">seq</text>
</g>
<!-- 6620312272 -->
<g id="node2" class="node">
<title>6620312272</title>
<ellipse fill="none" stroke="black" cx="117" cy="-288" rx="27" ry="18"/>
<text text-anchor="middle" x="117" y="-282.38" font-family="Times,serif" font-size="15.00">xor</text>
</g>
<!-- 5452560976&#45;&#45;6620312272 -->
<g id="edge65" class="edge">
<title>5452560976&#45;&#45;6620312272</title>
<path fill="none" stroke="black" d="M50.21,-258.84C63.55,-264.75 80.46,-272.25 93.8,-278.16"/>
</g>
<!-- 6620302544 -->
<g id="node67" class="node">
<title>6620302544</title>
<ellipse fill="none" stroke="black" cx="117" cy="-222" rx="27" ry="18"/>
<text text-anchor="middle" x="117" y="-216.38" font-family="Times,serif" font-size="15.00">xor</text>
</g>
<!-- 5452560976&#45;&#45;6620302544 -->
<g id="edge69" class="edge">
<title>5452560976&#45;&#45;6620302544</title>
<path fill="none" stroke="black" d="M52.05,-241.62C64.46,-237.81 79.57,-233.18 91.98,-229.37"/>
</g>
<!-- 6620302864 -->
<g id="node3" class="node">
<title>6620302864</title>
<ellipse fill="none" stroke="black" cx="271.19" cy="-624" rx="27" ry="18"/>
<text text-anchor="middle" x="271.19" y="-618.38" font-family="Times,serif" font-size="15.00">seq</text>
</g>
<!-- 6620312272&#45;&#45;6620302864 -->
<g id="edge7" class="edge">
<title>6620312272&#45;&#45;6620302864</title>
<path fill="none" stroke="black" d="M125.76,-305.12C151.8,-362.63 235.98,-548.46 262.27,-606.51"/>
</g>
<!-- 6620314704 -->
<g id="node10" class="node">
<title>6620314704</title>
<ellipse fill="none" stroke="black" cx="271.19" cy="-288" rx="27" ry="18"/>
<text text-anchor="middle" x="271.19" y="-282.38" font-family="Times,serif" font-size="15.00">seq</text>
</g>
<!-- 6620312272&#45;&#45;6620314704 -->
<g id="edge64" class="edge">
<title>6620312272&#45;&#45;6620314704</title>
<path fill="none" stroke="black" d="M144.16,-288C172.04,-288 215.92,-288 243.86,-288"/>
</g>
<!-- 6620303632 -->
<g id="node4" class="node">
<title>6620303632</title>
<ellipse fill="none" stroke="black" cx="576.91" cy="-732" rx="178.53" ry="18"/>
<text text-anchor="middle" x="576.91" y="-726.38" font-family="Times,serif" font-size="15.00">enter date termination request received</text>
</g>
<!-- 6620302864&#45;&#45;6620303632 -->
<g id="edge1" class="edge">
<title>6620302864&#45;&#45;6620303632</title>
<path fill="none" stroke="black" d="M295.52,-632.3C344.62,-649.76 459.58,-690.63 526.05,-714.27"/>
</g>
<!-- 6620306640 -->
<g id="node5" class="node">
<title>6620306640</title>
<ellipse fill="none" stroke="black" cx="576.91" cy="-678" rx="27" ry="18"/>
<text text-anchor="middle" x="576.91" y="-672.38" font-family="Times,serif" font-size="15.00">and</text>
</g>
<!-- 6620302864&#45;&#45;6620306640 -->
<g id="edge4" class="edge">
<title>6620302864&#45;&#45;6620306640</title>
<path fill="none" stroke="black" d="M297.83,-628.56C355.17,-638.75 493.27,-663.31 550.45,-673.47"/>
</g>
<!-- 6620380176 -->
<g id="node8" class="node">
<title>6620380176</title>
<ellipse fill="none" stroke="black" cx="576.91" cy="-624" rx="115.39" ry="18"/>
<text text-anchor="middle" x="576.91" y="-618.38" font-family="Times,serif" font-size="15.00">phase procedure aborted</text>
</g>
<!-- 6620302864&#45;&#45;6620380176 -->
<g id="edge5" class="edge">
<title>6620302864&#45;&#45;6620380176</title>
<path fill="none" stroke="black" d="M298.61,-624C334.77,-624 401.92,-624 461.09,-624"/>
</g>
<!-- 6620366416 -->
<g id="node9" class="node">
<title>6620366416</title>
<ellipse fill="none" stroke="black" cx="576.91" cy="-570" rx="82.77" ry="18"/>
<text text-anchor="middle" x="576.91" y="-564.38" font-family="Times,serif" font-size="15.00">register deadline</text>
</g>
<!-- 6620302864&#45;&#45;6620366416 -->
<g id="edge6" class="edge">
<title>6620302864&#45;&#45;6620366416</title>
<path fill="none" stroke="black" d="M297.83,-619.44C344.59,-611.13 445.05,-593.27 511.55,-581.44"/>
</g>
<!-- 6620367120 -->
<g id="node6" class="node">
<title>6620367120</title>
<ellipse fill="none" stroke="black" cx="950.5" cy="-705" rx="124.86" ry="18"/>
<text text-anchor="middle" x="950.5" y="-699.38" font-family="Times,serif" font-size="15.00">message terminate request</text>
</g>
<!-- 6620306640&#45;&#45;6620367120 -->
<g id="edge2" class="edge">
<title>6620306640&#45;&#45;6620367120</title>
<path fill="none" stroke="black" d="M604.04,-679.9C651.95,-683.38 756.41,-690.97 838,-696.9"/>
</g>
<!-- 6620366672 -->
<g id="node7" class="node">
<title>6620366672</title>
<ellipse fill="none" stroke="black" cx="950.5" cy="-651" rx="159.06" ry="18"/>
<text text-anchor="middle" x="950.5" y="-645.38" font-family="Times,serif" font-size="15.00">enter senddate request termination</text>
</g>
<!-- 6620306640&#45;&#45;6620366672 -->
<g id="edge3" class="edge">
<title>6620306640&#45;&#45;6620366672</title>
<path fill="none" stroke="black" d="M604.04,-676.1C647.57,-672.94 737.79,-666.38 815.12,-660.76"/>
</g>
<!-- 6620380560 -->
<g id="node11" class="node">
<title>6620380560</title>
<ellipse fill="none" stroke="black" cx="576.91" cy="-516" rx="27" ry="18"/>
<text text-anchor="middle" x="576.91" y="-510.38" font-family="Times,serif" font-size="15.00">xor</text>
</g>
<!-- 6620314704&#45;&#45;6620380560 -->
<g id="edge43" class="edge">
<title>6620314704&#45;&#45;6620380560</title>
<path fill="none" stroke="black" d="M289.83,-301.24C343.51,-341.54 504.48,-462.37 558.22,-502.72"/>
</g>
<!-- 6620381072 -->
<g id="node47" class="node">
<title>6620381072</title>
<ellipse fill="none" stroke="black" cx="576.91" cy="-450" rx="27" ry="18"/>
<text text-anchor="middle" x="576.91" y="-444.38" font-family="Times,serif" font-size="15.00">xor</text>
</g>
<!-- 6620314704&#45;&#45;6620381072 -->
<g id="edge47" class="edge">
<title>6620314704&#45;&#45;6620381072</title>
<path fill="none" stroke="black" d="M293.07,-299.13C348.69,-328.8 499.97,-409.49 555.29,-439"/>
</g>
<!-- 6620402832 -->
<g id="node51" class="node">
<title>6620402832</title>
<ellipse fill="none" stroke="black" cx="576.91" cy="-396" rx="47" ry="18"/>
<text text-anchor="middle" x="576.91" y="-390.38" font-family="Times,serif" font-size="15.00">xor loop</text>
</g>
<!-- 6620314704&#45;&#45;6620402832 -->
<g id="edge50" class="edge">
<title>6620314704&#45;&#45;6620402832</title>
<path fill="none" stroke="black" d="M295.52,-296.3C348.72,-315.21 479.23,-361.62 541.61,-383.8"/>
</g>
<!-- 6620403408 -->
<g id="node54" class="node">
<title>6620403408</title>
<ellipse fill="none" stroke="black" cx="576.91" cy="-342" rx="160.64" ry="18"/>
<text text-anchor="middle" x="576.91" y="-336.38" font-family="Times,serif" font-size="15.00">forward to the competent authority</text>
</g>
<!-- 6620314704&#45;&#45;6620403408 -->
<g id="edge51" class="edge">
<title>6620314704&#45;&#45;6620403408</title>
<path fill="none" stroke="black" d="M297.83,-292.56C339.51,-299.97 423.87,-314.97 488.8,-326.51"/>
</g>
<!-- 6620405392 -->
<g id="node55" class="node">
<title>6620405392</title>
<ellipse fill="none" stroke="black" cx="576.91" cy="-288" rx="147.49" ry="18"/>
<text text-anchor="middle" x="576.91" y="-282.38" font-family="Times,serif" font-size="15.00">regular procedure without MER</text>
</g>
<!-- 6620314704&#45;&#45;6620405392 -->
<g id="edge52" class="edge">
<title>6620314704&#45;&#45;6620405392</title>
<path fill="none" stroke="black" d="M298.61,-288C328.34,-288 379.04,-288 429.02,-288"/>
</g>
<!-- 6620407376 -->
<g id="node56" class="node">
<title>6620407376</title>
<ellipse fill="none" stroke="black" cx="576.91" cy="-234" rx="27" ry="18"/>
<text text-anchor="middle" x="576.91" y="-228.38" font-family="Times,serif" font-size="15.00">xor</text>
</g>
<!-- 6620314704&#45;&#45;6620407376 -->
<g id="edge55" class="edge">
<title>6620314704&#45;&#45;6620407376</title>
<path fill="none" stroke="black" d="M297.83,-283.44C355.17,-273.25 493.27,-248.69 550.45,-238.53"/>
</g>
<!-- 6620407312 -->
<g id="node59" class="node">
<title>6620407312</title>
<ellipse fill="none" stroke="black" cx="576.91" cy="-180" rx="176.42" ry="18"/>
<text text-anchor="middle" x="576.91" y="-174.38" font-family="Times,serif" font-size="15.00">enter senddate procedure confirmation</text>
</g>
<!-- 6620314704&#45;&#45;6620407312 -->
<g id="edge56" class="edge">
<title>6620314704&#45;&#45;6620407312</title>
<path fill="none" stroke="black" d="M295.52,-279.7C344.69,-262.22 459.91,-221.25 526.33,-197.63"/>
</g>
<!-- 6620408464 -->
<g id="node60" class="node">
<title>6620408464</title>
<ellipse fill="none" stroke="black" cx="576.91" cy="-126" rx="27" ry="18"/>
<text text-anchor="middle" x="576.91" y="-120.38" font-family="Times,serif" font-size="15.00">xor</text>
</g>
<!-- 6620314704&#45;&#45;6620408464 -->
<g id="edge61" class="edge">
<title>6620314704&#45;&#45;6620408464</title>
<path fill="none" stroke="black" d="M293.07,-276.87C348.69,-247.2 499.97,-166.51 555.29,-137"/>
</g>
<!-- 6620409040 -->
<g id="node65" class="node">
<title>6620409040</title>
<ellipse fill="none" stroke="black" cx="576.91" cy="-72" rx="134.33" ry="18"/>
<text text-anchor="middle" x="576.91" y="-66.38" font-family="Times,serif" font-size="15.00">send procedure confirmation</text>
</g>
<!-- 6620314704&#45;&#45;6620409040 -->
<g id="edge62" class="edge">
<title>6620314704&#45;&#45;6620409040</title>
<path fill="none" stroke="black" d="M290.28,-275.14C342,-238.35 490.62,-132.66 550.48,-90.09"/>
</g>
<!-- 6620407760 -->
<g id="node66" class="node">
<title>6620407760</title>
<ellipse fill="none" stroke="black" cx="576.91" cy="-18" rx="132.23" ry="18"/>
<text text-anchor="middle" x="576.91" y="-12.38" font-family="Times,serif" font-size="15.00">registration date publication</text>
</g>
<!-- 6620314704&#45;&#45;6620407760 -->
<g id="edge63" class="edge">
<title>6620314704&#45;&#45;6620407760</title>
<path fill="none" stroke="black" d="M288.09,-273.86C339.11,-228.51 498.66,-86.67 555.53,-36.12"/>
</g>
<!-- 6620377808 -->
<g id="node12" class="node">
<title>6620377808</title>
<ellipse fill="black" stroke="black" cx="950.5" cy="-567" rx="2.7" ry="2.7"/>
</g>
<!-- 6620380560&#45;&#45;6620377808 -->
<g id="edge8" class="edge">
<title>6620380560&#45;&#45;6620377808</title>
<path fill="none" stroke="black" d="M603.75,-519.55C683.73,-530.52 923.4,-563.42 947.53,-566.73"/>
</g>
<!-- 6620374992 -->
<g id="node13" class="node">
<title>6620374992</title>
<ellipse fill="none" stroke="black" cx="950.5" cy="-528" rx="27" ry="18"/>
<text text-anchor="middle" x="950.5" y="-522.38" font-family="Times,serif" font-size="15.00">and</text>
</g>
<!-- 6620380560&#45;&#45;6620374992 -->
<g id="edge42" class="edge">
<title>6620380560&#45;&#45;6620374992</title>
<path fill="none" stroke="black" d="M604.34,-516.85C672.81,-519.06 855.4,-524.96 923.46,-527.16"/>
</g>
<!-- 6620375120 -->
<g id="node14" class="node">
<title>6620375120</title>
<ellipse fill="none" stroke="black" cx="1345.66" cy="-555" rx="149.06" ry="18"/>
<text text-anchor="middle" x="1345.66" y="-549.38" font-family="Times,serif" font-size="15.00">register submission date request</text>
</g>
<!-- 6620374992&#45;&#45;6620375120 -->
<g id="edge9" class="edge">
<title>6620374992&#45;&#45;6620375120</title>
<path fill="none" stroke="black" d="M977.6,-529.79C1025.36,-533.07 1129.77,-540.24 1215.06,-546.1"/>
</g>
<!-- 6620377040 -->
<g id="node15" class="node">
<title>6620377040</title>
<ellipse fill="none" stroke="black" cx="1345.66" cy="-501" rx="27" ry="18"/>
<text text-anchor="middle" x="1345.66" y="-495.38" font-family="Times,serif" font-size="15.00">seq</text>
</g>
<!-- 6620374992&#45;&#45;6620377040 -->
<g id="edge41" class="edge">
<title>6620374992&#45;&#45;6620377040</title>
<path fill="none" stroke="black" d="M977.6,-526.21C1048.94,-521.31 1246.67,-507.73 1318.31,-502.81"/>
</g>
<!-- 6620377360 -->
<g id="node16" class="node">
<title>6620377360</title>
<ellipse fill="none" stroke="black" cx="1690.31" cy="-555" rx="108.55" ry="18"/>
<text text-anchor="middle" x="1690.31" y="-549.38" font-family="Times,serif" font-size="15.00">OLO messaging active</text>
</g>
<!-- 6620377040&#45;&#45;6620377360 -->
<g id="edge10" class="edge">
<title>6620377040&#45;&#45;6620377360</title>
<path fill="none" stroke="black" d="M1372.41,-505.06C1422.22,-512.91 1533.55,-530.45 1610.05,-542.51"/>
</g>
<!-- 6620377168 -->
<g id="node17" class="node">
<title>6620377168</title>
<ellipse fill="none" stroke="black" cx="1690.31" cy="-501" rx="27" ry="18"/>
<text text-anchor="middle" x="1690.31" y="-495.38" font-family="Times,serif" font-size="15.00">xor</text>
</g>
<!-- 6620377040&#45;&#45;6620377168 -->
<g id="edge20" class="edge">
<title>6620377040&#45;&#45;6620377168</title>
<path fill="none" stroke="black" d="M1372.97,-501C1436.76,-501 1599.03,-501 1662.9,-501"/>
</g>
<!-- 6620378128 -->
<g id="node27" class="node">
<title>6620378128</title>
<ellipse fill="none" stroke="black" cx="1690.31" cy="-393" rx="47" ry="18"/>
<text text-anchor="middle" x="1690.31" y="-387.38" font-family="Times,serif" font-size="15.00">xor loop</text>
</g>
<!-- 6620377040&#45;&#45;6620378128 -->
<g id="edge40" class="edge">
<title>6620377040&#45;&#45;6620378128</title>
<path fill="none" stroke="black" d="M1370.48,-493.49C1429.52,-474.88 1582.89,-426.54 1653.17,-404.39"/>
</g>
<!-- 6620378960 -->
<g id="node18" class="node">
<title>6620378960</title>
<ellipse fill="none" stroke="black" cx="1861.86" cy="-609" rx="27" ry="18"/>
<text text-anchor="middle" x="1861.86" y="-603.38" font-family="Times,serif" font-size="15.00">seq</text>
</g>
<!-- 6620377168&#45;&#45;6620378960 -->
<g id="edge15" class="edge">
<title>6620377168&#45;&#45;6620378960</title>
<path fill="none" stroke="black" d="M1710.43,-513.18C1742.99,-533.92 1808.86,-575.88 1841.55,-596.7"/>
</g>
<!-- 6620378768 -->
<g id="node23" class="node">
<title>6620378768</title>
<ellipse fill="none" stroke="black" cx="1861.86" cy="-501" rx="27" ry="18"/>
<text text-anchor="middle" x="1861.86" y="-495.38" font-family="Times,serif" font-size="15.00">seq</text>
</g>
<!-- 6620377168&#45;&#45;6620378768 -->
<g id="edge19" class="edge">
<title>6620377168&#45;&#45;6620378768</title>
<path fill="none" stroke="black" d="M1717.8,-501C1749.65,-501 1802.78,-501 1834.55,-501"/>
</g>
<!-- 6620370960 -->
<g id="node19" class="node">
<title>6620370960</title>
<ellipse fill="none" stroke="black" cx="2065.51" cy="-663" rx="140.65" ry="18"/>
<text text-anchor="middle" x="2065.51" y="-657.38" font-family="Times,serif" font-size="15.00">create procedure confirmation</text>
</g>
<!-- 6620378960&#45;&#45;6620370960 -->
<g id="edge11" class="edge">
<title>6620378960&#45;&#45;6620370960</title>
<path fill="none" stroke="black" d="M1887.18,-615.51C1915.68,-623.14 1963.94,-636.07 2002.93,-646.51"/>
</g>
<!-- 6620378576 -->
<g id="node20" class="node">
<title>6620378576</title>
<ellipse fill="none" stroke="black" cx="2065.51" cy="-609" rx="27" ry="18"/>
<text text-anchor="middle" x="2065.51" y="-603.38" font-family="Times,serif" font-size="15.00">xor</text>
</g>
<!-- 6620378960&#45;&#45;6620378576 -->
<g id="edge14" class="edge">
<title>6620378960&#45;&#45;6620378576</title>
<path fill="none" stroke="black" d="M1889.22,-609C1927.87,-609 1999.49,-609 2038.14,-609"/>
</g>
<!-- 6620378384 -->
<g id="node21" class="node">
<title>6620378384</title>
<ellipse fill="none" stroke="black" cx="2374.91" cy="-636" rx="132.76" ry="18"/>
<text text-anchor="middle" x="2374.91" y="-630.38" font-family="Times,serif" font-size="15.00">create publication document</text>
</g>
<!-- 6620378576&#45;&#45;6620378384 -->
<g id="edge12" class="edge">
<title>6620378576&#45;&#45;6620378384</title>
<path fill="none" stroke="black" d="M2092.72,-611.3C2130.1,-614.59 2201.01,-620.81 2262.26,-626.19"/>
</g>
<!-- 6620369872 -->
<g id="node22" class="node">
<title>6620369872</title>
<ellipse fill="none" stroke="black" cx="2374.91" cy="-582" rx="42.79" ry="18"/>
<text text-anchor="middle" x="2374.91" y="-576.38" font-family="Times,serif" font-size="15.00">publish</text>
</g>
<!-- 6620378576&#45;&#45;6620369872 -->
<g id="edge13" class="edge">
<title>6620378576&#45;&#45;6620369872</title>
<path fill="none" stroke="black" d="M2092.72,-606.7C2146.22,-602 2268.37,-591.27 2332.63,-585.63"/>
</g>
<!-- 6620369808 -->
<g id="node24" class="node">
<title>6620369808</title>
<ellipse fill="none" stroke="black" cx="2065.51" cy="-555" rx="67.52" ry="18"/>
<text text-anchor="middle" x="2065.51" y="-549.38" font-family="Times,serif" font-size="15.00">MER present</text>
</g>
<!-- 6620378768&#45;&#45;6620369808 -->
<g id="edge16" class="edge">
<title>6620378768&#45;&#45;6620369808</title>
<path fill="none" stroke="black" d="M1887.18,-507.51C1919.13,-516.07 1975.94,-531.28 2016.66,-542.19"/>
</g>
<!-- 6620369680 -->
<g id="node25" class="node">
<title>6620369680</title>
<ellipse fill="none" stroke="black" cx="2065.51" cy="-501" rx="129.07" ry="18"/>
<text text-anchor="middle" x="2065.51" y="-495.38" font-family="Times,serif" font-size="15.00">activities regular procedure</text>
</g>
<!-- 6620378768&#45;&#45;6620369680 -->
<g id="edge17" class="edge">
<title>6620378768&#45;&#45;6620369680</title>
<path fill="none" stroke="black" d="M1889.22,-501C1902.03,-501 1918.47,-501 1936.12,-501"/>
</g>
<!-- 6620369616 -->
<g id="node26" class="node">
<title>6620369616</title>
<ellipse fill="none" stroke="black" cx="2065.51" cy="-447" rx="134.86" ry="18"/>
<text text-anchor="middle" x="2065.51" y="-441.38" font-family="Times,serif" font-size="15.00">read field phased application</text>
</g>
<!-- 6620378768&#45;&#45;6620369616 -->
<g id="edge18" class="edge">
<title>6620378768&#45;&#45;6620369616</title>
<path fill="none" stroke="black" d="M1887.18,-494.49C1915.78,-486.83 1964.3,-473.84 2003.36,-463.38"/>
</g>
<!-- 6620368784 -->
<g id="node28" class="node">
<title>6620368784</title>
<ellipse fill="none" stroke="black" cx="1861.86" cy="-393" rx="27" ry="18"/>
<text text-anchor="middle" x="1861.86" y="-387.38" font-family="Times,serif" font-size="15.00">seq</text>
</g>
<!-- 6620378128&#45;&#45;6620368784 -->
<g id="edge38" class="edge">
<title>6620378128&#45;&#45;6620368784</title>
<path fill="none" stroke="black" d="M1737.64,-393C1768.82,-393 1808.8,-393 1834.62,-393"/>
</g>
<!-- 6620369424 -->
<g id="node46" class="node">
<title>6620369424</title>
<ellipse fill="black" stroke="black" cx="1861.86" cy="-354" rx="2.7" ry="2.7"/>
</g>
<!-- 6620378128&#45;&#45;6620369424 -->
<g id="edge39" class="edge">
<title>6620378128&#45;&#45;6620369424</title>
<path fill="none" stroke="black" d="M1731.06,-383.86C1776.48,-373.41 1846.18,-357.38 1858.85,-354.46"/>
</g>
<!-- 6620369360 -->
<g id="node29" class="node">
<title>6620369360</title>
<ellipse fill="none" stroke="black" cx="2065.51" cy="-393" rx="27" ry="18"/>
<text text-anchor="middle" x="2065.51" y="-387.38" font-family="Times,serif" font-size="15.00">xor</text>
</g>
<!-- 6620368784&#45;&#45;6620369360 -->
<g id="edge32" class="edge">
<title>6620368784&#45;&#45;6620369360</title>
<path fill="none" stroke="black" d="M1889.22,-393C1927.87,-393 1999.49,-393 2038.14,-393"/>
</g>
<!-- 6620369232 -->
<g id="node41" class="node">
<title>6620369232</title>
<ellipse fill="none" stroke="black" cx="2065.51" cy="-332" rx="27" ry="18"/>
<text text-anchor="middle" x="2065.51" y="-326.38" font-family="Times,serif" font-size="15.00">xor</text>
</g>
<!-- 6620368784&#45;&#45;6620369232 -->
<g id="edge37" class="edge">
<title>6620368784&#45;&#45;6620369232</title>
<path fill="none" stroke="black" d="M1886.78,-385.76C1925.49,-374.05 2001.42,-351.09 2040.3,-339.32"/>
</g>
<!-- 6620370384 -->
<g id="node30" class="node">
<title>6620370384</title>
<ellipse fill="none" stroke="black" cx="2374.91" cy="-447" rx="99.08" ry="18"/>
<text text-anchor="middle" x="2374.91" y="-441.38" font-family="Times,serif" font-size="15.00">terminate on request</text>
</g>
<!-- 6620369360&#45;&#45;6620370384 -->
<g id="edge21" class="edge">
<title>6620369360&#45;&#45;6620370384</title>
<path fill="none" stroke="black" d="M2091.93,-397.46C2137.53,-405.48 2234.75,-422.56 2302.2,-434.4"/>
</g>
<!-- 6620370448 -->
<g id="node31" class="node">
<title>6620370448</title>
<ellipse fill="none" stroke="black" cx="2374.91" cy="-393" rx="27" ry="18"/>
<text text-anchor="middle" x="2374.91" y="-387.38" font-family="Times,serif" font-size="15.00">seq</text>
</g>
<!-- 6620369360&#45;&#45;6620370448 -->
<g id="edge31" class="edge">
<title>6620369360&#45;&#45;6620370448</title>
<path fill="none" stroke="black" d="M2092.98,-393C2151.24,-393 2289.93,-393 2347.83,-393"/>
</g>
<!-- 6620371408 -->
<g id="node32" class="node">
<title>6620371408</title>
<ellipse fill="none" stroke="black" cx="2747.44" cy="-451" rx="27" ry="18"/>
<text text-anchor="middle" x="2747.44" y="-445.38" font-family="Times,serif" font-size="15.00">xor</text>
</g>
<!-- 6620370448&#45;&#45;6620371408 -->
<g id="edge28" class="edge">
<title>6620370448&#45;&#45;6620371408</title>
<path fill="none" stroke="black" d="M2401.67,-397.03C2469.62,-407.67 2653.1,-436.39 2720.85,-446.99"/>
</g>
<!-- 6620371152 -->
<g id="node39" class="node">
<title>6620371152</title>
<ellipse fill="none" stroke="black" cx="2747.44" cy="-397" rx="124.86" ry="18"/>
<text text-anchor="middle" x="2747.44" y="-391.38" font-family="Times,serif" font-size="15.00">phase application received</text>
</g>
<!-- 6620370448&#45;&#45;6620371152 -->
<g id="edge29" class="edge">
<title>6620370448&#45;&#45;6620371152</title>
<path fill="none" stroke="black" d="M2402.26,-393.28C2447.73,-393.78 2543.65,-394.81 2622.7,-395.66"/>
</g>
<!-- 6620397968 -->
<g id="node40" class="node">
<title>6620397968</title>
<ellipse fill="none" stroke="black" cx="2747.44" cy="-343" rx="152.75" ry="18"/>
<text text-anchor="middle" x="2747.44" y="-337.38" font-family="Times,serif" font-size="15.00">enter senddate acknowledgement</text>
</g>
<!-- 6620370448&#45;&#45;6620397968 -->
<g id="edge30" class="edge">
<title>6620370448&#45;&#45;6620397968</title>
<path fill="none" stroke="black" d="M2401.67,-389.52C2451.24,-382.84 2562.28,-367.85 2645.04,-356.68"/>
</g>
<!-- 6620370704 -->
<g id="node33" class="node">
<title>6620370704</title>
<ellipse fill="black" stroke="black" cx="3014.22" cy="-470" rx="2.7" ry="2.7"/>
</g>
<!-- 6620371408&#45;&#45;6620370704 -->
<g id="edge22" class="edge">
<title>6620371408&#45;&#45;6620370704</title>
<path fill="none" stroke="black" d="M2774.32,-452.86C2836.78,-457.34 2992.1,-468.48 3011.27,-469.86"/>
</g>
<!-- 6620370576 -->
<g id="node34" class="node">
<title>6620370576</title>
<ellipse fill="none" stroke="black" cx="3014.22" cy="-431" rx="27" ry="18"/>
<text text-anchor="middle" x="3014.22" y="-425.38" font-family="Times,serif" font-size="15.00">seq</text>
</g>
<!-- 6620371408&#45;&#45;6620370576 -->
<g id="edge27" class="edge">
<title>6620371408&#45;&#45;6620370576</title>
<path fill="none" stroke="black" d="M2774.32,-449.05C2824.94,-445.22 2936.55,-436.79 2987.25,-432.96"/>
</g>
<!-- 6620370192 -->
<g id="node35" class="node">
<title>6620370192</title>
<ellipse fill="none" stroke="black" cx="3258.91" cy="-458" rx="181.68" ry="18"/>
<text text-anchor="middle" x="3258.91" y="-452.38" font-family="Times,serif" font-size="15.00">phase forwarded to competent authority</text>
</g>
<!-- 6620370576&#45;&#45;6620370192 -->
<g id="edge23" class="edge">
<title>6620370576&#45;&#45;6620370192</title>
<path fill="none" stroke="black" d="M3041.2,-433.89C3064.31,-436.46 3099.89,-440.42 3135.58,-444.39"/>
</g>
<!-- 6620369104 -->
<g id="node36" class="node">
<title>6620369104</title>
<ellipse fill="none" stroke="black" cx="3258.91" cy="-404" rx="27" ry="18"/>
<text text-anchor="middle" x="3258.91" y="-398.38" font-family="Times,serif" font-size="15.00">and</text>
</g>
<!-- 6620370576&#45;&#45;6620369104 -->
<g id="edge26" class="edge">
<title>6620370576&#45;&#45;6620369104</title>
<path fill="none" stroke="black" d="M3041.2,-428.11C3087.78,-422.93 3185.04,-412.11 3231.76,-406.91"/>
</g>
<!-- 6620368400 -->
<g id="node37" class="node">
<title>6620368400</title>
<ellipse fill="none" stroke="black" cx="3674.58" cy="-431" rx="165.37" ry="18"/>
<text text-anchor="middle" x="3674.58" y="-425.38" font-family="Times,serif" font-size="15.00">enter senddate letter to stakeholders</text>
</g>
<!-- 6620369104&#45;&#45;6620368400 -->
<g id="edge24" class="edge">
<title>6620369104&#45;&#45;6620368400</title>
<path fill="none" stroke="black" d="M3286.1,-405.71C3334.67,-408.88 3441.92,-415.88 3531.3,-421.71"/>
</g>
<!-- 6620397712 -->
<g id="node38" class="node">
<title>6620397712</title>
<ellipse fill="none" stroke="black" cx="3674.58" cy="-377" rx="197.99" ry="18"/>
<text text-anchor="middle" x="3674.58" y="-371.38" font-family="Times,serif" font-size="15.00">enter senddate letter to competent authority</text>
</g>
<!-- 6620369104&#45;&#45;6620397712 -->
<g id="edge25" class="edge">
<title>6620369104&#45;&#45;6620397712</title>
<path fill="none" stroke="black" d="M3286.1,-402.29C3331.17,-399.35 3426.74,-393.11 3511.69,-387.57"/>
</g>
<!-- 6620399952 -->
<g id="node42" class="node">
<title>6620399952</title>
<ellipse fill="black" stroke="black" cx="2374.91" cy="-332" rx="2.7" ry="2.7"/>
</g>
<!-- 6620369232&#45;&#45;6620399952 -->
<g id="edge33" class="edge">
<title>6620369232&#45;&#45;6620399952</title>
<path fill="none" stroke="black" d="M2092.98,-332C2163.47,-332 2351.73,-332 2372.11,-332"/>
</g>
<!-- 6620400016 -->
<g id="node43" class="node">
<title>6620400016</title>
<ellipse fill="none" stroke="black" cx="2374.91" cy="-289" rx="27" ry="18"/>
<text text-anchor="middle" x="2374.91" y="-283.38" font-family="Times,serif" font-size="15.00">seq</text>
</g>
<!-- 6620369232&#45;&#45;6620400016 -->
<g id="edge36" class="edge">
<title>6620369232&#45;&#45;6620400016</title>
<path fill="none" stroke="black" d="M2092.45,-328.37C2150.5,-320.25 2290.27,-300.7 2348.14,-292.6"/>
</g>
<!-- 6620400464 -->
<g id="node44" class="node">
<title>6620400464</title>
<ellipse fill="none" stroke="black" cx="2747.44" cy="-289" rx="203.78" ry="18"/>
<text text-anchor="middle" x="2747.44" y="-283.38" font-family="Times,serif" font-size="15.00">no permit needed or only notification needed</text>
</g>
<!-- 6620400016&#45;&#45;6620400464 -->
<g id="edge34" class="edge">
<title>6620400016&#45;&#45;6620400464</title>
<path fill="none" stroke="black" d="M2402.26,-289C2433.1,-289 2487.13,-289 2543.38,-289"/>
</g>
<!-- 6620400336 -->
<g id="node45" class="node">
<title>6620400336</title>
<ellipse fill="none" stroke="black" cx="2747.44" cy="-235" rx="112.76" ry="18"/>
<text text-anchor="middle" x="2747.44" y="-229.38" font-family="Times,serif" font-size="15.00">applicant is stakeholder</text>
</g>
<!-- 6620400016&#45;&#45;6620400336 -->
<g id="edge35" class="edge">
<title>6620400016&#45;&#45;6620400336</title>
<path fill="none" stroke="black" d="M2401.67,-285.25C2454.85,-277.5 2578.79,-259.43 2662.64,-247.21"/>
</g>
<!-- 6620402640 -->
<g id="node48" class="node">
<title>6620402640</title>
<ellipse fill="black" stroke="black" cx="950.5" cy="-489" rx="2.7" ry="2.7"/>
</g>
<!-- 6620381072&#45;&#45;6620402640 -->
<g id="edge44" class="edge">
<title>6620381072&#45;&#45;6620402640</title>
<path fill="none" stroke="black" d="M604.04,-452.74C684.33,-461.17 923.46,-486.27 947.54,-488.79"/>
</g>
<!-- 6620402512 -->
<g id="node49" class="node">
<title>6620402512</title>
<ellipse fill="none" stroke="black" cx="950.5" cy="-450" rx="110.66" ry="18"/>
<text text-anchor="middle" x="950.5" y="-444.38" font-family="Times,serif" font-size="15.00">reception through OLO</text>
</g>
<!-- 6620381072&#45;&#45;6620402512 -->
<g id="edge45" class="edge">
<title>6620381072&#45;&#45;6620402512</title>
<path fill="none" stroke="black" d="M604.34,-450C652.67,-450 757.85,-450 839.48,-450"/>
</g>
<!-- 6620403280 -->
<g id="node50" class="node">
<title>6620403280</title>
<ellipse fill="none" stroke="black" cx="950.5" cy="-396" rx="131.18" ry="18"/>
<text text-anchor="middle" x="950.5" y="-390.38" font-family="Times,serif" font-size="15.00">treat subcases completeness</text>
</g>
<!-- 6620381072&#45;&#45;6620403280 -->
<g id="edge46" class="edge">
<title>6620381072&#45;&#45;6620403280</title>
<path fill="none" stroke="black" d="M603.75,-446.25C655.67,-438.7 774.89,-421.37 858.75,-409.19"/>
</g>
<!-- 6620404368 -->
<g id="node52" class="node">
<title>6620404368</title>
<ellipse fill="none" stroke="black" cx="950.5" cy="-342" rx="121.18" ry="18"/>
<text text-anchor="middle" x="950.5" y="-336.38" font-family="Times,serif" font-size="15.00">send confirmation receipt</text>
</g>
<!-- 6620402832&#45;&#45;6620404368 -->
<g id="edge48" class="edge">
<title>6620402832&#45;&#45;6620404368</title>
<path fill="none" stroke="black" d="M621.26,-389.7C680.13,-381.14 786.69,-365.66 862.41,-354.66"/>
</g>
<!-- 6620405328 -->
<g id="node53" class="node">
<title>6620405328</title>
<ellipse fill="black" stroke="black" cx="950.5" cy="-303" rx="2.7" ry="2.7"/>
</g>
<!-- 6620402832&#45;&#45;6620405328 -->
<g id="edge49" class="edge">
<title>6620402832&#45;&#45;6620405328</title>
<path fill="none" stroke="black" d="M616.98,-386.22C707.16,-363.65 923.99,-309.38 947.43,-303.52"/>
</g>
<!-- 6620407120 -->
<g id="node57" class="node">
<title>6620407120</title>
<ellipse fill="black" stroke="black" cx="950.5" cy="-258" rx="2.7" ry="2.7"/>
</g>
<!-- 6620407376&#45;&#45;6620407120 -->
<g id="edge53" class="edge">
<title>6620407376&#45;&#45;6620407120</title>
<path fill="none" stroke="black" d="M604.04,-235.69C684.33,-240.87 923.46,-256.32 947.54,-257.87"/>
</g>
<!-- 6620407056 -->
<g id="node58" class="node">
<title>6620407056</title>
<ellipse fill="none" stroke="black" cx="950.5" cy="-219" rx="125.39" ry="18"/>
<text text-anchor="middle" x="950.5" y="-213.38" font-family="Times,serif" font-size="15.00">inform BAG administrator</text>
</g>
<!-- 6620407376&#45;&#45;6620407056 -->
<g id="edge54" class="edge">
<title>6620407376&#45;&#45;6620407056</title>
<path fill="none" stroke="black" d="M604.34,-232.93C650.68,-231.06 749.29,-227.08 829.28,-223.85"/>
</g>
<!-- 6620410064 -->
<g id="node61" class="node">
<title>6620410064</title>
<ellipse fill="black" stroke="black" cx="950.5" cy="-146" rx="2.7" ry="2.7"/>
</g>
<!-- 6620408464&#45;&#45;6620410064 -->
<g id="edge57" class="edge">
<title>6620408464&#45;&#45;6620410064</title>
<path fill="none" stroke="black" d="M604.04,-127.41C684.33,-131.73 923.46,-144.6 947.54,-145.89"/>
</g>
<!-- 6620409936 -->
<g id="node62" class="node">
<title>6620409936</title>
<ellipse fill="none" stroke="black" cx="950.5" cy="-107" rx="47" ry="18"/>
<text text-anchor="middle" x="950.5" y="-101.38" font-family="Times,serif" font-size="15.00">xor loop</text>
</g>
<!-- 6620408464&#45;&#45;6620409936 -->
<g id="edge60" class="edge">
<title>6620408464&#45;&#45;6620409936</title>
<path fill="none" stroke="black" d="M604.34,-124.65C666.93,-121.45 824.86,-113.37 903.51,-109.35"/>
</g>
<!-- 6620409360 -->
<g id="node63" class="node">
<title>6620409360</title>
<ellipse fill="none" stroke="black" cx="1345.66" cy="-134" rx="200.1" ry="18"/>
<text text-anchor="middle" x="1345.66" y="-128.38" font-family="Times,serif" font-size="15.00">registrer date of publishing received request</text>
</g>
<!-- 6620409936&#45;&#45;6620409360 -->
<g id="edge58" class="edge">
<title>6620409936&#45;&#45;6620409360</title>
<path fill="none" stroke="black" d="M996.98,-110.12C1042.97,-113.28 1116.73,-118.35 1184.51,-123"/>
</g>
<!-- 6620409232 -->
<g id="node64" class="node">
<title>6620409232</title>
<ellipse fill="none" stroke="black" cx="1345.66" cy="-80" rx="68.04" ry="18"/>
<text text-anchor="middle" x="1345.66" y="-74.38" font-family="Times,serif" font-size="15.00">suspend term</text>
</g>
<!-- 6620409936&#45;&#45;6620409232 -->
<g id="edge59" class="edge">
<title>6620409936&#45;&#45;6620409232</title>
<path fill="none" stroke="black" d="M996.98,-103.88C1066.52,-99.1 1199.56,-89.96 1279.38,-84.48"/>
</g>
<!-- 6620411664 -->
<g id="node68" class="node">
<title>6620411664</title>
<ellipse fill="black" stroke="black" cx="271.19" cy="-249" rx="2.7" ry="2.7"/>
</g>
<!-- 6620302544&#45;&#45;6620411664 -->
<g id="edge66" class="edge">
<title>6620302544&#45;&#45;6620411664</title>
<path fill="none" stroke="black" d="M143.47,-226.52C182.74,-233.48 254.91,-246.29 268.1,-248.63"/>
</g>
<!-- 6620411600 -->
<g id="node69" class="node">
<title>6620411600</title>
<ellipse fill="none" stroke="black" cx="271.19" cy="-210" rx="91.19" ry="18"/>
<text text-anchor="middle" x="271.19" y="-204.38" font-family="Times,serif" font-size="15.00">phased application</text>
</g>
<!-- 6620302544&#45;&#45;6620411600 -->
<g id="edge67" class="edge">
<title>6620302544&#45;&#45;6620411600</title>
<path fill="none" stroke="black" d="M144.16,-219.94C155.98,-219.01 170.66,-217.85 185.8,-216.65"/>
</g>
<!-- 6620413456 -->
<g id="node70" class="node">
<title>6620413456</title>
<ellipse fill="none" stroke="black" cx="271.19" cy="-156" rx="54.36" ry="18"/>
<text text-anchor="middle" x="271.19" y="-150.38" font-family="Times,serif" font-size="15.00">close case</text>
</g>
<!-- 6620302544&#45;&#45;6620413456 -->
<g id="edge68" class="edge">
<title>6620302544&#45;&#45;6620413456</title>
<path fill="none" stroke="black" d="M140.13,-212.4C165.6,-201.36 207.7,-183.1 237.08,-170.36"/>
</g>
</g>
</svg>
