<?xml version="1.0" encoding="UTF-8" standalone="no"?>
<!DOCTYPE svg PUBLIC "-//W3C//DTD SVG 1.1//EN"
 "http://www.w3.org/Graphics/SVG/1.1/DTD/svg11.dtd">
<!-- Generated by graphviz version 8.0.5 (20230430.1635)
 -->
<!-- Title: pt Pages: 1 -->
<svg width="3400pt" height="581pt"
 viewBox="0.00 0.00 3400.20 581.00" xmlns="http://www.w3.org/2000/svg" xmlns:xlink="http://www.w3.org/1999/xlink">
<g id="graph0" class="graph" transform="scale(1 1) rotate(0) translate(4 577)">
<title>pt</title>
<polygon fill="white" stroke="none" points="-4,4 -4,-577 3396.2,-577 3396.2,4 -4,4"/>
<!-- 6623821072 -->
<g id="node1" class="node">
<title>6623821072</title>
<ellipse fill="none" stroke="black" cx="27" cy="-342" rx="27" ry="18"/>
<text text-anchor="middle" x="27" y="-336.38" font-family="Times,serif" font-size="15.00">seq</text>
</g>
<!-- 6623805904 -->
<g id="node2" class="node">
<title>6623805904</title>
<ellipse fill="none" stroke="black" cx="239.06" cy="-396" rx="149.06" ry="18"/>
<text text-anchor="middle" x="239.06" y="-390.38" font-family="Times,serif" font-size="15.00">register submission date request</text>
</g>
<!-- 6623821072&#45;&#45;6623805904 -->
<g id="edge1" class="edge">
<title>6623821072&#45;&#45;6623805904</title>
<path fill="none" stroke="black" d="M52.51,-348.3C82.05,-355.9 132.85,-368.95 173.83,-379.49"/>
</g>
<!-- 6623816848 -->
<g id="node3" class="node">
<title>6623816848</title>
<ellipse fill="none" stroke="black" cx="239.06" cy="-342" rx="27" ry="18"/>
<text text-anchor="middle" x="239.06" y="-336.38" font-family="Times,serif" font-size="15.00">xor</text>
</g>
<!-- 6623821072&#45;&#45;6623816848 -->
<g id="edge55" class="edge">
<title>6623821072&#45;&#45;6623816848</title>
<path fill="none" stroke="black" d="M54.18,-342C94.54,-342 171.52,-342 211.89,-342"/>
</g>
<!-- 6623660624 -->
<g id="node57" class="node">
<title>6623660624</title>
<ellipse fill="none" stroke="black" cx="239.06" cy="-172" rx="27" ry="18"/>
<text text-anchor="middle" x="239.06" y="-166.38" font-family="Times,serif" font-size="15.00">xor</text>
</g>
<!-- 6623821072&#45;&#45;6623660624 -->
<g id="edge61" class="edge">
<title>6623821072&#45;&#45;6623660624</title>
<path fill="none" stroke="black" d="M44.84,-328.38C84.17,-296.54 181.74,-217.58 221.15,-185.69"/>
</g>
<!-- 6623673232 -->
<g id="node4" class="node">
<title>6623673232</title>
<ellipse fill="black" stroke="black" cx="451.13" cy="-381" rx="2.7" ry="2.7"/>
</g>
<!-- 6623816848&#45;&#45;6623673232 -->
<g id="edge2" class="edge">
<title>6623816848&#45;&#45;6623673232</title>
<path fill="none" stroke="black" d="M265.4,-346.7C317.35,-356.35 432.37,-377.7 448.29,-380.66"/>
</g>
<!-- 6623673808 -->
<g id="node5" class="node">
<title>6623673808</title>
<ellipse fill="none" stroke="black" cx="451.13" cy="-342" rx="27" ry="18"/>
<text text-anchor="middle" x="451.13" y="-336.38" font-family="Times,serif" font-size="15.00">seq</text>
</g>
<!-- 6623816848&#45;&#45;6623673808 -->
<g id="edge54" class="edge">
<title>6623816848&#45;&#45;6623673808</title>
<path fill="none" stroke="black" d="M266.24,-342C306.61,-342 383.59,-342 423.95,-342"/>
</g>
<!-- 6623672656 -->
<g id="node6" class="node">
<title>6623672656</title>
<ellipse fill="none" stroke="black" cx="670.56" cy="-531" rx="108.55" ry="18"/>
<text text-anchor="middle" x="670.56" y="-525.38" font-family="Times,serif" font-size="15.00">OLO messaging active</text>
</g>
<!-- 6623673808&#45;&#45;6623672656 -->
<g id="edge3" class="edge">
<title>6623673808&#45;&#45;6623672656</title>
<path fill="none" stroke="black" d="M468.47,-356.21C507.48,-390.12 605.99,-475.74 648.97,-513.1"/>
</g>
<!-- 6623816144 -->
<g id="node7" class="node">
<title>6623816144</title>
<ellipse fill="none" stroke="black" cx="670.56" cy="-477" rx="124.86" ry="18"/>
<text text-anchor="middle" x="670.56" y="-471.38" font-family="Times,serif" font-size="15.00">phase application received</text>
</g>
<!-- 6623673808&#45;&#45;6623816144 -->
<g id="edge4" class="edge">
<title>6623673808&#45;&#45;6623816144</title>
<path fill="none" stroke="black" d="M471.42,-353.98C509.78,-377.79 595.76,-431.18 640.8,-459.14"/>
</g>
<!-- 6623671120 -->
<g id="node8" class="node">
<title>6623671120</title>
<ellipse fill="none" stroke="black" cx="670.56" cy="-423" rx="27" ry="18"/>
<text text-anchor="middle" x="670.56" y="-417.38" font-family="Times,serif" font-size="15.00">xor</text>
</g>
<!-- 6623673808&#45;&#45;6623671120 -->
<g id="edge9" class="edge">
<title>6623673808&#45;&#45;6623671120</title>
<path fill="none" stroke="black" d="M475.4,-350.67C517.25,-366.26 604.73,-398.85 646.46,-414.39"/>
</g>
<!-- 6623671632 -->
<g id="node13" class="node">
<title>6623671632</title>
<ellipse fill="none" stroke="black" cx="670.56" cy="-369" rx="27" ry="18"/>
<text text-anchor="middle" x="670.56" y="-363.38" font-family="Times,serif" font-size="15.00">and</text>
</g>
<!-- 6623673808&#45;&#45;6623671632 -->
<g id="edge40" class="edge">
<title>6623673808&#45;&#45;6623671632</title>
<path fill="none" stroke="black" d="M477.92,-345.2C519.77,-350.4 601.97,-360.61 643.8,-365.8"/>
</g>
<!-- 6623669584 -->
<g id="node44" class="node">
<title>6623669584</title>
<ellipse fill="none" stroke="black" cx="670.56" cy="-315" rx="27" ry="18"/>
<text text-anchor="middle" x="670.56" y="-309.38" font-family="Times,serif" font-size="15.00">and</text>
</g>
<!-- 6623673808&#45;&#45;6623669584 -->
<g id="edge49" class="edge">
<title>6623673808&#45;&#45;6623669584</title>
<path fill="none" stroke="black" d="M477.92,-338.8C519.77,-333.6 601.97,-323.39 643.8,-318.2"/>
</g>
<!-- 6623659984 -->
<g id="node53" class="node">
<title>6623659984</title>
<ellipse fill="none" stroke="black" cx="670.56" cy="-261" rx="95.93" ry="18"/>
<text text-anchor="middle" x="670.56" y="-255.38" font-family="Times,serif" font-size="15.00">phase archived case</text>
</g>
<!-- 6623673808&#45;&#45;6623659984 -->
<g id="edge50" class="edge">
<title>6623673808&#45;&#45;6623659984</title>
<path fill="none" stroke="black" d="M475.4,-333.33C511.22,-319.99 580.48,-294.18 625.86,-277.28"/>
</g>
<!-- 6623658192 -->
<g id="node54" class="node">
<title>6623658192</title>
<ellipse fill="none" stroke="black" cx="670.56" cy="-180" rx="27" ry="18"/>
<text text-anchor="middle" x="670.56" y="-174.38" font-family="Times,serif" font-size="15.00">and</text>
</g>
<!-- 6623673808&#45;&#45;6623658192 -->
<g id="edge53" class="edge">
<title>6623673808&#45;&#45;6623658192</title>
<path fill="none" stroke="black" d="M469.92,-328.74C510.8,-298.29 611.01,-223.62 651.82,-193.21"/>
</g>
<!-- 6623669904 -->
<g id="node9" class="node">
<title>6623669904</title>
<ellipse fill="none" stroke="black" cx="973.65" cy="-543" rx="110.66" ry="18"/>
<text text-anchor="middle" x="973.65" y="-537.38" font-family="Times,serif" font-size="15.00">reception through OLO</text>
</g>
<!-- 6623671120&#45;&#45;6623669904 -->
<g id="edge5" class="edge">
<title>6623671120&#45;&#45;6623669904</title>
<path fill="none" stroke="black" d="M694.19,-432.02C744.31,-452 865.36,-500.24 930.11,-526.05"/>
</g>
<!-- 6623668624 -->
<g id="node10" class="node">
<title>6623668624</title>
<ellipse fill="none" stroke="black" cx="973.65" cy="-489" rx="27" ry="18"/>
<text text-anchor="middle" x="973.65" y="-483.38" font-family="Times,serif" font-size="15.00">seq</text>
</g>
<!-- 6623671120&#45;&#45;6623668624 -->
<g id="edge8" class="edge">
<title>6623671120&#45;&#45;6623668624</title>
<path fill="none" stroke="black" d="M696.71,-428.51C753.53,-440.97 891.23,-471.15 947.78,-483.55"/>
</g>
<!-- 6623669392 -->
<g id="node11" class="node">
<title>6623669392</title>
<ellipse fill="none" stroke="black" cx="1324.09" cy="-555" rx="203.78" ry="18"/>
<text text-anchor="middle" x="1324.09" y="-549.38" font-family="Times,serif" font-size="15.00">no permit needed or only notification needed</text>
</g>
<!-- 6623668624&#45;&#45;6623669392 -->
<g id="edge6" class="edge">
<title>6623668624&#45;&#45;6623669392</title>
<path fill="none" stroke="black" d="M999.99,-493.8C1048.69,-503.03 1157.44,-523.62 1235.32,-538.37"/>
</g>
<!-- 6623669200 -->
<g id="node12" class="node">
<title>6623669200</title>
<ellipse fill="none" stroke="black" cx="1324.09" cy="-501" rx="112.76" ry="18"/>
<text text-anchor="middle" x="1324.09" y="-495.38" font-family="Times,serif" font-size="15.00">applicant is stakeholder</text>
</g>
<!-- 6623668624&#45;&#45;6623669200 -->
<g id="edge7" class="edge">
<title>6623668624&#45;&#45;6623669200</title>
<path fill="none" stroke="black" d="M1000.84,-489.9C1045.47,-491.44 1138.69,-494.65 1213.44,-497.22"/>
</g>
<!-- 6623660688 -->
<g id="node14" class="node">
<title>6623660688</title>
<ellipse fill="none" stroke="black" cx="973.65" cy="-423" rx="27" ry="18"/>
<text text-anchor="middle" x="973.65" y="-417.38" font-family="Times,serif" font-size="15.00">xor</text>
</g>
<!-- 6623671632&#45;&#45;6623660688 -->
<g id="edge12" class="edge">
<title>6623671632&#45;&#45;6623660688</title>
<path fill="none" stroke="black" d="M696.97,-373.56C753.82,-383.75 890.72,-408.31 947.41,-418.47"/>
</g>
<!-- 6623668944 -->
<g id="node17" class="node">
<title>6623668944</title>
<ellipse fill="none" stroke="black" cx="973.65" cy="-369" rx="27" ry="18"/>
<text text-anchor="middle" x="973.65" y="-363.38" font-family="Times,serif" font-size="15.00">seq</text>
</g>
<!-- 6623671632&#45;&#45;6623668944 -->
<g id="edge39" class="edge">
<title>6623671632&#45;&#45;6623668944</title>
<path fill="none" stroke="black" d="M698.01,-369C755.13,-369 889.4,-369 946.36,-369"/>
</g>
<!-- 6623670800 -->
<g id="node15" class="node">
<title>6623670800</title>
<ellipse fill="black" stroke="black" cx="1324.09" cy="-462" rx="2.7" ry="2.7"/>
</g>
<!-- 6623660688&#45;&#45;6623670800 -->
<g id="edge10" class="edge">
<title>6623660688&#45;&#45;6623670800</title>
<path fill="none" stroke="black" d="M1000.55,-425.9C1076.89,-434.44 1297.12,-459.09 1320.98,-461.76"/>
</g>
<!-- 6623660944 -->
<g id="node16" class="node">
<title>6623660944</title>
<ellipse fill="none" stroke="black" cx="1324.09" cy="-423" rx="140.65" ry="18"/>
<text text-anchor="middle" x="1324.09" y="-417.38" font-family="Times,serif" font-size="15.00">create procedure confirmation</text>
</g>
<!-- 6623660688&#45;&#45;6623660944 -->
<g id="edge11" class="edge">
<title>6623660688&#45;&#45;6623660944</title>
<path fill="none" stroke="black" d="M1001.12,-423C1039.95,-423 1115.12,-423 1183.06,-423"/>
</g>
<!-- 6623661008 -->
<g id="node18" class="node">
<title>6623661008</title>
<ellipse fill="none" stroke="black" cx="1324.09" cy="-369" rx="27" ry="18"/>
<text text-anchor="middle" x="1324.09" y="-363.38" font-family="Times,serif" font-size="15.00">xor</text>
</g>
<!-- 6623668944&#45;&#45;6623661008 -->
<g id="edge15" class="edge">
<title>6623668944&#45;&#45;6623661008</title>
<path fill="none" stroke="black" d="M1001.12,-369C1065.92,-369 1231.9,-369 1296.65,-369"/>
</g>
<!-- 6623661456 -->
<g id="node21" class="node">
<title>6623661456</title>
<ellipse fill="none" stroke="black" cx="1324.09" cy="-315" rx="27" ry="18"/>
<text text-anchor="middle" x="1324.09" y="-309.38" font-family="Times,serif" font-size="15.00">and</text>
</g>
<!-- 6623668944&#45;&#45;6623661456 -->
<g id="edge38" class="edge">
<title>6623668944&#45;&#45;6623661456</title>
<path fill="none" stroke="black" d="M1000.27,-365.03C1064.71,-355.04 1232.95,-328.97 1297.43,-318.98"/>
</g>
<!-- 6623660816 -->
<g id="node19" class="node">
<title>6623660816</title>
<ellipse fill="black" stroke="black" cx="1696.09" cy="-408" rx="2.7" ry="2.7"/>
</g>
<!-- 6623661008&#45;&#45;6623660816 -->
<g id="edge13" class="edge">
<title>6623661008&#45;&#45;6623660816</title>
<path fill="none" stroke="black" d="M1351.1,-371.74C1431.05,-380.17 1669.16,-405.27 1693.14,-407.79"/>
</g>
<!-- 6623661712 -->
<g id="node20" class="node">
<title>6623661712</title>
<ellipse fill="none" stroke="black" cx="1696.09" cy="-369" rx="42.79" ry="18"/>
<text text-anchor="middle" x="1696.09" y="-363.38" font-family="Times,serif" font-size="15.00">publish</text>
</g>
<!-- 6623661008&#45;&#45;6623661712 -->
<g id="edge14" class="edge">
<title>6623661008&#45;&#45;6623661712</title>
<path fill="none" stroke="black" d="M1351.4,-369C1414.72,-369 1576.01,-369 1652.98,-369"/>
</g>
<!-- 6623662736 -->
<g id="node22" class="node">
<title>6623662736</title>
<ellipse fill="none" stroke="black" cx="1696.09" cy="-315" rx="132.23" ry="18"/>
<text text-anchor="middle" x="1696.09" y="-309.38" font-family="Times,serif" font-size="15.00">registration date publication</text>
</g>
<!-- 6623661456&#45;&#45;6623662736 -->
<g id="edge16" class="edge">
<title>6623661456&#45;&#45;6623662736</title>
<path fill="none" stroke="black" d="M1351.4,-315C1395.32,-315 1486.37,-315 1563.73,-315"/>
</g>
<!-- 6623662608 -->
<g id="node23" class="node">
<title>6623662608</title>
<ellipse fill="none" stroke="black" cx="1696.09" cy="-261" rx="27" ry="18"/>
<text text-anchor="middle" x="1696.09" y="-255.38" font-family="Times,serif" font-size="15.00">seq</text>
</g>
<!-- 6623661456&#45;&#45;6623662608 -->
<g id="edge37" class="edge">
<title>6623661456&#45;&#45;6623662608</title>
<path fill="none" stroke="black" d="M1350.81,-311.25C1418.66,-301.34 1601.89,-274.6 1669.54,-264.73"/>
</g>
<!-- 6623662416 -->
<g id="node24" class="node">
<title>6623662416</title>
<ellipse fill="none" stroke="black" cx="1911.32" cy="-288" rx="47" ry="18"/>
<text text-anchor="middle" x="1911.32" y="-282.38" font-family="Times,serif" font-size="15.00">xor loop</text>
</g>
<!-- 6623662608&#45;&#45;6623662416 -->
<g id="edge33" class="edge">
<title>6623662608&#45;&#45;6623662416</title>
<path fill="none" stroke="black" d="M1722.81,-264.26C1758.37,-268.76 1823.05,-276.95 1866.35,-282.43"/>
</g>
<!-- 6623662352 -->
<g id="node41" class="node">
<title>6623662352</title>
<ellipse fill="none" stroke="black" cx="1911.32" cy="-234" rx="27" ry="18"/>
<text text-anchor="middle" x="1911.32" y="-228.38" font-family="Times,serif" font-size="15.00">xor</text>
</g>
<!-- 6623662608&#45;&#45;6623662352 -->
<g id="edge36" class="edge">
<title>6623662608&#45;&#45;6623662352</title>
<path fill="none" stroke="black" d="M1722.81,-257.74C1763.8,-252.55 1843.47,-242.47 1884.51,-237.27"/>
</g>
<!-- 6623662224 -->
<g id="node25" class="node">
<title>6623662224</title>
<ellipse fill="none" stroke="black" cx="2119.71" cy="-319" rx="27" ry="18"/>
<text text-anchor="middle" x="2119.71" y="-313.38" font-family="Times,serif" font-size="15.00">xor</text>
</g>
<!-- 6623662416&#45;&#45;6623662224 -->
<g id="edge31" class="edge">
<title>6623662416&#45;&#45;6623662224</title>
<path fill="none" stroke="black" d="M1955.59,-294.5C1997.2,-300.75 2058.69,-309.99 2093.07,-315.15"/>
</g>
<!-- 6623662096 -->
<g id="node40" class="node">
<title>6623662096</title>
<ellipse fill="black" stroke="black" cx="2119.71" cy="-280" rx="2.7" ry="2.7"/>
</g>
<!-- 6623662416&#45;&#45;6623662096 -->
<g id="edge32" class="edge">
<title>6623662416&#45;&#45;6623662096</title>
<path fill="none" stroke="black" d="M1958.38,-286.21C2013.98,-284.06 2101.9,-280.65 2116.59,-280.08"/>
</g>
<!-- 6623662032 -->
<g id="node26" class="node">
<title>6623662032</title>
<ellipse fill="none" stroke="black" cx="2308.1" cy="-373" rx="27" ry="18"/>
<text text-anchor="middle" x="2308.1" y="-367.38" font-family="Times,serif" font-size="15.00">seq</text>
</g>
<!-- 6623662224&#45;&#45;6623662032 -->
<g id="edge19" class="edge">
<title>6623662224&#45;&#45;6623662032</title>
<path fill="none" stroke="black" d="M2145.08,-326.06C2180.8,-336.41 2247,-355.59 2282.73,-365.94"/>
</g>
<!-- 6623661904 -->
<g id="node29" class="node">
<title>6623661904</title>
<ellipse fill="none" stroke="black" cx="2308.1" cy="-265" rx="27" ry="18"/>
<text text-anchor="middle" x="2308.1" y="-259.38" font-family="Times,serif" font-size="15.00">seq</text>
</g>
<!-- 6623662224&#45;&#45;6623661904 -->
<g id="edge30" class="edge">
<title>6623662224&#45;&#45;6623661904</title>
<path fill="none" stroke="black" d="M2145.08,-311.94C2180.8,-301.59 2247,-282.41 2282.73,-272.06"/>
</g>
<!-- 6623662800 -->
<g id="node27" class="node">
<title>6623662800</title>
<ellipse fill="none" stroke="black" cx="2547.52" cy="-427" rx="176.42" ry="18"/>
<text text-anchor="middle" x="2547.52" y="-421.38" font-family="Times,serif" font-size="15.00">enter senddate procedure confirmation</text>
</g>
<!-- 6623662032&#45;&#45;6623662800 -->
<g id="edge17" class="edge">
<title>6623662032&#45;&#45;6623662800</title>
<path fill="none" stroke="black" d="M2334.06,-378.68C2366.74,-386.11 2425.45,-399.46 2472.88,-410.25"/>
</g>
<!-- 6623662864 -->
<g id="node28" class="node">
<title>6623662864</title>
<ellipse fill="none" stroke="black" cx="2547.52" cy="-373" rx="134.33" ry="18"/>
<text text-anchor="middle" x="2547.52" y="-367.38" font-family="Times,serif" font-size="15.00">send procedure confirmation</text>
</g>
<!-- 6623662032&#45;&#45;6623662864 -->
<g id="edge18" class="edge">
<title>6623662032&#45;&#45;6623662864</title>
<path fill="none" stroke="black" d="M2335.42,-373C2354.98,-373 2383.29,-373 2412.87,-373"/>
</g>
<!-- 6623663696 -->
<g id="node30" class="node">
<title>6623663696</title>
<ellipse fill="none" stroke="black" cx="2547.52" cy="-319" rx="121.18" ry="18"/>
<text text-anchor="middle" x="2547.52" y="-313.38" font-family="Times,serif" font-size="15.00">send confirmation receipt</text>
</g>
<!-- 6623661904&#45;&#45;6623663696 -->
<g id="edge20" class="edge">
<title>6623661904&#45;&#45;6623663696</title>
<path fill="none" stroke="black" d="M2334.06,-270.68C2368.23,-278.45 2430.85,-292.69 2479.29,-303.71"/>
</g>
<!-- 6623663632 -->
<g id="node31" class="node">
<title>6623663632</title>
<ellipse fill="none" stroke="black" cx="2547.52" cy="-265" rx="27" ry="18"/>
<text text-anchor="middle" x="2547.52" y="-259.38" font-family="Times,serif" font-size="15.00">and</text>
</g>
<!-- 6623661904&#45;&#45;6623663632 -->
<g id="edge23" class="edge">
<title>6623661904&#45;&#45;6623663632</title>
<path fill="none" stroke="black" d="M2335.42,-265C2381.05,-265 2474.37,-265 2520.09,-265"/>
</g>
<!-- 6623663504 -->
<g id="node34" class="node">
<title>6623663504</title>
<ellipse fill="none" stroke="black" cx="2547.52" cy="-211" rx="27" ry="18"/>
<text text-anchor="middle" x="2547.52" y="-205.38" font-family="Times,serif" font-size="15.00">xor</text>
</g>
<!-- 6623661904&#45;&#45;6623663504 -->
<g id="edge28" class="edge">
<title>6623661904&#45;&#45;6623663504</title>
<path fill="none" stroke="black" d="M2334.06,-259.32C2379.66,-248.95 2475.93,-227.06 2521.54,-216.68"/>
</g>
<!-- 6623664720 -->
<g id="node39" class="node">
<title>6623664720</title>
<ellipse fill="none" stroke="black" cx="2547.52" cy="-157" rx="147.49" ry="18"/>
<text text-anchor="middle" x="2547.52" y="-151.38" font-family="Times,serif" font-size="15.00">regular procedure without MER</text>
</g>
<!-- 6623661904&#45;&#45;6623664720 -->
<g id="edge29" class="edge">
<title>6623661904&#45;&#45;6623664720</title>
<path fill="none" stroke="black" d="M2331.01,-255.03C2371.19,-236.76 2457.15,-197.66 2507.52,-174.74"/>
</g>
<!-- 6623663440 -->
<g id="node32" class="node">
<title>6623663440</title>
<ellipse fill="none" stroke="black" cx="2920.58" cy="-315" rx="160.64" ry="18"/>
<text text-anchor="middle" x="2920.58" y="-309.38" font-family="Times,serif" font-size="15.00">forward to the competent authority</text>
</g>
<!-- 6623663632&#45;&#45;6623663440 -->
<g id="edge21" class="edge">
<title>6623663632&#45;&#45;6623663440</title>
<path fill="none" stroke="black" d="M2574.32,-268.48C2623.46,-275.1 2732.96,-289.85 2815.55,-300.98"/>
</g>
<!-- 6623663312 -->
<g id="node33" class="node">
<title>6623663312</title>
<ellipse fill="none" stroke="black" cx="2920.58" cy="-261" rx="152.75" ry="18"/>
<text text-anchor="middle" x="2920.58" y="-255.38" font-family="Times,serif" font-size="15.00">enter senddate acknowledgement</text>
</g>
<!-- 6623663632&#45;&#45;6623663312 -->
<g id="edge22" class="edge">
<title>6623663632&#45;&#45;6623663312</title>
<path fill="none" stroke="black" d="M2574.91,-264.72C2615.31,-264.28 2695.48,-263.42 2768.35,-262.63"/>
</g>
<!-- 6623664528 -->
<g id="node35" class="node">
<title>6623664528</title>
<ellipse fill="black" stroke="black" cx="2920.58" cy="-215" rx="2.7" ry="2.7"/>
</g>
<!-- 6623663504&#45;&#45;6623664528 -->
<g id="edge24" class="edge">
<title>6623663504&#45;&#45;6623664528</title>
<path fill="none" stroke="black" d="M2574.91,-211.28C2655.38,-212.15 2893.64,-214.72 2917.63,-214.98"/>
</g>
<!-- 6623664400 -->
<g id="node36" class="node">
<title>6623664400</title>
<ellipse fill="none" stroke="black" cx="2920.58" cy="-176" rx="27" ry="18"/>
<text text-anchor="middle" x="2920.58" y="-170.38" font-family="Times,serif" font-size="15.00">seq</text>
</g>
<!-- 6623663504&#45;&#45;6623664400 -->
<g id="edge27" class="edge">
<title>6623663504&#45;&#45;6623664400</title>
<path fill="none" stroke="black" d="M2574.62,-208.54C2642.75,-202.11 2825.42,-184.88 2893.52,-178.46"/>
</g>
<!-- 6623666000 -->
<g id="node37" class="node">
<title>6623666000</title>
<ellipse fill="none" stroke="black" cx="3254.71" cy="-203" rx="137.49" ry="18"/>
<text text-anchor="middle" x="3254.71" y="-197.38" font-family="Times,serif" font-size="15.00">create subcases completeness</text>
</g>
<!-- 6623664400&#45;&#45;6623666000 -->
<g id="edge25" class="edge">
<title>6623664400&#45;&#45;6623666000</title>
<path fill="none" stroke="black" d="M2947.65,-178.12C2988.09,-181.41 3068.43,-187.94 3136.65,-193.48"/>
</g>
<!-- 6623665936 -->
<g id="node38" class="node">
<title>6623665936</title>
<ellipse fill="none" stroke="black" cx="3254.71" cy="-149" rx="132.76" ry="18"/>
<text text-anchor="middle" x="3254.71" y="-143.38" font-family="Times,serif" font-size="15.00">create publication document</text>
</g>
<!-- 6623664400&#45;&#45;6623665936 -->
<g id="edge26" class="edge">
<title>6623664400&#45;&#45;6623665936</title>
<path fill="none" stroke="black" d="M2947.65,-173.88C2988.71,-170.54 3070.87,-163.86 3139.74,-158.27"/>
</g>
<!-- 6624004176 -->
<g id="node42" class="node">
<title>6624004176</title>
<ellipse fill="black" stroke="black" cx="2119.71" cy="-242" rx="2.7" ry="2.7"/>
</g>
<!-- 6623662352&#45;&#45;6624004176 -->
<g id="edge34" class="edge">
<title>6623662352&#45;&#45;6624004176</title>
<path fill="none" stroke="black" d="M1938.46,-235.01C1989.66,-237 2099.65,-241.26 2116.52,-241.92"/>
</g>
<!-- 6624004112 -->
<g id="node43" class="node">
<title>6624004112</title>
<ellipse fill="none" stroke="black" cx="2119.71" cy="-203" rx="125.39" ry="18"/>
<text text-anchor="middle" x="2119.71" y="-197.38" font-family="Times,serif" font-size="15.00">inform BAG administrator</text>
</g>
<!-- 6623662352&#45;&#45;6624004112 -->
<g id="edge35" class="edge">
<title>6623662352&#45;&#45;6624004112</title>
<path fill="none" stroke="black" d="M1938.04,-230.14C1961.49,-226.61 1997.52,-221.2 2031.25,-216.14"/>
</g>
<!-- 6624004752 -->
<g id="node45" class="node">
<title>6624004752</title>
<ellipse fill="none" stroke="black" cx="973.65" cy="-315" rx="82.77" ry="18"/>
<text text-anchor="middle" x="973.65" y="-309.38" font-family="Times,serif" font-size="15.00">register deadline</text>
</g>
<!-- 6623669584&#45;&#45;6624004752 -->
<g id="edge41" class="edge">
<title>6623669584&#45;&#45;6624004752</title>
<path fill="none" stroke="black" d="M698.01,-315C740.63,-315 826.22,-315 890.58,-315"/>
</g>
<!-- 6624004688 -->
<g id="node46" class="node">
<title>6624004688</title>
<ellipse fill="none" stroke="black" cx="973.65" cy="-261" rx="99.08" ry="18"/>
<text text-anchor="middle" x="973.65" y="-255.38" font-family="Times,serif" font-size="15.00">terminate on request</text>
</g>
<!-- 6623669584&#45;&#45;6624004688 -->
<g id="edge42" class="edge">
<title>6623669584&#45;&#45;6624004688</title>
<path fill="none" stroke="black" d="M696.97,-310.44C741.7,-302.42 835.98,-285.51 901.76,-273.71"/>
</g>
<!-- 6624005584 -->
<g id="node47" class="node">
<title>6624005584</title>
<ellipse fill="none" stroke="black" cx="973.65" cy="-207" rx="27" ry="18"/>
<text text-anchor="middle" x="973.65" y="-201.38" font-family="Times,serif" font-size="15.00">seq</text>
</g>
<!-- 6623669584&#45;&#45;6624005584 -->
<g id="edge48" class="edge">
<title>6623669584&#45;&#45;6624005584</title>
<path fill="none" stroke="black" d="M694.68,-306.7C750.73,-286.6 893.32,-235.46 949.44,-215.32"/>
</g>
<!-- 6624006032 -->
<g id="node48" class="node">
<title>6624006032</title>
<ellipse fill="none" stroke="black" cx="1324.09" cy="-261" rx="178.53" ry="18"/>
<text text-anchor="middle" x="1324.09" y="-255.38" font-family="Times,serif" font-size="15.00">enter date termination request received</text>
</g>
<!-- 6624005584&#45;&#45;6624006032 -->
<g id="edge43" class="edge">
<title>6624005584&#45;&#45;6624006032</title>
<path fill="none" stroke="black" d="M1000.27,-210.97C1046.87,-218.19 1147.76,-233.83 1224.43,-245.71"/>
</g>
<!-- 6624005904 -->
<g id="node49" class="node">
<title>6624005904</title>
<ellipse fill="none" stroke="black" cx="1324.09" cy="-207" rx="184.31" ry="18"/>
<text text-anchor="middle" x="1324.09" y="-201.38" font-family="Times,serif" font-size="15.00">phase procedure prematurely terminated</text>
</g>
<!-- 6624005584&#45;&#45;6624005904 -->
<g id="edge44" class="edge">
<title>6624005584&#45;&#45;6624005904</title>
<path fill="none" stroke="black" d="M1001.12,-207C1031.77,-207 1085.07,-207 1139.57,-207"/>
</g>
<!-- 6624006736 -->
<g id="node50" class="node">
<title>6624006736</title>
<ellipse fill="none" stroke="black" cx="1324.09" cy="-153" rx="124.86" ry="18"/>
<text text-anchor="middle" x="1324.09" y="-147.38" font-family="Times,serif" font-size="15.00">message terminate request</text>
</g>
<!-- 6624005584&#45;&#45;6624006736 -->
<g id="edge45" class="edge">
<title>6624005584&#45;&#45;6624006736</title>
<path fill="none" stroke="black" d="M1000.27,-203.03C1049.54,-195.39 1159.5,-178.35 1237.36,-166.29"/>
</g>
<!-- 6623659792 -->
<g id="node51" class="node">
<title>6623659792</title>
<ellipse fill="none" stroke="black" cx="1324.09" cy="-99" rx="159.06" ry="18"/>
<text text-anchor="middle" x="1324.09" y="-93.38" font-family="Times,serif" font-size="15.00">enter senddate request termination</text>
</g>
<!-- 6624005584&#45;&#45;6623659792 -->
<g id="edge46" class="edge">
<title>6624005584&#45;&#45;6623659792</title>
<path fill="none" stroke="black" d="M998.6,-199.58C1053.64,-182.52 1190.35,-140.14 1267.62,-116.19"/>
</g>
<!-- 6623666960 -->
<g id="node52" class="node">
<title>6623666960</title>
<ellipse fill="none" stroke="black" cx="1324.09" cy="-45" rx="115.39" ry="18"/>
<text text-anchor="middle" x="1324.09" y="-39.38" font-family="Times,serif" font-size="15.00">phase procedure aborted</text>
</g>
<!-- 6624005584&#45;&#45;6623666960 -->
<g id="edge47" class="edge">
<title>6624005584&#45;&#45;6623666960</title>
<path fill="none" stroke="black" d="M996.44,-196.87C1054.4,-169.92 1212.84,-96.26 1285.62,-62.42"/>
</g>
<!-- 6623821712 -->
<g id="node55" class="node">
<title>6623821712</title>
<ellipse fill="none" stroke="black" cx="973.65" cy="-153" rx="92.77" ry="18"/>
<text text-anchor="middle" x="973.65" y="-147.38" font-family="Times,serif" font-size="15.00">phase case handled</text>
</g>
<!-- 6623658192&#45;&#45;6623821712 -->
<g id="edge51" class="edge">
<title>6623658192&#45;&#45;6623821712</title>
<path fill="none" stroke="black" d="M697.75,-177.65C739.89,-173.87 824.5,-166.29 888.78,-160.52"/>
</g>
<!-- 6623810448 -->
<g id="node56" class="node">
<title>6623810448</title>
<ellipse fill="none" stroke="black" cx="973.65" cy="-99" rx="54.36" ry="18"/>
<text text-anchor="middle" x="973.65" y="-93.38" font-family="Times,serif" font-size="15.00">close case</text>
</g>
<!-- 6623658192&#45;&#45;6623810448 -->
<g id="edge52" class="edge">
<title>6623658192&#45;&#45;6623810448</title>
<path fill="none" stroke="black" d="M696.2,-173.37C747.6,-159.54 866.78,-127.48 930.57,-110.32"/>
</g>
<!-- 6623815248 -->
<g id="node58" class="node">
<title>6623815248</title>
<ellipse fill="black" stroke="black" cx="451.13" cy="-172" rx="2.7" ry="2.7"/>
</g>
<!-- 6623660624&#45;&#45;6623815248 -->
<g id="edge56" class="edge">
<title>6623660624&#45;&#45;6623815248</title>
<path fill="none" stroke="black" d="M266.24,-172C318.6,-172 432.54,-172 448.31,-172"/>
</g>
<!-- 6623809680 -->
<g id="node59" class="node">
<title>6623809680</title>
<ellipse fill="none" stroke="black" cx="451.13" cy="-99" rx="27" ry="18"/>
<text text-anchor="middle" x="451.13" y="-93.38" font-family="Times,serif" font-size="15.00">seq</text>
</g>
<!-- 6623660624&#45;&#45;6623809680 -->
<g id="edge60" class="edge">
<title>6623660624&#45;&#45;6623809680</title>
<path fill="none" stroke="black" d="M263.35,-163.91C303.73,-149.88 386.29,-121.18 426.74,-107.13"/>
</g>
<!-- 6623807824 -->
<g id="node60" class="node">
<title>6623807824</title>
<ellipse fill="none" stroke="black" cx="670.56" cy="-126" rx="131.18" ry="18"/>
<text text-anchor="middle" x="670.56" y="-120.38" font-family="Times,serif" font-size="15.00">treat subcases completeness</text>
</g>
<!-- 6623809680&#45;&#45;6623807824 -->
<g id="edge57" class="edge">
<title>6623809680&#45;&#45;6623807824</title>
<path fill="none" stroke="black" d="M477.92,-102.2C501.32,-105.11 537.34,-109.58 571.86,-113.87"/>
</g>
<!-- 6623807952 -->
<g id="node61" class="node">
<title>6623807952</title>
<ellipse fill="none" stroke="black" cx="670.56" cy="-72" rx="156.43" ry="18"/>
<text text-anchor="middle" x="670.56" y="-66.38" font-family="Times,serif" font-size="15.00">subcases completeness completed</text>
</g>
<!-- 6623809680&#45;&#45;6623807952 -->
<g id="edge58" class="edge">
<title>6623809680&#45;&#45;6623807952</title>
<path fill="none" stroke="black" d="M477.92,-95.8C499.13,-93.16 530.7,-89.24 562.12,-85.34"/>
</g>
<!-- 6623811024 -->
<g id="node62" class="node">
<title>6623811024</title>
<ellipse fill="none" stroke="black" cx="670.56" cy="-18" rx="86.46" ry="18"/>
<text text-anchor="middle" x="670.56" y="-12.38" font-family="Times,serif" font-size="15.00">procedure change</text>
</g>
<!-- 6623809680&#45;&#45;6623811024 -->
<g id="edge59" class="edge">
<title>6623809680&#45;&#45;6623811024</title>
<path fill="none" stroke="black" d="M475.4,-90.33C511.44,-76.9 581.33,-50.87 626.69,-33.97"/>
</g>
</g>
</svg>
