<?xml version="1.0" encoding="UTF-8" standalone="no"?>
<!DOCTYPE svg PUBLIC "-//W3C//DTD SVG 1.1//EN"
 "http://www.w3.org/Graphics/SVG/1.1/DTD/svg11.dtd">
<!-- Generated by graphviz version 8.0.5 (20230430.1635)
 -->
<!-- Title: pt Pages: 1 -->
<svg width="2539pt" height="854pt"
 viewBox="0.00 0.00 2538.81 854.00" xmlns="http://www.w3.org/2000/svg" xmlns:xlink="http://www.w3.org/1999/xlink">
<g id="graph0" class="graph" transform="scale(1 1) rotate(0) translate(4 850)">
<title>pt</title>
<polygon fill="white" stroke="none" points="-4,4 -4,-850 2534.81,-850 2534.81,4 -4,4"/>
<!-- 6622370256 -->
<g id="node1" class="node">
<title>6622370256</title>
<ellipse fill="none" stroke="black" cx="27" cy="-301" rx="27" ry="18"/>
<text text-anchor="middle" x="27" y="-295.38" font-family="Times,serif" font-size="15.00">seq</text>
</g>
<!-- 6622366160 -->
<g id="node2" class="node">
<title>6622366160</title>
<ellipse fill="none" stroke="black" cx="117" cy="-504" rx="27" ry="18"/>
<text text-anchor="middle" x="117" y="-498.38" font-family="Times,serif" font-size="15.00">xor</text>
</g>
<!-- 6622370256&#45;&#45;6622366160 -->
<g id="edge37" class="edge">
<title>6622370256&#45;&#45;6622366160</title>
<path fill="none" stroke="black" d="M35.5,-318.31C52.09,-356.56 91.71,-447.97 108.39,-486.45"/>
</g>
<!-- 6622345872 -->
<g id="node39" class="node">
<title>6622345872</title>
<ellipse fill="none" stroke="black" cx="117" cy="-240" rx="27" ry="18"/>
<text text-anchor="middle" x="117" y="-234.38" font-family="Times,serif" font-size="15.00">xor</text>
</g>
<!-- 6622370256&#45;&#45;6622345872 -->
<g id="edge45" class="edge">
<title>6622370256&#45;&#45;6622345872</title>
<path fill="none" stroke="black" d="M46.23,-288.36C61.24,-277.96 82.41,-263.28 97.49,-252.83"/>
</g>
<!-- 6622370448 -->
<g id="node3" class="node">
<title>6622370448</title>
<ellipse fill="black" stroke="black" cx="303.81" cy="-651" rx="2.7" ry="2.7"/>
</g>
<!-- 6622366160&#45;&#45;6622370448 -->
<g id="edge1" class="edge">
<title>6622366160&#45;&#45;6622370448</title>
<path fill="none" stroke="black" d="M135.06,-517.57C177.59,-551.4 286.03,-637.65 301.07,-649.62"/>
</g>
<!-- 6622371920 -->
<g id="node4" class="node">
<title>6622371920</title>
<ellipse fill="none" stroke="black" cx="303.81" cy="-612" rx="27" ry="18"/>
<text text-anchor="middle" x="303.81" y="-606.38" font-family="Times,serif" font-size="15.00">seq</text>
</g>
<!-- 6622366160&#45;&#45;6622371920 -->
<g id="edge9" class="edge">
<title>6622366160&#45;&#45;6622371920</title>
<path fill="none" stroke="black" d="M138.13,-515.76C173.68,-536.54 247.17,-579.49 282.71,-600.25"/>
</g>
<!-- 6622376016 -->
<g id="node12" class="node">
<title>6622376016</title>
<ellipse fill="none" stroke="black" cx="303.81" cy="-369" rx="27" ry="18"/>
<text text-anchor="middle" x="303.81" y="-363.38" font-family="Times,serif" font-size="15.00">seq</text>
</g>
<!-- 6622366160&#45;&#45;6622376016 -->
<g id="edge36" class="edge">
<title>6622366160&#45;&#45;6622376016</title>
<path fill="none" stroke="black" d="M136.06,-490.81C171.39,-465 249.29,-408.1 284.68,-382.24"/>
</g>
<!-- 6622376656 -->
<g id="node5" class="node">
<title>6622376656</title>
<ellipse fill="none" stroke="black" cx="647.94" cy="-828" rx="139.07" ry="18"/>
<text text-anchor="middle" x="647.94" y="-822.38" font-family="Times,serif" font-size="15.00">initiative competent authority</text>
</g>
<!-- 6622371920&#45;&#45;6622376656 -->
<g id="edge2" class="edge">
<title>6622371920&#45;&#45;6622376656</title>
<path fill="none" stroke="black" d="M324.19,-624.23C381.58,-660.47 550.89,-767.36 618.54,-810.07"/>
</g>
<!-- 6622377424 -->
<g id="node6" class="node">
<title>6622377424</title>
<ellipse fill="none" stroke="black" cx="647.94" cy="-774" rx="178.53" ry="18"/>
<text text-anchor="middle" x="647.94" y="-768.38" font-family="Times,serif" font-size="15.00">enter date termination request received</text>
</g>
<!-- 6622371920&#45;&#45;6622377424 -->
<g id="edge3" class="edge">
<title>6622371920&#45;&#45;6622377424</title>
<path fill="none" stroke="black" d="M326.47,-622.26C383.24,-649.14 536.92,-721.91 608.85,-755.96"/>
</g>
<!-- 6622379920 -->
<g id="node7" class="node">
<title>6622379920</title>
<ellipse fill="none" stroke="black" cx="647.94" cy="-720" rx="184.31" ry="18"/>
<text text-anchor="middle" x="647.94" y="-714.38" font-family="Times,serif" font-size="15.00">phase procedure prematurely terminated</text>
</g>
<!-- 6622371920&#45;&#45;6622379920 -->
<g id="edge4" class="edge">
<title>6622371920&#45;&#45;6622379920</title>
<path fill="none" stroke="black" d="M328.87,-619.59C383.02,-636.69 515.64,-678.55 591.43,-702.48"/>
</g>
<!-- 6622377936 -->
<g id="node8" class="node">
<title>6622377936</title>
<ellipse fill="none" stroke="black" cx="647.94" cy="-666" rx="153.27" ry="18"/>
<text text-anchor="middle" x="647.94" y="-660.38" font-family="Times,serif" font-size="15.00">create message terminate request</text>
</g>
<!-- 6622371920&#45;&#45;6622377936 -->
<g id="edge5" class="edge">
<title>6622371920&#45;&#45;6622377936</title>
<path fill="none" stroke="black" d="M330.53,-616.06C377.38,-623.45 478.77,-639.46 554.22,-651.37"/>
</g>
<!-- 6622364432 -->
<g id="node9" class="node">
<title>6622364432</title>
<ellipse fill="none" stroke="black" cx="647.94" cy="-612" rx="159.06" ry="18"/>
<text text-anchor="middle" x="647.94" y="-606.38" font-family="Times,serif" font-size="15.00">enter senddate request termination</text>
</g>
<!-- 6622371920&#45;&#45;6622364432 -->
<g id="edge6" class="edge">
<title>6622371920&#45;&#45;6622364432</title>
<path fill="none" stroke="black" d="M331.09,-612C365.36,-612 428.1,-612 488.68,-612"/>
</g>
<!-- 6622373840 -->
<g id="node10" class="node">
<title>6622373840</title>
<ellipse fill="none" stroke="black" cx="647.94" cy="-558" rx="124.86" ry="18"/>
<text text-anchor="middle" x="647.94" y="-552.38" font-family="Times,serif" font-size="15.00">message terminate request</text>
</g>
<!-- 6622371920&#45;&#45;6622373840 -->
<g id="edge7" class="edge">
<title>6622371920&#45;&#45;6622373840</title>
<path fill="none" stroke="black" d="M330.53,-607.94C379.01,-600.29 485.9,-583.42 562.01,-571.4"/>
</g>
<!-- 6622377552 -->
<g id="node11" class="node">
<title>6622377552</title>
<ellipse fill="none" stroke="black" cx="647.94" cy="-504" rx="115.39" ry="18"/>
<text text-anchor="middle" x="647.94" y="-498.38" font-family="Times,serif" font-size="15.00">phase procedure aborted</text>
</g>
<!-- 6622371920&#45;&#45;6622377552 -->
<g id="edge8" class="edge">
<title>6622371920&#45;&#45;6622377552</title>
<path fill="none" stroke="black" d="M328.87,-604.41C383.85,-587.05 519.75,-544.15 594.9,-520.43"/>
</g>
<!-- 6622376464 -->
<g id="node13" class="node">
<title>6622376464</title>
<ellipse fill="none" stroke="black" cx="647.94" cy="-450" rx="27" ry="18"/>
<text text-anchor="middle" x="647.94" y="-444.38" font-family="Times,serif" font-size="15.00">xor</text>
</g>
<!-- 6622376016&#45;&#45;6622376464 -->
<g id="edge31" class="edge">
<title>6622376016&#45;&#45;6622376464</title>
<path fill="none" stroke="black" d="M329.69,-374.89C392.89,-389.85 559.05,-429.19 622.15,-444.13"/>
</g>
<!-- 6622340880 -->
<g id="node35" class="node">
<title>6622340880</title>
<ellipse fill="none" stroke="black" cx="647.94" cy="-396" rx="95.93" ry="18"/>
<text text-anchor="middle" x="647.94" y="-390.38" font-family="Times,serif" font-size="15.00">phase archived case</text>
</g>
<!-- 6622376016&#45;&#45;6622340880 -->
<g id="edge32" class="edge">
<title>6622376016&#45;&#45;6622340880</title>
<path fill="none" stroke="black" d="M331.09,-371.07C379.13,-374.86 483.11,-383.07 558.68,-389.04"/>
</g>
<!-- 6622345232 -->
<g id="node36" class="node">
<title>6622345232</title>
<ellipse fill="none" stroke="black" cx="647.94" cy="-342" rx="131.7" ry="18"/>
<text text-anchor="middle" x="647.94" y="-336.38" font-family="Times,serif" font-size="15.00">stop all running subcases 2b</text>
</g>
<!-- 6622376016&#45;&#45;6622345232 -->
<g id="edge33" class="edge">
<title>6622376016&#45;&#45;6622345232</title>
<path fill="none" stroke="black" d="M331.09,-366.93C373.81,-363.56 460.77,-356.69 532.64,-351.02"/>
</g>
<!-- 6622332560 -->
<g id="node37" class="node">
<title>6622332560</title>
<ellipse fill="none" stroke="black" cx="647.94" cy="-288" rx="92.77" ry="18"/>
<text text-anchor="middle" x="647.94" y="-282.38" font-family="Times,serif" font-size="15.00">phase case handled</text>
</g>
<!-- 6622376016&#45;&#45;6622332560 -->
<g id="edge34" class="edge">
<title>6622376016&#45;&#45;6622332560</title>
<path fill="none" stroke="black" d="M329.69,-363.11C383.43,-350.39 511.63,-320.03 587.59,-302.05"/>
</g>
<!-- 6622337424 -->
<g id="node38" class="node">
<title>6622337424</title>
<ellipse fill="none" stroke="black" cx="647.94" cy="-234" rx="54.36" ry="18"/>
<text text-anchor="middle" x="647.94" y="-228.38" font-family="Times,serif" font-size="15.00">close case</text>
</g>
<!-- 6622376016&#45;&#45;6622337424 -->
<g id="edge35" class="edge">
<title>6622376016&#45;&#45;6622337424</title>
<path fill="none" stroke="black" d="M327.52,-360.04C385.95,-336.98 541.78,-275.49 611.9,-247.83"/>
</g>
<!-- 6622379728 -->
<g id="node14" class="node">
<title>6622379728</title>
<ellipse fill="black" stroke="black" cx="895.25" cy="-469" rx="2.7" ry="2.7"/>
</g>
<!-- 6622376464&#45;&#45;6622379728 -->
<g id="edge10" class="edge">
<title>6622376464&#45;&#45;6622379728</title>
<path fill="none" stroke="black" d="M675.19,-452.03C734.27,-456.61 873.97,-467.43 892.26,-468.85"/>
</g>
<!-- 6622365072 -->
<g id="node15" class="node">
<title>6622365072</title>
<ellipse fill="none" stroke="black" cx="895.25" cy="-430" rx="27" ry="18"/>
<text text-anchor="middle" x="895.25" y="-424.38" font-family="Times,serif" font-size="15.00">seq</text>
</g>
<!-- 6622376464&#45;&#45;6622365072 -->
<g id="edge30" class="edge">
<title>6622376464&#45;&#45;6622365072</title>
<path fill="none" stroke="black" d="M675.19,-447.86C722.41,-444.01 821.11,-435.96 868.19,-432.12"/>
</g>
<!-- 6622371664 -->
<g id="node16" class="node">
<title>6622371664</title>
<ellipse fill="none" stroke="black" cx="1107.31" cy="-511" rx="149.06" ry="18"/>
<text text-anchor="middle" x="1107.31" y="-505.38" font-family="Times,serif" font-size="15.00">register submission date request</text>
</g>
<!-- 6622365072&#45;&#45;6622371664 -->
<g id="edge11" class="edge">
<title>6622365072&#45;&#45;6622371664</title>
<path fill="none" stroke="black" d="M919.13,-438.82C953.05,-451.9 1017.37,-476.7 1061.03,-493.54"/>
</g>
<!-- 6622369744 -->
<g id="node17" class="node">
<title>6622369744</title>
<ellipse fill="none" stroke="black" cx="1107.31" cy="-457" rx="27" ry="18"/>
<text text-anchor="middle" x="1107.31" y="-451.38" font-family="Times,serif" font-size="15.00">xor</text>
</g>
<!-- 6622365072&#45;&#45;6622369744 -->
<g id="edge17" class="edge">
<title>6622365072&#45;&#45;6622369744</title>
<path fill="none" stroke="black" d="M922.01,-433.31C962.33,-438.49 1039.9,-448.46 1080.35,-453.66"/>
</g>
<!-- 6622378704 -->
<g id="node23" class="node">
<title>6622378704</title>
<ellipse fill="none" stroke="black" cx="1107.31" cy="-403" rx="124.86" ry="18"/>
<text text-anchor="middle" x="1107.31" y="-397.38" font-family="Times,serif" font-size="15.00">phase application received</text>
</g>
<!-- 6622365072&#45;&#45;6622378704 -->
<g id="edge18" class="edge">
<title>6622365072&#45;&#45;6622378704</title>
<path fill="none" stroke="black" d="M922.01,-426.69C944.8,-423.76 979.49,-419.3 1012.65,-415.04"/>
</g>
<!-- 6622374032 -->
<g id="node24" class="node">
<title>6622374032</title>
<ellipse fill="none" stroke="black" cx="1107.31" cy="-335" rx="47" ry="18"/>
<text text-anchor="middle" x="1107.31" y="-329.38" font-family="Times,serif" font-size="15.00">xor loop</text>
</g>
<!-- 6622365072&#45;&#45;6622374032 -->
<g id="edge29" class="edge">
<title>6622365072&#45;&#45;6622374032</title>
<path fill="none" stroke="black" d="M918.33,-420.01C956.04,-402.96 1032.92,-368.19 1075.76,-348.82"/>
</g>
<!-- 6622366736 -->
<g id="node18" class="node">
<title>6622366736</title>
<ellipse fill="none" stroke="black" cx="1423.56" cy="-538" rx="110.66" ry="18"/>
<text text-anchor="middle" x="1423.56" y="-532.38" font-family="Times,serif" font-size="15.00">reception through OLO</text>
</g>
<!-- 6622369744&#45;&#45;6622366736 -->
<g id="edge12" class="edge">
<title>6622369744&#45;&#45;6622366736</title>
<path fill="none" stroke="black" d="M1132.97,-463.36C1182.09,-476.02 1293.4,-504.71 1362.82,-522.6"/>
</g>
<!-- 6622369360 -->
<g id="node19" class="node">
<title>6622369360</title>
<ellipse fill="none" stroke="black" cx="1423.56" cy="-484" rx="131.18" ry="18"/>
<text text-anchor="middle" x="1423.56" y="-478.38" font-family="Times,serif" font-size="15.00">treat subcases completeness</text>
</g>
<!-- 6622369744&#45;&#45;6622369360 -->
<g id="edge13" class="edge">
<title>6622369744&#45;&#45;6622369360</title>
<path fill="none" stroke="black" d="M1134.57,-459.26C1173.21,-462.58 1247.72,-468.98 1311.27,-474.44"/>
</g>
<!-- 6622365264 -->
<g id="node20" class="node">
<title>6622365264</title>
<ellipse fill="none" stroke="black" cx="1423.56" cy="-430" rx="27" ry="18"/>
<text text-anchor="middle" x="1423.56" y="-424.38" font-family="Times,serif" font-size="15.00">seq</text>
</g>
<!-- 6622369744&#45;&#45;6622365264 -->
<g id="edge16" class="edge">
<title>6622369744&#45;&#45;6622365264</title>
<path fill="none" stroke="black" d="M1134.57,-454.74C1193.86,-449.65 1337.58,-437.3 1396.6,-432.23"/>
</g>
<!-- 6622366352 -->
<g id="node21" class="node">
<title>6622366352</title>
<ellipse fill="none" stroke="black" cx="1751.37" cy="-484" rx="108.55" ry="18"/>
<text text-anchor="middle" x="1751.37" y="-478.38" font-family="Times,serif" font-size="15.00">OLO messaging active</text>
</g>
<!-- 6622365264&#45;&#45;6622366352 -->
<g id="edge14" class="edge">
<title>6622365264&#45;&#45;6622366352</title>
<path fill="none" stroke="black" d="M1450.12,-434.24C1497.53,-442.09 1600.79,-459.21 1672.9,-471.16"/>
</g>
<!-- 6622365712 -->
<g id="node22" class="node">
<title>6622365712</title>
<ellipse fill="none" stroke="black" cx="1751.37" cy="-430" rx="99.08" ry="18"/>
<text text-anchor="middle" x="1751.37" y="-424.38" font-family="Times,serif" font-size="15.00">terminate on request</text>
</g>
<!-- 6622365264&#45;&#45;6622365712 -->
<g id="edge15" class="edge">
<title>6622365264&#45;&#45;6622365712</title>
<path fill="none" stroke="black" d="M1450.94,-430C1494.19,-430 1582.31,-430 1651.81,-430"/>
</g>
<!-- 6622371536 -->
<g id="node25" class="node">
<title>6622371536</title>
<ellipse fill="none" stroke="black" cx="1423.56" cy="-335" rx="27" ry="18"/>
<text text-anchor="middle" x="1423.56" y="-329.38" font-family="Times,serif" font-size="15.00">xor</text>
</g>
<!-- 6622374032&#45;&#45;6622371536 -->
<g id="edge27" class="edge">
<title>6622374032&#45;&#45;6622371536</title>
<path fill="none" stroke="black" d="M1154.68,-335C1221.61,-335 1343.08,-335 1396.34,-335"/>
</g>
<!-- 5452582416 -->
<g id="node34" class="node">
<title>5452582416</title>
<ellipse fill="black" stroke="black" cx="1423.56" cy="-296" rx="2.7" ry="2.7"/>
</g>
<!-- 6622374032&#45;&#45;5452582416 -->
<g id="edge28" class="edge">
<title>6622374032&#45;&#45;5452582416</title>
<path fill="none" stroke="black" d="M1152.34,-329.54C1233.42,-319.47 1399.97,-298.8 1420.47,-296.26"/>
</g>
<!-- 5452020688 -->
<g id="node26" class="node">
<title>5452020688</title>
<ellipse fill="none" stroke="black" cx="1751.37" cy="-376" rx="160.64" ry="18"/>
<text text-anchor="middle" x="1751.37" y="-370.38" font-family="Times,serif" font-size="15.00">forward to the competent authority</text>
</g>
<!-- 6622371536&#45;&#45;5452020688 -->
<g id="edge19" class="edge">
<title>6622371536&#45;&#45;5452020688</title>
<path fill="none" stroke="black" d="M1450.39,-338.25C1491.56,-343.43 1574.34,-353.85 1642.54,-362.43"/>
</g>
<!-- 6620492688 -->
<g id="node27" class="node">
<title>6620492688</title>
<ellipse fill="none" stroke="black" cx="1751.37" cy="-322" rx="147.49" ry="18"/>
<text text-anchor="middle" x="1751.37" y="-316.38" font-family="Times,serif" font-size="15.00">regular procedure without MER</text>
</g>
<!-- 6622371536&#45;&#45;6620492688 -->
<g id="edge20" class="edge">
<title>6622371536&#45;&#45;6620492688</title>
<path fill="none" stroke="black" d="M1450.94,-333.95C1485.94,-332.55 1550.31,-329.98 1610.42,-327.58"/>
</g>
<!-- 5453003280 -->
<g id="node28" class="node">
<title>5453003280</title>
<ellipse fill="none" stroke="black" cx="1751.37" cy="-268" rx="27" ry="18"/>
<text text-anchor="middle" x="1751.37" y="-262.38" font-family="Times,serif" font-size="15.00">seq</text>
</g>
<!-- 6622371536&#45;&#45;5453003280 -->
<g id="edge26" class="edge">
<title>6622371536&#45;&#45;5453003280</title>
<path fill="none" stroke="black" d="M1449.85,-329.8C1510.7,-317.28 1664.71,-285.62 1725.32,-273.15"/>
</g>
<!-- 6622334736 -->
<g id="node29" class="node">
<title>6622334736</title>
<ellipse fill="none" stroke="black" cx="2088.66" cy="-322" rx="140.65" ry="18"/>
<text text-anchor="middle" x="2088.66" y="-316.38" font-family="Times,serif" font-size="15.00">create procedure confirmation</text>
</g>
<!-- 5453003280&#45;&#45;6622334736 -->
<g id="edge21" class="edge">
<title>5453003280&#45;&#45;6622334736</title>
<path fill="none" stroke="black" d="M1778.12,-272.15C1824.74,-279.66 1925.12,-295.82 1998.99,-307.72"/>
</g>
<!-- 6622341968 -->
<g id="node30" class="node">
<title>6622341968</title>
<ellipse fill="none" stroke="black" cx="2088.66" cy="-268" rx="42.79" ry="18"/>
<text text-anchor="middle" x="2088.66" y="-262.38" font-family="Times,serif" font-size="15.00">publish</text>
</g>
<!-- 5453003280&#45;&#45;6622341968 -->
<g id="edge22" class="edge">
<title>5453003280&#45;&#45;6622341968</title>
<path fill="none" stroke="black" d="M1778.68,-268C1836.57,-268 1975.41,-268 2045.56,-268"/>
</g>
<!-- 6622346320 -->
<g id="node31" class="node">
<title>6622346320</title>
<ellipse fill="none" stroke="black" cx="2088.66" cy="-214" rx="27" ry="18"/>
<text text-anchor="middle" x="2088.66" y="-208.38" font-family="Times,serif" font-size="15.00">xor</text>
</g>
<!-- 5453003280&#45;&#45;6622346320 -->
<g id="edge25" class="edge">
<title>5453003280&#45;&#45;6622346320</title>
<path fill="none" stroke="black" d="M1778.12,-263.85C1840.69,-253.78 2000.1,-228.1 2062.28,-218.09"/>
</g>
<!-- 6622342928 -->
<g id="node32" class="node">
<title>6622342928</title>
<ellipse fill="none" stroke="black" cx="2398.06" cy="-241" rx="132.76" ry="18"/>
<text text-anchor="middle" x="2398.06" y="-235.38" font-family="Times,serif" font-size="15.00">create publication document</text>
</g>
<!-- 6622346320&#45;&#45;6622342928 -->
<g id="edge23" class="edge">
<title>6622346320&#45;&#45;6622342928</title>
<path fill="none" stroke="black" d="M2115.87,-216.3C2153.25,-219.59 2224.16,-225.81 2285.41,-231.19"/>
</g>
<!-- 6622337552 -->
<g id="node33" class="node">
<title>6622337552</title>
<ellipse fill="none" stroke="black" cx="2398.06" cy="-187" rx="121.18" ry="18"/>
<text text-anchor="middle" x="2398.06" y="-181.38" font-family="Times,serif" font-size="15.00">send confirmation receipt</text>
</g>
<!-- 6622346320&#45;&#45;6622337552 -->
<g id="edge24" class="edge">
<title>6622346320&#45;&#45;6622337552</title>
<path fill="none" stroke="black" d="M2115.87,-211.7C2154.7,-208.29 2229.72,-201.7 2292.5,-196.18"/>
</g>
<!-- 6622346768 -->
<g id="node40" class="node">
<title>6622346768</title>
<ellipse fill="black" stroke="black" cx="303.81" cy="-259" rx="2.7" ry="2.7"/>
</g>
<!-- 6622345872&#45;&#45;6622346768 -->
<g id="edge38" class="edge">
<title>6622345872&#45;&#45;6622346768</title>
<path fill="none" stroke="black" d="M144.09,-242.68C191.05,-247.51 286.32,-257.3 300.92,-258.81"/>
</g>
<!-- 6622340688 -->
<g id="node41" class="node">
<title>6622340688</title>
<ellipse fill="none" stroke="black" cx="303.81" cy="-220" rx="123.81" ry="18"/>
<text text-anchor="middle" x="303.81" y="-214.38" font-family="Times,serif" font-size="15.00">read publication date field</text>
</g>
<!-- 6622345872&#45;&#45;6622340688 -->
<g id="edge39" class="edge">
<title>6622345872&#45;&#45;6622340688</title>
<path fill="none" stroke="black" d="M144.09,-237.18C159.91,-235.46 181.21,-233.16 203.06,-230.79"/>
</g>
<!-- 6622336656 -->
<g id="node42" class="node">
<title>6622336656</title>
<ellipse fill="none" stroke="black" cx="303.81" cy="-126" rx="27" ry="18"/>
<text text-anchor="middle" x="303.81" y="-120.38" font-family="Times,serif" font-size="15.00">seq</text>
</g>
<!-- 6622345872&#45;&#45;6622336656 -->
<g id="edge44" class="edge">
<title>6622345872&#45;&#45;6622336656</title>
<path fill="none" stroke="black" d="M137.43,-228.02C172.92,-206.12 247.86,-159.9 283.37,-138"/>
</g>
<!-- 6622343696 -->
<g id="node43" class="node">
<title>6622343696</title>
<ellipse fill="none" stroke="black" cx="647.94" cy="-180" rx="156.96" ry="18"/>
<text text-anchor="middle" x="647.94" y="-174.38" font-family="Times,serif" font-size="15.00">no permit required for application</text>
</g>
<!-- 6622336656&#45;&#45;6622343696 -->
<g id="edge40" class="edge">
<title>6622336656&#45;&#45;6622343696</title>
<path fill="none" stroke="black" d="M330.53,-130.06C377.22,-137.43 478.1,-153.35 553.47,-165.25"/>
</g>
<!-- 6622333968 -->
<g id="node44" class="node">
<title>6622333968</title>
<ellipse fill="none" stroke="black" cx="647.94" cy="-126" rx="67.52" ry="18"/>
<text text-anchor="middle" x="647.94" y="-120.38" font-family="Times,serif" font-size="15.00">MER present</text>
</g>
<!-- 6622336656&#45;&#45;6622333968 -->
<g id="edge41" class="edge">
<title>6622336656&#45;&#45;6622333968</title>
<path fill="none" stroke="black" d="M331.09,-126C383.82,-126 503.97,-126 579.94,-126"/>
</g>
<!-- 6622338704 -->
<g id="node45" class="node">
<title>6622338704</title>
<ellipse fill="none" stroke="black" cx="647.94" cy="-72" rx="129.07" ry="18"/>
<text text-anchor="middle" x="647.94" y="-66.38" font-family="Times,serif" font-size="15.00">activities regular procedure</text>
</g>
<!-- 6622336656&#45;&#45;6622338704 -->
<g id="edge42" class="edge">
<title>6622336656&#45;&#45;6622338704</title>
<path fill="none" stroke="black" d="M330.53,-121.94C378.7,-114.34 484.53,-97.63 560.54,-85.64"/>
</g>
<!-- 6622341200 -->
<g id="node46" class="node">
<title>6622341200</title>
<ellipse fill="none" stroke="black" cx="647.94" cy="-18" rx="91.19" ry="18"/>
<text text-anchor="middle" x="647.94" y="-12.38" font-family="Times,serif" font-size="15.00">phased application</text>
</g>
<!-- 6622336656&#45;&#45;6622341200 -->
<g id="edge43" class="edge">
<title>6622336656&#45;&#45;6622341200</title>
<path fill="none" stroke="black" d="M328.87,-118.41C384.61,-100.81 523.53,-56.96 597.98,-33.45"/>
</g>
</g>
</svg>
