<?xml version="1.0" encoding="UTF-8" standalone="no"?>
<!DOCTYPE svg PUBLIC "-//W3C//DTD SVG 1.1//EN"
 "http://www.w3.org/Graphics/SVG/1.1/DTD/svg11.dtd">
<!-- Generated by graphviz version 11.0.0 (20240428.1522)
 -->
<!-- Title: pt Pages: 1 -->
<svg width="1140pt" height="523pt"
 viewBox="0.00 0.00 1139.88 523.00" xmlns="http://www.w3.org/2000/svg" xmlns:xlink="http://www.w3.org/1999/xlink">
<g id="graph0" class="graph" transform="scale(1 1) rotate(0) translate(4 519)">
<title>pt</title>
<polygon fill="white" stroke="none" points="-4,4 -4,-519 1135.88,-519 1135.88,4 -4,4"/>
<!-- 2561233318352 -->
<g id="node1" class="node">
<title>2561233318352</title>
<ellipse fill="none" stroke="black" cx="27" cy="-416" rx="27" ry="18"/>
<text text-anchor="middle" x="27" y="-410" font-family="Times New Roman,serif" font-size="15.00">seq</text>
</g>
<!-- 2561233320848 -->
<g id="node2" class="node">
<title>2561233320848</title>
<ellipse fill="none" stroke="black" cx="221.19" cy="-497" rx="131.19" ry="18"/>
<text text-anchor="middle" x="221.19" y="-491" font-family="Times New Roman,serif" font-size="15.00">Enter submission date request</text>
</g>
<!-- 2561233318352&#45;&#45;2561233320848 -->
<g id="edge1" class="edge">
<title>2561233318352&#45;&#45;2561233320848</title>
<path fill="none" stroke="black" d="M50.42,-425.45C81.81,-438.68 139.41,-462.95 178.73,-479.53"/>
</g>
<!-- 2561233310912 -->
<g id="node3" class="node">
<title>2561233310912</title>
<ellipse fill="none" stroke="black" cx="221.19" cy="-443" rx="98.44" ry="18"/>
<text text-anchor="middle" x="221.19" y="-437" font-family="Times New Roman,serif" font-size="15.00">OLO messages active</text>
</g>
<!-- 2561233318352&#45;&#45;2561233310912 -->
<g id="edge2" class="edge">
<title>2561233318352&#45;&#45;2561233310912</title>
<path fill="none" stroke="black" d="M53.92,-419.64C76.56,-422.82 110.64,-427.61 142.06,-432.02"/>
</g>
<!-- 2561233307408 -->
<g id="node4" class="node">
<title>2561233307408</title>
<ellipse fill="none" stroke="black" cx="221.19" cy="-389" rx="27" ry="18"/>
<text text-anchor="middle" x="221.19" y="-383" font-family="Times New Roman,serif" font-size="15.00">xor</text>
</g>
<!-- 2561233318352&#45;&#45;2561233307408 -->
<g id="edge5" class="edge">
<title>2561233318352&#45;&#45;2561233307408</title>
<path fill="none" stroke="black" d="M53.92,-412.36C90.7,-407.19 157.65,-397.79 194.38,-392.63"/>
</g>
<!-- 2561233314320 -->
<g id="node7" class="node">
<title>2561233314320</title>
<ellipse fill="none" stroke="black" cx="221.19" cy="-254" rx="27" ry="18"/>
<text text-anchor="middle" x="221.19" y="-248" font-family="Times New Roman,serif" font-size="15.00">and</text>
</g>
<!-- 2561233318352&#45;&#45;2561233314320 -->
<g id="edge18" class="edge">
<title>2561233318352&#45;&#45;2561233314320</title>
<path fill="none" stroke="black" d="M44.72,-401.91C81.16,-371.19 167.37,-298.52 203.65,-267.95"/>
</g>
<!-- 2561233313408 -->
<g id="node5" class="node">
<title>2561233313408</title>
<ellipse fill="black" stroke="black" cx="535.96" cy="-428" rx="2.7" ry="2.7"/>
</g>
<!-- 2561233307408&#45;&#45;2561233313408 -->
<g id="edge3" class="edge">
<title>2561233307408&#45;&#45;2561233313408</title>
<path fill="none" stroke="black" d="M248.05,-392.22C318.89,-401.06 512.18,-425.16 533.11,-427.77"/>
</g>
<!-- 2561233321568 -->
<g id="node6" class="node">
<title>2561233321568</title>
<ellipse fill="none" stroke="black" cx="535.96" cy="-389" rx="114.82" ry="18"/>
<text text-anchor="middle" x="535.96" y="-383" font-family="Times New Roman,serif" font-size="15.00">Step application received</text>
</g>
<!-- 2561233307408&#45;&#45;2561233321568 -->
<g id="edge4" class="edge">
<title>2561233307408&#45;&#45;2561233321568</title>
<path fill="none" stroke="black" d="M248.59,-389C286.44,-389 358.44,-389 420.78,-389"/>
</g>
<!-- 2561233320512 -->
<g id="node8" class="node">
<title>2561233320512</title>
<ellipse fill="none" stroke="black" cx="535.96" cy="-335" rx="141.43" ry="18"/>
<text text-anchor="middle" x="535.96" y="-329" font-family="Times New Roman,serif" font-size="15.00">Produce procedure confirmation</text>
</g>
<!-- 2561233314320&#45;&#45;2561233320512 -->
<g id="edge6" class="edge">
<title>2561233314320&#45;&#45;2561233320512</title>
<path fill="none" stroke="black" d="M246.74,-260.36C294.69,-272.78 402.19,-300.61 471.49,-318.56"/>
</g>
<!-- 2561233312160 -->
<g id="node9" class="node">
<title>2561233312160</title>
<ellipse fill="none" stroke="black" cx="535.96" cy="-281" rx="139.38" ry="18"/>
<text text-anchor="middle" x="535.96" y="-275" font-family="Times New Roman,serif" font-size="15.00">Refer to the competent authority</text>
</g>
<!-- 2561233314320&#45;&#45;2561233312160 -->
<g id="edge7" class="edge">
<title>2561233314320&#45;&#45;2561233312160</title>
<path fill="none" stroke="black" d="M248.32,-256.26C285.69,-259.48 356.73,-265.61 418.73,-270.97"/>
</g>
<!-- 2561233309184 -->
<g id="node10" class="node">
<title>2561233309184</title>
<ellipse fill="none" stroke="black" cx="535.96" cy="-227" rx="129.15" ry="18"/>
<text text-anchor="middle" x="535.96" y="-221" font-family="Times New Roman,serif" font-size="15.00">Commence WABOprocedure</text>
</g>
<!-- 2561233314320&#45;&#45;2561233309184 -->
<g id="edge8" class="edge">
<title>2561233314320&#45;&#45;2561233309184</title>
<path fill="none" stroke="black" d="M248.32,-251.74C286.93,-248.41 361.51,-241.97 424.91,-236.5"/>
</g>
<!-- 2561233305728 -->
<g id="node11" class="node">
<title>2561233305728</title>
<ellipse fill="none" stroke="black" cx="535.96" cy="-173" rx="147.57" ry="18"/>
<text text-anchor="middle" x="535.96" y="-167" font-family="Times New Roman,serif" font-size="15.00">Ordinary procedure without MER</text>
</g>
<!-- 2561233314320&#45;&#45;2561233305728 -->
<g id="edge9" class="edge">
<title>2561233314320&#45;&#45;2561233305728</title>
<path fill="none" stroke="black" d="M246.74,-247.64C294.55,-235.26 401.54,-207.55 470.86,-189.6"/>
</g>
<!-- 2561233305776 -->
<g id="node12" class="node">
<title>2561233305776</title>
<ellipse fill="none" stroke="black" cx="535.96" cy="-119" rx="45.21" ry="18"/>
<text text-anchor="middle" x="535.96" y="-113" font-family="Times New Roman,serif" font-size="15.00">xor loop</text>
</g>
<!-- 2561233314320&#45;&#45;2561233305776 -->
<g id="edge17" class="edge">
<title>2561233314320&#45;&#45;2561233305776</title>
<path fill="none" stroke="black" d="M244.19,-244.51C298.97,-220.86 441.63,-159.28 504.47,-132.16"/>
</g>
<!-- 2561233317056 -->
<g id="node13" class="node">
<title>2561233317056</title>
<ellipse fill="none" stroke="black" cx="764.74" cy="-165" rx="45.21" ry="18"/>
<text text-anchor="middle" x="764.74" y="-159" font-family="Times New Roman,serif" font-size="15.00">xor loop</text>
</g>
<!-- 2561233305776&#45;&#45;2561233317056 -->
<g id="edge12" class="edge">
<title>2561233305776&#45;&#45;2561233317056</title>
<path fill="none" stroke="black" d="M576.98,-127.12C618.31,-135.5 682.42,-148.5 723.74,-156.89"/>
</g>
<!-- 2561233311824 -->
<g id="node16" class="node">
<title>2561233311824</title>
<ellipse fill="none" stroke="black" cx="764.74" cy="-92" rx="27" ry="18"/>
<text text-anchor="middle" x="764.74" y="-86" font-family="Times New Roman,serif" font-size="15.00">seq</text>
</g>
<!-- 2561233305776&#45;&#45;2561233311824 -->
<g id="edge16" class="edge">
<title>2561233305776&#45;&#45;2561233311824</title>
<path fill="none" stroke="black" d="M579.88,-113.89C626.49,-108.34 699.43,-99.66 737.93,-95.07"/>
</g>
<!-- 2561233318832 -->
<g id="node14" class="node">
<title>2561233318832</title>
<ellipse fill="none" stroke="black" cx="988.91" cy="-204" rx="131.19" ry="18"/>
<text text-anchor="middle" x="988.91" y="-198" font-family="Times New Roman,serif" font-size="15.00">Transmit confirmation receipt</text>
</g>
<!-- 2561233317056&#45;&#45;2561233318832 -->
<g id="edge10" class="edge">
<title>2561233317056&#45;&#45;2561233318832</title>
<path fill="none" stroke="black" d="M806.75,-172.2C834.58,-177.08 872.34,-183.71 906.18,-189.65"/>
</g>
<!-- 2561233305968 -->
<g id="node15" class="node">
<title>2561233305968</title>
<ellipse fill="black" stroke="black" cx="988.91" cy="-165" rx="2.7" ry="2.7"/>
</g>
<!-- 2561233317056&#45;&#45;2561233305968 -->
<g id="edge11" class="edge">
<title>2561233317056&#45;&#45;2561233305968</title>
<path fill="none" stroke="black" d="M810.43,-165C870.24,-165 970.61,-165 985.93,-165"/>
</g>
<!-- 2561233311440 -->
<g id="node17" class="node">
<title>2561233311440</title>
<ellipse fill="none" stroke="black" cx="988.91" cy="-126" rx="142.97" ry="18"/>
<text text-anchor="middle" x="988.91" y="-120" font-family="Times New Roman,serif" font-size="15.00">Applicant plays stakeholder role</text>
</g>
<!-- 2561233311824&#45;&#45;2561233311440 -->
<g id="edge13" class="edge">
<title>2561233311824&#45;&#45;2561233311440</title>
<path fill="none" stroke="black" d="M791.23,-95.9C816.87,-99.82 857.96,-106.11 895.97,-111.93"/>
</g>
<!-- 2561233307168 -->
<g id="node18" class="node">
<title>2561233307168</title>
<ellipse fill="none" stroke="black" cx="988.91" cy="-72" rx="73.36" ry="18"/>
<text text-anchor="middle" x="988.91" y="-66" font-family="Times New Roman,serif" font-size="15.00">Stop on request</text>
</g>
<!-- 2561233311824&#45;&#45;2561233307168 -->
<g id="edge14" class="edge">
<title>2561233311824&#45;&#45;2561233307168</title>
<path fill="none" stroke="black" d="M791.66,-89.67C822.8,-86.86 876.24,-82.05 919.5,-78.16"/>
</g>
<!-- 2561233316528 -->
<g id="node19" class="node">
<title>2561233316528</title>
<ellipse fill="none" stroke="black" cx="988.91" cy="-18" rx="128.63" ry="18"/>
<text text-anchor="middle" x="988.91" y="-12" font-family="Times New Roman,serif" font-size="15.00">Evaluate provisional charges</text>
</g>
<!-- 2561233311824&#45;&#45;2561233316528 -->
<g id="edge15" class="edge">
<title>2561233311824&#45;&#45;2561233316528</title>
<path fill="none" stroke="black" d="M789.52,-84.08C824.55,-72.41 890.9,-50.31 937.18,-34.9"/>
</g>
</g>
</svg>
