<?xml version="1.0" encoding="UTF-8" standalone="no"?>
<!DOCTYPE svg PUBLIC "-//W3C//DTD SVG 1.1//EN"
 "http://www.w3.org/Graphics/SVG/1.1/DTD/svg11.dtd">
<!-- Generated by graphviz version 11.0.0 (20240428.1522)
 -->
<!-- Title: pt Pages: 1 -->
<svg width="1101pt" height="229pt"
 viewBox="0.00 0.00 1100.98 229.00" xmlns="http://www.w3.org/2000/svg" xmlns:xlink="http://www.w3.org/1999/xlink">
<g id="graph0" class="graph" transform="scale(1 1) rotate(0) translate(4 225)">
<title>pt</title>
<polygon fill="white" stroke="none" points="-4,4 -4,-225 1096.98,-225 1096.98,4 -4,4"/>
<!-- 2106657348624 -->
<g id="node1" class="node">
<title>2106657348624</title>
<ellipse fill="none" stroke="black" cx="27" cy="-149" rx="27" ry="18"/>
<text text-anchor="middle" x="27" y="-143" font-family="Times New Roman,serif" font-size="15.00">seq</text>
</g>
<!-- 2106657343584 -->
<g id="node2" class="node">
<title>2106657343584</title>
<ellipse fill="none" stroke="black" cx="229.38" cy="-203" rx="139.38" ry="18"/>
<text text-anchor="middle" x="229.38" y="-197" font-family="Times New Roman,serif" font-size="15.00">Record submission date request</text>
</g>
<!-- 2106657348624&#45;&#45;2106657343584 -->
<g id="edge1" class="edge">
<title>2106657348624&#45;&#45;2106657343584</title>
<path fill="none" stroke="black" d="M52.57,-155.62C80.89,-163.25 128.49,-176.08 167.02,-186.46"/>
</g>
<!-- 2106657354720 -->
<g id="node3" class="node">
<title>2106657354720</title>
<ellipse fill="none" stroke="black" cx="229.38" cy="-149" rx="109.19" ry="18"/>
<text text-anchor="middle" x="229.38" y="-143" font-family="Times New Roman,serif" font-size="15.00">OLO messaging ongoing</text>
</g>
<!-- 2106657348624&#45;&#45;2106657354720 -->
<g id="edge2" class="edge">
<title>2106657348624&#45;&#45;2106657354720</title>
<path fill="none" stroke="black" d="M54.2,-149C71.49,-149 95.42,-149 120.02,-149"/>
</g>
<!-- 2106657349296 -->
<g id="node4" class="node">
<title>2106657349296</title>
<ellipse fill="none" stroke="black" cx="229.38" cy="-95" rx="27" ry="18"/>
<text text-anchor="middle" x="229.38" y="-89" font-family="Times New Roman,serif" font-size="15.00">and</text>
</g>
<!-- 2106657348624&#45;&#45;2106657349296 -->
<g id="edge11" class="edge">
<title>2106657348624&#45;&#45;2106657349296</title>
<path fill="none" stroke="black" d="M52.57,-142.38C91.13,-131.99 165.43,-111.96 203.92,-101.59"/>
</g>
<!-- 2106657345120 -->
<g id="node5" class="node">
<title>2106657345120</title>
<ellipse fill="none" stroke="black" cx="449.97" cy="-122" rx="45.21" ry="18"/>
<text text-anchor="middle" x="449.97" y="-116" font-family="Times New Roman,serif" font-size="15.00">xor loop</text>
</g>
<!-- 2106657349296&#45;&#45;2106657345120 -->
<g id="edge5" class="edge">
<title>2106657349296&#45;&#45;2106657345120</title>
<path fill="none" stroke="black" d="M256.32,-98.2C293.3,-102.77 361.63,-111.21 406.18,-116.71"/>
</g>
<!-- 2106657344256 -->
<g id="node8" class="node">
<title>2106657344256</title>
<ellipse fill="none" stroke="black" cx="449.97" cy="-68" rx="27" ry="18"/>
<text text-anchor="middle" x="449.97" y="-62" font-family="Times New Roman,serif" font-size="15.00">seq</text>
</g>
<!-- 2106657349296&#45;&#45;2106657344256 -->
<g id="edge10" class="edge">
<title>2106657349296&#45;&#45;2106657344256</title>
<path fill="none" stroke="black" d="M256.32,-91.8C298.39,-86.6 381.03,-76.39 423.07,-71.2"/>
</g>
<!-- 2106657341808 -->
<g id="node6" class="node">
<title>2106657341808</title>
<ellipse fill="none" stroke="black" cx="670.05" cy="-157" rx="115.84" ry="18"/>
<text text-anchor="middle" x="670.05" y="-151" font-family="Times New Roman,serif" font-size="15.00">Issue confirmation receipt</text>
</g>
<!-- 2106657345120&#45;&#45;2106657341808 -->
<g id="edge3" class="edge">
<title>2106657345120&#45;&#45;2106657341808</title>
<path fill="none" stroke="black" d="M492.51,-128.67C519.45,-132.99 555.45,-138.77 587.92,-143.98"/>
</g>
<!-- 2106657356640 -->
<g id="node7" class="node">
<title>2106657356640</title>
<ellipse fill="black" stroke="black" cx="670.05" cy="-118" rx="2.7" ry="2.7"/>
</g>
<!-- 2106657345120&#45;&#45;2106657356640 -->
<g id="edge4" class="edge">
<title>2106657345120&#45;&#45;2106657356640</title>
<path fill="none" stroke="black" d="M495.63,-121.18C554.45,-120.1 652.21,-118.31 667.12,-118.04"/>
</g>
<!-- 2106657353664 -->
<g id="node9" class="node">
<title>2106657353664</title>
<ellipse fill="none" stroke="black" cx="670.05" cy="-72" rx="27" ry="18"/>
<text text-anchor="middle" x="670.05" y="-66" font-family="Times New Roman,serif" font-size="15.00">and</text>
</g>
<!-- 2106657344256&#45;&#45;2106657353664 -->
<g id="edge8" class="edge">
<title>2106657344256&#45;&#45;2106657353664</title>
<path fill="none" stroke="black" d="M477.28,-68.48C519.2,-69.25 600.68,-70.75 642.66,-71.52"/>
</g>
<!-- 2106657352272 -->
<g id="node12" class="node">
<title>2106657352272</title>
<ellipse fill="none" stroke="black" cx="670.05" cy="-18" rx="138.87" ry="18"/>
<text text-anchor="middle" x="670.05" y="-12" font-family="Times New Roman,serif" font-size="15.00">Log senddate acknowledgement</text>
</g>
<!-- 2106657344256&#45;&#45;2106657352272 -->
<g id="edge9" class="edge">
<title>2106657344256&#45;&#45;2106657352272</title>
<path fill="none" stroke="black" d="M475.99,-62.26C505.98,-55.39 557.47,-43.58 599.73,-33.89"/>
</g>
<!-- 2106657349968 -->
<g id="node10" class="node">
<title>2106657349968</title>
<ellipse fill="none" stroke="black" cx="968.95" cy="-99" rx="98.95" ry="18"/>
<text text-anchor="middle" x="968.95" y="-93" font-family="Times New Roman,serif" font-size="15.00">Applicant is involved</text>
</g>
<!-- 2106657353664&#45;&#45;2106657349968 -->
<g id="edge6" class="edge">
<title>2106657353664&#45;&#45;2106657349968</title>
<path fill="none" stroke="black" d="M697.14,-74.37C737.54,-78.05 817.09,-85.28 879.57,-90.96"/>
</g>
<!-- 2106657348576 -->
<g id="node11" class="node">
<title>2106657348576</title>
<ellipse fill="none" stroke="black" cx="968.95" cy="-45" rx="124.03" ry="18"/>
<text text-anchor="middle" x="968.95" y="-39" font-family="Times New Roman,serif" font-size="15.00">Period application received</text>
</g>
<!-- 2106657353664&#45;&#45;2106657348576 -->
<g id="edge7" class="edge">
<title>2106657353664&#45;&#45;2106657348576</title>
<path fill="none" stroke="black" d="M697.14,-69.63C734,-66.28 803.46,-59.96 862.8,-54.56"/>
</g>
</g>
</svg>
