<?xml version="1.0" encoding="UTF-8" standalone="no"?>
<!DOCTYPE svg PUBLIC "-//W3C//DTD SVG 1.1//EN"
 "http://www.w3.org/Graphics/SVG/1.1/DTD/svg11.dtd">
<!-- Generated by graphviz version 8.0.5 (20230430.1635)
 -->
<!-- Title: pt Pages: 1 -->
<svg width="1638pt" height="784pt"
 viewBox="0.00 0.00 1638.42 784.00" xmlns="http://www.w3.org/2000/svg" xmlns:xlink="http://www.w3.org/1999/xlink">
<g id="graph0" class="graph" transform="scale(1 1) rotate(0) translate(4 780)">
<title>pt</title>
<polygon fill="white" stroke="none" points="-4,4 -4,-780 1634.42,-780 1634.42,4 -4,4"/>
<!-- 6626370704 -->
<g id="node1" class="node">
<title>6626370704</title>
<ellipse fill="none" stroke="black" cx="27" cy="-550" rx="27" ry="18"/>
<text text-anchor="middle" x="27" y="-544.38" font-family="Times,serif" font-size="15.00">seq</text>
</g>
<!-- 6626373968 -->
<g id="node2" class="node">
<title>6626373968</title>
<ellipse fill="none" stroke="black" cx="250.64" cy="-758" rx="149.06" ry="18"/>
<text text-anchor="middle" x="250.64" y="-752.38" font-family="Times,serif" font-size="15.00">register submission date request</text>
</g>
<!-- 6626370704&#45;&#45;6626373968 -->
<g id="edge1" class="edge">
<title>6626370704&#45;&#45;6626373968</title>
<path fill="none" stroke="black" d="M43.59,-564.63C83.1,-601.71 187.11,-699.32 230.36,-739.9"/>
</g>
<!-- 6626367248 -->
<g id="node3" class="node">
<title>6626367248</title>
<ellipse fill="none" stroke="black" cx="250.64" cy="-704" rx="27" ry="18"/>
<text text-anchor="middle" x="250.64" y="-698.38" font-family="Times,serif" font-size="15.00">xor</text>
</g>
<!-- 6626370704&#45;&#45;6626367248 -->
<g id="edge4" class="edge">
<title>6626370704&#45;&#45;6626367248</title>
<path fill="none" stroke="black" d="M46.52,-562.87C88.24,-591.85 189.2,-662.01 231.02,-691.06"/>
</g>
<!-- 6626377616 -->
<g id="node6" class="node">
<title>6626377616</title>
<ellipse fill="none" stroke="black" cx="250.64" cy="-631" rx="27" ry="18"/>
<text text-anchor="middle" x="250.64" y="-625.38" font-family="Times,serif" font-size="15.00">and</text>
</g>
<!-- 6626370704&#45;&#45;6626377616 -->
<g id="edge9" class="edge">
<title>6626370704&#45;&#45;6626377616</title>
<path fill="none" stroke="black" d="M51.3,-558.52C93.87,-574.07 183.74,-606.91 226.32,-622.48"/>
</g>
<!-- 6626366544 -->
<g id="node11" class="node">
<title>6626366544</title>
<ellipse fill="none" stroke="black" cx="250.64" cy="-577" rx="27" ry="18"/>
<text text-anchor="middle" x="250.64" y="-571.38" font-family="Times,serif" font-size="15.00">xor</text>
</g>
<!-- 6626370704&#45;&#45;6626366544 -->
<g id="edge12" class="edge">
<title>6626370704&#45;&#45;6626366544</title>
<path fill="none" stroke="black" d="M53.86,-553.15C96.45,-558.34 180.89,-568.63 223.6,-573.83"/>
</g>
<!-- 6626368720 -->
<g id="node14" class="node">
<title>6626368720</title>
<ellipse fill="none" stroke="black" cx="250.64" cy="-523" rx="160.64" ry="18"/>
<text text-anchor="middle" x="250.64" y="-517.38" font-family="Times,serif" font-size="15.00">forward to the competent authority</text>
</g>
<!-- 6626370704&#45;&#45;6626368720 -->
<g id="edge13" class="edge">
<title>6626370704&#45;&#45;6626368720</title>
<path fill="none" stroke="black" d="M53.86,-546.85C75.38,-544.23 107.6,-540.3 139.71,-536.39"/>
</g>
<!-- 6626374224 -->
<g id="node15" class="node">
<title>6626374224</title>
<ellipse fill="none" stroke="black" cx="250.64" cy="-469" rx="125.39" ry="18"/>
<text text-anchor="middle" x="250.64" y="-463.38" font-family="Times,serif" font-size="15.00">inform BAG administrator</text>
</g>
<!-- 6626370704&#45;&#45;6626374224 -->
<g id="edge14" class="edge">
<title>6626370704&#45;&#45;6626374224</title>
<path fill="none" stroke="black" d="M51.3,-541.48C87.2,-528.37 156.74,-502.95 203.19,-485.98"/>
</g>
<!-- 6626362448 -->
<g id="node16" class="node">
<title>6626362448</title>
<ellipse fill="none" stroke="black" cx="250.64" cy="-415" rx="124.86" ry="18"/>
<text text-anchor="middle" x="250.64" y="-409.38" font-family="Times,serif" font-size="15.00">phase application received</text>
</g>
<!-- 6626370704&#45;&#45;6626362448 -->
<g id="edge15" class="edge">
<title>6626370704&#45;&#45;6626362448</title>
<path fill="none" stroke="black" d="M47.67,-538.02C86.76,-514.21 174.41,-460.82 220.32,-432.86"/>
</g>
<!-- 6626367312 -->
<g id="node17" class="node">
<title>6626367312</title>
<ellipse fill="none" stroke="black" cx="250.64" cy="-361" rx="27" ry="18"/>
<text text-anchor="middle" x="250.64" y="-355.38" font-family="Times,serif" font-size="15.00">xor</text>
</g>
<!-- 6626370704&#45;&#45;6626367312 -->
<g id="edge30" class="edge">
<title>6626370704&#45;&#45;6626367312</title>
<path fill="none" stroke="black" d="M44.3,-536.1C85.19,-501.24 191.78,-410.34 233.02,-375.17"/>
</g>
<!-- 6626367696 -->
<g id="node4" class="node">
<title>6626367696</title>
<ellipse fill="black" stroke="black" cx="560.04" cy="-743" rx="2.7" ry="2.7"/>
</g>
<!-- 6626367248&#45;&#45;6626367696 -->
<g id="edge2" class="edge">
<title>6626367248&#45;&#45;6626367696</title>
<path fill="none" stroke="black" d="M277.58,-707.29C347.64,-716.18 536.76,-740.17 557.24,-742.77"/>
</g>
<!-- 6626375888 -->
<g id="node5" class="node">
<title>6626375888</title>
<ellipse fill="none" stroke="black" cx="560.04" cy="-704" rx="108.55" ry="18"/>
<text text-anchor="middle" x="560.04" y="-698.38" font-family="Times,serif" font-size="15.00">OLO messaging active</text>
</g>
<!-- 6626367248&#45;&#45;6626375888 -->
<g id="edge3" class="edge">
<title>6626367248&#45;&#45;6626375888</title>
<path fill="none" stroke="black" d="M278.11,-704C316.34,-704 389.22,-704 451.16,-704"/>
</g>
<!-- 6626373456 -->
<g id="node7" class="node">
<title>6626373456</title>
<ellipse fill="none" stroke="black" cx="560.04" cy="-650" rx="112.76" ry="18"/>
<text text-anchor="middle" x="560.04" y="-644.38" font-family="Times,serif" font-size="15.00">applicant is stakeholder</text>
</g>
<!-- 6626377616&#45;&#45;6626373456 -->
<g id="edge5" class="edge">
<title>6626377616&#45;&#45;6626373456</title>
<path fill="none" stroke="black" d="M277.85,-632.62C316.61,-635.02 391.42,-639.64 454.13,-643.52"/>
</g>
<!-- 6626370640 -->
<g id="node8" class="node">
<title>6626370640</title>
<ellipse fill="none" stroke="black" cx="560.04" cy="-596" rx="47" ry="18"/>
<text text-anchor="middle" x="560.04" y="-590.38" font-family="Times,serif" font-size="15.00">xor loop</text>
</g>
<!-- 6626377616&#45;&#45;6626370640 -->
<g id="edge8" class="edge">
<title>6626377616&#45;&#45;6626370640</title>
<path fill="none" stroke="black" d="M277.58,-628.05C330.05,-622.07 449.31,-608.49 514.48,-601.07"/>
</g>
<!-- 6626370000 -->
<g id="node9" class="node">
<title>6626370000</title>
<ellipse fill="none" stroke="black" cx="975.19" cy="-616" rx="121.18" ry="18"/>
<text text-anchor="middle" x="975.19" y="-610.38" font-family="Times,serif" font-size="15.00">send confirmation receipt</text>
</g>
<!-- 6626370640&#45;&#45;6626370000 -->
<g id="edge6" class="edge">
<title>6626370640&#45;&#45;6626370000</title>
<path fill="none" stroke="black" d="M606.83,-598.22C667.34,-601.15 776.01,-606.41 859.52,-610.45"/>
</g>
<!-- 6626371984 -->
<g id="node10" class="node">
<title>6626371984</title>
<ellipse fill="black" stroke="black" cx="975.19" cy="-577" rx="2.7" ry="2.7"/>
</g>
<!-- 6626370640&#45;&#45;6626371984 -->
<g id="edge7" class="edge">
<title>6626370640&#45;&#45;6626371984</title>
<path fill="none" stroke="black" d="M606.83,-593.89C708.94,-589.2 948.2,-578.2 972.23,-577.09"/>
</g>
<!-- 6626374800 -->
<g id="node12" class="node">
<title>6626374800</title>
<ellipse fill="black" stroke="black" cx="560.04" cy="-557" rx="2.7" ry="2.7"/>
</g>
<!-- 6626366544&#45;&#45;6626374800 -->
<g id="edge10" class="edge">
<title>6626366544&#45;&#45;6626374800</title>
<path fill="none" stroke="black" d="M277.85,-575.29C348.12,-570.72 536.81,-558.45 557.24,-557.12"/>
</g>
<!-- 6626362832 -->
<g id="node13" class="node">
<title>6626362832</title>
<ellipse fill="none" stroke="black" cx="560.04" cy="-518" rx="99.08" ry="18"/>
<text text-anchor="middle" x="560.04" y="-512.38" font-family="Times,serif" font-size="15.00">terminate on request</text>
</g>
<!-- 6626366544&#45;&#45;6626362832 -->
<g id="edge11" class="edge">
<title>6626366544&#45;&#45;6626362832</title>
<path fill="none" stroke="black" d="M277.06,-572.12C323.38,-563.23 422.96,-544.12 490.5,-531.15"/>
</g>
<!-- 6626367504 -->
<g id="node18" class="node">
<title>6626367504</title>
<ellipse fill="none" stroke="black" cx="560.04" cy="-396" rx="27" ry="18"/>
<text text-anchor="middle" x="560.04" y="-390.38" font-family="Times,serif" font-size="15.00">seq</text>
</g>
<!-- 6626367312&#45;&#45;6626367504 -->
<g id="edge22" class="edge">
<title>6626367312&#45;&#45;6626367504</title>
<path fill="none" stroke="black" d="M277.58,-363.95C335.63,-370.56 475.4,-386.48 533.27,-393.07"/>
</g>
<!-- 6626366096 -->
<g id="node25" class="node">
<title>6626366096</title>
<ellipse fill="none" stroke="black" cx="560.04" cy="-180" rx="27" ry="18"/>
<text text-anchor="middle" x="560.04" y="-174.38" font-family="Times,serif" font-size="15.00">seq</text>
</g>
<!-- 6626367312&#45;&#45;6626366096 -->
<g id="edge29" class="edge">
<title>6626367312&#45;&#45;6626366096</title>
<path fill="none" stroke="black" d="M271.34,-349.4C326.73,-316.79 483.44,-224.52 539.11,-191.74"/>
</g>
<!-- 6626370320 -->
<g id="node19" class="node">
<title>6626370320</title>
<ellipse fill="none" stroke="black" cx="975.19" cy="-504" rx="147.49" ry="18"/>
<text text-anchor="middle" x="975.19" y="-498.38" font-family="Times,serif" font-size="15.00">regular procedure without MER</text>
</g>
<!-- 6626367504&#45;&#45;6626370320 -->
<g id="edge16" class="edge">
<title>6626367504&#45;&#45;6626370320</title>
<path fill="none" stroke="black" d="M585.65,-402.43C648.71,-418.92 817.65,-463.08 910.65,-487.39"/>
</g>
<!-- 6626372304 -->
<g id="node20" class="node">
<title>6626372304</title>
<ellipse fill="none" stroke="black" cx="975.19" cy="-450" rx="105.92" ry="18"/>
<text text-anchor="middle" x="975.19" y="-444.38" font-family="Times,serif" font-size="15.00">start WABOprocedure</text>
</g>
<!-- 6626367504&#45;&#45;6626372304 -->
<g id="edge17" class="edge">
<title>6626367504&#45;&#45;6626372304</title>
<path fill="none" stroke="black" d="M586.89,-399.38C646.33,-407.15 794.93,-426.57 889.82,-438.97"/>
</g>
<!-- 6626376720 -->
<g id="node21" class="node">
<title>6626376720</title>
<ellipse fill="none" stroke="black" cx="975.19" cy="-396" rx="27" ry="18"/>
<text text-anchor="middle" x="975.19" y="-390.38" font-family="Times,serif" font-size="15.00">and</text>
</g>
<!-- 6626367504&#45;&#45;6626376720 -->
<g id="edge20" class="edge">
<title>6626367504&#45;&#45;6626376720</title>
<path fill="none" stroke="black" d="M587.51,-396C662.14,-396 873.59,-396 947.94,-396"/>
</g>
<!-- 6626366416 -->
<g id="node24" class="node">
<title>6626366416</title>
<ellipse fill="none" stroke="black" cx="975.19" cy="-342" rx="132.23" ry="18"/>
<text text-anchor="middle" x="975.19" y="-336.38" font-family="Times,serif" font-size="15.00">registration date publication</text>
</g>
<!-- 6626367504&#45;&#45;6626366416 -->
<g id="edge21" class="edge">
<title>6626367504&#45;&#45;6626366416</title>
<path fill="none" stroke="black" d="M586.89,-392.62C643.95,-385.16 783.15,-366.97 878.15,-354.55"/>
</g>
<!-- 6626366864 -->
<g id="node22" class="node">
<title>6626366864</title>
<ellipse fill="none" stroke="black" cx="1454" cy="-423" rx="134.33" ry="18"/>
<text text-anchor="middle" x="1454" y="-417.38" font-family="Times,serif" font-size="15.00">send procedure confirmation</text>
</g>
<!-- 6626376720&#45;&#45;6626366864 -->
<g id="edge18" class="edge">
<title>6626376720&#45;&#45;6626366864</title>
<path fill="none" stroke="black" d="M1002.51,-397.49C1063.61,-400.95 1218.37,-409.71 1329.43,-416"/>
</g>
<!-- 6626362768 -->
<g id="node23" class="node">
<title>6626362768</title>
<ellipse fill="none" stroke="black" cx="1454" cy="-369" rx="176.42" ry="18"/>
<text text-anchor="middle" x="1454" y="-363.38" font-family="Times,serif" font-size="15.00">enter senddate procedure confirmation</text>
</g>
<!-- 6626376720&#45;&#45;6626362768 -->
<g id="edge19" class="edge">
<title>6626376720&#45;&#45;6626362768</title>
<path fill="none" stroke="black" d="M1002.51,-394.51C1058.1,-391.36 1191.19,-383.83 1298.39,-377.75"/>
</g>
<!-- 6626363536 -->
<g id="node26" class="node">
<title>6626363536</title>
<ellipse fill="none" stroke="black" cx="975.19" cy="-288" rx="203.78" ry="18"/>
<text text-anchor="middle" x="975.19" y="-282.38" font-family="Times,serif" font-size="15.00">no permit needed or only notification needed</text>
</g>
<!-- 6626366096&#45;&#45;6626363536 -->
<g id="edge23" class="edge">
<title>6626366096&#45;&#45;6626363536</title>
<path fill="none" stroke="black" d="M585.65,-186.43C648.01,-202.73 813.94,-246.11 907.55,-270.58"/>
</g>
<!-- 6626365264 -->
<g id="node27" class="node">
<title>6626365264</title>
<ellipse fill="none" stroke="black" cx="975.19" cy="-234" rx="230.61" ry="18"/>
<text text-anchor="middle" x="975.19" y="-228.38" font-family="Times,serif" font-size="15.00">create letter no permit or only notification required</text>
</g>
<!-- 6626366096&#45;&#45;6626365264 -->
<g id="edge24" class="edge">
<title>6626366096&#45;&#45;6626365264</title>
<path fill="none" stroke="black" d="M586.89,-183.38C639.26,-190.22 760.86,-206.12 853.95,-218.28"/>
</g>
<!-- 6626369424 -->
<g id="node28" class="node">
<title>6626369424</title>
<ellipse fill="none" stroke="black" cx="975.19" cy="-180" rx="266.39" ry="18"/>
<text text-anchor="middle" x="975.19" y="-174.38" font-family="Times,serif" font-size="15.00">enter senddate letter no permit or only notification required</text>
</g>
<!-- 6626366096&#45;&#45;6626369424 -->
<g id="edge25" class="edge">
<title>6626366096&#45;&#45;6626369424</title>
<path fill="none" stroke="black" d="M587.51,-180C614.41,-180 659.07,-180 708.68,-180"/>
</g>
<!-- 6626371280 -->
<g id="node29" class="node">
<title>6626371280</title>
<ellipse fill="none" stroke="black" cx="975.19" cy="-126" rx="82.77" ry="18"/>
<text text-anchor="middle" x="975.19" y="-120.38" font-family="Times,serif" font-size="15.00">register deadline</text>
</g>
<!-- 6626366096&#45;&#45;6626371280 -->
<g id="edge26" class="edge">
<title>6626366096&#45;&#45;6626371280</title>
<path fill="none" stroke="black" d="M586.89,-176.62C649.25,-168.47 809.72,-147.5 903.38,-135.26"/>
</g>
<!-- 6626362960 -->
<g id="node30" class="node">
<title>6626362960</title>
<ellipse fill="none" stroke="black" cx="975.19" cy="-72" rx="115.39" ry="18"/>
<text text-anchor="middle" x="975.19" y="-66.38" font-family="Times,serif" font-size="15.00">phase procedure aborted</text>
</g>
<!-- 6626366096&#45;&#45;6626362960 -->
<g id="edge27" class="edge">
<title>6626366096&#45;&#45;6626362960</title>
<path fill="none" stroke="black" d="M585.65,-173.57C649.49,-156.88 821.86,-111.82 914.07,-87.72"/>
</g>
<!-- 6626363216 -->
<g id="node31" class="node">
<title>6626363216</title>
<ellipse fill="none" stroke="black" cx="975.19" cy="-18" rx="54.36" ry="18"/>
<text text-anchor="middle" x="975.19" y="-12.38" font-family="Times,serif" font-size="15.00">close case</text>
</g>
<!-- 6626366096&#45;&#45;6626363216 -->
<g id="edge28" class="edge">
<title>6626366096&#45;&#45;6626363216</title>
<path fill="none" stroke="black" d="M583.84,-171.06C652.35,-144.2 856.72,-64.06 939.15,-31.74"/>
</g>
</g>
</svg>
