<?xml version="1.0" encoding="UTF-8" standalone="no"?>
<!DOCTYPE svg PUBLIC "-//W3C//DTD SVG 1.1//EN"
 "http://www.w3.org/Graphics/SVG/1.1/DTD/svg11.dtd">
<!-- Generated by graphviz version 8.0.5 (20230430.1635)
 -->
<!-- Title: pt Pages: 1 -->
<svg width="2187pt" height="1799pt"
 viewBox="0.00 0.00 2187.20 1799.00" xmlns="http://www.w3.org/2000/svg" xmlns:xlink="http://www.w3.org/1999/xlink">
<g id="graph0" class="graph" transform="scale(1 1) rotate(0) translate(4 1795)">
<title>pt</title>
<polygon fill="white" stroke="none" points="-4,4 -4,-1795 2183.2,-1795 2183.2,4 -4,4"/>
<!-- 6626321808 -->
<g id="node1" class="node">
<title>6626321808</title>
<ellipse fill="none" stroke="black" cx="27" cy="-1287" rx="27" ry="18"/>
<text text-anchor="middle" x="27" y="-1281.38" font-family="Times,serif" font-size="15.00">seq</text>
</g>
<!-- 6631570256 -->
<g id="node2" class="node">
<title>6631570256</title>
<ellipse fill="none" stroke="black" cx="266.42" cy="-1773" rx="149.06" ry="18"/>
<text text-anchor="middle" x="266.42" y="-1767.38" font-family="Times,serif" font-size="15.00">register submission date request</text>
</g>
<!-- 6626321808&#45;&#45;6631570256 -->
<g id="edge1" class="edge">
<title>6626321808&#45;&#45;6631570256</title>
<path fill="none" stroke="black" d="M36.45,-1304.3C73.17,-1379.46 218.71,-1677.38 256.45,-1754.63"/>
</g>
<!-- 6631560592 -->
<g id="node3" class="node">
<title>6631560592</title>
<ellipse fill="none" stroke="black" cx="266.42" cy="-1719" rx="108.55" ry="18"/>
<text text-anchor="middle" x="266.42" y="-1713.38" font-family="Times,serif" font-size="15.00">OLO messaging active</text>
</g>
<!-- 6626321808&#45;&#45;6631560592 -->
<g id="edge2" class="edge">
<title>6626321808&#45;&#45;6631560592</title>
<path fill="none" stroke="black" d="M37.31,-1303.93C75.03,-1372.57 216.39,-1629.78 255.4,-1700.76"/>
</g>
<!-- 6631681872 -->
<g id="node4" class="node">
<title>6631681872</title>
<ellipse fill="none" stroke="black" cx="266.42" cy="-1665" rx="27" ry="18"/>
<text text-anchor="middle" x="266.42" y="-1659.38" font-family="Times,serif" font-size="15.00">xor</text>
</g>
<!-- 6626321808&#45;&#45;6631681872 -->
<g id="edge5" class="edge">
<title>6626321808&#45;&#45;6631681872</title>
<path fill="none" stroke="black" d="M38.51,-1303.73C77.82,-1366.31 215.93,-1586.21 255.04,-1648.46"/>
</g>
<!-- 6631337360 -->
<g id="node7" class="node">
<title>6631337360</title>
<ellipse fill="none" stroke="black" cx="266.42" cy="-1611" rx="27" ry="18"/>
<text text-anchor="middle" x="266.42" y="-1605.38" font-family="Times,serif" font-size="15.00">and</text>
</g>
<!-- 6626321808&#45;&#45;6631337360 -->
<g id="edge10" class="edge">
<title>6626321808&#45;&#45;6631337360</title>
<path fill="none" stroke="black" d="M39.77,-1303.07C80.2,-1358.23 213.05,-1539.53 253.58,-1594.84"/>
</g>
<!-- 6631330960 -->
<g id="node12" class="node">
<title>6631330960</title>
<ellipse fill="none" stroke="black" cx="266.42" cy="-1557" rx="160.64" ry="18"/>
<text text-anchor="middle" x="266.42" y="-1551.38" font-family="Times,serif" font-size="15.00">forward to the competent authority</text>
</g>
<!-- 6626321808&#45;&#45;6631330960 -->
<g id="edge11" class="edge">
<title>6626321808&#45;&#45;6631330960</title>
<path fill="none" stroke="black" d="M41.45,-1302.29C82.35,-1348.81 205.2,-1488.51 249.38,-1538.75"/>
</g>
<!-- 6631342032 -->
<g id="node13" class="node">
<title>6631342032</title>
<ellipse fill="none" stroke="black" cx="266.42" cy="-1503" rx="125.39" ry="18"/>
<text text-anchor="middle" x="266.42" y="-1497.38" font-family="Times,serif" font-size="15.00">inform BAG administrator</text>
</g>
<!-- 6626321808&#45;&#45;6631342032 -->
<g id="edge12" class="edge">
<title>6626321808&#45;&#45;6631342032</title>
<path fill="none" stroke="black" d="M43.95,-1301.51C85.95,-1339.72 199.56,-1443.08 245.62,-1484.99"/>
</g>
<!-- 6631339280 -->
<g id="node14" class="node">
<title>6631339280</title>
<ellipse fill="none" stroke="black" cx="266.42" cy="-1449" rx="124.86" ry="18"/>
<text text-anchor="middle" x="266.42" y="-1443.38" font-family="Times,serif" font-size="15.00">phase application received</text>
</g>
<!-- 6626321808&#45;&#45;6631339280 -->
<g id="edge13" class="edge">
<title>6626321808&#45;&#45;6631339280</title>
<path fill="none" stroke="black" d="M46.63,-1299.71C88.61,-1328.35 190.69,-1398.01 239.11,-1431.04"/>
</g>
<!-- 6631330448 -->
<g id="node15" class="node">
<title>6631330448</title>
<ellipse fill="none" stroke="black" cx="266.42" cy="-1395" rx="147.49" ry="18"/>
<text text-anchor="middle" x="266.42" y="-1389.38" font-family="Times,serif" font-size="15.00">regular procedure without MER</text>
</g>
<!-- 6626321808&#45;&#45;6631330448 -->
<g id="edge14" class="edge">
<title>6626321808&#45;&#45;6631330448</title>
<path fill="none" stroke="black" d="M49.91,-1296.97C90.09,-1315.24 176.04,-1354.34 226.42,-1377.26"/>
</g>
<!-- 6631333136 -->
<g id="node16" class="node">
<title>6631333136</title>
<ellipse fill="none" stroke="black" cx="266.42" cy="-1341" rx="67.52" ry="18"/>
<text text-anchor="middle" x="266.42" y="-1335.38" font-family="Times,serif" font-size="15.00">MER present</text>
</g>
<!-- 6626321808&#45;&#45;6631333136 -->
<g id="edge15" class="edge">
<title>6626321808&#45;&#45;6631333136</title>
<path fill="none" stroke="black" d="M52.96,-1292.68C91.06,-1301.34 164.53,-1318.05 214.27,-1329.37"/>
</g>
<!-- 6631331472 -->
<g id="node17" class="node">
<title>6631331472</title>
<ellipse fill="none" stroke="black" cx="266.42" cy="-1287" rx="129.07" ry="18"/>
<text text-anchor="middle" x="266.42" y="-1281.38" font-family="Times,serif" font-size="15.00">activities regular procedure</text>
</g>
<!-- 6626321808&#45;&#45;6631331472 -->
<g id="edge16" class="edge">
<title>6626321808&#45;&#45;6631331472</title>
<path fill="none" stroke="black" d="M54.32,-1287C75.02,-1287 105.54,-1287 136.98,-1287"/>
</g>
<!-- 6631329744 -->
<g id="node18" class="node">
<title>6631329744</title>
<ellipse fill="none" stroke="black" cx="266.42" cy="-1233" rx="134.86" ry="18"/>
<text text-anchor="middle" x="266.42" y="-1227.38" font-family="Times,serif" font-size="15.00">read field phased application</text>
</g>
<!-- 6626321808&#45;&#45;6631329744 -->
<g id="edge17" class="edge">
<title>6626321808&#45;&#45;6631329744</title>
<path fill="none" stroke="black" d="M52.96,-1281.32C86.65,-1273.66 148.01,-1259.7 196.16,-1248.75"/>
</g>
<!-- 6631334992 -->
<g id="node19" class="node">
<title>6631334992</title>
<ellipse fill="none" stroke="black" cx="266.42" cy="-1179" rx="27" ry="18"/>
<text text-anchor="middle" x="266.42" y="-1173.38" font-family="Times,serif" font-size="15.00">and</text>
</g>
<!-- 6626321808&#45;&#45;6631334992 -->
<g id="edge20" class="edge">
<title>6626321808&#45;&#45;6631334992</title>
<path fill="none" stroke="black" d="M49.91,-1277.03C95.14,-1256.46 198.38,-1209.5 243.56,-1188.94"/>
</g>
<!-- 6631331984 -->
<g id="node22" class="node">
<title>6631331984</title>
<ellipse fill="none" stroke="black" cx="266.42" cy="-1125" rx="42.79" ry="18"/>
<text text-anchor="middle" x="266.42" y="-1119.38" font-family="Times,serif" font-size="15.00">publish</text>
</g>
<!-- 6626321808&#45;&#45;6631331984 -->
<g id="edge21" class="edge">
<title>6626321808&#45;&#45;6631331984</title>
<path fill="none" stroke="black" d="M46.63,-1274.29C89.7,-1244.9 196.05,-1172.34 242.78,-1140.45"/>
</g>
<!-- 6631326416 -->
<g id="node23" class="node">
<title>6631326416</title>
<ellipse fill="none" stroke="black" cx="266.42" cy="-1071" rx="137.49" ry="18"/>
<text text-anchor="middle" x="266.42" y="-1065.38" font-family="Times,serif" font-size="15.00">create subcases completeness</text>
</g>
<!-- 6626321808&#45;&#45;6631326416 -->
<g id="edge22" class="edge">
<title>6626321808&#45;&#45;6631326416</title>
<path fill="none" stroke="black" d="M43.95,-1272.49C85.95,-1234.28 199.56,-1130.92 245.62,-1089.01"/>
</g>
<!-- 6631330704 -->
<g id="node24" class="node">
<title>6631330704</title>
<ellipse fill="none" stroke="black" cx="266.42" cy="-1017" rx="86.46" ry="18"/>
<text text-anchor="middle" x="266.42" y="-1011.38" font-family="Times,serif" font-size="15.00">procedure change</text>
</g>
<!-- 6626321808&#45;&#45;6631330704 -->
<g id="edge23" class="edge">
<title>6626321808&#45;&#45;6631330704</title>
<path fill="none" stroke="black" d="M41.45,-1271.71C82.45,-1225.08 205.79,-1084.82 249.69,-1034.89"/>
</g>
<!-- 6631327440 -->
<g id="node25" class="node">
<title>6631327440</title>
<ellipse fill="none" stroke="black" cx="266.42" cy="-963" rx="27" ry="18"/>
<text text-anchor="middle" x="266.42" y="-957.38" font-family="Times,serif" font-size="15.00">xor</text>
</g>
<!-- 6626321808&#45;&#45;6631327440 -->
<g id="edge29" class="edge">
<title>6626321808&#45;&#45;6631327440</title>
<path fill="none" stroke="black" d="M39.77,-1270.93C80.2,-1215.77 213.05,-1034.47 253.58,-979.16"/>
</g>
<!-- 6631341456 -->
<g id="node31" class="node">
<title>6631341456</title>
<ellipse fill="none" stroke="black" cx="266.42" cy="-909" rx="134.33" ry="18"/>
<text text-anchor="middle" x="266.42" y="-903.38" font-family="Times,serif" font-size="15.00">send procedure confirmation</text>
</g>
<!-- 6626321808&#45;&#45;6631341456 -->
<g id="edge30" class="edge">
<title>6626321808&#45;&#45;6631341456</title>
<path fill="none" stroke="black" d="M38.51,-1270.27C77.46,-1208.26 213.42,-991.8 253.94,-927.28"/>
</g>
<!-- 6631328208 -->
<g id="node32" class="node">
<title>6631328208</title>
<ellipse fill="none" stroke="black" cx="266.42" cy="-855" rx="176.42" ry="18"/>
<text text-anchor="middle" x="266.42" y="-849.38" font-family="Times,serif" font-size="15.00">enter senddate procedure confirmation</text>
</g>
<!-- 6626321808&#45;&#45;6631328208 -->
<g id="edge31" class="edge">
<title>6626321808&#45;&#45;6631328208</title>
<path fill="none" stroke="black" d="M37.31,-1270.07C75.03,-1201.43 216.39,-944.22 255.4,-873.24"/>
</g>
<!-- 6631331216 -->
<g id="node33" class="node">
<title>6631331216</title>
<ellipse fill="none" stroke="black" cx="266.42" cy="-693" rx="27" ry="18"/>
<text text-anchor="middle" x="266.42" y="-687.38" font-family="Times,serif" font-size="15.00">xor</text>
</g>
<!-- 6626321808&#45;&#45;6631331216 -->
<g id="edge65" class="edge">
<title>6626321808&#45;&#45;6631331216</title>
<path fill="none" stroke="black" d="M34.98,-1269.54C69.71,-1182.64 223.71,-797.36 258.44,-710.46"/>
</g>
<!-- 6631330256 -->
<g id="node5" class="node">
<title>6631330256</title>
<ellipse fill="black" stroke="black" cx="642.64" cy="-1704" rx="2.7" ry="2.7"/>
</g>
<!-- 6631681872&#45;&#45;6631330256 -->
<g id="edge3" class="edge">
<title>6631681872&#45;&#45;6631330256</title>
<path fill="none" stroke="black" d="M293.44,-1667.71C373.99,-1676.11 615.36,-1701.26 639.66,-1703.79"/>
</g>
<!-- 6631557648 -->
<g id="node6" class="node">
<title>6631557648</title>
<ellipse fill="none" stroke="black" cx="642.64" cy="-1665" rx="163.8" ry="18"/>
<text text-anchor="middle" x="642.64" y="-1659.38" font-family="Times,serif" font-size="15.00">application submitted through OLO</text>
</g>
<!-- 6631681872&#45;&#45;6631557648 -->
<g id="edge4" class="edge">
<title>6631681872&#45;&#45;6631557648</title>
<path fill="none" stroke="black" d="M293.74,-1665C332.42,-1665 407.71,-1665 478.38,-1665"/>
</g>
<!-- 6631339152 -->
<g id="node8" class="node">
<title>6631339152</title>
<ellipse fill="none" stroke="black" cx="642.64" cy="-1611" rx="112.76" ry="18"/>
<text text-anchor="middle" x="642.64" y="-1605.38" font-family="Times,serif" font-size="15.00">applicant is stakeholder</text>
</g>
<!-- 6631337360&#45;&#45;6631339152 -->
<g id="edge6" class="edge">
<title>6631337360&#45;&#45;6631339152</title>
<path fill="none" stroke="black" d="M293.74,-1611C342.07,-1611 447.55,-1611 529.78,-1611"/>
</g>
<!-- 6631337936 -->
<g id="node9" class="node">
<title>6631337936</title>
<ellipse fill="none" stroke="black" cx="642.64" cy="-1557" rx="47" ry="18"/>
<text text-anchor="middle" x="642.64" y="-1551.38" font-family="Times,serif" font-size="15.00">xor loop</text>
</g>
<!-- 6631337360&#45;&#45;6631337936 -->
<g id="edge9" class="edge">
<title>6631337360&#45;&#45;6631337936</title>
<path fill="none" stroke="black" d="M293.14,-1607.29C356.31,-1598.17 519.6,-1574.61 598.16,-1563.27"/>
</g>
<!-- 6631327952 -->
<g id="node10" class="node">
<title>6631327952</title>
<ellipse fill="none" stroke="black" cx="1049.37" cy="-1577" rx="121.18" ry="18"/>
<text text-anchor="middle" x="1049.37" y="-1571.38" font-family="Times,serif" font-size="15.00">send confirmation receipt</text>
</g>
<!-- 6631337936&#45;&#45;6631327952 -->
<g id="edge7" class="edge">
<title>6631337936&#45;&#45;6631327952</title>
<path fill="none" stroke="black" d="M689.67,-1559.27C748.62,-1562.19 852.81,-1567.34 933.76,-1571.34"/>
</g>
<!-- 6631327376 -->
<g id="node11" class="node">
<title>6631327376</title>
<ellipse fill="black" stroke="black" cx="1049.37" cy="-1538" rx="2.7" ry="2.7"/>
</g>
<!-- 6631337936&#45;&#45;6631327376 -->
<g id="edge8" class="edge">
<title>6631337936&#45;&#45;6631327376</title>
<path fill="none" stroke="black" d="M689.67,-1554.84C790.37,-1550.11 1023.09,-1539.19 1046.47,-1538.09"/>
</g>
<!-- 6631340752 -->
<g id="node20" class="node">
<title>6631340752</title>
<ellipse fill="none" stroke="black" cx="642.64" cy="-1206" rx="140.65" ry="18"/>
<text text-anchor="middle" x="642.64" y="-1200.38" font-family="Times,serif" font-size="15.00">create procedure confirmation</text>
</g>
<!-- 6631334992&#45;&#45;6631340752 -->
<g id="edge18" class="edge">
<title>6631334992&#45;&#45;6631340752</title>
<path fill="none" stroke="black" d="M293.74,-1180.9C339.99,-1184.24 438.58,-1191.35 519.04,-1197.15"/>
</g>
<!-- 6631335312 -->
<g id="node21" class="node">
<title>6631335312</title>
<ellipse fill="none" stroke="black" cx="642.64" cy="-1152" rx="105.92" ry="18"/>
<text text-anchor="middle" x="642.64" y="-1146.38" font-family="Times,serif" font-size="15.00">start WABOprocedure</text>
</g>
<!-- 6631334992&#45;&#45;6631335312 -->
<g id="edge19" class="edge">
<title>6631334992&#45;&#45;6631335312</title>
<path fill="none" stroke="black" d="M293.74,-1177.1C344.98,-1173.4 460.47,-1165.07 544.36,-1159.02"/>
</g>
<!-- 6631340432 -->
<g id="node26" class="node">
<title>6631340432</title>
<ellipse fill="none" stroke="black" cx="642.64" cy="-1017" rx="91.19" ry="18"/>
<text text-anchor="middle" x="642.64" y="-1011.38" font-family="Times,serif" font-size="15.00">phased application</text>
</g>
<!-- 6631327440&#45;&#45;6631340432 -->
<g id="edge24" class="edge">
<title>6631327440&#45;&#45;6631340432</title>
<path fill="none" stroke="black" d="M293.14,-966.71C349.04,-974.78 483.35,-994.16 567.96,-1006.37"/>
</g>
<!-- 6631339024 -->
<g id="node27" class="node">
<title>6631339024</title>
<ellipse fill="none" stroke="black" cx="642.64" cy="-963" rx="27" ry="18"/>
<text text-anchor="middle" x="642.64" y="-957.38" font-family="Times,serif" font-size="15.00">seq</text>
</g>
<!-- 6631327440&#45;&#45;6631339024 -->
<g id="edge28" class="edge">
<title>6631327440&#45;&#45;6631339024</title>
<path fill="none" stroke="black" d="M293.74,-963C362.45,-963 546.68,-963 615.35,-963"/>
</g>
<!-- 6631341776 -->
<g id="node28" class="node">
<title>6631341776</title>
<ellipse fill="none" stroke="black" cx="1049.37" cy="-1044" rx="84.35" ry="18"/>
<text text-anchor="middle" x="1049.37" y="-1038.38" font-family="Times,serif" font-size="15.00">request complete</text>
</g>
<!-- 6631339024&#45;&#45;6631341776 -->
<g id="edge25" class="edge">
<title>6631339024&#45;&#45;6631341776</title>
<path fill="none" stroke="black" d="M668.96,-968.07C731.78,-980.64 896.24,-1013.55 986.64,-1031.64"/>
</g>
<!-- 6631336592 -->
<g id="node29" class="node">
<title>6631336592</title>
<ellipse fill="none" stroke="black" cx="1049.37" cy="-990" rx="148.01" ry="18"/>
<text text-anchor="middle" x="1049.37" y="-984.38" font-family="Times,serif" font-size="15.00">term for supplying missing data</text>
</g>
<!-- 6631339024&#45;&#45;6631336592 -->
<g id="edge26" class="edge">
<title>6631339024&#45;&#45;6631336592</title>
<path fill="none" stroke="black" d="M669.88,-964.75C719.37,-968.05 829.47,-975.4 918.24,-981.32"/>
</g>
<!-- 6631331344 -->
<g id="node30" class="node">
<title>6631331344</title>
<ellipse fill="none" stroke="black" cx="1049.37" cy="-936" rx="166.43" ry="18"/>
<text text-anchor="middle" x="1049.37" y="-930.38" font-family="Times,serif" font-size="15.00">create letter requesting missing data</text>
</g>
<!-- 6631339024&#45;&#45;6631331344 -->
<g id="edge27" class="edge">
<title>6631339024&#45;&#45;6631331344</title>
<path fill="none" stroke="black" d="M669.88,-961.25C717.18,-958.09 819.85,-951.25 906.33,-945.48"/>
</g>
<!-- 6631328144 -->
<g id="node34" class="node">
<title>6631328144</title>
<ellipse fill="none" stroke="black" cx="642.64" cy="-720" rx="97.51" ry="18"/>
<text text-anchor="middle" x="642.64" y="-714.38" font-family="Times,serif" font-size="15.00">WAW permit aspect</text>
</g>
<!-- 6631331216&#45;&#45;6631328144 -->
<g id="edge32" class="edge">
<title>6631331216&#45;&#45;6631328144</title>
<path fill="none" stroke="black" d="M293.74,-694.9C346.39,-698.7 466.89,-707.39 551.24,-713.48"/>
</g>
<!-- 6631340688 -->
<g id="node35" class="node">
<title>6631340688</title>
<ellipse fill="none" stroke="black" cx="642.64" cy="-666" rx="27" ry="18"/>
<text text-anchor="middle" x="642.64" y="-660.38" font-family="Times,serif" font-size="15.00">seq</text>
</g>
<!-- 6631331216&#45;&#45;6631340688 -->
<g id="edge42" class="edge">
<title>6631331216&#45;&#45;6631340688</title>
<path fill="none" stroke="black" d="M293.74,-691.1C362.45,-686.14 546.68,-672.85 615.35,-667.9"/>
</g>
<!-- 6630508048 -->
<g id="node45" class="node">
<title>6630508048</title>
<ellipse fill="none" stroke="black" cx="642.64" cy="-234" rx="27" ry="18"/>
<text text-anchor="middle" x="642.64" y="-228.38" font-family="Times,serif" font-size="15.00">seq</text>
</g>
<!-- 6631331216&#45;&#45;6630508048 -->
<g id="edge64" class="edge">
<title>6631331216&#45;&#45;6630508048</title>
<path fill="none" stroke="black" d="M280.3,-677.2C337.88,-606.58 571.35,-320.22 628.81,-249.73"/>
</g>
<!-- 6631678800 -->
<g id="node36" class="node">
<title>6631678800</title>
<ellipse fill="none" stroke="black" cx="1049.37" cy="-882" rx="158.01" ry="18"/>
<text text-anchor="middle" x="1049.37" y="-876.38" font-family="Times,serif" font-size="15.00">create decision no permit required</text>
</g>
<!-- 6631340688&#45;&#45;6631678800 -->
<g id="edge33" class="edge">
<title>6631340688&#45;&#45;6631678800</title>
<path fill="none" stroke="black" d="M664.55,-677.16C730.35,-712.28 933.61,-820.75 1014.58,-863.97"/>
</g>
<!-- 6632054992 -->
<g id="node37" class="node">
<title>6632054992</title>
<ellipse fill="none" stroke="black" cx="1049.37" cy="-828" rx="206.94" ry="18"/>
<text text-anchor="middle" x="1049.37" y="-822.38" font-family="Times,serif" font-size="15.00">set decision phase no permit required decided</text>
</g>
<!-- 6631340688&#45;&#45;6632054992 -->
<g id="edge34" class="edge">
<title>6631340688&#45;&#45;6632054992</title>
<path fill="none" stroke="black" d="M666.27,-675.06C730.86,-700.91 916.99,-775.41 1003.36,-809.98"/>
</g>
<!-- 6632062416 -->
<g id="node38" class="node">
<title>6632062416</title>
<ellipse fill="none" stroke="black" cx="1049.37" cy="-774" rx="89.09" ry="18"/>
<text text-anchor="middle" x="1049.37" y="-768.38" font-family="Times,serif" font-size="15.00">set decision status</text>
</g>
<!-- 6631340688&#45;&#45;6632062416 -->
<g id="edge35" class="edge">
<title>6631340688&#45;&#45;6632062416</title>
<path fill="none" stroke="black" d="M668.05,-672.51C731.88,-689.55 904.97,-735.74 993.95,-759.48"/>
</g>
<!-- 6632058832 -->
<g id="node39" class="node">
<title>6632058832</title>
<ellipse fill="none" stroke="black" cx="1049.37" cy="-720" rx="140.65" ry="18"/>
<text text-anchor="middle" x="1049.37" y="-714.38" font-family="Times,serif" font-size="15.00">decision date prior to decision</text>
</g>
<!-- 6631340688&#45;&#45;6632058832 -->
<g id="edge36" class="edge">
<title>6631340688&#45;&#45;6632058832</title>
<path fill="none" stroke="black" d="M669.57,-669.46C725.05,-676.86 857.74,-694.57 950.33,-706.92"/>
</g>
<!-- 6632053520 -->
<g id="node40" class="node">
<title>6632053520</title>
<ellipse fill="none" stroke="black" cx="1049.37" cy="-666" rx="177.47" ry="18"/>
<text text-anchor="middle" x="1049.37" y="-660.38" font-family="Times,serif" font-size="15.00">generating decision no permit required</text>
</g>
<!-- 6631340688&#45;&#45;6632053520 -->
<g id="edge37" class="edge">
<title>6631340688&#45;&#45;6632053520</title>
<path fill="none" stroke="black" d="M669.88,-666C710.96,-666 793.81,-666 871.54,-666"/>
</g>
<!-- 6630513552 -->
<g id="node41" class="node">
<title>6630513552</title>
<ellipse fill="none" stroke="black" cx="1049.37" cy="-612" rx="191.68" ry="18"/>
<text text-anchor="middle" x="1049.37" y="-606.38" font-family="Times,serif" font-size="15.00">record date of decision no permit required</text>
</g>
<!-- 6631340688&#45;&#45;6630513552 -->
<g id="edge38" class="edge">
<title>6631340688&#45;&#45;6630513552</title>
<path fill="none" stroke="black" d="M669.57,-662.54C722.35,-655.5 844.99,-639.14 936.52,-626.92"/>
</g>
<!-- 6630512656 -->
<g id="node42" class="node">
<title>6630512656</title>
<ellipse fill="none" stroke="black" cx="1049.37" cy="-558" rx="153.27" ry="18"/>
<text text-anchor="middle" x="1049.37" y="-552.38" font-family="Times,serif" font-size="15.00">phase activity no permit required</text>
</g>
<!-- 6631340688&#45;&#45;6630512656 -->
<g id="edge39" class="edge">
<title>6631340688&#45;&#45;6630512656</title>
<path fill="none" stroke="black" d="M668.05,-659.49C729.91,-642.98 894.42,-599.08 985.5,-574.78"/>
</g>
<!-- 6630520208 -->
<g id="node43" class="node">
<title>6630520208</title>
<ellipse fill="none" stroke="black" cx="1049.37" cy="-504" rx="180.1" ry="18"/>
<text text-anchor="middle" x="1049.37" y="-498.38" font-family="Times,serif" font-size="15.00">creating cover letter no permit required</text>
</g>
<!-- 6631340688&#45;&#45;6630520208 -->
<g id="edge40" class="edge">
<title>6631340688&#45;&#45;6630520208</title>
<path fill="none" stroke="black" d="M666.27,-656.94C730.94,-631.06 917.47,-556.4 1003.69,-521.88"/>
</g>
<!-- 6630508112 -->
<g id="node44" class="node">
<title>6630508112</title>
<ellipse fill="none" stroke="black" cx="1049.37" cy="-450" rx="155.38" ry="18"/>
<text text-anchor="middle" x="1049.37" y="-444.38" font-family="Times,serif" font-size="15.00">generate letter no permit required</text>
</g>
<!-- 6631340688&#45;&#45;6630508112 -->
<g id="edge41" class="edge">
<title>6631340688&#45;&#45;6630508112</title>
<path fill="none" stroke="black" d="M664.55,-654.84C730.43,-619.68 934.11,-510.98 1014.88,-467.88"/>
</g>
<!-- 6630512208 -->
<g id="node46" class="node">
<title>6630512208</title>
<ellipse fill="none" stroke="black" cx="1049.37" cy="-396" rx="27" ry="18"/>
<text text-anchor="middle" x="1049.37" y="-390.38" font-family="Times,serif" font-size="15.00">xor</text>
</g>
<!-- 6630508048&#45;&#45;6630512208 -->
<g id="edge50" class="edge">
<title>6630508048&#45;&#45;6630512208</title>
<path fill="none" stroke="black" d="M666.27,-243.06C737.18,-271.44 954.61,-358.47 1025.65,-386.91"/>
</g>
<!-- 6630512592 -->
<g id="node54" class="node">
<title>6630512592</title>
<ellipse fill="none" stroke="black" cx="1049.37" cy="-342" rx="99.08" ry="18"/>
<text text-anchor="middle" x="1049.37" y="-336.38" font-family="Times,serif" font-size="15.00">terminate on request</text>
</g>
<!-- 6630508048&#45;&#45;6630512592 -->
<g id="edge51" class="edge">
<title>6630508048&#45;&#45;6630512592</title>
<path fill="none" stroke="black" d="M668.05,-240.51C731.45,-257.43 902.66,-303.12 992.15,-327"/>
</g>
<!-- 6630508752 -->
<g id="node55" class="node">
<title>6630508752</title>
<ellipse fill="none" stroke="black" cx="1049.37" cy="-288" rx="178.53" ry="18"/>
<text text-anchor="middle" x="1049.37" y="-282.38" font-family="Times,serif" font-size="15.00">enter date termination request received</text>
</g>
<!-- 6630508048&#45;&#45;6630508752 -->
<g id="edge52" class="edge">
<title>6630508048&#45;&#45;6630508752</title>
<path fill="none" stroke="black" d="M669.57,-237.46C722.87,-244.57 847.43,-261.19 939.23,-273.44"/>
</g>
<!-- 6630514960 -->
<g id="node56" class="node">
<title>6630514960</title>
<ellipse fill="none" stroke="black" cx="1049.37" cy="-234" rx="27" ry="18"/>
<text text-anchor="middle" x="1049.37" y="-228.38" font-family="Times,serif" font-size="15.00">and</text>
</g>
<!-- 6630508048&#45;&#45;6630514960 -->
<g id="edge55" class="edge">
<title>6630508048&#45;&#45;6630514960</title>
<path fill="none" stroke="black" d="M669.88,-234C743.02,-234 948.55,-234 1021.92,-234"/>
</g>
<!-- 6630518288 -->
<g id="node59" class="node">
<title>6630518288</title>
<ellipse fill="none" stroke="black" cx="1049.37" cy="-180" rx="82.77" ry="18"/>
<text text-anchor="middle" x="1049.37" y="-174.38" font-family="Times,serif" font-size="15.00">register deadline</text>
</g>
<!-- 6630508048&#45;&#45;6630518288 -->
<g id="edge56" class="edge">
<title>6630508048&#45;&#45;6630518288</title>
<path fill="none" stroke="black" d="M669.57,-230.54C730.81,-222.37 886.11,-201.65 977.73,-189.43"/>
</g>
<!-- 6630520592 -->
<g id="node60" class="node">
<title>6630520592</title>
<ellipse fill="none" stroke="black" cx="1049.37" cy="-126" rx="27" ry="18"/>
<text text-anchor="middle" x="1049.37" y="-120.38" font-family="Times,serif" font-size="15.00">xor</text>
</g>
<!-- 6630508048&#45;&#45;6630520592 -->
<g id="edge61" class="edge">
<title>6630508048&#45;&#45;6630520592</title>
<path fill="none" stroke="black" d="M668.05,-227.49C740.08,-208.26 951.27,-151.91 1023.68,-132.59"/>
</g>
<!-- 6630522640 -->
<g id="node65" class="node">
<title>6630522640</title>
<ellipse fill="none" stroke="black" cx="1049.37" cy="-72" rx="115.39" ry="18"/>
<text text-anchor="middle" x="1049.37" y="-66.38" font-family="Times,serif" font-size="15.00">phase procedure aborted</text>
</g>
<!-- 6630508048&#45;&#45;6630522640 -->
<g id="edge62" class="edge">
<title>6630508048&#45;&#45;6630522640</title>
<path fill="none" stroke="black" d="M666.27,-224.94C731.44,-198.86 920.36,-123.24 1005.67,-89.09"/>
</g>
<!-- 6631570384 -->
<g id="node66" class="node">
<title>6631570384</title>
<ellipse fill="none" stroke="black" cx="1049.37" cy="-18" rx="54.36" ry="18"/>
<text text-anchor="middle" x="1049.37" y="-12.38" font-family="Times,serif" font-size="15.00">close case</text>
</g>
<!-- 6630508048&#45;&#45;6631570384 -->
<g id="edge63" class="edge">
<title>6630508048&#45;&#45;6631570384</title>
<path fill="none" stroke="black" d="M664.55,-222.84C731.72,-186.99 942.17,-74.68 1019.5,-33.41"/>
</g>
<!-- 6630512848 -->
<g id="node47" class="node">
<title>6630512848</title>
<ellipse fill="none" stroke="black" cx="1451.37" cy="-409" rx="27" ry="18"/>
<text text-anchor="middle" x="1451.37" y="-403.38" font-family="Times,serif" font-size="15.00">seq</text>
</g>
<!-- 6630512208&#45;&#45;6630512848 -->
<g id="edge46" class="edge">
<title>6630512208&#45;&#45;6630512848</title>
<path fill="none" stroke="black" d="M1076.62,-396.85C1149.09,-399.21 1351.44,-405.78 1424.03,-408.14"/>
</g>
<!-- 6630507856 -->
<g id="node51" class="node">
<title>6630507856</title>
<ellipse fill="none" stroke="black" cx="1451.37" cy="-330" rx="27" ry="18"/>
<text text-anchor="middle" x="1451.37" y="-324.38" font-family="Times,serif" font-size="15.00">seq</text>
</g>
<!-- 6630512208&#45;&#45;6630507856 -->
<g id="edge49" class="edge">
<title>6630512208&#45;&#45;6630507856</title>
<path fill="none" stroke="black" d="M1076,-391.77C1148.16,-379.86 1352.48,-346.15 1424.69,-334.24"/>
</g>
<!-- 6630517584 -->
<g id="node48" class="node">
<title>6630517584</title>
<ellipse fill="none" stroke="black" cx="1912.82" cy="-492" rx="148.01" ry="18"/>
<text text-anchor="middle" x="1912.82" y="-486.38" font-family="Times,serif" font-size="15.00">phase only notification required</text>
</g>
<!-- 6630512848&#45;&#45;6630517584 -->
<g id="edge43" class="edge">
<title>6630512848&#45;&#45;6630517584</title>
<path fill="none" stroke="black" d="M1477.73,-413.58C1543.47,-425.46 1721.73,-457.66 1828.26,-476.91"/>
</g>
<!-- 6630509200 -->
<g id="node49" class="node">
<title>6630509200</title>
<ellipse fill="none" stroke="black" cx="1912.82" cy="-438" rx="266.39" ry="18"/>
<text text-anchor="middle" x="1912.82" y="-432.38" font-family="Times,serif" font-size="15.00">enter senddate letter no permit or only notification required</text>
</g>
<!-- 6630512848&#45;&#45;6630509200 -->
<g id="edge44" class="edge">
<title>6630512848&#45;&#45;6630509200</title>
<path fill="none" stroke="black" d="M1478.72,-410.66C1524.72,-413.57 1623.53,-419.8 1715.17,-425.59"/>
</g>
<!-- 6630514448 -->
<g id="node50" class="node">
<title>6630514448</title>
<ellipse fill="none" stroke="black" cx="1912.82" cy="-384" rx="230.61" ry="18"/>
<text text-anchor="middle" x="1912.82" y="-378.38" font-family="Times,serif" font-size="15.00">create letter no permit or only notification required</text>
</g>
<!-- 6630512848&#45;&#45;6630514448 -->
<g id="edge45" class="edge">
<title>6630512848&#45;&#45;6630514448</title>
<path fill="none" stroke="black" d="M1478.72,-407.57C1525.77,-405.01 1628.06,-399.44 1721.42,-394.36"/>
</g>
<!-- 6630519696 -->
<g id="node52" class="node">
<title>6630519696</title>
<ellipse fill="none" stroke="black" cx="1912.82" cy="-330" rx="139.07" ry="18"/>
<text text-anchor="middle" x="1912.82" y="-324.38" font-family="Times,serif" font-size="15.00">initiative competent authority</text>
</g>
<!-- 6630507856&#45;&#45;6630519696 -->
<g id="edge47" class="edge">
<title>6630507856&#45;&#45;6630519696</title>
<path fill="none" stroke="black" d="M1478.72,-330C1534.73,-330 1669.03,-330 1773.35,-330"/>
</g>
<!-- 6630513040 -->
<g id="node53" class="node">
<title>6630513040</title>
<ellipse fill="none" stroke="black" cx="1912.82" cy="-276" rx="153.27" ry="18"/>
<text text-anchor="middle" x="1912.82" y="-270.38" font-family="Times,serif" font-size="15.00">create message terminate request</text>
</g>
<!-- 6630507856&#45;&#45;6630513040 -->
<g id="edge48" class="edge">
<title>6630507856&#45;&#45;6630513040</title>
<path fill="none" stroke="black" d="M1478.39,-326.94C1539.61,-319.75 1695.67,-301.4 1802.8,-288.81"/>
</g>
<!-- 6630517776 -->
<g id="node57" class="node">
<title>6630517776</title>
<ellipse fill="none" stroke="black" cx="1451.37" cy="-249" rx="124.86" ry="18"/>
<text text-anchor="middle" x="1451.37" y="-243.38" font-family="Times,serif" font-size="15.00">message terminate request</text>
</g>
<!-- 6630514960&#45;&#45;6630517776 -->
<g id="edge53" class="edge">
<title>6630514960&#45;&#45;6630517776</title>
<path fill="none" stroke="black" d="M1076.62,-234.98C1127.19,-236.88 1241.01,-241.15 1329.85,-244.48"/>
</g>
<!-- 6630522384 -->
<g id="node58" class="node">
<title>6630522384</title>
<ellipse fill="none" stroke="black" cx="1451.37" cy="-195" rx="159.06" ry="18"/>
<text text-anchor="middle" x="1451.37" y="-189.38" font-family="Times,serif" font-size="15.00">enter senddate request termination</text>
</g>
<!-- 6630514960&#45;&#45;6630522384 -->
<g id="edge54" class="edge">
<title>6630514960&#45;&#45;6630522384</title>
<path fill="none" stroke="black" d="M1076.31,-231.47C1126.6,-226.57 1240.24,-215.49 1329.16,-206.82"/>
</g>
<!-- 6630510224 -->
<g id="node61" class="node">
<title>6630510224</title>
<ellipse fill="black" stroke="black" cx="1451.37" cy="-149" rx="2.7" ry="2.7"/>
</g>
<!-- 6630520592&#45;&#45;6630510224 -->
<g id="edge57" class="edge">
<title>6630520592&#45;&#45;6630510224</title>
<path fill="none" stroke="black" d="M1076.62,-127.51C1161.09,-132.37 1421.95,-147.37 1448.23,-148.88"/>
</g>
<!-- 6630518800 -->
<g id="node62" class="node">
<title>6630518800</title>
<ellipse fill="none" stroke="black" cx="1451.37" cy="-110" rx="27" ry="18"/>
<text text-anchor="middle" x="1451.37" y="-104.38" font-family="Times,serif" font-size="15.00">seq</text>
</g>
<!-- 6630520592&#45;&#45;6630518800 -->
<g id="edge60" class="edge">
<title>6630520592&#45;&#45;6630518800</title>
<path fill="none" stroke="black" d="M1076.62,-124.95C1149.09,-122.05 1351.44,-113.96 1424.03,-111.05"/>
</g>
<!-- 6630518992 -->
<g id="node63" class="node">
<title>6630518992</title>
<ellipse fill="none" stroke="black" cx="1912.82" cy="-137" rx="131.7" ry="18"/>
<text text-anchor="middle" x="1912.82" y="-131.38" font-family="Times,serif" font-size="15.00">stop all running subcases 2b</text>
</g>
<!-- 6630518800&#45;&#45;6630518992 -->
<g id="edge58" class="edge">
<title>6630518800&#45;&#45;6630518992</title>
<path fill="none" stroke="black" d="M1478.72,-111.55C1537.93,-115.03 1684.6,-123.65 1790.89,-129.89"/>
</g>
<!-- 6630507344 -->
<g id="node64" class="node">
<title>6630507344</title>
<ellipse fill="none" stroke="black" cx="1912.82" cy="-83" rx="184.31" ry="18"/>
<text text-anchor="middle" x="1912.82" y="-77.38" font-family="Times,serif" font-size="15.00">phase procedure prematurely terminated</text>
</g>
<!-- 6630518800&#45;&#45;6630507344 -->
<g id="edge59" class="edge">
<title>6630518800&#45;&#45;6630507344</title>
<path fill="none" stroke="black" d="M1478.72,-108.45C1531.21,-105.37 1652.43,-98.24 1753.31,-92.31"/>
</g>
</g>
</svg>
