<?xml version="1.0" encoding="UTF-8" standalone="no"?>
<!DOCTYPE svg PUBLIC "-//W3C//DTD SVG 1.1//EN"
 "http://www.w3.org/Graphics/SVG/1.1/DTD/svg11.dtd">
<!-- Generated by graphviz version 8.0.5 (20230430.1635)
 -->
<!-- Title: pt Pages: 1 -->
<svg width="2226pt" height="753pt"
 viewBox="0.00 0.00 2225.66 753.00" xmlns="http://www.w3.org/2000/svg" xmlns:xlink="http://www.w3.org/1999/xlink">
<g id="graph0" class="graph" transform="scale(1 1) rotate(0) translate(4 749)">
<title>pt</title>
<polygon fill="white" stroke="none" points="-4,4 -4,-749 2221.66,-749 2221.66,4 -4,4"/>
<!-- 6629216848 -->
<g id="node1" class="node">
<title>6629216848</title>
<ellipse fill="none" stroke="black" cx="27" cy="-619" rx="27" ry="18"/>
<text text-anchor="middle" x="27" y="-613.38" font-family="Times,serif" font-size="15.00">seq</text>
</g>
<!-- 6626994896 -->
<g id="node2" class="node">
<title>6626994896</title>
<ellipse fill="none" stroke="black" cx="239.06" cy="-727" rx="149.06" ry="18"/>
<text text-anchor="middle" x="239.06" y="-721.38" font-family="Times,serif" font-size="15.00">register submission date request</text>
</g>
<!-- 6629216848&#45;&#45;6626994896 -->
<g id="edge1" class="edge">
<title>6629216848&#45;&#45;6626994896</title>
<path fill="none" stroke="black" d="M48.91,-629.75C85.02,-648.32 159.43,-686.57 203.39,-709.17"/>
</g>
<!-- 6628873616 -->
<g id="node3" class="node">
<title>6628873616</title>
<ellipse fill="none" stroke="black" cx="239.06" cy="-673" rx="27" ry="18"/>
<text text-anchor="middle" x="239.06" y="-667.38" font-family="Times,serif" font-size="15.00">xor</text>
</g>
<!-- 6629216848&#45;&#45;6628873616 -->
<g id="edge4" class="edge">
<title>6629216848&#45;&#45;6628873616</title>
<path fill="none" stroke="black" d="M52.51,-625.3C92.88,-635.68 172.91,-656.25 213.39,-666.66"/>
</g>
<!-- 6628880208 -->
<g id="node6" class="node">
<title>6628880208</title>
<ellipse fill="none" stroke="black" cx="239.06" cy="-592" rx="27" ry="18"/>
<text text-anchor="middle" x="239.06" y="-586.38" font-family="Times,serif" font-size="15.00">and</text>
</g>
<!-- 6629216848&#45;&#45;6628880208 -->
<g id="edge21" class="edge">
<title>6629216848&#45;&#45;6628880208</title>
<path fill="none" stroke="black" d="M53.76,-615.69C94.08,-610.51 171.65,-600.54 212.1,-595.34"/>
</g>
<!-- 6628868880 -->
<g id="node23" class="node">
<title>6628868880</title>
<ellipse fill="none" stroke="black" cx="239.06" cy="-390" rx="27" ry="18"/>
<text text-anchor="middle" x="239.06" y="-384.38" font-family="Times,serif" font-size="15.00">xor</text>
</g>
<!-- 6629216848&#45;&#45;6628868880 -->
<g id="edge41" class="edge">
<title>6629216848&#45;&#45;6628868880</title>
<path fill="none" stroke="black" d="M42.11,-603.62C80.38,-561.9 185.82,-446.95 224.02,-405.31"/>
</g>
<!-- 6628871760 -->
<g id="node4" class="node">
<title>6628871760</title>
<ellipse fill="black" stroke="black" cx="548.99" cy="-726" rx="2.7" ry="2.7"/>
</g>
<!-- 6628873616&#45;&#45;6628871760 -->
<g id="edge2" class="edge">
<title>6628873616&#45;&#45;6628871760</title>
<path fill="none" stroke="black" d="M265.53,-677.38C335.27,-689.39 525.57,-722.14 546.18,-725.69"/>
</g>
<!-- 6628882256 -->
<g id="node5" class="node">
<title>6628882256</title>
<ellipse fill="none" stroke="black" cx="548.99" cy="-687" rx="108.55" ry="18"/>
<text text-anchor="middle" x="548.99" y="-681.38" font-family="Times,serif" font-size="15.00">OLO messaging active</text>
</g>
<!-- 6628873616&#45;&#45;6628882256 -->
<g id="edge3" class="edge">
<title>6628873616&#45;&#45;6628882256</title>
<path fill="none" stroke="black" d="M266.32,-674.19C305.3,-675.97 380.64,-679.39 443.61,-682.25"/>
</g>
<!-- 6628884112 -->
<g id="node7" class="node">
<title>6628884112</title>
<ellipse fill="none" stroke="black" cx="548.99" cy="-633" rx="112.76" ry="18"/>
<text text-anchor="middle" x="548.99" y="-627.38" font-family="Times,serif" font-size="15.00">applicant is stakeholder</text>
</g>
<!-- 6628880208&#45;&#45;6628884112 -->
<g id="edge5" class="edge">
<title>6628880208&#45;&#45;6628884112</title>
<path fill="none" stroke="black" d="M266.05,-595.46C308.61,-601.13 395.02,-612.63 461.03,-621.42"/>
</g>
<!-- 6628878800 -->
<g id="node8" class="node">
<title>6628878800</title>
<ellipse fill="none" stroke="black" cx="548.99" cy="-579" rx="124.86" ry="18"/>
<text text-anchor="middle" x="548.99" y="-573.38" font-family="Times,serif" font-size="15.00">phase application received</text>
</g>
<!-- 6628880208&#45;&#45;6628878800 -->
<g id="edge6" class="edge">
<title>6628880208&#45;&#45;6628878800</title>
<path fill="none" stroke="black" d="M266.32,-590.89C302.24,-589.38 369.06,-586.55 428.6,-584.04"/>
</g>
<!-- 6628880784 -->
<g id="node9" class="node">
<title>6628880784</title>
<ellipse fill="none" stroke="black" cx="548.99" cy="-525" rx="27" ry="18"/>
<text text-anchor="middle" x="548.99" y="-519.38" font-family="Times,serif" font-size="15.00">seq</text>
</g>
<!-- 6628880208&#45;&#45;6628880784 -->
<g id="edge20" class="edge">
<title>6628880208&#45;&#45;6628880784</title>
<path fill="none" stroke="black" d="M265.26,-586.52C323.15,-573.92 465.07,-543.04 522.88,-530.46"/>
</g>
<!-- 6628869072 -->
<g id="node10" class="node">
<title>6628869072</title>
<ellipse fill="none" stroke="black" cx="857.34" cy="-579" rx="47" ry="18"/>
<text text-anchor="middle" x="857.34" y="-573.38" font-family="Times,serif" font-size="15.00">xor loop</text>
</g>
<!-- 6628880784&#45;&#45;6628869072 -->
<g id="edge9" class="edge">
<title>6628880784&#45;&#45;6628869072</title>
<path fill="none" stroke="black" d="M575.58,-529.51C628.29,-538.8 749.4,-560.15 813.98,-571.53"/>
</g>
<!-- 6628874000 -->
<g id="node13" class="node">
<title>6628874000</title>
<ellipse fill="none" stroke="black" cx="857.34" cy="-525" rx="27" ry="18"/>
<text text-anchor="middle" x="857.34" y="-519.38" font-family="Times,serif" font-size="15.00">xor</text>
</g>
<!-- 6628880784&#45;&#45;6628874000 -->
<g id="edge19" class="edge">
<title>6628880784&#45;&#45;6628874000</title>
<path fill="none" stroke="black" d="M576.38,-525C634.29,-525 771.96,-525 829.91,-525"/>
</g>
<!-- 6628879632 -->
<g id="node11" class="node">
<title>6628879632</title>
<ellipse fill="none" stroke="black" cx="1307.22" cy="-615" rx="121.18" ry="18"/>
<text text-anchor="middle" x="1307.22" y="-609.38" font-family="Times,serif" font-size="15.00">send confirmation receipt</text>
</g>
<!-- 6628869072&#45;&#45;6628879632 -->
<g id="edge7" class="edge">
<title>6628869072&#45;&#45;6628879632</title>
<path fill="none" stroke="black" d="M903.75,-582.65C972.58,-588.18 1105.26,-598.85 1199.45,-606.42"/>
</g>
<!-- 6628882768 -->
<g id="node12" class="node">
<title>6628882768</title>
<ellipse fill="black" stroke="black" cx="1307.22" cy="-576" rx="2.7" ry="2.7"/>
</g>
<!-- 6628869072&#45;&#45;6628882768 -->
<g id="edge8" class="edge">
<title>6628869072&#45;&#45;6628882768</title>
<path fill="none" stroke="black" d="M904.59,-578.69C1013.21,-577.96 1277.49,-576.19 1304.05,-576.01"/>
</g>
<!-- 6628870288 -->
<g id="node14" class="node">
<title>6628870288</title>
<ellipse fill="black" stroke="black" cx="1307.22" cy="-548" rx="2.7" ry="2.7"/>
</g>
<!-- 6628874000&#45;&#45;6628870288 -->
<g id="edge10" class="edge">
<title>6628874000&#45;&#45;6628870288</title>
<path fill="none" stroke="black" d="M884.69,-526.35C976.19,-531.05 1276.2,-546.46 1304.13,-547.89"/>
</g>
<!-- 6628876688 -->
<g id="node15" class="node">
<title>6628876688</title>
<ellipse fill="none" stroke="black" cx="1307.22" cy="-509" rx="27" ry="18"/>
<text text-anchor="middle" x="1307.22" y="-503.38" font-family="Times,serif" font-size="15.00">seq</text>
</g>
<!-- 6628874000&#45;&#45;6628876688 -->
<g id="edge18" class="edge">
<title>6628874000&#45;&#45;6628876688</title>
<path fill="none" stroke="black" d="M884.69,-524.06C964.1,-521.22 1200.54,-512.78 1279.9,-509.94"/>
</g>
<!-- 6628880912 -->
<g id="node16" class="node">
<title>6628880912</title>
<ellipse fill="none" stroke="black" cx="1770.24" cy="-563" rx="27" ry="18"/>
<text text-anchor="middle" x="1770.24" y="-557.38" font-family="Times,serif" font-size="15.00">xor</text>
</g>
<!-- 6628876688&#45;&#45;6628880912 -->
<g id="edge13" class="edge">
<title>6628876688&#45;&#45;6628880912</title>
<path fill="none" stroke="black" d="M1334.32,-512.06C1415.37,-521.55 1662.09,-550.45 1743.13,-559.94"/>
</g>
<!-- 6628876496 -->
<g id="node19" class="node">
<title>6628876496</title>
<ellipse fill="none" stroke="black" cx="1770.24" cy="-509" rx="160.64" ry="18"/>
<text text-anchor="middle" x="1770.24" y="-503.38" font-family="Times,serif" font-size="15.00">forward to the competent authority</text>
</g>
<!-- 6628876688&#45;&#45;6628876496 -->
<g id="edge14" class="edge">
<title>6628876688&#45;&#45;6628876496</title>
<path fill="none" stroke="black" d="M1334.66,-509C1387.18,-509 1508.3,-509 1609.37,-509"/>
</g>
<!-- 6628873808 -->
<g id="node20" class="node">
<title>6628873808</title>
<ellipse fill="none" stroke="black" cx="1770.24" cy="-455" rx="27" ry="18"/>
<text text-anchor="middle" x="1770.24" y="-449.38" font-family="Times,serif" font-size="15.00">xor</text>
</g>
<!-- 6628876688&#45;&#45;6628873808 -->
<g id="edge17" class="edge">
<title>6628876688&#45;&#45;6628873808</title>
<path fill="none" stroke="black" d="M1334.32,-505.94C1415.37,-496.45 1662.09,-467.55 1743.13,-458.06"/>
</g>
<!-- 6628875792 -->
<g id="node17" class="node">
<title>6628875792</title>
<ellipse fill="black" stroke="black" cx="2092.27" cy="-585" rx="2.7" ry="2.7"/>
</g>
<!-- 6628880912&#45;&#45;6628875792 -->
<g id="edge11" class="edge">
<title>6628880912&#45;&#45;6628875792</title>
<path fill="none" stroke="black" d="M1797.43,-564.8C1869.68,-569.77 2067.91,-583.39 2089.38,-584.87"/>
</g>
<!-- 6628874704 -->
<g id="node18" class="node">
<title>6628874704</title>
<ellipse fill="none" stroke="black" cx="2092.27" cy="-546" rx="99.08" ry="18"/>
<text text-anchor="middle" x="2092.27" y="-540.38" font-family="Times,serif" font-size="15.00">terminate on request</text>
</g>
<!-- 6628880912&#45;&#45;6628874704 -->
<g id="edge12" class="edge">
<title>6628880912&#45;&#45;6628874704</title>
<path fill="none" stroke="black" d="M1797.43,-561.61C1840.5,-559.32 1928.33,-554.66 1996.8,-551.02"/>
</g>
<!-- 6628872720 -->
<g id="node21" class="node">
<title>6628872720</title>
<ellipse fill="black" stroke="black" cx="2092.27" cy="-490" rx="2.7" ry="2.7"/>
</g>
<!-- 6628873808&#45;&#45;6628872720 -->
<g id="edge15" class="edge">
<title>6628873808&#45;&#45;6628872720</title>
<path fill="none" stroke="black" d="M1797.16,-457.83C1869.18,-465.71 2067.86,-487.44 2089.37,-489.79"/>
</g>
<!-- 6628878480 -->
<g id="node22" class="node">
<title>6628878480</title>
<ellipse fill="none" stroke="black" cx="2092.27" cy="-451" rx="125.39" ry="18"/>
<text text-anchor="middle" x="2092.27" y="-445.38" font-family="Times,serif" font-size="15.00">inform BAG administrator</text>
</g>
<!-- 6628873808&#45;&#45;6628878480 -->
<g id="edge16" class="edge">
<title>6628873808&#45;&#45;6628878480</title>
<path fill="none" stroke="black" d="M1797.7,-454.67C1834.77,-454.21 1904.6,-453.33 1966.85,-452.56"/>
</g>
<!-- 6628872208 -->
<g id="node24" class="node">
<title>6628872208</title>
<ellipse fill="none" stroke="black" cx="548.99" cy="-390" rx="27" ry="18"/>
<text text-anchor="middle" x="548.99" y="-384.38" font-family="Times,serif" font-size="15.00">seq</text>
</g>
<!-- 6628868880&#45;&#45;6628872208 -->
<g id="edge32" class="edge">
<title>6628868880&#45;&#45;6628872208</title>
<path fill="none" stroke="black" d="M266.32,-390C324.49,-390 463.69,-390 521.81,-390"/>
</g>
<!-- 6628882384 -->
<g id="node35" class="node">
<title>6628882384</title>
<ellipse fill="none" stroke="black" cx="548.99" cy="-99" rx="27" ry="18"/>
<text text-anchor="middle" x="548.99" y="-93.38" font-family="Times,serif" font-size="15.00">seq</text>
</g>
<!-- 6628868880&#45;&#45;6628882384 -->
<g id="edge40" class="edge">
<title>6628868880&#45;&#45;6628882384</title>
<path fill="none" stroke="black" d="M255.33,-375.57C307.76,-326.03 480.06,-163.19 532.63,-113.52"/>
</g>
<!-- 6628882640 -->
<g id="node25" class="node">
<title>6628882640</title>
<ellipse fill="none" stroke="black" cx="857.34" cy="-471" rx="147.49" ry="18"/>
<text text-anchor="middle" x="857.34" y="-465.38" font-family="Times,serif" font-size="15.00">regular procedure without MER</text>
</g>
<!-- 6628872208&#45;&#45;6628882640 -->
<g id="edge22" class="edge">
<title>6628872208&#45;&#45;6628882640</title>
<path fill="none" stroke="black" d="M574.54,-396.49C621.61,-408.94 725.86,-436.5 793.52,-454.39"/>
</g>
<!-- 6628868176 -->
<g id="node26" class="node">
<title>6628868176</title>
<ellipse fill="none" stroke="black" cx="857.34" cy="-417" rx="27" ry="18"/>
<text text-anchor="middle" x="857.34" y="-411.38" font-family="Times,serif" font-size="15.00">xor</text>
</g>
<!-- 6628872208&#45;&#45;6628868176 -->
<g id="edge25" class="edge">
<title>6628872208&#45;&#45;6628868176</title>
<path fill="none" stroke="black" d="M576.11,-392.3C633.99,-397.4 772.47,-409.61 830.29,-414.7"/>
</g>
<!-- 6628881168 -->
<g id="node29" class="node">
<title>6628881168</title>
<ellipse fill="none" stroke="black" cx="857.34" cy="-363" rx="27" ry="18"/>
<text text-anchor="middle" x="857.34" y="-357.38" font-family="Times,serif" font-size="15.00">and</text>
</g>
<!-- 6628872208&#45;&#45;6628881168 -->
<g id="edge28" class="edge">
<title>6628872208&#45;&#45;6628881168</title>
<path fill="none" stroke="black" d="M576.11,-387.7C633.99,-382.6 772.47,-370.39 830.29,-365.3"/>
</g>
<!-- 6628875408 -->
<g id="node32" class="node">
<title>6628875408</title>
<ellipse fill="none" stroke="black" cx="857.34" cy="-273" rx="27" ry="18"/>
<text text-anchor="middle" x="857.34" y="-267.38" font-family="Times,serif" font-size="15.00">xor</text>
</g>
<!-- 6628872208&#45;&#45;6628875408 -->
<g id="edge31" class="edge">
<title>6628872208&#45;&#45;6628875408</title>
<path fill="none" stroke="black" d="M573.02,-381.21C629.93,-359.47 776.71,-303.41 833.47,-281.74"/>
</g>
<!-- 6628873552 -->
<g id="node27" class="node">
<title>6628873552</title>
<ellipse fill="black" stroke="black" cx="1307.22" cy="-459" rx="2.7" ry="2.7"/>
</g>
<!-- 6628868176&#45;&#45;6628873552 -->
<g id="edge23" class="edge">
<title>6628868176&#45;&#45;6628873552</title>
<path fill="none" stroke="black" d="M884.36,-419.44C975.46,-427.98 1276.13,-456.18 1304.12,-458.8"/>
</g>
<!-- 6628877968 -->
<g id="node28" class="node">
<title>6628877968</title>
<ellipse fill="none" stroke="black" cx="1307.22" cy="-420" rx="105.92" ry="18"/>
<text text-anchor="middle" x="1307.22" y="-414.38" font-family="Times,serif" font-size="15.00">start WABOprocedure</text>
</g>
<!-- 6628868176&#45;&#45;6628877968 -->
<g id="edge24" class="edge">
<title>6628868176&#45;&#45;6628877968</title>
<path fill="none" stroke="black" d="M884.69,-417.18C945.25,-417.58 1097.16,-418.6 1201.06,-419.3"/>
</g>
<!-- 6628872144 -->
<g id="node30" class="node">
<title>6628872144</title>
<ellipse fill="none" stroke="black" cx="1307.22" cy="-366" rx="134.33" ry="18"/>
<text text-anchor="middle" x="1307.22" y="-360.38" font-family="Times,serif" font-size="15.00">send procedure confirmation</text>
</g>
<!-- 6628881168&#45;&#45;6628872144 -->
<g id="edge26" class="edge">
<title>6628881168&#45;&#45;6628872144</title>
<path fill="none" stroke="black" d="M884.69,-363.18C939.95,-363.55 1071.29,-364.43 1172.79,-365.11"/>
</g>
<!-- 6628871056 -->
<g id="node31" class="node">
<title>6628871056</title>
<ellipse fill="none" stroke="black" cx="1307.22" cy="-312" rx="176.42" ry="18"/>
<text text-anchor="middle" x="1307.22" y="-306.38" font-family="Times,serif" font-size="15.00">enter senddate procedure confirmation</text>
</g>
<!-- 6628881168&#45;&#45;6628871056 -->
<g id="edge27" class="edge">
<title>6628881168&#45;&#45;6628871056</title>
<path fill="none" stroke="black" d="M884.36,-360.04C942.05,-353.47 1083.76,-337.33 1187.06,-325.57"/>
</g>
<!-- 6628873872 -->
<g id="node33" class="node">
<title>6628873872</title>
<ellipse fill="black" stroke="black" cx="1307.22" cy="-273" rx="2.7" ry="2.7"/>
</g>
<!-- 6628875408&#45;&#45;6628873872 -->
<g id="edge29" class="edge">
<title>6628875408&#45;&#45;6628873872</title>
<path fill="none" stroke="black" d="M884.69,-273C976.19,-273 1276.2,-273 1304.13,-273"/>
</g>
<!-- 6628874384 -->
<g id="node34" class="node">
<title>6628874384</title>
<ellipse fill="none" stroke="black" cx="1307.22" cy="-234" rx="132.23" ry="18"/>
<text text-anchor="middle" x="1307.22" y="-228.38" font-family="Times,serif" font-size="15.00">registration date publication</text>
</g>
<!-- 6628875408&#45;&#45;6628874384 -->
<g id="edge30" class="edge">
<title>6628875408&#45;&#45;6628874384</title>
<path fill="none" stroke="black" d="M884.36,-270.73C943.45,-265.59 1090.68,-252.77 1194.51,-243.73"/>
</g>
<!-- 6628879888 -->
<g id="node36" class="node">
<title>6628879888</title>
<ellipse fill="none" stroke="black" cx="857.34" cy="-126" rx="27" ry="18"/>
<text text-anchor="middle" x="857.34" y="-120.38" font-family="Times,serif" font-size="15.00">and</text>
</g>
<!-- 6628882384&#45;&#45;6628879888 -->
<g id="edge37" class="edge">
<title>6628882384&#45;&#45;6628879888</title>
<path fill="none" stroke="black" d="M576.11,-101.3C633.99,-106.4 772.47,-118.61 830.29,-123.7"/>
</g>
<!-- 6628871184 -->
<g id="node41" class="node">
<title>6628871184</title>
<ellipse fill="none" stroke="black" cx="857.34" cy="-72" rx="115.39" ry="18"/>
<text text-anchor="middle" x="857.34" y="-66.38" font-family="Times,serif" font-size="15.00">phase procedure aborted</text>
</g>
<!-- 6628882384&#45;&#45;6628871184 -->
<g id="edge38" class="edge">
<title>6628882384&#45;&#45;6628871184</title>
<path fill="none" stroke="black" d="M576.11,-96.7C615.61,-93.22 692.66,-86.43 755.99,-80.84"/>
</g>
<!-- 6628868944 -->
<g id="node42" class="node">
<title>6628868944</title>
<ellipse fill="none" stroke="black" cx="857.34" cy="-18" rx="54.36" ry="18"/>
<text text-anchor="middle" x="857.34" y="-12.38" font-family="Times,serif" font-size="15.00">close case</text>
</g>
<!-- 6628882384&#45;&#45;6628868944 -->
<g id="edge39" class="edge">
<title>6628882384&#45;&#45;6628868944</title>
<path fill="none" stroke="black" d="M574.54,-92.51C626.65,-78.73 748.85,-46.42 813.88,-29.23"/>
</g>
<!-- 6628881360 -->
<g id="node37" class="node">
<title>6628881360</title>
<ellipse fill="none" stroke="black" cx="1307.22" cy="-180" rx="266.39" ry="18"/>
<text text-anchor="middle" x="1307.22" y="-174.38" font-family="Times,serif" font-size="15.00">enter senddate letter no permit or only notification required</text>
</g>
<!-- 6628879888&#45;&#45;6628881360 -->
<g id="edge33" class="edge">
<title>6628879888&#45;&#45;6628881360</title>
<path fill="none" stroke="black" d="M884.36,-129.14C939.57,-135.79 1071.76,-151.73 1173.57,-164.01"/>
</g>
<!-- 6628883728 -->
<g id="node38" class="node">
<title>6628883728</title>
<ellipse fill="none" stroke="black" cx="1307.22" cy="-126" rx="82.77" ry="18"/>
<text text-anchor="middle" x="1307.22" y="-120.38" font-family="Times,serif" font-size="15.00">register deadline</text>
</g>
<!-- 6628879888&#45;&#45;6628883728 -->
<g id="edge34" class="edge">
<title>6628879888&#45;&#45;6628883728</title>
<path fill="none" stroke="black" d="M884.69,-126C949.94,-126 1121.22,-126 1224.26,-126"/>
</g>
<!-- 6628882704 -->
<g id="node39" class="node">
<title>6628882704</title>
<ellipse fill="none" stroke="black" cx="1307.22" cy="-72" rx="203.78" ry="18"/>
<text text-anchor="middle" x="1307.22" y="-66.38" font-family="Times,serif" font-size="15.00">no permit needed or only notification needed</text>
</g>
<!-- 6628879888&#45;&#45;6628882704 -->
<g id="edge35" class="edge">
<title>6628879888&#45;&#45;6628882704</title>
<path fill="none" stroke="black" d="M884.36,-122.86C941.49,-115.98 1081.01,-99.15 1184.04,-86.73"/>
</g>
<!-- 6628881424 -->
<g id="node40" class="node">
<title>6628881424</title>
<ellipse fill="none" stroke="black" cx="1307.22" cy="-18" rx="230.61" ry="18"/>
<text text-anchor="middle" x="1307.22" y="-12.38" font-family="Times,serif" font-size="15.00">create letter no permit or only notification required</text>
</g>
<!-- 6628879888&#45;&#45;6628881424 -->
<g id="edge36" class="edge">
<title>6628879888&#45;&#45;6628881424</title>
<path fill="none" stroke="black" d="M883.06,-120.04C949.08,-104.12 1131.46,-60.14 1233.93,-35.43"/>
</g>
</g>
</svg>
