<?xml version="1.0" encoding="UTF-8" standalone="no"?>
<!DOCTYPE svg PUBLIC "-//W3C//DTD SVG 1.1//EN"
 "http://www.w3.org/Graphics/SVG/1.1/DTD/svg11.dtd">
<!-- Generated by graphviz version 8.0.5 (20230430.1635)
 -->
<!-- Title: pt Pages: 1 -->
<svg width="1768pt" height="449pt"
 viewBox="0.00 0.00 1768.42 449.00" xmlns="http://www.w3.org/2000/svg" xmlns:xlink="http://www.w3.org/1999/xlink">
<g id="graph0" class="graph" transform="scale(1 1) rotate(0) translate(4 445)">
<title>pt</title>
<polygon fill="white" stroke="none" points="-4,4 -4,-445 1764.42,-445 1764.42,4 -4,4"/>
<!-- 6628873424 -->
<g id="node1" class="node">
<title>6628873424</title>
<ellipse fill="none" stroke="black" cx="27" cy="-234" rx="27" ry="18"/>
<text text-anchor="middle" x="27" y="-228.38" font-family="Times,serif" font-size="15.00">seq</text>
</g>
<!-- 6626994064 -->
<g id="node2" class="node">
<title>6626994064</title>
<ellipse fill="none" stroke="black" cx="320.61" cy="-423" rx="149.06" ry="18"/>
<text text-anchor="middle" x="320.61" y="-417.38" font-family="Times,serif" font-size="15.00">register submission date request</text>
</g>
<!-- 6628873424&#45;&#45;6626994064 -->
<g id="edge1" class="edge">
<title>6628873424&#45;&#45;6626994064</title>
<path fill="none" stroke="black" d="M47.13,-246.4C97.31,-278.92 232.87,-366.78 291.72,-404.92"/>
</g>
<!-- 6626996304 -->
<g id="node3" class="node">
<title>6626996304</title>
<ellipse fill="none" stroke="black" cx="320.61" cy="-369" rx="108.55" ry="18"/>
<text text-anchor="middle" x="320.61" y="-363.38" font-family="Times,serif" font-size="15.00">OLO messaging active</text>
</g>
<!-- 6628873424&#45;&#45;6626996304 -->
<g id="edge2" class="edge">
<title>6628873424&#45;&#45;6626996304</title>
<path fill="none" stroke="black" d="M49.92,-244.15C99.59,-267.14 221.17,-323.43 282.69,-351.91"/>
</g>
<!-- 6626998544 -->
<g id="node4" class="node">
<title>6626998544</title>
<ellipse fill="none" stroke="black" cx="320.61" cy="-315" rx="121.18" ry="18"/>
<text text-anchor="middle" x="320.61" y="-309.38" font-family="Times,serif" font-size="15.00">send confirmation receipt</text>
</g>
<!-- 6628873424&#45;&#45;6626998544 -->
<g id="edge3" class="edge">
<title>6628873424&#45;&#45;6626998544</title>
<path fill="none" stroke="black" d="M52.36,-240.77C98.01,-253.45 197.58,-281.1 261.46,-298.85"/>
</g>
<!-- 6626992080 -->
<g id="node5" class="node">
<title>6626992080</title>
<ellipse fill="none" stroke="black" cx="320.61" cy="-261" rx="112.76" ry="18"/>
<text text-anchor="middle" x="320.61" y="-255.38" font-family="Times,serif" font-size="15.00">applicant is stakeholder</text>
</g>
<!-- 6628873424&#45;&#45;6626992080 -->
<g id="edge4" class="edge">
<title>6628873424&#45;&#45;6626992080</title>
<path fill="none" stroke="black" d="M54.14,-236.42C91.67,-239.9 162.85,-246.49 222.06,-251.97"/>
</g>
<!-- 6626988752 -->
<g id="node6" class="node">
<title>6626988752</title>
<ellipse fill="none" stroke="black" cx="320.61" cy="-207" rx="27" ry="18"/>
<text text-anchor="middle" x="320.61" y="-201.38" font-family="Times,serif" font-size="15.00">xor</text>
</g>
<!-- 6628873424&#45;&#45;6626988752 -->
<g id="edge16" class="edge">
<title>6628873424&#45;&#45;6626988752</title>
<path fill="none" stroke="black" d="M54.14,-231.58C109.5,-226.45 238.03,-214.55 293.43,-209.42"/>
</g>
<!-- 6626999440 -->
<g id="node18" class="node">
<title>6626999440</title>
<ellipse fill="none" stroke="black" cx="320.61" cy="-153" rx="124.86" ry="18"/>
<text text-anchor="middle" x="320.61" y="-147.38" font-family="Times,serif" font-size="15.00">phase application received</text>
</g>
<!-- 6628873424&#45;&#45;6626999440 -->
<g id="edge17" class="edge">
<title>6628873424&#45;&#45;6626999440</title>
<path fill="none" stroke="black" d="M52.36,-227.23C97.94,-214.57 197.28,-186.98 261.17,-169.23"/>
</g>
<!-- 6626997840 -->
<g id="node19" class="node">
<title>6626997840</title>
<ellipse fill="none" stroke="black" cx="320.61" cy="-99" rx="203.78" ry="18"/>
<text text-anchor="middle" x="320.61" y="-93.38" font-family="Times,serif" font-size="15.00">no permit needed or only notification needed</text>
</g>
<!-- 6628873424&#45;&#45;6626997840 -->
<g id="edge18" class="edge">
<title>6628873424&#45;&#45;6626997840</title>
<path fill="none" stroke="black" d="M49.92,-223.85C98.99,-201.13 218.27,-145.92 280.45,-117.13"/>
</g>
<!-- 6627707920 -->
<g id="node20" class="node">
<title>6627707920</title>
<ellipse fill="none" stroke="black" cx="320.61" cy="-45" rx="230.61" ry="18"/>
<text text-anchor="middle" x="320.61" y="-39.38" font-family="Times,serif" font-size="15.00">create letter no permit or only notification required</text>
</g>
<!-- 6628873424&#45;&#45;6627707920 -->
<g id="edge19" class="edge">
<title>6628873424&#45;&#45;6627707920</title>
<path fill="none" stroke="black" d="M47.13,-221.6C97.31,-189.08 232.87,-101.22 291.72,-63.08"/>
</g>
<!-- 6626997072 -->
<g id="node7" class="node">
<title>6626997072</title>
<ellipse fill="none" stroke="black" cx="686.31" cy="-234" rx="99.08" ry="18"/>
<text text-anchor="middle" x="686.31" y="-228.38" font-family="Times,serif" font-size="15.00">terminate on request</text>
</g>
<!-- 6626988752&#45;&#45;6626997072 -->
<g id="edge5" class="edge">
<title>6626988752&#45;&#45;6626997072</title>
<path fill="none" stroke="black" d="M347.77,-208.94C398.5,-212.71 512.44,-221.17 593.9,-227.21"/>
</g>
<!-- 6626994128 -->
<g id="node8" class="node">
<title>6626994128</title>
<ellipse fill="none" stroke="black" cx="686.31" cy="-180" rx="27" ry="18"/>
<text text-anchor="middle" x="686.31" y="-174.38" font-family="Times,serif" font-size="15.00">seq</text>
</g>
<!-- 6626988752&#45;&#45;6626994128 -->
<g id="edge15" class="edge">
<title>6626988752&#45;&#45;6626994128</title>
<path fill="none" stroke="black" d="M347.77,-205.06C414.87,-200.08 592.54,-186.89 659.39,-181.92"/>
</g>
<!-- 6626994896 -->
<g id="node9" class="node">
<title>6626994896</title>
<ellipse fill="none" stroke="black" cx="982.03" cy="-234" rx="135.39" ry="18"/>
<text text-anchor="middle" x="982.03" y="-228.38" font-family="Times,serif" font-size="15.00">calculate provisional charges</text>
</g>
<!-- 6626994128&#45;&#45;6626994896 -->
<g id="edge6" class="edge">
<title>6626994128&#45;&#45;6626994896</title>
<path fill="none" stroke="black" d="M712.86,-184.7C754.31,-192.32 837.91,-207.69 900.81,-219.25"/>
</g>
<!-- 6626998160 -->
<g id="node10" class="node">
<title>6626998160</title>
<ellipse fill="none" stroke="black" cx="982.03" cy="-180" rx="160.64" ry="18"/>
<text text-anchor="middle" x="982.03" y="-174.38" font-family="Times,serif" font-size="15.00">forward to the competent authority</text>
</g>
<!-- 6626994128&#45;&#45;6626998160 -->
<g id="edge7" class="edge">
<title>6626994128&#45;&#45;6626998160</title>
<path fill="none" stroke="black" d="M713.63,-180C738.91,-180 779.33,-180 821.16,-180"/>
</g>
<!-- 6626998416 -->
<g id="node11" class="node">
<title>6626998416</title>
<ellipse fill="none" stroke="black" cx="982.03" cy="-126" rx="27" ry="18"/>
<text text-anchor="middle" x="982.03" y="-120.38" font-family="Times,serif" font-size="15.00">xor</text>
</g>
<!-- 6626994128&#45;&#45;6626998416 -->
<g id="edge14" class="edge">
<title>6626994128&#45;&#45;6626998416</title>
<path fill="none" stroke="black" d="M712.86,-175.3C768.55,-165.06 900.3,-140.84 955.75,-130.65"/>
</g>
<!-- 6626990480 -->
<g id="node12" class="node">
<title>6626990480</title>
<ellipse fill="none" stroke="black" cx="1304.06" cy="-180" rx="125.39" ry="18"/>
<text text-anchor="middle" x="1304.06" y="-174.38" font-family="Times,serif" font-size="15.00">inform BAG administrator</text>
</g>
<!-- 6626998416&#45;&#45;6626990480 -->
<g id="edge8" class="edge">
<title>6626998416&#45;&#45;6626990480</title>
<path fill="none" stroke="black" d="M1008.68,-130.33C1054.14,-138 1150.67,-154.29 1220.83,-166.12"/>
</g>
<!-- 6626988496 -->
<g id="node13" class="node">
<title>6626988496</title>
<ellipse fill="none" stroke="black" cx="1304.06" cy="-126" rx="59.63" ry="18"/>
<text text-anchor="middle" x="1304.06" y="-120.38" font-family="Times,serif" font-size="15.00">cancel case</text>
</g>
<!-- 6626998416&#45;&#45;6626988496 -->
<g id="edge9" class="edge">
<title>6626998416&#45;&#45;6626988496</title>
<path fill="none" stroke="black" d="M1009.49,-126C1060.63,-126 1174.15,-126 1244.09,-126"/>
</g>
<!-- 6626996496 -->
<g id="node14" class="node">
<title>6626996496</title>
<ellipse fill="none" stroke="black" cx="1304.06" cy="-72" rx="27" ry="18"/>
<text text-anchor="middle" x="1304.06" y="-66.38" font-family="Times,serif" font-size="15.00">seq</text>
</g>
<!-- 6626998416&#45;&#45;6626996496 -->
<g id="edge13" class="edge">
<title>6626998416&#45;&#45;6626996496</title>
<path fill="none" stroke="black" d="M1008.68,-121.67C1068.75,-111.54 1217.98,-86.36 1277.73,-76.27"/>
</g>
<!-- 6626984720 -->
<g id="node15" class="node">
<title>6626984720</title>
<ellipse fill="none" stroke="black" cx="1612.93" cy="-126" rx="147.49" ry="18"/>
<text text-anchor="middle" x="1612.93" y="-120.38" font-family="Times,serif" font-size="15.00">regular procedure without MER</text>
</g>
<!-- 6626996496&#45;&#45;6626984720 -->
<g id="edge10" class="edge">
<title>6626996496&#45;&#45;6626984720</title>
<path fill="none" stroke="black" d="M1330.69,-76.51C1373.33,-84.01 1460.67,-99.38 1526.77,-111.01"/>
</g>
<!-- 6626993424 -->
<g id="node16" class="node">
<title>6626993424</title>
<ellipse fill="none" stroke="black" cx="1612.93" cy="-72" rx="140.65" ry="18"/>
<text text-anchor="middle" x="1612.93" y="-66.38" font-family="Times,serif" font-size="15.00">create procedure confirmation</text>
</g>
<!-- 6626996496&#45;&#45;6626993424 -->
<g id="edge11" class="edge">
<title>6626996496&#45;&#45;6626993424</title>
<path fill="none" stroke="black" d="M1331.49,-72C1363.18,-72 1418.73,-72 1472.07,-72"/>
</g>
<!-- 6626985232 -->
<g id="node17" class="node">
<title>6626985232</title>
<ellipse fill="none" stroke="black" cx="1612.93" cy="-18" rx="105.92" ry="18"/>
<text text-anchor="middle" x="1612.93" y="-12.38" font-family="Times,serif" font-size="15.00">start WABOprocedure</text>
</g>
<!-- 6626996496&#45;&#45;6626985232 -->
<g id="edge12" class="edge">
<title>6626996496&#45;&#45;6626985232</title>
<path fill="none" stroke="black" d="M1330.69,-67.49C1375.78,-59.55 1470.85,-42.83 1537.94,-31.02"/>
</g>
</g>
</svg>
