<?xml version="1.0" encoding="UTF-8" standalone="no"?>
<!DOCTYPE svg PUBLIC "-//W3C//DTD SVG 1.1//EN"
 "http://www.w3.org/Graphics/SVG/1.1/DTD/svg11.dtd">
<!-- Generated by graphviz version 11.0.0 (20240428.1522)
 -->
<!-- Title: pt Pages: 1 -->
<svg width="1721pt" height="878pt"
 viewBox="0.00 0.00 1720.78 878.00" xmlns="http://www.w3.org/2000/svg" xmlns:xlink="http://www.w3.org/1999/xlink">
<g id="graph0" class="graph" transform="scale(1 1) rotate(0) translate(4 874)">
<title>pt</title>
<polygon fill="white" stroke="none" points="-4,4 -4,-874 1716.78,-874 1716.78,4 -4,4"/>
<!-- 2561232837840 -->
<g id="node1" class="node">
<title>2561232837840</title>
<ellipse fill="none" stroke="black" cx="27" cy="-548" rx="27" ry="18"/>
<text text-anchor="middle" x="27" y="-542" font-family="Times New Roman,serif" font-size="15.00">seq</text>
</g>
<!-- 2561232838224 -->
<g id="node2" class="node">
<title>2561232838224</title>
<ellipse fill="none" stroke="black" cx="221.19" cy="-602" rx="131.19" ry="18"/>
<text text-anchor="middle" x="221.19" y="-596" font-family="Times New Roman,serif" font-size="15.00">Enter submission date request</text>
</g>
<!-- 2561232837840&#45;&#45;2561232838224 -->
<g id="edge1" class="edge">
<title>2561232837840&#45;&#45;2561232838224</title>
<path fill="none" stroke="black" d="M52.34,-554.84C79.71,-562.53 125.14,-575.29 161.83,-585.6"/>
</g>
<!-- 2561232832464 -->
<g id="node3" class="node">
<title>2561232832464</title>
<ellipse fill="none" stroke="black" cx="221.19" cy="-548" rx="27" ry="18"/>
<text text-anchor="middle" x="221.19" y="-542" font-family="Times New Roman,serif" font-size="15.00">xor</text>
</g>
<!-- 2561232837840&#45;&#45;2561232832464 -->
<g id="edge34" class="edge">
<title>2561232837840&#45;&#45;2561232832464</title>
<path fill="none" stroke="black" d="M54.32,-548C91.02,-548 157.19,-548 193.88,-548"/>
</g>
<!-- 2561232831840 -->
<g id="node36" class="node">
<title>2561232831840</title>
<ellipse fill="none" stroke="black" cx="221.19" cy="-365" rx="27" ry="18"/>
<text text-anchor="middle" x="221.19" y="-359" font-family="Times New Roman,serif" font-size="15.00">xor</text>
</g>
<!-- 2561232837840&#45;&#45;2561232831840 -->
<g id="edge45" class="edge">
<title>2561232837840&#45;&#45;2561232831840</title>
<path fill="none" stroke="black" d="M43.4,-533.33C79.39,-499.07 168.66,-414.07 204.72,-379.74"/>
</g>
<!-- 2561232832944 -->
<g id="node4" class="node">
<title>2561232832944</title>
<ellipse fill="black" stroke="black" cx="588.67" cy="-587" rx="2.7" ry="2.7"/>
</g>
<!-- 2561232832464&#45;&#45;2561232832944 -->
<g id="edge2" class="edge">
<title>2561232832464&#45;&#45;2561232832944</title>
<path fill="none" stroke="black" d="M248.18,-550.77C327.44,-559.23 562.12,-584.27 585.75,-586.79"/>
</g>
<!-- 2561232845088 -->
<g id="node5" class="node">
<title>2561232845088</title>
<ellipse fill="none" stroke="black" cx="588.67" cy="-548" rx="27" ry="18"/>
<text text-anchor="middle" x="588.67" y="-542" font-family="Times New Roman,serif" font-size="15.00">seq</text>
</g>
<!-- 2561232832464&#45;&#45;2561232845088 -->
<g id="edge33" class="edge">
<title>2561232832464&#45;&#45;2561232845088</title>
<path fill="none" stroke="black" d="M248.48,-548C315.91,-548 494.46,-548 561.63,-548"/>
</g>
<!-- 2561232832752 -->
<g id="node6" class="node">
<title>2561232832752</title>
<ellipse fill="none" stroke="black" cx="1004.78" cy="-771" rx="27" ry="18"/>
<text text-anchor="middle" x="1004.78" y="-765" font-family="Times New Roman,serif" font-size="15.00">xor</text>
</g>
<!-- 2561232845088&#45;&#45;2561232832752 -->
<g id="edge8" class="edge">
<title>2561232845088&#45;&#45;2561232832752</title>
<path fill="none" stroke="black" d="M610.49,-559.21C681.35,-597.37 912.62,-721.91 983.16,-759.9"/>
</g>
<!-- 2561232843936 -->
<g id="node12" class="node">
<title>2561232843936</title>
<ellipse fill="none" stroke="black" cx="1004.78" cy="-629" rx="98.44" ry="18"/>
<text text-anchor="middle" x="1004.78" y="-623" font-family="Times New Roman,serif" font-size="15.00">OLO messages active</text>
</g>
<!-- 2561232845088&#45;&#45;2561232843936 -->
<g id="edge9" class="edge">
<title>2561232845088&#45;&#45;2561232843936</title>
<path fill="none" stroke="black" d="M614.96,-552.94C677.73,-565.22 842.41,-597.44 936.08,-615.76"/>
</g>
<!-- 2561232836304 -->
<g id="node13" class="node">
<title>2561232836304</title>
<ellipse fill="none" stroke="black" cx="1004.78" cy="-575" rx="27" ry="18"/>
<text text-anchor="middle" x="1004.78" y="-569" font-family="Times New Roman,serif" font-size="15.00">xor</text>
</g>
<!-- 2561232845088&#45;&#45;2561232836304 -->
<g id="edge15" class="edge">
<title>2561232845088&#45;&#45;2561232836304</title>
<path fill="none" stroke="black" d="M615.89,-549.71C690.39,-554.57 902.73,-568.41 977.41,-573.28"/>
</g>
<!-- 2561232839712 -->
<g id="node19" class="node">
<title>2561232839712</title>
<ellipse fill="none" stroke="black" cx="1004.78" cy="-519" rx="27" ry="18"/>
<text text-anchor="middle" x="1004.78" y="-513" font-family="Times New Roman,serif" font-size="15.00">xor</text>
</g>
<!-- 2561232845088&#45;&#45;2561232839712 -->
<g id="edge21" class="edge">
<title>2561232845088&#45;&#45;2561232839712</title>
<path fill="none" stroke="black" d="M615.89,-546.16C690.48,-540.94 903.23,-526.04 977.67,-520.83"/>
</g>
<!-- 2561232831888 -->
<g id="node25" class="node">
<title>2561232831888</title>
<ellipse fill="none" stroke="black" cx="1004.78" cy="-419" rx="27" ry="18"/>
<text text-anchor="middle" x="1004.78" y="-413" font-family="Times New Roman,serif" font-size="15.00">and</text>
</g>
<!-- 2561232845088&#45;&#45;2561232831888 -->
<g id="edge32" class="edge">
<title>2561232845088&#45;&#45;2561232831888</title>
<path fill="none" stroke="black" d="M613.73,-540.51C686.92,-517.71 906.38,-449.34 979.66,-426.51"/>
</g>
<!-- 2561232835824 -->
<g id="node7" class="node">
<title>2561232835824</title>
<ellipse fill="black" stroke="black" cx="1265.8" cy="-810" rx="2.7" ry="2.7"/>
</g>
<!-- 2561232832752&#45;&#45;2561232835824 -->
<g id="edge3" class="edge">
<title>2561232832752&#45;&#45;2561232835824</title>
<path fill="none" stroke="black" d="M1031.56,-774.88C1092.73,-784.09 1242.98,-806.71 1262.66,-809.68"/>
</g>
<!-- 2561232830880 -->
<g id="node8" class="node">
<title>2561232830880</title>
<ellipse fill="none" stroke="black" cx="1265.8" cy="-771" rx="27" ry="18"/>
<text text-anchor="middle" x="1265.8" y="-765" font-family="Times New Roman,serif" font-size="15.00">seq</text>
</g>
<!-- 2561232832752&#45;&#45;2561232830880 -->
<g id="edge7" class="edge">
<title>2561232832752&#45;&#45;2561232830880</title>
<path fill="none" stroke="black" d="M1032.04,-771C1081.69,-771 1188.77,-771 1238.47,-771"/>
</g>
<!-- 2561232838656 -->
<g id="node9" class="node">
<title>2561232838656</title>
<ellipse fill="none" stroke="black" cx="1529.9" cy="-852" rx="182.89" ry="18"/>
<text text-anchor="middle" x="1529.9" y="-846" font-family="Times New Roman,serif" font-size="15.00">Mandatory Environmental Report required</text>
</g>
<!-- 2561232830880&#45;&#45;2561232838656 -->
<g id="edge4" class="edge">
<title>2561232830880&#45;&#45;2561232838656</title>
<path fill="none" stroke="black" d="M1290.52,-778.33C1331.29,-790.93 1415.7,-817.02 1472.33,-834.52"/>
</g>
<!-- 2561232836160 -->
<g id="node10" class="node">
<title>2561232836160</title>
<ellipse fill="none" stroke="black" cx="1529.9" cy="-798" rx="129.15" ry="18"/>
<text text-anchor="middle" x="1529.9" y="-792" font-family="Times New Roman,serif" font-size="15.00">Regular procedural activities</text>
</g>
<!-- 2561232830880&#45;&#45;2561232836160 -->
<g id="edge5" class="edge">
<title>2561232830880&#45;&#45;2561232836160</title>
<path fill="none" stroke="black" d="M1292.89,-773.69C1323.64,-776.86 1376.65,-782.32 1424.64,-787.26"/>
</g>
<!-- 2561232832656 -->
<g id="node11" class="node">
<title>2561232832656</title>
<ellipse fill="none" stroke="black" cx="1529.9" cy="-744" rx="87.69" ry="18"/>
<text text-anchor="middle" x="1529.9" y="-738" font-family="Times New Roman,serif" font-size="15.00">Phased application</text>
</g>
<!-- 2561232830880&#45;&#45;2561232832656 -->
<g id="edge6" class="edge">
<title>2561232830880&#45;&#45;2561232832656</title>
<path fill="none" stroke="black" d="M1292.89,-768.31C1329.34,-764.56 1397.05,-757.58 1450.63,-752.06"/>
</g>
<!-- 2561232844512 -->
<g id="node14" class="node">
<title>2561232844512</title>
<ellipse fill="black" stroke="black" cx="1265.8" cy="-621" rx="2.7" ry="2.7"/>
</g>
<!-- 2561232836304&#45;&#45;2561232844512 -->
<g id="edge10" class="edge">
<title>2561232836304&#45;&#45;2561232844512</title>
<path fill="none" stroke="black" d="M1031.09,-579.49C1091.93,-590.3 1242.87,-617.11 1262.65,-620.62"/>
</g>
<!-- 2561232838416 -->
<g id="node15" class="node">
<title>2561232838416</title>
<ellipse fill="none" stroke="black" cx="1265.8" cy="-582" rx="27" ry="18"/>
<text text-anchor="middle" x="1265.8" y="-576" font-family="Times New Roman,serif" font-size="15.00">seq</text>
</g>
<!-- 2561232836304&#45;&#45;2561232838416 -->
<g id="edge14" class="edge">
<title>2561232836304&#45;&#45;2561232838416</title>
<path fill="none" stroke="black" d="M1032.04,-575.71C1081.69,-577.05 1188.77,-579.95 1238.47,-581.29"/>
</g>
<!-- 2561232840144 -->
<g id="node16" class="node">
<title>2561232840144</title>
<ellipse fill="none" stroke="black" cx="1529.9" cy="-690" rx="142.97" ry="18"/>
<text text-anchor="middle" x="1529.9" y="-684" font-family="Times New Roman,serif" font-size="15.00">Applicant plays stakeholder role</text>
</g>
<!-- 2561232838416&#45;&#45;2561232840144 -->
<g id="edge11" class="edge">
<title>2561232838416&#45;&#45;2561232840144</title>
<path fill="none" stroke="black" d="M1289.15,-591.21C1332.85,-609.21 1430.25,-649.35 1486.54,-672.54"/>
</g>
<!-- 2561232846816 -->
<g id="node17" class="node">
<title>2561232846816</title>
<ellipse fill="none" stroke="black" cx="1529.9" cy="-636" rx="73.36" ry="18"/>
<text text-anchor="middle" x="1529.9" y="-630" font-family="Times New Roman,serif" font-size="15.00">Stop on request</text>
</g>
<!-- 2561232838416&#45;&#45;2561232846816 -->
<g id="edge12" class="edge">
<title>2561232838416&#45;&#45;2561232846816</title>
<path fill="none" stroke="black" d="M1291.93,-587.18C1333.25,-595.69 1416.54,-612.85 1472.52,-624.39"/>
</g>
<!-- 2561232830928 -->
<g id="node18" class="node">
<title>2561232830928</title>
<ellipse fill="none" stroke="black" cx="1529.9" cy="-582" rx="128.63" ry="18"/>
<text text-anchor="middle" x="1529.9" y="-576" font-family="Times New Roman,serif" font-size="15.00">Evaluate provisional charges</text>
</g>
<!-- 2561232838416&#45;&#45;2561232830928 -->
<g id="edge13" class="edge">
<title>2561232838416&#45;&#45;2561232830928</title>
<path fill="none" stroke="black" d="M1292.89,-582C1318.66,-582 1360.05,-582 1401.02,-582"/>
</g>
<!-- 2561232831216 -->
<g id="node20" class="node">
<title>2561232831216</title>
<ellipse fill="black" stroke="black" cx="1265.8" cy="-519" rx="2.7" ry="2.7"/>
</g>
<!-- 2561232839712&#45;&#45;2561232831216 -->
<g id="edge16" class="edge">
<title>2561232839712&#45;&#45;2561232831216</title>
<path fill="none" stroke="black" d="M1032.04,-519C1093.52,-519 1243.08,-519 1262.67,-519"/>
</g>
<!-- 2561232844320 -->
<g id="node21" class="node">
<title>2561232844320</title>
<ellipse fill="none" stroke="black" cx="1265.8" cy="-476" rx="27" ry="18"/>
<text text-anchor="middle" x="1265.8" y="-470" font-family="Times New Roman,serif" font-size="15.00">seq</text>
</g>
<!-- 2561232839712&#45;&#45;2561232844320 -->
<g id="edge20" class="edge">
<title>2561232839712&#45;&#45;2561232844320</title>
<path fill="none" stroke="black" d="M1031.09,-514.8C1080.6,-506.58 1189.79,-488.45 1239.39,-480.22"/>
</g>
<!-- 2561232842736 -->
<g id="node22" class="node">
<title>2561232842736</title>
<ellipse fill="none" stroke="black" cx="1529.9" cy="-528" rx="176.23" ry="18"/>
<text text-anchor="middle" x="1529.9" y="-522" font-family="Times New Roman,serif" font-size="15.00">Log date termination request documented</text>
</g>
<!-- 2561232844320&#45;&#45;2561232842736 -->
<g id="edge17" class="edge">
<title>2561232844320&#45;&#45;2561232842736</title>
<path fill="none" stroke="black" d="M1291.93,-480.99C1327.3,-488 1393.39,-501.12 1446.81,-511.71"/>
</g>
<!-- 2561232840912 -->
<g id="node23" class="node">
<title>2561232840912</title>
<ellipse fill="none" stroke="black" cx="1529.9" cy="-474" rx="143.99" ry="18"/>
<text text-anchor="middle" x="1529.9" y="-468" font-family="Times New Roman,serif" font-size="15.00">Log termination request senddate</text>
</g>
<!-- 2561232844320&#45;&#45;2561232840912 -->
<g id="edge18" class="edge">
<title>2561232844320&#45;&#45;2561232840912</title>
<path fill="none" stroke="black" d="M1292.89,-475.8C1315.49,-475.63 1350.09,-475.36 1385.9,-475.09"/>
</g>
<!-- 2561232845664 -->
<g id="node24" class="node">
<title>2561232845664</title>
<ellipse fill="none" stroke="black" cx="1529.9" cy="-420" rx="110.72" ry="18"/>
<text text-anchor="middle" x="1529.9" y="-414" font-family="Times New Roman,serif" font-size="15.00">Terminate request notice</text>
</g>
<!-- 2561232844320&#45;&#45;2561232845664 -->
<g id="edge19" class="edge">
<title>2561232844320&#45;&#45;2561232845664</title>
<path fill="none" stroke="black" d="M1291.93,-470.63C1330.5,-462.39 1405.62,-446.34 1460.98,-434.51"/>
</g>
<!-- 2561232846528 -->
<g id="node26" class="node">
<title>2561232846528</title>
<ellipse fill="none" stroke="black" cx="1265.8" cy="-366" rx="45.21" ry="18"/>
<text text-anchor="middle" x="1265.8" y="-360" font-family="Times New Roman,serif" font-size="15.00">xor loop</text>
</g>
<!-- 2561232831888&#45;&#45;2561232846528 -->
<g id="edge24" class="edge">
<title>2561232831888&#45;&#45;2561232846528</title>
<path fill="none" stroke="black" d="M1031.09,-413.82C1076.28,-404.57 1171.16,-385.16 1225.1,-374.12"/>
</g>
<!-- 2561232833520 -->
<g id="node29" class="node">
<title>2561232833520</title>
<ellipse fill="none" stroke="black" cx="1265.8" cy="-180" rx="27" ry="18"/>
<text text-anchor="middle" x="1265.8" y="-174" font-family="Times New Roman,serif" font-size="15.00">seq</text>
</g>
<!-- 2561232831888&#45;&#45;2561232833520 -->
<g id="edge31" class="edge">
<title>2561232831888&#45;&#45;2561232833520</title>
<path fill="none" stroke="black" d="M1021.59,-404.41C1067.94,-361.64 1203.11,-236.92 1249.2,-194.4"/>
</g>
<!-- 2561232832176 -->
<g id="node27" class="node">
<title>2561232832176</title>
<ellipse fill="none" stroke="black" cx="1529.9" cy="-366" rx="131.19" ry="18"/>
<text text-anchor="middle" x="1529.9" y="-360" font-family="Times New Roman,serif" font-size="15.00">Transmit confirmation receipt</text>
</g>
<!-- 2561232846528&#45;&#45;2561232832176 -->
<g id="edge22" class="edge">
<title>2561232846528&#45;&#45;2561232832176</title>
<path fill="none" stroke="black" d="M1311.26,-366C1335.51,-366 1366.91,-366 1398.28,-366"/>
</g>
<!-- 2561233409600 -->
<g id="node28" class="node">
<title>2561233409600</title>
<ellipse fill="black" stroke="black" cx="1529.9" cy="-327" rx="2.7" ry="2.7"/>
</g>
<!-- 2561232846528&#45;&#45;2561233409600 -->
<g id="edge23" class="edge">
<title>2561232846528&#45;&#45;2561233409600</title>
<path fill="none" stroke="black" d="M1308.62,-359.78C1377.42,-349.54 1508.68,-330.01 1526.8,-327.31"/>
</g>
<!-- 2561233419296 -->
<g id="node30" class="node">
<title>2561233419296</title>
<ellipse fill="none" stroke="black" cx="1529.9" cy="-288" rx="139.38" ry="18"/>
<text text-anchor="middle" x="1529.9" y="-282" font-family="Times New Roman,serif" font-size="15.00">Refer to the competent authority</text>
</g>
<!-- 2561232833520&#45;&#45;2561233419296 -->
<g id="edge25" class="edge">
<title>2561232833520&#45;&#45;2561233419296</title>
<path fill="none" stroke="black" d="M1289.15,-189.21C1332.85,-207.21 1430.25,-247.35 1486.54,-270.54"/>
</g>
<!-- 2561233412336 -->
<g id="node31" class="node">
<title>2561233412336</title>
<ellipse fill="none" stroke="black" cx="1529.9" cy="-234" rx="147.57" ry="18"/>
<text text-anchor="middle" x="1529.9" y="-228" font-family="Times New Roman,serif" font-size="15.00">Ordinary procedure without MER</text>
</g>
<!-- 2561232833520&#45;&#45;2561233412336 -->
<g id="edge26" class="edge">
<title>2561232833520&#45;&#45;2561233412336</title>
<path fill="none" stroke="black" d="M1291.93,-185.18C1328.58,-192.73 1398.22,-207.08 1452.57,-218.27"/>
</g>
<!-- 2561233406480 -->
<g id="node32" class="node">
<title>2561233406480</title>
<ellipse fill="none" stroke="black" cx="1529.9" cy="-180" rx="141.43" ry="18"/>
<text text-anchor="middle" x="1529.9" y="-174" font-family="Times New Roman,serif" font-size="15.00">Produce procedure confirmation</text>
</g>
<!-- 2561232833520&#45;&#45;2561233406480 -->
<g id="edge27" class="edge">
<title>2561232833520&#45;&#45;2561233406480</title>
<path fill="none" stroke="black" d="M1292.89,-180C1315.94,-180 1351.49,-180 1388.06,-180"/>
</g>
<!-- 2561233407728 -->
<g id="node33" class="node">
<title>2561233407728</title>
<ellipse fill="none" stroke="black" cx="1529.9" cy="-126" rx="51.86" ry="18"/>
<text text-anchor="middle" x="1529.9" y="-120" font-family="Times New Roman,serif" font-size="15.00">Broadcast</text>
</g>
<!-- 2561232833520&#45;&#45;2561233407728 -->
<g id="edge28" class="edge">
<title>2561232833520&#45;&#45;2561233407728</title>
<path fill="none" stroke="black" d="M1291.93,-174.82C1336.39,-165.66 1429.43,-146.49 1484.78,-135.09"/>
</g>
<!-- 2561233404848 -->
<g id="node34" class="node">
<title>2561233404848</title>
<ellipse fill="none" stroke="black" cx="1529.9" cy="-72" rx="121.47" ry="18"/>
<text text-anchor="middle" x="1529.9" y="-66" font-family="Times New Roman,serif" font-size="15.00">Form publication document</text>
</g>
<!-- 2561232833520&#45;&#45;2561233404848 -->
<g id="edge29" class="edge">
<title>2561232833520&#45;&#45;2561233404848</title>
<path fill="none" stroke="black" d="M1289.15,-170.79C1332.97,-152.73 1430.81,-112.42 1487.01,-89.26"/>
</g>
<!-- 2561233410896 -->
<g id="node35" class="node">
<title>2561233410896</title>
<ellipse fill="none" stroke="black" cx="1529.9" cy="-18" rx="129.15" ry="18"/>
<text text-anchor="middle" x="1529.9" y="-12" font-family="Times New Roman,serif" font-size="15.00">Commence WABOprocedure</text>
</g>
<!-- 2561232833520&#45;&#45;2561233410896 -->
<g id="edge30" class="edge">
<title>2561232833520&#45;&#45;2561233410896</title>
<path fill="none" stroke="black" d="M1286.5,-167.82C1332.34,-139.49 1446.3,-69.05 1500.02,-35.85"/>
</g>
<!-- 2561232836400 -->
<g id="node37" class="node">
<title>2561232836400</title>
<ellipse fill="black" stroke="black" cx="588.67" cy="-404" rx="2.7" ry="2.7"/>
</g>
<!-- 2561232831840&#45;&#45;2561232836400 -->
<g id="edge35" class="edge">
<title>2561232831840&#45;&#45;2561232836400</title>
<path fill="none" stroke="black" d="M248.18,-367.77C327.44,-376.23 562.12,-401.27 585.75,-403.79"/>
</g>
<!-- 2561232836880 -->
<g id="node38" class="node">
<title>2561232836880</title>
<ellipse fill="none" stroke="black" cx="588.67" cy="-365" rx="200.29" ry="18"/>
<text text-anchor="middle" x="588.67" y="-359" font-family="Times New Roman,serif" font-size="15.00">Permit not needed or only notification required</text>
</g>
<!-- 2561232831840&#45;&#45;2561232836880 -->
<g id="edge36" class="edge">
<title>2561232831840&#45;&#45;2561232836880</title>
<path fill="none" stroke="black" d="M248.48,-365C279.09,-365 332.58,-365 388.17,-365"/>
</g>
<!-- 2561233418192 -->
<g id="node39" class="node">
<title>2561233418192</title>
<ellipse fill="none" stroke="black" cx="588.67" cy="-311" rx="27" ry="18"/>
<text text-anchor="middle" x="588.67" y="-305" font-family="Times New Roman,serif" font-size="15.00">seq</text>
</g>
<!-- 2561232831840&#45;&#45;2561233418192 -->
<g id="edge40" class="edge">
<title>2561232831840&#45;&#45;2561233418192</title>
<path fill="none" stroke="black" d="M247.89,-361.2C315,-351.29 494.93,-324.7 562,-314.79"/>
</g>
<!-- 2561233412096 -->
<g id="node43" class="node">
<title>2561233412096</title>
<ellipse fill="none" stroke="black" cx="588.67" cy="-176" rx="27" ry="18"/>
<text text-anchor="middle" x="588.67" y="-170" font-family="Times New Roman,serif" font-size="15.00">seq</text>
</g>
<!-- 2561232831840&#45;&#45;2561233412096 -->
<g id="edge44" class="edge">
<title>2561232831840&#45;&#45;2561233412096</title>
<path fill="none" stroke="black" d="M243.16,-354.16C307.62,-320.82 502.45,-220.07 566.8,-186.8"/>
</g>
<!-- 2561233404944 -->
<g id="node40" class="node">
<title>2561233404944</title>
<ellipse fill="none" stroke="black" cx="1004.78" cy="-365" rx="131.71" ry="18"/>
<text text-anchor="middle" x="1004.78" y="-359" font-family="Times New Roman,serif" font-size="15.00">Action by competent authority</text>
</g>
<!-- 2561233418192&#45;&#45;2561233404944 -->
<g id="edge37" class="edge">
<title>2561233418192&#45;&#45;2561233404944</title>
<path fill="none" stroke="black" d="M615.58,-314.38C672.86,-321.85 812.73,-340.09 907.96,-352.51"/>
</g>
<!-- 2561233410608 -->
<g id="node41" class="node">
<title>2561233410608</title>
<ellipse fill="none" stroke="black" cx="1004.78" cy="-311" rx="153.71" ry="18"/>
<text text-anchor="middle" x="1004.78" y="-305" font-family="Times New Roman,serif" font-size="15.00">Create termination request message</text>
</g>
<!-- 2561233418192&#45;&#45;2561233410608 -->
<g id="edge38" class="edge">
<title>2561233418192&#45;&#45;2561233410608</title>
<path fill="none" stroke="black" d="M615.89,-311C662.65,-311 763.72,-311 850.97,-311"/>
</g>
<!-- 2561233420016 -->
<g id="node42" class="node">
<title>2561233420016</title>
<ellipse fill="none" stroke="black" cx="1004.78" cy="-257" rx="179.82" ry="18"/>
<text text-anchor="middle" x="1004.78" y="-251" font-family="Times New Roman,serif" font-size="15.00">Premature termination of procedure phase</text>
</g>
<!-- 2561233418192&#45;&#45;2561233420016 -->
<g id="edge39" class="edge">
<title>2561233418192&#45;&#45;2561233420016</title>
<path fill="none" stroke="black" d="M615.58,-307.62C669.94,-300.53 798.68,-283.75 893.06,-271.44"/>
</g>
<!-- 2561233410032 -->
<g id="node44" class="node">
<title>2561233410032</title>
<ellipse fill="none" stroke="black" cx="1004.78" cy="-203" rx="119.42" ry="18"/>
<text text-anchor="middle" x="1004.78" y="-197" font-family="Times New Roman,serif" font-size="15.00">Phase procedure cancelled</text>
</g>
<!-- 2561233412096&#45;&#45;2561233410032 -->
<g id="edge41" class="edge">
<title>2561233412096&#45;&#45;2561233410032</title>
<path fill="none" stroke="black" d="M615.89,-177.71C670.65,-181.28 799.9,-189.71 894.19,-195.86"/>
</g>
<!-- 2561233410944 -->
<g id="node45" class="node">
<title>2561233410944</title>
<ellipse fill="none" stroke="black" cx="1004.78" cy="-149" rx="96.39" ry="18"/>
<text text-anchor="middle" x="1004.78" y="-143" font-family="Times New Roman,serif" font-size="15.00">Register the deadline</text>
</g>
<!-- 2561233412096&#45;&#45;2561233410944 -->
<g id="edge42" class="edge">
<title>2561233412096&#45;&#45;2561233410944</title>
<path fill="none" stroke="black" d="M615.89,-174.29C674.47,-170.47 818.3,-161.09 913.39,-154.89"/>
</g>
<!-- 2561233406816 -->
<g id="node46" class="node">
<title>2561233406816</title>
<ellipse fill="none" stroke="black" cx="1004.78" cy="-95" rx="84.11" ry="18"/>
<text text-anchor="middle" x="1004.78" y="-89" font-family="Times New Roman,serif" font-size="15.00">Conclude the case</text>
</g>
<!-- 2561233412096&#45;&#45;2561233406816 -->
<g id="edge43" class="edge">
<title>2561233412096&#45;&#45;2561233406816</title>
<path fill="none" stroke="black" d="M614.96,-171.06C678.96,-158.54 848.9,-125.3 941.5,-107.18"/>
</g>
</g>
</svg>
