<?xml version="1.0" encoding="UTF-8" standalone="no"?>
<!DOCTYPE svg PUBLIC "-//W3C//DTD SVG 1.1//EN"
 "http://www.w3.org/Graphics/SVG/1.1/DTD/svg11.dtd">
<!-- Generated by graphviz version 11.0.0 (20240428.1522)
 -->
<!-- Title: pt Pages: 1 -->
<svg width="661pt" height="476pt"
 viewBox="0.00 0.00 660.82 476.00" xmlns="http://www.w3.org/2000/svg" xmlns:xlink="http://www.w3.org/1999/xlink">
<g id="graph0" class="graph" transform="scale(1 1) rotate(0) translate(4 472)">
<title>pt</title>
<polygon fill="white" stroke="none" points="-4,4 -4,-472 656.82,-472 656.82,4 -4,4"/>
<!-- 1803527716992 -->
<g id="node1" class="node">
<title>1803527716992</title>
<ellipse fill="none" stroke="black" cx="27" cy="-234" rx="27" ry="18"/>
<text text-anchor="middle" x="27" y="-228" font-family="Times New Roman,serif" font-size="15.00">seq</text>
</g>
<!-- 1803527731056 -->
<g id="node2" class="node">
<title>1803527731056</title>
<ellipse fill="none" stroke="black" cx="239.62" cy="-450" rx="140.41" ry="18"/>
<text text-anchor="middle" x="239.62" y="-444" font-family="Times New Roman,serif" font-size="15.00">register submission date request</text>
</g>
<!-- 1803527716992&#45;&#45;1803527731056 -->
<g id="edge1" class="edge">
<title>1803527716992&#45;&#45;1803527731056</title>
<path fill="none" stroke="black" d="M42.48,-248.85C79.93,-287.26 179.94,-389.82 220.83,-431.75"/>
</g>
<!-- 1803527731152 -->
<g id="node3" class="node">
<title>1803527731152</title>
<ellipse fill="none" stroke="black" cx="239.62" cy="-396" rx="143.48" ry="18"/>
<text text-anchor="middle" x="239.62" y="-390" font-family="Times New Roman,serif" font-size="15.00">enter senddate acknowledgement</text>
</g>
<!-- 1803527716992&#45;&#45;1803527731152 -->
<g id="edge2" class="edge">
<title>1803527716992&#45;&#45;1803527731152</title>
<path fill="none" stroke="black" d="M45.59,-247.53C83.46,-276.66 172.69,-345.29 215.24,-378.02"/>
</g>
<!-- 1803527729184 -->
<g id="node4" class="node">
<title>1803527729184</title>
<ellipse fill="none" stroke="black" cx="239.62" cy="-342" rx="119.93" ry="18"/>
<text text-anchor="middle" x="239.62" y="-336" font-family="Times New Roman,serif" font-size="15.00">phase application received</text>
</g>
<!-- 1803527716992&#45;&#45;1803527729184 -->
<g id="edge3" class="edge">
<title>1803527716992&#45;&#45;1803527729184</title>
<path fill="none" stroke="black" d="M48.96,-244.75C85.28,-263.37 160.21,-301.79 204.23,-324.37"/>
</g>
<!-- 1803527718288 -->
<g id="node5" class="node">
<title>1803527718288</title>
<ellipse fill="none" stroke="black" cx="239.62" cy="-288" rx="103.56" ry="18"/>
<text text-anchor="middle" x="239.62" y="-282" font-family="Times New Roman,serif" font-size="15.00">reception through OLO</text>
</g>
<!-- 1803527716992&#45;&#45;1803527718288 -->
<g id="edge4" class="edge">
<title>1803527716992&#45;&#45;1803527718288</title>
<path fill="none" stroke="black" d="M52.57,-240.3C83.61,-248.26 138.02,-262.21 180.01,-272.97"/>
</g>
<!-- 1803527732880 -->
<g id="node6" class="node">
<title>1803527732880</title>
<ellipse fill="none" stroke="black" cx="239.62" cy="-234" rx="45.21" ry="18"/>
<text text-anchor="middle" x="239.62" y="-228" font-family="Times New Roman,serif" font-size="15.00">xor loop</text>
</g>
<!-- 1803527716992&#45;&#45;1803527732880 -->
<g id="edge7" class="edge">
<title>1803527716992&#45;&#45;1803527732880</title>
<path fill="none" stroke="black" d="M54.25,-234C89.21,-234 151.55,-234 193.97,-234"/>
</g>
<!-- 1803527722656 -->
<g id="node9" class="node">
<title>1803527722656</title>
<ellipse fill="none" stroke="black" cx="239.62" cy="-180" rx="149.62" ry="18"/>
<text text-anchor="middle" x="239.62" y="-174" font-family="Times New Roman,serif" font-size="15.00">forward to the competent authority</text>
</g>
<!-- 1803527716992&#45;&#45;1803527722656 -->
<g id="edge8" class="edge">
<title>1803527716992&#45;&#45;1803527722656</title>
<path fill="none" stroke="black" d="M52.57,-227.7C82.2,-220.1 133.12,-207.05 174.21,-196.51"/>
</g>
<!-- 1803527725488 -->
<g id="node10" class="node">
<title>1803527725488</title>
<ellipse fill="none" stroke="black" cx="239.62" cy="-126" rx="107.14" ry="18"/>
<text text-anchor="middle" x="239.62" y="-120" font-family="Times New Roman,serif" font-size="15.00">applicant is stakeholder</text>
</g>
<!-- 1803527716992&#45;&#45;1803527725488 -->
<g id="edge9" class="edge">
<title>1803527716992&#45;&#45;1803527725488</title>
<path fill="none" stroke="black" d="M48.96,-223.25C85.38,-204.58 160.64,-165.99 204.61,-143.44"/>
</g>
<!-- 1803527723760 -->
<g id="node11" class="node">
<title>1803527723760</title>
<ellipse fill="none" stroke="black" cx="239.62" cy="-72" rx="80.52" ry="18"/>
<text text-anchor="middle" x="239.62" y="-66" font-family="Times New Roman,serif" font-size="15.00">temporary permit</text>
</g>
<!-- 1803527716992&#45;&#45;1803527723760 -->
<g id="edge10" class="edge">
<title>1803527716992&#45;&#45;1803527723760</title>
<path fill="none" stroke="black" d="M45.59,-220.47C83.66,-191.19 173.62,-121.99 215.91,-89.47"/>
</g>
<!-- 1803527725344 -->
<g id="node12" class="node">
<title>1803527725344</title>
<ellipse fill="none" stroke="black" cx="239.62" cy="-18" rx="139.89" ry="18"/>
<text text-anchor="middle" x="239.62" y="-12" font-family="Times New Roman,serif" font-size="15.00">regular procedure without MER</text>
</g>
<!-- 1803527716992&#45;&#45;1803527725344 -->
<g id="edge11" class="edge">
<title>1803527716992&#45;&#45;1803527725344</title>
<path fill="none" stroke="black" d="M42.48,-219.15C79.93,-180.74 179.94,-78.18 220.83,-36.25"/>
</g>
<!-- 1803527429952 -->
<g id="node7" class="node">
<title>1803527429952</title>
<ellipse fill="none" stroke="black" cx="539.03" cy="-253" rx="113.79" ry="18"/>
<text text-anchor="middle" x="539.03" y="-247" font-family="Times New Roman,serif" font-size="15.00">send confirmation receipt</text>
</g>
<!-- 1803527732880&#45;&#45;1803527429952 -->
<g id="edge5" class="edge">
<title>1803527732880&#45;&#45;1803527429952</title>
<path fill="none" stroke="black" d="M284.5,-236.8C323.44,-239.29 381.9,-243.03 432.87,-246.28"/>
</g>
<!-- 1803527432976 -->
<g id="node8" class="node">
<title>1803527432976</title>
<ellipse fill="black" stroke="black" cx="539.03" cy="-214" rx="2.7" ry="2.7"/>
</g>
<!-- 1803527732880&#45;&#45;1803527432976 -->
<g id="edge6" class="edge">
<title>1803527732880&#45;&#45;1803527432976</title>
<path fill="none" stroke="black" d="M284.5,-231.05C361.74,-225.86 515.73,-215.5 535.85,-214.15"/>
</g>
</g>
</svg>
