<?xml version="1.0" encoding="UTF-8" standalone="no"?>
<!DOCTYPE svg PUBLIC "-//W3C//DTD SVG 1.1//EN"
 "http://www.w3.org/Graphics/SVG/1.1/DTD/svg11.dtd">
<!-- Generated by graphviz version 11.0.0 (20240428.1522)
 -->
<!-- Title: pt Pages: 1 -->
<svg width="3689pt" height="758pt"
 viewBox="0.00 0.00 3689.49 758.00" xmlns="http://www.w3.org/2000/svg" xmlns:xlink="http://www.w3.org/1999/xlink">
<g id="graph0" class="graph" transform="scale(1 1) rotate(0) translate(4 754)">
<title>pt</title>
<polygon fill="white" stroke="none" points="-4,4 -4,-754 3685.49,-754 3685.49,4 -4,4"/>
<!-- 2757328585792 -->
<g id="node1" class="node">
<title>2757328585792</title>
<ellipse fill="none" stroke="black" cx="27" cy="-249" rx="27" ry="18"/>
<text text-anchor="middle" x="27" y="-243" font-family="Times New Roman,serif" font-size="15.00">seq</text>
</g>
<!-- 2757328586560 -->
<g id="node2" class="node">
<title>2757328586560</title>
<ellipse fill="none" stroke="black" cx="117" cy="-288" rx="27" ry="18"/>
<text text-anchor="middle" x="117" y="-282" font-family="Times New Roman,serif" font-size="15.00">xor</text>
</g>
<!-- 2757328585792&#45;&#45;2757328586560 -->
<g id="edge65" class="edge">
<title>2757328585792&#45;&#45;2757328586560</title>
<path fill="none" stroke="black" d="M50.21,-258.84C63.55,-264.75 80.46,-272.25 93.8,-278.16"/>
</g>
<!-- 2757328586080 -->
<g id="node67" class="node">
<title>2757328586080</title>
<ellipse fill="none" stroke="black" cx="117" cy="-222" rx="27" ry="18"/>
<text text-anchor="middle" x="117" y="-216" font-family="Times New Roman,serif" font-size="15.00">xor</text>
</g>
<!-- 2757328585792&#45;&#45;2757328586080 -->
<g id="edge69" class="edge">
<title>2757328585792&#45;&#45;2757328586080</title>
<path fill="none" stroke="black" d="M52.05,-241.62C64.46,-237.81 79.57,-233.18 91.98,-229.37"/>
</g>
<!-- 2757328586800 -->
<g id="node3" class="node">
<title>2757328586800</title>
<ellipse fill="none" stroke="black" cx="267.18" cy="-624" rx="27" ry="18"/>
<text text-anchor="middle" x="267.18" y="-618" font-family="Times New Roman,serif" font-size="15.00">seq</text>
</g>
<!-- 2757328586560&#45;&#45;2757328586800 -->
<g id="edge7" class="edge">
<title>2757328586560&#45;&#45;2757328586800</title>
<path fill="none" stroke="black" d="M125.55,-305.12C150.91,-362.63 232.86,-548.46 258.46,-606.51"/>
</g>
<!-- 2757328586848 -->
<g id="node10" class="node">
<title>2757328586848</title>
<ellipse fill="none" stroke="black" cx="267.18" cy="-288" rx="27" ry="18"/>
<text text-anchor="middle" x="267.18" y="-282" font-family="Times New Roman,serif" font-size="15.00">seq</text>
</g>
<!-- 2757328586560&#45;&#45;2757328586848 -->
<g id="edge64" class="edge">
<title>2757328586560&#45;&#45;2757328586848</title>
<path fill="none" stroke="black" d="M144.49,-288C171.46,-288 213.03,-288 239.92,-288"/>
</g>
<!-- 2757328586752 -->
<g id="node4" class="node">
<title>2757328586752</title>
<ellipse fill="none" stroke="black" cx="558.4" cy="-732" rx="168.04" ry="18"/>
<text text-anchor="middle" x="558.4" y="-726" font-family="Times New Roman,serif" font-size="15.00">enter date termination request received</text>
</g>
<!-- 2757328586800&#45;&#45;2757328586752 -->
<g id="edge1" class="edge">
<title>2757328586800&#45;&#45;2757328586752</title>
<path fill="none" stroke="black" d="M291.36,-632.66C338.68,-650.32 447.21,-690.85 510.05,-714.32"/>
</g>
<!-- 2757328587568 -->
<g id="node5" class="node">
<title>2757328587568</title>
<ellipse fill="none" stroke="black" cx="558.4" cy="-678" rx="27" ry="18"/>
<text text-anchor="middle" x="558.4" y="-672" font-family="Times New Roman,serif" font-size="15.00">and</text>
</g>
<!-- 2757328586800&#45;&#45;2757328587568 -->
<g id="edge4" class="edge">
<title>2757328586800&#45;&#45;2757328587568</title>
<path fill="none" stroke="black" d="M293.59,-628.74C348.45,-638.99 477.43,-663.07 532.15,-673.29"/>
</g>
<!-- 2757328587088 -->
<g id="node8" class="node">
<title>2757328587088</title>
<ellipse fill="none" stroke="black" cx="558.4" cy="-624" rx="110.72" ry="18"/>
<text text-anchor="middle" x="558.4" y="-618" font-family="Times New Roman,serif" font-size="15.00">phase procedure aborted</text>
</g>
<!-- 2757328586800&#45;&#45;2757328587088 -->
<g id="edge5" class="edge">
<title>2757328586800&#45;&#45;2757328587088</title>
<path fill="none" stroke="black" d="M294.61,-624C329.19,-624 391.93,-624 447.43,-624"/>
</g>
<!-- 2757328588288 -->
<g id="node9" class="node">
<title>2757328588288</title>
<ellipse fill="none" stroke="black" cx="558.4" cy="-570" rx="78.99" ry="18"/>
<text text-anchor="middle" x="558.4" y="-564" font-family="Times New Roman,serif" font-size="15.00">register deadline</text>
</g>
<!-- 2757328586800&#45;&#45;2757328588288 -->
<g id="edge6" class="edge">
<title>2757328586800&#45;&#45;2757328588288</title>
<path fill="none" stroke="black" d="M293.59,-619.26C338.53,-610.87 433.19,-593.19 496.04,-581.46"/>
</g>
<!-- 2757328587808 -->
<g id="node6" class="node">
<title>2757328587808</title>
<ellipse fill="none" stroke="black" cx="911.04" cy="-705" rx="116.35" ry="18"/>
<text text-anchor="middle" x="911.04" y="-699" font-family="Times New Roman,serif" font-size="15.00">message terminate request</text>
</g>
<!-- 2757328587568&#45;&#45;2757328587808 -->
<g id="edge2" class="edge">
<title>2757328587568&#45;&#45;2757328587808</title>
<path fill="none" stroke="black" d="M585.47,-680.01C631.49,-683.55 729.51,-691.1 805.85,-696.98"/>
</g>
<!-- 2757328587856 -->
<g id="node7" class="node">
<title>2757328587856</title>
<ellipse fill="none" stroke="black" cx="911.04" cy="-651" rx="148.59" ry="18"/>
<text text-anchor="middle" x="911.04" y="-645" font-family="Times New Roman,serif" font-size="15.00">enter senddate request termination</text>
</g>
<!-- 2757328587568&#45;&#45;2757328587856 -->
<g id="edge3" class="edge">
<title>2757328587568&#45;&#45;2757328587856</title>
<path fill="none" stroke="black" d="M585.47,-675.99C627.29,-672.77 712.03,-666.25 784.44,-660.67"/>
</g>
<!-- 2757328588624 -->
<g id="node11" class="node">
<title>2757328588624</title>
<ellipse fill="none" stroke="black" cx="558.4" cy="-516" rx="27" ry="18"/>
<text text-anchor="middle" x="558.4" y="-510" font-family="Times New Roman,serif" font-size="15.00">xor</text>
</g>
<!-- 2757328586848&#45;&#45;2757328588624 -->
<g id="edge43" class="edge">
<title>2757328586848&#45;&#45;2757328588624</title>
<path fill="none" stroke="black" d="M285.4,-301.58C336.84,-342.13 488.94,-462.03 540.26,-502.49"/>
</g>
<!-- 2757328588144 -->
<g id="node47" class="node">
<title>2757328588144</title>
<ellipse fill="none" stroke="black" cx="558.4" cy="-450" rx="27" ry="18"/>
<text text-anchor="middle" x="558.4" y="-444" font-family="Times New Roman,serif" font-size="15.00">xor</text>
</g>
<!-- 2757328586848&#45;&#45;2757328588144 -->
<g id="edge47" class="edge">
<title>2757328586848&#45;&#45;2757328588144</title>
<path fill="none" stroke="black" d="M288.52,-299.39C341.62,-329.14 484.01,-408.89 537.08,-438.62"/>
</g>
<!-- 2757328589200 -->
<g id="node51" class="node">
<title>2757328589200</title>
<ellipse fill="none" stroke="black" cx="558.4" cy="-396" rx="45.21" ry="18"/>
<text text-anchor="middle" x="558.4" y="-390" font-family="Times New Roman,serif" font-size="15.00">xor loop</text>
</g>
<!-- 2757328586848&#45;&#45;2757328589200 -->
<g id="edge50" class="edge">
<title>2757328586848&#45;&#45;2757328589200</title>
<path fill="none" stroke="black" d="M291.36,-296.66C342.56,-315.78 465.45,-361.67 524.56,-383.74"/>
</g>
<!-- 2757328591264 -->
<g id="node54" class="node">
<title>2757328591264</title>
<ellipse fill="none" stroke="black" cx="558.4" cy="-342" rx="149.62" ry="18"/>
<text text-anchor="middle" x="558.4" y="-336" font-family="Times New Roman,serif" font-size="15.00">forward to the competent authority</text>
</g>
<!-- 2757328586848&#45;&#45;2757328591264 -->
<g id="edge51" class="edge">
<title>2757328586848&#45;&#45;2757328591264</title>
<path fill="none" stroke="black" d="M293.59,-292.74C333.77,-300.25 413.71,-315.17 475.11,-326.64"/>
</g>
<!-- 2757328595344 -->
<g id="node55" class="node">
<title>2757328595344</title>
<ellipse fill="none" stroke="black" cx="558.4" cy="-288" rx="139.89" ry="18"/>
<text text-anchor="middle" x="558.4" y="-282" font-family="Times New Roman,serif" font-size="15.00">regular procedure without MER</text>
</g>
<!-- 2757328586848&#45;&#45;2757328595344 -->
<g id="edge52" class="edge">
<title>2757328586848&#45;&#45;2757328595344</title>
<path fill="none" stroke="black" d="M294.61,-288C323.2,-288 371.02,-288 418.09,-288"/>
</g>
<!-- 2757328595536 -->
<g id="node56" class="node">
<title>2757328595536</title>
<ellipse fill="none" stroke="black" cx="558.4" cy="-234" rx="27" ry="18"/>
<text text-anchor="middle" x="558.4" y="-228" font-family="Times New Roman,serif" font-size="15.00">xor</text>
</g>
<!-- 2757328586848&#45;&#45;2757328595536 -->
<g id="edge55" class="edge">
<title>2757328586848&#45;&#45;2757328595536</title>
<path fill="none" stroke="black" d="M293.59,-283.26C348.45,-273.01 477.43,-248.93 532.15,-238.71"/>
</g>
<!-- 2757328596352 -->
<g id="node59" class="node">
<title>2757328596352</title>
<ellipse fill="none" stroke="black" cx="558.4" cy="-180" rx="166" ry="18"/>
<text text-anchor="middle" x="558.4" y="-174" font-family="Times New Roman,serif" font-size="15.00">enter senddate procedure confirmation</text>
</g>
<!-- 2757328586848&#45;&#45;2757328596352 -->
<g id="edge56" class="edge">
<title>2757328586848&#45;&#45;2757328596352</title>
<path fill="none" stroke="black" d="M291.36,-279.34C338.68,-261.68 447.21,-221.15 510.05,-197.68"/>
</g>
<!-- 2757328596208 -->
<g id="node60" class="node">
<title>2757328596208</title>
<ellipse fill="none" stroke="black" cx="558.4" cy="-126" rx="27" ry="18"/>
<text text-anchor="middle" x="558.4" y="-120" font-family="Times New Roman,serif" font-size="15.00">xor</text>
</g>
<!-- 2757328586848&#45;&#45;2757328596208 -->
<g id="edge61" class="edge">
<title>2757328586848&#45;&#45;2757328596208</title>
<path fill="none" stroke="black" d="M288.52,-276.61C341.62,-246.86 484.01,-167.11 537.08,-137.38"/>
</g>
<!-- 2757328597024 -->
<g id="node65" class="node">
<title>2757328597024</title>
<ellipse fill="none" stroke="black" cx="558.4" cy="-72" rx="126.59" ry="18"/>
<text text-anchor="middle" x="558.4" y="-66" font-family="Times New Roman,serif" font-size="15.00">send procedure confirmation</text>
</g>
<!-- 2757328586848&#45;&#45;2757328597024 -->
<g id="edge62" class="edge">
<title>2757328586848&#45;&#45;2757328597024</title>
<path fill="none" stroke="black" d="M285.83,-274.81C335.51,-237.72 476.52,-132.41 533.28,-90.01"/>
</g>
<!-- 2757328596880 -->
<g id="node66" class="node">
<title>2757328596880</title>
<ellipse fill="none" stroke="black" cx="558.4" cy="-18" rx="124.54" ry="18"/>
<text text-anchor="middle" x="558.4" y="-12" font-family="Times New Roman,serif" font-size="15.00">registration date publication</text>
</g>
<!-- 2757328586848&#45;&#45;2757328596880 -->
<g id="edge63" class="edge">
<title>2757328586848&#45;&#45;2757328596880</title>
<path fill="none" stroke="black" d="M283.73,-273.48C332.77,-227.7 484.14,-86.39 538.07,-36.04"/>
</g>
<!-- 2757328588864 -->
<g id="node12" class="node">
<title>2757328588864</title>
<ellipse fill="black" stroke="black" cx="911.04" cy="-567" rx="2.7" ry="2.7"/>
</g>
<!-- 2757328588624&#45;&#45;2757328588864 -->
<g id="edge8" class="edge">
<title>2757328588624&#45;&#45;2757328588864</title>
<path fill="none" stroke="black" d="M585.18,-519.75C661.73,-530.88 883.85,-563.19 907.92,-566.69"/>
</g>
<!-- 2757328588912 -->
<g id="node13" class="node">
<title>2757328588912</title>
<ellipse fill="none" stroke="black" cx="911.04" cy="-528" rx="27" ry="18"/>
<text text-anchor="middle" x="911.04" y="-522" font-family="Times New Roman,serif" font-size="15.00">and</text>
</g>
<!-- 2757328588624&#45;&#45;2757328588912 -->
<g id="edge42" class="edge">
<title>2757328588624&#45;&#45;2757328588912</title>
<path fill="none" stroke="black" d="M585.75,-516.9C650.89,-519.13 818.9,-524.88 883.86,-527.1"/>
</g>
<!-- 2757328589632 -->
<g id="node14" class="node">
<title>2757328589632</title>
<ellipse fill="none" stroke="black" cx="1285.17" cy="-555" rx="140.41" ry="18"/>
<text text-anchor="middle" x="1285.17" y="-549" font-family="Times New Roman,serif" font-size="15.00">register submission date request</text>
</g>
<!-- 2757328588912&#45;&#45;2757328589632 -->
<g id="edge9" class="edge">
<title>2757328588912&#45;&#45;2757328589632</title>
<path fill="none" stroke="black" d="M938.21,-529.9C984.12,-533.23 1081.89,-540.32 1161.82,-546.12"/>
</g>
<!-- 2757328589152 -->
<g id="node15" class="node">
<title>2757328589152</title>
<ellipse fill="none" stroke="black" cx="1285.17" cy="-501" rx="27" ry="18"/>
<text text-anchor="middle" x="1285.17" y="-495" font-family="Times New Roman,serif" font-size="15.00">seq</text>
</g>
<!-- 2757328588912&#45;&#45;2757328589152 -->
<g id="edge41" class="edge">
<title>2757328588912&#45;&#45;2757328589152</title>
<path fill="none" stroke="black" d="M938.21,-526.1C1006.53,-521.14 1189.74,-507.85 1258.03,-502.9"/>
</g>
<!-- 2757328589920 -->
<g id="node16" class="node">
<title>2757328589920</title>
<ellipse fill="none" stroke="black" cx="1612.73" cy="-555" rx="102.02" ry="18"/>
<text text-anchor="middle" x="1612.73" y="-549" font-family="Times New Roman,serif" font-size="15.00">OLO messaging active</text>
</g>
<!-- 2757328589152&#45;&#45;2757328589920 -->
<g id="edge10" class="edge">
<title>2757328589152&#45;&#45;2757328589920</title>
<path fill="none" stroke="black" d="M1311.72,-505.24C1359.69,-513.19 1464.89,-530.64 1537.04,-542.61"/>
</g>
<!-- 2757328590208 -->
<g id="node17" class="node">
<title>2757328590208</title>
<ellipse fill="none" stroke="black" cx="1612.73" cy="-501" rx="27" ry="18"/>
<text text-anchor="middle" x="1612.73" y="-495" font-family="Times New Roman,serif" font-size="15.00">xor</text>
</g>
<!-- 2757328589152&#45;&#45;2757328590208 -->
<g id="edge20" class="edge">
<title>2757328589152&#45;&#45;2757328590208</title>
<path fill="none" stroke="black" d="M1312.54,-501C1373.69,-501 1524.62,-501 1585.57,-501"/>
</g>
<!-- 2757328590256 -->
<g id="node27" class="node">
<title>2757328590256</title>
<ellipse fill="none" stroke="black" cx="1612.73" cy="-393" rx="45.21" ry="18"/>
<text text-anchor="middle" x="1612.73" y="-387" font-family="Times New Roman,serif" font-size="15.00">xor loop</text>
</g>
<!-- 2757328589152&#45;&#45;2757328590256 -->
<g id="edge40" class="edge">
<title>2757328589152&#45;&#45;2757328590256</title>
<path fill="none" stroke="black" d="M1309.85,-493.15C1366.62,-474.31 1510.71,-426.51 1577.18,-404.46"/>
</g>
<!-- 2757328590160 -->
<g id="node18" class="node">
<title>2757328590160</title>
<ellipse fill="none" stroke="black" cx="1777.75" cy="-609" rx="27" ry="18"/>
<text text-anchor="middle" x="1777.75" y="-603" font-family="Times New Roman,serif" font-size="15.00">seq</text>
</g>
<!-- 2757328590208&#45;&#45;2757328590160 -->
<g id="edge15" class="edge">
<title>2757328590208&#45;&#45;2757328590160</title>
<path fill="none" stroke="black" d="M1632.75,-513.6C1664.16,-534.41 1726.52,-575.72 1757.85,-596.48"/>
</g>
<!-- 2757328590976 -->
<g id="node23" class="node">
<title>2757328590976</title>
<ellipse fill="none" stroke="black" cx="1777.75" cy="-501" rx="27" ry="18"/>
<text text-anchor="middle" x="1777.75" y="-495" font-family="Times New Roman,serif" font-size="15.00">seq</text>
</g>
<!-- 2757328590208&#45;&#45;2757328590976 -->
<g id="edge19" class="edge">
<title>2757328590208&#45;&#45;2757328590976</title>
<path fill="none" stroke="black" d="M1639.92,-501C1670.26,-501 1719.94,-501 1750.36,-501"/>
</g>
<!-- 2757328590928 -->
<g id="node19" class="node">
<title>2757328590928</title>
<ellipse fill="none" stroke="black" cx="1973.48" cy="-663" rx="132.73" ry="18"/>
<text text-anchor="middle" x="1973.48" y="-657" font-family="Times New Roman,serif" font-size="15.00">create procedure confirmation</text>
</g>
<!-- 2757328590160&#45;&#45;2757328590928 -->
<g id="edge11" class="edge">
<title>2757328590160&#45;&#45;2757328590928</title>
<path fill="none" stroke="black" d="M1803.29,-615.84C1830.88,-623.53 1876.66,-636.29 1913.65,-646.6"/>
</g>
<!-- 2757328591216 -->
<g id="node20" class="node">
<title>2757328591216</title>
<ellipse fill="none" stroke="black" cx="1973.48" cy="-609" rx="27" ry="18"/>
<text text-anchor="middle" x="1973.48" y="-603" font-family="Times New Roman,serif" font-size="15.00">xor</text>
</g>
<!-- 2757328590160&#45;&#45;2757328591216 -->
<g id="edge14" class="edge">
<title>2757328590160&#45;&#45;2757328591216</title>
<path fill="none" stroke="black" d="M1804.88,-609C1841.85,-609 1909.06,-609 1946.15,-609"/>
</g>
<!-- 2757328591168 -->
<g id="node21" class="node">
<title>2757328591168</title>
<ellipse fill="none" stroke="black" cx="2266.75" cy="-636" rx="124.54" ry="18"/>
<text text-anchor="middle" x="2266.75" y="-630" font-family="Times New Roman,serif" font-size="15.00">create publication document</text>
</g>
<!-- 2757328591216&#45;&#45;2757328591168 -->
<g id="edge12" class="edge">
<title>2757328591216&#45;&#45;2757328591168</title>
<path fill="none" stroke="black" d="M2000.59,-611.42C2036.47,-614.75 2103.14,-620.93 2160.65,-626.26"/>
</g>
<!-- 2757328591984 -->
<g id="node22" class="node">
<title>2757328591984</title>
<ellipse fill="none" stroke="black" cx="2266.75" cy="-582" rx="40.6" ry="18"/>
<text text-anchor="middle" x="2266.75" y="-576" font-family="Times New Roman,serif" font-size="15.00">publish</text>
</g>
<!-- 2757328591216&#45;&#45;2757328591984 -->
<g id="edge13" class="edge">
<title>2757328591216&#45;&#45;2757328591984</title>
<path fill="none" stroke="black" d="M2000.59,-606.58C2051.97,-601.82 2166.48,-591.2 2226.82,-585.61"/>
</g>
<!-- 2757328591888 -->
<g id="node24" class="node">
<title>2757328591888</title>
<ellipse fill="none" stroke="black" cx="1973.48" cy="-555" rx="64.15" ry="18"/>
<text text-anchor="middle" x="1973.48" y="-549" font-family="Times New Roman,serif" font-size="15.00">MER present</text>
</g>
<!-- 2757328590976&#45;&#45;2757328591888 -->
<g id="edge16" class="edge">
<title>2757328590976&#45;&#45;2757328591888</title>
<path fill="none" stroke="black" d="M1803.29,-507.84C1834.24,-516.47 1888.08,-531.48 1926.72,-542.25"/>
</g>
<!-- 2757328591936 -->
<g id="node25" class="node">
<title>2757328591936</title>
<ellipse fill="none" stroke="black" cx="1973.48" cy="-501" rx="123" ry="18"/>
<text text-anchor="middle" x="1973.48" y="-495" font-family="Times New Roman,serif" font-size="15.00">activities regular procedure</text>
</g>
<!-- 2757328590976&#45;&#45;2757328591936 -->
<g id="edge17" class="edge">
<title>2757328590976&#45;&#45;2757328591936</title>
<path fill="none" stroke="black" d="M1804.88,-501C1817.27,-501 1833.06,-501 1849.98,-501"/>
</g>
<!-- 2757328592224 -->
<g id="node26" class="node">
<title>2757328592224</title>
<ellipse fill="none" stroke="black" cx="1973.48" cy="-447" rx="129.15" ry="18"/>
<text text-anchor="middle" x="1973.48" y="-441" font-family="Times New Roman,serif" font-size="15.00">read field phased application</text>
</g>
<!-- 2757328590976&#45;&#45;2757328592224 -->
<g id="edge18" class="edge">
<title>2757328590976&#45;&#45;2757328592224</title>
<path fill="none" stroke="black" d="M1803.29,-494.16C1830.88,-486.47 1876.66,-473.71 1913.65,-463.4"/>
</g>
<!-- 2757328591840 -->
<g id="node28" class="node">
<title>2757328591840</title>
<ellipse fill="none" stroke="black" cx="1777.75" cy="-393" rx="27" ry="18"/>
<text text-anchor="middle" x="1777.75" y="-387" font-family="Times New Roman,serif" font-size="15.00">seq</text>
</g>
<!-- 2757328590256&#45;&#45;2757328591840 -->
<g id="edge38" class="edge">
<title>2757328590256&#45;&#45;2757328591840</title>
<path fill="none" stroke="black" d="M1658.28,-393C1687.88,-393 1725.73,-393 1750.58,-393"/>
</g>
<!-- 2757328592656 -->
<g id="node46" class="node">
<title>2757328592656</title>
<ellipse fill="black" stroke="black" cx="1777.75" cy="-354" rx="2.7" ry="2.7"/>
</g>
<!-- 2757328590256&#45;&#45;2757328592656 -->
<g id="edge39" class="edge">
<title>2757328590256&#45;&#45;2757328592656</title>
<path fill="none" stroke="black" d="M1651.95,-383.86C1695.62,-373.41 1762.64,-357.38 1774.82,-354.46"/>
</g>
<!-- 2757328592608 -->
<g id="node29" class="node">
<title>2757328592608</title>
<ellipse fill="none" stroke="black" cx="1973.48" cy="-393" rx="27" ry="18"/>
<text text-anchor="middle" x="1973.48" y="-387" font-family="Times New Roman,serif" font-size="15.00">xor</text>
</g>
<!-- 2757328591840&#45;&#45;2757328592608 -->
<g id="edge32" class="edge">
<title>2757328591840&#45;&#45;2757328592608</title>
<path fill="none" stroke="black" d="M1804.88,-393C1841.85,-393 1909.06,-393 1946.15,-393"/>
</g>
<!-- 2757328592896 -->
<g id="node41" class="node">
<title>2757328592896</title>
<ellipse fill="none" stroke="black" cx="1973.48" cy="-332" rx="27" ry="18"/>
<text text-anchor="middle" x="1973.48" y="-326" font-family="Times New Roman,serif" font-size="15.00">xor</text>
</g>
<!-- 2757328591840&#45;&#45;2757328592896 -->
<g id="edge37" class="edge">
<title>2757328591840&#45;&#45;2757328592896</title>
<path fill="none" stroke="black" d="M1802.51,-385.52C1839.69,-373.81 1911.23,-351.29 1948.53,-339.54"/>
</g>
<!-- 2757328593328 -->
<g id="node30" class="node">
<title>2757328593328</title>
<ellipse fill="none" stroke="black" cx="2266.75" cy="-447" rx="92.3" ry="18"/>
<text text-anchor="middle" x="2266.75" y="-441" font-family="Times New Roman,serif" font-size="15.00">terminate on request</text>
</g>
<!-- 2757328592608&#45;&#45;2757328593328 -->
<g id="edge21" class="edge">
<title>2757328592608&#45;&#45;2757328593328</title>
<path fill="none" stroke="black" d="M1999.82,-397.7C2043.7,-405.83 2135.18,-422.79 2198.5,-434.53"/>
</g>
<!-- 2757328592848 -->
<g id="node31" class="node">
<title>2757328592848</title>
<ellipse fill="none" stroke="black" cx="2266.75" cy="-393" rx="27" ry="18"/>
<text text-anchor="middle" x="2266.75" y="-387" font-family="Times New Roman,serif" font-size="15.00">seq</text>
</g>
<!-- 2757328592608&#45;&#45;2757328592848 -->
<g id="edge31" class="edge">
<title>2757328592608&#45;&#45;2757328592848</title>
<path fill="none" stroke="black" d="M2000.84,-393C2056.3,-393 2184.44,-393 2239.66,-393"/>
</g>
<!-- 2757328593616 -->
<g id="node32" class="node">
<title>2757328593616</title>
<ellipse fill="none" stroke="black" cx="2618.88" cy="-451" rx="27" ry="18"/>
<text text-anchor="middle" x="2618.88" y="-445" font-family="Times New Roman,serif" font-size="15.00">xor</text>
</g>
<!-- 2757328592848&#45;&#45;2757328593616 -->
<g id="edge28" class="edge">
<title>2757328592848&#45;&#45;2757328593616</title>
<path fill="none" stroke="black" d="M2293.5,-397.26C2358.4,-408.02 2528.13,-436.13 2592.57,-446.81"/>
</g>
<!-- 2757328593904 -->
<g id="node39" class="node">
<title>2757328593904</title>
<ellipse fill="none" stroke="black" cx="2618.88" cy="-397" rx="119.93" ry="18"/>
<text text-anchor="middle" x="2618.88" y="-391" font-family="Times New Roman,serif" font-size="15.00">phase application received</text>
</g>
<!-- 2757328592848&#45;&#45;2757328593904 -->
<g id="edge29" class="edge">
<title>2757328592848&#45;&#45;2757328593904</title>
<path fill="none" stroke="black" d="M2294.07,-393.3C2337.17,-393.79 2425.36,-394.8 2498.83,-395.64"/>
</g>
<!-- 2757328594288 -->
<g id="node40" class="node">
<title>2757328594288</title>
<ellipse fill="none" stroke="black" cx="2618.88" cy="-343" rx="143.48" ry="18"/>
<text text-anchor="middle" x="2618.88" y="-337" font-family="Times New Roman,serif" font-size="15.00">enter senddate acknowledgement</text>
</g>
<!-- 2757328592848&#45;&#45;2757328594288 -->
<g id="edge30" class="edge">
<title>2757328592848&#45;&#45;2757328594288</title>
<path fill="none" stroke="black" d="M2293.5,-389.32C2341.03,-382.54 2444.79,-367.72 2522.23,-356.66"/>
</g>
<!-- 2757328594336 -->
<g id="node33" class="node">
<title>2757328594336</title>
<ellipse fill="black" stroke="black" cx="2873.46" cy="-470" rx="2.7" ry="2.7"/>
</g>
<!-- 2757328593616&#45;&#45;2757328594336 -->
<g id="edge22" class="edge">
<title>2757328593616&#45;&#45;2757328594336</title>
<path fill="none" stroke="black" d="M2645.96,-452.96C2706.21,-457.49 2851.38,-468.41 2870.4,-469.84"/>
</g>
<!-- 2757328593856 -->
<g id="node34" class="node">
<title>2757328593856</title>
<ellipse fill="none" stroke="black" cx="2873.46" cy="-431" rx="27" ry="18"/>
<text text-anchor="middle" x="2873.46" y="-425" font-family="Times New Roman,serif" font-size="15.00">seq</text>
</g>
<!-- 2757328593616&#45;&#45;2757328593856 -->
<g id="edge27" class="edge">
<title>2757328593616&#45;&#45;2757328593856</title>
<path fill="none" stroke="black" d="M2645.96,-448.93C2694.36,-445.1 2797.57,-436.93 2846.15,-433.08"/>
</g>
<!-- 2757328594624 -->
<g id="node35" class="node">
<title>2757328594624</title>
<ellipse fill="none" stroke="black" cx="3107.07" cy="-458" rx="170.6" ry="18"/>
<text text-anchor="middle" x="3107.07" y="-452" font-family="Times New Roman,serif" font-size="15.00">phase forwarded to competent authority</text>
</g>
<!-- 2757328593856&#45;&#45;2757328594624 -->
<g id="edge23" class="edge">
<title>2757328593856&#45;&#45;2757328594624</title>
<path fill="none" stroke="black" d="M2900.58,-434.04C2922.88,-436.64 2956.61,-440.58 2990.34,-444.51"/>
</g>
<!-- 2757328594912 -->
<g id="node36" class="node">
<title>2757328594912</title>
<ellipse fill="none" stroke="black" cx="3107.07" cy="-404" rx="27" ry="18"/>
<text text-anchor="middle" x="3107.07" y="-398" font-family="Times New Roman,serif" font-size="15.00">and</text>
</g>
<!-- 2757328593856&#45;&#45;2757328594912 -->
<g id="edge26" class="edge">
<title>2757328593856&#45;&#45;2757328594912</title>
<path fill="none" stroke="black" d="M2900.58,-427.96C2945.18,-422.76 3035.51,-412.23 3080.05,-407.03"/>
</g>
<!-- 2757328594864 -->
<g id="node37" class="node">
<title>2757328594864</title>
<ellipse fill="none" stroke="black" cx="3497.58" cy="-431" rx="155.76" ry="18"/>
<text text-anchor="middle" x="3497.58" y="-425" font-family="Times New Roman,serif" font-size="15.00">enter senddate letter to stakeholders</text>
</g>
<!-- 2757328594912&#45;&#45;2757328594864 -->
<g id="edge24" class="edge">
<title>2757328594912&#45;&#45;2757328594864</title>
<path fill="none" stroke="black" d="M3134.16,-405.81C3180.44,-409.03 3279.83,-415.94 3362.84,-421.71"/>
</g>
<!-- 2757328595680 -->
<g id="node38" class="node">
<title>2757328595680</title>
<ellipse fill="none" stroke="black" cx="3497.58" cy="-377" rx="183.91" ry="18"/>
<text text-anchor="middle" x="3497.58" y="-371" font-family="Times New Roman,serif" font-size="15.00">enter senddate letter to competent authority</text>
</g>
<!-- 2757328594912&#45;&#45;2757328595680 -->
<g id="edge25" class="edge">
<title>2757328594912&#45;&#45;2757328595680</title>
<path fill="none" stroke="black" d="M3134.16,-402.19C3177.29,-399.19 3266.56,-392.99 3345.7,-387.49"/>
</g>
<!-- 2757328594672 -->
<g id="node42" class="node">
<title>2757328594672</title>
<ellipse fill="black" stroke="black" cx="2266.75" cy="-332" rx="2.7" ry="2.7"/>
</g>
<!-- 2757328592896&#45;&#45;2757328594672 -->
<g id="edge33" class="edge">
<title>2757328592896&#45;&#45;2757328594672</title>
<path fill="none" stroke="black" d="M2000.84,-332C2068.06,-332 2242.07,-332 2263.56,-332"/>
</g>
<!-- 2757328594528 -->
<g id="node43" class="node">
<title>2757328594528</title>
<ellipse fill="none" stroke="black" cx="2266.75" cy="-289" rx="27" ry="18"/>
<text text-anchor="middle" x="2266.75" y="-283" font-family="Times New Roman,serif" font-size="15.00">seq</text>
</g>
<!-- 2757328592896&#45;&#45;2757328594528 -->
<g id="edge36" class="edge">
<title>2757328592896&#45;&#45;2757328594528</title>
<path fill="none" stroke="black" d="M2000.33,-328.18C2055.6,-320.02 2184.74,-300.96 2239.96,-292.81"/>
</g>
<!-- 2757328595632 -->
<g id="node44" class="node">
<title>2757328595632</title>
<ellipse fill="none" stroke="black" cx="2618.88" cy="-289" rx="191.59" ry="18"/>
<text text-anchor="middle" x="2618.88" y="-283" font-family="Times New Roman,serif" font-size="15.00">no permit needed or only notification needed</text>
</g>
<!-- 2757328594528&#45;&#45;2757328595632 -->
<g id="edge34" class="edge">
<title>2757328594528&#45;&#45;2757328595632</title>
<path fill="none" stroke="black" d="M2294.07,-289C2323.65,-289 2374.47,-289 2427.2,-289"/>
</g>
<!-- 2757328595920 -->
<g id="node45" class="node">
<title>2757328595920</title>
<ellipse fill="none" stroke="black" cx="2618.88" cy="-235" rx="107.14" ry="18"/>
<text text-anchor="middle" x="2618.88" y="-229" font-family="Times New Roman,serif" font-size="15.00">applicant is stakeholder</text>
</g>
<!-- 2757328594528&#45;&#45;2757328595920 -->
<g id="edge35" class="edge">
<title>2757328594528&#45;&#45;2757328595920</title>
<path fill="none" stroke="black" d="M2293.5,-285.03C2344.43,-277.17 2459.9,-259.37 2538.39,-247.26"/>
</g>
<!-- 2757328589584 -->
<g id="node48" class="node">
<title>2757328589584</title>
<ellipse fill="black" stroke="black" cx="911.04" cy="-489" rx="2.7" ry="2.7"/>
</g>
<!-- 2757328588144&#45;&#45;2757328589584 -->
<g id="edge44" class="edge">
<title>2757328588144&#45;&#45;2757328589584</title>
<path fill="none" stroke="black" d="M585.47,-452.9C662.29,-461.44 883.91,-486.09 907.92,-488.76"/>
</g>
<!-- 2757328589968 -->
<g id="node49" class="node">
<title>2757328589968</title>
<ellipse fill="none" stroke="black" cx="911.04" cy="-450" rx="103.56" ry="18"/>
<text text-anchor="middle" x="911.04" y="-444" font-family="Times New Roman,serif" font-size="15.00">reception through OLO</text>
</g>
<!-- 2757328588144&#45;&#45;2757328589968 -->
<g id="edge45" class="edge">
<title>2757328588144&#45;&#45;2757328589968</title>
<path fill="none" stroke="black" d="M585.75,-450C632.18,-450 730.86,-450 807.24,-450"/>
</g>
<!-- 2757328590880 -->
<g id="node50" class="node">
<title>2757328590880</title>
<ellipse fill="none" stroke="black" cx="911.04" cy="-396" rx="124.03" ry="18"/>
<text text-anchor="middle" x="911.04" y="-390" font-family="Times New Roman,serif" font-size="15.00">treat subcases completeness</text>
</g>
<!-- 2757328588144&#45;&#45;2757328590880 -->
<g id="edge46" class="edge">
<title>2757328588144&#45;&#45;2757328590880</title>
<path fill="none" stroke="black" d="M585.18,-446.03C634.84,-438.38 745.78,-421.3 824.15,-409.23"/>
</g>
<!-- 2757328593280 -->
<g id="node52" class="node">
<title>2757328593280</title>
<ellipse fill="none" stroke="black" cx="911.04" cy="-342" rx="113.79" ry="18"/>
<text text-anchor="middle" x="911.04" y="-336" font-family="Times New Roman,serif" font-size="15.00">send confirmation receipt</text>
</g>
<!-- 2757328589200&#45;&#45;2757328593280 -->
<g id="edge48" class="edge">
<title>2757328589200&#45;&#45;2757328593280</title>
<path fill="none" stroke="black" d="M601,-389.59C656.69,-381.02 756.71,-365.61 827.87,-354.65"/>
</g>
<!-- 2757328594960 -->
<g id="node53" class="node">
<title>2757328594960</title>
<ellipse fill="black" stroke="black" cx="911.04" cy="-303" rx="2.7" ry="2.7"/>
</g>
<!-- 2757328589200&#45;&#45;2757328594960 -->
<g id="edge49" class="edge">
<title>2757328589200&#45;&#45;2757328594960</title>
<path fill="none" stroke="black" d="M596.92,-386.05C682.43,-363.37 886.08,-309.35 908.1,-303.51"/>
</g>
<!-- 2757328596304 -->
<g id="node57" class="node">
<title>2757328596304</title>
<ellipse fill="black" stroke="black" cx="911.04" cy="-258" rx="2.7" ry="2.7"/>
</g>
<!-- 2757328595536&#45;&#45;2757328596304 -->
<g id="edge53" class="edge">
<title>2757328595536&#45;&#45;2757328596304</title>
<path fill="none" stroke="black" d="M585.75,-235.8C662.84,-241.08 883.97,-256.22 907.93,-257.86"/>
</g>
<!-- 2757328596592 -->
<g id="node58" class="node">
<title>2757328596592</title>
<ellipse fill="none" stroke="black" cx="911.04" cy="-219" rx="117.37" ry="18"/>
<text text-anchor="middle" x="911.04" y="-213" font-family="Times New Roman,serif" font-size="15.00">inform BAG administrator</text>
</g>
<!-- 2757328595536&#45;&#45;2757328596592 -->
<g id="edge54" class="edge">
<title>2757328595536&#45;&#45;2757328596592</title>
<path fill="none" stroke="black" d="M585.75,-232.87C630.19,-230.97 722.49,-227.02 797.3,-223.82"/>
</g>
<!-- 2757328596976 -->
<g id="node61" class="node">
<title>2757328596976</title>
<ellipse fill="black" stroke="black" cx="911.04" cy="-146" rx="2.7" ry="2.7"/>
</g>
<!-- 2757328596208&#45;&#45;2757328596976 -->
<g id="edge57" class="edge">
<title>2757328596208&#45;&#45;2757328596976</title>
<path fill="none" stroke="black" d="M585.75,-127.5C662.84,-131.9 883.97,-144.51 907.93,-145.88"/>
</g>
<!-- 2757328597264 -->
<g id="node62" class="node">
<title>2757328597264</title>
<ellipse fill="none" stroke="black" cx="911.04" cy="-107" rx="45.21" ry="18"/>
<text text-anchor="middle" x="911.04" y="-101" font-family="Times New Roman,serif" font-size="15.00">xor loop</text>
</g>
<!-- 2757328596208&#45;&#45;2757328597264 -->
<g id="edge60" class="edge">
<title>2757328596208&#45;&#45;2757328597264</title>
<path fill="none" stroke="black" d="M585.75,-124.57C645.56,-121.33 792.07,-113.39 865.93,-109.39"/>
</g>
<!-- 2757328597216 -->
<g id="node63" class="node">
<title>2757328597216</title>
<ellipse fill="none" stroke="black" cx="1285.17" cy="-134" rx="189.54" ry="18"/>
<text text-anchor="middle" x="1285.17" y="-128" font-family="Times New Roman,serif" font-size="15.00">registrer date of publishing received request</text>
</g>
<!-- 2757328597264&#45;&#45;2757328597216 -->
<g id="edge58" class="edge">
<title>2757328597264&#45;&#45;2757328597216</title>
<path fill="none" stroke="black" d="M955.82,-110.18C999.43,-113.34 1068.92,-118.38 1132.76,-123.01"/>
</g>
<!-- 2757328598032 -->
<g id="node64" class="node">
<title>2757328598032</title>
<ellipse fill="none" stroke="black" cx="1285.17" cy="-80" rx="63.63" ry="18"/>
<text text-anchor="middle" x="1285.17" y="-74" font-family="Times New Roman,serif" font-size="15.00">suspend term</text>
</g>
<!-- 2757328597264&#45;&#45;2757328598032 -->
<g id="edge59" class="edge">
<title>2757328597264&#45;&#45;2757328598032</title>
<path fill="none" stroke="black" d="M955.82,-103.82C1022.01,-99.02 1147.78,-89.9 1222.99,-84.44"/>
</g>
<!-- 2757328597312 -->
<g id="node68" class="node">
<title>2757328597312</title>
<ellipse fill="black" stroke="black" cx="267.18" cy="-249" rx="2.7" ry="2.7"/>
</g>
<!-- 2757328586080&#45;&#45;2757328597312 -->
<g id="edge66" class="edge">
<title>2757328586080&#45;&#45;2757328597312</title>
<path fill="none" stroke="black" d="M143.47,-226.64C181.87,-233.64 251.45,-246.32 264.16,-248.63"/>
</g>
<!-- 2757328597936 -->
<g id="node69" class="node">
<title>2757328597936</title>
<ellipse fill="none" stroke="black" cx="267.18" cy="-210" rx="87.18" ry="18"/>
<text text-anchor="middle" x="267.18" y="-204" font-family="Times New Roman,serif" font-size="15.00">phased application</text>
</g>
<!-- 2757328586080&#45;&#45;2757328597936 -->
<g id="edge67" class="edge">
<title>2757328586080&#45;&#45;2757328597936</title>
<path fill="none" stroke="black" d="M144.15,-219.88C155.86,-218.93 170.38,-217.76 185.27,-216.55"/>
</g>
<!-- 2757328597984 -->
<g id="node70" class="node">
<title>2757328597984</title>
<ellipse fill="none" stroke="black" cx="267.18" cy="-156" rx="52.89" ry="18"/>
<text text-anchor="middle" x="267.18" y="-150" font-family="Times New Roman,serif" font-size="15.00">close case</text>
</g>
<!-- 2757328586080&#45;&#45;2757328597984 -->
<g id="edge68" class="edge">
<title>2757328586080&#45;&#45;2757328597984</title>
<path fill="none" stroke="black" d="M140.18,-212.12C165.05,-201.04 205.59,-182.98 233.95,-170.35"/>
</g>
</g>
</svg>
