<?xml version="1.0" encoding="UTF-8" standalone="no"?>
<!DOCTYPE svg PUBLIC "-//W3C//DTD SVG 1.1//EN"
 "http://www.w3.org/Graphics/SVG/1.1/DTD/svg11.dtd">
<!-- Generated by graphviz version 11.0.0 (20240428.1522)
 -->
<!-- Title: pt Pages: 1 -->
<svg width="3518pt" height="744pt"
 viewBox="0.00 0.00 3518.47 744.00" xmlns="http://www.w3.org/2000/svg" xmlns:xlink="http://www.w3.org/1999/xlink">
<g id="graph0" class="graph" transform="scale(1 1) rotate(0) translate(4 740)">
<title>pt</title>
<polygon fill="white" stroke="none" points="-4,4 -4,-740 3514.47,-740 3514.47,4 -4,4"/>
<!-- 2757326843600 -->
<g id="node1" class="node">
<title>2757326843600</title>
<ellipse fill="none" stroke="black" cx="27" cy="-583" rx="27" ry="18"/>
<text text-anchor="middle" x="27" y="-577" font-family="Times New Roman,serif" font-size="15.00">seq</text>
</g>
<!-- 2757326845712 -->
<g id="node2" class="node">
<title>2757326845712</title>
<ellipse fill="none" stroke="black" cx="117" cy="-637" rx="27" ry="18"/>
<text text-anchor="middle" x="117" y="-631" font-family="Times New Roman,serif" font-size="15.00">xor</text>
</g>
<!-- 2757326843600&#45;&#45;2757326845712 -->
<g id="edge54" class="edge">
<title>2757326843600&#45;&#45;2757326845712</title>
<path fill="none" stroke="black" d="M47.53,-594.98C62.11,-603.93 81.95,-616.11 96.52,-625.05"/>
</g>
<!-- 2757326837552 -->
<g id="node56" class="node">
<title>2757326837552</title>
<ellipse fill="none" stroke="black" cx="117" cy="-556" rx="27" ry="18"/>
<text text-anchor="middle" x="117" y="-550" font-family="Times New Roman,serif" font-size="15.00">xor</text>
</g>
<!-- 2757326843600&#45;&#45;2757326837552 -->
<g id="edge60" class="edge">
<title>2757326843600&#45;&#45;2757326837552</title>
<path fill="none" stroke="black" d="M52.05,-575.62C64.46,-571.81 79.57,-567.18 91.98,-563.37"/>
</g>
<!-- 2757327029936 -->
<g id="node3" class="node">
<title>2757327029936</title>
<ellipse fill="black" stroke="black" cx="267.18" cy="-676" rx="2.7" ry="2.7"/>
</g>
<!-- 2757326845712&#45;&#45;2757327029936 -->
<g id="edge1" class="edge">
<title>2757326845712&#45;&#45;2757327029936</title>
<path fill="none" stroke="black" d="M142.47,-643.44C180.61,-653.48 251.22,-672.06 264.13,-675.46"/>
</g>
<!-- 2757327041024 -->
<g id="node4" class="node">
<title>2757327041024</title>
<ellipse fill="none" stroke="black" cx="267.18" cy="-637" rx="27" ry="18"/>
<text text-anchor="middle" x="267.18" y="-631" font-family="Times New Roman,serif" font-size="15.00">and</text>
</g>
<!-- 2757326845712&#45;&#45;2757327041024 -->
<g id="edge53" class="edge">
<title>2757326845712&#45;&#45;2757327041024</title>
<path fill="none" stroke="black" d="M144.49,-637C171.46,-637 213.03,-637 239.92,-637"/>
</g>
<!-- 2757327043376 -->
<g id="node5" class="node">
<title>2757327043376</title>
<ellipse fill="none" stroke="black" cx="579.9" cy="-691" rx="119.93" ry="18"/>
<text text-anchor="middle" x="579.9" y="-685" font-family="Times New Roman,serif" font-size="15.00">phase application received</text>
</g>
<!-- 2757327041024&#45;&#45;2757327043376 -->
<g id="edge2" class="edge">
<title>2757327041024&#45;&#45;2757327043376</title>
<path fill="none" stroke="black" d="M293.61,-641.42C338.1,-649.15 431.81,-665.44 499.71,-677.24"/>
</g>
<!-- 2757327042656 -->
<g id="node6" class="node">
<title>2757327042656</title>
<ellipse fill="none" stroke="black" cx="579.9" cy="-637" rx="140.41" ry="18"/>
<text text-anchor="middle" x="579.9" y="-631" font-family="Times New Roman,serif" font-size="15.00">register submission date request</text>
</g>
<!-- 2757327041024&#45;&#45;2757327042656 -->
<g id="edge3" class="edge">
<title>2757327041024&#45;&#45;2757327042656</title>
<path fill="none" stroke="black" d="M294.67,-637C327.1,-637 384.49,-637 439.25,-637"/>
</g>
<!-- 2757327033584 -->
<g id="node7" class="node">
<title>2757327033584</title>
<ellipse fill="none" stroke="black" cx="579.9" cy="-583" rx="27" ry="18"/>
<text text-anchor="middle" x="579.9" y="-577" font-family="Times New Roman,serif" font-size="15.00">seq</text>
</g>
<!-- 2757327041024&#45;&#45;2757327033584 -->
<g id="edge52" class="edge">
<title>2757327041024&#45;&#45;2757327033584</title>
<path fill="none" stroke="black" d="M293.61,-632.58C352.02,-622.43 495.22,-597.54 553.55,-587.4"/>
</g>
<!-- 2757327035264 -->
<g id="node8" class="node">
<title>2757327035264</title>
<ellipse fill="none" stroke="black" cx="907.46" cy="-610" rx="102.02" ry="18"/>
<text text-anchor="middle" x="907.46" y="-604" font-family="Times New Roman,serif" font-size="15.00">OLO messaging active</text>
</g>
<!-- 2757327033584&#45;&#45;2757327035264 -->
<g id="edge4" class="edge">
<title>2757327033584&#45;&#45;2757327035264</title>
<path fill="none" stroke="black" d="M606.99,-585.16C651.42,-588.85 743.82,-596.51 814.3,-602.36"/>
</g>
<!-- 2757327031616 -->
<g id="node9" class="node">
<title>2757327031616</title>
<ellipse fill="none" stroke="black" cx="907.46" cy="-556" rx="27" ry="18"/>
<text text-anchor="middle" x="907.46" y="-550" font-family="Times New Roman,serif" font-size="15.00">xor</text>
</g>
<!-- 2757327033584&#45;&#45;2757327031616 -->
<g id="edge51" class="edge">
<title>2757327033584&#45;&#45;2757327031616</title>
<path fill="none" stroke="black" d="M606.99,-580.84C667.95,-575.78 819.16,-563.24 880.24,-558.17"/>
</g>
<!-- 2757326954160 -->
<g id="node10" class="node">
<title>2757326954160</title>
<ellipse fill="none" stroke="black" cx="1072.48" cy="-610" rx="27" ry="18"/>
<text text-anchor="middle" x="1072.48" y="-604" font-family="Times New Roman,serif" font-size="15.00">seq</text>
</g>
<!-- 2757327031616&#45;&#45;2757326954160 -->
<g id="edge11" class="edge">
<title>2757327031616&#45;&#45;2757326954160</title>
<path fill="none" stroke="black" d="M932.16,-563.85C963.07,-574.09 1016.82,-591.9 1047.74,-602.14"/>
</g>
<!-- 2757326949984 -->
<g id="node17" class="node">
<title>2757326949984</title>
<ellipse fill="none" stroke="black" cx="1072.48" cy="-529" rx="27" ry="18"/>
<text text-anchor="middle" x="1072.48" y="-523" font-family="Times New Roman,serif" font-size="15.00">and</text>
</g>
<!-- 2757327031616&#45;&#45;2757326949984 -->
<g id="edge50" class="edge">
<title>2757327031616&#45;&#45;2757326949984</title>
<path fill="none" stroke="black" d="M933.93,-551.78C964.46,-546.72 1015.34,-538.3 1045.91,-533.23"/>
</g>
<!-- 2757326954544 -->
<g id="node11" class="node">
<title>2757326954544</title>
<ellipse fill="none" stroke="black" cx="1285.09" cy="-664" rx="27" ry="18"/>
<text text-anchor="middle" x="1285.09" y="-658" font-family="Times New Roman,serif" font-size="15.00">and</text>
</g>
<!-- 2757326954160&#45;&#45;2757326954544 -->
<g id="edge7" class="edge">
<title>2757326954160&#45;&#45;2757326954544</title>
<path fill="none" stroke="black" d="M1098.05,-616.3C1138.52,-626.68 1218.77,-647.25 1259.35,-657.66"/>
</g>
<!-- 2757326951328 -->
<g id="node14" class="node">
<title>2757326951328</title>
<ellipse fill="none" stroke="black" cx="1285.09" cy="-610" rx="27" ry="18"/>
<text text-anchor="middle" x="1285.09" y="-604" font-family="Times New Roman,serif" font-size="15.00">and</text>
</g>
<!-- 2757326954160&#45;&#45;2757326951328 -->
<g id="edge10" class="edge">
<title>2757326954160&#45;&#45;2757326951328</title>
<path fill="none" stroke="black" d="M1099.73,-610C1140.2,-610 1217.38,-610 1257.85,-610"/>
</g>
<!-- 2757326953104 -->
<g id="node12" class="node">
<title>2757326953104</title>
<ellipse fill="none" stroke="black" cx="1619.31" cy="-718" rx="116.35" ry="18"/>
<text text-anchor="middle" x="1619.31" y="-712" font-family="Times New Roman,serif" font-size="15.00">message terminate request</text>
</g>
<!-- 2757326954544&#45;&#45;2757326953104 -->
<g id="edge5" class="edge">
<title>2757326954544&#45;&#45;2757326953104</title>
<path fill="none" stroke="black" d="M1311.61,-668.15C1359.32,-675.9 1463.86,-692.9 1537.59,-704.88"/>
</g>
<!-- 2757326950080 -->
<g id="node13" class="node">
<title>2757326950080</title>
<ellipse fill="none" stroke="black" cx="1619.31" cy="-664" rx="148.59" ry="18"/>
<text text-anchor="middle" x="1619.31" y="-658" font-family="Times New Roman,serif" font-size="15.00">enter senddate request termination</text>
</g>
<!-- 2757326954544&#45;&#45;2757326950080 -->
<g id="edge6" class="edge">
<title>2757326954544&#45;&#45;2757326950080</title>
<path fill="none" stroke="black" d="M1312.44,-664C1346.97,-664 1410.22,-664 1470.28,-664"/>
</g>
<!-- 2757327116704 -->
<g id="node15" class="node">
<title>2757327116704</title>
<ellipse fill="none" stroke="black" cx="1619.31" cy="-610" rx="78.99" ry="18"/>
<text text-anchor="middle" x="1619.31" y="-604" font-family="Times New Roman,serif" font-size="15.00">register deadline</text>
</g>
<!-- 2757326951328&#45;&#45;2757327116704 -->
<g id="edge8" class="edge">
<title>2757326951328&#45;&#45;2757327116704</title>
<path fill="none" stroke="black" d="M1312.44,-610C1361.01,-610 1466.41,-610 1539.82,-610"/>
</g>
<!-- 2757327123472 -->
<g id="node16" class="node">
<title>2757327123472</title>
<ellipse fill="none" stroke="black" cx="1619.31" cy="-556" rx="110.72" ry="18"/>
<text text-anchor="middle" x="1619.31" y="-550" font-family="Times New Roman,serif" font-size="15.00">phase procedure aborted</text>
</g>
<!-- 2757326951328&#45;&#45;2757327123472 -->
<g id="edge9" class="edge">
<title>2757326951328&#45;&#45;2757327123472</title>
<path fill="none" stroke="black" d="M1311.61,-605.85C1359.7,-598.04 1465.53,-580.83 1539.34,-568.84"/>
</g>
<!-- 2757326955792 -->
<g id="node18" class="node">
<title>2757326955792</title>
<ellipse fill="none" stroke="black" cx="1285.09" cy="-556" rx="149.62" ry="18"/>
<text text-anchor="middle" x="1285.09" y="-550" font-family="Times New Roman,serif" font-size="15.00">forward to the competent authority</text>
</g>
<!-- 2757326949984&#45;&#45;2757326955792 -->
<g id="edge12" class="edge">
<title>2757326949984&#45;&#45;2757326955792</title>
<path fill="none" stroke="black" d="M1099.3,-532.31C1119.95,-534.96 1150.35,-538.86 1180.56,-542.73"/>
</g>
<!-- 2757326946960 -->
<g id="node19" class="node">
<title>2757326946960</title>
<ellipse fill="none" stroke="black" cx="1285.09" cy="-502" rx="143.48" ry="18"/>
<text text-anchor="middle" x="1285.09" y="-496" font-family="Times New Roman,serif" font-size="15.00">enter senddate acknowledgement</text>
</g>
<!-- 2757326949984&#45;&#45;2757326946960 -->
<g id="edge13" class="edge">
<title>2757326949984&#45;&#45;2757326946960</title>
<path fill="none" stroke="black" d="M1099.3,-525.69C1120.5,-522.97 1151.98,-518.94 1182.97,-514.96"/>
</g>
<!-- 2757327124144 -->
<g id="node20" class="node">
<title>2757327124144</title>
<ellipse fill="none" stroke="black" cx="1285.09" cy="-448" rx="27" ry="18"/>
<text text-anchor="middle" x="1285.09" y="-442" font-family="Times New Roman,serif" font-size="15.00">seq</text>
</g>
<!-- 2757326949984&#45;&#45;2757327124144 -->
<g id="edge49" class="edge">
<title>2757326949984&#45;&#45;2757327124144</title>
<path fill="none" stroke="black" d="M1096.42,-520.18C1136.93,-504.6 1220.69,-472.39 1261.18,-456.81"/>
</g>
<!-- 2757327116608 -->
<g id="node21" class="node">
<title>2757327116608</title>
<ellipse fill="none" stroke="black" cx="1619.31" cy="-475" rx="27" ry="18"/>
<text text-anchor="middle" x="1619.31" y="-469" font-family="Times New Roman,serif" font-size="15.00">xor</text>
</g>
<!-- 2757327124144&#45;&#45;2757327116608 -->
<g id="edge18" class="edge">
<title>2757327124144&#45;&#45;2757327116608</title>
<path fill="none" stroke="black" d="M1312.16,-450.12C1374.27,-455.17 1530.38,-467.85 1592.36,-472.89"/>
</g>
<!-- 2757327123136 -->
<g id="node26" class="node">
<title>2757327123136</title>
<ellipse fill="none" stroke="black" cx="1619.31" cy="-417" rx="27" ry="18"/>
<text text-anchor="middle" x="1619.31" y="-411" font-family="Times New Roman,serif" font-size="15.00">xor</text>
</g>
<!-- 2757327124144&#45;&#45;2757327123136 -->
<g id="edge48" class="edge">
<title>2757327124144&#45;&#45;2757327123136</title>
<path fill="none" stroke="black" d="M1312.16,-445.57C1374.27,-439.77 1530.38,-425.2 1592.36,-419.42"/>
</g>
<!-- 2757327123376 -->
<g id="node22" class="node">
<title>2757327123376</title>
<ellipse fill="black" stroke="black" cx="1830.9" cy="-514" rx="2.7" ry="2.7"/>
</g>
<!-- 2757327116608&#45;&#45;2757327123376 -->
<g id="edge14" class="edge">
<title>2757327116608&#45;&#45;2757327123376</title>
<path fill="none" stroke="black" d="M1645.59,-479.7C1697.42,-489.35 1812.18,-510.7 1828.07,-513.66"/>
</g>
<!-- 2757327121312 -->
<g id="node23" class="node">
<title>2757327121312</title>
<ellipse fill="none" stroke="black" cx="1830.9" cy="-475" rx="27" ry="18"/>
<text text-anchor="middle" x="1830.9" y="-469" font-family="Times New Roman,serif" font-size="15.00">seq</text>
</g>
<!-- 2757327116608&#45;&#45;2757327121312 -->
<g id="edge17" class="edge">
<title>2757327116608&#45;&#45;2757327121312</title>
<path fill="none" stroke="black" d="M1646.43,-475C1686.59,-475 1763.09,-475 1803.45,-475"/>
</g>
<!-- 2757327119008 -->
<g id="node24" class="node">
<title>2757327119008</title>
<ellipse fill="none" stroke="black" cx="2077.81" cy="-529" rx="183.91" ry="18"/>
<text text-anchor="middle" x="2077.81" y="-523" font-family="Times New Roman,serif" font-size="15.00">enter senddate letter to competent authority</text>
</g>
<!-- 2757327121312&#45;&#45;2757327119008 -->
<g id="edge15" class="edge">
<title>2757327121312&#45;&#45;2757327119008</title>
<path fill="none" stroke="black" d="M1856.73,-480.47C1890.24,-487.86 1951.41,-501.35 2000.77,-512.23"/>
</g>
<!-- 2757327124816 -->
<g id="node25" class="node">
<title>2757327124816</title>
<ellipse fill="none" stroke="black" cx="2077.81" cy="-475" rx="155.76" ry="18"/>
<text text-anchor="middle" x="2077.81" y="-469" font-family="Times New Roman,serif" font-size="15.00">enter senddate letter to stakeholders</text>
</g>
<!-- 2757327121312&#45;&#45;2757327124816 -->
<g id="edge16" class="edge">
<title>2757327121312&#45;&#45;2757327124816</title>
<path fill="none" stroke="black" d="M1858.11,-475C1874.52,-475 1897.17,-475 1921.7,-475"/>
</g>
<!-- 2757327121360 -->
<g id="node27" class="node">
<title>2757327121360</title>
<ellipse fill="black" stroke="black" cx="1830.9" cy="-417" rx="2.7" ry="2.7"/>
</g>
<!-- 2757327123136&#45;&#45;2757327121360 -->
<g id="edge19" class="edge">
<title>2757327123136&#45;&#45;2757327121360</title>
<path fill="none" stroke="black" d="M1646.43,-417C1698.66,-417 1812.35,-417 1828.08,-417"/>
</g>
<!-- 2757327117616 -->
<g id="node28" class="node">
<title>2757327117616</title>
<ellipse fill="none" stroke="black" cx="1830.9" cy="-374" rx="27" ry="18"/>
<text text-anchor="middle" x="1830.9" y="-368" font-family="Times New Roman,serif" font-size="15.00">seq</text>
</g>
<!-- 2757327123136&#45;&#45;2757327117616 -->
<g id="edge47" class="edge">
<title>2757327123136&#45;&#45;2757327117616</title>
<path fill="none" stroke="black" d="M1645.59,-411.81C1685.88,-403.55 1764.19,-387.48 1804.53,-379.21"/>
</g>
<!-- 2757327119296 -->
<g id="node29" class="node">
<title>2757327119296</title>
<ellipse fill="none" stroke="black" cx="2077.81" cy="-421" rx="103.56" ry="18"/>
<text text-anchor="middle" x="2077.81" y="-415" font-family="Times New Roman,serif" font-size="15.00">reception through OLO</text>
</g>
<!-- 2757327117616&#45;&#45;2757327119296 -->
<g id="edge20" class="edge">
<title>2757327117616&#45;&#45;2757327119296</title>
<path fill="none" stroke="black" d="M1857.19,-378.85C1892.14,-385.56 1956.58,-397.93 2006.65,-407.53"/>
</g>
<!-- 2757327124048 -->
<g id="node30" class="node">
<title>2757327124048</title>
<ellipse fill="none" stroke="black" cx="2077.81" cy="-367" rx="27" ry="18"/>
<text text-anchor="middle" x="2077.81" y="-361" font-family="Times New Roman,serif" font-size="15.00">and</text>
</g>
<!-- 2757327117616&#45;&#45;2757327124048 -->
<g id="edge45" class="edge">
<title>2757327117616&#45;&#45;2757327124048</title>
<path fill="none" stroke="black" d="M1858.11,-373.25C1905.13,-371.91 2003.28,-369.1 2050.42,-367.75"/>
</g>
<!-- 2757327116224 -->
<g id="node55" class="node">
<title>2757327116224</title>
<ellipse fill="none" stroke="black" cx="2077.81" cy="-313" rx="126.59" ry="18"/>
<text text-anchor="middle" x="2077.81" y="-307" font-family="Times New Roman,serif" font-size="15.00">send procedure confirmation</text>
</g>
<!-- 2757327117616&#45;&#45;2757327116224 -->
<g id="edge46" class="edge">
<title>2757327117616&#45;&#45;2757327116224</title>
<path fill="none" stroke="black" d="M1856.73,-367.82C1893.09,-358.76 1962.04,-341.59 2013.12,-328.86"/>
</g>
<!-- 2757327113296 -->
<g id="node31" class="node">
<title>2757327113296</title>
<ellipse fill="none" stroke="black" cx="2342.93" cy="-427" rx="45.21" ry="18"/>
<text text-anchor="middle" x="2342.93" y="-421" font-family="Times New Roman,serif" font-size="15.00">xor loop</text>
</g>
<!-- 2757327124048&#45;&#45;2757327113296 -->
<g id="edge23" class="edge">
<title>2757327124048&#45;&#45;2757327113296</title>
<path fill="none" stroke="black" d="M2103.57,-372.64C2149.49,-383.12 2248.21,-405.63 2303.1,-418.15"/>
</g>
<!-- 2757327112912 -->
<g id="node34" class="node">
<title>2757327112912</title>
<ellipse fill="none" stroke="black" cx="2342.93" cy="-307" rx="27" ry="18"/>
<text text-anchor="middle" x="2342.93" y="-301" font-family="Times New Roman,serif" font-size="15.00">seq</text>
</g>
<!-- 2757327124048&#45;&#45;2757327112912 -->
<g id="edge44" class="edge">
<title>2757327124048&#45;&#45;2757327112912</title>
<path fill="none" stroke="black" d="M2103.57,-361.36C2153.71,-349.92 2266.8,-324.13 2317.05,-312.67"/>
</g>
<!-- 2757328194352 -->
<g id="node32" class="node">
<title>2757328194352</title>
<ellipse fill="none" stroke="black" cx="2564.04" cy="-466" rx="113.79" ry="18"/>
<text text-anchor="middle" x="2564.04" y="-460" font-family="Times New Roman,serif" font-size="15.00">send confirmation receipt</text>
</g>
<!-- 2757327113296&#45;&#45;2757328194352 -->
<g id="edge21" class="edge">
<title>2757327113296&#45;&#45;2757328194352</title>
<path fill="none" stroke="black" d="M2384.89,-434.29C2413.5,-439.38 2452.56,-446.33 2486.81,-452.43"/>
</g>
<!-- 2757328194304 -->
<g id="node33" class="node">
<title>2757328194304</title>
<ellipse fill="black" stroke="black" cx="2564.04" cy="-427" rx="2.7" ry="2.7"/>
</g>
<!-- 2757327113296&#45;&#45;2757328194304 -->
<g id="edge22" class="edge">
<title>2757327113296&#45;&#45;2757328194304</title>
<path fill="none" stroke="black" d="M2388.54,-427C2447.59,-427 2546.06,-427 2561.09,-427"/>
</g>
<!-- 2757328194640 -->
<g id="node35" class="node">
<title>2757328194640</title>
<ellipse fill="none" stroke="black" cx="2564.04" cy="-388" rx="27" ry="18"/>
<text text-anchor="middle" x="2564.04" y="-382" font-family="Times New Roman,serif" font-size="15.00">xor</text>
</g>
<!-- 2757327112912&#45;&#45;2757328194640 -->
<g id="edge28" class="edge">
<title>2757327112912&#45;&#45;2757328194640</title>
<path fill="none" stroke="black" d="M2366.97,-315.52C2409.05,-331.07 2497.89,-363.91 2539.98,-379.48"/>
</g>
<!-- 2757328194736 -->
<g id="node40" class="node">
<title>2757328194736</title>
<ellipse fill="none" stroke="black" cx="2564.04" cy="-334" rx="92.3" ry="18"/>
<text text-anchor="middle" x="2564.04" y="-328" font-family="Times New Roman,serif" font-size="15.00">terminate on request</text>
</g>
<!-- 2757327112912&#45;&#45;2757328194736 -->
<g id="edge29" class="edge">
<title>2757327112912&#45;&#45;2757328194736</title>
<path fill="none" stroke="black" d="M2369.93,-310.2C2398.15,-313.68 2444.6,-319.4 2484.86,-324.37"/>
</g>
<!-- 2757328194976 -->
<g id="node41" class="node">
<title>2757328194976</title>
<ellipse fill="none" stroke="black" cx="2564.04" cy="-280" rx="139.89" ry="18"/>
<text text-anchor="middle" x="2564.04" y="-274" font-family="Times New Roman,serif" font-size="15.00">regular procedure without MER</text>
</g>
<!-- 2757327112912&#45;&#45;2757328194976 -->
<g id="edge30" class="edge">
<title>2757327112912&#45;&#45;2757328194976</title>
<path fill="none" stroke="black" d="M2369.93,-303.8C2392.71,-300.99 2427.37,-296.72 2461.06,-292.57"/>
</g>
<!-- 2757328194256 -->
<g id="node42" class="node">
<title>2757328194256</title>
<ellipse fill="none" stroke="black" cx="2564.04" cy="-226" rx="27" ry="18"/>
<text text-anchor="middle" x="2564.04" y="-220" font-family="Times New Roman,serif" font-size="15.00">xor</text>
</g>
<!-- 2757327112912&#45;&#45;2757328194256 -->
<g id="edge42" class="edge">
<title>2757327112912&#45;&#45;2757328194256</title>
<path fill="none" stroke="black" d="M2366.97,-298.48C2409.05,-282.93 2497.89,-250.09 2539.98,-234.52"/>
</g>
<!-- 2757328194016 -->
<g id="node54" class="node">
<title>2757328194016</title>
<ellipse fill="none" stroke="black" cx="2564.04" cy="-172" rx="102.02" ry="18"/>
<text text-anchor="middle" x="2564.04" y="-166" font-family="Times New Roman,serif" font-size="15.00">start WABOprocedure</text>
</g>
<!-- 2757327112912&#45;&#45;2757328194016 -->
<g id="edge43" class="edge">
<title>2757327112912&#45;&#45;2757328194016</title>
<path fill="none" stroke="black" d="M2363.38,-295.02C2402.13,-271.14 2489.14,-217.53 2534.42,-189.63"/>
</g>
<!-- 2757328194688 -->
<g id="node36" class="node">
<title>2757328194688</title>
<ellipse fill="black" stroke="black" cx="2766.93" cy="-407" rx="2.7" ry="2.7"/>
</g>
<!-- 2757328194640&#45;&#45;2757328194688 -->
<g id="edge24" class="edge">
<title>2757328194640&#45;&#45;2757328194688</title>
<path fill="none" stroke="black" d="M2590.89,-390.45C2640.91,-395.18 2747.46,-405.25 2763.81,-406.8"/>
</g>
<!-- 2757328194592 -->
<g id="node37" class="node">
<title>2757328194592</title>
<ellipse fill="none" stroke="black" cx="2766.93" cy="-368" rx="27" ry="18"/>
<text text-anchor="middle" x="2766.93" y="-362" font-family="Times New Roman,serif" font-size="15.00">seq</text>
</g>
<!-- 2757328194640&#45;&#45;2757328194592 -->
<g id="edge27" class="edge">
<title>2757328194640&#45;&#45;2757328194592</title>
<path fill="none" stroke="black" d="M2590.89,-385.43C2629.36,-381.6 2701.26,-374.44 2739.86,-370.6"/>
</g>
<!-- 2757328193248 -->
<g id="node38" class="node">
<title>2757328193248</title>
<ellipse fill="none" stroke="black" cx="3021.52" cy="-405" rx="191.59" ry="18"/>
<text text-anchor="middle" x="3021.52" y="-399" font-family="Times New Roman,serif" font-size="15.00">no permit needed or only notification needed</text>
</g>
<!-- 2757328194592&#45;&#45;2757328193248 -->
<g id="edge25" class="edge">
<title>2757328194592&#45;&#45;2757328193248</title>
<path fill="none" stroke="black" d="M2793.54,-371.75C2822.26,-375.96 2870.7,-383.05 2915.46,-389.61"/>
</g>
<!-- 2757328191616 -->
<g id="node39" class="node">
<title>2757328191616</title>
<ellipse fill="none" stroke="black" cx="3021.52" cy="-351" rx="107.14" ry="18"/>
<text text-anchor="middle" x="3021.52" y="-345" font-family="Times New Roman,serif" font-size="15.00">applicant is stakeholder</text>
</g>
<!-- 2757328194592&#45;&#45;2757328191616 -->
<g id="edge26" class="edge">
<title>2757328194592&#45;&#45;2757328191616</title>
<path fill="none" stroke="black" d="M2794.01,-366.24C2824.07,-364.22 2875.28,-360.78 2921.4,-357.67"/>
</g>
<!-- 2757328193584 -->
<g id="node43" class="node">
<title>2757328193584</title>
<ellipse fill="none" stroke="black" cx="2766.93" cy="-234" rx="27" ry="18"/>
<text text-anchor="middle" x="2766.93" y="-228" font-family="Times New Roman,serif" font-size="15.00">seq</text>
</g>
<!-- 2757328194256&#45;&#45;2757328193584 -->
<g id="edge36" class="edge">
<title>2757328194256&#45;&#45;2757328193584</title>
<path fill="none" stroke="black" d="M2591.3,-227.05C2629.8,-228.58 2701.16,-231.42 2739.66,-232.95"/>
</g>
<!-- 2757328193728 -->
<g id="node49" class="node">
<title>2757328193728</title>
<ellipse fill="none" stroke="black" cx="2766.93" cy="-126" rx="27" ry="18"/>
<text text-anchor="middle" x="2766.93" y="-120" font-family="Times New Roman,serif" font-size="15.00">seq</text>
</g>
<!-- 2757328194256&#45;&#45;2757328193728 -->
<g id="edge41" class="edge">
<title>2757328194256&#45;&#45;2757328193728</title>
<path fill="none" stroke="black" d="M2586.16,-215.49C2624.64,-196.33 2705.77,-155.95 2744.49,-136.67"/>
</g>
<!-- 2757328193344 -->
<g id="node44" class="node">
<title>2757328193344</title>
<ellipse fill="none" stroke="black" cx="3021.52" cy="-288" rx="132.73" ry="18"/>
<text text-anchor="middle" x="3021.52" y="-282" font-family="Times New Roman,serif" font-size="15.00">create procedure confirmation</text>
</g>
<!-- 2757328193584&#45;&#45;2757328193344 -->
<g id="edge31" class="edge">
<title>2757328193584&#45;&#45;2757328193344</title>
<path fill="none" stroke="black" d="M2793.07,-239.38C2828.95,-247.04 2896.25,-261.43 2948.37,-272.58"/>
</g>
<!-- 2757328193296 -->
<g id="node45" class="node">
<title>2757328193296</title>
<ellipse fill="none" stroke="black" cx="3021.52" cy="-234" rx="27" ry="18"/>
<text text-anchor="middle" x="3021.52" y="-228" font-family="Times New Roman,serif" font-size="15.00">xor</text>
</g>
<!-- 2757328193584&#45;&#45;2757328193296 -->
<g id="edge35" class="edge">
<title>2757328193584&#45;&#45;2757328193296</title>
<path fill="none" stroke="black" d="M2794.01,-234C2842.41,-234 2945.62,-234 2994.2,-234"/>
</g>
<!-- 2757328192624 -->
<g id="node46" class="node">
<title>2757328192624</title>
<ellipse fill="none" stroke="black" cx="3379.79" cy="-288" rx="124.54" ry="18"/>
<text text-anchor="middle" x="3379.79" y="-282" font-family="Times New Roman,serif" font-size="15.00">create publication document</text>
</g>
<!-- 2757328193296&#45;&#45;2757328192624 -->
<g id="edge32" class="edge">
<title>2757328193296&#45;&#45;2757328192624</title>
<path fill="none" stroke="black" d="M3048.14,-237.88C3098.48,-245.51 3212.33,-262.77 3292.31,-274.89"/>
</g>
<!-- 2757328192240 -->
<g id="node47" class="node">
<title>2757328192240</title>
<ellipse fill="none" stroke="black" cx="3379.79" cy="-234" rx="40.6" ry="18"/>
<text text-anchor="middle" x="3379.79" y="-228" font-family="Times New Roman,serif" font-size="15.00">publish</text>
</g>
<!-- 2757328193296&#45;&#45;2757328192240 -->
<g id="edge33" class="edge">
<title>2757328193296&#45;&#45;2757328192240</title>
<path fill="none" stroke="black" d="M3049,-234C3110.93,-234 3265.47,-234 3338.87,-234"/>
</g>
<!-- 2757328192720 -->
<g id="node48" class="node">
<title>2757328192720</title>
<ellipse fill="none" stroke="black" cx="3379.79" cy="-180" rx="130.68" ry="18"/>
<text text-anchor="middle" x="3379.79" y="-174" font-family="Times New Roman,serif" font-size="15.00">create subcases completeness</text>
</g>
<!-- 2757328193296&#45;&#45;2757328192720 -->
<g id="edge34" class="edge">
<title>2757328193296&#45;&#45;2757328192720</title>
<path fill="none" stroke="black" d="M3048.14,-230.12C3098,-222.56 3210.17,-205.56 3290.01,-193.46"/>
</g>
<!-- 2757328192672 -->
<g id="node50" class="node">
<title>2757328192672</title>
<ellipse fill="none" stroke="black" cx="3021.52" cy="-180" rx="148.59" ry="18"/>
<text text-anchor="middle" x="3021.52" y="-174" font-family="Times New Roman,serif" font-size="15.00">no permit required for application</text>
</g>
<!-- 2757328193728&#45;&#45;2757328192672 -->
<g id="edge37" class="edge">
<title>2757328193728&#45;&#45;2757328192672</title>
<path fill="none" stroke="black" d="M2793.07,-131.38C2828.45,-138.94 2894.38,-153.03 2946.19,-164.11"/>
</g>
<!-- 2757328192960 -->
<g id="node51" class="node">
<title>2757328192960</title>
<ellipse fill="none" stroke="black" cx="3021.52" cy="-126" rx="64.15" ry="18"/>
<text text-anchor="middle" x="3021.52" y="-120" font-family="Times New Roman,serif" font-size="15.00">MER present</text>
</g>
<!-- 2757328193728&#45;&#45;2757328192960 -->
<g id="edge38" class="edge">
<title>2757328193728&#45;&#45;2757328192960</title>
<path fill="none" stroke="black" d="M2794.01,-126C2832.14,-126 2904.28,-126 2956.93,-126"/>
</g>
<!-- 2757328192576 -->
<g id="node52" class="node">
<title>2757328192576</title>
<ellipse fill="none" stroke="black" cx="3021.52" cy="-72" rx="123" ry="18"/>
<text text-anchor="middle" x="3021.52" y="-66" font-family="Times New Roman,serif" font-size="15.00">activities regular procedure</text>
</g>
<!-- 2757328193728&#45;&#45;2757328192576 -->
<g id="edge39" class="edge">
<title>2757328193728&#45;&#45;2757328192576</title>
<path fill="none" stroke="black" d="M2793.07,-120.62C2829.32,-112.88 2897.66,-98.27 2950,-87.08"/>
</g>
<!-- 2757328193056 -->
<g id="node53" class="node">
<title>2757328193056</title>
<ellipse fill="none" stroke="black" cx="3021.52" cy="-18" rx="129.15" ry="18"/>
<text text-anchor="middle" x="3021.52" y="-12" font-family="Times New Roman,serif" font-size="15.00">read field phased application</text>
</g>
<!-- 2757328193728&#45;&#45;2757328193056 -->
<g id="edge40" class="edge">
<title>2757328193728&#45;&#45;2757328193056</title>
<path fill="none" stroke="black" d="M2790.35,-116.42C2832.85,-98.24 2925.7,-58.54 2979.58,-35.5"/>
</g>
<!-- 2757327033200 -->
<g id="node57" class="node">
<title>2757327033200</title>
<ellipse fill="none" stroke="black" cx="267.18" cy="-583" rx="87.18" ry="18"/>
<text text-anchor="middle" x="267.18" y="-577" font-family="Times New Roman,serif" font-size="15.00">phased application</text>
</g>
<!-- 2757326837552&#45;&#45;2757327033200 -->
<g id="edge55" class="edge">
<title>2757326837552&#45;&#45;2757327033200</title>
<path fill="none" stroke="black" d="M143.47,-560.64C159.28,-563.52 180.37,-567.36 200.6,-571.05"/>
</g>
<!-- 2757327043808 -->
<g id="node58" class="node">
<title>2757327043808</title>
<ellipse fill="none" stroke="black" cx="267.18" cy="-529" rx="45.21" ry="18"/>
<text text-anchor="middle" x="267.18" y="-523" font-family="Times New Roman,serif" font-size="15.00">xor loop</text>
</g>
<!-- 2757326837552&#45;&#45;2757327043808 -->
<g id="edge58" class="edge">
<title>2757326837552&#45;&#45;2757327043808</title>
<path fill="none" stroke="black" d="M143.47,-551.36C165.98,-547.26 199.2,-541.2 225.41,-536.43"/>
</g>
<!-- 2757327035600 -->
<g id="node61" class="node">
<title>2757327035600</title>
<ellipse fill="none" stroke="black" cx="267.18" cy="-475" rx="52.89" ry="18"/>
<text text-anchor="middle" x="267.18" y="-469" font-family="Times New Roman,serif" font-size="15.00">close case</text>
</g>
<!-- 2757326837552&#45;&#45;2757327035600 -->
<g id="edge59" class="edge">
<title>2757326837552&#45;&#45;2757327035600</title>
<path fill="none" stroke="black" d="M138.6,-544.74C164.45,-530.61 208.89,-506.32 237.9,-490.46"/>
</g>
<!-- 2757327033536 -->
<g id="node59" class="node">
<title>2757327033536</title>
<ellipse fill="none" stroke="black" cx="579.9" cy="-529" rx="189.54" ry="18"/>
<text text-anchor="middle" x="579.9" y="-523" font-family="Times New Roman,serif" font-size="15.00">registrer date of publishing received request</text>
</g>
<!-- 2757327043808&#45;&#45;2757327033536 -->
<g id="edge56" class="edge">
<title>2757327043808&#45;&#45;2757327033536</title>
<path fill="none" stroke="black" d="M312.7,-529C334.01,-529 361.12,-529 389.86,-529"/>
</g>
<!-- 2757327043472 -->
<g id="node60" class="node">
<title>2757327043472</title>
<ellipse fill="black" stroke="black" cx="579.9" cy="-490" rx="2.7" ry="2.7"/>
</g>
<!-- 2757327043808&#45;&#45;2757327043472 -->
<g id="edge57" class="edge">
<title>2757327043808&#45;&#45;2757327043472</title>
<path fill="none" stroke="black" d="M310.73,-523.66C390.51,-513.65 556.39,-492.82 576.82,-490.26"/>
</g>
</g>
</svg>
