<?xml version="1.0" encoding="UTF-8" standalone="no"?>
<!DOCTYPE svg PUBLIC "-//W3C//DTD SVG 1.1//EN"
 "http://www.w3.org/Graphics/SVG/1.1/DTD/svg11.dtd">
<!-- Generated by graphviz version 11.0.0 (20240428.1522)
 -->
<!-- Title: pt Pages: 1 -->
<svg width="2000pt" height="1028pt"
 viewBox="0.00 0.00 1999.72 1028.00" xmlns="http://www.w3.org/2000/svg" xmlns:xlink="http://www.w3.org/1999/xlink">
<g id="graph0" class="graph" transform="scale(1 1) rotate(0) translate(4 1024)">
<title>pt</title>
<polygon fill="white" stroke="none" points="-4,4 -4,-1024 1995.72,-1024 1995.72,4 -4,4"/>
<!-- 2757329089792 -->
<g id="node1" class="node">
<title>2757329089792</title>
<ellipse fill="none" stroke="black" cx="27" cy="-427" rx="27" ry="18"/>
<text text-anchor="middle" x="27" y="-421" font-family="Times New Roman,serif" font-size="15.00">seq</text>
</g>
<!-- 2757329090224 -->
<g id="node2" class="node">
<title>2757329090224</title>
<ellipse fill="none" stroke="black" cx="230.41" cy="-508" rx="140.41" ry="18"/>
<text text-anchor="middle" x="230.41" y="-502" font-family="Times New Roman,serif" font-size="15.00">register submission date request</text>
</g>
<!-- 2757329089792&#45;&#45;2757329090224 -->
<g id="edge1" class="edge">
<title>2757329089792&#45;&#45;2757329090224</title>
<path fill="none" stroke="black" d="M50.71,-436.13C83.43,-449.29 144.44,-473.83 185.97,-490.53"/>
</g>
<!-- 2757329089168 -->
<g id="node3" class="node">
<title>2757329089168</title>
<ellipse fill="none" stroke="black" cx="230.41" cy="-454" rx="102.02" ry="18"/>
<text text-anchor="middle" x="230.41" y="-448" font-family="Times New Roman,serif" font-size="15.00">OLO messaging active</text>
</g>
<!-- 2757329089792&#45;&#45;2757329089168 -->
<g id="edge2" class="edge">
<title>2757329089792&#45;&#45;2757329089168</title>
<path fill="none" stroke="black" d="M53.92,-430.47C77.72,-433.66 114.28,-438.57 147.89,-443.07"/>
</g>
<!-- 2757329089216 -->
<g id="node4" class="node">
<title>2757329089216</title>
<ellipse fill="none" stroke="black" cx="230.41" cy="-400" rx="27" ry="18"/>
<text text-anchor="middle" x="230.41" y="-394" font-family="Times New Roman,serif" font-size="15.00">xor</text>
</g>
<!-- 2757329089792&#45;&#45;2757329089216 -->
<g id="edge48" class="edge">
<title>2757329089792&#45;&#45;2757329089216</title>
<path fill="none" stroke="black" d="M53.92,-423.53C92.59,-418.34 164.97,-408.64 203.59,-403.46"/>
</g>
<!-- 2757329087104 -->
<g id="node50" class="node">
<title>2757329087104</title>
<ellipse fill="none" stroke="black" cx="230.41" cy="-346" rx="27" ry="18"/>
<text text-anchor="middle" x="230.41" y="-340" font-family="Times New Roman,serif" font-size="15.00">xor</text>
</g>
<!-- 2757329089792&#45;&#45;2757329087104 -->
<g id="edge51" class="edge">
<title>2757329089792&#45;&#45;2757329087104</title>
<path fill="none" stroke="black" d="M50.71,-417.87C89.5,-402.27 168.05,-370.68 206.78,-355.1"/>
</g>
<!-- 2757329088736 -->
<g id="node5" class="node">
<title>2757329088736</title>
<ellipse fill="none" stroke="black" cx="459.7" cy="-867" rx="27" ry="18"/>
<text text-anchor="middle" x="459.7" y="-861" font-family="Times New Roman,serif" font-size="15.00">seq</text>
</g>
<!-- 2757329089216&#45;&#45;2757329088736 -->
<g id="edge8" class="edge">
<title>2757329089216&#45;&#45;2757329088736</title>
<path fill="none" stroke="black" d="M239.77,-417.17C275.41,-490.4 414.48,-776.14 450.26,-849.67"/>
</g>
<!-- 2757329089600 -->
<g id="node11" class="node">
<title>2757329089600</title>
<ellipse fill="none" stroke="black" cx="459.7" cy="-396" rx="27" ry="18"/>
<text text-anchor="middle" x="459.7" y="-390" font-family="Times New Roman,serif" font-size="15.00">seq</text>
</g>
<!-- 2757329089216&#45;&#45;2757329089600 -->
<g id="edge47" class="edge">
<title>2757329089216&#45;&#45;2757329089600</title>
<path fill="none" stroke="black" d="M257.48,-399.54C301.09,-398.77 388.36,-397.24 432.23,-396.47"/>
</g>
<!-- 2757329089264 -->
<g id="node6" class="node">
<title>2757329089264</title>
<ellipse fill="none" stroke="black" cx="716.63" cy="-1002" rx="168.04" ry="18"/>
<text text-anchor="middle" x="716.63" y="-996" font-family="Times New Roman,serif" font-size="15.00">enter date termination request received</text>
</g>
<!-- 2757329088736&#45;&#45;2757329089264 -->
<g id="edge3" class="edge">
<title>2757329088736&#45;&#45;2757329089264</title>
<path fill="none" stroke="black" d="M481.56,-878.05C525.56,-901.35 628.2,-955.7 681.76,-984.06"/>
</g>
<!-- 2757329084512 -->
<g id="node7" class="node">
<title>2757329084512</title>
<ellipse fill="none" stroke="black" cx="716.63" cy="-948" rx="116.35" ry="18"/>
<text text-anchor="middle" x="716.63" y="-942" font-family="Times New Roman,serif" font-size="15.00">message terminate request</text>
</g>
<!-- 2757329088736&#45;&#45;2757329084512 -->
<g id="edge4" class="edge">
<title>2757329088736&#45;&#45;2757329084512</title>
<path fill="none" stroke="black" d="M484.68,-874.62C525.46,-887.58 609.19,-914.18 663.84,-931.54"/>
</g>
<!-- 2757329088832 -->
<g id="node8" class="node">
<title>2757329088832</title>
<ellipse fill="none" stroke="black" cx="716.63" cy="-894" rx="148.59" ry="18"/>
<text text-anchor="middle" x="716.63" y="-888" font-family="Times New Roman,serif" font-size="15.00">enter senddate request termination</text>
</g>
<!-- 2757329088736&#45;&#45;2757329088832 -->
<g id="edge5" class="edge">
<title>2757329088736&#45;&#45;2757329088832</title>
<path fill="none" stroke="black" d="M486.55,-869.74C514.14,-872.66 559.77,-877.49 603.07,-882.08"/>
</g>
<!-- 2757329087776 -->
<g id="node9" class="node">
<title>2757329087776</title>
<ellipse fill="none" stroke="black" cx="716.63" cy="-840" rx="78.99" ry="18"/>
<text text-anchor="middle" x="716.63" y="-834" font-family="Times New Roman,serif" font-size="15.00">register deadline</text>
</g>
<!-- 2757329088736&#45;&#45;2757329087776 -->
<g id="edge6" class="edge">
<title>2757329088736&#45;&#45;2757329087776</title>
<path fill="none" stroke="black" d="M486.55,-864.26C523.19,-860.38 591.64,-853.13 644.2,-847.56"/>
</g>
<!-- 2757329085424 -->
<g id="node10" class="node">
<title>2757329085424</title>
<ellipse fill="none" stroke="black" cx="716.63" cy="-786" rx="110.72" ry="18"/>
<text text-anchor="middle" x="716.63" y="-780" font-family="Times New Roman,serif" font-size="15.00">phase procedure aborted</text>
</g>
<!-- 2757329088736&#45;&#45;2757329085424 -->
<g id="edge7" class="edge">
<title>2757329088736&#45;&#45;2757329085424</title>
<path fill="none" stroke="black" d="M484.68,-859.38C525.59,-846.38 609.7,-819.66 664.34,-802.3"/>
</g>
<!-- 2757329087152 -->
<g id="node12" class="node">
<title>2757329087152</title>
<ellipse fill="none" stroke="black" cx="716.63" cy="-732" rx="27" ry="18"/>
<text text-anchor="middle" x="716.63" y="-726" font-family="Times New Roman,serif" font-size="15.00">xor</text>
</g>
<!-- 2757329089600&#45;&#45;2757329087152 -->
<g id="edge13" class="edge">
<title>2757329089600&#45;&#45;2757329087152</title>
<path fill="none" stroke="black" d="M472.65,-411.76C515.38,-468.06 660.25,-659.01 703.4,-715.89"/>
</g>
<!-- 2757329086480 -->
<g id="node17" class="node">
<title>2757329086480</title>
<ellipse fill="none" stroke="black" cx="716.63" cy="-666" rx="92.3" ry="18"/>
<text text-anchor="middle" x="716.63" y="-660" font-family="Times New Roman,serif" font-size="15.00">terminate on request</text>
</g>
<!-- 2757329089600&#45;&#45;2757329086480 -->
<g id="edge14" class="edge">
<title>2757329089600&#45;&#45;2757329086480</title>
<path fill="none" stroke="black" d="M475.14,-411.29C519.16,-457.92 651.6,-598.18 698.74,-648.11"/>
</g>
<!-- 2757329088496 -->
<g id="node18" class="node">
<title>2757329088496</title>
<ellipse fill="none" stroke="black" cx="716.63" cy="-612" rx="27" ry="18"/>
<text text-anchor="middle" x="716.63" y="-606" font-family="Times New Roman,serif" font-size="15.00">xor</text>
</g>
<!-- 2757329089600&#45;&#45;2757329088496 -->
<g id="edge23" class="edge">
<title>2757329089600&#45;&#45;2757329088496</title>
<path fill="none" stroke="black" d="M477.03,-409.84C522.97,-448.76 652.93,-558.87 699.1,-598"/>
</g>
<!-- 2757329085520 -->
<g id="node27" class="node">
<title>2757329085520</title>
<ellipse fill="none" stroke="black" cx="716.63" cy="-558" rx="143.48" ry="18"/>
<text text-anchor="middle" x="716.63" y="-552" font-family="Times New Roman,serif" font-size="15.00">enter senddate acknowledgement</text>
</g>
<!-- 2757329089600&#45;&#45;2757329085520 -->
<g id="edge24" class="edge">
<title>2757329089600&#45;&#45;2757329085520</title>
<path fill="none" stroke="black" d="M479.86,-408.18C524.44,-436.51 635.29,-506.95 687.54,-540.15"/>
</g>
<!-- 2757329088544 -->
<g id="node28" class="node">
<title>2757329088544</title>
<ellipse fill="none" stroke="black" cx="716.63" cy="-504" rx="119.93" ry="18"/>
<text text-anchor="middle" x="716.63" y="-498" font-family="Times New Roman,serif" font-size="15.00">phase application received</text>
</g>
<!-- 2757329089600&#45;&#45;2757329088544 -->
<g id="edge25" class="edge">
<title>2757329089600&#45;&#45;2757329088544</title>
<path fill="none" stroke="black" d="M482.88,-405.4C525.76,-423.56 620.61,-463.75 675.07,-486.82"/>
</g>
<!-- 2757329088448 -->
<g id="node29" class="node">
<title>2757329088448</title>
<ellipse fill="none" stroke="black" cx="716.63" cy="-450" rx="27" ry="18"/>
<text text-anchor="middle" x="716.63" y="-444" font-family="Times New Roman,serif" font-size="15.00">xor</text>
</g>
<!-- 2757329089600&#45;&#45;2757329088448 -->
<g id="edge30" class="edge">
<title>2757329089600&#45;&#45;2757329088448</title>
<path fill="none" stroke="black" d="M485.61,-401.28C534.34,-411.6 641.8,-434.36 690.62,-444.7"/>
</g>
<!-- 2757329087872 -->
<g id="node34" class="node">
<title>2757329087872</title>
<ellipse fill="none" stroke="black" cx="716.63" cy="-396" rx="45.21" ry="18"/>
<text text-anchor="middle" x="716.63" y="-390" font-family="Times New Roman,serif" font-size="15.00">xor loop</text>
</g>
<!-- 2757329089600&#45;&#45;2757329087872 -->
<g id="edge33" class="edge">
<title>2757329089600&#45;&#45;2757329087872</title>
<path fill="none" stroke="black" d="M487.02,-396C530.53,-396 617.91,-396 671.15,-396"/>
</g>
<!-- 2757329084800 -->
<g id="node37" class="node">
<title>2757329084800</title>
<ellipse fill="none" stroke="black" cx="716.63" cy="-342" rx="149.62" ry="18"/>
<text text-anchor="middle" x="716.63" y="-336" font-family="Times New Roman,serif" font-size="15.00">forward to the competent authority</text>
</g>
<!-- 2757329089600&#45;&#45;2757329084800 -->
<g id="edge34" class="edge">
<title>2757329089600&#45;&#45;2757329084800</title>
<path fill="none" stroke="black" d="M485.61,-390.72C521.19,-383.19 588.07,-369.02 640.58,-357.9"/>
</g>
<!-- 2757329088208 -->
<g id="node38" class="node">
<title>2757329088208</title>
<ellipse fill="none" stroke="black" cx="716.63" cy="-288" rx="139.89" ry="18"/>
<text text-anchor="middle" x="716.63" y="-282" font-family="Times New Roman,serif" font-size="15.00">regular procedure without MER</text>
</g>
<!-- 2757329089600&#45;&#45;2757329088208 -->
<g id="edge35" class="edge">
<title>2757329089600&#45;&#45;2757329088208</title>
<path fill="none" stroke="black" d="M482.88,-386.6C525.52,-368.54 619.54,-328.71 674.14,-305.58"/>
</g>
<!-- 2757329088112 -->
<g id="node39" class="node">
<title>2757329088112</title>
<ellipse fill="none" stroke="black" cx="716.63" cy="-234" rx="27" ry="18"/>
<text text-anchor="middle" x="716.63" y="-228" font-family="Times New Roman,serif" font-size="15.00">xor</text>
</g>
<!-- 2757329089600&#45;&#45;2757329088112 -->
<g id="edge38" class="edge">
<title>2757329089600&#45;&#45;2757329088112</title>
<path fill="none" stroke="black" d="M479.86,-383.82C527.1,-353.8 648.77,-276.49 696.25,-246.32"/>
</g>
<!-- 2757329083744 -->
<g id="node42" class="node">
<title>2757329083744</title>
<ellipse fill="none" stroke="black" cx="716.63" cy="-180" rx="166" ry="18"/>
<text text-anchor="middle" x="716.63" y="-174" font-family="Times New Roman,serif" font-size="15.00">enter senddate procedure confirmation</text>
</g>
<!-- 2757329089600&#45;&#45;2757329083744 -->
<g id="edge39" class="edge">
<title>2757329089600&#45;&#45;2757329083744</title>
<path fill="none" stroke="black" d="M477.03,-382.16C521.43,-344.54 644.32,-240.42 694.19,-198.17"/>
</g>
<!-- 2757329087536 -->
<g id="node43" class="node">
<title>2757329087536</title>
<ellipse fill="none" stroke="black" cx="716.63" cy="-126" rx="27" ry="18"/>
<text text-anchor="middle" x="716.63" y="-120" font-family="Times New Roman,serif" font-size="15.00">xor</text>
</g>
<!-- 2757329089600&#45;&#45;2757329087536 -->
<g id="edge44" class="edge">
<title>2757329089600&#45;&#45;2757329087536</title>
<path fill="none" stroke="black" d="M475.14,-380.71C520.01,-333.19 656.7,-188.42 701.35,-141.12"/>
</g>
<!-- 2757329087488 -->
<g id="node48" class="node">
<title>2757329087488</title>
<ellipse fill="none" stroke="black" cx="716.63" cy="-72" rx="126.59" ry="18"/>
<text text-anchor="middle" x="716.63" y="-66" font-family="Times New Roman,serif" font-size="15.00">send procedure confirmation</text>
</g>
<!-- 2757329089600&#45;&#45;2757329087488 -->
<g id="edge45" class="edge">
<title>2757329089600&#45;&#45;2757329087488</title>
<path fill="none" stroke="black" d="M472.99,-380.37C515.46,-326.4 655.86,-147.97 701.3,-90.21"/>
</g>
<!-- 2757329082352 -->
<g id="node49" class="node">
<title>2757329082352</title>
<ellipse fill="none" stroke="black" cx="716.63" cy="-18" rx="124.54" ry="18"/>
<text text-anchor="middle" x="716.63" y="-12" font-family="Times New Roman,serif" font-size="15.00">registration date publication</text>
</g>
<!-- 2757329089600&#45;&#45;2757329082352 -->
<g id="edge46" class="edge">
<title>2757329089600&#45;&#45;2757329082352</title>
<path fill="none" stroke="black" d="M471.65,-379.76C513.01,-318.43 659.56,-101.14 703.25,-36.36"/>
</g>
<!-- 2757329085760 -->
<g id="node13" class="node">
<title>2757329085760</title>
<ellipse fill="black" stroke="black" cx="1044.7" cy="-777" rx="2.7" ry="2.7"/>
</g>
<!-- 2757329087152&#45;&#45;2757329085760 -->
<g id="edge9" class="edge">
<title>2757329087152&#45;&#45;2757329085760</title>
<path fill="none" stroke="black" d="M743.49,-735.57C816.39,-745.63 1019.74,-773.69 1041.76,-776.73"/>
</g>
<!-- 2757329088064 -->
<g id="node14" class="node">
<title>2757329088064</title>
<ellipse fill="none" stroke="black" cx="1044.7" cy="-738" rx="27" ry="18"/>
<text text-anchor="middle" x="1044.7" y="-732" font-family="Times New Roman,serif" font-size="15.00">seq</text>
</g>
<!-- 2757329087152&#45;&#45;2757329088064 -->
<g id="edge12" class="edge">
<title>2757329087152&#45;&#45;2757329088064</title>
<path fill="none" stroke="black" d="M744.04,-732.49C805.29,-733.61 956.45,-736.39 1017.5,-737.52"/>
</g>
<!-- 2757329082640 -->
<g id="node15" class="node">
<title>2757329082640</title>
<ellipse fill="none" stroke="black" cx="1396.32" cy="-793" rx="132.73" ry="18"/>
<text text-anchor="middle" x="1396.32" y="-787" font-family="Times New Roman,serif" font-size="15.00">create procedure confirmation</text>
</g>
<!-- 2757329088064&#45;&#45;2757329082640 -->
<g id="edge10" class="edge">
<title>2757329088064&#45;&#45;2757329082640</title>
<path fill="none" stroke="black" d="M1071.41,-742.04C1120.53,-749.77 1229.78,-766.96 1307.8,-779.23"/>
</g>
<!-- 2757329083696 -->
<g id="node16" class="node">
<title>2757329083696</title>
<ellipse fill="none" stroke="black" cx="1396.32" cy="-739" rx="124.54" ry="18"/>
<text text-anchor="middle" x="1396.32" y="-733" font-family="Times New Roman,serif" font-size="15.00">create publication document</text>
</g>
<!-- 2757329088064&#45;&#45;2757329083696 -->
<g id="edge11" class="edge">
<title>2757329088064&#45;&#45;2757329083696</title>
<path fill="none" stroke="black" d="M1071.98,-738.08C1114.06,-738.2 1199.2,-738.44 1271.55,-738.65"/>
</g>
<!-- 2757329087728 -->
<g id="node19" class="node">
<title>2757329087728</title>
<ellipse fill="none" stroke="black" cx="1044.7" cy="-633" rx="27" ry="18"/>
<text text-anchor="middle" x="1044.7" y="-627" font-family="Times New Roman,serif" font-size="15.00">seq</text>
</g>
<!-- 2757329088496&#45;&#45;2757329087728 -->
<g id="edge19" class="edge">
<title>2757329088496&#45;&#45;2757329087728</title>
<path fill="none" stroke="black" d="M743.76,-613.68C804.82,-617.62 956.27,-627.37 1017.44,-631.31"/>
</g>
<!-- 2757329089504 -->
<g id="node24" class="node">
<title>2757329089504</title>
<ellipse fill="none" stroke="black" cx="1044.7" cy="-579" rx="27" ry="18"/>
<text text-anchor="middle" x="1044.7" y="-573" font-family="Times New Roman,serif" font-size="15.00">seq</text>
</g>
<!-- 2757329088496&#45;&#45;2757329089504 -->
<g id="edge22" class="edge">
<title>2757329088496&#45;&#45;2757329089504</title>
<path fill="none" stroke="black" d="M743.76,-609.36C804.97,-603.16 957.02,-587.77 1017.9,-581.61"/>
</g>
<!-- 2757329084368 -->
<g id="node20" class="node">
<title>2757329084368</title>
<ellipse fill="none" stroke="black" cx="1396.32" cy="-685" rx="170.6" ry="18"/>
<text text-anchor="middle" x="1396.32" y="-679" font-family="Times New Roman,serif" font-size="15.00">phase forwarded to competent authority</text>
</g>
<!-- 2757329087728&#45;&#45;2757329084368 -->
<g id="edge15" class="edge">
<title>2757329087728&#45;&#45;2757329084368</title>
<path fill="none" stroke="black" d="M1071.41,-636.82C1117.93,-643.74 1218.37,-658.68 1295.15,-670.1"/>
</g>
<!-- 2757329088160 -->
<g id="node21" class="node">
<title>2757329088160</title>
<ellipse fill="none" stroke="black" cx="1396.32" cy="-631" rx="27" ry="18"/>
<text text-anchor="middle" x="1396.32" y="-625" font-family="Times New Roman,serif" font-size="15.00">and</text>
</g>
<!-- 2757329087728&#45;&#45;2757329088160 -->
<g id="edge18" class="edge">
<title>2757329087728&#45;&#45;2757329088160</title>
<path fill="none" stroke="black" d="M1071.98,-632.85C1136.93,-632.48 1304.44,-631.52 1369.21,-631.15"/>
</g>
<!-- 2757329087824 -->
<g id="node22" class="node">
<title>2757329087824</title>
<ellipse fill="none" stroke="black" cx="1807.81" cy="-658" rx="155.76" ry="18"/>
<text text-anchor="middle" x="1807.81" y="-652" font-family="Times New Roman,serif" font-size="15.00">enter senddate letter to stakeholders</text>
</g>
<!-- 2757329088160&#45;&#45;2757329087824 -->
<g id="edge16" class="edge">
<title>2757329088160&#45;&#45;2757329087824</title>
<path fill="none" stroke="black" d="M1423.55,-632.73C1472.81,-635.98 1582.18,-643.19 1671.54,-649.08"/>
</g>
<!-- 2757329085184 -->
<g id="node23" class="node">
<title>2757329085184</title>
<ellipse fill="none" stroke="black" cx="1807.81" cy="-604" rx="183.91" ry="18"/>
<text text-anchor="middle" x="1807.81" y="-598" font-family="Times New Roman,serif" font-size="15.00">enter senddate letter to competent authority</text>
</g>
<!-- 2757329088160&#45;&#45;2757329085184 -->
<g id="edge17" class="edge">
<title>2757329088160&#45;&#45;2757329085184</title>
<path fill="none" stroke="black" d="M1423.55,-629.27C1469.54,-626.24 1567.94,-619.75 1653.52,-614.11"/>
</g>
<!-- 2757329084464 -->
<g id="node25" class="node">
<title>2757329084464</title>
<ellipse fill="none" stroke="black" cx="1396.32" cy="-577" rx="191.59" ry="18"/>
<text text-anchor="middle" x="1396.32" y="-571" font-family="Times New Roman,serif" font-size="15.00">no permit needed or only notification needed</text>
</g>
<!-- 2757329089504&#45;&#45;2757329084464 -->
<g id="edge20" class="edge">
<title>2757329089504&#45;&#45;2757329084464</title>
<path fill="none" stroke="black" d="M1071.98,-578.85C1101.52,-578.68 1152.26,-578.39 1204.92,-578.09"/>
</g>
<!-- 2757329083840 -->
<g id="node26" class="node">
<title>2757329083840</title>
<ellipse fill="none" stroke="black" cx="1396.32" cy="-523" rx="107.14" ry="18"/>
<text text-anchor="middle" x="1396.32" y="-517" font-family="Times New Roman,serif" font-size="15.00">applicant is stakeholder</text>
</g>
<!-- 2757329089504&#45;&#45;2757329083840 -->
<g id="edge21" class="edge">
<title>2757329089504&#45;&#45;2757329083840</title>
<path fill="none" stroke="black" d="M1071.41,-574.88C1122.58,-566.69 1239,-548.04 1317.4,-535.48"/>
</g>
<!-- 2757329086720 -->
<g id="node30" class="node">
<title>2757329086720</title>
<ellipse fill="black" stroke="black" cx="1044.7" cy="-540" rx="2.7" ry="2.7"/>
</g>
<!-- 2757329088448&#45;&#45;2757329086720 -->
<g id="edge26" class="edge">
<title>2757329088448&#45;&#45;2757329086720</title>
<path fill="none" stroke="black" d="M742.14,-456.76C813.82,-476.55 1019.46,-533.31 1041.74,-539.46"/>
</g>
<!-- 2757329086816 -->
<g id="node31" class="node">
<title>2757329086816</title>
<ellipse fill="none" stroke="black" cx="1044.7" cy="-501" rx="102.02" ry="18"/>
<text text-anchor="middle" x="1044.7" y="-495" font-family="Times New Roman,serif" font-size="15.00">start WABOprocedure</text>
</g>
<!-- 2757329088448&#45;&#45;2757329086816 -->
<g id="edge27" class="edge">
<title>2757329088448&#45;&#45;2757329086816</title>
<path fill="none" stroke="black" d="M743.22,-454C790.81,-461.45 894.65,-477.69 966.85,-488.98"/>
</g>
<!-- 2757329087392 -->
<g id="node32" class="node">
<title>2757329087392</title>
<ellipse fill="none" stroke="black" cx="1044.7" cy="-447" rx="103.56" ry="18"/>
<text text-anchor="middle" x="1044.7" y="-441" font-family="Times New Roman,serif" font-size="15.00">reception through OLO</text>
</g>
<!-- 2757329088448&#45;&#45;2757329087392 -->
<g id="edge28" class="edge">
<title>2757329088448&#45;&#45;2757329087392</title>
<path fill="none" stroke="black" d="M744.04,-449.76C786.49,-449.37 872.13,-448.58 941.03,-447.94"/>
</g>
<!-- 2757329085088 -->
<g id="node33" class="node">
<title>2757329085088</title>
<ellipse fill="none" stroke="black" cx="1044.7" cy="-393" rx="124.03" ry="18"/>
<text text-anchor="middle" x="1044.7" y="-387" font-family="Times New Roman,serif" font-size="15.00">treat subcases completeness</text>
</g>
<!-- 2757329088448&#45;&#45;2757329085088 -->
<g id="edge29" class="edge">
<title>2757329088448&#45;&#45;2757329085088</title>
<path fill="none" stroke="black" d="M743.22,-445.53C790.13,-437.33 891.72,-419.57 963.76,-406.97"/>
</g>
<!-- 2757329084080 -->
<g id="node35" class="node">
<title>2757329084080</title>
<ellipse fill="none" stroke="black" cx="1044.7" cy="-339" rx="113.79" ry="18"/>
<text text-anchor="middle" x="1044.7" y="-333" font-family="Times New Roman,serif" font-size="15.00">send confirmation receipt</text>
</g>
<!-- 2757329087872&#45;&#45;2757329084080 -->
<g id="edge31" class="edge">
<title>2757329087872&#45;&#45;2757329084080</title>
<path fill="none" stroke="black" d="M758.6,-388.84C810.59,-379.75 901.36,-363.88 966.52,-352.49"/>
</g>
<!-- 2757329087056 -->
<g id="node36" class="node">
<title>2757329087056</title>
<ellipse fill="black" stroke="black" cx="1044.7" cy="-300" rx="2.7" ry="2.7"/>
</g>
<!-- 2757329087872&#45;&#45;2757329087056 -->
<g id="edge32" class="edge">
<title>2757329087872&#45;&#45;2757329087056</title>
<path fill="none" stroke="black" d="M753.77,-385.36C834.02,-361.73 1021.63,-306.5 1041.91,-300.53"/>
</g>
<!-- 2757329084848 -->
<g id="node40" class="node">
<title>2757329084848</title>
<ellipse fill="black" stroke="black" cx="1044.7" cy="-246" rx="2.7" ry="2.7"/>
</g>
<!-- 2757329088112&#45;&#45;2757329084848 -->
<g id="edge36" class="edge">
<title>2757329088112&#45;&#45;2757329084848</title>
<path fill="none" stroke="black" d="M744.04,-234.97C817.42,-237.67 1019.85,-245.12 1041.77,-245.93"/>
</g>
<!-- 2757329083456 -->
<g id="node41" class="node">
<title>2757329083456</title>
<ellipse fill="none" stroke="black" cx="1044.7" cy="-207" rx="117.37" ry="18"/>
<text text-anchor="middle" x="1044.7" y="-201" font-family="Times New Roman,serif" font-size="15.00">inform BAG administrator</text>
</g>
<!-- 2757329088112&#45;&#45;2757329083456 -->
<g id="edge37" class="edge">
<title>2757329088112&#45;&#45;2757329083456</title>
<path fill="none" stroke="black" d="M743.76,-231.84C786,-228.34 871.51,-221.26 940.45,-215.55"/>
</g>
<!-- 2757329087440 -->
<g id="node44" class="node">
<title>2757329087440</title>
<ellipse fill="black" stroke="black" cx="1044.7" cy="-153" rx="2.7" ry="2.7"/>
</g>
<!-- 2757329087536&#45;&#45;2757329087440 -->
<g id="edge40" class="edge">
<title>2757329087536&#45;&#45;2757329087440</title>
<path fill="none" stroke="black" d="M743.76,-128.16C816.91,-134.22 1019.79,-151.02 1041.76,-152.84"/>
</g>
<!-- 2757329083024 -->
<g id="node45" class="node">
<title>2757329083024</title>
<ellipse fill="none" stroke="black" cx="1044.7" cy="-114" rx="45.21" ry="18"/>
<text text-anchor="middle" x="1044.7" y="-108" font-family="Times New Roman,serif" font-size="15.00">xor loop</text>
</g>
<!-- 2757329087536&#45;&#45;2757329083024 -->
<g id="edge43" class="edge">
<title>2757329087536&#45;&#45;2757329083024</title>
<path fill="none" stroke="black" d="M744.04,-125.03C799.91,-122.97 930.58,-118.16 999.44,-115.63"/>
</g>
<!-- 2757329081152 -->
<g id="node46" class="node">
<title>2757329081152</title>
<ellipse fill="none" stroke="black" cx="1396.32" cy="-141" rx="189.54" ry="18"/>
<text text-anchor="middle" x="1396.32" y="-135" font-family="Times New Roman,serif" font-size="15.00">registrer date of publishing received request</text>
</g>
<!-- 2757329083024&#45;&#45;2757329081152 -->
<g id="edge41" class="edge">
<title>2757329083024&#45;&#45;2757329081152</title>
<path fill="none" stroke="black" d="M1089.63,-117.39C1129.33,-120.46 1190.12,-125.15 1247.05,-129.55"/>
</g>
<!-- 2757329081056 -->
<g id="node47" class="node">
<title>2757329081056</title>
<ellipse fill="none" stroke="black" cx="1396.32" cy="-87" rx="63.63" ry="18"/>
<text text-anchor="middle" x="1396.32" y="-81" font-family="Times New Roman,serif" font-size="15.00">suspend term</text>
</g>
<!-- 2757329083024&#45;&#45;2757329081056 -->
<g id="edge42" class="edge">
<title>2757329083024&#45;&#45;2757329081056</title>
<path fill="none" stroke="black" d="M1089.63,-110.61C1151.52,-105.83 1264.65,-97.09 1334.56,-91.69"/>
</g>
<!-- 2757329084032 -->
<g id="node51" class="node">
<title>2757329084032</title>
<ellipse fill="black" stroke="black" cx="459.7" cy="-350" rx="2.7" ry="2.7"/>
</g>
<!-- 2757329087104&#45;&#45;2757329084032 -->
<g id="edge49" class="edge">
<title>2757329087104&#45;&#45;2757329084032</title>
<path fill="none" stroke="black" d="M257.48,-346.46C312.98,-347.44 439.2,-349.66 456.68,-349.96"/>
</g>
<!-- 2757329082736 -->
<g id="node52" class="node">
<title>2757329082736</title>
<ellipse fill="none" stroke="black" cx="459.7" cy="-311" rx="52.89" ry="18"/>
<text text-anchor="middle" x="459.7" y="-305" font-family="Times New Roman,serif" font-size="15.00">close case</text>
</g>
<!-- 2757329087104&#45;&#45;2757329082736 -->
<g id="edge50" class="edge">
<title>2757329087104&#45;&#45;2757329082736</title>
<path fill="none" stroke="black" d="M257.04,-342.05C294.31,-336.31 364.11,-325.57 411,-318.34"/>
</g>
</g>
</svg>
