<?xml version="1.0" encoding="UTF-8" standalone="no"?>
<!DOCTYPE svg PUBLIC "-//W3C//DTD SVG 1.1//EN"
 "http://www.w3.org/Graphics/SVG/1.1/DTD/svg11.dtd">
<!-- Generated by graphviz version 11.0.0 (20240428.1522)
 -->
<!-- Title: pt Pages: 1 -->
<svg width="2942pt" height="900pt"
 viewBox="0.00 0.00 2942.40 900.00" xmlns="http://www.w3.org/2000/svg" xmlns:xlink="http://www.w3.org/1999/xlink">
<g id="graph0" class="graph" transform="scale(1 1) rotate(0) translate(4 896)">
<title>pt</title>
<polygon fill="white" stroke="none" points="-4,4 -4,-896 2938.4,-896 2938.4,4 -4,4"/>
<!-- 2757328680768 -->
<g id="node1" class="node">
<title>2757328680768</title>
<ellipse fill="none" stroke="black" cx="27" cy="-337" rx="27" ry="18"/>
<text text-anchor="middle" x="27" y="-331" font-family="Times New Roman,serif" font-size="15.00">seq</text>
</g>
<!-- 2757328681392 -->
<g id="node2" class="node">
<title>2757328681392</title>
<ellipse fill="none" stroke="black" cx="117" cy="-376" rx="27" ry="18"/>
<text text-anchor="middle" x="117" y="-370" font-family="Times New Roman,serif" font-size="15.00">xor</text>
</g>
<!-- 2757328680768&#45;&#45;2757328681392 -->
<g id="edge64" class="edge">
<title>2757328680768&#45;&#45;2757328681392</title>
<path fill="none" stroke="black" d="M50.21,-346.84C63.55,-352.75 80.46,-360.25 93.8,-366.16"/>
</g>
<!-- 2757328682784 -->
<g id="node66" class="node">
<title>2757328682784</title>
<ellipse fill="none" stroke="black" cx="117" cy="-310" rx="27" ry="18"/>
<text text-anchor="middle" x="117" y="-304" font-family="Times New Roman,serif" font-size="15.00">xor</text>
</g>
<!-- 2757328680768&#45;&#45;2757328682784 -->
<g id="edge68" class="edge">
<title>2757328680768&#45;&#45;2757328682784</title>
<path fill="none" stroke="black" d="M52.05,-329.62C64.46,-325.81 79.57,-321.18 91.98,-317.37"/>
</g>
<!-- 2757328681824 -->
<g id="node3" class="node">
<title>2757328681824</title>
<ellipse fill="none" stroke="black" cx="267.18" cy="-739" rx="27" ry="18"/>
<text text-anchor="middle" x="267.18" y="-733" font-family="Times New Roman,serif" font-size="15.00">seq</text>
</g>
<!-- 2757328681392&#45;&#45;2757328681824 -->
<g id="edge6" class="edge">
<title>2757328681392&#45;&#45;2757328681824</title>
<path fill="none" stroke="black" d="M125.15,-393.51C150.24,-454.97 234.13,-660.48 259.1,-721.67"/>
</g>
<!-- 2757328681488 -->
<g id="node9" class="node">
<title>2757328681488</title>
<ellipse fill="none" stroke="black" cx="267.18" cy="-376" rx="27" ry="18"/>
<text text-anchor="middle" x="267.18" y="-370" font-family="Times New Roman,serif" font-size="15.00">seq</text>
</g>
<!-- 2757328681392&#45;&#45;2757328681488 -->
<g id="edge63" class="edge">
<title>2757328681392&#45;&#45;2757328681488</title>
<path fill="none" stroke="black" d="M144.49,-376C171.46,-376 213.03,-376 239.92,-376"/>
</g>
<!-- 2757328681344 -->
<g id="node4" class="node">
<title>2757328681344</title>
<ellipse fill="none" stroke="black" cx="558.4" cy="-874" rx="168.04" ry="18"/>
<text text-anchor="middle" x="558.4" y="-868" font-family="Times New Roman,serif" font-size="15.00">enter date termination request received</text>
</g>
<!-- 2757328681824&#45;&#45;2757328681344 -->
<g id="edge1" class="edge">
<title>2757328681824&#45;&#45;2757328681344</title>
<path fill="none" stroke="black" d="M289.92,-749.15C338.79,-771.96 457.84,-827.53 519.3,-856.22"/>
</g>
<!-- 2757328682400 -->
<g id="node5" class="node">
<title>2757328682400</title>
<ellipse fill="none" stroke="black" cx="558.4" cy="-820" rx="116.35" ry="18"/>
<text text-anchor="middle" x="558.4" y="-814" font-family="Times New Roman,serif" font-size="15.00">message terminate request</text>
</g>
<!-- 2757328681824&#45;&#45;2757328682400 -->
<g id="edge2" class="edge">
<title>2757328681824&#45;&#45;2757328682400</title>
<path fill="none" stroke="black" d="M292.34,-745.77C337.75,-758.49 436.96,-786.27 500.29,-804.01"/>
</g>
<!-- 2757328682016 -->
<g id="node6" class="node">
<title>2757328682016</title>
<ellipse fill="none" stroke="black" cx="558.4" cy="-766" rx="148.59" ry="18"/>
<text text-anchor="middle" x="558.4" y="-760" font-family="Times New Roman,serif" font-size="15.00">enter senddate request termination</text>
</g>
<!-- 2757328681824&#45;&#45;2757328682016 -->
<g id="edge3" class="edge">
<title>2757328681824&#45;&#45;2757328682016</title>
<path fill="none" stroke="black" d="M294.35,-741.44C327.17,-744.51 385.62,-749.96 439.1,-754.96"/>
</g>
<!-- 2757328682352 -->
<g id="node7" class="node">
<title>2757328682352</title>
<ellipse fill="none" stroke="black" cx="558.4" cy="-712" rx="110.72" ry="18"/>
<text text-anchor="middle" x="558.4" y="-706" font-family="Times New Roman,serif" font-size="15.00">phase procedure aborted</text>
</g>
<!-- 2757328681824&#45;&#45;2757328682352 -->
<g id="edge4" class="edge">
<title>2757328681824&#45;&#45;2757328682352</title>
<path fill="none" stroke="black" d="M294.35,-736.56C331.83,-733.06 402.73,-726.44 461.49,-720.95"/>
</g>
<!-- 2757328896368 -->
<g id="node8" class="node">
<title>2757328896368</title>
<ellipse fill="none" stroke="black" cx="558.4" cy="-658" rx="78.99" ry="18"/>
<text text-anchor="middle" x="558.4" y="-652" font-family="Times New Roman,serif" font-size="15.00">register deadline</text>
</g>
<!-- 2757328681824&#45;&#45;2757328896368 -->
<g id="edge5" class="edge">
<title>2757328681824&#45;&#45;2757328896368</title>
<path fill="none" stroke="black" d="M292.34,-732.23C339.45,-719.04 444.45,-689.63 507.24,-672.05"/>
</g>
<!-- 2757328896464 -->
<g id="node10" class="node">
<title>2757328896464</title>
<ellipse fill="none" stroke="black" cx="558.4" cy="-604" rx="27" ry="18"/>
<text text-anchor="middle" x="558.4" y="-598" font-family="Times New Roman,serif" font-size="15.00">xor</text>
</g>
<!-- 2757328681488&#45;&#45;2757328896464 -->
<g id="edge36" class="edge">
<title>2757328681488&#45;&#45;2757328896464</title>
<path fill="none" stroke="black" d="M285.4,-389.58C336.84,-430.13 488.94,-550.03 540.26,-590.49"/>
</g>
<!-- 2757328896128 -->
<g id="node40" class="node">
<title>2757328896128</title>
<ellipse fill="none" stroke="black" cx="558.4" cy="-538" rx="27" ry="18"/>
<text text-anchor="middle" x="558.4" y="-532" font-family="Times New Roman,serif" font-size="15.00">xor</text>
</g>
<!-- 2757328681488&#45;&#45;2757328896128 -->
<g id="edge40" class="edge">
<title>2757328681488&#45;&#45;2757328896128</title>
<path fill="none" stroke="black" d="M288.52,-387.39C341.62,-417.14 484.01,-496.89 537.08,-526.62"/>
</g>
<!-- 2757328896224 -->
<g id="node44" class="node">
<title>2757328896224</title>
<ellipse fill="none" stroke="black" cx="558.4" cy="-484" rx="45.21" ry="18"/>
<text text-anchor="middle" x="558.4" y="-478" font-family="Times New Roman,serif" font-size="15.00">xor loop</text>
</g>
<!-- 2757328681488&#45;&#45;2757328896224 -->
<g id="edge43" class="edge">
<title>2757328681488&#45;&#45;2757328896224</title>
<path fill="none" stroke="black" d="M291.36,-384.66C342.56,-403.78 465.45,-449.67 524.56,-471.74"/>
</g>
<!-- 2757328896272 -->
<g id="node47" class="node">
<title>2757328896272</title>
<ellipse fill="none" stroke="black" cx="558.4" cy="-430" rx="149.62" ry="18"/>
<text text-anchor="middle" x="558.4" y="-424" font-family="Times New Roman,serif" font-size="15.00">forward to the competent authority</text>
</g>
<!-- 2757328681488&#45;&#45;2757328896272 -->
<g id="edge44" class="edge">
<title>2757328681488&#45;&#45;2757328896272</title>
<path fill="none" stroke="black" d="M293.59,-380.74C333.77,-388.25 413.71,-403.17 475.11,-414.64"/>
</g>
<!-- 2757328897616 -->
<g id="node48" class="node">
<title>2757328897616</title>
<ellipse fill="none" stroke="black" cx="558.4" cy="-376" rx="139.89" ry="18"/>
<text text-anchor="middle" x="558.4" y="-370" font-family="Times New Roman,serif" font-size="15.00">regular procedure without MER</text>
</g>
<!-- 2757328681488&#45;&#45;2757328897616 -->
<g id="edge45" class="edge">
<title>2757328681488&#45;&#45;2757328897616</title>
<path fill="none" stroke="black" d="M294.61,-376C323.2,-376 371.02,-376 418.09,-376"/>
</g>
<!-- 2757328898528 -->
<g id="node49" class="node">
<title>2757328898528</title>
<ellipse fill="none" stroke="black" cx="558.4" cy="-322" rx="27" ry="18"/>
<text text-anchor="middle" x="558.4" y="-316" font-family="Times New Roman,serif" font-size="15.00">xor</text>
</g>
<!-- 2757328681488&#45;&#45;2757328898528 -->
<g id="edge48" class="edge">
<title>2757328681488&#45;&#45;2757328898528</title>
<path fill="none" stroke="black" d="M293.59,-371.26C348.45,-361.01 477.43,-336.93 532.15,-326.71"/>
</g>
<!-- 2757328897040 -->
<g id="node52" class="node">
<title>2757328897040</title>
<ellipse fill="none" stroke="black" cx="558.4" cy="-268" rx="27" ry="18"/>
<text text-anchor="middle" x="558.4" y="-262" font-family="Times New Roman,serif" font-size="15.00">xor</text>
</g>
<!-- 2757328681488&#45;&#45;2757328897040 -->
<g id="edge51" class="edge">
<title>2757328681488&#45;&#45;2757328897040</title>
<path fill="none" stroke="black" d="M291.36,-367.34C345.65,-347.07 480.51,-296.71 534.51,-276.55"/>
</g>
<!-- 2757328899248 -->
<g id="node55" class="node">
<title>2757328899248</title>
<ellipse fill="none" stroke="black" cx="558.4" cy="-213" rx="27" ry="18"/>
<text text-anchor="middle" x="558.4" y="-207" font-family="Times New Roman,serif" font-size="15.00">xor</text>
</g>
<!-- 2757328681488&#45;&#45;2757328899248 -->
<g id="edge56" class="edge">
<title>2757328681488&#45;&#45;2757328899248</title>
<path fill="none" stroke="black" d="M288.52,-364.54C341.62,-334.61 484.01,-254.36 537.08,-224.45"/>
</g>
<!-- 2757328899584 -->
<g id="node60" class="node">
<title>2757328899584</title>
<ellipse fill="none" stroke="black" cx="558.4" cy="-135" rx="27" ry="18"/>
<text text-anchor="middle" x="558.4" y="-129" font-family="Times New Roman,serif" font-size="15.00">xor</text>
</g>
<!-- 2757328681488&#45;&#45;2757328899584 -->
<g id="edge59" class="edge">
<title>2757328681488&#45;&#45;2757328899584</title>
<path fill="none" stroke="black" d="M284.98,-362C336.1,-319.41 489.37,-191.68 540.55,-149.04"/>
</g>
<!-- 2757328901600 -->
<g id="node63" class="node">
<title>2757328901600</title>
<ellipse fill="none" stroke="black" cx="558.4" cy="-57" rx="27" ry="18"/>
<text text-anchor="middle" x="558.4" y="-51" font-family="Times New Roman,serif" font-size="15.00">xor</text>
</g>
<!-- 2757328681488&#45;&#45;2757328901600 -->
<g id="edge62" class="edge">
<title>2757328681488&#45;&#45;2757328901600</title>
<path fill="none" stroke="black" d="M282.13,-360.61C331.1,-306.6 494.84,-126 543.59,-72.23"/>
</g>
<!-- 2757328897088 -->
<g id="node11" class="node">
<title>2757328897088</title>
<ellipse fill="black" stroke="black" cx="928.44" cy="-656" rx="2.7" ry="2.7"/>
</g>
<!-- 2757328896464&#45;&#45;2757328897088 -->
<g id="edge7" class="edge">
<title>2757328896464&#45;&#45;2757328897088</title>
<path fill="none" stroke="black" d="M585.28,-607.66C664.8,-618.89 901.65,-652.36 925.5,-655.73"/>
</g>
<!-- 2757328897472 -->
<g id="node12" class="node">
<title>2757328897472</title>
<ellipse fill="none" stroke="black" cx="928.44" cy="-617" rx="27" ry="18"/>
<text text-anchor="middle" x="928.44" y="-611" font-family="Times New Roman,serif" font-size="15.00">seq</text>
</g>
<!-- 2757328896464&#45;&#45;2757328897472 -->
<g id="edge35" class="edge">
<title>2757328896464&#45;&#45;2757328897472</title>
<path fill="none" stroke="black" d="M585.57,-604.92C653.23,-607.31 833.37,-613.68 901.15,-616.07"/>
</g>
<!-- 2757328897328 -->
<g id="node13" class="node">
<title>2757328897328</title>
<ellipse fill="none" stroke="black" cx="1319.98" cy="-725" rx="27" ry="18"/>
<text text-anchor="middle" x="1319.98" y="-719" font-family="Times New Roman,serif" font-size="15.00">xor</text>
</g>
<!-- 2757328897472&#45;&#45;2757328897328 -->
<g id="edge15" class="edge">
<title>2757328897472&#45;&#45;2757328897328</title>
<path fill="none" stroke="black" d="M953.81,-623.76C1023.76,-643.15 1224.67,-698.85 1294.62,-718.25"/>
</g>
<!-- 2757328896176 -->
<g id="node21" class="node">
<title>2757328896176</title>
<ellipse fill="none" stroke="black" cx="1319.98" cy="-617" rx="27" ry="18"/>
<text text-anchor="middle" x="1319.98" y="-611" font-family="Times New Roman,serif" font-size="15.00">xor</text>
</g>
<!-- 2757328897472&#45;&#45;2757328896176 -->
<g id="edge33" class="edge">
<title>2757328897472&#45;&#45;2757328896176</title>
<path fill="none" stroke="black" d="M955.91,-617C1027.06,-617 1221.83,-617 1292.73,-617"/>
</g>
<!-- 2757328897568 -->
<g id="node39" class="node">
<title>2757328897568</title>
<ellipse fill="none" stroke="black" cx="1319.98" cy="-563" rx="119.93" ry="18"/>
<text text-anchor="middle" x="1319.98" y="-557" font-family="Times New Roman,serif" font-size="15.00">phase application received</text>
</g>
<!-- 2757328897472&#45;&#45;2757328897568 -->
<g id="edge34" class="edge">
<title>2757328897472&#45;&#45;2757328897568</title>
<path fill="none" stroke="black" d="M955.3,-613.42C1010.36,-605.78 1141.37,-587.62 1230.15,-575.31"/>
</g>
<!-- 2757328897904 -->
<g id="node14" class="node">
<title>2757328897904</title>
<ellipse fill="black" stroke="black" cx="1670.06" cy="-764" rx="2.7" ry="2.7"/>
</g>
<!-- 2757328897328&#45;&#45;2757328897904 -->
<g id="edge8" class="edge">
<title>2757328897328&#45;&#45;2757328897904</title>
<path fill="none" stroke="black" d="M1346.85,-727.9C1423.11,-736.44 1643.12,-761.09 1666.95,-763.76"/>
</g>
<!-- 2757328898480 -->
<g id="node15" class="node">
<title>2757328898480</title>
<ellipse fill="none" stroke="black" cx="1670.06" cy="-725" rx="27" ry="18"/>
<text text-anchor="middle" x="1670.06" y="-719" font-family="Times New Roman,serif" font-size="15.00">seq</text>
</g>
<!-- 2757328897328&#45;&#45;2757328898480 -->
<g id="edge14" class="edge">
<title>2757328897328&#45;&#45;2757328898480</title>
<path fill="none" stroke="black" d="M1347.42,-725C1412.15,-725 1577.96,-725 1642.65,-725"/>
</g>
<!-- 2757328899296 -->
<g id="node16" class="node">
<title>2757328899296</title>
<ellipse fill="none" stroke="black" cx="1971" cy="-806" rx="27" ry="18"/>
<text text-anchor="middle" x="1971" y="-800" font-family="Times New Roman,serif" font-size="15.00">xor</text>
</g>
<!-- 2757328898480&#45;&#45;2757328899296 -->
<g id="edge11" class="edge">
<title>2757328898480&#45;&#45;2757328899296</title>
<path fill="none" stroke="black" d="M1695.52,-731.63C1751.72,-746.86 1889.5,-784.19 1945.62,-799.39"/>
</g>
<!-- 2757328899200 -->
<g id="node19" class="node">
<title>2757328899200</title>
<ellipse fill="none" stroke="black" cx="1971" cy="-752" rx="140.41" ry="18"/>
<text text-anchor="middle" x="1971" y="-746" font-family="Times New Roman,serif" font-size="15.00">register submission date request</text>
</g>
<!-- 2757328898480&#45;&#45;2757328899200 -->
<g id="edge12" class="edge">
<title>2757328898480&#45;&#45;2757328899200</title>
<path fill="none" stroke="black" d="M1697.32,-727.37C1732.51,-730.55 1797.21,-736.39 1854.76,-741.59"/>
</g>
<!-- 2757328899632 -->
<g id="node20" class="node">
<title>2757328899632</title>
<ellipse fill="none" stroke="black" cx="1971" cy="-698" rx="102.02" ry="18"/>
<text text-anchor="middle" x="1971" y="-692" font-family="Times New Roman,serif" font-size="15.00">OLO messaging active</text>
</g>
<!-- 2757328898480&#45;&#45;2757328899632 -->
<g id="edge13" class="edge">
<title>2757328898480&#45;&#45;2757328899632</title>
<path fill="none" stroke="black" d="M1697.32,-722.63C1737.64,-718.99 1816.7,-711.85 1879.35,-706.19"/>
</g>
<!-- 2757328899536 -->
<g id="node17" class="node">
<title>2757328899536</title>
<ellipse fill="black" stroke="black" cx="2338.99" cy="-825" rx="2.7" ry="2.7"/>
</g>
<!-- 2757328899296&#45;&#45;2757328899536 -->
<g id="edge9" class="edge">
<title>2757328899296&#45;&#45;2757328899536</title>
<path fill="none" stroke="black" d="M1998.32,-807.37C2077.98,-811.5 2312.46,-823.67 2336.07,-824.9"/>
</g>
<!-- 2757328899152 -->
<g id="node18" class="node">
<title>2757328899152</title>
<ellipse fill="none" stroke="black" cx="2338.99" cy="-786" rx="40.6" ry="18"/>
<text text-anchor="middle" x="2338.99" y="-780" font-family="Times New Roman,serif" font-size="15.00">publish</text>
</g>
<!-- 2757328899296&#45;&#45;2757328899152 -->
<g id="edge10" class="edge">
<title>2757328899296&#45;&#45;2757328899152</title>
<path fill="none" stroke="black" d="M1998.32,-804.56C2061.67,-801.1 2222.94,-792.29 2298.19,-788.17"/>
</g>
<!-- 2757328898192 -->
<g id="node22" class="node">
<title>2757328898192</title>
<ellipse fill="none" stroke="black" cx="1670.06" cy="-644" rx="124.54" ry="18"/>
<text text-anchor="middle" x="1670.06" y="-638" font-family="Times New Roman,serif" font-size="15.00">create publication document</text>
</g>
<!-- 2757328896176&#45;&#45;2757328898192 -->
<g id="edge16" class="edge">
<title>2757328896176&#45;&#45;2757328898192</title>
<path fill="none" stroke="black" d="M1347.14,-619.03C1391.64,-622.48 1484.52,-629.69 1559.13,-635.47"/>
</g>
<!-- 2757328898432 -->
<g id="node23" class="node">
<title>2757328898432</title>
<ellipse fill="none" stroke="black" cx="1670.06" cy="-590" rx="27" ry="18"/>
<text text-anchor="middle" x="1670.06" y="-584" font-family="Times New Roman,serif" font-size="15.00">seq</text>
</g>
<!-- 2757328896176&#45;&#45;2757328898432 -->
<g id="edge20" class="edge">
<title>2757328896176&#45;&#45;2757328898432</title>
<path fill="none" stroke="black" d="M1347.14,-614.97C1411.8,-609.95 1578.58,-597.02 1643.06,-592.02"/>
</g>
<!-- 2757328898816 -->
<g id="node27" class="node">
<title>2757328898816</title>
<ellipse fill="none" stroke="black" cx="1670.06" cy="-482" rx="27" ry="18"/>
<text text-anchor="middle" x="1670.06" y="-476" font-family="Times New Roman,serif" font-size="15.00">and</text>
</g>
<!-- 2757328896176&#45;&#45;2757328898816 -->
<g id="edge32" class="edge">
<title>2757328896176&#45;&#45;2757328898816</title>
<path fill="none" stroke="black" d="M1343.81,-608.14C1406.88,-583.68 1582.96,-515.39 1646.13,-490.89"/>
</g>
<!-- 2757328899968 -->
<g id="node24" class="node">
<title>2757328899968</title>
<ellipse fill="none" stroke="black" cx="1971" cy="-644" rx="64.15" ry="18"/>
<text text-anchor="middle" x="1971" y="-638" font-family="Times New Roman,serif" font-size="15.00">MER present</text>
</g>
<!-- 2757328898432&#45;&#45;2757328899968 -->
<g id="edge17" class="edge">
<title>2757328898432&#45;&#45;2757328899968</title>
<path fill="none" stroke="black" d="M1696.54,-594.6C1744.97,-603.35 1851.24,-622.55 1916.12,-634.27"/>
</g>
<!-- 2757328899872 -->
<g id="node25" class="node">
<title>2757328899872</title>
<ellipse fill="none" stroke="black" cx="1971" cy="-590" rx="123" ry="18"/>
<text text-anchor="middle" x="1971" y="-584" font-family="Times New Roman,serif" font-size="15.00">activities regular procedure</text>
</g>
<!-- 2757328898432&#45;&#45;2757328899872 -->
<g id="edge18" class="edge">
<title>2757328898432&#45;&#45;2757328899872</title>
<path fill="none" stroke="black" d="M1697.32,-590C1731.09,-590 1792.02,-590 1847.74,-590"/>
</g>
<!-- 2757328899488 -->
<g id="node26" class="node">
<title>2757328899488</title>
<ellipse fill="none" stroke="black" cx="1971" cy="-536" rx="129.15" ry="18"/>
<text text-anchor="middle" x="1971" y="-530" font-family="Times New Roman,serif" font-size="15.00">read field phased application</text>
</g>
<!-- 2757328898432&#45;&#45;2757328899488 -->
<g id="edge19" class="edge">
<title>2757328898432&#45;&#45;2757328899488</title>
<path fill="none" stroke="black" d="M1696.54,-585.4C1738.97,-577.73 1825.8,-562.05 1890.29,-550.4"/>
</g>
<!-- 2757328900304 -->
<g id="node28" class="node">
<title>2757328900304</title>
<ellipse fill="none" stroke="black" cx="1971" cy="-482" rx="92.3" ry="18"/>
<text text-anchor="middle" x="1971" y="-476" font-family="Times New Roman,serif" font-size="15.00">terminate on request</text>
</g>
<!-- 2757328898816&#45;&#45;2757328900304 -->
<g id="edge21" class="edge">
<title>2757328898816&#45;&#45;2757328900304</title>
<path fill="none" stroke="black" d="M1697.32,-482C1737.43,-482 1815.86,-482 1878.35,-482"/>
</g>
<!-- 2757328900208 -->
<g id="node29" class="node">
<title>2757328900208</title>
<ellipse fill="none" stroke="black" cx="1971" cy="-428" rx="27" ry="18"/>
<text text-anchor="middle" x="1971" y="-422" font-family="Times New Roman,serif" font-size="15.00">seq</text>
</g>
<!-- 2757328898816&#45;&#45;2757328900208 -->
<g id="edge31" class="edge">
<title>2757328898816&#45;&#45;2757328900208</title>
<path fill="none" stroke="black" d="M1696.54,-477.4C1753.02,-467.19 1888.16,-442.78 1944.58,-432.59"/>
</g>
<!-- 2757328900160 -->
<g id="node30" class="node">
<title>2757328900160</title>
<ellipse fill="none" stroke="black" cx="2338.99" cy="-536" rx="27" ry="18"/>
<text text-anchor="middle" x="2338.99" y="-530" font-family="Times New Roman,serif" font-size="15.00">xor</text>
</g>
<!-- 2757328900208&#45;&#45;2757328900160 -->
<g id="edge24" class="edge">
<title>2757328900208&#45;&#45;2757328900160</title>
<path fill="none" stroke="black" d="M1996.3,-435.17C2062.87,-454.82 2247.66,-509.34 2313.94,-528.9"/>
</g>
<!-- 2757328900592 -->
<g id="node33" class="node">
<title>2757328900592</title>
<ellipse fill="none" stroke="black" cx="2338.99" cy="-482" rx="27" ry="18"/>
<text text-anchor="middle" x="2338.99" y="-476" font-family="Times New Roman,serif" font-size="15.00">and</text>
</g>
<!-- 2757328900208&#45;&#45;2757328900592 -->
<g id="edge27" class="edge">
<title>2757328900208&#45;&#45;2757328900592</title>
<path fill="none" stroke="black" d="M1997.74,-431.8C2064.94,-441.71 2245.12,-468.3 2312.29,-478.21"/>
</g>
<!-- 2757328900496 -->
<g id="node36" class="node">
<title>2757328900496</title>
<ellipse fill="none" stroke="black" cx="2338.99" cy="-428" rx="191.59" ry="18"/>
<text text-anchor="middle" x="2338.99" y="-422" font-family="Times New Roman,serif" font-size="15.00">no permit needed or only notification needed</text>
</g>
<!-- 2757328900208&#45;&#45;2757328900496 -->
<g id="edge28" class="edge">
<title>2757328900208&#45;&#45;2757328900496</title>
<path fill="none" stroke="black" d="M1998.32,-428C2030.61,-428 2088.34,-428 2147.15,-428"/>
</g>
<!-- 2757328901216 -->
<g id="node37" class="node">
<title>2757328901216</title>
<ellipse fill="none" stroke="black" cx="2338.99" cy="-374" rx="107.14" ry="18"/>
<text text-anchor="middle" x="2338.99" y="-368" font-family="Times New Roman,serif" font-size="15.00">applicant is stakeholder</text>
</g>
<!-- 2757328900208&#45;&#45;2757328901216 -->
<g id="edge29" class="edge">
<title>2757328900208&#45;&#45;2757328901216</title>
<path fill="none" stroke="black" d="M1997.74,-424.2C2050.78,-416.38 2174.22,-398.16 2256.91,-385.96"/>
</g>
<!-- 2757328900544 -->
<g id="node38" class="node">
<title>2757328900544</title>
<ellipse fill="none" stroke="black" cx="2338.99" cy="-320" rx="143.48" ry="18"/>
<text text-anchor="middle" x="2338.99" y="-314" font-family="Times New Roman,serif" font-size="15.00">enter senddate acknowledgement</text>
</g>
<!-- 2757328900208&#45;&#45;2757328900544 -->
<g id="edge30" class="edge">
<title>2757328900208&#45;&#45;2757328900544</title>
<path fill="none" stroke="black" d="M1996.3,-420.83C2053.77,-403.87 2199.35,-360.91 2280.73,-336.9"/>
</g>
<!-- 2757328900928 -->
<g id="node31" class="node">
<title>2757328900928</title>
<ellipse fill="black" stroke="black" cx="2750.49" cy="-575" rx="2.7" ry="2.7"/>
</g>
<!-- 2757328900160&#45;&#45;2757328900928 -->
<g id="edge22" class="edge">
<title>2757328900160&#45;&#45;2757328900928</title>
<path fill="none" stroke="black" d="M2366.23,-538.5C2452.38,-546.7 2722.48,-572.43 2747.61,-574.82"/>
</g>
<!-- 2757328901312 -->
<g id="node32" class="node">
<title>2757328901312</title>
<ellipse fill="none" stroke="black" cx="2750.49" cy="-536" rx="170.6" ry="18"/>
<text text-anchor="middle" x="2750.49" y="-530" font-family="Times New Roman,serif" font-size="15.00">phase forwarded to competent authority</text>
</g>
<!-- 2757328900160&#45;&#45;2757328901312 -->
<g id="edge23" class="edge">
<title>2757328900160&#45;&#45;2757328901312</title>
<path fill="none" stroke="black" d="M2366.23,-536C2409.26,-536 2498.18,-536 2579.55,-536"/>
</g>
<!-- 2757328900832 -->
<g id="node34" class="node">
<title>2757328900832</title>
<ellipse fill="none" stroke="black" cx="2750.49" cy="-482" rx="155.76" ry="18"/>
<text text-anchor="middle" x="2750.49" y="-476" font-family="Times New Roman,serif" font-size="15.00">enter senddate letter to stakeholders</text>
</g>
<!-- 2757328900592&#45;&#45;2757328900832 -->
<g id="edge25" class="edge">
<title>2757328900592&#45;&#45;2757328900832</title>
<path fill="none" stroke="black" d="M2366.23,-482C2411.95,-482 2509.49,-482 2594.72,-482"/>
</g>
<!-- 2757328901264 -->
<g id="node35" class="node">
<title>2757328901264</title>
<ellipse fill="none" stroke="black" cx="2750.49" cy="-428" rx="183.91" ry="18"/>
<text text-anchor="middle" x="2750.49" y="-422" font-family="Times New Roman,serif" font-size="15.00">enter senddate letter to competent authority</text>
</g>
<!-- 2757328900592&#45;&#45;2757328901264 -->
<g id="edge26" class="edge">
<title>2757328900592&#45;&#45;2757328901264</title>
<path fill="none" stroke="black" d="M2365.92,-478.58C2419.54,-471.51 2545.39,-454.91 2638.39,-442.65"/>
</g>
<!-- 2757328900880 -->
<g id="node41" class="node">
<title>2757328900880</title>
<ellipse fill="black" stroke="black" cx="928.44" cy="-578" rx="2.7" ry="2.7"/>
</g>
<!-- 2757328896128&#45;&#45;2757328900880 -->
<g id="edge37" class="edge">
<title>2757328896128&#45;&#45;2757328900880</title>
<path fill="none" stroke="black" d="M585.28,-540.81C664.8,-549.46 901.65,-575.2 925.5,-577.79"/>
</g>
<!-- 2757328897808 -->
<g id="node42" class="node">
<title>2757328897808</title>
<ellipse fill="none" stroke="black" cx="928.44" cy="-539" rx="103.56" ry="18"/>
<text text-anchor="middle" x="928.44" y="-533" font-family="Times New Roman,serif" font-size="15.00">reception through OLO</text>
</g>
<!-- 2757328896128&#45;&#45;2757328897808 -->
<g id="edge38" class="edge">
<title>2757328896128&#45;&#45;2757328897808</title>
<path fill="none" stroke="black" d="M585.87,-538.07C635.07,-538.21 743,-538.5 824.46,-538.72"/>
</g>
<!-- 2757328898960 -->
<g id="node43" class="node">
<title>2757328898960</title>
<ellipse fill="none" stroke="black" cx="928.44" cy="-485" rx="124.03" ry="18"/>
<text text-anchor="middle" x="928.44" y="-479" font-family="Times New Roman,serif" font-size="15.00">treat subcases completeness</text>
</g>
<!-- 2757328896128&#45;&#45;2757328898960 -->
<g id="edge39" class="edge">
<title>2757328896128&#45;&#45;2757328898960</title>
<path fill="none" stroke="black" d="M585.28,-534.27C637.15,-526.8 755.95,-509.7 838.92,-497.75"/>
</g>
<!-- 2757328897712 -->
<g id="node45" class="node">
<title>2757328897712</title>
<ellipse fill="none" stroke="black" cx="928.44" cy="-431" rx="113.79" ry="18"/>
<text text-anchor="middle" x="928.44" y="-425" font-family="Times New Roman,serif" font-size="15.00">send confirmation receipt</text>
</g>
<!-- 2757328896224&#45;&#45;2757328897712 -->
<g id="edge41" class="edge">
<title>2757328896224&#45;&#45;2757328897712</title>
<path fill="none" stroke="black" d="M601.26,-477.97C659.76,-469.55 767.27,-454.07 842.83,-443.18"/>
</g>
<!-- 2757328898576 -->
<g id="node46" class="node">
<title>2757328898576</title>
<ellipse fill="black" stroke="black" cx="928.44" cy="-392" rx="2.7" ry="2.7"/>
</g>
<!-- 2757328896224&#45;&#45;2757328898576 -->
<g id="edge42" class="edge">
<title>2757328896224&#45;&#45;2757328898576</title>
<path fill="none" stroke="black" d="M597.4,-474.5C686.29,-452.28 902.05,-398.35 925.38,-392.51"/>
</g>
<!-- 2757328897760 -->
<g id="node50" class="node">
<title>2757328897760</title>
<ellipse fill="black" stroke="black" cx="928.44" cy="-369" rx="2.7" ry="2.7"/>
</g>
<!-- 2757328898528&#45;&#45;2757328897760 -->
<g id="edge46" class="edge">
<title>2757328898528&#45;&#45;2757328897760</title>
<path fill="none" stroke="black" d="M585.28,-325.3C664.8,-335.46 901.65,-365.71 925.5,-368.75"/>
</g>
<!-- 2757328899824 -->
<g id="node51" class="node">
<title>2757328899824</title>
<ellipse fill="none" stroke="black" cx="928.44" cy="-330" rx="117.37" ry="18"/>
<text text-anchor="middle" x="928.44" y="-324" font-family="Times New Roman,serif" font-size="15.00">inform BAG administrator</text>
</g>
<!-- 2757328898528&#45;&#45;2757328899824 -->
<g id="edge47" class="edge">
<title>2757328898528&#45;&#45;2757328899824</title>
<path fill="none" stroke="black" d="M585.87,-322.58C632.59,-323.59 732.3,-325.76 811.99,-327.49"/>
</g>
<!-- 2757328900640 -->
<g id="node53" class="node">
<title>2757328900640</title>
<ellipse fill="black" stroke="black" cx="928.44" cy="-291" rx="2.7" ry="2.7"/>
</g>
<!-- 2757328897040&#45;&#45;2757328900640 -->
<g id="edge49" class="edge">
<title>2757328897040&#45;&#45;2757328900640</title>
<path fill="none" stroke="black" d="M585.57,-269.64C665.39,-274.62 901.71,-289.39 925.5,-290.88"/>
</g>
<!-- 2757328898912 -->
<g id="node54" class="node">
<title>2757328898912</title>
<ellipse fill="none" stroke="black" cx="928.44" cy="-252" rx="166" ry="18"/>
<text text-anchor="middle" x="928.44" y="-246" font-family="Times New Roman,serif" font-size="15.00">enter senddate procedure confirmation</text>
</g>
<!-- 2757328897040&#45;&#45;2757328898912 -->
<g id="edge50" class="edge">
<title>2757328897040&#45;&#45;2757328898912</title>
<path fill="none" stroke="black" d="M585.57,-266.86C624.9,-265.15 702.24,-261.79 773.43,-258.7"/>
</g>
<!-- 2757328901648 -->
<g id="node56" class="node">
<title>2757328901648</title>
<ellipse fill="black" stroke="black" cx="928.44" cy="-213" rx="2.7" ry="2.7"/>
</g>
<!-- 2757328899248&#45;&#45;2757328901648 -->
<g id="edge52" class="edge">
<title>2757328899248&#45;&#45;2757328901648</title>
<path fill="none" stroke="black" d="M585.87,-213C665.97,-213 901.77,-213 925.51,-213"/>
</g>
<!-- 2757328901552 -->
<g id="node57" class="node">
<title>2757328901552</title>
<ellipse fill="none" stroke="black" cx="928.44" cy="-174" rx="45.21" ry="18"/>
<text text-anchor="middle" x="928.44" y="-168" font-family="Times New Roman,serif" font-size="15.00">xor loop</text>
</g>
<!-- 2757328899248&#45;&#45;2757328901552 -->
<g id="edge55" class="edge">
<title>2757328899248&#45;&#45;2757328901552</title>
<path fill="none" stroke="black" d="M585.57,-210.23C648.22,-203.59 807.31,-186.73 884.34,-178.57"/>
</g>
<!-- 2757328901504 -->
<g id="node58" class="node">
<title>2757328901504</title>
<ellipse fill="none" stroke="black" cx="1319.98" cy="-201" rx="189.54" ry="18"/>
<text text-anchor="middle" x="1319.98" y="-195" font-family="Times New Roman,serif" font-size="15.00">registrer date of publishing received request</text>
</g>
<!-- 2757328901552&#45;&#45;2757328901504 -->
<g id="edge53" class="edge">
<title>2757328901552&#45;&#45;2757328901504</title>
<path fill="none" stroke="black" d="M973.37,-177.04C1019.93,-180.27 1096.12,-185.55 1165.13,-190.34"/>
</g>
<!-- 2757328901936 -->
<g id="node59" class="node">
<title>2757328901936</title>
<ellipse fill="none" stroke="black" cx="1319.98" cy="-147" rx="63.63" ry="18"/>
<text text-anchor="middle" x="1319.98" y="-141" font-family="Times New Roman,serif" font-size="15.00">suspend term</text>
</g>
<!-- 2757328901552&#45;&#45;2757328901936 -->
<g id="edge54" class="edge">
<title>2757328901552&#45;&#45;2757328901936</title>
<path fill="none" stroke="black" d="M973.37,-170.96C1042.91,-166.14 1178.55,-156.73 1257.65,-151.25"/>
</g>
<!-- 2757328901888 -->
<g id="node61" class="node">
<title>2757328901888</title>
<ellipse fill="black" stroke="black" cx="928.44" cy="-135" rx="2.7" ry="2.7"/>
</g>
<!-- 2757328899584&#45;&#45;2757328901888 -->
<g id="edge57" class="edge">
<title>2757328899584&#45;&#45;2757328901888</title>
<path fill="none" stroke="black" d="M585.87,-135C665.97,-135 901.77,-135 925.51,-135"/>
</g>
<!-- 2757328901984 -->
<g id="node62" class="node">
<title>2757328901984</title>
<ellipse fill="none" stroke="black" cx="928.44" cy="-96" rx="126.59" ry="18"/>
<text text-anchor="middle" x="928.44" y="-90" font-family="Times New Roman,serif" font-size="15.00">send procedure confirmation</text>
</g>
<!-- 2757328899584&#45;&#45;2757328901984 -->
<g id="edge58" class="edge">
<title>2757328899584&#45;&#45;2757328901984</title>
<path fill="none" stroke="black" d="M585.57,-132.23C634.84,-127.01 743.74,-115.47 825.48,-106.8"/>
</g>
<!-- 2757328902320 -->
<g id="node64" class="node">
<title>2757328902320</title>
<ellipse fill="black" stroke="black" cx="928.44" cy="-57" rx="2.7" ry="2.7"/>
</g>
<!-- 2757328901600&#45;&#45;2757328902320 -->
<g id="edge60" class="edge">
<title>2757328901600&#45;&#45;2757328902320</title>
<path fill="none" stroke="black" d="M585.87,-57C665.97,-57 901.77,-57 925.51,-57"/>
</g>
<!-- 2757328902224 -->
<g id="node65" class="node">
<title>2757328902224</title>
<ellipse fill="none" stroke="black" cx="928.44" cy="-18" rx="124.54" ry="18"/>
<text text-anchor="middle" x="928.44" y="-12" font-family="Times New Roman,serif" font-size="15.00">registration date publication</text>
</g>
<!-- 2757328901600&#45;&#45;2757328902224 -->
<g id="edge61" class="edge">
<title>2757328901600&#45;&#45;2757328902224</title>
<path fill="none" stroke="black" d="M585.57,-54.23C635.09,-48.98 744.83,-37.35 826.71,-28.67"/>
</g>
<!-- 2757328682448 -->
<g id="node67" class="node">
<title>2757328682448</title>
<ellipse fill="black" stroke="black" cx="267.18" cy="-337" rx="2.7" ry="2.7"/>
</g>
<!-- 2757328682784&#45;&#45;2757328682448 -->
<g id="edge65" class="edge">
<title>2757328682784&#45;&#45;2757328682448</title>
<path fill="none" stroke="black" d="M143.47,-314.64C181.87,-321.64 251.45,-334.32 264.16,-336.63"/>
</g>
<!-- 2757328682112 -->
<g id="node68" class="node">
<title>2757328682112</title>
<ellipse fill="none" stroke="black" cx="267.18" cy="-298" rx="87.18" ry="18"/>
<text text-anchor="middle" x="267.18" y="-292" font-family="Times New Roman,serif" font-size="15.00">phased application</text>
</g>
<!-- 2757328682784&#45;&#45;2757328682112 -->
<g id="edge66" class="edge">
<title>2757328682784&#45;&#45;2757328682112</title>
<path fill="none" stroke="black" d="M144.15,-307.88C155.86,-306.93 170.38,-305.76 185.27,-304.55"/>
</g>
<!-- 2757328682688 -->
<g id="node69" class="node">
<title>2757328682688</title>
<ellipse fill="none" stroke="black" cx="267.18" cy="-244" rx="52.89" ry="18"/>
<text text-anchor="middle" x="267.18" y="-238" font-family="Times New Roman,serif" font-size="15.00">close case</text>
</g>
<!-- 2757328682784&#45;&#45;2757328682688 -->
<g id="edge67" class="edge">
<title>2757328682784&#45;&#45;2757328682688</title>
<path fill="none" stroke="black" d="M140.18,-300.12C165.05,-289.04 205.59,-270.98 233.95,-258.35"/>
</g>
</g>
</svg>
