<?xml version="1.0" encoding="UTF-8" standalone="no"?>
<!DOCTYPE svg PUBLIC "-//W3C//DTD SVG 1.1//EN"
 "http://www.w3.org/Graphics/SVG/1.1/DTD/svg11.dtd">
<!-- Generated by graphviz version 11.0.0 (20240428.1522)
 -->
<!-- Title: pt Pages: 1 -->
<svg width="1234pt" height="285pt"
 viewBox="0.00 0.00 1234.05 285.00" xmlns="http://www.w3.org/2000/svg" xmlns:xlink="http://www.w3.org/1999/xlink">
<g id="graph0" class="graph" transform="scale(1 1) rotate(0) translate(4 281)">
<title>pt</title>
<polygon fill="white" stroke="none" points="-4,4 -4,-281 1230.05,-281 1230.05,4 -4,4"/>
<!-- 2757326665632 -->
<g id="node1" class="node">
<title>2757326665632</title>
<ellipse fill="none" stroke="black" cx="27" cy="-151" rx="27" ry="18"/>
<text text-anchor="middle" x="27" y="-145" font-family="Times New Roman,serif" font-size="15.00">seq</text>
</g>
<!-- 2757326665536 -->
<g id="node2" class="node">
<title>2757326665536</title>
<ellipse fill="none" stroke="black" cx="239.62" cy="-259" rx="140.41" ry="18"/>
<text text-anchor="middle" x="239.62" y="-253" font-family="Times New Roman,serif" font-size="15.00">register submission date request</text>
</g>
<!-- 2757326665632&#45;&#45;2757326665536 -->
<g id="edge1" class="edge">
<title>2757326665632&#45;&#45;2757326665536</title>
<path fill="none" stroke="black" d="M48.96,-161.75C85.17,-180.32 159.78,-218.57 203.85,-241.17"/>
</g>
<!-- 2757326666352 -->
<g id="node3" class="node">
<title>2757326666352</title>
<ellipse fill="none" stroke="black" cx="239.62" cy="-205" rx="27" ry="18"/>
<text text-anchor="middle" x="239.62" y="-199" font-family="Times New Roman,serif" font-size="15.00">and</text>
</g>
<!-- 2757326665632&#45;&#45;2757326666352 -->
<g id="edge9" class="edge">
<title>2757326665632&#45;&#45;2757326666352</title>
<path fill="none" stroke="black" d="M52.57,-157.3C93.05,-167.68 173.29,-188.25 213.88,-198.66"/>
</g>
<!-- 2757326666304 -->
<g id="node11" class="node">
<title>2757326666304</title>
<ellipse fill="none" stroke="black" cx="239.62" cy="-151" rx="149.62" ry="18"/>
<text text-anchor="middle" x="239.62" y="-145" font-family="Times New Roman,serif" font-size="15.00">forward to the competent authority</text>
</g>
<!-- 2757326665632&#45;&#45;2757326666304 -->
<g id="edge10" class="edge">
<title>2757326665632&#45;&#45;2757326666304</title>
<path fill="none" stroke="black" d="M54.25,-151C64.17,-151 76.31,-151 89.56,-151"/>
</g>
<!-- 2757326666544 -->
<g id="node12" class="node">
<title>2757326666544</title>
<ellipse fill="none" stroke="black" cx="239.62" cy="-97" rx="27" ry="18"/>
<text text-anchor="middle" x="239.62" y="-91" font-family="Times New Roman,serif" font-size="15.00">xor</text>
</g>
<!-- 2757326665632&#45;&#45;2757326666544 -->
<g id="edge15" class="edge">
<title>2757326665632&#45;&#45;2757326666544</title>
<path fill="none" stroke="black" d="M52.57,-144.7C93.05,-134.32 173.29,-113.75 213.88,-103.34"/>
</g>
<!-- 2757326667360 -->
<g id="node17" class="node">
<title>2757326667360</title>
<ellipse fill="none" stroke="black" cx="239.62" cy="-43" rx="139.89" ry="18"/>
<text text-anchor="middle" x="239.62" y="-37" font-family="Times New Roman,serif" font-size="15.00">regular procedure without MER</text>
</g>
<!-- 2757326665632&#45;&#45;2757326667360 -->
<g id="edge16" class="edge">
<title>2757326665632&#45;&#45;2757326667360</title>
<path fill="none" stroke="black" d="M48.96,-140.25C85.17,-121.68 159.78,-83.43 203.85,-60.83"/>
</g>
<!-- 2757326666592 -->
<g id="node4" class="node">
<title>2757326666592</title>
<ellipse fill="none" stroke="black" cx="568.71" cy="-259" rx="143.48" ry="18"/>
<text text-anchor="middle" x="568.71" y="-253" font-family="Times New Roman,serif" font-size="15.00">enter senddate acknowledgement</text>
</g>
<!-- 2757326666352&#45;&#45;2757326666592 -->
<g id="edge2" class="edge">
<title>2757326666352&#45;&#45;2757326666592</title>
<path fill="none" stroke="black" d="M266.29,-209.24C311.69,-216.73 408.15,-232.66 479.78,-244.48"/>
</g>
<!-- 2757326666640 -->
<g id="node5" class="node">
<title>2757326666640</title>
<ellipse fill="none" stroke="black" cx="568.71" cy="-205" rx="119.93" ry="18"/>
<text text-anchor="middle" x="568.71" y="-199" font-family="Times New Roman,serif" font-size="15.00">phase application received</text>
</g>
<!-- 2757326666352&#45;&#45;2757326666640 -->
<g id="edge3" class="edge">
<title>2757326666352&#45;&#45;2757326666640</title>
<path fill="none" stroke="black" d="M267.11,-205C306.42,-205 382.67,-205 448.53,-205"/>
</g>
<!-- 2757326666928 -->
<g id="node6" class="node">
<title>2757326666928</title>
<ellipse fill="none" stroke="black" cx="568.71" cy="-151" rx="27" ry="18"/>
<text text-anchor="middle" x="568.71" y="-145" font-family="Times New Roman,serif" font-size="15.00">seq</text>
</g>
<!-- 2757326666352&#45;&#45;2757326666928 -->
<g id="edge8" class="edge">
<title>2757326666352&#45;&#45;2757326666928</title>
<path fill="none" stroke="black" d="M266.29,-200.76C327.43,-190.67 481.14,-165.29 542.17,-155.22"/>
</g>
<!-- 2757326666880 -->
<g id="node7" class="node">
<title>2757326666880</title>
<ellipse fill="none" stroke="black" cx="855.33" cy="-199" rx="103.56" ry="18"/>
<text text-anchor="middle" x="855.33" y="-193" font-family="Times New Roman,serif" font-size="15.00">reception through OLO</text>
</g>
<!-- 2757326666928&#45;&#45;2757326666880 -->
<g id="edge4" class="edge">
<title>2757326666928&#45;&#45;2757326666880</title>
<path fill="none" stroke="black" d="M595.22,-155.3C636.29,-162.23 718.62,-176.11 779.51,-186.38"/>
</g>
<!-- 2757326667696 -->
<g id="node8" class="node">
<title>2757326667696</title>
<ellipse fill="none" stroke="black" cx="855.33" cy="-145" rx="45.21" ry="18"/>
<text text-anchor="middle" x="855.33" y="-139" font-family="Times New Roman,serif" font-size="15.00">xor loop</text>
</g>
<!-- 2757326666928&#45;&#45;2757326667696 -->
<g id="edge7" class="edge">
<title>2757326666928&#45;&#45;2757326667696</title>
<path fill="none" stroke="black" d="M595.98,-150.45C644.76,-149.42 749.84,-147.2 809.88,-145.94"/>
</g>
<!-- 2757326658240 -->
<g id="node9" class="node">
<title>2757326658240</title>
<ellipse fill="none" stroke="black" cx="1112.26" cy="-164" rx="113.79" ry="18"/>
<text text-anchor="middle" x="1112.26" y="-158" font-family="Times New Roman,serif" font-size="15.00">send confirmation receipt</text>
</g>
<!-- 2757326667696&#45;&#45;2757326658240 -->
<g id="edge5" class="edge">
<title>2757326667696&#45;&#45;2757326658240</title>
<path fill="none" stroke="black" d="M900.15,-148.27C929.98,-150.49 970.74,-153.53 1008.5,-156.34"/>
</g>
<!-- 2757326733536 -->
<g id="node10" class="node">
<title>2757326733536</title>
<ellipse fill="black" stroke="black" cx="1112.26" cy="-125" rx="2.7" ry="2.7"/>
</g>
<!-- 2757326667696&#45;&#45;2757326733536 -->
<g id="edge6" class="edge">
<title>2757326667696&#45;&#45;2757326733536</title>
<path fill="none" stroke="black" d="M900.15,-141.56C967.92,-136.25 1092.15,-126.5 1109.28,-125.16"/>
</g>
<!-- 2757326667648 -->
<g id="node13" class="node">
<title>2757326667648</title>
<ellipse fill="black" stroke="black" cx="568.71" cy="-104" rx="2.7" ry="2.7"/>
</g>
<!-- 2757326666544&#45;&#45;2757326667648 -->
<g id="edge11" class="edge">
<title>2757326666544&#45;&#45;2757326667648</title>
<path fill="none" stroke="black" d="M266.83,-97.56C340.21,-99.13 543.73,-103.49 565.77,-103.96"/>
</g>
<!-- 2757326733968 -->
<g id="node14" class="node">
<title>2757326733968</title>
<ellipse fill="none" stroke="black" cx="568.71" cy="-65" rx="27" ry="18"/>
<text text-anchor="middle" x="568.71" y="-59" font-family="Times New Roman,serif" font-size="15.00">seq</text>
</g>
<!-- 2757326666544&#45;&#45;2757326733968 -->
<g id="edge14" class="edge">
<title>2757326666544&#45;&#45;2757326733968</title>
<path fill="none" stroke="black" d="M266.83,-94.44C328.23,-88.43 480.76,-73.51 541.83,-67.53"/>
</g>
<!-- 2757326734208 -->
<g id="node15" class="node">
<title>2757326734208</title>
<ellipse fill="none" stroke="black" cx="855.33" cy="-72" rx="107.14" ry="18"/>
<text text-anchor="middle" x="855.33" y="-66" font-family="Times New Roman,serif" font-size="15.00">applicant is stakeholder</text>
</g>
<!-- 2757326733968&#45;&#45;2757326734208 -->
<g id="edge12" class="edge">
<title>2757326733968&#45;&#45;2757326734208</title>
<path fill="none" stroke="black" d="M595.98,-65.65C630.66,-66.5 693.79,-68.05 748.96,-69.41"/>
</g>
<!-- 2757326734256 -->
<g id="node16" class="node">
<title>2757326734256</title>
<ellipse fill="none" stroke="black" cx="855.33" cy="-18" rx="80.52" ry="18"/>
<text text-anchor="middle" x="855.33" y="-12" font-family="Times New Roman,serif" font-size="15.00">temporary permit</text>
</g>
<!-- 2757326733968&#45;&#45;2757326734256 -->
<g id="edge13" class="edge">
<title>2757326733968&#45;&#45;2757326734256</title>
<path fill="none" stroke="black" d="M595.47,-60.75C638.92,-53.57 728.02,-38.86 789.45,-28.71"/>
</g>
</g>
</svg>
