<?xml version="1.0" encoding="UTF-8" standalone="no"?>
<!DOCTYPE svg PUBLIC "-//W3C//DTD SVG 1.1//EN"
 "http://www.w3.org/Graphics/SVG/1.1/DTD/svg11.dtd">
<!-- Generated by graphviz version 11.0.0 (20240428.1522)
 -->
<!-- Title: pt Pages: 1 -->
<svg width="2650pt" height="1477pt"
 viewBox="0.00 0.00 2650.23 1477.00" xmlns="http://www.w3.org/2000/svg" xmlns:xlink="http://www.w3.org/1999/xlink">
<g id="graph0" class="graph" transform="scale(1 1) rotate(0) translate(4 1473)">
<title>pt</title>
<polygon fill="white" stroke="none" points="-4,4 -4,-1473 2646.23,-1473 2646.23,4 -4,4"/>
<!-- 2757329089120 -->
<g id="node1" class="node">
<title>2757329089120</title>
<ellipse fill="none" stroke="black" cx="27" cy="-741" rx="27" ry="18"/>
<text text-anchor="middle" x="27" y="-735" font-family="Times New Roman,serif" font-size="15.00">seq</text>
</g>
<!-- 2757329084080 -->
<g id="node2" class="node">
<title>2757329084080</title>
<ellipse fill="none" stroke="black" cx="238.08" cy="-1195" rx="140.41" ry="18"/>
<text text-anchor="middle" x="238.08" y="-1189" font-family="Times New Roman,serif" font-size="15.00">register submission date request</text>
</g>
<!-- 2757329089120&#45;&#45;2757329084080 -->
<g id="edge1" class="edge">
<title>2757329089120&#45;&#45;2757329084080</title>
<path fill="none" stroke="black" d="M35.94,-758.24C68.91,-829.83 194.86,-1103.31 228.68,-1176.76"/>
</g>
<!-- 2757329090608 -->
<g id="node3" class="node">
<title>2757329090608</title>
<ellipse fill="none" stroke="black" cx="238.08" cy="-1141" rx="27" ry="18"/>
<text text-anchor="middle" x="238.08" y="-1135" font-family="Times New Roman,serif" font-size="15.00">xor</text>
</g>
<!-- 2757329089120&#45;&#45;2757329090608 -->
<g id="edge4" class="edge">
<title>2757329089120&#45;&#45;2757329090608</title>
<path fill="none" stroke="black" d="M36.98,-758.19C71.3,-823.83 193.88,-1058.34 228.13,-1123.88"/>
</g>
<!-- 2757329088544 -->
<g id="node6" class="node">
<title>2757329088544</title>
<ellipse fill="none" stroke="black" cx="238.08" cy="-1062" rx="102.02" ry="18"/>
<text text-anchor="middle" x="238.08" y="-1056" font-family="Times New Roman,serif" font-size="15.00">OLO messaging active</text>
</g>
<!-- 2757329089120&#45;&#45;2757329088544 -->
<g id="edge5" class="edge">
<title>2757329089120&#45;&#45;2757329088544</title>
<path fill="none" stroke="black" d="M38.66,-757.36C74.11,-811.79 187.93,-986.54 225.17,-1043.71"/>
</g>
<!-- 2757329085472 -->
<g id="node7" class="node">
<title>2757329085472</title>
<ellipse fill="none" stroke="black" cx="238.08" cy="-1008" rx="27" ry="18"/>
<text text-anchor="middle" x="238.08" y="-1002" font-family="Times New Roman,serif" font-size="15.00">xor</text>
</g>
<!-- 2757329089120&#45;&#45;2757329085472 -->
<g id="edge19" class="edge">
<title>2757329089120&#45;&#45;2757329085472</title>
<path fill="none" stroke="black" d="M40.45,-756.9C77.64,-804.39 187.59,-944.8 224.7,-992.18"/>
</g>
<!-- 2757329086528 -->
<g id="node21" class="node">
<title>2757329086528</title>
<ellipse fill="none" stroke="black" cx="238.08" cy="-903" rx="27" ry="18"/>
<text text-anchor="middle" x="238.08" y="-897" font-family="Times New Roman,serif" font-size="15.00">and</text>
</g>
<!-- 2757329089120&#45;&#45;2757329086528 -->
<g id="edge63" class="edge">
<title>2757329089120&#45;&#45;2757329086528</title>
<path fill="none" stroke="black" d="M45.47,-754.53C84.82,-785.03 180.07,-858.83 219.52,-889.39"/>
</g>
<!-- 2757329083456 -->
<g id="node65" class="node">
<title>2757329083456</title>
<ellipse fill="none" stroke="black" cx="238.08" cy="-849" rx="27" ry="18"/>
<text text-anchor="middle" x="238.08" y="-843" font-family="Times New Roman,serif" font-size="15.00">xor</text>
</g>
<!-- 2757329089120&#45;&#45;2757329083456 -->
<g id="edge66" class="edge">
<title>2757329089120&#45;&#45;2757329083456</title>
<path fill="none" stroke="black" d="M48.81,-751.75C88.79,-772.4 175.89,-817.39 216.04,-838.13"/>
</g>
<!-- 2757329092480 -->
<g id="node68" class="node">
<title>2757329092480</title>
<ellipse fill="none" stroke="black" cx="238.08" cy="-795" rx="124.03" ry="18"/>
<text text-anchor="middle" x="238.08" y="-789" font-family="Times New Roman,serif" font-size="15.00">treat subcases completeness</text>
</g>
<!-- 2757329089120&#45;&#45;2757329092480 -->
<g id="edge67" class="edge">
<title>2757329089120&#45;&#45;2757329092480</title>
<path fill="none" stroke="black" d="M52.39,-747.3C82.34,-755.03 134.22,-768.43 175.38,-779.06"/>
</g>
<!-- 2757329092288 -->
<g id="node69" class="node">
<title>2757329092288</title>
<ellipse fill="none" stroke="black" cx="238.08" cy="-741" rx="148.08" ry="18"/>
<text text-anchor="middle" x="238.08" y="-735" font-family="Times New Roman,serif" font-size="15.00">subcases completeness completed</text>
</g>
<!-- 2757329089120&#45;&#45;2757329092288 -->
<g id="edge68" class="edge">
<title>2757329089120&#45;&#45;2757329092288</title>
<path fill="none" stroke="black" d="M54.48,-741C64.37,-741 76.43,-741 89.58,-741"/>
</g>
<!-- 2757329077696 -->
<g id="node70" class="node">
<title>2757329077696</title>
<ellipse fill="none" stroke="black" cx="238.08" cy="-687" rx="82.06" ry="18"/>
<text text-anchor="middle" x="238.08" y="-681" font-family="Times New Roman,serif" font-size="15.00">procedure change</text>
</g>
<!-- 2757329089120&#45;&#45;2757329077696 -->
<g id="edge69" class="edge">
<title>2757329089120&#45;&#45;2757329077696</title>
<path fill="none" stroke="black" d="M52.39,-734.7C84.39,-726.44 141.41,-711.71 183.66,-700.8"/>
</g>
<!-- 2757329091280 -->
<g id="node71" class="node">
<title>2757329091280</title>
<ellipse fill="none" stroke="black" cx="238.08" cy="-633" rx="27" ry="18"/>
<text text-anchor="middle" x="238.08" y="-627" font-family="Times New Roman,serif" font-size="15.00">xor</text>
</g>
<!-- 2757329089120&#45;&#45;2757329091280 -->
<g id="edge72" class="edge">
<title>2757329089120&#45;&#45;2757329091280</title>
<path fill="none" stroke="black" d="M48.81,-730.25C88.79,-709.6 175.89,-664.61 216.04,-643.87"/>
</g>
<!-- 2757329086144 -->
<g id="node74" class="node">
<title>2757329086144</title>
<ellipse fill="none" stroke="black" cx="238.08" cy="-579" rx="79.5" ry="18"/>
<text text-anchor="middle" x="238.08" y="-573" font-family="Times New Roman,serif" font-size="15.00">request complete</text>
</g>
<!-- 2757329089120&#45;&#45;2757329086144 -->
<g id="edge73" class="edge">
<title>2757329089120&#45;&#45;2757329086144</title>
<path fill="none" stroke="black" d="M45.47,-727.47C83.25,-698.19 172.56,-628.99 214.54,-596.47"/>
</g>
<!-- 2757329077600 -->
<g id="node75" class="node">
<title>2757329077600</title>
<ellipse fill="none" stroke="black" cx="238.08" cy="-525" rx="27" ry="18"/>
<text text-anchor="middle" x="238.08" y="-519" font-family="Times New Roman,serif" font-size="15.00">and</text>
</g>
<!-- 2757329089120&#45;&#45;2757329077600 -->
<g id="edge78" class="edge">
<title>2757329089120&#45;&#45;2757329077600</title>
<path fill="none" stroke="black" d="M42.37,-726.15C80.57,-686.69 184.3,-579.53 222.61,-539.95"/>
</g>
<!-- 2757329085424 -->
<g id="node80" class="node">
<title>2757329085424</title>
<ellipse fill="none" stroke="black" cx="238.08" cy="-471" rx="27" ry="18"/>
<text text-anchor="middle" x="238.08" y="-465" font-family="Times New Roman,serif" font-size="15.00">and</text>
</g>
<!-- 2757329089120&#45;&#45;2757329085424 -->
<g id="edge83" class="edge">
<title>2757329089120&#45;&#45;2757329085424</title>
<path fill="none" stroke="black" d="M40.45,-724.92C77.64,-676.9 187.59,-534.91 224.7,-487"/>
</g>
<!-- 2757329082736 -->
<g id="node85" class="node">
<title>2757329082736</title>
<ellipse fill="none" stroke="black" cx="238.08" cy="-378" rx="27" ry="18"/>
<text text-anchor="middle" x="238.08" y="-372" font-family="Times New Roman,serif" font-size="15.00">xor</text>
</g>
<!-- 2757329089120&#45;&#45;2757329082736 -->
<g id="edge86" class="edge">
<title>2757329089120&#45;&#45;2757329082736</title>
<path fill="none" stroke="black" d="M37.53,-724.46C72.36,-663.99 192.58,-455.27 227.5,-394.64"/>
</g>
<!-- 2757329088784 -->
<g id="node88" class="node">
<title>2757329088784</title>
<ellipse fill="none" stroke="black" cx="238.08" cy="-261" rx="27" ry="18"/>
<text text-anchor="middle" x="238.08" y="-255" font-family="Times New Roman,serif" font-size="15.00">xor</text>
</g>
<!-- 2757329089120&#45;&#45;2757329088784 -->
<g id="edge97" class="edge">
<title>2757329089120&#45;&#45;2757329088784</title>
<path fill="none" stroke="black" d="M35.56,-723.63C68.22,-648.67 196.9,-353.26 229.53,-278.34"/>
</g>
<!-- 2757329088400 -->
<g id="node4" class="node">
<title>2757329088400</title>
<ellipse fill="black" stroke="black" cx="606.08" cy="-1190" rx="2.7" ry="2.7"/>
</g>
<!-- 2757329090608&#45;&#45;2757329088400 -->
<g id="edge2" class="edge">
<title>2757329090608&#45;&#45;2757329088400</title>
<path fill="none" stroke="black" d="M264.82,-1144.45C343.9,-1155.03 579.43,-1186.57 603.14,-1189.74"/>
</g>
<!-- 2757329081344 -->
<g id="node5" class="node">
<title>2757329081344</title>
<ellipse fill="none" stroke="black" cx="606.08" cy="-1151" rx="183.91" ry="18"/>
<text text-anchor="middle" x="606.08" y="-1145" font-family="Times New Roman,serif" font-size="15.00">enter senddate letter to competent authority</text>
</g>
<!-- 2757329090608&#45;&#45;2757329081344 -->
<g id="edge3" class="edge">
<title>2757329090608&#45;&#45;2757329081344</title>
<path fill="none" stroke="black" d="M265.4,-1141.72C300.23,-1142.67 364.66,-1144.43 428.12,-1146.17"/>
</g>
<!-- 2757329086048 -->
<g id="node8" class="node">
<title>2757329086048</title>
<ellipse fill="black" stroke="black" cx="606.08" cy="-1112" rx="2.7" ry="2.7"/>
</g>
<!-- 2757329085472&#45;&#45;2757329086048 -->
<g id="edge6" class="edge">
<title>2757329085472&#45;&#45;2757329086048</title>
<path fill="none" stroke="black" d="M263.38,-1014.9C340.97,-1036.95 579.13,-1104.63 603.12,-1111.44"/>
</g>
<!-- 2757329080816 -->
<g id="node9" class="node">
<title>2757329080816</title>
<ellipse fill="none" stroke="black" cx="606.08" cy="-1073" rx="27" ry="18"/>
<text text-anchor="middle" x="606.08" y="-1067" font-family="Times New Roman,serif" font-size="15.00">seq</text>
</g>
<!-- 2757329085472&#45;&#45;2757329080816 -->
<g id="edge18" class="edge">
<title>2757329085472&#45;&#45;2757329080816</title>
<path fill="none" stroke="black" d="M264.53,-1012.52C331.64,-1024.44 512.88,-1056.63 579.8,-1068.51"/>
</g>
<!-- 2757329092240 -->
<g id="node10" class="node">
<title>2757329092240</title>
<ellipse fill="none" stroke="black" cx="1011.43" cy="-1451" rx="185.45" ry="18"/>
<text text-anchor="middle" x="1011.43" y="-1445" font-family="Times New Roman,serif" font-size="15.00">send send confirmation competent authority</text>
</g>
<!-- 2757329080816&#45;&#45;2757329092240 -->
<g id="edge7" class="edge">
<title>2757329080816&#45;&#45;2757329092240</title>
<path fill="none" stroke="black" d="M622.4,-1087.36C684.99,-1146.02 921.32,-1367.49 990.99,-1432.78"/>
</g>
<!-- 2757329085088 -->
<g id="node11" class="node">
<title>2757329085088</title>
<ellipse fill="none" stroke="black" cx="1011.43" cy="-1397" rx="131.71" ry="18"/>
<text text-anchor="middle" x="1011.43" y="-1391" font-family="Times New Roman,serif" font-size="15.00">request to competent authority</text>
</g>
<!-- 2757329080816&#45;&#45;2757329085088 -->
<g id="edge8" class="edge">
<title>2757329080816&#45;&#45;2757329085088</title>
<path fill="none" stroke="black" d="M624.15,-1086.71C688.33,-1138.27 915.14,-1320.45 987.83,-1378.85"/>
</g>
<!-- 2757329080336 -->
<g id="node12" class="node">
<title>2757329080336</title>
<ellipse fill="none" stroke="black" cx="1011.43" cy="-1343" rx="105.09" ry="18"/>
<text text-anchor="middle" x="1011.43" y="-1337" font-family="Times New Roman,serif" font-size="15.00">create forwarding copy</text>
</g>
<!-- 2757329080816&#45;&#45;2757329080336 -->
<g id="edge9" class="edge">
<title>2757329080816&#45;&#45;2757329080336</title>
<path fill="none" stroke="black" d="M625.99,-1085.66C691.41,-1129.45 908.19,-1274.56 983.99,-1325.3"/>
</g>
<!-- 2757329079664 -->
<g id="node13" class="node">
<title>2757329079664</title>
<ellipse fill="none" stroke="black" cx="1011.43" cy="-1289" rx="155.76" ry="18"/>
<text text-anchor="middle" x="1011.43" y="-1283" font-family="Times New Roman,serif" font-size="15.00">enter senddate letter to stakeholders</text>
</g>
<!-- 2757329080816&#45;&#45;2757329079664 -->
<g id="edge10" class="edge">
<title>2757329080816&#45;&#45;2757329079664</title>
<path fill="none" stroke="black" d="M627.91,-1084.16C693.49,-1119.28 896.06,-1227.75 976.75,-1270.97"/>
</g>
<!-- 2757329087152 -->
<g id="node14" class="node">
<title>2757329087152</title>
<ellipse fill="none" stroke="black" cx="1011.43" cy="-1235" rx="148.08" ry="18"/>
<text text-anchor="middle" x="1011.43" y="-1229" font-family="Times New Roman,serif" font-size="15.00">forward transcript to stakeholders</text>
</g>
<!-- 2757329080816&#45;&#45;2757329087152 -->
<g id="edge11" class="edge">
<title>2757329080816&#45;&#45;2757329087152</title>
<path fill="none" stroke="black" d="M629.92,-1082.17C694.83,-1108.24 881.19,-1183.09 966.65,-1217.42"/>
</g>
<!-- 2757329087776 -->
<g id="node15" class="node">
<title>2757329087776</title>
<ellipse fill="none" stroke="black" cx="1011.43" cy="-1181" rx="170.6" ry="18"/>
<text text-anchor="middle" x="1011.43" y="-1175" font-family="Times New Roman,serif" font-size="15.00">phase forwarded to competent authority</text>
</g>
<!-- 2757329080816&#45;&#45;2757329087776 -->
<g id="edge12" class="edge">
<title>2757329080816&#45;&#45;2757329087776</title>
<path fill="none" stroke="black" d="M631.7,-1079.59C693.36,-1096.1 855.95,-1139.64 946.77,-1163.95"/>
</g>
<!-- 2757329084752 -->
<g id="node16" class="node">
<title>2757329084752</title>
<ellipse fill="none" stroke="black" cx="1011.43" cy="-1127" rx="117.89" ry="18"/>
<text text-anchor="middle" x="1011.43" y="-1121" font-family="Times New Roman,serif" font-size="15.00">read publication date field</text>
</g>
<!-- 2757329080816&#45;&#45;2757329084752 -->
<g id="edge13" class="edge">
<title>2757329080816&#45;&#45;2757329084752</title>
<path fill="none" stroke="black" d="M632.92,-1076.46C689.95,-1084.1 828.84,-1102.69 921.3,-1115.07"/>
</g>
<!-- 2757329081872 -->
<g id="node17" class="node">
<title>2757329081872</title>
<ellipse fill="none" stroke="black" cx="1011.43" cy="-1073" rx="124.54" ry="18"/>
<text text-anchor="middle" x="1011.43" y="-1067" font-family="Times New Roman,serif" font-size="15.00">stop all running subcases 2b</text>
</g>
<!-- 2757329080816&#45;&#45;2757329081872 -->
<g id="edge14" class="edge">
<title>2757329080816&#45;&#45;2757329081872</title>
<path fill="none" stroke="black" d="M633.54,-1073C684.11,-1073 797.35,-1073 886.58,-1073"/>
</g>
<!-- 2757329088112 -->
<g id="node18" class="node">
<title>2757329088112</title>
<ellipse fill="none" stroke="black" cx="1011.43" cy="-1019" rx="92.3" ry="18"/>
<text text-anchor="middle" x="1011.43" y="-1013" font-family="Times New Roman,serif" font-size="15.00">phase archived case</text>
</g>
<!-- 2757329080816&#45;&#45;2757329088112 -->
<g id="edge15" class="edge">
<title>2757329080816&#45;&#45;2757329088112</title>
<path fill="none" stroke="black" d="M632.92,-1069.54C692.65,-1061.54 842.15,-1041.53 934.09,-1029.22"/>
</g>
<!-- 2757329091184 -->
<g id="node19" class="node">
<title>2757329091184</title>
<ellipse fill="none" stroke="black" cx="1011.43" cy="-965" rx="88.71" ry="18"/>
<text text-anchor="middle" x="1011.43" y="-959" font-family="Times New Roman,serif" font-size="15.00">phase case handled</text>
</g>
<!-- 2757329080816&#45;&#45;2757329091184 -->
<g id="edge16" class="edge">
<title>2757329080816&#45;&#45;2757329091184</title>
<path fill="none" stroke="black" d="M631.7,-1066.41C695.59,-1049.3 867.81,-1003.19 956.31,-979.49"/>
</g>
<!-- 2757329082016 -->
<g id="node20" class="node">
<title>2757329082016</title>
<ellipse fill="none" stroke="black" cx="1011.43" cy="-911" rx="52.89" ry="18"/>
<text text-anchor="middle" x="1011.43" y="-905" font-family="Times New Roman,serif" font-size="15.00">close case</text>
</g>
<!-- 2757329080816&#45;&#45;2757329082016 -->
<g id="edge17" class="edge">
<title>2757329080816&#45;&#45;2757329082016</title>
<path fill="none" stroke="black" d="M629.92,-1063.83C697.33,-1036.75 895.73,-957.07 976.07,-924.8"/>
</g>
<!-- 2757329092576 -->
<g id="node22" class="node">
<title>2757329092576</title>
<ellipse fill="none" stroke="black" cx="606.08" cy="-960" rx="149.62" ry="18"/>
<text text-anchor="middle" x="606.08" y="-954" font-family="Times New Roman,serif" font-size="15.00">forward to the competent authority</text>
</g>
<!-- 2757329086528&#45;&#45;2757329092576 -->
<g id="edge20" class="edge">
<title>2757329086528&#45;&#45;2757329092576</title>
<path fill="none" stroke="black" d="M264.82,-907.01C315.42,-914.89 430.09,-932.75 512.33,-945.56"/>
</g>
<!-- 2757329087392 -->
<g id="node23" class="node">
<title>2757329087392</title>
<ellipse fill="none" stroke="black" cx="606.08" cy="-906" rx="119.93" ry="18"/>
<text text-anchor="middle" x="606.08" y="-900" font-family="Times New Roman,serif" font-size="15.00">phase application received</text>
</g>
<!-- 2757329086528&#45;&#45;2757329087392 -->
<g id="edge21" class="edge">
<title>2757329086528&#45;&#45;2757329087392</title>
<path fill="none" stroke="black" d="M265.4,-903.22C311.05,-903.59 407.54,-904.38 486.05,-905.02"/>
</g>
<!-- 2757329079712 -->
<g id="node24" class="node">
<title>2757329079712</title>
<ellipse fill="none" stroke="black" cx="606.08" cy="-852" rx="139.89" ry="18"/>
<text text-anchor="middle" x="606.08" y="-846" font-family="Times New Roman,serif" font-size="15.00">regular procedure without MER</text>
</g>
<!-- 2757329086528&#45;&#45;2757329079712 -->
<g id="edge22" class="edge">
<title>2757329086528&#45;&#45;2757329079712</title>
<path fill="none" stroke="black" d="M264.82,-899.41C314.77,-892.45 427.15,-876.79 509.14,-865.37"/>
</g>
<!-- 2757329077072 -->
<g id="node25" class="node">
<title>2757329077072</title>
<ellipse fill="none" stroke="black" cx="606.08" cy="-798" rx="27" ry="18"/>
<text text-anchor="middle" x="606.08" y="-792" font-family="Times New Roman,serif" font-size="15.00">seq</text>
</g>
<!-- 2757329086528&#45;&#45;2757329077072 -->
<g id="edge62" class="edge">
<title>2757329086528&#45;&#45;2757329077072</title>
<path fill="none" stroke="black" d="M263.38,-896.03C329.96,-876.93 514.74,-823.92 581.03,-804.9"/>
</g>
<!-- 2757329085184 -->
<g id="node26" class="node">
<title>2757329085184</title>
<ellipse fill="none" stroke="black" cx="1011.43" cy="-857" rx="27" ry="18"/>
<text text-anchor="middle" x="1011.43" y="-851" font-family="Times New Roman,serif" font-size="15.00">xor</text>
</g>
<!-- 2757329077072&#45;&#45;2757329085184 -->
<g id="edge28" class="edge">
<title>2757329077072&#45;&#45;2757329085184</title>
<path fill="none" stroke="black" d="M632.92,-801.78C705.69,-812.42 911.72,-842.56 984.54,-853.21"/>
</g>
<!-- 2757329086480 -->
<g id="node32" class="node">
<title>2757329086480</title>
<ellipse fill="none" stroke="black" cx="1011.43" cy="-803" rx="27" ry="18"/>
<text text-anchor="middle" x="1011.43" y="-797" font-family="Times New Roman,serif" font-size="15.00">xor</text>
</g>
<!-- 2757329077072&#45;&#45;2757329086480 -->
<g id="edge45" class="edge">
<title>2757329077072&#45;&#45;2757329086480</title>
<path fill="none" stroke="black" d="M633.54,-798.33C706.71,-799.24 911.16,-801.77 984.13,-802.67"/>
</g>
<!-- 2757329078032 -->
<g id="node49" class="node">
<title>2757329078032</title>
<ellipse fill="none" stroke="black" cx="1011.43" cy="-749" rx="27" ry="18"/>
<text text-anchor="middle" x="1011.43" y="-743" font-family="Times New Roman,serif" font-size="15.00">xor</text>
</g>
<!-- 2757329077072&#45;&#45;2757329078032 -->
<g id="edge48" class="edge">
<title>2757329077072&#45;&#45;2757329078032</title>
<path fill="none" stroke="black" d="M632.92,-794.86C705.69,-786.02 911.72,-760.99 984.54,-752.15"/>
</g>
<!-- 2757329091856 -->
<g id="node52" class="node">
<title>2757329091856</title>
<ellipse fill="none" stroke="black" cx="1011.43" cy="-695" rx="27" ry="18"/>
<text text-anchor="middle" x="1011.43" y="-689" font-family="Times New Roman,serif" font-size="15.00">xor</text>
</g>
<!-- 2757329077072&#45;&#45;2757329091856 -->
<g id="edge51" class="edge">
<title>2757329077072&#45;&#45;2757329091856</title>
<path fill="none" stroke="black" d="M631.7,-791.71C703.71,-773.32 913.37,-719.79 985.62,-701.34"/>
</g>
<!-- 2757329081536 -->
<g id="node55" class="node">
<title>2757329081536</title>
<ellipse fill="none" stroke="black" cx="1011.43" cy="-611" rx="27" ry="18"/>
<text text-anchor="middle" x="1011.43" y="-605" font-family="Times New Roman,serif" font-size="15.00">and</text>
</g>
<!-- 2757329077072&#45;&#45;2757329081536 -->
<g id="edge56" class="edge">
<title>2757329077072&#45;&#45;2757329081536</title>
<path fill="none" stroke="black" d="M628.76,-787.95C698.8,-755.48 918.45,-653.64 988.64,-621.1"/>
</g>
<!-- 2757329085760 -->
<g id="node60" class="node">
<title>2757329085760</title>
<ellipse fill="none" stroke="black" cx="1011.43" cy="-557" rx="27" ry="18"/>
<text text-anchor="middle" x="1011.43" y="-551" font-family="Times New Roman,serif" font-size="15.00">and</text>
</g>
<!-- 2757329077072&#45;&#45;2757329085760 -->
<g id="edge61" class="edge">
<title>2757329077072&#45;&#45;2757329085760</title>
<path fill="none" stroke="black" d="M626.8,-786.21C695.29,-745.29 922.31,-609.65 990.74,-568.76"/>
</g>
<!-- 2757329077936 -->
<g id="node27" class="node">
<title>2757329077936</title>
<ellipse fill="black" stroke="black" cx="1376.35" cy="-998" rx="2.7" ry="2.7"/>
</g>
<!-- 2757329085184&#45;&#45;2757329077936 -->
<g id="edge23" class="edge">
<title>2757329085184&#45;&#45;2757329077936</title>
<path fill="none" stroke="black" d="M1035.41,-865.93C1111.14,-895.35 1349.39,-987.91 1373.4,-997.24"/>
</g>
<!-- 2757329078992 -->
<g id="node28" class="node">
<title>2757329078992</title>
<ellipse fill="none" stroke="black" cx="1376.35" cy="-959" rx="27" ry="18"/>
<text text-anchor="middle" x="1376.35" y="-953" font-family="Times New Roman,serif" font-size="15.00">seq</text>
</g>
<!-- 2757329085184&#45;&#45;2757329078992 -->
<g id="edge27" class="edge">
<title>2757329085184&#45;&#45;2757329078992</title>
<path fill="none" stroke="black" d="M1036.81,-863.85C1102.92,-882.43 1285.09,-933.63 1351.08,-952.18"/>
</g>
<!-- 2757329083120 -->
<g id="node29" class="node">
<title>2757329083120</title>
<ellipse fill="none" stroke="black" cx="1721.83" cy="-1067" rx="132.73" ry="18"/>
<text text-anchor="middle" x="1721.83" y="-1061" font-family="Times New Roman,serif" font-size="15.00">create procedure confirmation</text>
</g>
<!-- 2757329078992&#45;&#45;2757329083120 -->
<g id="edge24" class="edge">
<title>2757329078992&#45;&#45;2757329083120</title>
<path fill="none" stroke="black" d="M1401.23,-966.51C1455.92,-983.71 1591.38,-1026.3 1667.21,-1050.14"/>
</g>
<!-- 2757329076400 -->
<g id="node30" class="node">
<title>2757329076400</title>
<ellipse fill="none" stroke="black" cx="1721.83" cy="-1013" rx="40.6" ry="18"/>
<text text-anchor="middle" x="1721.83" y="-1007" font-family="Times New Roman,serif" font-size="15.00">publish</text>
</g>
<!-- 2757329078992&#45;&#45;2757329076400 -->
<g id="edge25" class="edge">
<title>2757329078992&#45;&#45;2757329076400</title>
<path fill="none" stroke="black" d="M1403.17,-963.06C1463.23,-972.5 1612.58,-995.98 1682.98,-1007.05"/>
</g>
<!-- 2757329089552 -->
<g id="node31" class="node">
<title>2757329089552</title>
<ellipse fill="none" stroke="black" cx="1721.83" cy="-959" rx="124.54" ry="18"/>
<text text-anchor="middle" x="1721.83" y="-953" font-family="Times New Roman,serif" font-size="15.00">create publication document</text>
</g>
<!-- 2757329078992&#45;&#45;2757329089552 -->
<g id="edge26" class="edge">
<title>2757329078992&#45;&#45;2757329089552</title>
<path fill="none" stroke="black" d="M1403.73,-959C1444.81,-959 1526.65,-959 1596.89,-959"/>
</g>
<!-- 2757329078608 -->
<g id="node33" class="node">
<title>2757329078608</title>
<ellipse fill="black" stroke="black" cx="1376.35" cy="-858" rx="2.7" ry="2.7"/>
</g>
<!-- 2757329086480&#45;&#45;2757329078608 -->
<g id="edge29" class="edge">
<title>2757329086480&#45;&#45;2757329078608</title>
<path fill="none" stroke="black" d="M1038.24,-806.91C1116.94,-818.84 1349.98,-854.15 1373.44,-857.71"/>
</g>
<!-- 2757329084800 -->
<g id="node34" class="node">
<title>2757329084800</title>
<ellipse fill="none" stroke="black" cx="1376.35" cy="-819" rx="27" ry="18"/>
<text text-anchor="middle" x="1376.35" y="-813" font-family="Times New Roman,serif" font-size="15.00">seq</text>
</g>
<!-- 2757329086480&#45;&#45;2757329084800 -->
<g id="edge44" class="edge">
<title>2757329086480&#45;&#45;2757329084800</title>
<path fill="none" stroke="black" d="M1038.82,-804.16C1105.86,-807.12 1282.13,-814.89 1349.06,-817.84"/>
</g>
<!-- 2757329090224 -->
<g id="node35" class="node">
<title>2757329090224</title>
<ellipse fill="none" stroke="black" cx="1721.83" cy="-905" rx="27" ry="18"/>
<text text-anchor="middle" x="1721.83" y="-899" font-family="Times New Roman,serif" font-size="15.00">xor</text>
</g>
<!-- 2757329084800&#45;&#45;2757329090224 -->
<g id="edge32" class="edge">
<title>2757329084800&#45;&#45;2757329090224</title>
<path fill="none" stroke="black" d="M1402.05,-825.18C1465.43,-841.05 1633.22,-883.07 1696.35,-898.87"/>
</g>
<!-- 2757329088496 -->
<g id="node38" class="node">
<title>2757329088496</title>
<ellipse fill="none" stroke="black" cx="1721.83" cy="-851" rx="27" ry="18"/>
<text text-anchor="middle" x="1721.83" y="-845" font-family="Times New Roman,serif" font-size="15.00">and</text>
</g>
<!-- 2757329084800&#45;&#45;2757329088496 -->
<g id="edge37" class="edge">
<title>2757329084800&#45;&#45;2757329088496</title>
<path fill="none" stroke="black" d="M1403.45,-821.43C1467.32,-827.38 1630.94,-842.63 1694.77,-848.57"/>
</g>
<!-- 2757329087056 -->
<g id="node43" class="node">
<title>2757329087056</title>
<ellipse fill="none" stroke="black" cx="1721.83" cy="-797" rx="27" ry="18"/>
<text text-anchor="middle" x="1721.83" y="-791" font-family="Times New Roman,serif" font-size="15.00">xor</text>
</g>
<!-- 2757329084800&#45;&#45;2757329087056 -->
<g id="edge40" class="edge">
<title>2757329084800&#45;&#45;2757329087056</title>
<path fill="none" stroke="black" d="M1403.73,-817.31C1467.83,-813.21 1631.13,-802.75 1694.82,-798.67"/>
</g>
<!-- 2757329092192 -->
<g id="node46" class="node">
<title>2757329092192</title>
<ellipse fill="none" stroke="black" cx="1721.83" cy="-743" rx="116.35" ry="18"/>
<text text-anchor="middle" x="1721.83" y="-737" font-family="Times New Roman,serif" font-size="15.00">message terminate request</text>
</g>
<!-- 2757329084800&#45;&#45;2757329092192 -->
<g id="edge41" class="edge">
<title>2757329084800&#45;&#45;2757329092192</title>
<path fill="none" stroke="black" d="M1402.33,-813.47C1454.43,-801.94 1576.24,-774.99 1653.21,-757.96"/>
</g>
<!-- 2757329086384 -->
<g id="node47" class="node">
<title>2757329086384</title>
<ellipse fill="none" stroke="black" cx="1721.83" cy="-689" rx="110.72" ry="18"/>
<text text-anchor="middle" x="1721.83" y="-683" font-family="Times New Roman,serif" font-size="15.00">phase procedure aborted</text>
</g>
<!-- 2757329084800&#45;&#45;2757329086384 -->
<g id="edge42" class="edge">
<title>2757329084800&#45;&#45;2757329086384</title>
<path fill="none" stroke="black" d="M1400.42,-810.27C1456.83,-788.92 1602.49,-733.79 1676.4,-705.82"/>
</g>
<!-- 2757329080864 -->
<g id="node48" class="node">
<title>2757329080864</title>
<ellipse fill="none" stroke="black" cx="1721.83" cy="-635" rx="148.59" ry="18"/>
<text text-anchor="middle" x="1721.83" y="-629" font-family="Times New Roman,serif" font-size="15.00">enter senddate request termination</text>
</g>
<!-- 2757329084800&#45;&#45;2757329080864 -->
<g id="edge43" class="edge">
<title>2757329084800&#45;&#45;2757329080864</title>
<path fill="none" stroke="black" d="M1398.07,-807.9C1455.5,-777.14 1617.17,-690.53 1687.48,-652.87"/>
</g>
<!-- 2757329083072 -->
<g id="node36" class="node">
<title>2757329083072</title>
<ellipse fill="black" stroke="black" cx="2096.98" cy="-963" rx="2.7" ry="2.7"/>
</g>
<!-- 2757329090224&#45;&#45;2757329083072 -->
<g id="edge30" class="edge">
<title>2757329090224&#45;&#45;2757329083072</title>
<path fill="none" stroke="black" d="M1748.47,-908.99C1828.5,-921.42 2069.71,-958.92 2094.01,-962.69"/>
</g>
<!-- 2757329091808 -->
<g id="node37" class="node">
<title>2757329091808</title>
<ellipse fill="none" stroke="black" cx="2096.98" cy="-924" rx="78.99" ry="18"/>
<text text-anchor="middle" x="2096.98" y="-918" font-family="Times New Roman,serif" font-size="15.00">register deadline</text>
</g>
<!-- 2757329090224&#45;&#45;2757329091808 -->
<g id="edge31" class="edge">
<title>2757329090224&#45;&#45;2757329091808</title>
<path fill="none" stroke="black" d="M1749.07,-906.34C1804.48,-909.16 1935.22,-915.81 2019.44,-920.1"/>
</g>
<!-- 2757329080096 -->
<g id="node39" class="node">
<title>2757329080096</title>
<ellipse fill="none" stroke="black" cx="2096.98" cy="-870" rx="27" ry="18"/>
<text text-anchor="middle" x="2096.98" y="-864" font-family="Times New Roman,serif" font-size="15.00">xor</text>
</g>
<!-- 2757329088496&#45;&#45;2757329080096 -->
<g id="edge35" class="edge">
<title>2757329088496&#45;&#45;2757329080096</title>
<path fill="none" stroke="black" d="M1749.07,-852.34C1817.58,-855.82 2001.29,-865.18 2069.77,-868.67"/>
</g>
<!-- 2757329084368 -->
<g id="node42" class="node">
<title>2757329084368</title>
<ellipse fill="none" stroke="black" cx="2096.98" cy="-816" rx="92.3" ry="18"/>
<text text-anchor="middle" x="2096.98" y="-810" font-family="Times New Roman,serif" font-size="15.00">terminate on request</text>
</g>
<!-- 2757329088496&#45;&#45;2757329084368 -->
<g id="edge36" class="edge">
<title>2757329088496&#45;&#45;2757329084368</title>
<path fill="none" stroke="black" d="M1749.07,-848.54C1803.07,-843.47 1928.62,-831.7 2012.92,-823.79"/>
</g>
<!-- 2757329076304 -->
<g id="node40" class="node">
<title>2757329076304</title>
<ellipse fill="black" stroke="black" cx="2474.19" cy="-889" rx="2.7" ry="2.7"/>
</g>
<!-- 2757329080096&#45;&#45;2757329076304 -->
<g id="edge33" class="edge">
<title>2757329080096&#45;&#45;2757329076304</title>
<path fill="none" stroke="black" d="M2124.37,-871.34C2205.44,-875.44 2446.9,-887.67 2471.21,-888.9"/>
</g>
<!-- 2757329082352 -->
<g id="node41" class="node">
<title>2757329082352</title>
<ellipse fill="none" stroke="black" cx="2474.19" cy="-850" rx="168.04" ry="18"/>
<text text-anchor="middle" x="2474.19" y="-844" font-family="Times New Roman,serif" font-size="15.00">enter date termination request received</text>
</g>
<!-- 2757329080096&#45;&#45;2757329082352 -->
<g id="edge34" class="edge">
<title>2757329080096&#45;&#45;2757329082352</title>
<path fill="none" stroke="black" d="M2124.37,-868.59C2165.57,-866.4 2248.2,-861.99 2322.7,-858.02"/>
</g>
<!-- 2757329087536 -->
<g id="node44" class="node">
<title>2757329087536</title>
<ellipse fill="black" stroke="black" cx="2096.98" cy="-777" rx="2.7" ry="2.7"/>
</g>
<!-- 2757329087056&#45;&#45;2757329087536 -->
<g id="edge38" class="edge">
<title>2757329087056&#45;&#45;2757329087536</title>
<path fill="none" stroke="black" d="M1749.07,-795.59C1829.69,-791.27 2069.83,-778.4 2094.02,-777.11"/>
</g>
<!-- 2757329076352 -->
<g id="node45" class="node">
<title>2757329076352</title>
<ellipse fill="none" stroke="black" cx="2096.98" cy="-738" rx="173.16" ry="18"/>
<text text-anchor="middle" x="2096.98" y="-732" font-family="Times New Roman,serif" font-size="15.00">phase procedure prematurely terminated</text>
</g>
<!-- 2757329087056&#45;&#45;2757329076352 -->
<g id="edge39" class="edge">
<title>2757329087056&#45;&#45;2757329076352</title>
<path fill="none" stroke="black" d="M1748.47,-792.94C1799.36,-784.9 1915.4,-766.55 1999.41,-753.27"/>
</g>
<!-- 2757329078368 -->
<g id="node50" class="node">
<title>2757329078368</title>
<ellipse fill="black" stroke="black" cx="1376.35" cy="-780" rx="2.7" ry="2.7"/>
</g>
<!-- 2757329078032&#45;&#45;2757329078368 -->
<g id="edge46" class="edge">
<title>2757329078032&#45;&#45;2757329078368</title>
<path fill="none" stroke="black" d="M1038.53,-751.23C1117.52,-757.98 1350.04,-777.84 1373.45,-779.84"/>
</g>
<!-- 2757329078944 -->
<g id="node51" class="node">
<title>2757329078944</title>
<ellipse fill="none" stroke="black" cx="1376.35" cy="-741" rx="102.02" ry="18"/>
<text text-anchor="middle" x="1376.35" y="-735" font-family="Times New Roman,serif" font-size="15.00">start WABOprocedure</text>
</g>
<!-- 2757329078032&#45;&#45;2757329078944 -->
<g id="edge47" class="edge">
<title>2757329078032&#45;&#45;2757329078944</title>
<path fill="none" stroke="black" d="M1038.82,-748.42C1087.68,-747.34 1194.53,-744.99 1274.81,-743.22"/>
</g>
<!-- 2757329083024 -->
<g id="node53" class="node">
<title>2757329083024</title>
<ellipse fill="black" stroke="black" cx="1376.35" cy="-702" rx="2.7" ry="2.7"/>
</g>
<!-- 2757329091856&#45;&#45;2757329083024 -->
<g id="edge49" class="edge">
<title>2757329091856&#45;&#45;2757329083024</title>
<path fill="none" stroke="black" d="M1038.82,-695.51C1118.1,-697.04 1350.09,-701.51 1373.45,-701.96"/>
</g>
<!-- 2757329084176 -->
<g id="node54" class="node">
<title>2757329084176</title>
<ellipse fill="none" stroke="black" cx="1376.35" cy="-663" rx="124.54" ry="18"/>
<text text-anchor="middle" x="1376.35" y="-657" font-family="Times New Roman,serif" font-size="15.00">registration date publication</text>
</g>
<!-- 2757329091856&#45;&#45;2757329084176 -->
<g id="edge50" class="edge">
<title>2757329091856&#45;&#45;2757329084176</title>
<path fill="none" stroke="black" d="M1038.53,-692.7C1086.07,-688.51 1189.22,-679.41 1268.93,-672.38"/>
</g>
<!-- 2757329078320 -->
<g id="node56" class="node">
<title>2757329078320</title>
<ellipse fill="none" stroke="black" cx="1376.35" cy="-609" rx="143.48" ry="18"/>
<text text-anchor="middle" x="1376.35" y="-603" font-family="Times New Roman,serif" font-size="15.00">enter senddate acknowledgement</text>
</g>
<!-- 2757329081536&#45;&#45;2757329078320 -->
<g id="edge52" class="edge">
<title>2757329081536&#45;&#45;2757329078320</title>
<path fill="none" stroke="black" d="M1038.82,-610.85C1079.52,-610.63 1160.47,-610.18 1232.77,-609.79"/>
</g>
<!-- 2757329090944 -->
<g id="node57" class="node">
<title>2757329090944</title>
<ellipse fill="none" stroke="black" cx="1376.35" cy="-555" rx="45.21" ry="18"/>
<text text-anchor="middle" x="1376.35" y="-549" font-family="Times New Roman,serif" font-size="15.00">xor loop</text>
</g>
<!-- 2757329081536&#45;&#45;2757329090944 -->
<g id="edge55" class="edge">
<title>2757329081536&#45;&#45;2757329090944</title>
<path fill="none" stroke="black" d="M1038.24,-607.02C1100.26,-597.45 1258.13,-573.09 1333.75,-561.42"/>
</g>
<!-- 2757329084032 -->
<g id="node58" class="node">
<title>2757329084032</title>
<ellipse fill="none" stroke="black" cx="1721.83" cy="-559" rx="113.79" ry="18"/>
<text text-anchor="middle" x="1721.83" y="-553" font-family="Times New Roman,serif" font-size="15.00">send confirmation receipt</text>
</g>
<!-- 2757329090944&#45;&#45;2757329084032 -->
<g id="edge53" class="edge">
<title>2757329090944&#45;&#45;2757329084032</title>
<path fill="none" stroke="black" d="M1421.9,-555.52C1468.83,-556.07 1544.56,-556.95 1608.06,-557.69"/>
</g>
<!-- 2757329080048 -->
<g id="node59" class="node">
<title>2757329080048</title>
<ellipse fill="black" stroke="black" cx="1721.83" cy="-520" rx="2.7" ry="2.7"/>
</g>
<!-- 2757329090944&#45;&#45;2757329080048 -->
<g id="edge54" class="edge">
<title>2757329090944&#45;&#45;2757329080048</title>
<path fill="none" stroke="black" d="M1420.51,-550.6C1507.71,-541.72 1698.41,-522.28 1719.01,-520.18"/>
</g>
<!-- 2757329089840 -->
<g id="node61" class="node">
<title>2757329089840</title>
<ellipse fill="none" stroke="black" cx="1376.35" cy="-501" rx="126.59" ry="18"/>
<text text-anchor="middle" x="1376.35" y="-495" font-family="Times New Roman,serif" font-size="15.00">send procedure confirmation</text>
</g>
<!-- 2757329085760&#45;&#45;2757329089840 -->
<g id="edge57" class="edge">
<title>2757329085760&#45;&#45;2757329089840</title>
<path fill="none" stroke="black" d="M1038.24,-553.02C1089.66,-545.08 1206.94,-526.99 1288.63,-514.38"/>
</g>
<!-- 2757329079952 -->
<g id="node62" class="node">
<title>2757329079952</title>
<ellipse fill="none" stroke="black" cx="1376.35" cy="-447" rx="45.21" ry="18"/>
<text text-anchor="middle" x="1376.35" y="-441" font-family="Times New Roman,serif" font-size="15.00">xor loop</text>
</g>
<!-- 2757329085760&#45;&#45;2757329079952 -->
<g id="edge60" class="edge">
<title>2757329085760&#45;&#45;2757329079952</title>
<path fill="none" stroke="black" d="M1036.52,-549.7C1098.9,-530.79 1265.92,-480.17 1339.6,-457.84"/>
</g>
<!-- 2757329089504 -->
<g id="node63" class="node">
<title>2757329089504</title>
<ellipse fill="none" stroke="black" cx="1721.83" cy="-464" rx="166" ry="18"/>
<text text-anchor="middle" x="1721.83" y="-458" font-family="Times New Roman,serif" font-size="15.00">enter senddate procedure confirmation</text>
</g>
<!-- 2757329079952&#45;&#45;2757329089504 -->
<g id="edge58" class="edge">
<title>2757329079952&#45;&#45;2757329089504</title>
<path fill="none" stroke="black" d="M1421.55,-449.19C1459.33,-451.06 1515.97,-453.86 1569.84,-456.53"/>
</g>
<!-- 2757329078752 -->
<g id="node64" class="node">
<title>2757329078752</title>
<ellipse fill="black" stroke="black" cx="1721.83" cy="-425" rx="2.7" ry="2.7"/>
</g>
<!-- 2757329079952&#45;&#45;2757329078752 -->
<g id="edge59" class="edge">
<title>2757329079952&#45;&#45;2757329078752</title>
<path fill="none" stroke="black" d="M1421.2,-444.19C1508.74,-438.58 1698.52,-426.43 1719.02,-425.12"/>
</g>
<!-- 2757329090560 -->
<g id="node66" class="node">
<title>2757329090560</title>
<ellipse fill="black" stroke="black" cx="606.08" cy="-759" rx="2.7" ry="2.7"/>
</g>
<!-- 2757329083456&#45;&#45;2757329090560 -->
<g id="edge64" class="edge">
<title>2757329083456&#45;&#45;2757329090560</title>
<path fill="none" stroke="black" d="M263.95,-842.88C342.14,-823.66 579.25,-765.35 603.13,-759.48"/>
</g>
<!-- 2757329082688 -->
<g id="node67" class="node">
<title>2757329082688</title>
<ellipse fill="none" stroke="black" cx="606.08" cy="-720" rx="130.68" ry="18"/>
<text text-anchor="middle" x="606.08" y="-714" font-family="Times New Roman,serif" font-size="15.00">create subcases completeness</text>
</g>
<!-- 2757329083456&#45;&#45;2757329082688 -->
<g id="edge65" class="edge">
<title>2757329083456&#45;&#45;2757329082688</title>
<path fill="none" stroke="black" d="M262.53,-840.73C321.54,-819.94 477.12,-765.1 556.7,-737.05"/>
</g>
<!-- 2757329091952 -->
<g id="node72" class="node">
<title>2757329091952</title>
<ellipse fill="black" stroke="black" cx="606.08" cy="-672" rx="2.7" ry="2.7"/>
</g>
<!-- 2757329091280&#45;&#45;2757329091952 -->
<g id="edge70" class="edge">
<title>2757329091280&#45;&#45;2757329091952</title>
<path fill="none" stroke="black" d="M265.11,-635.77C344.48,-644.23 579.49,-669.27 603.15,-671.79"/>
</g>
<!-- 2757329085136 -->
<g id="node73" class="node">
<title>2757329085136</title>
<ellipse fill="none" stroke="black" cx="606.08" cy="-633" rx="115.33" ry="18"/>
<text text-anchor="middle" x="606.08" y="-627" font-family="Times New Roman,serif" font-size="15.00">regular procedure applies</text>
</g>
<!-- 2757329091280&#45;&#45;2757329085136 -->
<g id="edge71" class="edge">
<title>2757329091280&#45;&#45;2757329085136</title>
<path fill="none" stroke="black" d="M265.4,-633C311.87,-633 411.02,-633 490.27,-633"/>
</g>
<!-- 2757329083696 -->
<g id="node76" class="node">
<title>2757329083696</title>
<ellipse fill="none" stroke="black" cx="606.08" cy="-579" rx="137.34" ry="18"/>
<text text-anchor="middle" x="606.08" y="-573" font-family="Times New Roman,serif" font-size="15.00">term for supplying missing data</text>
</g>
<!-- 2757329077600&#45;&#45;2757329083696 -->
<g id="edge74" class="edge">
<title>2757329077600&#45;&#45;2757329083696</title>
<path fill="none" stroke="black" d="M264.82,-528.8C315.58,-536.29 430.83,-553.29 513.12,-565.43"/>
</g>
<!-- 2757329079088 -->
<g id="node77" class="node">
<title>2757329079088</title>
<ellipse fill="none" stroke="black" cx="606.08" cy="-525" rx="27" ry="18"/>
<text text-anchor="middle" x="606.08" y="-519" font-family="Times New Roman,serif" font-size="15.00">xor</text>
</g>
<!-- 2757329077600&#45;&#45;2757329079088 -->
<g id="edge77" class="edge">
<title>2757329077600&#45;&#45;2757329079088</title>
<path fill="none" stroke="black" d="M265.4,-525C332.93,-525 511.73,-525 578.99,-525"/>
</g>
<!-- 2757329089600 -->
<g id="node78" class="node">
<title>2757329089600</title>
<ellipse fill="black" stroke="black" cx="1011.43" cy="-518" rx="2.7" ry="2.7"/>
</g>
<!-- 2757329079088&#45;&#45;2757329089600 -->
<g id="edge75" class="edge">
<title>2757329079088&#45;&#45;2757329089600</title>
<path fill="none" stroke="black" d="M633.54,-524.54C718.72,-523.06 981.78,-518.5 1008.27,-518.04"/>
</g>
<!-- 2757329085712 -->
<g id="node79" class="node">
<title>2757329085712</title>
<ellipse fill="none" stroke="black" cx="1011.43" cy="-479" rx="155.76" ry="18"/>
<text text-anchor="middle" x="1011.43" y="-473" font-family="Times New Roman,serif" font-size="15.00">create letter requesting missing data</text>
</g>
<!-- 2757329079088&#45;&#45;2757329085712 -->
<g id="edge76" class="edge">
<title>2757329079088&#45;&#45;2757329085712</title>
<path fill="none" stroke="black" d="M632.92,-522.05C685.43,-516.06 807.34,-502.16 898.51,-491.76"/>
</g>
<!-- 2757329091232 -->
<g id="node81" class="node">
<title>2757329091232</title>
<ellipse fill="none" stroke="black" cx="606.08" cy="-471" rx="95.37" ry="18"/>
<text text-anchor="middle" x="606.08" y="-465" font-family="Times New Roman,serif" font-size="15.00">retrieve missing data</text>
</g>
<!-- 2757329085424&#45;&#45;2757329091232 -->
<g id="edge79" class="edge">
<title>2757329085424&#45;&#45;2757329091232</title>
<path fill="none" stroke="black" d="M265.4,-471C315.89,-471 428.55,-471 510.32,-471"/>
</g>
<!-- 2757329082784 -->
<g id="node82" class="node">
<title>2757329082784</title>
<ellipse fill="none" stroke="black" cx="606.08" cy="-417" rx="27" ry="18"/>
<text text-anchor="middle" x="606.08" y="-411" font-family="Times New Roman,serif" font-size="15.00">xor</text>
</g>
<!-- 2757329085424&#45;&#45;2757329082784 -->
<g id="edge82" class="edge">
<title>2757329085424&#45;&#45;2757329082784</title>
<path fill="none" stroke="black" d="M264.82,-467.2C332.02,-457.29 512.2,-430.7 579.37,-420.79"/>
</g>
<!-- 2757329090464 -->
<g id="node83" class="node">
<title>2757329090464</title>
<ellipse fill="black" stroke="black" cx="1011.43" cy="-425" rx="2.7" ry="2.7"/>
</g>
<!-- 2757329082784&#45;&#45;2757329090464 -->
<g id="edge80" class="edge">
<title>2757329082784&#45;&#45;2757329090464</title>
<path fill="none" stroke="black" d="M633.54,-417.52C718.72,-419.21 981.78,-424.43 1008.27,-424.96"/>
</g>
<!-- 2757329089216 -->
<g id="node84" class="node">
<title>2757329089216</title>
<ellipse fill="none" stroke="black" cx="1011.43" cy="-386" rx="152.18" ry="18"/>
<text text-anchor="middle" x="1011.43" y="-380" font-family="Times New Roman,serif" font-size="15.00">phase asked additional information</text>
</g>
<!-- 2757329082784&#45;&#45;2757329089216 -->
<g id="edge81" class="edge">
<title>2757329082784&#45;&#45;2757329089216</title>
<path fill="none" stroke="black" d="M633.23,-414.99C682.9,-411.17 793.83,-402.65 882.61,-395.82"/>
</g>
<!-- 2757329084704 -->
<g id="node86" class="node">
<title>2757329084704</title>
<ellipse fill="black" stroke="black" cx="606.08" cy="-378" rx="2.7" ry="2.7"/>
</g>
<!-- 2757329082736&#45;&#45;2757329084704 -->
<g id="edge84" class="edge">
<title>2757329082736&#45;&#45;2757329084704</title>
<path fill="none" stroke="black" d="M265.4,-378C345.06,-378 579.54,-378 603.15,-378"/>
</g>
<!-- 2757329091568 -->
<g id="node87" class="node">
<title>2757329091568</title>
<ellipse fill="none" stroke="black" cx="606.08" cy="-339" rx="155.76" ry="18"/>
<text text-anchor="middle" x="606.08" y="-333" font-family="Times New Roman,serif" font-size="15.00">enter senddate retrieve missing data</text>
</g>
<!-- 2757329082736&#45;&#45;2757329091568 -->
<g id="edge85" class="edge">
<title>2757329082736&#45;&#45;2757329091568</title>
<path fill="none" stroke="black" d="M265.11,-375.23C311.33,-370.3 410.32,-359.75 489.62,-351.3"/>
</g>
<!-- 2757329085808 -->
<g id="node89" class="node">
<title>2757329085808</title>
<ellipse fill="black" stroke="black" cx="606.08" cy="-300" rx="2.7" ry="2.7"/>
</g>
<!-- 2757329088784&#45;&#45;2757329085808 -->
<g id="edge87" class="edge">
<title>2757329088784&#45;&#45;2757329085808</title>
<path fill="none" stroke="black" d="M265.11,-263.77C344.48,-272.23 579.49,-297.27 603.15,-299.79"/>
</g>
<!-- 2757329082112 -->
<g id="node90" class="node">
<title>2757329082112</title>
<ellipse fill="none" stroke="black" cx="606.08" cy="-261" rx="129.15" ry="18"/>
<text text-anchor="middle" x="606.08" y="-255" font-family="Times New Roman,serif" font-size="15.00">read field phased application</text>
</g>
<!-- 2757329088784&#45;&#45;2757329082112 -->
<g id="edge88" class="edge">
<title>2757329088784&#45;&#45;2757329082112</title>
<path fill="none" stroke="black" d="M265.4,-261C309.25,-261 400,-261 476.67,-261"/>
</g>
<!-- 2757329082256 -->
<g id="node91" class="node">
<title>2757329082256</title>
<ellipse fill="none" stroke="black" cx="606.08" cy="-207" rx="27" ry="18"/>
<text text-anchor="middle" x="606.08" y="-201" font-family="Times New Roman,serif" font-size="15.00">seq</text>
</g>
<!-- 2757329088784&#45;&#45;2757329082256 -->
<g id="edge92" class="edge">
<title>2757329088784&#45;&#45;2757329082256</title>
<path fill="none" stroke="black" d="M264.82,-257.2C332.02,-247.29 512.2,-220.7 579.37,-210.79"/>
</g>
<!-- 2757329088880 -->
<g id="node95" class="node">
<title>2757329088880</title>
<ellipse fill="none" stroke="black" cx="606.08" cy="-99" rx="27" ry="18"/>
<text text-anchor="middle" x="606.08" y="-93" font-family="Times New Roman,serif" font-size="15.00">seq</text>
</g>
<!-- 2757329088784&#45;&#45;2757329088880 -->
<g id="edge96" class="edge">
<title>2757329088784&#45;&#45;2757329088880</title>
<path fill="none" stroke="black" d="M261.15,-251.23C326.37,-222.36 517.72,-137.67 582.98,-108.78"/>
</g>
<!-- 2757329077312 -->
<g id="node92" class="node">
<title>2757329077312</title>
<ellipse fill="none" stroke="black" cx="1011.43" cy="-288" rx="133.75" ry="18"/>
<text text-anchor="middle" x="1011.43" y="-282" font-family="Times New Roman,serif" font-size="15.00">receive additional information</text>
</g>
<!-- 2757329082256&#45;&#45;2757329077312 -->
<g id="edge89" class="edge">
<title>2757329082256&#45;&#45;2757329077312</title>
<path fill="none" stroke="black" d="M632.31,-212.07C691.81,-224.02 842.81,-254.34 934.98,-272.85"/>
</g>
<!-- 2757329087824 -->
<g id="node93" class="node">
<title>2757329087824</title>
<ellipse fill="none" stroke="black" cx="1011.43" cy="-234" rx="126.08" ry="18"/>
<text text-anchor="middle" x="1011.43" y="-228" font-family="Times New Roman,serif" font-size="15.00">keep permanently suspended</text>
</g>
<!-- 2757329082256&#45;&#45;2757329087824 -->
<g id="edge90" class="edge">
<title>2757329082256&#45;&#45;2757329087824</title>
<path fill="none" stroke="black" d="M633.23,-208.75C685.52,-212.25 805.7,-220.3 896.46,-226.37"/>
</g>
<!-- 2757329082304 -->
<g id="node94" class="node">
<title>2757329082304</title>
<ellipse fill="none" stroke="black" cx="1011.43" cy="-180" rx="176.23" ry="18"/>
<text text-anchor="middle" x="1011.43" y="-174" font-family="Times New Roman,serif" font-size="15.00">creating decision permanently suspended</text>
</g>
<!-- 2757329082256&#45;&#45;2757329082304 -->
<g id="edge91" class="edge">
<title>2757329082256&#45;&#45;2757329082304</title>
<path fill="none" stroke="black" d="M633.23,-205.25C679.23,-202.17 777.79,-195.57 862.62,-189.89"/>
</g>
<!-- 2757329078416 -->
<g id="node96" class="node">
<title>2757329078416</title>
<ellipse fill="none" stroke="black" cx="1011.43" cy="-126" rx="100.48" ry="18"/>
<text text-anchor="middle" x="1011.43" y="-120" font-family="Times New Roman,serif" font-size="15.00">send letter in progress</text>
</g>
<!-- 2757329088880&#45;&#45;2757329078416 -->
<g id="edge93" class="edge">
<title>2757329088880&#45;&#45;2757329078416</title>
<path fill="none" stroke="black" d="M633.23,-100.75C689.53,-104.52 824.56,-113.56 916.8,-119.73"/>
</g>
<!-- 2757329076736 -->
<g id="node97" class="node">
<title>2757329076736</title>
<ellipse fill="none" stroke="black" cx="1011.43" cy="-72" rx="98.44" ry="18"/>
<text text-anchor="middle" x="1011.43" y="-66" font-family="Times New Roman,serif" font-size="15.00">treat subcases content</text>
</g>
<!-- 2757329088880&#45;&#45;2757329076736 -->
<g id="edge94" class="edge">
<title>2757329088880&#45;&#45;2757329076736</title>
<path fill="none" stroke="black" d="M633.23,-97.25C689.88,-93.46 826.24,-84.33 918.51,-78.15"/>
</g>
<!-- 2757329084128 -->
<g id="node98" class="node">
<title>2757329084128</title>
<ellipse fill="none" stroke="black" cx="1011.43" cy="-18" rx="122.49" ry="18"/>
<text text-anchor="middle" x="1011.43" y="-12" font-family="Times New Roman,serif" font-size="15.00">completed subcases content</text>
</g>
<!-- 2757329088880&#45;&#45;2757329084128 -->
<g id="edge95" class="edge">
<title>2757329088880&#45;&#45;2757329084128</title>
<path fill="none" stroke="black" d="M632.31,-93.93C692.33,-81.88 845.44,-51.13 937.37,-32.67"/>
</g>
</g>
</svg>
