<?xml version="1.0" encoding="UTF-8" standalone="no"?>
<!DOCTYPE svg PUBLIC "-//W3C//DTD SVG 1.1//EN"
 "http://www.w3.org/Graphics/SVG/1.1/DTD/svg11.dtd">
<!-- Generated by graphviz version 11.0.0 (20240428.1522)
 -->
<!-- Title: pt Pages: 1 -->
<svg width="3088pt" height="1170pt"
 viewBox="0.00 0.00 3087.75 1170.00" xmlns="http://www.w3.org/2000/svg" xmlns:xlink="http://www.w3.org/1999/xlink">
<g id="graph0" class="graph" transform="scale(1 1) rotate(0) translate(4 1166)">
<title>pt</title>
<polygon fill="white" stroke="none" points="-4,4 -4,-1166 3083.75,-1166 3083.75,4 -4,4"/>
<!-- 2787266507888 -->
<g id="node1" class="node">
<title>2787266507888</title>
<ellipse fill="none" stroke="black" cx="27" cy="-1001" rx="27" ry="18"/>
<text text-anchor="middle" x="27" y="-995" font-family="Times New Roman,serif" font-size="15.00">seq</text>
</g>
<!-- 2787266504000 -->
<g id="node2" class="node">
<title>2787266504000</title>
<ellipse fill="none" stroke="black" cx="215.05" cy="-1136" rx="125.05" ry="18"/>
<text text-anchor="middle" x="215.05" y="-1130" font-family="Times New Roman,serif" font-size="15.00">Log submission date request</text>
</g>
<!-- 2787266507888&#45;&#45;2787266504000 -->
<g id="edge1" class="edge">
<title>2787266507888&#45;&#45;2787266504000</title>
<path fill="none" stroke="black" d="M46.18,-1014.19C79.74,-1038.54 151.44,-1090.57 189.36,-1118.08"/>
</g>
<!-- 2787266506400 -->
<g id="node3" class="node">
<title>2787266506400</title>
<ellipse fill="none" stroke="black" cx="215.05" cy="-1082" rx="121.47" ry="18"/>
<text text-anchor="middle" x="215.05" y="-1076" font-family="Times New Roman,serif" font-size="15.00">OLO communication active</text>
</g>
<!-- 2787266507888&#45;&#45;2787266506400 -->
<g id="edge2" class="edge">
<title>2787266507888&#45;&#45;2787266506400</title>
<path fill="none" stroke="black" d="M50.07,-1010.61C80.59,-1023.89 136.17,-1048.1 174.09,-1064.6"/>
</g>
<!-- 2787266496704 -->
<g id="node4" class="node">
<title>2787266496704</title>
<ellipse fill="none" stroke="black" cx="215.05" cy="-1028" rx="27" ry="18"/>
<text text-anchor="middle" x="215.05" y="-1022" font-family="Times New Roman,serif" font-size="15.00">xor</text>
</g>
<!-- 2787266507888&#45;&#45;2787266496704 -->
<g id="edge5" class="edge">
<title>2787266507888&#45;&#45;2787266496704</title>
<path fill="none" stroke="black" d="M53.87,-1004.75C89.42,-1009.91 152.97,-1019.14 188.4,-1024.28"/>
</g>
<!-- 2787266503328 -->
<g id="node7" class="node">
<title>2787266503328</title>
<ellipse fill="none" stroke="black" cx="215.05" cy="-974" rx="27" ry="18"/>
<text text-anchor="middle" x="215.05" y="-968" font-family="Times New Roman,serif" font-size="15.00">xor</text>
</g>
<!-- 2787266507888&#45;&#45;2787266503328 -->
<g id="edge36" class="edge">
<title>2787266507888&#45;&#45;2787266503328</title>
<path fill="none" stroke="black" d="M53.87,-997.25C89.42,-992.09 152.97,-982.86 188.4,-977.72"/>
</g>
<!-- 2787266502896 -->
<g id="node38" class="node">
<title>2787266502896</title>
<ellipse fill="none" stroke="black" cx="215.05" cy="-916" rx="27" ry="18"/>
<text text-anchor="middle" x="215.05" y="-910" font-family="Times New Roman,serif" font-size="15.00">xor</text>
</g>
<!-- 2787266507888&#45;&#45;2787266502896 -->
<g id="edge39" class="edge">
<title>2787266507888&#45;&#45;2787266502896</title>
<path fill="none" stroke="black" d="M49.71,-991.08C85.46,-974.75 156.34,-942.36 192.2,-925.99"/>
</g>
<!-- 2787266509376 -->
<g id="node41" class="node">
<title>2787266509376</title>
<ellipse fill="none" stroke="black" cx="215.05" cy="-712" rx="27" ry="18"/>
<text text-anchor="middle" x="215.05" y="-706" font-family="Times New Roman,serif" font-size="15.00">xor</text>
</g>
<!-- 2787266507888&#45;&#45;2787266509376 -->
<g id="edge71" class="edge">
<title>2787266507888&#45;&#45;2787266509376</title>
<path fill="none" stroke="black" d="M38.54,-984.63C71.21,-933.89 170.57,-779.53 203.4,-728.54"/>
</g>
<!-- 2787266502944 -->
<g id="node5" class="node">
<title>2787266502944</title>
<ellipse fill="black" stroke="black" cx="529.3" cy="-1072" rx="2.7" ry="2.7"/>
</g>
<!-- 2787266496704&#45;&#45;2787266502944 -->
<g id="edge3" class="edge">
<title>2787266496704&#45;&#45;2787266502944</title>
<path fill="none" stroke="black" d="M241.87,-1031.64C312.59,-1041.6 505.57,-1068.8 526.46,-1071.74"/>
</g>
<!-- 2787266498528 -->
<g id="node6" class="node">
<title>2787266498528</title>
<ellipse fill="none" stroke="black" cx="529.3" cy="-1033" rx="125.05" ry="18"/>
<text text-anchor="middle" x="529.3" y="-1027" font-family="Times New Roman,serif" font-size="15.00">Submit application via OLO</text>
</g>
<!-- 2787266496704&#45;&#45;2787266498528 -->
<g id="edge4" class="edge">
<title>2787266496704&#45;&#45;2787266498528</title>
<path fill="none" stroke="black" d="M242.41,-1028.42C278.28,-1029 344.89,-1030.06 404.8,-1031.02"/>
</g>
<!-- 2787266499488 -->
<g id="node8" class="node">
<title>2787266499488</title>
<ellipse fill="black" stroke="black" cx="529.3" cy="-994" rx="2.7" ry="2.7"/>
</g>
<!-- 2787266503328&#45;&#45;2787266499488 -->
<g id="edge6" class="edge">
<title>2787266503328&#45;&#45;2787266499488</title>
<path fill="none" stroke="black" d="M242.41,-975.69C313.57,-980.25 505.67,-992.55 526.47,-993.88"/>
</g>
<!-- 2787266504960 -->
<g id="node9" class="node">
<title>2787266504960</title>
<ellipse fill="none" stroke="black" cx="529.3" cy="-955" rx="27" ry="18"/>
<text text-anchor="middle" x="529.3" y="-949" font-family="Times New Roman,serif" font-size="15.00">seq</text>
</g>
<!-- 2787266503328&#45;&#45;2787266504960 -->
<g id="edge35" class="edge">
<title>2787266503328&#45;&#45;2787266504960</title>
<path fill="none" stroke="black" d="M242.41,-972.4C301.36,-968.81 443.34,-960.17 502.13,-956.59"/>
</g>
<!-- 2787266501552 -->
<g id="node10" class="node">
<title>2787266501552</title>
<ellipse fill="none" stroke="black" cx="918.79" cy="-1036" rx="27" ry="18"/>
<text text-anchor="middle" x="918.79" y="-1030" font-family="Times New Roman,serif" font-size="15.00">xor</text>
</g>
<!-- 2787266504960&#45;&#45;2787266501552 -->
<g id="edge13" class="edge">
<title>2787266504960&#45;&#45;2787266501552</title>
<path fill="none" stroke="black" d="M555.43,-960.25C625.45,-974.89 822.22,-1016.02 892.47,-1030.71"/>
</g>
<!-- 2787266502416 -->
<g id="node17" class="node">
<title>2787266502416</title>
<ellipse fill="none" stroke="black" cx="918.79" cy="-955" rx="45.21" ry="18"/>
<text text-anchor="middle" x="918.79" y="-949" font-family="Times New Roman,serif" font-size="15.00">xor loop</text>
</g>
<!-- 2787266504960&#45;&#45;2787266502416 -->
<g id="edge34" class="edge">
<title>2787266504960&#45;&#45;2787266502416</title>
<path fill="none" stroke="black" d="M556.63,-955C621.96,-955 792.05,-955 873.31,-955"/>
</g>
<!-- 2787266510528 -->
<g id="node11" class="node">
<title>2787266510528</title>
<ellipse fill="black" stroke="black" cx="1354.86" cy="-1102" rx="2.7" ry="2.7"/>
</g>
<!-- 2787266501552&#45;&#45;2787266510528 -->
<g id="edge7" class="edge">
<title>2787266501552&#45;&#45;2787266510528</title>
<path fill="none" stroke="black" d="M945.65,-1039.93C1034.71,-1053.47 1324.83,-1097.59 1351.84,-1101.69"/>
</g>
<!-- 2787266505392 -->
<g id="node12" class="node">
<title>2787266505392</title>
<ellipse fill="none" stroke="black" cx="1354.86" cy="-1063" rx="27" ry="18"/>
<text text-anchor="middle" x="1354.86" y="-1057" font-family="Times New Roman,serif" font-size="15.00">seq</text>
</g>
<!-- 2787266501552&#45;&#45;2787266505392 -->
<g id="edge11" class="edge">
<title>2787266501552&#45;&#45;2787266505392</title>
<path fill="none" stroke="black" d="M945.97,-1037.63C1023.32,-1042.44 1250.26,-1056.56 1327.65,-1061.37"/>
</g>
<!-- 2787266506736 -->
<g id="node16" class="node">
<title>2787266506736</title>
<ellipse fill="none" stroke="black" cx="1354.86" cy="-1009" rx="199.78" ry="18"/>
<text text-anchor="middle" x="1354.86" y="-1003" font-family="Times New Roman,serif" font-size="15.00">No permit required or only notification needed</text>
</g>
<!-- 2787266501552&#45;&#45;2787266506736 -->
<g id="edge12" class="edge">
<title>2787266501552&#45;&#45;2787266506736</title>
<path fill="none" stroke="black" d="M945.97,-1034.37C993.49,-1031.42 1097.46,-1024.95 1188.54,-1019.28"/>
</g>
<!-- 2787266502032 -->
<g id="node13" class="node">
<title>2787266502032</title>
<ellipse fill="none" stroke="black" cx="1807.81" cy="-1144" rx="116.86" ry="18"/>
<text text-anchor="middle" x="1807.81" y="-1138" font-family="Times New Roman,serif" font-size="15.00">Applicant is a stakeholder</text>
</g>
<!-- 2787266505392&#45;&#45;2787266502032 -->
<g id="edge8" class="edge">
<title>2787266505392&#45;&#45;2787266502032</title>
<path fill="none" stroke="black" d="M1381.39,-1067.59C1447.54,-1079.47 1626.48,-1111.61 1730,-1130.2"/>
</g>
<!-- 2787266500352 -->
<g id="node14" class="node">
<title>2787266500352</title>
<ellipse fill="none" stroke="black" cx="1807.81" cy="-1090" rx="70.8" ry="18"/>
<text text-anchor="middle" x="1807.81" y="-1084" font-family="Times New Roman,serif" font-size="15.00">End on request</text>
</g>
<!-- 2787266505392&#45;&#45;2787266500352 -->
<g id="edge9" class="edge">
<title>2787266505392&#45;&#45;2787266500352</title>
<path fill="none" stroke="black" d="M1382.05,-1064.57C1450.57,-1068.67 1636.81,-1079.82 1738.42,-1085.91"/>
</g>
<!-- 2787266497568 -->
<g id="node15" class="node">
<title>2787266497568</title>
<ellipse fill="none" stroke="black" cx="1807.81" cy="-1036" rx="129.15" ry="18"/>
<text text-anchor="middle" x="1807.81" y="-1030" font-family="Times New Roman,serif" font-size="15.00">Compute provisional charges</text>
</g>
<!-- 2787266505392&#45;&#45;2787266497568 -->
<g id="edge10" class="edge">
<title>2787266505392&#45;&#45;2787266497568</title>
<path fill="none" stroke="black" d="M1382.05,-1061.43C1440.42,-1057.94 1584.21,-1049.33 1688.35,-1043.09"/>
</g>
<!-- 2787266505296 -->
<g id="node18" class="node">
<title>2787266505296</title>
<ellipse fill="none" stroke="black" cx="1354.86" cy="-955" rx="27" ry="18"/>
<text text-anchor="middle" x="1354.86" y="-949" font-family="Times New Roman,serif" font-size="15.00">seq</text>
</g>
<!-- 2787266502416&#45;&#45;2787266505296 -->
<g id="edge32" class="edge">
<title>2787266502416&#45;&#45;2787266505296</title>
<path fill="none" stroke="black" d="M964.21,-955C1054.09,-955 1255.14,-955 1327.38,-955"/>
</g>
<!-- 2787266501072 -->
<g id="node37" class="node">
<title>2787266501072</title>
<ellipse fill="black" stroke="black" cx="1354.86" cy="-916" rx="2.7" ry="2.7"/>
</g>
<!-- 2787266502416&#45;&#45;2787266501072 -->
<g id="edge33" class="edge">
<title>2787266502416&#45;&#45;2787266501072</title>
<path fill="none" stroke="black" d="M963.4,-951.08C1067.88,-941.69 1325.82,-918.52 1351.75,-916.19"/>
</g>
<!-- 2787266504576 -->
<g id="node19" class="node">
<title>2787266504576</title>
<ellipse fill="none" stroke="black" cx="1807.81" cy="-982" rx="27" ry="18"/>
<text text-anchor="middle" x="1807.81" y="-976" font-family="Times New Roman,serif" font-size="15.00">xor</text>
</g>
<!-- 2787266505296&#45;&#45;2787266504576 -->
<g id="edge18" class="edge">
<title>2787266505296&#45;&#45;2787266504576</title>
<path fill="none" stroke="black" d="M1382.05,-956.57C1461.75,-961.34 1700.74,-975.65 1780.54,-980.43"/>
</g>
<!-- 2787266504432 -->
<g id="node24" class="node">
<title>2787266504432</title>
<ellipse fill="none" stroke="black" cx="1807.81" cy="-928" rx="27" ry="18"/>
<text text-anchor="middle" x="1807.81" y="-922" font-family="Times New Roman,serif" font-size="15.00">xor</text>
</g>
<!-- 2787266505296&#45;&#45;2787266504432 -->
<g id="edge21" class="edge">
<title>2787266505296&#45;&#45;2787266504432</title>
<path fill="none" stroke="black" d="M1382.05,-953.43C1461.75,-948.66 1700.74,-934.35 1780.54,-929.57"/>
</g>
<!-- 2787266497328 -->
<g id="node27" class="node">
<title>2787266497328</title>
<ellipse fill="none" stroke="black" cx="1807.81" cy="-865" rx="27" ry="18"/>
<text text-anchor="middle" x="1807.81" y="-859" font-family="Times New Roman,serif" font-size="15.00">xor</text>
</g>
<!-- 2787266505296&#45;&#45;2787266497328 -->
<g id="edge31" class="edge">
<title>2787266505296&#45;&#45;2787266497328</title>
<path fill="none" stroke="black" d="M1381.07,-949.97C1460.08,-934.2 1702.34,-885.85 1781.5,-870.05"/>
</g>
<!-- 2787266495360 -->
<g id="node20" class="node">
<title>2787266495360</title>
<ellipse fill="none" stroke="black" cx="2208.05" cy="-1036" rx="131.19" ry="18"/>
<text text-anchor="middle" x="2208.05" y="-1030" font-family="Times New Roman,serif" font-size="15.00">Dispatch confirmation receipt</text>
</g>
<!-- 2787266504576&#45;&#45;2787266495360 -->
<g id="edge14" class="edge">
<title>2787266504576&#45;&#45;2787266495360</title>
<path fill="none" stroke="black" d="M1834.63,-985.5C1889.87,-992.99 2021.88,-1010.89 2112.91,-1023.23"/>
</g>
<!-- 2787266431024 -->
<g id="node21" class="node">
<title>2787266431024</title>
<ellipse fill="none" stroke="black" cx="2208.05" cy="-982" rx="27" ry="18"/>
<text text-anchor="middle" x="2208.05" y="-976" font-family="Times New Roman,serif" font-size="15.00">seq</text>
</g>
<!-- 2787266504576&#45;&#45;2787266431024 -->
<g id="edge17" class="edge">
<title>2787266504576&#45;&#45;2787266431024</title>
<path fill="none" stroke="black" d="M1835.25,-982C1907.6,-982 2108.28,-982 2180.62,-982"/>
</g>
<!-- 2787266439040 -->
<g id="node22" class="node">
<title>2787266439040</title>
<ellipse fill="none" stroke="black" cx="2527.93" cy="-1012" rx="136.82" ry="18"/>
<text text-anchor="middle" x="2527.93" y="-1006" font-family="Times New Roman,serif" font-size="15.00">Send to the competent authority</text>
</g>
<!-- 2787266431024&#45;&#45;2787266439040 -->
<g id="edge15" class="edge">
<title>2787266431024&#45;&#45;2787266439040</title>
<path fill="none" stroke="black" d="M2235.06,-984.46C2274.21,-988.15 2350.58,-995.36 2415.39,-1001.47"/>
</g>
<!-- 2787266431696 -->
<g id="node23" class="node">
<title>2787266431696</title>
<ellipse fill="none" stroke="black" cx="2527.93" cy="-958" rx="116.35" ry="18"/>
<text text-anchor="middle" x="2527.93" y="-952" font-family="Times New Roman,serif" font-size="15.00">Notify BAG administrator</text>
</g>
<!-- 2787266431024&#45;&#45;2787266431696 -->
<g id="edge16" class="edge">
<title>2787266431024&#45;&#45;2787266431696</title>
<path fill="none" stroke="black" d="M2235.33,-980.02C2276.01,-976.94 2356.44,-970.87 2422.54,-965.88"/>
</g>
<!-- 2787266440672 -->
<g id="node25" class="node">
<title>2787266440672</title>
<ellipse fill="black" stroke="black" cx="2208.05" cy="-943" rx="2.7" ry="2.7"/>
</g>
<!-- 2787266504432&#45;&#45;2787266440672 -->
<g id="edge19" class="edge">
<title>2787266504432&#45;&#45;2787266440672</title>
<path fill="none" stroke="black" d="M1835.25,-929C1919.68,-932.18 2178.82,-941.94 2204.92,-942.92"/>
</g>
<!-- 2787266429488 -->
<g id="node26" class="node">
<title>2787266429488</title>
<ellipse fill="none" stroke="black" cx="2208.05" cy="-904" rx="147.06" ry="18"/>
<text text-anchor="middle" x="2208.05" y="-898" font-family="Times New Roman,serif" font-size="15.00">Standard procedure without MER</text>
</g>
<!-- 2787266504432&#45;&#45;2787266429488 -->
<g id="edge20" class="edge">
<title>2787266504432&#45;&#45;2787266429488</title>
<path fill="none" stroke="black" d="M1834.94,-926.43C1883.04,-923.53 1988.61,-917.16 2075.06,-911.95"/>
</g>
<!-- 2787266429296 -->
<g id="node28" class="node">
<title>2787266429296</title>
<ellipse fill="black" stroke="black" cx="2208.05" cy="-865" rx="2.7" ry="2.7"/>
</g>
<!-- 2787266497328&#45;&#45;2787266429296 -->
<g id="edge22" class="edge">
<title>2787266497328&#45;&#45;2787266429296</title>
<path fill="none" stroke="black" d="M1835.25,-865C1919.68,-865 2178.82,-865 2204.92,-865"/>
</g>
<!-- 2787266438176 -->
<g id="node29" class="node">
<title>2787266438176</title>
<ellipse fill="none" stroke="black" cx="2208.05" cy="-826" rx="27" ry="18"/>
<text text-anchor="middle" x="2208.05" y="-820" font-family="Times New Roman,serif" font-size="15.00">seq</text>
</g>
<!-- 2787266497328&#45;&#45;2787266438176 -->
<g id="edge30" class="edge">
<title>2787266497328&#45;&#45;2787266438176</title>
<path fill="none" stroke="black" d="M1834.94,-862.44C1907.1,-855.37 2108.55,-835.65 2180.82,-828.57"/>
</g>
<!-- 2787266438464 -->
<g id="node30" class="node">
<title>2787266438464</title>
<ellipse fill="none" stroke="black" cx="2527.93" cy="-880" rx="27" ry="18"/>
<text text-anchor="middle" x="2527.93" y="-874" font-family="Times New Roman,serif" font-size="15.00">xor</text>
</g>
<!-- 2787266438176&#45;&#45;2787266438464 -->
<g id="edge27" class="edge">
<title>2787266438176&#45;&#45;2787266438464</title>
<path fill="none" stroke="black" d="M2234.52,-830.33C2294.04,-840.44 2441.69,-865.52 2501.33,-875.65"/>
</g>
<!-- 2787266431984 -->
<g id="node35" class="node">
<title>2787266431984</title>
<ellipse fill="none" stroke="black" cx="2527.93" cy="-826" rx="118.91" ry="18"/>
<text text-anchor="middle" x="2527.93" y="-820" font-family="Times New Roman,serif" font-size="15.00">Stage application received</text>
</g>
<!-- 2787266438176&#45;&#45;2787266431984 -->
<g id="edge28" class="edge">
<title>2787266438176&#45;&#45;2787266431984</title>
<path fill="none" stroke="black" d="M2235.33,-826C2273.19,-826 2345.46,-826 2408.58,-826"/>
</g>
<!-- 2787266442688 -->
<g id="node36" class="node">
<title>2787266442688</title>
<ellipse fill="none" stroke="black" cx="2527.93" cy="-772" rx="108.16" ry="18"/>
<text text-anchor="middle" x="2527.93" y="-766" font-family="Times New Roman,serif" font-size="15.00">Begin WABOprocedure</text>
</g>
<!-- 2787266438176&#45;&#45;2787266442688 -->
<g id="edge29" class="edge">
<title>2787266438176&#45;&#45;2787266442688</title>
<path fill="none" stroke="black" d="M2234.52,-821.67C2280.86,-813.8 2380.6,-796.86 2450.65,-784.96"/>
</g>
<!-- 2787266432416 -->
<g id="node31" class="node">
<title>2787266432416</title>
<ellipse fill="black" stroke="black" cx="2727.75" cy="-899" rx="2.7" ry="2.7"/>
</g>
<!-- 2787266438464&#45;&#45;2787266432416 -->
<g id="edge23" class="edge">
<title>2787266438464&#45;&#45;2787266432416</title>
<path fill="none" stroke="black" d="M2554.79,-882.48C2604.22,-887.23 2708.66,-897.26 2724.67,-898.8"/>
</g>
<!-- 2787266433520 -->
<g id="node32" class="node">
<title>2787266433520</title>
<ellipse fill="none" stroke="black" cx="2727.75" cy="-860" rx="27" ry="18"/>
<text text-anchor="middle" x="2727.75" y="-854" font-family="Times New Roman,serif" font-size="15.00">seq</text>
</g>
<!-- 2787266438464&#45;&#45;2787266433520 -->
<g id="edge26" class="edge">
<title>2787266438464&#45;&#45;2787266433520</title>
<path fill="none" stroke="black" d="M2554.79,-877.39C2592.6,-873.56 2662.58,-866.49 2700.57,-862.65"/>
</g>
<!-- 2787266432128 -->
<g id="node33" class="node">
<title>2787266432128</title>
<ellipse fill="none" stroke="black" cx="2935.25" cy="-887" rx="144.5" ry="18"/>
<text text-anchor="middle" x="2935.25" y="-881" font-family="Times New Roman,serif" font-size="15.00">Generate procedure confirmation</text>
</g>
<!-- 2787266433520&#45;&#45;2787266432128 -->
<g id="edge24" class="edge">
<title>2787266433520&#45;&#45;2787266432128</title>
<path fill="none" stroke="black" d="M2754.36,-863.36C2774.7,-866.04 2804.53,-869.96 2834.08,-873.84"/>
</g>
<!-- 2787266429344 -->
<g id="node34" class="node">
<title>2787266429344</title>
<ellipse fill="none" stroke="black" cx="2935.25" cy="-833" rx="43.16" ry="18"/>
<text text-anchor="middle" x="2935.25" y="-827" font-family="Times New Roman,serif" font-size="15.00">Release</text>
</g>
<!-- 2787266433520&#45;&#45;2787266429344 -->
<g id="edge25" class="edge">
<title>2787266433520&#45;&#45;2787266429344</title>
<path fill="none" stroke="black" d="M2754.36,-856.64C2789.33,-852.04 2852.39,-843.76 2893.79,-838.32"/>
</g>
<!-- 2787266507456 -->
<g id="node39" class="node">
<title>2787266507456</title>
<ellipse fill="black" stroke="black" cx="529.3" cy="-916" rx="2.7" ry="2.7"/>
</g>
<!-- 2787266502896&#45;&#45;2787266507456 -->
<g id="edge37" class="edge">
<title>2787266502896&#45;&#45;2787266507456</title>
<path fill="none" stroke="black" d="M242.41,-916C313.57,-916 505.67,-916 526.47,-916"/>
</g>
<!-- 2787266503952 -->
<g id="node40" class="node">
<title>2787266503952</title>
<ellipse fill="none" stroke="black" cx="529.3" cy="-877" rx="153.2" ry="18"/>
<text text-anchor="middle" x="529.3" y="-871" font-family="Times New Roman,serif" font-size="15.00">Record senddate acknowledgement</text>
</g>
<!-- 2787266502896&#45;&#45;2787266503952 -->
<g id="edge38" class="edge">
<title>2787266502896&#45;&#45;2787266503952</title>
<path fill="none" stroke="black" d="M241.87,-912.78C281.1,-907.88 357.96,-898.28 422.19,-890.25"/>
</g>
<!-- 2787266498192 -->
<g id="node42" class="node">
<title>2787266498192</title>
<ellipse fill="black" stroke="black" cx="529.3" cy="-805" rx="2.7" ry="2.7"/>
</g>
<!-- 2787266509376&#45;&#45;2787266498192 -->
<g id="edge40" class="edge">
<title>2787266509376&#45;&#45;2787266498192</title>
<path fill="none" stroke="black" d="M240.29,-719.22C309.65,-739.88 505.25,-798.13 526.44,-804.44"/>
</g>
<!-- 2787266506064 -->
<g id="node43" class="node">
<title>2787266506064</title>
<ellipse fill="none" stroke="black" cx="529.3" cy="-766" rx="27" ry="18"/>
<text text-anchor="middle" x="529.3" y="-760" font-family="Times New Roman,serif" font-size="15.00">seq</text>
</g>
<!-- 2787266509376&#45;&#45;2787266506064 -->
<g id="edge45" class="edge">
<title>2787266509376&#45;&#45;2787266506064</title>
<path fill="none" stroke="black" d="M241.6,-716.42C300.3,-726.57 444.22,-751.46 502.84,-761.6"/>
</g>
<!-- 2787266504384 -->
<g id="node48" class="node">
<title>2787266504384</title>
<ellipse fill="none" stroke="black" cx="529.3" cy="-658" rx="27" ry="18"/>
<text text-anchor="middle" x="529.3" y="-652" font-family="Times New Roman,serif" font-size="15.00">seq</text>
</g>
<!-- 2787266509376&#45;&#45;2787266504384 -->
<g id="edge49" class="edge">
<title>2787266509376&#45;&#45;2787266504384</title>
<path fill="none" stroke="black" d="M241.6,-707.58C300.3,-697.43 444.22,-672.54 502.84,-662.4"/>
</g>
<!-- 2787266506592 -->
<g id="node52" class="node">
<title>2787266506592</title>
<ellipse fill="none" stroke="black" cx="529.3" cy="-523" rx="27" ry="18"/>
<text text-anchor="middle" x="529.3" y="-517" font-family="Times New Roman,serif" font-size="15.00">seq</text>
</g>
<!-- 2787266509376&#45;&#45;2787266506592 -->
<g id="edge52" class="edge">
<title>2787266509376&#45;&#45;2787266506592</title>
<path fill="none" stroke="black" d="M235.58,-700.18C291.66,-666.24 452.71,-568.75 508.78,-534.82"/>
</g>
<!-- 2787266503376 -->
<g id="node55" class="node">
<title>2787266503376</title>
<ellipse fill="none" stroke="black" cx="529.3" cy="-253" rx="27" ry="18"/>
<text text-anchor="middle" x="529.3" y="-247" font-family="Times New Roman,serif" font-size="15.00">seq</text>
</g>
<!-- 2787266509376&#45;&#45;2787266503376 -->
<g id="edge70" class="edge">
<title>2787266509376&#45;&#45;2787266503376</title>
<path fill="none" stroke="black" d="M227.17,-695.66C275.73,-624.28 469.03,-340.14 517.32,-269.14"/>
</g>
<!-- 2787266503184 -->
<g id="node44" class="node">
<title>2787266503184</title>
<ellipse fill="none" stroke="black" cx="918.79" cy="-901" rx="174.7" ry="18"/>
<text text-anchor="middle" x="918.79" y="-895" font-family="Times New Roman,serif" font-size="15.00">send confirmation to competent authority</text>
</g>
<!-- 2787266506064&#45;&#45;2787266503184 -->
<g id="edge41" class="edge">
<title>2787266506064&#45;&#45;2787266503184</title>
<path fill="none" stroke="black" d="M553.67,-774.14C615.19,-795.58 782.73,-853.94 867.39,-883.44"/>
</g>
<!-- 2787266497280 -->
<g id="node45" class="node">
<title>2787266497280</title>
<ellipse fill="none" stroke="black" cx="918.79" cy="-847" rx="156.27" ry="18"/>
<text text-anchor="middle" x="918.79" y="-841" font-family="Times New Roman,serif" font-size="15.00">message change competent authority</text>
</g>
<!-- 2787266506064&#45;&#45;2787266497280 -->
<g id="edge42" class="edge">
<title>2787266506064&#45;&#45;2787266497280</title>
<path fill="none" stroke="black" d="M555.43,-771.25C612.28,-783.14 752.71,-812.49 841.11,-830.97"/>
</g>
<!-- 2787266498864 -->
<g id="node46" class="node">
<title>2787266498864</title>
<ellipse fill="none" stroke="black" cx="918.79" cy="-793" rx="200.29" ry="18"/>
<text text-anchor="middle" x="918.79" y="-787" font-family="Times New Roman,serif" font-size="15.00">submit request towards the competent authority</text>
</g>
<!-- 2787266506064&#45;&#45;2787266498864 -->
<g id="edge43" class="edge">
<title>2787266506064&#45;&#45;2787266498864</title>
<path fill="none" stroke="black" d="M556.63,-767.83C598.2,-770.73 682.17,-776.58 758.69,-781.91"/>
</g>
<!-- 2787266438992 -->
<g id="node47" class="node">
<title>2787266438992</title>
<ellipse fill="none" stroke="black" cx="918.79" cy="-739" rx="176.23" ry="18"/>
<text text-anchor="middle" x="918.79" y="-733" font-family="Times New Roman,serif" font-size="15.00">log the senddate for letter to the authority</text>
</g>
<!-- 2787266506064&#45;&#45;2787266438992 -->
<g id="edge44" class="edge">
<title>2787266506064&#45;&#45;2787266438992</title>
<path fill="none" stroke="black" d="M556.63,-764.17C600.58,-761.1 691.94,-754.74 771.78,-749.17"/>
</g>
<!-- 2787266435824 -->
<g id="node49" class="node">
<title>2787266435824</title>
<ellipse fill="none" stroke="black" cx="918.79" cy="-685" rx="69.78" ry="18"/>
<text text-anchor="middle" x="918.79" y="-679" font-family="Times New Roman,serif" font-size="15.00">MER included</text>
</g>
<!-- 2787266504384&#45;&#45;2787266435824 -->
<g id="edge46" class="edge">
<title>2787266504384&#45;&#45;2787266435824</title>
<path fill="none" stroke="black" d="M556.63,-659.83C616.42,-664 763.97,-674.28 850.85,-680.34"/>
</g>
<!-- 2787266435872 -->
<g id="node50" class="node">
<title>2787266435872</title>
<ellipse fill="none" stroke="black" cx="918.79" cy="-631" rx="126.08" ry="18"/>
<text text-anchor="middle" x="918.79" y="-625" font-family="Times New Roman,serif" font-size="15.00">Regular procedure activities</text>
</g>
<!-- 2787266504384&#45;&#45;2787266435872 -->
<g id="edge47" class="edge">
<title>2787266504384&#45;&#45;2787266435872</title>
<path fill="none" stroke="black" d="M556.63,-656.17C606.71,-652.68 718.36,-644.9 804.36,-638.9"/>
</g>
<!-- 2787266431312 -->
<g id="node51" class="node">
<title>2787266431312</title>
<ellipse fill="none" stroke="black" cx="918.79" cy="-577" rx="87.69" ry="18"/>
<text text-anchor="middle" x="918.79" y="-571" font-family="Times New Roman,serif" font-size="15.00">Phased application</text>
</g>
<!-- 2787266504384&#45;&#45;2787266431312 -->
<g id="edge48" class="edge">
<title>2787266504384&#45;&#45;2787266431312</title>
<path fill="none" stroke="black" d="M555.43,-652.75C615.64,-640.16 769.57,-607.99 856.19,-589.88"/>
</g>
<!-- 2787266434048 -->
<g id="node53" class="node">
<title>2787266434048</title>
<ellipse fill="none" stroke="black" cx="918.79" cy="-523" rx="143.99" ry="18"/>
<text text-anchor="middle" x="918.79" y="-517" font-family="Times New Roman,serif" font-size="15.00">Dispatch procedure confirmation</text>
</g>
<!-- 2787266506592&#45;&#45;2787266434048 -->
<g id="edge50" class="edge">
<title>2787266506592&#45;&#45;2787266434048</title>
<path fill="none" stroke="black" d="M556.63,-523C601.09,-523 694.08,-523 774.56,-523"/>
</g>
<!-- 2787266438944 -->
<g id="node54" class="node">
<title>2787266438944</title>
<ellipse fill="none" stroke="black" cx="918.79" cy="-469" rx="175.72" ry="18"/>
<text text-anchor="middle" x="918.79" y="-463" font-family="Times New Roman,serif" font-size="15.00">Record senddate procedure confirmation</text>
</g>
<!-- 2787266506592&#45;&#45;2787266438944 -->
<g id="edge51" class="edge">
<title>2787266506592&#45;&#45;2787266438944</title>
<path fill="none" stroke="black" d="M556.03,-519.42C607.33,-512.27 724.93,-495.88 812.2,-483.72"/>
</g>
<!-- 2787266440336 -->
<g id="node56" class="node">
<title>2787266440336</title>
<ellipse fill="none" stroke="black" cx="918.79" cy="-415" rx="27" ry="18"/>
<text text-anchor="middle" x="918.79" y="-409" font-family="Times New Roman,serif" font-size="15.00">xor</text>
</g>
<!-- 2787266503376&#45;&#45;2787266440336 -->
<g id="edge60" class="edge">
<title>2787266503376&#45;&#45;2787266440336</title>
<path fill="none" stroke="black" d="M552.81,-262.41C621.3,-291.04 826.66,-376.9 895.22,-405.56"/>
</g>
<!-- 2787266443120 -->
<g id="node64" class="node">
<title>2787266443120</title>
<ellipse fill="none" stroke="black" cx="918.79" cy="-361" rx="173.67" ry="18"/>
<text text-anchor="middle" x="918.79" y="-355" font-family="Times New Roman,serif" font-size="15.00">Prematurely terminated phase procedure</text>
</g>
<!-- 2787266503376&#45;&#45;2787266443120 -->
<g id="edge61" class="edge">
<title>2787266503376&#45;&#45;2787266443120</title>
<path fill="none" stroke="black" d="M554.84,-259.84C614.56,-276.48 768.98,-319.52 855.93,-343.76"/>
</g>
<!-- 2787266442496 -->
<g id="node65" class="node">
<title>2787266442496</title>
<ellipse fill="none" stroke="black" cx="918.79" cy="-307" rx="163.44" ry="18"/>
<text text-anchor="middle" x="918.79" y="-301" font-family="Times New Roman,serif" font-size="15.00">Log date termination request received</text>
</g>
<!-- 2787266503376&#45;&#45;2787266442496 -->
<g id="edge62" class="edge">
<title>2787266503376&#45;&#45;2787266442496</title>
<path fill="none" stroke="black" d="M556.03,-256.58C607.92,-263.82 727.65,-280.5 815.21,-292.7"/>
</g>
<!-- 2787266433472 -->
<g id="node66" class="node">
<title>2787266433472</title>
<ellipse fill="none" stroke="black" cx="918.79" cy="-253" rx="158.32" ry="18"/>
<text text-anchor="middle" x="918.79" y="-247" font-family="Times New Roman,serif" font-size="15.00">Record senddate termination request</text>
</g>
<!-- 2787266503376&#45;&#45;2787266433472 -->
<g id="edge63" class="edge">
<title>2787266503376&#45;&#45;2787266433472</title>
<path fill="none" stroke="black" d="M556.63,-253C598.45,-253 683.2,-253 760.1,-253"/>
</g>
<!-- 2787266434624 -->
<g id="node67" class="node">
<title>2787266434624</title>
<ellipse fill="none" stroke="black" cx="918.79" cy="-199" rx="119.93" ry="18"/>
<text text-anchor="middle" x="918.79" y="-193" font-family="Times New Roman,serif" font-size="15.00">Terminate request message</text>
</g>
<!-- 2787266503376&#45;&#45;2787266434624 -->
<g id="edge64" class="edge">
<title>2787266503376&#45;&#45;2787266434624</title>
<path fill="none" stroke="black" d="M556.03,-249.42C610.8,-241.78 741.12,-223.62 829.44,-211.31"/>
</g>
<!-- 2787266429920 -->
<g id="node68" class="node">
<title>2787266429920</title>
<ellipse fill="none" stroke="black" cx="918.79" cy="-145" rx="63.63" ry="18"/>
<text text-anchor="middle" x="918.79" y="-139" font-family="Times New Roman,serif" font-size="15.00">Log deadline</text>
</g>
<!-- 2787266503376&#45;&#45;2787266429920 -->
<g id="edge65" class="edge">
<title>2787266503376&#45;&#45;2787266429920</title>
<path fill="none" stroke="black" d="M554.84,-246.16C618.56,-228.4 790.05,-180.61 872.42,-157.65"/>
</g>
<!-- 2787266434384 -->
<g id="node69" class="node">
<title>2787266434384</title>
<ellipse fill="none" stroke="black" cx="918.79" cy="-91" rx="119.42" ry="18"/>
<text text-anchor="middle" x="918.79" y="-85" font-family="Times New Roman,serif" font-size="15.00">Phase procedure cancelled</text>
</g>
<!-- 2787266503376&#45;&#45;2787266434384 -->
<g id="edge66" class="edge">
<title>2787266503376&#45;&#45;2787266434384</title>
<path fill="none" stroke="black" d="M552.81,-243.59C615.89,-217.22 795.06,-142.31 876.54,-108.25"/>
</g>
<!-- 2787266431360 -->
<g id="node70" class="node">
<title>2787266431360</title>
<ellipse fill="none" stroke="black" cx="918.79" cy="-37" rx="27" ry="18"/>
<text text-anchor="middle" x="918.79" y="-31" font-family="Times New Roman,serif" font-size="15.00">xor</text>
</g>
<!-- 2787266503376&#45;&#45;2787266431360 -->
<g id="edge69" class="edge">
<title>2787266503376&#45;&#45;2787266431360</title>
<path fill="none" stroke="black" d="M550.86,-241.54C617.99,-204.12 830.23,-85.81 897.28,-48.43"/>
</g>
<!-- 2787266444032 -->
<g id="node57" class="node">
<title>2787266444032</title>
<ellipse fill="none" stroke="black" cx="1354.86" cy="-442" rx="27" ry="18"/>
<text text-anchor="middle" x="1354.86" y="-436" font-family="Times New Roman,serif" font-size="15.00">seq</text>
</g>
<!-- 2787266440336&#45;&#45;2787266444032 -->
<g id="edge56" class="edge">
<title>2787266440336&#45;&#45;2787266444032</title>
<path fill="none" stroke="black" d="M945.97,-416.63C1023.32,-421.44 1250.26,-435.56 1327.65,-440.37"/>
</g>
<!-- 2787266436688 -->
<g id="node61" class="node">
<title>2787266436688</title>
<ellipse fill="none" stroke="black" cx="1354.86" cy="-361" rx="27" ry="18"/>
<text text-anchor="middle" x="1354.86" y="-355" font-family="Times New Roman,serif" font-size="15.00">seq</text>
</g>
<!-- 2787266440336&#45;&#45;2787266436688 -->
<g id="edge59" class="edge">
<title>2787266440336&#45;&#45;2787266436688</title>
<path fill="none" stroke="black" d="M945.65,-411.78C1022.76,-402.19 1250.57,-373.85 1327.87,-364.23"/>
</g>
<!-- 2787266430016 -->
<g id="node58" class="node">
<title>2787266430016</title>
<ellipse fill="none" stroke="black" cx="1807.81" cy="-523" rx="130.68" ry="18"/>
<text text-anchor="middle" x="1807.81" y="-517" font-family="Times New Roman,serif" font-size="15.00">Competent authority initiative</text>
</g>
<!-- 2787266444032&#45;&#45;2787266430016 -->
<g id="edge53" class="edge">
<title>2787266444032&#45;&#45;2787266430016</title>
<path fill="none" stroke="black" d="M1381.39,-446.59C1446.79,-458.33 1622.46,-489.89 1726.47,-508.57"/>
</g>
<!-- 2787266435968 -->
<g id="node59" class="node">
<title>2787266435968</title>
<ellipse fill="none" stroke="black" cx="1807.81" cy="-469" rx="145.52" ry="18"/>
<text text-anchor="middle" x="1807.81" y="-463" font-family="Times New Roman,serif" font-size="15.00">Create terminate request message</text>
</g>
<!-- 2787266444032&#45;&#45;2787266435968 -->
<g id="edge54" class="edge">
<title>2787266444032&#45;&#45;2787266435968</title>
<path fill="none" stroke="black" d="M1382.05,-443.57C1438.12,-446.93 1573,-455 1675.84,-461.16"/>
</g>
<!-- 2787266431648 -->
<g id="node60" class="node">
<title>2787266431648</title>
<ellipse fill="none" stroke="black" cx="1807.81" cy="-415" rx="125.05" ry="18"/>
<text text-anchor="middle" x="1807.81" y="-409" font-family="Times New Roman,serif" font-size="15.00">Check publication date field</text>
</g>
<!-- 2787266444032&#45;&#45;2787266431648 -->
<g id="edge55" class="edge">
<title>2787266444032&#45;&#45;2787266431648</title>
<path fill="none" stroke="black" d="M1382.05,-440.43C1440.98,-436.9 1586.99,-428.16 1691.35,-421.91"/>
</g>
<!-- 2787266434720 -->
<g id="node62" class="node">
<title>2787266434720</title>
<ellipse fill="none" stroke="black" cx="1807.81" cy="-361" rx="205.41" ry="18"/>
<text text-anchor="middle" x="1807.81" y="-355" font-family="Times New Roman,serif" font-size="15.00">draft letter for no permit or notification required</text>
</g>
<!-- 2787266436688&#45;&#45;2787266434720 -->
<g id="edge57" class="edge">
<title>2787266436688&#45;&#45;2787266434720</title>
<path fill="none" stroke="black" d="M1382.05,-361C1425.38,-361 1515.78,-361 1602.1,-361"/>
</g>
<!-- 2787266434576 -->
<g id="node63" class="node">
<title>2787266434576</title>
<ellipse fill="none" stroke="black" cx="1807.81" cy="-307" rx="217.18" ry="18"/>
<text text-anchor="middle" x="1807.81" y="-301" font-family="Times New Roman,serif" font-size="15.00">log senddate letter no permit or notification needed</text>
</g>
<!-- 2787266436688&#45;&#45;2787266434576 -->
<g id="edge58" class="edge">
<title>2787266436688&#45;&#45;2787266434576</title>
<path fill="none" stroke="black" d="M1381.72,-357.9C1438.57,-351.1 1577.58,-334.45 1681.26,-322.03"/>
</g>
<!-- 2787266437888 -->
<g id="node71" class="node">
<title>2787266437888</title>
<ellipse fill="black" stroke="black" cx="1354.86" cy="-57" rx="2.7" ry="2.7"/>
</g>
<!-- 2787266431360&#45;&#45;2787266437888 -->
<g id="edge67" class="edge">
<title>2787266431360&#45;&#45;2787266437888</title>
<path fill="none" stroke="black" d="M945.97,-38.21C1035.41,-42.33 1324.9,-55.67 1351.84,-56.91"/>
</g>
<!-- 2787266433280 -->
<g id="node72" class="node">
<title>2787266433280</title>
<ellipse fill="none" stroke="black" cx="1354.86" cy="-18" rx="69.26" ry="18"/>
<text text-anchor="middle" x="1354.86" y="-12" font-family="Times New Roman,serif" font-size="15.00">Close the case</text>
</g>
<!-- 2787266431360&#45;&#45;2787266433280 -->
<g id="edge68" class="edge">
<title>2787266431360&#45;&#45;2787266433280</title>
<path fill="none" stroke="black" d="M945.97,-35.85C1012.23,-32.95 1188.26,-25.25 1286.02,-20.97"/>
</g>
</g>
</svg>
