<?xml version="1.0" encoding="UTF-8" standalone="no"?>
<!DOCTYPE svg PUBLIC "-//W3C//DTD SVG 1.1//EN"
 "http://www.w3.org/Graphics/SVG/1.1/DTD/svg11.dtd">
<!-- Generated by graphviz version 11.0.0 (20240428.1522)
 -->
<!-- Title: pt Pages: 1 -->
<svg width="2769pt" height="1071pt"
 viewBox="0.00 0.00 2768.97 1071.00" xmlns="http://www.w3.org/2000/svg" xmlns:xlink="http://www.w3.org/1999/xlink">
<g id="graph0" class="graph" transform="scale(1 1) rotate(0) translate(4 1067)">
<title>pt</title>
<polygon fill="white" stroke="none" points="-4,4 -4,-1067 2764.97,-1067 2764.97,4 -4,4"/>
<!-- 2787268236288 -->
<g id="node1" class="node">
<title>2787268236288</title>
<ellipse fill="none" stroke="black" cx="27" cy="-910" rx="27" ry="18"/>
<text text-anchor="middle" x="27" y="-904" font-family="Times New Roman,serif" font-size="15.00">seq</text>
</g>
<!-- 2787268240320 -->
<g id="node2" class="node">
<title>2787268240320</title>
<ellipse fill="none" stroke="black" cx="215.05" cy="-1045" rx="125.05" ry="18"/>
<text text-anchor="middle" x="215.05" y="-1039" font-family="Times New Roman,serif" font-size="15.00">Log submission date request</text>
</g>
<!-- 2787268236288&#45;&#45;2787268240320 -->
<g id="edge1" class="edge">
<title>2787268236288&#45;&#45;2787268240320</title>
<path fill="none" stroke="black" d="M46.18,-923.19C79.74,-947.54 151.44,-999.57 189.36,-1027.08"/>
</g>
<!-- 2787268240416 -->
<g id="node3" class="node">
<title>2787268240416</title>
<ellipse fill="none" stroke="black" cx="215.05" cy="-991" rx="121.47" ry="18"/>
<text text-anchor="middle" x="215.05" y="-985" font-family="Times New Roman,serif" font-size="15.00">OLO communication active</text>
</g>
<!-- 2787268236288&#45;&#45;2787268240416 -->
<g id="edge2" class="edge">
<title>2787268236288&#45;&#45;2787268240416</title>
<path fill="none" stroke="black" d="M50.07,-919.61C80.59,-932.89 136.17,-957.1 174.09,-973.6"/>
</g>
<!-- 2787268239600 -->
<g id="node4" class="node">
<title>2787268239600</title>
<ellipse fill="none" stroke="black" cx="215.05" cy="-937" rx="27" ry="18"/>
<text text-anchor="middle" x="215.05" y="-931" font-family="Times New Roman,serif" font-size="15.00">xor</text>
</g>
<!-- 2787268236288&#45;&#45;2787268239600 -->
<g id="edge5" class="edge">
<title>2787268236288&#45;&#45;2787268239600</title>
<path fill="none" stroke="black" d="M53.87,-913.75C89.42,-918.91 152.97,-928.14 188.4,-933.28"/>
</g>
<!-- 2787267971984 -->
<g id="node7" class="node">
<title>2787267971984</title>
<ellipse fill="none" stroke="black" cx="215.05" cy="-883" rx="27" ry="18"/>
<text text-anchor="middle" x="215.05" y="-877" font-family="Times New Roman,serif" font-size="15.00">xor</text>
</g>
<!-- 2787268236288&#45;&#45;2787267971984 -->
<g id="edge29" class="edge">
<title>2787268236288&#45;&#45;2787267971984</title>
<path fill="none" stroke="black" d="M53.87,-906.25C89.42,-901.09 152.97,-891.86 188.4,-886.72"/>
</g>
<!-- 2787267969104 -->
<g id="node31" class="node">
<title>2787267969104</title>
<ellipse fill="none" stroke="black" cx="215.05" cy="-825" rx="27" ry="18"/>
<text text-anchor="middle" x="215.05" y="-819" font-family="Times New Roman,serif" font-size="15.00">xor</text>
</g>
<!-- 2787268236288&#45;&#45;2787267969104 -->
<g id="edge32" class="edge">
<title>2787268236288&#45;&#45;2787267969104</title>
<path fill="none" stroke="black" d="M49.71,-900.08C85.46,-883.75 156.34,-851.36 192.2,-834.99"/>
</g>
<!-- 2787267976112 -->
<g id="node34" class="node">
<title>2787267976112</title>
<ellipse fill="none" stroke="black" cx="215.05" cy="-598" rx="27" ry="18"/>
<text text-anchor="middle" x="215.05" y="-592" font-family="Times New Roman,serif" font-size="15.00">xor</text>
</g>
<!-- 2787268236288&#45;&#45;2787267976112 -->
<g id="edge71" class="edge">
<title>2787268236288&#45;&#45;2787267976112</title>
<path fill="none" stroke="black" d="M38,-893.23C70.31,-839.05 171.62,-669.15 204,-614.86"/>
</g>
<!-- 2787268139856 -->
<g id="node5" class="node">
<title>2787268139856</title>
<ellipse fill="black" stroke="black" cx="529.3" cy="-981" rx="2.7" ry="2.7"/>
</g>
<!-- 2787268239600&#45;&#45;2787268139856 -->
<g id="edge3" class="edge">
<title>2787268239600&#45;&#45;2787268139856</title>
<path fill="none" stroke="black" d="M241.87,-940.64C312.59,-950.6 505.57,-977.8 526.46,-980.74"/>
</g>
<!-- 2787267975008 -->
<g id="node6" class="node">
<title>2787267975008</title>
<ellipse fill="none" stroke="black" cx="529.3" cy="-942" rx="125.05" ry="18"/>
<text text-anchor="middle" x="529.3" y="-936" font-family="Times New Roman,serif" font-size="15.00">Submit application via OLO</text>
</g>
<!-- 2787268239600&#45;&#45;2787267975008 -->
<g id="edge4" class="edge">
<title>2787268239600&#45;&#45;2787267975008</title>
<path fill="none" stroke="black" d="M242.41,-937.42C278.28,-938 344.89,-939.06 404.8,-940.02"/>
</g>
<!-- 2787267983312 -->
<g id="node8" class="node">
<title>2787267983312</title>
<ellipse fill="black" stroke="black" cx="529.3" cy="-903" rx="2.7" ry="2.7"/>
</g>
<!-- 2787267971984&#45;&#45;2787267983312 -->
<g id="edge6" class="edge">
<title>2787267971984&#45;&#45;2787267983312</title>
<path fill="none" stroke="black" d="M242.41,-884.69C313.57,-889.25 505.67,-901.55 526.47,-902.88"/>
</g>
<!-- 2787267975872 -->
<g id="node9" class="node">
<title>2787267975872</title>
<ellipse fill="none" stroke="black" cx="529.3" cy="-864" rx="27" ry="18"/>
<text text-anchor="middle" x="529.3" y="-858" font-family="Times New Roman,serif" font-size="15.00">seq</text>
</g>
<!-- 2787267971984&#45;&#45;2787267975872 -->
<g id="edge28" class="edge">
<title>2787267971984&#45;&#45;2787267975872</title>
<path fill="none" stroke="black" d="M242.41,-881.4C301.36,-877.81 443.34,-869.17 502.13,-865.59"/>
</g>
<!-- 2787267973616 -->
<g id="node10" class="node">
<title>2787267973616</title>
<ellipse fill="none" stroke="black" cx="918.79" cy="-972" rx="27" ry="18"/>
<text text-anchor="middle" x="918.79" y="-966" font-family="Times New Roman,serif" font-size="15.00">xor</text>
</g>
<!-- 2787267975872&#45;&#45;2787267973616 -->
<g id="edge9" class="edge">
<title>2787267975872&#45;&#45;2787267973616</title>
<path fill="none" stroke="black" d="M554.84,-870.84C624.63,-890.29 823.71,-945.78 893.37,-965.19"/>
</g>
<!-- 2787267971792 -->
<g id="node13" class="node">
<title>2787267971792</title>
<ellipse fill="none" stroke="black" cx="918.79" cy="-864" rx="27" ry="18"/>
<text text-anchor="middle" x="918.79" y="-858" font-family="Times New Roman,serif" font-size="15.00">and</text>
</g>
<!-- 2787267975872&#45;&#45;2787267971792 -->
<g id="edge27" class="edge">
<title>2787267975872&#45;&#45;2787267971792</title>
<path fill="none" stroke="black" d="M556.63,-864C627.32,-864 820.7,-864 891.43,-864"/>
</g>
<!-- 2787267983648 -->
<g id="node11" class="node">
<title>2787267983648</title>
<ellipse fill="black" stroke="black" cx="1354.86" cy="-1011" rx="2.7" ry="2.7"/>
</g>
<!-- 2787267973616&#45;&#45;2787267983648 -->
<g id="edge7" class="edge">
<title>2787267973616&#45;&#45;2787267983648</title>
<path fill="none" stroke="black" d="M945.97,-974.35C1035.41,-982.39 1324.9,-1008.4 1351.84,-1010.82"/>
</g>
<!-- 2787267985040 -->
<g id="node12" class="node">
<title>2787267985040</title>
<ellipse fill="none" stroke="black" cx="1354.86" cy="-972" rx="199.78" ry="18"/>
<text text-anchor="middle" x="1354.86" y="-966" font-family="Times New Roman,serif" font-size="15.00">No permit required or only notification needed</text>
</g>
<!-- 2787267973616&#45;&#45;2787267985040 -->
<g id="edge8" class="edge">
<title>2787267973616&#45;&#45;2787267985040</title>
<path fill="none" stroke="black" d="M946.29,-972C988.12,-972 1073.11,-972 1154.7,-972"/>
</g>
<!-- 2787268239360 -->
<g id="node14" class="node">
<title>2787268239360</title>
<ellipse fill="none" stroke="black" cx="1354.86" cy="-918" rx="118.91" ry="18"/>
<text text-anchor="middle" x="1354.86" y="-912" font-family="Times New Roman,serif" font-size="15.00">Stage application received</text>
</g>
<!-- 2787267971792&#45;&#45;2787268239360 -->
<g id="edge10" class="edge">
<title>2787267971792&#45;&#45;2787268239360</title>
<path fill="none" stroke="black" d="M945.65,-867.22C1006.51,-874.79 1161.28,-894.04 1261.8,-906.55"/>
</g>
<!-- 2787268239312 -->
<g id="node15" class="node">
<title>2787268239312</title>
<ellipse fill="none" stroke="black" cx="1354.86" cy="-864" rx="45.21" ry="18"/>
<text text-anchor="middle" x="1354.86" y="-858" font-family="Times New Roman,serif" font-size="15.00">xor loop</text>
</g>
<!-- 2787267971792&#45;&#45;2787268239312 -->
<g id="edge13" class="edge">
<title>2787267971792&#45;&#45;2787268239312</title>
<path fill="none" stroke="black" d="M946.29,-864C1018.54,-864 1219.53,-864 1309.42,-864"/>
</g>
<!-- 2787267982688 -->
<g id="node18" class="node">
<title>2787267982688</title>
<ellipse fill="none" stroke="black" cx="1354.86" cy="-693" rx="27" ry="18"/>
<text text-anchor="middle" x="1354.86" y="-687" font-family="Times New Roman,serif" font-size="15.00">seq</text>
</g>
<!-- 2787267971792&#45;&#45;2787267982688 -->
<g id="edge26" class="edge">
<title>2787267971792&#45;&#45;2787267982688</title>
<path fill="none" stroke="black" d="M942.52,-855.05C1017.44,-825.53 1256.12,-731.5 1331.09,-701.97"/>
</g>
<!-- 2787268241232 -->
<g id="node16" class="node">
<title>2787268241232</title>
<ellipse fill="none" stroke="black" cx="1807.81" cy="-906" rx="131.19" ry="18"/>
<text text-anchor="middle" x="1807.81" y="-900" font-family="Times New Roman,serif" font-size="15.00">Dispatch confirmation receipt</text>
</g>
<!-- 2787268239312&#45;&#45;2787268241232 -->
<g id="edge11" class="edge">
<title>2787268239312&#45;&#45;2787268241232</title>
<path fill="none" stroke="black" d="M1399.1,-868.03C1467.33,-874.38 1602.05,-886.93 1697.95,-895.86"/>
</g>
<!-- 2787268240704 -->
<g id="node17" class="node">
<title>2787268240704</title>
<ellipse fill="black" stroke="black" cx="1807.81" cy="-867" rx="2.7" ry="2.7"/>
</g>
<!-- 2787268239312&#45;&#45;2787268240704 -->
<g id="edge12" class="edge">
<title>2787268239312&#45;&#45;2787268240704</title>
<path fill="none" stroke="black" d="M1400.33,-864.3C1508.77,-865.02 1779.76,-866.82 1804.93,-866.99"/>
</g>
<!-- 2787268246368 -->
<g id="node19" class="node">
<title>2787268246368</title>
<ellipse fill="none" stroke="black" cx="1807.81" cy="-828" rx="27" ry="18"/>
<text text-anchor="middle" x="1807.81" y="-822" font-family="Times New Roman,serif" font-size="15.00">xor</text>
</g>
<!-- 2787267982688&#45;&#45;2787268246368 -->
<g id="edge19" class="edge">
<title>2787267982688&#45;&#45;2787268246368</title>
<path fill="none" stroke="black" d="M1380.1,-700.26C1458.49,-723.73 1704.55,-797.39 1782.72,-820.79"/>
</g>
<!-- 2787268235424 -->
<g id="node25" class="node">
<title>2787268235424</title>
<ellipse fill="none" stroke="black" cx="1807.81" cy="-774" rx="136.82" ry="18"/>
<text text-anchor="middle" x="1807.81" y="-768" font-family="Times New Roman,serif" font-size="15.00">Send to the competent authority</text>
</g>
<!-- 2787267982688&#45;&#45;2787268235424 -->
<g id="edge20" class="edge">
<title>2787267982688&#45;&#45;2787268235424</title>
<path fill="none" stroke="black" d="M1381.39,-697.59C1446.51,-709.28 1620.96,-740.62 1725.13,-759.33"/>
</g>
<!-- 2787268233744 -->
<g id="node26" class="node">
<title>2787268233744</title>
<ellipse fill="none" stroke="black" cx="1807.81" cy="-720" rx="116.35" ry="18"/>
<text text-anchor="middle" x="1807.81" y="-714" font-family="Times New Roman,serif" font-size="15.00">Notify BAG administrator</text>
</g>
<!-- 2787267982688&#45;&#45;2787268233744 -->
<g id="edge21" class="edge">
<title>2787267982688&#45;&#45;2787268233744</title>
<path fill="none" stroke="black" d="M1382.05,-694.57C1442.39,-698.18 1594.03,-707.26 1698.77,-713.53"/>
</g>
<!-- 2787268236480 -->
<g id="node27" class="node">
<title>2787268236480</title>
<ellipse fill="none" stroke="black" cx="1807.81" cy="-666" rx="147.06" ry="18"/>
<text text-anchor="middle" x="1807.81" y="-660" font-family="Times New Roman,serif" font-size="15.00">Standard procedure without MER</text>
</g>
<!-- 2787267982688&#45;&#45;2787268236480 -->
<g id="edge22" class="edge">
<title>2787267982688&#45;&#45;2787268236480</title>
<path fill="none" stroke="black" d="M1382.05,-691.43C1437.88,-688.09 1571.87,-680.07 1674.55,-673.92"/>
</g>
<!-- 2787268234800 -->
<g id="node28" class="node">
<title>2787268234800</title>
<ellipse fill="none" stroke="black" cx="1807.81" cy="-612" rx="144.5" ry="18"/>
<text text-anchor="middle" x="1807.81" y="-606" font-family="Times New Roman,serif" font-size="15.00">Generate procedure confirmation</text>
</g>
<!-- 2787267982688&#45;&#45;2787268234800 -->
<g id="edge23" class="edge">
<title>2787267982688&#45;&#45;2787268234800</title>
<path fill="none" stroke="black" d="M1381.39,-688.41C1446.14,-676.78 1618.97,-645.74 1723.34,-626.99"/>
</g>
<!-- 2787268242432 -->
<g id="node29" class="node">
<title>2787268242432</title>
<ellipse fill="none" stroke="black" cx="1807.81" cy="-558" rx="43.16" ry="18"/>
<text text-anchor="middle" x="1807.81" y="-552" font-family="Times New Roman,serif" font-size="15.00">Release</text>
</g>
<!-- 2787267982688&#45;&#45;2787268242432 -->
<g id="edge24" class="edge">
<title>2787267982688&#45;&#45;2787268242432</title>
<path fill="none" stroke="black" d="M1380.1,-685.74C1455.2,-663.26 1684.17,-594.71 1772,-568.42"/>
</g>
<!-- 2787268232832 -->
<g id="node30" class="node">
<title>2787268232832</title>
<ellipse fill="none" stroke="black" cx="1807.81" cy="-504" rx="108.16" ry="18"/>
<text text-anchor="middle" x="1807.81" y="-498" font-family="Times New Roman,serif" font-size="15.00">Begin WABOprocedure</text>
</g>
<!-- 2787267982688&#45;&#45;2787268232832 -->
<g id="edge25" class="edge">
<title>2787267982688&#45;&#45;2787268232832</title>
<path fill="none" stroke="black" d="M1378.22,-683.63C1449.75,-653.65 1673.69,-559.79 1766.2,-521.02"/>
</g>
<!-- 2787268240464 -->
<g id="node20" class="node">
<title>2787268240464</title>
<ellipse fill="black" stroke="black" cx="2234.66" cy="-847" rx="2.7" ry="2.7"/>
</g>
<!-- 2787268246368&#45;&#45;2787268240464 -->
<g id="edge14" class="edge">
<title>2787268246368&#45;&#45;2787268240464</title>
<path fill="none" stroke="black" d="M1835.07,-829.17C1923.35,-833.12 2205.44,-845.74 2231.7,-846.91"/>
</g>
<!-- 2787268240560 -->
<g id="node21" class="node">
<title>2787268240560</title>
<ellipse fill="none" stroke="black" cx="2234.66" cy="-808" rx="27" ry="18"/>
<text text-anchor="middle" x="2234.66" y="-802" font-family="Times New Roman,serif" font-size="15.00">seq</text>
</g>
<!-- 2787268246368&#45;&#45;2787268240560 -->
<g id="edge18" class="edge">
<title>2787268246368&#45;&#45;2787268240560</title>
<path fill="none" stroke="black" d="M1835.07,-826.76C1911.14,-823.18 2131.11,-812.83 2207.31,-809.24"/>
</g>
<!-- 2787268244640 -->
<g id="node22" class="node">
<title>2787268244640</title>
<ellipse fill="none" stroke="black" cx="2602.65" cy="-862" rx="116.86" ry="18"/>
<text text-anchor="middle" x="2602.65" y="-856" font-family="Times New Roman,serif" font-size="15.00">Applicant is a stakeholder</text>
</g>
<!-- 2787268240560&#45;&#45;2787268244640 -->
<g id="edge15" class="edge">
<title>2787268240560&#45;&#45;2787268244640</title>
<path fill="none" stroke="black" d="M2261.4,-811.8C2313.63,-819.5 2434.11,-837.28 2516.73,-849.47"/>
</g>
<!-- 2787268233120 -->
<g id="node23" class="node">
<title>2787268233120</title>
<ellipse fill="none" stroke="black" cx="2602.65" cy="-808" rx="70.8" ry="18"/>
<text text-anchor="middle" x="2602.65" y="-802" font-family="Times New Roman,serif" font-size="15.00">End on request</text>
</g>
<!-- 2787268240560&#45;&#45;2787268233120 -->
<g id="edge16" class="edge">
<title>2787268240560&#45;&#45;2787268233120</title>
<path fill="none" stroke="black" d="M2261.98,-808C2317.79,-808 2449.6,-808 2531.64,-808"/>
</g>
<!-- 2787268246272 -->
<g id="node24" class="node">
<title>2787268246272</title>
<ellipse fill="none" stroke="black" cx="2602.65" cy="-754" rx="129.15" ry="18"/>
<text text-anchor="middle" x="2602.65" y="-748" font-family="Times New Roman,serif" font-size="15.00">Compute provisional charges</text>
</g>
<!-- 2787268240560&#45;&#45;2787268246272 -->
<g id="edge17" class="edge">
<title>2787268240560&#45;&#45;2787268246272</title>
<path fill="none" stroke="black" d="M2261.4,-804.2C2312.65,-796.64 2429.63,-779.38 2512.06,-767.22"/>
</g>
<!-- 2787267976784 -->
<g id="node32" class="node">
<title>2787267976784</title>
<ellipse fill="black" stroke="black" cx="529.3" cy="-825" rx="2.7" ry="2.7"/>
</g>
<!-- 2787267969104&#45;&#45;2787267976784 -->
<g id="edge30" class="edge">
<title>2787267969104&#45;&#45;2787267976784</title>
<path fill="none" stroke="black" d="M242.41,-825C313.57,-825 505.67,-825 526.47,-825"/>
</g>
<!-- 2787267975392 -->
<g id="node33" class="node">
<title>2787267975392</title>
<ellipse fill="none" stroke="black" cx="529.3" cy="-786" rx="153.2" ry="18"/>
<text text-anchor="middle" x="529.3" y="-780" font-family="Times New Roman,serif" font-size="15.00">Record senddate acknowledgement</text>
</g>
<!-- 2787267969104&#45;&#45;2787267975392 -->
<g id="edge31" class="edge">
<title>2787267969104&#45;&#45;2787267975392</title>
<path fill="none" stroke="black" d="M241.87,-821.78C281.1,-816.88 357.96,-807.28 422.19,-799.25"/>
</g>
<!-- 2787267971744 -->
<g id="node35" class="node">
<title>2787267971744</title>
<ellipse fill="black" stroke="black" cx="529.3" cy="-691" rx="2.7" ry="2.7"/>
</g>
<!-- 2787267976112&#45;&#45;2787267971744 -->
<g id="edge33" class="edge">
<title>2787267976112&#45;&#45;2787267971744</title>
<path fill="none" stroke="black" d="M240.29,-605.22C309.65,-625.88 505.25,-684.13 526.44,-690.44"/>
</g>
<!-- 2787267975776 -->
<g id="node36" class="node">
<title>2787267975776</title>
<ellipse fill="none" stroke="black" cx="529.3" cy="-652" rx="27" ry="18"/>
<text text-anchor="middle" x="529.3" y="-646" font-family="Times New Roman,serif" font-size="15.00">seq</text>
</g>
<!-- 2787267976112&#45;&#45;2787267975776 -->
<g id="edge38" class="edge">
<title>2787267976112&#45;&#45;2787267975776</title>
<path fill="none" stroke="black" d="M241.6,-602.42C300.3,-612.57 444.22,-637.46 502.84,-647.6"/>
</g>
<!-- 2787267974864 -->
<g id="node41" class="node">
<title>2787267974864</title>
<ellipse fill="none" stroke="black" cx="529.3" cy="-544" rx="27" ry="18"/>
<text text-anchor="middle" x="529.3" y="-538" font-family="Times New Roman,serif" font-size="15.00">seq</text>
</g>
<!-- 2787267976112&#45;&#45;2787267974864 -->
<g id="edge42" class="edge">
<title>2787267976112&#45;&#45;2787267974864</title>
<path fill="none" stroke="black" d="M241.6,-593.58C300.3,-583.43 444.22,-558.54 502.84,-548.4"/>
</g>
<!-- 2787267984944 -->
<g id="node45" class="node">
<title>2787267984944</title>
<ellipse fill="none" stroke="black" cx="529.3" cy="-409" rx="27" ry="18"/>
<text text-anchor="middle" x="529.3" y="-403" font-family="Times New Roman,serif" font-size="15.00">seq</text>
</g>
<!-- 2787267976112&#45;&#45;2787267984944 -->
<g id="edge45" class="edge">
<title>2787267976112&#45;&#45;2787267984944</title>
<path fill="none" stroke="black" d="M235.58,-586.18C291.66,-552.24 452.71,-454.75 508.78,-420.82"/>
</g>
<!-- 2787268243872 -->
<g id="node48" class="node">
<title>2787268243872</title>
<ellipse fill="none" stroke="black" cx="529.3" cy="-225" rx="27" ry="18"/>
<text text-anchor="middle" x="529.3" y="-219" font-family="Times New Roman,serif" font-size="15.00">seq</text>
</g>
<!-- 2787267976112&#45;&#45;2787268243872 -->
<g id="edge70" class="edge">
<title>2787267976112&#45;&#45;2787268243872</title>
<path fill="none" stroke="black" d="M229.07,-582.45C279.86,-521.78 464.35,-301.4 515.23,-240.62"/>
</g>
<!-- 2787268238400 -->
<g id="node37" class="node">
<title>2787268238400</title>
<ellipse fill="none" stroke="black" cx="918.79" cy="-787" rx="174.7" ry="18"/>
<text text-anchor="middle" x="918.79" y="-781" font-family="Times New Roman,serif" font-size="15.00">send confirmation to competent authority</text>
</g>
<!-- 2787267975776&#45;&#45;2787268238400 -->
<g id="edge34" class="edge">
<title>2787267975776&#45;&#45;2787268238400</title>
<path fill="none" stroke="black" d="M553.67,-660.14C615.19,-681.58 782.73,-739.94 867.39,-769.44"/>
</g>
<!-- 2787268240848 -->
<g id="node38" class="node">
<title>2787268240848</title>
<ellipse fill="none" stroke="black" cx="918.79" cy="-733" rx="156.27" ry="18"/>
<text text-anchor="middle" x="918.79" y="-727" font-family="Times New Roman,serif" font-size="15.00">message change competent authority</text>
</g>
<!-- 2787267975776&#45;&#45;2787268240848 -->
<g id="edge35" class="edge">
<title>2787267975776&#45;&#45;2787268240848</title>
<path fill="none" stroke="black" d="M555.43,-657.25C612.28,-669.14 752.71,-698.49 841.11,-716.97"/>
</g>
<!-- 2787268242192 -->
<g id="node39" class="node">
<title>2787268242192</title>
<ellipse fill="none" stroke="black" cx="918.79" cy="-679" rx="200.29" ry="18"/>
<text text-anchor="middle" x="918.79" y="-673" font-family="Times New Roman,serif" font-size="15.00">submit request towards the competent authority</text>
</g>
<!-- 2787267975776&#45;&#45;2787268242192 -->
<g id="edge36" class="edge">
<title>2787267975776&#45;&#45;2787268242192</title>
<path fill="none" stroke="black" d="M556.63,-653.83C598.2,-656.73 682.17,-662.58 758.69,-667.91"/>
</g>
<!-- 2787268239216 -->
<g id="node40" class="node">
<title>2787268239216</title>
<ellipse fill="none" stroke="black" cx="918.79" cy="-625" rx="176.23" ry="18"/>
<text text-anchor="middle" x="918.79" y="-619" font-family="Times New Roman,serif" font-size="15.00">log the senddate for letter to the authority</text>
</g>
<!-- 2787267975776&#45;&#45;2787268239216 -->
<g id="edge37" class="edge">
<title>2787267975776&#45;&#45;2787268239216</title>
<path fill="none" stroke="black" d="M556.63,-650.17C600.58,-647.1 691.94,-640.74 771.78,-635.17"/>
</g>
<!-- 2787268239168 -->
<g id="node42" class="node">
<title>2787268239168</title>
<ellipse fill="none" stroke="black" cx="918.79" cy="-571" rx="69.78" ry="18"/>
<text text-anchor="middle" x="918.79" y="-565" font-family="Times New Roman,serif" font-size="15.00">MER included</text>
</g>
<!-- 2787267974864&#45;&#45;2787268239168 -->
<g id="edge39" class="edge">
<title>2787267974864&#45;&#45;2787268239168</title>
<path fill="none" stroke="black" d="M556.63,-545.83C616.42,-550 763.97,-560.28 850.85,-566.34"/>
</g>
<!-- 2787268237152 -->
<g id="node43" class="node">
<title>2787268237152</title>
<ellipse fill="none" stroke="black" cx="918.79" cy="-517" rx="126.08" ry="18"/>
<text text-anchor="middle" x="918.79" y="-511" font-family="Times New Roman,serif" font-size="15.00">Regular procedure activities</text>
</g>
<!-- 2787267974864&#45;&#45;2787268237152 -->
<g id="edge40" class="edge">
<title>2787267974864&#45;&#45;2787268237152</title>
<path fill="none" stroke="black" d="M556.63,-542.17C606.71,-538.68 718.36,-530.9 804.36,-524.9"/>
</g>
<!-- 2787268244256 -->
<g id="node44" class="node">
<title>2787268244256</title>
<ellipse fill="none" stroke="black" cx="918.79" cy="-463" rx="87.69" ry="18"/>
<text text-anchor="middle" x="918.79" y="-457" font-family="Times New Roman,serif" font-size="15.00">Phased application</text>
</g>
<!-- 2787267974864&#45;&#45;2787268244256 -->
<g id="edge41" class="edge">
<title>2787267974864&#45;&#45;2787268244256</title>
<path fill="none" stroke="black" d="M555.43,-538.75C615.64,-526.16 769.57,-493.99 856.19,-475.88"/>
</g>
<!-- 2787268238832 -->
<g id="node46" class="node">
<title>2787268238832</title>
<ellipse fill="none" stroke="black" cx="918.79" cy="-409" rx="143.99" ry="18"/>
<text text-anchor="middle" x="918.79" y="-403" font-family="Times New Roman,serif" font-size="15.00">Dispatch procedure confirmation</text>
</g>
<!-- 2787267984944&#45;&#45;2787268238832 -->
<g id="edge43" class="edge">
<title>2787267984944&#45;&#45;2787268238832</title>
<path fill="none" stroke="black" d="M556.63,-409C601.09,-409 694.08,-409 774.56,-409"/>
</g>
<!-- 2787268235808 -->
<g id="node47" class="node">
<title>2787268235808</title>
<ellipse fill="none" stroke="black" cx="918.79" cy="-355" rx="175.72" ry="18"/>
<text text-anchor="middle" x="918.79" y="-349" font-family="Times New Roman,serif" font-size="15.00">Record senddate procedure confirmation</text>
</g>
<!-- 2787267984944&#45;&#45;2787268235808 -->
<g id="edge44" class="edge">
<title>2787267984944&#45;&#45;2787268235808</title>
<path fill="none" stroke="black" d="M556.03,-405.42C607.33,-398.27 724.93,-381.88 812.2,-369.72"/>
</g>
<!-- 2787268231392 -->
<g id="node49" class="node">
<title>2787268231392</title>
<ellipse fill="none" stroke="black" cx="918.79" cy="-255" rx="27" ry="18"/>
<text text-anchor="middle" x="918.79" y="-249" font-family="Times New Roman,serif" font-size="15.00">xor</text>
</g>
<!-- 2787268243872&#45;&#45;2787268231392 -->
<g id="edge53" class="edge">
<title>2787268243872&#45;&#45;2787268231392</title>
<path fill="none" stroke="black" d="M556.63,-227.04C627.41,-232.52 821.16,-247.52 891.68,-252.98"/>
</g>
<!-- 2787268236144 -->
<g id="node57" class="node">
<title>2787268236144</title>
<ellipse fill="none" stroke="black" cx="918.79" cy="-195" rx="27" ry="18"/>
<text text-anchor="middle" x="918.79" y="-189" font-family="Times New Roman,serif" font-size="15.00">and</text>
</g>
<!-- 2787268243872&#45;&#45;2787268236144 -->
<g id="edge66" class="edge">
<title>2787268243872&#45;&#45;2787268236144</title>
<path fill="none" stroke="black" d="M556.63,-222.96C627.41,-217.48 821.16,-202.48 891.68,-197.02"/>
</g>
<!-- 2787268233408 -->
<g id="node70" class="node">
<title>2787268233408</title>
<ellipse fill="none" stroke="black" cx="918.79" cy="-90" rx="27" ry="18"/>
<text text-anchor="middle" x="918.79" y="-84" font-family="Times New Roman,serif" font-size="15.00">xor</text>
</g>
<!-- 2787268243872&#45;&#45;2787268233408 -->
<g id="edge69" class="edge">
<title>2787268243872&#45;&#45;2787268233408</title>
<path fill="none" stroke="black" d="M553.67,-216.86C622.72,-192.8 825.31,-122.22 894.4,-98.15"/>
</g>
<!-- 2787268233792 -->
<g id="node50" class="node">
<title>2787268233792</title>
<ellipse fill="none" stroke="black" cx="1354.86" cy="-369" rx="27" ry="18"/>
<text text-anchor="middle" x="1354.86" y="-363" font-family="Times New Roman,serif" font-size="15.00">seq</text>
</g>
<!-- 2787268231392&#45;&#45;2787268233792 -->
<g id="edge49" class="edge">
<title>2787268231392&#45;&#45;2787268233792</title>
<path fill="none" stroke="black" d="M944.37,-261.46C1020.68,-281.5 1252.97,-342.5 1329.28,-362.54"/>
</g>
<!-- 2787268232448 -->
<g id="node54" class="node">
<title>2787268232448</title>
<ellipse fill="none" stroke="black" cx="1354.86" cy="-255" rx="27" ry="18"/>
<text text-anchor="middle" x="1354.86" y="-249" font-family="Times New Roman,serif" font-size="15.00">seq</text>
</g>
<!-- 2787268231392&#45;&#45;2787268232448 -->
<g id="edge52" class="edge">
<title>2787268231392&#45;&#45;2787268232448</title>
<path fill="none" stroke="black" d="M946.29,-255C1023.88,-255 1249.94,-255 1327.43,-255"/>
</g>
<!-- 2787268243968 -->
<g id="node51" class="node">
<title>2787268243968</title>
<ellipse fill="none" stroke="black" cx="1807.81" cy="-450" rx="130.68" ry="18"/>
<text text-anchor="middle" x="1807.81" y="-444" font-family="Times New Roman,serif" font-size="15.00">Competent authority initiative</text>
</g>
<!-- 2787268233792&#45;&#45;2787268243968 -->
<g id="edge46" class="edge">
<title>2787268233792&#45;&#45;2787268243968</title>
<path fill="none" stroke="black" d="M1381.39,-373.59C1446.79,-385.33 1622.46,-416.89 1726.47,-435.57"/>
</g>
<!-- 2787268233504 -->
<g id="node52" class="node">
<title>2787268233504</title>
<ellipse fill="none" stroke="black" cx="1807.81" cy="-396" rx="145.52" ry="18"/>
<text text-anchor="middle" x="1807.81" y="-390" font-family="Times New Roman,serif" font-size="15.00">Create terminate request message</text>
</g>
<!-- 2787268233792&#45;&#45;2787268233504 -->
<g id="edge47" class="edge">
<title>2787268233792&#45;&#45;2787268233504</title>
<path fill="none" stroke="black" d="M1382.05,-370.57C1438.12,-373.93 1573,-382 1675.84,-388.16"/>
</g>
<!-- 2787268243248 -->
<g id="node53" class="node">
<title>2787268243248</title>
<ellipse fill="none" stroke="black" cx="1807.81" cy="-342" rx="125.05" ry="18"/>
<text text-anchor="middle" x="1807.81" y="-336" font-family="Times New Roman,serif" font-size="15.00">Check publication date field</text>
</g>
<!-- 2787268233792&#45;&#45;2787268243248 -->
<g id="edge48" class="edge">
<title>2787268233792&#45;&#45;2787268243248</title>
<path fill="none" stroke="black" d="M1382.05,-367.43C1440.98,-363.9 1586.99,-355.16 1691.35,-348.91"/>
</g>
<!-- 2787268241664 -->
<g id="node55" class="node">
<title>2787268241664</title>
<ellipse fill="none" stroke="black" cx="1807.81" cy="-288" rx="205.41" ry="18"/>
<text text-anchor="middle" x="1807.81" y="-282" font-family="Times New Roman,serif" font-size="15.00">draft letter for no permit or notification required</text>
</g>
<!-- 2787268232448&#45;&#45;2787268241664 -->
<g id="edge50" class="edge">
<title>2787268232448&#45;&#45;2787268241664</title>
<path fill="none" stroke="black" d="M1382.05,-256.92C1433.18,-260.66 1549.86,-269.2 1648.02,-276.38"/>
</g>
<!-- 2787268237824 -->
<g id="node56" class="node">
<title>2787268237824</title>
<ellipse fill="none" stroke="black" cx="1807.81" cy="-234" rx="217.18" ry="18"/>
<text text-anchor="middle" x="1807.81" y="-228" font-family="Times New Roman,serif" font-size="15.00">log senddate letter no permit or notification needed</text>
</g>
<!-- 2787268232448&#45;&#45;2787268237824 -->
<g id="edge51" class="edge">
<title>2787268232448&#45;&#45;2787268237824</title>
<path fill="none" stroke="black" d="M1382.05,-253.78C1427.87,-251.65 1526.33,-247.06 1616.93,-242.84"/>
</g>
<!-- 2787268245024 -->
<g id="node58" class="node">
<title>2787268245024</title>
<ellipse fill="none" stroke="black" cx="1354.86" cy="-195" rx="119.42" ry="18"/>
<text text-anchor="middle" x="1354.86" y="-189" font-family="Times New Roman,serif" font-size="15.00">Phase procedure cancelled</text>
</g>
<!-- 2787268236144&#45;&#45;2787268245024 -->
<g id="edge54" class="edge">
<title>2787268236144&#45;&#45;2787268245024</title>
<path fill="none" stroke="black" d="M946.29,-195C1002.43,-195 1136.32,-195 1235.4,-195"/>
</g>
<!-- 2787268231488 -->
<g id="node59" class="node">
<title>2787268231488</title>
<ellipse fill="none" stroke="black" cx="1354.86" cy="-129" rx="27" ry="18"/>
<text text-anchor="middle" x="1354.86" y="-123" font-family="Times New Roman,serif" font-size="15.00">seq</text>
</g>
<!-- 2787268236144&#45;&#45;2787268231488 -->
<g id="edge65" class="edge">
<title>2787268236144&#45;&#45;2787268231488</title>
<path fill="none" stroke="black" d="M945.65,-191.07C1022.85,-179.33 1251.11,-144.62 1328.14,-132.91"/>
</g>
<!-- 2787268247328 -->
<g id="node60" class="node">
<title>2787268247328</title>
<ellipse fill="none" stroke="black" cx="1807.81" cy="-180" rx="27" ry="18"/>
<text text-anchor="middle" x="1807.81" y="-174" font-family="Times New Roman,serif" font-size="15.00">xor</text>
</g>
<!-- 2787268231488&#45;&#45;2787268247328 -->
<g id="edge57" class="edge">
<title>2787268231488&#45;&#45;2787268247328</title>
<path fill="none" stroke="black" d="M1381.72,-131.93C1461.17,-140.91 1701.09,-168.04 1780.77,-177.05"/>
</g>
<!-- 2787268237776 -->
<g id="node63" class="node">
<title>2787268237776</title>
<ellipse fill="none" stroke="black" cx="1807.81" cy="-126" rx="163.44" ry="18"/>
<text text-anchor="middle" x="1807.81" y="-120" font-family="Times New Roman,serif" font-size="15.00">Log date termination request received</text>
</g>
<!-- 2787268231488&#45;&#45;2787268237776 -->
<g id="edge58" class="edge">
<title>2787268231488&#45;&#45;2787268237776</title>
<path fill="none" stroke="black" d="M1382.05,-128.83C1432.52,-128.49 1546.87,-127.73 1644.22,-127.08"/>
</g>
<!-- 2787268246656 -->
<g id="node64" class="node">
<title>2787268246656</title>
<ellipse fill="none" stroke="black" cx="1807.81" cy="-72" rx="27" ry="18"/>
<text text-anchor="middle" x="1807.81" y="-66" font-family="Times New Roman,serif" font-size="15.00">xor</text>
</g>
<!-- 2787268231488&#45;&#45;2787268246656 -->
<g id="edge63" class="edge">
<title>2787268231488&#45;&#45;2787268246656</title>
<path fill="none" stroke="black" d="M1381.72,-125.73C1461.17,-115.69 1701.09,-85.36 1780.77,-75.29"/>
</g>
<!-- 2787268232736 -->
<g id="node69" class="node">
<title>2787268232736</title>
<ellipse fill="none" stroke="black" cx="1807.81" cy="-18" rx="63.63" ry="18"/>
<text text-anchor="middle" x="1807.81" y="-12" font-family="Times New Roman,serif" font-size="15.00">Log deadline</text>
</g>
<!-- 2787268231488&#45;&#45;2787268232736 -->
<g id="edge64" class="edge">
<title>2787268231488&#45;&#45;2787268232736</title>
<path fill="none" stroke="black" d="M1380.74,-122.87C1452.94,-105.1 1663.35,-53.31 1758.77,-29.83"/>
</g>
<!-- 2787268236096 -->
<g id="node61" class="node">
<title>2787268236096</title>
<ellipse fill="black" stroke="black" cx="2234.66" cy="-199" rx="2.7" ry="2.7"/>
</g>
<!-- 2787268247328&#45;&#45;2787268236096 -->
<g id="edge55" class="edge">
<title>2787268247328&#45;&#45;2787268236096</title>
<path fill="none" stroke="black" d="M1835.07,-181.17C1923.35,-185.12 2205.44,-197.74 2231.7,-198.91"/>
</g>
<!-- 2787268244976 -->
<g id="node62" class="node">
<title>2787268244976</title>
<ellipse fill="none" stroke="black" cx="2234.66" cy="-160" rx="173.67" ry="18"/>
<text text-anchor="middle" x="2234.66" y="-154" font-family="Times New Roman,serif" font-size="15.00">Prematurely terminated phase procedure</text>
</g>
<!-- 2787268247328&#45;&#45;2787268244976 -->
<g id="edge56" class="edge">
<title>2787268247328&#45;&#45;2787268244976</title>
<path fill="none" stroke="black" d="M1835.07,-178.76C1882.46,-176.53 1985.73,-171.67 2075.27,-167.46"/>
</g>
<!-- 2787268244352 -->
<g id="node65" class="node">
<title>2787268244352</title>
<ellipse fill="black" stroke="black" cx="2234.66" cy="-91" rx="2.7" ry="2.7"/>
</g>
<!-- 2787268246656&#45;&#45;2787268244352 -->
<g id="edge59" class="edge">
<title>2787268246656&#45;&#45;2787268244352</title>
<path fill="none" stroke="black" d="M1835.07,-73.17C1923.35,-77.12 2205.44,-89.74 2231.7,-90.91"/>
</g>
<!-- 2787268231728 -->
<g id="node66" class="node">
<title>2787268231728</title>
<ellipse fill="none" stroke="black" cx="2234.66" cy="-52" rx="27" ry="18"/>
<text text-anchor="middle" x="2234.66" y="-46" font-family="Times New Roman,serif" font-size="15.00">seq</text>
</g>
<!-- 2787268246656&#45;&#45;2787268231728 -->
<g id="edge62" class="edge">
<title>2787268246656&#45;&#45;2787268231728</title>
<path fill="none" stroke="black" d="M1835.07,-70.76C1911.14,-67.18 2131.11,-56.83 2207.31,-53.24"/>
</g>
<!-- 2787268240896 -->
<g id="node67" class="node">
<title>2787268240896</title>
<ellipse fill="none" stroke="black" cx="2602.65" cy="-79" rx="158.32" ry="18"/>
<text text-anchor="middle" x="2602.65" y="-73" font-family="Times New Roman,serif" font-size="15.00">Record senddate termination request</text>
</g>
<!-- 2787268231728&#45;&#45;2787268240896 -->
<g id="edge60" class="edge">
<title>2787268231728&#45;&#45;2787268240896</title>
<path fill="none" stroke="black" d="M2261.98,-53.94C2304.92,-57.11 2392.86,-63.6 2468.5,-69.18"/>
</g>
<!-- 2787268242048 -->
<g id="node68" class="node">
<title>2787268242048</title>
<ellipse fill="none" stroke="black" cx="2602.65" cy="-25" rx="119.93" ry="18"/>
<text text-anchor="middle" x="2602.65" y="-19" font-family="Times New Roman,serif" font-size="15.00">Terminate request message</text>
</g>
<!-- 2787268231728&#45;&#45;2787268242048 -->
<g id="edge61" class="edge">
<title>2787268231728&#45;&#45;2787268242048</title>
<path fill="none" stroke="black" d="M2261.98,-50.06C2309.84,-46.53 2413.59,-38.87 2493.92,-32.95"/>
</g>
<!-- 2787268245936 -->
<g id="node71" class="node">
<title>2787268245936</title>
<ellipse fill="black" stroke="black" cx="1354.86" cy="-90" rx="2.7" ry="2.7"/>
</g>
<!-- 2787268233408&#45;&#45;2787268245936 -->
<g id="edge67" class="edge">
<title>2787268233408&#45;&#45;2787268245936</title>
<path fill="none" stroke="black" d="M946.29,-90C1036.12,-90 1324.96,-90 1351.85,-90"/>
</g>
<!-- 2787268234128 -->
<g id="node72" class="node">
<title>2787268234128</title>
<ellipse fill="none" stroke="black" cx="1354.86" cy="-51" rx="69.26" ry="18"/>
<text text-anchor="middle" x="1354.86" y="-45" font-family="Times New Roman,serif" font-size="15.00">Close the case</text>
</g>
<!-- 2787268233408&#45;&#45;2787268234128 -->
<g id="edge68" class="edge">
<title>2787268233408&#45;&#45;2787268234128</title>
<path fill="none" stroke="black" d="M945.97,-87.65C1012.87,-81.64 1191.68,-65.57 1288.84,-56.84"/>
</g>
</g>
</svg>
