<?xml version="1.0" encoding="UTF-8" standalone="no"?>
<!DOCTYPE svg PUBLIC "-//W3C//DTD SVG 1.1//EN"
 "http://www.w3.org/Graphics/SVG/1.1/DTD/svg11.dtd">
<!-- Generated by graphviz version 11.0.0 (20240428.1522)
 -->
<!-- Title: pt Pages: 1 -->
<svg width="1818pt" height="1119pt"
 viewBox="0.00 0.00 1818.03 1119.00" xmlns="http://www.w3.org/2000/svg" xmlns:xlink="http://www.w3.org/1999/xlink">
<g id="graph0" class="graph" transform="scale(1 1) rotate(0) translate(4 1115)">
<title>pt</title>
<polygon fill="white" stroke="none" points="-4,4 -4,-1115 1814.03,-1115 1814.03,4 -4,4"/>
<!-- 2458778983344 -->
<g id="node1" class="node">
<title>2458778983344</title>
<ellipse fill="none" stroke="black" cx="27" cy="-852" rx="27" ry="18"/>
<text text-anchor="middle" x="27" y="-846" font-family="Times New Roman,serif" font-size="15.00">seq</text>
</g>
<!-- 2458778984304 -->
<g id="node2" class="node">
<title>2458778984304</title>
<ellipse fill="none" stroke="black" cx="219.66" cy="-933" rx="129.66" ry="18"/>
<text text-anchor="middle" x="219.66" y="-927" font-family="Times New Roman,serif" font-size="15.00">Input submission date request</text>
</g>
<!-- 2458778983344&#45;&#45;2458778984304 -->
<g id="edge1" class="edge">
<title>2458778983344&#45;&#45;2458778984304</title>
<path fill="none" stroke="black" d="M50.24,-861.45C81.38,-874.68 138.52,-898.95 177.53,-915.53"/>
</g>
<!-- 2458778987328 -->
<g id="node3" class="node">
<title>2458778987328</title>
<ellipse fill="none" stroke="black" cx="219.66" cy="-879" rx="27" ry="18"/>
<text text-anchor="middle" x="219.66" y="-873" font-family="Times New Roman,serif" font-size="15.00">xor</text>
</g>
<!-- 2458778983344&#45;&#45;2458778987328 -->
<g id="edge4" class="edge">
<title>2458778983344&#45;&#45;2458778987328</title>
<path fill="none" stroke="black" d="M53.71,-855.64C90.1,-860.79 156.25,-870.16 192.74,-875.33"/>
</g>
<!-- 2458778976480 -->
<g id="node6" class="node">
<title>2458778976480</title>
<ellipse fill="none" stroke="black" cx="219.66" cy="-825" rx="27" ry="18"/>
<text text-anchor="middle" x="219.66" y="-819" font-family="Times New Roman,serif" font-size="15.00">and</text>
</g>
<!-- 2458778983344&#45;&#45;2458778976480 -->
<g id="edge38" class="edge">
<title>2458778983344&#45;&#45;2458778976480</title>
<path fill="none" stroke="black" d="M53.71,-848.36C90.1,-843.21 156.25,-833.84 192.74,-828.67"/>
</g>
<!-- 2458778988672 -->
<g id="node40" class="node">
<title>2458778988672</title>
<ellipse fill="none" stroke="black" cx="219.66" cy="-477" rx="27" ry="18"/>
<text text-anchor="middle" x="219.66" y="-471" font-family="Times New Roman,serif" font-size="15.00">xor</text>
</g>
<!-- 2458778983344&#45;&#45;2458778988672 -->
<g id="edge62" class="edge">
<title>2458778983344&#45;&#45;2458778988672</title>
<path fill="none" stroke="black" d="M36.69,-834.91C68.45,-772.44 178.07,-556.82 209.92,-494.19"/>
</g>
<!-- 2458778990016 -->
<g id="node4" class="node">
<title>2458778990016</title>
<ellipse fill="black" stroke="black" cx="516.51" cy="-918" rx="2.7" ry="2.7"/>
</g>
<!-- 2458778987328&#45;&#45;2458778990016 -->
<g id="edge2" class="edge">
<title>2458778987328&#45;&#45;2458778990016</title>
<path fill="none" stroke="black" d="M246.57,-882.43C314.58,-891.42 494.34,-915.2 513.79,-917.77"/>
</g>
<!-- 2458778986704 -->
<g id="node5" class="node">
<title>2458778986704</title>
<ellipse fill="none" stroke="black" cx="516.51" cy="-879" rx="93.32" ry="18"/>
<text text-anchor="middle" x="516.51" y="-873" font-family="Times New Roman,serif" font-size="15.00">OLO messaging live</text>
</g>
<!-- 2458778987328&#45;&#45;2458778986704 -->
<g id="edge3" class="edge">
<title>2458778987328&#45;&#45;2458778986704</title>
<path fill="none" stroke="black" d="M247.08,-879C286.31,-879 361.87,-879 422.85,-879"/>
</g>
<!-- 2458778978832 -->
<g id="node7" class="node">
<title>2458778978832</title>
<ellipse fill="none" stroke="black" cx="516.51" cy="-825" rx="131.19" ry="18"/>
<text text-anchor="middle" x="516.51" y="-819" font-family="Times New Roman,serif" font-size="15.00">Phase of application received</text>
</g>
<!-- 2458778976480&#45;&#45;2458778978832 -->
<g id="edge5" class="edge">
<title>2458778976480&#45;&#45;2458778978832</title>
<path fill="none" stroke="black" d="M247.08,-825C278.46,-825 333.1,-825 384.92,-825"/>
</g>
<!-- 2458778992320 -->
<g id="node8" class="node">
<title>2458778992320</title>
<ellipse fill="none" stroke="black" cx="516.51" cy="-771" rx="27" ry="18"/>
<text text-anchor="middle" x="516.51" y="-765" font-family="Times New Roman,serif" font-size="15.00">seq</text>
</g>
<!-- 2458778976480&#45;&#45;2458778992320 -->
<g id="edge37" class="edge">
<title>2458778976480&#45;&#45;2458778992320</title>
<path fill="none" stroke="black" d="M246.05,-820.35C301.79,-810.14 434.3,-785.87 490.07,-775.66"/>
</g>
<!-- 2458778981904 -->
<g id="node9" class="node">
<title>2458778981904</title>
<ellipse fill="none" stroke="black" cx="849.7" cy="-1008" rx="27" ry="18"/>
<text text-anchor="middle" x="849.7" y="-1002" font-family="Times New Roman,serif" font-size="15.00">and</text>
</g>
<!-- 2458778992320&#45;&#45;2458778981904 -->
<g id="edge12" class="edge">
<title>2458778992320&#45;&#45;2458778981904</title>
<path fill="none" stroke="black" d="M535.79,-784.08C593.69,-825.52 772.65,-953.58 830.48,-994.96"/>
</g>
<!-- 2458778984928 -->
<g id="node16" class="node">
<title>2458778984928</title>
<ellipse fill="none" stroke="black" cx="849.7" cy="-918" rx="27" ry="18"/>
<text text-anchor="middle" x="849.7" y="-912" font-family="Times New Roman,serif" font-size="15.00">xor</text>
</g>
<!-- 2458778992320&#45;&#45;2458778984928 -->
<g id="edge16" class="edge">
<title>2458778992320&#45;&#45;2458778984928</title>
<path fill="none" stroke="black" d="M539.75,-780.87C600.09,-807.65 766.33,-881.44 826.55,-908.17"/>
</g>
<!-- 2458778977152 -->
<g id="node20" class="node">
<title>2458778977152</title>
<ellipse fill="none" stroke="black" cx="849.7" cy="-852" rx="151.15" ry="18"/>
<text text-anchor="middle" x="849.7" y="-846" font-family="Times New Roman,serif" font-size="15.00">Transfer to the competent authority</text>
</g>
<!-- 2458778992320&#45;&#45;2458778977152 -->
<g id="edge17" class="edge">
<title>2458778992320&#45;&#45;2458778977152</title>
<path fill="none" stroke="black" d="M542.4,-777.09C592.57,-789.36 707.34,-817.43 781.27,-835.51"/>
</g>
<!-- 2458778984400 -->
<g id="node21" class="node">
<title>2458778984400</title>
<ellipse fill="none" stroke="black" cx="849.7" cy="-798" rx="27" ry="18"/>
<text text-anchor="middle" x="849.7" y="-792" font-family="Times New Roman,serif" font-size="15.00">xor</text>
</g>
<!-- 2458778992320&#45;&#45;2458778984400 -->
<g id="edge20" class="edge">
<title>2458778992320&#45;&#45;2458778984400</title>
<path fill="none" stroke="black" d="M543.77,-773.14C605.74,-778.19 760.47,-790.81 822.43,-795.86"/>
</g>
<!-- 2458778987424 -->
<g id="node24" class="node">
<title>2458778987424</title>
<ellipse fill="none" stroke="black" cx="849.7" cy="-744" rx="27" ry="18"/>
<text text-anchor="middle" x="849.7" y="-738" font-family="Times New Roman,serif" font-size="15.00">and</text>
</g>
<!-- 2458778992320&#45;&#45;2458778987424 -->
<g id="edge25" class="edge">
<title>2458778992320&#45;&#45;2458778987424</title>
<path fill="none" stroke="black" d="M543.77,-768.86C605.74,-763.81 760.47,-751.19 822.43,-746.14"/>
</g>
<!-- 2458778987184 -->
<g id="node29" class="node">
<title>2458778987184</title>
<ellipse fill="none" stroke="black" cx="849.7" cy="-651" rx="27" ry="18"/>
<text text-anchor="middle" x="849.7" y="-645" font-family="Times New Roman,serif" font-size="15.00">xor</text>
</g>
<!-- 2458778992320&#45;&#45;2458778987184 -->
<g id="edge31" class="edge">
<title>2458778992320&#45;&#45;2458778987184</title>
<path fill="none" stroke="black" d="M540.8,-762.56C601.61,-740.53 764.66,-681.45 825.44,-659.43"/>
</g>
<!-- 2458778985168 -->
<g id="node35" class="node">
<title>2458778985168</title>
<ellipse fill="none" stroke="black" cx="849.7" cy="-543" rx="27" ry="18"/>
<text text-anchor="middle" x="849.7" y="-537" font-family="Times New Roman,serif" font-size="15.00">and</text>
</g>
<!-- 2458778992320&#45;&#45;2458778985168 -->
<g id="edge36" class="edge">
<title>2458778992320&#45;&#45;2458778985168</title>
<path fill="none" stroke="black" d="M535.79,-758.42C593.56,-718.65 771.82,-595.93 830.07,-555.83"/>
</g>
<!-- 2458778991408 -->
<g id="node10" class="node">
<title>2458778991408</title>
<ellipse fill="none" stroke="black" cx="1195.68" cy="-1062" rx="45.21" ry="18"/>
<text text-anchor="middle" x="1195.68" y="-1056" font-family="Times New Roman,serif" font-size="15.00">xor loop</text>
</g>
<!-- 2458778981904&#45;&#45;2458778991408 -->
<g id="edge8" class="edge">
<title>2458778981904&#45;&#45;2458778991408</title>
<path fill="none" stroke="black" d="M876.27,-1012.01C935.21,-1021.27 1081.02,-1044.16 1153.05,-1055.46"/>
</g>
<!-- 2458778988624 -->
<g id="node13" class="node">
<title>2458778988624</title>
<ellipse fill="none" stroke="black" cx="1195.68" cy="-1008" rx="27" ry="18"/>
<text text-anchor="middle" x="1195.68" y="-1002" font-family="Times New Roman,serif" font-size="15.00">xor</text>
</g>
<!-- 2458778981904&#45;&#45;2458778988624 -->
<g id="edge11" class="edge">
<title>2458778981904&#45;&#45;2458778988624</title>
<path fill="none" stroke="black" d="M877.12,-1008C941.31,-1008 1104.85,-1008 1168.64,-1008"/>
</g>
<!-- 2458778986992 -->
<g id="node11" class="node">
<title>2458778986992</title>
<ellipse fill="none" stroke="black" cx="1592.85" cy="-1093" rx="127.61" ry="18"/>
<text text-anchor="middle" x="1592.85" y="-1087" font-family="Times New Roman,serif" font-size="15.00">Provide confirmation receipt</text>
</g>
<!-- 2458778991408&#45;&#45;2458778986992 -->
<g id="edge6" class="edge">
<title>2458778991408&#45;&#45;2458778986992</title>
<path fill="none" stroke="black" d="M1240.48,-1065.44C1297.86,-1069.94 1400.5,-1077.99 1480.08,-1084.23"/>
</g>
<!-- 2458778991552 -->
<g id="node12" class="node">
<title>2458778991552</title>
<ellipse fill="black" stroke="black" cx="1592.85" cy="-1054" rx="2.7" ry="2.7"/>
</g>
<!-- 2458778991408&#45;&#45;2458778991552 -->
<g id="edge7" class="edge">
<title>2458778991408&#45;&#45;2458778991552</title>
<path fill="none" stroke="black" d="M1241.25,-1061.1C1338.94,-1059.12 1565.24,-1054.54 1589.7,-1054.04"/>
</g>
<!-- 2458778985120 -->
<g id="node14" class="node">
<title>2458778985120</title>
<ellipse fill="black" stroke="black" cx="1592.85" cy="-1016" rx="2.7" ry="2.7"/>
</g>
<!-- 2458778988624&#45;&#45;2458778985120 -->
<g id="edge9" class="edge">
<title>2458778988624&#45;&#45;2458778985120</title>
<path fill="none" stroke="black" d="M1222.92,-1008.53C1306.7,-1010.23 1563.84,-1015.43 1589.74,-1015.96"/>
</g>
<!-- 2458778988144 -->
<g id="node15" class="node">
<title>2458778988144</title>
<ellipse fill="none" stroke="black" cx="1592.85" cy="-977" rx="147.06" ry="18"/>
<text text-anchor="middle" x="1592.85" y="-971" font-family="Times New Roman,serif" font-size="15.00">Applicant considered stakeholder</text>
</g>
<!-- 2458778988624&#45;&#45;2458778988144 -->
<g id="edge10" class="edge">
<title>2458778988624&#45;&#45;2458778988144</title>
<path fill="none" stroke="black" d="M1222.92,-1005.94C1272.05,-1002.09 1380.79,-993.56 1467.57,-986.75"/>
</g>
<!-- 2458778989392 -->
<g id="node17" class="node">
<title>2458778989392</title>
<ellipse fill="black" stroke="black" cx="1195.68" cy="-969" rx="2.7" ry="2.7"/>
</g>
<!-- 2458778984928&#45;&#45;2458778989392 -->
<g id="edge13" class="edge">
<title>2458778984928&#45;&#45;2458778989392</title>
<path fill="none" stroke="black" d="M876.55,-921.83C952.18,-933.05 1169.11,-965.21 1192.61,-968.69"/>
</g>
<!-- 2458778978688 -->
<g id="node18" class="node">
<title>2458778978688</title>
<ellipse fill="none" stroke="black" cx="1195.68" cy="-930" rx="79.5" ry="18"/>
<text text-anchor="middle" x="1195.68" y="-924" font-family="Times New Roman,serif" font-size="15.00">Cease on request</text>
</g>
<!-- 2458778984928&#45;&#45;2458778978688 -->
<g id="edge14" class="edge">
<title>2458778984928&#45;&#45;2458778978688</title>
<path fill="none" stroke="black" d="M877.12,-918.92C927.78,-920.69 1040.32,-924.62 1116.87,-927.29"/>
</g>
<!-- 2458778992464 -->
<g id="node19" class="node">
<title>2458778992464</title>
<ellipse fill="none" stroke="black" cx="1195.68" cy="-876" rx="121.47" ry="18"/>
<text text-anchor="middle" x="1195.68" y="-870" font-family="Times New Roman,serif" font-size="15.00">Assess provisional charges</text>
</g>
<!-- 2458778984928&#45;&#45;2458778992464 -->
<g id="edge15" class="edge">
<title>2458778984928&#45;&#45;2458778992464</title>
<path fill="none" stroke="black" d="M876.55,-914.84C923.43,-909.12 1024.59,-896.77 1100.33,-887.52"/>
</g>
<!-- 2458778981712 -->
<g id="node22" class="node">
<title>2458778981712</title>
<ellipse fill="black" stroke="black" cx="1195.68" cy="-837" rx="2.7" ry="2.7"/>
</g>
<!-- 2458778984400&#45;&#45;2458778981712 -->
<g id="edge18" class="edge">
<title>2458778984400&#45;&#45;2458778981712</title>
<path fill="none" stroke="black" d="M876.84,-800.96C952.72,-809.57 1169.17,-834.11 1192.62,-836.77"/>
</g>
<!-- 2458778981472 -->
<g id="node23" class="node">
<title>2458778981472</title>
<ellipse fill="none" stroke="black" cx="1195.68" cy="-798" rx="111.74" ry="18"/>
<text text-anchor="middle" x="1195.68" y="-792" font-family="Times New Roman,serif" font-size="15.00">Alert BAG administrator</text>
</g>
<!-- 2458778984400&#45;&#45;2458778981472 -->
<g id="edge19" class="edge">
<title>2458778984400&#45;&#45;2458778981472</title>
<path fill="none" stroke="black" d="M877.12,-798C920.86,-798 1010.72,-798 1083.73,-798"/>
</g>
<!-- 2458778983824 -->
<g id="node25" class="node">
<title>2458778983824</title>
<ellipse fill="none" stroke="black" cx="1195.68" cy="-744" rx="27" ry="18"/>
<text text-anchor="middle" x="1195.68" y="-738" font-family="Times New Roman,serif" font-size="15.00">xor</text>
</g>
<!-- 2458778987424&#45;&#45;2458778983824 -->
<g id="edge23" class="edge">
<title>2458778987424&#45;&#45;2458778983824</title>
<path fill="none" stroke="black" d="M877.12,-744C941.31,-744 1104.85,-744 1168.64,-744"/>
</g>
<!-- 2458778981088 -->
<g id="node28" class="node">
<title>2458778981088</title>
<ellipse fill="none" stroke="black" cx="1195.68" cy="-690" rx="142.45" ry="18"/>
<text text-anchor="middle" x="1195.68" y="-684" font-family="Times New Roman,serif" font-size="15.00">Routine procedure without MER</text>
</g>
<!-- 2458778987424&#45;&#45;2458778981088 -->
<g id="edge24" class="edge">
<title>2458778987424&#45;&#45;2458778981088</title>
<path fill="none" stroke="black" d="M876.27,-739.99C923.84,-732.52 1028.01,-716.17 1104.29,-704.19"/>
</g>
<!-- 2458778978208 -->
<g id="node26" class="node">
<title>2458778978208</title>
<ellipse fill="black" stroke="black" cx="1592.85" cy="-783" rx="2.7" ry="2.7"/>
</g>
<!-- 2458778983824&#45;&#45;2458778978208 -->
<g id="edge21" class="edge">
<title>2458778983824&#45;&#45;2458778978208</title>
<path fill="none" stroke="black" d="M1222.61,-746.56C1306.06,-754.79 1563.78,-780.23 1589.74,-782.79"/>
</g>
<!-- 2458778976432 -->
<g id="node27" class="node">
<title>2458778976432</title>
<ellipse fill="none" stroke="black" cx="1592.85" cy="-744" rx="129.15" ry="18"/>
<text text-anchor="middle" x="1592.85" y="-738" font-family="Times New Roman,serif" font-size="15.00">Draft procedure confirmation</text>
</g>
<!-- 2458778983824&#45;&#45;2458778976432 -->
<g id="edge22" class="edge">
<title>2458778983824&#45;&#45;2458778976432</title>
<path fill="none" stroke="black" d="M1222.92,-744C1271.27,-744 1377.38,-744 1463.44,-744"/>
</g>
<!-- 2458778981856 -->
<g id="node30" class="node">
<title>2458778981856</title>
<ellipse fill="black" stroke="black" cx="1195.68" cy="-651" rx="2.7" ry="2.7"/>
</g>
<!-- 2458778987184&#45;&#45;2458778981856 -->
<g id="edge26" class="edge">
<title>2458778987184&#45;&#45;2458778981856</title>
<path fill="none" stroke="black" d="M877.12,-651C953.26,-651 1169.23,-651 1192.62,-651"/>
</g>
<!-- 2458778984016 -->
<g id="node31" class="node">
<title>2458778984016</title>
<ellipse fill="none" stroke="black" cx="1195.68" cy="-612" rx="27" ry="18"/>
<text text-anchor="middle" x="1195.68" y="-606" font-family="Times New Roman,serif" font-size="15.00">seq</text>
</g>
<!-- 2458778987184&#45;&#45;2458778984016 -->
<g id="edge30" class="edge">
<title>2458778987184&#45;&#45;2458778984016</title>
<path fill="none" stroke="black" d="M876.84,-648.04C940.8,-640.78 1104.66,-622.21 1168.59,-614.96"/>
</g>
<!-- 2458778988576 -->
<g id="node32" class="node">
<title>2458778988576</title>
<ellipse fill="none" stroke="black" cx="1592.85" cy="-690" rx="51.35" ry="18"/>
<text text-anchor="middle" x="1592.85" y="-684" font-family="Times New Roman,serif" font-size="15.00">Distribute</text>
</g>
<!-- 2458778984016&#45;&#45;2458778988576 -->
<g id="edge27" class="edge">
<title>2458778984016&#45;&#45;2458778988576</title>
<path fill="none" stroke="black" d="M1222.01,-617C1287.67,-629.96 1464.12,-664.79 1547.3,-681.21"/>
</g>
<!-- 2458778987616 -->
<g id="node33" class="node">
<title>2458778987616</title>
<ellipse fill="none" stroke="black" cx="1592.85" cy="-636" rx="127.61" ry="18"/>
<text text-anchor="middle" x="1592.85" y="-630" font-family="Times New Roman,serif" font-size="15.00">Form subcases completeness</text>
</g>
<!-- 2458778984016&#45;&#45;2458778987616 -->
<g id="edge28" class="edge">
<title>2458778984016&#45;&#45;2458778987616</title>
<path fill="none" stroke="black" d="M1222.92,-613.59C1273.43,-616.66 1386.95,-623.56 1474.82,-628.89"/>
</g>
<!-- 2458778979648 -->
<g id="node34" class="node">
<title>2458778979648</title>
<ellipse fill="none" stroke="black" cx="1592.85" cy="-582" rx="83.08" ry="18"/>
<text text-anchor="middle" x="1592.85" y="-576" font-family="Times New Roman,serif" font-size="15.00">Amend procedure</text>
</g>
<!-- 2458778984016&#45;&#45;2458778979648 -->
<g id="edge29" class="edge">
<title>2458778984016&#45;&#45;2458778979648</title>
<path fill="none" stroke="black" d="M1222.92,-610.01C1281.36,-605.57 1424.14,-594.73 1513.97,-587.91"/>
</g>
<!-- 2458778992032 -->
<g id="node36" class="node">
<title>2458778992032</title>
<ellipse fill="none" stroke="black" cx="1195.68" cy="-543" rx="27" ry="18"/>
<text text-anchor="middle" x="1195.68" y="-537" font-family="Times New Roman,serif" font-size="15.00">xor</text>
</g>
<!-- 2458778985168&#45;&#45;2458778992032 -->
<g id="edge34" class="edge">
<title>2458778985168&#45;&#45;2458778992032</title>
<path fill="none" stroke="black" d="M877.12,-543C941.31,-543 1104.85,-543 1168.64,-543"/>
</g>
<!-- 2458778989104 -->
<g id="node39" class="node">
<title>2458778989104</title>
<ellipse fill="none" stroke="black" cx="1195.68" cy="-489" rx="143.99" ry="18"/>
<text text-anchor="middle" x="1195.68" y="-483" font-family="Times New Roman,serif" font-size="15.00">Transmit procedure confirmation</text>
</g>
<!-- 2458778985168&#45;&#45;2458778989104 -->
<g id="edge35" class="edge">
<title>2458778985168&#45;&#45;2458778989104</title>
<path fill="none" stroke="black" d="M876.27,-538.99C923.76,-531.53 1027.66,-515.22 1103.92,-503.25"/>
</g>
<!-- 2458779332688 -->
<g id="node37" class="node">
<title>2458779332688</title>
<ellipse fill="black" stroke="black" cx="1592.85" cy="-543" rx="2.7" ry="2.7"/>
</g>
<!-- 2458778992032&#45;&#45;2458779332688 -->
<g id="edge32" class="edge">
<title>2458778992032&#45;&#45;2458779332688</title>
<path fill="none" stroke="black" d="M1222.92,-543C1306.7,-543 1563.84,-543 1589.74,-543"/>
</g>
<!-- 2458779329616 -->
<g id="node38" class="node">
<title>2458779329616</title>
<ellipse fill="none" stroke="black" cx="1592.85" cy="-504" rx="112.77" ry="18"/>
<text text-anchor="middle" x="1592.85" y="-498" font-family="Times New Roman,serif" font-size="15.00">Initiate WABOprocedure</text>
</g>
<!-- 2458778992032&#45;&#45;2458779329616 -->
<g id="edge33" class="edge">
<title>2458778992032&#45;&#45;2458779329616</title>
<path fill="none" stroke="black" d="M1222.61,-540.44C1277.04,-535.07 1405.62,-522.38 1495.66,-513.49"/>
</g>
<!-- 2458778978112 -->
<g id="node41" class="node">
<title>2458778978112</title>
<ellipse fill="none" stroke="black" cx="516.51" cy="-504" rx="61.08" ry="18"/>
<text text-anchor="middle" x="516.51" y="-498" font-family="Times New Roman,serif" font-size="15.00">case closure</text>
</g>
<!-- 2458778988672&#45;&#45;2458778978112 -->
<g id="edge39" class="edge">
<title>2458778988672&#45;&#45;2458778978112</title>
<path fill="none" stroke="black" d="M246.82,-479.4C293.9,-483.71 393.89,-492.86 457.73,-498.71"/>
</g>
<!-- 2458778984688 -->
<g id="node42" class="node">
<title>2458778984688</title>
<ellipse fill="none" stroke="black" cx="516.51" cy="-450" rx="27" ry="18"/>
<text text-anchor="middle" x="516.51" y="-444" font-family="Times New Roman,serif" font-size="15.00">seq</text>
</g>
<!-- 2458778988672&#45;&#45;2458778984688 -->
<g id="edge44" class="edge">
<title>2458778988672&#45;&#45;2458778984688</title>
<path fill="none" stroke="black" d="M246.82,-474.6C302.78,-469.48 433.5,-457.51 489.4,-452.39"/>
</g>
<!-- 2458779328368 -->
<g id="node47" class="node">
<title>2458779328368</title>
<ellipse fill="none" stroke="black" cx="516.51" cy="-269" rx="27" ry="18"/>
<text text-anchor="middle" x="516.51" y="-263" font-family="Times New Roman,serif" font-size="15.00">seq</text>
</g>
<!-- 2458778988672&#45;&#45;2458779328368 -->
<g id="edge61" class="edge">
<title>2458778988672&#45;&#45;2458779328368</title>
<path fill="none" stroke="black" d="M239.1,-463.99C292.05,-426.63 444.13,-319.35 497.07,-282.01"/>
</g>
<!-- 2458779322848 -->
<g id="node43" class="node">
<title>2458779322848</title>
<ellipse fill="none" stroke="black" cx="849.7" cy="-477" rx="166" ry="18"/>
<text text-anchor="middle" x="849.7" y="-471" font-family="Times New Roman,serif" font-size="15.00">Input senddate procedure confirmation</text>
</g>
<!-- 2458778984688&#45;&#45;2458779322848 -->
<g id="edge40" class="edge">
<title>2458778984688&#45;&#45;2458779322848</title>
<path fill="none" stroke="black" d="M543.77,-452.14C580.95,-455.17 651.53,-460.93 715.42,-466.13"/>
</g>
<!-- 2458779322080 -->
<g id="node44" class="node">
<title>2458779322080</title>
<ellipse fill="none" stroke="black" cx="849.7" cy="-423" rx="27" ry="18"/>
<text text-anchor="middle" x="849.7" y="-417" font-family="Times New Roman,serif" font-size="15.00">xor</text>
</g>
<!-- 2458778984688&#45;&#45;2458779322080 -->
<g id="edge43" class="edge">
<title>2458778984688&#45;&#45;2458779322080</title>
<path fill="none" stroke="black" d="M543.77,-447.86C605.74,-442.81 760.47,-430.19 822.43,-425.14"/>
</g>
<!-- 2458779320976 -->
<g id="node45" class="node">
<title>2458779320976</title>
<ellipse fill="black" stroke="black" cx="1195.68" cy="-443" rx="2.7" ry="2.7"/>
</g>
<!-- 2458779322080&#45;&#45;2458779320976 -->
<g id="edge41" class="edge">
<title>2458779322080&#45;&#45;2458779320976</title>
<path fill="none" stroke="black" d="M876.84,-424.52C952.72,-428.93 1169.17,-441.52 1192.62,-442.88"/>
</g>
<!-- 2458779327072 -->
<g id="node46" class="node">
<title>2458779327072</title>
<ellipse fill="none" stroke="black" cx="1195.68" cy="-404" rx="118.91" ry="18"/>
<text text-anchor="middle" x="1195.68" y="-398" font-family="Times New Roman,serif" font-size="15.00">Document date publication</text>
</g>
<!-- 2458779322080&#45;&#45;2458779327072 -->
<g id="edge42" class="edge">
<title>2458779322080&#45;&#45;2458779327072</title>
<path fill="none" stroke="black" d="M876.84,-421.56C920.34,-419.15 1010.06,-414.2 1083.11,-410.16"/>
</g>
<!-- 2458779329760 -->
<g id="node48" class="node">
<title>2458779329760</title>
<ellipse fill="none" stroke="black" cx="849.7" cy="-296" rx="27" ry="18"/>
<text text-anchor="middle" x="849.7" y="-290" font-family="Times New Roman,serif" font-size="15.00">xor</text>
</g>
<!-- 2458779328368&#45;&#45;2458779329760 -->
<g id="edge56" class="edge">
<title>2458779328368&#45;&#45;2458779329760</title>
<path fill="none" stroke="black" d="M543.77,-271.14C605.74,-276.19 760.47,-288.81 822.43,-293.86"/>
</g>
<!-- 2458779336528 -->
<g id="node60" class="node">
<title>2458779336528</title>
<ellipse fill="none" stroke="black" cx="849.7" cy="-242" rx="111.23" ry="18"/>
<text text-anchor="middle" x="849.7" y="-236" font-family="Times New Roman,serif" font-size="15.00">Phase procedure aborted</text>
</g>
<!-- 2458779328368&#45;&#45;2458779336528 -->
<g id="edge57" class="edge">
<title>2458779328368&#45;&#45;2458779336528</title>
<path fill="none" stroke="black" d="M543.77,-266.86C587.76,-263.27 678.49,-255.88 749.61,-250.08"/>
</g>
<!-- 2458779336000 -->
<g id="node61" class="node">
<title>2458779336000</title>
<ellipse fill="none" stroke="black" cx="849.7" cy="-141" rx="27" ry="18"/>
<text text-anchor="middle" x="849.7" y="-135" font-family="Times New Roman,serif" font-size="15.00">xor</text>
</g>
<!-- 2458779328368&#45;&#45;2458779336000 -->
<g id="edge60" class="edge">
<title>2458779328368&#45;&#45;2458779336000</title>
<path fill="none" stroke="black" d="M540.54,-260.1C601.27,-236.63 765.27,-173.24 825.83,-149.84"/>
</g>
<!-- 2458779329472 -->
<g id="node49" class="node">
<title>2458779329472</title>
<ellipse fill="none" stroke="black" cx="1195.68" cy="-342" rx="27" ry="18"/>
<text text-anchor="middle" x="1195.68" y="-336" font-family="Times New Roman,serif" font-size="15.00">and</text>
</g>
<!-- 2458779329760&#45;&#45;2458779329472 -->
<g id="edge49" class="edge">
<title>2458779329760&#45;&#45;2458779329472</title>
<path fill="none" stroke="black" d="M876.55,-299.46C940.46,-308 1105.27,-330.04 1169,-338.57"/>
</g>
<!-- 2458779336240 -->
<g id="node54" class="node">
<title>2458779336240</title>
<ellipse fill="none" stroke="black" cx="1195.68" cy="-180" rx="27" ry="18"/>
<text text-anchor="middle" x="1195.68" y="-174" font-family="Times New Roman,serif" font-size="15.00">seq</text>
</g>
<!-- 2458779329760&#45;&#45;2458779336240 -->
<g id="edge55" class="edge">
<title>2458779329760&#45;&#45;2458779336240</title>
<path fill="none" stroke="black" d="M874.34,-288.03C937.34,-266.78 1108.67,-209.01 1171.33,-187.88"/>
</g>
<!-- 2458779332208 -->
<g id="node50" class="node">
<title>2458779332208</title>
<ellipse fill="none" stroke="black" cx="1592.85" cy="-450" rx="191.08" ry="18"/>
<text text-anchor="middle" x="1592.85" y="-444" font-family="Times New Roman,serif" font-size="15.00">No permit needed or just notification needed</text>
</g>
<!-- 2458779329472&#45;&#45;2458779332208 -->
<g id="edge45" class="edge">
<title>2458779329472&#45;&#45;2458779332208</title>
<path fill="none" stroke="black" d="M1221.11,-348.67C1281.52,-365.18 1439.48,-408.36 1528.5,-432.69"/>
</g>
<!-- 2458779329232 -->
<g id="node51" class="node">
<title>2458779329232</title>
<ellipse fill="none" stroke="black" cx="1592.85" cy="-396" rx="173.67" ry="18"/>
<text text-anchor="middle" x="1592.85" y="-390" font-family="Times New Roman,serif" font-size="15.00">draft letter indicating no permit required</text>
</g>
<!-- 2458779329472&#45;&#45;2458779329232 -->
<g id="edge46" class="edge">
<title>2458779329472&#45;&#45;2458779329232</title>
<path fill="none" stroke="black" d="M1222.61,-345.54C1275.07,-352.71 1396.38,-369.29 1485.71,-381.5"/>
</g>
<!-- 2458779326016 -->
<g id="node52" class="node">
<title>2458779326016</title>
<ellipse fill="none" stroke="black" cx="1592.85" cy="-342" rx="81.04" ry="18"/>
<text text-anchor="middle" x="1592.85" y="-336" font-family="Times New Roman,serif" font-size="15.00">Register due date</text>
</g>
<!-- 2458779329472&#45;&#45;2458779326016 -->
<g id="edge47" class="edge">
<title>2458779329472&#45;&#45;2458779326016</title>
<path fill="none" stroke="black" d="M1222.92,-342C1280.84,-342 1421.62,-342 1511.57,-342"/>
</g>
<!-- 2458779322464 -->
<g id="node53" class="node">
<title>2458779322464</title>
<ellipse fill="none" stroke="black" cx="1592.85" cy="-288" rx="217.18" ry="18"/>
<text text-anchor="middle" x="1592.85" y="-282" font-family="Times New Roman,serif" font-size="15.00">log senddate letter no permit or notification needed</text>
</g>
<!-- 2458779329472&#45;&#45;2458779322464 -->
<g id="edge48" class="edge">
<title>2458779329472&#45;&#45;2458779322464</title>
<path fill="none" stroke="black" d="M1222.61,-338.46C1273.44,-331.51 1388.91,-315.73 1477.29,-303.66"/>
</g>
<!-- 2458779328512 -->
<g id="node55" class="node">
<title>2458779328512</title>
<ellipse fill="none" stroke="black" cx="1592.85" cy="-234" rx="152.69" ry="18"/>
<text text-anchor="middle" x="1592.85" y="-228" font-family="Times New Roman,serif" font-size="15.00">send request to competent authority</text>
</g>
<!-- 2458779336240&#45;&#45;2458779328512 -->
<g id="edge50" class="edge">
<title>2458779336240&#45;&#45;2458779328512</title>
<path fill="none" stroke="black" d="M1222.61,-183.54C1276.1,-190.85 1401.18,-207.94 1490.93,-220.21"/>
</g>
<!-- 2458779335280 -->
<g id="node56" class="node">
<title>2458779335280</title>
<ellipse fill="none" stroke="black" cx="1592.85" cy="-180" rx="180.33" ry="18"/>
<text text-anchor="middle" x="1592.85" y="-174" font-family="Times New Roman,serif" font-size="15.00">note the senddate for letter to the authority</text>
</g>
<!-- 2458779336240&#45;&#45;2458779335280 -->
<g id="edge51" class="edge">
<title>2458779336240&#45;&#45;2458779335280</title>
<path fill="none" stroke="black" d="M1222.92,-180C1261.96,-180 1338.66,-180 1412.06,-180"/>
</g>
<!-- 2458779324336 -->
<g id="node57" class="node">
<title>2458779324336</title>
<ellipse fill="none" stroke="black" cx="1592.85" cy="-126" rx="133.75" ry="18"/>
<text text-anchor="middle" x="1592.85" y="-120" font-family="Times New Roman,serif" font-size="15.00">send transcript to stakeholders</text>
</g>
<!-- 2458779336240&#45;&#45;2458779324336 -->
<g id="edge52" class="edge">
<title>2458779336240&#45;&#45;2458779324336</title>
<path fill="none" stroke="black" d="M1222.61,-176.46C1277.39,-168.97 1407.24,-151.23 1497.36,-138.91"/>
</g>
<!-- 2458779330096 -->
<g id="node58" class="node">
<title>2458779330096</title>
<ellipse fill="none" stroke="black" cx="1592.85" cy="-72" rx="167.02" ry="18"/>
<text text-anchor="middle" x="1592.85" y="-66" font-family="Times New Roman,serif" font-size="15.00">note senddate for letter to stakeholders</text>
</g>
<!-- 2458779336240&#45;&#45;2458779330096 -->
<g id="edge53" class="edge">
<title>2458779336240&#45;&#45;2458779330096</title>
<path fill="none" stroke="black" d="M1221.11,-173.33C1281.68,-156.77 1440.36,-113.4 1529.24,-89.11"/>
</g>
<!-- 2458779320688 -->
<g id="node59" class="node">
<title>2458779320688</title>
<ellipse fill="none" stroke="black" cx="1592.85" cy="-18" rx="146.55" ry="18"/>
<text text-anchor="middle" x="1592.85" y="-12" font-family="Times New Roman,serif" font-size="15.00">send phase to competent authority</text>
</g>
<!-- 2458779336240&#45;&#45;2458779320688 -->
<g id="edge54" class="edge">
<title>2458779336240&#45;&#45;2458779320688</title>
<path fill="none" stroke="black" d="M1219.35,-170.71C1283.23,-144.52 1465.49,-69.8 1549.05,-35.54"/>
</g>
<!-- 2458779329808 -->
<g id="node62" class="node">
<title>2458779329808</title>
<ellipse fill="black" stroke="black" cx="1195.68" cy="-141" rx="2.7" ry="2.7"/>
</g>
<!-- 2458779336000&#45;&#45;2458779329808 -->
<g id="edge58" class="edge">
<title>2458779336000&#45;&#45;2458779329808</title>
<path fill="none" stroke="black" d="M877.12,-141C953.26,-141 1169.23,-141 1192.62,-141"/>
</g>
<!-- 2458779336576 -->
<g id="node63" class="node">
<title>2458779336576</title>
<ellipse fill="none" stroke="black" cx="1195.68" cy="-102" rx="69.78" ry="18"/>
<text text-anchor="middle" x="1195.68" y="-96" font-family="Times New Roman,serif" font-size="15.00">Conclude case</text>
</g>
<!-- 2458779336000&#45;&#45;2458779336576 -->
<g id="edge59" class="edge">
<title>2458779336000&#45;&#45;2458779336576</title>
<path fill="none" stroke="black" d="M876.84,-138.04C930.61,-131.94 1054.99,-117.84 1131.23,-109.19"/>
</g>
</g>
</svg>
