<?xml version="1.0" encoding="UTF-8" standalone="no"?>
<!DOCTYPE svg PUBLIC "-//W3C//DTD SVG 1.1//EN"
 "http://www.w3.org/Graphics/SVG/1.1/DTD/svg11.dtd">
<!-- Generated by graphviz version 11.0.0 (20240428.1522)
 -->
<!-- Title: pt Pages: 1 -->
<svg width="3879pt" height="715pt"
 viewBox="0.00 0.00 3878.94 714.70" xmlns="http://www.w3.org/2000/svg" xmlns:xlink="http://www.w3.org/1999/xlink">
<g id="graph0" class="graph" transform="scale(1 1) rotate(0) translate(4 710.7)">
<title>pt</title>
<polygon fill="white" stroke="none" points="-4,4 -4,-710.7 3874.94,-710.7 3874.94,4 -4,4"/>
<!-- 2433055723680 -->
<g id="node1" class="node">
<title>2433055723680</title>
<ellipse fill="none" stroke="black" cx="27" cy="-513" rx="27" ry="18"/>
<text text-anchor="middle" x="27" y="-507" font-family="Times New Roman,serif" font-size="15.00">seq</text>
</g>
<!-- 2433058297888 -->
<g id="node2" class="node">
<title>2433058297888</title>
<ellipse fill="none" stroke="black" cx="117" cy="-579" rx="27" ry="18"/>
<text text-anchor="middle" x="117" y="-573" font-family="Times New Roman,serif" font-size="15.00">and</text>
</g>
<!-- 2433055723680&#45;&#45;2433058297888 -->
<g id="edge67" class="edge">
<title>2433055723680&#45;&#45;2433058297888</title>
<path fill="none" stroke="black" d="M45.81,-526.36C61.08,-537.81 82.96,-554.22 98.22,-565.66"/>
</g>
<!-- 2433058298560 -->
<g id="node69" class="node">
<title>2433058298560</title>
<ellipse fill="none" stroke="black" cx="117" cy="-474" rx="27" ry="18"/>
<text text-anchor="middle" x="117" y="-468" font-family="Times New Roman,serif" font-size="15.00">xor</text>
</g>
<!-- 2433055723680&#45;&#45;2433058298560 -->
<g id="edge74" class="edge">
<title>2433055723680&#45;&#45;2433058298560</title>
<path fill="none" stroke="black" d="M50.21,-503.16C63.55,-497.25 80.46,-489.75 93.8,-483.84"/>
</g>
<!-- 2433058298608 -->
<g id="node3" class="node">
<title>2433058298608</title>
<ellipse fill="none" stroke="black" cx="320.41" cy="-660" rx="119.93" ry="18"/>
<text text-anchor="middle" x="320.41" y="-654" font-family="Times New Roman,serif" font-size="15.00">phase application received</text>
</g>
<!-- 2433058297888&#45;&#45;2433058298608 -->
<g id="edge1" class="edge">
<title>2433058297888&#45;&#45;2433058298608</title>
<path fill="none" stroke="black" d="M140.71,-588.13C173.63,-601.37 235.2,-626.14 276.75,-642.85"/>
</g>
<!-- 2433058298896 -->
<g id="node4" class="node">
<title>2433058298896</title>
<ellipse fill="none" stroke="black" cx="320.41" cy="-606" rx="140.41" ry="18"/>
<text text-anchor="middle" x="320.41" y="-600" font-family="Times New Roman,serif" font-size="15.00">register submission date request</text>
</g>
<!-- 2433058297888&#45;&#45;2433058298896 -->
<g id="edge2" class="edge">
<title>2433058297888&#45;&#45;2433058298896</title>
<path fill="none" stroke="black" d="M143.92,-582.47C163.89,-585.15 192.86,-589.04 221.52,-592.88"/>
</g>
<!-- 2433058298944 -->
<g id="node5" class="node">
<title>2433058298944</title>
<ellipse fill="none" stroke="black" cx="320.41" cy="-552" rx="27" ry="18"/>
<text text-anchor="middle" x="320.41" y="-546" font-family="Times New Roman,serif" font-size="15.00">seq</text>
</g>
<!-- 2433058297888&#45;&#45;2433058298944 -->
<g id="edge66" class="edge">
<title>2433058297888&#45;&#45;2433058298944</title>
<path fill="none" stroke="black" d="M143.92,-575.53C182.59,-570.34 254.97,-560.64 293.59,-555.46"/>
</g>
<!-- 2433058299664 -->
<g id="node6" class="node">
<title>2433058299664</title>
<ellipse fill="none" stroke="black" cx="686.35" cy="-629" rx="27" ry="18"/>
<text text-anchor="middle" x="686.35" y="-623" font-family="Times New Roman,serif" font-size="15.00">xor</text>
</g>
<!-- 2433058298944&#45;&#45;2433058299664 -->
<g id="edge5" class="edge">
<title>2433058298944&#45;&#45;2433058299664</title>
<path fill="none" stroke="black" d="M346.71,-557.35C413.45,-571.47 593.67,-609.6 660.22,-623.68"/>
</g>
<!-- 2433058299184 -->
<g id="node9" class="node">
<title>2433058299184</title>
<ellipse fill="none" stroke="black" cx="686.35" cy="-552" rx="27" ry="18"/>
<text text-anchor="middle" x="686.35" y="-546" font-family="Times New Roman,serif" font-size="15.00">xor</text>
</g>
<!-- 2433058298944&#45;&#45;2433058299184 -->
<g id="edge22" class="edge">
<title>2433058298944&#45;&#45;2433058299184</title>
<path fill="none" stroke="black" d="M347.87,-552C415.1,-552 591.86,-552 658.98,-552"/>
</g>
<!-- 2433058300336 -->
<g id="node26" class="node">
<title>2433058300336</title>
<ellipse fill="none" stroke="black" cx="686.35" cy="-489" rx="27" ry="18"/>
<text text-anchor="middle" x="686.35" y="-483" font-family="Times New Roman,serif" font-size="15.00">and</text>
</g>
<!-- 2433058298944&#45;&#45;2433058300336 -->
<g id="edge65" class="edge">
<title>2433058298944&#45;&#45;2433058300336</title>
<path fill="none" stroke="black" d="M347,-547.57C413.82,-536 593,-504.99 659.79,-493.43"/>
</g>
<!-- 2433058299904 -->
<g id="node7" class="node">
<title>2433058299904</title>
<ellipse fill="black" stroke="black" cx="1061.51" cy="-668" rx="2.7" ry="2.7"/>
</g>
<!-- 2433058299664&#45;&#45;2433058299904 -->
<g id="edge3" class="edge">
<title>2433058299664&#45;&#45;2433058299904</title>
<path fill="none" stroke="black" d="M713.3,-631.71C793.62,-640.11 1034.3,-665.26 1058.54,-667.79"/>
</g>
<!-- 2433058299952 -->
<g id="node8" class="node">
<title>2433058299952</title>
<ellipse fill="none" stroke="black" cx="1061.51" cy="-629" rx="102.02" ry="18"/>
<text text-anchor="middle" x="1061.51" y="-623" font-family="Times New Roman,serif" font-size="15.00">OLO messaging active</text>
</g>
<!-- 2433058299664&#45;&#45;2433058299952 -->
<g id="edge4" class="edge">
<title>2433058299664&#45;&#45;2433058299952</title>
<path fill="none" stroke="black" d="M713.59,-629C763.77,-629 875.76,-629 959,-629"/>
</g>
<!-- 2433058300288 -->
<g id="node10" class="node">
<title>2433058300288</title>
<ellipse fill="black" stroke="black" cx="1061.51" cy="-590" rx="2.7" ry="2.7"/>
</g>
<!-- 2433058299184&#45;&#45;2433058300288 -->
<g id="edge6" class="edge">
<title>2433058299184&#45;&#45;2433058300288</title>
<path fill="none" stroke="black" d="M713.3,-554.64C793.62,-562.82 1034.3,-587.33 1058.54,-589.8"/>
</g>
<!-- 2433058300576 -->
<g id="node11" class="node">
<title>2433058300576</title>
<ellipse fill="none" stroke="black" cx="1061.51" cy="-551" rx="27" ry="18"/>
<text text-anchor="middle" x="1061.51" y="-545" font-family="Times New Roman,serif" font-size="15.00">seq</text>
</g>
<!-- 2433058299184&#45;&#45;2433058300576 -->
<g id="edge21" class="edge">
<title>2433058299184&#45;&#45;2433058300576</title>
<path fill="none" stroke="black" d="M713.59,-551.93C782.11,-551.75 965.82,-551.25 1034.3,-551.07"/>
</g>
<!-- 2433058300528 -->
<g id="node12" class="node">
<title>2433058300528</title>
<ellipse fill="none" stroke="black" cx="1349.15" cy="-617" rx="27" ry="18"/>
<text text-anchor="middle" x="1349.15" y="-611" font-family="Times New Roman,serif" font-size="15.00">and</text>
</g>
<!-- 2433058300576&#45;&#45;2433058300528 -->
<g id="edge11" class="edge">
<title>2433058300576&#45;&#45;2433058300528</title>
<path fill="none" stroke="black" d="M1087.36,-556.74C1141.38,-569.22 1269,-598.71 1323.15,-611.22"/>
</g>
<!-- 2433058301344 -->
<g id="node17" class="node">
<title>2433058301344</title>
<ellipse fill="none" stroke="black" cx="1349.15" cy="-551" rx="27" ry="18"/>
<text text-anchor="middle" x="1349.15" y="-545" font-family="Times New Roman,serif" font-size="15.00">xor</text>
</g>
<!-- 2433058300576&#45;&#45;2433058301344 -->
<g id="edge20" class="edge">
<title>2433058300576&#45;&#45;2433058301344</title>
<path fill="none" stroke="black" d="M1088.87,-551C1143.29,-551 1267.49,-551 1321.85,-551"/>
</g>
<!-- 2433058301296 -->
<g id="node13" class="node">
<title>2433058301296</title>
<ellipse fill="none" stroke="black" cx="1617.85" cy="-671" rx="27" ry="18"/>
<text text-anchor="middle" x="1617.85" y="-665" font-family="Times New Roman,serif" font-size="15.00">xor</text>
</g>
<!-- 2433058300528&#45;&#45;2433058301296 -->
<g id="edge9" class="edge">
<title>2433058300528&#45;&#45;2433058301296</title>
<path fill="none" stroke="black" d="M1375.24,-622.08C1426.07,-632.37 1540.69,-655.58 1591.63,-665.89"/>
</g>
<!-- 2433058301776 -->
<g id="node16" class="node">
<title>2433058301776</title>
<ellipse fill="none" stroke="black" cx="1617.85" cy="-617" rx="92.3" ry="18"/>
<text text-anchor="middle" x="1617.85" y="-611" font-family="Times New Roman,serif" font-size="15.00">terminate on request</text>
</g>
<!-- 2433058300528&#45;&#45;2433058301776 -->
<g id="edge10" class="edge">
<title>2433058300528&#45;&#45;2433058301776</title>
<path fill="none" stroke="black" d="M1376.21,-617C1410.55,-617 1472.76,-617 1525.32,-617"/>
</g>
<!-- 2433058302160 -->
<g id="node14" class="node">
<title>2433058302160</title>
<ellipse fill="black" stroke="black" cx="1952.58" cy="-704" rx="2.7" ry="2.7"/>
</g>
<!-- 2433058301296&#45;&#45;2433058302160 -->
<g id="edge7" class="edge">
<title>2433058301296&#45;&#45;2433058302160</title>
<path fill="none" stroke="black" d="M1644.96,-673.59C1719.11,-680.94 1927.07,-701.57 1949.59,-703.8"/>
</g>
<!-- 2433058301920 -->
<g id="node15" class="node">
<title>2433058301920</title>
<ellipse fill="none" stroke="black" cx="1952.58" cy="-665" rx="168.04" ry="18"/>
<text text-anchor="middle" x="1952.58" y="-659" font-family="Times New Roman,serif" font-size="15.00">enter date termination request received</text>
</g>
<!-- 2433058301296&#45;&#45;2433058301920 -->
<g id="edge8" class="edge">
<title>2433058301296&#45;&#45;2433058301920</title>
<path fill="none" stroke="black" d="M1645.24,-670.52C1676.59,-669.96 1731.59,-668.97 1786.42,-667.98"/>
</g>
<!-- 2433058302112 -->
<g id="node18" class="node">
<title>2433058302112</title>
<ellipse fill="black" stroke="black" cx="1617.85" cy="-578" rx="2.7" ry="2.7"/>
</g>
<!-- 2433058301344&#45;&#45;2433058302112 -->
<g id="edge12" class="edge">
<title>2433058301344&#45;&#45;2433058302112</title>
<path fill="none" stroke="black" d="M1376.21,-553.64C1439.12,-560.01 1595.57,-575.85 1614.89,-577.8"/>
</g>
<!-- 2433058302496 -->
<g id="node19" class="node">
<title>2433058302496</title>
<ellipse fill="none" stroke="black" cx="1617.85" cy="-539" rx="27" ry="18"/>
<text text-anchor="middle" x="1617.85" y="-533" font-family="Times New Roman,serif" font-size="15.00">seq</text>
</g>
<!-- 2433058301344&#45;&#45;2433058302496 -->
<g id="edge19" class="edge">
<title>2433058301344&#45;&#45;2433058302496</title>
<path fill="none" stroke="black" d="M1376.21,-549.83C1427.19,-547.53 1539.61,-542.48 1590.69,-540.18"/>
</g>
<!-- 2433058302448 -->
<g id="node20" class="node">
<title>2433058302448</title>
<ellipse fill="none" stroke="black" cx="1952.58" cy="-599" rx="27" ry="18"/>
<text text-anchor="middle" x="1952.58" y="-593" font-family="Times New Roman,serif" font-size="15.00">and</text>
</g>
<!-- 2433058302496&#45;&#45;2433058302448 -->
<g id="edge15" class="edge">
<title>2433058302496&#45;&#45;2433058302448</title>
<path fill="none" stroke="black" d="M1644.41,-543.61C1706.49,-554.8 1864.68,-583.33 1926.39,-594.46"/>
</g>
<!-- 2433058303264 -->
<g id="node23" class="node">
<title>2433058303264</title>
<ellipse fill="none" stroke="black" cx="1952.58" cy="-539" rx="27" ry="18"/>
<text text-anchor="middle" x="1952.58" y="-533" font-family="Times New Roman,serif" font-size="15.00">and</text>
</g>
<!-- 2433058302496&#45;&#45;2433058303264 -->
<g id="edge18" class="edge">
<title>2433058302496&#45;&#45;2433058303264</title>
<path fill="none" stroke="black" d="M1645.24,-539C1707.49,-539 1862.93,-539 1925.19,-539"/>
</g>
<!-- 2433058303072 -->
<g id="node21" class="node">
<title>2433058303072</title>
<ellipse fill="none" stroke="black" cx="2322.62" cy="-653" rx="116.35" ry="18"/>
<text text-anchor="middle" x="2322.62" y="-647" font-family="Times New Roman,serif" font-size="15.00">message terminate request</text>
</g>
<!-- 2433058302448&#45;&#45;2433058303072 -->
<g id="edge13" class="edge">
<title>2433058302448&#45;&#45;2433058303072</title>
<path fill="none" stroke="black" d="M1979.46,-602.8C2032.06,-610.52 2153.51,-628.34 2236.61,-640.53"/>
</g>
<!-- 2433058303216 -->
<g id="node22" class="node">
<title>2433058303216</title>
<ellipse fill="none" stroke="black" cx="2322.62" cy="-599" rx="148.59" ry="18"/>
<text text-anchor="middle" x="2322.62" y="-593" font-family="Times New Roman,serif" font-size="15.00">enter senddate request termination</text>
</g>
<!-- 2433058302448&#45;&#45;2433058303216 -->
<g id="edge14" class="edge">
<title>2433058302448&#45;&#45;2433058303216</title>
<path fill="none" stroke="black" d="M1980.04,-599C2020.59,-599 2101.03,-599 2173.66,-599"/>
</g>
<!-- 2433058303648 -->
<g id="node24" class="node">
<title>2433058303648</title>
<ellipse fill="none" stroke="black" cx="2322.62" cy="-545" rx="78.99" ry="18"/>
<text text-anchor="middle" x="2322.62" y="-539" font-family="Times New Roman,serif" font-size="15.00">register deadline</text>
</g>
<!-- 2433058303264&#45;&#45;2433058303648 -->
<g id="edge16" class="edge">
<title>2433058303264&#45;&#45;2433058303648</title>
<path fill="none" stroke="black" d="M1980.04,-539.43C2034.44,-540.32 2160.61,-542.38 2243.44,-543.73"/>
</g>
<!-- 2433058303936 -->
<g id="node25" class="node">
<title>2433058303936</title>
<ellipse fill="none" stroke="black" cx="2322.62" cy="-491" rx="110.72" ry="18"/>
<text text-anchor="middle" x="2322.62" y="-485" font-family="Times New Roman,serif" font-size="15.00">phase procedure aborted</text>
</g>
<!-- 2433058303264&#45;&#45;2433058303936 -->
<g id="edge17" class="edge">
<title>2433058303264&#45;&#45;2433058303936</title>
<path fill="none" stroke="black" d="M1979.46,-535.62C2031.73,-528.81 2152,-513.12 2235.05,-502.29"/>
</g>
<!-- 2433058301248 -->
<g id="node27" class="node">
<title>2433058301248</title>
<ellipse fill="none" stroke="black" cx="1061.51" cy="-491" rx="149.62" ry="18"/>
<text text-anchor="middle" x="1061.51" y="-485" font-family="Times New Roman,serif" font-size="15.00">forward to the competent authority</text>
</g>
<!-- 2433058300336&#45;&#45;2433058301248 -->
<g id="edge23" class="edge">
<title>2433058300336&#45;&#45;2433058301248</title>
<path fill="none" stroke="black" d="M713.59,-489.14C754.73,-489.36 837.41,-489.8 911.74,-490.2"/>
</g>
<!-- 2433058301968 -->
<g id="node28" class="node">
<title>2433058301968</title>
<ellipse fill="none" stroke="black" cx="1061.51" cy="-437" rx="27" ry="18"/>
<text text-anchor="middle" x="1061.51" y="-431" font-family="Times New Roman,serif" font-size="15.00">xor</text>
</g>
<!-- 2433058300336&#45;&#45;2433058301968 -->
<g id="edge26" class="edge">
<title>2433058300336&#45;&#45;2433058301968</title>
<path fill="none" stroke="black" d="M713.3,-485.38C781.72,-475.85 966.51,-450.1 1034.74,-440.59"/>
</g>
<!-- 2433058302544 -->
<g id="node31" class="node">
<title>2433058302544</title>
<ellipse fill="none" stroke="black" cx="1061.51" cy="-275" rx="27" ry="18"/>
<text text-anchor="middle" x="1061.51" y="-269" font-family="Times New Roman,serif" font-size="15.00">seq</text>
</g>
<!-- 2433058300336&#45;&#45;2433058302544 -->
<g id="edge64" class="edge">
<title>2433058300336&#45;&#45;2433058302544</title>
<path fill="none" stroke="black" d="M707.68,-477.34C772.77,-440.01 975.59,-323.7 1040.39,-286.54"/>
</g>
<!-- 2433058303696 -->
<g id="node29" class="node">
<title>2433058303696</title>
<ellipse fill="black" stroke="black" cx="1349.15" cy="-457" rx="2.7" ry="2.7"/>
</g>
<!-- 2433058301968&#45;&#45;2433058303696 -->
<g id="edge24" class="edge">
<title>2433058301968&#45;&#45;2433058303696</title>
<path fill="none" stroke="black" d="M1088.87,-438.85C1155.16,-443.49 1325.04,-455.38 1346.01,-456.85"/>
</g>
<!-- 2433058303552 -->
<g id="node30" class="node">
<title>2433058303552</title>
<ellipse fill="none" stroke="black" cx="1349.15" cy="-418" rx="102.02" ry="18"/>
<text text-anchor="middle" x="1349.15" y="-412" font-family="Times New Roman,serif" font-size="15.00">start WABOprocedure</text>
</g>
<!-- 2433058301968&#45;&#45;2433058303552 -->
<g id="edge25" class="edge">
<title>2433058301968&#45;&#45;2433058303552</title>
<path fill="none" stroke="black" d="M1088.87,-435.25C1125.88,-432.78 1195.19,-428.17 1252.84,-424.34"/>
</g>
<!-- 2433058303888 -->
<g id="node32" class="node">
<title>2433058303888</title>
<ellipse fill="none" stroke="black" cx="1349.15" cy="-275" rx="45.21" ry="18"/>
<text text-anchor="middle" x="1349.15" y="-269" font-family="Times New Roman,serif" font-size="15.00">xor loop</text>
</g>
<!-- 2433058302544&#45;&#45;2433058303888 -->
<g id="edge60" class="edge">
<title>2433058302544&#45;&#45;2433058303888</title>
<path fill="none" stroke="black" d="M1088.87,-275C1137.83,-275 1243.29,-275 1303.54,-275"/>
</g>
<!-- 2433058304704 -->
<g id="node66" class="node">
<title>2433058304704</title>
<ellipse fill="none" stroke="black" cx="1349.15" cy="-217" rx="27" ry="18"/>
<text text-anchor="middle" x="1349.15" y="-211" font-family="Times New Roman,serif" font-size="15.00">xor</text>
</g>
<!-- 2433058302544&#45;&#45;2433058304704 -->
<g id="edge63" class="edge">
<title>2433058302544&#45;&#45;2433058304704</title>
<path fill="none" stroke="black" d="M1087.86,-269.85C1142.06,-258.85 1268.7,-233.13 1322.86,-222.14"/>
</g>
<!-- 2433058304656 -->
<g id="node33" class="node">
<title>2433058304656</title>
<ellipse fill="none" stroke="black" cx="1617.85" cy="-279" rx="27" ry="18"/>
<text text-anchor="middle" x="1617.85" y="-273" font-family="Times New Roman,serif" font-size="15.00">seq</text>
</g>
<!-- 2433058303888&#45;&#45;2433058304656 -->
<g id="edge58" class="edge">
<title>2433058303888&#45;&#45;2433058304656</title>
<path fill="none" stroke="black" d="M1394.79,-275.67C1450.84,-276.51 1545.17,-277.92 1590.7,-278.61"/>
</g>
<!-- 2433058304560 -->
<g id="node65" class="node">
<title>2433058304560</title>
<ellipse fill="black" stroke="black" cx="1617.85" cy="-240" rx="2.7" ry="2.7"/>
</g>
<!-- 2433058303888&#45;&#45;2433058304560 -->
<g id="edge59" class="edge">
<title>2433058303888&#45;&#45;2433058304560</title>
<path fill="none" stroke="black" d="M1392.7,-269.42C1462.71,-260.23 1596.28,-242.7 1614.72,-240.28"/>
</g>
<!-- 2433058305376 -->
<g id="node34" class="node">
<title>2433058305376</title>
<ellipse fill="none" stroke="black" cx="1952.58" cy="-413" rx="27" ry="18"/>
<text text-anchor="middle" x="1952.58" y="-407" font-family="Times New Roman,serif" font-size="15.00">xor</text>
</g>
<!-- 2433058304656&#45;&#45;2433058305376 -->
<g id="edge29" class="edge">
<title>2433058304656&#45;&#45;2433058305376</title>
<path fill="none" stroke="black" d="M1641.46,-288.11C1702.16,-312.55 1868.2,-379.42 1928.94,-403.88"/>
</g>
<!-- 2433058304896 -->
<g id="node37" class="node">
<title>2433058304896</title>
<ellipse fill="none" stroke="black" cx="1952.58" cy="-316" rx="27" ry="18"/>
<text text-anchor="middle" x="1952.58" y="-310" font-family="Times New Roman,serif" font-size="15.00">xor</text>
</g>
<!-- 2433058304656&#45;&#45;2433058304896 -->
<g id="edge33" class="edge">
<title>2433058304656&#45;&#45;2433058304896</title>
<path fill="none" stroke="black" d="M1644.96,-281.9C1707.16,-288.82 1863.51,-306.21 1925.59,-313.11"/>
</g>
<!-- 2433058305952 -->
<g id="node41" class="node">
<title>2433058305952</title>
<ellipse fill="none" stroke="black" cx="1952.58" cy="-242" rx="27" ry="18"/>
<text text-anchor="middle" x="1952.58" y="-236" font-family="Times New Roman,serif" font-size="15.00">xor</text>
</g>
<!-- 2433058304656&#45;&#45;2433058305952 -->
<g id="edge51" class="edge">
<title>2433058304656&#45;&#45;2433058305952</title>
<path fill="none" stroke="black" d="M1644.96,-276.1C1707.16,-269.18 1863.51,-251.79 1925.59,-244.89"/>
</g>
<!-- 2433058306720 -->
<g id="node59" class="node">
<title>2433058306720</title>
<ellipse fill="none" stroke="black" cx="1952.58" cy="-164" rx="27" ry="18"/>
<text text-anchor="middle" x="1952.58" y="-158" font-family="Times New Roman,serif" font-size="15.00">xor</text>
</g>
<!-- 2433058304656&#45;&#45;2433058306720 -->
<g id="edge54" class="edge">
<title>2433058304656&#45;&#45;2433058306720</title>
<path fill="none" stroke="black" d="M1642.51,-270.82C1703.83,-249.63 1867.32,-193.12 1928.26,-172.06"/>
</g>
<!-- 2433058306576 -->
<g id="node62" class="node">
<title>2433058306576</title>
<ellipse fill="none" stroke="black" cx="1952.58" cy="-86" rx="27" ry="18"/>
<text text-anchor="middle" x="1952.58" y="-80" font-family="Times New Roman,serif" font-size="15.00">xor</text>
</g>
<!-- 2433058304656&#45;&#45;2433058306576 -->
<g id="edge57" class="edge">
<title>2433058304656&#45;&#45;2433058306576</title>
<path fill="none" stroke="black" d="M1638.92,-267.36C1698.21,-232.97 1872.16,-132.07 1931.49,-97.65"/>
</g>
<!-- 2433058305616 -->
<g id="node35" class="node">
<title>2433058305616</title>
<ellipse fill="black" stroke="black" cx="2322.62" cy="-452" rx="2.7" ry="2.7"/>
</g>
<!-- 2433058305376&#45;&#45;2433058305616 -->
<g id="edge27" class="edge">
<title>2433058305376&#45;&#45;2433058305616</title>
<path fill="none" stroke="black" d="M1979.75,-415.77C2059.56,-424.23 2295.88,-449.27 2319.68,-451.79"/>
</g>
<!-- 2433058305664 -->
<g id="node36" class="node">
<title>2433058305664</title>
<ellipse fill="none" stroke="black" cx="2322.62" cy="-413" rx="166" ry="18"/>
<text text-anchor="middle" x="2322.62" y="-407" font-family="Times New Roman,serif" font-size="15.00">enter senddate procedure confirmation</text>
</g>
<!-- 2433058305376&#45;&#45;2433058305664 -->
<g id="edge28" class="edge">
<title>2433058305376&#45;&#45;2433058305664</title>
<path fill="none" stroke="black" d="M1980.04,-413C2017.38,-413 2088.53,-413 2156.26,-413"/>
</g>
<!-- 2433058306000 -->
<g id="node38" class="node">
<title>2433058306000</title>
<ellipse fill="black" stroke="black" cx="2322.62" cy="-374" rx="2.7" ry="2.7"/>
</g>
<!-- 2433058304896&#45;&#45;2433058306000 -->
<g id="edge30" class="edge">
<title>2433058304896&#45;&#45;2433058306000</title>
<path fill="none" stroke="black" d="M1979.16,-320.03C2058.39,-332.52 2295.77,-369.93 2319.67,-373.69"/>
</g>
<!-- 2433058306288 -->
<g id="node39" class="node">
<title>2433058306288</title>
<ellipse fill="none" stroke="black" cx="2322.62" cy="-335" rx="143.48" ry="18"/>
<text text-anchor="middle" x="2322.62" y="-329" font-family="Times New Roman,serif" font-size="15.00">enter senddate acknowledgement</text>
</g>
<!-- 2433058304896&#45;&#45;2433058306288 -->
<g id="edge31" class="edge">
<title>2433058304896&#45;&#45;2433058306288</title>
<path fill="none" stroke="black" d="M1979.75,-317.35C2023.1,-319.59 2112.64,-324.21 2189.21,-328.16"/>
</g>
<!-- 2433058306336 -->
<g id="node40" class="node">
<title>2433058306336</title>
<ellipse fill="none" stroke="black" cx="2322.62" cy="-281" rx="103.56" ry="18"/>
<text text-anchor="middle" x="2322.62" y="-275" font-family="Times New Roman,serif" font-size="15.00">reception through OLO</text>
</g>
<!-- 2433058304896&#45;&#45;2433058306336 -->
<g id="edge32" class="edge">
<title>2433058304896&#45;&#45;2433058306336</title>
<path fill="none" stroke="black" d="M1979.75,-313.51C2031.32,-308.61 2148.21,-297.49 2230.91,-289.63"/>
</g>
<!-- 2433058306672 -->
<g id="node42" class="node">
<title>2433058306672</title>
<ellipse fill="black" stroke="black" cx="2322.62" cy="-242" rx="2.7" ry="2.7"/>
</g>
<!-- 2433058305952&#45;&#45;2433058306672 -->
<g id="edge34" class="edge">
<title>2433058305952&#45;&#45;2433058306672</title>
<path fill="none" stroke="black" d="M1980.04,-242C2060.15,-242 2295.94,-242 2319.68,-242"/>
</g>
<!-- 2433058306960 -->
<g id="node43" class="node">
<title>2433058306960</title>
<ellipse fill="none" stroke="black" cx="2322.62" cy="-203" rx="27" ry="18"/>
<text text-anchor="middle" x="2322.62" y="-197" font-family="Times New Roman,serif" font-size="15.00">and</text>
</g>
<!-- 2433058305952&#45;&#45;2433058306960 -->
<g id="edge50" class="edge">
<title>2433058305952&#45;&#45;2433058306960</title>
<path fill="none" stroke="black" d="M1979.75,-239.23C2047.57,-232.04 2228.42,-212.88 2295.82,-205.73"/>
</g>
<!-- 2433058306912 -->
<g id="node44" class="node">
<title>2433058306912</title>
<ellipse fill="none" stroke="black" cx="2569.82" cy="-230" rx="45.21" ry="18"/>
<text text-anchor="middle" x="2569.82" y="-224" font-family="Times New Roman,serif" font-size="15.00">xor loop</text>
</g>
<!-- 2433058306960&#45;&#45;2433058306912 -->
<g id="edge37" class="edge">
<title>2433058306960&#45;&#45;2433058306912</title>
<path fill="none" stroke="black" d="M2349.39,-205.84C2391.32,-210.46 2474.74,-219.64 2525.77,-225.26"/>
</g>
<!-- 2433058307728 -->
<g id="node47" class="node">
<title>2433058307728</title>
<ellipse fill="none" stroke="black" cx="2569.82" cy="-176" rx="27" ry="18"/>
<text text-anchor="middle" x="2569.82" y="-170" font-family="Times New Roman,serif" font-size="15.00">xor</text>
</g>
<!-- 2433058306960&#45;&#45;2433058307728 -->
<g id="edge49" class="edge">
<title>2433058306960&#45;&#45;2433058307728</title>
<path fill="none" stroke="black" d="M2349.39,-200.16C2396.49,-194.98 2495.91,-184.03 2543.02,-178.84"/>
</g>
<!-- 2433058307680 -->
<g id="node45" class="node">
<title>2433058307680</title>
<ellipse fill="none" stroke="black" cx="2764.82" cy="-261" rx="113.79" ry="18"/>
<text text-anchor="middle" x="2764.82" y="-255" font-family="Times New Roman,serif" font-size="15.00">send confirmation receipt</text>
</g>
<!-- 2433058306912&#45;&#45;2433058307680 -->
<g id="edge35" class="edge">
<title>2433058306912&#45;&#45;2433058307680</title>
<path fill="none" stroke="black" d="M2612.23,-236.65C2633.05,-239.99 2659.02,-244.17 2683.55,-248.11"/>
</g>
<!-- 2433058307968 -->
<g id="node46" class="node">
<title>2433058307968</title>
<ellipse fill="black" stroke="black" cx="2764.82" cy="-222" rx="2.7" ry="2.7"/>
</g>
<!-- 2433058306912&#45;&#45;2433058307968 -->
<g id="edge36" class="edge">
<title>2433058306912&#45;&#45;2433058307968</title>
<path fill="none" stroke="black" d="M2615.1,-228.16C2667.18,-226.01 2748.31,-222.64 2761.87,-222.08"/>
</g>
<!-- 2433058301584 -->
<g id="node48" class="node">
<title>2433058301584</title>
<ellipse fill="black" stroke="black" cx="2764.82" cy="-184" rx="2.7" ry="2.7"/>
</g>
<!-- 2433058307728&#45;&#45;2433058301584 -->
<g id="edge38" class="edge">
<title>2433058307728&#45;&#45;2433058301584</title>
<path fill="none" stroke="black" d="M2597.25,-177.1C2645.98,-179.12 2746.43,-183.28 2761.83,-183.92"/>
</g>
<!-- 2433058390384 -->
<g id="node49" class="node">
<title>2433058390384</title>
<ellipse fill="none" stroke="black" cx="2764.82" cy="-145" rx="27" ry="18"/>
<text text-anchor="middle" x="2764.82" y="-139" font-family="Times New Roman,serif" font-size="15.00">seq</text>
</g>
<!-- 2433058307728&#45;&#45;2433058390384 -->
<g id="edge48" class="edge">
<title>2433058307728&#45;&#45;2433058390384</title>
<path fill="none" stroke="black" d="M2596.45,-171.88C2633.37,-165.95 2701.12,-155.07 2738.09,-149.13"/>
</g>
<!-- 2433058390336 -->
<g id="node50" class="node">
<title>2433058390336</title>
<ellipse fill="none" stroke="black" cx="3054.51" cy="-172" rx="139.89" ry="18"/>
<text text-anchor="middle" x="3054.51" y="-166" font-family="Times New Roman,serif" font-size="15.00">regular procedure without MER</text>
</g>
<!-- 2433058390384&#45;&#45;2433058390336 -->
<g id="edge39" class="edge">
<title>2433058390384&#45;&#45;2433058390336</title>
<path fill="none" stroke="black" d="M2791.86,-147.44C2825.33,-150.59 2885.62,-156.24 2939.89,-161.34"/>
</g>
<!-- 2433058391056 -->
<g id="node51" class="node">
<title>2433058391056</title>
<ellipse fill="none" stroke="black" cx="3054.51" cy="-118" rx="27" ry="18"/>
<text text-anchor="middle" x="3054.51" y="-112" font-family="Times New Roman,serif" font-size="15.00">xor</text>
</g>
<!-- 2433058390384&#45;&#45;2433058391056 -->
<g id="edge47" class="edge">
<title>2433058390384&#45;&#45;2433058391056</title>
<path fill="none" stroke="black" d="M2791.86,-142.56C2846.5,-137.43 2972.56,-125.6 3027.32,-120.46"/>
</g>
<!-- 2433058391344 -->
<g id="node52" class="node">
<title>2433058391344</title>
<ellipse fill="black" stroke="black" cx="3257.4" cy="-138" rx="2.7" ry="2.7"/>
</g>
<!-- 2433058391056&#45;&#45;2433058391344 -->
<g id="edge40" class="edge">
<title>2433058391056&#45;&#45;2433058391344</title>
<path fill="none" stroke="black" d="M3081.36,-120.57C3131.38,-125.55 3237.94,-136.16 3254.28,-137.79"/>
</g>
<!-- 2433058391392 -->
<g id="node53" class="node">
<title>2433058391392</title>
<ellipse fill="none" stroke="black" cx="3257.4" cy="-99" rx="27" ry="18"/>
<text text-anchor="middle" x="3257.4" y="-93" font-family="Times New Roman,serif" font-size="15.00">seq</text>
</g>
<!-- 2433058391056&#45;&#45;2433058391392 -->
<g id="edge46" class="edge">
<title>2433058391056&#45;&#45;2433058391392</title>
<path fill="none" stroke="black" d="M3081.36,-115.55C3119.83,-111.92 3191.74,-105.12 3230.33,-101.47"/>
</g>
<!-- 2433058392112 -->
<g id="node54" class="node">
<title>2433058392112</title>
<ellipse fill="none" stroke="black" cx="3453.13" cy="-126" rx="132.73" ry="18"/>
<text text-anchor="middle" x="3453.13" y="-120" font-family="Times New Roman,serif" font-size="15.00">create procedure confirmation</text>
</g>
<!-- 2433058391392&#45;&#45;2433058392112 -->
<g id="edge41" class="edge">
<title>2433058391392&#45;&#45;2433058392112</title>
<path fill="none" stroke="black" d="M3284.13,-102.59C3303.48,-105.28 3331.27,-109.16 3358.7,-112.98"/>
</g>
<!-- 2433058391632 -->
<g id="node55" class="node">
<title>2433058391632</title>
<ellipse fill="none" stroke="black" cx="3453.13" cy="-72" rx="27" ry="18"/>
<text text-anchor="middle" x="3453.13" y="-66" font-family="Times New Roman,serif" font-size="15.00">xor</text>
</g>
<!-- 2433058391392&#45;&#45;2433058391632 -->
<g id="edge45" class="edge">
<title>2433058391392&#45;&#45;2433058391632</title>
<path fill="none" stroke="black" d="M3284.13,-95.41C3321.18,-90.25 3389.19,-80.77 3426.3,-75.6"/>
</g>
<!-- 2433058392400 -->
<g id="node56" class="node">
<title>2433058392400</title>
<ellipse fill="black" stroke="black" cx="3746.4" cy="-111" rx="2.7" ry="2.7"/>
</g>
<!-- 2433058391632&#45;&#45;2433058392400 -->
<g id="edge42" class="edge">
<title>2433058391632&#45;&#45;2433058392400</title>
<path fill="none" stroke="black" d="M3479.98,-75.46C3547.37,-84.48 3724.54,-108.21 3743.71,-110.77"/>
</g>
<!-- 2433058392688 -->
<g id="node57" class="node">
<title>2433058392688</title>
<ellipse fill="none" stroke="black" cx="3746.4" cy="-72" rx="124.54" ry="18"/>
<text text-anchor="middle" x="3746.4" y="-66" font-family="Times New Roman,serif" font-size="15.00">create publication document</text>
</g>
<!-- 2433058391632&#45;&#45;2433058392688 -->
<g id="edge43" class="edge">
<title>2433058391632&#45;&#45;2433058392688</title>
<path fill="none" stroke="black" d="M3480.5,-72C3512.56,-72 3568.94,-72 3621.46,-72"/>
</g>
<!-- 2433058392736 -->
<g id="node58" class="node">
<title>2433058392736</title>
<ellipse fill="none" stroke="black" cx="3746.4" cy="-18" rx="40.6" ry="18"/>
<text text-anchor="middle" x="3746.4" y="-12" font-family="Times New Roman,serif" font-size="15.00">publish</text>
</g>
<!-- 2433058391632&#45;&#45;2433058392736 -->
<g id="edge44" class="edge">
<title>2433058391632&#45;&#45;2433058392736</title>
<path fill="none" stroke="black" d="M3479.47,-67.3C3531.1,-57.73 3648.64,-35.94 3708.66,-24.81"/>
</g>
<!-- 2433058307632 -->
<g id="node60" class="node">
<title>2433058307632</title>
<ellipse fill="black" stroke="black" cx="2322.62" cy="-164" rx="2.7" ry="2.7"/>
</g>
<!-- 2433058306720&#45;&#45;2433058307632 -->
<g id="edge52" class="edge">
<title>2433058306720&#45;&#45;2433058307632</title>
<path fill="none" stroke="black" d="M1980.04,-164C2060.15,-164 2295.94,-164 2319.68,-164"/>
</g>
<!-- 2433058308016 -->
<g id="node61" class="node">
<title>2433058308016</title>
<ellipse fill="none" stroke="black" cx="2322.62" cy="-125" rx="126.59" ry="18"/>
<text text-anchor="middle" x="2322.62" y="-119" font-family="Times New Roman,serif" font-size="15.00">send procedure confirmation</text>
</g>
<!-- 2433058306720&#45;&#45;2433058308016 -->
<g id="edge53" class="edge">
<title>2433058306720&#45;&#45;2433058308016</title>
<path fill="none" stroke="black" d="M1979.75,-161.23C2029.02,-156.01 2137.92,-144.47 2219.66,-135.8"/>
</g>
<!-- 2433058390960 -->
<g id="node63" class="node">
<title>2433058390960</title>
<ellipse fill="black" stroke="black" cx="2322.62" cy="-86" rx="2.7" ry="2.7"/>
</g>
<!-- 2433058306576&#45;&#45;2433058390960 -->
<g id="edge55" class="edge">
<title>2433058306576&#45;&#45;2433058390960</title>
<path fill="none" stroke="black" d="M1980.04,-86C2060.15,-86 2295.94,-86 2319.68,-86"/>
</g>
<!-- 2433058391008 -->
<g id="node64" class="node">
<title>2433058391008</title>
<ellipse fill="none" stroke="black" cx="2322.62" cy="-47" rx="124.54" ry="18"/>
<text text-anchor="middle" x="2322.62" y="-41" font-family="Times New Roman,serif" font-size="15.00">registration date publication</text>
</g>
<!-- 2433058306576&#45;&#45;2433058391008 -->
<g id="edge56" class="edge">
<title>2433058306576&#45;&#45;2433058391008</title>
<path fill="none" stroke="black" d="M1979.75,-83.23C2029.26,-77.98 2139.01,-66.35 2220.88,-57.67"/>
</g>
<!-- 2433058390240 -->
<g id="node67" class="node">
<title>2433058390240</title>
<ellipse fill="black" stroke="black" cx="1617.85" cy="-217" rx="2.7" ry="2.7"/>
</g>
<!-- 2433058304704&#45;&#45;2433058390240 -->
<g id="edge61" class="edge">
<title>2433058304704&#45;&#45;2433058390240</title>
<path fill="none" stroke="black" d="M1376.21,-217C1439.12,-217 1595.57,-217 1614.89,-217"/>
</g>
<!-- 2433058391680 -->
<g id="node68" class="node">
<title>2433058391680</title>
<ellipse fill="none" stroke="black" cx="1617.85" cy="-178" rx="130.68" ry="18"/>
<text text-anchor="middle" x="1617.85" y="-172" font-family="Times New Roman,serif" font-size="15.00">create subcases completeness</text>
</g>
<!-- 2433058304704&#45;&#45;2433058391680 -->
<g id="edge62" class="edge">
<title>2433058304704&#45;&#45;2433058391680</title>
<path fill="none" stroke="black" d="M1375.72,-213.26C1410.21,-208.22 1473.41,-198.97 1526.46,-191.22"/>
</g>
<!-- 2433058300240 -->
<g id="node70" class="node">
<title>2433058300240</title>
<ellipse fill="black" stroke="black" cx="320.41" cy="-513" rx="2.7" ry="2.7"/>
</g>
<!-- 2433058298560&#45;&#45;2433058300240 -->
<g id="edge68" class="edge">
<title>2433058298560&#45;&#45;2433058300240</title>
<path fill="none" stroke="black" d="M143.1,-478.86C192.87,-488.5 300.71,-509.38 317.26,-512.58"/>
</g>
<!-- 2433058300192 -->
<g id="node71" class="node">
<title>2433058300192</title>
<ellipse fill="none" stroke="black" cx="320.41" cy="-474" rx="87.18" ry="18"/>
<text text-anchor="middle" x="320.41" y="-468" font-family="Times New Roman,serif" font-size="15.00">phased application</text>
</g>
<!-- 2433058298560&#45;&#45;2433058300192 -->
<g id="edge69" class="edge">
<title>2433058298560&#45;&#45;2433058300192</title>
<path fill="none" stroke="black" d="M144.33,-474C166.94,-474 200.84,-474 232.8,-474"/>
</g>
<!-- 2433058303984 -->
<g id="node72" class="node">
<title>2433058303984</title>
<ellipse fill="none" stroke="black" cx="320.41" cy="-420" rx="45.21" ry="18"/>
<text text-anchor="middle" x="320.41" y="-414" font-family="Times New Roman,serif" font-size="15.00">xor loop</text>
</g>
<!-- 2433058298560&#45;&#45;2433058303984 -->
<g id="edge72" class="edge">
<title>2433058298560&#45;&#45;2433058303984</title>
<path fill="none" stroke="black" d="M142.29,-467.49C177.03,-458.17 241.19,-440.97 282.01,-430.03"/>
</g>
<!-- 2433058304608 -->
<g id="node75" class="node">
<title>2433058304608</title>
<ellipse fill="none" stroke="black" cx="320.41" cy="-366" rx="52.89" ry="18"/>
<text text-anchor="middle" x="320.41" y="-360" font-family="Times New Roman,serif" font-size="15.00">close case</text>
</g>
<!-- 2433058298560&#45;&#45;2433058304608 -->
<g id="edge73" class="edge">
<title>2433058298560&#45;&#45;2433058304608</title>
<path fill="none" stroke="black" d="M138.8,-462.85C175.08,-443.39 249.98,-403.23 291.01,-381.23"/>
</g>
<!-- 2433058391296 -->
<g id="node73" class="node">
<title>2433058391296</title>
<ellipse fill="none" stroke="black" cx="686.35" cy="-423" rx="189.54" ry="18"/>
<text text-anchor="middle" x="686.35" y="-417" font-family="Times New Roman,serif" font-size="15.00">registrer date of publishing received request</text>
</g>
<!-- 2433058303984&#45;&#45;2433058391296 -->
<g id="edge70" class="edge">
<title>2433058303984&#45;&#45;2433058391296</title>
<path fill="none" stroke="black" d="M366.03,-420.37C399.63,-420.64 448.16,-421.04 497.28,-421.45"/>
</g>
<!-- 2433058392352 -->
<g id="node74" class="node">
<title>2433058392352</title>
<ellipse fill="black" stroke="black" cx="686.35" cy="-384" rx="2.7" ry="2.7"/>
</g>
<!-- 2433058303984&#45;&#45;2433058392352 -->
<g id="edge71" class="edge">
<title>2433058303984&#45;&#45;2433058392352</title>
<path fill="none" stroke="black" d="M364.58,-415.73C455.72,-406.71 661.19,-386.39 683.4,-384.19"/>
</g>
</g>
</svg>
