<?xml version="1.0" encoding="UTF-8" standalone="no"?>
<!DOCTYPE svg PUBLIC "-//W3C//DTD SVG 1.1//EN"
 "http://www.w3.org/Graphics/SVG/1.1/DTD/svg11.dtd">
<!-- Generated by graphviz version 11.0.0 (20240428.1522)
 -->
<!-- Title: pt Pages: 1 -->
<svg width="3556pt" height="979pt"
 viewBox="0.00 0.00 3555.55 978.70" xmlns="http://www.w3.org/2000/svg" xmlns:xlink="http://www.w3.org/1999/xlink">
<g id="graph0" class="graph" transform="scale(1 1) rotate(0) translate(4 974.7)">
<title>pt</title>
<polygon fill="white" stroke="none" points="-4,4 -4,-974.7 3551.55,-974.7 3551.55,4 -4,4"/>
<!-- 2787263472720 -->
<g id="node1" class="node">
<title>2787263472720</title>
<ellipse fill="none" stroke="black" cx="27" cy="-459" rx="27" ry="18"/>
<text text-anchor="middle" x="27" y="-453" font-family="Times New Roman,serif" font-size="15.00">seq</text>
</g>
<!-- 2787263467296 -->
<g id="node2" class="node">
<title>2787263467296</title>
<ellipse fill="none" stroke="black" cx="117" cy="-525" rx="27" ry="18"/>
<text text-anchor="middle" x="117" y="-519" font-family="Times New Roman,serif" font-size="15.00">and</text>
</g>
<!-- 2787263472720&#45;&#45;2787263467296 -->
<g id="edge82" class="edge">
<title>2787263472720&#45;&#45;2787263467296</title>
<path fill="none" stroke="black" d="M45.81,-472.36C61.08,-483.81 82.96,-500.22 98.22,-511.66"/>
</g>
<!-- 2787263471616 -->
<g id="node84" class="node">
<title>2787263471616</title>
<ellipse fill="none" stroke="black" cx="117" cy="-420" rx="27" ry="18"/>
<text text-anchor="middle" x="117" y="-414" font-family="Times New Roman,serif" font-size="15.00">xor</text>
</g>
<!-- 2787263472720&#45;&#45;2787263471616 -->
<g id="edge94" class="edge">
<title>2787263472720&#45;&#45;2787263471616</title>
<path fill="none" stroke="black" d="M50.21,-449.16C63.55,-443.25 80.46,-435.75 93.8,-429.84"/>
</g>
<!-- 2787263464560 -->
<g id="node3" class="node">
<title>2787263464560</title>
<ellipse fill="none" stroke="black" cx="299.93" cy="-579" rx="119.93" ry="18"/>
<text text-anchor="middle" x="299.93" y="-573" font-family="Times New Roman,serif" font-size="15.00">phase application received</text>
</g>
<!-- 2787263467296&#45;&#45;2787263464560 -->
<g id="edge1" class="edge">
<title>2787263467296&#45;&#45;2787263464560</title>
<path fill="none" stroke="black" d="M142.03,-532.17C167.98,-539.92 210.2,-552.52 244.3,-562.7"/>
</g>
<!-- 2787263473392 -->
<g id="node4" class="node">
<title>2787263473392</title>
<ellipse fill="none" stroke="black" cx="299.93" cy="-525" rx="27" ry="18"/>
<text text-anchor="middle" x="299.93" y="-519" font-family="Times New Roman,serif" font-size="15.00">xor</text>
</g>
<!-- 2787263467296&#45;&#45;2787263473392 -->
<g id="edge81" class="edge">
<title>2787263467296&#45;&#45;2787263473392</title>
<path fill="none" stroke="black" d="M144.31,-525C178.61,-525 238.27,-525 272.59,-525"/>
</g>
<!-- 2787263745728 -->
<g id="node5" class="node">
<title>2787263745728</title>
<ellipse fill="none" stroke="black" cx="604.46" cy="-783" rx="27" ry="18"/>
<text text-anchor="middle" x="604.46" y="-777" font-family="Times New Roman,serif" font-size="15.00">seq</text>
</g>
<!-- 2787263473392&#45;&#45;2787263745728 -->
<g id="edge18" class="edge">
<title>2787263473392&#45;&#45;2787263745728</title>
<path fill="none" stroke="black" d="M317.2,-538.87C369.73,-583.67 534.47,-724.17 587.12,-769.06"/>
</g>
<!-- 2787263747024 -->
<g id="node22" class="node">
<title>2787263747024</title>
<ellipse fill="none" stroke="black" cx="604.46" cy="-513" rx="27" ry="18"/>
<text text-anchor="middle" x="604.46" y="-507" font-family="Times New Roman,serif" font-size="15.00">seq</text>
</g>
<!-- 2787263473392&#45;&#45;2787263747024 -->
<g id="edge80" class="edge">
<title>2787263473392&#45;&#45;2787263747024</title>
<path fill="none" stroke="black" d="M327.25,-523.96C384.61,-521.68 520.31,-516.3 577.42,-514.03"/>
</g>
<!-- 2787263746976 -->
<g id="node6" class="node">
<title>2787263746976</title>
<ellipse fill="none" stroke="black" cx="962.22" cy="-945" rx="27" ry="18"/>
<text text-anchor="middle" x="962.22" y="-939" font-family="Times New Roman,serif" font-size="15.00">xor</text>
</g>
<!-- 2787263745728&#45;&#45;2787263746976 -->
<g id="edge4" class="edge">
<title>2787263745728&#45;&#45;2787263746976</title>
<path fill="none" stroke="black" d="M627.45,-793.01C691.23,-822.05 875.79,-906.1 939.38,-935.06"/>
</g>
<!-- 2787263745776 -->
<g id="node9" class="node">
<title>2787263745776</title>
<ellipse fill="none" stroke="black" cx="962.22" cy="-891" rx="168.04" ry="18"/>
<text text-anchor="middle" x="962.22" y="-885" font-family="Times New Roman,serif" font-size="15.00">enter date termination request received</text>
</g>
<!-- 2787263745728&#45;&#45;2787263745776 -->
<g id="edge5" class="edge">
<title>2787263745728&#45;&#45;2787263745776</title>
<path fill="none" stroke="black" d="M629.64,-790.34C685.54,-807.31 825.04,-849.66 904.13,-873.67"/>
</g>
<!-- 2787263755424 -->
<g id="node10" class="node">
<title>2787263755424</title>
<ellipse fill="none" stroke="black" cx="962.22" cy="-837" rx="173.16" ry="18"/>
<text text-anchor="middle" x="962.22" y="-831" font-family="Times New Roman,serif" font-size="15.00">phase procedure prematurely terminated</text>
</g>
<!-- 2787263745728&#45;&#45;2787263755424 -->
<g id="edge6" class="edge">
<title>2787263745728&#45;&#45;2787263755424</title>
<path fill="none" stroke="black" d="M631.33,-786.93C679.06,-794.17 783.27,-809.99 861.87,-821.92"/>
</g>
<!-- 2787263753552 -->
<g id="node11" class="node">
<title>2787263753552</title>
<ellipse fill="none" stroke="black" cx="962.22" cy="-783" rx="27" ry="18"/>
<text text-anchor="middle" x="962.22" y="-777" font-family="Times New Roman,serif" font-size="15.00">xor</text>
</g>
<!-- 2787263745728&#45;&#45;2787263753552 -->
<g id="edge9" class="edge">
<title>2787263745728&#45;&#45;2787263753552</title>
<path fill="none" stroke="black" d="M631.91,-783C697.93,-783 869.39,-783 935.08,-783"/>
</g>
<!-- 2787263754464 -->
<g id="node14" class="node">
<title>2787263754464</title>
<ellipse fill="none" stroke="black" cx="962.22" cy="-729" rx="27" ry="18"/>
<text text-anchor="middle" x="962.22" y="-723" font-family="Times New Roman,serif" font-size="15.00">and</text>
</g>
<!-- 2787263745728&#45;&#45;2787263754464 -->
<g id="edge12" class="edge">
<title>2787263745728&#45;&#45;2787263754464</title>
<path fill="none" stroke="black" d="M631.33,-779.07C697.05,-769.1 869.83,-742.87 935.44,-732.91"/>
</g>
<!-- 2787263755856 -->
<g id="node17" class="node">
<title>2787263755856</title>
<ellipse fill="none" stroke="black" cx="962.22" cy="-675" rx="27" ry="18"/>
<text text-anchor="middle" x="962.22" y="-669" font-family="Times New Roman,serif" font-size="15.00">and</text>
</g>
<!-- 2787263745728&#45;&#45;2787263755856 -->
<g id="edge17" class="edge">
<title>2787263745728&#45;&#45;2787263755856</title>
<path fill="none" stroke="black" d="M629.64,-775.66C694.54,-755.96 872.07,-702.06 937.01,-682.35"/>
</g>
<!-- 2787263751104 -->
<g id="node7" class="node">
<title>2787263751104</title>
<ellipse fill="black" stroke="black" cx="1321" cy="-968" rx="2.7" ry="2.7"/>
</g>
<!-- 2787263746976&#45;&#45;2787263751104 -->
<g id="edge2" class="edge">
<title>2787263746976&#45;&#45;2787263751104</title>
<path fill="none" stroke="black" d="M989.45,-946.69C1067.34,-951.71 1293.35,-966.28 1317.84,-967.86"/>
</g>
<!-- 2787263748320 -->
<g id="node8" class="node">
<title>2787263748320</title>
<ellipse fill="none" stroke="black" cx="1321" cy="-929" rx="128.63" ry="18"/>
<text text-anchor="middle" x="1321" y="-923" font-family="Times New Roman,serif" font-size="15.00">initiative competent authority</text>
</g>
<!-- 2787263746976&#45;&#45;2787263748320 -->
<g id="edge3" class="edge">
<title>2787263746976&#45;&#45;2787263748320</title>
<path fill="none" stroke="black" d="M989.45,-943.82C1032.98,-941.87 1122.78,-937.84 1197.81,-934.48"/>
</g>
<!-- 2787263749760 -->
<g id="node12" class="node">
<title>2787263749760</title>
<ellipse fill="black" stroke="black" cx="1321" cy="-873" rx="2.7" ry="2.7"/>
</g>
<!-- 2787263753552&#45;&#45;2787263749760 -->
<g id="edge7" class="edge">
<title>2787263753552&#45;&#45;2787263749760</title>
<path fill="none" stroke="black" d="M988.02,-789.26C1064.83,-808.63 1294.94,-866.68 1318.11,-872.52"/>
</g>
<!-- 2787263752400 -->
<g id="node13" class="node">
<title>2787263752400</title>
<ellipse fill="none" stroke="black" cx="1321" cy="-834" rx="143.48" ry="18"/>
<text text-anchor="middle" x="1321" y="-828" font-family="Times New Roman,serif" font-size="15.00">create message terminate request</text>
</g>
<!-- 2787263753552&#45;&#45;2787263752400 -->
<g id="edge8" class="edge">
<title>2787263753552&#45;&#45;2787263752400</title>
<path fill="none" stroke="black" d="M988.88,-786.67C1037.45,-793.61 1145.08,-809 1224.51,-820.35"/>
</g>
<!-- 2787263755904 -->
<g id="node15" class="node">
<title>2787263755904</title>
<ellipse fill="none" stroke="black" cx="1321" cy="-780" rx="116.35" ry="18"/>
<text text-anchor="middle" x="1321" y="-774" font-family="Times New Roman,serif" font-size="15.00">message terminate request</text>
</g>
<!-- 2787263754464&#45;&#45;2787263755904 -->
<g id="edge10" class="edge">
<title>2787263754464&#45;&#45;2787263755904</title>
<path fill="none" stroke="black" d="M988.88,-732.67C1039.45,-739.9 1154.03,-756.28 1234.16,-767.73"/>
</g>
<!-- 2787263746688 -->
<g id="node16" class="node">
<title>2787263746688</title>
<ellipse fill="none" stroke="black" cx="1321" cy="-726" rx="148.59" ry="18"/>
<text text-anchor="middle" x="1321" y="-720" font-family="Times New Roman,serif" font-size="15.00">enter senddate request termination</text>
</g>
<!-- 2787263754464&#45;&#45;2787263746688 -->
<g id="edge11" class="edge">
<title>2787263754464&#45;&#45;2787263746688</title>
<path fill="none" stroke="black" d="M989.45,-728.78C1028.16,-728.45 1103.43,-727.82 1172.38,-727.24"/>
</g>
<!-- 2787263748128 -->
<g id="node18" class="node">
<title>2787263748128</title>
<ellipse fill="none" stroke="black" cx="1321" cy="-672" rx="27" ry="18"/>
<text text-anchor="middle" x="1321" y="-666" font-family="Times New Roman,serif" font-size="15.00">xor</text>
</g>
<!-- 2787263755856&#45;&#45;2787263748128 -->
<g id="edge15" class="edge">
<title>2787263755856&#45;&#45;2787263748128</title>
<path fill="none" stroke="black" d="M989.45,-674.78C1055.43,-674.22 1227.71,-672.78 1293.73,-672.22"/>
</g>
<!-- 2787263753504 -->
<g id="node21" class="node">
<title>2787263753504</title>
<ellipse fill="none" stroke="black" cx="1321" cy="-618" rx="110.72" ry="18"/>
<text text-anchor="middle" x="1321" y="-612" font-family="Times New Roman,serif" font-size="15.00">phase procedure aborted</text>
</g>
<!-- 2787263755856&#45;&#45;2787263753504 -->
<g id="edge16" class="edge">
<title>2787263755856&#45;&#45;2787263753504</title>
<path fill="none" stroke="black" d="M988.88,-670.9C1040.81,-662.6 1160.23,-643.53 1240.53,-630.7"/>
</g>
<!-- 2787263746784 -->
<g id="node19" class="node">
<title>2787263746784</title>
<ellipse fill="black" stroke="black" cx="1698.2" cy="-691" rx="2.7" ry="2.7"/>
</g>
<!-- 2787263748128&#45;&#45;2787263746784 -->
<g id="edge13" class="edge">
<title>2787263748128&#45;&#45;2787263746784</title>
<path fill="none" stroke="black" d="M1348.38,-673.34C1429.45,-677.44 1670.91,-689.67 1695.22,-690.9"/>
</g>
<!-- 2787263753888 -->
<g id="node20" class="node">
<title>2787263753888</title>
<ellipse fill="none" stroke="black" cx="1698.2" cy="-652" rx="78.99" ry="18"/>
<text text-anchor="middle" x="1698.2" y="-646" font-family="Times New Roman,serif" font-size="15.00">register deadline</text>
</g>
<!-- 2787263748128&#45;&#45;2787263753888 -->
<g id="edge14" class="edge">
<title>2787263748128&#45;&#45;2787263753888</title>
<path fill="none" stroke="black" d="M1348.38,-670.59C1404.26,-667.62 1536.35,-660.57 1621,-656.06"/>
</g>
<!-- 2787263752160 -->
<g id="node23" class="node">
<title>2787263752160</title>
<ellipse fill="none" stroke="black" cx="962.22" cy="-621" rx="140.41" ry="18"/>
<text text-anchor="middle" x="962.22" y="-615" font-family="Times New Roman,serif" font-size="15.00">register submission date request</text>
</g>
<!-- 2787263747024&#45;&#45;2787263752160 -->
<g id="edge19" class="edge">
<title>2787263747024&#45;&#45;2787263752160</title>
<path fill="none" stroke="black" d="M629.64,-520.34C685.86,-537.41 826.6,-580.13 905.46,-604.07"/>
</g>
<!-- 2787263754176 -->
<g id="node24" class="node">
<title>2787263754176</title>
<ellipse fill="none" stroke="black" cx="962.22" cy="-567" rx="102.02" ry="18"/>
<text text-anchor="middle" x="962.22" y="-561" font-family="Times New Roman,serif" font-size="15.00">OLO messaging active</text>
</g>
<!-- 2787263747024&#45;&#45;2787263754176 -->
<g id="edge20" class="edge">
<title>2787263747024&#45;&#45;2787263754176</title>
<path fill="none" stroke="black" d="M631.33,-516.93C683.62,-524.86 803.68,-543.09 883.61,-555.22"/>
</g>
<!-- 2787263748800 -->
<g id="node25" class="node">
<title>2787263748800</title>
<ellipse fill="none" stroke="black" cx="962.22" cy="-513" rx="27" ry="18"/>
<text text-anchor="middle" x="962.22" y="-507" font-family="Times New Roman,serif" font-size="15.00">xor</text>
</g>
<!-- 2787263747024&#45;&#45;2787263748800 -->
<g id="edge23" class="edge">
<title>2787263747024&#45;&#45;2787263748800</title>
<path fill="none" stroke="black" d="M631.91,-513C697.93,-513 869.39,-513 935.08,-513"/>
</g>
<!-- 2787263754128 -->
<g id="node28" class="node">
<title>2787263754128</title>
<ellipse fill="none" stroke="black" cx="962.22" cy="-459" rx="27" ry="18"/>
<text text-anchor="middle" x="962.22" y="-453" font-family="Times New Roman,serif" font-size="15.00">xor</text>
</g>
<!-- 2787263747024&#45;&#45;2787263754128 -->
<g id="edge50" class="edge">
<title>2787263747024&#45;&#45;2787263754128</title>
<path fill="none" stroke="black" d="M631.33,-509.07C697.05,-499.1 869.83,-472.87 935.44,-462.91"/>
</g>
<!-- 2787263754896 -->
<g id="node55" class="node">
<title>2787263754896</title>
<ellipse fill="none" stroke="black" cx="962.22" cy="-339" rx="27" ry="18"/>
<text text-anchor="middle" x="962.22" y="-333" font-family="Times New Roman,serif" font-size="15.00">and</text>
</g>
<!-- 2787263747024&#45;&#45;2787263754896 -->
<g id="edge76" class="edge">
<title>2787263747024&#45;&#45;2787263754896</title>
<path fill="none" stroke="black" d="M626.92,-502.51C690.31,-471.5 876.31,-380.53 939.74,-349.51"/>
</g>
<!-- 2787263757728 -->
<g id="node81" class="node">
<title>2787263757728</title>
<ellipse fill="none" stroke="black" cx="962.22" cy="-236" rx="27" ry="18"/>
<text text-anchor="middle" x="962.22" y="-230" font-family="Times New Roman,serif" font-size="15.00">xor</text>
</g>
<!-- 2787263747024&#45;&#45;2787263757728 -->
<g id="edge79" class="edge">
<title>2787263747024&#45;&#45;2787263757728</title>
<path fill="none" stroke="black" d="M622.62,-499.64C682.72,-452.85 883.34,-296.64 943.82,-249.55"/>
</g>
<!-- 2787263742368 -->
<g id="node26" class="node">
<title>2787263742368</title>
<ellipse fill="black" stroke="black" cx="1321" cy="-576" rx="2.7" ry="2.7"/>
</g>
<!-- 2787263748800&#45;&#45;2787263742368 -->
<g id="edge21" class="edge">
<title>2787263748800&#45;&#45;2787263742368</title>
<path fill="none" stroke="black" d="M988.88,-517.53C1066.21,-531.19 1293.23,-571.27 1317.83,-575.62"/>
</g>
<!-- 2787263754080 -->
<g id="node27" class="node">
<title>2787263754080</title>
<ellipse fill="none" stroke="black" cx="1321" cy="-537" rx="92.3" ry="18"/>
<text text-anchor="middle" x="1321" y="-531" font-family="Times New Roman,serif" font-size="15.00">terminate on request</text>
</g>
<!-- 2787263748800&#45;&#45;2787263754080 -->
<g id="edge22" class="edge">
<title>2787263748800&#45;&#45;2787263754080</title>
<path fill="none" stroke="black" d="M989.45,-514.76C1040.07,-518.17 1153.22,-525.78 1232.98,-531.15"/>
</g>
<!-- 2787263756240 -->
<g id="node29" class="node">
<title>2787263756240</title>
<ellipse fill="black" stroke="black" cx="1321" cy="-498" rx="2.7" ry="2.7"/>
</g>
<!-- 2787263754128&#45;&#45;2787263756240 -->
<g id="edge24" class="edge">
<title>2787263754128&#45;&#45;2787263756240</title>
<path fill="none" stroke="black" d="M989.17,-461.84C1066.78,-470.32 1293.29,-495.08 1317.84,-497.76"/>
</g>
<!-- 2787263743040 -->
<g id="node30" class="node">
<title>2787263743040</title>
<ellipse fill="none" stroke="black" cx="1321" cy="-459" rx="27" ry="18"/>
<text text-anchor="middle" x="1321" y="-453" font-family="Times New Roman,serif" font-size="15.00">seq</text>
</g>
<!-- 2787263754128&#45;&#45;2787263743040 -->
<g id="edge27" class="edge">
<title>2787263754128&#45;&#45;2787263743040</title>
<path fill="none" stroke="black" d="M989.45,-459C1055.43,-459 1227.71,-459 1293.73,-459"/>
</g>
<!-- 2787263755760 -->
<g id="node33" class="node">
<title>2787263755760</title>
<ellipse fill="none" stroke="black" cx="1321" cy="-405" rx="27" ry="18"/>
<text text-anchor="middle" x="1321" y="-399" font-family="Times New Roman,serif" font-size="15.00">seq</text>
</g>
<!-- 2787263754128&#45;&#45;2787263755760 -->
<g id="edge49" class="edge">
<title>2787263754128&#45;&#45;2787263755760</title>
<path fill="none" stroke="black" d="M988.88,-455.12C1054.71,-445.15 1229,-418.77 1294.57,-408.85"/>
</g>
<!-- 2787263748032 -->
<g id="node31" class="node">
<title>2787263748032</title>
<ellipse fill="none" stroke="black" cx="1698.2" cy="-567" rx="191.59" ry="18"/>
<text text-anchor="middle" x="1698.2" y="-561" font-family="Times New Roman,serif" font-size="15.00">no permit needed or only notification needed</text>
</g>
<!-- 2787263743040&#45;&#45;2787263748032 -->
<g id="edge25" class="edge">
<title>2787263743040&#45;&#45;2787263748032</title>
<path fill="none" stroke="black" d="M1346.33,-466C1404.38,-482.71 1552.43,-525.33 1636.5,-549.53"/>
</g>
<!-- 2787263749376 -->
<g id="node32" class="node">
<title>2787263749376</title>
<ellipse fill="none" stroke="black" cx="1698.2" cy="-513" rx="107.14" ry="18"/>
<text text-anchor="middle" x="1698.2" y="-507" font-family="Times New Roman,serif" font-size="15.00">applicant is stakeholder</text>
</g>
<!-- 2787263743040&#45;&#45;2787263749376 -->
<g id="edge26" class="edge">
<title>2787263743040&#45;&#45;2787263749376</title>
<path fill="none" stroke="black" d="M1347.79,-462.71C1402.09,-470.53 1530.22,-488.97 1615.3,-501.21"/>
</g>
<!-- 2787263742464 -->
<g id="node34" class="node">
<title>2787263742464</title>
<ellipse fill="none" stroke="black" cx="1698.2" cy="-459" rx="27" ry="18"/>
<text text-anchor="middle" x="1698.2" y="-453" font-family="Times New Roman,serif" font-size="15.00">xor</text>
</g>
<!-- 2787263755760&#45;&#45;2787263742464 -->
<g id="edge36" class="edge">
<title>2787263755760&#45;&#45;2787263742464</title>
<path fill="none" stroke="black" d="M1347.79,-408.71C1416.5,-418.6 1603.38,-445.5 1671.73,-455.33"/>
</g>
<!-- 2787263743664 -->
<g id="node43" class="node">
<title>2787263743664</title>
<ellipse fill="none" stroke="black" cx="1698.2" cy="-405" rx="27" ry="18"/>
<text text-anchor="middle" x="1698.2" y="-399" font-family="Times New Roman,serif" font-size="15.00">and</text>
</g>
<!-- 2787263755760&#45;&#45;2787263743664 -->
<g id="edge45" class="edge">
<title>2787263755760&#45;&#45;2787263743664</title>
<path fill="none" stroke="black" d="M1348.38,-405C1417.27,-405 1601.99,-405 1670.85,-405"/>
</g>
<!-- 2787263756768 -->
<g id="node52" class="node">
<title>2787263756768</title>
<ellipse fill="none" stroke="black" cx="1698.2" cy="-351" rx="27" ry="18"/>
<text text-anchor="middle" x="1698.2" y="-345" font-family="Times New Roman,serif" font-size="15.00">xor</text>
</g>
<!-- 2787263755760&#45;&#45;2787263756768 -->
<g id="edge48" class="edge">
<title>2787263755760&#45;&#45;2787263756768</title>
<path fill="none" stroke="black" d="M1347.79,-401.29C1416.5,-391.4 1603.38,-364.5 1671.73,-354.67"/>
</g>
<!-- 2787263758112 -->
<g id="node35" class="node">
<title>2787263758112</title>
<ellipse fill="black" stroke="black" cx="2049.82" cy="-545" rx="2.7" ry="2.7"/>
</g>
<!-- 2787263742464&#45;&#45;2787263758112 -->
<g id="edge28" class="edge">
<title>2787263742464&#45;&#45;2787263758112</title>
<path fill="none" stroke="black" d="M1724.07,-465.12C1799.57,-483.69 2022.53,-538.53 2046.69,-544.48"/>
</g>
<!-- 2787263752112 -->
<g id="node36" class="node">
<title>2787263752112</title>
<ellipse fill="none" stroke="black" cx="2049.82" cy="-506" rx="27" ry="18"/>
<text text-anchor="middle" x="2049.82" y="-500" font-family="Times New Roman,serif" font-size="15.00">seq</text>
</g>
<!-- 2787263742464&#45;&#45;2787263752112 -->
<g id="edge35" class="edge">
<title>2787263742464&#45;&#45;2787263752112</title>
<path fill="none" stroke="black" d="M1725.2,-462.49C1790.08,-471.22 1958.57,-493.87 2023.13,-502.55"/>
</g>
<!-- 2787263749040 -->
<g id="node37" class="node">
<title>2787263749040</title>
<ellipse fill="none" stroke="black" cx="2375.84" cy="-554" rx="27" ry="18"/>
<text text-anchor="middle" x="2375.84" y="-548" font-family="Times New Roman,serif" font-size="15.00">xor</text>
</g>
<!-- 2787263752112&#45;&#45;2787263749040 -->
<g id="edge31" class="edge">
<title>2787263752112&#45;&#45;2787263749040</title>
<path fill="none" stroke="black" d="M2076.52,-509.81C2137.14,-518.79 2288.52,-541.21 2349.15,-550.19"/>
</g>
<!-- 2787263757776 -->
<g id="node40" class="node">
<title>2787263757776</title>
<ellipse fill="none" stroke="black" cx="2375.84" cy="-500" rx="27" ry="18"/>
<text text-anchor="middle" x="2375.84" y="-494" font-family="Times New Roman,serif" font-size="15.00">and</text>
</g>
<!-- 2787263752112&#45;&#45;2787263757776 -->
<g id="edge34" class="edge">
<title>2787263752112&#45;&#45;2787263757776</title>
<path fill="none" stroke="black" d="M2077.06,-505.51C2137.78,-504.39 2287.4,-501.62 2348.36,-500.49"/>
</g>
<!-- 2787263756480 -->
<g id="node38" class="node">
<title>2787263756480</title>
<ellipse fill="black" stroke="black" cx="2767.38" cy="-593" rx="2.7" ry="2.7"/>
</g>
<!-- 2787263749040&#45;&#45;2787263756480 -->
<g id="edge29" class="edge">
<title>2787263749040&#45;&#45;2787263756480</title>
<path fill="none" stroke="black" d="M2403.01,-556.62C2485.91,-564.92 2738.83,-590.24 2764.31,-592.79"/>
</g>
<!-- 2787263752736 -->
<g id="node39" class="node">
<title>2787263752736</title>
<ellipse fill="none" stroke="black" cx="2767.38" cy="-554" rx="170.6" ry="18"/>
<text text-anchor="middle" x="2767.38" y="-548" font-family="Times New Roman,serif" font-size="15.00">phase forwarded to competent authority</text>
</g>
<!-- 2787263749040&#45;&#45;2787263752736 -->
<g id="edge30" class="edge">
<title>2787263749040&#45;&#45;2787263752736</title>
<path fill="none" stroke="black" d="M2403.31,-554C2443.3,-554 2522.32,-554 2596.47,-554"/>
</g>
<!-- 2787263756096 -->
<g id="node41" class="node">
<title>2787263756096</title>
<ellipse fill="none" stroke="black" cx="2767.38" cy="-500" rx="155.76" ry="18"/>
<text text-anchor="middle" x="2767.38" y="-494" font-family="Times New Roman,serif" font-size="15.00">enter senddate letter to stakeholders</text>
</g>
<!-- 2787263757776&#45;&#45;2787263756096 -->
<g id="edge32" class="edge">
<title>2787263757776&#45;&#45;2787263756096</title>
<path fill="none" stroke="black" d="M2403.31,-500C2445.95,-500 2532.99,-500 2611.15,-500"/>
</g>
<!-- 2787263750096 -->
<g id="node42" class="node">
<title>2787263750096</title>
<ellipse fill="none" stroke="black" cx="2767.38" cy="-446" rx="183.91" ry="18"/>
<text text-anchor="middle" x="2767.38" y="-440" font-family="Times New Roman,serif" font-size="15.00">enter senddate letter to competent authority</text>
</g>
<!-- 2787263757776&#45;&#45;2787263750096 -->
<g id="edge33" class="edge">
<title>2787263757776&#45;&#45;2787263750096</title>
<path fill="none" stroke="black" d="M2402.7,-496.42C2454.02,-489.3 2571.33,-473.04 2658.92,-460.9"/>
</g>
<!-- 2787263750816 -->
<g id="node44" class="node">
<title>2787263750816</title>
<ellipse fill="none" stroke="black" cx="2049.82" cy="-452" rx="103.56" ry="18"/>
<text text-anchor="middle" x="2049.82" y="-446" font-family="Times New Roman,serif" font-size="15.00">reception through OLO</text>
</g>
<!-- 2787263743664&#45;&#45;2787263750816 -->
<g id="edge37" class="edge">
<title>2787263743664&#45;&#45;2787263750816</title>
<path fill="none" stroke="black" d="M1725.2,-408.49C1775.6,-415.27 1888.53,-430.45 1966.69,-440.96"/>
</g>
<!-- 2787263743424 -->
<g id="node45" class="node">
<title>2787263743424</title>
<ellipse fill="none" stroke="black" cx="2049.82" cy="-398" rx="27" ry="18"/>
<text text-anchor="middle" x="2049.82" y="-392" font-family="Times New Roman,serif" font-size="15.00">seq</text>
</g>
<!-- 2787263743664&#45;&#45;2787263743424 -->
<g id="edge44" class="edge">
<title>2787263743664&#45;&#45;2787263743424</title>
<path fill="none" stroke="black" d="M1725.48,-404.47C1790.43,-403.17 1957.94,-399.82 2022.71,-398.52"/>
</g>
<!-- 2787263747072 -->
<g id="node46" class="node">
<title>2787263747072</title>
<ellipse fill="none" stroke="black" cx="2375.84" cy="-407" rx="166" ry="18"/>
<text text-anchor="middle" x="2375.84" y="-401" font-family="Times New Roman,serif" font-size="15.00">enter senddate procedure confirmation</text>
</g>
<!-- 2787263743424&#45;&#45;2787263747072 -->
<g id="edge38" class="edge">
<title>2787263743424&#45;&#45;2787263747072</title>
<path fill="none" stroke="black" d="M2077.06,-398.73C2107.8,-399.58 2161.31,-401.07 2214.58,-402.55"/>
</g>
<!-- 2787263757248 -->
<g id="node47" class="node">
<title>2787263757248</title>
<ellipse fill="none" stroke="black" cx="2375.84" cy="-353" rx="45.21" ry="18"/>
<text text-anchor="middle" x="2375.84" y="-347" font-family="Times New Roman,serif" font-size="15.00">xor loop</text>
</g>
<!-- 2787263743424&#45;&#45;2787263757248 -->
<g id="edge43" class="edge">
<title>2787263743424&#45;&#45;2787263757248</title>
<path fill="none" stroke="black" d="M2076.79,-394.39C2132.65,-386.64 2264.68,-368.3 2332.71,-358.85"/>
</g>
<!-- 2787263742656 -->
<g id="node48" class="node">
<title>2787263742656</title>
<ellipse fill="none" stroke="black" cx="2767.38" cy="-380" rx="189.54" ry="18"/>
<text text-anchor="middle" x="2767.38" y="-374" font-family="Times New Roman,serif" font-size="15.00">registrer date of publishing received request</text>
</g>
<!-- 2787263757248&#45;&#45;2787263742656 -->
<g id="edge39" class="edge">
<title>2787263757248&#45;&#45;2787263742656</title>
<path fill="none" stroke="black" d="M2420.77,-356.04C2467.33,-359.27 2543.52,-364.55 2612.53,-369.34"/>
</g>
<!-- 2787263755088 -->
<g id="node49" class="node">
<title>2787263755088</title>
<ellipse fill="none" stroke="black" cx="2767.38" cy="-326" rx="27" ry="18"/>
<text text-anchor="middle" x="2767.38" y="-320" font-family="Times New Roman,serif" font-size="15.00">seq</text>
</g>
<!-- 2787263757248&#45;&#45;2787263755088 -->
<g id="edge42" class="edge">
<title>2787263757248&#45;&#45;2787263755088</title>
<path fill="none" stroke="black" d="M2420.77,-349.96C2502.35,-344.3 2674.9,-332.34 2740.41,-327.8"/>
</g>
<!-- 2787263757200 -->
<g id="node50" class="node">
<title>2787263757200</title>
<ellipse fill="none" stroke="black" cx="3119.51" cy="-362" rx="126.59" ry="18"/>
<text text-anchor="middle" x="3119.51" y="-356" font-family="Times New Roman,serif" font-size="15.00">send procedure confirmation</text>
</g>
<!-- 2787263755088&#45;&#45;2787263757200 -->
<g id="edge40" class="edge">
<title>2787263755088&#45;&#45;2787263757200</title>
<path fill="none" stroke="black" d="M2794.41,-328.68C2840.61,-333.43 2939.26,-343.57 3015.66,-351.42"/>
</g>
<!-- 2787263752832 -->
<g id="node51" class="node">
<title>2787263752832</title>
<ellipse fill="none" stroke="black" cx="3119.51" cy="-308" rx="63.63" ry="18"/>
<text text-anchor="middle" x="3119.51" y="-302" font-family="Times New Roman,serif" font-size="15.00">suspend term</text>
</g>
<!-- 2787263755088&#45;&#45;2787263752832 -->
<g id="edge41" class="edge">
<title>2787263755088&#45;&#45;2787263752832</title>
<path fill="none" stroke="black" d="M2794.7,-324.65C2849.88,-321.81 2979,-315.17 3056.49,-311.19"/>
</g>
<!-- 2787263751776 -->
<g id="node53" class="node">
<title>2787263751776</title>
<ellipse fill="black" stroke="black" cx="2049.82" cy="-359" rx="2.7" ry="2.7"/>
</g>
<!-- 2787263756768&#45;&#45;2787263751776 -->
<g id="edge46" class="edge">
<title>2787263756768&#45;&#45;2787263751776</title>
<path fill="none" stroke="black" d="M1725.48,-351.6C1802.34,-353.36 2022.83,-358.41 2046.71,-358.95"/>
</g>
<!-- 2787263754560 -->
<g id="node54" class="node">
<title>2787263754560</title>
<ellipse fill="none" stroke="black" cx="2049.82" cy="-320" rx="124.03" ry="18"/>
<text text-anchor="middle" x="2049.82" y="-314" font-family="Times New Roman,serif" font-size="15.00">treat subcases completeness</text>
</g>
<!-- 2787263756768&#45;&#45;2787263754560 -->
<g id="edge47" class="edge">
<title>2787263756768&#45;&#45;2787263754560</title>
<path fill="none" stroke="black" d="M1725.48,-348.67C1771.06,-344.63 1867.14,-336.11 1942.78,-329.4"/>
</g>
<!-- 2787263756528 -->
<g id="node56" class="node">
<title>2787263756528</title>
<ellipse fill="none" stroke="black" cx="1321" cy="-339" rx="149.62" ry="18"/>
<text text-anchor="middle" x="1321" y="-333" font-family="Times New Roman,serif" font-size="15.00">forward to the competent authority</text>
</g>
<!-- 2787263754896&#45;&#45;2787263756528 -->
<g id="edge51" class="edge">
<title>2787263754896&#45;&#45;2787263756528</title>
<path fill="none" stroke="black" d="M989.45,-339C1027.92,-339 1102.49,-339 1171.09,-339"/>
</g>
<!-- 2787263755472 -->
<g id="node57" class="node">
<title>2787263755472</title>
<ellipse fill="none" stroke="black" cx="1321" cy="-275" rx="45.21" ry="18"/>
<text text-anchor="middle" x="1321" y="-269" font-family="Times New Roman,serif" font-size="15.00">xor loop</text>
</g>
<!-- 2787263754896&#45;&#45;2787263755472 -->
<g id="edge75" class="edge">
<title>2787263754896&#45;&#45;2787263755472</title>
<path fill="none" stroke="black" d="M988.59,-334.45C1049.56,-323.51 1204.76,-295.67 1279.1,-282.34"/>
</g>
<!-- 2787263757920 -->
<g id="node58" class="node">
<title>2787263757920</title>
<ellipse fill="none" stroke="black" cx="1698.2" cy="-266" rx="27" ry="18"/>
<text text-anchor="middle" x="1698.2" y="-260" font-family="Times New Roman,serif" font-size="15.00">seq</text>
</g>
<!-- 2787263755472&#45;&#45;2787263757920 -->
<g id="edge73" class="edge">
<title>2787263755472&#45;&#45;2787263757920</title>
<path fill="none" stroke="black" d="M1366.51,-273.93C1445.52,-272.04 1607.88,-268.14 1671.15,-266.62"/>
</g>
<!-- 2787263757104 -->
<g id="node80" class="node">
<title>2787263757104</title>
<ellipse fill="black" stroke="black" cx="1698.2" cy="-227" rx="2.7" ry="2.7"/>
</g>
<!-- 2787263755472&#45;&#45;2787263757104 -->
<g id="edge74" class="edge">
<title>2787263755472&#45;&#45;2787263757104</title>
<path fill="none" stroke="black" d="M1364.31,-269.59C1457.07,-257.72 1671.94,-230.23 1695.16,-227.26"/>
</g>
<!-- 2787263749808 -->
<g id="node59" class="node">
<title>2787263749808</title>
<ellipse fill="none" stroke="black" cx="2049.82" cy="-266" rx="27" ry="18"/>
<text text-anchor="middle" x="2049.82" y="-260" font-family="Times New Roman,serif" font-size="15.00">xor</text>
</g>
<!-- 2787263757920&#45;&#45;2787263749808 -->
<g id="edge60" class="edge">
<title>2787263757920&#45;&#45;2787263749808</title>
<path fill="none" stroke="black" d="M1725.48,-266C1790.43,-266 1957.94,-266 2022.71,-266"/>
</g>
<!-- 2787263854832 -->
<g id="node68" class="node">
<title>2787263854832</title>
<ellipse fill="none" stroke="black" cx="2049.82" cy="-212" rx="27" ry="18"/>
<text text-anchor="middle" x="2049.82" y="-206" font-family="Times New Roman,serif" font-size="15.00">xor</text>
</g>
<!-- 2787263757920&#45;&#45;2787263854832 -->
<g id="edge63" class="edge">
<title>2787263757920&#45;&#45;2787263854832</title>
<path fill="none" stroke="black" d="M1724.91,-262.03C1789.57,-252.04 1958.38,-225.97 2023.07,-215.98"/>
</g>
<!-- 2787263845664 -->
<g id="node71" class="node">
<title>2787263845664</title>
<ellipse fill="none" stroke="black" cx="2049.82" cy="-119" rx="27" ry="18"/>
<text text-anchor="middle" x="2049.82" y="-113" font-family="Times New Roman,serif" font-size="15.00">xor</text>
</g>
<!-- 2787263757920&#45;&#45;2787263845664 -->
<g id="edge72" class="edge">
<title>2787263757920&#45;&#45;2787263845664</title>
<path fill="none" stroke="black" d="M1721.61,-256.58C1784.75,-230.03 1963.69,-154.8 2026.6,-128.34"/>
</g>
<!-- 2787263757536 -->
<g id="node60" class="node">
<title>2787263757536</title>
<ellipse fill="black" stroke="black" cx="2375.84" cy="-305" rx="2.7" ry="2.7"/>
</g>
<!-- 2787263749808&#45;&#45;2787263757536 -->
<g id="edge52" class="edge">
<title>2787263749808&#45;&#45;2787263757536</title>
<path fill="none" stroke="black" d="M2076.79,-269.13C2149.47,-277.87 2351.09,-302.14 2372.92,-304.77"/>
</g>
<!-- 2787263750480 -->
<g id="node61" class="node">
<title>2787263750480</title>
<ellipse fill="none" stroke="black" cx="2375.84" cy="-266" rx="27" ry="18"/>
<text text-anchor="middle" x="2375.84" y="-260" font-family="Times New Roman,serif" font-size="15.00">seq</text>
</g>
<!-- 2787263749808&#45;&#45;2787263750480 -->
<g id="edge59" class="edge">
<title>2787263749808&#45;&#45;2787263750480</title>
<path fill="none" stroke="black" d="M2077.06,-266C2137.78,-266 2287.4,-266 2348.36,-266"/>
</g>
<!-- 2787263746064 -->
<g id="node62" class="node">
<title>2787263746064</title>
<ellipse fill="none" stroke="black" cx="2767.38" cy="-269" rx="139.89" ry="18"/>
<text text-anchor="middle" x="2767.38" y="-263" font-family="Times New Roman,serif" font-size="15.00">regular procedure without MER</text>
</g>
<!-- 2787263750480&#45;&#45;2787263746064 -->
<g id="edge53" class="edge">
<title>2787263750480&#45;&#45;2787263746064</title>
<path fill="none" stroke="black" d="M2403.31,-266.2C2448.95,-266.56 2545.44,-267.3 2627.49,-267.93"/>
</g>
<!-- 2787263754800 -->
<g id="node63" class="node">
<title>2787263754800</title>
<ellipse fill="none" stroke="black" cx="2767.38" cy="-215" rx="27" ry="18"/>
<text text-anchor="middle" x="2767.38" y="-209" font-family="Times New Roman,serif" font-size="15.00">xor</text>
</g>
<!-- 2787263750480&#45;&#45;2787263754800 -->
<g id="edge58" class="edge">
<title>2787263750480&#45;&#45;2787263754800</title>
<path fill="none" stroke="black" d="M2402.7,-262.61C2473.48,-253.35 2669.77,-227.65 2740.53,-218.38"/>
</g>
<!-- 2787263846576 -->
<g id="node64" class="node">
<title>2787263846576</title>
<ellipse fill="black" stroke="black" cx="3119.51" cy="-239" rx="2.7" ry="2.7"/>
</g>
<!-- 2787263754800&#45;&#45;2787263846576 -->
<g id="edge54" class="edge">
<title>2787263754800&#45;&#45;2787263846576</title>
<path fill="none" stroke="black" d="M2794.7,-216.8C2871.67,-222.08 3092.48,-237.22 3116.4,-238.86"/>
</g>
<!-- 2787263847584 -->
<g id="node65" class="node">
<title>2787263847584</title>
<ellipse fill="none" stroke="black" cx="3119.51" cy="-200" rx="27" ry="18"/>
<text text-anchor="middle" x="3119.51" y="-194" font-family="Times New Roman,serif" font-size="15.00">seq</text>
</g>
<!-- 2787263754800&#45;&#45;2787263847584 -->
<g id="edge57" class="edge">
<title>2787263754800&#45;&#45;2787263847584</title>
<path fill="none" stroke="black" d="M2794.7,-213.87C2859.74,-211.09 3027.5,-203.9 3092.36,-201.12"/>
</g>
<!-- 2787263840480 -->
<g id="node66" class="node">
<title>2787263840480</title>
<ellipse fill="none" stroke="black" cx="3414.82" cy="-227" rx="132.73" ry="18"/>
<text text-anchor="middle" x="3414.82" y="-221" font-family="Times New Roman,serif" font-size="15.00">create procedure confirmation</text>
</g>
<!-- 2787263847584&#45;&#45;2787263840480 -->
<g id="edge55" class="edge">
<title>2787263847584&#45;&#45;2787263840480</title>
<path fill="none" stroke="black" d="M3146.54,-202.4C3181.73,-205.64 3246.65,-211.61 3303.7,-216.86"/>
</g>
<!-- 2787264784448 -->
<g id="node67" class="node">
<title>2787264784448</title>
<ellipse fill="none" stroke="black" cx="3414.82" cy="-173" rx="40.6" ry="18"/>
<text text-anchor="middle" x="3414.82" y="-167" font-family="Times New Roman,serif" font-size="15.00">publish</text>
</g>
<!-- 2787263847584&#45;&#45;2787264784448 -->
<g id="edge56" class="edge">
<title>2787263847584&#45;&#45;2787264784448</title>
<path fill="none" stroke="black" d="M3146.54,-197.6C3198.13,-192.85 3313.64,-182.22 3374.53,-176.62"/>
</g>
<!-- 2787263757392 -->
<g id="node69" class="node">
<title>2787263757392</title>
<ellipse fill="none" stroke="black" cx="2375.84" cy="-212" rx="124.54" ry="18"/>
<text text-anchor="middle" x="2375.84" y="-206" font-family="Times New Roman,serif" font-size="15.00">create publication document</text>
</g>
<!-- 2787263854832&#45;&#45;2787263757392 -->
<g id="edge61" class="edge">
<title>2787263854832&#45;&#45;2787263757392</title>
<path fill="none" stroke="black" d="M2077.06,-212C2114.88,-212 2187.18,-212 2251.07,-212"/>
</g>
<!-- 2787263744144 -->
<g id="node70" class="node">
<title>2787263744144</title>
<ellipse fill="none" stroke="black" cx="2375.84" cy="-158" rx="113.79" ry="18"/>
<text text-anchor="middle" x="2375.84" y="-152" font-family="Times New Roman,serif" font-size="15.00">send confirmation receipt</text>
</g>
<!-- 2787263854832&#45;&#45;2787263744144 -->
<g id="edge62" class="edge">
<title>2787263854832&#45;&#45;2787263744144</title>
<path fill="none" stroke="black" d="M2076.52,-207.72C2123.37,-199.91 2224.43,-183.07 2295.91,-171.15"/>
</g>
<!-- 2787263750384 -->
<g id="node72" class="node">
<title>2787263750384</title>
<ellipse fill="black" stroke="black" cx="2375.84" cy="-119" rx="2.7" ry="2.7"/>
</g>
<!-- 2787263845664&#45;&#45;2787263750384 -->
<g id="edge64" class="edge">
<title>2787263845664&#45;&#45;2787263750384</title>
<path fill="none" stroke="black" d="M2077.06,-119C2149.68,-119 2349.48,-119 2372.65,-119"/>
</g>
<!-- 2787263744000 -->
<g id="node73" class="node">
<title>2787263744000</title>
<ellipse fill="none" stroke="black" cx="2375.84" cy="-80" rx="27" ry="18"/>
<text text-anchor="middle" x="2375.84" y="-74" font-family="Times New Roman,serif" font-size="15.00">and</text>
</g>
<!-- 2787263845664&#45;&#45;2787263744000 -->
<g id="edge71" class="edge">
<title>2787263845664&#45;&#45;2787263744000</title>
<path fill="none" stroke="black" d="M2076.79,-115.87C2137.46,-108.57 2287.96,-90.46 2348.75,-83.14"/>
</g>
<!-- 2787263751824 -->
<g id="node74" class="node">
<title>2787263751824</title>
<ellipse fill="none" stroke="black" cx="2767.38" cy="-107" rx="27" ry="18"/>
<text text-anchor="middle" x="2767.38" y="-101" font-family="Times New Roman,serif" font-size="15.00">xor</text>
</g>
<!-- 2787263744000&#45;&#45;2787263751824 -->
<g id="edge67" class="edge">
<title>2787263744000&#45;&#45;2787263751824</title>
<path fill="none" stroke="black" d="M2403.01,-81.81C2473.89,-86.73 2669.03,-100.25 2740.07,-105.18"/>
</g>
<!-- 2787263755568 -->
<g id="node77" class="node">
<title>2787263755568</title>
<ellipse fill="none" stroke="black" cx="2767.38" cy="-53" rx="27" ry="18"/>
<text text-anchor="middle" x="2767.38" y="-47" font-family="Times New Roman,serif" font-size="15.00">xor</text>
</g>
<!-- 2787263744000&#45;&#45;2787263755568 -->
<g id="edge70" class="edge">
<title>2787263744000&#45;&#45;2787263755568</title>
<path fill="none" stroke="black" d="M2403.01,-78.19C2473.89,-73.27 2669.03,-59.75 2740.07,-54.82"/>
</g>
<!-- 2787264788336 -->
<g id="node75" class="node">
<title>2787264788336</title>
<ellipse fill="black" stroke="black" cx="3119.51" cy="-142" rx="2.7" ry="2.7"/>
</g>
<!-- 2787263751824&#45;&#45;2787264788336 -->
<g id="edge65" class="edge">
<title>2787263751824&#45;&#45;2787264788336</title>
<path fill="none" stroke="black" d="M2794.41,-109.6C2871.12,-117.27 3092.42,-139.39 3116.39,-141.79"/>
</g>
<!-- 2787264779984 -->
<g id="node76" class="node">
<title>2787264779984</title>
<ellipse fill="none" stroke="black" cx="3119.51" cy="-103" rx="124.54" ry="18"/>
<text text-anchor="middle" x="3119.51" y="-97" font-family="Times New Roman,serif" font-size="15.00">registration date publication</text>
</g>
<!-- 2787263751824&#45;&#45;2787264779984 -->
<g id="edge66" class="edge">
<title>2787263751824&#45;&#45;2787264779984</title>
<path fill="none" stroke="black" d="M2794.7,-106.7C2836.92,-106.22 2922.43,-105.24 2994.97,-104.41"/>
</g>
<!-- 2787264779744 -->
<g id="node78" class="node">
<title>2787264779744</title>
<ellipse fill="black" stroke="black" cx="3119.51" cy="-57" rx="2.7" ry="2.7"/>
</g>
<!-- 2787263755568&#45;&#45;2787264779744 -->
<g id="edge68" class="edge">
<title>2787263755568&#45;&#45;2787264779744</title>
<path fill="none" stroke="black" d="M2794.7,-53.3C2871.67,-54.18 3092.48,-56.7 3116.4,-56.98"/>
</g>
<!-- 2787264778304 -->
<g id="node79" class="node">
<title>2787264778304</title>
<ellipse fill="none" stroke="black" cx="3119.51" cy="-18" rx="102.02" ry="18"/>
<text text-anchor="middle" x="3119.51" y="-12" font-family="Times New Roman,serif" font-size="15.00">start WABOprocedure</text>
</g>
<!-- 2787263755568&#45;&#45;2787264778304 -->
<g id="edge69" class="edge">
<title>2787263755568&#45;&#45;2787264778304</title>
<path fill="none" stroke="black" d="M2794.41,-50.4C2843.54,-45.49 2951.99,-34.65 3029.91,-26.86"/>
</g>
<!-- 2787263747360 -->
<g id="node82" class="node">
<title>2787263747360</title>
<ellipse fill="black" stroke="black" cx="1321" cy="-236" rx="2.7" ry="2.7"/>
</g>
<!-- 2787263757728&#45;&#45;2787263747360 -->
<g id="edge77" class="edge">
<title>2787263757728&#45;&#45;2787263747360</title>
<path fill="none" stroke="black" d="M989.45,-236C1067.34,-236 1293.35,-236 1317.84,-236"/>
</g>
<!-- 2787263758208 -->
<g id="node83" class="node">
<title>2787263758208</title>
<ellipse fill="none" stroke="black" cx="1321" cy="-197" rx="143.48" ry="18"/>
<text text-anchor="middle" x="1321" y="-191" font-family="Times New Roman,serif" font-size="15.00">enter senddate acknowledgement</text>
</g>
<!-- 2787263757728&#45;&#45;2787263758208 -->
<g id="edge78" class="edge">
<title>2787263757728&#45;&#45;2787263758208</title>
<path fill="none" stroke="black" d="M989.17,-233.16C1035.19,-228.13 1133.57,-217.38 1211.14,-208.9"/>
</g>
<!-- 2787263464176 -->
<g id="node85" class="node">
<title>2787263464176</title>
<ellipse fill="black" stroke="black" cx="299.93" cy="-486" rx="2.7" ry="2.7"/>
</g>
<!-- 2787263471616&#45;&#45;2787263464176 -->
<g id="edge83" class="edge">
<title>2787263471616&#45;&#45;2787263464176</title>
<path fill="none" stroke="black" d="M141.28,-428.49C186.33,-444.93 282.3,-479.93 297.02,-485.3"/>
</g>
<!-- 2787263840720 -->
<g id="node86" class="node">
<title>2787263840720</title>
<ellipse fill="none" stroke="black" cx="299.93" cy="-447" rx="117.89" ry="18"/>
<text text-anchor="middle" x="299.93" y="-441" font-family="Times New Roman,serif" font-size="15.00">read publication date field</text>
</g>
<!-- 2787263471616&#45;&#45;2787263840720 -->
<g id="edge84" class="edge">
<title>2787263471616&#45;&#45;2787263840720</title>
<path fill="none" stroke="black" d="M143.54,-423.81C162.15,-426.59 188.49,-430.52 214.22,-434.36"/>
</g>
<!-- 2787263841584 -->
<g id="node87" class="node">
<title>2787263841584</title>
<ellipse fill="none" stroke="black" cx="299.93" cy="-393" rx="27" ry="18"/>
<text text-anchor="middle" x="299.93" y="-387" font-family="Times New Roman,serif" font-size="15.00">seq</text>
</g>
<!-- 2787263471616&#45;&#45;2787263841584 -->
<g id="edge87" class="edge">
<title>2787263471616&#45;&#45;2787263841584</title>
<path fill="none" stroke="black" d="M143.54,-416.19C177.93,-411.06 238.76,-401.98 273.23,-396.84"/>
</g>
<!-- 2787263475936 -->
<g id="node90" class="node">
<title>2787263475936</title>
<ellipse fill="none" stroke="black" cx="299.93" cy="-339" rx="52.89" ry="18"/>
<text text-anchor="middle" x="299.93" y="-333" font-family="Times New Roman,serif" font-size="15.00">close case</text>
</g>
<!-- 2787263471616&#45;&#45;2787263475936 -->
<g id="edge88" class="edge">
<title>2787263471616&#45;&#45;2787263475936</title>
<path fill="none" stroke="black" d="M140.19,-410.07C171.89,-395.87 230.35,-369.7 266.79,-353.39"/>
</g>
<!-- 2787263747744 -->
<g id="node91" class="node">
<title>2787263747744</title>
<ellipse fill="none" stroke="black" cx="299.93" cy="-285" rx="27" ry="18"/>
<text text-anchor="middle" x="299.93" y="-279" font-family="Times New Roman,serif" font-size="15.00">seq</text>
</g>
<!-- 2787263471616&#45;&#45;2787263747744 -->
<g id="edge93" class="edge">
<title>2787263471616&#45;&#45;2787263747744</title>
<path fill="none" stroke="black" d="M135.68,-406.81C170.27,-381 246.54,-324.1 281.18,-298.24"/>
</g>
<!-- 2787263753216 -->
<g id="node88" class="node">
<title>2787263753216</title>
<ellipse fill="none" stroke="black" cx="604.46" cy="-447" rx="92.3" ry="18"/>
<text text-anchor="middle" x="604.46" y="-441" font-family="Times New Roman,serif" font-size="15.00">phase archived case</text>
</g>
<!-- 2787263841584&#45;&#45;2787263753216 -->
<g id="edge85" class="edge">
<title>2787263841584&#45;&#45;2787263753216</title>
<path fill="none" stroke="black" d="M326.47,-397.56C372.05,-405.69 468.86,-422.97 535.05,-434.79"/>
</g>
<!-- 2787263757344 -->
<g id="node89" class="node">
<title>2787263757344</title>
<ellipse fill="none" stroke="black" cx="604.46" cy="-393" rx="88.71" ry="18"/>
<text text-anchor="middle" x="604.46" y="-387" font-family="Times New Roman,serif" font-size="15.00">phase case handled</text>
</g>
<!-- 2787263841584&#45;&#45;2787263757344 -->
<g id="edge86" class="edge">
<title>2787263841584&#45;&#45;2787263757344</title>
<path fill="none" stroke="black" d="M327.25,-393C368.8,-393 451.44,-393 515.56,-393"/>
</g>
<!-- 2787263745440 -->
<g id="node92" class="node">
<title>2787263745440</title>
<ellipse fill="none" stroke="black" cx="604.46" cy="-339" rx="148.59" ry="18"/>
<text text-anchor="middle" x="604.46" y="-333" font-family="Times New Roman,serif" font-size="15.00">no permit required for application</text>
</g>
<!-- 2787263747744&#45;&#45;2787263745440 -->
<g id="edge89" class="edge">
<title>2787263747744&#45;&#45;2787263745440</title>
<path fill="none" stroke="black" d="M326.47,-289.56C368.49,-297.06 454.04,-312.33 519.01,-323.93"/>
</g>
<!-- 2787263756912 -->
<g id="node93" class="node">
<title>2787263756912</title>
<ellipse fill="none" stroke="black" cx="604.46" cy="-285" rx="64.15" ry="18"/>
<text text-anchor="middle" x="604.46" y="-279" font-family="Times New Roman,serif" font-size="15.00">MER present</text>
</g>
<!-- 2787263747744&#45;&#45;2787263756912 -->
<g id="edge90" class="edge">
<title>2787263747744&#45;&#45;2787263756912</title>
<path fill="none" stroke="black" d="M327.25,-285C374.33,-285 474.19,-285 540.05,-285"/>
</g>
<!-- 2787263755520 -->
<g id="node94" class="node">
<title>2787263755520</title>
<ellipse fill="none" stroke="black" cx="604.46" cy="-231" rx="123" ry="18"/>
<text text-anchor="middle" x="604.46" y="-225" font-family="Times New Roman,serif" font-size="15.00">activities regular procedure</text>
</g>
<!-- 2787263747744&#45;&#45;2787263755520 -->
<g id="edge91" class="edge">
<title>2787263747744&#45;&#45;2787263755520</title>
<path fill="none" stroke="black" d="M326.47,-280.44C369.7,-272.73 459.01,-256.78 524.58,-245.08"/>
</g>
<!-- 2787263752208 -->
<g id="node95" class="node">
<title>2787263752208</title>
<ellipse fill="none" stroke="black" cx="604.46" cy="-177" rx="87.18" ry="18"/>
<text text-anchor="middle" x="604.46" y="-171" font-family="Times New Roman,serif" font-size="15.00">phased application</text>
</g>
<!-- 2787263747744&#45;&#45;2787263752208 -->
<g id="edge92" class="edge">
<title>2787263747744&#45;&#45;2787263752208</title>
<path fill="none" stroke="black" d="M324.17,-276.7C374.46,-258.75 494.12,-216.03 559.3,-192.77"/>
</g>
</g>
</svg>
