<?xml version="1.0" encoding="UTF-8" standalone="no"?>
<!DOCTYPE svg PUBLIC "-//W3C//DTD SVG 1.1//EN"
 "http://www.w3.org/Graphics/SVG/1.1/DTD/svg11.dtd">
<!-- Generated by graphviz version 11.0.0 (20240428.1522)
 -->
<!-- Title: pt Pages: 1 -->
<svg width="2814pt" height="1043pt"
 viewBox="0.00 0.00 2814.37 1043.00" xmlns="http://www.w3.org/2000/svg" xmlns:xlink="http://www.w3.org/1999/xlink">
<g id="graph0" class="graph" transform="scale(1 1) rotate(0) translate(4 1039)">
<title>pt</title>
<polygon fill="white" stroke="none" points="-4,4 -4,-1039 2810.37,-1039 2810.37,4 -4,4"/>
<!-- 2787264606960 -->
<g id="node1" class="node">
<title>2787264606960</title>
<ellipse fill="none" stroke="black" cx="27" cy="-571" rx="27" ry="18"/>
<text text-anchor="middle" x="27" y="-565" font-family="Times New Roman,serif" font-size="15.00">seq</text>
</g>
<!-- 2787264606000 -->
<g id="node2" class="node">
<title>2787264606000</title>
<ellipse fill="none" stroke="black" cx="117" cy="-733" rx="27" ry="18"/>
<text text-anchor="middle" x="117" y="-727" font-family="Times New Roman,serif" font-size="15.00">xor</text>
</g>
<!-- 2787264606960&#45;&#45;2787264606000 -->
<g id="edge52" class="edge">
<title>2787264606960&#45;&#45;2787264606000</title>
<path fill="none" stroke="black" d="M37.25,-588.03C54.2,-619.23 90.02,-685.17 106.87,-716.2"/>
</g>
<!-- 2787264599328 -->
<g id="node54" class="node">
<title>2787264599328</title>
<ellipse fill="none" stroke="black" cx="117" cy="-517" rx="27" ry="18"/>
<text text-anchor="middle" x="117" y="-511" font-family="Times New Roman,serif" font-size="15.00">xor</text>
</g>
<!-- 2787264606960&#45;&#45;2787264599328 -->
<g id="edge63" class="edge">
<title>2787264606960&#45;&#45;2787264599328</title>
<path fill="none" stroke="black" d="M47.53,-559.02C62.11,-550.07 81.95,-537.89 96.52,-528.95"/>
</g>
<!-- 2787264597648 -->
<g id="node3" class="node">
<title>2787264597648</title>
<ellipse fill="black" stroke="black" cx="297.89" cy="-867" rx="2.7" ry="2.7"/>
</g>
<!-- 2787264606000&#45;&#45;2787264597648 -->
<g id="edge1" class="edge">
<title>2787264606000&#45;&#45;2787264597648</title>
<path fill="none" stroke="black" d="M135.81,-746.34C177.87,-777.85 280.95,-855.06 295.23,-865.76"/>
</g>
<!-- 2787264604848 -->
<g id="node4" class="node">
<title>2787264604848</title>
<ellipse fill="none" stroke="black" cx="297.89" cy="-828" rx="27" ry="18"/>
<text text-anchor="middle" x="297.89" y="-822" font-family="Times New Roman,serif" font-size="15.00">seq</text>
</g>
<!-- 2787264606000&#45;&#45;2787264604848 -->
<g id="edge12" class="edge">
<title>2787264606000&#45;&#45;2787264604848</title>
<path fill="none" stroke="black" d="M138.87,-744.08C173.34,-762.39 241.77,-798.73 276.15,-816.99"/>
</g>
<!-- 2787264609168 -->
<g id="node15" class="node">
<title>2787264609168</title>
<ellipse fill="none" stroke="black" cx="297.89" cy="-652" rx="27" ry="18"/>
<text text-anchor="middle" x="297.89" y="-646" font-family="Times New Roman,serif" font-size="15.00">and</text>
</g>
<!-- 2787264606000&#45;&#45;2787264609168 -->
<g id="edge51" class="edge">
<title>2787264606000&#45;&#45;2787264609168</title>
<path fill="none" stroke="black" d="M139.93,-723.07C174.27,-707.52 240.33,-677.61 274.77,-662.01"/>
</g>
<!-- 2787264605424 -->
<g id="node5" class="node">
<title>2787264605424</title>
<ellipse fill="none" stroke="black" cx="624.93" cy="-1017" rx="128.63" ry="18"/>
<text text-anchor="middle" x="624.93" y="-1011" font-family="Times New Roman,serif" font-size="15.00">initiative competent authority</text>
</g>
<!-- 2787264604848&#45;&#45;2787264605424 -->
<g id="edge2" class="edge">
<title>2787264604848&#45;&#45;2787264605424</title>
<path fill="none" stroke="black" d="M318.73,-839.54C373.59,-871.44 527.58,-960.98 593.44,-999.27"/>
</g>
<!-- 2787264607152 -->
<g id="node6" class="node">
<title>2787264607152</title>
<ellipse fill="none" stroke="black" cx="624.93" cy="-963" rx="168.04" ry="18"/>
<text text-anchor="middle" x="624.93" y="-957" font-family="Times New Roman,serif" font-size="15.00">enter date termination request received</text>
</g>
<!-- 2787264604848&#45;&#45;2787264607152 -->
<g id="edge3" class="edge">
<title>2787264604848&#45;&#45;2787264607152</title>
<path fill="none" stroke="black" d="M321.49,-837.39C375.19,-859.69 511.16,-916.16 581.04,-945.18"/>
</g>
<!-- 2787264597600 -->
<g id="node7" class="node">
<title>2787264597600</title>
<ellipse fill="none" stroke="black" cx="624.93" cy="-909" rx="173.16" ry="18"/>
<text text-anchor="middle" x="624.93" y="-903" font-family="Times New Roman,serif" font-size="15.00">phase procedure prematurely terminated</text>
</g>
<!-- 2787264604848&#45;&#45;2787264597600 -->
<g id="edge4" class="edge">
<title>2787264604848&#45;&#45;2787264597600</title>
<path fill="none" stroke="black" d="M323.58,-834.15C372.55,-846.36 483.45,-873.99 555.92,-892.05"/>
</g>
<!-- 2787264608880 -->
<g id="node8" class="node">
<title>2787264608880</title>
<ellipse fill="none" stroke="black" cx="624.93" cy="-855" rx="143.48" ry="18"/>
<text text-anchor="middle" x="624.93" y="-849" font-family="Times New Roman,serif" font-size="15.00">create message terminate request</text>
</g>
<!-- 2787264604848&#45;&#45;2787264608880 -->
<g id="edge5" class="edge">
<title>2787264604848&#45;&#45;2787264608880</title>
<path fill="none" stroke="black" d="M324.94,-830.16C363.58,-833.37 438.54,-839.6 503.74,-845.02"/>
</g>
<!-- 2787264606144 -->
<g id="node9" class="node">
<title>2787264606144</title>
<ellipse fill="none" stroke="black" cx="624.93" cy="-801" rx="27" ry="18"/>
<text text-anchor="middle" x="624.93" y="-795" font-family="Times New Roman,serif" font-size="15.00">and</text>
</g>
<!-- 2787264604848&#45;&#45;2787264606144 -->
<g id="edge8" class="edge">
<title>2787264604848&#45;&#45;2787264606144</title>
<path fill="none" stroke="black" d="M324.94,-825.84C385.8,-820.78 536.78,-808.24 597.76,-803.17"/>
</g>
<!-- 2787264604176 -->
<g id="node12" class="node">
<title>2787264604176</title>
<ellipse fill="none" stroke="black" cx="624.93" cy="-747" rx="27" ry="18"/>
<text text-anchor="middle" x="624.93" y="-741" font-family="Times New Roman,serif" font-size="15.00">and</text>
</g>
<!-- 2787264604848&#45;&#45;2787264604176 -->
<g id="edge11" class="edge">
<title>2787264604848&#45;&#45;2787264604176</title>
<path fill="none" stroke="black" d="M323.58,-821.85C384.03,-806.78 538.87,-768.2 599.27,-753.15"/>
</g>
<!-- 2787264608448 -->
<g id="node10" class="node">
<title>2787264608448</title>
<ellipse fill="none" stroke="black" cx="982.69" cy="-855" rx="116.35" ry="18"/>
<text text-anchor="middle" x="982.69" y="-849" font-family="Times New Roman,serif" font-size="15.00">message terminate request</text>
</g>
<!-- 2787264606144&#45;&#45;2787264608448 -->
<g id="edge6" class="edge">
<title>2787264606144&#45;&#45;2787264608448</title>
<path fill="none" stroke="black" d="M651.81,-804.93C702.81,-812.67 818.32,-830.2 898.15,-842.32"/>
</g>
<!-- 2787264609456 -->
<g id="node11" class="node">
<title>2787264609456</title>
<ellipse fill="none" stroke="black" cx="982.69" cy="-801" rx="148.59" ry="18"/>
<text text-anchor="middle" x="982.69" y="-795" font-family="Times New Roman,serif" font-size="15.00">enter senddate request termination</text>
</g>
<!-- 2787264606144&#45;&#45;2787264609456 -->
<g id="edge7" class="edge">
<title>2787264606144&#45;&#45;2787264609456</title>
<path fill="none" stroke="black" d="M652.38,-801C690.95,-801 765.49,-801 833.91,-801"/>
</g>
<!-- 2787264603840 -->
<g id="node13" class="node">
<title>2787264603840</title>
<ellipse fill="none" stroke="black" cx="982.69" cy="-747" rx="78.99" ry="18"/>
<text text-anchor="middle" x="982.69" y="-741" font-family="Times New Roman,serif" font-size="15.00">register deadline</text>
</g>
<!-- 2787264604176&#45;&#45;2787264603840 -->
<g id="edge9" class="edge">
<title>2787264604176&#45;&#45;2787264603840</title>
<path fill="none" stroke="black" d="M652.38,-747C704.8,-747 823.66,-747 903.31,-747"/>
</g>
<!-- 2787264598464 -->
<g id="node14" class="node">
<title>2787264598464</title>
<ellipse fill="none" stroke="black" cx="982.69" cy="-693" rx="110.72" ry="18"/>
<text text-anchor="middle" x="982.69" y="-687" font-family="Times New Roman,serif" font-size="15.00">phase procedure aborted</text>
</g>
<!-- 2787264604176&#45;&#45;2787264598464 -->
<g id="edge10" class="edge">
<title>2787264604176&#45;&#45;2787264598464</title>
<path fill="none" stroke="black" d="M651.81,-743.07C703.29,-735.26 820.5,-717.47 900.39,-705.34"/>
</g>
<!-- 2787264604512 -->
<g id="node16" class="node">
<title>2787264604512</title>
<ellipse fill="none" stroke="black" cx="624.93" cy="-693" rx="149.62" ry="18"/>
<text text-anchor="middle" x="624.93" y="-687" font-family="Times New Roman,serif" font-size="15.00">forward to the competent authority</text>
</g>
<!-- 2787264609168&#45;&#45;2787264604512 -->
<g id="edge13" class="edge">
<title>2787264609168&#45;&#45;2787264604512</title>
<path fill="none" stroke="black" d="M324.94,-655.29C366.74,-660.56 451.06,-671.19 519.53,-679.83"/>
</g>
<!-- 2787264602160 -->
<g id="node17" class="node">
<title>2787264602160</title>
<ellipse fill="none" stroke="black" cx="624.93" cy="-639" rx="119.93" ry="18"/>
<text text-anchor="middle" x="624.93" y="-633" font-family="Times New Roman,serif" font-size="15.00">phase application received</text>
</g>
<!-- 2787264609168&#45;&#45;2787264602160 -->
<g id="edge14" class="edge">
<title>2787264609168&#45;&#45;2787264602160</title>
<path fill="none" stroke="black" d="M325.21,-650.95C364.88,-649.36 442.4,-646.26 508.52,-643.62"/>
</g>
<!-- 2787264610176 -->
<g id="node18" class="node">
<title>2787264610176</title>
<ellipse fill="none" stroke="black" cx="624.93" cy="-585" rx="27" ry="18"/>
<text text-anchor="middle" x="624.93" y="-579" font-family="Times New Roman,serif" font-size="15.00">seq</text>
</g>
<!-- 2787264609168&#45;&#45;2787264610176 -->
<g id="edge50" class="edge">
<title>2787264609168&#45;&#45;2787264610176</title>
<path fill="none" stroke="black" d="M324.12,-646.8C384.83,-634.28 538.47,-602.62 598.94,-590.15"/>
</g>
<!-- 2787264602064 -->
<g id="node19" class="node">
<title>2787264602064</title>
<ellipse fill="none" stroke="black" cx="982.69" cy="-639" rx="27" ry="18"/>
<text text-anchor="middle" x="982.69" y="-633" font-family="Times New Roman,serif" font-size="15.00">and</text>
</g>
<!-- 2787264610176&#45;&#45;2787264602064 -->
<g id="edge45" class="edge">
<title>2787264610176&#45;&#45;2787264602064</title>
<path fill="none" stroke="black" d="M651.81,-588.93C717.52,-598.9 890.31,-625.13 955.92,-635.09"/>
</g>
<!-- 2787264600432 -->
<g id="node50" class="node">
<title>2787264600432</title>
<ellipse fill="none" stroke="black" cx="982.69" cy="-585" rx="27" ry="18"/>
<text text-anchor="middle" x="982.69" y="-579" font-family="Times New Roman,serif" font-size="15.00">xor</text>
</g>
<!-- 2787264610176&#45;&#45;2787264600432 -->
<g id="edge48" class="edge">
<title>2787264610176&#45;&#45;2787264600432</title>
<path fill="none" stroke="black" d="M652.38,-585C718.41,-585 889.86,-585 955.55,-585"/>
</g>
<!-- 2787264599808 -->
<g id="node53" class="node">
<title>2787264599808</title>
<ellipse fill="none" stroke="black" cx="982.69" cy="-531" rx="124.54" ry="18"/>
<text text-anchor="middle" x="982.69" y="-525" font-family="Times New Roman,serif" font-size="15.00">registration date publication</text>
</g>
<!-- 2787264610176&#45;&#45;2787264599808 -->
<g id="edge49" class="edge">
<title>2787264610176&#45;&#45;2787264599808</title>
<path fill="none" stroke="black" d="M651.81,-581.07C702.17,-573.43 815.43,-556.24 895.13,-544.14"/>
</g>
<!-- 2787264600048 -->
<g id="node20" class="node">
<title>2787264600048</title>
<ellipse fill="none" stroke="black" cx="1333.28" cy="-732" rx="140.41" ry="18"/>
<text text-anchor="middle" x="1333.28" y="-726" font-family="Times New Roman,serif" font-size="15.00">register submission date request</text>
</g>
<!-- 2787264602064&#45;&#45;2787264600048 -->
<g id="edge15" class="edge">
<title>2787264602064&#45;&#45;2787264600048</title>
<path fill="none" stroke="black" d="M1008.2,-645.54C1062.13,-659.93 1192.47,-694.7 1270.43,-715.5"/>
</g>
<!-- 2787264599712 -->
<g id="node21" class="node">
<title>2787264599712</title>
<ellipse fill="none" stroke="black" cx="1333.28" cy="-678" rx="166" ry="18"/>
<text text-anchor="middle" x="1333.28" y="-672" font-family="Times New Roman,serif" font-size="15.00">enter senddate procedure confirmation</text>
</g>
<!-- 2787264602064&#45;&#45;2787264599712 -->
<g id="edge16" class="edge">
<title>2787264602064&#45;&#45;2787264599712</title>
<path fill="none" stroke="black" d="M1009.61,-641.9C1052.76,-646.73 1141.89,-656.7 1215.56,-664.94"/>
</g>
<!-- 2787264598992 -->
<g id="node22" class="node">
<title>2787264598992</title>
<ellipse fill="none" stroke="black" cx="1333.28" cy="-624" rx="27" ry="18"/>
<text text-anchor="middle" x="1333.28" y="-618" font-family="Times New Roman,serif" font-size="15.00">seq</text>
</g>
<!-- 2787264602064&#45;&#45;2787264598992 -->
<g id="edge44" class="edge">
<title>2787264602064&#45;&#45;2787264598992</title>
<path fill="none" stroke="black" d="M1009.89,-637.87C1074.65,-635.09 1241.67,-627.9 1306.25,-625.12"/>
</g>
<!-- 2787264597984 -->
<g id="node23" class="node">
<title>2787264597984</title>
<ellipse fill="none" stroke="black" cx="1562.28" cy="-651" rx="27" ry="18"/>
<text text-anchor="middle" x="1562.28" y="-645" font-family="Times New Roman,serif" font-size="15.00">xor</text>
</g>
<!-- 2787264598992&#45;&#45;2787264597984 -->
<g id="edge19" class="edge">
<title>2787264598992&#45;&#45;2787264597984</title>
<path fill="none" stroke="black" d="M1360.32,-627.1C1403.99,-632.29 1491.49,-642.7 1535.19,-647.9"/>
</g>
<!-- 2787264608640 -->
<g id="node26" class="node">
<title>2787264608640</title>
<ellipse fill="none" stroke="black" cx="1562.28" cy="-597" rx="27" ry="18"/>
<text text-anchor="middle" x="1562.28" y="-591" font-family="Times New Roman,serif" font-size="15.00">and</text>
</g>
<!-- 2787264598992&#45;&#45;2787264608640 -->
<g id="edge43" class="edge">
<title>2787264598992&#45;&#45;2787264608640</title>
<path fill="none" stroke="black" d="M1360.32,-620.9C1403.99,-615.71 1491.49,-605.3 1535.19,-600.1"/>
</g>
<!-- 2787264609840 -->
<g id="node24" class="node">
<title>2787264609840</title>
<ellipse fill="black" stroke="black" cx="1749.31" cy="-690" rx="2.7" ry="2.7"/>
</g>
<!-- 2787264597984&#45;&#45;2787264609840 -->
<g id="edge17" class="edge">
<title>2787264597984&#45;&#45;2787264609840</title>
<path fill="none" stroke="black" d="M1588.23,-656.26C1634.79,-666.07 1731.55,-686.47 1746.38,-689.59"/>
</g>
<!-- 2787264599424 -->
<g id="node25" class="node">
<title>2787264599424</title>
<ellipse fill="none" stroke="black" cx="1749.31" cy="-651" rx="124.03" ry="18"/>
<text text-anchor="middle" x="1749.31" y="-645" font-family="Times New Roman,serif" font-size="15.00">treat subcases completeness</text>
</g>
<!-- 2787264597984&#45;&#45;2787264599424 -->
<g id="edge18" class="edge">
<title>2787264597984&#45;&#45;2787264599424</title>
<path fill="none" stroke="black" d="M1589.4,-651C1599.46,-651 1611.73,-651 1624.96,-651"/>
</g>
<!-- 2787264600528 -->
<g id="node27" class="node">
<title>2787264600528</title>
<ellipse fill="none" stroke="black" cx="1749.31" cy="-597" rx="45.21" ry="18"/>
<text text-anchor="middle" x="1749.31" y="-591" font-family="Times New Roman,serif" font-size="15.00">xor loop</text>
</g>
<!-- 2787264608640&#45;&#45;2787264600528 -->
<g id="edge22" class="edge">
<title>2787264608640&#45;&#45;2787264600528</title>
<path fill="none" stroke="black" d="M1589.4,-597C1619.08,-597 1668.04,-597 1703.79,-597"/>
</g>
<!-- 2787264596880 -->
<g id="node30" class="node">
<title>2787264596880</title>
<ellipse fill="none" stroke="black" cx="1749.31" cy="-315" rx="27" ry="18"/>
<text text-anchor="middle" x="1749.31" y="-309" font-family="Times New Roman,serif" font-size="15.00">seq</text>
</g>
<!-- 2787264608640&#45;&#45;2787264596880 -->
<g id="edge42" class="edge">
<title>2787264608640&#45;&#45;2787264596880</title>
<path fill="none" stroke="black" d="M1574.03,-580.62C1606.73,-530.78 1704.79,-381.33 1737.53,-331.43"/>
</g>
<!-- 2787264331600 -->
<g id="node28" class="node">
<title>2787264331600</title>
<ellipse fill="none" stroke="black" cx="2098.88" cy="-636" rx="189.54" ry="18"/>
<text text-anchor="middle" x="2098.88" y="-630" font-family="Times New Roman,serif" font-size="15.00">registrer date of publishing received request</text>
</g>
<!-- 2787264600528&#45;&#45;2787264331600 -->
<g id="edge20" class="edge">
<title>2787264600528&#45;&#45;2787264331600</title>
<path fill="none" stroke="black" d="M1793.27,-601.82C1838.23,-606.87 1910.9,-615.02 1973.98,-622.1"/>
</g>
<!-- 2787264317440 -->
<g id="node29" class="node">
<title>2787264317440</title>
<ellipse fill="black" stroke="black" cx="2098.88" cy="-597" rx="2.7" ry="2.7"/>
</g>
<!-- 2787264600528&#45;&#45;2787264317440 -->
<g id="edge21" class="edge">
<title>2787264600528&#45;&#45;2787264317440</title>
<path fill="none" stroke="black" d="M1794.68,-597C1883.26,-597 2075.31,-597 2096.05,-597"/>
</g>
<!-- 2787264331216 -->
<g id="node31" class="node">
<title>2787264331216</title>
<ellipse fill="none" stroke="black" cx="2098.88" cy="-558" rx="103.56" ry="18"/>
<text text-anchor="middle" x="2098.88" y="-552" font-family="Times New Roman,serif" font-size="15.00">reception through OLO</text>
</g>
<!-- 2787264596880&#45;&#45;2787264331216 -->
<g id="edge23" class="edge">
<title>2787264596880&#45;&#45;2787264331216</title>
<path fill="none" stroke="black" d="M1768.5,-327.72C1826.33,-368.15 2005.99,-493.76 2072.65,-540.36"/>
</g>
<!-- 2787264329968 -->
<g id="node32" class="node">
<title>2787264329968</title>
<ellipse fill="none" stroke="black" cx="2098.88" cy="-504" rx="102.02" ry="18"/>
<text text-anchor="middle" x="2098.88" y="-498" font-family="Times New Roman,serif" font-size="15.00">OLO messaging active</text>
</g>
<!-- 2787264596880&#45;&#45;2787264329968 -->
<g id="edge24" class="edge">
<title>2787264596880&#45;&#45;2787264329968</title>
<path fill="none" stroke="black" d="M1771.01,-326.26C1829.39,-358 1995.67,-448.42 2065.92,-486.63"/>
</g>
<!-- 2787264327808 -->
<g id="node33" class="node">
<title>2787264327808</title>
<ellipse fill="none" stroke="black" cx="2098.88" cy="-450" rx="27" ry="18"/>
<text text-anchor="middle" x="2098.88" y="-444" font-family="Times New Roman,serif" font-size="15.00">and</text>
</g>
<!-- 2787264596880&#45;&#45;2787264327808 -->
<g id="edge29" class="edge">
<title>2787264596880&#45;&#45;2787264327808</title>
<path fill="none" stroke="black" d="M1773.11,-323.86C1836.09,-348.32 2011.91,-416.61 2074.99,-441.11"/>
</g>
<!-- 2787264330688 -->
<g id="node38" class="node">
<title>2787264330688</title>
<ellipse fill="none" stroke="black" cx="2098.88" cy="-396" rx="139.89" ry="18"/>
<text text-anchor="middle" x="2098.88" y="-390" font-family="Times New Roman,serif" font-size="15.00">regular procedure without MER</text>
</g>
<!-- 2787264596880&#45;&#45;2787264330688 -->
<g id="edge30" class="edge">
<title>2787264596880&#45;&#45;2787264330688</title>
<path fill="none" stroke="black" d="M1775.3,-320.83C1827.84,-333.07 1951.28,-361.84 2029.31,-380.02"/>
</g>
<!-- 2787264224032 -->
<g id="node39" class="node">
<title>2787264224032</title>
<ellipse fill="none" stroke="black" cx="2098.88" cy="-342" rx="132.73" ry="18"/>
<text text-anchor="middle" x="2098.88" y="-336" font-family="Times New Roman,serif" font-size="15.00">create procedure confirmation</text>
</g>
<!-- 2787264596880&#45;&#45;2787264224032 -->
<g id="edge31" class="edge">
<title>2787264596880&#45;&#45;2787264224032</title>
<path fill="none" stroke="black" d="M1776.43,-317.03C1819.77,-320.4 1909.03,-327.33 1982.52,-333.04"/>
</g>
<!-- 2787264228016 -->
<g id="node40" class="node">
<title>2787264228016</title>
<ellipse fill="none" stroke="black" cx="2098.88" cy="-288" rx="40.6" ry="18"/>
<text text-anchor="middle" x="2098.88" y="-282" font-family="Times New Roman,serif" font-size="15.00">publish</text>
</g>
<!-- 2787264596880&#45;&#45;2787264228016 -->
<g id="edge32" class="edge">
<title>2787264596880&#45;&#45;2787264228016</title>
<path fill="none" stroke="black" d="M1776.43,-312.97C1836.9,-308.27 1986.77,-296.63 2058.46,-291.06"/>
</g>
<!-- 2787264224128 -->
<g id="node41" class="node">
<title>2787264224128</title>
<ellipse fill="none" stroke="black" cx="2098.88" cy="-234" rx="124.54" ry="18"/>
<text text-anchor="middle" x="2098.88" y="-228" font-family="Times New Roman,serif" font-size="15.00">create publication document</text>
</g>
<!-- 2787264596880&#45;&#45;2787264224128 -->
<g id="edge33" class="edge">
<title>2787264596880&#45;&#45;2787264224128</title>
<path fill="none" stroke="black" d="M1775.3,-309.17C1828.3,-296.82 1953.48,-267.65 2031.38,-249.5"/>
</g>
<!-- 2787264222736 -->
<g id="node42" class="node">
<title>2787264222736</title>
<ellipse fill="none" stroke="black" cx="2098.88" cy="-180" rx="27" ry="18"/>
<text text-anchor="middle" x="2098.88" y="-174" font-family="Times New Roman,serif" font-size="15.00">xor</text>
</g>
<!-- 2787264596880&#45;&#45;2787264222736 -->
<g id="edge38" class="edge">
<title>2787264596880&#45;&#45;2787264222736</title>
<path fill="none" stroke="black" d="M1773.11,-306.14C1836.09,-281.68 2011.91,-213.39 2074.99,-188.89"/>
</g>
<!-- 2787265524752 -->
<g id="node47" class="node">
<title>2787265524752</title>
<ellipse fill="none" stroke="black" cx="2098.88" cy="-126" rx="102.02" ry="18"/>
<text text-anchor="middle" x="2098.88" y="-120" font-family="Times New Roman,serif" font-size="15.00">start WABOprocedure</text>
</g>
<!-- 2787264596880&#45;&#45;2787265524752 -->
<g id="edge39" class="edge">
<title>2787264596880&#45;&#45;2787265524752</title>
<path fill="none" stroke="black" d="M1771.01,-303.74C1829.39,-272 1995.67,-181.58 2065.92,-143.37"/>
</g>
<!-- 2787264602736 -->
<g id="node48" class="node">
<title>2787264602736</title>
<ellipse fill="none" stroke="black" cx="2098.88" cy="-72" rx="126.59" ry="18"/>
<text text-anchor="middle" x="2098.88" y="-66" font-family="Times New Roman,serif" font-size="15.00">send procedure confirmation</text>
</g>
<!-- 2787264596880&#45;&#45;2787264602736 -->
<g id="edge40" class="edge">
<title>2787264596880&#45;&#45;2787264602736</title>
<path fill="none" stroke="black" d="M1768.5,-302.28C1826.19,-261.95 2005.12,-136.85 2072.16,-89.98"/>
</g>
<!-- 2787264602784 -->
<g id="node49" class="node">
<title>2787264602784</title>
<ellipse fill="none" stroke="black" cx="2098.88" cy="-18" rx="63.63" ry="18"/>
<text text-anchor="middle" x="2098.88" y="-12" font-family="Times New Roman,serif" font-size="15.00">suspend term</text>
</g>
<!-- 2787264596880&#45;&#45;2787264602784 -->
<g id="edge41" class="edge">
<title>2787264596880&#45;&#45;2787264602784</title>
<path fill="none" stroke="black" d="M1766.61,-301.07C1823.78,-252.22 2015.14,-88.7 2077.82,-35.14"/>
</g>
<!-- 2787264221968 -->
<g id="node34" class="node">
<title>2787264221968</title>
<ellipse fill="none" stroke="black" cx="2416.71" cy="-477" rx="92.3" ry="18"/>
<text text-anchor="middle" x="2416.71" y="-471" font-family="Times New Roman,serif" font-size="15.00">terminate on request</text>
</g>
<!-- 2787264327808&#45;&#45;2787264221968 -->
<g id="edge25" class="edge">
<title>2787264327808&#45;&#45;2787264221968</title>
<path fill="none" stroke="black" d="M2125.99,-452.23C2170.48,-456.04 2262.79,-463.93 2331.32,-469.79"/>
</g>
<!-- 2787264222544 -->
<g id="node35" class="node">
<title>2787264222544</title>
<ellipse fill="none" stroke="black" cx="2416.71" cy="-423" rx="45.21" ry="18"/>
<text text-anchor="middle" x="2416.71" y="-417" font-family="Times New Roman,serif" font-size="15.00">xor loop</text>
</g>
<!-- 2787264327808&#45;&#45;2787264222544 -->
<g id="edge28" class="edge">
<title>2787264327808&#45;&#45;2787264222544</title>
<path fill="none" stroke="black" d="M2125.99,-447.77C2180.23,-443.13 2305.57,-432.42 2372.21,-426.72"/>
</g>
<!-- 2787264222160 -->
<g id="node36" class="node">
<title>2787264222160</title>
<ellipse fill="none" stroke="black" cx="2675.69" cy="-443" rx="113.79" ry="18"/>
<text text-anchor="middle" x="2675.69" y="-437" font-family="Times New Roman,serif" font-size="15.00">send confirmation receipt</text>
</g>
<!-- 2787264222544&#45;&#45;2787264222160 -->
<g id="edge26" class="edge">
<title>2787264222544&#45;&#45;2787264222160</title>
<path fill="none" stroke="black" d="M2461.59,-426.42C2492.06,-428.79 2533.94,-432.05 2572.52,-435.05"/>
</g>
<!-- 2787264225712 -->
<g id="node37" class="node">
<title>2787264225712</title>
<ellipse fill="black" stroke="black" cx="2675.69" cy="-404" rx="2.7" ry="2.7"/>
</g>
<!-- 2787264222544&#45;&#45;2787264225712 -->
<g id="edge27" class="edge">
<title>2787264222544&#45;&#45;2787264225712</title>
<path fill="none" stroke="black" d="M2461.59,-419.76C2529.83,-414.71 2655.37,-405.43 2672.69,-404.15"/>
</g>
<!-- 2787265524800 -->
<g id="node43" class="node">
<title>2787265524800</title>
<ellipse fill="black" stroke="black" cx="2416.71" cy="-199" rx="2.7" ry="2.7"/>
</g>
<!-- 2787264222736&#45;&#45;2787265524800 -->
<g id="edge34" class="edge">
<title>2787264222736&#45;&#45;2787265524800</title>
<path fill="none" stroke="black" d="M2126.26,-181.59C2198.02,-185.9 2392.77,-197.62 2413.85,-198.89"/>
</g>
<!-- 2787264595824 -->
<g id="node44" class="node">
<title>2787264595824</title>
<ellipse fill="none" stroke="black" cx="2416.71" cy="-160" rx="27" ry="18"/>
<text text-anchor="middle" x="2416.71" y="-154" font-family="Times New Roman,serif" font-size="15.00">seq</text>
</g>
<!-- 2787264222736&#45;&#45;2787264595824 -->
<g id="edge37" class="edge">
<title>2787264222736&#45;&#45;2787264595824</title>
<path fill="none" stroke="black" d="M2126.26,-178.33C2185.86,-174.56 2330.31,-165.41 2389.62,-161.65"/>
</g>
<!-- 2787264597264 -->
<g id="node45" class="node">
<title>2787264597264</title>
<ellipse fill="none" stroke="black" cx="2675.69" cy="-187" rx="130.68" ry="18"/>
<text text-anchor="middle" x="2675.69" y="-181" font-family="Times New Roman,serif" font-size="15.00">create subcases completeness</text>
</g>
<!-- 2787264595824&#45;&#45;2787264597264 -->
<g id="edge35" class="edge">
<title>2787264595824&#45;&#45;2787264597264</title>
<path fill="none" stroke="black" d="M2443.77,-162.74C2473.5,-165.86 2523.99,-171.17 2570.19,-176.02"/>
</g>
<!-- 2787264600384 -->
<g id="node46" class="node">
<title>2787264600384</title>
<ellipse fill="none" stroke="black" cx="2675.69" cy="-133" rx="82.06" ry="18"/>
<text text-anchor="middle" x="2675.69" y="-127" font-family="Times New Roman,serif" font-size="15.00">procedure change</text>
</g>
<!-- 2787264595824&#45;&#45;2787264600384 -->
<g id="edge36" class="edge">
<title>2787264595824&#45;&#45;2787264600384</title>
<path fill="none" stroke="black" d="M2443.77,-157.26C2480.26,-153.43 2548.04,-146.31 2600.76,-140.77"/>
</g>
<!-- 2787264604800 -->
<g id="node51" class="node">
<title>2787264604800</title>
<ellipse fill="black" stroke="black" cx="1333.28" cy="-585" rx="2.7" ry="2.7"/>
</g>
<!-- 2787264600432&#45;&#45;2787264604800 -->
<g id="edge46" class="edge">
<title>2787264600432&#45;&#45;2787264604800</title>
<path fill="none" stroke="black" d="M1010.18,-585C1087.08,-585 1306.43,-585 1330.19,-585"/>
</g>
<!-- 2787264597408 -->
<g id="node52" class="node">
<title>2787264597408</title>
<ellipse fill="none" stroke="black" cx="1333.28" cy="-546" rx="117.37" ry="18"/>
<text text-anchor="middle" x="1333.28" y="-540" font-family="Times New Roman,serif" font-size="15.00">inform BAG administrator</text>
</g>
<!-- 2787264600432&#45;&#45;2787264597408 -->
<g id="edge47" class="edge">
<title>2787264600432&#45;&#45;2787264597408</title>
<path fill="none" stroke="black" d="M1009.61,-582.1C1057.1,-576.79 1160.27,-565.24 1237.25,-556.63"/>
</g>
<!-- 2787264596064 -->
<g id="node55" class="node">
<title>2787264596064</title>
<ellipse fill="none" stroke="black" cx="297.89" cy="-571" rx="117.89" ry="18"/>
<text text-anchor="middle" x="297.89" y="-565" font-family="Times New Roman,serif" font-size="15.00">read publication date field</text>
</g>
<!-- 2787264599328&#45;&#45;2787264596064 -->
<g id="edge53" class="edge">
<title>2787264599328&#45;&#45;2787264596064</title>
<path fill="none" stroke="black" d="M142.13,-524.28C167.78,-532.03 209.2,-544.53 242.73,-554.65"/>
</g>
<!-- 2787264596640 -->
<g id="node56" class="node">
<title>2787264596640</title>
<ellipse fill="none" stroke="black" cx="297.89" cy="-517" rx="27" ry="18"/>
<text text-anchor="middle" x="297.89" y="-511" font-family="Times New Roman,serif" font-size="15.00">seq</text>
</g>
<!-- 2787264599328&#45;&#45;2787264596640 -->
<g id="edge56" class="edge">
<title>2787264599328&#45;&#45;2787264596640</title>
<path fill="none" stroke="black" d="M144.4,-517C178.31,-517 236.84,-517 270.67,-517"/>
</g>
<!-- 2787264603168 -->
<g id="node59" class="node">
<title>2787264603168</title>
<ellipse fill="none" stroke="black" cx="297.89" cy="-463" rx="52.89" ry="18"/>
<text text-anchor="middle" x="297.89" y="-457" font-family="Times New Roman,serif" font-size="15.00">close case</text>
</g>
<!-- 2787264599328&#45;&#45;2787264603168 -->
<g id="edge57" class="edge">
<title>2787264599328&#45;&#45;2787264603168</title>
<path fill="none" stroke="black" d="M142.13,-509.72C171.69,-500.79 222.19,-485.55 257.43,-474.91"/>
</g>
<!-- 2787264600144 -->
<g id="node60" class="node">
<title>2787264600144</title>
<ellipse fill="none" stroke="black" cx="297.89" cy="-369" rx="27" ry="18"/>
<text text-anchor="middle" x="297.89" y="-363" font-family="Times New Roman,serif" font-size="15.00">seq</text>
</g>
<!-- 2787264599328&#45;&#45;2787264600144 -->
<g id="edge62" class="edge">
<title>2787264599328&#45;&#45;2787264600144</title>
<path fill="none" stroke="black" d="M134.83,-503.08C168.92,-474.87 245.81,-411.26 279.97,-382.99"/>
</g>
<!-- 2787264606912 -->
<g id="node57" class="node">
<title>2787264606912</title>
<ellipse fill="none" stroke="black" cx="624.93" cy="-531" rx="92.3" ry="18"/>
<text text-anchor="middle" x="624.93" y="-525" font-family="Times New Roman,serif" font-size="15.00">phase archived case</text>
</g>
<!-- 2787264596640&#45;&#45;2787264606912 -->
<g id="edge54" class="edge">
<title>2787264596640&#45;&#45;2787264606912</title>
<path fill="none" stroke="black" d="M325.21,-518.13C370.17,-520.07 463.74,-524.1 534.25,-527.14"/>
</g>
<!-- 2787264594672 -->
<g id="node58" class="node">
<title>2787264594672</title>
<ellipse fill="none" stroke="black" cx="624.93" cy="-477" rx="88.71" ry="18"/>
<text text-anchor="middle" x="624.93" y="-471" font-family="Times New Roman,serif" font-size="15.00">phase case handled</text>
</g>
<!-- 2787264596640&#45;&#45;2787264594672 -->
<g id="edge55" class="edge">
<title>2787264596640&#45;&#45;2787264594672</title>
<path fill="none" stroke="black" d="M324.94,-513.79C372.77,-507.91 476.26,-495.17 547.98,-486.35"/>
</g>
<!-- 2787264595776 -->
<g id="node61" class="node">
<title>2787264595776</title>
<ellipse fill="none" stroke="black" cx="624.93" cy="-423" rx="148.59" ry="18"/>
<text text-anchor="middle" x="624.93" y="-417" font-family="Times New Roman,serif" font-size="15.00">no permit required for application</text>
</g>
<!-- 2787264600144&#45;&#45;2787264595776 -->
<g id="edge58" class="edge">
<title>2787264600144&#45;&#45;2787264595776</title>
<path fill="none" stroke="black" d="M324.39,-373.24C369.22,-380.68 464.1,-396.45 535.13,-408.25"/>
</g>
<!-- 2787264599136 -->
<g id="node62" class="node">
<title>2787264599136</title>
<ellipse fill="none" stroke="black" cx="624.93" cy="-369" rx="64.15" ry="18"/>
<text text-anchor="middle" x="624.93" y="-363" font-family="Times New Roman,serif" font-size="15.00">MER present</text>
</g>
<!-- 2787264600144&#45;&#45;2787264599136 -->
<g id="edge59" class="edge">
<title>2787264600144&#45;&#45;2787264599136</title>
<path fill="none" stroke="black" d="M325.21,-369C375.99,-369 488.77,-369 560.31,-369"/>
</g>
<!-- 2787264597840 -->
<g id="node63" class="node">
<title>2787264597840</title>
<ellipse fill="none" stroke="black" cx="624.93" cy="-315" rx="123" ry="18"/>
<text text-anchor="middle" x="624.93" y="-309" font-family="Times New Roman,serif" font-size="15.00">activities regular procedure</text>
</g>
<!-- 2787264600144&#45;&#45;2787264597840 -->
<g id="edge60" class="edge">
<title>2787264600144&#45;&#45;2787264597840</title>
<path fill="none" stroke="black" d="M324.39,-364.76C370.64,-357.08 470.17,-340.55 541.82,-328.64"/>
</g>
<!-- 2787264607296 -->
<g id="node64" class="node">
<title>2787264607296</title>
<ellipse fill="none" stroke="black" cx="624.93" cy="-261" rx="87.18" ry="18"/>
<text text-anchor="middle" x="624.93" y="-255" font-family="Times New Roman,serif" font-size="15.00">phased application</text>
</g>
<!-- 2787264600144&#45;&#45;2787264607296 -->
<g id="edge61" class="edge">
<title>2787264600144&#45;&#45;2787264607296</title>
<path fill="none" stroke="black" d="M322.52,-361.15C375.99,-343.38 507.04,-299.84 577.43,-276.45"/>
</g>
</g>
</svg>
