<?xml version="1.0" encoding="UTF-8" standalone="no"?>
<!DOCTYPE svg PUBLIC "-//W3C//DTD SVG 1.1//EN"
 "http://www.w3.org/Graphics/SVG/1.1/DTD/svg11.dtd">
<!-- Generated by graphviz version 8.0.5 (20230430.1635)
 -->
<!-- Title: pt Pages: 1 -->
<svg width="4357pt" height="1211pt"
 viewBox="0.00 0.00 4357.25 1211.00" xmlns="http://www.w3.org/2000/svg" xmlns:xlink="http://www.w3.org/1999/xlink">
<g id="graph0" class="graph" transform="scale(1 1) rotate(0) translate(4 1207)">
<title>pt</title>
<polygon fill="white" stroke="none" points="-4,4 -4,-1207 4353.25,-1207 4353.25,4 -4,4"/>
<!-- 6622022032 -->
<g id="node1" class="node">
<title>6622022032</title>
<ellipse fill="none" stroke="black" cx="27" cy="-728" rx="27" ry="18"/>
<text text-anchor="middle" x="27" y="-722.38" font-family="Times,serif" font-size="15.00">seq</text>
</g>
<!-- 6622026512 -->
<g id="node2" class="node">
<title>6622026512</title>
<ellipse fill="none" stroke="black" cx="117" cy="-821" rx="27" ry="18"/>
<text text-anchor="middle" x="117" y="-815.38" font-family="Times,serif" font-size="15.00">and</text>
</g>
<!-- 6622022032&#45;&#45;6622026512 -->
<g id="edge76" class="edge">
<title>6622022032&#45;&#45;6622026512</title>
<path fill="none" stroke="black" d="M42.14,-742.94C58.46,-760.19 85.17,-788.42 101.6,-805.79"/>
</g>
<!-- 6622028688 -->
<g id="node78" class="node">
<title>6622028688</title>
<ellipse fill="none" stroke="black" cx="117" cy="-662" rx="27" ry="18"/>
<text text-anchor="middle" x="117" y="-656.38" font-family="Times,serif" font-size="15.00">xor</text>
</g>
<!-- 6622022032&#45;&#45;6622028688 -->
<g id="edge92" class="edge">
<title>6622022032&#45;&#45;6622028688</title>
<path fill="none" stroke="black" d="M45.81,-714.64C61.08,-703.19 82.96,-686.78 98.22,-675.34"/>
</g>
<!-- 6629465808 -->
<g id="node3" class="node">
<title>6629465808</title>
<ellipse fill="none" stroke="black" cx="340.64" cy="-956" rx="160.64" ry="18"/>
<text text-anchor="middle" x="340.64" y="-950.38" font-family="Times,serif" font-size="15.00">forward to the competent authority</text>
</g>
<!-- 6622026512&#45;&#45;6629465808 -->
<g id="edge1" class="edge">
<title>6622026512&#45;&#45;6629465808</title>
<path fill="none" stroke="black" d="M137.67,-832.98C176.66,-856.73 263.94,-909.89 309.95,-937.92"/>
</g>
<!-- 6629469584 -->
<g id="node4" class="node">
<title>6629469584</title>
<ellipse fill="none" stroke="black" cx="340.64" cy="-902" rx="152.75" ry="18"/>
<text text-anchor="middle" x="340.64" y="-896.38" font-family="Times,serif" font-size="15.00">enter senddate acknowledgement</text>
</g>
<!-- 6622026512&#45;&#45;6629469584 -->
<g id="edge2" class="edge">
<title>6622026512&#45;&#45;6629469584</title>
<path fill="none" stroke="black" d="M141.3,-829.52C176.87,-842.51 245.45,-867.58 291.89,-884.55"/>
</g>
<!-- 6629459216 -->
<g id="node5" class="node">
<title>6629459216</title>
<ellipse fill="none" stroke="black" cx="340.64" cy="-848" rx="124.86" ry="18"/>
<text text-anchor="middle" x="340.64" y="-842.38" font-family="Times,serif" font-size="15.00">phase application received</text>
</g>
<!-- 6622026512&#45;&#45;6629459216 -->
<g id="edge3" class="edge">
<title>6622026512&#45;&#45;6629459216</title>
<path fill="none" stroke="black" d="M143.86,-824.15C168.52,-827.15 207.22,-831.87 243.72,-836.32"/>
</g>
<!-- 6629468240 -->
<g id="node6" class="node">
<title>6629468240</title>
<ellipse fill="none" stroke="black" cx="340.64" cy="-794" rx="149.06" ry="18"/>
<text text-anchor="middle" x="340.64" y="-788.38" font-family="Times,serif" font-size="15.00">register submission date request</text>
</g>
<!-- 6622026512&#45;&#45;6629468240 -->
<g id="edge4" class="edge">
<title>6622026512&#45;&#45;6629468240</title>
<path fill="none" stroke="black" d="M143.86,-817.85C166.3,-815.12 200.35,-810.97 233.8,-806.89"/>
</g>
<!-- 6629472144 -->
<g id="node7" class="node">
<title>6629472144</title>
<ellipse fill="none" stroke="black" cx="340.64" cy="-740" rx="27" ry="18"/>
<text text-anchor="middle" x="340.64" y="-734.38" font-family="Times,serif" font-size="15.00">seq</text>
</g>
<!-- 6622026512&#45;&#45;6629472144 -->
<g id="edge75" class="edge">
<title>6622026512&#45;&#45;6629472144</title>
<path fill="none" stroke="black" d="M141.3,-812.48C183.87,-796.93 273.74,-764.09 316.32,-748.52"/>
</g>
<!-- 6629464272 -->
<g id="node8" class="node">
<title>6629464272</title>
<ellipse fill="none" stroke="black" cx="728.96" cy="-784" rx="108.55" ry="18"/>
<text text-anchor="middle" x="728.96" y="-778.38" font-family="Times,serif" font-size="15.00">OLO messaging active</text>
</g>
<!-- 6629472144&#45;&#45;6629464272 -->
<g id="edge5" class="edge">
<title>6629472144&#45;&#45;6629464272</title>
<path fill="none" stroke="black" d="M367.59,-742.96C422.06,-749.16 550.55,-763.79 638.41,-773.8"/>
</g>
<!-- 6629469968 -->
<g id="node9" class="node">
<title>6629469968</title>
<ellipse fill="none" stroke="black" cx="728.96" cy="-730" rx="27" ry="18"/>
<text text-anchor="middle" x="728.96" y="-724.38" font-family="Times,serif" font-size="15.00">and</text>
</g>
<!-- 6629472144&#45;&#45;6629469968 -->
<g id="edge74" class="edge">
<title>6629472144&#45;&#45;6629469968</title>
<path fill="none" stroke="black" d="M367.89,-739.32C438.37,-737.5 631.15,-732.51 701.67,-730.68"/>
</g>
<!-- 6629474128 -->
<g id="node10" class="node">
<title>6629474128</title>
<ellipse fill="none" stroke="black" cx="1137.27" cy="-1151" rx="27" ry="18"/>
<text text-anchor="middle" x="1137.27" y="-1145.38" font-family="Times,serif" font-size="15.00">xor</text>
</g>
<!-- 6629469968&#45;&#45;6629474128 -->
<g id="edge8" class="edge">
<title>6629469968&#45;&#45;6629474128</title>
<path fill="none" stroke="black" d="M744.42,-744.98C807.61,-810.46 1059.13,-1071.08 1121.98,-1136.2"/>
</g>
<!-- 6629387408 -->
<g id="node13" class="node">
<title>6629387408</title>
<ellipse fill="none" stroke="black" cx="1137.27" cy="-730" rx="147.49" ry="18"/>
<text text-anchor="middle" x="1137.27" y="-724.38" font-family="Times,serif" font-size="15.00">regular procedure without MER</text>
</g>
<!-- 6629469968&#45;&#45;6629387408 -->
<g id="edge9" class="edge">
<title>6629469968&#45;&#45;6629387408</title>
<path fill="none" stroke="black" d="M756.3,-730C802.99,-730 903.43,-730 989.32,-730"/>
</g>
<!-- 6629390416 -->
<g id="node14" class="node">
<title>6629390416</title>
<ellipse fill="none" stroke="black" cx="1137.27" cy="-671" rx="27" ry="18"/>
<text text-anchor="middle" x="1137.27" y="-665.38" font-family="Times,serif" font-size="15.00">seq</text>
</g>
<!-- 6629469968&#45;&#45;6629390416 -->
<g id="edge73" class="edge">
<title>6629469968&#45;&#45;6629390416</title>
<path fill="none" stroke="black" d="M755.68,-726.26C828.77,-715.65 1037.12,-685.4 1110.39,-674.76"/>
</g>
<!-- 6629387984 -->
<g id="node11" class="node">
<title>6629387984</title>
<ellipse fill="black" stroke="black" cx="1520.32" cy="-1190" rx="2.7" ry="2.7"/>
</g>
<!-- 6629474128&#45;&#45;6629387984 -->
<g id="edge6" class="edge">
<title>6629474128&#45;&#45;6629387984</title>
<path fill="none" stroke="black" d="M1164.46,-1153.68C1246.18,-1162.04 1492.5,-1187.25 1517.3,-1189.79"/>
</g>
<!-- 6629382032 -->
<g id="node12" class="node">
<title>6629382032</title>
<ellipse fill="none" stroke="black" cx="1520.32" cy="-1151" rx="129.07" ry="18"/>
<text text-anchor="middle" x="1520.32" y="-1145.38" font-family="Times,serif" font-size="15.00">activities regular procedure</text>
</g>
<!-- 6629474128&#45;&#45;6629382032 -->
<g id="edge7" class="edge">
<title>6629474128&#45;&#45;6629382032</title>
<path fill="none" stroke="black" d="M1164.76,-1151C1211.09,-1151 1309.66,-1151 1391.13,-1151"/>
</g>
<!-- 6629384592 -->
<g id="node15" class="node">
<title>6629384592</title>
<ellipse fill="none" stroke="black" cx="1520.32" cy="-1097" rx="27" ry="18"/>
<text text-anchor="middle" x="1520.32" y="-1091.38" font-family="Times,serif" font-size="15.00">xor</text>
</g>
<!-- 6629390416&#45;&#45;6629384592 -->
<g id="edge17" class="edge">
<title>6629390416&#45;&#45;6629384592</title>
<path fill="none" stroke="black" d="M1152.05,-686.41C1211.56,-752.94 1446.08,-1015.12 1505.56,-1081.61"/>
</g>
<!-- 6629378064 -->
<g id="node23" class="node">
<title>6629378064</title>
<ellipse fill="none" stroke="black" cx="1520.32" cy="-1031" rx="27" ry="18"/>
<text text-anchor="middle" x="1520.32" y="-1025.38" font-family="Times,serif" font-size="15.00">xor</text>
</g>
<!-- 6629390416&#45;&#45;6629378064 -->
<g id="edge20" class="edge">
<title>6629390416&#45;&#45;6629378064</title>
<path fill="none" stroke="black" d="M1153.68,-685.56C1215.08,-743.57 1441.98,-957.93 1503.72,-1016.26"/>
</g>
<!-- 6629258128 -->
<g id="node26" class="node">
<title>6629258128</title>
<ellipse fill="none" stroke="black" cx="1520.32" cy="-953" rx="27" ry="18"/>
<text text-anchor="middle" x="1520.32" y="-947.38" font-family="Times,serif" font-size="15.00">xor</text>
</g>
<!-- 6629390416&#45;&#45;6629258128 -->
<g id="edge26" class="edge">
<title>6629390416&#45;&#45;6629258128</title>
<path fill="none" stroke="black" d="M1156.14,-684.22C1220.14,-731.59 1437.55,-892.48 1501.5,-939.81"/>
</g>
<!-- 6629251216 -->
<g id="node32" class="node">
<title>6629251216</title>
<ellipse fill="none" stroke="black" cx="1520.32" cy="-887" rx="27" ry="18"/>
<text text-anchor="middle" x="1520.32" y="-881.38" font-family="Times,serif" font-size="15.00">xor</text>
</g>
<!-- 6629390416&#45;&#45;6629251216 -->
<g id="edge29" class="edge">
<title>6629390416&#45;&#45;6629251216</title>
<path fill="none" stroke="black" d="M1158.49,-682.46C1224.49,-719.88 1433.22,-838.19 1499.16,-875.57"/>
</g>
<!-- 6629252048 -->
<g id="node35" class="node">
<title>6629252048</title>
<ellipse fill="none" stroke="black" cx="1520.32" cy="-833" rx="47" ry="18"/>
<text text-anchor="middle" x="1520.32" y="-827.38" font-family="Times,serif" font-size="15.00">xor loop</text>
</g>
<!-- 6629390416&#45;&#45;6629252048 -->
<g id="edge32" class="edge">
<title>6629390416&#45;&#45;6629252048</title>
<path fill="none" stroke="black" d="M1160.68,-680.53C1225.45,-708.07 1413.02,-787.8 1487.9,-819.64"/>
</g>
<!-- 6629256592 -->
<g id="node38" class="node">
<title>6629256592</title>
<ellipse fill="none" stroke="black" cx="1520.32" cy="-779" rx="27" ry="18"/>
<text text-anchor="middle" x="1520.32" y="-773.38" font-family="Times,serif" font-size="15.00">xor</text>
</g>
<!-- 6629390416&#45;&#45;6629256592 -->
<g id="edge35" class="edge">
<title>6629390416&#45;&#45;6629256592</title>
<path fill="none" stroke="black" d="M1162.68,-677.92C1231.51,-697.43 1426.53,-752.7 1495.11,-772.14"/>
</g>
<!-- 6629250320 -->
<g id="node41" class="node">
<title>6629250320</title>
<ellipse fill="none" stroke="black" cx="1520.32" cy="-725" rx="140.65" ry="18"/>
<text text-anchor="middle" x="1520.32" y="-719.38" font-family="Times,serif" font-size="15.00">create procedure confirmation</text>
</g>
<!-- 6629390416&#45;&#45;6629250320 -->
<g id="edge36" class="edge">
<title>6629390416&#45;&#45;6629250320</title>
<path fill="none" stroke="black" d="M1164.16,-674.67C1216.67,-682.11 1338.04,-699.31 1424.25,-711.53"/>
</g>
<!-- 6629250448 -->
<g id="node42" class="node">
<title>6629250448</title>
<ellipse fill="none" stroke="black" cx="1520.32" cy="-671" rx="42.79" ry="18"/>
<text text-anchor="middle" x="1520.32" y="-665.38" font-family="Times,serif" font-size="15.00">publish</text>
</g>
<!-- 6629390416&#45;&#45;6629250448 -->
<g id="edge37" class="edge">
<title>6629390416&#45;&#45;6629250448</title>
<path fill="none" stroke="black" d="M1164.76,-671C1229.91,-671 1398.35,-671 1477.31,-671"/>
</g>
<!-- 6629245072 -->
<g id="node43" class="node">
<title>6629245072</title>
<ellipse fill="none" stroke="black" cx="1520.32" cy="-617" rx="137.49" ry="18"/>
<text text-anchor="middle" x="1520.32" y="-611.38" font-family="Times,serif" font-size="15.00">create subcases completeness</text>
</g>
<!-- 6629390416&#45;&#45;6629245072 -->
<g id="edge38" class="edge">
<title>6629390416&#45;&#45;6629245072</title>
<path fill="none" stroke="black" d="M1164.16,-667.33C1216.84,-659.87 1338.81,-642.58 1425.07,-630.36"/>
</g>
<!-- 6629256912 -->
<g id="node44" class="node">
<title>6629256912</title>
<ellipse fill="none" stroke="black" cx="1520.32" cy="-563" rx="86.46" ry="18"/>
<text text-anchor="middle" x="1520.32" y="-557.38" font-family="Times,serif" font-size="15.00">procedure change</text>
</g>
<!-- 6629390416&#45;&#45;6629256912 -->
<g id="edge39" class="edge">
<title>6629390416&#45;&#45;6629256912</title>
<path fill="none" stroke="black" d="M1162.68,-664.08C1223.79,-646.76 1384.37,-601.25 1467.62,-577.65"/>
</g>
<!-- 6629247504 -->
<g id="node45" class="node">
<title>6629247504</title>
<ellipse fill="none" stroke="black" cx="1520.32" cy="-509" rx="84.35" ry="18"/>
<text text-anchor="middle" x="1520.32" y="-503.38" font-family="Times,serif" font-size="15.00">request complete</text>
</g>
<!-- 6629390416&#45;&#45;6629247504 -->
<g id="edge40" class="edge">
<title>6629390416&#45;&#45;6629247504</title>
<path fill="none" stroke="black" d="M1160.68,-661.47C1223.54,-634.75 1402.04,-558.86 1480.97,-525.3"/>
</g>
<!-- 6629255824 -->
<g id="node46" class="node">
<title>6629255824</title>
<ellipse fill="none" stroke="black" cx="1520.32" cy="-455" rx="148.01" ry="18"/>
<text text-anchor="middle" x="1520.32" y="-449.38" font-family="Times,serif" font-size="15.00">term for supplying missing data</text>
</g>
<!-- 6629390416&#45;&#45;6629255824 -->
<g id="edge41" class="edge">
<title>6629390416&#45;&#45;6629255824</title>
<path fill="none" stroke="black" d="M1158.49,-659.54C1221.03,-624.09 1411.72,-516 1487.64,-472.96"/>
</g>
<!-- 6629254160 -->
<g id="node47" class="node">
<title>6629254160</title>
<ellipse fill="none" stroke="black" cx="1520.32" cy="-401" rx="166.43" ry="18"/>
<text text-anchor="middle" x="1520.32" y="-395.38" font-family="Times,serif" font-size="15.00">create letter requesting missing data</text>
</g>
<!-- 6629390416&#45;&#45;6629254160 -->
<g id="edge42" class="edge">
<title>6629390416&#45;&#45;6629254160</title>
<path fill="none" stroke="black" d="M1156.65,-657.98C1218.86,-613.89 1421.68,-470.19 1493.68,-419.17"/>
</g>
<!-- 6629253520 -->
<g id="node48" class="node">
<title>6629253520</title>
<ellipse fill="none" stroke="black" cx="1520.32" cy="-347" rx="27" ry="18"/>
<text text-anchor="middle" x="1520.32" y="-341.38" font-family="Times,serif" font-size="15.00">xor</text>
</g>
<!-- 6629390416&#45;&#45;6629253520 -->
<g id="edge48" class="edge">
<title>6629390416&#45;&#45;6629253520</title>
<path fill="none" stroke="black" d="M1154.64,-657.08C1217.18,-603.9 1440.58,-413.95 1503.01,-360.87"/>
</g>
<!-- 6629260368 -->
<g id="node54" class="node">
<title>6629260368</title>
<ellipse fill="none" stroke="black" cx="1520.32" cy="-293" rx="27" ry="18"/>
<text text-anchor="middle" x="1520.32" y="-287.38" font-family="Times,serif" font-size="15.00">xor</text>
</g>
<!-- 6629390416&#45;&#45;6629260368 -->
<g id="edge51" class="edge">
<title>6629390416&#45;&#45;6629260368</title>
<path fill="none" stroke="black" d="M1153.21,-656.18C1214.16,-595.71 1443.72,-367.99 1504.49,-307.72"/>
</g>
<!-- 6629254352 -->
<g id="node57" class="node">
<title>6629254352</title>
<ellipse fill="none" stroke="black" cx="1520.32" cy="-230" rx="27" ry="18"/>
<text text-anchor="middle" x="1520.32" y="-224.38" font-family="Times,serif" font-size="15.00">xor</text>
</g>
<!-- 6629390416&#45;&#45;6629254352 -->
<g id="edge72" class="edge">
<title>6629390416&#45;&#45;6629254352</title>
<path fill="none" stroke="black" d="M1151.61,-655.56C1210.49,-587.42 1446.84,-313.89 1505.9,-245.54"/>
</g>
<!-- 6629389072 -->
<g id="node16" class="node">
<title>6629389072</title>
<ellipse fill="black" stroke="black" cx="1922.85" cy="-1148" rx="2.7" ry="2.7"/>
</g>
<!-- 6629384592&#45;&#45;6629389072 -->
<g id="edge10" class="edge">
<title>6629384592&#45;&#45;6629389072</title>
<path fill="none" stroke="black" d="M1547.3,-1100.31C1631.54,-1111.03 1893.33,-1144.37 1919.7,-1147.73"/>
</g>
<!-- 6629381072 -->
<g id="node17" class="node">
<title>6629381072</title>
<ellipse fill="none" stroke="black" cx="1922.85" cy="-1109" rx="27" ry="18"/>
<text text-anchor="middle" x="1922.85" y="-1103.38" font-family="Times,serif" font-size="15.00">seq</text>
</g>
<!-- 6629384592&#45;&#45;6629381072 -->
<g id="edge16" class="edge">
<title>6629384592&#45;&#45;6629381072</title>
<path fill="none" stroke="black" d="M1547.6,-1097.79C1620.18,-1099.96 1822.78,-1106.03 1895.47,-1108.21"/>
</g>
<!-- 6629250832 -->
<g id="node18" class="node">
<title>6629250832</title>
<ellipse fill="none" stroke="black" cx="2324.32" cy="-1166" rx="47" ry="18"/>
<text text-anchor="middle" x="2324.32" y="-1160.38" font-family="Times,serif" font-size="15.00">xor loop</text>
</g>
<!-- 6629381072&#45;&#45;6629250832 -->
<g id="edge13" class="edge">
<title>6629381072&#45;&#45;6629250832</title>
<path fill="none" stroke="black" d="M1949.75,-1112.7C2016.75,-1122.26 2196.31,-1147.88 2279.68,-1159.77"/>
</g>
<!-- 6629251920 -->
<g id="node21" class="node">
<title>6629251920</title>
<ellipse fill="none" stroke="black" cx="2324.32" cy="-1112" rx="134.33" ry="18"/>
<text text-anchor="middle" x="2324.32" y="-1106.38" font-family="Times,serif" font-size="15.00">send procedure confirmation</text>
</g>
<!-- 6629381072&#45;&#45;6629251920 -->
<g id="edge14" class="edge">
<title>6629381072&#45;&#45;6629251920</title>
<path fill="none" stroke="black" d="M1950.06,-1109.2C1998.14,-1109.56 2103.45,-1110.35 2189.99,-1111"/>
</g>
<!-- 6629250128 -->
<g id="node22" class="node">
<title>6629250128</title>
<ellipse fill="none" stroke="black" cx="2324.32" cy="-1058" rx="107.5" ry="18"/>
<text text-anchor="middle" x="2324.32" y="-1052.38" font-family="Times,serif" font-size="15.00">extend procedure term</text>
</g>
<!-- 6629381072&#45;&#45;6629250128 -->
<g id="edge15" class="edge">
<title>6629381072&#45;&#45;6629250128</title>
<path fill="none" stroke="black" d="M1949.75,-1105.69C2006.98,-1098.39 2146.34,-1080.59 2237.72,-1068.93"/>
</g>
<!-- 6629249744 -->
<g id="node19" class="node">
<title>6629249744</title>
<ellipse fill="none" stroke="black" cx="2702.12" cy="-1185" rx="176.42" ry="18"/>
<text text-anchor="middle" x="2702.12" y="-1179.38" font-family="Times,serif" font-size="15.00">enter senddate procedure confirmation</text>
</g>
<!-- 6629250832&#45;&#45;6629249744 -->
<g id="edge11" class="edge">
<title>6629250832&#45;&#45;6629249744</title>
<path fill="none" stroke="black" d="M2371.4,-1168.33C2414.32,-1170.5 2480.85,-1173.86 2542.94,-1177"/>
</g>
<!-- 6629256400 -->
<g id="node20" class="node">
<title>6629256400</title>
<ellipse fill="black" stroke="black" cx="2702.12" cy="-1146" rx="2.7" ry="2.7"/>
</g>
<!-- 6629250832&#45;&#45;6629256400 -->
<g id="edge12" class="edge">
<title>6629250832&#45;&#45;6629256400</title>
<path fill="none" stroke="black" d="M2371.02,-1163.57C2465.7,-1158.53 2676.35,-1147.32 2699.11,-1146.11"/>
</g>
<!-- 6629246992 -->
<g id="node24" class="node">
<title>6629246992</title>
<ellipse fill="black" stroke="black" cx="1922.85" cy="-1070" rx="2.7" ry="2.7"/>
</g>
<!-- 6629378064&#45;&#45;6629246992 -->
<g id="edge18" class="edge">
<title>6629378064&#45;&#45;6629246992</title>
<path fill="none" stroke="black" d="M1547.3,-1033.53C1631.54,-1041.73 1893.33,-1067.22 1919.7,-1069.79"/>
</g>
<!-- 6629258960 -->
<g id="node25" class="node">
<title>6629258960</title>
<ellipse fill="none" stroke="black" cx="1922.85" cy="-1031" rx="200.1" ry="18"/>
<text text-anchor="middle" x="1922.85" y="-1025.38" font-family="Times,serif" font-size="15.00">registrer date of publishing received request</text>
</g>
<!-- 6629378064&#45;&#45;6629258960 -->
<g id="edge19" class="edge">
<title>6629378064&#45;&#45;6629258960</title>
<path fill="none" stroke="black" d="M1547.6,-1031C1584.06,-1031 1653.35,-1031 1722.48,-1031"/>
</g>
<!-- 6629248528 -->
<g id="node27" class="node">
<title>6629248528</title>
<ellipse fill="black" stroke="black" cx="1922.85" cy="-992" rx="2.7" ry="2.7"/>
</g>
<!-- 6629258128&#45;&#45;6629248528 -->
<g id="edge21" class="edge">
<title>6629258128&#45;&#45;6629248528</title>
<path fill="none" stroke="black" d="M1547.3,-955.53C1631.54,-963.73 1893.33,-989.22 1919.7,-991.79"/>
</g>
<!-- 6629256144 -->
<g id="node28" class="node">
<title>6629256144</title>
<ellipse fill="none" stroke="black" cx="1922.85" cy="-953" rx="27" ry="18"/>
<text text-anchor="middle" x="1922.85" y="-947.38" font-family="Times,serif" font-size="15.00">seq</text>
</g>
<!-- 6629258128&#45;&#45;6629256144 -->
<g id="edge25" class="edge">
<title>6629258128&#45;&#45;6629256144</title>
<path fill="none" stroke="black" d="M1547.6,-953C1620.18,-953 1822.78,-953 1895.47,-953"/>
</g>
<!-- 6629248272 -->
<g id="node29" class="node">
<title>6629248272</title>
<ellipse fill="none" stroke="black" cx="2324.32" cy="-1004" rx="131.18" ry="18"/>
<text text-anchor="middle" x="2324.32" y="-998.38" font-family="Times,serif" font-size="15.00">treat subcases completeness</text>
</g>
<!-- 6629256144&#45;&#45;6629248272 -->
<g id="edge22" class="edge">
<title>6629256144&#45;&#45;6629248272</title>
<path fill="none" stroke="black" d="M1949.75,-956.31C2004.73,-963.33 2135.52,-980.02 2226.74,-991.67"/>
</g>
<!-- 6629250192 -->
<g id="node30" class="node">
<title>6629250192</title>
<ellipse fill="none" stroke="black" cx="2324.32" cy="-950" rx="156.43" ry="18"/>
<text text-anchor="middle" x="2324.32" y="-944.38" font-family="Times,serif" font-size="15.00">subcases completeness completed</text>
</g>
<!-- 6629256144&#45;&#45;6629250192 -->
<g id="edge23" class="edge">
<title>6629256144&#45;&#45;6629250192</title>
<path fill="none" stroke="black" d="M1950.06,-952.8C1994.15,-952.47 2086.35,-951.78 2168.09,-951.17"/>
</g>
<!-- 6629251728 -->
<g id="node31" class="node">
<title>6629251728</title>
<ellipse fill="none" stroke="black" cx="2324.32" cy="-896" rx="97.51" ry="18"/>
<text text-anchor="middle" x="2324.32" y="-890.38" font-family="Times,serif" font-size="15.00">WAW permit aspect</text>
</g>
<!-- 6629256144&#45;&#45;6629251728 -->
<g id="edge24" class="edge">
<title>6629256144&#45;&#45;6629251728</title>
<path fill="none" stroke="black" d="M1949.75,-949.3C2008.71,-940.89 2154.84,-920.04 2245.87,-907.05"/>
</g>
<!-- 6629261008 -->
<g id="node33" class="node">
<title>6629261008</title>
<ellipse fill="black" stroke="black" cx="1922.85" cy="-914" rx="2.7" ry="2.7"/>
</g>
<!-- 6629251216&#45;&#45;6629261008 -->
<g id="edge27" class="edge">
<title>6629251216&#45;&#45;6629261008</title>
<path fill="none" stroke="black" d="M1547.6,-888.77C1632.19,-894.47 1893.39,-912.08 1919.71,-913.86"/>
</g>
<!-- 6629260944 -->
<g id="node34" class="node">
<title>6629260944</title>
<ellipse fill="none" stroke="black" cx="1922.85" cy="-875" rx="112.76" ry="18"/>
<text text-anchor="middle" x="1922.85" y="-869.38" font-family="Times,serif" font-size="15.00">applicant is stakeholder</text>
</g>
<!-- 6629251216&#45;&#45;6629260944 -->
<g id="edge28" class="edge">
<title>6629251216&#45;&#45;6629260944</title>
<path fill="none" stroke="black" d="M1547.6,-886.21C1600.25,-884.64 1721.32,-881.01 1811.59,-878.3"/>
</g>
<!-- 6629254544 -->
<g id="node36" class="node">
<title>6629254544</title>
<ellipse fill="none" stroke="black" cx="1922.85" cy="-821" rx="121.18" ry="18"/>
<text text-anchor="middle" x="1922.85" y="-815.38" font-family="Times,serif" font-size="15.00">send confirmation receipt</text>
</g>
<!-- 6629252048&#45;&#45;6629254544 -->
<g id="edge30" class="edge">
<title>6629252048&#45;&#45;6629254544</title>
<path fill="none" stroke="black" d="M1567.66,-831.61C1625.01,-829.89 1724.76,-826.9 1803.82,-824.54"/>
</g>
<!-- 6629248720 -->
<g id="node37" class="node">
<title>6629248720</title>
<ellipse fill="black" stroke="black" cx="1922.85" cy="-782" rx="2.7" ry="2.7"/>
</g>
<!-- 6629252048&#45;&#45;6629248720 -->
<g id="edge31" class="edge">
<title>6629252048&#45;&#45;6629248720</title>
<path fill="none" stroke="black" d="M1565.33,-827.4C1664.1,-814.82 1896.59,-785.22 1919.95,-782.24"/>
</g>
<!-- 6629246160 -->
<g id="node39" class="node">
<title>6629246160</title>
<ellipse fill="black" stroke="black" cx="1922.85" cy="-759" rx="2.7" ry="2.7"/>
</g>
<!-- 6629256592&#45;&#45;6629246160 -->
<g id="edge33" class="edge">
<title>6629256592&#45;&#45;6629246160</title>
<path fill="none" stroke="black" d="M1547.6,-777.69C1632.19,-773.46 1893.39,-760.42 1919.71,-759.11"/>
</g>
<!-- 6629255184 -->
<g id="node40" class="node">
<title>6629255184</title>
<ellipse fill="none" stroke="black" cx="1922.85" cy="-720" rx="91.19" ry="18"/>
<text text-anchor="middle" x="1922.85" y="-714.38" font-family="Times,serif" font-size="15.00">phased application</text>
</g>
<!-- 6629256592&#45;&#45;6629255184 -->
<g id="edge34" class="edge">
<title>6629256592&#45;&#45;6629255184</title>
<path fill="none" stroke="black" d="M1546.99,-775.22C1606.9,-766.39 1757.79,-744.17 1848.81,-730.76"/>
</g>
<!-- 6629246288 -->
<g id="node49" class="node">
<title>6629246288</title>
<ellipse fill="none" stroke="black" cx="1922.85" cy="-401" rx="134.86" ry="18"/>
<text text-anchor="middle" x="1922.85" y="-395.38" font-family="Times,serif" font-size="15.00">read field phased application</text>
</g>
<!-- 6629253520&#45;&#45;6629246288 -->
<g id="edge43" class="edge">
<title>6629253520&#45;&#45;6629246288</title>
<path fill="none" stroke="black" d="M1547.3,-350.5C1602.68,-357.97 1734.79,-375.78 1826.31,-388.12"/>
</g>
<!-- 6629258512 -->
<g id="node50" class="node">
<title>6629258512</title>
<ellipse fill="none" stroke="black" cx="1922.85" cy="-347" rx="27" ry="18"/>
<text text-anchor="middle" x="1922.85" y="-341.38" font-family="Times,serif" font-size="15.00">and</text>
</g>
<!-- 6629253520&#45;&#45;6629258512 -->
<g id="edge47" class="edge">
<title>6629253520&#45;&#45;6629258512</title>
<path fill="none" stroke="black" d="M1547.6,-347C1620.18,-347 1822.78,-347 1895.47,-347"/>
</g>
<!-- 6629245136 -->
<g id="node51" class="node">
<title>6629245136</title>
<ellipse fill="none" stroke="black" cx="2324.32" cy="-401" rx="165.37" ry="18"/>
<text text-anchor="middle" x="2324.32" y="-395.38" font-family="Times,serif" font-size="15.00">enter senddate retrieve missing data</text>
</g>
<!-- 6629258512&#45;&#45;6629245136 -->
<g id="edge44" class="edge">
<title>6629258512&#45;&#45;6629245136</title>
<path fill="none" stroke="black" d="M1949.75,-350.5C2003.09,-357.71 2127.77,-374.57 2218.47,-386.83"/>
</g>
<!-- 6629247248 -->
<g id="node52" class="node">
<title>6629247248</title>
<ellipse fill="none" stroke="black" cx="2324.32" cy="-347" rx="101.19" ry="18"/>
<text text-anchor="middle" x="2324.32" y="-341.38" font-family="Times,serif" font-size="15.00">retrieve missing data</text>
</g>
<!-- 6629258512&#45;&#45;6629247248 -->
<g id="edge45" class="edge">
<title>6629258512&#45;&#45;6629247248</title>
<path fill="none" stroke="black" d="M1950.06,-347C2004.47,-347 2132.19,-347 2223.05,-347"/>
</g>
<!-- 6629250960 -->
<g id="node53" class="node">
<title>6629250960</title>
<ellipse fill="none" stroke="black" cx="2324.32" cy="-293" rx="161.69" ry="18"/>
<text text-anchor="middle" x="2324.32" y="-287.38" font-family="Times,serif" font-size="15.00">phase asked additional information</text>
</g>
<!-- 6629258512&#45;&#45;6629250960 -->
<g id="edge46" class="edge">
<title>6629258512&#45;&#45;6629250960</title>
<path fill="none" stroke="black" d="M1949.75,-343.5C2003.26,-336.27 2128.58,-319.32 2219.35,-307.05"/>
</g>
<!-- 6629251984 -->
<g id="node55" class="node">
<title>6629251984</title>
<ellipse fill="black" stroke="black" cx="1922.85" cy="-308" rx="2.7" ry="2.7"/>
</g>
<!-- 6629260368&#45;&#45;6629251984 -->
<g id="edge49" class="edge">
<title>6629260368&#45;&#45;6629251984</title>
<path fill="none" stroke="black" d="M1547.6,-293.98C1632.19,-297.15 1893.39,-306.93 1919.71,-307.92"/>
</g>
<!-- 6629260432 -->
<g id="node56" class="node">
<title>6629260432</title>
<ellipse fill="none" stroke="black" cx="1922.85" cy="-269" rx="105.92" ry="18"/>
<text text-anchor="middle" x="1922.85" y="-263.38" font-family="Times,serif" font-size="15.00">start WABOprocedure</text>
</g>
<!-- 6629260368&#45;&#45;6629260432 -->
<g id="edge50" class="edge">
<title>6629260368&#45;&#45;6629260432</title>
<path fill="none" stroke="black" d="M1547.6,-291.43C1602.34,-288.15 1731.04,-280.43 1822.18,-274.97"/>
</g>
<!-- 6629603856 -->
<g id="node58" class="node">
<title>6629603856</title>
<ellipse fill="black" stroke="black" cx="1922.85" cy="-230" rx="2.7" ry="2.7"/>
</g>
<!-- 6629254352&#45;&#45;6629603856 -->
<g id="edge52" class="edge">
<title>6629254352&#45;&#45;6629603856</title>
<path fill="none" stroke="black" d="M1547.6,-230C1632.19,-230 1893.39,-230 1919.71,-230"/>
</g>
<!-- 6629596880 -->
<g id="node59" class="node">
<title>6629596880</title>
<ellipse fill="none" stroke="black" cx="1922.85" cy="-191" rx="27" ry="18"/>
<text text-anchor="middle" x="1922.85" y="-185.38" font-family="Times,serif" font-size="15.00">and</text>
</g>
<!-- 6629254352&#45;&#45;6629596880 -->
<g id="edge71" class="edge">
<title>6629254352&#45;&#45;6629596880</title>
<path fill="none" stroke="black" d="M1547.3,-227.47C1619.67,-220.42 1823.06,-200.62 1895.68,-193.55"/>
</g>
<!-- 6629603344 -->
<g id="node60" class="node">
<title>6629603344</title>
<ellipse fill="none" stroke="black" cx="2324.32" cy="-215" rx="99.08" ry="18"/>
<text text-anchor="middle" x="2324.32" y="-209.38" font-family="Times,serif" font-size="15.00">terminate on request</text>
</g>
<!-- 6629596880&#45;&#45;6629603344 -->
<g id="edge53" class="edge">
<title>6629596880&#45;&#45;6629603344</title>
<path fill="none" stroke="black" d="M1950.06,-192.57C2005.78,-195.92 2138.35,-203.89 2229.5,-209.36"/>
</g>
<!-- 6629599376 -->
<g id="node61" class="node">
<title>6629599376</title>
<ellipse fill="none" stroke="black" cx="2324.32" cy="-161" rx="27" ry="18"/>
<text text-anchor="middle" x="2324.32" y="-155.38" font-family="Times,serif" font-size="15.00">seq</text>
</g>
<!-- 6629596880&#45;&#45;6629599376 -->
<g id="edge70" class="edge">
<title>6629596880&#45;&#45;6629599376</title>
<path fill="none" stroke="black" d="M1950.06,-189.03C2022.44,-183.6 2224.52,-168.42 2297.01,-162.98"/>
</g>
<!-- 6629592144 -->
<g id="node62" class="node">
<title>6629592144</title>
<ellipse fill="none" stroke="black" cx="2702.12" cy="-188" rx="139.07" ry="18"/>
<text text-anchor="middle" x="2702.12" y="-182.38" font-family="Times,serif" font-size="15.00">initiative competent authority</text>
</g>
<!-- 6629599376&#45;&#45;6629592144 -->
<g id="edge54" class="edge">
<title>6629599376&#45;&#45;6629592144</title>
<path fill="none" stroke="black" d="M2351.45,-162.88C2398.05,-166.23 2498.26,-173.43 2579.5,-179.26"/>
</g>
<!-- 6629605200 -->
<g id="node63" class="node">
<title>6629605200</title>
<ellipse fill="none" stroke="black" cx="2702.12" cy="-134" rx="27" ry="18"/>
<text text-anchor="middle" x="2702.12" y="-128.38" font-family="Times,serif" font-size="15.00">and</text>
</g>
<!-- 6629599376&#45;&#45;6629605200 -->
<g id="edge69" class="edge">
<title>6629599376&#45;&#45;6629605200</title>
<path fill="none" stroke="black" d="M2351.45,-159.12C2420.36,-154.17 2606.45,-140.8 2675.16,-135.86"/>
</g>
<!-- 6629589392 -->
<g id="node64" class="node">
<title>6629589392</title>
<ellipse fill="none" stroke="black" cx="3093.06" cy="-188" rx="178.53" ry="18"/>
<text text-anchor="middle" x="3093.06" y="-182.38" font-family="Times,serif" font-size="15.00">enter date termination request received</text>
</g>
<!-- 6629605200&#45;&#45;6629589392 -->
<g id="edge55" class="edge">
<title>6629605200&#45;&#45;6629589392</title>
<path fill="none" stroke="black" d="M2728.94,-137.58C2780.35,-144.72 2898.08,-161.07 2985.64,-173.22"/>
</g>
<!-- 6629597648 -->
<g id="node65" class="node">
<title>6629597648</title>
<ellipse fill="none" stroke="black" cx="3093.06" cy="-134" rx="153.27" ry="18"/>
<text text-anchor="middle" x="3093.06" y="-128.38" font-family="Times,serif" font-size="15.00">create message terminate request</text>
</g>
<!-- 6629605200&#45;&#45;6629597648 -->
<g id="edge56" class="edge">
<title>6629605200&#45;&#45;6629597648</title>
<path fill="none" stroke="black" d="M2729.54,-134C2772.54,-134 2860.77,-134 2939.42,-134"/>
</g>
<!-- 6629601296 -->
<g id="node66" class="node">
<title>6629601296</title>
<ellipse fill="none" stroke="black" cx="3093.06" cy="-80" rx="27" ry="18"/>
<text text-anchor="middle" x="3093.06" y="-74.38" font-family="Times,serif" font-size="15.00">seq</text>
</g>
<!-- 6629605200&#45;&#45;6629601296 -->
<g id="edge68" class="edge">
<title>6629605200&#45;&#45;6629601296</title>
<path fill="none" stroke="black" d="M2728.94,-130.42C2799.6,-120.6 2995.6,-93.39 3066.25,-83.58"/>
</g>
<!-- 6629592400 -->
<g id="node67" class="node">
<title>6629592400</title>
<ellipse fill="none" stroke="black" cx="3334.59" cy="-107" rx="27" ry="18"/>
<text text-anchor="middle" x="3334.59" y="-101.38" font-family="Times,serif" font-size="15.00">and</text>
</g>
<!-- 6629601296&#45;&#45;6629592400 -->
<g id="edge64" class="edge">
<title>6629601296&#45;&#45;6629592400</title>
<path fill="none" stroke="black" d="M3120.15,-82.94C3166.23,-88.13 3261.48,-98.87 3307.53,-104.06"/>
</g>
<!-- 6629595344 -->
<g id="node75" class="node">
<title>6629595344</title>
<ellipse fill="none" stroke="black" cx="3334.59" cy="-53" rx="27" ry="18"/>
<text text-anchor="middle" x="3334.59" y="-47.38" font-family="Times,serif" font-size="15.00">xor</text>
</g>
<!-- 6629601296&#45;&#45;6629595344 -->
<g id="edge67" class="edge">
<title>6629601296&#45;&#45;6629595344</title>
<path fill="none" stroke="black" d="M3120.15,-77.06C3166.23,-71.87 3261.48,-61.13 3307.53,-55.94"/>
</g>
<!-- 6629597136 -->
<g id="node68" class="node">
<title>6629597136</title>
<ellipse fill="none" stroke="black" cx="3529.29" cy="-157" rx="124.86" ry="18"/>
<text text-anchor="middle" x="3529.29" y="-151.38" font-family="Times,serif" font-size="15.00">message terminate request</text>
</g>
<!-- 6629592400&#45;&#45;6629597136 -->
<g id="edge57" class="edge">
<title>6629592400&#45;&#45;6629597136</title>
<path fill="none" stroke="black" d="M3360,-113.33C3386.73,-120.27 3430.64,-131.66 3466.91,-141.07"/>
</g>
<!-- 6629604496 -->
<g id="node69" class="node">
<title>6629604496</title>
<ellipse fill="none" stroke="black" cx="3529.29" cy="-103" rx="27" ry="18"/>
<text text-anchor="middle" x="3529.29" y="-97.38" font-family="Times,serif" font-size="15.00">seq</text>
</g>
<!-- 6629592400&#45;&#45;6629604496 -->
<g id="edge63" class="edge">
<title>6629592400&#45;&#45;6629604496</title>
<path fill="none" stroke="black" d="M3361.98,-106.45C3398.78,-105.69 3465.12,-104.31 3501.91,-103.55"/>
</g>
<!-- 6629596304 -->
<g id="node70" class="node">
<title>6629596304</title>
<ellipse fill="none" stroke="black" cx="3881.31" cy="-157" rx="27" ry="18"/>
<text text-anchor="middle" x="3881.31" y="-151.38" font-family="Times,serif" font-size="15.00">xor</text>
</g>
<!-- 6629604496&#45;&#45;6629596304 -->
<g id="edge60" class="edge">
<title>6629604496&#45;&#45;6629596304</title>
<path fill="none" stroke="black" d="M3556.03,-106.97C3620.76,-116.96 3789.77,-143.03 3854.53,-153.02"/>
</g>
<!-- 6629599888 -->
<g id="node73" class="node">
<title>6629599888</title>
<ellipse fill="none" stroke="black" cx="3881.31" cy="-103" rx="184.31" ry="18"/>
<text text-anchor="middle" x="3881.31" y="-97.38" font-family="Times,serif" font-size="15.00">phase procedure prematurely terminated</text>
</g>
<!-- 6629604496&#45;&#45;6629599888 -->
<g id="edge61" class="edge">
<title>6629604496&#45;&#45;6629599888</title>
<path fill="none" stroke="black" d="M3556.6,-103C3587.44,-103 3641.39,-103 3696.5,-103"/>
</g>
<!-- 6629603984 -->
<g id="node74" class="node">
<title>6629603984</title>
<ellipse fill="none" stroke="black" cx="3881.31" cy="-49" rx="115.39" ry="18"/>
<text text-anchor="middle" x="3881.31" y="-43.38" font-family="Times,serif" font-size="15.00">phase procedure aborted</text>
</g>
<!-- 6629604496&#45;&#45;6629603984 -->
<g id="edge62" class="edge">
<title>6629604496&#45;&#45;6629603984</title>
<path fill="none" stroke="black" d="M3556.03,-99.03C3606.24,-91.28 3719.17,-73.86 3797.54,-61.77"/>
</g>
<!-- 6629604176 -->
<g id="node71" class="node">
<title>6629604176</title>
<ellipse fill="black" stroke="black" cx="4225.44" cy="-176" rx="2.7" ry="2.7"/>
</g>
<!-- 6629596304&#45;&#45;6629604176 -->
<g id="edge58" class="edge">
<title>6629596304&#45;&#45;6629604176</title>
<path fill="none" stroke="black" d="M3908.59,-158.46C3984.32,-162.67 4199.12,-174.59 4222.38,-175.89"/>
</g>
<!-- 6629596368 -->
<g id="node72" class="node">
<title>6629596368</title>
<ellipse fill="none" stroke="black" cx="4225.44" cy="-137" rx="123.81" ry="18"/>
<text text-anchor="middle" x="4225.44" y="-131.38" font-family="Times,serif" font-size="15.00">read publication date field</text>
</g>
<!-- 6629596304&#45;&#45;6629596368 -->
<g id="edge59" class="edge">
<title>6629596304&#45;&#45;6629596368</title>
<path fill="none" stroke="black" d="M3908.59,-155.46C3951.23,-152.97 4037.95,-147.9 4109.75,-143.7"/>
</g>
<!-- 6629594000 -->
<g id="node76" class="node">
<title>6629594000</title>
<ellipse fill="black" stroke="black" cx="3529.29" cy="-57" rx="2.7" ry="2.7"/>
</g>
<!-- 6629595344&#45;&#45;6629594000 -->
<g id="edge65" class="edge">
<title>6629595344&#45;&#45;6629594000</title>
<path fill="none" stroke="black" d="M3361.98,-53.55C3410.63,-54.56 3510.92,-56.64 3526.3,-56.96"/>
</g>
<!-- 6629603664 -->
<g id="node77" class="node">
<title>6629603664</title>
<ellipse fill="none" stroke="black" cx="3529.29" cy="-18" rx="131.7" ry="18"/>
<text text-anchor="middle" x="3529.29" y="-12.38" font-family="Times,serif" font-size="15.00">stop all running subcases 2b</text>
</g>
<!-- 6629595344&#45;&#45;6629603664 -->
<g id="edge66" class="edge">
<title>6629595344&#45;&#45;6629603664</title>
<path fill="none" stroke="black" d="M3361.18,-48.35C3383.5,-44.3 3417.11,-38.19 3448.35,-32.52"/>
</g>
<!-- 6629597968 -->
<g id="node79" class="node">
<title>6629597968</title>
<ellipse fill="black" stroke="black" cx="340.64" cy="-701" rx="2.7" ry="2.7"/>
</g>
<!-- 6622028688&#45;&#45;6629597968 -->
<g id="edge77" class="edge">
<title>6622028688&#45;&#45;6629597968</title>
<path fill="none" stroke="black" d="M143.42,-666.47C197.55,-676 320.63,-697.65 337.67,-700.65"/>
</g>
<!-- 6629597392 -->
<g id="node80" class="node">
<title>6629597392</title>
<ellipse fill="none" stroke="black" cx="340.64" cy="-662" rx="120.13" ry="18"/>
<text text-anchor="middle" x="340.64" y="-656.38" font-family="Times,serif" font-size="15.00">regular procedure applies</text>
</g>
<!-- 6622028688&#45;&#45;6629597392 -->
<g id="edge78" class="edge">
<title>6622028688&#45;&#45;6629597392</title>
<path fill="none" stroke="black" d="M144.3,-662C163.67,-662 191.54,-662 220.19,-662"/>
</g>
<!-- 6629598800 -->
<g id="node81" class="node">
<title>6629598800</title>
<ellipse fill="none" stroke="black" cx="340.64" cy="-608" rx="27" ry="18"/>
<text text-anchor="middle" x="340.64" y="-602.38" font-family="Times,serif" font-size="15.00">seq</text>
</g>
<!-- 6622028688&#45;&#45;6629598800 -->
<g id="edge83" class="edge">
<title>6622028688&#45;&#45;6629598800</title>
<path fill="none" stroke="black" d="M142.57,-656.01C185.17,-645.63 272.28,-624.41 314.96,-614.01"/>
</g>
<!-- 6629598672 -->
<g id="node86" class="node">
<title>6629598672</title>
<ellipse fill="none" stroke="black" cx="340.64" cy="-473" rx="27" ry="18"/>
<text text-anchor="middle" x="340.64" y="-467.38" font-family="Times,serif" font-size="15.00">seq</text>
</g>
<!-- 6622028688&#45;&#45;6629598672 -->
<g id="edge91" class="edge">
<title>6622028688&#45;&#45;6629598672</title>
<path fill="none" stroke="black" d="M134.3,-648.1C175.19,-613.24 281.78,-522.34 323.02,-487.17"/>
</g>
<!-- 6629602000 -->
<g id="node82" class="node">
<title>6629602000</title>
<ellipse fill="none" stroke="black" cx="728.96" cy="-662" rx="159.06" ry="18"/>
<text text-anchor="middle" x="728.96" y="-656.38" font-family="Times,serif" font-size="15.00">enter senddate request termination</text>
</g>
<!-- 6629598800&#45;&#45;6629602000 -->
<g id="edge79" class="edge">
<title>6629598800&#45;&#45;6629602000</title>
<path fill="none" stroke="black" d="M367.59,-611.63C419.69,-618.91 539.52,-635.66 626.73,-647.85"/>
</g>
<!-- 6629591184 -->
<g id="node83" class="node">
<title>6629591184</title>
<ellipse fill="none" stroke="black" cx="728.96" cy="-608" rx="27" ry="18"/>
<text text-anchor="middle" x="728.96" y="-602.38" font-family="Times,serif" font-size="15.00">xor</text>
</g>
<!-- 6629598800&#45;&#45;6629591184 -->
<g id="edge82" class="edge">
<title>6629598800&#45;&#45;6629591184</title>
<path fill="none" stroke="black" d="M367.89,-608C438.37,-608 631.15,-608 701.67,-608"/>
</g>
<!-- 6629590544 -->
<g id="node84" class="node">
<title>6629590544</title>
<ellipse fill="black" stroke="black" cx="1137.27" cy="-613" rx="2.7" ry="2.7"/>
</g>
<!-- 6629591184&#45;&#45;6629590544 -->
<g id="edge80" class="edge">
<title>6629591184&#45;&#45;6629590544</title>
<path fill="none" stroke="black" d="M756.3,-608.32C841.77,-609.38 1107.34,-612.64 1134.09,-612.97"/>
</g>
<!-- 6629589776 -->
<g id="node85" class="node">
<title>6629589776</title>
<ellipse fill="none" stroke="black" cx="1137.27" cy="-574" rx="82.77" ry="18"/>
<text text-anchor="middle" x="1137.27" y="-568.38" font-family="Times,serif" font-size="15.00">register deadline</text>
</g>
<!-- 6629591184&#45;&#45;6629589776 -->
<g id="edge81" class="edge">
<title>6629591184&#45;&#45;6629589776</title>
<path fill="none" stroke="black" d="M755.99,-605.82C816.16,-600.79 966.76,-588.18 1059.37,-580.44"/>
</g>
<!-- 6629599568 -->
<g id="node87" class="node">
<title>6629599568</title>
<ellipse fill="none" stroke="black" cx="728.96" cy="-554" rx="140.65" ry="18"/>
<text text-anchor="middle" x="728.96" y="-548.38" font-family="Times,serif" font-size="15.00">decision date prior to decision</text>
</g>
<!-- 6629598672&#45;&#45;6629599568 -->
<g id="edge84" class="edge">
<title>6629598672&#45;&#45;6629599568</title>
<path fill="none" stroke="black" d="M366.69,-478.25C423.79,-490.22 565.44,-519.92 653.45,-538.38"/>
</g>
<!-- 6629594832 -->
<g id="node88" class="node">
<title>6629594832</title>
<ellipse fill="none" stroke="black" cx="728.96" cy="-500" rx="191.68" ry="18"/>
<text text-anchor="middle" x="728.96" y="-494.38" font-family="Times,serif" font-size="15.00">record date of decision no permit required</text>
</g>
<!-- 6629598672&#45;&#45;6629594832 -->
<g id="edge85" class="edge">
<title>6629598672&#45;&#45;6629594832</title>
<path fill="none" stroke="black" d="M367.89,-474.83C410.09,-477.78 496.15,-483.8 573.55,-489.21"/>
</g>
<!-- 6629603536 -->
<g id="node89" class="node">
<title>6629603536</title>
<ellipse fill="none" stroke="black" cx="728.96" cy="-446" rx="177.47" ry="18"/>
<text text-anchor="middle" x="728.96" y="-440.38" font-family="Times,serif" font-size="15.00">generating decision no permit required</text>
</g>
<!-- 6629598672&#45;&#45;6629603536 -->
<g id="edge86" class="edge">
<title>6629598672&#45;&#45;6629603536</title>
<path fill="none" stroke="black" d="M367.89,-471.17C411.45,-468.12 501.73,-461.81 580.99,-456.27"/>
</g>
<!-- 6629600400 -->
<g id="node90" class="node">
<title>6629600400</title>
<ellipse fill="none" stroke="black" cx="728.96" cy="-392" rx="153.27" ry="18"/>
<text text-anchor="middle" x="728.96" y="-386.38" font-family="Times,serif" font-size="15.00">phase activity no permit required</text>
</g>
<!-- 6629598672&#45;&#45;6629600400 -->
<g id="edge87" class="edge">
<title>6629598672&#45;&#45;6629600400</title>
<path fill="none" stroke="black" d="M366.69,-467.75C423.45,-455.85 563.78,-426.42 651.9,-407.95"/>
</g>
<!-- 6629600976 -->
<g id="node91" class="node">
<title>6629600976</title>
<ellipse fill="none" stroke="black" cx="728.96" cy="-338" rx="47" ry="18"/>
<text text-anchor="middle" x="728.96" y="-332.38" font-family="Times,serif" font-size="15.00">xor loop</text>
</g>
<!-- 6629598672&#45;&#45;6629600976 -->
<g id="edge90" class="edge">
<title>6629598672&#45;&#45;6629600976</title>
<path fill="none" stroke="black" d="M365.22,-464.76C430.83,-441.83 615.75,-377.21 693.18,-350.15"/>
</g>
<!-- 6629595472 -->
<g id="node92" class="node">
<title>6629595472</title>
<ellipse fill="none" stroke="black" cx="1137.27" cy="-365" rx="180.63" ry="18"/>
<text text-anchor="middle" x="1137.27" y="-359.38" font-family="Times,serif" font-size="15.00">enter senddate letter no permit required</text>
</g>
<!-- 6629600976&#45;&#45;6629595472 -->
<g id="edge88" class="edge">
<title>6629600976&#45;&#45;6629595472</title>
<path fill="none" stroke="black" d="M775.78,-341.04C826.52,-344.42 911.01,-350.03 985.44,-354.98"/>
</g>
<!-- 6629595984 -->
<g id="node93" class="node">
<title>6629595984</title>
<ellipse fill="none" stroke="black" cx="1137.27" cy="-311" rx="155.38" ry="18"/>
<text text-anchor="middle" x="1137.27" y="-305.38" font-family="Times,serif" font-size="15.00">generate letter no permit required</text>
</g>
<!-- 6629600976&#45;&#45;6629595984 -->
<g id="edge89" class="edge">
<title>6629600976&#45;&#45;6629595984</title>
<path fill="none" stroke="black" d="M775.78,-334.96C830.15,-331.34 923.27,-325.15 1001.25,-319.97"/>
</g>
</g>
</svg>
