<?xml version="1.0" encoding="UTF-8" standalone="no"?>
<!DOCTYPE svg PUBLIC "-//W3C//DTD SVG 1.1//EN"
 "http://www.w3.org/Graphics/SVG/1.1/DTD/svg11.dtd">
<!-- Generated by graphviz version 8.0.5 (20230430.1635)
 -->
<!-- Title: pt Pages: 1 -->
<svg width="3517pt" height="1232pt"
 viewBox="0.00 0.00 3517.41 1232.00" xmlns="http://www.w3.org/2000/svg" xmlns:xlink="http://www.w3.org/1999/xlink">
<g id="graph0" class="graph" transform="scale(1 1) rotate(0) translate(4 1228)">
<title>pt</title>
<polygon fill="white" stroke="none" points="-4,4 -4,-1228 3513.41,-1228 3513.41,4 -4,4"/>
<!-- 6627010384 -->
<g id="node1" class="node">
<title>6627010384</title>
<ellipse fill="none" stroke="black" cx="27" cy="-990" rx="27" ry="18"/>
<text text-anchor="middle" x="27" y="-984.38" font-family="Times,serif" font-size="15.00">seq</text>
</g>
<!-- 6627133776 -->
<g id="node2" class="node">
<title>6627133776</title>
<ellipse fill="none" stroke="black" cx="239.06" cy="-1206" rx="149.06" ry="18"/>
<text text-anchor="middle" x="239.06" y="-1200.38" font-family="Times,serif" font-size="15.00">register submission date request</text>
</g>
<!-- 6627010384&#45;&#45;6627133776 -->
<g id="edge1" class="edge">
<title>6627010384&#45;&#45;6627133776</title>
<path fill="none" stroke="black" d="M42.44,-1004.85C79.79,-1043.26 179.54,-1145.82 220.32,-1187.75"/>
</g>
<!-- 6627137232 -->
<g id="node3" class="node">
<title>6627137232</title>
<ellipse fill="none" stroke="black" cx="239.06" cy="-1152" rx="27" ry="18"/>
<text text-anchor="middle" x="239.06" y="-1146.38" font-family="Times,serif" font-size="15.00">xor</text>
</g>
<!-- 6627010384&#45;&#45;6627137232 -->
<g id="edge4" class="edge">
<title>6627010384&#45;&#45;6627137232</title>
<path fill="none" stroke="black" d="M45.55,-1003.53C85.19,-1034.1 181.26,-1108.19 220.71,-1138.62"/>
</g>
<!-- 6627144016 -->
<g id="node6" class="node">
<title>6627144016</title>
<ellipse fill="none" stroke="black" cx="239.06" cy="-1071" rx="108.55" ry="18"/>
<text text-anchor="middle" x="239.06" y="-1065.38" font-family="Times,serif" font-size="15.00">OLO messaging active</text>
</g>
<!-- 6627010384&#45;&#45;6627144016 -->
<g id="edge5" class="edge">
<title>6627010384&#45;&#45;6627144016</title>
<path fill="none" stroke="black" d="M50.88,-998.82C85.23,-1012.07 150.73,-1037.33 194.42,-1054.17"/>
</g>
<!-- 6627143568 -->
<g id="node7" class="node">
<title>6627143568</title>
<ellipse fill="none" stroke="black" cx="239.06" cy="-1017" rx="27" ry="18"/>
<text text-anchor="middle" x="239.06" y="-1011.38" font-family="Times,serif" font-size="15.00">and</text>
</g>
<!-- 6627010384&#45;&#45;6627143568 -->
<g id="edge19" class="edge">
<title>6627010384&#45;&#45;6627143568</title>
<path fill="none" stroke="black" d="M53.76,-993.31C94.08,-998.49 171.65,-1008.46 212.1,-1013.66"/>
</g>
<!-- 6627134672 -->
<g id="node21" class="node">
<title>6627134672</title>
<ellipse fill="none" stroke="black" cx="239.06" cy="-963" rx="27" ry="18"/>
<text text-anchor="middle" x="239.06" y="-957.38" font-family="Times,serif" font-size="15.00">xor</text>
</g>
<!-- 6627010384&#45;&#45;6627134672 -->
<g id="edge29" class="edge">
<title>6627010384&#45;&#45;6627134672</title>
<path fill="none" stroke="black" d="M53.76,-986.69C94.08,-981.51 171.65,-971.54 212.1,-966.34"/>
</g>
<!-- 6625861072 -->
<g id="node31" class="node">
<title>6625861072</title>
<ellipse fill="none" stroke="black" cx="239.06" cy="-877" rx="27" ry="18"/>
<text text-anchor="middle" x="239.06" y="-871.38" font-family="Times,serif" font-size="15.00">and</text>
</g>
<!-- 6627010384&#45;&#45;6625861072 -->
<g id="edge71" class="edge">
<title>6627010384&#45;&#45;6625861072</title>
<path fill="none" stroke="black" d="M48.52,-978.96C88.68,-957.36 177.23,-909.72 217.46,-888.09"/>
</g>
<!-- 6625866256 -->
<g id="node73" class="node">
<title>6625866256</title>
<ellipse fill="none" stroke="black" cx="239.06" cy="-782" rx="27" ry="18"/>
<text text-anchor="middle" x="239.06" y="-776.38" font-family="Times,serif" font-size="15.00">xor</text>
</g>
<!-- 6627010384&#45;&#45;6625866256 -->
<g id="edge74" class="edge">
<title>6627010384&#45;&#45;6625866256</title>
<path fill="none" stroke="black" d="M43.11,-975.04C81.87,-936.66 184.49,-835.05 223.09,-796.82"/>
</g>
<!-- 6625460048 -->
<g id="node76" class="node">
<title>6625460048</title>
<ellipse fill="none" stroke="black" cx="239.06" cy="-531" rx="27" ry="18"/>
<text text-anchor="middle" x="239.06" y="-525.38" font-family="Times,serif" font-size="15.00">xor</text>
</g>
<!-- 6627010384&#45;&#45;6625460048 -->
<g id="edge96" class="edge">
<title>6627010384&#45;&#45;6625460048</title>
<path fill="none" stroke="black" d="M35.98,-972.57C69.25,-899.86 196.79,-621.19 230.08,-548.45"/>
</g>
<!-- 6627134800 -->
<g id="node4" class="node">
<title>6627134800</title>
<ellipse fill="black" stroke="black" cx="600.55" cy="-1211" rx="2.7" ry="2.7"/>
</g>
<!-- 6627137232&#45;&#45;6627134800 -->
<g id="edge2" class="edge">
<title>6627137232&#45;&#45;6627134800</title>
<path fill="none" stroke="black" d="M265.63,-1156.2C343.59,-1168.99 574.42,-1206.87 597.66,-1210.69"/>
</g>
<!-- 6627136912 -->
<g id="node5" class="node">
<title>6627136912</title>
<ellipse fill="none" stroke="black" cx="600.55" cy="-1172" rx="176.42" ry="18"/>
<text text-anchor="middle" x="600.55" y="-1166.38" font-family="Times,serif" font-size="15.00">enter senddate procedure confirmation</text>
</g>
<!-- 6627137232&#45;&#45;6627136912 -->
<g id="edge3" class="edge">
<title>6627137232&#45;&#45;6627136912</title>
<path fill="none" stroke="black" d="M266.21,-1153.45C303.93,-1155.55 376.58,-1159.6 444.45,-1163.37"/>
</g>
<!-- 6627140752 -->
<g id="node8" class="node">
<title>6627140752</title>
<ellipse fill="none" stroke="black" cx="600.55" cy="-1118" rx="112.76" ry="18"/>
<text text-anchor="middle" x="600.55" y="-1112.38" font-family="Times,serif" font-size="15.00">applicant is stakeholder</text>
</g>
<!-- 6627143568&#45;&#45;6627140752 -->
<g id="edge6" class="edge">
<title>6627143568&#45;&#45;6627140752</title>
<path fill="none" stroke="black" d="M264.49,-1023.86C321.3,-1039.82 463.52,-1079.78 543.2,-1102.17"/>
</g>
<!-- 6627138960 -->
<g id="node9" class="node">
<title>6627138960</title>
<ellipse fill="none" stroke="black" cx="600.55" cy="-1064" rx="124.86" ry="18"/>
<text text-anchor="middle" x="600.55" y="-1058.38" font-family="Times,serif" font-size="15.00">phase application received</text>
</g>
<!-- 6627143568&#45;&#45;6627138960 -->
<g id="edge7" class="edge">
<title>6627143568&#45;&#45;6627138960</title>
<path fill="none" stroke="black" d="M265.92,-1020.38C315.5,-1026.86 426.17,-1041.33 506.48,-1051.83"/>
</g>
<!-- 6626106832 -->
<g id="node10" class="node">
<title>6626106832</title>
<ellipse fill="none" stroke="black" cx="600.55" cy="-1010" rx="27" ry="18"/>
<text text-anchor="middle" x="600.55" y="-1004.38" font-family="Times,serif" font-size="15.00">seq</text>
</g>
<!-- 6627143568&#45;&#45;6626106832 -->
<g id="edge18" class="edge">
<title>6627143568&#45;&#45;6626106832</title>
<path fill="none" stroke="black" d="M266.5,-1016.49C332.98,-1015.19 506.56,-1011.81 573.08,-1010.52"/>
</g>
<!-- 6626795664 -->
<g id="node11" class="node">
<title>6626795664</title>
<ellipse fill="none" stroke="black" cx="991.5" cy="-1117" rx="27" ry="18"/>
<text text-anchor="middle" x="991.5" y="-1111.38" font-family="Times,serif" font-size="15.00">and</text>
</g>
<!-- 6626106832&#45;&#45;6626795664 -->
<g id="edge12" class="edge">
<title>6626106832&#45;&#45;6626795664</title>
<path fill="none" stroke="black" d="M625.88,-1016.69C695.65,-1035.89 895.86,-1090.97 965.93,-1110.24"/>
</g>
<!-- 6625697104 -->
<g id="node16" class="node">
<title>6625697104</title>
<ellipse fill="none" stroke="black" cx="991.5" cy="-1044" rx="27" ry="18"/>
<text text-anchor="middle" x="991.5" y="-1038.38" font-family="Times,serif" font-size="15.00">xor</text>
</g>
<!-- 6626106832&#45;&#45;6625697104 -->
<g id="edge17" class="edge">
<title>6626106832&#45;&#45;6625697104</title>
<path fill="none" stroke="black" d="M627.68,-1012.28C698.45,-1018.47 893.3,-1035.5 964.23,-1041.7"/>
</g>
<!-- 6625959952 -->
<g id="node12" class="node">
<title>6625959952</title>
<ellipse fill="none" stroke="black" cx="1472.41" cy="-1171" rx="152.75" ry="18"/>
<text text-anchor="middle" x="1472.41" y="-1165.38" font-family="Times,serif" font-size="15.00">enter senddate acknowledgement</text>
</g>
<!-- 6626795664&#45;&#45;6625959952 -->
<g id="edge8" class="edge">
<title>6626795664&#45;&#45;6625959952</title>
<path fill="none" stroke="black" d="M1018.59,-1119.94C1082.07,-1127.1 1247.64,-1145.77 1359.97,-1158.43"/>
</g>
<!-- 6625952784 -->
<g id="node13" class="node">
<title>6625952784</title>
<ellipse fill="none" stroke="black" cx="1472.41" cy="-1117" rx="47" ry="18"/>
<text text-anchor="middle" x="1472.41" y="-1111.38" font-family="Times,serif" font-size="15.00">xor loop</text>
</g>
<!-- 6626795664&#45;&#45;6625952784 -->
<g id="edge11" class="edge">
<title>6626795664&#45;&#45;6625952784</title>
<path fill="none" stroke="black" d="M1018.93,-1117C1096.78,-1117 1325.95,-1117 1424.97,-1117"/>
</g>
<!-- 6626619600 -->
<g id="node14" class="node">
<title>6626619600</title>
<ellipse fill="none" stroke="black" cx="1978.58" cy="-1146" rx="121.18" ry="18"/>
<text text-anchor="middle" x="1978.58" y="-1140.38" font-family="Times,serif" font-size="15.00">send confirmation receipt</text>
</g>
<!-- 6625952784&#45;&#45;6626619600 -->
<g id="edge9" class="edge">
<title>6625952784&#45;&#45;6626619600</title>
<path fill="none" stroke="black" d="M1519.04,-1119.62C1596.49,-1124.08 1755.84,-1133.25 1864.71,-1139.51"/>
</g>
<!-- 6626617552 -->
<g id="node15" class="node">
<title>6626617552</title>
<ellipse fill="black" stroke="black" cx="1978.58" cy="-1107" rx="2.7" ry="2.7"/>
</g>
<!-- 6625952784&#45;&#45;6626617552 -->
<g id="edge10" class="edge">
<title>6625952784&#45;&#45;6626617552</title>
<path fill="none" stroke="black" d="M1519.49,-1116.09C1638.12,-1113.73 1946.76,-1107.61 1975.44,-1107.04"/>
</g>
<!-- 6626612944 -->
<g id="node17" class="node">
<title>6626612944</title>
<ellipse fill="black" stroke="black" cx="1472.41" cy="-1078" rx="2.7" ry="2.7"/>
</g>
<!-- 6625697104&#45;&#45;6626612944 -->
<g id="edge13" class="edge">
<title>6625697104&#45;&#45;6626612944</title>
<path fill="none" stroke="black" d="M1018.59,-1045.85C1114.23,-1052.64 1441.55,-1075.88 1469.51,-1077.86"/>
</g>
<!-- 6626621328 -->
<g id="node18" class="node">
<title>6626621328</title>
<ellipse fill="none" stroke="black" cx="1472.41" cy="-1039" rx="47" ry="18"/>
<text text-anchor="middle" x="1472.41" y="-1033.38" font-family="Times,serif" font-size="15.00">xor loop</text>
</g>
<!-- 6625697104&#45;&#45;6626621328 -->
<g id="edge16" class="edge">
<title>6625697104&#45;&#45;6626621328</title>
<path fill="none" stroke="black" d="M1018.93,-1043.72C1096.78,-1042.91 1325.95,-1040.52 1424.97,-1039.48"/>
</g>
<!-- 6626608016 -->
<g id="node19" class="node">
<title>6626608016</title>
<ellipse fill="none" stroke="black" cx="1978.58" cy="-1049" rx="203.78" ry="18"/>
<text text-anchor="middle" x="1978.58" y="-1043.38" font-family="Times,serif" font-size="15.00">no permit needed or only notification needed</text>
</g>
<!-- 6626621328&#45;&#45;6626608016 -->
<g id="edge14" class="edge">
<title>6626621328&#45;&#45;6626608016</title>
<path fill="none" stroke="black" d="M1519.49,-1039.91C1578.38,-1041.08 1684.09,-1043.18 1779.14,-1045.06"/>
</g>
<!-- 6626622928 -->
<g id="node20" class="node">
<title>6626622928</title>
<ellipse fill="black" stroke="black" cx="1978.58" cy="-1010" rx="2.7" ry="2.7"/>
</g>
<!-- 6626621328&#45;&#45;6626622928 -->
<g id="edge15" class="edge">
<title>6626621328&#45;&#45;6626622928</title>
<path fill="none" stroke="black" d="M1519.04,-1036.38C1637.33,-1029.57 1946.69,-1011.78 1975.43,-1010.12"/>
</g>
<!-- 6625963472 -->
<g id="node22" class="node">
<title>6625963472</title>
<ellipse fill="black" stroke="black" cx="600.55" cy="-971" rx="2.7" ry="2.7"/>
</g>
<!-- 6627134672&#45;&#45;6625963472 -->
<g id="edge20" class="edge">
<title>6627134672&#45;&#45;6625963472</title>
<path fill="none" stroke="black" d="M266.5,-963.59C344.98,-965.33 572.7,-970.4 597.38,-970.95"/>
</g>
<!-- 6626608144 -->
<g id="node23" class="node">
<title>6626608144</title>
<ellipse fill="none" stroke="black" cx="600.55" cy="-932" rx="27" ry="18"/>
<text text-anchor="middle" x="600.55" y="-926.38" font-family="Times,serif" font-size="15.00">seq</text>
</g>
<!-- 6627134672&#45;&#45;6626608144 -->
<g id="edge28" class="edge">
<title>6627134672&#45;&#45;6626608144</title>
<path fill="none" stroke="black" d="M266.21,-960.75C332.61,-955.02 507.21,-939.96 573.51,-934.25"/>
</g>
<!-- 6626621712 -->
<g id="node24" class="node">
<title>6626621712</title>
<ellipse fill="none" stroke="black" cx="991.5" cy="-990" rx="27" ry="18"/>
<text text-anchor="middle" x="991.5" y="-984.38" font-family="Times,serif" font-size="15.00">xor</text>
</g>
<!-- 6626608144&#45;&#45;6626621712 -->
<g id="edge23" class="edge">
<title>6626608144&#45;&#45;6626621712</title>
<path fill="none" stroke="black" d="M627.37,-935.85C698.04,-946.39 894.03,-975.61 964.69,-986.15"/>
</g>
<!-- 6625854096 -->
<g id="node27" class="node">
<title>6625854096</title>
<ellipse fill="none" stroke="black" cx="991.5" cy="-936" rx="99.08" ry="18"/>
<text text-anchor="middle" x="991.5" y="-930.38" font-family="Times,serif" font-size="15.00">terminate on request</text>
</g>
<!-- 6626608144&#45;&#45;6625854096 -->
<g id="edge24" class="edge">
<title>6626608144&#45;&#45;6625854096</title>
<path fill="none" stroke="black" d="M627.98,-932.27C681.33,-932.82 804.27,-934.08 892.19,-934.99"/>
</g>
<!-- 6625862608 -->
<g id="node28" class="node">
<title>6625862608</title>
<ellipse fill="none" stroke="black" cx="991.5" cy="-882" rx="27" ry="18"/>
<text text-anchor="middle" x="991.5" y="-876.38" font-family="Times,serif" font-size="15.00">xor</text>
</g>
<!-- 6626608144&#45;&#45;6625862608 -->
<g id="edge27" class="edge">
<title>6626608144&#45;&#45;6625862608</title>
<path fill="none" stroke="black" d="M627.37,-928.68C698.04,-919.6 894.03,-894.4 964.69,-885.32"/>
</g>
<!-- 6625862928 -->
<g id="node25" class="node">
<title>6625862928</title>
<ellipse fill="black" stroke="black" cx="1472.41" cy="-1000" rx="2.7" ry="2.7"/>
</g>
<!-- 6626621712&#45;&#45;6625862928 -->
<g id="edge21" class="edge">
<title>6626621712&#45;&#45;6625862928</title>
<path fill="none" stroke="black" d="M1018.93,-990.55C1115.02,-992.56 1441.62,-999.38 1469.51,-999.96"/>
</g>
<!-- 6625866832 -->
<g id="node26" class="node">
<title>6625866832</title>
<ellipse fill="none" stroke="black" cx="1472.41" cy="-961" rx="135.39" ry="18"/>
<text text-anchor="middle" x="1472.41" y="-955.38" font-family="Times,serif" font-size="15.00">calculate provisional charges</text>
</g>
<!-- 6626621712&#45;&#45;6625866832 -->
<g id="edge22" class="edge">
<title>6626621712&#45;&#45;6625866832</title>
<path fill="none" stroke="black" d="M1018.59,-988.42C1079.88,-984.71 1236.31,-975.24 1348.13,-968.47"/>
</g>
<!-- 6625856912 -->
<g id="node29" class="node">
<title>6625856912</title>
<ellipse fill="black" stroke="black" cx="1472.41" cy="-922" rx="2.7" ry="2.7"/>
</g>
<!-- 6625862608&#45;&#45;6625856912 -->
<g id="edge25" class="edge">
<title>6625862608&#45;&#45;6625856912</title>
<path fill="none" stroke="black" d="M1018.59,-884.18C1114.23,-892.17 1441.55,-919.51 1469.51,-921.84"/>
</g>
<!-- 6625855056 -->
<g id="node30" class="node">
<title>6625855056</title>
<ellipse fill="none" stroke="black" cx="1472.41" cy="-883" rx="125.39" ry="18"/>
<text text-anchor="middle" x="1472.41" y="-877.38" font-family="Times,serif" font-size="15.00">inform BAG administrator</text>
</g>
<!-- 6625862608&#45;&#45;6625855056 -->
<g id="edge26" class="edge">
<title>6625862608&#45;&#45;6625855056</title>
<path fill="none" stroke="black" d="M1018.93,-882.06C1080.21,-882.18 1235.25,-882.51 1346.77,-882.74"/>
</g>
<!-- 6625858512 -->
<g id="node32" class="node">
<title>6625858512</title>
<ellipse fill="none" stroke="black" cx="600.55" cy="-877" rx="147.49" ry="18"/>
<text text-anchor="middle" x="600.55" y="-871.38" font-family="Times,serif" font-size="15.00">regular procedure without MER</text>
</g>
<!-- 6625861072&#45;&#45;6625858512 -->
<g id="edge30" class="edge">
<title>6625861072&#45;&#45;6625858512</title>
<path fill="none" stroke="black" d="M266.5,-877C305.9,-877 382.92,-877 452.98,-877"/>
</g>
<!-- 6625860944 -->
<g id="node33" class="node">
<title>6625860944</title>
<ellipse fill="none" stroke="black" cx="600.55" cy="-821" rx="27" ry="18"/>
<text text-anchor="middle" x="600.55" y="-815.38" font-family="Times,serif" font-size="15.00">seq</text>
</g>
<!-- 6625861072&#45;&#45;6625860944 -->
<g id="edge70" class="edge">
<title>6625861072&#45;&#45;6625860944</title>
<path fill="none" stroke="black" d="M265.63,-873.02C331.72,-862.72 507.67,-835.31 573.88,-825"/>
</g>
<!-- 6625862736 -->
<g id="node34" class="node">
<title>6625862736</title>
<ellipse fill="none" stroke="black" cx="991.5" cy="-821" rx="27" ry="18"/>
<text text-anchor="middle" x="991.5" y="-815.38" font-family="Times,serif" font-size="15.00">xor</text>
</g>
<!-- 6625860944&#45;&#45;6625862736 -->
<g id="edge33" class="edge">
<title>6625860944&#45;&#45;6625862736</title>
<path fill="none" stroke="black" d="M627.98,-821C698.94,-821 893.04,-821 964.04,-821"/>
</g>
<!-- 6625860688 -->
<g id="node37" class="node">
<title>6625860688</title>
<ellipse fill="none" stroke="black" cx="991.5" cy="-766" rx="27" ry="18"/>
<text text-anchor="middle" x="991.5" y="-760.38" font-family="Times,serif" font-size="15.00">xor</text>
</g>
<!-- 6625860944&#45;&#45;6625860688 -->
<g id="edge54" class="edge">
<title>6625860944&#45;&#45;6625860688</title>
<path fill="none" stroke="black" d="M627.37,-817.35C698.04,-807.36 894.03,-779.64 964.69,-769.65"/>
</g>
<!-- 6625862416 -->
<g id="node58" class="node">
<title>6625862416</title>
<ellipse fill="none" stroke="black" cx="991.5" cy="-639" rx="47" ry="18"/>
<text text-anchor="middle" x="991.5" y="-633.38" font-family="Times,serif" font-size="15.00">xor loop</text>
</g>
<!-- 6625860944&#45;&#45;6625862416 -->
<g id="edge69" class="edge">
<title>6625860944&#45;&#45;6625862416</title>
<path fill="none" stroke="black" d="M623.3,-810.82C688.97,-780.09 885.38,-688.19 960.67,-652.96"/>
</g>
<!-- 6625858000 -->
<g id="node35" class="node">
<title>6625858000</title>
<ellipse fill="black" stroke="black" cx="1472.41" cy="-844" rx="2.7" ry="2.7"/>
</g>
<!-- 6625862736&#45;&#45;6625858000 -->
<g id="edge31" class="edge">
<title>6625862736&#45;&#45;6625858000</title>
<path fill="none" stroke="black" d="M1018.93,-822.27C1115.02,-826.88 1441.62,-842.57 1469.51,-843.91"/>
</g>
<!-- 6625862672 -->
<g id="node36" class="node">
<title>6625862672</title>
<ellipse fill="none" stroke="black" cx="1472.41" cy="-805" rx="72.25" ry="18"/>
<text text-anchor="middle" x="1472.41" y="-799.38" font-family="Times,serif" font-size="15.00">MER required</text>
</g>
<!-- 6625862736&#45;&#45;6625862672 -->
<g id="edge32" class="edge">
<title>6625862736&#45;&#45;6625862672</title>
<path fill="none" stroke="black" d="M1018.93,-820.12C1090.9,-817.71 1292.18,-810.99 1400.41,-807.37"/>
</g>
<!-- 6625860368 -->
<g id="node38" class="node">
<title>6625860368</title>
<ellipse fill="black" stroke="black" cx="1472.41" cy="-766" rx="2.7" ry="2.7"/>
</g>
<!-- 6625860688&#45;&#45;6625860368 -->
<g id="edge34" class="edge">
<title>6625860688&#45;&#45;6625860368</title>
<path fill="none" stroke="black" d="M1018.93,-766C1115.02,-766 1441.62,-766 1469.51,-766"/>
</g>
<!-- 6625866448 -->
<g id="node39" class="node">
<title>6625866448</title>
<ellipse fill="none" stroke="black" cx="1472.41" cy="-727" rx="27" ry="18"/>
<text text-anchor="middle" x="1472.41" y="-721.38" font-family="Times,serif" font-size="15.00">seq</text>
</g>
<!-- 6625860688&#45;&#45;6625866448 -->
<g id="edge53" class="edge">
<title>6625860688&#45;&#45;6625866448</title>
<path fill="none" stroke="black" d="M1018.59,-763.88C1102.03,-757.08 1361.82,-735.92 1445.3,-729.13"/>
</g>
<!-- 6625853840 -->
<g id="node40" class="node">
<title>6625853840</title>
<ellipse fill="none" stroke="black" cx="1978.58" cy="-862" rx="27" ry="18"/>
<text text-anchor="middle" x="1978.58" y="-856.38" font-family="Times,serif" font-size="15.00">xor</text>
</g>
<!-- 6625866448&#45;&#45;6625853840 -->
<g id="edge41" class="edge">
<title>6625866448&#45;&#45;6625853840</title>
<path fill="none" stroke="black" d="M1498.07,-733.6C1583.68,-756.52 1867.44,-832.51 1952.97,-855.41"/>
</g>
<!-- 6625858448 -->
<g id="node47" class="node">
<title>6625858448</title>
<ellipse fill="none" stroke="black" cx="1978.58" cy="-808" rx="129.07" ry="18"/>
<text text-anchor="middle" x="1978.58" y="-802.38" font-family="Times,serif" font-size="15.00">activities regular procedure</text>
</g>
<!-- 6625866448&#45;&#45;6625858448 -->
<g id="edge42" class="edge">
<title>6625866448&#45;&#45;6625858448</title>
<path fill="none" stroke="black" d="M1499.11,-731.13C1570.75,-742.64 1775.11,-775.47 1892.27,-794.29"/>
</g>
<!-- 6625863824 -->
<g id="node48" class="node">
<title>6625863824</title>
<ellipse fill="none" stroke="black" cx="1978.58" cy="-754" rx="91.19" ry="18"/>
<text text-anchor="middle" x="1978.58" y="-748.38" font-family="Times,serif" font-size="15.00">phased application</text>
</g>
<!-- 6625866448&#45;&#45;6625863824 -->
<g id="edge43" class="edge">
<title>6625866448&#45;&#45;6625863824</title>
<path fill="none" stroke="black" d="M1499.81,-728.41C1571.64,-732.26 1773.04,-743.05 1890.15,-749.32"/>
</g>
<!-- 6625854992 -->
<g id="node49" class="node">
<title>6625854992</title>
<ellipse fill="none" stroke="black" cx="1978.58" cy="-700" rx="27" ry="18"/>
<text text-anchor="middle" x="1978.58" y="-694.38" font-family="Times,serif" font-size="15.00">xor</text>
</g>
<!-- 6625866448&#45;&#45;6625854992 -->
<g id="edge52" class="edge">
<title>6625866448&#45;&#45;6625854992</title>
<path fill="none" stroke="black" d="M1499.81,-725.59C1586.93,-720.92 1864.71,-706.04 1951.45,-701.4"/>
</g>
<!-- 6625867152 -->
<g id="node41" class="node">
<title>6625867152</title>
<ellipse fill="black" stroke="black" cx="2359.01" cy="-881" rx="2.7" ry="2.7"/>
</g>
<!-- 6625853840&#45;&#45;6625867152 -->
<g id="edge35" class="edge">
<title>6625853840&#45;&#45;6625867152</title>
<path fill="none" stroke="black" d="M2005.89,-863.32C2087.35,-867.41 2331.43,-879.67 2356.01,-880.9"/>
</g>
<!-- 6625869200 -->
<g id="node42" class="node">
<title>6625869200</title>
<ellipse fill="none" stroke="black" cx="2359.01" cy="-842" rx="27" ry="18"/>
<text text-anchor="middle" x="2359.01" y="-836.38" font-family="Times,serif" font-size="15.00">seq</text>
</g>
<!-- 6625853840&#45;&#45;6625869200 -->
<g id="edge40" class="edge">
<title>6625853840&#45;&#45;6625869200</title>
<path fill="none" stroke="black" d="M2005.89,-860.61C2075.2,-856.95 2262.22,-847.06 2331.62,-843.39"/>
</g>
<!-- 6625862800 -->
<g id="node43" class="node">
<title>6625862800</title>
<ellipse fill="none" stroke="black" cx="2673.14" cy="-869" rx="27" ry="18"/>
<text text-anchor="middle" x="2673.14" y="-863.38" font-family="Times,serif" font-size="15.00">xor</text>
</g>
<!-- 6625869200&#45;&#45;6625862800 -->
<g id="edge38" class="edge">
<title>6625869200&#45;&#45;6625862800</title>
<path fill="none" stroke="black" d="M2386.08,-844.26C2444.84,-849.34 2587.03,-861.64 2645.92,-866.73"/>
</g>
<!-- 6625861136 -->
<g id="node46" class="node">
<title>6625861136</title>
<ellipse fill="none" stroke="black" cx="2673.14" cy="-815" rx="67.52" ry="18"/>
<text text-anchor="middle" x="2673.14" y="-809.38" font-family="Times,serif" font-size="15.00">MER present</text>
</g>
<!-- 6625869200&#45;&#45;6625861136 -->
<g id="edge39" class="edge">
<title>6625869200&#45;&#45;6625861136</title>
<path fill="none" stroke="black" d="M2386.08,-839.74C2434.58,-835.55 2539.93,-826.44 2608.35,-820.52"/>
</g>
<!-- 6625868944 -->
<g id="node44" class="node">
<title>6625868944</title>
<ellipse fill="black" stroke="black" cx="3003.59" cy="-888" rx="2.7" ry="2.7"/>
</g>
<!-- 6625862800&#45;&#45;6625868944 -->
<g id="edge36" class="edge">
<title>6625862800&#45;&#45;6625868944</title>
<path fill="none" stroke="black" d="M2700.47,-870.52C2774.14,-874.78 2978.51,-886.61 3000.64,-887.89"/>
</g>
<!-- 6625857296 -->
<g id="node45" class="node">
<title>6625857296</title>
<ellipse fill="none" stroke="black" cx="3003.59" cy="-849" rx="156.96" ry="18"/>
<text text-anchor="middle" x="3003.59" y="-843.38" font-family="Times,serif" font-size="15.00">no permit required for application</text>
</g>
<!-- 6625862800&#45;&#45;6625857296 -->
<g id="edge37" class="edge">
<title>6625862800&#45;&#45;6625857296</title>
<path fill="none" stroke="black" d="M2700.47,-867.4C2736.09,-865.23 2802.26,-861.2 2863.61,-857.46"/>
</g>
<!-- 6625868048 -->
<g id="node50" class="node">
<title>6625868048</title>
<ellipse fill="black" stroke="black" cx="2359.01" cy="-720" rx="2.7" ry="2.7"/>
</g>
<!-- 6625854992&#45;&#45;6625868048 -->
<g id="edge44" class="edge">
<title>6625854992&#45;&#45;6625868048</title>
<path fill="none" stroke="black" d="M2005.89,-701.39C2087.35,-705.7 2331.43,-718.6 2356.01,-719.89"/>
</g>
<!-- 6625858768 -->
<g id="node51" class="node">
<title>6625858768</title>
<ellipse fill="none" stroke="black" cx="2359.01" cy="-681" rx="27" ry="18"/>
<text text-anchor="middle" x="2359.01" y="-675.38" font-family="Times,serif" font-size="15.00">seq</text>
</g>
<!-- 6625854992&#45;&#45;6625858768 -->
<g id="edge51" class="edge">
<title>6625854992&#45;&#45;6625858768</title>
<path fill="none" stroke="black" d="M2005.89,-698.68C2075.2,-695.2 2262.22,-685.81 2331.62,-682.32"/>
</g>
<!-- 6625859920 -->
<g id="node52" class="node">
<title>6625859920</title>
<ellipse fill="none" stroke="black" cx="2673.14" cy="-708" rx="134.33" ry="18"/>
<text text-anchor="middle" x="2673.14" y="-702.38" font-family="Times,serif" font-size="15.00">send procedure confirmation</text>
</g>
<!-- 6625858768&#45;&#45;6625859920 -->
<g id="edge45" class="edge">
<title>6625858768&#45;&#45;6625859920</title>
<path fill="none" stroke="black" d="M2386.08,-683.26C2423.96,-686.53 2496.51,-692.81 2559.06,-698.22"/>
</g>
<!-- 6625861008 -->
<g id="node53" class="node">
<title>6625861008</title>
<ellipse fill="none" stroke="black" cx="2673.14" cy="-654" rx="27" ry="18"/>
<text text-anchor="middle" x="2673.14" y="-648.38" font-family="Times,serif" font-size="15.00">xor</text>
</g>
<!-- 6625858768&#45;&#45;6625861008 -->
<g id="edge50" class="edge">
<title>6625858768&#45;&#45;6625861008</title>
<path fill="none" stroke="black" d="M2386.08,-678.74C2444.84,-673.66 2587.03,-661.36 2645.92,-656.27"/>
</g>
<!-- 6625855824 -->
<g id="node54" class="node">
<title>6625855824</title>
<ellipse fill="black" stroke="black" cx="3003.59" cy="-673" rx="2.7" ry="2.7"/>
</g>
<!-- 6625861008&#45;&#45;6625855824 -->
<g id="edge46" class="edge">
<title>6625861008&#45;&#45;6625855824</title>
<path fill="none" stroke="black" d="M2700.47,-655.52C2774.14,-659.78 2978.51,-671.61 3000.64,-672.89"/>
</g>
<!-- 6625864784 -->
<g id="node55" class="node">
<title>6625864784</title>
<ellipse fill="none" stroke="black" cx="3003.59" cy="-634" rx="27" ry="18"/>
<text text-anchor="middle" x="3003.59" y="-628.38" font-family="Times,serif" font-size="15.00">seq</text>
</g>
<!-- 6625861008&#45;&#45;6625864784 -->
<g id="edge49" class="edge">
<title>6625861008&#45;&#45;6625864784</title>
<path fill="none" stroke="black" d="M2700.47,-652.4C2762.12,-648.64 2915.28,-639.32 2976.6,-635.58"/>
</g>
<!-- 6625864208 -->
<g id="node56" class="node">
<title>6625864208</title>
<ellipse fill="none" stroke="black" cx="3352.98" cy="-661" rx="131.18" ry="18"/>
<text text-anchor="middle" x="3352.98" y="-655.38" font-family="Times,serif" font-size="15.00">treat subcases completeness</text>
</g>
<!-- 6625864784&#45;&#45;6625864208 -->
<g id="edge47" class="edge">
<title>6625864784&#45;&#45;6625864208</title>
<path fill="none" stroke="black" d="M3030.7,-636.03C3074.25,-639.41 3164.21,-646.41 3237.88,-652.13"/>
</g>
<!-- 6625855504 -->
<g id="node57" class="node">
<title>6625855504</title>
<ellipse fill="none" stroke="black" cx="3352.98" cy="-607" rx="156.43" ry="18"/>
<text text-anchor="middle" x="3352.98" y="-601.38" font-family="Times,serif" font-size="15.00">subcases completeness completed</text>
</g>
<!-- 6625864784&#45;&#45;6625855504 -->
<g id="edge48" class="edge">
<title>6625864784&#45;&#45;6625855504</title>
<path fill="none" stroke="black" d="M3030.7,-631.97C3071.17,-628.82 3151.73,-622.56 3222.05,-617.1"/>
</g>
<!-- 6625452496 -->
<g id="node59" class="node">
<title>6625452496</title>
<ellipse fill="none" stroke="black" cx="1472.41" cy="-615" rx="27" ry="18"/>
<text text-anchor="middle" x="1472.41" y="-609.38" font-family="Times,serif" font-size="15.00">xor</text>
</g>
<!-- 6625862416&#45;&#45;6625452496 -->
<g id="edge67" class="edge">
<title>6625862416&#45;&#45;6625452496</title>
<path fill="none" stroke="black" d="M1038.42,-636.7C1137.22,-631.75 1367.3,-620.22 1445.14,-616.32"/>
</g>
<!-- 6625450384 -->
<g id="node72" class="node">
<title>6625450384</title>
<ellipse fill="black" stroke="black" cx="1472.41" cy="-576" rx="2.7" ry="2.7"/>
</g>
<!-- 6625862416&#45;&#45;6625450384 -->
<g id="edge68" class="edge">
<title>6625862416&#45;&#45;6625450384</title>
<path fill="none" stroke="black" d="M1036.27,-633.24C1148.95,-618.42 1442.14,-579.85 1469.38,-576.27"/>
</g>
<!-- 6625448144 -->
<g id="node60" class="node">
<title>6625448144</title>
<ellipse fill="none" stroke="black" cx="1978.58" cy="-646" rx="160.64" ry="18"/>
<text text-anchor="middle" x="1978.58" y="-640.38" font-family="Times,serif" font-size="15.00">forward to the competent authority</text>
</g>
<!-- 6625452496&#45;&#45;6625448144 -->
<g id="edge55" class="edge">
<title>6625452496&#45;&#45;6625448144</title>
<path fill="none" stroke="black" d="M1499.46,-616.6C1560.96,-620.38 1718.85,-630.09 1836.48,-637.32"/>
</g>
<!-- 6625453840 -->
<g id="node61" class="node">
<title>6625453840</title>
<ellipse fill="none" stroke="black" cx="1978.58" cy="-592" rx="105.92" ry="18"/>
<text text-anchor="middle" x="1978.58" y="-586.38" font-family="Times,serif" font-size="15.00">start WABOprocedure</text>
</g>
<!-- 6625452496&#45;&#45;6625453840 -->
<g id="edge56" class="edge">
<title>6625452496&#45;&#45;6625453840</title>
<path fill="none" stroke="black" d="M1499.81,-613.8C1568.75,-610.65 1757.06,-602.06 1875.64,-596.65"/>
</g>
<!-- 6625448016 -->
<g id="node62" class="node">
<title>6625448016</title>
<ellipse fill="none" stroke="black" cx="1978.58" cy="-538" rx="27" ry="18"/>
<text text-anchor="middle" x="1978.58" y="-532.38" font-family="Times,serif" font-size="15.00">seq</text>
</g>
<!-- 6625452496&#45;&#45;6625448016 -->
<g id="edge61" class="edge">
<title>6625452496&#45;&#45;6625448016</title>
<path fill="none" stroke="black" d="M1499.11,-611.08C1585.59,-597.87 1865.53,-555.11 1951.94,-541.92"/>
</g>
<!-- 6625453136 -->
<g id="node67" class="node">
<title>6625453136</title>
<ellipse fill="none" stroke="black" cx="1978.58" cy="-484" rx="27" ry="18"/>
<text text-anchor="middle" x="1978.58" y="-478.38" font-family="Times,serif" font-size="15.00">seq</text>
</g>
<!-- 6625452496&#45;&#45;6625453136 -->
<g id="edge66" class="edge">
<title>6625452496&#45;&#45;6625453136</title>
<path fill="none" stroke="black" d="M1498.07,-608.59C1583.68,-586.35 1867.44,-512.62 1952.97,-490.39"/>
</g>
<!-- 6625456144 -->
<g id="node63" class="node">
<title>6625456144</title>
<ellipse fill="none" stroke="black" cx="2359.01" cy="-592" rx="140.65" ry="18"/>
<text text-anchor="middle" x="2359.01" y="-586.38" font-family="Times,serif" font-size="15.00">create procedure confirmation</text>
</g>
<!-- 6625448016&#45;&#45;6625456144 -->
<g id="edge57" class="edge">
<title>6625448016&#45;&#45;6625456144</title>
<path fill="none" stroke="black" d="M2005.29,-541.67C2057.36,-549.1 2177.59,-566.25 2263.18,-578.47"/>
</g>
<!-- 6625451088 -->
<g id="node64" class="node">
<title>6625451088</title>
<ellipse fill="none" stroke="black" cx="2359.01" cy="-538" rx="27" ry="18"/>
<text text-anchor="middle" x="2359.01" y="-532.38" font-family="Times,serif" font-size="15.00">xor</text>
</g>
<!-- 6625448016&#45;&#45;6625451088 -->
<g id="edge60" class="edge">
<title>6625448016&#45;&#45;6625451088</title>
<path fill="none" stroke="black" d="M2005.89,-538C2075.2,-538 2262.22,-538 2331.62,-538"/>
</g>
<!-- 6625443920 -->
<g id="node65" class="node">
<title>6625443920</title>
<ellipse fill="black" stroke="black" cx="2673.14" cy="-558" rx="2.7" ry="2.7"/>
</g>
<!-- 6625451088&#45;&#45;6625443920 -->
<g id="edge58" class="edge">
<title>6625451088&#45;&#45;6625443920</title>
<path fill="none" stroke="black" d="M2386.35,-539.69C2457.49,-544.25 2649.52,-556.55 2670.31,-557.88"/>
</g>
<!-- 6625453008 -->
<g id="node66" class="node">
<title>6625453008</title>
<ellipse fill="none" stroke="black" cx="2673.14" cy="-519" rx="137.49" ry="18"/>
<text text-anchor="middle" x="2673.14" y="-513.38" font-family="Times,serif" font-size="15.00">create subcases completeness</text>
</g>
<!-- 6625451088&#45;&#45;6625453008 -->
<g id="edge59" class="edge">
<title>6625451088&#45;&#45;6625453008</title>
<path fill="none" stroke="black" d="M2386.35,-536.4C2421.99,-534.23 2487.98,-530.21 2547.58,-526.58"/>
</g>
<!-- 6625454416 -->
<g id="node68" class="node">
<title>6625454416</title>
<ellipse fill="none" stroke="black" cx="2359.01" cy="-484" rx="86.46" ry="18"/>
<text text-anchor="middle" x="2359.01" y="-478.38" font-family="Times,serif" font-size="15.00">procedure change</text>
</g>
<!-- 6625453136&#45;&#45;6625454416 -->
<g id="edge62" class="edge">
<title>6625453136&#45;&#45;6625454416</title>
<path fill="none" stroke="black" d="M2005.89,-484C2060.2,-484 2186.78,-484 2272.41,-484"/>
</g>
<!-- 6625452624 -->
<g id="node69" class="node">
<title>6625452624</title>
<ellipse fill="none" stroke="black" cx="2359.01" cy="-430" rx="27" ry="18"/>
<text text-anchor="middle" x="2359.01" y="-424.38" font-family="Times,serif" font-size="15.00">xor</text>
</g>
<!-- 6625453136&#45;&#45;6625452624 -->
<g id="edge65" class="edge">
<title>6625453136&#45;&#45;6625452624</title>
<path fill="none" stroke="black" d="M2005.29,-480.33C2074.33,-470.48 2263.18,-443.53 2332.26,-433.67"/>
</g>
<!-- 6625459920 -->
<g id="node70" class="node">
<title>6625459920</title>
<ellipse fill="black" stroke="black" cx="2673.14" cy="-450" rx="2.7" ry="2.7"/>
</g>
<!-- 6625452624&#45;&#45;6625459920 -->
<g id="edge63" class="edge">
<title>6625452624&#45;&#45;6625459920</title>
<path fill="none" stroke="black" d="M2386.35,-431.69C2457.49,-436.25 2649.52,-448.55 2670.31,-449.88"/>
</g>
<!-- 6625444816 -->
<g id="node71" class="node">
<title>6625444816</title>
<ellipse fill="none" stroke="black" cx="2673.14" cy="-411" rx="84.35" ry="18"/>
<text text-anchor="middle" x="2673.14" y="-405.38" font-family="Times,serif" font-size="15.00">request complete</text>
</g>
<!-- 6625452624&#45;&#45;6625444816 -->
<g id="edge64" class="edge">
<title>6625452624&#45;&#45;6625444816</title>
<path fill="none" stroke="black" d="M2386.35,-428.4C2431.11,-425.67 2523.71,-420.04 2591.42,-415.91"/>
</g>
<!-- 6625447760 -->
<g id="node74" class="node">
<title>6625447760</title>
<ellipse fill="black" stroke="black" cx="600.55" cy="-782" rx="2.7" ry="2.7"/>
</g>
<!-- 6625866256&#45;&#45;6625447760 -->
<g id="edge72" class="edge">
<title>6625866256&#45;&#45;6625447760</title>
<path fill="none" stroke="black" d="M266.5,-782C344.98,-782 572.7,-782 597.38,-782"/>
</g>
<!-- 6625451984 -->
<g id="node75" class="node">
<title>6625451984</title>
<ellipse fill="none" stroke="black" cx="600.55" cy="-743" rx="134.86" ry="18"/>
<text text-anchor="middle" x="600.55" y="-737.38" font-family="Times,serif" font-size="15.00">read field phased application</text>
</g>
<!-- 6625866256&#45;&#45;6625451984 -->
<g id="edge73" class="edge">
<title>6625866256&#45;&#45;6625451984</title>
<path fill="none" stroke="black" d="M266.21,-779.16C313.47,-774.04 415.52,-762.96 494.34,-754.41"/>
</g>
<!-- 6625453968 -->
<g id="node77" class="node">
<title>6625453968</title>
<ellipse fill="black" stroke="black" cx="600.55" cy="-624" rx="2.7" ry="2.7"/>
</g>
<!-- 6625460048&#45;&#45;6625453968 -->
<g id="edge75" class="edge">
<title>6625460048&#45;&#45;6625453968</title>
<path fill="none" stroke="black" d="M264.77,-537.39C341.87,-557.34 574.24,-617.45 597.65,-623.51"/>
</g>
<!-- 6625458768 -->
<g id="node78" class="node">
<title>6625458768</title>
<ellipse fill="none" stroke="black" cx="600.55" cy="-585" rx="132.76" ry="18"/>
<text text-anchor="middle" x="600.55" y="-579.38" font-family="Times,serif" font-size="15.00">create publication document</text>
</g>
<!-- 6625460048&#45;&#45;6625458768 -->
<g id="edge76" class="edge">
<title>6625460048&#45;&#45;6625458768</title>
<path fill="none" stroke="black" d="M265.92,-534.88C316.15,-542.43 429.05,-559.39 509.59,-571.49"/>
</g>
<!-- 6625459792 -->
<g id="node79" class="node">
<title>6625459792</title>
<ellipse fill="none" stroke="black" cx="600.55" cy="-531" rx="27" ry="18"/>
<text text-anchor="middle" x="600.55" y="-525.38" font-family="Times,serif" font-size="15.00">seq</text>
</g>
<!-- 6625460048&#45;&#45;6625459792 -->
<g id="edge79" class="edge">
<title>6625460048&#45;&#45;6625459792</title>
<path fill="none" stroke="black" d="M266.5,-531C332.98,-531 506.56,-531 573.08,-531"/>
</g>
<!-- 6625446224 -->
<g id="node82" class="node">
<title>6625446224</title>
<ellipse fill="none" stroke="black" cx="600.55" cy="-477" rx="27" ry="18"/>
<text text-anchor="middle" x="600.55" y="-471.38" font-family="Times,serif" font-size="15.00">seq</text>
</g>
<!-- 6625460048&#45;&#45;6625446224 -->
<g id="edge82" class="edge">
<title>6625460048&#45;&#45;6625446224</title>
<path fill="none" stroke="black" d="M265.92,-527.12C332.25,-517.15 507.86,-490.77 573.93,-480.85"/>
</g>
<!-- 6625458640 -->
<g id="node85" class="node">
<title>6625458640</title>
<ellipse fill="none" stroke="black" cx="600.55" cy="-315" rx="27" ry="18"/>
<text text-anchor="middle" x="600.55" y="-309.38" font-family="Times,serif" font-size="15.00">seq</text>
</g>
<!-- 6625460048&#45;&#45;6625458640 -->
<g id="edge87" class="edge">
<title>6625460048&#45;&#45;6625458640</title>
<path fill="none" stroke="black" d="M259.9,-519.08C322.76,-481.31 517.01,-364.6 579.77,-326.88"/>
</g>
<!-- 6620984464 -->
<g id="node90" class="node">
<title>6620984464</title>
<ellipse fill="none" stroke="black" cx="600.55" cy="-126" rx="27" ry="18"/>
<text text-anchor="middle" x="600.55" y="-120.38" font-family="Times,serif" font-size="15.00">seq</text>
</g>
<!-- 6625460048&#45;&#45;6620984464 -->
<g id="edge95" class="edge">
<title>6625460048&#45;&#45;6620984464</title>
<path fill="none" stroke="black" d="M253.72,-515.62C310.66,-451.47 528.91,-205.58 585.88,-141.4"/>
</g>
<!-- 6625444432 -->
<g id="node80" class="node">
<title>6625444432</title>
<ellipse fill="none" stroke="black" cx="991.5" cy="-585" rx="105.92" ry="18"/>
<text text-anchor="middle" x="991.5" y="-579.38" font-family="Times,serif" font-size="15.00">send letter in progress</text>
</g>
<!-- 6625459792&#45;&#45;6625444432 -->
<g id="edge77" class="edge">
<title>6625459792&#45;&#45;6625444432</title>
<path fill="none" stroke="black" d="M627.37,-534.58C683.7,-542.41 819.66,-561.28 908.3,-573.59"/>
</g>
<!-- 6625459088 -->
<g id="node81" class="node">
<title>6625459088</title>
<ellipse fill="none" stroke="black" cx="991.5" cy="-531" rx="128.02" ry="18"/>
<text text-anchor="middle" x="991.5" y="-525.38" font-family="Times,serif" font-size="15.00">phase application receptive</text>
</g>
<!-- 6625459792&#45;&#45;6625459088 -->
<g id="edge78" class="edge">
<title>6625459792&#45;&#45;6625459088</title>
<path fill="none" stroke="black" d="M627.98,-531C675.68,-531 779.04,-531 863.24,-531"/>
</g>
<!-- 6625458704 -->
<g id="node83" class="node">
<title>6625458704</title>
<ellipse fill="none" stroke="black" cx="991.5" cy="-477" rx="139.07" ry="18"/>
<text text-anchor="middle" x="991.5" y="-471.38" font-family="Times,serif" font-size="15.00">initiative competent authority</text>
</g>
<!-- 6625446224&#45;&#45;6625458704 -->
<g id="edge80" class="edge">
<title>6625446224&#45;&#45;6625458704</title>
<path fill="none" stroke="black" d="M627.98,-477C673.63,-477 770.26,-477 852.27,-477"/>
</g>
<!-- 6625460176 -->
<g id="node84" class="node">
<title>6625460176</title>
<ellipse fill="none" stroke="black" cx="991.5" cy="-423" rx="178.53" ry="18"/>
<text text-anchor="middle" x="991.5" y="-417.38" font-family="Times,serif" font-size="15.00">enter date termination request received</text>
</g>
<!-- 6625446224&#45;&#45;6625460176 -->
<g id="edge81" class="edge">
<title>6625446224&#45;&#45;6625460176</title>
<path fill="none" stroke="black" d="M627.37,-473.42C678.78,-466.28 796.52,-449.93 884.07,-437.78"/>
</g>
<!-- 6625455888 -->
<g id="node86" class="node">
<title>6625455888</title>
<ellipse fill="none" stroke="black" cx="991.5" cy="-369" rx="140.65" ry="18"/>
<text text-anchor="middle" x="991.5" y="-363.38" font-family="Times,serif" font-size="15.00">decision date prior to decision</text>
</g>
<!-- 6625458640&#45;&#45;6625455888 -->
<g id="edge83" class="edge">
<title>6625458640&#45;&#45;6625455888</title>
<path fill="none" stroke="black" d="M627.37,-318.58C680.82,-326.01 805.95,-343.38 894.33,-355.65"/>
</g>
<!-- 6625455184 -->
<g id="node87" class="node">
<title>6625455184</title>
<ellipse fill="none" stroke="black" cx="991.5" cy="-315" rx="177.47" ry="18"/>
<text text-anchor="middle" x="991.5" y="-309.38" font-family="Times,serif" font-size="15.00">generating decision no permit required</text>
</g>
<!-- 6625458640&#45;&#45;6625455184 -->
<g id="edge84" class="edge">
<title>6625458640&#45;&#45;6625455184</title>
<path fill="none" stroke="black" d="M627.98,-315C666.62,-315 741.78,-315 813.7,-315"/>
</g>
<!-- 6625451472 -->
<g id="node88" class="node">
<title>6625451472</title>
<ellipse fill="none" stroke="black" cx="991.5" cy="-261" rx="89.09" ry="18"/>
<text text-anchor="middle" x="991.5" y="-255.38" font-family="Times,serif" font-size="15.00">set decision status</text>
</g>
<!-- 6625458640&#45;&#45;6625451472 -->
<g id="edge85" class="edge">
<title>6625458640&#45;&#45;6625451472</title>
<path fill="none" stroke="black" d="M627.37,-311.42C685.57,-303.34 828.76,-283.46 916.95,-271.21"/>
</g>
<!-- 6620972880 -->
<g id="node89" class="node">
<title>6620972880</title>
<ellipse fill="none" stroke="black" cx="991.5" cy="-207" rx="158.01" ry="18"/>
<text text-anchor="middle" x="991.5" y="-201.38" font-family="Times,serif" font-size="15.00">create decision no permit required</text>
</g>
<!-- 6625458640&#45;&#45;6620972880 -->
<g id="edge86" class="edge">
<title>6625458640&#45;&#45;6620972880</title>
<path fill="none" stroke="black" d="M625.88,-308.24C685.84,-291.6 842.13,-248.2 929.37,-223.97"/>
</g>
<!-- 6620972560 -->
<g id="node91" class="node">
<title>6620972560</title>
<ellipse fill="none" stroke="black" cx="991.5" cy="-153" rx="148.01" ry="18"/>
<text text-anchor="middle" x="991.5" y="-147.38" font-family="Times,serif" font-size="15.00">phase only notification required</text>
</g>
<!-- 6620984464&#45;&#45;6620972560 -->
<g id="edge88" class="edge">
<title>6620984464&#45;&#45;6620972560</title>
<path fill="none" stroke="black" d="M627.68,-127.81C674.94,-131.09 777.55,-138.22 861.63,-144.05"/>
</g>
<!-- 6620974608 -->
<g id="node92" class="node">
<title>6620974608</title>
<ellipse fill="none" stroke="black" cx="991.5" cy="-99" rx="27" ry="18"/>
<text text-anchor="middle" x="991.5" y="-93.38" font-family="Times,serif" font-size="15.00">and</text>
</g>
<!-- 6620984464&#45;&#45;6620974608 -->
<g id="edge93" class="edge">
<title>6620984464&#45;&#45;6620974608</title>
<path fill="none" stroke="black" d="M627.68,-124.19C698.45,-119.27 893.3,-105.75 964.23,-100.82"/>
</g>
<!-- 6620974224 -->
<g id="node97" class="node">
<title>6620974224</title>
<ellipse fill="none" stroke="black" cx="991.5" cy="-45" rx="54.36" ry="18"/>
<text text-anchor="middle" x="991.5" y="-39.38" font-family="Times,serif" font-size="15.00">close case</text>
</g>
<!-- 6620984464&#45;&#45;6620974224 -->
<g id="edge94" class="edge">
<title>6620984464&#45;&#45;6620974224</title>
<path fill="none" stroke="black" d="M626.77,-120.75C691.16,-107.34 862.35,-71.69 944.82,-54.51"/>
</g>
<!-- 6620987344 -->
<g id="node93" class="node">
<title>6620987344</title>
<ellipse fill="none" stroke="black" cx="1472.41" cy="-180" rx="266.39" ry="18"/>
<text text-anchor="middle" x="1472.41" y="-174.38" font-family="Times,serif" font-size="15.00">enter senddate letter no permit or only notification required</text>
</g>
<!-- 6620974608&#45;&#45;6620987344 -->
<g id="edge89" class="edge">
<title>6620974608&#45;&#45;6620987344</title>
<path fill="none" stroke="black" d="M1017.91,-103.3C1082.89,-114.29 1257.89,-143.89 1370.52,-162.94"/>
</g>
<!-- 6620981072 -->
<g id="node94" class="node">
<title>6620981072</title>
<ellipse fill="none" stroke="black" cx="1472.41" cy="-126" rx="82.77" ry="18"/>
<text text-anchor="middle" x="1472.41" y="-120.38" font-family="Times,serif" font-size="15.00">register deadline</text>
</g>
<!-- 6620974608&#45;&#45;6620981072 -->
<g id="edge90" class="edge">
<title>6620974608&#45;&#45;6620981072</title>
<path fill="none" stroke="black" d="M1018.59,-100.47C1088.37,-104.4 1281.47,-115.29 1391.66,-121.5"/>
</g>
<!-- 6620978640 -->
<g id="node95" class="node">
<title>6620978640</title>
<ellipse fill="none" stroke="black" cx="1472.41" cy="-72" rx="115.39" ry="18"/>
<text text-anchor="middle" x="1472.41" y="-66.38" font-family="Times,serif" font-size="15.00">phase procedure aborted</text>
</g>
<!-- 6620974608&#45;&#45;6620978640 -->
<g id="edge91" class="edge">
<title>6620974608&#45;&#45;6620978640</title>
<path fill="none" stroke="black" d="M1018.59,-97.53C1082.66,-93.92 1250.7,-84.44 1363.06,-78.11"/>
</g>
<!-- 6620986256 -->
<g id="node96" class="node">
<title>6620986256</title>
<ellipse fill="none" stroke="black" cx="1472.41" cy="-18" rx="230.61" ry="18"/>
<text text-anchor="middle" x="1472.41" y="-12.38" font-family="Times,serif" font-size="15.00">create letter no permit or only notification required</text>
</g>
<!-- 6620974608&#45;&#45;6620986256 -->
<g id="edge92" class="edge">
<title>6620974608&#45;&#45;6620986256</title>
<path fill="none" stroke="black" d="M1017.91,-94.7C1083.37,-83.63 1260.5,-53.67 1373.03,-34.64"/>
</g>
</g>
</svg>
