<?xml version="1.0" encoding="UTF-8" standalone="no"?>
<!DOCTYPE svg PUBLIC "-//W3C//DTD SVG 1.1//EN"
 "http://www.w3.org/Graphics/SVG/1.1/DTD/svg11.dtd">
<!-- Generated by graphviz version 8.0.5 (20230430.1635)
 -->
<!-- Title: pt Pages: 1 -->
<svg width="4762pt" height="807pt"
 viewBox="0.00 0.00 4762.46 807.00" xmlns="http://www.w3.org/2000/svg" xmlns:xlink="http://www.w3.org/1999/xlink">
<g id="graph0" class="graph" transform="scale(1 1) rotate(0) translate(4 803)">
<title>pt</title>
<polygon fill="white" stroke="none" points="-4,4 -4,-803 4758.46,-803 4758.46,4 -4,4"/>
<!-- 6626365264 -->
<g id="node1" class="node">
<title>6626365264</title>
<ellipse fill="none" stroke="black" cx="27" cy="-700" rx="27" ry="18"/>
<text text-anchor="middle" x="27" y="-694.38" font-family="Times,serif" font-size="15.00">seq</text>
</g>
<!-- 6626369488 -->
<g id="node2" class="node">
<title>6626369488</title>
<ellipse fill="none" stroke="black" cx="239.06" cy="-781" rx="149.06" ry="18"/>
<text text-anchor="middle" x="239.06" y="-775.38" font-family="Times,serif" font-size="15.00">register submission date request</text>
</g>
<!-- 6626365264&#45;&#45;6626369488 -->
<g id="edge1" class="edge">
<title>6626365264&#45;&#45;6626369488</title>
<path fill="none" stroke="black" d="M50.88,-708.82C84.8,-721.9 149.12,-746.7 192.78,-763.54"/>
</g>
<!-- 6626376016 -->
<g id="node3" class="node">
<title>6626376016</title>
<ellipse fill="none" stroke="black" cx="239.06" cy="-727" rx="108.55" ry="18"/>
<text text-anchor="middle" x="239.06" y="-721.38" font-family="Times,serif" font-size="15.00">OLO messaging active</text>
</g>
<!-- 6626365264&#45;&#45;6626376016 -->
<g id="edge2" class="edge">
<title>6626365264&#45;&#45;6626376016</title>
<path fill="none" stroke="black" d="M53.76,-703.31C78.3,-706.47 116.64,-711.39 152.02,-715.94"/>
</g>
<!-- 6626632272 -->
<g id="node4" class="node">
<title>6626632272</title>
<ellipse fill="none" stroke="black" cx="239.06" cy="-673" rx="27" ry="18"/>
<text text-anchor="middle" x="239.06" y="-667.38" font-family="Times,serif" font-size="15.00">and</text>
</g>
<!-- 6626365264&#45;&#45;6626632272 -->
<g id="edge64" class="edge">
<title>6626365264&#45;&#45;6626632272</title>
<path fill="none" stroke="black" d="M53.76,-696.69C94.08,-691.51 171.65,-681.54 212.1,-676.34"/>
</g>
<!-- 6626636944 -->
<g id="node66" class="node">
<title>6626636944</title>
<ellipse fill="none" stroke="black" cx="239.06" cy="-511" rx="27" ry="18"/>
<text text-anchor="middle" x="239.06" y="-505.38" font-family="Times,serif" font-size="15.00">xor</text>
</g>
<!-- 6626365264&#45;&#45;6626636944 -->
<g id="edge80" class="edge">
<title>6626365264&#45;&#45;6626636944</title>
<path fill="none" stroke="black" d="M43.79,-685.79C82.72,-650.77 182.97,-560.57 222.09,-525.37"/>
</g>
<!-- 6626631376 -->
<g id="node5" class="node">
<title>6626631376</title>
<ellipse fill="none" stroke="black" cx="548.99" cy="-754" rx="112.76" ry="18"/>
<text text-anchor="middle" x="548.99" y="-748.38" font-family="Times,serif" font-size="15.00">applicant is stakeholder</text>
</g>
<!-- 6626632272&#45;&#45;6626631376 -->
<g id="edge3" class="edge">
<title>6626632272&#45;&#45;6626631376</title>
<path fill="none" stroke="black" d="M264.74,-679.49C312.98,-692.18 420.97,-720.59 488.8,-738.43"/>
</g>
<!-- 6626374672 -->
<g id="node6" class="node">
<title>6626374672</title>
<ellipse fill="none" stroke="black" cx="548.99" cy="-700" rx="124.86" ry="18"/>
<text text-anchor="middle" x="548.99" y="-694.38" font-family="Times,serif" font-size="15.00">phase application received</text>
</g>
<!-- 6626632272&#45;&#45;6626374672 -->
<g id="edge4" class="edge">
<title>6626632272&#45;&#45;6626374672</title>
<path fill="none" stroke="black" d="M266.32,-675.3C304.79,-678.68 378.68,-685.15 441.13,-690.63"/>
</g>
<!-- 6626636624 -->
<g id="node7" class="node">
<title>6626636624</title>
<ellipse fill="none" stroke="black" cx="548.99" cy="-646" rx="27" ry="18"/>
<text text-anchor="middle" x="548.99" y="-640.38" font-family="Times,serif" font-size="15.00">seq</text>
</g>
<!-- 6626632272&#45;&#45;6626636624 -->
<g id="edge63" class="edge">
<title>6626632272&#45;&#45;6626636624</title>
<path fill="none" stroke="black" d="M266.32,-670.7C324.49,-665.6 463.69,-653.39 521.81,-648.3"/>
</g>
<!-- 6626632208 -->
<g id="node8" class="node">
<title>6626632208</title>
<ellipse fill="none" stroke="black" cx="888.38" cy="-727" rx="47" ry="18"/>
<text text-anchor="middle" x="888.38" y="-721.38" font-family="Times,serif" font-size="15.00">xor loop</text>
</g>
<!-- 6626636624&#45;&#45;6626632208 -->
<g id="edge7" class="edge">
<title>6626636624&#45;&#45;6626632208</title>
<path fill="none" stroke="black" d="M574.8,-651.96C632.78,-665.88 777.56,-700.63 847.85,-717.51"/>
</g>
<!-- 6626628240 -->
<g id="node11" class="node">
<title>6626628240</title>
<ellipse fill="none" stroke="black" cx="888.38" cy="-673" rx="152.75" ry="18"/>
<text text-anchor="middle" x="888.38" y="-667.38" font-family="Times,serif" font-size="15.00">enter senddate acknowledgement</text>
</g>
<!-- 6626636624&#45;&#45;6626628240 -->
<g id="edge8" class="edge">
<title>6626636624&#45;&#45;6626628240</title>
<path fill="none" stroke="black" d="M576.19,-648.1C615.67,-651.26 693.01,-657.45 760.71,-662.86"/>
</g>
<!-- 6626630608 -->
<g id="node12" class="node">
<title>6626630608</title>
<ellipse fill="none" stroke="black" cx="888.38" cy="-619" rx="27" ry="18"/>
<text text-anchor="middle" x="888.38" y="-613.38" font-family="Times,serif" font-size="15.00">and</text>
</g>
<!-- 6626636624&#45;&#45;6626630608 -->
<g id="edge62" class="edge">
<title>6626636624&#45;&#45;6626630608</title>
<path fill="none" stroke="black" d="M576.19,-643.9C639.2,-638.86 798.68,-626.1 861.44,-621.08"/>
</g>
<!-- 6626631504 -->
<g id="node9" class="node">
<title>6626631504</title>
<ellipse fill="none" stroke="black" cx="1369.3" cy="-746" rx="121.18" ry="18"/>
<text text-anchor="middle" x="1369.3" y="-740.38" font-family="Times,serif" font-size="15.00">send confirmation receipt</text>
</g>
<!-- 6626632208&#45;&#45;6626631504 -->
<g id="edge5" class="edge">
<title>6626632208&#45;&#45;6626631504</title>
<path fill="none" stroke="black" d="M935.3,-728.82C1007.53,-731.69 1149.92,-737.34 1251.69,-741.37"/>
</g>
<!-- 6626633296 -->
<g id="node10" class="node">
<title>6626633296</title>
<ellipse fill="black" stroke="black" cx="1369.3" cy="-707" rx="2.7" ry="2.7"/>
</g>
<!-- 6626632208&#45;&#45;6626633296 -->
<g id="edge6" class="edge">
<title>6626632208&#45;&#45;6626633296</title>
<path fill="none" stroke="black" d="M935.3,-725.08C1049.55,-720.31 1339.37,-708.21 1366.28,-707.08"/>
</g>
<!-- 6626635088 -->
<g id="node13" class="node">
<title>6626635088</title>
<ellipse fill="none" stroke="black" cx="1369.3" cy="-643" rx="27" ry="18"/>
<text text-anchor="middle" x="1369.3" y="-637.38" font-family="Times,serif" font-size="15.00">xor</text>
</g>
<!-- 6626630608&#45;&#45;6626635088 -->
<g id="edge11" class="edge">
<title>6626630608&#45;&#45;6626635088</title>
<path fill="none" stroke="black" d="M915.47,-620.31C998.82,-624.48 1258.1,-637.48 1341.89,-641.68"/>
</g>
<!-- 6626626000 -->
<g id="node16" class="node">
<title>6626626000</title>
<ellipse fill="none" stroke="black" cx="1369.3" cy="-589" rx="27" ry="18"/>
<text text-anchor="middle" x="1369.3" y="-583.38" font-family="Times,serif" font-size="15.00">seq</text>
</g>
<!-- 6626630608&#45;&#45;6626626000 -->
<g id="edge61" class="edge">
<title>6626630608&#45;&#45;6626626000</title>
<path fill="none" stroke="black" d="M915.47,-617.37C998.92,-612.14 1258.71,-595.86 1342.18,-590.64"/>
</g>
<!-- 6626635792 -->
<g id="node14" class="node">
<title>6626635792</title>
<ellipse fill="black" stroke="black" cx="1832.32" cy="-682" rx="2.7" ry="2.7"/>
</g>
<!-- 6626635088&#45;&#45;6626635792 -->
<g id="edge9" class="edge">
<title>6626635088&#45;&#45;6626635792</title>
<path fill="none" stroke="black" d="M1396.4,-645.21C1489.36,-653.07 1800.22,-679.37 1829.16,-681.82"/>
</g>
<!-- 6626638416 -->
<g id="node15" class="node">
<title>6626638416</title>
<ellipse fill="none" stroke="black" cx="1832.32" cy="-643" rx="160.64" ry="18"/>
<text text-anchor="middle" x="1832.32" y="-637.38" font-family="Times,serif" font-size="15.00">forward to the competent authority</text>
</g>
<!-- 6626635088&#45;&#45;6626638416 -->
<g id="edge10" class="edge">
<title>6626635088&#45;&#45;6626638416</title>
<path fill="none" stroke="black" d="M1396.74,-643C1449.26,-643 1570.38,-643 1671.45,-643"/>
</g>
<!-- 6626637904 -->
<g id="node17" class="node">
<title>6626637904</title>
<ellipse fill="none" stroke="black" cx="1832.32" cy="-589" rx="27" ry="18"/>
<text text-anchor="middle" x="1832.32" y="-583.38" font-family="Times,serif" font-size="15.00">xor</text>
</g>
<!-- 6626626000&#45;&#45;6626637904 -->
<g id="edge14" class="edge">
<title>6626626000&#45;&#45;6626637904</title>
<path fill="none" stroke="black" d="M1396.74,-589C1478.05,-589 1723.81,-589 1804.99,-589"/>
</g>
<!-- 6626634768 -->
<g id="node20" class="node">
<title>6626634768</title>
<ellipse fill="none" stroke="black" cx="1832.32" cy="-535" rx="27" ry="18"/>
<text text-anchor="middle" x="1832.32" y="-529.38" font-family="Times,serif" font-size="15.00">xor</text>
</g>
<!-- 6626626000&#45;&#45;6626634768 -->
<g id="edge60" class="edge">
<title>6626626000&#45;&#45;6626634768</title>
<path fill="none" stroke="black" d="M1396.4,-585.94C1477.45,-576.45 1724.17,-547.55 1805.22,-538.06"/>
</g>
<!-- 6626626832 -->
<g id="node18" class="node">
<title>6626626832</title>
<ellipse fill="black" stroke="black" cx="2232.74" cy="-624" rx="2.7" ry="2.7"/>
</g>
<!-- 6626637904&#45;&#45;6626626832 -->
<g id="edge12" class="edge">
<title>6626637904&#45;&#45;6626626832</title>
<path fill="none" stroke="black" d="M1859.46,-591.3C1943.6,-598.69 2203.44,-621.51 2229.61,-623.81"/>
</g>
<!-- 6626631888 -->
<g id="node19" class="node">
<title>6626631888</title>
<ellipse fill="none" stroke="black" cx="2232.74" cy="-585" rx="203.78" ry="18"/>
<text text-anchor="middle" x="2232.74" y="-579.38" font-family="Times,serif" font-size="15.00">no permit needed or only notification needed</text>
</g>
<!-- 6626637904&#45;&#45;6626631888 -->
<g id="edge13" class="edge">
<title>6626637904&#45;&#45;6626631888</title>
<path fill="none" stroke="black" d="M1859.77,-588.73C1895.49,-588.38 1962.46,-587.7 2029.84,-587.03"/>
</g>
<!-- 6626634448 -->
<g id="node21" class="node">
<title>6626634448</title>
<ellipse fill="black" stroke="black" cx="2232.74" cy="-539" rx="2.7" ry="2.7"/>
</g>
<!-- 6626634768&#45;&#45;6626634448 -->
<g id="edge15" class="edge">
<title>6626634768&#45;&#45;6626634448</title>
<path fill="none" stroke="black" d="M1859.77,-535.27C1944.24,-536.11 2203.5,-538.72 2229.61,-538.98"/>
</g>
<!-- 6626624848 -->
<g id="node22" class="node">
<title>6626624848</title>
<ellipse fill="none" stroke="black" cx="2232.74" cy="-500" rx="27" ry="18"/>
<text text-anchor="middle" x="2232.74" y="-494.38" font-family="Times,serif" font-size="15.00">and</text>
</g>
<!-- 6626634768&#45;&#45;6626624848 -->
<g id="edge59" class="edge">
<title>6626634768&#45;&#45;6626624848</title>
<path fill="none" stroke="black" d="M1859.46,-532.7C1931.65,-526.36 2133.2,-508.66 2205.5,-502.3"/>
</g>
<!-- 6626626704 -->
<g id="node23" class="node">
<title>6626626704</title>
<ellipse fill="none" stroke="black" cx="2620.01" cy="-527" rx="147.49" ry="18"/>
<text text-anchor="middle" x="2620.01" y="-521.38" font-family="Times,serif" font-size="15.00">regular procedure without MER</text>
</g>
<!-- 6626624848&#45;&#45;6626626704 -->
<g id="edge16" class="edge">
<title>6626624848&#45;&#45;6626626704</title>
<path fill="none" stroke="black" d="M2259.92,-501.83C2306.75,-505.12 2407.72,-512.19 2490.7,-518.01"/>
</g>
<!-- 6626632784 -->
<g id="node24" class="node">
<title>6626632784</title>
<ellipse fill="none" stroke="black" cx="2620.01" cy="-473" rx="27" ry="18"/>
<text text-anchor="middle" x="2620.01" y="-467.38" font-family="Times,serif" font-size="15.00">seq</text>
</g>
<!-- 6626624848&#45;&#45;6626632784 -->
<g id="edge58" class="edge">
<title>6626624848&#45;&#45;6626632784</title>
<path fill="none" stroke="black" d="M2259.92,-498.17C2330.2,-493.24 2522.47,-479.77 2592.79,-474.84"/>
</g>
<!-- 6626631184 -->
<g id="node25" class="node">
<title>6626631184</title>
<ellipse fill="none" stroke="black" cx="2830.49" cy="-547" rx="27" ry="18"/>
<text text-anchor="middle" x="2830.49" y="-541.38" font-family="Times,serif" font-size="15.00">xor</text>
</g>
<!-- 6626632784&#45;&#45;6626631184 -->
<g id="edge23" class="edge">
<title>6626632784&#45;&#45;6626631184</title>
<path fill="none" stroke="black" d="M2644.52,-481.34C2684.67,-495.59 2765.98,-524.46 2806.07,-538.69"/>
</g>
<!-- 6626633488 -->
<g id="node32" class="node">
<title>6626633488</title>
<ellipse fill="none" stroke="black" cx="2830.49" cy="-434" rx="27" ry="18"/>
<text text-anchor="middle" x="2830.49" y="-428.38" font-family="Times,serif" font-size="15.00">and</text>
</g>
<!-- 6626632784&#45;&#45;6626633488 -->
<g id="edge57" class="edge">
<title>6626632784&#45;&#45;6626633488</title>
<path fill="none" stroke="black" d="M2646.57,-468.22C2686.69,-460.71 2764,-446.25 2804.05,-438.76"/>
</g>
<!-- 6626627216 -->
<g id="node26" class="node">
<title>6626627216</title>
<ellipse fill="black" stroke="black" cx="2965.75" cy="-613" rx="2.7" ry="2.7"/>
</g>
<!-- 6626631184&#45;&#45;6626627216 -->
<g id="edge17" class="edge">
<title>6626631184&#45;&#45;6626627216</title>
<path fill="none" stroke="black" d="M2852.9,-557.6C2887.04,-574.51 2951.16,-606.27 2962.88,-612.08"/>
</g>
<!-- 6626638672 -->
<g id="node27" class="node">
<title>6626638672</title>
<ellipse fill="none" stroke="black" cx="2965.75" cy="-574" rx="72.25" ry="18"/>
<text text-anchor="middle" x="2965.75" y="-568.38" font-family="Times,serif" font-size="15.00">MER required</text>
</g>
<!-- 6626631184&#45;&#45;6626638672 -->
<g id="edge18" class="edge">
<title>6626631184&#45;&#45;6626638672</title>
<path fill="none" stroke="black" d="M2856.87,-552.14C2871.52,-555.11 2890.56,-558.97 2908.55,-562.61"/>
</g>
<!-- 6626627280 -->
<g id="node28" class="node">
<title>6626627280</title>
<ellipse fill="none" stroke="black" cx="2965.75" cy="-520" rx="27" ry="18"/>
<text text-anchor="middle" x="2965.75" y="-514.38" font-family="Times,serif" font-size="15.00">seq</text>
</g>
<!-- 6626631184&#45;&#45;6626627280 -->
<g id="edge22" class="edge">
<title>6626631184&#45;&#45;6626627280</title>
<path fill="none" stroke="black" d="M2856.87,-541.86C2880.58,-537.05 2915.78,-529.92 2939.46,-525.12"/>
</g>
<!-- 6626638736 -->
<g id="node29" class="node">
<title>6626638736</title>
<ellipse fill="none" stroke="black" cx="3230.43" cy="-601" rx="134.33" ry="18"/>
<text text-anchor="middle" x="3230.43" y="-595.38" font-family="Times,serif" font-size="15.00">send procedure confirmation</text>
</g>
<!-- 6626627280&#45;&#45;6626638736 -->
<g id="edge19" class="edge">
<title>6626627280&#45;&#45;6626638736</title>
<path fill="none" stroke="black" d="M2990.52,-527.33C3031.88,-540.08 3118.08,-566.66 3174.83,-584.16"/>
</g>
<!-- 6626635344 -->
<g id="node30" class="node">
<title>6626635344</title>
<ellipse fill="none" stroke="black" cx="3230.43" cy="-547" rx="131.18" ry="18"/>
<text text-anchor="middle" x="3230.43" y="-541.38" font-family="Times,serif" font-size="15.00">treat subcases completeness</text>
</g>
<!-- 6626627280&#45;&#45;6626635344 -->
<g id="edge20" class="edge">
<title>6626627280&#45;&#45;6626635344</title>
<path fill="none" stroke="black" d="M2992.89,-522.69C3023.52,-525.84 3076.17,-531.25 3124.03,-536.17"/>
</g>
<!-- 6626626960 -->
<g id="node31" class="node">
<title>6626626960</title>
<ellipse fill="none" stroke="black" cx="3230.43" cy="-493" rx="156.43" ry="18"/>
<text text-anchor="middle" x="3230.43" y="-487.38" font-family="Times,serif" font-size="15.00">subcases completeness completed</text>
</g>
<!-- 6626627280&#45;&#45;6626626960 -->
<g id="edge21" class="edge">
<title>6626627280&#45;&#45;6626626960</title>
<path fill="none" stroke="black" d="M2992.89,-517.31C3020.92,-514.43 3067.4,-509.65 3111.77,-505.09"/>
</g>
<!-- 6626636688 -->
<g id="node33" class="node">
<title>6626636688</title>
<ellipse fill="none" stroke="black" cx="2965.75" cy="-434" rx="27" ry="18"/>
<text text-anchor="middle" x="2965.75" y="-428.38" font-family="Times,serif" font-size="15.00">xor</text>
</g>
<!-- 6626633488&#45;&#45;6626636688 -->
<g id="edge26" class="edge">
<title>6626633488&#45;&#45;6626636688</title>
<path fill="none" stroke="black" d="M2857.82,-434C2881.18,-434 2915.13,-434 2938.47,-434"/>
</g>
<!-- 6626636048 -->
<g id="node36" class="node">
<title>6626636048</title>
<ellipse fill="none" stroke="black" cx="2965.75" cy="-361" rx="27" ry="18"/>
<text text-anchor="middle" x="2965.75" y="-355.38" font-family="Times,serif" font-size="15.00">seq</text>
</g>
<!-- 6626633488&#45;&#45;6626636048 -->
<g id="edge56" class="edge">
<title>6626633488&#45;&#45;6626636048</title>
<path fill="none" stroke="black" d="M2852.02,-422.75C2877.14,-409 2919.39,-385.85 2944.41,-372.14"/>
</g>
<!-- 6626628496 -->
<g id="node34" class="node">
<title>6626628496</title>
<ellipse fill="black" stroke="black" cx="3230.43" cy="-454" rx="2.7" ry="2.7"/>
</g>
<!-- 6626636688&#45;&#45;6626628496 -->
<g id="edge24" class="edge">
<title>6626636688&#45;&#45;6626628496</title>
<path fill="none" stroke="black" d="M2992.89,-435.99C3054.92,-440.71 3207.29,-452.31 3227.26,-453.83"/>
</g>
<!-- 6626623888 -->
<g id="node35" class="node">
<title>6626623888</title>
<ellipse fill="none" stroke="black" cx="3230.43" cy="-415" rx="140.65" ry="18"/>
<text text-anchor="middle" x="3230.43" y="-409.38" font-family="Times,serif" font-size="15.00">create procedure confirmation</text>
</g>
<!-- 6626636688&#45;&#45;6626623888 -->
<g id="edge25" class="edge">
<title>6626636688&#45;&#45;6626623888</title>
<path fill="none" stroke="black" d="M2992.89,-432.11C3019.88,-430.16 3063.98,-426.97 3106.83,-423.87"/>
</g>
<!-- 6626630736 -->
<g id="node37" class="node">
<title>6626630736</title>
<ellipse fill="none" stroke="black" cx="3230.43" cy="-361" rx="27" ry="18"/>
<text text-anchor="middle" x="3230.43" y="-355.38" font-family="Times,serif" font-size="15.00">xor</text>
</g>
<!-- 6626636048&#45;&#45;6626630736 -->
<g id="edge34" class="edge">
<title>6626636048&#45;&#45;6626630736</title>
<path fill="none" stroke="black" d="M2992.89,-361C3043.11,-361 3152.55,-361 3203,-361"/>
</g>
<!-- 6626626192 -->
<g id="node45" class="node">
<title>6626626192</title>
<ellipse fill="none" stroke="black" cx="3230.43" cy="-307" rx="27" ry="18"/>
<text text-anchor="middle" x="3230.43" y="-301.38" font-family="Times,serif" font-size="15.00">and</text>
</g>
<!-- 6626636048&#45;&#45;6626626192 -->
<g id="edge55" class="edge">
<title>6626636048&#45;&#45;6626626192</title>
<path fill="none" stroke="black" d="M2991.93,-355.82C3042.14,-345.5 3154.17,-322.47 3204.32,-312.16"/>
</g>
<!-- 6626633680 -->
<g id="node38" class="node">
<title>6626633680</title>
<ellipse fill="black" stroke="black" cx="3528.78" cy="-400" rx="2.7" ry="2.7"/>
</g>
<!-- 6626630736&#45;&#45;6626633680 -->
<g id="edge27" class="edge">
<title>6626630736&#45;&#45;6626633680</title>
<path fill="none" stroke="black" d="M3257.21,-364.39C3325.37,-373.36 3506.45,-397.19 3526.05,-399.77"/>
</g>
<!-- 6626632976 -->
<g id="node39" class="node">
<title>6626632976</title>
<ellipse fill="none" stroke="black" cx="3528.78" cy="-361" rx="27" ry="18"/>
<text text-anchor="middle" x="3528.78" y="-355.38" font-family="Times,serif" font-size="15.00">seq</text>
</g>
<!-- 6626630736&#45;&#45;6626632976 -->
<g id="edge33" class="edge">
<title>6626630736&#45;&#45;6626632976</title>
<path fill="none" stroke="black" d="M3257.73,-361C3313.97,-361 3445.36,-361 3501.54,-361"/>
</g>
<!-- 6626637264 -->
<g id="node40" class="node">
<title>6626637264</title>
<ellipse fill="none" stroke="black" cx="3757.16" cy="-415" rx="27" ry="18"/>
<text text-anchor="middle" x="3757.16" y="-409.38" font-family="Times,serif" font-size="15.00">xor</text>
</g>
<!-- 6626632976&#45;&#45;6626637264 -->
<g id="edge30" class="edge">
<title>6626632976&#45;&#45;6626637264</title>
<path fill="none" stroke="black" d="M3554.44,-366.88C3597.87,-377.24 3687.54,-398.63 3731.19,-409.04"/>
</g>
<!-- 6626633872 -->
<g id="node43" class="node">
<title>6626633872</title>
<ellipse fill="none" stroke="black" cx="3757.16" cy="-361" rx="86.46" ry="18"/>
<text text-anchor="middle" x="3757.16" y="-355.38" font-family="Times,serif" font-size="15.00">procedure change</text>
</g>
<!-- 6626632976&#45;&#45;6626633872 -->
<g id="edge31" class="edge">
<title>6626632976&#45;&#45;6626633872</title>
<path fill="none" stroke="black" d="M3556.19,-361C3584.13,-361 3629.68,-361 3670.26,-361"/>
</g>
<!-- 6626629392 -->
<g id="node44" class="node">
<title>6626629392</title>
<ellipse fill="none" stroke="black" cx="3757.16" cy="-307" rx="84.35" ry="18"/>
<text text-anchor="middle" x="3757.16" y="-301.38" font-family="Times,serif" font-size="15.00">request complete</text>
</g>
<!-- 6626632976&#45;&#45;6626629392 -->
<g id="edge32" class="edge">
<title>6626632976&#45;&#45;6626629392</title>
<path fill="none" stroke="black" d="M3554.44,-355.12C3589.05,-346.86 3653.01,-331.61 3699.66,-320.48"/>
</g>
<!-- 6626627408 -->
<g id="node41" class="node">
<title>6626627408</title>
<ellipse fill="black" stroke="black" cx="4017.11" cy="-434" rx="2.7" ry="2.7"/>
</g>
<!-- 6626637264&#45;&#45;6626627408 -->
<g id="edge28" class="edge">
<title>6626637264&#45;&#45;6626627408</title>
<path fill="none" stroke="black" d="M3784.32,-416.93C3845.54,-421.44 3994.48,-432.41 4013.99,-433.84"/>
</g>
<!-- 6626629008 -->
<g id="node42" class="node">
<title>6626629008</title>
<ellipse fill="none" stroke="black" cx="4017.11" cy="-395" rx="137.49" ry="18"/>
<text text-anchor="middle" x="4017.11" y="-389.38" font-family="Times,serif" font-size="15.00">create subcases completeness</text>
</g>
<!-- 6626637264&#45;&#45;6626629008 -->
<g id="edge29" class="edge">
<title>6626637264&#45;&#45;6626629008</title>
<path fill="none" stroke="black" d="M3784.32,-412.97C3811.28,-410.88 3855.25,-407.47 3897.69,-404.18"/>
</g>
<!-- 6626629776 -->
<g id="node46" class="node">
<title>6626629776</title>
<ellipse fill="none" stroke="black" cx="3528.78" cy="-307" rx="105.92" ry="18"/>
<text text-anchor="middle" x="3528.78" y="-301.38" font-family="Times,serif" font-size="15.00">start WABOprocedure</text>
</g>
<!-- 6626626192&#45;&#45;6626629776 -->
<g id="edge35" class="edge">
<title>6626626192&#45;&#45;6626629776</title>
<path fill="none" stroke="black" d="M3257.73,-307C3294.56,-307 3363.62,-307 3422.69,-307"/>
</g>
<!-- 6626639696 -->
<g id="node47" class="node">
<title>6626639696</title>
<ellipse fill="none" stroke="black" cx="3528.78" cy="-253" rx="27" ry="18"/>
<text text-anchor="middle" x="3528.78" y="-247.38" font-family="Times,serif" font-size="15.00">seq</text>
</g>
<!-- 6626626192&#45;&#45;6626639696 -->
<g id="edge54" class="edge">
<title>6626626192&#45;&#45;6626639696</title>
<path fill="none" stroke="black" d="M3256.95,-302.35C3312.97,-292.14 3446.15,-267.87 3502.21,-257.66"/>
</g>
<!-- 6622035920 -->
<g id="node48" class="node">
<title>6622035920</title>
<ellipse fill="none" stroke="black" cx="3757.16" cy="-253" rx="27" ry="18"/>
<text text-anchor="middle" x="3757.16" y="-247.38" font-family="Times,serif" font-size="15.00">xor</text>
</g>
<!-- 6626639696&#45;&#45;6622035920 -->
<g id="edge42" class="edge">
<title>6626639696&#45;&#45;6622035920</title>
<path fill="none" stroke="black" d="M3556.19,-253C3599.81,-253 3686.41,-253 3729.92,-253"/>
</g>
<!-- 6622034640 -->
<g id="node55" class="node">
<title>6622034640</title>
<ellipse fill="none" stroke="black" cx="3757.16" cy="-191" rx="27" ry="18"/>
<text text-anchor="middle" x="3757.16" y="-185.38" font-family="Times,serif" font-size="15.00">xor</text>
</g>
<!-- 6626639696&#45;&#45;6622034640 -->
<g id="edge53" class="edge">
<title>6626639696&#45;&#45;6622034640</title>
<path fill="none" stroke="black" d="M3554.01,-246.36C3597.47,-234.46 3688.19,-209.62 3731.77,-197.68"/>
</g>
<!-- 6622029776 -->
<g id="node49" class="node">
<title>6622029776</title>
<ellipse fill="black" stroke="black" cx="4017.11" cy="-292" rx="2.7" ry="2.7"/>
</g>
<!-- 6622035920&#45;&#45;6622029776 -->
<g id="edge36" class="edge">
<title>6622035920&#45;&#45;6622029776</title>
<path fill="none" stroke="black" d="M3783.84,-256.88C3844.75,-266.09 3994.38,-288.71 4013.98,-291.68"/>
</g>
<!-- 6622035728 -->
<g id="node50" class="node">
<title>6622035728</title>
<ellipse fill="none" stroke="black" cx="4017.11" cy="-253" rx="27" ry="18"/>
<text text-anchor="middle" x="4017.11" y="-247.38" font-family="Times,serif" font-size="15.00">seq</text>
</g>
<!-- 6622035920&#45;&#45;6622035728 -->
<g id="edge41" class="edge">
<title>6622035920&#45;&#45;6622035728</title>
<path fill="none" stroke="black" d="M3784.32,-253C3833.75,-253 3940.39,-253 3989.89,-253"/>
</g>
<!-- 6622034704 -->
<g id="node51" class="node">
<title>6622034704</title>
<ellipse fill="none" stroke="black" cx="4319.67" cy="-307" rx="99.08" ry="18"/>
<text text-anchor="middle" x="4319.67" y="-301.38" font-family="Times,serif" font-size="15.00">terminate on request</text>
</g>
<!-- 6622035728&#45;&#45;6622034704 -->
<g id="edge37" class="edge">
<title>6622035728&#45;&#45;6622034704</title>
<path fill="none" stroke="black" d="M4043.74,-257.6C4088.45,-265.64 4182.21,-282.48 4247.75,-294.26"/>
</g>
<!-- 6622029392 -->
<g id="node52" class="node">
<title>6622029392</title>
<ellipse fill="none" stroke="black" cx="4319.67" cy="-253" rx="27" ry="18"/>
<text text-anchor="middle" x="4319.67" y="-247.38" font-family="Times,serif" font-size="15.00">xor</text>
</g>
<!-- 6622035728&#45;&#45;6622029392 -->
<g id="edge40" class="edge">
<title>6622035728&#45;&#45;6622029392</title>
<path fill="none" stroke="black" d="M4044.52,-253C4101.53,-253 4235.57,-253 4292.43,-253"/>
</g>
<!-- 6622021456 -->
<g id="node53" class="node">
<title>6622021456</title>
<ellipse fill="black" stroke="black" cx="4619.6" cy="-288" rx="2.7" ry="2.7"/>
</g>
<!-- 6622029392&#45;&#45;6622021456 -->
<g id="edge38" class="edge">
<title>6622029392&#45;&#45;6622021456</title>
<path fill="none" stroke="black" d="M4346.59,-256.04C4415.11,-264.09 4597.16,-285.48 4616.87,-287.8"/>
</g>
<!-- 6622024976 -->
<g id="node54" class="node">
<title>6622024976</title>
<ellipse fill="none" stroke="black" cx="4619.6" cy="-249" rx="125.39" ry="18"/>
<text text-anchor="middle" x="4619.6" y="-243.38" font-family="Times,serif" font-size="15.00">inform BAG administrator</text>
</g>
<!-- 6622029392&#45;&#45;6622024976 -->
<g id="edge39" class="edge">
<title>6622029392&#45;&#45;6622024976</title>
<path fill="none" stroke="black" d="M4347.11,-252.65C4380.36,-252.2 4439.75,-251.4 4494.52,-250.67"/>
</g>
<!-- 6622029840 -->
<g id="node56" class="node">
<title>6622029840</title>
<ellipse fill="black" stroke="black" cx="4017.11" cy="-191" rx="2.7" ry="2.7"/>
</g>
<!-- 6622034640&#45;&#45;6622029840 -->
<g id="edge43" class="edge">
<title>6622034640&#45;&#45;6622029840</title>
<path fill="none" stroke="black" d="M3784.32,-191C3845.54,-191 3994.48,-191 4013.99,-191"/>
</g>
<!-- 6622023696 -->
<g id="node57" class="node">
<title>6622023696</title>
<ellipse fill="none" stroke="black" cx="4017.11" cy="-145" rx="27" ry="18"/>
<text text-anchor="middle" x="4017.11" y="-139.38" font-family="Times,serif" font-size="15.00">seq</text>
</g>
<!-- 6622034640&#45;&#45;6622023696 -->
<g id="edge52" class="edge">
<title>6622034640&#45;&#45;6622023696</title>
<path fill="none" stroke="black" d="M3783.36,-186.51C3832.68,-177.71 3941.41,-158.32 3990.8,-149.51"/>
</g>
<!-- 6627159120 -->
<g id="node58" class="node">
<title>6627159120</title>
<ellipse fill="none" stroke="black" cx="4319.67" cy="-199" rx="27" ry="18"/>
<text text-anchor="middle" x="4319.67" y="-193.38" font-family="Times,serif" font-size="15.00">xor</text>
</g>
<!-- 6622023696&#45;&#45;6627159120 -->
<g id="edge46" class="edge">
<title>6622023696&#45;&#45;6627159120</title>
<path fill="none" stroke="black" d="M4043.74,-149.6C4100.52,-159.81 4236.39,-184.22 4293.11,-194.41"/>
</g>
<!-- 6627161872 -->
<g id="node61" class="node">
<title>6627161872</title>
<ellipse fill="none" stroke="black" cx="4319.67" cy="-145" rx="129.07" ry="18"/>
<text text-anchor="middle" x="4319.67" y="-139.38" font-family="Times,serif" font-size="15.00">activities regular procedure</text>
</g>
<!-- 6622023696&#45;&#45;6627161872 -->
<g id="edge47" class="edge">
<title>6622023696&#45;&#45;6627161872</title>
<path fill="none" stroke="black" d="M4044.52,-145C4077.39,-145 4135.88,-145 4190.41,-145"/>
</g>
<!-- 6627152080 -->
<g id="node62" class="node">
<title>6627152080</title>
<ellipse fill="none" stroke="black" cx="4319.67" cy="-91" rx="91.19" ry="18"/>
<text text-anchor="middle" x="4319.67" y="-85.38" font-family="Times,serif" font-size="15.00">phased application</text>
</g>
<!-- 6622023696&#45;&#45;6627152080 -->
<g id="edge48" class="edge">
<title>6622023696&#45;&#45;6627152080</title>
<path fill="none" stroke="black" d="M4043.74,-140.4C4089.16,-132.23 4185.2,-114.98 4250.85,-103.19"/>
</g>
<!-- 6627154768 -->
<g id="node63" class="node">
<title>6627154768</title>
<ellipse fill="none" stroke="black" cx="4319.67" cy="-37" rx="27" ry="18"/>
<text text-anchor="middle" x="4319.67" y="-31.38" font-family="Times,serif" font-size="15.00">xor</text>
</g>
<!-- 6622023696&#45;&#45;6627154768 -->
<g id="edge51" class="edge">
<title>6622023696&#45;&#45;6627154768</title>
<path fill="none" stroke="black" d="M4041.2,-136.7C4097.14,-116.6 4239.48,-65.46 4295.51,-45.32"/>
</g>
<!-- 6627152208 -->
<g id="node59" class="node">
<title>6627152208</title>
<ellipse fill="black" stroke="black" cx="4619.6" cy="-203" rx="2.7" ry="2.7"/>
</g>
<!-- 6627159120&#45;&#45;6627152208 -->
<g id="edge44" class="edge">
<title>6627159120&#45;&#45;6627152208</title>
<path fill="none" stroke="black" d="M4347.11,-199.35C4416.04,-200.28 4597.26,-202.71 4616.88,-202.98"/>
</g>
<!-- 6627160464 -->
<g id="node60" class="node">
<title>6627160464</title>
<ellipse fill="none" stroke="black" cx="4619.6" cy="-164" rx="67.52" ry="18"/>
<text text-anchor="middle" x="4619.6" y="-158.38" font-family="Times,serif" font-size="15.00">MER present</text>
</g>
<!-- 6627159120&#45;&#45;6627160464 -->
<g id="edge45" class="edge">
<title>6627159120&#45;&#45;6627160464</title>
<path fill="none" stroke="black" d="M4346.59,-195.96C4393.17,-190.48 4492.2,-178.85 4557.05,-171.23"/>
</g>
<!-- 6627160208 -->
<g id="node64" class="node">
<title>6627160208</title>
<ellipse fill="black" stroke="black" cx="4619.6" cy="-57" rx="2.7" ry="2.7"/>
</g>
<!-- 6627154768&#45;&#45;6627160208 -->
<g id="edge49" class="edge">
<title>6627154768&#45;&#45;6627160208</title>
<path fill="none" stroke="black" d="M4346.85,-38.76C4415.58,-43.37 4597.21,-55.56 4616.87,-56.88"/>
</g>
<!-- 6627161680 -->
<g id="node65" class="node">
<title>6627161680</title>
<ellipse fill="none" stroke="black" cx="4619.6" cy="-18" rx="134.86" ry="18"/>
<text text-anchor="middle" x="4619.6" y="-12.38" font-family="Times,serif" font-size="15.00">read field phased application</text>
</g>
<!-- 6627154768&#45;&#45;6627161680 -->
<g id="edge50" class="edge">
<title>6627154768&#45;&#45;6627161680</title>
<path fill="none" stroke="black" d="M4346.85,-35.33C4380.57,-33.18 4441.48,-29.3 4497.1,-25.75"/>
</g>
<!-- 6627162000 -->
<g id="node67" class="node">
<title>6627162000</title>
<ellipse fill="black" stroke="black" cx="548.99" cy="-550" rx="2.7" ry="2.7"/>
</g>
<!-- 6626636944&#45;&#45;6627162000 -->
<g id="edge65" class="edge">
<title>6626636944&#45;&#45;6627162000</title>
<path fill="none" stroke="black" d="M266.05,-514.29C336.23,-523.18 525.67,-547.17 546.18,-549.77"/>
</g>
<!-- 6627155728 -->
<g id="node68" class="node">
<title>6627155728</title>
<ellipse fill="none" stroke="black" cx="548.99" cy="-511" rx="27" ry="18"/>
<text text-anchor="middle" x="548.99" y="-505.38" font-family="Times,serif" font-size="15.00">seq</text>
</g>
<!-- 6626636944&#45;&#45;6627155728 -->
<g id="edge68" class="edge">
<title>6626636944&#45;&#45;6627155728</title>
<path fill="none" stroke="black" d="M266.32,-511C324.49,-511 463.69,-511 521.81,-511"/>
</g>
<!-- 6627162064 -->
<g id="node71" class="node">
<title>6627162064</title>
<ellipse fill="none" stroke="black" cx="548.99" cy="-457" rx="27" ry="18"/>
<text text-anchor="middle" x="548.99" y="-451.38" font-family="Times,serif" font-size="15.00">seq</text>
</g>
<!-- 6626636944&#45;&#45;6627162064 -->
<g id="edge71" class="edge">
<title>6626636944&#45;&#45;6627162064</title>
<path fill="none" stroke="black" d="M265.53,-506.54C323.45,-496.38 464.55,-471.63 522.5,-461.47"/>
</g>
<!-- 6627153680 -->
<g id="node74" class="node">
<title>6627153680</title>
<ellipse fill="none" stroke="black" cx="548.99" cy="-322" rx="27" ry="18"/>
<text text-anchor="middle" x="548.99" y="-316.38" font-family="Times,serif" font-size="15.00">seq</text>
</g>
<!-- 6626636944&#45;&#45;6627153680 -->
<g id="edge79" class="edge">
<title>6626636944&#45;&#45;6627153680</title>
<path fill="none" stroke="black" d="M259.8,-498.89C315.41,-464.75 473.01,-368.02 528.43,-334.01"/>
</g>
<!-- 6627162128 -->
<g id="node69" class="node">
<title>6627162128</title>
<ellipse fill="none" stroke="black" cx="888.38" cy="-565" rx="105.92" ry="18"/>
<text text-anchor="middle" x="888.38" y="-559.38" font-family="Times,serif" font-size="15.00">send letter in progress</text>
</g>
<!-- 6627155728&#45;&#45;6627162128 -->
<g id="edge66" class="edge">
<title>6627155728&#45;&#45;6627162128</title>
<path fill="none" stroke="black" d="M575.63,-515.1C624.91,-522.99 734.66,-540.56 809.85,-552.59"/>
</g>
<!-- 6627163728 -->
<g id="node70" class="node">
<title>6627163728</title>
<ellipse fill="none" stroke="black" cx="888.38" cy="-511" rx="128.02" ry="18"/>
<text text-anchor="middle" x="888.38" y="-505.38" font-family="Times,serif" font-size="15.00">phase application receptive</text>
</g>
<!-- 6627155728&#45;&#45;6627163728 -->
<g id="edge67" class="edge">
<title>6627155728&#45;&#45;6627163728</title>
<path fill="none" stroke="black" d="M576.47,-511C615.92,-511 692.75,-511 760.16,-511"/>
</g>
<!-- 6627150480 -->
<g id="node72" class="node">
<title>6627150480</title>
<ellipse fill="none" stroke="black" cx="888.38" cy="-457" rx="139.07" ry="18"/>
<text text-anchor="middle" x="888.38" y="-451.38" font-family="Times,serif" font-size="15.00">initiative competent authority</text>
</g>
<!-- 6627162064&#45;&#45;6627150480 -->
<g id="edge69" class="edge">
<title>6627162064&#45;&#45;6627150480</title>
<path fill="none" stroke="black" d="M576.47,-457C613.75,-457 684.4,-457 748.94,-457"/>
</g>
<!-- 6627162832 -->
<g id="node73" class="node">
<title>6627162832</title>
<ellipse fill="none" stroke="black" cx="888.38" cy="-403" rx="178.53" ry="18"/>
<text text-anchor="middle" x="888.38" y="-397.38" font-family="Times,serif" font-size="15.00">enter date termination request received</text>
</g>
<!-- 6627162064&#45;&#45;6627162832 -->
<g id="edge70" class="edge">
<title>6627162064&#45;&#45;6627162832</title>
<path fill="none" stroke="black" d="M575.63,-452.9C620.92,-445.65 717.25,-430.23 790.92,-418.44"/>
</g>
<!-- 6627162448 -->
<g id="node75" class="node">
<title>6627162448</title>
<ellipse fill="none" stroke="black" cx="888.38" cy="-349" rx="148.01" ry="18"/>
<text text-anchor="middle" x="888.38" y="-343.38" font-family="Times,serif" font-size="15.00">phase only notification required</text>
</g>
<!-- 6627153680&#45;&#45;6627162448 -->
<g id="edge72" class="edge">
<title>6627153680&#45;&#45;6627162448</title>
<path fill="none" stroke="black" d="M576.19,-324.1C616.21,-327.3 695.14,-333.62 763.5,-339.09"/>
</g>
<!-- 6627160976 -->
<g id="node76" class="node">
<title>6627160976</title>
<ellipse fill="none" stroke="black" cx="888.38" cy="-295" rx="27" ry="18"/>
<text text-anchor="middle" x="888.38" y="-289.38" font-family="Times,serif" font-size="15.00">and</text>
</g>
<!-- 6627153680&#45;&#45;6627160976 -->
<g id="edge77" class="edge">
<title>6627153680&#45;&#45;6627160976</title>
<path fill="none" stroke="black" d="M576.19,-319.9C639.2,-314.86 798.68,-302.1 861.44,-297.08"/>
</g>
<!-- 6627149712 -->
<g id="node81" class="node">
<title>6627149712</title>
<ellipse fill="none" stroke="black" cx="888.38" cy="-241" rx="54.36" ry="18"/>
<text text-anchor="middle" x="888.38" y="-235.38" font-family="Times,serif" font-size="15.00">close case</text>
</g>
<!-- 6627153680&#45;&#45;6627149712 -->
<g id="edge78" class="edge">
<title>6627153680&#45;&#45;6627149712</title>
<path fill="none" stroke="black" d="M574.8,-316.04C631.64,-302.4 771.9,-268.73 843.62,-251.51"/>
</g>
<!-- 6627158288 -->
<g id="node77" class="node">
<title>6627158288</title>
<ellipse fill="none" stroke="black" cx="1369.3" cy="-376" rx="266.39" ry="18"/>
<text text-anchor="middle" x="1369.3" y="-370.38" font-family="Times,serif" font-size="15.00">enter senddate letter no permit or only notification required</text>
</g>
<!-- 6627160976&#45;&#45;6627158288 -->
<g id="edge73" class="edge">
<title>6627160976&#45;&#45;6627158288</title>
<path fill="none" stroke="black" d="M914.79,-299.3C979.77,-310.29 1154.77,-339.89 1267.41,-358.94"/>
</g>
<!-- 6627157648 -->
<g id="node78" class="node">
<title>6627157648</title>
<ellipse fill="none" stroke="black" cx="1369.3" cy="-322" rx="82.77" ry="18"/>
<text text-anchor="middle" x="1369.3" y="-316.38" font-family="Times,serif" font-size="15.00">register deadline</text>
</g>
<!-- 6627160976&#45;&#45;6627157648 -->
<g id="edge74" class="edge">
<title>6627160976&#45;&#45;6627157648</title>
<path fill="none" stroke="black" d="M915.47,-296.47C985.25,-300.4 1178.36,-311.29 1288.54,-317.5"/>
</g>
<!-- 6627162384 -->
<g id="node79" class="node">
<title>6627162384</title>
<ellipse fill="none" stroke="black" cx="1369.3" cy="-268" rx="115.39" ry="18"/>
<text text-anchor="middle" x="1369.3" y="-262.38" font-family="Times,serif" font-size="15.00">phase procedure aborted</text>
</g>
<!-- 6627160976&#45;&#45;6627162384 -->
<g id="edge75" class="edge">
<title>6627160976&#45;&#45;6627162384</title>
<path fill="none" stroke="black" d="M915.47,-293.53C979.54,-289.92 1147.58,-280.44 1259.95,-274.11"/>
</g>
<!-- 6627151120 -->
<g id="node80" class="node">
<title>6627151120</title>
<ellipse fill="none" stroke="black" cx="1369.3" cy="-214" rx="230.61" ry="18"/>
<text text-anchor="middle" x="1369.3" y="-208.38" font-family="Times,serif" font-size="15.00">create letter no permit or only notification required</text>
</g>
<!-- 6627160976&#45;&#45;6627151120 -->
<g id="edge76" class="edge">
<title>6627160976&#45;&#45;6627151120</title>
<path fill="none" stroke="black" d="M914.79,-290.7C980.25,-279.63 1157.38,-249.67 1269.91,-230.64"/>
</g>
</g>
</svg>
