<?xml version="1.0" encoding="UTF-8" standalone="no"?>
<!DOCTYPE svg PUBLIC "-//W3C//DTD SVG 1.1//EN"
 "http://www.w3.org/Graphics/SVG/1.1/DTD/svg11.dtd">
<!-- Generated by graphviz version 8.0.5 (20230430.1635)
 -->
<!-- Title: pt Pages: 1 -->
<svg width="3619pt" height="878pt"
 viewBox="0.00 0.00 3618.98 877.70" xmlns="http://www.w3.org/2000/svg" xmlns:xlink="http://www.w3.org/1999/xlink">
<g id="graph0" class="graph" transform="scale(1 1) rotate(0) translate(4 873.7)">
<title>pt</title>
<polygon fill="white" stroke="none" points="-4,4 -4,-873.7 3614.98,-873.7 3614.98,4 -4,4"/>
<!-- 6626635792 -->
<g id="node1" class="node">
<title>6626635792</title>
<ellipse fill="none" stroke="black" cx="27" cy="-678" rx="27" ry="18"/>
<text text-anchor="middle" x="27" y="-672.38" font-family="Times,serif" font-size="15.00">seq</text>
</g>
<!-- 6627231440 -->
<g id="node2" class="node">
<title>6627231440</title>
<ellipse fill="none" stroke="black" cx="239.06" cy="-732" rx="149.06" ry="18"/>
<text text-anchor="middle" x="239.06" y="-726.38" font-family="Times,serif" font-size="15.00">register submission date request</text>
</g>
<!-- 6626635792&#45;&#45;6627231440 -->
<g id="edge1" class="edge">
<title>6626635792&#45;&#45;6627231440</title>
<path fill="none" stroke="black" d="M52.51,-684.3C82.05,-691.9 132.85,-704.95 173.83,-715.49"/>
</g>
<!-- 6626476752 -->
<g id="node3" class="node">
<title>6626476752</title>
<ellipse fill="none" stroke="black" cx="239.06" cy="-678" rx="27" ry="18"/>
<text text-anchor="middle" x="239.06" y="-672.38" font-family="Times,serif" font-size="15.00">xor</text>
</g>
<!-- 6626635792&#45;&#45;6626476752 -->
<g id="edge52" class="edge">
<title>6626635792&#45;&#45;6626476752</title>
<path fill="none" stroke="black" d="M54.18,-678C94.54,-678 171.52,-678 211.89,-678"/>
</g>
<!-- 6625449168 -->
<g id="node54" class="node">
<title>6625449168</title>
<ellipse fill="none" stroke="black" cx="239.06" cy="-531" rx="27" ry="18"/>
<text text-anchor="middle" x="239.06" y="-525.38" font-family="Times,serif" font-size="15.00">xor</text>
</g>
<!-- 6626635792&#45;&#45;6625449168 -->
<g id="edge74" class="edge">
<title>6626635792&#45;&#45;6625449168</title>
<path fill="none" stroke="black" d="M46.27,-665.21C86,-637.41 179.86,-571.73 219.68,-543.86"/>
</g>
<!-- 6625452560 -->
<g id="node4" class="node">
<title>6625452560</title>
<ellipse fill="black" stroke="black" cx="556.88" cy="-717" rx="2.7" ry="2.7"/>
</g>
<!-- 6626476752&#45;&#45;6625452560 -->
<g id="edge2" class="edge">
<title>6626476752&#45;&#45;6625452560</title>
<path fill="none" stroke="black" d="M265.91,-681.19C337.21,-690 532.83,-714.15 554.02,-716.77"/>
</g>
<!-- 6627556368 -->
<g id="node5" class="node">
<title>6627556368</title>
<ellipse fill="none" stroke="black" cx="556.88" cy="-678" rx="27" ry="18"/>
<text text-anchor="middle" x="556.88" y="-672.38" font-family="Times,serif" font-size="15.00">and</text>
</g>
<!-- 6626476752&#45;&#45;6627556368 -->
<g id="edge51" class="edge">
<title>6626476752&#45;&#45;6627556368</title>
<path fill="none" stroke="black" d="M266.45,-678C326.04,-678 470.48,-678 529.8,-678"/>
</g>
<!-- 6626614032 -->
<g id="node6" class="node">
<title>6626614032</title>
<ellipse fill="none" stroke="black" cx="904.17" cy="-747" rx="112.76" ry="18"/>
<text text-anchor="middle" x="904.17" y="-741.38" font-family="Times,serif" font-size="15.00">applicant is stakeholder</text>
</g>
<!-- 6627556368&#45;&#45;6626614032 -->
<g id="edge3" class="edge">
<title>6627556368&#45;&#45;6626614032</title>
<path fill="none" stroke="black" d="M583.27,-683.07C635.13,-693.44 754.85,-717.36 832.22,-732.82"/>
</g>
<!-- 6626486544 -->
<g id="node7" class="node">
<title>6626486544</title>
<ellipse fill="none" stroke="black" cx="904.17" cy="-693" rx="124.86" ry="18"/>
<text text-anchor="middle" x="904.17" y="-687.38" font-family="Times,serif" font-size="15.00">phase application received</text>
</g>
<!-- 6627556368&#45;&#45;6626486544 -->
<g id="edge4" class="edge">
<title>6627556368&#45;&#45;6626486544</title>
<path fill="none" stroke="black" d="M584.12,-679.14C626.38,-680.98 712.05,-684.7 783.99,-687.82"/>
</g>
<!-- 6625491088 -->
<g id="node8" class="node">
<title>6625491088</title>
<ellipse fill="none" stroke="black" cx="904.17" cy="-639" rx="27" ry="18"/>
<text text-anchor="middle" x="904.17" y="-633.38" font-family="Times,serif" font-size="15.00">seq</text>
</g>
<!-- 6627556368&#45;&#45;6625491088 -->
<g id="edge50" class="edge">
<title>6627556368&#45;&#45;6625491088</title>
<path fill="none" stroke="black" d="M583.84,-675.07C647.98,-667.82 813.42,-649.14 877.38,-641.91"/>
</g>
<!-- 6625478992 -->
<g id="node9" class="node">
<title>6625478992</title>
<ellipse fill="none" stroke="black" cx="1385.08" cy="-828" rx="27" ry="18"/>
<text text-anchor="middle" x="1385.08" y="-822.38" font-family="Times,serif" font-size="15.00">xor</text>
</g>
<!-- 6625491088&#45;&#45;6625478992 -->
<g id="edge7" class="edge">
<title>6625491088&#45;&#45;6625478992</title>
<path fill="none" stroke="black" d="M927.94,-647.99C1008.62,-679.83 1280.27,-787.03 1361.16,-818.96"/>
</g>
<!-- 6625484624 -->
<g id="node12" class="node">
<title>6625484624</title>
<ellipse fill="none" stroke="black" cx="1385.08" cy="-720" rx="27" ry="18"/>
<text text-anchor="middle" x="1385.08" y="-714.38" font-family="Times,serif" font-size="15.00">xor</text>
</g>
<!-- 6625491088&#45;&#45;6625484624 -->
<g id="edge10" class="edge">
<title>6625491088&#45;&#45;6625484624</title>
<path fill="none" stroke="black" d="M930.58,-643.3C1013.44,-657.31 1275.25,-701.59 1358.44,-715.66"/>
</g>
<!-- 6625487312 -->
<g id="node15" class="node">
<title>6625487312</title>
<ellipse fill="none" stroke="black" cx="1385.08" cy="-666" rx="47" ry="18"/>
<text text-anchor="middle" x="1385.08" y="-660.38" font-family="Times,serif" font-size="15.00">xor loop</text>
</g>
<!-- 6625491088&#45;&#45;6625487312 -->
<g id="edge13" class="edge">
<title>6625491088&#45;&#45;6625487312</title>
<path fill="none" stroke="black" d="M931.25,-640.47C1008.94,-644.85 1239.47,-657.85 1338.28,-663.42"/>
</g>
<!-- 6625477456 -->
<g id="node18" class="node">
<title>6625477456</title>
<ellipse fill="none" stroke="black" cx="1385.08" cy="-612" rx="152.75" ry="18"/>
<text text-anchor="middle" x="1385.08" y="-606.38" font-family="Times,serif" font-size="15.00">enter senddate acknowledgement</text>
</g>
<!-- 6625491088&#45;&#45;6625477456 -->
<g id="edge14" class="edge">
<title>6625491088&#45;&#45;6625477456</title>
<path fill="none" stroke="black" d="M931.25,-637.53C989.91,-634.22 1135.7,-626 1246.13,-619.78"/>
</g>
<!-- 6625490384 -->
<g id="node19" class="node">
<title>6625490384</title>
<ellipse fill="none" stroke="black" cx="1385.08" cy="-558" rx="27" ry="18"/>
<text text-anchor="middle" x="1385.08" y="-552.38" font-family="Times,serif" font-size="15.00">xor</text>
</g>
<!-- 6625491088&#45;&#45;6625490384 -->
<g id="edge17" class="edge">
<title>6625491088&#45;&#45;6625490384</title>
<path fill="none" stroke="black" d="M930.58,-634.7C1013.44,-620.69 1275.25,-576.41 1358.44,-562.34"/>
</g>
<!-- 6625480592 -->
<g id="node22" class="node">
<title>6625480592</title>
<ellipse fill="none" stroke="black" cx="1385.08" cy="-504" rx="27" ry="18"/>
<text text-anchor="middle" x="1385.08" y="-498.38" font-family="Times,serif" font-size="15.00">xor</text>
</g>
<!-- 6625491088&#45;&#45;6625480592 -->
<g id="edge49" class="edge">
<title>6625491088&#45;&#45;6625480592</title>
<path fill="none" stroke="black" d="M929.57,-632.12C1011.73,-608.96 1277.64,-534 1359.72,-510.87"/>
</g>
<!-- 6625484304 -->
<g id="node10" class="node">
<title>6625484304</title>
<ellipse fill="black" stroke="black" cx="1863.89" cy="-867" rx="2.7" ry="2.7"/>
</g>
<!-- 6625478992&#45;&#45;6625484304 -->
<g id="edge5" class="edge">
<title>6625478992&#45;&#45;6625484304</title>
<path fill="none" stroke="black" d="M1412.05,-830.12C1507.28,-837.91 1833.16,-864.57 1860.99,-866.84"/>
</g>
<!-- 6625488976 -->
<g id="node11" class="node">
<title>6625488976</title>
<ellipse fill="none" stroke="black" cx="1863.89" cy="-828" rx="176.42" ry="18"/>
<text text-anchor="middle" x="1863.89" y="-822.38" font-family="Times,serif" font-size="15.00">enter senddate procedure confirmation</text>
</g>
<!-- 6625478992&#45;&#45;6625488976 -->
<g id="edge6" class="edge">
<title>6625478992&#45;&#45;6625488976</title>
<path fill="none" stroke="black" d="M1412.39,-828C1464.37,-828 1584.12,-828 1687.09,-828"/>
</g>
<!-- 6625478096 -->
<g id="node13" class="node">
<title>6625478096</title>
<ellipse fill="none" stroke="black" cx="1863.89" cy="-774" rx="110.66" ry="18"/>
<text text-anchor="middle" x="1863.89" y="-768.38" font-family="Times,serif" font-size="15.00">reception through OLO</text>
</g>
<!-- 6625484624&#45;&#45;6625478096 -->
<g id="edge8" class="edge">
<title>6625484624&#45;&#45;6625478096</title>
<path fill="none" stroke="black" d="M1412.05,-722.94C1479.1,-730.53 1660.49,-751.08 1771.69,-763.67"/>
</g>
<!-- 6625489616 -->
<g id="node14" class="node">
<title>6625489616</title>
<ellipse fill="none" stroke="black" cx="1863.89" cy="-720" rx="108.55" ry="18"/>
<text text-anchor="middle" x="1863.89" y="-714.38" font-family="Times,serif" font-size="15.00">OLO messaging active</text>
</g>
<!-- 6625484624&#45;&#45;6625489616 -->
<g id="edge9" class="edge">
<title>6625484624&#45;&#45;6625489616</title>
<path fill="none" stroke="black" d="M1412.39,-720C1476.43,-720 1643.3,-720 1754.97,-720"/>
</g>
<!-- 6625492560 -->
<g id="node16" class="node">
<title>6625492560</title>
<ellipse fill="none" stroke="black" cx="1863.89" cy="-666" rx="121.18" ry="18"/>
<text text-anchor="middle" x="1863.89" y="-660.38" font-family="Times,serif" font-size="15.00">send confirmation receipt</text>
</g>
<!-- 6625487312&#45;&#45;6625492560 -->
<g id="edge11" class="edge">
<title>6625487312&#45;&#45;6625492560</title>
<path fill="none" stroke="black" d="M1432.23,-666C1503.28,-666 1641.78,-666 1742.59,-666"/>
</g>
<!-- 6625488016 -->
<g id="node17" class="node">
<title>6625488016</title>
<ellipse fill="black" stroke="black" cx="1863.89" cy="-627" rx="2.7" ry="2.7"/>
</g>
<!-- 6625487312&#45;&#45;6625488016 -->
<g id="edge12" class="edge">
<title>6625487312&#45;&#45;6625488016</title>
<path fill="none" stroke="black" d="M1431.37,-662.3C1544.81,-653.02 1834.02,-629.36 1860.88,-627.16"/>
</g>
<!-- 6625486288 -->
<g id="node20" class="node">
<title>6625486288</title>
<ellipse fill="black" stroke="black" cx="1863.89" cy="-597" rx="2.7" ry="2.7"/>
</g>
<!-- 6625490384&#45;&#45;6625486288 -->
<g id="edge15" class="edge">
<title>6625490384&#45;&#45;6625486288</title>
<path fill="none" stroke="black" d="M1412.05,-560.12C1507.28,-567.91 1833.16,-594.57 1860.99,-596.84"/>
</g>
<!-- 6625488144 -->
<g id="node21" class="node">
<title>6625488144</title>
<ellipse fill="none" stroke="black" cx="1863.89" cy="-558" rx="135.39" ry="18"/>
<text text-anchor="middle" x="1863.89" y="-552.38" font-family="Times,serif" font-size="15.00">calculate provisional charges</text>
</g>
<!-- 6625490384&#45;&#45;6625488144 -->
<g id="edge16" class="edge">
<title>6625490384&#45;&#45;6625488144</title>
<path fill="none" stroke="black" d="M1412.39,-558C1471.5,-558 1618.22,-558 1728.27,-558"/>
</g>
<!-- 6625489040 -->
<g id="node23" class="node">
<title>6625489040</title>
<ellipse fill="none" stroke="black" cx="1863.89" cy="-504" rx="47" ry="18"/>
<text text-anchor="middle" x="1863.89" y="-498.38" font-family="Times,serif" font-size="15.00">xor loop</text>
</g>
<!-- 6625480592&#45;&#45;6625489040 -->
<g id="edge20" class="edge">
<title>6625480592&#45;&#45;6625489040</title>
<path fill="none" stroke="black" d="M1412.39,-504C1489.9,-504 1718.06,-504 1816.65,-504"/>
</g>
<!-- 6625481360 -->
<g id="node26" class="node">
<title>6625481360</title>
<ellipse fill="none" stroke="black" cx="1863.89" cy="-404" rx="27" ry="18"/>
<text text-anchor="middle" x="1863.89" y="-398.38" font-family="Times,serif" font-size="15.00">seq</text>
</g>
<!-- 6625480592&#45;&#45;6625481360 -->
<g id="edge48" class="edge">
<title>6625480592&#45;&#45;6625481360</title>
<path fill="none" stroke="black" d="M1411.38,-498.69C1493.97,-481.37 1755.14,-426.6 1837.65,-409.29"/>
</g>
<!-- 6625485392 -->
<g id="node24" class="node">
<title>6625485392</title>
<ellipse fill="none" stroke="black" cx="2280.09" cy="-543" rx="203.78" ry="18"/>
<text text-anchor="middle" x="2280.09" y="-537.38" font-family="Times,serif" font-size="15.00">no permit needed or only notification needed</text>
</g>
<!-- 6625489040&#45;&#45;6625485392 -->
<g id="edge18" class="edge">
<title>6625489040&#45;&#45;6625485392</title>
<path fill="none" stroke="black" d="M1910,-508.25C1964.41,-513.37 2058.48,-522.23 2138.03,-529.72"/>
</g>
<!-- 6625480400 -->
<g id="node25" class="node">
<title>6625480400</title>
<ellipse fill="black" stroke="black" cx="2280.09" cy="-504" rx="2.7" ry="2.7"/>
</g>
<!-- 6625489040&#45;&#45;6625480400 -->
<g id="edge19" class="edge">
<title>6625489040&#45;&#45;6625480400</title>
<path fill="none" stroke="black" d="M1911.2,-504C2013.79,-504 2253.1,-504 2277.13,-504"/>
</g>
<!-- 6625479696 -->
<g id="node27" class="node">
<title>6625479696</title>
<ellipse fill="none" stroke="black" cx="2280.09" cy="-465" rx="27" ry="18"/>
<text text-anchor="middle" x="2280.09" y="-459.38" font-family="Times,serif" font-size="15.00">xor</text>
</g>
<!-- 6625481360&#45;&#45;6625479696 -->
<g id="edge35" class="edge">
<title>6625481360&#45;&#45;6625479696</title>
<path fill="none" stroke="black" d="M1890.49,-407.77C1964.65,-418.69 2179.11,-450.28 2253.4,-461.22"/>
</g>
<!-- 6625487120 -->
<g id="node42" class="node">
<title>6625487120</title>
<ellipse fill="none" stroke="black" cx="2280.09" cy="-380" rx="27" ry="18"/>
<text text-anchor="middle" x="2280.09" y="-374.38" font-family="Times,serif" font-size="15.00">and</text>
</g>
<!-- 6625481360&#45;&#45;6625487120 -->
<g id="edge42" class="edge">
<title>6625481360&#45;&#45;6625487120</title>
<path fill="none" stroke="black" d="M1891.11,-402.48C1965.62,-398.16 2178.01,-385.86 2252.71,-381.53"/>
</g>
<!-- 6625791184 -->
<g id="node49" class="node">
<title>6625791184</title>
<ellipse fill="none" stroke="black" cx="2280.09" cy="-230" rx="27" ry="18"/>
<text text-anchor="middle" x="2280.09" y="-224.38" font-family="Times,serif" font-size="15.00">and</text>
</g>
<!-- 6625481360&#45;&#45;6625791184 -->
<g id="edge47" class="edge">
<title>6625481360&#45;&#45;6625791184</title>
<path fill="none" stroke="black" d="M1887.45,-394.52C1959.62,-364.2 2184.31,-269.82 2256.51,-239.49"/>
</g>
<!-- 6625484240 -->
<g id="node28" class="node">
<title>6625484240</title>
<ellipse fill="black" stroke="black" cx="2680.51" cy="-585" rx="2.7" ry="2.7"/>
</g>
<!-- 6625479696&#45;&#45;6625484240 -->
<g id="edge21" class="edge">
<title>6625479696&#45;&#45;6625484240</title>
<path fill="none" stroke="black" d="M2305.12,-472.24C2387.22,-496.96 2652.93,-576.99 2677.66,-584.44"/>
</g>
<!-- 6625486096 -->
<g id="node29" class="node">
<title>6625486096</title>
<ellipse fill="none" stroke="black" cx="2680.51" cy="-546" rx="27" ry="18"/>
<text text-anchor="middle" x="2680.51" y="-540.38" font-family="Times,serif" font-size="15.00">seq</text>
</g>
<!-- 6625479696&#45;&#45;6625486096 -->
<g id="edge24" class="edge">
<title>6625479696&#45;&#45;6625486096</title>
<path fill="none" stroke="black" d="M2306.32,-470.13C2377.99,-484.7 2582.29,-526.23 2654.14,-540.84"/>
</g>
<!-- 6625480016 -->
<g id="node32" class="node">
<title>6625480016</title>
<ellipse fill="none" stroke="black" cx="2680.51" cy="-465" rx="27" ry="18"/>
<text text-anchor="middle" x="2680.51" y="-459.38" font-family="Times,serif" font-size="15.00">seq</text>
</g>
<!-- 6625479696&#45;&#45;6625480016 -->
<g id="edge34" class="edge">
<title>6625479696&#45;&#45;6625480016</title>
<path fill="none" stroke="black" d="M2307.54,-465C2379.93,-465 2580.69,-465 2653.07,-465"/>
</g>
<!-- 6625486544 -->
<g id="node30" class="node">
<title>6625486544</title>
<ellipse fill="none" stroke="black" cx="3024.63" cy="-627" rx="99.08" ry="18"/>
<text text-anchor="middle" x="3024.63" y="-621.38" font-family="Times,serif" font-size="15.00">terminate on request</text>
</g>
<!-- 6625486096&#45;&#45;6625486544 -->
<g id="edge22" class="edge">
<title>6625486096&#45;&#45;6625486544</title>
<path fill="none" stroke="black" d="M2706.39,-551.89C2759.75,-564.52 2886.5,-594.53 2962.65,-612.56"/>
</g>
<!-- 6625491728 -->
<g id="node31" class="node">
<title>6625491728</title>
<ellipse fill="none" stroke="black" cx="3024.63" cy="-573" rx="125.39" ry="18"/>
<text text-anchor="middle" x="3024.63" y="-567.38" font-family="Times,serif" font-size="15.00">inform BAG administrator</text>
</g>
<!-- 6625486096&#45;&#45;6625491728 -->
<g id="edge23" class="edge">
<title>6625486096&#45;&#45;6625491728</title>
<path fill="none" stroke="black" d="M2707.79,-548.07C2751.36,-551.51 2840.99,-558.59 2913.67,-564.32"/>
</g>
<!-- 6625492688 -->
<g id="node33" class="node">
<title>6625492688</title>
<ellipse fill="none" stroke="black" cx="3024.63" cy="-519" rx="27" ry="18"/>
<text text-anchor="middle" x="3024.63" y="-513.38" font-family="Times,serif" font-size="15.00">xor</text>
</g>
<!-- 6625480016&#45;&#45;6625492688 -->
<g id="edge31" class="edge">
<title>6625480016&#45;&#45;6625492688</title>
<path fill="none" stroke="black" d="M2707.22,-469.06C2770.78,-479.09 2934.71,-504.96 2998.09,-514.97"/>
</g>
<!-- 6625482896 -->
<g id="node40" class="node">
<title>6625482896</title>
<ellipse fill="none" stroke="black" cx="3024.63" cy="-465" rx="86.46" ry="18"/>
<text text-anchor="middle" x="3024.63" y="-459.38" font-family="Times,serif" font-size="15.00">procedure change</text>
</g>
<!-- 6625480016&#45;&#45;6625482896 -->
<g id="edge32" class="edge">
<title>6625480016&#45;&#45;6625482896</title>
<path fill="none" stroke="black" d="M2707.79,-465C2756.37,-465 2862.19,-465 2937.95,-465"/>
</g>
<!-- 6625794896 -->
<g id="node41" class="node">
<title>6625794896</title>
<ellipse fill="none" stroke="black" cx="3024.63" cy="-411" rx="84.35" ry="18"/>
<text text-anchor="middle" x="3024.63" y="-405.38" font-family="Times,serif" font-size="15.00">request complete</text>
</g>
<!-- 6625480016&#45;&#45;6625794896 -->
<g id="edge33" class="edge">
<title>6625480016&#45;&#45;6625794896</title>
<path fill="none" stroke="black" d="M2707.22,-460.94C2759.44,-452.7 2879.39,-433.77 2955.68,-421.73"/>
</g>
<!-- 6625478160 -->
<g id="node34" class="node">
<title>6625478160</title>
<ellipse fill="none" stroke="black" cx="3235.12" cy="-546" rx="27" ry="18"/>
<text text-anchor="middle" x="3235.12" y="-540.38" font-family="Times,serif" font-size="15.00">seq</text>
</g>
<!-- 6625492688&#45;&#45;6625478160 -->
<g id="edge27" class="edge">
<title>6625492688&#45;&#45;6625478160</title>
<path fill="none" stroke="black" d="M3051.62,-522.36C3091.68,-527.55 3168.08,-537.45 3208.14,-542.64"/>
</g>
<!-- 6625480656 -->
<g id="node37" class="node">
<title>6625480656</title>
<ellipse fill="none" stroke="black" cx="3235.12" cy="-492" rx="27" ry="18"/>
<text text-anchor="middle" x="3235.12" y="-486.38" font-family="Times,serif" font-size="15.00">seq</text>
</g>
<!-- 6625492688&#45;&#45;6625480656 -->
<g id="edge30" class="edge">
<title>6625492688&#45;&#45;6625480656</title>
<path fill="none" stroke="black" d="M3051.62,-515.64C3091.68,-510.45 3168.08,-500.55 3208.14,-495.36"/>
</g>
<!-- 6625484880 -->
<g id="node35" class="node">
<title>6625484880</title>
<ellipse fill="none" stroke="black" cx="3454.55" cy="-600" rx="131.18" ry="18"/>
<text text-anchor="middle" x="3454.55" y="-594.38" font-family="Times,serif" font-size="15.00">treat subcases completeness</text>
</g>
<!-- 6625478160&#45;&#45;6625484880 -->
<g id="edge25" class="edge">
<title>6625478160&#45;&#45;6625484880</title>
<path fill="none" stroke="black" d="M3260.64,-552.09C3291.63,-559.79 3346.13,-573.32 3389.31,-584.05"/>
</g>
<!-- 6625488208 -->
<g id="node36" class="node">
<title>6625488208</title>
<ellipse fill="none" stroke="black" cx="3454.55" cy="-546" rx="156.43" ry="18"/>
<text text-anchor="middle" x="3454.55" y="-540.38" font-family="Times,serif" font-size="15.00">subcases completeness completed</text>
</g>
<!-- 6625478160&#45;&#45;6625488208 -->
<g id="edge26" class="edge">
<title>6625478160&#45;&#45;6625488208</title>
<path fill="none" stroke="black" d="M3262.35,-546C3272.29,-546 3284.46,-546 3297.8,-546"/>
</g>
<!-- 6625477392 -->
<g id="node38" class="node">
<title>6625477392</title>
<ellipse fill="none" stroke="black" cx="3454.55" cy="-492" rx="140.65" ry="18"/>
<text text-anchor="middle" x="3454.55" y="-486.38" font-family="Times,serif" font-size="15.00">create procedure confirmation</text>
</g>
<!-- 6625480656&#45;&#45;6625477392 -->
<g id="edge28" class="edge">
<title>6625480656&#45;&#45;6625477392</title>
<path fill="none" stroke="black" d="M3262.35,-492C3276.13,-492 3294.2,-492 3313.73,-492"/>
</g>
<!-- 6625482832 -->
<g id="node39" class="node">
<title>6625482832</title>
<ellipse fill="none" stroke="black" cx="3454.55" cy="-438" rx="137.49" ry="18"/>
<text text-anchor="middle" x="3454.55" y="-432.38" font-family="Times,serif" font-size="15.00">create subcases completeness</text>
</g>
<!-- 6625480656&#45;&#45;6625482832 -->
<g id="edge29" class="edge">
<title>6625480656&#45;&#45;6625482832</title>
<path fill="none" stroke="black" d="M3260.64,-485.91C3291.4,-478.27 3345.34,-464.87 3388.38,-454.19"/>
</g>
<!-- 6625800144 -->
<g id="node43" class="node">
<title>6625800144</title>
<ellipse fill="none" stroke="black" cx="2680.51" cy="-380" rx="160.64" ry="18"/>
<text text-anchor="middle" x="2680.51" y="-374.38" font-family="Times,serif" font-size="15.00">forward to the competent authority</text>
</g>
<!-- 6625487120&#45;&#45;6625800144 -->
<g id="edge36" class="edge">
<title>6625487120&#45;&#45;6625800144</title>
<path fill="none" stroke="black" d="M2307.54,-380C2350.73,-380 2439.62,-380 2519.67,-380"/>
</g>
<!-- 6625791248 -->
<g id="node44" class="node">
<title>6625791248</title>
<ellipse fill="none" stroke="black" cx="2680.51" cy="-303" rx="27" ry="18"/>
<text text-anchor="middle" x="2680.51" y="-297.38" font-family="Times,serif" font-size="15.00">seq</text>
</g>
<!-- 6625487120&#45;&#45;6625791248 -->
<g id="edge41" class="edge">
<title>6625487120&#45;&#45;6625791248</title>
<path fill="none" stroke="black" d="M2306.32,-375.12C2377.99,-361.27 2582.29,-321.79 2654.14,-307.9"/>
</g>
<!-- 6625803088 -->
<g id="node45" class="node">
<title>6625803088</title>
<ellipse fill="none" stroke="black" cx="3024.63" cy="-357" rx="147.49" ry="18"/>
<text text-anchor="middle" x="3024.63" y="-351.38" font-family="Times,serif" font-size="15.00">regular procedure without MER</text>
</g>
<!-- 6625791248&#45;&#45;6625803088 -->
<g id="edge37" class="edge">
<title>6625791248&#45;&#45;6625803088</title>
<path fill="none" stroke="black" d="M2707.22,-307.06C2754.39,-314.5 2856.82,-330.67 2932.42,-342.6"/>
</g>
<!-- 6625802960 -->
<g id="node46" class="node">
<title>6625802960</title>
<ellipse fill="none" stroke="black" cx="3024.63" cy="-303" rx="67.52" ry="18"/>
<text text-anchor="middle" x="3024.63" y="-297.38" font-family="Times,serif" font-size="15.00">MER present</text>
</g>
<!-- 6625791248&#45;&#45;6625802960 -->
<g id="edge38" class="edge">
<title>6625791248&#45;&#45;6625802960</title>
<path fill="none" stroke="black" d="M2707.79,-303C2760.52,-303 2880.67,-303 2956.64,-303"/>
</g>
<!-- 6625789648 -->
<g id="node47" class="node">
<title>6625789648</title>
<ellipse fill="none" stroke="black" cx="3024.63" cy="-249" rx="129.07" ry="18"/>
<text text-anchor="middle" x="3024.63" y="-243.38" font-family="Times,serif" font-size="15.00">activities regular procedure</text>
</g>
<!-- 6625791248&#45;&#45;6625789648 -->
<g id="edge39" class="edge">
<title>6625791248&#45;&#45;6625789648</title>
<path fill="none" stroke="black" d="M2707.22,-298.94C2755.4,-291.34 2861.23,-274.63 2937.24,-262.64"/>
</g>
<!-- 6625795408 -->
<g id="node48" class="node">
<title>6625795408</title>
<ellipse fill="none" stroke="black" cx="3024.63" cy="-195" rx="91.19" ry="18"/>
<text text-anchor="middle" x="3024.63" y="-189.38" font-family="Times,serif" font-size="15.00">phased application</text>
</g>
<!-- 6625791248&#45;&#45;6625795408 -->
<g id="edge40" class="edge">
<title>6625791248&#45;&#45;6625795408</title>
<path fill="none" stroke="black" d="M2705.57,-295.41C2761.31,-277.81 2900.23,-233.96 2974.68,-210.45"/>
</g>
<!-- 6625792784 -->
<g id="node50" class="node">
<title>6625792784</title>
<ellipse fill="none" stroke="black" cx="2680.51" cy="-230" rx="105.92" ry="18"/>
<text text-anchor="middle" x="2680.51" y="-224.38" font-family="Times,serif" font-size="15.00">start WABOprocedure</text>
</g>
<!-- 6625791184&#45;&#45;6625792784 -->
<g id="edge43" class="edge">
<title>6625791184&#45;&#45;6625792784</title>
<path fill="none" stroke="black" d="M2307.54,-230C2360.98,-230 2484.4,-230 2574.47,-230"/>
</g>
<!-- 6625799376 -->
<g id="node51" class="node">
<title>6625799376</title>
<ellipse fill="none" stroke="black" cx="2680.51" cy="-156" rx="27" ry="18"/>
<text text-anchor="middle" x="2680.51" y="-150.38" font-family="Times,serif" font-size="15.00">xor</text>
</g>
<!-- 6625791184&#45;&#45;6625799376 -->
<g id="edge46" class="edge">
<title>6625791184&#45;&#45;6625799376</title>
<path fill="none" stroke="black" d="M2306.62,-225.26C2378.5,-211.91 2582,-174.11 2653.94,-160.75"/>
</g>
<!-- 6625795216 -->
<g id="node52" class="node">
<title>6625795216</title>
<ellipse fill="black" stroke="black" cx="3024.63" cy="-156" rx="2.7" ry="2.7"/>
</g>
<!-- 6625799376&#45;&#45;6625795216 -->
<g id="edge44" class="edge">
<title>6625799376&#45;&#45;6625795216</title>
<path fill="none" stroke="black" d="M2707.79,-156C2783.52,-156 2998.32,-156 3021.58,-156"/>
</g>
<!-- 6625789328 -->
<g id="node53" class="node">
<title>6625789328</title>
<ellipse fill="none" stroke="black" cx="3024.63" cy="-117" rx="134.86" ry="18"/>
<text text-anchor="middle" x="3024.63" y="-111.38" font-family="Times,serif" font-size="15.00">read field phased application</text>
</g>
<!-- 6625799376&#45;&#45;6625789328 -->
<g id="edge45" class="edge">
<title>6625799376&#45;&#45;6625789328</title>
<path fill="none" stroke="black" d="M2707.51,-153.04C2752.34,-147.93 2846.5,-137.19 2920.46,-128.76"/>
</g>
<!-- 6625790544 -->
<g id="node55" class="node">
<title>6625790544</title>
<ellipse fill="black" stroke="black" cx="556.88" cy="-624" rx="2.7" ry="2.7"/>
</g>
<!-- 6625449168&#45;&#45;6625790544 -->
<g id="edge53" class="edge">
<title>6625449168&#45;&#45;6625790544</title>
<path fill="none" stroke="black" d="M264.32,-538.14C334.23,-558.73 532.51,-617.12 553.99,-623.44"/>
</g>
<!-- 6625789264 -->
<g id="node56" class="node">
<title>6625789264</title>
<ellipse fill="none" stroke="black" cx="556.88" cy="-585" rx="132.76" ry="18"/>
<text text-anchor="middle" x="556.88" y="-579.38" font-family="Times,serif" font-size="15.00">create publication document</text>
</g>
<!-- 6625449168&#45;&#45;6625789264 -->
<g id="edge54" class="edge">
<title>6625449168&#45;&#45;6625789264</title>
<path fill="none" stroke="black" d="M265.64,-535.37C310.14,-542.98 403.62,-558.96 472.52,-570.75"/>
</g>
<!-- 6627220816 -->
<g id="node57" class="node">
<title>6627220816</title>
<ellipse fill="none" stroke="black" cx="556.88" cy="-531" rx="27" ry="18"/>
<text text-anchor="middle" x="556.88" y="-525.38" font-family="Times,serif" font-size="15.00">seq</text>
</g>
<!-- 6625449168&#45;&#45;6627220816 -->
<g id="edge57" class="edge">
<title>6625449168&#45;&#45;6627220816</title>
<path fill="none" stroke="black" d="M266.45,-531C326.04,-531 470.48,-531 529.8,-531"/>
</g>
<!-- 6627216464 -->
<g id="node60" class="node">
<title>6627216464</title>
<ellipse fill="none" stroke="black" cx="556.88" cy="-477" rx="27" ry="18"/>
<text text-anchor="middle" x="556.88" y="-471.38" font-family="Times,serif" font-size="15.00">seq</text>
</g>
<!-- 6625449168&#45;&#45;6627216464 -->
<g id="edge60" class="edge">
<title>6625449168&#45;&#45;6627216464</title>
<path fill="none" stroke="black" d="M265.64,-526.63C324.97,-516.48 471.38,-491.45 530.51,-481.34"/>
</g>
<!-- 6627219216 -->
<g id="node63" class="node">
<title>6627219216</title>
<ellipse fill="none" stroke="black" cx="556.88" cy="-315" rx="27" ry="18"/>
<text text-anchor="middle" x="556.88" y="-309.38" font-family="Times,serif" font-size="15.00">seq</text>
</g>
<!-- 6625449168&#45;&#45;6627219216 -->
<g id="edge65" class="edge">
<title>6625449168&#45;&#45;6627219216</title>
<path fill="none" stroke="black" d="M258.41,-518.45C314.23,-480.28 481.6,-365.8 537.49,-327.58"/>
</g>
<!-- 6627229136 -->
<g id="node68" class="node">
<title>6627229136</title>
<ellipse fill="none" stroke="black" cx="556.88" cy="-126" rx="27" ry="18"/>
<text text-anchor="middle" x="556.88" y="-120.38" font-family="Times,serif" font-size="15.00">seq</text>
</g>
<!-- 6625449168&#45;&#45;6627229136 -->
<g id="edge73" class="edge">
<title>6625449168&#45;&#45;6627229136</title>
<path fill="none" stroke="black" d="M252.44,-515.12C302.97,-450.34 493.23,-206.35 543.59,-141.77"/>
</g>
<!-- 6627213520 -->
<g id="node58" class="node">
<title>6627213520</title>
<ellipse fill="none" stroke="black" cx="904.17" cy="-585" rx="105.92" ry="18"/>
<text text-anchor="middle" x="904.17" y="-579.38" font-family="Times,serif" font-size="15.00">send letter in progress</text>
</g>
<!-- 6627220816&#45;&#45;6627213520 -->
<g id="edge55" class="edge">
<title>6627220816&#45;&#45;6627213520</title>
<path fill="none" stroke="black" d="M583.55,-535.01C633.96,-542.9 747.67,-560.68 824.94,-572.77"/>
</g>
<!-- 6627218576 -->
<g id="node59" class="node">
<title>6627218576</title>
<ellipse fill="none" stroke="black" cx="904.17" cy="-531" rx="128.02" ry="18"/>
<text text-anchor="middle" x="904.17" y="-525.38" font-family="Times,serif" font-size="15.00">phase application receptive</text>
</g>
<!-- 6627220816&#45;&#45;6627218576 -->
<g id="edge56" class="edge">
<title>6627220816&#45;&#45;6627218576</title>
<path fill="none" stroke="black" d="M584.12,-531C624.8,-531 705.73,-531 775.9,-531"/>
</g>
<!-- 6627218768 -->
<g id="node61" class="node">
<title>6627218768</title>
<ellipse fill="none" stroke="black" cx="904.17" cy="-477" rx="139.07" ry="18"/>
<text text-anchor="middle" x="904.17" y="-471.38" font-family="Times,serif" font-size="15.00">initiative competent authority</text>
</g>
<!-- 6627216464&#45;&#45;6627218768 -->
<g id="edge58" class="edge">
<title>6627216464&#45;&#45;6627218768</title>
<path fill="none" stroke="black" d="M584.12,-477C622.68,-477 697.39,-477 764.82,-477"/>
</g>
<!-- 6627219664 -->
<g id="node62" class="node">
<title>6627219664</title>
<ellipse fill="none" stroke="black" cx="904.17" cy="-423" rx="178.53" ry="18"/>
<text text-anchor="middle" x="904.17" y="-417.38" font-family="Times,serif" font-size="15.00">enter date termination request received</text>
</g>
<!-- 6627216464&#45;&#45;6627219664 -->
<g id="edge59" class="edge">
<title>6627216464&#45;&#45;6627219664</title>
<path fill="none" stroke="black" d="M583.55,-472.99C629.74,-465.76 729.07,-450.23 804.83,-438.38"/>
</g>
<!-- 6627215504 -->
<g id="node64" class="node">
<title>6627215504</title>
<ellipse fill="none" stroke="black" cx="904.17" cy="-369" rx="140.65" ry="18"/>
<text text-anchor="middle" x="904.17" y="-363.38" font-family="Times,serif" font-size="15.00">decision date prior to decision</text>
</g>
<!-- 6627219216&#45;&#45;6627215504 -->
<g id="edge61" class="edge">
<title>6627219216&#45;&#45;6627215504</title>
<path fill="none" stroke="black" d="M583.55,-319.01C631.46,-326.51 736.54,-342.94 813.18,-354.93"/>
</g>
<!-- 6627220496 -->
<g id="node65" class="node">
<title>6627220496</title>
<ellipse fill="none" stroke="black" cx="904.17" cy="-315" rx="177.47" ry="18"/>
<text text-anchor="middle" x="904.17" y="-309.38" font-family="Times,serif" font-size="15.00">generating decision no permit required</text>
</g>
<!-- 6627219216&#45;&#45;6627220496 -->
<g id="edge62" class="edge">
<title>6627219216&#45;&#45;6627220496</title>
<path fill="none" stroke="black" d="M584.12,-315C615.44,-315 670.61,-315 726.36,-315"/>
</g>
<!-- 6627225872 -->
<g id="node66" class="node">
<title>6627225872</title>
<ellipse fill="none" stroke="black" cx="904.17" cy="-261" rx="89.09" ry="18"/>
<text text-anchor="middle" x="904.17" y="-255.38" font-family="Times,serif" font-size="15.00">set decision status</text>
</g>
<!-- 6627219216&#45;&#45;6627225872 -->
<g id="edge63" class="edge">
<title>6627219216&#45;&#45;6627225872</title>
<path fill="none" stroke="black" d="M583.55,-310.99C635.68,-302.83 755.5,-284.09 832.72,-272.02"/>
</g>
<!-- 6627224336 -->
<g id="node67" class="node">
<title>6627224336</title>
<ellipse fill="none" stroke="black" cx="904.17" cy="-207" rx="158.01" ry="18"/>
<text text-anchor="middle" x="904.17" y="-201.38" font-family="Times,serif" font-size="15.00">create decision no permit required</text>
</g>
<!-- 6627219216&#45;&#45;6627224336 -->
<g id="edge64" class="edge">
<title>6627219216&#45;&#45;6627224336</title>
<path fill="none" stroke="black" d="M581.89,-307.49C636.56,-290.39 771.52,-248.18 847.99,-224.26"/>
</g>
<!-- 6627217360 -->
<g id="node69" class="node">
<title>6627217360</title>
<ellipse fill="none" stroke="black" cx="904.17" cy="-153" rx="148.01" ry="18"/>
<text text-anchor="middle" x="904.17" y="-147.38" font-family="Times,serif" font-size="15.00">phase only notification required</text>
</g>
<!-- 6627229136&#45;&#45;6627217360 -->
<g id="edge66" class="edge">
<title>6627229136&#45;&#45;6627217360</title>
<path fill="none" stroke="black" d="M584.12,-128.05C625.27,-131.27 707.61,-137.71 778.34,-143.24"/>
</g>
<!-- 6627225488 -->
<g id="node70" class="node">
<title>6627225488</title>
<ellipse fill="none" stroke="black" cx="904.17" cy="-99" rx="27" ry="18"/>
<text text-anchor="middle" x="904.17" y="-93.38" font-family="Times,serif" font-size="15.00">and</text>
</g>
<!-- 6627229136&#45;&#45;6627225488 -->
<g id="edge71" class="edge">
<title>6627229136&#45;&#45;6627225488</title>
<path fill="none" stroke="black" d="M584.12,-123.95C648.33,-118.93 812.8,-106.07 876.97,-101.05"/>
</g>
<!-- 6627228048 -->
<g id="node75" class="node">
<title>6627228048</title>
<ellipse fill="none" stroke="black" cx="904.17" cy="-45" rx="54.36" ry="18"/>
<text text-anchor="middle" x="904.17" y="-39.38" font-family="Times,serif" font-size="15.00">close case</text>
</g>
<!-- 6627229136&#45;&#45;6627228048 -->
<g id="edge72" class="edge">
<title>6627229136&#45;&#45;6627228048</title>
<path fill="none" stroke="black" d="M582.72,-120.17C640.7,-106.57 785.65,-72.57 859.07,-55.34"/>
</g>
<!-- 6627226576 -->
<g id="node71" class="node">
<title>6627226576</title>
<ellipse fill="none" stroke="black" cx="1385.08" cy="-180" rx="266.39" ry="18"/>
<text text-anchor="middle" x="1385.08" y="-174.38" font-family="Times,serif" font-size="15.00">enter senddate letter no permit or only notification required</text>
</g>
<!-- 6627225488&#45;&#45;6627226576 -->
<g id="edge67" class="edge">
<title>6627225488&#45;&#45;6627226576</title>
<path fill="none" stroke="black" d="M930.58,-103.3C995.55,-114.29 1170.55,-143.89 1283.19,-162.94"/>
</g>
<!-- 6627221328 -->
<g id="node72" class="node">
<title>6627221328</title>
<ellipse fill="none" stroke="black" cx="1385.08" cy="-126" rx="82.77" ry="18"/>
<text text-anchor="middle" x="1385.08" y="-120.38" font-family="Times,serif" font-size="15.00">register deadline</text>
</g>
<!-- 6627225488&#45;&#45;6627221328 -->
<g id="edge68" class="edge">
<title>6627225488&#45;&#45;6627221328</title>
<path fill="none" stroke="black" d="M931.25,-100.47C1001.04,-104.4 1194.14,-115.29 1304.33,-121.5"/>
</g>
<!-- 6627218512 -->
<g id="node73" class="node">
<title>6627218512</title>
<ellipse fill="none" stroke="black" cx="1385.08" cy="-72" rx="115.39" ry="18"/>
<text text-anchor="middle" x="1385.08" y="-66.38" font-family="Times,serif" font-size="15.00">phase procedure aborted</text>
</g>
<!-- 6627225488&#45;&#45;6627218512 -->
<g id="edge69" class="edge">
<title>6627225488&#45;&#45;6627218512</title>
<path fill="none" stroke="black" d="M931.25,-97.53C995.33,-93.92 1163.37,-84.44 1275.73,-78.11"/>
</g>
<!-- 6627228304 -->
<g id="node74" class="node">
<title>6627228304</title>
<ellipse fill="none" stroke="black" cx="1385.08" cy="-18" rx="230.61" ry="18"/>
<text text-anchor="middle" x="1385.08" y="-12.38" font-family="Times,serif" font-size="15.00">create letter no permit or only notification required</text>
</g>
<!-- 6627225488&#45;&#45;6627228304 -->
<g id="edge70" class="edge">
<title>6627225488&#45;&#45;6627228304</title>
<path fill="none" stroke="black" d="M930.58,-94.7C996.03,-83.63 1173.16,-53.67 1285.69,-34.64"/>
</g>
</g>
</svg>
