<?xml version="1.0" encoding="UTF-8" standalone="no"?>
<!DOCTYPE svg PUBLIC "-//W3C//DTD SVG 1.1//EN"
 "http://www.w3.org/Graphics/SVG/1.1/DTD/svg11.dtd">
<!-- Generated by graphviz version 8.0.5 (20230430.1635)
 -->
<!-- Title: pt Pages: 1 -->
<svg width="4041pt" height="878pt"
 viewBox="0.00 0.00 4041.02 877.70" xmlns="http://www.w3.org/2000/svg" xmlns:xlink="http://www.w3.org/1999/xlink">
<g id="graph0" class="graph" transform="scale(1 1) rotate(0) translate(4 873.7)">
<title>pt</title>
<polygon fill="white" stroke="none" points="-4,4 -4,-873.7 4037.02,-873.7 4037.02,4 -4,4"/>
<!-- 6625645968 -->
<g id="node1" class="node">
<title>6625645968</title>
<ellipse fill="none" stroke="black" cx="27" cy="-678" rx="27" ry="18"/>
<text text-anchor="middle" x="27" y="-672.38" font-family="Times,serif" font-size="15.00">seq</text>
</g>
<!-- 6627135632 -->
<g id="node2" class="node">
<title>6627135632</title>
<ellipse fill="none" stroke="black" cx="239.06" cy="-732" rx="149.06" ry="18"/>
<text text-anchor="middle" x="239.06" y="-726.38" font-family="Times,serif" font-size="15.00">register submission date request</text>
</g>
<!-- 6625645968&#45;&#45;6627135632 -->
<g id="edge1" class="edge">
<title>6625645968&#45;&#45;6627135632</title>
<path fill="none" stroke="black" d="M52.51,-684.3C82.05,-691.9 132.85,-704.95 173.83,-715.49"/>
</g>
<!-- 6626193360 -->
<g id="node3" class="node">
<title>6626193360</title>
<ellipse fill="none" stroke="black" cx="239.06" cy="-678" rx="27" ry="18"/>
<text text-anchor="middle" x="239.06" y="-672.38" font-family="Times,serif" font-size="15.00">xor</text>
</g>
<!-- 6625645968&#45;&#45;6626193360 -->
<g id="edge54" class="edge">
<title>6625645968&#45;&#45;6626193360</title>
<path fill="none" stroke="black" d="M54.18,-678C94.54,-678 171.52,-678 211.89,-678"/>
</g>
<!-- 6625133328 -->
<g id="node56" class="node">
<title>6625133328</title>
<ellipse fill="none" stroke="black" cx="239.06" cy="-531" rx="27" ry="18"/>
<text text-anchor="middle" x="239.06" y="-525.38" font-family="Times,serif" font-size="15.00">xor</text>
</g>
<!-- 6625645968&#45;&#45;6625133328 -->
<g id="edge76" class="edge">
<title>6625645968&#45;&#45;6625133328</title>
<path fill="none" stroke="black" d="M46.27,-665.21C86,-637.41 179.86,-571.73 219.68,-543.86"/>
</g>
<!-- 6626015760 -->
<g id="node4" class="node">
<title>6626015760</title>
<ellipse fill="black" stroke="black" cx="556.88" cy="-717" rx="2.7" ry="2.7"/>
</g>
<!-- 6626193360&#45;&#45;6626015760 -->
<g id="edge2" class="edge">
<title>6626193360&#45;&#45;6626015760</title>
<path fill="none" stroke="black" d="M265.91,-681.19C337.21,-690 532.83,-714.15 554.02,-716.77"/>
</g>
<!-- 6626994320 -->
<g id="node5" class="node">
<title>6626994320</title>
<ellipse fill="none" stroke="black" cx="556.88" cy="-678" rx="27" ry="18"/>
<text text-anchor="middle" x="556.88" y="-672.38" font-family="Times,serif" font-size="15.00">and</text>
</g>
<!-- 6626193360&#45;&#45;6626994320 -->
<g id="edge53" class="edge">
<title>6626193360&#45;&#45;6626994320</title>
<path fill="none" stroke="black" d="M266.45,-678C326.04,-678 470.48,-678 529.8,-678"/>
</g>
<!-- 6626998288 -->
<g id="node6" class="node">
<title>6626998288</title>
<ellipse fill="none" stroke="black" cx="904.17" cy="-747" rx="112.76" ry="18"/>
<text text-anchor="middle" x="904.17" y="-741.38" font-family="Times,serif" font-size="15.00">applicant is stakeholder</text>
</g>
<!-- 6626994320&#45;&#45;6626998288 -->
<g id="edge3" class="edge">
<title>6626994320&#45;&#45;6626998288</title>
<path fill="none" stroke="black" d="M583.27,-683.07C635.13,-693.44 754.85,-717.36 832.22,-732.82"/>
</g>
<!-- 6626185104 -->
<g id="node7" class="node">
<title>6626185104</title>
<ellipse fill="none" stroke="black" cx="904.17" cy="-693" rx="124.86" ry="18"/>
<text text-anchor="middle" x="904.17" y="-687.38" font-family="Times,serif" font-size="15.00">phase application received</text>
</g>
<!-- 6626994320&#45;&#45;6626185104 -->
<g id="edge4" class="edge">
<title>6626994320&#45;&#45;6626185104</title>
<path fill="none" stroke="black" d="M584.12,-679.14C626.38,-680.98 712.05,-684.7 783.99,-687.82"/>
</g>
<!-- 6626993616 -->
<g id="node8" class="node">
<title>6626993616</title>
<ellipse fill="none" stroke="black" cx="904.17" cy="-639" rx="27" ry="18"/>
<text text-anchor="middle" x="904.17" y="-633.38" font-family="Times,serif" font-size="15.00">seq</text>
</g>
<!-- 6626994320&#45;&#45;6626993616 -->
<g id="edge52" class="edge">
<title>6626994320&#45;&#45;6626993616</title>
<path fill="none" stroke="black" d="M583.84,-675.07C647.98,-667.82 813.42,-649.14 877.38,-641.91"/>
</g>
<!-- 6626996432 -->
<g id="node9" class="node">
<title>6626996432</title>
<ellipse fill="none" stroke="black" cx="1385.08" cy="-828" rx="27" ry="18"/>
<text text-anchor="middle" x="1385.08" y="-822.38" font-family="Times,serif" font-size="15.00">xor</text>
</g>
<!-- 6626993616&#45;&#45;6626996432 -->
<g id="edge7" class="edge">
<title>6626993616&#45;&#45;6626996432</title>
<path fill="none" stroke="black" d="M927.94,-647.99C1008.62,-679.83 1280.27,-787.03 1361.16,-818.96"/>
</g>
<!-- 6626985360 -->
<g id="node12" class="node">
<title>6626985360</title>
<ellipse fill="none" stroke="black" cx="1385.08" cy="-720" rx="27" ry="18"/>
<text text-anchor="middle" x="1385.08" y="-714.38" font-family="Times,serif" font-size="15.00">xor</text>
</g>
<!-- 6626993616&#45;&#45;6626985360 -->
<g id="edge10" class="edge">
<title>6626993616&#45;&#45;6626985360</title>
<path fill="none" stroke="black" d="M930.58,-643.3C1013.44,-657.31 1275.25,-701.59 1358.44,-715.66"/>
</g>
<!-- 6626989200 -->
<g id="node15" class="node">
<title>6626989200</title>
<ellipse fill="none" stroke="black" cx="1385.08" cy="-666" rx="47" ry="18"/>
<text text-anchor="middle" x="1385.08" y="-660.38" font-family="Times,serif" font-size="15.00">xor loop</text>
</g>
<!-- 6626993616&#45;&#45;6626989200 -->
<g id="edge13" class="edge">
<title>6626993616&#45;&#45;6626989200</title>
<path fill="none" stroke="black" d="M931.25,-640.47C1008.94,-644.85 1239.47,-657.85 1338.28,-663.42"/>
</g>
<!-- 6626986384 -->
<g id="node18" class="node">
<title>6626986384</title>
<ellipse fill="none" stroke="black" cx="1385.08" cy="-612" rx="152.75" ry="18"/>
<text text-anchor="middle" x="1385.08" y="-606.38" font-family="Times,serif" font-size="15.00">enter senddate acknowledgement</text>
</g>
<!-- 6626993616&#45;&#45;6626986384 -->
<g id="edge14" class="edge">
<title>6626993616&#45;&#45;6626986384</title>
<path fill="none" stroke="black" d="M931.25,-637.53C989.91,-634.22 1135.7,-626 1246.13,-619.78"/>
</g>
<!-- 6626998800 -->
<g id="node19" class="node">
<title>6626998800</title>
<ellipse fill="none" stroke="black" cx="1385.08" cy="-558" rx="27" ry="18"/>
<text text-anchor="middle" x="1385.08" y="-552.38" font-family="Times,serif" font-size="15.00">xor</text>
</g>
<!-- 6626993616&#45;&#45;6626998800 -->
<g id="edge17" class="edge">
<title>6626993616&#45;&#45;6626998800</title>
<path fill="none" stroke="black" d="M930.58,-634.7C1013.44,-620.69 1275.25,-576.41 1358.44,-562.34"/>
</g>
<!-- 6627223504 -->
<g id="node22" class="node">
<title>6627223504</title>
<ellipse fill="none" stroke="black" cx="1385.08" cy="-477" rx="27" ry="18"/>
<text text-anchor="middle" x="1385.08" y="-471.38" font-family="Times,serif" font-size="15.00">and</text>
</g>
<!-- 6626993616&#45;&#45;6627223504 -->
<g id="edge51" class="edge">
<title>6626993616&#45;&#45;6627223504</title>
<path fill="none" stroke="black" d="M928.92,-630.97C1010.55,-603.35 1279.05,-512.53 1360.47,-484.99"/>
</g>
<!-- 6626990352 -->
<g id="node10" class="node">
<title>6626990352</title>
<ellipse fill="black" stroke="black" cx="1863.89" cy="-867" rx="2.7" ry="2.7"/>
</g>
<!-- 6626996432&#45;&#45;6626990352 -->
<g id="edge5" class="edge">
<title>6626996432&#45;&#45;6626990352</title>
<path fill="none" stroke="black" d="M1412.05,-830.12C1507.28,-837.91 1833.16,-864.57 1860.99,-866.84"/>
</g>
<!-- 6626995984 -->
<g id="node11" class="node">
<title>6626995984</title>
<ellipse fill="none" stroke="black" cx="1863.89" cy="-828" rx="176.42" ry="18"/>
<text text-anchor="middle" x="1863.89" y="-822.38" font-family="Times,serif" font-size="15.00">enter senddate procedure confirmation</text>
</g>
<!-- 6626996432&#45;&#45;6626995984 -->
<g id="edge6" class="edge">
<title>6626996432&#45;&#45;6626995984</title>
<path fill="none" stroke="black" d="M1412.39,-828C1464.37,-828 1584.12,-828 1687.09,-828"/>
</g>
<!-- 6626988816 -->
<g id="node13" class="node">
<title>6626988816</title>
<ellipse fill="none" stroke="black" cx="1863.89" cy="-774" rx="110.66" ry="18"/>
<text text-anchor="middle" x="1863.89" y="-768.38" font-family="Times,serif" font-size="15.00">reception through OLO</text>
</g>
<!-- 6626985360&#45;&#45;6626988816 -->
<g id="edge8" class="edge">
<title>6626985360&#45;&#45;6626988816</title>
<path fill="none" stroke="black" d="M1412.05,-722.94C1479.1,-730.53 1660.49,-751.08 1771.69,-763.67"/>
</g>
<!-- 6626989456 -->
<g id="node14" class="node">
<title>6626989456</title>
<ellipse fill="none" stroke="black" cx="1863.89" cy="-720" rx="108.55" ry="18"/>
<text text-anchor="middle" x="1863.89" y="-714.38" font-family="Times,serif" font-size="15.00">OLO messaging active</text>
</g>
<!-- 6626985360&#45;&#45;6626989456 -->
<g id="edge9" class="edge">
<title>6626985360&#45;&#45;6626989456</title>
<path fill="none" stroke="black" d="M1412.39,-720C1476.43,-720 1643.3,-720 1754.97,-720"/>
</g>
<!-- 6626992976 -->
<g id="node16" class="node">
<title>6626992976</title>
<ellipse fill="none" stroke="black" cx="1863.89" cy="-666" rx="121.18" ry="18"/>
<text text-anchor="middle" x="1863.89" y="-660.38" font-family="Times,serif" font-size="15.00">send confirmation receipt</text>
</g>
<!-- 6626989200&#45;&#45;6626992976 -->
<g id="edge11" class="edge">
<title>6626989200&#45;&#45;6626992976</title>
<path fill="none" stroke="black" d="M1432.23,-666C1503.28,-666 1641.78,-666 1742.59,-666"/>
</g>
<!-- 6626991248 -->
<g id="node17" class="node">
<title>6626991248</title>
<ellipse fill="black" stroke="black" cx="1863.89" cy="-627" rx="2.7" ry="2.7"/>
</g>
<!-- 6626989200&#45;&#45;6626991248 -->
<g id="edge12" class="edge">
<title>6626989200&#45;&#45;6626991248</title>
<path fill="none" stroke="black" d="M1431.37,-662.3C1544.81,-653.02 1834.02,-629.36 1860.88,-627.16"/>
</g>
<!-- 6626984720 -->
<g id="node20" class="node">
<title>6626984720</title>
<ellipse fill="black" stroke="black" cx="1863.89" cy="-597" rx="2.7" ry="2.7"/>
</g>
<!-- 6626998800&#45;&#45;6626984720 -->
<g id="edge15" class="edge">
<title>6626998800&#45;&#45;6626984720</title>
<path fill="none" stroke="black" d="M1412.05,-560.12C1507.28,-567.91 1833.16,-594.57 1860.99,-596.84"/>
</g>
<!-- 6626990608 -->
<g id="node21" class="node">
<title>6626990608</title>
<ellipse fill="none" stroke="black" cx="1863.89" cy="-558" rx="135.39" ry="18"/>
<text text-anchor="middle" x="1863.89" y="-552.38" font-family="Times,serif" font-size="15.00">calculate provisional charges</text>
</g>
<!-- 6626998800&#45;&#45;6626990608 -->
<g id="edge16" class="edge">
<title>6626998800&#45;&#45;6626990608</title>
<path fill="none" stroke="black" d="M1412.39,-558C1471.5,-558 1618.22,-558 1728.27,-558"/>
</g>
<!-- 6627218640 -->
<g id="node23" class="node">
<title>6627218640</title>
<ellipse fill="none" stroke="black" cx="1863.89" cy="-504" rx="160.64" ry="18"/>
<text text-anchor="middle" x="1863.89" y="-498.38" font-family="Times,serif" font-size="15.00">forward to the competent authority</text>
</g>
<!-- 6627223504&#45;&#45;6627218640 -->
<g id="edge18" class="edge">
<title>6627223504&#45;&#45;6627218640</title>
<path fill="none" stroke="black" d="M1412.39,-478.49C1469.89,-481.75 1610.29,-489.7 1719.2,-495.86"/>
</g>
<!-- 6627215376 -->
<g id="node24" class="node">
<title>6627215376</title>
<ellipse fill="none" stroke="black" cx="1863.89" cy="-450" rx="147.49" ry="18"/>
<text text-anchor="middle" x="1863.89" y="-444.38" font-family="Times,serif" font-size="15.00">regular procedure without MER</text>
</g>
<!-- 6627223504&#45;&#45;6627215376 -->
<g id="edge19" class="edge">
<title>6627223504&#45;&#45;6627215376</title>
<path fill="none" stroke="black" d="M1412.39,-475.51C1471.65,-472.15 1618.95,-463.81 1729.09,-457.58"/>
</g>
<!-- 6627229520 -->
<g id="node25" class="node">
<title>6627229520</title>
<ellipse fill="none" stroke="black" cx="1863.89" cy="-396" rx="27" ry="18"/>
<text text-anchor="middle" x="1863.89" y="-390.38" font-family="Times,serif" font-size="15.00">seq</text>
</g>
<!-- 6627223504&#45;&#45;6627229520 -->
<g id="edge50" class="edge">
<title>6627223504&#45;&#45;6627229520</title>
<path fill="none" stroke="black" d="M1411.71,-472.65C1494.6,-458.56 1754.76,-414.37 1837.42,-400.33"/>
</g>
<!-- 6627223632 -->
<g id="node26" class="node">
<title>6627223632</title>
<ellipse fill="none" stroke="black" cx="2103.31" cy="-450" rx="27" ry="18"/>
<text text-anchor="middle" x="2103.31" y="-444.38" font-family="Times,serif" font-size="15.00">xor</text>
</g>
<!-- 6627229520&#45;&#45;6627223632 -->
<g id="edge23" class="edge">
<title>6627229520&#45;&#45;6627223632</title>
<path fill="none" stroke="black" d="M1889.85,-401.68C1935.45,-412.05 2031.71,-433.94 2077.33,-444.32"/>
</g>
<!-- 6627215632 -->
<g id="node30" class="node">
<title>6627215632</title>
<ellipse fill="none" stroke="black" cx="2103.31" cy="-369" rx="27" ry="18"/>
<text text-anchor="middle" x="2103.31" y="-363.38" font-family="Times,serif" font-size="15.00">and</text>
</g>
<!-- 6627229520&#45;&#45;6627215632 -->
<g id="edge49" class="edge">
<title>6627229520&#45;&#45;6627215632</title>
<path fill="none" stroke="black" d="M1890.75,-393.06C1936.42,-387.87 2030.83,-377.13 2076.48,-371.94"/>
</g>
<!-- 6627213456 -->
<g id="node27" class="node">
<title>6627213456</title>
<ellipse fill="black" stroke="black" cx="2323.27" cy="-516" rx="2.7" ry="2.7"/>
</g>
<!-- 6627223632&#45;&#45;6627213456 -->
<g id="edge20" class="edge">
<title>6627223632&#45;&#45;6627213456</title>
<path fill="none" stroke="black" d="M2128.47,-457.32C2181.23,-473.29 2303.39,-510.28 2320.31,-515.41"/>
</g>
<!-- 6627227152 -->
<g id="node28" class="node">
<title>6627227152</title>
<ellipse fill="none" stroke="black" cx="2323.27" cy="-477" rx="156.96" ry="18"/>
<text text-anchor="middle" x="2323.27" y="-471.38" font-family="Times,serif" font-size="15.00">no permit required for application</text>
</g>
<!-- 6627223632&#45;&#45;6627227152 -->
<g id="edge21" class="edge">
<title>6627223632&#45;&#45;6627227152</title>
<path fill="none" stroke="black" d="M2130.17,-453.2C2151.42,-455.84 2183.07,-459.76 2214.57,-463.66"/>
</g>
<!-- 6627222544 -->
<g id="node29" class="node">
<title>6627222544</title>
<ellipse fill="none" stroke="black" cx="2323.27" cy="-423" rx="72.25" ry="18"/>
<text text-anchor="middle" x="2323.27" y="-417.38" font-family="Times,serif" font-size="15.00">MER required</text>
</g>
<!-- 6627223632&#45;&#45;6627222544 -->
<g id="edge22" class="edge">
<title>6627223632&#45;&#45;6627222544</title>
<path fill="none" stroke="black" d="M2130.17,-446.8C2161.4,-442.93 2215.07,-436.28 2257.75,-430.99"/>
</g>
<!-- 6627229136 -->
<g id="node31" class="node">
<title>6627229136</title>
<ellipse fill="none" stroke="black" cx="2323.27" cy="-369" rx="105.92" ry="18"/>
<text text-anchor="middle" x="2323.27" y="-363.38" font-family="Times,serif" font-size="15.00">start WABOprocedure</text>
</g>
<!-- 6627215632&#45;&#45;6627229136 -->
<g id="edge24" class="edge">
<title>6627215632&#45;&#45;6627229136</title>
<path fill="none" stroke="black" d="M2130.6,-369C2152.45,-369 2185.07,-369 2217.22,-369"/>
</g>
<!-- 6627227344 -->
<g id="node32" class="node">
<title>6627227344</title>
<ellipse fill="none" stroke="black" cx="2323.27" cy="-315" rx="27" ry="18"/>
<text text-anchor="middle" x="2323.27" y="-309.38" font-family="Times,serif" font-size="15.00">seq</text>
</g>
<!-- 6627215632&#45;&#45;6627227344 -->
<g id="edge48" class="edge">
<title>6627215632&#45;&#45;6627227344</title>
<path fill="none" stroke="black" d="M2128.89,-362.91C2170.75,-352.54 2255.42,-331.56 2297.44,-321.15"/>
</g>
<!-- 6627221328 -->
<g id="node33" class="node">
<title>6627221328</title>
<ellipse fill="none" stroke="black" cx="2645.3" cy="-423" rx="27" ry="18"/>
<text text-anchor="middle" x="2645.3" y="-417.38" font-family="Times,serif" font-size="15.00">xor</text>
</g>
<!-- 6627227344&#45;&#45;6627221328 -->
<g id="edge31" class="edge">
<title>6627227344&#45;&#45;6627221328</title>
<path fill="none" stroke="black" d="M2347.8,-322.94C2406.98,-342.91 2561.51,-395.06 2620.73,-415.05"/>
</g>
<!-- 6627219728 -->
<g id="node40" class="node">
<title>6627219728</title>
<ellipse fill="none" stroke="black" cx="2645.3" cy="-369" rx="67.52" ry="18"/>
<text text-anchor="middle" x="2645.3" y="-363.38" font-family="Times,serif" font-size="15.00">MER present</text>
</g>
<!-- 6627227344&#45;&#45;6627219728 -->
<g id="edge32" class="edge">
<title>6627227344&#45;&#45;6627219728</title>
<path fill="none" stroke="black" d="M2349.92,-319.33C2401.16,-327.97 2517.29,-347.57 2587.41,-359.4"/>
</g>
<!-- 6627214480 -->
<g id="node41" class="node">
<title>6627214480</title>
<ellipse fill="none" stroke="black" cx="2645.3" cy="-315" rx="129.07" ry="18"/>
<text text-anchor="middle" x="2645.3" y="-309.38" font-family="Times,serif" font-size="15.00">activities regular procedure</text>
</g>
<!-- 6627227344&#45;&#45;6627214480 -->
<g id="edge33" class="edge">
<title>6627227344&#45;&#45;6627214480</title>
<path fill="none" stroke="black" d="M2350.73,-315C2387.04,-315 2454.81,-315 2516.1,-315"/>
</g>
<!-- 6627217744 -->
<g id="node42" class="node">
<title>6627217744</title>
<ellipse fill="none" stroke="black" cx="2645.3" cy="-261" rx="91.19" ry="18"/>
<text text-anchor="middle" x="2645.3" y="-255.38" font-family="Times,serif" font-size="15.00">phased application</text>
</g>
<!-- 6627227344&#45;&#45;6627217744 -->
<g id="edge34" class="edge">
<title>6627227344&#45;&#45;6627217744</title>
<path fill="none" stroke="black" d="M2349.92,-310.67C2398.19,-302.53 2504.07,-284.66 2574.79,-272.73"/>
</g>
<!-- 6627225424 -->
<g id="node43" class="node">
<title>6627225424</title>
<ellipse fill="none" stroke="black" cx="2645.3" cy="-207" rx="27" ry="18"/>
<text text-anchor="middle" x="2645.3" y="-201.38" font-family="Times,serif" font-size="15.00">xor</text>
</g>
<!-- 6627227344&#45;&#45;6627225424 -->
<g id="edge47" class="edge">
<title>6627227344&#45;&#45;6627225424</title>
<path fill="none" stroke="black" d="M2347.8,-307.06C2406.98,-287.09 2561.51,-234.94 2620.73,-214.95"/>
</g>
<!-- 6627216464 -->
<g id="node34" class="node">
<title>6627216464</title>
<ellipse fill="black" stroke="black" cx="2945.23" cy="-442" rx="2.7" ry="2.7"/>
</g>
<!-- 6627221328&#45;&#45;6627216464 -->
<g id="edge25" class="edge">
<title>6627221328&#45;&#45;6627216464</title>
<path fill="none" stroke="black" d="M2672.47,-424.67C2741.2,-429.05 2922.83,-440.64 2942.49,-441.89"/>
</g>
<!-- 6627226064 -->
<g id="node35" class="node">
<title>6627226064</title>
<ellipse fill="none" stroke="black" cx="2945.23" cy="-403" rx="27" ry="18"/>
<text text-anchor="middle" x="2945.23" y="-397.38" font-family="Times,serif" font-size="15.00">seq</text>
</g>
<!-- 6627221328&#45;&#45;6627226064 -->
<g id="edge30" class="edge">
<title>6627221328&#45;&#45;6627226064</title>
<path fill="none" stroke="black" d="M2672.47,-421.24C2728.99,-417.45 2861.85,-408.53 2918.21,-404.75"/>
</g>
<!-- 6627223184 -->
<g id="node36" class="node">
<title>6627223184</title>
<ellipse fill="none" stroke="black" cx="3256.73" cy="-430" rx="99.08" ry="18"/>
<text text-anchor="middle" x="3256.73" y="-424.38" font-family="Times,serif" font-size="15.00">terminate on request</text>
</g>
<!-- 6627226064&#45;&#45;6627223184 -->
<g id="edge26" class="edge">
<title>6627226064&#45;&#45;6627223184</title>
<path fill="none" stroke="black" d="M2972.35,-405.28C3014.76,-408.98 3100.5,-416.46 3166.62,-422.23"/>
</g>
<!-- 6627220368 -->
<g id="node37" class="node">
<title>6627220368</title>
<ellipse fill="none" stroke="black" cx="3256.73" cy="-376" rx="27" ry="18"/>
<text text-anchor="middle" x="3256.73" y="-370.38" font-family="Times,serif" font-size="15.00">xor</text>
</g>
<!-- 6627226064&#45;&#45;6627220368 -->
<g id="edge29" class="edge">
<title>6627226064&#45;&#45;6627220368</title>
<path fill="none" stroke="black" d="M2972.35,-400.72C3030.79,-395.62 3171.52,-383.35 3229.79,-378.26"/>
</g>
<!-- 6627227792 -->
<g id="node38" class="node">
<title>6627227792</title>
<ellipse fill="black" stroke="black" cx="3558.77" cy="-395" rx="2.7" ry="2.7"/>
</g>
<!-- 6627220368&#45;&#45;6627227792 -->
<g id="edge27" class="edge">
<title>6627220368&#45;&#45;6627227792</title>
<path fill="none" stroke="black" d="M3284.1,-377.67C3353.31,-382.05 3536.22,-393.64 3556.02,-394.89"/>
</g>
<!-- 6627224912 -->
<g id="node39" class="node">
<title>6627224912</title>
<ellipse fill="none" stroke="black" cx="3558.77" cy="-356" rx="125.39" ry="18"/>
<text text-anchor="middle" x="3558.77" y="-350.38" font-family="Times,serif" font-size="15.00">inform BAG administrator</text>
</g>
<!-- 6627220368&#45;&#45;6627224912 -->
<g id="edge28" class="edge">
<title>6627220368&#45;&#45;6627224912</title>
<path fill="none" stroke="black" d="M3284.1,-374.24C3319.85,-371.86 3385.93,-367.45 3444.21,-363.57"/>
</g>
<!-- 6627225872 -->
<g id="node44" class="node">
<title>6627225872</title>
<ellipse fill="none" stroke="black" cx="2945.23" cy="-261" rx="134.33" ry="18"/>
<text text-anchor="middle" x="2945.23" y="-255.38" font-family="Times,serif" font-size="15.00">send procedure confirmation</text>
</g>
<!-- 6627225424&#45;&#45;6627225872 -->
<g id="edge35" class="edge">
<title>6627225424&#45;&#45;6627225872</title>
<path fill="none" stroke="black" d="M2671.7,-211.6C2713.7,-219.22 2799.36,-234.74 2863.5,-246.37"/>
</g>
<!-- 6627226576 -->
<g id="node45" class="node">
<title>6627226576</title>
<ellipse fill="none" stroke="black" cx="2945.23" cy="-207" rx="134.86" ry="18"/>
<text text-anchor="middle" x="2945.23" y="-201.38" font-family="Times,serif" font-size="15.00">read field phased application</text>
</g>
<!-- 6627225424&#45;&#45;6627226576 -->
<g id="edge36" class="edge">
<title>6627225424&#45;&#45;6627226576</title>
<path fill="none" stroke="black" d="M2672.73,-207C2703.92,-207 2758.1,-207 2809.9,-207"/>
</g>
<!-- 6627223888 -->
<g id="node46" class="node">
<title>6627223888</title>
<ellipse fill="none" stroke="black" cx="2945.23" cy="-153" rx="27" ry="18"/>
<text text-anchor="middle" x="2945.23" y="-147.38" font-family="Times,serif" font-size="15.00">seq</text>
</g>
<!-- 6627225424&#45;&#45;6627223888 -->
<g id="edge46" class="edge">
<title>6627225424&#45;&#45;6627223888</title>
<path fill="none" stroke="black" d="M2671.7,-202.4C2727.98,-192.19 2862.66,-167.78 2918.89,-157.59"/>
</g>
<!-- 6627218960 -->
<g id="node47" class="node">
<title>6627218960</title>
<ellipse fill="none" stroke="black" cx="3256.73" cy="-261" rx="140.65" ry="18"/>
<text text-anchor="middle" x="3256.73" y="-255.38" font-family="Times,serif" font-size="15.00">create procedure confirmation</text>
</g>
<!-- 6627223888&#45;&#45;6627218960 -->
<g id="edge37" class="edge">
<title>6627223888&#45;&#45;6627218960</title>
<path fill="none" stroke="black" d="M2969.74,-161.21C3019.97,-178.73 3138.61,-220.13 3206.25,-243.73"/>
</g>
<!-- 6627220624 -->
<g id="node48" class="node">
<title>6627220624</title>
<ellipse fill="none" stroke="black" cx="3256.73" cy="-207" rx="137.49" ry="18"/>
<text text-anchor="middle" x="3256.73" y="-201.38" font-family="Times,serif" font-size="15.00">create subcases completeness</text>
</g>
<!-- 6627223888&#45;&#45;6627220624 -->
<g id="edge38" class="edge">
<title>6627223888&#45;&#45;6627220624</title>
<path fill="none" stroke="black" d="M2971.82,-157.46C3015.27,-165.05 3105.27,-180.75 3172.36,-192.45"/>
</g>
<!-- 6627222608 -->
<g id="node49" class="node">
<title>6627222608</title>
<ellipse fill="none" stroke="black" cx="3256.73" cy="-153" rx="27" ry="18"/>
<text text-anchor="middle" x="3256.73" y="-147.38" font-family="Times,serif" font-size="15.00">xor</text>
</g>
<!-- 6627223888&#45;&#45;6627222608 -->
<g id="edge43" class="edge">
<title>6627223888&#45;&#45;6627222608</title>
<path fill="none" stroke="black" d="M2972.62,-153C3031.09,-153 3171,-153 3229.41,-153"/>
</g>
<!-- 6627214096 -->
<g id="node54" class="node">
<title>6627214096</title>
<ellipse fill="none" stroke="black" cx="3256.73" cy="-99" rx="86.46" ry="18"/>
<text text-anchor="middle" x="3256.73" y="-93.38" font-family="Times,serif" font-size="15.00">procedure change</text>
</g>
<!-- 6627223888&#45;&#45;6627214096 -->
<g id="edge44" class="edge">
<title>6627223888&#45;&#45;6627214096</title>
<path fill="none" stroke="black" d="M2971.82,-148.54C3019.03,-140.3 3121.23,-122.47 3189.24,-110.6"/>
</g>
<!-- 6627218768 -->
<g id="node55" class="node">
<title>6627218768</title>
<ellipse fill="none" stroke="black" cx="3256.73" cy="-45" rx="84.35" ry="18"/>
<text text-anchor="middle" x="3256.73" y="-39.38" font-family="Times,serif" font-size="15.00">request complete</text>
</g>
<!-- 6627223888&#45;&#45;6627218768 -->
<g id="edge45" class="edge">
<title>6627223888&#45;&#45;6627218768</title>
<path fill="none" stroke="black" d="M2969.74,-144.79C3021.23,-126.83 3144.65,-83.76 3211.28,-60.51"/>
</g>
<!-- 6627217360 -->
<g id="node50" class="node">
<title>6627217360</title>
<ellipse fill="black" stroke="black" cx="3558.77" cy="-172" rx="2.7" ry="2.7"/>
</g>
<!-- 6627222608&#45;&#45;6627217360 -->
<g id="edge39" class="edge">
<title>6627222608&#45;&#45;6627217360</title>
<path fill="none" stroke="black" d="M3284.1,-154.67C3353.31,-159.05 3536.22,-170.64 3556.02,-171.89"/>
</g>
<!-- 6627218256 -->
<g id="node51" class="node">
<title>6627218256</title>
<ellipse fill="none" stroke="black" cx="3558.77" cy="-133" rx="27" ry="18"/>
<text text-anchor="middle" x="3558.77" y="-127.38" font-family="Times,serif" font-size="15.00">seq</text>
</g>
<!-- 6627222608&#45;&#45;6627218256 -->
<g id="edge42" class="edge">
<title>6627222608&#45;&#45;6627218256</title>
<path fill="none" stroke="black" d="M3284.1,-151.24C3341.01,-147.45 3474.81,-138.53 3531.57,-134.75"/>
</g>
<!-- 6627222480 -->
<g id="node52" class="node">
<title>6627222480</title>
<ellipse fill="none" stroke="black" cx="3876.59" cy="-160" rx="131.18" ry="18"/>
<text text-anchor="middle" x="3876.59" y="-154.38" font-family="Times,serif" font-size="15.00">treat subcases completeness</text>
</g>
<!-- 6627218256&#45;&#45;6627222480 -->
<g id="edge40" class="edge">
<title>6627218256&#45;&#45;6627222480</title>
<path fill="none" stroke="black" d="M3585.88,-135.23C3624.68,-138.55 3699.84,-144.98 3763.89,-150.45"/>
</g>
<!-- 6627224656 -->
<g id="node53" class="node">
<title>6627224656</title>
<ellipse fill="none" stroke="black" cx="3876.59" cy="-106" rx="156.43" ry="18"/>
<text text-anchor="middle" x="3876.59" y="-100.38" font-family="Times,serif" font-size="15.00">subcases completeness completed</text>
</g>
<!-- 6627218256&#45;&#45;6627224656 -->
<g id="edge41" class="edge">
<title>6627218256&#45;&#45;6627224656</title>
<path fill="none" stroke="black" d="M3585.88,-130.77C3621.8,-127.7 3688.88,-121.96 3749.45,-116.78"/>
</g>
<!-- 6627224144 -->
<g id="node57" class="node">
<title>6627224144</title>
<ellipse fill="black" stroke="black" cx="556.88" cy="-624" rx="2.7" ry="2.7"/>
</g>
<!-- 6625133328&#45;&#45;6627224144 -->
<g id="edge55" class="edge">
<title>6625133328&#45;&#45;6627224144</title>
<path fill="none" stroke="black" d="M264.32,-538.14C334.23,-558.73 532.51,-617.12 553.99,-623.44"/>
</g>
<!-- 6627223952 -->
<g id="node58" class="node">
<title>6627223952</title>
<ellipse fill="none" stroke="black" cx="556.88" cy="-585" rx="132.76" ry="18"/>
<text text-anchor="middle" x="556.88" y="-579.38" font-family="Times,serif" font-size="15.00">create publication document</text>
</g>
<!-- 6625133328&#45;&#45;6627223952 -->
<g id="edge56" class="edge">
<title>6625133328&#45;&#45;6627223952</title>
<path fill="none" stroke="black" d="M265.64,-535.37C310.14,-542.98 403.62,-558.96 472.52,-570.75"/>
</g>
<!-- 6627225040 -->
<g id="node59" class="node">
<title>6627225040</title>
<ellipse fill="none" stroke="black" cx="556.88" cy="-531" rx="27" ry="18"/>
<text text-anchor="middle" x="556.88" y="-525.38" font-family="Times,serif" font-size="15.00">seq</text>
</g>
<!-- 6625133328&#45;&#45;6627225040 -->
<g id="edge59" class="edge">
<title>6625133328&#45;&#45;6627225040</title>
<path fill="none" stroke="black" d="M266.45,-531C326.04,-531 470.48,-531 529.8,-531"/>
</g>
<!-- 6627229072 -->
<g id="node62" class="node">
<title>6627229072</title>
<ellipse fill="none" stroke="black" cx="556.88" cy="-477" rx="27" ry="18"/>
<text text-anchor="middle" x="556.88" y="-471.38" font-family="Times,serif" font-size="15.00">seq</text>
</g>
<!-- 6625133328&#45;&#45;6627229072 -->
<g id="edge62" class="edge">
<title>6625133328&#45;&#45;6627229072</title>
<path fill="none" stroke="black" d="M265.64,-526.63C324.97,-516.48 471.38,-491.45 530.51,-481.34"/>
</g>
<!-- 6627215120 -->
<g id="node65" class="node">
<title>6627215120</title>
<ellipse fill="none" stroke="black" cx="556.88" cy="-315" rx="27" ry="18"/>
<text text-anchor="middle" x="556.88" y="-309.38" font-family="Times,serif" font-size="15.00">seq</text>
</g>
<!-- 6625133328&#45;&#45;6627215120 -->
<g id="edge67" class="edge">
<title>6625133328&#45;&#45;6627215120</title>
<path fill="none" stroke="black" d="M258.41,-518.45C314.23,-480.28 481.6,-365.8 537.49,-327.58"/>
</g>
<!-- 6627222736 -->
<g id="node70" class="node">
<title>6627222736</title>
<ellipse fill="none" stroke="black" cx="556.88" cy="-126" rx="27" ry="18"/>
<text text-anchor="middle" x="556.88" y="-120.38" font-family="Times,serif" font-size="15.00">seq</text>
</g>
<!-- 6625133328&#45;&#45;6627222736 -->
<g id="edge75" class="edge">
<title>6625133328&#45;&#45;6627222736</title>
<path fill="none" stroke="black" d="M252.44,-515.12C302.97,-450.34 493.23,-206.35 543.59,-141.77"/>
</g>
<!-- 6627228048 -->
<g id="node60" class="node">
<title>6627228048</title>
<ellipse fill="none" stroke="black" cx="904.17" cy="-585" rx="105.92" ry="18"/>
<text text-anchor="middle" x="904.17" y="-579.38" font-family="Times,serif" font-size="15.00">send letter in progress</text>
</g>
<!-- 6627225040&#45;&#45;6627228048 -->
<g id="edge57" class="edge">
<title>6627225040&#45;&#45;6627228048</title>
<path fill="none" stroke="black" d="M583.55,-535.01C633.96,-542.9 747.67,-560.68 824.94,-572.77"/>
</g>
<!-- 6627226896 -->
<g id="node61" class="node">
<title>6627226896</title>
<ellipse fill="none" stroke="black" cx="904.17" cy="-531" rx="128.02" ry="18"/>
<text text-anchor="middle" x="904.17" y="-525.38" font-family="Times,serif" font-size="15.00">phase application receptive</text>
</g>
<!-- 6627225040&#45;&#45;6627226896 -->
<g id="edge58" class="edge">
<title>6627225040&#45;&#45;6627226896</title>
<path fill="none" stroke="black" d="M584.12,-531C624.8,-531 705.73,-531 775.9,-531"/>
</g>
<!-- 6627226256 -->
<g id="node63" class="node">
<title>6627226256</title>
<ellipse fill="none" stroke="black" cx="904.17" cy="-477" rx="139.07" ry="18"/>
<text text-anchor="middle" x="904.17" y="-471.38" font-family="Times,serif" font-size="15.00">initiative competent authority</text>
</g>
<!-- 6627229072&#45;&#45;6627226256 -->
<g id="edge60" class="edge">
<title>6627229072&#45;&#45;6627226256</title>
<path fill="none" stroke="black" d="M584.12,-477C622.68,-477 697.39,-477 764.82,-477"/>
</g>
<!-- 6627226000 -->
<g id="node64" class="node">
<title>6627226000</title>
<ellipse fill="none" stroke="black" cx="904.17" cy="-423" rx="178.53" ry="18"/>
<text text-anchor="middle" x="904.17" y="-417.38" font-family="Times,serif" font-size="15.00">enter date termination request received</text>
</g>
<!-- 6627229072&#45;&#45;6627226000 -->
<g id="edge61" class="edge">
<title>6627229072&#45;&#45;6627226000</title>
<path fill="none" stroke="black" d="M583.55,-472.99C629.74,-465.76 729.07,-450.23 804.83,-438.38"/>
</g>
<!-- 6627218512 -->
<g id="node66" class="node">
<title>6627218512</title>
<ellipse fill="none" stroke="black" cx="904.17" cy="-369" rx="140.65" ry="18"/>
<text text-anchor="middle" x="904.17" y="-363.38" font-family="Times,serif" font-size="15.00">decision date prior to decision</text>
</g>
<!-- 6627215120&#45;&#45;6627218512 -->
<g id="edge63" class="edge">
<title>6627215120&#45;&#45;6627218512</title>
<path fill="none" stroke="black" d="M583.55,-319.01C631.46,-326.51 736.54,-342.94 813.18,-354.93"/>
</g>
<!-- 6627217808 -->
<g id="node67" class="node">
<title>6627217808</title>
<ellipse fill="none" stroke="black" cx="904.17" cy="-315" rx="177.47" ry="18"/>
<text text-anchor="middle" x="904.17" y="-309.38" font-family="Times,serif" font-size="15.00">generating decision no permit required</text>
</g>
<!-- 6627215120&#45;&#45;6627217808 -->
<g id="edge64" class="edge">
<title>6627215120&#45;&#45;6627217808</title>
<path fill="none" stroke="black" d="M584.12,-315C615.44,-315 670.61,-315 726.36,-315"/>
</g>
<!-- 6627220496 -->
<g id="node68" class="node">
<title>6627220496</title>
<ellipse fill="none" stroke="black" cx="904.17" cy="-261" rx="89.09" ry="18"/>
<text text-anchor="middle" x="904.17" y="-255.38" font-family="Times,serif" font-size="15.00">set decision status</text>
</g>
<!-- 6627215120&#45;&#45;6627220496 -->
<g id="edge65" class="edge">
<title>6627215120&#45;&#45;6627220496</title>
<path fill="none" stroke="black" d="M583.55,-310.99C635.68,-302.83 755.5,-284.09 832.72,-272.02"/>
</g>
<!-- 6627221008 -->
<g id="node69" class="node">
<title>6627221008</title>
<ellipse fill="none" stroke="black" cx="904.17" cy="-207" rx="158.01" ry="18"/>
<text text-anchor="middle" x="904.17" y="-201.38" font-family="Times,serif" font-size="15.00">create decision no permit required</text>
</g>
<!-- 6627215120&#45;&#45;6627221008 -->
<g id="edge66" class="edge">
<title>6627215120&#45;&#45;6627221008</title>
<path fill="none" stroke="black" d="M581.89,-307.49C636.56,-290.39 771.52,-248.18 847.99,-224.26"/>
</g>
<!-- 6626892368 -->
<g id="node71" class="node">
<title>6626892368</title>
<ellipse fill="none" stroke="black" cx="904.17" cy="-153" rx="148.01" ry="18"/>
<text text-anchor="middle" x="904.17" y="-147.38" font-family="Times,serif" font-size="15.00">phase only notification required</text>
</g>
<!-- 6627222736&#45;&#45;6626892368 -->
<g id="edge68" class="edge">
<title>6627222736&#45;&#45;6626892368</title>
<path fill="none" stroke="black" d="M584.12,-128.05C625.27,-131.27 707.61,-137.71 778.34,-143.24"/>
</g>
<!-- 6626890704 -->
<g id="node72" class="node">
<title>6626890704</title>
<ellipse fill="none" stroke="black" cx="904.17" cy="-99" rx="27" ry="18"/>
<text text-anchor="middle" x="904.17" y="-93.38" font-family="Times,serif" font-size="15.00">and</text>
</g>
<!-- 6627222736&#45;&#45;6626890704 -->
<g id="edge73" class="edge">
<title>6627222736&#45;&#45;6626890704</title>
<path fill="none" stroke="black" d="M584.12,-123.95C648.33,-118.93 812.8,-106.07 876.97,-101.05"/>
</g>
<!-- 6626886928 -->
<g id="node77" class="node">
<title>6626886928</title>
<ellipse fill="none" stroke="black" cx="904.17" cy="-45" rx="54.36" ry="18"/>
<text text-anchor="middle" x="904.17" y="-39.38" font-family="Times,serif" font-size="15.00">close case</text>
</g>
<!-- 6627222736&#45;&#45;6626886928 -->
<g id="edge74" class="edge">
<title>6627222736&#45;&#45;6626886928</title>
<path fill="none" stroke="black" d="M582.72,-120.17C640.7,-106.57 785.65,-72.57 859.07,-55.34"/>
</g>
<!-- 6626901200 -->
<g id="node73" class="node">
<title>6626901200</title>
<ellipse fill="none" stroke="black" cx="1385.08" cy="-180" rx="266.39" ry="18"/>
<text text-anchor="middle" x="1385.08" y="-174.38" font-family="Times,serif" font-size="15.00">enter senddate letter no permit or only notification required</text>
</g>
<!-- 6626890704&#45;&#45;6626901200 -->
<g id="edge69" class="edge">
<title>6626890704&#45;&#45;6626901200</title>
<path fill="none" stroke="black" d="M930.58,-103.3C995.55,-114.29 1170.55,-143.89 1283.19,-162.94"/>
</g>
<!-- 6626900112 -->
<g id="node74" class="node">
<title>6626900112</title>
<ellipse fill="none" stroke="black" cx="1385.08" cy="-126" rx="82.77" ry="18"/>
<text text-anchor="middle" x="1385.08" y="-120.38" font-family="Times,serif" font-size="15.00">register deadline</text>
</g>
<!-- 6626890704&#45;&#45;6626900112 -->
<g id="edge70" class="edge">
<title>6626890704&#45;&#45;6626900112</title>
<path fill="none" stroke="black" d="M931.25,-100.47C1001.04,-104.4 1194.14,-115.29 1304.33,-121.5"/>
</g>
<!-- 6626894608 -->
<g id="node75" class="node">
<title>6626894608</title>
<ellipse fill="none" stroke="black" cx="1385.08" cy="-72" rx="115.39" ry="18"/>
<text text-anchor="middle" x="1385.08" y="-66.38" font-family="Times,serif" font-size="15.00">phase procedure aborted</text>
</g>
<!-- 6626890704&#45;&#45;6626894608 -->
<g id="edge71" class="edge">
<title>6626890704&#45;&#45;6626894608</title>
<path fill="none" stroke="black" d="M931.25,-97.53C995.33,-93.92 1163.37,-84.44 1275.73,-78.11"/>
</g>
<!-- 6626886096 -->
<g id="node76" class="node">
<title>6626886096</title>
<ellipse fill="none" stroke="black" cx="1385.08" cy="-18" rx="230.61" ry="18"/>
<text text-anchor="middle" x="1385.08" y="-12.38" font-family="Times,serif" font-size="15.00">create letter no permit or only notification required</text>
</g>
<!-- 6626890704&#45;&#45;6626886096 -->
<g id="edge72" class="edge">
<title>6626890704&#45;&#45;6626886096</title>
<path fill="none" stroke="black" d="M930.58,-94.7C996.03,-83.63 1173.16,-53.67 1285.69,-34.64"/>
</g>
</g>
</svg>
