<?xml version="1.0" encoding="UTF-8" standalone="no"?>
<!DOCTYPE svg PUBLIC "-//W3C//DTD SVG 1.1//EN"
 "http://www.w3.org/Graphics/SVG/1.1/DTD/svg11.dtd">
<!-- Generated by graphviz version 8.0.5 (20230430.1635)
 -->
<!-- Title: pt Pages: 1 -->
<svg width="4440pt" height="1075pt"
 viewBox="0.00 0.00 4440.39 1075.00" xmlns="http://www.w3.org/2000/svg" xmlns:xlink="http://www.w3.org/1999/xlink">
<g id="graph0" class="graph" transform="scale(1 1) rotate(0) translate(4 1071)">
<title>pt</title>
<polygon fill="white" stroke="none" points="-4,4 -4,-1071 4436.39,-1071 4436.39,4 -4,4"/>
<!-- 6626265808 -->
<g id="node1" class="node">
<title>6626265808</title>
<ellipse fill="none" stroke="black" cx="27" cy="-877" rx="27" ry="18"/>
<text text-anchor="middle" x="27" y="-871.38" font-family="Times,serif" font-size="15.00">seq</text>
</g>
<!-- 6627147536 -->
<g id="node2" class="node">
<title>6627147536</title>
<ellipse fill="none" stroke="black" cx="239.06" cy="-1049" rx="149.06" ry="18"/>
<text text-anchor="middle" x="239.06" y="-1043.38" font-family="Times,serif" font-size="15.00">register submission date request</text>
</g>
<!-- 6626265808&#45;&#45;6627147536 -->
<g id="edge1" class="edge">
<title>6626265808&#45;&#45;6627147536</title>
<path fill="none" stroke="black" d="M44.84,-890.78C82.51,-921.64 173.63,-996.24 215.87,-1030.83"/>
</g>
<!-- 6627147600 -->
<g id="node3" class="node">
<title>6627147600</title>
<ellipse fill="none" stroke="black" cx="239.06" cy="-995" rx="27" ry="18"/>
<text text-anchor="middle" x="239.06" y="-989.38" font-family="Times,serif" font-size="15.00">xor</text>
</g>
<!-- 6626265808&#45;&#45;6627147600 -->
<g id="edge4" class="edge">
<title>6626265808&#45;&#45;6627147600</title>
<path fill="none" stroke="black" d="M48.14,-888.31C88.19,-910.81 177.42,-960.94 217.67,-983.55"/>
</g>
<!-- 6623355728 -->
<g id="node6" class="node">
<title>6623355728</title>
<ellipse fill="none" stroke="black" cx="239.06" cy="-931" rx="108.55" ry="18"/>
<text text-anchor="middle" x="239.06" y="-925.38" font-family="Times,serif" font-size="15.00">OLO messaging active</text>
</g>
<!-- 6626265808&#45;&#45;6623355728 -->
<g id="edge5" class="edge">
<title>6626265808&#45;&#45;6623355728</title>
<path fill="none" stroke="black" d="M52.51,-883.3C83.24,-891.2 136.97,-905.01 178.73,-915.75"/>
</g>
<!-- 6626717456 -->
<g id="node7" class="node">
<title>6626717456</title>
<ellipse fill="none" stroke="black" cx="239.06" cy="-877" rx="27" ry="18"/>
<text text-anchor="middle" x="239.06" y="-871.38" font-family="Times,serif" font-size="15.00">and</text>
</g>
<!-- 6626265808&#45;&#45;6626717456 -->
<g id="edge21" class="edge">
<title>6626265808&#45;&#45;6626717456</title>
<path fill="none" stroke="black" d="M54.18,-877C94.54,-877 171.52,-877 211.89,-877"/>
</g>
<!-- 6626720400 -->
<g id="node23" class="node">
<title>6626720400</title>
<ellipse fill="none" stroke="black" cx="239.06" cy="-804" rx="27" ry="18"/>
<text text-anchor="middle" x="239.06" y="-798.38" font-family="Times,serif" font-size="15.00">xor</text>
</g>
<!-- 6626265808&#45;&#45;6626720400 -->
<g id="edge24" class="edge">
<title>6626265808&#45;&#45;6626720400</title>
<path fill="none" stroke="black" d="M51.28,-868.91C91.66,-854.88 174.23,-826.18 214.68,-812.13"/>
</g>
<!-- 6626475152 -->
<g id="node26" class="node">
<title>6626475152</title>
<ellipse fill="none" stroke="black" cx="239.06" cy="-711" rx="27" ry="18"/>
<text text-anchor="middle" x="239.06" y="-705.38" font-family="Times,serif" font-size="15.00">and</text>
</g>
<!-- 6626265808&#45;&#45;6626475152 -->
<g id="edge80" class="edge">
<title>6626265808&#45;&#45;6626475152</title>
<path fill="none" stroke="black" d="M45.19,-863.42C84.68,-832.21 181.5,-755.7 220.93,-724.54"/>
</g>
<!-- 6626788304 -->
<g id="node82" class="node">
<title>6626788304</title>
<ellipse fill="none" stroke="black" cx="239.06" cy="-525" rx="27" ry="18"/>
<text text-anchor="middle" x="239.06" y="-519.38" font-family="Times,serif" font-size="15.00">xor</text>
</g>
<!-- 6626265808&#45;&#45;6626788304 -->
<g id="edge102" class="edge">
<title>6626265808&#45;&#45;6626788304</title>
<path fill="none" stroke="black" d="M37.85,-860.49C73.05,-801.5 192.43,-601.46 227.99,-541.88"/>
</g>
<!-- 6625963408 -->
<g id="node4" class="node">
<title>6625963408</title>
<ellipse fill="black" stroke="black" cx="600.55" cy="-1044" rx="2.7" ry="2.7"/>
</g>
<!-- 6627147600&#45;&#45;6625963408 -->
<g id="edge2" class="edge">
<title>6627147600&#45;&#45;6625963408</title>
<path fill="none" stroke="black" d="M265.92,-998.52C343.84,-1009.14 572.58,-1040.32 597.37,-1043.7"/>
</g>
<!-- 6625957456 -->
<g id="node5" class="node">
<title>6625957456</title>
<ellipse fill="none" stroke="black" cx="600.55" cy="-1005" rx="176.42" ry="18"/>
<text text-anchor="middle" x="600.55" y="-999.38" font-family="Times,serif" font-size="15.00">enter senddate procedure confirmation</text>
</g>
<!-- 6627147600&#45;&#45;6625957456 -->
<g id="edge3" class="edge">
<title>6627147600&#45;&#45;6625957456</title>
<path fill="none" stroke="black" d="M266.5,-995.74C301.6,-996.71 366.57,-998.52 429.87,-1000.28"/>
</g>
<!-- 6626692880 -->
<g id="node8" class="node">
<title>6626692880</title>
<ellipse fill="none" stroke="black" cx="600.55" cy="-951" rx="27" ry="18"/>
<text text-anchor="middle" x="600.55" y="-945.38" font-family="Times,serif" font-size="15.00">xor</text>
</g>
<!-- 6626717456&#45;&#45;6626692880 -->
<g id="edge8" class="edge">
<title>6626717456&#45;&#45;6626692880</title>
<path fill="none" stroke="black" d="M265.34,-882.2C331.35,-895.79 508.33,-932.22 574.3,-945.8"/>
</g>
<!-- 6626692752 -->
<g id="node11" class="node">
<title>6626692752</title>
<ellipse fill="none" stroke="black" cx="600.55" cy="-897" rx="124.86" ry="18"/>
<text text-anchor="middle" x="600.55" y="-891.38" font-family="Times,serif" font-size="15.00">phase application received</text>
</g>
<!-- 6626717456&#45;&#45;6626692752 -->
<g id="edge9" class="edge">
<title>6626717456&#45;&#45;6626692752</title>
<path fill="none" stroke="black" d="M266.21,-878.45C311.29,-880.96 406.22,-886.24 483.29,-890.53"/>
</g>
<!-- 6626690704 -->
<g id="node12" class="node">
<title>6626690704</title>
<ellipse fill="none" stroke="black" cx="600.55" cy="-843" rx="27" ry="18"/>
<text text-anchor="middle" x="600.55" y="-837.38" font-family="Times,serif" font-size="15.00">seq</text>
</g>
<!-- 6626717456&#45;&#45;6626690704 -->
<g id="edge20" class="edge">
<title>6626717456&#45;&#45;6626690704</title>
<path fill="none" stroke="black" d="M266.21,-874.53C332.61,-868.25 507.21,-851.73 573.51,-845.46"/>
</g>
<!-- 6626696592 -->
<g id="node9" class="node">
<title>6626696592</title>
<ellipse fill="black" stroke="black" cx="991.5" cy="-986" rx="2.7" ry="2.7"/>
</g>
<!-- 6626692880&#45;&#45;6626696592 -->
<g id="edge6" class="edge">
<title>6626692880&#45;&#45;6626696592</title>
<path fill="none" stroke="black" d="M627.68,-953.35C710.45,-960.8 962.99,-983.52 988.43,-985.81"/>
</g>
<!-- 6626696208 -->
<g id="node10" class="node">
<title>6626696208</title>
<ellipse fill="none" stroke="black" cx="991.5" cy="-947" rx="112.76" ry="18"/>
<text text-anchor="middle" x="991.5" y="-941.38" font-family="Times,serif" font-size="15.00">applicant is stakeholder</text>
</g>
<!-- 6626692880&#45;&#45;6626696208 -->
<g id="edge7" class="edge">
<title>6626692880&#45;&#45;6626696208</title>
<path fill="none" stroke="black" d="M627.98,-950.73C678.68,-950.21 792.23,-949.04 878.84,-948.15"/>
</g>
<!-- 6626460944 -->
<g id="node13" class="node">
<title>6626460944</title>
<ellipse fill="none" stroke="black" cx="991.5" cy="-886" rx="27" ry="18"/>
<text text-anchor="middle" x="991.5" y="-880.38" font-family="Times,serif" font-size="15.00">and</text>
</g>
<!-- 6626690704&#45;&#45;6626460944 -->
<g id="edge14" class="edge">
<title>6626690704&#45;&#45;6626460944</title>
<path fill="none" stroke="black" d="M627.68,-845.89C698.53,-853.72 893.77,-875.31 964.49,-883.12"/>
</g>
<!-- 6626472784 -->
<g id="node18" class="node">
<title>6626472784</title>
<ellipse fill="none" stroke="black" cx="991.5" cy="-832" rx="27" ry="18"/>
<text text-anchor="middle" x="991.5" y="-826.38" font-family="Times,serif" font-size="15.00">xor</text>
</g>
<!-- 6626690704&#45;&#45;6626472784 -->
<g id="edge19" class="edge">
<title>6626690704&#45;&#45;6626472784</title>
<path fill="none" stroke="black" d="M627.98,-842.25C698.94,-840.25 893.04,-834.76 964.04,-832.75"/>
</g>
<!-- 6626472016 -->
<g id="node14" class="node">
<title>6626472016</title>
<ellipse fill="none" stroke="black" cx="1472.41" cy="-932" rx="152.75" ry="18"/>
<text text-anchor="middle" x="1472.41" y="-926.38" font-family="Times,serif" font-size="15.00">enter senddate acknowledgement</text>
</g>
<!-- 6626460944&#45;&#45;6626472016 -->
<g id="edge10" class="edge">
<title>6626460944&#45;&#45;6626472016</title>
<path fill="none" stroke="black" d="M1018.59,-888.51C1080.61,-894.46 1240.06,-909.78 1352.11,-920.54"/>
</g>
<!-- 6626467536 -->
<g id="node15" class="node">
<title>6626467536</title>
<ellipse fill="none" stroke="black" cx="1472.41" cy="-878" rx="47" ry="18"/>
<text text-anchor="middle" x="1472.41" y="-872.38" font-family="Times,serif" font-size="15.00">xor loop</text>
</g>
<!-- 6626460944&#45;&#45;6626467536 -->
<g id="edge13" class="edge">
<title>6626460944&#45;&#45;6626467536</title>
<path fill="none" stroke="black" d="M1018.93,-885.56C1096.78,-884.26 1325.95,-880.43 1424.97,-878.78"/>
</g>
<!-- 6626460880 -->
<g id="node16" class="node">
<title>6626460880</title>
<ellipse fill="none" stroke="black" cx="1978.58" cy="-907" rx="121.18" ry="18"/>
<text text-anchor="middle" x="1978.58" y="-901.38" font-family="Times,serif" font-size="15.00">send confirmation receipt</text>
</g>
<!-- 6626467536&#45;&#45;6626460880 -->
<g id="edge11" class="edge">
<title>6626467536&#45;&#45;6626460880</title>
<path fill="none" stroke="black" d="M1519.04,-880.62C1596.49,-885.08 1755.84,-894.25 1864.71,-900.51"/>
</g>
<!-- 6626462672 -->
<g id="node17" class="node">
<title>6626462672</title>
<ellipse fill="black" stroke="black" cx="1978.58" cy="-868" rx="2.7" ry="2.7"/>
</g>
<!-- 6626467536&#45;&#45;6626462672 -->
<g id="edge12" class="edge">
<title>6626467536&#45;&#45;6626462672</title>
<path fill="none" stroke="black" d="M1519.49,-877.09C1638.12,-874.73 1946.76,-868.61 1975.44,-868.04"/>
</g>
<!-- 6626459728 -->
<g id="node19" class="node">
<title>6626459728</title>
<ellipse fill="black" stroke="black" cx="1472.41" cy="-839" rx="2.7" ry="2.7"/>
</g>
<!-- 6626472784&#45;&#45;6626459728 -->
<g id="edge15" class="edge">
<title>6626472784&#45;&#45;6626459728</title>
<path fill="none" stroke="black" d="M1018.93,-832.39C1115.02,-833.79 1441.62,-838.56 1469.51,-838.97"/>
</g>
<!-- 6626467920 -->
<g id="node20" class="node">
<title>6626467920</title>
<ellipse fill="none" stroke="black" cx="1472.41" cy="-800" rx="47" ry="18"/>
<text text-anchor="middle" x="1472.41" y="-794.38" font-family="Times,serif" font-size="15.00">xor loop</text>
</g>
<!-- 6626472784&#45;&#45;6626467920 -->
<g id="edge18" class="edge">
<title>6626472784&#45;&#45;6626467920</title>
<path fill="none" stroke="black" d="M1018.59,-830.26C1096.28,-825.07 1326.81,-809.66 1425.62,-803.06"/>
</g>
<!-- 6626465040 -->
<g id="node21" class="node">
<title>6626465040</title>
<ellipse fill="none" stroke="black" cx="1978.58" cy="-810" rx="203.78" ry="18"/>
<text text-anchor="middle" x="1978.58" y="-804.38" font-family="Times,serif" font-size="15.00">no permit needed or only notification needed</text>
</g>
<!-- 6626467920&#45;&#45;6626465040 -->
<g id="edge16" class="edge">
<title>6626467920&#45;&#45;6626465040</title>
<path fill="none" stroke="black" d="M1519.49,-800.91C1578.38,-802.08 1684.09,-804.18 1779.14,-806.06"/>
</g>
<!-- 6626474192 -->
<g id="node22" class="node">
<title>6626474192</title>
<ellipse fill="black" stroke="black" cx="1978.58" cy="-771" rx="2.7" ry="2.7"/>
</g>
<!-- 6626467920&#45;&#45;6626474192 -->
<g id="edge17" class="edge">
<title>6626467920&#45;&#45;6626474192</title>
<path fill="none" stroke="black" d="M1519.04,-797.38C1637.33,-790.57 1946.69,-772.78 1975.43,-771.12"/>
</g>
<!-- 6626459856 -->
<g id="node24" class="node">
<title>6626459856</title>
<ellipse fill="black" stroke="black" cx="600.55" cy="-804" rx="2.7" ry="2.7"/>
</g>
<!-- 6626720400&#45;&#45;6626459856 -->
<g id="edge22" class="edge">
<title>6626720400&#45;&#45;6626459856</title>
<path fill="none" stroke="black" d="M266.5,-804C344.98,-804 572.7,-804 597.38,-804"/>
</g>
<!-- 6626471120 -->
<g id="node25" class="node">
<title>6626471120</title>
<ellipse fill="none" stroke="black" cx="600.55" cy="-765" rx="135.39" ry="18"/>
<text text-anchor="middle" x="600.55" y="-759.38" font-family="Times,serif" font-size="15.00">calculate provisional charges</text>
</g>
<!-- 6626720400&#45;&#45;6626471120 -->
<g id="edge23" class="edge">
<title>6626720400&#45;&#45;6626471120</title>
<path fill="none" stroke="black" d="M266.21,-801.16C313.39,-796.05 415.17,-785 493.94,-776.46"/>
</g>
<!-- 6626464016 -->
<g id="node27" class="node">
<title>6626464016</title>
<ellipse fill="none" stroke="black" cx="600.55" cy="-711" rx="147.49" ry="18"/>
<text text-anchor="middle" x="600.55" y="-705.38" font-family="Times,serif" font-size="15.00">regular procedure without MER</text>
</g>
<!-- 6626475152&#45;&#45;6626464016 -->
<g id="edge25" class="edge">
<title>6626475152&#45;&#45;6626464016</title>
<path fill="none" stroke="black" d="M266.5,-711C305.9,-711 382.92,-711 452.98,-711"/>
</g>
<!-- 6626471696 -->
<g id="node28" class="node">
<title>6626471696</title>
<ellipse fill="none" stroke="black" cx="600.55" cy="-657" rx="27" ry="18"/>
<text text-anchor="middle" x="600.55" y="-651.38" font-family="Times,serif" font-size="15.00">seq</text>
</g>
<!-- 6626475152&#45;&#45;6626471696 -->
<g id="edge79" class="edge">
<title>6626475152&#45;&#45;6626471696</title>
<path fill="none" stroke="black" d="M265.92,-707.12C332.25,-697.15 507.86,-670.77 573.93,-660.85"/>
</g>
<!-- 6626467472 -->
<g id="node29" class="node">
<title>6626467472</title>
<ellipse fill="none" stroke="black" cx="991.5" cy="-705" rx="27" ry="18"/>
<text text-anchor="middle" x="991.5" y="-699.38" font-family="Times,serif" font-size="15.00">xor</text>
</g>
<!-- 6626471696&#45;&#45;6626467472 -->
<g id="edge28" class="edge">
<title>6626471696&#45;&#45;6626467472</title>
<path fill="none" stroke="black" d="M627.37,-660.19C697.95,-668.9 893.56,-693.04 964.43,-701.78"/>
</g>
<!-- 6626468176 -->
<g id="node32" class="node">
<title>6626468176</title>
<ellipse fill="none" stroke="black" cx="991.5" cy="-651" rx="27" ry="18"/>
<text text-anchor="middle" x="991.5" y="-645.38" font-family="Times,serif" font-size="15.00">and</text>
</g>
<!-- 6626471696&#45;&#45;6626468176 -->
<g id="edge78" class="edge">
<title>6626471696&#45;&#45;6626468176</title>
<path fill="none" stroke="black" d="M627.98,-656.59C698.94,-655.5 893.04,-652.5 964.04,-651.41"/>
</g>
<!-- 6626469520 -->
<g id="node30" class="node">
<title>6626469520</title>
<ellipse fill="black" stroke="black" cx="1472.41" cy="-744" rx="2.7" ry="2.7"/>
</g>
<!-- 6626467472&#45;&#45;6626469520 -->
<g id="edge26" class="edge">
<title>6626467472&#45;&#45;6626469520</title>
<path fill="none" stroke="black" d="M1018.59,-707.12C1114.23,-714.91 1441.55,-741.57 1469.51,-743.84"/>
</g>
<!-- 6626465296 -->
<g id="node31" class="node">
<title>6626465296</title>
<ellipse fill="none" stroke="black" cx="1472.41" cy="-705" rx="72.25" ry="18"/>
<text text-anchor="middle" x="1472.41" y="-699.38" font-family="Times,serif" font-size="15.00">MER required</text>
</g>
<!-- 6626467472&#45;&#45;6626465296 -->
<g id="edge27" class="edge">
<title>6626467472&#45;&#45;6626465296</title>
<path fill="none" stroke="black" d="M1018.93,-705C1090.8,-705 1291.63,-705 1399.97,-705"/>
</g>
<!-- 6626469136 -->
<g id="node33" class="node">
<title>6626469136</title>
<ellipse fill="none" stroke="black" cx="1472.41" cy="-651" rx="160.64" ry="18"/>
<text text-anchor="middle" x="1472.41" y="-645.38" font-family="Times,serif" font-size="15.00">forward to the competent authority</text>
</g>
<!-- 6626468176&#45;&#45;6626469136 -->
<g id="edge29" class="edge">
<title>6626468176&#45;&#45;6626469136</title>
<path fill="none" stroke="black" d="M1018.93,-651C1073.93,-651 1204.48,-651 1311.29,-651"/>
</g>
<!-- 6626473744 -->
<g id="node34" class="node">
<title>6626473744</title>
<ellipse fill="none" stroke="black" cx="1472.41" cy="-597" rx="27" ry="18"/>
<text text-anchor="middle" x="1472.41" y="-591.38" font-family="Times,serif" font-size="15.00">seq</text>
</g>
<!-- 6626468176&#45;&#45;6626473744 -->
<g id="edge77" class="edge">
<title>6626468176&#45;&#45;6626473744</title>
<path fill="none" stroke="black" d="M1018.59,-648.06C1102.03,-638.65 1361.82,-609.36 1445.3,-599.94"/>
</g>
<!-- 6626464080 -->
<g id="node35" class="node">
<title>6626464080</title>
<ellipse fill="none" stroke="black" cx="1978.58" cy="-624" rx="27" ry="18"/>
<text text-anchor="middle" x="1978.58" y="-618.38" font-family="Times,serif" font-size="15.00">xor</text>
</g>
<!-- 6626473744&#45;&#45;6626464080 -->
<g id="edge32" class="edge">
<title>6626473744&#45;&#45;6626464080</title>
<path fill="none" stroke="black" d="M1499.81,-598.41C1586.93,-603.08 1864.71,-617.96 1951.45,-622.6"/>
</g>
<!-- 6626462544 -->
<g id="node38" class="node">
<title>6626462544</title>
<ellipse fill="none" stroke="black" cx="1978.58" cy="-570" rx="27" ry="18"/>
<text text-anchor="middle" x="1978.58" y="-564.38" font-family="Times,serif" font-size="15.00">and</text>
</g>
<!-- 6626473744&#45;&#45;6626462544 -->
<g id="edge76" class="edge">
<title>6626473744&#45;&#45;6626462544</title>
<path fill="none" stroke="black" d="M1499.81,-595.59C1586.93,-590.92 1864.71,-576.04 1951.45,-571.4"/>
</g>
<!-- 6626474064 -->
<g id="node36" class="node">
<title>6626474064</title>
<ellipse fill="black" stroke="black" cx="2375.32" cy="-663" rx="2.7" ry="2.7"/>
</g>
<!-- 6626464080&#45;&#45;6626474064 -->
<g id="edge30" class="edge">
<title>6626464080&#45;&#45;6626474064</title>
<path fill="none" stroke="black" d="M2005.79,-626.59C2089.47,-634.86 2346.34,-660.24 2372.21,-662.79"/>
</g>
<!-- 6626461648 -->
<g id="node37" class="node">
<title>6626461648</title>
<ellipse fill="none" stroke="black" cx="2375.32" cy="-624" rx="156.96" ry="18"/>
<text text-anchor="middle" x="2375.32" y="-618.38" font-family="Times,serif" font-size="15.00">no permit required for application</text>
</g>
<!-- 6626464080&#45;&#45;6626461648 -->
<g id="edge31" class="edge">
<title>6626464080&#45;&#45;6626461648</title>
<path fill="none" stroke="black" d="M2005.79,-624C2048.92,-624 2138.06,-624 2217.87,-624"/>
</g>
<!-- 6626114832 -->
<g id="node39" class="node">
<title>6626114832</title>
<ellipse fill="none" stroke="black" cx="2375.32" cy="-570" rx="27" ry="18"/>
<text text-anchor="middle" x="2375.32" y="-564.38" font-family="Times,serif" font-size="15.00">xor</text>
</g>
<!-- 6626462544&#45;&#45;6626114832 -->
<g id="edge35" class="edge">
<title>6626462544&#45;&#45;6626114832</title>
<path fill="none" stroke="black" d="M2005.79,-570C2077.42,-570 2275.94,-570 2347.86,-570"/>
</g>
<!-- 6626108496 -->
<g id="node42" class="node">
<title>6626108496</title>
<ellipse fill="none" stroke="black" cx="2375.32" cy="-489" rx="27" ry="18"/>
<text text-anchor="middle" x="2375.32" y="-483.38" font-family="Times,serif" font-size="15.00">seq</text>
</g>
<!-- 6626462544&#45;&#45;6626108496 -->
<g id="edge75" class="edge">
<title>6626462544&#45;&#45;6626108496</title>
<path fill="none" stroke="black" d="M2004.87,-564.81C2076.09,-550.2 2277.71,-508.82 2348.98,-494.2"/>
</g>
<!-- 6626099856 -->
<g id="node40" class="node">
<title>6626099856</title>
<ellipse fill="black" stroke="black" cx="2674.2" cy="-609" rx="2.7" ry="2.7"/>
</g>
<!-- 6626114832&#45;&#45;6626099856 -->
<g id="edge33" class="edge">
<title>6626114832&#45;&#45;6626099856</title>
<path fill="none" stroke="black" d="M2402.14,-573.39C2470.42,-582.36 2651.83,-606.19 2671.47,-608.77"/>
</g>
<!-- 6626105040 -->
<g id="node41" class="node">
<title>6626105040</title>
<ellipse fill="none" stroke="black" cx="2674.2" cy="-570" rx="105.92" ry="18"/>
<text text-anchor="middle" x="2674.2" y="-564.38" font-family="Times,serif" font-size="15.00">start WABOprocedure</text>
</g>
<!-- 6626114832&#45;&#45;6626105040 -->
<g id="edge34" class="edge">
<title>6626114832&#45;&#45;6626105040</title>
<path fill="none" stroke="black" d="M2402.66,-570C2439.56,-570 2508.75,-570 2567.91,-570"/>
</g>
<!-- 6626115152 -->
<g id="node43" class="node">
<title>6626115152</title>
<ellipse fill="none" stroke="black" cx="2674.2" cy="-516" rx="27" ry="18"/>
<text text-anchor="middle" x="2674.2" y="-510.38" font-family="Times,serif" font-size="15.00">xor</text>
</g>
<!-- 6626108496&#45;&#45;6626115152 -->
<g id="edge42" class="edge">
<title>6626108496&#45;&#45;6626115152</title>
<path fill="none" stroke="black" d="M2402.4,-491.37C2458.72,-496.49 2591.11,-508.53 2647.28,-513.64"/>
</g>
<!-- 6626111824 -->
<g id="node50" class="node">
<title>6626111824</title>
<ellipse fill="none" stroke="black" cx="2674.2" cy="-455" rx="27" ry="18"/>
<text text-anchor="middle" x="2674.2" y="-449.38" font-family="Times,serif" font-size="15.00">xor</text>
</g>
<!-- 6626108496&#45;&#45;6626111824 -->
<g id="edge50" class="edge">
<title>6626108496&#45;&#45;6626111824</title>
<path fill="none" stroke="black" d="M2402.4,-486.01C2458.72,-479.56 2591.11,-464.4 2647.28,-457.97"/>
</g>
<!-- 6626106320 -->
<g id="node58" class="node">
<title>6626106320</title>
<ellipse fill="none" stroke="black" cx="2674.2" cy="-298" rx="27" ry="18"/>
<text text-anchor="middle" x="2674.2" y="-292.38" font-family="Times,serif" font-size="15.00">and</text>
</g>
<!-- 6626108496&#45;&#45;6626106320 -->
<g id="edge74" class="edge">
<title>6626108496&#45;&#45;6626106320</title>
<path fill="none" stroke="black" d="M2395.34,-476.76C2448.83,-442.35 2600.18,-344.98 2653.95,-310.38"/>
</g>
<!-- 6626100752 -->
<g id="node44" class="node">
<title>6626100752</title>
<ellipse fill="black" stroke="black" cx="2843.12" cy="-557" rx="2.7" ry="2.7"/>
</g>
<!-- 6626115152&#45;&#45;6626100752 -->
<g id="edge36" class="edge">
<title>6626115152&#45;&#45;6626100752</title>
<path fill="none" stroke="black" d="M2699.83,-522.05C2742.27,-532.47 2826.01,-553.04 2840.09,-556.5"/>
</g>
<!-- 6626100944 -->
<g id="node45" class="node">
<title>6626100944</title>
<ellipse fill="none" stroke="black" cx="2843.12" cy="-518" rx="27" ry="18"/>
<text text-anchor="middle" x="2843.12" y="-512.38" font-family="Times,serif" font-size="15.00">seq</text>
</g>
<!-- 6626115152&#45;&#45;6626100944 -->
<g id="edge41" class="edge">
<title>6626115152&#45;&#45;6626100944</title>
<path fill="none" stroke="black" d="M2701.65,-516.32C2732.9,-516.69 2784.59,-517.31 2815.79,-517.68"/>
</g>
<!-- 6626102416 -->
<g id="node46" class="node">
<title>6626102416</title>
<ellipse fill="none" stroke="black" cx="3046.77" cy="-573" rx="99.08" ry="18"/>
<text text-anchor="middle" x="3046.77" y="-567.38" font-family="Times,serif" font-size="15.00">terminate on request</text>
</g>
<!-- 6626100944&#45;&#45;6626102416 -->
<g id="edge37" class="edge">
<title>6626100944&#45;&#45;6626102416</title>
<path fill="none" stroke="black" d="M2868.44,-524.63C2898.4,-532.81 2950.22,-546.94 2990.13,-557.82"/>
</g>
<!-- 6626100240 -->
<g id="node47" class="node">
<title>6626100240</title>
<ellipse fill="none" stroke="black" cx="3046.77" cy="-519" rx="27" ry="18"/>
<text text-anchor="middle" x="3046.77" y="-513.38" font-family="Times,serif" font-size="15.00">xor</text>
</g>
<!-- 6626100944&#45;&#45;6626100240 -->
<g id="edge40" class="edge">
<title>6626100944&#45;&#45;6626100240</title>
<path fill="none" stroke="black" d="M2870.48,-518.13C2909.13,-518.32 2980.75,-518.68 3019.4,-518.87"/>
</g>
<!-- 6626108304 -->
<g id="node48" class="node">
<title>6626108304</title>
<ellipse fill="black" stroke="black" cx="3348.8" cy="-554" rx="2.7" ry="2.7"/>
</g>
<!-- 6626100240&#45;&#45;6626108304 -->
<g id="edge38" class="edge">
<title>6626100240&#45;&#45;6626108304</title>
<path fill="none" stroke="black" d="M3073.87,-522.04C3142.87,-530.09 3326.21,-551.48 3346.05,-553.8"/>
</g>
<!-- 6626100368 -->
<g id="node49" class="node">
<title>6626100368</title>
<ellipse fill="none" stroke="black" cx="3348.8" cy="-515" rx="125.39" ry="18"/>
<text text-anchor="middle" x="3348.8" y="-509.38" font-family="Times,serif" font-size="15.00">inform BAG administrator</text>
</g>
<!-- 6626100240&#45;&#45;6626100368 -->
<g id="edge39" class="edge">
<title>6626100240&#45;&#45;6626100368</title>
<path fill="none" stroke="black" d="M3074.13,-518.65C3107.73,-518.2 3168.14,-517.4 3223.67,-516.65"/>
</g>
<!-- 6626106576 -->
<g id="node51" class="node">
<title>6626106576</title>
<ellipse fill="black" stroke="black" cx="2843.12" cy="-455" rx="2.7" ry="2.7"/>
</g>
<!-- 6626111824&#45;&#45;6626106576 -->
<g id="edge43" class="edge">
<title>6626111824&#45;&#45;6626106576</title>
<path fill="none" stroke="black" d="M2701.65,-455C2744.67,-455 2826.41,-455 2840.14,-455"/>
</g>
<!-- 6626109968 -->
<g id="node52" class="node">
<title>6626109968</title>
<ellipse fill="none" stroke="black" cx="2843.12" cy="-412" rx="27" ry="18"/>
<text text-anchor="middle" x="2843.12" y="-406.38" font-family="Times,serif" font-size="15.00">seq</text>
</g>
<!-- 6626111824&#45;&#45;6626109968 -->
<g id="edge49" class="edge">
<title>6626111824&#45;&#45;6626109968</title>
<path fill="none" stroke="black" d="M2699.83,-448.66C2731.39,-440.53 2785.78,-426.51 2817.39,-418.37"/>
</g>
<!-- 6626111120 -->
<g id="node53" class="node">
<title>6626111120</title>
<ellipse fill="none" stroke="black" cx="3046.77" cy="-465" rx="27" ry="18"/>
<text text-anchor="middle" x="3046.77" y="-459.38" font-family="Times,serif" font-size="15.00">xor</text>
</g>
<!-- 6626109968&#45;&#45;6626111120 -->
<g id="edge46" class="edge">
<title>6626109968&#45;&#45;6626111120</title>
<path fill="none" stroke="black" d="M2868.85,-418.5C2907.65,-428.7 2982.42,-448.35 3021.15,-458.53"/>
</g>
<!-- 6626109520 -->
<g id="node56" class="node">
<title>6626109520</title>
<ellipse fill="none" stroke="black" cx="3046.77" cy="-411" rx="129.07" ry="18"/>
<text text-anchor="middle" x="3046.77" y="-405.38" font-family="Times,serif" font-size="15.00">activities regular procedure</text>
</g>
<!-- 6626109968&#45;&#45;6626109520 -->
<g id="edge47" class="edge">
<title>6626109968&#45;&#45;6626109520</title>
<path fill="none" stroke="black" d="M2870.48,-411.87C2883.29,-411.81 2899.73,-411.72 2917.38,-411.64"/>
</g>
<!-- 6626102096 -->
<g id="node57" class="node">
<title>6626102096</title>
<ellipse fill="none" stroke="black" cx="3046.77" cy="-357" rx="91.19" ry="18"/>
<text text-anchor="middle" x="3046.77" y="-351.38" font-family="Times,serif" font-size="15.00">phased application</text>
</g>
<!-- 6626109968&#45;&#45;6626102096 -->
<g id="edge48" class="edge">
<title>6626109968&#45;&#45;6626102096</title>
<path fill="none" stroke="black" d="M2868.44,-405.37C2898.82,-397.08 2951.67,-382.66 2991.8,-371.72"/>
</g>
<!-- 6626100304 -->
<g id="node54" class="node">
<title>6626100304</title>
<ellipse fill="black" stroke="black" cx="3348.8" cy="-469" rx="2.7" ry="2.7"/>
</g>
<!-- 6626111120&#45;&#45;6626100304 -->
<g id="edge44" class="edge">
<title>6626111120&#45;&#45;6626100304</title>
<path fill="none" stroke="black" d="M3074.13,-465.35C3143.34,-466.27 3326.26,-468.71 3346.06,-468.98"/>
</g>
<!-- 6626107920 -->
<g id="node55" class="node">
<title>6626107920</title>
<ellipse fill="none" stroke="black" cx="3348.8" cy="-430" rx="67.52" ry="18"/>
<text text-anchor="middle" x="3348.8" y="-424.38" font-family="Times,serif" font-size="15.00">MER present</text>
</g>
<!-- 6626111120&#45;&#45;6626107920 -->
<g id="edge45" class="edge">
<title>6626111120&#45;&#45;6626107920</title>
<path fill="none" stroke="black" d="M3073.87,-461.96C3120.92,-456.47 3221.11,-444.78 3286.4,-437.16"/>
</g>
<!-- 6626105616 -->
<g id="node59" class="node">
<title>6626105616</title>
<ellipse fill="none" stroke="black" cx="2843.12" cy="-298" rx="27" ry="18"/>
<text text-anchor="middle" x="2843.12" y="-292.38" font-family="Times,serif" font-size="15.00">xor</text>
</g>
<!-- 6626106320&#45;&#45;6626105616 -->
<g id="edge53" class="edge">
<title>6626106320&#45;&#45;6626105616</title>
<path fill="none" stroke="black" d="M2701.65,-298C2732.9,-298 2784.59,-298 2815.79,-298"/>
</g>
<!-- 6626102288 -->
<g id="node62" class="node">
<title>6626102288</title>
<ellipse fill="none" stroke="black" cx="2843.12" cy="-225" rx="27" ry="18"/>
<text text-anchor="middle" x="2843.12" y="-219.38" font-family="Times,serif" font-size="15.00">xor</text>
</g>
<!-- 6626106320&#45;&#45;6626102288 -->
<g id="edge73" class="edge">
<title>6626106320&#45;&#45;6626102288</title>
<path fill="none" stroke="black" d="M2697.36,-288.31C2729.29,-274.34 2787.88,-248.72 2819.86,-234.73"/>
</g>
<!-- 6626099600 -->
<g id="node60" class="node">
<title>6626099600</title>
<ellipse fill="black" stroke="black" cx="3046.77" cy="-318" rx="2.7" ry="2.7"/>
</g>
<!-- 6626105616&#45;&#45;6626099600 -->
<g id="edge51" class="edge">
<title>6626105616&#45;&#45;6626099600</title>
<path fill="none" stroke="black" d="M2870.07,-300.57C2920.28,-305.55 3027.23,-316.16 3043.64,-317.79"/>
</g>
<!-- 6626111376 -->
<g id="node61" class="node">
<title>6626111376</title>
<ellipse fill="none" stroke="black" cx="3046.77" cy="-279" rx="140.65" ry="18"/>
<text text-anchor="middle" x="3046.77" y="-273.38" font-family="Times,serif" font-size="15.00">create procedure confirmation</text>
</g>
<!-- 6626105616&#45;&#45;6626111376 -->
<g id="edge52" class="edge">
<title>6626105616&#45;&#45;6626111376</title>
<path fill="none" stroke="black" d="M2870.07,-295.55C2886.45,-294.01 2908.87,-291.9 2932.22,-289.7"/>
</g>
<!-- 6626113104 -->
<g id="node63" class="node">
<title>6626113104</title>
<ellipse fill="none" stroke="black" cx="3046.77" cy="-225" rx="134.86" ry="18"/>
<text text-anchor="middle" x="3046.77" y="-219.38" font-family="Times,serif" font-size="15.00">read field phased application</text>
</g>
<!-- 6626102288&#45;&#45;6626113104 -->
<g id="edge54" class="edge">
<title>6626102288&#45;&#45;6626113104</title>
<path fill="none" stroke="black" d="M2870.48,-225C2881.9,-225 2896.21,-225 2911.69,-225"/>
</g>
<!-- 6626111568 -->
<g id="node64" class="node">
<title>6626111568</title>
<ellipse fill="none" stroke="black" cx="3046.77" cy="-171" rx="27" ry="18"/>
<text text-anchor="middle" x="3046.77" y="-165.38" font-family="Times,serif" font-size="15.00">seq</text>
</g>
<!-- 6626102288&#45;&#45;6626111568 -->
<g id="edge72" class="edge">
<title>6626102288&#45;&#45;6626111568</title>
<path fill="none" stroke="black" d="M2868.44,-218.49C2907.2,-208.11 2982.55,-187.93 3021.36,-177.54"/>
</g>
<!-- 6625946896 -->
<g id="node65" class="node">
<title>6625946896</title>
<ellipse fill="none" stroke="black" cx="3348.8" cy="-230" rx="27" ry="18"/>
<text text-anchor="middle" x="3348.8" y="-224.38" font-family="Times,serif" font-size="15.00">xor</text>
</g>
<!-- 6626111568&#45;&#45;6625946896 -->
<g id="edge57" class="edge">
<title>6626111568&#45;&#45;6625946896</title>
<path fill="none" stroke="black" d="M3073.09,-175.98C3129.74,-187.12 3266.16,-213.95 3322.65,-225.05"/>
</g>
<!-- 6625947088 -->
<g id="node68" class="node">
<title>6625947088</title>
<ellipse fill="none" stroke="black" cx="3348.8" cy="-171" rx="27" ry="18"/>
<text text-anchor="middle" x="3348.8" y="-165.38" font-family="Times,serif" font-size="15.00">xor</text>
</g>
<!-- 6626111568&#45;&#45;6625947088 -->
<g id="edge64" class="edge">
<title>6626111568&#45;&#45;6625947088</title>
<path fill="none" stroke="black" d="M3074.13,-171C3131.04,-171 3264.84,-171 3321.61,-171"/>
</g>
<!-- 6625949136 -->
<g id="node75" class="node">
<title>6625949136</title>
<ellipse fill="none" stroke="black" cx="3348.8" cy="-113" rx="27" ry="18"/>
<text text-anchor="middle" x="3348.8" y="-107.38" font-family="Times,serif" font-size="15.00">xor</text>
</g>
<!-- 6626111568&#45;&#45;6625949136 -->
<g id="edge71" class="edge">
<title>6626111568&#45;&#45;6625949136</title>
<path fill="none" stroke="black" d="M3073.09,-166.1C3129.74,-155.15 3266.16,-128.78 3322.65,-117.86"/>
</g>
<!-- 6625943824 -->
<g id="node66" class="node">
<title>6625943824</title>
<ellipse fill="none" stroke="black" cx="3647.68" cy="-284" rx="134.33" ry="18"/>
<text text-anchor="middle" x="3647.68" y="-278.38" font-family="Times,serif" font-size="15.00">send procedure confirmation</text>
</g>
<!-- 6625946896&#45;&#45;6625943824 -->
<g id="edge55" class="edge">
<title>6625946896&#45;&#45;6625943824</title>
<path fill="none" stroke="black" d="M3375.37,-234.65C3417.28,-242.27 3502.32,-257.74 3566.08,-269.34"/>
</g>
<!-- 6625937616 -->
<g id="node67" class="node">
<title>6625937616</title>
<ellipse fill="none" stroke="black" cx="3647.68" cy="-230" rx="137.49" ry="18"/>
<text text-anchor="middle" x="3647.68" y="-224.38" font-family="Times,serif" font-size="15.00">create subcases completeness</text>
</g>
<!-- 6625946896&#45;&#45;6625937616 -->
<g id="edge56" class="edge">
<title>6625946896&#45;&#45;6625937616</title>
<path fill="none" stroke="black" d="M3376.15,-230C3406.66,-230 3459.25,-230 3510,-230"/>
</g>
<!-- 6625946768 -->
<g id="node69" class="node">
<title>6625946768</title>
<ellipse fill="black" stroke="black" cx="3647.68" cy="-191" rx="2.7" ry="2.7"/>
</g>
<!-- 6625947088&#45;&#45;6625946768 -->
<g id="edge58" class="edge">
<title>6625947088&#45;&#45;6625946768</title>
<path fill="none" stroke="black" d="M3376.15,-172.77C3444.83,-177.4 3625.41,-189.57 3644.96,-190.88"/>
</g>
<!-- 6625949008 -->
<g id="node70" class="node">
<title>6625949008</title>
<ellipse fill="none" stroke="black" cx="3647.68" cy="-152" rx="27" ry="18"/>
<text text-anchor="middle" x="3647.68" y="-146.38" font-family="Times,serif" font-size="15.00">seq</text>
</g>
<!-- 6625947088&#45;&#45;6625949008 -->
<g id="edge63" class="edge">
<title>6625947088&#45;&#45;6625949008</title>
<path fill="none" stroke="black" d="M3376.15,-169.31C3432.49,-165.71 3564.11,-157.28 3620.4,-153.68"/>
</g>
<!-- 6625951504 -->
<g id="node71" class="node">
<title>6625951504</title>
<ellipse fill="none" stroke="black" cx="3952.35" cy="-195" rx="131.18" ry="18"/>
<text text-anchor="middle" x="3952.35" y="-189.38" font-family="Times,serif" font-size="15.00">treat subcases completeness</text>
</g>
<!-- 6625949008&#45;&#45;6625951504 -->
<g id="edge59" class="edge">
<title>6625949008&#45;&#45;6625951504</title>
<path fill="none" stroke="black" d="M3674.49,-155.67C3715.02,-161.42 3795.55,-172.87 3859.35,-181.93"/>
</g>
<!-- 6625941200 -->
<g id="node72" class="node">
<title>6625941200</title>
<ellipse fill="none" stroke="black" cx="3952.35" cy="-141" rx="27" ry="18"/>
<text text-anchor="middle" x="3952.35" y="-135.38" font-family="Times,serif" font-size="15.00">xor</text>
</g>
<!-- 6625949008&#45;&#45;6625941200 -->
<g id="edge62" class="edge">
<title>6625949008&#45;&#45;6625941200</title>
<path fill="none" stroke="black" d="M3675.01,-151.04C3732.4,-148.96 3868.16,-144.02 3925.3,-141.95"/>
</g>
<!-- 6625939920 -->
<g id="node73" class="node">
<title>6625939920</title>
<ellipse fill="black" stroke="black" cx="4275.96" cy="-162" rx="2.7" ry="2.7"/>
</g>
<!-- 6625941200&#45;&#45;6625939920 -->
<g id="edge60" class="edge">
<title>6625941200&#45;&#45;6625939920</title>
<path fill="none" stroke="black" d="M3979.67,-142.72C4052.28,-147.46 4251.48,-160.47 4273.05,-161.88"/>
</g>
<!-- 6625949328 -->
<g id="node74" class="node">
<title>6625949328</title>
<ellipse fill="none" stroke="black" cx="4275.96" cy="-123" rx="156.43" ry="18"/>
<text text-anchor="middle" x="4275.96" y="-117.38" font-family="Times,serif" font-size="15.00">subcases completeness completed</text>
</g>
<!-- 6625941200&#45;&#45;6625949328 -->
<g id="edge61" class="edge">
<title>6625941200&#45;&#45;6625949328</title>
<path fill="none" stroke="black" d="M3979.67,-139.53C4013.8,-137.62 4075.9,-134.14 4134.37,-130.87"/>
</g>
<!-- 6626800272 -->
<g id="node76" class="node">
<title>6626800272</title>
<ellipse fill="black" stroke="black" cx="3647.68" cy="-113" rx="2.7" ry="2.7"/>
</g>
<!-- 6625949136&#45;&#45;6626800272 -->
<g id="edge65" class="edge">
<title>6625949136&#45;&#45;6626800272</title>
<path fill="none" stroke="black" d="M3376.15,-113C3444.83,-113 3625.41,-113 3644.96,-113"/>
</g>
<!-- 6626801104 -->
<g id="node77" class="node">
<title>6626801104</title>
<ellipse fill="none" stroke="black" cx="3647.68" cy="-74" rx="27" ry="18"/>
<text text-anchor="middle" x="3647.68" y="-68.38" font-family="Times,serif" font-size="15.00">seq</text>
</g>
<!-- 6625949136&#45;&#45;6626801104 -->
<g id="edge70" class="edge">
<title>6625949136&#45;&#45;6626801104</title>
<path fill="none" stroke="black" d="M3375.63,-109.61C3431.78,-102.23 3564.42,-84.81 3620.7,-77.41"/>
</g>
<!-- 6626801232 -->
<g id="node78" class="node">
<title>6626801232</title>
<ellipse fill="none" stroke="black" cx="3952.35" cy="-85" rx="86.46" ry="18"/>
<text text-anchor="middle" x="3952.35" y="-79.38" font-family="Times,serif" font-size="15.00">procedure change</text>
</g>
<!-- 6626801104&#45;&#45;6626801232 -->
<g id="edge66" class="edge">
<title>6626801104&#45;&#45;6626801232</title>
<path fill="none" stroke="black" d="M3675.01,-74.96C3717.3,-76.49 3802.14,-79.58 3866.72,-81.92"/>
</g>
<!-- 6626791824 -->
<g id="node79" class="node">
<title>6626791824</title>
<ellipse fill="none" stroke="black" cx="3952.35" cy="-31" rx="27" ry="18"/>
<text text-anchor="middle" x="3952.35" y="-25.38" font-family="Times,serif" font-size="15.00">xor</text>
</g>
<!-- 6626801104&#45;&#45;6626791824 -->
<g id="edge69" class="edge">
<title>6626801104&#45;&#45;6626791824</title>
<path fill="none" stroke="black" d="M3674.49,-70.33C3731.67,-62.21 3868.49,-42.77 3925.61,-34.66"/>
</g>
<!-- 6626799504 -->
<g id="node80" class="node">
<title>6626799504</title>
<ellipse fill="black" stroke="black" cx="4275.96" cy="-66" rx="2.7" ry="2.7"/>
</g>
<!-- 6626791824&#45;&#45;6626799504 -->
<g id="edge67" class="edge">
<title>6626791824&#45;&#45;6626799504</title>
<path fill="none" stroke="black" d="M3979.39,-33.83C4051.77,-41.71 4251.43,-63.44 4273.05,-65.79"/>
</g>
<!-- 6626803664 -->
<g id="node81" class="node">
<title>6626803664</title>
<ellipse fill="none" stroke="black" cx="4275.96" cy="-27" rx="84.35" ry="18"/>
<text text-anchor="middle" x="4275.96" y="-21.38" font-family="Times,serif" font-size="15.00">request complete</text>
</g>
<!-- 6626791824&#45;&#45;6626803664 -->
<g id="edge68" class="edge">
<title>6626791824&#45;&#45;6626803664</title>
<path fill="none" stroke="black" d="M3979.67,-30.67C4025.35,-30.1 4121.14,-28.91 4191.28,-28.04"/>
</g>
<!-- 6626794576 -->
<g id="node83" class="node">
<title>6626794576</title>
<ellipse fill="black" stroke="black" cx="600.55" cy="-618" rx="2.7" ry="2.7"/>
</g>
<!-- 6626788304&#45;&#45;6626794576 -->
<g id="edge81" class="edge">
<title>6626788304&#45;&#45;6626794576</title>
<path fill="none" stroke="black" d="M264.77,-531.39C341.87,-551.34 574.24,-611.45 597.65,-617.51"/>
</g>
<!-- 6626788432 -->
<g id="node84" class="node">
<title>6626788432</title>
<ellipse fill="none" stroke="black" cx="600.55" cy="-579" rx="132.76" ry="18"/>
<text text-anchor="middle" x="600.55" y="-573.38" font-family="Times,serif" font-size="15.00">create publication document</text>
</g>
<!-- 6626788304&#45;&#45;6626788432 -->
<g id="edge82" class="edge">
<title>6626788304&#45;&#45;6626788432</title>
<path fill="none" stroke="black" d="M265.92,-528.88C316.15,-536.43 429.05,-553.39 509.59,-565.49"/>
</g>
<!-- 6626794192 -->
<g id="node85" class="node">
<title>6626794192</title>
<ellipse fill="none" stroke="black" cx="600.55" cy="-525" rx="27" ry="18"/>
<text text-anchor="middle" x="600.55" y="-519.38" font-family="Times,serif" font-size="15.00">seq</text>
</g>
<!-- 6626788304&#45;&#45;6626794192 -->
<g id="edge85" class="edge">
<title>6626788304&#45;&#45;6626794192</title>
<path fill="none" stroke="black" d="M266.5,-525C332.98,-525 506.56,-525 573.08,-525"/>
</g>
<!-- 6626794128 -->
<g id="node88" class="node">
<title>6626794128</title>
<ellipse fill="none" stroke="black" cx="600.55" cy="-471" rx="27" ry="18"/>
<text text-anchor="middle" x="600.55" y="-465.38" font-family="Times,serif" font-size="15.00">seq</text>
</g>
<!-- 6626788304&#45;&#45;6626794128 -->
<g id="edge88" class="edge">
<title>6626788304&#45;&#45;6626794128</title>
<path fill="none" stroke="black" d="M265.92,-521.12C332.25,-511.15 507.86,-484.77 573.93,-474.85"/>
</g>
<!-- 6627003408 -->
<g id="node91" class="node">
<title>6627003408</title>
<ellipse fill="none" stroke="black" cx="600.55" cy="-315" rx="27" ry="18"/>
<text text-anchor="middle" x="600.55" y="-309.38" font-family="Times,serif" font-size="15.00">seq</text>
</g>
<!-- 6626788304&#45;&#45;6627003408 -->
<g id="edge93" class="edge">
<title>6626788304&#45;&#45;6627003408</title>
<path fill="none" stroke="black" d="M260.16,-513.26C323.15,-476.46 516.27,-363.65 579.37,-326.79"/>
</g>
<!-- 6627013392 -->
<g id="node96" class="node">
<title>6627013392</title>
<ellipse fill="none" stroke="black" cx="600.55" cy="-126" rx="27" ry="18"/>
<text text-anchor="middle" x="600.55" y="-120.38" font-family="Times,serif" font-size="15.00">seq</text>
</g>
<!-- 6626788304&#45;&#45;6627013392 -->
<g id="edge101" class="edge">
<title>6626788304&#45;&#45;6627013392</title>
<path fill="none" stroke="black" d="M253.72,-509.85C310.66,-446.64 528.91,-204.4 585.88,-141.17"/>
</g>
<!-- 6626793808 -->
<g id="node86" class="node">
<title>6626793808</title>
<ellipse fill="none" stroke="black" cx="991.5" cy="-585" rx="105.92" ry="18"/>
<text text-anchor="middle" x="991.5" y="-579.38" font-family="Times,serif" font-size="15.00">send letter in progress</text>
</g>
<!-- 6626794192&#45;&#45;6626793808 -->
<g id="edge83" class="edge">
<title>6626794192&#45;&#45;6626793808</title>
<path fill="none" stroke="black" d="M627.37,-528.98C684.38,-537.78 822.95,-559.15 911.48,-572.81"/>
</g>
<!-- 6626793296 -->
<g id="node87" class="node">
<title>6626793296</title>
<ellipse fill="none" stroke="black" cx="991.5" cy="-531" rx="128.02" ry="18"/>
<text text-anchor="middle" x="991.5" y="-525.38" font-family="Times,serif" font-size="15.00">phase application receptive</text>
</g>
<!-- 6626794192&#45;&#45;6626793296 -->
<g id="edge84" class="edge">
<title>6626794192&#45;&#45;6626793296</title>
<path fill="none" stroke="black" d="M627.98,-525.41C675.85,-526.15 779.79,-527.75 864.14,-529.05"/>
</g>
<!-- 6626789840 -->
<g id="node89" class="node">
<title>6626789840</title>
<ellipse fill="none" stroke="black" cx="991.5" cy="-477" rx="139.07" ry="18"/>
<text text-anchor="middle" x="991.5" y="-471.38" font-family="Times,serif" font-size="15.00">initiative competent authority</text>
</g>
<!-- 6626794128&#45;&#45;6626789840 -->
<g id="edge86" class="edge">
<title>6626794128&#45;&#45;6626789840</title>
<path fill="none" stroke="black" d="M627.98,-471.41C673.8,-472.11 770.98,-473.61 853.2,-474.88"/>
</g>
<!-- 6627014480 -->
<g id="node90" class="node">
<title>6627014480</title>
<ellipse fill="none" stroke="black" cx="991.5" cy="-423" rx="178.53" ry="18"/>
<text text-anchor="middle" x="991.5" y="-417.38" font-family="Times,serif" font-size="15.00">enter date termination request received</text>
</g>
<!-- 6626794128&#45;&#45;6627014480 -->
<g id="edge87" class="edge">
<title>6626794128&#45;&#45;6627014480</title>
<path fill="none" stroke="black" d="M627.37,-467.81C677.25,-461.66 789.58,-447.8 876.2,-437.11"/>
</g>
<!-- 6627003536 -->
<g id="node92" class="node">
<title>6627003536</title>
<ellipse fill="none" stroke="black" cx="991.5" cy="-369" rx="140.65" ry="18"/>
<text text-anchor="middle" x="991.5" y="-363.38" font-family="Times,serif" font-size="15.00">decision date prior to decision</text>
</g>
<!-- 6627003408&#45;&#45;6627003536 -->
<g id="edge89" class="edge">
<title>6627003408&#45;&#45;6627003536</title>
<path fill="none" stroke="black" d="M627.37,-318.58C680.82,-326.01 805.95,-343.38 894.33,-355.65"/>
</g>
<!-- 6627008208 -->
<g id="node93" class="node">
<title>6627008208</title>
<ellipse fill="none" stroke="black" cx="991.5" cy="-315" rx="177.47" ry="18"/>
<text text-anchor="middle" x="991.5" y="-309.38" font-family="Times,serif" font-size="15.00">generating decision no permit required</text>
</g>
<!-- 6627003408&#45;&#45;6627008208 -->
<g id="edge90" class="edge">
<title>6627003408&#45;&#45;6627008208</title>
<path fill="none" stroke="black" d="M627.98,-315C666.62,-315 741.78,-315 813.7,-315"/>
</g>
<!-- 6627006608 -->
<g id="node94" class="node">
<title>6627006608</title>
<ellipse fill="none" stroke="black" cx="991.5" cy="-261" rx="89.09" ry="18"/>
<text text-anchor="middle" x="991.5" y="-255.38" font-family="Times,serif" font-size="15.00">set decision status</text>
</g>
<!-- 6627003408&#45;&#45;6627006608 -->
<g id="edge91" class="edge">
<title>6627003408&#45;&#45;6627006608</title>
<path fill="none" stroke="black" d="M627.37,-311.42C685.57,-303.34 828.76,-283.46 916.95,-271.21"/>
</g>
<!-- 6627005200 -->
<g id="node95" class="node">
<title>6627005200</title>
<ellipse fill="none" stroke="black" cx="991.5" cy="-207" rx="158.01" ry="18"/>
<text text-anchor="middle" x="991.5" y="-201.38" font-family="Times,serif" font-size="15.00">create decision no permit required</text>
</g>
<!-- 6627003408&#45;&#45;6627005200 -->
<g id="edge92" class="edge">
<title>6627003408&#45;&#45;6627005200</title>
<path fill="none" stroke="black" d="M625.88,-308.24C685.84,-291.6 842.13,-248.2 929.37,-223.97"/>
</g>
<!-- 6627004816 -->
<g id="node97" class="node">
<title>6627004816</title>
<ellipse fill="none" stroke="black" cx="991.5" cy="-153" rx="148.01" ry="18"/>
<text text-anchor="middle" x="991.5" y="-147.38" font-family="Times,serif" font-size="15.00">phase only notification required</text>
</g>
<!-- 6627013392&#45;&#45;6627004816 -->
<g id="edge94" class="edge">
<title>6627013392&#45;&#45;6627004816</title>
<path fill="none" stroke="black" d="M627.68,-127.81C674.94,-131.09 777.55,-138.22 861.63,-144.05"/>
</g>
<!-- 6627007120 -->
<g id="node98" class="node">
<title>6627007120</title>
<ellipse fill="none" stroke="black" cx="991.5" cy="-99" rx="27" ry="18"/>
<text text-anchor="middle" x="991.5" y="-93.38" font-family="Times,serif" font-size="15.00">and</text>
</g>
<!-- 6627013392&#45;&#45;6627007120 -->
<g id="edge99" class="edge">
<title>6627013392&#45;&#45;6627007120</title>
<path fill="none" stroke="black" d="M627.68,-124.19C698.45,-119.27 893.3,-105.75 964.23,-100.82"/>
</g>
<!-- 6627003664 -->
<g id="node103" class="node">
<title>6627003664</title>
<ellipse fill="none" stroke="black" cx="991.5" cy="-45" rx="54.36" ry="18"/>
<text text-anchor="middle" x="991.5" y="-39.38" font-family="Times,serif" font-size="15.00">close case</text>
</g>
<!-- 6627013392&#45;&#45;6627003664 -->
<g id="edge100" class="edge">
<title>6627013392&#45;&#45;6627003664</title>
<path fill="none" stroke="black" d="M626.77,-120.75C691.16,-107.34 862.35,-71.69 944.82,-54.51"/>
</g>
<!-- 6627006288 -->
<g id="node99" class="node">
<title>6627006288</title>
<ellipse fill="none" stroke="black" cx="1472.41" cy="-180" rx="266.39" ry="18"/>
<text text-anchor="middle" x="1472.41" y="-174.38" font-family="Times,serif" font-size="15.00">enter senddate letter no permit or only notification required</text>
</g>
<!-- 6627007120&#45;&#45;6627006288 -->
<g id="edge95" class="edge">
<title>6627007120&#45;&#45;6627006288</title>
<path fill="none" stroke="black" d="M1017.91,-103.3C1082.89,-114.29 1257.89,-143.89 1370.52,-162.94"/>
</g>
<!-- 6627015568 -->
<g id="node100" class="node">
<title>6627015568</title>
<ellipse fill="none" stroke="black" cx="1472.41" cy="-126" rx="82.77" ry="18"/>
<text text-anchor="middle" x="1472.41" y="-120.38" font-family="Times,serif" font-size="15.00">register deadline</text>
</g>
<!-- 6627007120&#45;&#45;6627015568 -->
<g id="edge96" class="edge">
<title>6627007120&#45;&#45;6627015568</title>
<path fill="none" stroke="black" d="M1018.59,-100.47C1088.37,-104.4 1281.47,-115.29 1391.66,-121.5"/>
</g>
<!-- 6627007568 -->
<g id="node101" class="node">
<title>6627007568</title>
<ellipse fill="none" stroke="black" cx="1472.41" cy="-72" rx="115.39" ry="18"/>
<text text-anchor="middle" x="1472.41" y="-66.38" font-family="Times,serif" font-size="15.00">phase procedure aborted</text>
</g>
<!-- 6627007120&#45;&#45;6627007568 -->
<g id="edge97" class="edge">
<title>6627007120&#45;&#45;6627007568</title>
<path fill="none" stroke="black" d="M1018.59,-97.53C1082.66,-93.92 1250.7,-84.44 1363.06,-78.11"/>
</g>
<!-- 6627015760 -->
<g id="node102" class="node">
<title>6627015760</title>
<ellipse fill="none" stroke="black" cx="1472.41" cy="-18" rx="230.61" ry="18"/>
<text text-anchor="middle" x="1472.41" y="-12.38" font-family="Times,serif" font-size="15.00">create letter no permit or only notification required</text>
</g>
<!-- 6627007120&#45;&#45;6627015760 -->
<g id="edge98" class="edge">
<title>6627007120&#45;&#45;6627015760</title>
<path fill="none" stroke="black" d="M1017.91,-94.7C1083.37,-83.63 1260.5,-53.67 1373.03,-34.64"/>
</g>
</g>
</svg>
