<?xml version="1.0" encoding="UTF-8" standalone="no"?>
<!DOCTYPE svg PUBLIC "-//W3C//DTD SVG 1.1//EN"
 "http://www.w3.org/Graphics/SVG/1.1/DTD/svg11.dtd">
<!-- Generated by graphviz version 8.0.5 (20230430.1635)
 -->
<!-- Title: pt Pages: 1 -->
<svg width="1590pt" height="341pt"
 viewBox="0.00 0.00 1589.54 341.00" xmlns="http://www.w3.org/2000/svg" xmlns:xlink="http://www.w3.org/1999/xlink">
<g id="graph0" class="graph" transform="scale(1 1) rotate(0) translate(4 337)">
<title>pt</title>
<polygon fill="white" stroke="none" points="-4,4 -4,-337 1585.54,-337 1585.54,4 -4,4"/>
<!-- 5451149328 -->
<g id="node1" class="node">
<title>5451149328</title>
<ellipse fill="none" stroke="black" cx="27" cy="-261" rx="27" ry="18"/>
<text text-anchor="middle" x="27" y="-255.38" font-family="Times,serif" font-size="15.00">seq</text>
</g>
<!-- 5451142224 -->
<g id="node2" class="node">
<title>5451142224</title>
<ellipse fill="none" stroke="black" cx="239.06" cy="-315" rx="149.06" ry="18"/>
<text text-anchor="middle" x="239.06" y="-309.38" font-family="Times,serif" font-size="15.00">register submission date request</text>
</g>
<!-- 5451149328&#45;&#45;5451142224 -->
<g id="edge1" class="edge">
<title>5451149328&#45;&#45;5451142224</title>
<path fill="none" stroke="black" d="M52.51,-267.3C82.05,-274.9 132.85,-287.95 173.83,-298.49"/>
</g>
<!-- 5451139152 -->
<g id="node3" class="node">
<title>5451139152</title>
<ellipse fill="none" stroke="black" cx="239.06" cy="-261" rx="27" ry="18"/>
<text text-anchor="middle" x="239.06" y="-255.38" font-family="Times,serif" font-size="15.00">xor</text>
</g>
<!-- 5451149328&#45;&#45;5451139152 -->
<g id="edge4" class="edge">
<title>5451149328&#45;&#45;5451139152</title>
<path fill="none" stroke="black" d="M54.18,-261C94.54,-261 171.52,-261 211.89,-261"/>
</g>
<!-- 5451141712 -->
<g id="node6" class="node">
<title>5451141712</title>
<ellipse fill="none" stroke="black" cx="239.06" cy="-153" rx="27" ry="18"/>
<text text-anchor="middle" x="239.06" y="-147.38" font-family="Times,serif" font-size="15.00">and</text>
</g>
<!-- 5451149328&#45;&#45;5451141712 -->
<g id="edge17" class="edge">
<title>5451149328&#45;&#45;5451141712</title>
<path fill="none" stroke="black" d="M48.91,-250.25C89.07,-229.6 176.59,-184.61 216.93,-163.87"/>
</g>
<!-- 6621444048 -->
<g id="node4" class="node">
<title>6621444048</title>
<ellipse fill="black" stroke="black" cx="576.88" cy="-300" rx="2.7" ry="2.7"/>
</g>
<!-- 5451139152&#45;&#45;6621444048 -->
<g id="edge2" class="edge">
<title>5451139152&#45;&#45;6621444048</title>
<path fill="none" stroke="black" d="M266.14,-264.03C340.72,-272.69 551.08,-297.12 573.87,-299.77"/>
</g>
<!-- 6621445136 -->
<g id="node5" class="node">
<title>6621445136</title>
<ellipse fill="none" stroke="black" cx="576.88" cy="-261" rx="108.55" ry="18"/>
<text text-anchor="middle" x="576.88" y="-255.38" font-family="Times,serif" font-size="15.00">OLO messaging active</text>
</g>
<!-- 5451139152&#45;&#45;6621445136 -->
<g id="edge3" class="edge">
<title>5451139152&#45;&#45;6621445136</title>
<path fill="none" stroke="black" d="M266.42,-261C309.4,-261 396.94,-261 467.98,-261"/>
</g>
<!-- 6621438352 -->
<g id="node7" class="node">
<title>6621438352</title>
<ellipse fill="none" stroke="black" cx="576.88" cy="-207" rx="112.76" ry="18"/>
<text text-anchor="middle" x="576.88" y="-201.38" font-family="Times,serif" font-size="15.00">applicant is stakeholder</text>
</g>
<!-- 5451141712&#45;&#45;6621438352 -->
<g id="edge5" class="edge">
<title>5451141712&#45;&#45;6621438352</title>
<path fill="none" stroke="black" d="M265.86,-157.15C314.39,-164.95 421.11,-182.11 495.7,-194.11"/>
</g>
<!-- 6621436176 -->
<g id="node8" class="node">
<title>6621436176</title>
<ellipse fill="none" stroke="black" cx="576.88" cy="-153" rx="152.75" ry="18"/>
<text text-anchor="middle" x="576.88" y="-147.38" font-family="Times,serif" font-size="15.00">enter senddate acknowledgement</text>
</g>
<!-- 5451141712&#45;&#45;6621436176 -->
<g id="edge6" class="edge">
<title>5451141712&#45;&#45;6621436176</title>
<path fill="none" stroke="black" d="M266.42,-153C300.82,-153 363.76,-153 423.94,-153"/>
</g>
<!-- 6621441040 -->
<g id="node9" class="node">
<title>6621441040</title>
<ellipse fill="none" stroke="black" cx="576.88" cy="-99" rx="124.86" ry="18"/>
<text text-anchor="middle" x="576.88" y="-93.38" font-family="Times,serif" font-size="15.00">phase application received</text>
</g>
<!-- 5451141712&#45;&#45;6621441040 -->
<g id="edge7" class="edge">
<title>5451141712&#45;&#45;6621441040</title>
<path fill="none" stroke="black" d="M265.86,-148.85C313.54,-141.18 417.41,-124.48 491.78,-112.52"/>
</g>
<!-- 6621437008 -->
<g id="node10" class="node">
<title>6621437008</title>
<ellipse fill="none" stroke="black" cx="576.88" cy="-45" rx="47" ry="18"/>
<text text-anchor="middle" x="576.88" y="-39.38" font-family="Times,serif" font-size="15.00">xor loop</text>
</g>
<!-- 5451141712&#45;&#45;6621437008 -->
<g id="edge16" class="edge">
<title>5451141712&#45;&#45;6621437008</title>
<path fill="none" stroke="black" d="M263.95,-145.32C322.08,-126.62 471.24,-78.65 540.08,-56.51"/>
</g>
<!-- 6622022480 -->
<g id="node11" class="node">
<title>6622022480</title>
<ellipse fill="none" stroke="black" cx="969.4" cy="-72" rx="27" ry="18"/>
<text text-anchor="middle" x="969.4" y="-66.38" font-family="Times,serif" font-size="15.00">seq</text>
</g>
<!-- 6621437008&#45;&#45;6622022480 -->
<g id="edge14" class="edge">
<title>6621437008&#45;&#45;6622022480</title>
<path fill="none" stroke="black" d="M623.44,-48.15C705.73,-53.84 876.68,-65.66 942.13,-70.18"/>
</g>
<!-- 6622019984 -->
<g id="node18" class="node">
<title>6622019984</title>
<ellipse fill="none" stroke="black" cx="969.4" cy="-18" rx="203.78" ry="18"/>
<text text-anchor="middle" x="969.4" y="-12.38" font-family="Times,serif" font-size="15.00">no permit needed or only notification needed</text>
</g>
<!-- 6621437008&#45;&#45;6622019984 -->
<g id="edge15" class="edge">
<title>6621437008&#45;&#45;6622019984</title>
<path fill="none" stroke="black" d="M623.44,-41.85C668.61,-38.73 740.49,-33.76 806.97,-29.16"/>
</g>
<!-- 6622019728 -->
<g id="node12" class="node">
<title>6622019728</title>
<ellipse fill="none" stroke="black" cx="1256.18" cy="-99" rx="27" ry="18"/>
<text text-anchor="middle" x="1256.18" y="-93.38" font-family="Times,serif" font-size="15.00">xor</text>
</g>
<!-- 6622022480&#45;&#45;6622019728 -->
<g id="edge10" class="edge">
<title>6622022480&#45;&#45;6622019728</title>
<path fill="none" stroke="black" d="M996.43,-74.47C1050.67,-79.61 1175.22,-91.42 1229.32,-96.55"/>
</g>
<!-- 6622035536 -->
<g id="node15" class="node">
<title>6622035536</title>
<ellipse fill="none" stroke="black" cx="1256.18" cy="-45" rx="47" ry="18"/>
<text text-anchor="middle" x="1256.18" y="-39.38" font-family="Times,serif" font-size="15.00">xor loop</text>
</g>
<!-- 6622022480&#45;&#45;6622035536 -->
<g id="edge13" class="edge">
<title>6622022480&#45;&#45;6622035536</title>
<path fill="none" stroke="black" d="M996.43,-69.53C1044.97,-64.93 1149.83,-54.99 1210.1,-49.27"/>
</g>
<!-- 6622021776 -->
<g id="node13" class="node">
<title>6622021776</title>
<ellipse fill="black" stroke="black" cx="1460.36" cy="-138" rx="2.7" ry="2.7"/>
</g>
<!-- 6622019728&#45;&#45;6622021776 -->
<g id="edge8" class="edge">
<title>6622019728&#45;&#45;6622021776</title>
<path fill="none" stroke="black" d="M1282.38,-103.86C1332.34,-113.5 1440.6,-134.38 1457.21,-137.58"/>
</g>
<!-- 6622035728 -->
<g id="node14" class="node">
<title>6622035728</title>
<ellipse fill="none" stroke="black" cx="1460.36" cy="-99" rx="99.08" ry="18"/>
<text text-anchor="middle" x="1460.36" y="-93.38" font-family="Times,serif" font-size="15.00">terminate on request</text>
</g>
<!-- 6622019728&#45;&#45;6622035728 -->
<g id="edge9" class="edge">
<title>6622019728&#45;&#45;6622035728</title>
<path fill="none" stroke="black" d="M1283.61,-99C1303.63,-99 1332.47,-99 1361.02,-99"/>
</g>
<!-- 6622030800 -->
<g id="node16" class="node">
<title>6622030800</title>
<ellipse fill="none" stroke="black" cx="1460.36" cy="-45" rx="121.18" ry="18"/>
<text text-anchor="middle" x="1460.36" y="-39.38" font-family="Times,serif" font-size="15.00">send confirmation receipt</text>
</g>
<!-- 6622035536&#45;&#45;6622030800 -->
<g id="edge11" class="edge">
<title>6622035536&#45;&#45;6622030800</title>
<path fill="none" stroke="black" d="M1303.57,-45C1314.41,-45 1326.45,-45 1338.9,-45"/>
</g>
<!-- 6622029392 -->
<g id="node17" class="node">
<title>6622029392</title>
<ellipse fill="black" stroke="black" cx="1460.36" cy="-6" rx="2.7" ry="2.7"/>
</g>
<!-- 6622035536&#45;&#45;6622029392 -->
<g id="edge12" class="edge">
<title>6622035536&#45;&#45;6622029392</title>
<path fill="none" stroke="black" d="M1298.58,-37.01C1352.65,-26.58 1442.21,-9.31 1457.2,-6.42"/>
</g>
</g>
</svg>
