<?xml version="1.0" encoding="UTF-8" standalone="no"?>
<!DOCTYPE svg PUBLIC "-//W3C//DTD SVG 1.1//EN"
 "http://www.w3.org/Graphics/SVG/1.1/DTD/svg11.dtd">
<!-- Generated by graphviz version 8.0.5 (20230430.1635)
 -->
<!-- Title: pt Pages: 1 -->
<svg width="3696pt" height="750pt"
 viewBox="0.00 0.00 3696.42 750.00" xmlns="http://www.w3.org/2000/svg" xmlns:xlink="http://www.w3.org/1999/xlink">
<g id="graph0" class="graph" transform="scale(1 1) rotate(0) translate(4 746)">
<title>pt</title>
<polygon fill="white" stroke="none" points="-4,4 -4,-746 3692.42,-746 3692.42,4 -4,4"/>
<!-- 6626373648 -->
<g id="node1" class="node">
<title>6626373648</title>
<ellipse fill="none" stroke="black" cx="27" cy="-315" rx="27" ry="18"/>
<text text-anchor="middle" x="27" y="-309.38" font-family="Times,serif" font-size="15.00">seq</text>
</g>
<!-- 6626486480 -->
<g id="node2" class="node">
<title>6626486480</title>
<ellipse fill="none" stroke="black" cx="117" cy="-423" rx="27" ry="18"/>
<text text-anchor="middle" x="117" y="-417.38" font-family="Times,serif" font-size="15.00">xor</text>
</g>
<!-- 6626373648&#45;&#45;6626486480 -->
<g id="edge46" class="edge">
<title>6626373648&#45;&#45;6626486480</title>
<path fill="none" stroke="black" d="M40.61,-330.47C57.24,-350.89 86.36,-386.63 103.13,-407.2"/>
</g>
<!-- 6626484368 -->
<g id="node48" class="node">
<title>6626484368</title>
<ellipse fill="none" stroke="black" cx="117" cy="-261" rx="27" ry="18"/>
<text text-anchor="middle" x="117" y="-255.38" font-family="Times,serif" font-size="15.00">xor</text>
</g>
<!-- 6626373648&#45;&#45;6626484368 -->
<g id="edge56" class="edge">
<title>6626373648&#45;&#45;6626484368</title>
<path fill="none" stroke="black" d="M47.53,-303.02C62.11,-294.07 81.95,-281.89 96.52,-272.95"/>
</g>
<!-- 6626486288 -->
<g id="node3" class="node">
<title>6626486288</title>
<ellipse fill="black" stroke="black" cx="317.49" cy="-462" rx="2.7" ry="2.7"/>
</g>
<!-- 6626486480&#45;&#45;6626486288 -->
<g id="edge1" class="edge">
<title>6626486480&#45;&#45;6626486288</title>
<path fill="none" stroke="black" d="M143.14,-427.94C192.38,-437.61 298.16,-458.4 314.38,-461.59"/>
</g>
<!-- 6626490704 -->
<g id="node4" class="node">
<title>6626490704</title>
<ellipse fill="none" stroke="black" cx="317.49" cy="-423" rx="27" ry="18"/>
<text text-anchor="middle" x="317.49" y="-417.38" font-family="Times,serif" font-size="15.00">seq</text>
</g>
<!-- 6626486480&#45;&#45;6626490704 -->
<g id="edge45" class="edge">
<title>6626486480&#45;&#45;6626490704</title>
<path fill="none" stroke="black" d="M144.36,-423C182.32,-423 252,-423 290.02,-423"/>
</g>
<!-- 6626186640 -->
<g id="node5" class="node">
<title>6626186640</title>
<ellipse fill="none" stroke="black" cx="691.08" cy="-651" rx="27" ry="18"/>
<text text-anchor="middle" x="691.08" y="-645.38" font-family="Times,serif" font-size="15.00">and</text>
</g>
<!-- 6626490704&#45;&#45;6626186640 -->
<g id="edge33" class="edge">
<title>6626490704&#45;&#45;6626186640</title>
<path fill="none" stroke="black" d="M338.21,-435.1C402.57,-474.59 606.11,-599.48 670.41,-638.93"/>
</g>
<!-- 6626478992 -->
<g id="node37" class="node">
<title>6626478992</title>
<ellipse fill="none" stroke="black" cx="691.08" cy="-558" rx="27" ry="18"/>
<text text-anchor="middle" x="691.08" y="-552.38" font-family="Times,serif" font-size="15.00">xor</text>
</g>
<!-- 6626490704&#45;&#45;6626478992 -->
<g id="edge37" class="edge">
<title>6626490704&#45;&#45;6626478992</title>
<path fill="none" stroke="black" d="M341.73,-431.44C408.47,-455.69 600.12,-525.32 666.84,-549.56"/>
</g>
<!-- 6626015568 -->
<g id="node41" class="node">
<title>6626015568</title>
<ellipse fill="none" stroke="black" cx="691.08" cy="-504" rx="160.64" ry="18"/>
<text text-anchor="middle" x="691.08" y="-498.38" font-family="Times,serif" font-size="15.00">forward to the competent authority</text>
</g>
<!-- 6626490704&#45;&#45;6626015568 -->
<g id="edge38" class="edge">
<title>6626490704&#45;&#45;6626015568</title>
<path fill="none" stroke="black" d="M343.74,-428.5C398.71,-440.49 531.02,-469.33 615.27,-487.69"/>
</g>
<!-- 6626014416 -->
<g id="node42" class="node">
<title>6626014416</title>
<ellipse fill="none" stroke="black" cx="691.08" cy="-450" rx="147.49" ry="18"/>
<text text-anchor="middle" x="691.08" y="-444.38" font-family="Times,serif" font-size="15.00">regular procedure without MER</text>
</g>
<!-- 6626490704&#45;&#45;6626014416 -->
<g id="edge39" class="edge">
<title>6626490704&#45;&#45;6626014416</title>
<path fill="none" stroke="black" d="M344.62,-424.9C389.55,-428.16 484.24,-435.04 563.14,-440.78"/>
</g>
<!-- 6626003344 -->
<g id="node43" class="node">
<title>6626003344</title>
<ellipse fill="none" stroke="black" cx="691.08" cy="-396" rx="140.65" ry="18"/>
<text text-anchor="middle" x="691.08" y="-390.38" font-family="Times,serif" font-size="15.00">create procedure confirmation</text>
</g>
<!-- 6626490704&#45;&#45;6626003344 -->
<g id="edge40" class="edge">
<title>6626490704&#45;&#45;6626003344</title>
<path fill="none" stroke="black" d="M344.62,-421.1C390.38,-417.78 487.74,-410.7 567.47,-404.91"/>
</g>
<!-- 6626013072 -->
<g id="node44" class="node">
<title>6626013072</title>
<ellipse fill="none" stroke="black" cx="691.08" cy="-342" rx="27" ry="18"/>
<text text-anchor="middle" x="691.08" y="-336.38" font-family="Times,serif" font-size="15.00">xor</text>
</g>
<!-- 6626490704&#45;&#45;6626013072 -->
<g id="edge43" class="edge">
<title>6626490704&#45;&#45;6626013072</title>
<path fill="none" stroke="black" d="M343.74,-417.5C411.69,-402.68 597.86,-362.1 665.28,-347.4"/>
</g>
<!-- 6626001552 -->
<g id="node47" class="node">
<title>6626001552</title>
<ellipse fill="none" stroke="black" cx="691.08" cy="-288" rx="105.92" ry="18"/>
<text text-anchor="middle" x="691.08" y="-282.38" font-family="Times,serif" font-size="15.00">start WABOprocedure</text>
</g>
<!-- 6626490704&#45;&#45;6626001552 -->
<g id="edge44" class="edge">
<title>6626490704&#45;&#45;6626001552</title>
<path fill="none" stroke="black" d="M341.73,-414.56C402.11,-392.62 564.75,-333.53 644.59,-304.52"/>
</g>
<!-- 6626189840 -->
<g id="node6" class="node">
<title>6626189840</title>
<ellipse fill="none" stroke="black" cx="1157.79" cy="-724" rx="124.86" ry="18"/>
<text text-anchor="middle" x="1157.79" y="-718.38" font-family="Times,serif" font-size="15.00">phase application received</text>
</g>
<!-- 6626186640&#45;&#45;6626189840 -->
<g id="edge2" class="edge">
<title>6626186640&#45;&#45;6626189840</title>
<path fill="none" stroke="black" d="M717.72,-655.03C784.13,-665.46 964.01,-693.72 1071.81,-710.65"/>
</g>
<!-- 6626187600 -->
<g id="node7" class="node">
<title>6626187600</title>
<ellipse fill="none" stroke="black" cx="1157.79" cy="-670" rx="149.06" ry="18"/>
<text text-anchor="middle" x="1157.79" y="-664.38" font-family="Times,serif" font-size="15.00">register submission date request</text>
</g>
<!-- 6626186640&#45;&#45;6626187600 -->
<g id="edge3" class="edge">
<title>6626186640&#45;&#45;6626187600</title>
<path fill="none" stroke="black" d="M718.39,-652.08C774.7,-654.38 910.32,-659.92 1015.93,-664.24"/>
</g>
<!-- 6626185168 -->
<g id="node8" class="node">
<title>6626185168</title>
<ellipse fill="none" stroke="black" cx="1157.79" cy="-616" rx="27" ry="18"/>
<text text-anchor="middle" x="1157.79" y="-610.38" font-family="Times,serif" font-size="15.00">seq</text>
</g>
<!-- 6626186640&#45;&#45;6626185168 -->
<g id="edge32" class="edge">
<title>6626186640&#45;&#45;6626185168</title>
<path fill="none" stroke="black" d="M718.39,-649.02C800.09,-642.86 1048.77,-624.13 1130.47,-617.98"/>
</g>
<!-- 6626181264 -->
<g id="node9" class="node">
<title>6626181264</title>
<ellipse fill="none" stroke="black" cx="1532.95" cy="-643" rx="108.55" ry="18"/>
<text text-anchor="middle" x="1532.95" y="-637.38" font-family="Times,serif" font-size="15.00">OLO messaging active</text>
</g>
<!-- 6626185168&#45;&#45;6626181264 -->
<g id="edge4" class="edge">
<title>6626185168&#45;&#45;6626181264</title>
<path fill="none" stroke="black" d="M1185.03,-617.9C1235.63,-621.56 1349.05,-629.77 1432.5,-635.8"/>
</g>
<!-- 6626193360 -->
<g id="node10" class="node">
<title>6626193360</title>
<ellipse fill="none" stroke="black" cx="1532.95" cy="-589" rx="27" ry="18"/>
<text text-anchor="middle" x="1532.95" y="-583.38" font-family="Times,serif" font-size="15.00">and</text>
</g>
<!-- 6626185168&#45;&#45;6626193360 -->
<g id="edge31" class="edge">
<title>6626185168&#45;&#45;6626193360</title>
<path fill="none" stroke="black" d="M1185.03,-614.1C1253.54,-609.14 1437.26,-595.85 1505.74,-590.9"/>
</g>
<!-- 6626190416 -->
<g id="node11" class="node">
<title>6626190416</title>
<ellipse fill="none" stroke="black" cx="1704.51" cy="-616" rx="27" ry="18"/>
<text text-anchor="middle" x="1704.51" y="-610.38" font-family="Times,serif" font-size="15.00">xor</text>
</g>
<!-- 6626193360&#45;&#45;6626190416 -->
<g id="edge7" class="edge">
<title>6626193360&#45;&#45;6626190416</title>
<path fill="none" stroke="black" d="M1559.7,-593.1C1591.66,-598.19 1645.85,-606.82 1677.79,-611.91"/>
</g>
<!-- 6626185552 -->
<g id="node14" class="node">
<title>6626185552</title>
<ellipse fill="none" stroke="black" cx="1704.51" cy="-562" rx="27" ry="18"/>
<text text-anchor="middle" x="1704.51" y="-556.38" font-family="Times,serif" font-size="15.00">seq</text>
</g>
<!-- 6626193360&#45;&#45;6626185552 -->
<g id="edge30" class="edge">
<title>6626193360&#45;&#45;6626185552</title>
<path fill="none" stroke="black" d="M1559.7,-584.9C1591.66,-579.81 1645.85,-571.18 1677.79,-566.09"/>
</g>
<!-- 6626188688 -->
<g id="node12" class="node">
<title>6626188688</title>
<ellipse fill="black" stroke="black" cx="1946.03" cy="-655" rx="2.7" ry="2.7"/>
</g>
<!-- 6626190416&#45;&#45;6626188688 -->
<g id="edge5" class="edge">
<title>6626190416&#45;&#45;6626188688</title>
<path fill="none" stroke="black" d="M1731.14,-620.17C1788.59,-629.53 1924.09,-651.59 1942.86,-654.65"/>
</g>
<!-- 6626195472 -->
<g id="node13" class="node">
<title>6626195472</title>
<ellipse fill="none" stroke="black" cx="1946.03" cy="-616" rx="178.53" ry="18"/>
<text text-anchor="middle" x="1946.03" y="-610.38" font-family="Times,serif" font-size="15.00">enter date termination request received</text>
</g>
<!-- 6626190416&#45;&#45;6626195472 -->
<g id="edge6" class="edge">
<title>6626190416&#45;&#45;6626195472</title>
<path fill="none" stroke="black" d="M1731.59,-616C1741.54,-616 1753.77,-616 1767.3,-616"/>
</g>
<!-- 6626197200 -->
<g id="node15" class="node">
<title>6626197200</title>
<ellipse fill="none" stroke="black" cx="1946.03" cy="-562" rx="27" ry="18"/>
<text text-anchor="middle" x="1946.03" y="-556.38" font-family="Times,serif" font-size="15.00">and</text>
</g>
<!-- 6626185552&#45;&#45;6626197200 -->
<g id="edge26" class="edge">
<title>6626185552&#45;&#45;6626197200</title>
<path fill="none" stroke="black" d="M1731.59,-562C1777.55,-562 1872.42,-562 1918.61,-562"/>
</g>
<!-- 6626479760 -->
<g id="node34" class="node">
<title>6626479760</title>
<ellipse fill="none" stroke="black" cx="1946.03" cy="-508" rx="27" ry="18"/>
<text text-anchor="middle" x="1946.03" y="-502.38" font-family="Times,serif" font-size="15.00">xor</text>
</g>
<!-- 6626185552&#45;&#45;6626479760 -->
<g id="edge29" class="edge">
<title>6626185552&#45;&#45;6626479760</title>
<path fill="none" stroke="black" d="M1730.24,-556.42C1776.14,-546.08 1874.01,-524.01 1920.08,-513.63"/>
</g>
<!-- 6626489040 -->
<g id="node16" class="node">
<title>6626489040</title>
<ellipse fill="none" stroke="black" cx="2344.87" cy="-612" rx="152.75" ry="18"/>
<text text-anchor="middle" x="2344.87" y="-606.38" font-family="Times,serif" font-size="15.00">enter senddate acknowledgement</text>
</g>
<!-- 6626197200&#45;&#45;6626489040 -->
<g id="edge8" class="edge">
<title>6626197200&#45;&#45;6626489040</title>
<path fill="none" stroke="black" d="M1973.07,-565.28C2026.01,-571.95 2148.78,-587.42 2238.6,-598.74"/>
</g>
<!-- 6626477904 -->
<g id="node17" class="node">
<title>6626477904</title>
<ellipse fill="none" stroke="black" cx="2344.87" cy="-558" rx="27" ry="18"/>
<text text-anchor="middle" x="2344.87" y="-552.38" font-family="Times,serif" font-size="15.00">seq</text>
</g>
<!-- 6626197200&#45;&#45;6626477904 -->
<g id="edge25" class="edge">
<title>6626197200&#45;&#45;6626477904</title>
<path fill="none" stroke="black" d="M1973.38,-561.73C2045.48,-561.01 2245.45,-558.99 2317.54,-558.27"/>
</g>
<!-- 6626487824 -->
<g id="node18" class="node">
<title>6626487824</title>
<ellipse fill="none" stroke="black" cx="2592.19" cy="-585" rx="27" ry="18"/>
<text text-anchor="middle" x="2592.19" y="-579.38" font-family="Times,serif" font-size="15.00">xor</text>
</g>
<!-- 6626477904&#45;&#45;6626487824 -->
<g id="edge11" class="edge">
<title>6626477904&#45;&#45;6626487824</title>
<path fill="none" stroke="black" d="M2371.66,-560.84C2418.78,-566.02 2518.24,-576.97 2565.37,-582.16"/>
</g>
<!-- 6626479312 -->
<g id="node21" class="node">
<title>6626479312</title>
<ellipse fill="none" stroke="black" cx="2592.19" cy="-531" rx="27" ry="18"/>
<text text-anchor="middle" x="2592.19" y="-525.38" font-family="Times,serif" font-size="15.00">and</text>
</g>
<!-- 6626477904&#45;&#45;6626479312 -->
<g id="edge24" class="edge">
<title>6626477904&#45;&#45;6626479312</title>
<path fill="none" stroke="black" d="M2371.66,-555.16C2418.78,-549.98 2518.24,-539.03 2565.37,-533.84"/>
</g>
<!-- 6626486992 -->
<g id="node19" class="node">
<title>6626486992</title>
<ellipse fill="black" stroke="black" cx="2765.84" cy="-624" rx="2.7" ry="2.7"/>
</g>
<!-- 6626487824&#45;&#45;6626486992 -->
<g id="edge9" class="edge">
<title>6626487824&#45;&#45;6626486992</title>
<path fill="none" stroke="black" d="M2618.15,-590.67C2661.66,-600.56 2748.19,-620.22 2762.75,-623.52"/>
</g>
<!-- 6626490576 -->
<g id="node20" class="node">
<title>6626490576</title>
<ellipse fill="none" stroke="black" cx="2765.84" cy="-585" rx="110.66" ry="18"/>
<text text-anchor="middle" x="2765.84" y="-579.38" font-family="Times,serif" font-size="15.00">reception through OLO</text>
</g>
<!-- 6626487824&#45;&#45;6626490576 -->
<g id="edge10" class="edge">
<title>6626487824&#45;&#45;6626490576</title>
<path fill="none" stroke="black" d="M2619.63,-585C2629.69,-585 2641.89,-585 2654.9,-585"/>
</g>
<!-- 6626480592 -->
<g id="node22" class="node">
<title>6626480592</title>
<ellipse fill="none" stroke="black" cx="2765.84" cy="-531" rx="47" ry="18"/>
<text text-anchor="middle" x="2765.84" y="-525.38" font-family="Times,serif" font-size="15.00">xor loop</text>
</g>
<!-- 6626479312&#45;&#45;6626480592 -->
<g id="edge14" class="edge">
<title>6626479312&#45;&#45;6626480592</title>
<path fill="none" stroke="black" d="M2619.63,-531C2645.96,-531 2686.93,-531 2718.64,-531"/>
</g>
<!-- 6626489488 -->
<g id="node25" class="node">
<title>6626489488</title>
<ellipse fill="none" stroke="black" cx="2765.84" cy="-477" rx="27" ry="18"/>
<text text-anchor="middle" x="2765.84" y="-471.38" font-family="Times,serif" font-size="15.00">seq</text>
</g>
<!-- 6626479312&#45;&#45;6626489488 -->
<g id="edge23" class="edge">
<title>6626479312&#45;&#45;6626489488</title>
<path fill="none" stroke="black" d="M2617.05,-523.49C2649.76,-513.2 2708.16,-494.83 2740.9,-484.53"/>
</g>
<!-- 6626482448 -->
<g id="node23" class="node">
<title>6626482448</title>
<ellipse fill="none" stroke="black" cx="3033.68" cy="-566" rx="121.18" ry="18"/>
<text text-anchor="middle" x="3033.68" y="-560.38" font-family="Times,serif" font-size="15.00">send confirmation receipt</text>
</g>
<!-- 6626480592&#45;&#45;6626482448 -->
<g id="edge12" class="edge">
<title>6626480592&#45;&#45;6626482448</title>
<path fill="none" stroke="black" d="M2810.74,-536.78C2846.14,-541.44 2897.11,-548.15 2941.29,-553.97"/>
</g>
<!-- 6626483472 -->
<g id="node24" class="node">
<title>6626483472</title>
<ellipse fill="black" stroke="black" cx="3033.68" cy="-527" rx="2.7" ry="2.7"/>
</g>
<!-- 6626480592&#45;&#45;6626483472 -->
<g id="edge13" class="edge">
<title>6626480592&#45;&#45;6626483472</title>
<path fill="none" stroke="black" d="M2813.15,-530.3C2883.96,-529.24 3012.85,-527.3 3030.63,-527.03"/>
</g>
<!-- 6626485520 -->
<g id="node26" class="node">
<title>6626485520</title>
<ellipse fill="none" stroke="black" cx="3033.68" cy="-481" rx="27" ry="18"/>
<text text-anchor="middle" x="3033.68" y="-475.38" font-family="Times,serif" font-size="15.00">xor</text>
</g>
<!-- 6626489488&#45;&#45;6626485520 -->
<g id="edge21" class="edge">
<title>6626489488&#45;&#45;6626485520</title>
<path fill="none" stroke="black" d="M2793.31,-477.4C2844.26,-478.16 2955.46,-479.84 3006.33,-480.6"/>
</g>
<!-- 6626484944 -->
<g id="node33" class="node">
<title>6626484944</title>
<ellipse fill="none" stroke="black" cx="3033.68" cy="-427" rx="99.08" ry="18"/>
<text text-anchor="middle" x="3033.68" y="-421.38" font-family="Times,serif" font-size="15.00">terminate on request</text>
</g>
<!-- 6626489488&#45;&#45;6626484944 -->
<g id="edge22" class="edge">
<title>6626489488&#45;&#45;6626484944</title>
<path fill="none" stroke="black" d="M2792.33,-472.21C2831.32,-464.87 2907.14,-450.61 2963.24,-440.06"/>
</g>
<!-- 6626483280 -->
<g id="node27" class="node">
<title>6626483280</title>
<ellipse fill="none" stroke="black" cx="3217.86" cy="-508" rx="27" ry="18"/>
<text text-anchor="middle" x="3217.86" y="-502.38" font-family="Times,serif" font-size="15.00">seq</text>
</g>
<!-- 6626485520&#45;&#45;6626483280 -->
<g id="edge17" class="edge">
<title>6626485520&#45;&#45;6626483280</title>
<path fill="none" stroke="black" d="M3060.4,-484.81C3095.02,-489.94 3156.28,-499.02 3190.99,-504.16"/>
</g>
<!-- 6626476688 -->
<g id="node30" class="node">
<title>6626476688</title>
<ellipse fill="none" stroke="black" cx="3217.86" cy="-454" rx="27" ry="18"/>
<text text-anchor="middle" x="3217.86" y="-448.38" font-family="Times,serif" font-size="15.00">seq</text>
</g>
<!-- 6626485520&#45;&#45;6626476688 -->
<g id="edge20" class="edge">
<title>6626485520&#45;&#45;6626476688</title>
<path fill="none" stroke="black" d="M3060.4,-477.19C3095.02,-472.06 3156.28,-462.98 3190.99,-457.84"/>
</g>
<!-- 6626490128 -->
<g id="node28" class="node">
<title>6626490128</title>
<ellipse fill="none" stroke="black" cx="3484.64" cy="-562" rx="203.78" ry="18"/>
<text text-anchor="middle" x="3484.64" y="-556.38" font-family="Times,serif" font-size="15.00">no permit needed or only notification needed</text>
</g>
<!-- 6626483280&#45;&#45;6626490128 -->
<g id="edge15" class="edge">
<title>6626483280&#45;&#45;6626490128</title>
<path fill="none" stroke="black" d="M3244.25,-513.18C3280.04,-520.48 3346.99,-534.13 3401.01,-545.15"/>
</g>
<!-- 6626486864 -->
<g id="node29" class="node">
<title>6626486864</title>
<ellipse fill="none" stroke="black" cx="3484.64" cy="-508" rx="112.76" ry="18"/>
<text text-anchor="middle" x="3484.64" y="-502.38" font-family="Times,serif" font-size="15.00">applicant is stakeholder</text>
</g>
<!-- 6626483280&#45;&#45;6626486864 -->
<g id="edge16" class="edge">
<title>6626483280&#45;&#45;6626486864</title>
<path fill="none" stroke="black" d="M3245.22,-508C3274.85,-508 3324.92,-508 3371.55,-508"/>
</g>
<!-- 6626002128 -->
<g id="node31" class="node">
<title>6626002128</title>
<ellipse fill="none" stroke="black" cx="3484.64" cy="-454" rx="139.07" ry="18"/>
<text text-anchor="middle" x="3484.64" y="-448.38" font-family="Times,serif" font-size="15.00">initiative competent authority</text>
</g>
<!-- 6626476688&#45;&#45;6626002128 -->
<g id="edge18" class="edge">
<title>6626476688&#45;&#45;6626002128</title>
<path fill="none" stroke="black" d="M3245.22,-454C3269.29,-454 3306.85,-454 3345.1,-454"/>
</g>
<!-- 6626012176 -->
<g id="node32" class="node">
<title>6626012176</title>
<ellipse fill="none" stroke="black" cx="3484.64" cy="-400" rx="153.27" ry="18"/>
<text text-anchor="middle" x="3484.64" y="-394.38" font-family="Times,serif" font-size="15.00">create message terminate request</text>
</g>
<!-- 6626476688&#45;&#45;6626012176 -->
<g id="edge19" class="edge">
<title>6626476688&#45;&#45;6626012176</title>
<path fill="none" stroke="black" d="M3244.25,-448.82C3281.14,-441.3 3351.14,-427.02 3405.95,-415.84"/>
</g>
<!-- 6626486608 -->
<g id="node35" class="node">
<title>6626486608</title>
<ellipse fill="black" stroke="black" cx="2344.87" cy="-512" rx="2.7" ry="2.7"/>
</g>
<!-- 6626479760&#45;&#45;6626486608 -->
<g id="edge27" class="edge">
<title>6626479760&#45;&#45;6626486608</title>
<path fill="none" stroke="black" d="M1973.38,-508.27C2057.51,-509.11 2315.74,-511.72 2341.75,-511.98"/>
</g>
<!-- 6626483984 -->
<g id="node36" class="node">
<title>6626483984</title>
<ellipse fill="none" stroke="black" cx="2344.87" cy="-473" rx="184.31" ry="18"/>
<text text-anchor="middle" x="2344.87" y="-467.38" font-family="Times,serif" font-size="15.00">phase procedure prematurely terminated</text>
</g>
<!-- 6626479760&#45;&#45;6626483984 -->
<g id="edge28" class="edge">
<title>6626479760&#45;&#45;6626483984</title>
<path fill="none" stroke="black" d="M1973.07,-505.7C2019.8,-501.58 2120.94,-492.66 2205.81,-485.18"/>
</g>
<!-- 6626013648 -->
<g id="node38" class="node">
<title>6626013648</title>
<ellipse fill="black" stroke="black" cx="1157.79" cy="-577" rx="2.7" ry="2.7"/>
</g>
<!-- 6626478992&#45;&#45;6626013648 -->
<g id="edge34" class="edge">
<title>6626478992&#45;&#45;6626013648</title>
<path fill="none" stroke="black" d="M718.39,-559.08C812.09,-562.91 1125.43,-575.72 1154.6,-576.91"/>
</g>
<!-- 6626016848 -->
<g id="node39" class="node">
<title>6626016848</title>
<ellipse fill="none" stroke="black" cx="1157.79" cy="-538" rx="176.42" ry="18"/>
<text text-anchor="middle" x="1157.79" y="-532.38" font-family="Times,serif" font-size="15.00">enter senddate procedure confirmation</text>
</g>
<!-- 6626478992&#45;&#45;6626016848 -->
<g id="edge35" class="edge">
<title>6626478992&#45;&#45;6626016848</title>
<path fill="none" stroke="black" d="M718.39,-556.87C770.91,-554.61 892.41,-549.38 994.22,-545"/>
</g>
<!-- 6626007440 -->
<g id="node40" class="node">
<title>6626007440</title>
<ellipse fill="none" stroke="black" cx="1157.79" cy="-484" rx="230.61" ry="18"/>
<text text-anchor="middle" x="1157.79" y="-478.38" font-family="Times,serif" font-size="15.00">create letter no permit or only notification required</text>
</g>
<!-- 6626478992&#45;&#45;6626007440 -->
<g id="edge36" class="edge">
<title>6626478992&#45;&#45;6626007440</title>
<path fill="none" stroke="black" d="M717.72,-553.92C780.51,-543.92 944.76,-517.76 1053.59,-500.43"/>
</g>
<!-- 6626006672 -->
<g id="node45" class="node">
<title>6626006672</title>
<ellipse fill="black" stroke="black" cx="1157.79" cy="-361" rx="2.7" ry="2.7"/>
</g>
<!-- 6626013072&#45;&#45;6626006672 -->
<g id="edge41" class="edge">
<title>6626013072&#45;&#45;6626006672</title>
<path fill="none" stroke="black" d="M718.39,-343.08C812.09,-346.91 1125.43,-359.72 1154.6,-360.91"/>
</g>
<!-- 6626010576 -->
<g id="node46" class="node">
<title>6626010576</title>
<ellipse fill="none" stroke="black" cx="1157.79" cy="-322" rx="42.79" ry="18"/>
<text text-anchor="middle" x="1157.79" y="-316.38" font-family="Times,serif" font-size="15.00">publish</text>
</g>
<!-- 6626013072&#45;&#45;6626010576 -->
<g id="edge42" class="edge">
<title>6626013072&#45;&#45;6626010576</title>
<path fill="none" stroke="black" d="M718.39,-340.87C795.39,-337.55 1020.69,-327.86 1114.76,-323.81"/>
</g>
<!-- 6626002192 -->
<g id="node49" class="node">
<title>6626002192</title>
<ellipse fill="black" stroke="black" cx="317.49" cy="-300" rx="2.7" ry="2.7"/>
</g>
<!-- 6626484368&#45;&#45;6626002192 -->
<g id="edge47" class="edge">
<title>6626484368&#45;&#45;6626002192</title>
<path fill="none" stroke="black" d="M143.14,-265.94C192.38,-275.61 298.16,-296.4 314.38,-299.59"/>
</g>
<!-- 6626005264 -->
<g id="node50" class="node">
<title>6626005264</title>
<ellipse fill="none" stroke="black" cx="317.49" cy="-261" rx="137.49" ry="18"/>
<text text-anchor="middle" x="317.49" y="-255.38" font-family="Times,serif" font-size="15.00">create subcases completeness</text>
</g>
<!-- 6626484368&#45;&#45;6626005264 -->
<g id="edge48" class="edge">
<title>6626484368&#45;&#45;6626005264</title>
<path fill="none" stroke="black" d="M144.36,-261C154.38,-261 166.6,-261 179.87,-261"/>
</g>
<!-- 6626013904 -->
<g id="node51" class="node">
<title>6626013904</title>
<ellipse fill="none" stroke="black" cx="317.49" cy="-207" rx="27" ry="18"/>
<text text-anchor="middle" x="317.49" y="-201.38" font-family="Times,serif" font-size="15.00">seq</text>
</g>
<!-- 6626484368&#45;&#45;6626013904 -->
<g id="edge51" class="edge">
<title>6626484368&#45;&#45;6626013904</title>
<path fill="none" stroke="black" d="M142.34,-254.38C180.43,-244.01 253.73,-224.07 291.95,-213.68"/>
</g>
<!-- 6626007696 -->
<g id="node54" class="node">
<title>6626007696</title>
<ellipse fill="none" stroke="black" cx="317.49" cy="-99" rx="27" ry="18"/>
<text text-anchor="middle" x="317.49" y="-93.38" font-family="Times,serif" font-size="15.00">seq</text>
</g>
<!-- 6626484368&#45;&#45;6626007696 -->
<g id="edge55" class="edge">
<title>6626484368&#45;&#45;6626007696</title>
<path fill="none" stroke="black" d="M134.92,-247.19C172.42,-216.58 262.15,-143.35 299.61,-112.78"/>
</g>
<!-- 6626003600 -->
<g id="node52" class="node">
<title>6626003600</title>
<ellipse fill="none" stroke="black" cx="691.08" cy="-234" rx="68.04" ry="18"/>
<text text-anchor="middle" x="691.08" y="-228.38" font-family="Times,serif" font-size="15.00">suspend term</text>
</g>
<!-- 6626013904&#45;&#45;6626003600 -->
<g id="edge49" class="edge">
<title>6626013904&#45;&#45;6626003600</title>
<path fill="none" stroke="black" d="M344.62,-208.9C402.27,-213.09 541.84,-223.23 624.86,-229.26"/>
</g>
<!-- 6626001744 -->
<g id="node53" class="node">
<title>6626001744</title>
<ellipse fill="none" stroke="black" cx="691.08" cy="-180" rx="200.1" ry="18"/>
<text text-anchor="middle" x="691.08" y="-174.38" font-family="Times,serif" font-size="15.00">registrer date of publishing received request</text>
</g>
<!-- 6626013904&#45;&#45;6626001744 -->
<g id="edge50" class="edge">
<title>6626013904&#45;&#45;6626001744</title>
<path fill="none" stroke="black" d="M344.62,-205.1C384.02,-202.24 461.67,-196.6 533.39,-191.38"/>
</g>
<!-- 6625214544 -->
<g id="node55" class="node">
<title>6625214544</title>
<ellipse fill="none" stroke="black" cx="691.08" cy="-126" rx="159.06" ry="18"/>
<text text-anchor="middle" x="691.08" y="-120.38" font-family="Times,serif" font-size="15.00">enter senddate request termination</text>
</g>
<!-- 6626007696&#45;&#45;6625214544 -->
<g id="edge52" class="edge">
<title>6626007696&#45;&#45;6625214544</title>
<path fill="none" stroke="black" d="M344.62,-100.9C388.15,-104.06 478.37,-110.62 555.7,-116.24"/>
</g>
<!-- 6625230736 -->
<g id="node56" class="node">
<title>6625230736</title>
<ellipse fill="none" stroke="black" cx="691.08" cy="-72" rx="124.86" ry="18"/>
<text text-anchor="middle" x="691.08" y="-66.38" font-family="Times,serif" font-size="15.00">message terminate request</text>
</g>
<!-- 6626007696&#45;&#45;6625230736 -->
<g id="edge53" class="edge">
<title>6626007696&#45;&#45;6625230736</title>
<path fill="none" stroke="black" d="M344.62,-97.1C392.53,-93.62 496.99,-86.03 578.58,-80.1"/>
</g>
<!-- 6625797328 -->
<g id="node57" class="node">
<title>6625797328</title>
<ellipse fill="none" stroke="black" cx="691.08" cy="-18" rx="115.39" ry="18"/>
<text text-anchor="middle" x="691.08" y="-12.38" font-family="Times,serif" font-size="15.00">phase procedure aborted</text>
</g>
<!-- 6626007696&#45;&#45;6625797328 -->
<g id="edge54" class="edge">
<title>6626007696&#45;&#45;6625797328</title>
<path fill="none" stroke="black" d="M343.74,-93.5C400.26,-81.18 538.55,-51.03 622.29,-32.78"/>
</g>
</g>
</svg>
