<?xml version="1.0" encoding="UTF-8" standalone="no"?>
<!DOCTYPE svg PUBLIC "-//W3C//DTD SVG 1.1//EN"
 "http://www.w3.org/Graphics/SVG/1.1/DTD/svg11.dtd">
<!-- Generated by graphviz version 8.0.5 (20230430.1635)
 -->
<!-- Title: pt Pages: 1 -->
<svg width="1974pt" height="1128pt"
 viewBox="0.00 0.00 1973.66 1128.00" xmlns="http://www.w3.org/2000/svg" xmlns:xlink="http://www.w3.org/1999/xlink">
<g id="graph0" class="graph" transform="scale(1 1) rotate(0) translate(4 1124)">
<title>pt</title>
<polygon fill="white" stroke="none" points="-4,4 -4,-1124 1969.66,-1124 1969.66,4 -4,4"/>
<!-- 6626170576 -->
<g id="node1" class="node">
<title>6626170576</title>
<ellipse fill="none" stroke="black" cx="27" cy="-410" rx="27" ry="18"/>
<text text-anchor="middle" x="27" y="-404.38" font-family="Times,serif" font-size="15.00">seq</text>
</g>
<!-- 6626170320 -->
<g id="node2" class="node">
<title>6626170320</title>
<ellipse fill="none" stroke="black" cx="117" cy="-612" rx="27" ry="18"/>
<text text-anchor="middle" x="117" y="-606.38" font-family="Times,serif" font-size="15.00">xor</text>
</g>
<!-- 6626170576&#45;&#45;6626170320 -->
<g id="edge40" class="edge">
<title>6626170576&#45;&#45;6626170320</title>
<path fill="none" stroke="black" d="M35.5,-427.22C52.09,-465.29 91.71,-556.24 108.39,-594.53"/>
</g>
<!-- 6626165648 -->
<g id="node42" class="node">
<title>6626165648</title>
<ellipse fill="none" stroke="black" cx="117" cy="-214" rx="27" ry="18"/>
<text text-anchor="middle" x="117" y="-208.38" font-family="Times,serif" font-size="15.00">xor</text>
</g>
<!-- 6626170576&#45;&#45;6626165648 -->
<g id="edge55" class="edge">
<title>6626170576&#45;&#45;6626165648</title>
<path fill="none" stroke="black" d="M35.81,-392.61C52.51,-355.41 91.52,-268.51 108.21,-231.35"/>
</g>
<!-- 6626170896 -->
<g id="node3" class="node">
<title>6626170896</title>
<ellipse fill="black" stroke="black" cx="207" cy="-651" rx="2.7" ry="2.7"/>
</g>
<!-- 6626170320&#45;&#45;6626170896 -->
<g id="edge1" class="edge">
<title>6626170320&#45;&#45;6626170896</title>
<path fill="none" stroke="black" d="M140.21,-621.84C163.02,-631.95 196.28,-646.69 204.24,-650.22"/>
</g>
<!-- 6626174672 -->
<g id="node4" class="node">
<title>6626174672</title>
<ellipse fill="none" stroke="black" cx="207" cy="-612" rx="27" ry="18"/>
<text text-anchor="middle" x="207" y="-606.38" font-family="Times,serif" font-size="15.00">seq</text>
</g>
<!-- 6626170320&#45;&#45;6626174672 -->
<g id="edge39" class="edge">
<title>6626170320&#45;&#45;6626174672</title>
<path fill="none" stroke="black" d="M144.4,-612C155.54,-612 168.48,-612 179.62,-612"/>
</g>
<!-- 6626109712 -->
<g id="node5" class="node">
<title>6626109712</title>
<ellipse fill="none" stroke="black" cx="473.78" cy="-990" rx="149.06" ry="18"/>
<text text-anchor="middle" x="473.78" y="-984.38" font-family="Times,serif" font-size="15.00">register submission date request</text>
</g>
<!-- 6626174672&#45;&#45;6626109712 -->
<g id="edge2" class="edge">
<title>6626174672&#45;&#45;6626109712</title>
<path fill="none" stroke="black" d="M219.38,-628.24C262.34,-689.57 414.54,-906.86 459.92,-971.64"/>
</g>
<!-- 6626110800 -->
<g id="node6" class="node">
<title>6626110800</title>
<ellipse fill="none" stroke="black" cx="473.78" cy="-936" rx="27" ry="18"/>
<text text-anchor="middle" x="473.78" y="-930.38" font-family="Times,serif" font-size="15.00">xor</text>
</g>
<!-- 6626174672&#45;&#45;6626110800 -->
<g id="edge14" class="edge">
<title>6626174672&#45;&#45;6626110800</title>
<path fill="none" stroke="black" d="M220.77,-627.63C265.5,-682.36 414.81,-865.07 459.83,-920.15"/>
</g>
<!-- 6626105040 -->
<g id="node18" class="node">
<title>6626105040</title>
<ellipse fill="none" stroke="black" cx="473.78" cy="-882" rx="27" ry="18"/>
<text text-anchor="middle" x="473.78" y="-876.38" font-family="Times,serif" font-size="15.00">xor</text>
</g>
<!-- 6626174672&#45;&#45;6626105040 -->
<g id="edge19" class="edge">
<title>6626174672&#45;&#45;6626105040</title>
<path fill="none" stroke="black" d="M222.61,-626.9C268.91,-674.11 411.98,-820 458.21,-867.15"/>
</g>
<!-- 6626101136 -->
<g id="node23" class="node">
<title>6626101136</title>
<ellipse fill="none" stroke="black" cx="473.78" cy="-828" rx="203.78" ry="18"/>
<text text-anchor="middle" x="473.78" y="-822.38" font-family="Times,serif" font-size="15.00">no permit needed or only notification needed</text>
</g>
<!-- 6626174672&#45;&#45;6626101136 -->
<g id="edge20" class="edge">
<title>6626174672&#45;&#45;6626101136</title>
<path fill="none" stroke="black" d="M224.97,-625.84C271.08,-663.46 398.71,-767.58 450.51,-809.83"/>
</g>
<!-- 6626103696 -->
<g id="node24" class="node">
<title>6626103696</title>
<ellipse fill="none" stroke="black" cx="473.78" cy="-774" rx="112.76" ry="18"/>
<text text-anchor="middle" x="473.78" y="-768.38" font-family="Times,serif" font-size="15.00">applicant is stakeholder</text>
</g>
<!-- 6626174672&#45;&#45;6626103696 -->
<g id="edge21" class="edge">
<title>6626174672&#45;&#45;6626103696</title>
<path fill="none" stroke="black" d="M227.47,-623.91C273.57,-652.12 389.59,-723.1 443.9,-756.33"/>
</g>
<!-- 6626112720 -->
<g id="node25" class="node">
<title>6626112720</title>
<ellipse fill="none" stroke="black" cx="473.78" cy="-720" rx="99.08" ry="18"/>
<text text-anchor="middle" x="473.78" y="-714.38" font-family="Times,serif" font-size="15.00">terminate on request</text>
</g>
<!-- 6626174672&#45;&#45;6626112720 -->
<g id="edge22" class="edge">
<title>6626174672&#45;&#45;6626112720</title>
<path fill="none" stroke="black" d="M230.57,-621.21C275.22,-639.42 375.36,-680.26 431.9,-703.33"/>
</g>
<!-- 6626114064 -->
<g id="node26" class="node">
<title>6626114064</title>
<ellipse fill="none" stroke="black" cx="473.78" cy="-666" rx="27" ry="18"/>
<text text-anchor="middle" x="473.78" y="-660.38" font-family="Times,serif" font-size="15.00">and</text>
</g>
<!-- 6626174672&#45;&#45;6626114064 -->
<g id="edge27" class="edge">
<title>6626174672&#45;&#45;6626114064</title>
<path fill="none" stroke="black" d="M233.39,-617.18C284,-627.5 396.92,-650.53 447.47,-660.84"/>
</g>
<!-- 6626101648 -->
<g id="node31" class="node">
<title>6626101648</title>
<ellipse fill="none" stroke="black" cx="473.78" cy="-612" rx="152.75" ry="18"/>
<text text-anchor="middle" x="473.78" y="-606.38" font-family="Times,serif" font-size="15.00">enter senddate acknowledgement</text>
</g>
<!-- 6626174672&#45;&#45;6626101648 -->
<g id="edge28" class="edge">
<title>6626174672&#45;&#45;6626101648</title>
<path fill="none" stroke="black" d="M234.36,-612C255.55,-612 287.2,-612 320.57,-612"/>
</g>
<!-- 6626108688 -->
<g id="node32" class="node">
<title>6626108688</title>
<ellipse fill="none" stroke="black" cx="473.78" cy="-558" rx="160.64" ry="18"/>
<text text-anchor="middle" x="473.78" y="-552.38" font-family="Times,serif" font-size="15.00">forward to the competent authority</text>
</g>
<!-- 6626174672&#45;&#45;6626108688 -->
<g id="edge29" class="edge">
<title>6626174672&#45;&#45;6626108688</title>
<path fill="none" stroke="black" d="M233.39,-606.82C270.08,-599.34 339.54,-585.17 394.22,-574.02"/>
</g>
<!-- 6626100880 -->
<g id="node33" class="node">
<title>6626100880</title>
<ellipse fill="none" stroke="black" cx="473.78" cy="-504" rx="27" ry="18"/>
<text text-anchor="middle" x="473.78" y="-498.38" font-family="Times,serif" font-size="15.00">xor</text>
</g>
<!-- 6626174672&#45;&#45;6626100880 -->
<g id="edge32" class="edge">
<title>6626174672&#45;&#45;6626100880</title>
<path fill="none" stroke="black" d="M230.57,-602.79C280.6,-582.39 400.29,-533.57 450.26,-513.18"/>
</g>
<!-- 6626176912 -->
<g id="node36" class="node">
<title>6626176912</title>
<ellipse fill="none" stroke="black" cx="473.78" cy="-450" rx="147.49" ry="18"/>
<text text-anchor="middle" x="473.78" y="-444.38" font-family="Times,serif" font-size="15.00">regular procedure without MER</text>
</g>
<!-- 6626174672&#45;&#45;6626176912 -->
<g id="edge33" class="edge">
<title>6626174672&#45;&#45;6626176912</title>
<path fill="none" stroke="black" d="M227.47,-600.09C273.45,-571.96 388.99,-501.27 443.47,-467.93"/>
</g>
<!-- 6626165520 -->
<g id="node37" class="node">
<title>6626165520</title>
<ellipse fill="none" stroke="black" cx="473.78" cy="-396" rx="140.65" ry="18"/>
<text text-anchor="middle" x="473.78" y="-390.38" font-family="Times,serif" font-size="15.00">create procedure confirmation</text>
</g>
<!-- 6626174672&#45;&#45;6626165520 -->
<g id="edge34" class="edge">
<title>6626174672&#45;&#45;6626165520</title>
<path fill="none" stroke="black" d="M224.97,-598.16C271.08,-560.54 398.71,-456.42 450.51,-414.17"/>
</g>
<!-- 6626165968 -->
<g id="node38" class="node">
<title>6626165968</title>
<ellipse fill="none" stroke="black" cx="473.78" cy="-342" rx="27" ry="18"/>
<text text-anchor="middle" x="473.78" y="-336.38" font-family="Times,serif" font-size="15.00">xor</text>
</g>
<!-- 6626174672&#45;&#45;6626165968 -->
<g id="edge37" class="edge">
<title>6626174672&#45;&#45;6626165968</title>
<path fill="none" stroke="black" d="M222.61,-597.1C268.91,-549.89 411.98,-404 458.21,-356.85"/>
</g>
<!-- 6626169296 -->
<g id="node41" class="node">
<title>6626169296</title>
<ellipse fill="none" stroke="black" cx="473.78" cy="-288" rx="105.92" ry="18"/>
<text text-anchor="middle" x="473.78" y="-282.38" font-family="Times,serif" font-size="15.00">start WABOprocedure</text>
</g>
<!-- 6626174672&#45;&#45;6626169296 -->
<g id="edge38" class="edge">
<title>6626174672&#45;&#45;6626169296</title>
<path fill="none" stroke="black" d="M220.77,-596.37C264.88,-542.4 410.7,-363.97 457.9,-306.21"/>
</g>
<!-- 6626100368 -->
<g id="node7" class="node">
<title>6626100368</title>
<ellipse fill="none" stroke="black" cx="838.95" cy="-997" rx="27" ry="18"/>
<text text-anchor="middle" x="838.95" y="-991.38" font-family="Times,serif" font-size="15.00">seq</text>
</g>
<!-- 6626110800&#45;&#45;6626100368 -->
<g id="edge6" class="edge">
<title>6626110800&#45;&#45;6626100368</title>
<path fill="none" stroke="black" d="M500.32,-940.29C567,-951.49 745.79,-981.52 812.44,-992.72"/>
</g>
<!-- 6626109328 -->
<g id="node11" class="node">
<title>6626109328</title>
<ellipse fill="none" stroke="black" cx="838.95" cy="-936" rx="27" ry="18"/>
<text text-anchor="middle" x="838.95" y="-930.38" font-family="Times,serif" font-size="15.00">seq</text>
</g>
<!-- 6626110800&#45;&#45;6626109328 -->
<g id="edge13" class="edge">
<title>6626110800&#45;&#45;6626109328</title>
<path fill="none" stroke="black" d="M501.19,-936C568.28,-936 744.66,-936 811.64,-936"/>
</g>
<!-- 6626111120 -->
<g id="node8" class="node">
<title>6626111120</title>
<ellipse fill="none" stroke="black" cx="1266.73" cy="-1102" rx="110.66" ry="18"/>
<text text-anchor="middle" x="1266.73" y="-1096.38" font-family="Times,serif" font-size="15.00">reception through OLO</text>
</g>
<!-- 6626100368&#45;&#45;6626111120 -->
<g id="edge3" class="edge">
<title>6626100368&#45;&#45;6626111120</title>
<path fill="none" stroke="black" d="M864.68,-1003.1C929.99,-1019.21 1108.6,-1063.25 1203.9,-1086.75"/>
</g>
<!-- 6626103312 -->
<g id="node9" class="node">
<title>6626103312</title>
<ellipse fill="none" stroke="black" cx="1266.73" cy="-1048" rx="176.42" ry="18"/>
<text text-anchor="middle" x="1266.73" y="-1042.38" font-family="Times,serif" font-size="15.00">enter senddate procedure confirmation</text>
</g>
<!-- 6626100368&#45;&#45;6626103312 -->
<g id="edge4" class="edge">
<title>6626100368&#45;&#45;6626103312</title>
<path fill="none" stroke="black" d="M865.94,-1000.11C921.1,-1006.72 1052.77,-1022.49 1150.01,-1034.14"/>
</g>
<!-- 6626102416 -->
<g id="node10" class="node">
<title>6626102416</title>
<ellipse fill="none" stroke="black" cx="1266.73" cy="-994" rx="134.33" ry="18"/>
<text text-anchor="middle" x="1266.73" y="-988.38" font-family="Times,serif" font-size="15.00">send procedure confirmation</text>
</g>
<!-- 6626100368&#45;&#45;6626102416 -->
<g id="edge5" class="edge">
<title>6626100368&#45;&#45;6626102416</title>
<path fill="none" stroke="black" d="M866.26,-996.81C918.3,-996.45 1037.51,-995.61 1132.24,-994.94"/>
</g>
<!-- 6626104400 -->
<g id="node12" class="node">
<title>6626104400</title>
<ellipse fill="none" stroke="black" cx="1266.73" cy="-940" rx="108.55" ry="18"/>
<text text-anchor="middle" x="1266.73" y="-934.38" font-family="Times,serif" font-size="15.00">OLO messaging active</text>
</g>
<!-- 6626109328&#45;&#45;6626104400 -->
<g id="edge7" class="edge">
<title>6626109328&#45;&#45;6626104400</title>
<path fill="none" stroke="black" d="M866.26,-936.25C923.19,-936.78 1060.54,-938.07 1158.25,-938.99"/>
</g>
<!-- 6626108752 -->
<g id="node13" class="node">
<title>6626108752</title>
<ellipse fill="none" stroke="black" cx="1266.73" cy="-886" rx="27" ry="18"/>
<text text-anchor="middle" x="1266.73" y="-880.38" font-family="Times,serif" font-size="15.00">xor</text>
</g>
<!-- 6626109328&#45;&#45;6626108752 -->
<g id="edge12" class="edge">
<title>6626109328&#45;&#45;6626108752</title>
<path fill="none" stroke="black" d="M865.94,-932.95C942.05,-924.01 1163.79,-897.97 1239.8,-889.04"/>
</g>
<!-- 6626113168 -->
<g id="node14" class="node">
<title>6626113168</title>
<ellipse fill="black" stroke="black" cx="1596.11" cy="-905" rx="2.7" ry="2.7"/>
</g>
<!-- 6626108752&#45;&#45;6626113168 -->
<g id="edge8" class="edge">
<title>6626108752&#45;&#45;6626113168</title>
<path fill="none" stroke="black" d="M1293.96,-887.52C1367.4,-891.78 1571.11,-903.61 1593.17,-904.89"/>
</g>
<!-- 6626112080 -->
<g id="node15" class="node">
<title>6626112080</title>
<ellipse fill="none" stroke="black" cx="1596.11" cy="-866" rx="27" ry="18"/>
<text text-anchor="middle" x="1596.11" y="-860.38" font-family="Times,serif" font-size="15.00">seq</text>
</g>
<!-- 6626108752&#45;&#45;6626112080 -->
<g id="edge11" class="edge">
<title>6626108752&#45;&#45;6626112080</title>
<path fill="none" stroke="black" d="M1293.96,-884.4C1355.26,-880.65 1507.33,-871.36 1568.75,-867.61"/>
</g>
<!-- 6626101520 -->
<g id="node16" class="node">
<title>6626101520</title>
<ellipse fill="none" stroke="black" cx="1812.39" cy="-893" rx="139.07" ry="18"/>
<text text-anchor="middle" x="1812.39" y="-887.38" font-family="Times,serif" font-size="15.00">initiative competent authority</text>
</g>
<!-- 6626112080&#45;&#45;6626101520 -->
<g id="edge9" class="edge">
<title>6626112080&#45;&#45;6626101520</title>
<path fill="none" stroke="black" d="M1622.96,-869.26C1645.11,-872.05 1678.51,-876.26 1711.06,-880.36"/>
</g>
<!-- 6626101776 -->
<g id="node17" class="node">
<title>6626101776</title>
<ellipse fill="none" stroke="black" cx="1812.39" cy="-839" rx="153.27" ry="18"/>
<text text-anchor="middle" x="1812.39" y="-833.38" font-family="Times,serif" font-size="15.00">create message terminate request</text>
</g>
<!-- 6626112080&#45;&#45;6626101776 -->
<g id="edge10" class="edge">
<title>6626112080&#45;&#45;6626101776</title>
<path fill="none" stroke="black" d="M1622.96,-862.74C1644,-860.09 1675.18,-856.16 1706.15,-852.26"/>
</g>
<!-- 6626106448 -->
<g id="node19" class="node">
<title>6626106448</title>
<ellipse fill="black" stroke="black" cx="838.95" cy="-882" rx="2.7" ry="2.7"/>
</g>
<!-- 6626105040&#45;&#45;6626106448 -->
<g id="edge15" class="edge">
<title>6626105040&#45;&#45;6626106448</title>
<path fill="none" stroke="black" d="M501.19,-882C580.52,-882 812.67,-882 836.05,-882"/>
</g>
<!-- 6626105744 -->
<g id="node20" class="node">
<title>6626105744</title>
<ellipse fill="none" stroke="black" cx="838.95" cy="-832" rx="27" ry="18"/>
<text text-anchor="middle" x="838.95" y="-826.38" font-family="Times,serif" font-size="15.00">seq</text>
</g>
<!-- 6626105040&#45;&#45;6626105744 -->
<g id="edge18" class="edge">
<title>6626105040&#45;&#45;6626105744</title>
<path fill="none" stroke="black" d="M500.61,-878.44C567.37,-869.25 745.12,-844.78 812.01,-835.57"/>
</g>
<!-- 6626112272 -->
<g id="node21" class="node">
<title>6626112272</title>
<ellipse fill="none" stroke="black" cx="1266.73" cy="-832" rx="184.31" ry="18"/>
<text text-anchor="middle" x="1266.73" y="-826.38" font-family="Times,serif" font-size="15.00">phase procedure prematurely terminated</text>
</g>
<!-- 6626105744&#45;&#45;6626112272 -->
<g id="edge16" class="edge">
<title>6626105744&#45;&#45;6626112272</title>
<path fill="none" stroke="black" d="M866.26,-832C909.41,-832 998.76,-832 1082.04,-832"/>
</g>
<!-- 6626113488 -->
<g id="node22" class="node">
<title>6626113488</title>
<ellipse fill="none" stroke="black" cx="1266.73" cy="-778" rx="178.53" ry="18"/>
<text text-anchor="middle" x="1266.73" y="-772.38" font-family="Times,serif" font-size="15.00">enter date termination request received</text>
</g>
<!-- 6626105744&#45;&#45;6626113488 -->
<g id="edge17" class="edge">
<title>6626105744&#45;&#45;6626113488</title>
<path fill="none" stroke="black" d="M865.94,-828.7C921.73,-821.63 1055.8,-804.62 1153.33,-792.25"/>
</g>
<!-- 6626114384 -->
<g id="node27" class="node">
<title>6626114384</title>
<ellipse fill="none" stroke="black" cx="838.95" cy="-693" rx="124.86" ry="18"/>
<text text-anchor="middle" x="838.95" y="-687.38" font-family="Times,serif" font-size="15.00">phase application received</text>
</g>
<!-- 6626114064&#45;&#45;6626114384 -->
<g id="edge23" class="edge">
<title>6626114064&#45;&#45;6626114384</title>
<path fill="none" stroke="black" d="M500.9,-667.94C547.58,-671.41 647.83,-678.87 726.93,-684.75"/>
</g>
<!-- 6626112784 -->
<g id="node28" class="node">
<title>6626112784</title>
<ellipse fill="none" stroke="black" cx="838.95" cy="-639" rx="47" ry="18"/>
<text text-anchor="middle" x="838.95" y="-633.38" font-family="Times,serif" font-size="15.00">xor loop</text>
</g>
<!-- 6626114064&#45;&#45;6626112784 -->
<g id="edge26" class="edge">
<title>6626114064&#45;&#45;6626112784</title>
<path fill="none" stroke="black" d="M500.9,-664.06C562.13,-659.51 715.57,-648.1 792.49,-642.38"/>
</g>
<!-- 6626099280 -->
<g id="node29" class="node">
<title>6626099280</title>
<ellipse fill="none" stroke="black" cx="1266.73" cy="-658" rx="121.18" ry="18"/>
<text text-anchor="middle" x="1266.73" y="-652.38" font-family="Times,serif" font-size="15.00">send confirmation receipt</text>
</g>
<!-- 6626112784&#45;&#45;6626099280 -->
<g id="edge24" class="edge">
<title>6626112784&#45;&#45;6626099280</title>
<path fill="none" stroke="black" d="M885.92,-641.05C948.6,-643.85 1063.02,-648.95 1149.95,-652.83"/>
</g>
<!-- 6626101200 -->
<g id="node30" class="node">
<title>6626101200</title>
<ellipse fill="black" stroke="black" cx="1266.73" cy="-619" rx="2.7" ry="2.7"/>
</g>
<!-- 6626112784&#45;&#45;6626101200 -->
<g id="edge25" class="edge">
<title>6626112784&#45;&#45;6626101200</title>
<path fill="none" stroke="black" d="M885.92,-636.84C990.43,-631.93 1238.75,-620.27 1263.7,-619.1"/>
</g>
<!-- 6626170384 -->
<g id="node34" class="node">
<title>6626170384</title>
<ellipse fill="black" stroke="black" cx="838.95" cy="-523" rx="2.7" ry="2.7"/>
</g>
<!-- 6626100880&#45;&#45;6626170384 -->
<g id="edge30" class="edge">
<title>6626100880&#45;&#45;6626170384</title>
<path fill="none" stroke="black" d="M501.19,-505.38C580.52,-509.53 812.67,-521.68 836.05,-522.9"/>
</g>
<!-- 6626173584 -->
<g id="node35" class="node">
<title>6626173584</title>
<ellipse fill="none" stroke="black" cx="838.95" cy="-484" rx="125.39" ry="18"/>
<text text-anchor="middle" x="838.95" y="-478.38" font-family="Times,serif" font-size="15.00">inform BAG administrator</text>
</g>
<!-- 6626100880&#45;&#45;6626173584 -->
<g id="edge31" class="edge">
<title>6626100880&#45;&#45;6626173584</title>
<path fill="none" stroke="black" d="M501.19,-502.55C546.89,-500.03 643.32,-494.72 721.33,-490.42"/>
</g>
<!-- 6626178960 -->
<g id="node39" class="node">
<title>6626178960</title>
<ellipse fill="black" stroke="black" cx="838.95" cy="-361" rx="2.7" ry="2.7"/>
</g>
<!-- 6626165968&#45;&#45;6626178960 -->
<g id="edge35" class="edge">
<title>6626165968&#45;&#45;6626178960</title>
<path fill="none" stroke="black" d="M501.19,-343.38C580.52,-347.53 812.67,-359.68 836.05,-360.9"/>
</g>
<!-- 6626180112 -->
<g id="node40" class="node">
<title>6626180112</title>
<ellipse fill="none" stroke="black" cx="838.95" cy="-322" rx="42.79" ry="18"/>
<text text-anchor="middle" x="838.95" y="-316.38" font-family="Times,serif" font-size="15.00">publish</text>
</g>
<!-- 6626165968&#45;&#45;6626180112 -->
<g id="edge36" class="edge">
<title>6626165968&#45;&#45;6626180112</title>
<path fill="none" stroke="black" d="M501.19,-340.55C563.62,-337.11 720.72,-328.46 796.2,-324.3"/>
</g>
<!-- 6626172368 -->
<g id="node43" class="node">
<title>6626172368</title>
<ellipse fill="black" stroke="black" cx="207" cy="-233" rx="2.7" ry="2.7"/>
</g>
<!-- 6626165648&#45;&#45;6626172368 -->
<g id="edge41" class="edge">
<title>6626165648&#45;&#45;6626172368</title>
<path fill="none" stroke="black" d="M142.98,-219.39C165.34,-224.22 195.81,-230.8 203.94,-232.55"/>
</g>
<!-- 6626176784 -->
<g id="node44" class="node">
<title>6626176784</title>
<ellipse fill="none" stroke="black" cx="207" cy="-194" rx="27" ry="18"/>
<text text-anchor="middle" x="207" y="-188.38" font-family="Times,serif" font-size="15.00">seq</text>
</g>
<!-- 6626165648&#45;&#45;6626176784 -->
<g id="edge44" class="edge">
<title>6626165648&#45;&#45;6626176784</title>
<path fill="none" stroke="black" d="M142.98,-208.32C154.87,-205.62 169.06,-202.4 180.96,-199.69"/>
</g>
<!-- 6626180560 -->
<g id="node47" class="node">
<title>6626180560</title>
<ellipse fill="none" stroke="black" cx="207" cy="-113" rx="27" ry="18"/>
<text text-anchor="middle" x="207" y="-107.38" font-family="Times,serif" font-size="15.00">seq</text>
</g>
<!-- 6626165648&#45;&#45;6626180560 -->
<g id="edge54" class="edge">
<title>6626165648&#45;&#45;6626180560</title>
<path fill="none" stroke="black" d="M131.37,-198.66C147.91,-179.68 175.91,-147.53 192.51,-128.48"/>
</g>
<!-- 6626179408 -->
<g id="node45" class="node">
<title>6626179408</title>
<ellipse fill="none" stroke="black" cx="473.78" cy="-234" rx="68.04" ry="18"/>
<text text-anchor="middle" x="473.78" y="-228.38" font-family="Times,serif" font-size="15.00">suspend term</text>
</g>
<!-- 6626176784&#45;&#45;6626179408 -->
<g id="edge42" class="edge">
<title>6626176784&#45;&#45;6626179408</title>
<path fill="none" stroke="black" d="M233.87,-197.91C275.32,-204.17 357.65,-216.61 413.96,-225.11"/>
</g>
<!-- 6626178384 -->
<g id="node46" class="node">
<title>6626178384</title>
<ellipse fill="none" stroke="black" cx="473.78" cy="-180" rx="200.1" ry="18"/>
<text text-anchor="middle" x="473.78" y="-174.38" font-family="Times,serif" font-size="15.00">registrer date of publishing received request</text>
</g>
<!-- 6626176784&#45;&#45;6626178384 -->
<g id="edge43" class="edge">
<title>6626176784&#45;&#45;6626178384</title>
<path fill="none" stroke="black" d="M234.36,-192.61C251.03,-191.72 274.19,-190.5 299.57,-189.16"/>
</g>
<!-- 6626174480 -->
<g id="node48" class="node">
<title>6626174480</title>
<ellipse fill="none" stroke="black" cx="473.78" cy="-126" rx="27" ry="18"/>
<text text-anchor="middle" x="473.78" y="-120.38" font-family="Times,serif" font-size="15.00">xor</text>
</g>
<!-- 6626180560&#45;&#45;6626174480 -->
<g id="edge51" class="edge">
<title>6626180560&#45;&#45;6626174480</title>
<path fill="none" stroke="black" d="M234.36,-114.29C285.11,-116.79 395.86,-122.22 446.53,-124.71"/>
</g>
<!-- 6626177296 -->
<g id="node55" class="node">
<title>6626177296</title>
<ellipse fill="none" stroke="black" cx="473.78" cy="-72" rx="115.39" ry="18"/>
<text text-anchor="middle" x="473.78" y="-66.38" font-family="Times,serif" font-size="15.00">phase procedure aborted</text>
</g>
<!-- 6626180560&#45;&#45;6626177296 -->
<g id="edge52" class="edge">
<title>6626180560&#45;&#45;6626177296</title>
<path fill="none" stroke="black" d="M233.39,-109.07C269.18,-103.53 336.13,-93.16 390.15,-84.8"/>
</g>
<!-- 6626586896 -->
<g id="node56" class="node">
<title>6626586896</title>
<ellipse fill="none" stroke="black" cx="473.78" cy="-18" rx="54.36" ry="18"/>
<text text-anchor="middle" x="473.78" y="-12.38" font-family="Times,serif" font-size="15.00">close case</text>
</g>
<!-- 6626180560&#45;&#45;6626586896 -->
<g id="edge53" class="edge">
<title>6626180560&#45;&#45;6626586896</title>
<path fill="none" stroke="black" d="M231.03,-104.74C276.96,-88.26 380.26,-51.19 435.8,-31.27"/>
</g>
<!-- 6626172560 -->
<g id="node49" class="node">
<title>6626172560</title>
<ellipse fill="none" stroke="black" cx="838.95" cy="-153" rx="27" ry="18"/>
<text text-anchor="middle" x="838.95" y="-147.38" font-family="Times,serif" font-size="15.00">seq</text>
</g>
<!-- 6626174480&#45;&#45;6626172560 -->
<g id="edge47" class="edge">
<title>6626174480&#45;&#45;6626172560</title>
<path fill="none" stroke="black" d="M500.9,-127.94C567.91,-132.92 745.32,-146.11 812.07,-151.08"/>
</g>
<!-- 6626170448 -->
<g id="node52" class="node">
<title>6626170448</title>
<ellipse fill="none" stroke="black" cx="838.95" cy="-99" rx="27" ry="18"/>
<text text-anchor="middle" x="838.95" y="-93.38" font-family="Times,serif" font-size="15.00">seq</text>
</g>
<!-- 6626174480&#45;&#45;6626170448 -->
<g id="edge50" class="edge">
<title>6626174480&#45;&#45;6626170448</title>
<path fill="none" stroke="black" d="M500.9,-124.06C567.91,-119.08 745.32,-105.89 812.07,-100.92"/>
</g>
<!-- 6626165264 -->
<g id="node50" class="node">
<title>6626165264</title>
<ellipse fill="none" stroke="black" cx="1266.73" cy="-207" rx="266.39" ry="18"/>
<text text-anchor="middle" x="1266.73" y="-201.38" font-family="Times,serif" font-size="15.00">enter senddate letter no permit or only notification required</text>
</g>
<!-- 6626172560&#45;&#45;6626165264 -->
<g id="edge45" class="edge">
<title>6626172560&#45;&#45;6626165264</title>
<path fill="none" stroke="black" d="M865.94,-156.3C918.93,-163.02 1042.54,-178.69 1138.39,-190.85"/>
</g>
<!-- 6626165200 -->
<g id="node51" class="node">
<title>6626165200</title>
<ellipse fill="none" stroke="black" cx="1266.73" cy="-153" rx="82.77" ry="18"/>
<text text-anchor="middle" x="1266.73" y="-147.38" font-family="Times,serif" font-size="15.00">register deadline</text>
</g>
<!-- 6626172560&#45;&#45;6626165200 -->
<g id="edge46" class="edge">
<title>6626172560&#45;&#45;6626165200</title>
<path fill="none" stroke="black" d="M866.26,-153C928.36,-153 1086.13,-153 1183.79,-153"/>
</g>
<!-- 6626580176 -->
<g id="node53" class="node">
<title>6626580176</title>
<ellipse fill="none" stroke="black" cx="1266.73" cy="-99" rx="159.06" ry="18"/>
<text text-anchor="middle" x="1266.73" y="-93.38" font-family="Times,serif" font-size="15.00">enter senddate request termination</text>
</g>
<!-- 6626170448&#45;&#45;6626580176 -->
<g id="edge48" class="edge">
<title>6626170448&#45;&#45;6626580176</title>
<path fill="none" stroke="black" d="M866.26,-99C913.81,-99 1017.45,-99 1107.25,-99"/>
</g>
<!-- 6626585104 -->
<g id="node54" class="node">
<title>6626585104</title>
<ellipse fill="none" stroke="black" cx="1266.73" cy="-45" rx="124.86" ry="18"/>
<text text-anchor="middle" x="1266.73" y="-39.38" font-family="Times,serif" font-size="15.00">message terminate request</text>
</g>
<!-- 6626170448&#45;&#45;6626585104 -->
<g id="edge49" class="edge">
<title>6626170448&#45;&#45;6626585104</title>
<path fill="none" stroke="black" d="M865.94,-95.7C925.25,-88.18 1073.03,-69.44 1171.33,-56.97"/>
</g>
</g>
</svg>
