<?xml version="1.0" encoding="UTF-8" standalone="no"?>
<!DOCTYPE svg PUBLIC "-//W3C//DTD SVG 1.1//EN"
 "http://www.w3.org/Graphics/SVG/1.1/DTD/svg11.dtd">
<!-- Generated by graphviz version 8.0.5 (20230430.1635)
 -->
<!-- Title: pt Pages: 1 -->
<svg width="2942pt" height="1610pt"
 viewBox="0.00 0.00 2942.30 1610.00" xmlns="http://www.w3.org/2000/svg" xmlns:xlink="http://www.w3.org/1999/xlink">
<g id="graph0" class="graph" transform="scale(1 1) rotate(0) translate(4 1606)">
<title>pt</title>
<polygon fill="white" stroke="none" points="-4,4 -4,-1606 2938.3,-1606 2938.3,4 -4,4"/>
<!-- 6625641296 -->
<g id="node1" class="node">
<title>6625641296</title>
<ellipse fill="none" stroke="black" cx="27" cy="-909" rx="27" ry="18"/>
<text text-anchor="middle" x="27" y="-903.38" font-family="Times,serif" font-size="15.00">seq</text>
</g>
<!-- 6625640976 -->
<g id="node2" class="node">
<title>6625640976</title>
<ellipse fill="none" stroke="black" cx="239.06" cy="-990" rx="149.06" ry="18"/>
<text text-anchor="middle" x="239.06" y="-984.38" font-family="Times,serif" font-size="15.00">register submission date request</text>
</g>
<!-- 6625641296&#45;&#45;6625640976 -->
<g id="edge1" class="edge">
<title>6625641296&#45;&#45;6625640976</title>
<path fill="none" stroke="black" d="M50.88,-917.82C84.8,-930.9 149.12,-955.7 192.78,-972.54"/>
</g>
<!-- 6625654288 -->
<g id="node3" class="node">
<title>6625654288</title>
<ellipse fill="none" stroke="black" cx="239.06" cy="-936" rx="108.55" ry="18"/>
<text text-anchor="middle" x="239.06" y="-930.38" font-family="Times,serif" font-size="15.00">OLO messaging active</text>
</g>
<!-- 6625641296&#45;&#45;6625654288 -->
<g id="edge2" class="edge">
<title>6625641296&#45;&#45;6625654288</title>
<path fill="none" stroke="black" d="M53.76,-912.31C78.3,-915.47 116.64,-920.39 152.02,-924.94"/>
</g>
<!-- 6625647696 -->
<g id="node4" class="node">
<title>6625647696</title>
<ellipse fill="none" stroke="black" cx="239.06" cy="-882" rx="27" ry="18"/>
<text text-anchor="middle" x="239.06" y="-876.38" font-family="Times,serif" font-size="15.00">xor</text>
</g>
<!-- 6625641296&#45;&#45;6625647696 -->
<g id="edge50" class="edge">
<title>6625641296&#45;&#45;6625647696</title>
<path fill="none" stroke="black" d="M53.76,-905.69C94.08,-900.51 171.65,-890.54 212.1,-885.34"/>
</g>
<!-- 6625653776 -->
<g id="node52" class="node">
<title>6625653776</title>
<ellipse fill="none" stroke="black" cx="239.06" cy="-801" rx="27" ry="18"/>
<text text-anchor="middle" x="239.06" y="-795.38" font-family="Times,serif" font-size="15.00">xor</text>
</g>
<!-- 6625641296&#45;&#45;6625653776 -->
<g id="edge57" class="edge">
<title>6625641296&#45;&#45;6625653776</title>
<path fill="none" stroke="black" d="M48.91,-898.25C89.07,-877.6 176.59,-832.61 216.93,-811.87"/>
</g>
<!-- 6625644176 -->
<g id="node5" class="node">
<title>6625644176</title>
<ellipse fill="black" stroke="black" cx="583.19" cy="-921" rx="2.7" ry="2.7"/>
</g>
<!-- 6625647696&#45;&#45;6625644176 -->
<g id="edge3" class="edge">
<title>6625647696&#45;&#45;6625644176</title>
<path fill="none" stroke="black" d="M266.06,-884.96C341.53,-893.57 556.81,-918.11 580.13,-920.77"/>
</g>
<!-- 6625648528 -->
<g id="node6" class="node">
<title>6625648528</title>
<ellipse fill="none" stroke="black" cx="583.19" cy="-882" rx="27" ry="18"/>
<text text-anchor="middle" x="583.19" y="-876.38" font-family="Times,serif" font-size="15.00">seq</text>
</g>
<!-- 6625647696&#45;&#45;6625648528 -->
<g id="edge49" class="edge">
<title>6625647696&#45;&#45;6625648528</title>
<path fill="none" stroke="black" d="M266.34,-882C330.03,-882 492.05,-882 555.82,-882"/>
</g>
<!-- 6625649872 -->
<g id="node7" class="node">
<title>6625649872</title>
<ellipse fill="none" stroke="black" cx="965.72" cy="-936" rx="27" ry="18"/>
<text text-anchor="middle" x="965.72" y="-930.38" font-family="Times,serif" font-size="15.00">xor</text>
</g>
<!-- 6625648528&#45;&#45;6625649872 -->
<g id="edge6" class="edge">
<title>6625648528&#45;&#45;6625649872</title>
<path fill="none" stroke="black" d="M610.05,-885.67C679.47,-895.52 869.37,-922.47 938.83,-932.33"/>
</g>
<!-- 6625653200 -->
<g id="node10" class="node">
<title>6625653200</title>
<ellipse fill="none" stroke="black" cx="965.72" cy="-855" rx="27" ry="18"/>
<text text-anchor="middle" x="965.72" y="-849.38" font-family="Times,serif" font-size="15.00">and</text>
</g>
<!-- 6625648528&#45;&#45;6625653200 -->
<g id="edge48" class="edge">
<title>6625648528&#45;&#45;6625653200</title>
<path fill="none" stroke="black" d="M610.34,-880.14C679.86,-875.21 868.66,-861.82 938.38,-856.87"/>
</g>
<!-- 6625644816 -->
<g id="node8" class="node">
<title>6625644816</title>
<ellipse fill="black" stroke="black" cx="1392.97" cy="-975" rx="2.7" ry="2.7"/>
</g>
<!-- 6625649872&#45;&#45;6625644816 -->
<g id="edge4" class="edge">
<title>6625649872&#45;&#45;6625644816</title>
<path fill="none" stroke="black" d="M992.68,-938.38C1080.68,-946.45 1363.66,-972.4 1390,-974.82"/>
</g>
<!-- 6625642960 -->
<g id="node9" class="node">
<title>6625642960</title>
<ellipse fill="none" stroke="black" cx="1392.97" cy="-936" rx="203.78" ry="18"/>
<text text-anchor="middle" x="1392.97" y="-930.38" font-family="Times,serif" font-size="15.00">no permit needed or only notification needed</text>
</g>
<!-- 6625649872&#45;&#45;6625642960 -->
<g id="edge5" class="edge">
<title>6625649872&#45;&#45;6625642960</title>
<path fill="none" stroke="black" d="M993,-936C1032.7,-936 1111.56,-936 1188.77,-936"/>
</g>
<!-- 6625656336 -->
<g id="node11" class="node">
<title>6625656336</title>
<ellipse fill="none" stroke="black" cx="1392.97" cy="-882" rx="160.64" ry="18"/>
<text text-anchor="middle" x="1392.97" y="-876.38" font-family="Times,serif" font-size="15.00">forward to the competent authority</text>
</g>
<!-- 6625653200&#45;&#45;6625656336 -->
<g id="edge7" class="edge">
<title>6625653200&#45;&#45;6625656336</title>
<path fill="none" stroke="black" d="M993,-856.67C1043.79,-859.89 1158.68,-867.19 1252.19,-873.12"/>
</g>
<!-- 6625643216 -->
<g id="node12" class="node">
<title>6625643216</title>
<ellipse fill="none" stroke="black" cx="1392.97" cy="-828" rx="147.49" ry="18"/>
<text text-anchor="middle" x="1392.97" y="-822.38" font-family="Times,serif" font-size="15.00">regular procedure without MER</text>
</g>
<!-- 6625653200&#45;&#45;6625643216 -->
<g id="edge8" class="edge">
<title>6625653200&#45;&#45;6625643216</title>
<path fill="none" stroke="black" d="M993,-853.33C1045.42,-850 1166.12,-842.34 1261.12,-836.31"/>
</g>
<!-- 6625646736 -->
<g id="node13" class="node">
<title>6625646736</title>
<ellipse fill="none" stroke="black" cx="1392.97" cy="-774" rx="27" ry="18"/>
<text text-anchor="middle" x="1392.97" y="-768.38" font-family="Times,serif" font-size="15.00">xor</text>
</g>
<!-- 6625653200&#45;&#45;6625646736 -->
<g id="edge47" class="edge">
<title>6625653200&#45;&#45;6625646736</title>
<path fill="none" stroke="black" d="M992.05,-850.18C1067.59,-835.79 1290.79,-793.27 1366.51,-778.85"/>
</g>
<!-- 6625642320 -->
<g id="node14" class="node">
<title>6625642320</title>
<ellipse fill="none" stroke="black" cx="1659.75" cy="-1152" rx="27" ry="18"/>
<text text-anchor="middle" x="1659.75" y="-1146.38" font-family="Times,serif" font-size="15.00">seq</text>
</g>
<!-- 6625646736&#45;&#45;6625642320 -->
<g id="edge25" class="edge">
<title>6625646736&#45;&#45;6625642320</title>
<path fill="none" stroke="black" d="M1405.35,-790.24C1448.8,-852.28 1604.03,-1073.89 1647.42,-1135.82"/>
</g>
<!-- 6625643152 -->
<g id="node31" class="node">
<title>6625643152</title>
<ellipse fill="none" stroke="black" cx="1659.75" cy="-396" rx="27" ry="18"/>
<text text-anchor="middle" x="1659.75" y="-390.38" font-family="Times,serif" font-size="15.00">seq</text>
</g>
<!-- 6625646736&#45;&#45;6625643152 -->
<g id="edge46" class="edge">
<title>6625646736&#45;&#45;6625643152</title>
<path fill="none" stroke="black" d="M1405.35,-757.76C1448.8,-695.72 1604.03,-474.11 1647.42,-412.18"/>
</g>
<!-- 6625646864 -->
<g id="node15" class="node">
<title>6625646864</title>
<ellipse fill="none" stroke="black" cx="1922.85" cy="-1584" rx="200.1" ry="18"/>
<text text-anchor="middle" x="1922.85" y="-1578.38" font-family="Times,serif" font-size="15.00">registrer date of publishing received request</text>
</g>
<!-- 6625642320&#45;&#45;6625646864 -->
<g id="edge9" class="edge">
<title>6625642320&#45;&#45;6625646864</title>
<path fill="none" stroke="black" d="M1670.83,-1168.67C1712.06,-1236.9 1867.81,-1494.59 1910.8,-1565.72"/>
</g>
<!-- 6625640720 -->
<g id="node16" class="node">
<title>6625640720</title>
<ellipse fill="none" stroke="black" cx="1922.85" cy="-1530" rx="131.18" ry="18"/>
<text text-anchor="middle" x="1922.85" y="-1524.38" font-family="Times,serif" font-size="15.00">treat subcases completeness</text>
</g>
<!-- 6625642320&#45;&#45;6625640720 -->
<g id="edge10" class="edge">
<title>6625642320&#45;&#45;6625640720</title>
<path fill="none" stroke="black" d="M1671.97,-1168.24C1714.33,-1229.57 1864.42,-1446.86 1909.17,-1511.64"/>
</g>
<!-- 6625646096 -->
<g id="node17" class="node">
<title>6625646096</title>
<ellipse fill="none" stroke="black" cx="1922.85" cy="-1476" rx="156.43" ry="18"/>
<text text-anchor="middle" x="1922.85" y="-1470.38" font-family="Times,serif" font-size="15.00">subcases completeness completed</text>
</g>
<!-- 6625642320&#45;&#45;6625646096 -->
<g id="edge11" class="edge">
<title>6625642320&#45;&#45;6625646096</title>
<path fill="none" stroke="black" d="M1673.34,-1167.63C1716.84,-1221.6 1860.63,-1400.03 1907.17,-1457.79"/>
</g>
<!-- 6625656464 -->
<g id="node18" class="node">
<title>6625656464</title>
<ellipse fill="none" stroke="black" cx="1922.85" cy="-1422" rx="97.51" ry="18"/>
<text text-anchor="middle" x="1922.85" y="-1416.38" font-family="Times,serif" font-size="15.00">WAW permit aspect</text>
</g>
<!-- 6625642320&#45;&#45;6625656464 -->
<g id="edge12" class="edge">
<title>6625642320&#45;&#45;6625656464</title>
<path fill="none" stroke="black" d="M1675.16,-1166.9C1719.85,-1213.11 1855.99,-1353.9 1904.47,-1404.03"/>
</g>
<!-- 6625800848 -->
<g id="node19" class="node">
<title>6625800848</title>
<ellipse fill="none" stroke="black" cx="1922.85" cy="-1368" rx="139.07" ry="18"/>
<text text-anchor="middle" x="1922.85" y="-1362.38" font-family="Times,serif" font-size="15.00">multiple components selected</text>
</g>
<!-- 6625642320&#45;&#45;6625800848 -->
<g id="edge13" class="edge">
<title>6625642320&#45;&#45;6625800848</title>
<path fill="none" stroke="black" d="M1677.48,-1165.84C1722.95,-1203.46 1848.81,-1307.58 1899.89,-1349.83"/>
</g>
<!-- 6625803024 -->
<g id="node20" class="node">
<title>6625803024</title>
<ellipse fill="none" stroke="black" cx="1922.85" cy="-1314" rx="105.92" ry="18"/>
<text text-anchor="middle" x="1922.85" y="-1308.38" font-family="Times,serif" font-size="15.00">start WABOprocedure</text>
</g>
<!-- 6625642320&#45;&#45;6625803024 -->
<g id="edge14" class="edge">
<title>6625642320&#45;&#45;6625803024</title>
<path fill="none" stroke="black" d="M1680.38,-1164.18C1726.15,-1192.58 1840.15,-1263.31 1893.49,-1296.41"/>
</g>
<!-- 6625789328 -->
<g id="node21" class="node">
<title>6625789328</title>
<ellipse fill="none" stroke="black" cx="1922.85" cy="-1260" rx="140.65" ry="18"/>
<text text-anchor="middle" x="1922.85" y="-1254.38" font-family="Times,serif" font-size="15.00">create procedure confirmation</text>
</g>
<!-- 6625642320&#45;&#45;6625789328 -->
<g id="edge15" class="edge">
<title>6625642320&#45;&#45;6625789328</title>
<path fill="none" stroke="black" d="M1683.01,-1161.21C1726.54,-1179.21 1823.58,-1219.35 1879.65,-1242.54"/>
</g>
<!-- 6625797200 -->
<g id="node22" class="node">
<title>6625797200</title>
<ellipse fill="none" stroke="black" cx="1922.85" cy="-1206" rx="42.79" ry="18"/>
<text text-anchor="middle" x="1922.85" y="-1200.38" font-family="Times,serif" font-size="15.00">publish</text>
</g>
<!-- 6625642320&#45;&#45;6625797200 -->
<g id="edge16" class="edge">
<title>6625642320&#45;&#45;6625797200</title>
<path fill="none" stroke="black" d="M1685.79,-1157.18C1731.74,-1166.68 1829.77,-1186.96 1883.93,-1198.16"/>
</g>
<!-- 6625794768 -->
<g id="node23" class="node">
<title>6625794768</title>
<ellipse fill="none" stroke="black" cx="1922.85" cy="-1152" rx="137.49" ry="18"/>
<text text-anchor="middle" x="1922.85" y="-1146.38" font-family="Times,serif" font-size="15.00">create subcases completeness</text>
</g>
<!-- 6625642320&#45;&#45;6625794768 -->
<g id="edge17" class="edge">
<title>6625642320&#45;&#45;6625794768</title>
<path fill="none" stroke="black" d="M1687.22,-1152C1710.95,-1152 1747.69,-1152 1785.11,-1152"/>
</g>
<!-- 6625796176 -->
<g id="node24" class="node">
<title>6625796176</title>
<ellipse fill="none" stroke="black" cx="1922.85" cy="-1098" rx="86.46" ry="18"/>
<text text-anchor="middle" x="1922.85" y="-1092.38" font-family="Times,serif" font-size="15.00">procedure change</text>
</g>
<!-- 6625642320&#45;&#45;6625796176 -->
<g id="edge18" class="edge">
<title>6625642320&#45;&#45;6625796176</title>
<path fill="none" stroke="black" d="M1685.79,-1146.82C1725.61,-1138.59 1804.56,-1122.26 1860.16,-1110.76"/>
</g>
<!-- 6625789712 -->
<g id="node25" class="node">
<title>6625789712</title>
<ellipse fill="none" stroke="black" cx="1922.85" cy="-1044" rx="84.35" ry="18"/>
<text text-anchor="middle" x="1922.85" y="-1038.38" font-family="Times,serif" font-size="15.00">request complete</text>
</g>
<!-- 6625642320&#45;&#45;6625789712 -->
<g id="edge19" class="edge">
<title>6625642320&#45;&#45;6625789712</title>
<path fill="none" stroke="black" d="M1683.01,-1142.79C1727.41,-1124.43 1827.45,-1083.05 1882.94,-1060.1"/>
</g>
<!-- 6625789584 -->
<g id="node26" class="node">
<title>6625789584</title>
<ellipse fill="none" stroke="black" cx="1922.85" cy="-990" rx="148.01" ry="18"/>
<text text-anchor="middle" x="1922.85" y="-984.38" font-family="Times,serif" font-size="15.00">term for supplying missing data</text>
</g>
<!-- 6625642320&#45;&#45;6625789584 -->
<g id="edge20" class="edge">
<title>6625642320&#45;&#45;6625789584</title>
<path fill="none" stroke="black" d="M1680.38,-1139.82C1725.92,-1111.57 1838.97,-1041.42 1892.66,-1008.11"/>
</g>
<!-- 6625789200 -->
<g id="node27" class="node">
<title>6625789200</title>
<ellipse fill="none" stroke="black" cx="1922.85" cy="-936" rx="166.43" ry="18"/>
<text text-anchor="middle" x="1922.85" y="-930.38" font-family="Times,serif" font-size="15.00">create letter requesting missing data</text>
</g>
<!-- 6625642320&#45;&#45;6625789200 -->
<g id="edge21" class="edge">
<title>6625642320&#45;&#45;6625789200</title>
<path fill="none" stroke="black" d="M1677.48,-1138.16C1722.95,-1100.54 1848.81,-996.42 1899.89,-954.17"/>
</g>
<!-- 6625792336 -->
<g id="node28" class="node">
<title>6625792336</title>
<ellipse fill="none" stroke="black" cx="1922.85" cy="-882" rx="101.19" ry="18"/>
<text text-anchor="middle" x="1922.85" y="-876.38" font-family="Times,serif" font-size="15.00">retrieve missing data</text>
</g>
<!-- 6625642320&#45;&#45;6625792336 -->
<g id="edge22" class="edge">
<title>6625642320&#45;&#45;6625792336</title>
<path fill="none" stroke="black" d="M1675.16,-1137.1C1719.85,-1090.89 1855.99,-950.1 1904.47,-899.97"/>
</g>
<!-- 6625791888 -->
<g id="node29" class="node">
<title>6625791888</title>
<ellipse fill="none" stroke="black" cx="1922.85" cy="-828" rx="161.69" ry="18"/>
<text text-anchor="middle" x="1922.85" y="-822.38" font-family="Times,serif" font-size="15.00">phase asked additional information</text>
</g>
<!-- 6625642320&#45;&#45;6625791888 -->
<g id="edge23" class="edge">
<title>6625642320&#45;&#45;6625791888</title>
<path fill="none" stroke="black" d="M1673.34,-1136.37C1716.84,-1082.4 1860.63,-903.97 1907.17,-846.21"/>
</g>
<!-- 6625795024 -->
<g id="node30" class="node">
<title>6625795024</title>
<ellipse fill="none" stroke="black" cx="1922.85" cy="-774" rx="165.37" ry="18"/>
<text text-anchor="middle" x="1922.85" y="-768.38" font-family="Times,serif" font-size="15.00">enter senddate retrieve missing data</text>
</g>
<!-- 6625642320&#45;&#45;6625795024 -->
<g id="edge24" class="edge">
<title>6625642320&#45;&#45;6625795024</title>
<path fill="none" stroke="black" d="M1671.97,-1135.76C1714.33,-1074.43 1864.42,-857.14 1909.17,-792.36"/>
</g>
<!-- 6625800528 -->
<g id="node32" class="node">
<title>6625800528</title>
<ellipse fill="none" stroke="black" cx="1922.85" cy="-720" rx="139.07" ry="18"/>
<text text-anchor="middle" x="1922.85" y="-714.38" font-family="Times,serif" font-size="15.00">initiative competent authority</text>
</g>
<!-- 6625643152&#45;&#45;6625800528 -->
<g id="edge26" class="edge">
<title>6625643152&#45;&#45;6625800528</title>
<path fill="none" stroke="black" d="M1673.34,-411.63C1716.84,-465.6 1860.63,-644.03 1907.17,-701.79"/>
</g>
<!-- 6625802512 -->
<g id="node33" class="node">
<title>6625802512</title>
<ellipse fill="none" stroke="black" cx="1922.85" cy="-666" rx="47" ry="18"/>
<text text-anchor="middle" x="1922.85" y="-660.38" font-family="Times,serif" font-size="15.00">xor loop</text>
</g>
<!-- 6625643152&#45;&#45;6625802512 -->
<g id="edge29" class="edge">
<title>6625643152&#45;&#45;6625802512</title>
<path fill="none" stroke="black" d="M1675.16,-410.9C1720.17,-457.44 1857.95,-599.92 1905.51,-649.1"/>
</g>
<!-- 6626619344 -->
<g id="node36" class="node">
<title>6626619344</title>
<ellipse fill="none" stroke="black" cx="1922.85" cy="-612" rx="178.53" ry="18"/>
<text text-anchor="middle" x="1922.85" y="-606.38" font-family="Times,serif" font-size="15.00">enter date termination request received</text>
</g>
<!-- 6625643152&#45;&#45;6626619344 -->
<g id="edge30" class="edge">
<title>6625643152&#45;&#45;6626619344</title>
<path fill="none" stroke="black" d="M1677.48,-409.84C1722.95,-447.46 1848.81,-551.58 1899.89,-593.83"/>
</g>
<!-- 6626610960 -->
<g id="node37" class="node">
<title>6626610960</title>
<ellipse fill="none" stroke="black" cx="1922.85" cy="-558" rx="27" ry="18"/>
<text text-anchor="middle" x="1922.85" y="-552.38" font-family="Times,serif" font-size="15.00">and</text>
</g>
<!-- 6625643152&#45;&#45;6626610960 -->
<g id="edge35" class="edge">
<title>6625643152&#45;&#45;6626610960</title>
<path fill="none" stroke="black" d="M1680.38,-408.18C1728.88,-438.27 1853.98,-515.89 1902.35,-545.9"/>
</g>
<!-- 6626616784 -->
<g id="node42" class="node">
<title>6626616784</title>
<ellipse fill="none" stroke="black" cx="1922.85" cy="-504" rx="134.33" ry="18"/>
<text text-anchor="middle" x="1922.85" y="-498.38" font-family="Times,serif" font-size="15.00">send procedure confirmation</text>
</g>
<!-- 6625643152&#45;&#45;6626616784 -->
<g id="edge36" class="edge">
<title>6625643152&#45;&#45;6626616784</title>
<path fill="none" stroke="black" d="M1683.01,-405.21C1726.54,-423.21 1823.58,-463.35 1879.65,-486.54"/>
</g>
<!-- 6626607184 -->
<g id="node43" class="node">
<title>6626607184</title>
<ellipse fill="none" stroke="black" cx="1922.85" cy="-450" rx="107.5" ry="18"/>
<text text-anchor="middle" x="1922.85" y="-444.38" font-family="Times,serif" font-size="15.00">extend procedure term</text>
</g>
<!-- 6625643152&#45;&#45;6626607184 -->
<g id="edge37" class="edge">
<title>6625643152&#45;&#45;6626607184</title>
<path fill="none" stroke="black" d="M1685.79,-401.18C1724.08,-409.1 1798.54,-424.5 1853.64,-435.89"/>
</g>
<!-- 6626622608 -->
<g id="node44" class="node">
<title>6626622608</title>
<ellipse fill="none" stroke="black" cx="1922.85" cy="-396" rx="99.08" ry="18"/>
<text text-anchor="middle" x="1922.85" y="-390.38" font-family="Times,serif" font-size="15.00">terminate on request</text>
</g>
<!-- 6625643152&#45;&#45;6626622608 -->
<g id="edge38" class="edge">
<title>6625643152&#45;&#45;6626622608</title>
<path fill="none" stroke="black" d="M1687.22,-396C1719.12,-396 1774.52,-396 1823.49,-396"/>
</g>
<!-- 6626607824 -->
<g id="node45" class="node">
<title>6626607824</title>
<ellipse fill="none" stroke="black" cx="1922.85" cy="-342" rx="165.9" ry="18"/>
<text text-anchor="middle" x="1922.85" y="-336.38" font-family="Times,serif" font-size="15.00">create decision terminate on request</text>
</g>
<!-- 6625643152&#45;&#45;6626607824 -->
<g id="edge39" class="edge">
<title>6625643152&#45;&#45;6626607824</title>
<path fill="none" stroke="black" d="M1685.79,-390.82C1721.78,-383.38 1789.74,-369.32 1843.53,-358.2"/>
</g>
<!-- 6626607248 -->
<g id="node46" class="node">
<title>6626607248</title>
<ellipse fill="none" stroke="black" cx="1922.85" cy="-288" rx="137.49" ry="18"/>
<text text-anchor="middle" x="1922.85" y="-282.38" font-family="Times,serif" font-size="15.00">decision terminate on request</text>
</g>
<!-- 6625643152&#45;&#45;6626607248 -->
<g id="edge40" class="edge">
<title>6625643152&#45;&#45;6626607248</title>
<path fill="none" stroke="black" d="M1683.01,-386.79C1726.54,-368.79 1823.58,-328.65 1879.65,-305.46"/>
</g>
<!-- 6626618448 -->
<g id="node47" class="node">
<title>6626618448</title>
<ellipse fill="none" stroke="black" cx="1922.85" cy="-234" rx="153.27" ry="18"/>
<text text-anchor="middle" x="1922.85" y="-228.38" font-family="Times,serif" font-size="15.00">create message terminate request</text>
</g>
<!-- 6625643152&#45;&#45;6626618448 -->
<g id="edge41" class="edge">
<title>6625643152&#45;&#45;6626618448</title>
<path fill="none" stroke="black" d="M1680.38,-383.82C1725.92,-355.57 1838.97,-285.42 1892.66,-252.11"/>
</g>
<!-- 6626610896 -->
<g id="node48" class="node">
<title>6626610896</title>
<ellipse fill="none" stroke="black" cx="1922.85" cy="-180" rx="124.86" ry="18"/>
<text text-anchor="middle" x="1922.85" y="-174.38" font-family="Times,serif" font-size="15.00">message terminate request</text>
</g>
<!-- 6625643152&#45;&#45;6626610896 -->
<g id="edge42" class="edge">
<title>6625643152&#45;&#45;6626610896</title>
<path fill="none" stroke="black" d="M1677.48,-382.16C1722.95,-344.54 1848.81,-240.42 1899.89,-198.17"/>
</g>
<!-- 6626609680 -->
<g id="node49" class="node">
<title>6626609680</title>
<ellipse fill="none" stroke="black" cx="1922.85" cy="-126" rx="123.81" ry="18"/>
<text text-anchor="middle" x="1922.85" y="-120.38" font-family="Times,serif" font-size="15.00">read publication date field</text>
</g>
<!-- 6625643152&#45;&#45;6626609680 -->
<g id="edge43" class="edge">
<title>6625643152&#45;&#45;6626609680</title>
<path fill="none" stroke="black" d="M1675.16,-381.1C1719.85,-334.89 1855.99,-194.1 1904.47,-143.97"/>
</g>
<!-- 6626607696 -->
<g id="node50" class="node">
<title>6626607696</title>
<ellipse fill="none" stroke="black" cx="1922.85" cy="-72" rx="184.31" ry="18"/>
<text text-anchor="middle" x="1922.85" y="-66.38" font-family="Times,serif" font-size="15.00">phase procedure prematurely terminated</text>
</g>
<!-- 6625643152&#45;&#45;6626607696 -->
<g id="edge44" class="edge">
<title>6625643152&#45;&#45;6626607696</title>
<path fill="none" stroke="black" d="M1673.34,-380.37C1716.84,-326.4 1860.63,-147.97 1907.17,-90.21"/>
</g>
<!-- 6626617808 -->
<g id="node51" class="node">
<title>6626617808</title>
<ellipse fill="none" stroke="black" cx="1922.85" cy="-18" rx="115.39" ry="18"/>
<text text-anchor="middle" x="1922.85" y="-12.38" font-family="Times,serif" font-size="15.00">phase procedure aborted</text>
</g>
<!-- 6625643152&#45;&#45;6626617808 -->
<g id="edge45" class="edge">
<title>6625643152&#45;&#45;6626617808</title>
<path fill="none" stroke="black" d="M1671.97,-379.76C1714.33,-318.43 1864.42,-101.14 1909.17,-36.36"/>
</g>
<!-- 6626615504 -->
<g id="node34" class="node">
<title>6626615504</title>
<ellipse fill="none" stroke="black" cx="2335.37" cy="-706" rx="176.42" ry="18"/>
<text text-anchor="middle" x="2335.37" y="-700.38" font-family="Times,serif" font-size="15.00">enter senddate procedure confirmation</text>
</g>
<!-- 6625802512&#45;&#45;6626615504 -->
<g id="edge27" class="edge">
<title>6625802512&#45;&#45;6626615504</title>
<path fill="none" stroke="black" d="M1968.96,-670.4C2025.5,-675.91 2124.83,-685.58 2205.67,-693.46"/>
</g>
<!-- 6626607504 -->
<g id="node35" class="node">
<title>6626607504</title>
<ellipse fill="none" stroke="black" cx="2335.37" cy="-652" rx="128.02" ry="18"/>
<text text-anchor="middle" x="2335.37" y="-646.38" font-family="Times,serif" font-size="15.00">phase application receptive</text>
</g>
<!-- 6625802512&#45;&#45;6626607504 -->
<g id="edge28" class="edge">
<title>6625802512&#45;&#45;6626607504</title>
<path fill="none" stroke="black" d="M1970.14,-664.42C2028.02,-662.45 2129.33,-658.99 2210.44,-656.23"/>
</g>
<!-- 6626618064 -->
<g id="node38" class="node">
<title>6626618064</title>
<ellipse fill="none" stroke="black" cx="2335.37" cy="-571" rx="27" ry="18"/>
<text text-anchor="middle" x="2335.37" y="-565.38" font-family="Times,serif" font-size="15.00">seq</text>
</g>
<!-- 6626610960&#45;&#45;6626618064 -->
<g id="edge33" class="edge">
<title>6626610960&#45;&#45;6626618064</title>
<path fill="none" stroke="black" d="M1950.15,-558.83C2024.21,-561.18 2233.9,-567.82 2308.02,-570.17"/>
</g>
<!-- 6626616976 -->
<g id="node41" class="node">
<title>6626616976</title>
<ellipse fill="none" stroke="black" cx="2335.37" cy="-517" rx="164.85" ry="18"/>
<text text-anchor="middle" x="2335.37" y="-511.38" font-family="Times,serif" font-size="15.00">enter senddate confirmation request</text>
</g>
<!-- 6626610960&#45;&#45;6626616976 -->
<g id="edge34" class="edge">
<title>6626610960&#45;&#45;6626616976</title>
<path fill="none" stroke="black" d="M1949.84,-555.4C2001.48,-550.25 2119.95,-538.42 2211.84,-529.24"/>
</g>
<!-- 6626611664 -->
<g id="node39" class="node">
<title>6626611664</title>
<ellipse fill="none" stroke="black" cx="2741.05" cy="-598" rx="193.26" ry="18"/>
<text text-anchor="middle" x="2741.05" y="-592.38" font-family="Times,serif" font-size="15.00">register date decision terminate on request</text>
</g>
<!-- 6626618064&#45;&#45;6626611664 -->
<g id="edge31" class="edge">
<title>6626618064&#45;&#45;6626611664</title>
<path fill="none" stroke="black" d="M2362.54,-572.75C2406.83,-575.71 2499.81,-581.93 2582.4,-587.46"/>
</g>
<!-- 6626623120 -->
<g id="node40" class="node">
<title>6626623120</title>
<ellipse fill="none" stroke="black" cx="2741.05" cy="-544" rx="82.77" ry="18"/>
<text text-anchor="middle" x="2741.05" y="-538.38" font-family="Times,serif" font-size="15.00">register deadline</text>
</g>
<!-- 6626618064&#45;&#45;6626623120 -->
<g id="edge32" class="edge">
<title>6626618064&#45;&#45;6626623120</title>
<path fill="none" stroke="black" d="M2362.54,-569.25C2422.03,-565.27 2569.36,-555.42 2661.38,-549.26"/>
</g>
<!-- 6626612304 -->
<g id="node53" class="node">
<title>6626612304</title>
<ellipse fill="none" stroke="black" cx="583.19" cy="-828" rx="54.36" ry="18"/>
<text text-anchor="middle" x="583.19" y="-822.38" font-family="Times,serif" font-size="15.00">close case</text>
</g>
<!-- 6625653776&#45;&#45;6626612304 -->
<g id="edge51" class="edge">
<title>6625653776&#45;&#45;6626612304</title>
<path fill="none" stroke="black" d="M266.34,-803.07C322.59,-807.51 455.57,-818.01 529.79,-823.86"/>
</g>
<!-- 6626621712 -->
<g id="node54" class="node">
<title>6626621712</title>
<ellipse fill="none" stroke="black" cx="583.19" cy="-774" rx="159.06" ry="18"/>
<text text-anchor="middle" x="583.19" y="-768.38" font-family="Times,serif" font-size="15.00">enter senddate request termination</text>
</g>
<!-- 6625653776&#45;&#45;6626621712 -->
<g id="edge52" class="edge">
<title>6625653776&#45;&#45;6626621712</title>
<path fill="none" stroke="black" d="M266.34,-798.93C305.77,-795.81 382.9,-789.73 451.07,-784.35"/>
</g>
<!-- 6626610448 -->
<g id="node55" class="node">
<title>6626610448</title>
<ellipse fill="none" stroke="black" cx="583.19" cy="-720" rx="27" ry="18"/>
<text text-anchor="middle" x="583.19" y="-714.38" font-family="Times,serif" font-size="15.00">seq</text>
</g>
<!-- 6625653776&#45;&#45;6626610448 -->
<g id="edge56" class="edge">
<title>6625653776&#45;&#45;6626610448</title>
<path fill="none" stroke="black" d="M264.94,-795.11C328.14,-780.15 494.31,-740.81 557.4,-725.87"/>
</g>
<!-- 6626608720 -->
<g id="node56" class="node">
<title>6626608720</title>
<ellipse fill="none" stroke="black" cx="965.72" cy="-774" rx="141.7" ry="18"/>
<text text-anchor="middle" x="965.72" y="-768.38" font-family="Times,serif" font-size="15.00">receive additional information</text>
</g>
<!-- 6626610448&#45;&#45;6626608720 -->
<g id="edge53" class="edge">
<title>6626610448&#45;&#45;6626608720</title>
<path fill="none" stroke="black" d="M610.05,-723.67C662.4,-731.1 783.3,-748.25 869.36,-760.47"/>
</g>
<!-- 6626622672 -->
<g id="node57" class="node">
<title>6626622672</title>
<ellipse fill="none" stroke="black" cx="965.72" cy="-720" rx="134.33" ry="18"/>
<text text-anchor="middle" x="965.72" y="-714.38" font-family="Times,serif" font-size="15.00">keep permanently suspended</text>
</g>
<!-- 6626610448&#45;&#45;6626622672 -->
<g id="edge54" class="edge">
<title>6626610448&#45;&#45;6626622672</title>
<path fill="none" stroke="black" d="M610.65,-720C655.82,-720 750.71,-720 830.9,-720"/>
</g>
<!-- 6626608528 -->
<g id="node58" class="node">
<title>6626608528</title>
<ellipse fill="none" stroke="black" cx="965.72" cy="-666" rx="187.47" ry="18"/>
<text text-anchor="middle" x="965.72" y="-660.38" font-family="Times,serif" font-size="15.00">creating decision permanently suspended</text>
</g>
<!-- 6626610448&#45;&#45;6626608528 -->
<g id="edge55" class="edge">
<title>6626610448&#45;&#45;6626608528</title>
<path fill="none" stroke="black" d="M610.05,-716.33C660.15,-709.22 773,-693.21 858.04,-681.14"/>
</g>
</g>
</svg>
