<?xml version="1.0" encoding="UTF-8" standalone="no"?>
<!DOCTYPE svg PUBLIC "-//W3C//DTD SVG 1.1//EN"
 "http://www.w3.org/Graphics/SVG/1.1/DTD/svg11.dtd">
<!-- Generated by graphviz version 8.0.5 (20230430.1635)
 -->
<!-- Title: pt Pages: 1 -->
<svg width="3690pt" height="854pt"
 viewBox="0.00 0.00 3690.05 854.00" xmlns="http://www.w3.org/2000/svg" xmlns:xlink="http://www.w3.org/1999/xlink">
<g id="graph0" class="graph" transform="scale(1 1) rotate(0) translate(4 850)">
<title>pt</title>
<polygon fill="white" stroke="none" points="-4,4 -4,-850 3686.05,-850 3686.05,4 -4,4"/>
<!-- 6626871312 -->
<g id="node1" class="node">
<title>6626871312</title>
<ellipse fill="none" stroke="black" cx="27" cy="-666" rx="27" ry="18"/>
<text text-anchor="middle" x="27" y="-660.38" font-family="Times,serif" font-size="15.00">seq</text>
</g>
<!-- 6626869712 -->
<g id="node2" class="node">
<title>6626869712</title>
<ellipse fill="none" stroke="black" cx="239.06" cy="-720" rx="149.06" ry="18"/>
<text text-anchor="middle" x="239.06" y="-714.38" font-family="Times,serif" font-size="15.00">register submission date request</text>
</g>
<!-- 6626871312&#45;&#45;6626869712 -->
<g id="edge1" class="edge">
<title>6626871312&#45;&#45;6626869712</title>
<path fill="none" stroke="black" d="M52.51,-672.3C82.05,-679.9 132.85,-692.95 173.83,-703.49"/>
</g>
<!-- 6626870416 -->
<g id="node3" class="node">
<title>6626870416</title>
<ellipse fill="none" stroke="black" cx="239.06" cy="-666" rx="27" ry="18"/>
<text text-anchor="middle" x="239.06" y="-660.38" font-family="Times,serif" font-size="15.00">xor</text>
</g>
<!-- 6626871312&#45;&#45;6626870416 -->
<g id="edge43" class="edge">
<title>6626871312&#45;&#45;6626870416</title>
<path fill="none" stroke="black" d="M54.18,-666C94.54,-666 171.52,-666 211.89,-666"/>
</g>
<!-- 6626873744 -->
<g id="node45" class="node">
<title>6626873744</title>
<ellipse fill="none" stroke="black" cx="239.06" cy="-504" rx="27" ry="18"/>
<text text-anchor="middle" x="239.06" y="-498.38" font-family="Times,serif" font-size="15.00">xor</text>
</g>
<!-- 6626871312&#45;&#45;6626873744 -->
<g id="edge64" class="edge">
<title>6626871312&#45;&#45;6626873744</title>
<path fill="none" stroke="black" d="M45.55,-652.47C85.19,-621.9 181.26,-547.81 220.71,-517.38"/>
</g>
<!-- 6626870224 -->
<g id="node4" class="node">
<title>6626870224</title>
<ellipse fill="black" stroke="black" cx="556.88" cy="-705" rx="2.7" ry="2.7"/>
</g>
<!-- 6626870416&#45;&#45;6626870224 -->
<g id="edge2" class="edge">
<title>6626870416&#45;&#45;6626870224</title>
<path fill="none" stroke="black" d="M265.91,-669.19C337.21,-678 532.83,-702.15 554.02,-704.77"/>
</g>
<!-- 6626869904 -->
<g id="node5" class="node">
<title>6626869904</title>
<ellipse fill="none" stroke="black" cx="556.88" cy="-666" rx="27" ry="18"/>
<text text-anchor="middle" x="556.88" y="-660.38" font-family="Times,serif" font-size="15.00">seq</text>
</g>
<!-- 6626870416&#45;&#45;6626869904 -->
<g id="edge42" class="edge">
<title>6626870416&#45;&#45;6626869904</title>
<path fill="none" stroke="black" d="M266.45,-666C326.04,-666 470.48,-666 529.8,-666"/>
</g>
<!-- 6626881104 -->
<g id="node6" class="node">
<title>6626881104</title>
<ellipse fill="none" stroke="black" cx="904.17" cy="-747" rx="27" ry="18"/>
<text text-anchor="middle" x="904.17" y="-741.38" font-family="Times,serif" font-size="15.00">and</text>
</g>
<!-- 6626869904&#45;&#45;6626881104 -->
<g id="edge37" class="edge">
<title>6626869904&#45;&#45;6626881104</title>
<path fill="none" stroke="black" d="M582.72,-671.83C646.27,-686.73 814.28,-726.15 878.09,-741.12"/>
</g>
<!-- 6626885392 -->
<g id="node41" class="node">
<title>6626885392</title>
<ellipse fill="none" stroke="black" cx="904.17" cy="-693" rx="147.49" ry="18"/>
<text text-anchor="middle" x="904.17" y="-687.38" font-family="Times,serif" font-size="15.00">regular procedure without MER</text>
</g>
<!-- 6626869904&#45;&#45;6626885392 -->
<g id="edge38" class="edge">
<title>6626869904&#45;&#45;6626885392</title>
<path fill="none" stroke="black" d="M584.12,-668.05C625.35,-671.28 707.93,-677.73 778.74,-683.27"/>
</g>
<!-- 6625790544 -->
<g id="node42" class="node">
<title>6625790544</title>
<ellipse fill="none" stroke="black" cx="904.17" cy="-639" rx="27" ry="18"/>
<text text-anchor="middle" x="904.17" y="-633.38" font-family="Times,serif" font-size="15.00">and</text>
</g>
<!-- 6626869904&#45;&#45;6625790544 -->
<g id="edge41" class="edge">
<title>6626869904&#45;&#45;6625790544</title>
<path fill="none" stroke="black" d="M584.12,-663.95C648.33,-658.93 812.8,-646.07 876.97,-641.05"/>
</g>
<!-- 6626874704 -->
<g id="node7" class="node">
<title>6626874704</title>
<ellipse fill="none" stroke="black" cx="1385.08" cy="-801" rx="112.76" ry="18"/>
<text text-anchor="middle" x="1385.08" y="-795.38" font-family="Times,serif" font-size="15.00">applicant is stakeholder</text>
</g>
<!-- 6626881104&#45;&#45;6626874704 -->
<g id="edge3" class="edge">
<title>6626881104&#45;&#45;6626874704</title>
<path fill="none" stroke="black" d="M931.25,-749.94C998.5,-757.52 1180.26,-778.02 1291.99,-790.62"/>
</g>
<!-- 6626878224 -->
<g id="node8" class="node">
<title>6626878224</title>
<ellipse fill="none" stroke="black" cx="1385.08" cy="-747" rx="124.86" ry="18"/>
<text text-anchor="middle" x="1385.08" y="-741.38" font-family="Times,serif" font-size="15.00">phase application received</text>
</g>
<!-- 6626881104&#45;&#45;6626878224 -->
<g id="edge4" class="edge">
<title>6626881104&#45;&#45;6626878224</title>
<path fill="none" stroke="black" d="M931.6,-747C992.97,-747 1148.41,-747 1259.97,-747"/>
</g>
<!-- 6626877328 -->
<g id="node9" class="node">
<title>6626877328</title>
<ellipse fill="none" stroke="black" cx="1385.08" cy="-693" rx="27" ry="18"/>
<text text-anchor="middle" x="1385.08" y="-687.38" font-family="Times,serif" font-size="15.00">seq</text>
</g>
<!-- 6626881104&#45;&#45;6626877328 -->
<g id="edge36" class="edge">
<title>6626881104&#45;&#45;6626877328</title>
<path fill="none" stroke="black" d="M931.25,-744.06C1014.7,-734.65 1274.49,-705.36 1357.97,-695.94"/>
</g>
<!-- 6627112912 -->
<g id="node10" class="node">
<title>6627112912</title>
<ellipse fill="none" stroke="black" cx="1863.89" cy="-828" rx="176.42" ry="18"/>
<text text-anchor="middle" x="1863.89" y="-822.38" font-family="Times,serif" font-size="15.00">enter senddate procedure confirmation</text>
</g>
<!-- 6626877328&#45;&#45;6627112912 -->
<g id="edge5" class="edge">
<title>6626877328&#45;&#45;6627112912</title>
<path fill="none" stroke="black" d="M1410.38,-699.88C1482.4,-720.27 1696.26,-780.82 1802.13,-810.8"/>
</g>
<!-- 6627113488 -->
<g id="node11" class="node">
<title>6627113488</title>
<ellipse fill="none" stroke="black" cx="1863.89" cy="-774" rx="27" ry="18"/>
<text text-anchor="middle" x="1863.89" y="-768.38" font-family="Times,serif" font-size="15.00">xor</text>
</g>
<!-- 6626877328&#45;&#45;6627113488 -->
<g id="edge8" class="edge">
<title>6626877328&#45;&#45;6627113488</title>
<path fill="none" stroke="black" d="M1411.71,-697.35C1494.6,-711.44 1754.76,-755.63 1837.42,-769.67"/>
</g>
<!-- 6627108240 -->
<g id="node14" class="node">
<title>6627108240</title>
<ellipse fill="none" stroke="black" cx="1863.89" cy="-720" rx="47" ry="18"/>
<text text-anchor="middle" x="1863.89" y="-714.38" font-family="Times,serif" font-size="15.00">xor loop</text>
</g>
<!-- 6626877328&#45;&#45;6627108240 -->
<g id="edge11" class="edge">
<title>6626877328&#45;&#45;6627108240</title>
<path fill="none" stroke="black" d="M1412.39,-694.49C1490,-698.88 1718.64,-711.83 1817.02,-717.4"/>
</g>
<!-- 6627113808 -->
<g id="node17" class="node">
<title>6627113808</title>
<ellipse fill="none" stroke="black" cx="1863.89" cy="-666" rx="152.75" ry="18"/>
<text text-anchor="middle" x="1863.89" y="-660.38" font-family="Times,serif" font-size="15.00">enter senddate acknowledgement</text>
</g>
<!-- 6626877328&#45;&#45;6627113808 -->
<g id="edge12" class="edge">
<title>6626877328&#45;&#45;6627113808</title>
<path fill="none" stroke="black" d="M1412.39,-691.51C1470.91,-688.2 1615.32,-680.02 1724.99,-673.81"/>
</g>
<!-- 6627106192 -->
<g id="node18" class="node">
<title>6627106192</title>
<ellipse fill="none" stroke="black" cx="1863.89" cy="-612" rx="27" ry="18"/>
<text text-anchor="middle" x="1863.89" y="-606.38" font-family="Times,serif" font-size="15.00">xor</text>
</g>
<!-- 6626877328&#45;&#45;6627106192 -->
<g id="edge15" class="edge">
<title>6626877328&#45;&#45;6627106192</title>
<path fill="none" stroke="black" d="M1411.71,-688.65C1494.6,-674.56 1754.76,-630.37 1837.42,-616.33"/>
</g>
<!-- 6627099600 -->
<g id="node21" class="node">
<title>6627099600</title>
<ellipse fill="none" stroke="black" cx="1863.89" cy="-534" rx="27" ry="18"/>
<text text-anchor="middle" x="1863.89" y="-528.38" font-family="Times,serif" font-size="15.00">and</text>
</g>
<!-- 6626877328&#45;&#45;6627099600 -->
<g id="edge35" class="edge">
<title>6626877328&#45;&#45;6627099600</title>
<path fill="none" stroke="black" d="M1409.72,-685.12C1490.9,-658.05 1757.71,-569.07 1839.1,-541.93"/>
</g>
<!-- 6627111952 -->
<g id="node12" class="node">
<title>6627111952</title>
<ellipse fill="none" stroke="black" cx="2236.95" cy="-828" rx="110.66" ry="18"/>
<text text-anchor="middle" x="2236.95" y="-822.38" font-family="Times,serif" font-size="15.00">reception through OLO</text>
</g>
<!-- 6627113488&#45;&#45;6627111952 -->
<g id="edge6" class="edge">
<title>6627113488&#45;&#45;6627111952</title>
<path fill="none" stroke="black" d="M1890.69,-777.75C1944.18,-785.54 2069.2,-803.73 2153.19,-815.96"/>
</g>
<!-- 6627102032 -->
<g id="node13" class="node">
<title>6627102032</title>
<ellipse fill="none" stroke="black" cx="2236.95" cy="-774" rx="108.55" ry="18"/>
<text text-anchor="middle" x="2236.95" y="-768.38" font-family="Times,serif" font-size="15.00">OLO messaging active</text>
</g>
<!-- 6627113488&#45;&#45;6627102032 -->
<g id="edge7" class="edge">
<title>6627113488&#45;&#45;6627102032</title>
<path fill="none" stroke="black" d="M1891.28,-774C1939.95,-774 2046.38,-774 2128.18,-774"/>
</g>
<!-- 6627107792 -->
<g id="node15" class="node">
<title>6627107792</title>
<ellipse fill="none" stroke="black" cx="2236.95" cy="-720" rx="121.18" ry="18"/>
<text text-anchor="middle" x="2236.95" y="-714.38" font-family="Times,serif" font-size="15.00">send confirmation receipt</text>
</g>
<!-- 6627108240&#45;&#45;6627107792 -->
<g id="edge9" class="edge">
<title>6627108240&#45;&#45;6627107792</title>
<path fill="none" stroke="black" d="M1911.13,-720C1962.03,-720 2045.9,-720 2115.66,-720"/>
</g>
<!-- 6627099024 -->
<g id="node16" class="node">
<title>6627099024</title>
<ellipse fill="black" stroke="black" cx="2236.95" cy="-681" rx="2.7" ry="2.7"/>
</g>
<!-- 6627108240&#45;&#45;6627099024 -->
<g id="edge10" class="edge">
<title>6627108240&#45;&#45;6627099024</title>
<path fill="none" stroke="black" d="M1909.65,-715.3C2002.94,-705.49 2211.44,-683.58 2233.97,-681.21"/>
</g>
<!-- 6627108560 -->
<g id="node19" class="node">
<title>6627108560</title>
<ellipse fill="none" stroke="black" cx="2236.95" cy="-642" rx="135.39" ry="18"/>
<text text-anchor="middle" x="2236.95" y="-636.38" font-family="Times,serif" font-size="15.00">calculate provisional charges</text>
</g>
<!-- 6627106192&#45;&#45;6627108560 -->
<g id="edge13" class="edge">
<title>6627106192&#45;&#45;6627108560</title>
<path fill="none" stroke="black" d="M1890.98,-614.11C1937.91,-617.9 2039.2,-626.09 2119.95,-632.62"/>
</g>
<!-- 6627106448 -->
<g id="node20" class="node">
<title>6627106448</title>
<ellipse fill="none" stroke="black" cx="2236.95" cy="-588" rx="72.25" ry="18"/>
<text text-anchor="middle" x="2236.95" y="-582.38" font-family="Times,serif" font-size="15.00">MER required</text>
</g>
<!-- 6627106192&#45;&#45;6627106448 -->
<g id="edge14" class="edge">
<title>6627106192&#45;&#45;6627106448</title>
<path fill="none" stroke="black" d="M1890.98,-610.31C1947.56,-606.65 2083.15,-597.88 2166.5,-592.49"/>
</g>
<!-- 6627098896 -->
<g id="node22" class="node">
<title>6627098896</title>
<ellipse fill="none" stroke="black" cx="2236.95" cy="-534" rx="160.64" ry="18"/>
<text text-anchor="middle" x="2236.95" y="-528.38" font-family="Times,serif" font-size="15.00">forward to the competent authority</text>
</g>
<!-- 6627099600&#45;&#45;6627098896 -->
<g id="edge16" class="edge">
<title>6627099600&#45;&#45;6627098896</title>
<path fill="none" stroke="black" d="M1891.28,-534C1930.1,-534 2005.67,-534 2076.17,-534"/>
</g>
<!-- 6627108112 -->
<g id="node23" class="node">
<title>6627108112</title>
<ellipse fill="none" stroke="black" cx="2236.95" cy="-480" rx="27" ry="18"/>
<text text-anchor="middle" x="2236.95" y="-474.38" font-family="Times,serif" font-size="15.00">seq</text>
</g>
<!-- 6627099600&#45;&#45;6627108112 -->
<g id="edge34" class="edge">
<title>6627099600&#45;&#45;6627108112</title>
<path fill="none" stroke="black" d="M1890.69,-530.25C1958.73,-520.34 2142.47,-493.6 2210.32,-483.73"/>
</g>
<!-- 6627099152 -->
<g id="node24" class="node">
<title>6627099152</title>
<ellipse fill="none" stroke="black" cx="2520.05" cy="-534" rx="27" ry="18"/>
<text text-anchor="middle" x="2520.05" y="-528.38" font-family="Times,serif" font-size="15.00">xor</text>
</g>
<!-- 6627108112&#45;&#45;6627099152 -->
<g id="edge31" class="edge">
<title>6627108112&#45;&#45;6627099152</title>
<path fill="none" stroke="black" d="M2263.39,-484.89C2316.91,-495.17 2440.58,-518.93 2493.86,-529.16"/>
</g>
<!-- 6627103376 -->
<g id="node39" class="node">
<title>6627103376</title>
<ellipse fill="none" stroke="black" cx="2520.05" cy="-480" rx="86.46" ry="18"/>
<text text-anchor="middle" x="2520.05" y="-474.38" font-family="Times,serif" font-size="15.00">procedure change</text>
</g>
<!-- 6627108112&#45;&#45;6627103376 -->
<g id="edge32" class="edge">
<title>6627108112&#45;&#45;6627103376</title>
<path fill="none" stroke="black" d="M2264.39,-480C2302.66,-480 2375.23,-480 2433.14,-480"/>
</g>
<!-- 6625796560 -->
<g id="node40" class="node">
<title>6625796560</title>
<ellipse fill="none" stroke="black" cx="2520.05" cy="-426" rx="84.35" ry="18"/>
<text text-anchor="middle" x="2520.05" y="-420.38" font-family="Times,serif" font-size="15.00">request complete</text>
</g>
<!-- 6627108112&#45;&#45;6625796560 -->
<g id="edge33" class="edge">
<title>6627108112&#45;&#45;6625796560</title>
<path fill="none" stroke="black" d="M2263.39,-475.11C2306.57,-466.82 2395.41,-449.75 2456.11,-438.09"/>
</g>
<!-- 6627111824 -->
<g id="node25" class="node">
<title>6627111824</title>
<ellipse fill="none" stroke="black" cx="2669.5" cy="-615" rx="27" ry="18"/>
<text text-anchor="middle" x="2669.5" y="-609.38" font-family="Times,serif" font-size="15.00">seq</text>
</g>
<!-- 6627099152&#45;&#45;6627111824 -->
<g id="edge19" class="edge">
<title>6627099152&#45;&#45;6627111824</title>
<path fill="none" stroke="black" d="M2541.55,-545.26C2569.72,-560.74 2620.09,-588.41 2648.17,-603.83"/>
</g>
<!-- 6627100560 -->
<g id="node28" class="node">
<title>6627100560</title>
<ellipse fill="none" stroke="black" cx="2669.5" cy="-453" rx="27" ry="18"/>
<text text-anchor="middle" x="2669.5" y="-447.38" font-family="Times,serif" font-size="15.00">seq</text>
</g>
<!-- 6627099152&#45;&#45;6627100560 -->
<g id="edge30" class="edge">
<title>6627099152&#45;&#45;6627100560</title>
<path fill="none" stroke="black" d="M2541.55,-522.74C2569.72,-507.26 2620.09,-479.59 2648.17,-464.17"/>
</g>
<!-- 6627090128 -->
<g id="node26" class="node">
<title>6627090128</title>
<ellipse fill="none" stroke="black" cx="2888.93" cy="-669" rx="131.18" ry="18"/>
<text text-anchor="middle" x="2888.93" y="-663.38" font-family="Times,serif" font-size="15.00">treat subcases completeness</text>
</g>
<!-- 6627111824&#45;&#45;6627090128 -->
<g id="edge17" class="edge">
<title>6627111824&#45;&#45;6627090128</title>
<path fill="none" stroke="black" d="M2695.02,-621.09C2726.01,-628.79 2780.51,-642.32 2823.69,-653.05"/>
</g>
<!-- 6627087504 -->
<g id="node27" class="node">
<title>6627087504</title>
<ellipse fill="none" stroke="black" cx="2888.93" cy="-615" rx="156.43" ry="18"/>
<text text-anchor="middle" x="2888.93" y="-609.38" font-family="Times,serif" font-size="15.00">subcases completeness completed</text>
</g>
<!-- 6627111824&#45;&#45;6627087504 -->
<g id="edge18" class="edge">
<title>6627111824&#45;&#45;6627087504</title>
<path fill="none" stroke="black" d="M2696.73,-615C2706.67,-615 2718.84,-615 2732.18,-615"/>
</g>
<!-- 6627097104 -->
<g id="node29" class="node">
<title>6627097104</title>
<ellipse fill="none" stroke="black" cx="2888.93" cy="-561" rx="27" ry="18"/>
<text text-anchor="middle" x="2888.93" y="-555.38" font-family="Times,serif" font-size="15.00">xor</text>
</g>
<!-- 6627100560&#45;&#45;6627097104 -->
<g id="edge24" class="edge">
<title>6627100560&#45;&#45;6627097104</title>
<path fill="none" stroke="black" d="M2691.75,-463.55C2733.31,-484.2 2824.97,-529.72 2866.6,-550.41"/>
</g>
<!-- 6627086480 -->
<g id="node34" class="node">
<title>6627086480</title>
<ellipse fill="none" stroke="black" cx="2888.93" cy="-507" rx="67.52" ry="18"/>
<text text-anchor="middle" x="2888.93" y="-501.38" font-family="Times,serif" font-size="15.00">MER present</text>
</g>
<!-- 6627100560&#45;&#45;6627086480 -->
<g id="edge25" class="edge">
<title>6627100560&#45;&#45;6627086480</title>
<path fill="none" stroke="black" d="M2695.02,-459.09C2729.67,-467.7 2793.73,-483.6 2838.48,-494.72"/>
</g>
<!-- 6627083856 -->
<g id="node35" class="node">
<title>6627083856</title>
<ellipse fill="none" stroke="black" cx="2888.93" cy="-453" rx="129.07" ry="18"/>
<text text-anchor="middle" x="2888.93" y="-447.38" font-family="Times,serif" font-size="15.00">activities regular procedure</text>
</g>
<!-- 6627100560&#45;&#45;6627083856 -->
<g id="edge26" class="edge">
<title>6627100560&#45;&#45;6627083856</title>
<path fill="none" stroke="black" d="M2696.73,-453C2713.22,-453 2735.85,-453 2759.79,-453"/>
</g>
<!-- 6627083088 -->
<g id="node36" class="node">
<title>6627083088</title>
<ellipse fill="none" stroke="black" cx="2888.93" cy="-399" rx="91.19" ry="18"/>
<text text-anchor="middle" x="2888.93" y="-393.38" font-family="Times,serif" font-size="15.00">phased application</text>
</g>
<!-- 6627100560&#45;&#45;6627083088 -->
<g id="edge27" class="edge">
<title>6627100560&#45;&#45;6627083088</title>
<path fill="none" stroke="black" d="M2695.02,-446.91C2727.67,-438.8 2786.44,-424.21 2830.56,-413.25"/>
</g>
<!-- 6625790928 -->
<g id="node37" class="node">
<title>6625790928</title>
<ellipse fill="none" stroke="black" cx="2888.93" cy="-345" rx="140.65" ry="18"/>
<text text-anchor="middle" x="2888.93" y="-339.38" font-family="Times,serif" font-size="15.00">create procedure confirmation</text>
</g>
<!-- 6627100560&#45;&#45;6625790928 -->
<g id="edge28" class="edge">
<title>6627100560&#45;&#45;6625790928</title>
<path fill="none" stroke="black" d="M2691.75,-442.45C2729.04,-423.92 2806.65,-385.38 2852.28,-362.71"/>
</g>
<!-- 6625796176 -->
<g id="node38" class="node">
<title>6625796176</title>
<ellipse fill="none" stroke="black" cx="2888.93" cy="-291" rx="137.49" ry="18"/>
<text text-anchor="middle" x="2888.93" y="-285.38" font-family="Times,serif" font-size="15.00">create subcases completeness</text>
</g>
<!-- 6627100560&#45;&#45;6625796176 -->
<g id="edge29" class="edge">
<title>6627100560&#45;&#45;6625796176</title>
<path fill="none" stroke="black" d="M2688.3,-439.74C2727.14,-410.8 2819.58,-341.93 2863.7,-309.06"/>
</g>
<!-- 6627084368 -->
<g id="node30" class="node">
<title>6627084368</title>
<ellipse fill="none" stroke="black" cx="3238.32" cy="-588" rx="156.96" ry="18"/>
<text text-anchor="middle" x="3238.32" y="-582.38" font-family="Times,serif" font-size="15.00">no permit required for application</text>
</g>
<!-- 6627097104&#45;&#45;6627084368 -->
<g id="edge20" class="edge">
<title>6627097104&#45;&#45;6627084368</title>
<path fill="none" stroke="black" d="M2916.04,-563.03C2956.44,-566.17 3036.76,-572.41 3106.98,-577.87"/>
</g>
<!-- 6627094352 -->
<g id="node31" class="node">
<title>6627094352</title>
<ellipse fill="none" stroke="black" cx="3238.32" cy="-534" rx="27" ry="18"/>
<text text-anchor="middle" x="3238.32" y="-528.38" font-family="Times,serif" font-size="15.00">seq</text>
</g>
<!-- 6627097104&#45;&#45;6627094352 -->
<g id="edge23" class="edge">
<title>6627097104&#45;&#45;6627094352</title>
<path fill="none" stroke="black" d="M2916.04,-558.97C2980.58,-553.95 3147.02,-541.02 3211.38,-536.02"/>
</g>
<!-- 6627092048 -->
<g id="node32" class="node">
<title>6627092048</title>
<ellipse fill="none" stroke="black" cx="3556.67" cy="-561" rx="99.08" ry="18"/>
<text text-anchor="middle" x="3556.67" y="-555.38" font-family="Times,serif" font-size="15.00">terminate on request</text>
</g>
<!-- 6627094352&#45;&#45;6627092048 -->
<g id="edge21" class="edge">
<title>6627094352&#45;&#45;6627092048</title>
<path fill="none" stroke="black" d="M3265.48,-536.23C3309,-539.95 3398.22,-547.56 3466.31,-553.37"/>
</g>
<!-- 6627093648 -->
<g id="node33" class="node">
<title>6627093648</title>
<ellipse fill="none" stroke="black" cx="3556.67" cy="-507" rx="125.39" ry="18"/>
<text text-anchor="middle" x="3556.67" y="-501.38" font-family="Times,serif" font-size="15.00">inform BAG administrator</text>
</g>
<!-- 6627094352&#45;&#45;6627093648 -->
<g id="edge22" class="edge">
<title>6627094352&#45;&#45;6627093648</title>
<path fill="none" stroke="black" d="M3265.48,-531.77C3305.15,-528.38 3382.8,-521.75 3447.8,-516.21"/>
</g>
<!-- 6625794960 -->
<g id="node43" class="node">
<title>6625794960</title>
<ellipse fill="none" stroke="black" cx="1385.08" cy="-639" rx="105.92" ry="18"/>
<text text-anchor="middle" x="1385.08" y="-633.38" font-family="Times,serif" font-size="15.00">start WABOprocedure</text>
</g>
<!-- 6625790544&#45;&#45;6625794960 -->
<g id="edge39" class="edge">
<title>6625790544&#45;&#45;6625794960</title>
<path fill="none" stroke="black" d="M931.6,-639C996.5,-639 1166.6,-639 1278.75,-639"/>
</g>
<!-- 6625789968 -->
<g id="node44" class="node">
<title>6625789968</title>
<ellipse fill="none" stroke="black" cx="1385.08" cy="-585" rx="134.86" ry="18"/>
<text text-anchor="middle" x="1385.08" y="-579.38" font-family="Times,serif" font-size="15.00">read field phased application</text>
</g>
<!-- 6625790544&#45;&#45;6625789968 -->
<g id="edge40" class="edge">
<title>6625790544&#45;&#45;6625789968</title>
<path fill="none" stroke="black" d="M931.25,-636.06C996.2,-628.73 1167.99,-609.36 1280.32,-596.7"/>
</g>
<!-- 6625795792 -->
<g id="node46" class="node">
<title>6625795792</title>
<ellipse fill="none" stroke="black" cx="556.88" cy="-585" rx="132.76" ry="18"/>
<text text-anchor="middle" x="556.88" y="-579.38" font-family="Times,serif" font-size="15.00">create publication document</text>
</g>
<!-- 6626873744&#45;&#45;6625795792 -->
<g id="edge44" class="edge">
<title>6626873744&#45;&#45;6625795792</title>
<path fill="none" stroke="black" d="M264.85,-510.36C313.49,-522.83 422.79,-550.87 492.74,-568.8"/>
</g>
<!-- 6625796496 -->
<g id="node47" class="node">
<title>6625796496</title>
<ellipse fill="none" stroke="black" cx="556.88" cy="-531" rx="27" ry="18"/>
<text text-anchor="middle" x="556.88" y="-525.38" font-family="Times,serif" font-size="15.00">seq</text>
</g>
<!-- 6626873744&#45;&#45;6625796496 -->
<g id="edge47" class="edge">
<title>6626873744&#45;&#45;6625796496</title>
<path fill="none" stroke="black" d="M266.18,-506.23C325.59,-511.31 470.3,-523.68 529.74,-528.76"/>
</g>
<!-- 6625800528 -->
<g id="node50" class="node">
<title>6625800528</title>
<ellipse fill="none" stroke="black" cx="556.88" cy="-477" rx="27" ry="18"/>
<text text-anchor="middle" x="556.88" y="-471.38" font-family="Times,serif" font-size="15.00">seq</text>
</g>
<!-- 6626873744&#45;&#45;6625800528 -->
<g id="edge50" class="edge">
<title>6626873744&#45;&#45;6625800528</title>
<path fill="none" stroke="black" d="M266.18,-501.77C325.59,-496.69 470.3,-484.32 529.74,-479.24"/>
</g>
<!-- 6627220176 -->
<g id="node53" class="node">
<title>6627220176</title>
<ellipse fill="none" stroke="black" cx="556.88" cy="-315" rx="27" ry="18"/>
<text text-anchor="middle" x="556.88" y="-309.38" font-family="Times,serif" font-size="15.00">seq</text>
</g>
<!-- 6626873744&#45;&#45;6627220176 -->
<g id="edge55" class="edge">
<title>6626873744&#45;&#45;6627220176</title>
<path fill="none" stroke="black" d="M259.82,-492.18C316.54,-458.24 479.43,-360.75 536.14,-326.82"/>
</g>
<!-- 6627215120 -->
<g id="node58" class="node">
<title>6627215120</title>
<ellipse fill="none" stroke="black" cx="556.88" cy="-126" rx="27" ry="18"/>
<text text-anchor="middle" x="556.88" y="-120.38" font-family="Times,serif" font-size="15.00">seq</text>
</g>
<!-- 6626873744&#45;&#45;6627215120 -->
<g id="edge63" class="edge">
<title>6626873744&#45;&#45;6627215120</title>
<path fill="none" stroke="black" d="M253.23,-488.24C304.6,-426.76 491.2,-203.43 542.66,-141.83"/>
</g>
<!-- 6625799568 -->
<g id="node48" class="node">
<title>6625799568</title>
<ellipse fill="none" stroke="black" cx="904.17" cy="-585" rx="105.92" ry="18"/>
<text text-anchor="middle" x="904.17" y="-579.38" font-family="Times,serif" font-size="15.00">send letter in progress</text>
</g>
<!-- 6625796496&#45;&#45;6625799568 -->
<g id="edge45" class="edge">
<title>6625796496&#45;&#45;6625799568</title>
<path fill="none" stroke="black" d="M583.55,-535.01C633.96,-542.9 747.67,-560.68 824.94,-572.77"/>
</g>
<!-- 6625801168 -->
<g id="node49" class="node">
<title>6625801168</title>
<ellipse fill="none" stroke="black" cx="904.17" cy="-531" rx="128.02" ry="18"/>
<text text-anchor="middle" x="904.17" y="-525.38" font-family="Times,serif" font-size="15.00">phase application receptive</text>
</g>
<!-- 6625796496&#45;&#45;6625801168 -->
<g id="edge46" class="edge">
<title>6625796496&#45;&#45;6625801168</title>
<path fill="none" stroke="black" d="M584.12,-531C624.8,-531 705.73,-531 775.9,-531"/>
</g>
<!-- 6627223952 -->
<g id="node51" class="node">
<title>6627223952</title>
<ellipse fill="none" stroke="black" cx="904.17" cy="-477" rx="139.07" ry="18"/>
<text text-anchor="middle" x="904.17" y="-471.38" font-family="Times,serif" font-size="15.00">initiative competent authority</text>
</g>
<!-- 6625800528&#45;&#45;6627223952 -->
<g id="edge48" class="edge">
<title>6625800528&#45;&#45;6627223952</title>
<path fill="none" stroke="black" d="M584.12,-477C622.68,-477 697.39,-477 764.82,-477"/>
</g>
<!-- 6627216912 -->
<g id="node52" class="node">
<title>6627216912</title>
<ellipse fill="none" stroke="black" cx="904.17" cy="-423" rx="178.53" ry="18"/>
<text text-anchor="middle" x="904.17" y="-417.38" font-family="Times,serif" font-size="15.00">enter date termination request received</text>
</g>
<!-- 6625800528&#45;&#45;6627216912 -->
<g id="edge49" class="edge">
<title>6625800528&#45;&#45;6627216912</title>
<path fill="none" stroke="black" d="M583.55,-472.99C629.74,-465.76 729.07,-450.23 804.83,-438.38"/>
</g>
<!-- 6627223824 -->
<g id="node54" class="node">
<title>6627223824</title>
<ellipse fill="none" stroke="black" cx="904.17" cy="-369" rx="140.65" ry="18"/>
<text text-anchor="middle" x="904.17" y="-363.38" font-family="Times,serif" font-size="15.00">decision date prior to decision</text>
</g>
<!-- 6627220176&#45;&#45;6627223824 -->
<g id="edge51" class="edge">
<title>6627220176&#45;&#45;6627223824</title>
<path fill="none" stroke="black" d="M583.55,-319.01C631.46,-326.51 736.54,-342.94 813.18,-354.93"/>
</g>
<!-- 6627213776 -->
<g id="node55" class="node">
<title>6627213776</title>
<ellipse fill="none" stroke="black" cx="904.17" cy="-315" rx="177.47" ry="18"/>
<text text-anchor="middle" x="904.17" y="-309.38" font-family="Times,serif" font-size="15.00">generating decision no permit required</text>
</g>
<!-- 6627220176&#45;&#45;6627213776 -->
<g id="edge52" class="edge">
<title>6627220176&#45;&#45;6627213776</title>
<path fill="none" stroke="black" d="M584.12,-315C615.44,-315 670.61,-315 726.36,-315"/>
</g>
<!-- 6627213648 -->
<g id="node56" class="node">
<title>6627213648</title>
<ellipse fill="none" stroke="black" cx="904.17" cy="-261" rx="89.09" ry="18"/>
<text text-anchor="middle" x="904.17" y="-255.38" font-family="Times,serif" font-size="15.00">set decision status</text>
</g>
<!-- 6627220176&#45;&#45;6627213648 -->
<g id="edge53" class="edge">
<title>6627220176&#45;&#45;6627213648</title>
<path fill="none" stroke="black" d="M583.55,-310.99C635.68,-302.83 755.5,-284.09 832.72,-272.02"/>
</g>
<!-- 6627228176 -->
<g id="node57" class="node">
<title>6627228176</title>
<ellipse fill="none" stroke="black" cx="904.17" cy="-207" rx="158.01" ry="18"/>
<text text-anchor="middle" x="904.17" y="-201.38" font-family="Times,serif" font-size="15.00">create decision no permit required</text>
</g>
<!-- 6627220176&#45;&#45;6627228176 -->
<g id="edge54" class="edge">
<title>6627220176&#45;&#45;6627228176</title>
<path fill="none" stroke="black" d="M581.89,-307.49C636.56,-290.39 771.52,-248.18 847.99,-224.26"/>
</g>
<!-- 6627227088 -->
<g id="node59" class="node">
<title>6627227088</title>
<ellipse fill="none" stroke="black" cx="904.17" cy="-153" rx="148.01" ry="18"/>
<text text-anchor="middle" x="904.17" y="-147.38" font-family="Times,serif" font-size="15.00">phase only notification required</text>
</g>
<!-- 6627215120&#45;&#45;6627227088 -->
<g id="edge56" class="edge">
<title>6627215120&#45;&#45;6627227088</title>
<path fill="none" stroke="black" d="M584.12,-128.05C625.27,-131.27 707.61,-137.71 778.34,-143.24"/>
</g>
<!-- 6627220368 -->
<g id="node60" class="node">
<title>6627220368</title>
<ellipse fill="none" stroke="black" cx="904.17" cy="-99" rx="27" ry="18"/>
<text text-anchor="middle" x="904.17" y="-93.38" font-family="Times,serif" font-size="15.00">and</text>
</g>
<!-- 6627215120&#45;&#45;6627220368 -->
<g id="edge61" class="edge">
<title>6627215120&#45;&#45;6627220368</title>
<path fill="none" stroke="black" d="M584.12,-123.95C648.33,-118.93 812.8,-106.07 876.97,-101.05"/>
</g>
<!-- 6627225168 -->
<g id="node65" class="node">
<title>6627225168</title>
<ellipse fill="none" stroke="black" cx="904.17" cy="-45" rx="54.36" ry="18"/>
<text text-anchor="middle" x="904.17" y="-39.38" font-family="Times,serif" font-size="15.00">close case</text>
</g>
<!-- 6627215120&#45;&#45;6627225168 -->
<g id="edge62" class="edge">
<title>6627215120&#45;&#45;6627225168</title>
<path fill="none" stroke="black" d="M582.72,-120.17C640.7,-106.57 785.65,-72.57 859.07,-55.34"/>
</g>
<!-- 6627229008 -->
<g id="node61" class="node">
<title>6627229008</title>
<ellipse fill="none" stroke="black" cx="1385.08" cy="-180" rx="266.39" ry="18"/>
<text text-anchor="middle" x="1385.08" y="-174.38" font-family="Times,serif" font-size="15.00">enter senddate letter no permit or only notification required</text>
</g>
<!-- 6627220368&#45;&#45;6627229008 -->
<g id="edge57" class="edge">
<title>6627220368&#45;&#45;6627229008</title>
<path fill="none" stroke="black" d="M930.58,-103.3C995.55,-114.29 1170.55,-143.89 1283.19,-162.94"/>
</g>
<!-- 6627224208 -->
<g id="node62" class="node">
<title>6627224208</title>
<ellipse fill="none" stroke="black" cx="1385.08" cy="-126" rx="82.77" ry="18"/>
<text text-anchor="middle" x="1385.08" y="-120.38" font-family="Times,serif" font-size="15.00">register deadline</text>
</g>
<!-- 6627220368&#45;&#45;6627224208 -->
<g id="edge58" class="edge">
<title>6627220368&#45;&#45;6627224208</title>
<path fill="none" stroke="black" d="M931.25,-100.47C1001.04,-104.4 1194.14,-115.29 1304.33,-121.5"/>
</g>
<!-- 6627224080 -->
<g id="node63" class="node">
<title>6627224080</title>
<ellipse fill="none" stroke="black" cx="1385.08" cy="-72" rx="115.39" ry="18"/>
<text text-anchor="middle" x="1385.08" y="-66.38" font-family="Times,serif" font-size="15.00">phase procedure aborted</text>
</g>
<!-- 6627220368&#45;&#45;6627224080 -->
<g id="edge59" class="edge">
<title>6627220368&#45;&#45;6627224080</title>
<path fill="none" stroke="black" d="M931.25,-97.53C995.33,-93.92 1163.37,-84.44 1275.73,-78.11"/>
</g>
<!-- 6627218896 -->
<g id="node64" class="node">
<title>6627218896</title>
<ellipse fill="none" stroke="black" cx="1385.08" cy="-18" rx="230.61" ry="18"/>
<text text-anchor="middle" x="1385.08" y="-12.38" font-family="Times,serif" font-size="15.00">create letter no permit or only notification required</text>
</g>
<!-- 6627220368&#45;&#45;6627218896 -->
<g id="edge60" class="edge">
<title>6627220368&#45;&#45;6627218896</title>
<path fill="none" stroke="black" d="M930.58,-94.7C996.03,-83.63 1173.16,-53.67 1285.69,-34.64"/>
</g>
</g>
</svg>
