<?xml version="1.0" encoding="UTF-8" standalone="no"?>
<!DOCTYPE svg PUBLIC "-//W3C//DTD SVG 1.1//EN"
 "http://www.w3.org/Graphics/SVG/1.1/DTD/svg11.dtd">
<!-- Generated by graphviz version 11.0.0 (20240428.1522)
 -->
<!-- Title: pt Pages: 1 -->
<svg width="3845pt" height="569pt"
 viewBox="0.00 0.00 3844.73 569.00" xmlns="http://www.w3.org/2000/svg" xmlns:xlink="http://www.w3.org/1999/xlink">
<g id="graph0" class="graph" transform="scale(1 1) rotate(0) translate(4 565)">
<title>pt</title>
<polygon fill="white" stroke="none" points="-4,4 -4,-565 3840.73,-565 3840.73,4 -4,4"/>
<!-- 2617257494000 -->
<g id="node1" class="node">
<title>2617257494000</title>
<ellipse fill="none" stroke="black" cx="27" cy="-354" rx="27" ry="18"/>
<text text-anchor="middle" x="27" y="-348" font-family="Times New Roman,serif" font-size="15.00">seq</text>
</g>
<!-- 2617258892112 -->
<g id="node2" class="node">
<title>2617258892112</title>
<ellipse fill="none" stroke="black" cx="117" cy="-462" rx="27" ry="18"/>
<text text-anchor="middle" x="117" y="-456" font-family="Times New Roman,serif" font-size="15.00">and</text>
</g>
<!-- 2617257494000&#45;&#45;2617258892112 -->
<g id="edge46" class="edge">
<title>2617257494000&#45;&#45;2617258892112</title>
<path fill="none" stroke="black" d="M40.61,-369.47C57.24,-389.89 86.36,-425.63 103.13,-446.2"/>
</g>
<!-- 2617258887696 -->
<g id="node48" class="node">
<title>2617258887696</title>
<ellipse fill="none" stroke="black" cx="117" cy="-354" rx="27" ry="18"/>
<text text-anchor="middle" x="117" y="-348" font-family="Times New Roman,serif" font-size="15.00">xor</text>
</g>
<!-- 2617257494000&#45;&#45;2617258887696 -->
<g id="edge53" class="edge">
<title>2617257494000&#45;&#45;2617258887696</title>
<path fill="none" stroke="black" d="M54.4,-354C65.54,-354 78.48,-354 89.62,-354"/>
</g>
<!-- 2617258886016 -->
<g id="node55" class="node">
<title>2617258886016</title>
<ellipse fill="none" stroke="black" cx="117" cy="-242" rx="27" ry="18"/>
<text text-anchor="middle" x="117" y="-236" font-family="Times New Roman,serif" font-size="15.00">xor</text>
</g>
<!-- 2617257494000&#45;&#45;2617258886016 -->
<g id="edge63" class="edge">
<title>2617257494000&#45;&#45;2617258886016</title>
<path fill="none" stroke="black" d="M40.61,-337.95C57.34,-316.66 86.7,-279.29 103.42,-258.02"/>
</g>
<!-- 2617258886688 -->
<g id="node3" class="node">
<title>2617258886688</title>
<ellipse fill="none" stroke="black" cx="312.73" cy="-516" rx="124.03" ry="18"/>
<text text-anchor="middle" x="312.73" y="-510" font-family="Times New Roman,serif" font-size="15.00">Period application received</text>
</g>
<!-- 2617258892112&#45;&#45;2617258886688 -->
<g id="edge1" class="edge">
<title>2617258892112&#45;&#45;2617258886688</title>
<path fill="none" stroke="black" d="M142.54,-468.84C170.33,-476.59 216.59,-489.48 253.72,-499.83"/>
</g>
<!-- 2617258888560 -->
<g id="node4" class="node">
<title>2617258888560</title>
<ellipse fill="none" stroke="black" cx="312.73" cy="-462" rx="27" ry="18"/>
<text text-anchor="middle" x="312.73" y="-456" font-family="Times New Roman,serif" font-size="15.00">seq</text>
</g>
<!-- 2617258892112&#45;&#45;2617258888560 -->
<g id="edge45" class="edge">
<title>2617258892112&#45;&#45;2617258888560</title>
<path fill="none" stroke="black" d="M144.13,-462C181.1,-462 248.31,-462 285.4,-462"/>
</g>
<!-- 2617258898592 -->
<g id="node5" class="node">
<title>2617258898592</title>
<ellipse fill="none" stroke="black" cx="670.49" cy="-543" rx="139.38" ry="18"/>
<text text-anchor="middle" x="670.49" y="-537" font-family="Times New Roman,serif" font-size="15.00">Record submission date request</text>
</g>
<!-- 2617258888560&#45;&#45;2617258898592 -->
<g id="edge2" class="edge">
<title>2617258888560&#45;&#45;2617258898592</title>
<path fill="none" stroke="black" d="M338.75,-467.7C392.28,-479.89 519.59,-508.87 599.73,-527.12"/>
</g>
<!-- 2617258888464 -->
<g id="node6" class="node">
<title>2617258888464</title>
<ellipse fill="none" stroke="black" cx="670.49" cy="-489" rx="27" ry="18"/>
<text text-anchor="middle" x="670.49" y="-483" font-family="Times New Roman,serif" font-size="15.00">xor</text>
</g>
<!-- 2617258888560&#45;&#45;2617258888464 -->
<g id="edge5" class="edge">
<title>2617258888560&#45;&#45;2617258888464</title>
<path fill="none" stroke="black" d="M339.89,-463.99C405.68,-468.98 577.46,-482.02 643.29,-487.01"/>
</g>
<!-- 2617258886208 -->
<g id="node9" class="node">
<title>2617258886208</title>
<ellipse fill="none" stroke="black" cx="670.49" cy="-435" rx="27" ry="18"/>
<text text-anchor="middle" x="670.49" y="-429" font-family="Times New Roman,serif" font-size="15.00">and</text>
</g>
<!-- 2617258888560&#45;&#45;2617258886208 -->
<g id="edge44" class="edge">
<title>2617258888560&#45;&#45;2617258886208</title>
<path fill="none" stroke="black" d="M339.89,-460.01C405.68,-455.02 577.46,-441.98 643.29,-436.99"/>
</g>
<!-- 2617258895184 -->
<g id="node7" class="node">
<title>2617258895184</title>
<ellipse fill="black" stroke="black" cx="1004.7" cy="-528" rx="2.7" ry="2.7"/>
</g>
<!-- 2617258888464&#45;&#45;2617258895184 -->
<g id="edge3" class="edge">
<title>2617258888464&#45;&#45;2617258895184</title>
<path fill="none" stroke="black" d="M697.55,-492.06C771.59,-500.75 979.23,-525.13 1001.72,-527.77"/>
</g>
<!-- 2617258897968 -->
<g id="node8" class="node">
<title>2617258897968</title>
<ellipse fill="none" stroke="black" cx="1004.7" cy="-489" rx="109.19" ry="18"/>
<text text-anchor="middle" x="1004.7" y="-483" font-family="Times New Roman,serif" font-size="15.00">OLO messaging ongoing</text>
</g>
<!-- 2617258888464&#45;&#45;2617258897968 -->
<g id="edge4" class="edge">
<title>2617258888464&#45;&#45;2617258897968</title>
<path fill="none" stroke="black" d="M697.83,-489C740.11,-489 825.45,-489 895.27,-489"/>
</g>
<!-- 2617258890960 -->
<g id="node10" class="node">
<title>2617258890960</title>
<ellipse fill="none" stroke="black" cx="1004.7" cy="-435" rx="27" ry="18"/>
<text text-anchor="middle" x="1004.7" y="-429" font-family="Times New Roman,serif" font-size="15.00">xor</text>
</g>
<!-- 2617258886208&#45;&#45;2617258890960 -->
<g id="edge8" class="edge">
<title>2617258886208&#45;&#45;2617258890960</title>
<path fill="none" stroke="black" d="M697.83,-435C759.99,-435 915.19,-435 977.35,-435"/>
</g>
<!-- 2617258892256 -->
<g id="node13" class="node">
<title>2617258892256</title>
<ellipse fill="none" stroke="black" cx="1004.7" cy="-381" rx="27" ry="18"/>
<text text-anchor="middle" x="1004.7" y="-375" font-family="Times New Roman,serif" font-size="15.00">seq</text>
</g>
<!-- 2617258886208&#45;&#45;2617258892256 -->
<g id="edge43" class="edge">
<title>2617258886208&#45;&#45;2617258892256</title>
<path fill="none" stroke="black" d="M697,-430.85C758.84,-420.8 916.17,-395.23 978.1,-385.16"/>
</g>
<!-- 2617258894656 -->
<g id="node11" class="node">
<title>2617258894656</title>
<ellipse fill="black" stroke="black" cx="1248.83" cy="-474" rx="2.7" ry="2.7"/>
</g>
<!-- 2617258890960&#45;&#45;2617258894656 -->
<g id="edge6" class="edge">
<title>2617258890960&#45;&#45;2617258894656</title>
<path fill="none" stroke="black" d="M1031.15,-439.1C1089.19,-448.45 1227.72,-470.76 1245.86,-473.68"/>
</g>
<!-- 2617258889952 -->
<g id="node12" class="node">
<title>2617258889952</title>
<ellipse fill="none" stroke="black" cx="1248.83" cy="-435" rx="98.95" ry="18"/>
<text text-anchor="middle" x="1248.83" y="-429" font-family="Times New Roman,serif" font-size="15.00">Applicant is involved</text>
</g>
<!-- 2617258890960&#45;&#45;2617258889952 -->
<g id="edge7" class="edge">
<title>2617258890960&#45;&#45;2617258889952</title>
<path fill="none" stroke="black" d="M1032.07,-435C1060.33,-435 1106.87,-435 1149.51,-435"/>
</g>
<!-- 2617258887840 -->
<g id="node14" class="node">
<title>2617258887840</title>
<ellipse fill="none" stroke="black" cx="1248.83" cy="-381" rx="27" ry="18"/>
<text text-anchor="middle" x="1248.83" y="-375" font-family="Times New Roman,serif" font-size="15.00">and</text>
</g>
<!-- 2617258892256&#45;&#45;2617258887840 -->
<g id="edge39" class="edge">
<title>2617258892256&#45;&#45;2617258887840</title>
<path fill="none" stroke="black" d="M1032.07,-381C1078.65,-381 1174.94,-381 1221.49,-381"/>
</g>
<!-- 2617258896336 -->
<g id="node45" class="node">
<title>2617258896336</title>
<ellipse fill="none" stroke="black" cx="1248.83" cy="-327" rx="27" ry="18"/>
<text text-anchor="middle" x="1248.83" y="-321" font-family="Times New Roman,serif" font-size="15.00">xor</text>
</g>
<!-- 2617258892256&#45;&#45;2617258896336 -->
<g id="edge42" class="edge">
<title>2617258892256&#45;&#45;2617258896336</title>
<path fill="none" stroke="black" d="M1030.7,-375.42C1077.22,-365.05 1176.55,-342.9 1222.97,-332.55"/>
</g>
<!-- 2617258895280 -->
<g id="node15" class="node">
<title>2617258895280</title>
<ellipse fill="none" stroke="black" cx="1511.91" cy="-431" rx="27" ry="18"/>
<text text-anchor="middle" x="1511.91" y="-425" font-family="Times New Roman,serif" font-size="15.00">xor</text>
</g>
<!-- 2617258887840&#45;&#45;2617258895280 -->
<g id="edge11" class="edge">
<title>2617258887840&#45;&#45;2617258895280</title>
<path fill="none" stroke="black" d="M1275.34,-385.89C1325.38,-395.47 1435.87,-416.63 1485.68,-426.17"/>
</g>
<!-- 2617258897680 -->
<g id="node18" class="node">
<title>2617258897680</title>
<ellipse fill="none" stroke="black" cx="1511.91" cy="-377" rx="27" ry="18"/>
<text text-anchor="middle" x="1511.91" y="-371" font-family="Times New Roman,serif" font-size="15.00">seq</text>
</g>
<!-- 2617258887840&#45;&#45;2617258897680 -->
<g id="edge38" class="edge">
<title>2617258887840&#45;&#45;2617258897680</title>
<path fill="none" stroke="black" d="M1276.3,-380.59C1326.47,-379.83 1434.83,-378.17 1484.75,-377.4"/>
</g>
<!-- 2617258901136 -->
<g id="node16" class="node">
<title>2617258901136</title>
<ellipse fill="black" stroke="black" cx="1864.55" cy="-470" rx="2.7" ry="2.7"/>
</g>
<!-- 2617258895280&#45;&#45;2617258901136 -->
<g id="edge9" class="edge">
<title>2617258895280&#45;&#45;2617258901136</title>
<path fill="none" stroke="black" d="M1538.98,-433.9C1615.79,-442.44 1837.42,-467.09 1861.43,-469.76"/>
</g>
<!-- 2617259289984 -->
<g id="node17" class="node">
<title>2617259289984</title>
<ellipse fill="none" stroke="black" cx="1864.55" cy="-431" rx="188.52" ry="18"/>
<text text-anchor="middle" x="1864.55" y="-425" font-family="Times New Roman,serif" font-size="15.00">Document date termination request received</text>
</g>
<!-- 2617258895280&#45;&#45;2617259289984 -->
<g id="edge10" class="edge">
<title>2617258895280&#45;&#45;2617259289984</title>
<path fill="none" stroke="black" d="M1539.26,-431C1569.44,-431 1621.71,-431 1675.57,-431"/>
</g>
<!-- 2617259290320 -->
<g id="node19" class="node">
<title>2617259290320</title>
<ellipse fill="none" stroke="black" cx="1864.55" cy="-377" rx="27" ry="18"/>
<text text-anchor="middle" x="1864.55" y="-371" font-family="Times New Roman,serif" font-size="15.00">and</text>
</g>
<!-- 2617258897680&#45;&#45;2617259290320 -->
<g id="edge34" class="edge">
<title>2617258897680&#45;&#45;2617259290320</title>
<path fill="none" stroke="black" d="M1539.26,-377C1604.4,-377 1772.4,-377 1837.36,-377"/>
</g>
<!-- 2617259292624 -->
<g id="node42" class="node">
<title>2617259292624</title>
<ellipse fill="none" stroke="black" cx="1864.55" cy="-323" rx="27" ry="18"/>
<text text-anchor="middle" x="1864.55" y="-317" font-family="Times New Roman,serif" font-size="15.00">xor</text>
</g>
<!-- 2617258897680&#45;&#45;2617259292624 -->
<g id="edge37" class="edge">
<title>2617258897680&#45;&#45;2617259292624</title>
<path fill="none" stroke="black" d="M1538.69,-373.03C1603.53,-363.04 1772.84,-336.97 1837.72,-326.98"/>
</g>
<!-- 2617259284320 -->
<g id="node20" class="node">
<title>2617259284320</title>
<ellipse fill="none" stroke="black" cx="2262.73" cy="-466" rx="45.21" ry="18"/>
<text text-anchor="middle" x="2262.73" y="-460" font-family="Times New Roman,serif" font-size="15.00">xor loop</text>
</g>
<!-- 2617259290320&#45;&#45;2617259284320 -->
<g id="edge14" class="edge">
<title>2617259290320&#45;&#45;2617259284320</title>
<path fill="none" stroke="black" d="M1890.63,-382.63C1957.73,-397.71 2141.75,-439.05 2222.67,-457.23"/>
</g>
<!-- 2617259293344 -->
<g id="node23" class="node">
<title>2617259293344</title>
<ellipse fill="none" stroke="black" cx="2262.73" cy="-373" rx="27" ry="18"/>
<text text-anchor="middle" x="2262.73" y="-367" font-family="Times New Roman,serif" font-size="15.00">seq</text>
</g>
<!-- 2617259290320&#45;&#45;2617259293344 -->
<g id="edge33" class="edge">
<title>2617259290320&#45;&#45;2617259293344</title>
<path fill="none" stroke="black" d="M1891.85,-376.73C1963.83,-376.01 2163.47,-373.99 2235.44,-373.27"/>
</g>
<!-- 2617259283840 -->
<g id="node21" class="node">
<title>2617259283840</title>
<ellipse fill="none" stroke="black" cx="2611.28" cy="-505" rx="115.84" ry="18"/>
<text text-anchor="middle" x="2611.28" y="-499" font-family="Times New Roman,serif" font-size="15.00">Issue confirmation receipt</text>
</g>
<!-- 2617259284320&#45;&#45;2617259283840 -->
<g id="edge12" class="edge">
<title>2617259284320&#45;&#45;2617259283840</title>
<path fill="none" stroke="black" d="M2306.58,-470.82C2358.55,-476.67 2447.68,-486.7 2515.99,-494.39"/>
</g>
<!-- 2617259286816 -->
<g id="node22" class="node">
<title>2617259286816</title>
<ellipse fill="black" stroke="black" cx="2611.28" cy="-466" rx="2.7" ry="2.7"/>
</g>
<!-- 2617259284320&#45;&#45;2617259286816 -->
<g id="edge13" class="edge">
<title>2617259284320&#45;&#45;2617259286816</title>
<path fill="none" stroke="black" d="M2308.33,-466C2396.81,-466 2587.83,-466 2608.46,-466"/>
</g>
<!-- 2617259285520 -->
<g id="node24" class="node">
<title>2617259285520</title>
<ellipse fill="none" stroke="black" cx="2611.28" cy="-427" rx="27" ry="18"/>
<text text-anchor="middle" x="2611.28" y="-421" font-family="Times New Roman,serif" font-size="15.00">xor</text>
</g>
<!-- 2617259293344&#45;&#45;2617259285520 -->
<g id="edge21" class="edge">
<title>2617259293344&#45;&#45;2617259285520</title>
<path fill="none" stroke="black" d="M2289.5,-377.01C2353.81,-387.04 2520.82,-413.06 2584.82,-423.03"/>
</g>
<!-- 2617259292960 -->
<g id="node31" class="node">
<title>2617259292960</title>
<ellipse fill="none" stroke="black" cx="2611.28" cy="-373" rx="138.87" ry="18"/>
<text text-anchor="middle" x="2611.28" y="-367" font-family="Times New Roman,serif" font-size="15.00">Log senddate acknowledgement</text>
</g>
<!-- 2617259293344&#45;&#45;2617259292960 -->
<g id="edge22" class="edge">
<title>2617259293344&#45;&#45;2617259292960</title>
<path fill="none" stroke="black" d="M2290.07,-373C2328.92,-373 2404.36,-373 2472.26,-373"/>
</g>
<!-- 2617259278656 -->
<g id="node32" class="node">
<title>2617259278656</title>
<ellipse fill="none" stroke="black" cx="2611.28" cy="-319" rx="27" ry="18"/>
<text text-anchor="middle" x="2611.28" y="-313" font-family="Times New Roman,serif" font-size="15.00">xor</text>
</g>
<!-- 2617259293344&#45;&#45;2617259278656 -->
<g id="edge25" class="edge">
<title>2617259293344&#45;&#45;2617259278656</title>
<path fill="none" stroke="black" d="M2289.5,-368.99C2353.81,-358.96 2520.82,-332.94 2584.82,-322.97"/>
</g>
<!-- 2617259281824 -->
<g id="node35" class="node">
<title>2617259281824</title>
<ellipse fill="none" stroke="black" cx="2611.28" cy="-265" rx="27" ry="18"/>
<text text-anchor="middle" x="2611.28" y="-259" font-family="Times New Roman,serif" font-size="15.00">and</text>
</g>
<!-- 2617259293344&#45;&#45;2617259281824 -->
<g id="edge32" class="edge">
<title>2617259293344&#45;&#45;2617259281824</title>
<path fill="none" stroke="black" d="M2287.83,-365.49C2351.37,-345.69 2522.98,-292.21 2586.35,-272.46"/>
</g>
<!-- 2617259286624 -->
<g id="node25" class="node">
<title>2617259286624</title>
<ellipse fill="black" stroke="black" cx="2928.6" cy="-451" rx="2.7" ry="2.7"/>
</g>
<!-- 2617259285520&#45;&#45;2617259286624 -->
<g id="edge15" class="edge">
<title>2617259285520&#45;&#45;2617259286624</title>
<path fill="none" stroke="black" d="M2638.35,-428.98C2709.77,-434.42 2904.64,-449.25 2925.74,-450.86"/>
</g>
<!-- 2617259280048 -->
<g id="node26" class="node">
<title>2617259280048</title>
<ellipse fill="none" stroke="black" cx="2928.6" cy="-412" rx="27" ry="18"/>
<text text-anchor="middle" x="2928.6" y="-406" font-family="Times New Roman,serif" font-size="15.00">seq</text>
</g>
<!-- 2617259285520&#45;&#45;2617259280048 -->
<g id="edge20" class="edge">
<title>2617259285520&#45;&#45;2617259280048</title>
<path fill="none" stroke="black" d="M2638.62,-425.75C2698.12,-422.92 2842.34,-416.06 2901.56,-413.24"/>
</g>
<!-- 2617259288544 -->
<g id="node27" class="node">
<title>2617259288544</title>
<ellipse fill="none" stroke="black" cx="3249" cy="-439" rx="27" ry="18"/>
<text text-anchor="middle" x="3249" y="-433" font-family="Times New Roman,serif" font-size="15.00">xor</text>
</g>
<!-- 2617259280048&#45;&#45;2617259288544 -->
<g id="edge18" class="edge">
<title>2617259280048&#45;&#45;2617259288544</title>
<path fill="none" stroke="black" d="M2955.66,-414.21C3015.51,-419.29 3162.26,-431.73 3222.03,-436.8"/>
</g>
<!-- 2617259283600 -->
<g id="node30" class="node">
<title>2617259283600</title>
<ellipse fill="none" stroke="black" cx="3249" cy="-385" rx="95.88" ry="18"/>
<text text-anchor="middle" x="3249" y="-379" font-family="Times New Roman,serif" font-size="15.00">Terminate on request</text>
</g>
<!-- 2617259280048&#45;&#45;2617259283600 -->
<g id="edge19" class="edge">
<title>2617259280048&#45;&#45;2617259283600</title>
<path fill="none" stroke="black" d="M2955.66,-409.79C2999.99,-406.03 3092,-398.23 3161.02,-392.38"/>
</g>
<!-- 2617259293296 -->
<g id="node28" class="node">
<title>2617259293296</title>
<ellipse fill="black" stroke="black" cx="3631.83" cy="-458" rx="2.7" ry="2.7"/>
</g>
<!-- 2617259288544&#45;&#45;2617259293296 -->
<g id="edge16" class="edge">
<title>2617259288544&#45;&#45;2617259293296</title>
<path fill="none" stroke="black" d="M3276.17,-440.31C3357.85,-444.38 3604.02,-456.66 3628.81,-457.9"/>
</g>
<!-- 2617259278992 -->
<g id="node29" class="node">
<title>2617259278992</title>
<ellipse fill="none" stroke="black" cx="3631.83" cy="-419" rx="204.89" ry="18"/>
<text text-anchor="middle" x="3631.83" y="-413" font-family="Times New Roman,serif" font-size="15.00">No permit necessary or only notification needed</text>
</g>
<!-- 2617259288544&#45;&#45;2617259278992 -->
<g id="edge17" class="edge">
<title>2617259288544&#45;&#45;2617259278992</title>
<path fill="none" stroke="black" d="M3276.17,-437.63C3313.48,-435.67 3385.11,-431.9 3454.29,-428.27"/>
</g>
<!-- 2617259283504 -->
<g id="node33" class="node">
<title>2617259283504</title>
<ellipse fill="black" stroke="black" cx="2928.6" cy="-358" rx="2.7" ry="2.7"/>
</g>
<!-- 2617259278656&#45;&#45;2617259283504 -->
<g id="edge23" class="edge">
<title>2617259278656&#45;&#45;2617259283504</title>
<path fill="none" stroke="black" d="M2638.35,-322.22C2709.77,-331.06 2904.64,-355.16 2925.74,-357.77"/>
</g>
<!-- 2617259286000 -->
<g id="node34" class="node">
<title>2617259286000</title>
<ellipse fill="none" stroke="black" cx="2928.6" cy="-319" rx="136.31" ry="18"/>
<text text-anchor="middle" x="2928.6" y="-313" font-family="Times New Roman,serif" font-size="15.00">Reception through OLO system</text>
</g>
<!-- 2617259278656&#45;&#45;2617259286000 -->
<g id="edge24" class="edge">
<title>2617259278656&#45;&#45;2617259286000</title>
<path fill="none" stroke="black" d="M2638.62,-319C2672.66,-319 2734.44,-319 2792.16,-319"/>
</g>
<!-- 2617259289216 -->
<g id="node36" class="node">
<title>2617259289216</title>
<ellipse fill="none" stroke="black" cx="2928.6" cy="-265" rx="142.45" ry="18"/>
<text text-anchor="middle" x="2928.6" y="-259" font-family="Times New Roman,serif" font-size="15.00">Direct to the competent authority</text>
</g>
<!-- 2617259281824&#45;&#45;2617259289216 -->
<g id="edge26" class="edge">
<title>2617259281824&#45;&#45;2617259289216</title>
<path fill="none" stroke="black" d="M2638.62,-265C2671.41,-265 2729.91,-265 2785.74,-265"/>
</g>
<!-- 2617259280624 -->
<g id="node37" class="node">
<title>2617259280624</title>
<ellipse fill="none" stroke="black" cx="2928.6" cy="-211" rx="27" ry="18"/>
<text text-anchor="middle" x="2928.6" y="-205" font-family="Times New Roman,serif" font-size="15.00">seq</text>
</g>
<!-- 2617259281824&#45;&#45;2617259280624 -->
<g id="edge31" class="edge">
<title>2617259281824&#45;&#45;2617259280624</title>
<path fill="none" stroke="black" d="M2637.82,-260.63C2697.05,-250.48 2843.23,-225.45 2902.27,-215.34"/>
</g>
<!-- 2617259289168 -->
<g id="node38" class="node">
<title>2617259289168</title>
<ellipse fill="none" stroke="black" cx="3249" cy="-238" rx="141.94" ry="18"/>
<text text-anchor="middle" x="3249" y="-232" font-family="Times New Roman,serif" font-size="15.00">Normal procedure without MER</text>
</g>
<!-- 2617259280624&#45;&#45;2617259289168 -->
<g id="edge27" class="edge">
<title>2617259280624&#45;&#45;2617259289168</title>
<path fill="none" stroke="black" d="M2955.66,-213.21C2993.53,-216.42 3066.19,-222.58 3129.6,-227.96"/>
</g>
<!-- 2617259282496 -->
<g id="node39" class="node">
<title>2617259282496</title>
<ellipse fill="none" stroke="black" cx="3249" cy="-184" rx="27" ry="18"/>
<text text-anchor="middle" x="3249" y="-178" font-family="Times New Roman,serif" font-size="15.00">xor</text>
</g>
<!-- 2617259280624&#45;&#45;2617259282496 -->
<g id="edge30" class="edge">
<title>2617259280624&#45;&#45;2617259282496</title>
<path fill="none" stroke="black" d="M2955.66,-208.79C3015.51,-203.71 3162.26,-191.27 3222.03,-186.2"/>
</g>
<!-- 2617259287584 -->
<g id="node40" class="node">
<title>2617259287584</title>
<ellipse fill="black" stroke="black" cx="3631.83" cy="-204" rx="2.7" ry="2.7"/>
</g>
<!-- 2617259282496&#45;&#45;2617259287584 -->
<g id="edge28" class="edge">
<title>2617259282496&#45;&#45;2617259287584</title>
<path fill="none" stroke="black" d="M3276.17,-185.37C3357.85,-189.66 3604.02,-202.59 3628.81,-203.89"/>
</g>
<!-- 2617259285568 -->
<g id="node41" class="node">
<title>2617259285568</title>
<ellipse fill="none" stroke="black" cx="3631.83" cy="-165" rx="134.78" ry="18"/>
<text text-anchor="middle" x="3631.83" y="-159" font-family="Times New Roman,serif" font-size="15.00">Create procedure confirmation</text>
</g>
<!-- 2617259282496&#45;&#45;2617259285568 -->
<g id="edge29" class="edge">
<title>2617259282496&#45;&#45;2617259285568</title>
<path fill="none" stroke="black" d="M3276.17,-182.69C3322.72,-180.37 3422.71,-175.38 3504.69,-171.29"/>
</g>
<!-- 2617259281104 -->
<g id="node43" class="node">
<title>2617259281104</title>
<ellipse fill="black" stroke="black" cx="2262.73" cy="-327" rx="2.7" ry="2.7"/>
</g>
<!-- 2617259292624&#45;&#45;2617259281104 -->
<g id="edge35" class="edge">
<title>2617259292624&#45;&#45;2617259281104</title>
<path fill="none" stroke="black" d="M1891.85,-323.27C1975.84,-324.11 2233.65,-326.72 2259.62,-326.98"/>
</g>
<!-- 2617259280576 -->
<g id="node44" class="node">
<title>2617259280576</title>
<ellipse fill="none" stroke="black" cx="2262.73" cy="-288" rx="173.67" ry="18"/>
<text text-anchor="middle" x="2262.73" y="-282" font-family="Times New Roman,serif" font-size="15.00">Procedure phase terminated prematurely</text>
</g>
<!-- 2617259292624&#45;&#45;2617259280576 -->
<g id="edge36" class="edge">
<title>2617259292624&#45;&#45;2617259280576</title>
<path fill="none" stroke="black" d="M1891.54,-320.7C1939.05,-316.51 2042.92,-307.33 2128.57,-299.76"/>
</g>
<!-- 2617259282928 -->
<g id="node46" class="node">
<title>2617259282928</title>
<ellipse fill="black" stroke="black" cx="1511.91" cy="-331" rx="2.7" ry="2.7"/>
</g>
<!-- 2617258896336&#45;&#45;2617259282928 -->
<g id="edge40" class="edge">
<title>2617258896336&#45;&#45;2617259282928</title>
<path fill="none" stroke="black" d="M1276.3,-327.41C1338.27,-328.35 1489.01,-330.66 1508.76,-330.97"/>
</g>
<!-- 2617259285856 -->
<g id="node47" class="node">
<title>2617259285856</title>
<ellipse fill="none" stroke="black" cx="1511.91" cy="-292" rx="128.12" ry="18"/>
<text text-anchor="middle" x="1511.91" y="-286" font-family="Times New Roman,serif" font-size="15.00">Send procedure confirmation</text>
</g>
<!-- 2617258896336&#45;&#45;2617259285856 -->
<g id="edge41" class="edge">
<title>2617258896336&#45;&#45;2617259285856</title>
<path fill="none" stroke="black" d="M1275.82,-323.52C1308.71,-319.11 1367.15,-311.27 1417.53,-304.52"/>
</g>
<!-- 2617258889136 -->
<g id="node49" class="node">
<title>2617258889136</title>
<ellipse fill="black" stroke="black" cx="312.73" cy="-374" rx="2.7" ry="2.7"/>
</g>
<!-- 2617258887696&#45;&#45;2617258889136 -->
<g id="edge47" class="edge">
<title>2617258887696&#45;&#45;2617258889136</title>
<path fill="none" stroke="black" d="M144.13,-356.7C192.88,-361.73 294.18,-372.19 309.71,-373.79"/>
</g>
<!-- 2617258893216 -->
<g id="node50" class="node">
<title>2617258893216</title>
<ellipse fill="none" stroke="black" cx="312.73" cy="-335" rx="27" ry="18"/>
<text text-anchor="middle" x="312.73" y="-329" font-family="Times New Roman,serif" font-size="15.00">seq</text>
</g>
<!-- 2617258887696&#45;&#45;2617258893216 -->
<g id="edge52" class="edge">
<title>2617258887696&#45;&#45;2617258893216</title>
<path fill="none" stroke="black" d="M144.13,-351.44C181.2,-347.8 248.69,-341.18 285.71,-337.55"/>
</g>
<!-- 2617258890528 -->
<g id="node51" class="node">
<title>2617258890528</title>
<ellipse fill="none" stroke="black" cx="670.49" cy="-342" rx="27" ry="18"/>
<text text-anchor="middle" x="670.49" y="-336" font-family="Times New Roman,serif" font-size="15.00">xor</text>
</g>
<!-- 2617258893216&#45;&#45;2617258890528 -->
<g id="edge50" class="edge">
<title>2617258893216&#45;&#45;2617258890528</title>
<path fill="none" stroke="black" d="M340.18,-335.52C406.2,-336.82 577.65,-340.19 643.35,-341.49"/>
</g>
<!-- 2617259279472 -->
<g id="node54" class="node">
<title>2617259279472</title>
<ellipse fill="none" stroke="black" cx="670.49" cy="-288" rx="103.56" ry="18"/>
<text text-anchor="middle" x="670.49" y="-282" font-family="Times New Roman,serif" font-size="15.00">Start WABOprocedure</text>
</g>
<!-- 2617258893216&#45;&#45;2617259279472 -->
<g id="edge51" class="edge">
<title>2617258893216&#45;&#45;2617259279472</title>
<path fill="none" stroke="black" d="M339.6,-331.58C390.77,-324.82 506.84,-309.49 586.69,-298.94"/>
</g>
<!-- 2617259280912 -->
<g id="node52" class="node">
<title>2617259280912</title>
<ellipse fill="black" stroke="black" cx="1004.7" cy="-342" rx="2.7" ry="2.7"/>
</g>
<!-- 2617258890528&#45;&#45;2617259280912 -->
<g id="edge48" class="edge">
<title>2617258890528&#45;&#45;2617259280912</title>
<path fill="none" stroke="black" d="M697.83,-342C772.11,-342 979.28,-342 1001.72,-342"/>
</g>
<!-- 2617259285232 -->
<g id="node53" class="node">
<title>2617259285232</title>
<ellipse fill="none" stroke="black" cx="1004.7" cy="-303" rx="50.84" ry="18"/>
<text text-anchor="middle" x="1004.7" y="-297" font-family="Times New Roman,serif" font-size="15.00">Announce</text>
</g>
<!-- 2617258890528&#45;&#45;2617259285232 -->
<g id="edge49" class="edge">
<title>2617258890528&#45;&#45;2617259285232</title>
<path fill="none" stroke="black" d="M697.55,-338.94C753.31,-332.39 884.84,-316.95 956,-308.6"/>
</g>
<!-- 2617259289264 -->
<g id="node56" class="node">
<title>2617259289264</title>
<ellipse fill="black" stroke="black" cx="312.73" cy="-281" rx="2.7" ry="2.7"/>
</g>
<!-- 2617258886016&#45;&#45;2617259289264 -->
<g id="edge54" class="edge">
<title>2617258886016&#45;&#45;2617259289264</title>
<path fill="none" stroke="black" d="M143.33,-247.1C191.74,-256.84 294.01,-277.43 309.69,-280.59"/>
</g>
<!-- 2617259291712 -->
<g id="node57" class="node">
<title>2617259291712</title>
<ellipse fill="none" stroke="black" cx="312.73" cy="-242" rx="132.73" ry="18"/>
<text text-anchor="middle" x="312.73" y="-236" font-family="Times New Roman,serif" font-size="15.00">Create subcases completeness</text>
</g>
<!-- 2617258886016&#45;&#45;2617259291712 -->
<g id="edge55" class="edge">
<title>2617258886016&#45;&#45;2617259291712</title>
<path fill="none" stroke="black" d="M144.13,-242C154.15,-242 166.38,-242 179.64,-242"/>
</g>
<!-- 2617259284848 -->
<g id="node58" class="node">
<title>2617259284848</title>
<ellipse fill="none" stroke="black" cx="312.73" cy="-188" rx="27" ry="18"/>
<text text-anchor="middle" x="312.73" y="-182" font-family="Times New Roman,serif" font-size="15.00">seq</text>
</g>
<!-- 2617258886016&#45;&#45;2617259284848 -->
<g id="edge58" class="edge">
<title>2617258886016&#45;&#45;2617259284848</title>
<path fill="none" stroke="black" d="M142.54,-235.16C179.8,-224.77 250.25,-205.14 287.39,-194.78"/>
</g>
<!-- 2617259286864 -->
<g id="node61" class="node">
<title>2617259286864</title>
<ellipse fill="none" stroke="black" cx="312.73" cy="-99" rx="27" ry="18"/>
<text text-anchor="middle" x="312.73" y="-93" font-family="Times New Roman,serif" font-size="15.00">seq</text>
</g>
<!-- 2617258886016&#45;&#45;2617259286864 -->
<g id="edge62" class="edge">
<title>2617258886016&#45;&#45;2617259286864</title>
<path fill="none" stroke="black" d="M135.88,-228.8C172.78,-201.56 257.02,-139.38 293.89,-112.16"/>
</g>
<!-- 2617259292576 -->
<g id="node59" class="node">
<title>2617259292576</title>
<ellipse fill="none" stroke="black" cx="670.49" cy="-234" rx="54.93" ry="18"/>
<text text-anchor="middle" x="670.49" y="-228" font-family="Times New Roman,serif" font-size="15.00">Pause term</text>
</g>
<!-- 2617259284848&#45;&#45;2617259292576 -->
<g id="edge56" class="edge">
<title>2617259284848&#45;&#45;2617259292576</title>
<path fill="none" stroke="black" d="M339.6,-191.35C398.2,-198.92 541.94,-217.51 618.9,-227.46"/>
</g>
<!-- 2617259283552 -->
<g id="node60" class="node">
<title>2617259283552</title>
<ellipse fill="none" stroke="black" cx="670.49" cy="-180" rx="189.03" ry="18"/>
<text text-anchor="middle" x="670.49" y="-174" font-family="Times New Roman,serif" font-size="15.00">Register date of publishing received request</text>
</g>
<!-- 2617259284848&#45;&#45;2617259283552 -->
<g id="edge57" class="edge">
<title>2617259284848&#45;&#45;2617259283552</title>
<path fill="none" stroke="black" d="M340.18,-187.41C372.06,-186.69 428.53,-185.42 485.81,-184.13"/>
</g>
<!-- 2617259281488 -->
<g id="node62" class="node">
<title>2617259281488</title>
<ellipse fill="none" stroke="black" cx="670.49" cy="-126" rx="158.32" ry="18"/>
<text text-anchor="middle" x="670.49" y="-120" font-family="Times New Roman,serif" font-size="15.00">Log senddate for termination request</text>
</g>
<!-- 2617259286864&#45;&#45;2617259281488 -->
<g id="edge59" class="edge">
<title>2617259286864&#45;&#45;2617259281488</title>
<path fill="none" stroke="black" d="M339.89,-100.99C381.29,-104.13 464.66,-110.45 537.18,-115.96"/>
</g>
<!-- 2617259281584 -->
<g id="node63" class="node">
<title>2617259281584</title>
<ellipse fill="none" stroke="black" cx="670.49" cy="-72" rx="128.12" ry="18"/>
<text text-anchor="middle" x="670.49" y="-66" font-family="Times New Roman,serif" font-size="15.00">Message to terminate request</text>
</g>
<!-- 2617259286864&#45;&#45;2617259281584 -->
<g id="edge60" class="edge">
<title>2617259286864&#45;&#45;2617259281584</title>
<path fill="none" stroke="black" d="M339.89,-97.01C385.06,-93.59 480.19,-86.37 556.69,-80.56"/>
</g>
<!-- 2617259288640 -->
<g id="node64" class="node">
<title>2617259288640</title>
<ellipse fill="none" stroke="black" cx="670.49" cy="-18" rx="123" ry="18"/>
<text text-anchor="middle" x="670.49" y="-12" font-family="Times New Roman,serif" font-size="15.00">Phase procedure terminated</text>
</g>
<!-- 2617259286864&#45;&#45;2617259288640 -->
<g id="edge61" class="edge">
<title>2617259286864&#45;&#45;2617259288640</title>
<path fill="none" stroke="black" d="M338.75,-93.3C392.84,-80.99 522.24,-51.53 602.2,-33.32"/>
</g>
</g>
</svg>
