<?xml version="1.0" encoding="UTF-8" standalone="no"?>
<!DOCTYPE svg PUBLIC "-//W3C//DTD SVG 1.1//EN"
 "http://www.w3.org/Graphics/SVG/1.1/DTD/svg11.dtd">
<!-- Generated by graphviz version 11.0.0 (20240428.1522)
 -->
<!-- Title: pt Pages: 1 -->
<svg width="2901pt" height="855pt"
 viewBox="0.00 0.00 2901.38 855.00" xmlns="http://www.w3.org/2000/svg" xmlns:xlink="http://www.w3.org/1999/xlink">
<g id="graph0" class="graph" transform="scale(1 1) rotate(0) translate(4 851)">
<title>pt</title>
<polygon fill="white" stroke="none" points="-4,4 -4,-851 2897.38,-851 2897.38,4 -4,4"/>
<!-- 2617257508832 -->
<g id="node1" class="node">
<title>2617257508832</title>
<ellipse fill="none" stroke="black" cx="27" cy="-389" rx="27" ry="18"/>
<text text-anchor="middle" x="27" y="-383" font-family="Times New Roman,serif" font-size="15.00">seq</text>
</g>
<!-- 2617257508208 -->
<g id="node2" class="node">
<title>2617257508208</title>
<ellipse fill="none" stroke="black" cx="117" cy="-551" rx="27" ry="18"/>
<text text-anchor="middle" x="117" y="-545" font-family="Times New Roman,serif" font-size="15.00">xor</text>
</g>
<!-- 2617257508832&#45;&#45;2617257508208 -->
<g id="edge54" class="edge">
<title>2617257508832&#45;&#45;2617257508208</title>
<path fill="none" stroke="black" d="M37.25,-406.03C54.2,-437.23 90.02,-503.17 106.87,-534.2"/>
</g>
<!-- 2617257507632 -->
<g id="node56" class="node">
<title>2617257507632</title>
<ellipse fill="none" stroke="black" cx="117" cy="-350" rx="27" ry="18"/>
<text text-anchor="middle" x="117" y="-344" font-family="Times New Roman,serif" font-size="15.00">xor</text>
</g>
<!-- 2617257508832&#45;&#45;2617257507632 -->
<g id="edge66" class="edge">
<title>2617257508832&#45;&#45;2617257507632</title>
<path fill="none" stroke="black" d="M50.21,-379.16C63.55,-373.25 80.46,-365.75 93.8,-359.84"/>
</g>
<!-- 2617257493472 -->
<g id="node3" class="node">
<title>2617257493472</title>
<ellipse fill="black" stroke="black" cx="297.89" cy="-679" rx="2.7" ry="2.7"/>
</g>
<!-- 2617257508208&#45;&#45;2617257493472 -->
<g id="edge1" class="edge">
<title>2617257508208&#45;&#45;2617257493472</title>
<path fill="none" stroke="black" d="M136.14,-563.98C178.42,-594.23 281.02,-667.65 295.24,-677.82"/>
</g>
<!-- 2617257493616 -->
<g id="node4" class="node">
<title>2617257493616</title>
<ellipse fill="none" stroke="black" cx="297.89" cy="-640" rx="27" ry="18"/>
<text text-anchor="middle" x="297.89" y="-634" font-family="Times New Roman,serif" font-size="15.00">seq</text>
</g>
<!-- 2617257508208&#45;&#45;2617257493616 -->
<g id="edge12" class="edge">
<title>2617257508208&#45;&#45;2617257493616</title>
<path fill="none" stroke="black" d="M139.22,-561.56C173.65,-578.69 241.28,-612.33 275.69,-629.45"/>
</g>
<!-- 2617257492704 -->
<g id="node15" class="node">
<title>2617257492704</title>
<ellipse fill="none" stroke="black" cx="297.89" cy="-470" rx="27" ry="18"/>
<text text-anchor="middle" x="297.89" y="-464" font-family="Times New Roman,serif" font-size="15.00">and</text>
</g>
<!-- 2617257508208&#45;&#45;2617257492704 -->
<g id="edge53" class="edge">
<title>2617257508208&#45;&#45;2617257492704</title>
<path fill="none" stroke="black" d="M139.93,-541.07C174.27,-525.52 240.33,-495.61 274.77,-480.01"/>
</g>
<!-- 2617257494336 -->
<g id="node5" class="node">
<title>2617257494336</title>
<ellipse fill="none" stroke="black" cx="624.93" cy="-829" rx="128.63" ry="18"/>
<text text-anchor="middle" x="624.93" y="-823" font-family="Times New Roman,serif" font-size="15.00">initiative competent authority</text>
</g>
<!-- 2617257493616&#45;&#45;2617257494336 -->
<g id="edge2" class="edge">
<title>2617257493616&#45;&#45;2617257494336</title>
<path fill="none" stroke="black" d="M318.73,-651.54C373.59,-683.44 527.58,-772.98 593.44,-811.27"/>
</g>
<!-- 2617257494720 -->
<g id="node6" class="node">
<title>2617257494720</title>
<ellipse fill="none" stroke="black" cx="624.93" cy="-775" rx="168.04" ry="18"/>
<text text-anchor="middle" x="624.93" y="-769" font-family="Times New Roman,serif" font-size="15.00">enter date termination request received</text>
</g>
<!-- 2617257493616&#45;&#45;2617257494720 -->
<g id="edge3" class="edge">
<title>2617257493616&#45;&#45;2617257494720</title>
<path fill="none" stroke="black" d="M321.49,-649.39C375.19,-671.69 511.16,-728.16 581.04,-757.18"/>
</g>
<!-- 2617257492992 -->
<g id="node7" class="node">
<title>2617257492992</title>
<ellipse fill="none" stroke="black" cx="624.93" cy="-721" rx="173.16" ry="18"/>
<text text-anchor="middle" x="624.93" y="-715" font-family="Times New Roman,serif" font-size="15.00">phase procedure prematurely terminated</text>
</g>
<!-- 2617257493616&#45;&#45;2617257492992 -->
<g id="edge4" class="edge">
<title>2617257493616&#45;&#45;2617257492992</title>
<path fill="none" stroke="black" d="M323.58,-646.15C372.55,-658.36 483.45,-685.99 555.92,-704.05"/>
</g>
<!-- 2617257495440 -->
<g id="node8" class="node">
<title>2617257495440</title>
<ellipse fill="none" stroke="black" cx="624.93" cy="-667" rx="143.48" ry="18"/>
<text text-anchor="middle" x="624.93" y="-661" font-family="Times New Roman,serif" font-size="15.00">create message terminate request</text>
</g>
<!-- 2617257493616&#45;&#45;2617257495440 -->
<g id="edge5" class="edge">
<title>2617257493616&#45;&#45;2617257495440</title>
<path fill="none" stroke="black" d="M324.94,-642.16C363.58,-645.37 438.54,-651.6 503.74,-657.02"/>
</g>
<!-- 2617257497216 -->
<g id="node9" class="node">
<title>2617257497216</title>
<ellipse fill="none" stroke="black" cx="624.93" cy="-613" rx="27" ry="18"/>
<text text-anchor="middle" x="624.93" y="-607" font-family="Times New Roman,serif" font-size="15.00">and</text>
</g>
<!-- 2617257493616&#45;&#45;2617257497216 -->
<g id="edge8" class="edge">
<title>2617257493616&#45;&#45;2617257497216</title>
<path fill="none" stroke="black" d="M324.94,-637.84C385.8,-632.78 536.78,-620.24 597.76,-615.17"/>
</g>
<!-- 2617257497792 -->
<g id="node12" class="node">
<title>2617257497792</title>
<ellipse fill="none" stroke="black" cx="624.93" cy="-559" rx="27" ry="18"/>
<text text-anchor="middle" x="624.93" y="-553" font-family="Times New Roman,serif" font-size="15.00">and</text>
</g>
<!-- 2617257493616&#45;&#45;2617257497792 -->
<g id="edge11" class="edge">
<title>2617257493616&#45;&#45;2617257497792</title>
<path fill="none" stroke="black" d="M323.58,-633.85C384.03,-618.78 538.87,-580.2 599.27,-565.15"/>
</g>
<!-- 2617257499136 -->
<g id="node10" class="node">
<title>2617257499136</title>
<ellipse fill="none" stroke="black" cx="982.69" cy="-667" rx="116.35" ry="18"/>
<text text-anchor="middle" x="982.69" y="-661" font-family="Times New Roman,serif" font-size="15.00">message terminate request</text>
</g>
<!-- 2617257497216&#45;&#45;2617257499136 -->
<g id="edge6" class="edge">
<title>2617257497216&#45;&#45;2617257499136</title>
<path fill="none" stroke="black" d="M651.81,-616.93C702.81,-624.67 818.32,-642.2 898.15,-654.32"/>
</g>
<!-- 2617257499472 -->
<g id="node11" class="node">
<title>2617257499472</title>
<ellipse fill="none" stroke="black" cx="982.69" cy="-613" rx="148.59" ry="18"/>
<text text-anchor="middle" x="982.69" y="-607" font-family="Times New Roman,serif" font-size="15.00">enter senddate request termination</text>
</g>
<!-- 2617257497216&#45;&#45;2617257499472 -->
<g id="edge7" class="edge">
<title>2617257497216&#45;&#45;2617257499472</title>
<path fill="none" stroke="black" d="M652.38,-613C690.95,-613 765.49,-613 833.91,-613"/>
</g>
<!-- 2617257497600 -->
<g id="node13" class="node">
<title>2617257497600</title>
<ellipse fill="none" stroke="black" cx="982.69" cy="-559" rx="78.99" ry="18"/>
<text text-anchor="middle" x="982.69" y="-553" font-family="Times New Roman,serif" font-size="15.00">register deadline</text>
</g>
<!-- 2617257497792&#45;&#45;2617257497600 -->
<g id="edge9" class="edge">
<title>2617257497792&#45;&#45;2617257497600</title>
<path fill="none" stroke="black" d="M652.38,-559C704.8,-559 823.66,-559 903.31,-559"/>
</g>
<!-- 2617257492752 -->
<g id="node14" class="node">
<title>2617257492752</title>
<ellipse fill="none" stroke="black" cx="982.69" cy="-505" rx="110.72" ry="18"/>
<text text-anchor="middle" x="982.69" y="-499" font-family="Times New Roman,serif" font-size="15.00">phase procedure aborted</text>
</g>
<!-- 2617257497792&#45;&#45;2617257492752 -->
<g id="edge10" class="edge">
<title>2617257497792&#45;&#45;2617257492752</title>
<path fill="none" stroke="black" d="M651.81,-555.07C703.29,-547.26 820.5,-529.47 900.39,-517.34"/>
</g>
<!-- 2617257497168 -->
<g id="node16" class="node">
<title>2617257497168</title>
<ellipse fill="none" stroke="black" cx="624.93" cy="-505" rx="149.62" ry="18"/>
<text text-anchor="middle" x="624.93" y="-499" font-family="Times New Roman,serif" font-size="15.00">forward to the competent authority</text>
</g>
<!-- 2617257492704&#45;&#45;2617257497168 -->
<g id="edge13" class="edge">
<title>2617257492704&#45;&#45;2617257497168</title>
<path fill="none" stroke="black" d="M324.94,-472.81C365.16,-477.14 444.74,-485.71 511.7,-492.91"/>
</g>
<!-- 2617257504560 -->
<g id="node17" class="node">
<title>2617257504560</title>
<ellipse fill="none" stroke="black" cx="624.93" cy="-451" rx="119.93" ry="18"/>
<text text-anchor="middle" x="624.93" y="-445" font-family="Times New Roman,serif" font-size="15.00">phase application received</text>
</g>
<!-- 2617257492704&#45;&#45;2617257504560 -->
<g id="edge14" class="edge">
<title>2617257492704&#45;&#45;2617257504560</title>
<path fill="none" stroke="black" d="M325.21,-468.46C365.64,-466.1 445.37,-461.44 512.29,-457.53"/>
</g>
<!-- 2617257505616 -->
<g id="node18" class="node">
<title>2617257505616</title>
<ellipse fill="none" stroke="black" cx="624.93" cy="-397" rx="27" ry="18"/>
<text text-anchor="middle" x="624.93" y="-391" font-family="Times New Roman,serif" font-size="15.00">seq</text>
</g>
<!-- 2617257492704&#45;&#45;2617257505616 -->
<g id="edge52" class="edge">
<title>2617257492704&#45;&#45;2617257505616</title>
<path fill="none" stroke="black" d="M323.85,-464.39C384.36,-450.8 538.29,-416.23 598.88,-402.63"/>
</g>
<!-- 2617257507536 -->
<g id="node19" class="node">
<title>2617257507536</title>
<ellipse fill="none" stroke="black" cx="982.69" cy="-451" rx="27" ry="18"/>
<text text-anchor="middle" x="982.69" y="-445" font-family="Times New Roman,serif" font-size="15.00">and</text>
</g>
<!-- 2617257505616&#45;&#45;2617257507536 -->
<g id="edge47" class="edge">
<title>2617257505616&#45;&#45;2617257507536</title>
<path fill="none" stroke="black" d="M651.81,-400.93C717.52,-410.9 890.31,-437.13 955.92,-447.09"/>
</g>
<!-- 2617257506816 -->
<g id="node52" class="node">
<title>2617257506816</title>
<ellipse fill="none" stroke="black" cx="982.69" cy="-397" rx="27" ry="18"/>
<text text-anchor="middle" x="982.69" y="-391" font-family="Times New Roman,serif" font-size="15.00">xor</text>
</g>
<!-- 2617257505616&#45;&#45;2617257506816 -->
<g id="edge50" class="edge">
<title>2617257505616&#45;&#45;2617257506816</title>
<path fill="none" stroke="black" d="M652.38,-397C718.41,-397 889.86,-397 955.55,-397"/>
</g>
<!-- 2617257504800 -->
<g id="node55" class="node">
<title>2617257504800</title>
<ellipse fill="none" stroke="black" cx="982.69" cy="-343" rx="124.54" ry="18"/>
<text text-anchor="middle" x="982.69" y="-337" font-family="Times New Roman,serif" font-size="15.00">registration date publication</text>
</g>
<!-- 2617257505616&#45;&#45;2617257504800 -->
<g id="edge51" class="edge">
<title>2617257505616&#45;&#45;2617257504800</title>
<path fill="none" stroke="black" d="M651.81,-393.07C702.17,-385.43 815.43,-368.24 895.13,-356.14"/>
</g>
<!-- 2617257508496 -->
<g id="node20" class="node">
<title>2617257508496</title>
<ellipse fill="none" stroke="black" cx="1333.28" cy="-544" rx="140.41" ry="18"/>
<text text-anchor="middle" x="1333.28" y="-538" font-family="Times New Roman,serif" font-size="15.00">register submission date request</text>
</g>
<!-- 2617257507536&#45;&#45;2617257508496 -->
<g id="edge15" class="edge">
<title>2617257507536&#45;&#45;2617257508496</title>
<path fill="none" stroke="black" d="M1008.2,-457.54C1062.13,-471.93 1192.47,-506.7 1270.43,-527.5"/>
</g>
<!-- 2617257508256 -->
<g id="node21" class="node">
<title>2617257508256</title>
<ellipse fill="none" stroke="black" cx="1333.28" cy="-490" rx="166" ry="18"/>
<text text-anchor="middle" x="1333.28" y="-484" font-family="Times New Roman,serif" font-size="15.00">enter senddate procedure confirmation</text>
</g>
<!-- 2617257507536&#45;&#45;2617257508256 -->
<g id="edge16" class="edge">
<title>2617257507536&#45;&#45;2617257508256</title>
<path fill="none" stroke="black" d="M1009.61,-453.9C1052.76,-458.73 1141.89,-468.7 1215.56,-476.94"/>
</g>
<!-- 2617257505952 -->
<g id="node22" class="node">
<title>2617257505952</title>
<ellipse fill="none" stroke="black" cx="1333.28" cy="-436" rx="27" ry="18"/>
<text text-anchor="middle" x="1333.28" y="-430" font-family="Times New Roman,serif" font-size="15.00">seq</text>
</g>
<!-- 2617257507536&#45;&#45;2617257505952 -->
<g id="edge46" class="edge">
<title>2617257507536&#45;&#45;2617257505952</title>
<path fill="none" stroke="black" d="M1009.89,-449.87C1074.65,-447.09 1241.67,-439.9 1306.25,-437.12"/>
</g>
<!-- 2617257503552 -->
<g id="node23" class="node">
<title>2617257503552</title>
<ellipse fill="none" stroke="black" cx="1562.28" cy="-463" rx="27" ry="18"/>
<text text-anchor="middle" x="1562.28" y="-457" font-family="Times New Roman,serif" font-size="15.00">xor</text>
</g>
<!-- 2617257505952&#45;&#45;2617257503552 -->
<g id="edge19" class="edge">
<title>2617257505952&#45;&#45;2617257503552</title>
<path fill="none" stroke="black" d="M1360.32,-439.1C1403.99,-444.29 1491.49,-454.7 1535.19,-459.9"/>
</g>
<!-- 2617257504896 -->
<g id="node26" class="node">
<title>2617257504896</title>
<ellipse fill="none" stroke="black" cx="1562.28" cy="-409" rx="27" ry="18"/>
<text text-anchor="middle" x="1562.28" y="-403" font-family="Times New Roman,serif" font-size="15.00">and</text>
</g>
<!-- 2617257505952&#45;&#45;2617257504896 -->
<g id="edge45" class="edge">
<title>2617257505952&#45;&#45;2617257504896</title>
<path fill="none" stroke="black" d="M1360.32,-432.9C1403.99,-427.71 1491.49,-417.3 1535.19,-412.1"/>
</g>
<!-- 2617257507488 -->
<g id="node24" class="node">
<title>2617257507488</title>
<ellipse fill="black" stroke="black" cx="1749.31" cy="-502" rx="2.7" ry="2.7"/>
</g>
<!-- 2617257503552&#45;&#45;2617257507488 -->
<g id="edge17" class="edge">
<title>2617257503552&#45;&#45;2617257507488</title>
<path fill="none" stroke="black" d="M1588.23,-468.26C1634.79,-478.07 1731.55,-498.47 1746.38,-501.59"/>
</g>
<!-- 2617257507152 -->
<g id="node25" class="node">
<title>2617257507152</title>
<ellipse fill="none" stroke="black" cx="1749.31" cy="-463" rx="124.03" ry="18"/>
<text text-anchor="middle" x="1749.31" y="-457" font-family="Times New Roman,serif" font-size="15.00">treat subcases completeness</text>
</g>
<!-- 2617257503552&#45;&#45;2617257507152 -->
<g id="edge18" class="edge">
<title>2617257503552&#45;&#45;2617257507152</title>
<path fill="none" stroke="black" d="M1589.4,-463C1599.46,-463 1611.73,-463 1624.96,-463"/>
</g>
<!-- 2617257498272 -->
<g id="node27" class="node">
<title>2617257498272</title>
<ellipse fill="none" stroke="black" cx="1749.31" cy="-409" rx="27" ry="18"/>
<text text-anchor="middle" x="1749.31" y="-403" font-family="Times New Roman,serif" font-size="15.00">xor</text>
</g>
<!-- 2617257504896&#45;&#45;2617257498272 -->
<g id="edge24" class="edge">
<title>2617257504896&#45;&#45;2617257498272</title>
<path fill="none" stroke="black" d="M1589.4,-409C1624.56,-409 1686.77,-409 1722.02,-409"/>
</g>
<!-- 2617257501776 -->
<g id="node32" class="node">
<title>2617257501776</title>
<ellipse fill="none" stroke="black" cx="1749.31" cy="-247" rx="27" ry="18"/>
<text text-anchor="middle" x="1749.31" y="-241" font-family="Times New Roman,serif" font-size="15.00">seq</text>
</g>
<!-- 2617257504896&#45;&#45;2617257501776 -->
<g id="edge44" class="edge">
<title>2617257504896&#45;&#45;2617257501776</title>
<path fill="none" stroke="black" d="M1579.38,-394.91C1614.37,-364.27 1697.04,-291.89 1732.12,-261.18"/>
</g>
<!-- 2617257498224 -->
<g id="node28" class="node">
<title>2617257498224</title>
<ellipse fill="black" stroke="black" cx="2035.92" cy="-448" rx="2.7" ry="2.7"/>
</g>
<!-- 2617257498272&#45;&#45;2617257498224 -->
<g id="edge20" class="edge">
<title>2617257498272&#45;&#45;2617257498224</title>
<path fill="none" stroke="black" d="M1776.07,-412.53C1841.75,-421.53 2011.79,-444.83 2032.79,-447.71"/>
</g>
<!-- 2617257499952 -->
<g id="node29" class="node">
<title>2617257499952</title>
<ellipse fill="none" stroke="black" cx="2035.92" cy="-409" rx="45.21" ry="18"/>
<text text-anchor="middle" x="2035.92" y="-403" font-family="Times New Roman,serif" font-size="15.00">xor loop</text>
</g>
<!-- 2617257498272&#45;&#45;2617257499952 -->
<g id="edge23" class="edge">
<title>2617257498272&#45;&#45;2617257499952</title>
<path fill="none" stroke="black" d="M1776.57,-409C1825.29,-409 1930.14,-409 1990.22,-409"/>
</g>
<!-- 2617257496160 -->
<g id="node30" class="node">
<title>2617257496160</title>
<ellipse fill="none" stroke="black" cx="2388.05" cy="-432" rx="189.54" ry="18"/>
<text text-anchor="middle" x="2388.05" y="-426" font-family="Times New Roman,serif" font-size="15.00">registrer date of publishing received request</text>
</g>
<!-- 2617257499952&#45;&#45;2617257496160 -->
<g id="edge21" class="edge">
<title>2617257499952&#45;&#45;2617257496160</title>
<path fill="none" stroke="black" d="M2080.91,-411.89C2118.75,-414.38 2175.69,-418.12 2230.25,-421.7"/>
</g>
<!-- 2617257496592 -->
<g id="node31" class="node">
<title>2617257496592</title>
<ellipse fill="black" stroke="black" cx="2388.05" cy="-393" rx="2.7" ry="2.7"/>
</g>
<!-- 2617257499952&#45;&#45;2617257496592 -->
<g id="edge22" class="edge">
<title>2617257499952&#45;&#45;2617257496592</title>
<path fill="none" stroke="black" d="M2081.27,-406.97C2170.33,-402.9 2364.26,-394.04 2385.21,-393.08"/>
</g>
<!-- 2617257497456 -->
<g id="node33" class="node">
<title>2617257497456</title>
<ellipse fill="none" stroke="black" cx="2035.92" cy="-355" rx="27" ry="18"/>
<text text-anchor="middle" x="2035.92" y="-349" font-family="Times New Roman,serif" font-size="15.00">xor</text>
</g>
<!-- 2617257501776&#45;&#45;2617257497456 -->
<g id="edge27" class="edge">
<title>2617257501776&#45;&#45;2617257497456</title>
<path fill="none" stroke="black" d="M1773.12,-255.66C1826.41,-275.88 1958.61,-326.04 2012,-346.3"/>
</g>
<!-- 2617257502160 -->
<g id="node36" class="node">
<title>2617257502160</title>
<ellipse fill="none" stroke="black" cx="2035.92" cy="-301" rx="102.02" ry="18"/>
<text text-anchor="middle" x="2035.92" y="-295" font-family="Times New Roman,serif" font-size="15.00">OLO messaging active</text>
</g>
<!-- 2617257501776&#45;&#45;2617257502160 -->
<g id="edge28" class="edge">
<title>2617257501776&#45;&#45;2617257502160</title>
<path fill="none" stroke="black" d="M1775.82,-251.84C1817.98,-259.84 1903.62,-276.09 1964.91,-287.72"/>
</g>
<!-- 2617257497888 -->
<g id="node37" class="node">
<title>2617257497888</title>
<ellipse fill="none" stroke="black" cx="2035.92" cy="-247" rx="92.3" ry="18"/>
<text text-anchor="middle" x="2035.92" y="-241" font-family="Times New Roman,serif" font-size="15.00">terminate on request</text>
</g>
<!-- 2617257501776&#45;&#45;2617257497888 -->
<g id="edge29" class="edge">
<title>2617257501776&#45;&#45;2617257497888</title>
<path fill="none" stroke="black" d="M1776.57,-247C1814.14,-247 1885.1,-247 1943.15,-247"/>
</g>
<!-- 2617257495920 -->
<g id="node38" class="node">
<title>2617257495920</title>
<ellipse fill="none" stroke="black" cx="2035.92" cy="-193" rx="27" ry="18"/>
<text text-anchor="middle" x="2035.92" y="-187" font-family="Times New Roman,serif" font-size="15.00">and</text>
</g>
<!-- 2617257501776&#45;&#45;2617257495920 -->
<g id="edge39" class="edge">
<title>2617257501776&#45;&#45;2617257495920</title>
<path fill="none" stroke="black" d="M1775.82,-242.16C1829.98,-231.88 1955.93,-207.99 2009.78,-197.77"/>
</g>
<!-- 2617257496832 -->
<g id="node48" class="node">
<title>2617257496832</title>
<ellipse fill="none" stroke="black" cx="2035.92" cy="-139" rx="126.59" ry="18"/>
<text text-anchor="middle" x="2035.92" y="-133" font-family="Times New Roman,serif" font-size="15.00">send procedure confirmation</text>
</g>
<!-- 2617257501776&#45;&#45;2617257496832 -->
<g id="edge40" class="edge">
<title>2617257501776&#45;&#45;2617257496832</title>
<path fill="none" stroke="black" d="M1773.12,-238.34C1820.01,-220.55 1928,-179.57 1989.64,-156.18"/>
</g>
<!-- 2617257501248 -->
<g id="node49" class="node">
<title>2617257501248</title>
<ellipse fill="none" stroke="black" cx="2035.92" cy="-85" rx="27" ry="18"/>
<text text-anchor="middle" x="2035.92" y="-79" font-family="Times New Roman,serif" font-size="15.00">xor</text>
</g>
<!-- 2617257501776&#45;&#45;2617257501248 -->
<g id="edge43" class="edge">
<title>2617257501776&#45;&#45;2617257501248</title>
<path fill="none" stroke="black" d="M1770.32,-235.61C1822.45,-205.94 1962.02,-126.5 2014.55,-96.6"/>
</g>
<!-- 2617257497504 -->
<g id="node34" class="node">
<title>2617257497504</title>
<ellipse fill="black" stroke="black" cx="2388.05" cy="-369" rx="2.7" ry="2.7"/>
</g>
<!-- 2617257497456&#45;&#45;2617257497504 -->
<g id="edge25" class="edge">
<title>2617257497456&#45;&#45;2617257497504</title>
<path fill="none" stroke="black" d="M2063.24,-356.05C2140.21,-359.13 2361.02,-367.96 2384.94,-368.92"/>
</g>
<!-- 2617257501536 -->
<g id="node35" class="node">
<title>2617257501536</title>
<ellipse fill="none" stroke="black" cx="2388.05" cy="-330" rx="103.56" ry="18"/>
<text text-anchor="middle" x="2388.05" y="-324" font-family="Times New Roman,serif" font-size="15.00">reception through OLO</text>
</g>
<!-- 2617257497456&#45;&#45;2617257501536 -->
<g id="edge26" class="edge">
<title>2617257497456&#45;&#45;2617257501536</title>
<path fill="none" stroke="black" d="M2063.24,-353.12C2111.03,-349.71 2214.26,-342.34 2291.4,-336.83"/>
</g>
<!-- 2617257501440 -->
<g id="node39" class="node">
<title>2617257501440</title>
<ellipse fill="none" stroke="black" cx="2388.05" cy="-273" rx="45.21" ry="18"/>
<text text-anchor="middle" x="2388.05" y="-267" font-family="Times New Roman,serif" font-size="15.00">xor loop</text>
</g>
<!-- 2617257495920&#45;&#45;2617257501440 -->
<g id="edge32" class="edge">
<title>2617257495920&#45;&#45;2617257501440</title>
<path fill="none" stroke="black" d="M2061.82,-198.69C2121.97,-212.43 2275.56,-247.52 2348.05,-264.09"/>
</g>
<!-- 2617257495152 -->
<g id="node42" class="node">
<title>2617257495152</title>
<ellipse fill="none" stroke="black" cx="2388.05" cy="-140" rx="27" ry="18"/>
<text text-anchor="middle" x="2388.05" y="-134" font-family="Times New Roman,serif" font-size="15.00">seq</text>
</g>
<!-- 2617257495920&#45;&#45;2617257495152 -->
<g id="edge38" class="edge">
<title>2617257495920&#45;&#45;2617257495152</title>
<path fill="none" stroke="black" d="M2062.67,-189.1C2127.42,-179.3 2296.48,-153.71 2361.27,-143.9"/>
</g>
<!-- 2617257494096 -->
<g id="node40" class="node">
<title>2617257494096</title>
<ellipse fill="none" stroke="black" cx="2753.48" cy="-312" rx="113.79" ry="18"/>
<text text-anchor="middle" x="2753.48" y="-306" font-family="Times New Roman,serif" font-size="15.00">send confirmation receipt</text>
</g>
<!-- 2617257501440&#45;&#45;2617257494096 -->
<g id="edge30" class="edge">
<title>2617257501440&#45;&#45;2617257494096</title>
<path fill="none" stroke="black" d="M2432.17,-277.63C2487.54,-283.57 2585.19,-294.05 2658.16,-301.88"/>
</g>
<!-- 2617257493088 -->
<g id="node41" class="node">
<title>2617257493088</title>
<ellipse fill="black" stroke="black" cx="2753.48" cy="-273" rx="2.7" ry="2.7"/>
</g>
<!-- 2617257501440&#45;&#45;2617257493088 -->
<g id="edge31" class="edge">
<title>2617257501440&#45;&#45;2617257493088</title>
<path fill="none" stroke="black" d="M2433.61,-273C2525.35,-273 2728.59,-273 2750.55,-273"/>
</g>
<!-- 2617257496784 -->
<g id="node43" class="node">
<title>2617257496784</title>
<ellipse fill="none" stroke="black" cx="2753.48" cy="-234" rx="139.89" ry="18"/>
<text text-anchor="middle" x="2753.48" y="-228" font-family="Times New Roman,serif" font-size="15.00">regular procedure without MER</text>
</g>
<!-- 2617257495152&#45;&#45;2617257496784 -->
<g id="edge33" class="edge">
<title>2617257495152&#45;&#45;2617257496784</title>
<path fill="none" stroke="black" d="M2413.74,-146.39C2469.66,-160.85 2607.42,-196.48 2689,-217.58"/>
</g>
<!-- 2617257494384 -->
<g id="node44" class="node">
<title>2617257494384</title>
<ellipse fill="none" stroke="black" cx="2753.48" cy="-180" rx="132.73" ry="18"/>
<text text-anchor="middle" x="2753.48" y="-174" font-family="Times New Roman,serif" font-size="15.00">create procedure confirmation</text>
</g>
<!-- 2617257495152&#45;&#45;2617257494384 -->
<g id="edge34" class="edge">
<title>2617257495152&#45;&#45;2617257494384</title>
<path fill="none" stroke="black" d="M2415.19,-142.88C2463.36,-148.18 2568.57,-159.76 2648.76,-168.58"/>
</g>
<!-- 2617257501104 -->
<g id="node45" class="node">
<title>2617257501104</title>
<ellipse fill="none" stroke="black" cx="2753.48" cy="-126" rx="40.6" ry="18"/>
<text text-anchor="middle" x="2753.48" y="-120" font-family="Times New Roman,serif" font-size="15.00">publish</text>
</g>
<!-- 2617257495152&#45;&#45;2617257501104 -->
<g id="edge35" class="edge">
<title>2617257495152&#45;&#45;2617257501104</title>
<path fill="none" stroke="black" d="M2415.48,-138.98C2478.53,-136.55 2638.06,-130.41 2712.76,-127.53"/>
</g>
<!-- 2617257498896 -->
<g id="node46" class="node">
<title>2617257498896</title>
<ellipse fill="none" stroke="black" cx="2753.48" cy="-72" rx="124.54" ry="18"/>
<text text-anchor="middle" x="2753.48" y="-66" font-family="Times New Roman,serif" font-size="15.00">create publication document</text>
</g>
<!-- 2617257495152&#45;&#45;2617257498896 -->
<g id="edge36" class="edge">
<title>2617257495152&#45;&#45;2617257498896</title>
<path fill="none" stroke="black" d="M2414.61,-135.22C2468.01,-125.23 2593.25,-101.79 2675.34,-86.43"/>
</g>
<!-- 2617257499568 -->
<g id="node47" class="node">
<title>2617257499568</title>
<ellipse fill="none" stroke="black" cx="2753.48" cy="-18" rx="102.02" ry="18"/>
<text text-anchor="middle" x="2753.48" y="-12" font-family="Times New Roman,serif" font-size="15.00">start WABOprocedure</text>
</g>
<!-- 2617257495152&#45;&#45;2617257499568 -->
<g id="edge37" class="edge">
<title>2617257495152&#45;&#45;2617257499568</title>
<path fill="none" stroke="black" d="M2412.62,-132.09C2471.37,-112.37 2625.26,-60.71 2704.23,-34.2"/>
</g>
<!-- 2617257495536 -->
<g id="node50" class="node">
<title>2617257495536</title>
<ellipse fill="black" stroke="black" cx="2388.05" cy="-96" rx="2.7" ry="2.7"/>
</g>
<!-- 2617257501248&#45;&#45;2617257495536 -->
<g id="edge41" class="edge">
<title>2617257501248&#45;&#45;2617257495536</title>
<path fill="none" stroke="black" d="M2063.24,-85.83C2140.21,-88.25 2361.02,-95.18 2384.94,-95.93"/>
</g>
<!-- 2617257501872 -->
<g id="node51" class="node">
<title>2617257501872</title>
<ellipse fill="none" stroke="black" cx="2388.05" cy="-57" rx="63.63" ry="18"/>
<text text-anchor="middle" x="2388.05" y="-51" font-family="Times New Roman,serif" font-size="15.00">suspend term</text>
</g>
<!-- 2617257501248&#45;&#45;2617257501872 -->
<g id="edge42" class="edge">
<title>2617257501248&#45;&#45;2617257501872</title>
<path fill="none" stroke="black" d="M2063.24,-82.9C2118.74,-78.46 2249.03,-68.04 2326.37,-61.85"/>
</g>
<!-- 2617257505136 -->
<g id="node53" class="node">
<title>2617257505136</title>
<ellipse fill="black" stroke="black" cx="1333.28" cy="-397" rx="2.7" ry="2.7"/>
</g>
<!-- 2617257506816&#45;&#45;2617257505136 -->
<g id="edge48" class="edge">
<title>2617257506816&#45;&#45;2617257505136</title>
<path fill="none" stroke="black" d="M1010.18,-397C1087.08,-397 1306.43,-397 1330.19,-397"/>
</g>
<!-- 2617257508304 -->
<g id="node54" class="node">
<title>2617257508304</title>
<ellipse fill="none" stroke="black" cx="1333.28" cy="-358" rx="117.37" ry="18"/>
<text text-anchor="middle" x="1333.28" y="-352" font-family="Times New Roman,serif" font-size="15.00">inform BAG administrator</text>
</g>
<!-- 2617257506816&#45;&#45;2617257508304 -->
<g id="edge49" class="edge">
<title>2617257506816&#45;&#45;2617257508304</title>
<path fill="none" stroke="black" d="M1009.61,-394.1C1057.1,-388.79 1160.27,-377.24 1237.25,-368.63"/>
</g>
<!-- 2617257506864 -->
<g id="node57" class="node">
<title>2617257506864</title>
<ellipse fill="black" stroke="black" cx="297.89" cy="-416" rx="2.7" ry="2.7"/>
</g>
<!-- 2617257507632&#45;&#45;2617257506864 -->
<g id="edge55" class="edge">
<title>2617257507632&#45;&#45;2617257506864</title>
<path fill="none" stroke="black" d="M141.02,-358.49C185.56,-374.93 280.44,-409.93 295,-415.3"/>
</g>
<!-- 2617257506912 -->
<g id="node58" class="node">
<title>2617257506912</title>
<ellipse fill="none" stroke="black" cx="297.89" cy="-377" rx="117.89" ry="18"/>
<text text-anchor="middle" x="297.89" y="-371" font-family="Times New Roman,serif" font-size="15.00">read publication date field</text>
</g>
<!-- 2617257507632&#45;&#45;2617257506912 -->
<g id="edge56" class="edge">
<title>2617257507632&#45;&#45;2617257506912</title>
<path fill="none" stroke="black" d="M143.63,-353.87C161.79,-356.61 187.28,-360.46 212.26,-364.23"/>
</g>
<!-- 2617257499856 -->
<g id="node59" class="node">
<title>2617257499856</title>
<ellipse fill="none" stroke="black" cx="297.89" cy="-323" rx="27" ry="18"/>
<text text-anchor="middle" x="297.89" y="-317" font-family="Times New Roman,serif" font-size="15.00">seq</text>
</g>
<!-- 2617257507632&#45;&#45;2617257499856 -->
<g id="edge59" class="edge">
<title>2617257507632&#45;&#45;2617257499856</title>
<path fill="none" stroke="black" d="M143.63,-346.13C177.54,-341.01 236.98,-332.04 271.01,-326.91"/>
</g>
<!-- 2617257495104 -->
<g id="node62" class="node">
<title>2617257495104</title>
<ellipse fill="none" stroke="black" cx="297.89" cy="-269" rx="52.89" ry="18"/>
<text text-anchor="middle" x="297.89" y="-263" font-family="Times New Roman,serif" font-size="15.00">close case</text>
</g>
<!-- 2617257507632&#45;&#45;2617257495104 -->
<g id="edge60" class="edge">
<title>2617257507632&#45;&#45;2617257495104</title>
<path fill="none" stroke="black" d="M139.93,-340.07C171.28,-325.87 229.08,-299.7 265.11,-283.39"/>
</g>
<!-- 2617257502832 -->
<g id="node63" class="node">
<title>2617257502832</title>
<ellipse fill="none" stroke="black" cx="297.89" cy="-181" rx="27" ry="18"/>
<text text-anchor="middle" x="297.89" y="-175" font-family="Times New Roman,serif" font-size="15.00">seq</text>
</g>
<!-- 2617257507632&#45;&#45;2617257502832 -->
<g id="edge65" class="edge">
<title>2617257507632&#45;&#45;2617257502832</title>
<path fill="none" stroke="black" d="M133.56,-335.3C167.48,-303.26 247.72,-227.45 281.49,-195.55"/>
</g>
<!-- 2617257500816 -->
<g id="node60" class="node">
<title>2617257500816</title>
<ellipse fill="none" stroke="black" cx="624.93" cy="-343" rx="92.3" ry="18"/>
<text text-anchor="middle" x="624.93" y="-337" font-family="Times New Roman,serif" font-size="15.00">phase archived case</text>
</g>
<!-- 2617257499856&#45;&#45;2617257500816 -->
<g id="edge57" class="edge">
<title>2617257499856&#45;&#45;2617257500816</title>
<path fill="none" stroke="black" d="M325.21,-324.62C370.63,-327.41 465.63,-333.26 536.38,-337.61"/>
</g>
<!-- 2617257498800 -->
<g id="node61" class="node">
<title>2617257498800</title>
<ellipse fill="none" stroke="black" cx="624.93" cy="-289" rx="88.71" ry="18"/>
<text text-anchor="middle" x="624.93" y="-283" font-family="Times New Roman,serif" font-size="15.00">phase case handled</text>
</g>
<!-- 2617257499856&#45;&#45;2617257498800 -->
<g id="edge58" class="edge">
<title>2617257499856&#45;&#45;2617257498800</title>
<path fill="none" stroke="black" d="M324.94,-320.28C372.17,-315.33 473.66,-304.72 545.25,-297.23"/>
</g>
<!-- 2617257497840 -->
<g id="node64" class="node">
<title>2617257497840</title>
<ellipse fill="none" stroke="black" cx="624.93" cy="-235" rx="148.59" ry="18"/>
<text text-anchor="middle" x="624.93" y="-229" font-family="Times New Roman,serif" font-size="15.00">no permit required for application</text>
</g>
<!-- 2617257502832&#45;&#45;2617257497840 -->
<g id="edge61" class="edge">
<title>2617257502832&#45;&#45;2617257497840</title>
<path fill="none" stroke="black" d="M324.39,-185.24C369.22,-192.68 464.1,-208.45 535.13,-220.25"/>
</g>
<!-- 2617257494048 -->
<g id="node65" class="node">
<title>2617257494048</title>
<ellipse fill="none" stroke="black" cx="624.93" cy="-181" rx="64.15" ry="18"/>
<text text-anchor="middle" x="624.93" y="-175" font-family="Times New Roman,serif" font-size="15.00">MER present</text>
</g>
<!-- 2617257502832&#45;&#45;2617257494048 -->
<g id="edge62" class="edge">
<title>2617257502832&#45;&#45;2617257494048</title>
<path fill="none" stroke="black" d="M325.21,-181C375.99,-181 488.77,-181 560.31,-181"/>
</g>
<!-- 2617257503264 -->
<g id="node66" class="node">
<title>2617257503264</title>
<ellipse fill="none" stroke="black" cx="624.93" cy="-127" rx="123" ry="18"/>
<text text-anchor="middle" x="624.93" y="-121" font-family="Times New Roman,serif" font-size="15.00">activities regular procedure</text>
</g>
<!-- 2617257502832&#45;&#45;2617257503264 -->
<g id="edge63" class="edge">
<title>2617257502832&#45;&#45;2617257503264</title>
<path fill="none" stroke="black" d="M324.39,-176.76C370.64,-169.08 470.17,-152.55 541.82,-140.64"/>
</g>
<!-- 2617257507872 -->
<g id="node67" class="node">
<title>2617257507872</title>
<ellipse fill="none" stroke="black" cx="624.93" cy="-73" rx="87.18" ry="18"/>
<text text-anchor="middle" x="624.93" y="-67" font-family="Times New Roman,serif" font-size="15.00">phased application</text>
</g>
<!-- 2617257502832&#45;&#45;2617257507872 -->
<g id="edge64" class="edge">
<title>2617257502832&#45;&#45;2617257507872</title>
<path fill="none" stroke="black" d="M322.52,-173.15C375.99,-155.38 507.04,-111.84 577.43,-88.45"/>
</g>
</g>
</svg>
