<?xml version="1.0" encoding="UTF-8" standalone="no"?>
<!DOCTYPE svg PUBLIC "-//W3C//DTD SVG 1.1//EN"
 "http://www.w3.org/Graphics/SVG/1.1/DTD/svg11.dtd">
<!-- Generated by graphviz version 11.0.0 (20240428.1522)
 -->
<!-- Title: pt Pages: 1 -->
<svg width="2613pt" height="980pt"
 viewBox="0.00 0.00 2612.87 980.00" xmlns="http://www.w3.org/2000/svg" xmlns:xlink="http://www.w3.org/1999/xlink">
<g id="graph0" class="graph" transform="scale(1 1) rotate(0) translate(4 976)">
<title>pt</title>
<polygon fill="white" stroke="none" points="-4,4 -4,-976 2608.87,-976 2608.87,4 -4,4"/>
<!-- 1344030045056 -->
<g id="node1" class="node">
<title>1344030045056</title>
<ellipse fill="none" stroke="black" cx="27" cy="-765" rx="27" ry="18"/>
<text text-anchor="middle" x="27" y="-759" font-family="Times New Roman,serif" font-size="15.00">seq</text>
</g>
<!-- 1344030037904 -->
<g id="node2" class="node">
<title>1344030037904</title>
<ellipse fill="none" stroke="black" cx="229.38" cy="-954" rx="139.38" ry="18"/>
<text text-anchor="middle" x="229.38" y="-948" font-family="Times New Roman,serif" font-size="15.00">Record submission date request</text>
</g>
<!-- 1344030045056&#45;&#45;1344030037904 -->
<g id="edge1" class="edge">
<title>1344030045056&#45;&#45;1344030037904</title>
<path fill="none" stroke="black" d="M43.39,-779.52C79.5,-813.57 169.58,-898.54 209.19,-935.9"/>
</g>
<!-- 1344030046160 -->
<g id="node3" class="node">
<title>1344030046160</title>
<ellipse fill="none" stroke="black" cx="229.38" cy="-900" rx="27" ry="18"/>
<text text-anchor="middle" x="229.38" y="-894" font-family="Times New Roman,serif" font-size="15.00">xor</text>
</g>
<!-- 1344030045056&#45;&#45;1344030046160 -->
<g id="edge4" class="edge">
<title>1344030045056&#45;&#45;1344030046160</title>
<path fill="none" stroke="black" d="M46.85,-777.7C85.14,-803.5 171.6,-861.75 209.73,-887.43"/>
</g>
<!-- 1344030033536 -->
<g id="node6" class="node">
<title>1344030033536</title>
<ellipse fill="none" stroke="black" cx="229.38" cy="-846" rx="109.19" ry="18"/>
<text text-anchor="middle" x="229.38" y="-840" font-family="Times New Roman,serif" font-size="15.00">OLO messaging ongoing</text>
</g>
<!-- 1344030045056&#45;&#45;1344030033536 -->
<g id="edge5" class="edge">
<title>1344030045056&#45;&#45;1344030033536</title>
<path fill="none" stroke="black" d="M50.6,-774.13C83.45,-787.42 144.99,-812.29 186.33,-829"/>
</g>
<!-- 1344030038336 -->
<g id="node7" class="node">
<title>1344030038336</title>
<ellipse fill="none" stroke="black" cx="229.38" cy="-792" rx="27" ry="18"/>
<text text-anchor="middle" x="229.38" y="-786" font-family="Times New Roman,serif" font-size="15.00">and</text>
</g>
<!-- 1344030045056&#45;&#45;1344030038336 -->
<g id="edge20" class="edge">
<title>1344030045056&#45;&#45;1344030038336</title>
<path fill="none" stroke="black" d="M53.79,-768.47C92.26,-773.66 164.28,-783.36 202.7,-788.54"/>
</g>
<!-- 1344030405456 -->
<g id="node22" class="node">
<title>1344030405456</title>
<ellipse fill="none" stroke="black" cx="229.38" cy="-738" rx="27" ry="18"/>
<text text-anchor="middle" x="229.38" y="-732" font-family="Times New Roman,serif" font-size="15.00">xor</text>
</g>
<!-- 1344030045056&#45;&#45;1344030405456 -->
<g id="edge25" class="edge">
<title>1344030045056&#45;&#45;1344030405456</title>
<path fill="none" stroke="black" d="M53.79,-761.53C92.26,-756.34 164.28,-746.64 202.7,-741.46"/>
</g>
<!-- 1344030407808 -->
<g id="node27" class="node">
<title>1344030407808</title>
<ellipse fill="none" stroke="black" cx="229.38" cy="-675" rx="27" ry="18"/>
<text text-anchor="middle" x="229.38" y="-669" font-family="Times New Roman,serif" font-size="15.00">xor</text>
</g>
<!-- 1344030045056&#45;&#45;1344030407808 -->
<g id="edge30" class="edge">
<title>1344030045056&#45;&#45;1344030407808</title>
<path fill="none" stroke="black" d="M49.83,-755.2C88.27,-737.93 167.64,-702.28 206.28,-684.93"/>
</g>
<!-- 1344030397008 -->
<g id="node32" class="node">
<title>1344030397008</title>
<ellipse fill="none" stroke="black" cx="229.38" cy="-582" rx="27" ry="18"/>
<text text-anchor="middle" x="229.38" y="-576" font-family="Times New Roman,serif" font-size="15.00">and</text>
</g>
<!-- 1344030045056&#45;&#45;1344030397008 -->
<g id="edge46" class="edge">
<title>1344030045056&#45;&#45;1344030397008</title>
<path fill="none" stroke="black" d="M43.72,-750.64C81.09,-716.52 174.88,-630.86 212.45,-596.55"/>
</g>
<!-- 1344030477056 -->
<g id="node48" class="node">
<title>1344030477056</title>
<ellipse fill="none" stroke="black" cx="229.38" cy="-369" rx="27" ry="18"/>
<text text-anchor="middle" x="229.38" y="-363" font-family="Times New Roman,serif" font-size="15.00">xor</text>
</g>
<!-- 1344030045056&#45;&#45;1344030477056 -->
<g id="edge69" class="edge">
<title>1344030045056&#45;&#45;1344030477056</title>
<path fill="none" stroke="black" d="M36.74,-747.73C69.81,-682.38 187.06,-450.66 219.82,-385.92"/>
</g>
<!-- 1344030041024 -->
<g id="node4" class="node">
<title>1344030041024</title>
<ellipse fill="black" stroke="black" cx="566.15" cy="-939" rx="2.7" ry="2.7"/>
</g>
<!-- 1344030046160&#45;&#45;1344030041024 -->
<g id="edge2" class="edge">
<title>1344030046160&#45;&#45;1344030041024</title>
<path fill="none" stroke="black" d="M256.37,-903.03C330.73,-911.69 540.44,-936.12 563.15,-938.77"/>
</g>
<!-- 1344030045872 -->
<g id="node5" class="node">
<title>1344030045872</title>
<ellipse fill="none" stroke="black" cx="566.15" cy="-900" rx="161.39" ry="18"/>
<text text-anchor="middle" x="566.15" y="-894" font-family="Times New Roman,serif" font-size="15.00">Log senddate procedure confirmation</text>
</g>
<!-- 1344030046160&#45;&#45;1344030045872 -->
<g id="edge3" class="edge">
<title>1344030046160&#45;&#45;1344030045872</title>
<path fill="none" stroke="black" d="M256.65,-900C289.17,-900 347.29,-900 404.37,-900"/>
</g>
<!-- 1344030044000 -->
<g id="node8" class="node">
<title>1344030044000</title>
<ellipse fill="none" stroke="black" cx="566.15" cy="-846" rx="138.87" ry="18"/>
<text text-anchor="middle" x="566.15" y="-840" font-family="Times New Roman,serif" font-size="15.00">Log senddate acknowledgement</text>
</g>
<!-- 1344030038336&#45;&#45;1344030044000 -->
<g id="edge6" class="edge">
<title>1344030038336&#45;&#45;1344030044000</title>
<path fill="none" stroke="black" d="M256.1,-796.15C302.79,-803.68 403.53,-819.93 477.35,-831.84"/>
</g>
<!-- 1344030395376 -->
<g id="node9" class="node">
<title>1344030395376</title>
<ellipse fill="none" stroke="black" cx="566.15" cy="-792" rx="27" ry="18"/>
<text text-anchor="middle" x="566.15" y="-786" font-family="Times New Roman,serif" font-size="15.00">seq</text>
</g>
<!-- 1344030038336&#45;&#45;1344030395376 -->
<g id="edge19" class="edge">
<title>1344030038336&#45;&#45;1344030395376</title>
<path fill="none" stroke="black" d="M256.65,-792C319.23,-792 476.55,-792 539.01,-792"/>
</g>
<!-- 1344030406704 -->
<g id="node10" class="node">
<title>1344030406704</title>
<ellipse fill="none" stroke="black" cx="968.44" cy="-852" rx="27" ry="18"/>
<text text-anchor="middle" x="968.44" y="-846" font-family="Times New Roman,serif" font-size="15.00">xor</text>
</g>
<!-- 1344030395376&#45;&#45;1344030406704 -->
<g id="edge9" class="edge">
<title>1344030395376&#45;&#45;1344030406704</title>
<path fill="none" stroke="black" d="M592.8,-795.84C665.02,-806.67 869.48,-837.32 941.75,-848.15"/>
</g>
<!-- 1344030399840 -->
<g id="node13" class="node">
<title>1344030399840</title>
<ellipse fill="none" stroke="black" cx="968.44" cy="-798" rx="27" ry="18"/>
<text text-anchor="middle" x="968.44" y="-792" font-family="Times New Roman,serif" font-size="15.00">and</text>
</g>
<!-- 1344030395376&#45;&#45;1344030399840 -->
<g id="edge18" class="edge">
<title>1344030395376&#45;&#45;1344030399840</title>
<path fill="none" stroke="black" d="M593.42,-792.39C665.95,-793.48 868.43,-796.52 941.08,-797.6"/>
</g>
<!-- 1344030407136 -->
<g id="node11" class="node">
<title>1344030407136</title>
<ellipse fill="black" stroke="black" cx="1347.18" cy="-891" rx="2.7" ry="2.7"/>
</g>
<!-- 1344030406704&#45;&#45;1344030407136 -->
<g id="edge7" class="edge">
<title>1344030406704&#45;&#45;1344030407136</title>
<path fill="none" stroke="black" d="M995.63,-854.71C1076.73,-863.11 1319.72,-888.26 1344.19,-890.79"/>
</g>
<!-- 1344030403344 -->
<g id="node12" class="node">
<title>1344030403344</title>
<ellipse fill="none" stroke="black" cx="1347.18" cy="-852" rx="98.95" ry="18"/>
<text text-anchor="middle" x="1347.18" y="-846" font-family="Times New Roman,serif" font-size="15.00">Applicant is involved</text>
</g>
<!-- 1344030406704&#45;&#45;1344030403344 -->
<g id="edge8" class="edge">
<title>1344030406704&#45;&#45;1344030403344</title>
<path fill="none" stroke="black" d="M995.93,-852C1047.43,-852 1163.41,-852 1247.84,-852"/>
</g>
<!-- 1344030401040 -->
<g id="node14" class="node">
<title>1344030401040</title>
<ellipse fill="none" stroke="black" cx="1347.18" cy="-798" rx="124.03" ry="18"/>
<text text-anchor="middle" x="1347.18" y="-792" font-family="Times New Roman,serif" font-size="15.00">Period application received</text>
</g>
<!-- 1344030399840&#45;&#45;1344030401040 -->
<g id="edge10" class="edge">
<title>1344030399840&#45;&#45;1344030401040</title>
<path fill="none" stroke="black" d="M995.93,-798C1042.49,-798 1141.75,-798 1222.75,-798"/>
</g>
<!-- 1344030395040 -->
<g id="node15" class="node">
<title>1344030395040</title>
<ellipse fill="none" stroke="black" cx="1347.18" cy="-744" rx="27" ry="18"/>
<text text-anchor="middle" x="1347.18" y="-738" font-family="Times New Roman,serif" font-size="15.00">seq</text>
</g>
<!-- 1344030399840&#45;&#45;1344030395040 -->
<g id="edge17" class="edge">
<title>1344030399840&#45;&#45;1344030395040</title>
<path fill="none" stroke="black" d="M995.33,-794.29C1064.32,-784.4 1251.98,-757.5 1320.6,-747.67"/>
</g>
<!-- 1344030393696 -->
<g id="node16" class="node">
<title>1344030393696</title>
<ellipse fill="none" stroke="black" cx="1660.92" cy="-771" rx="27" ry="18"/>
<text text-anchor="middle" x="1660.92" y="-765" font-family="Times New Roman,serif" font-size="15.00">xor</text>
</g>
<!-- 1344030395040&#45;&#45;1344030393696 -->
<g id="edge13" class="edge">
<title>1344030395040&#45;&#45;1344030393696</title>
<path fill="none" stroke="black" d="M1374.22,-746.26C1432.9,-751.34 1574.92,-763.64 1633.73,-768.73"/>
</g>
<!-- 1344030399120 -->
<g id="node19" class="node">
<title>1344030399120</title>
<ellipse fill="none" stroke="black" cx="1660.92" cy="-717" rx="45.21" ry="18"/>
<text text-anchor="middle" x="1660.92" y="-711" font-family="Times New Roman,serif" font-size="15.00">xor loop</text>
</g>
<!-- 1344030395040&#45;&#45;1344030399120 -->
<g id="edge16" class="edge">
<title>1344030395040&#45;&#45;1344030399120</title>
<path fill="none" stroke="black" d="M1374.22,-741.74C1427.71,-737.11 1550.42,-726.48 1616.27,-720.78"/>
</g>
<!-- 1344030397392 -->
<g id="node17" class="node">
<title>1344030397392</title>
<ellipse fill="black" stroke="black" cx="1973.13" cy="-810" rx="2.7" ry="2.7"/>
</g>
<!-- 1344030393696&#45;&#45;1344030397392 -->
<g id="edge11" class="edge">
<title>1344030393696&#45;&#45;1344030397392</title>
<path fill="none" stroke="black" d="M1687.84,-774.26C1758.31,-783.12 1949.59,-807.17 1970.3,-809.77"/>
</g>
<!-- 1344030407376 -->
<g id="node18" class="node">
<title>1344030407376</title>
<ellipse fill="none" stroke="black" cx="1973.13" cy="-771" rx="136.31" ry="18"/>
<text text-anchor="middle" x="1973.13" y="-765" font-family="Times New Roman,serif" font-size="15.00">Reception through OLO system</text>
</g>
<!-- 1344030393696&#45;&#45;1344030407376 -->
<g id="edge12" class="edge">
<title>1344030393696&#45;&#45;1344030407376</title>
<path fill="none" stroke="black" d="M1688.37,-771C1721.48,-771 1780.65,-771 1836.42,-771"/>
</g>
<!-- 1344030399648 -->
<g id="node20" class="node">
<title>1344030399648</title>
<ellipse fill="none" stroke="black" cx="1973.13" cy="-717" rx="115.84" ry="18"/>
<text text-anchor="middle" x="1973.13" y="-711" font-family="Times New Roman,serif" font-size="15.00">Issue confirmation receipt</text>
</g>
<!-- 1344030399120&#45;&#45;1344030399648 -->
<g id="edge14" class="edge">
<title>1344030399120&#45;&#45;1344030399648</title>
<path fill="none" stroke="black" d="M1706.37,-717C1745.57,-717 1804.45,-717 1856.83,-717"/>
</g>
<!-- 1344030408624 -->
<g id="node21" class="node">
<title>1344030408624</title>
<ellipse fill="black" stroke="black" cx="1973.13" cy="-678" rx="2.7" ry="2.7"/>
</g>
<!-- 1344030399120&#45;&#45;1344030408624 -->
<g id="edge15" class="edge">
<title>1344030399120&#45;&#45;1344030408624</title>
<path fill="none" stroke="black" d="M1704.4,-711.66C1784.05,-701.65 1949.66,-680.82 1970.05,-678.26"/>
</g>
<!-- 1344030403440 -->
<g id="node23" class="node">
<title>1344030403440</title>
<ellipse fill="black" stroke="black" cx="566.15" cy="-753" rx="2.7" ry="2.7"/>
</g>
<!-- 1344030405456&#45;&#45;1344030403440 -->
<g id="edge21" class="edge">
<title>1344030405456&#45;&#45;1344030403440</title>
<path fill="none" stroke="black" d="M256.65,-739.18C331.26,-742.52 540.49,-751.9 563.16,-752.91"/>
</g>
<!-- 1344030398736 -->
<g id="node24" class="node">
<title>1344030398736</title>
<ellipse fill="none" stroke="black" cx="566.15" cy="-714" rx="27" ry="18"/>
<text text-anchor="middle" x="566.15" y="-708" font-family="Times New Roman,serif" font-size="15.00">seq</text>
</g>
<!-- 1344030405456&#45;&#45;1344030398736 -->
<g id="edge24" class="edge">
<title>1344030405456&#45;&#45;1344030398736</title>
<path fill="none" stroke="black" d="M256.65,-736.12C319.23,-731.63 476.55,-720.35 539.01,-715.87"/>
</g>
<!-- 1344030401760 -->
<g id="node25" class="node">
<title>1344030401760</title>
<ellipse fill="none" stroke="black" cx="968.44" cy="-744" rx="131.71" ry="18"/>
<text text-anchor="middle" x="968.44" y="-738" font-family="Times New Roman,serif" font-size="15.00">Calculate provisional charges</text>
</g>
<!-- 1344030398736&#45;&#45;1344030401760 -->
<g id="edge22" class="edge">
<title>1344030398736&#45;&#45;1344030401760</title>
<path fill="none" stroke="black" d="M593.42,-715.97C644.99,-719.83 762.26,-728.62 851.84,-735.34"/>
</g>
<!-- 1344030401328 -->
<g id="node26" class="node">
<title>1344030401328</title>
<ellipse fill="none" stroke="black" cx="968.44" cy="-690" rx="95.88" ry="18"/>
<text text-anchor="middle" x="968.44" y="-684" font-family="Times New Roman,serif" font-size="15.00">Terminate on request</text>
</g>
<!-- 1344030398736&#45;&#45;1344030401328 -->
<g id="edge23" class="edge">
<title>1344030398736&#45;&#45;1344030401328</title>
<path fill="none" stroke="black" d="M593.42,-712.43C649.86,-709.04 785,-700.94 876.4,-695.46"/>
</g>
<!-- 1344030403872 -->
<g id="node28" class="node">
<title>1344030403872</title>
<ellipse fill="black" stroke="black" cx="566.15" cy="-675" rx="2.7" ry="2.7"/>
</g>
<!-- 1344030407808&#45;&#45;1344030403872 -->
<g id="edge26" class="edge">
<title>1344030407808&#45;&#45;1344030403872</title>
<path fill="none" stroke="black" d="M256.65,-675C331.26,-675 540.49,-675 563.16,-675"/>
</g>
<!-- 1344030488528 -->
<g id="node29" class="node">
<title>1344030488528</title>
<ellipse fill="none" stroke="black" cx="566.15" cy="-636" rx="45.21" ry="18"/>
<text text-anchor="middle" x="566.15" y="-630" font-family="Times New Roman,serif" font-size="15.00">xor loop</text>
</g>
<!-- 1344030407808&#45;&#45;1344030488528 -->
<g id="edge29" class="edge">
<title>1344030407808&#45;&#45;1344030488528</title>
<path fill="none" stroke="black" d="M256.37,-671.97C313.75,-665.29 451.74,-649.21 522.19,-641.01"/>
</g>
<!-- 1344030477344 -->
<g id="node30" class="node">
<title>1344030477344</title>
<ellipse fill="none" stroke="black" cx="968.44" cy="-636" rx="204.89" ry="18"/>
<text text-anchor="middle" x="968.44" y="-630" font-family="Times New Roman,serif" font-size="15.00">No permit necessary or only notification needed</text>
</g>
<!-- 1344030488528&#45;&#45;1344030477344 -->
<g id="edge27" class="edge">
<title>1344030488528&#45;&#45;1344030477344</title>
<path fill="none" stroke="black" d="M611.52,-636C649.18,-636 706.09,-636 763.43,-636"/>
</g>
<!-- 1344030488432 -->
<g id="node31" class="node">
<title>1344030488432</title>
<ellipse fill="black" stroke="black" cx="968.44" cy="-597" rx="2.7" ry="2.7"/>
</g>
<!-- 1344030488528&#45;&#45;1344030488432 -->
<g id="edge28" class="edge">
<title>1344030488528&#45;&#45;1344030488432</title>
<path fill="none" stroke="black" d="M610.37,-631.79C708.62,-622.22 942.07,-599.47 965.53,-597.19"/>
</g>
<!-- 1344030480176 -->
<g id="node33" class="node">
<title>1344030480176</title>
<ellipse fill="none" stroke="black" cx="566.15" cy="-582" rx="142.45" ry="18"/>
<text text-anchor="middle" x="566.15" y="-576" font-family="Times New Roman,serif" font-size="15.00">Direct to the competent authority</text>
</g>
<!-- 1344030397008&#45;&#45;1344030480176 -->
<g id="edge31" class="edge">
<title>1344030397008&#45;&#45;1344030480176</title>
<path fill="none" stroke="black" d="M256.65,-582C292.8,-582 360.55,-582 423.37,-582"/>
</g>
<!-- 1344030490592 -->
<g id="node34" class="node">
<title>1344030490592</title>
<ellipse fill="none" stroke="black" cx="566.15" cy="-528" rx="27" ry="18"/>
<text text-anchor="middle" x="566.15" y="-522" font-family="Times New Roman,serif" font-size="15.00">seq</text>
</g>
<!-- 1344030397008&#45;&#45;1344030490592 -->
<g id="edge45" class="edge">
<title>1344030397008&#45;&#45;1344030490592</title>
<path fill="none" stroke="black" d="M256.1,-577.85C318.56,-567.78 477.73,-542.1 539.81,-532.09"/>
</g>
<!-- 1344030478256 -->
<g id="node35" class="node">
<title>1344030478256</title>
<ellipse fill="none" stroke="black" cx="968.44" cy="-558" rx="141.94" ry="18"/>
<text text-anchor="middle" x="968.44" y="-552" font-family="Times New Roman,serif" font-size="15.00">Normal procedure without MER</text>
</g>
<!-- 1344030490592&#45;&#45;1344030478256 -->
<g id="edge32" class="edge">
<title>1344030490592&#45;&#45;1344030478256</title>
<path fill="none" stroke="black" d="M593.42,-529.97C643.68,-533.74 756.37,-542.18 845,-548.82"/>
</g>
<!-- 1344030489440 -->
<g id="node36" class="node">
<title>1344030489440</title>
<ellipse fill="none" stroke="black" cx="968.44" cy="-504" rx="27" ry="18"/>
<text text-anchor="middle" x="968.44" y="-498" font-family="Times New Roman,serif" font-size="15.00">xor</text>
</g>
<!-- 1344030490592&#45;&#45;1344030489440 -->
<g id="edge44" class="edge">
<title>1344030490592&#45;&#45;1344030489440</title>
<path fill="none" stroke="black" d="M593.42,-526.43C665.95,-522.08 868.43,-509.94 941.08,-505.58"/>
</g>
<!-- 1344030483344 -->
<g id="node37" class="node">
<title>1344030483344</title>
<ellipse fill="black" stroke="black" cx="1347.18" cy="-524" rx="2.7" ry="2.7"/>
</g>
<!-- 1344030489440&#45;&#45;1344030483344 -->
<g id="edge33" class="edge">
<title>1344030489440&#45;&#45;1344030483344</title>
<path fill="none" stroke="black" d="M995.63,-505.39C1076.73,-509.7 1319.72,-522.6 1344.19,-523.89"/>
</g>
<!-- 1344030475712 -->
<g id="node38" class="node">
<title>1344030475712</title>
<ellipse fill="none" stroke="black" cx="1347.18" cy="-485" rx="27" ry="18"/>
<text text-anchor="middle" x="1347.18" y="-479" font-family="Times New Roman,serif" font-size="15.00">seq</text>
</g>
<!-- 1344030489440&#45;&#45;1344030475712 -->
<g id="edge43" class="edge">
<title>1344030489440&#45;&#45;1344030475712</title>
<path fill="none" stroke="black" d="M995.63,-502.68C1064.63,-499.2 1250.82,-489.81 1319.91,-486.32"/>
</g>
<!-- 1344030033920 -->
<g id="node39" class="node">
<title>1344030033920</title>
<ellipse fill="none" stroke="black" cx="1660.92" cy="-539" rx="27" ry="18"/>
<text text-anchor="middle" x="1660.92" y="-533" font-family="Times New Roman,serif" font-size="15.00">xor</text>
</g>
<!-- 1344030475712&#45;&#45;1344030033920 -->
<g id="edge40" class="edge">
<title>1344030475712&#45;&#45;1344030033920</title>
<path fill="none" stroke="black" d="M1373.69,-489.42C1432.29,-499.57 1575.97,-524.46 1634.49,-534.6"/>
</g>
<!-- 1344030042512 -->
<g id="node46" class="node">
<title>1344030042512</title>
<ellipse fill="none" stroke="black" cx="1660.92" cy="-485" rx="139.89" ry="18"/>
<text text-anchor="middle" x="1660.92" y="-479" font-family="Times New Roman,serif" font-size="15.00">Activities for regular procedure</text>
</g>
<!-- 1344030475712&#45;&#45;1344030042512 -->
<g id="edge41" class="edge">
<title>1344030475712&#45;&#45;1344030042512</title>
<path fill="none" stroke="black" d="M1374.49,-485C1407.15,-485 1465.33,-485 1520.68,-485"/>
</g>
<!-- 1344030044432 -->
<g id="node47" class="node">
<title>1344030044432</title>
<ellipse fill="none" stroke="black" cx="1660.92" cy="-431" rx="87.69" ry="18"/>
<text text-anchor="middle" x="1660.92" y="-425" font-family="Times New Roman,serif" font-size="15.00">Phased application</text>
</g>
<!-- 1344030475712&#45;&#45;1344030044432 -->
<g id="edge42" class="edge">
<title>1344030475712&#45;&#45;1344030044432</title>
<path fill="none" stroke="black" d="M1373.69,-480.58C1421.1,-472.37 1524.17,-454.51 1592.81,-442.62"/>
</g>
<!-- 1344030040784 -->
<g id="node40" class="node">
<title>1344030040784</title>
<ellipse fill="none" stroke="black" cx="1973.13" cy="-566" rx="27" ry="18"/>
<text text-anchor="middle" x="1973.13" y="-560" font-family="Times New Roman,serif" font-size="15.00">seq</text>
</g>
<!-- 1344030033920&#45;&#45;1344030040784 -->
<g id="edge38" class="edge">
<title>1344030033920&#45;&#45;1344030040784</title>
<path fill="none" stroke="black" d="M1688.1,-541.28C1746.67,-546.38 1887.72,-558.65 1946.13,-563.74"/>
</g>
<!-- 1344030037952 -->
<g id="node45" class="node">
<title>1344030037952</title>
<ellipse fill="none" stroke="black" cx="1973.13" cy="-512" rx="131.19" ry="18"/>
<text text-anchor="middle" x="1973.13" y="-506" font-family="Times New Roman,serif" font-size="15.00">Environmental Report needed</text>
</g>
<!-- 1344030033920&#45;&#45;1344030037952 -->
<g id="edge39" class="edge">
<title>1344030033920&#45;&#45;1344030037952</title>
<path fill="none" stroke="black" d="M1688.1,-536.72C1726.08,-533.42 1798.73,-527.09 1861.04,-521.67"/>
</g>
<!-- 1344030043712 -->
<g id="node41" class="node">
<title>1344030043712</title>
<ellipse fill="none" stroke="black" cx="2206.51" cy="-593" rx="27" ry="18"/>
<text text-anchor="middle" x="2206.51" y="-587" font-family="Times New Roman,serif" font-size="15.00">xor</text>
</g>
<!-- 1344030040784&#45;&#45;1344030043712 -->
<g id="edge36" class="edge">
<title>1344030040784&#45;&#45;1344030043712</title>
<path fill="none" stroke="black" d="M2000.22,-569.04C2044.78,-574.24 2135.02,-584.77 2179.52,-589.97"/>
</g>
<!-- 1344030041552 -->
<g id="node44" class="node">
<title>1344030041552</title>
<ellipse fill="none" stroke="black" cx="2206.51" cy="-539" rx="61.08" ry="18"/>
<text text-anchor="middle" x="2206.51" y="-533" font-family="Times New Roman,serif" font-size="15.00">MER shown</text>
</g>
<!-- 1344030040784&#45;&#45;1344030041552 -->
<g id="edge37" class="edge">
<title>1344030040784&#45;&#45;1344030041552</title>
<path fill="none" stroke="black" d="M2000.22,-562.96C2036.15,-558.76 2101.79,-551.1 2149.19,-545.57"/>
</g>
<!-- 1344030034256 -->
<g id="node42" class="node">
<title>1344030034256</title>
<ellipse fill="black" stroke="black" cx="2454.23" cy="-612" rx="2.7" ry="2.7"/>
</g>
<!-- 1344030043712&#45;&#45;1344030034256 -->
<g id="edge34" class="edge">
<title>1344030043712&#45;&#45;1344030034256</title>
<path fill="none" stroke="black" d="M2233.81,-595.03C2292.99,-599.61 2432.92,-610.43 2451.24,-611.85"/>
</g>
<!-- 1344030036176 -->
<g id="node43" class="node">
<title>1344030036176</title>
<ellipse fill="none" stroke="black" cx="2454.23" cy="-573" rx="150.64" ry="18"/>
<text text-anchor="middle" x="2454.23" y="-567" font-family="Times New Roman,serif" font-size="15.00">No permit required for submission</text>
</g>
<!-- 1344030043712&#45;&#45;1344030036176 -->
<g id="edge35" class="edge">
<title>1344030043712&#45;&#45;1344030036176</title>
<path fill="none" stroke="black" d="M2233.81,-590.86C2256.96,-588.98 2292.47,-586.08 2328.22,-583.17"/>
</g>
<!-- 1344030488768 -->
<g id="node49" class="node">
<title>1344030488768</title>
<ellipse fill="none" stroke="black" cx="566.15" cy="-369" rx="27" ry="18"/>
<text text-anchor="middle" x="566.15" y="-363" font-family="Times New Roman,serif" font-size="15.00">seq</text>
</g>
<!-- 1344030477056&#45;&#45;1344030488768 -->
<g id="edge51" class="edge">
<title>1344030477056&#45;&#45;1344030488768</title>
<path fill="none" stroke="black" d="M256.65,-369C319.23,-369 476.55,-369 539.01,-369"/>
</g>
<!-- 1344030476720 -->
<g id="node54" class="node">
<title>1344030476720</title>
<ellipse fill="none" stroke="black" cx="566.15" cy="-234" rx="27" ry="18"/>
<text text-anchor="middle" x="566.15" y="-228" font-family="Times New Roman,serif" font-size="15.00">seq</text>
</g>
<!-- 1344030477056&#45;&#45;1344030476720 -->
<g id="edge68" class="edge">
<title>1344030477056&#45;&#45;1344030476720</title>
<path fill="none" stroke="black" d="M253.13,-359.83C314.2,-335.2 481.27,-267.83 542.38,-243.19"/>
</g>
<!-- 1344030045920 -->
<g id="node50" class="node">
<title>1344030045920</title>
<ellipse fill="none" stroke="black" cx="968.44" cy="-450" rx="153.2" ry="18"/>
<text text-anchor="middle" x="968.44" y="-444" font-family="Times New Roman,serif" font-size="15.00">Decision date before final decision</text>
</g>
<!-- 1344030488768&#45;&#45;1344030045920 -->
<g id="edge47" class="edge">
<title>1344030488768&#45;&#45;1344030045920</title>
<path fill="none" stroke="black" d="M592.5,-374.13C651.1,-385.99 797.96,-415.7 889.52,-434.23"/>
</g>
<!-- 1344030041360 -->
<g id="node51" class="node">
<title>1344030041360</title>
<ellipse fill="none" stroke="black" cx="968.44" cy="-396" rx="159.34" ry="18"/>
<text text-anchor="middle" x="968.44" y="-390" font-family="Times New Roman,serif" font-size="15.00">generate no permit required decision</text>
</g>
<!-- 1344030488768&#45;&#45;1344030041360 -->
<g id="edge48" class="edge">
<title>1344030488768&#45;&#45;1344030041360</title>
<path fill="none" stroke="black" d="M593.42,-370.77C640.99,-373.98 744.46,-380.96 830.54,-386.77"/>
</g>
<!-- 1344030046736 -->
<g id="node52" class="node">
<title>1344030046736</title>
<ellipse fill="none" stroke="black" cx="968.44" cy="-342" rx="110.21" ry="18"/>
<text text-anchor="middle" x="968.44" y="-336" font-family="Times New Roman,serif" font-size="15.00">Establish decision status</text>
</g>
<!-- 1344030488768&#45;&#45;1344030046736 -->
<g id="edge49" class="edge">
<title>1344030488768&#45;&#45;1344030046736</title>
<path fill="none" stroke="black" d="M593.42,-367.23C647.69,-363.57 774.7,-355 865.65,-348.87"/>
</g>
<!-- 1344030032384 -->
<g id="node53" class="node">
<title>1344030032384</title>
<ellipse fill="none" stroke="black" cx="968.44" cy="-288" rx="155.25" ry="18"/>
<text text-anchor="middle" x="968.44" y="-282" font-family="Times New Roman,serif" font-size="15.00">create no permit necessary decision</text>
</g>
<!-- 1344030488768&#45;&#45;1344030032384 -->
<g id="edge50" class="edge">
<title>1344030488768&#45;&#45;1344030032384</title>
<path fill="none" stroke="black" d="M592.5,-363.87C651.02,-352.03 797.53,-322.38 889.11,-303.85"/>
</g>
<!-- 1344030032816 -->
<g id="node55" class="node">
<title>1344030032816</title>
<ellipse fill="none" stroke="black" cx="968.44" cy="-234" rx="27" ry="18"/>
<text text-anchor="middle" x="968.44" y="-228" font-family="Times New Roman,serif" font-size="15.00">and</text>
</g>
<!-- 1344030476720&#45;&#45;1344030032816 -->
<g id="edge58" class="edge">
<title>1344030476720&#45;&#45;1344030032816</title>
<path fill="none" stroke="black" d="M593.42,-234C665.95,-234 868.43,-234 941.08,-234"/>
</g>
<!-- 1344030036224 -->
<g id="node62" class="node">
<title>1344030036224</title>
<ellipse fill="none" stroke="black" cx="968.44" cy="-126" rx="27" ry="18"/>
<text text-anchor="middle" x="968.44" y="-120" font-family="Times New Roman,serif" font-size="15.00">xor</text>
</g>
<!-- 1344030476720&#45;&#45;1344030036224 -->
<g id="edge67" class="edge">
<title>1344030476720&#45;&#45;1344030036224</title>
<path fill="none" stroke="black" d="M591.59,-227.41C663.05,-208.13 871.11,-151.99 942.81,-132.64"/>
</g>
<!-- 1344030044768 -->
<g id="node56" class="node">
<title>1344030044768</title>
<ellipse fill="none" stroke="black" cx="1347.18" cy="-288" rx="103.56" ry="18"/>
<text text-anchor="middle" x="1347.18" y="-282" font-family="Times New Roman,serif" font-size="15.00">Start WABOprocedure</text>
</g>
<!-- 1344030032816&#45;&#45;1344030044768 -->
<g id="edge52" class="edge">
<title>1344030032816&#45;&#45;1344030044768</title>
<path fill="none" stroke="black" d="M995.33,-237.71C1050.28,-245.59 1180.48,-264.25 1265.88,-276.49"/>
</g>
<!-- 1344030040016 -->
<g id="node57" class="node">
<title>1344030040016</title>
<ellipse fill="none" stroke="black" cx="1347.18" cy="-234" rx="27" ry="18"/>
<text text-anchor="middle" x="1347.18" y="-228" font-family="Times New Roman,serif" font-size="15.00">xor</text>
</g>
<!-- 1344030032816&#45;&#45;1344030040016 -->
<g id="edge57" class="edge">
<title>1344030032816&#45;&#45;1344030040016</title>
<path fill="none" stroke="black" d="M995.93,-234C1065.1,-234 1250.58,-234 1319.72,-234"/>
</g>
<!-- 1344030047456 -->
<g id="node58" class="node">
<title>1344030047456</title>
<ellipse fill="black" stroke="black" cx="1660.92" cy="-253" rx="2.7" ry="2.7"/>
</g>
<!-- 1344030040016&#45;&#45;1344030047456 -->
<g id="edge53" class="edge">
<title>1344030040016&#45;&#45;1344030047456</title>
<path fill="none" stroke="black" d="M1374.49,-235.6C1445.54,-239.93 1637.33,-251.62 1658.09,-252.89"/>
</g>
<!-- 1344030042704 -->
<g id="node59" class="node">
<title>1344030042704</title>
<ellipse fill="none" stroke="black" cx="1660.92" cy="-214" rx="27" ry="18"/>
<text text-anchor="middle" x="1660.92" y="-208" font-family="Times New Roman,serif" font-size="15.00">seq</text>
</g>
<!-- 1344030040016&#45;&#45;1344030042704 -->
<g id="edge56" class="edge">
<title>1344030040016&#45;&#45;1344030042704</title>
<path fill="none" stroke="black" d="M1374.49,-232.31C1433.35,-228.54 1575.1,-219.44 1633.79,-215.68"/>
</g>
<!-- 1344030044336 -->
<g id="node60" class="node">
<title>1344030044336</title>
<ellipse fill="none" stroke="black" cx="1973.13" cy="-241" rx="134.78" ry="18"/>
<text text-anchor="middle" x="1973.13" y="-235" font-family="Times New Roman,serif" font-size="15.00">Create procedure confirmation</text>
</g>
<!-- 1344030042704&#45;&#45;1344030044336 -->
<g id="edge54" class="edge">
<title>1344030042704&#45;&#45;1344030044336</title>
<path fill="none" stroke="black" d="M1688.1,-216.28C1725.64,-219.55 1797.06,-225.76 1858.88,-231.14"/>
</g>
<!-- 1344030043376 -->
<g id="node61" class="node">
<title>1344030043376</title>
<ellipse fill="none" stroke="black" cx="1973.13" cy="-187" rx="132.73" ry="18"/>
<text text-anchor="middle" x="1973.13" y="-181" font-family="Times New Roman,serif" font-size="15.00">Create subcases completeness</text>
</g>
<!-- 1344030042704&#45;&#45;1344030043376 -->
<g id="edge55" class="edge">
<title>1344030042704&#45;&#45;1344030043376</title>
<path fill="none" stroke="black" d="M1688.1,-211.72C1725.86,-208.43 1797.89,-202.17 1859.96,-196.76"/>
</g>
<!-- 1344030032000 -->
<g id="node63" class="node">
<title>1344030032000</title>
<ellipse fill="none" stroke="black" cx="1347.18" cy="-180" rx="133.24" ry="18"/>
<text text-anchor="middle" x="1347.18" y="-174" font-family="Times New Roman,serif" font-size="15.00">View field phased application</text>
</g>
<!-- 1344030036224&#45;&#45;1344030032000 -->
<g id="edge59" class="edge">
<title>1344030036224&#45;&#45;1344030032000</title>
<path fill="none" stroke="black" d="M995.33,-129.71C1047.78,-137.23 1168.81,-154.58 1253.99,-166.79"/>
</g>
<!-- 1344030040592 -->
<g id="node64" class="node">
<title>1344030040592</title>
<ellipse fill="none" stroke="black" cx="1347.18" cy="-126" rx="137.85" ry="18"/>
<text text-anchor="middle" x="1347.18" y="-120" font-family="Times New Roman,serif" font-size="15.00">Process subcases completeness</text>
</g>
<!-- 1344030036224&#45;&#45;1344030040592 -->
<g id="edge60" class="edge">
<title>1344030036224&#45;&#45;1344030040592</title>
<path fill="none" stroke="black" d="M995.93,-126C1039.9,-126 1130.85,-126 1209.04,-126"/>
</g>
<!-- 1344030032864 -->
<g id="node65" class="node">
<title>1344030032864</title>
<ellipse fill="none" stroke="black" cx="1347.18" cy="-72" rx="27" ry="18"/>
<text text-anchor="middle" x="1347.18" y="-66" font-family="Times New Roman,serif" font-size="15.00">seq</text>
</g>
<!-- 1344030036224&#45;&#45;1344030032864 -->
<g id="edge65" class="edge">
<title>1344030036224&#45;&#45;1344030032864</title>
<path fill="none" stroke="black" d="M995.33,-122.29C1064.32,-112.4 1251.98,-85.5 1320.6,-75.67"/>
</g>
<!-- 1344030046448 -->
<g id="node70" class="node">
<title>1344030046448</title>
<ellipse fill="none" stroke="black" cx="1347.18" cy="-18" rx="83.08" ry="18"/>
<text text-anchor="middle" x="1347.18" y="-12" font-family="Times New Roman,serif" font-size="15.00">Update procedure</text>
</g>
<!-- 1344030036224&#45;&#45;1344030046448 -->
<g id="edge66" class="edge">
<title>1344030036224&#45;&#45;1344030046448</title>
<path fill="none" stroke="black" d="M993.87,-119C1054.61,-101.59 1213.45,-56.05 1295.5,-32.53"/>
</g>
<!-- 1344030037232 -->
<g id="node66" class="node">
<title>1344030037232</title>
<ellipse fill="none" stroke="black" cx="1660.92" cy="-99" rx="128.12" ry="18"/>
<text text-anchor="middle" x="1660.92" y="-93" font-family="Times New Roman,serif" font-size="15.00">Send procedure confirmation</text>
</g>
<!-- 1344030032864&#45;&#45;1344030037232 -->
<g id="edge61" class="edge">
<title>1344030032864&#45;&#45;1344030037232</title>
<path fill="none" stroke="black" d="M1374.22,-74.26C1412.78,-77.6 1487.32,-84.05 1550.6,-89.53"/>
</g>
<!-- 1344030038480 -->
<g id="node67" class="node">
<title>1344030038480</title>
<ellipse fill="none" stroke="black" cx="1660.92" cy="-45" rx="27" ry="18"/>
<text text-anchor="middle" x="1660.92" y="-39" font-family="Times New Roman,serif" font-size="15.00">xor</text>
</g>
<!-- 1344030032864&#45;&#45;1344030038480 -->
<g id="edge64" class="edge">
<title>1344030032864&#45;&#45;1344030038480</title>
<path fill="none" stroke="black" d="M1374.22,-69.74C1432.9,-64.66 1574.92,-52.36 1633.73,-47.27"/>
</g>
<!-- 1344030101136 -->
<g id="node68" class="node">
<title>1344030101136</title>
<ellipse fill="black" stroke="black" cx="1973.13" cy="-65" rx="2.7" ry="2.7"/>
</g>
<!-- 1344030038480&#45;&#45;1344030101136 -->
<g id="edge62" class="edge">
<title>1344030038480&#45;&#45;1344030101136</title>
<path fill="none" stroke="black" d="M1688.1,-46.69C1758.8,-51.25 1949.64,-63.55 1970.31,-64.88"/>
</g>
<!-- 1344030102480 -->
<g id="node69" class="node">
<title>1344030102480</title>
<ellipse fill="none" stroke="black" cx="1973.13" cy="-26" rx="112.77" ry="18"/>
<text text-anchor="middle" x="1973.13" y="-20" font-family="Times New Roman,serif" font-size="15.00">Create publication report</text>
</g>
<!-- 1344030038480&#45;&#45;1344030102480 -->
<g id="edge63" class="edge">
<title>1344030038480&#45;&#45;1344030102480</title>
<path fill="none" stroke="black" d="M1688.1,-43.4C1727.32,-40.99 1803.52,-36.33 1867.12,-32.43"/>
</g>
</g>
</svg>
