<?xml version="1.0" encoding="UTF-8" standalone="no"?>
<!DOCTYPE svg PUBLIC "-//W3C//DTD SVG 1.1//EN"
 "http://www.w3.org/Graphics/SVG/1.1/DTD/svg11.dtd">
<!-- Generated by graphviz version 11.0.0 (20240428.1522)
 -->
<!-- Title: pt Pages: 1 -->
<svg width="1884pt" height="1003pt"
 viewBox="0.00 0.00 1883.54 1003.00" xmlns="http://www.w3.org/2000/svg" xmlns:xlink="http://www.w3.org/1999/xlink">
<g id="graph0" class="graph" transform="scale(1 1) rotate(0) translate(4 999)">
<title>pt</title>
<polygon fill="white" stroke="none" points="-4,4 -4,-999 1879.54,-999 1879.54,4 -4,4"/>
<!-- 2787270847296 -->
<g id="node1" class="node">
<title>2787270847296</title>
<ellipse fill="none" stroke="black" cx="27" cy="-501" rx="27" ry="18"/>
<text text-anchor="middle" x="27" y="-495" font-family="Times New Roman,serif" font-size="15.00">seq</text>
</g>
<!-- 2787270838896 -->
<g id="node2" class="node">
<title>2787270838896</title>
<ellipse fill="none" stroke="black" cx="233.99" cy="-626" rx="27" ry="18"/>
<text text-anchor="middle" x="233.99" y="-620" font-family="Times New Roman,serif" font-size="15.00">xor</text>
</g>
<!-- 2787270847296&#45;&#45;2787270838896 -->
<g id="edge18" class="edge">
<title>2787270847296&#45;&#45;2787270838896</title>
<path fill="none" stroke="black" d="M47.66,-512.99C86.84,-536.88 174.26,-590.19 213.39,-614.05"/>
</g>
<!-- 2787270848496 -->
<g id="node20" class="node">
<title>2787270848496</title>
<ellipse fill="none" stroke="black" cx="233.99" cy="-555" rx="143.99" ry="18"/>
<text text-anchor="middle" x="233.99" y="-549" font-family="Times New Roman,serif" font-size="15.00">Transmit procedure confirmation</text>
</g>
<!-- 2787270847296&#45;&#45;2787270848496 -->
<g id="edge19" class="edge">
<title>2787270847296&#45;&#45;2787270848496</title>
<path fill="none" stroke="black" d="M52.73,-507.51C81.69,-515.14 130.76,-528.07 170.39,-538.51"/>
</g>
<!-- 2787270850704 -->
<g id="node21" class="node">
<title>2787270850704</title>
<ellipse fill="none" stroke="black" cx="233.99" cy="-501" rx="27" ry="18"/>
<text text-anchor="middle" x="233.99" y="-495" font-family="Times New Roman,serif" font-size="15.00">xor</text>
</g>
<!-- 2787270847296&#45;&#45;2787270850704 -->
<g id="edge22" class="edge">
<title>2787270847296&#45;&#45;2787270850704</title>
<path fill="none" stroke="black" d="M54.38,-501C93.74,-501 167.41,-501 206.71,-501"/>
</g>
<!-- 2787270841920 -->
<g id="node24" class="node">
<title>2787270841920</title>
<ellipse fill="none" stroke="black" cx="233.99" cy="-447" rx="112.77" ry="18"/>
<text text-anchor="middle" x="233.99" y="-441" font-family="Times New Roman,serif" font-size="15.00">Initiate WABOprocedure</text>
</g>
<!-- 2787270847296&#45;&#45;2787270841920 -->
<g id="edge23" class="edge">
<title>2787270847296&#45;&#45;2787270841920</title>
<path fill="none" stroke="black" d="M52.73,-494.49C82.54,-486.63 133.66,-473.17 173.86,-462.58"/>
</g>
<!-- 2787270848592 -->
<g id="node25" class="node">
<title>2787270848592</title>
<ellipse fill="none" stroke="black" cx="233.99" cy="-369" rx="27" ry="18"/>
<text text-anchor="middle" x="233.99" y="-363" font-family="Times New Roman,serif" font-size="15.00">xor</text>
</g>
<!-- 2787270847296&#45;&#45;2787270848592 -->
<g id="edge42" class="edge">
<title>2787270847296&#45;&#45;2787270848592</title>
<path fill="none" stroke="black" d="M47.28,-488.58C86.45,-463.36 174.9,-406.4 213.9,-381.29"/>
</g>
<!-- 2787270843168 -->
<g id="node3" class="node">
<title>2787270843168</title>
<ellipse fill="black" stroke="black" cx="579.97" cy="-665" rx="2.7" ry="2.7"/>
</g>
<!-- 2787270838896&#45;&#45;2787270843168 -->
<g id="edge1" class="edge">
<title>2787270838896&#45;&#45;2787270843168</title>
<path fill="none" stroke="black" d="M261.13,-628.96C337.01,-637.57 553.46,-662.11 576.91,-664.77"/>
</g>
<!-- 2787270837984 -->
<g id="node4" class="node">
<title>2787270837984</title>
<ellipse fill="none" stroke="black" cx="579.97" cy="-626" rx="27" ry="18"/>
<text text-anchor="middle" x="579.97" y="-620" font-family="Times New Roman,serif" font-size="15.00">seq</text>
</g>
<!-- 2787270838896&#45;&#45;2787270837984 -->
<g id="edge17" class="edge">
<title>2787270838896&#45;&#45;2787270837984</title>
<path fill="none" stroke="black" d="M261.41,-626C325.6,-626 489.14,-626 552.93,-626"/>
</g>
<!-- 2787270851952 -->
<g id="node5" class="node">
<title>2787270851952</title>
<ellipse fill="none" stroke="black" cx="933.12" cy="-977" rx="129.66" ry="18"/>
<text text-anchor="middle" x="933.12" y="-971" font-family="Times New Roman,serif" font-size="15.00">Input submission date request</text>
</g>
<!-- 2787270837984&#45;&#45;2787270851952 -->
<g id="edge2" class="edge">
<title>2787270837984&#45;&#45;2787270851952</title>
<path fill="none" stroke="black" d="M595.62,-640.64C651.69,-696.68 852.7,-897.61 914.15,-959.04"/>
</g>
<!-- 2787270850512 -->
<g id="node6" class="node">
<title>2787270850512</title>
<ellipse fill="none" stroke="black" cx="933.12" cy="-923" rx="93.32" ry="18"/>
<text text-anchor="middle" x="933.12" y="-917" font-family="Times New Roman,serif" font-size="15.00">OLO messaging live</text>
</g>
<!-- 2787270837984&#45;&#45;2787270850512 -->
<g id="edge3" class="edge">
<title>2787270837984&#45;&#45;2787270850512</title>
<path fill="none" stroke="black" d="M597.44,-639.93C654.93,-688.55 846.73,-850.77 910.96,-905.1"/>
</g>
<!-- 2787270844944 -->
<g id="node7" class="node">
<title>2787270844944</title>
<ellipse fill="none" stroke="black" cx="933.12" cy="-869" rx="127.61" ry="18"/>
<text text-anchor="middle" x="933.12" y="-863" font-family="Times New Roman,serif" font-size="15.00">Provide confirmation receipt</text>
</g>
<!-- 2787270837984&#45;&#45;2787270844944 -->
<g id="edge4" class="edge">
<title>2787270837984&#45;&#45;2787270844944</title>
<path fill="none" stroke="black" d="M599.36,-638.72C657.64,-679.05 838.42,-804.15 906.15,-851.02"/>
</g>
<!-- 2787270840048 -->
<g id="node8" class="node">
<title>2787270840048</title>
<ellipse fill="none" stroke="black" cx="933.12" cy="-815" rx="147.06" ry="18"/>
<text text-anchor="middle" x="933.12" y="-809" font-family="Times New Roman,serif" font-size="15.00">Applicant considered stakeholder</text>
</g>
<!-- 2787270837984&#45;&#45;2787270840048 -->
<g id="edge5" class="edge">
<title>2787270837984&#45;&#45;2787270840048</title>
<path fill="none" stroke="black" d="M601.63,-637.12C660.14,-668.61 827.39,-758.63 898.97,-797.15"/>
</g>
<!-- 2787270846192 -->
<g id="node9" class="node">
<title>2787270846192</title>
<ellipse fill="none" stroke="black" cx="933.12" cy="-761" rx="121.47" ry="18"/>
<text text-anchor="middle" x="933.12" y="-755" font-family="Times New Roman,serif" font-size="15.00">Assess provisional charges</text>
</g>
<!-- 2787270837984&#45;&#45;2787270846192 -->
<g id="edge6" class="edge">
<title>2787270837984&#45;&#45;2787270846192</title>
<path fill="none" stroke="black" d="M604.01,-634.86C661.54,-656.97 812.24,-714.91 887.72,-743.93"/>
</g>
<!-- 2787270837360 -->
<g id="node10" class="node">
<title>2787270837360</title>
<ellipse fill="none" stroke="black" cx="933.12" cy="-707" rx="151.15" ry="18"/>
<text text-anchor="middle" x="933.12" y="-701" font-family="Times New Roman,serif" font-size="15.00">Transfer to the competent authority</text>
</g>
<!-- 2787270837984&#45;&#45;2787270837360 -->
<g id="edge7" class="edge">
<title>2787270837984&#45;&#45;2787270837360</title>
<path fill="none" stroke="black" d="M605.95,-631.76C658.59,-643.9 782.61,-672.51 861.66,-690.75"/>
</g>
<!-- 2787270837552 -->
<g id="node11" class="node">
<title>2787270837552</title>
<ellipse fill="none" stroke="black" cx="933.12" cy="-653" rx="136.82" ry="18"/>
<text text-anchor="middle" x="933.12" y="-647" font-family="Times New Roman,serif" font-size="15.00">Environmental Report required</text>
</g>
<!-- 2787270837984&#45;&#45;2787270837552 -->
<g id="edge8" class="edge">
<title>2787270837984&#45;&#45;2787270837552</title>
<path fill="none" stroke="black" d="M607.08,-628.01C650.39,-631.34 739.67,-638.2 813.72,-643.9"/>
</g>
<!-- 2787270850224 -->
<g id="node12" class="node">
<title>2787270850224</title>
<ellipse fill="none" stroke="black" cx="933.12" cy="-599" rx="125.56" ry="18"/>
<text text-anchor="middle" x="933.12" y="-593" font-family="Times New Roman,serif" font-size="15.00">Routine procedure activities</text>
</g>
<!-- 2787270837984&#45;&#45;2787270850224 -->
<g id="edge9" class="edge">
<title>2787270837984&#45;&#45;2787270850224</title>
<path fill="none" stroke="black" d="M607.08,-623.99C651.9,-620.55 745.96,-613.31 821.41,-607.51"/>
</g>
<!-- 2787270848832 -->
<g id="node13" class="node">
<title>2787270848832</title>
<ellipse fill="none" stroke="black" cx="933.12" cy="-545" rx="87.69" ry="18"/>
<text text-anchor="middle" x="933.12" y="-539" font-family="Times New Roman,serif" font-size="15.00">Phased application</text>
</g>
<!-- 2787270837984&#45;&#45;2787270848832 -->
<g id="edge10" class="edge">
<title>2787270837984&#45;&#45;2787270848832</title>
<path fill="none" stroke="black" d="M605.95,-620.24C661.26,-607.48 795.35,-576.55 873.29,-558.57"/>
</g>
<!-- 2787270849312 -->
<g id="node14" class="node">
<title>2787270849312</title>
<ellipse fill="none" stroke="black" cx="933.12" cy="-491" rx="27" ry="18"/>
<text text-anchor="middle" x="933.12" y="-485" font-family="Times New Roman,serif" font-size="15.00">and</text>
</g>
<!-- 2787270837984&#45;&#45;2787270849312 -->
<g id="edge13" class="edge">
<title>2787270837984&#45;&#45;2787270849312</title>
<path fill="none" stroke="black" d="M604.01,-617.14C667.79,-592.62 846.12,-524.06 909.46,-499.71"/>
</g>
<!-- 2787270840576 -->
<g id="node17" class="node">
<title>2787270840576</title>
<ellipse fill="none" stroke="black" cx="933.12" cy="-437" rx="51.35" ry="18"/>
<text text-anchor="middle" x="933.12" y="-431" font-family="Times New Roman,serif" font-size="15.00">Distribute</text>
</g>
<!-- 2787270837984&#45;&#45;2787270840576 -->
<g id="edge14" class="edge">
<title>2787270837984&#45;&#45;2787270840576</title>
<path fill="none" stroke="black" d="M601.63,-614.88C661.54,-582.64 835.44,-489.04 903.93,-452.18"/>
</g>
<!-- 2787270847968 -->
<g id="node18" class="node">
<title>2787270847968</title>
<ellipse fill="none" stroke="black" cx="933.12" cy="-383" rx="127.61" ry="18"/>
<text text-anchor="middle" x="933.12" y="-377" font-family="Times New Roman,serif" font-size="15.00">Form subcases completeness</text>
</g>
<!-- 2787270837984&#45;&#45;2787270847968 -->
<g id="edge15" class="edge">
<title>2787270837984&#45;&#45;2787270847968</title>
<path fill="none" stroke="black" d="M599.36,-613.28C657.64,-572.95 838.42,-447.85 906.15,-400.98"/>
</g>
<!-- 2787270851712 -->
<g id="node19" class="node">
<title>2787270851712</title>
<ellipse fill="none" stroke="black" cx="933.12" cy="-329" rx="83.08" ry="18"/>
<text text-anchor="middle" x="933.12" y="-323" font-family="Times New Roman,serif" font-size="15.00">Amend procedure</text>
</g>
<!-- 2787270837984&#45;&#45;2787270851712 -->
<g id="edge16" class="edge">
<title>2787270837984&#45;&#45;2787270851712</title>
<path fill="none" stroke="black" d="M597.44,-612.07C655.07,-563.33 847.63,-400.46 911.41,-346.52"/>
</g>
<!-- 2787270841296 -->
<g id="node15" class="node">
<title>2787270841296</title>
<ellipse fill="none" stroke="black" cx="1262.73" cy="-518" rx="129.15" ry="18"/>
<text text-anchor="middle" x="1262.73" y="-512" font-family="Times New Roman,serif" font-size="15.00">Draft procedure confirmation</text>
</g>
<!-- 2787270849312&#45;&#45;2787270841296 -->
<g id="edge11" class="edge">
<title>2787270849312&#45;&#45;2787270841296</title>
<path fill="none" stroke="black" d="M960.38,-493.16C1001.3,-496.54 1082.63,-503.24 1150.5,-508.83"/>
</g>
<!-- 2787270846864 -->
<g id="node16" class="node">
<title>2787270846864</title>
<ellipse fill="none" stroke="black" cx="1262.73" cy="-464" rx="142.45" ry="18"/>
<text text-anchor="middle" x="1262.73" y="-458" font-family="Times New Roman,serif" font-size="15.00">Routine procedure without MER</text>
</g>
<!-- 2787270849312&#45;&#45;2787270846864 -->
<g id="edge12" class="edge">
<title>2787270849312&#45;&#45;2787270846864</title>
<path fill="none" stroke="black" d="M960.38,-488.84C999.63,-485.6 1076.06,-479.3 1142.13,-473.86"/>
</g>
<!-- 2787270847872 -->
<g id="node22" class="node">
<title>2787270847872</title>
<ellipse fill="black" stroke="black" cx="579.97" cy="-523" rx="2.7" ry="2.7"/>
</g>
<!-- 2787270850704&#45;&#45;2787270847872 -->
<g id="edge20" class="edge">
<title>2787270850704&#45;&#45;2787270847872</title>
<path fill="none" stroke="black" d="M261.13,-502.67C337.01,-507.52 553.46,-521.37 576.91,-522.87"/>
</g>
<!-- 2787270841680 -->
<g id="node23" class="node">
<title>2787270841680</title>
<ellipse fill="none" stroke="black" cx="579.97" cy="-484" rx="139.89" ry="18"/>
<text text-anchor="middle" x="579.97" y="-478" font-family="Times New Roman,serif" font-size="15.00">Inspect field phased application</text>
</g>
<!-- 2787270850704&#45;&#45;2787270841680 -->
<g id="edge21" class="edge">
<title>2787270850704&#45;&#45;2787270841680</title>
<path fill="none" stroke="black" d="M261.41,-499.69C301.37,-497.72 379.84,-493.84 448.77,-490.43"/>
</g>
<!-- 2787270846672 -->
<g id="node26" class="node">
<title>2787270846672</title>
<ellipse fill="none" stroke="black" cx="579.97" cy="-423" rx="79.5" ry="18"/>
<text text-anchor="middle" x="579.97" y="-417" font-family="Times New Roman,serif" font-size="15.00">Cease on request</text>
</g>
<!-- 2787270848592&#45;&#45;2787270846672 -->
<g id="edge24" class="edge">
<title>2787270848592&#45;&#45;2787270846672</title>
<path fill="none" stroke="black" d="M260.56,-373.01C313.58,-381.34 436.91,-400.7 513.58,-412.73"/>
</g>
<!-- 2787270851904 -->
<g id="node27" class="node">
<title>2787270851904</title>
<ellipse fill="none" stroke="black" cx="579.97" cy="-369" rx="166" ry="18"/>
<text text-anchor="middle" x="579.97" y="-363" font-family="Times New Roman,serif" font-size="15.00">Input senddate procedure confirmation</text>
</g>
<!-- 2787270848592&#45;&#45;2787270851904 -->
<g id="edge25" class="edge">
<title>2787270848592&#45;&#45;2787270851904</title>
<path fill="none" stroke="black" d="M261.41,-369C294.68,-369 354.66,-369 413.59,-369"/>
</g>
<!-- 2787270850320 -->
<g id="node28" class="node">
<title>2787270850320</title>
<ellipse fill="none" stroke="black" cx="579.97" cy="-315" rx="61.08" ry="18"/>
<text text-anchor="middle" x="579.97" y="-309" font-family="Times New Roman,serif" font-size="15.00">case closure</text>
</g>
<!-- 2787270848592&#45;&#45;2787270850320 -->
<g id="edge26" class="edge">
<title>2787270848592&#45;&#45;2787270850320</title>
<path fill="none" stroke="black" d="M260.56,-364.99C316.38,-356.22 450.14,-335.22 525.33,-323.42"/>
</g>
<!-- 2787270845520 -->
<g id="node29" class="node">
<title>2787270845520</title>
<ellipse fill="none" stroke="black" cx="579.97" cy="-248" rx="27" ry="18"/>
<text text-anchor="middle" x="579.97" y="-242" font-family="Times New Roman,serif" font-size="15.00">seq</text>
</g>
<!-- 2787270848592&#45;&#45;2787270845520 -->
<g id="edge41" class="edge">
<title>2787270848592&#45;&#45;2787270845520</title>
<path fill="none" stroke="black" d="M258.36,-360.78C321.12,-338.7 492.78,-278.32 555.57,-256.23"/>
</g>
<!-- 2787271242816 -->
<g id="node30" class="node">
<title>2787271242816</title>
<ellipse fill="none" stroke="black" cx="933.12" cy="-275" rx="27" ry="18"/>
<text text-anchor="middle" x="933.12" y="-269" font-family="Times New Roman,serif" font-size="15.00">xor</text>
</g>
<!-- 2787270845520&#45;&#45;2787271242816 -->
<g id="edge38" class="edge">
<title>2787270845520&#45;&#45;2787271242816</title>
<path fill="none" stroke="black" d="M607.08,-250.01C672.09,-255.01 840.66,-267.97 905.85,-272.98"/>
</g>
<!-- 2787271231104 -->
<g id="node42" class="node">
<title>2787271231104</title>
<ellipse fill="none" stroke="black" cx="933.12" cy="-221" rx="111.23" ry="18"/>
<text text-anchor="middle" x="933.12" y="-215" font-family="Times New Roman,serif" font-size="15.00">Phase procedure aborted</text>
</g>
<!-- 2787270845520&#45;&#45;2787271231104 -->
<g id="edge39" class="edge">
<title>2787270845520&#45;&#45;2787271231104</title>
<path fill="none" stroke="black" d="M607.08,-245.99C653.97,-242.39 754.73,-234.64 831.72,-228.72"/>
</g>
<!-- 2787271239792 -->
<g id="node43" class="node">
<title>2787271239792</title>
<ellipse fill="none" stroke="black" cx="933.12" cy="-167" rx="69.78" ry="18"/>
<text text-anchor="middle" x="933.12" y="-161" font-family="Times New Roman,serif" font-size="15.00">Conclude case</text>
</g>
<!-- 2787270845520&#45;&#45;2787271239792 -->
<g id="edge40" class="edge">
<title>2787270845520&#45;&#45;2787271239792</title>
<path fill="none" stroke="black" d="M605.95,-242.24C662.9,-229.1 803.39,-196.69 880.1,-179"/>
</g>
<!-- 2787271237824 -->
<g id="node31" class="node">
<title>2787271237824</title>
<ellipse fill="none" stroke="black" cx="1262.73" cy="-342" rx="27" ry="18"/>
<text text-anchor="middle" x="1262.73" y="-336" font-family="Times New Roman,serif" font-size="15.00">seq</text>
</g>
<!-- 2787271242816&#45;&#45;2787271237824 -->
<g id="edge31" class="edge">
<title>2787271242816&#45;&#45;2787271237824</title>
<path fill="none" stroke="black" d="M959.29,-280.15C1020.27,-292.62 1175.41,-324.35 1236.48,-336.84"/>
</g>
<!-- 2787271235232 -->
<g id="node36" class="node">
<title>2787271235232</title>
<ellipse fill="none" stroke="black" cx="1262.73" cy="-153" rx="27" ry="18"/>
<text text-anchor="middle" x="1262.73" y="-147" font-family="Times New Roman,serif" font-size="15.00">seq</text>
</g>
<!-- 2787271242816&#45;&#45;2787271235232 -->
<g id="edge37" class="edge">
<title>2787271242816&#45;&#45;2787271235232</title>
<path fill="none" stroke="black" d="M957.16,-266.42C1017.31,-244.02 1178.6,-183.96 1238.72,-161.57"/>
</g>
<!-- 2787271244256 -->
<g id="node32" class="node">
<title>2787271244256</title>
<ellipse fill="none" stroke="black" cx="1658.36" cy="-450" rx="191.08" ry="18"/>
<text text-anchor="middle" x="1658.36" y="-444" font-family="Times New Roman,serif" font-size="15.00">No permit needed or just notification needed</text>
</g>
<!-- 2787271237824&#45;&#45;2787271244256 -->
<g id="edge27" class="edge">
<title>2787271237824&#45;&#45;2787271244256</title>
<path fill="none" stroke="black" d="M1288.06,-348.67C1348.15,-365.16 1505.15,-408.24 1593.89,-432.58"/>
</g>
<!-- 2787271238880 -->
<g id="node33" class="node">
<title>2787271238880</title>
<ellipse fill="none" stroke="black" cx="1658.36" cy="-396" rx="173.67" ry="18"/>
<text text-anchor="middle" x="1658.36" y="-390" font-family="Times New Roman,serif" font-size="15.00">draft letter indicating no permit required</text>
</g>
<!-- 2787271237824&#45;&#45;2787271238880 -->
<g id="edge28" class="edge">
<title>2787271237824&#45;&#45;2787271238880</title>
<path fill="none" stroke="black" d="M1289.56,-345.54C1341.73,-352.7 1462.26,-369.24 1551.2,-381.44"/>
</g>
<!-- 2787271241136 -->
<g id="node34" class="node">
<title>2787271241136</title>
<ellipse fill="none" stroke="black" cx="1658.36" cy="-342" rx="217.18" ry="18"/>
<text text-anchor="middle" x="1658.36" y="-336" font-family="Times New Roman,serif" font-size="15.00">log senddate letter no permit or notification needed</text>
</g>
<!-- 2787271237824&#45;&#45;2787271241136 -->
<g id="edge29" class="edge">
<title>2787271237824&#45;&#45;2787271241136</title>
<path fill="none" stroke="black" d="M1290.17,-342C1322.49,-342 1380.38,-342 1440.78,-342"/>
</g>
<!-- 2787271231296 -->
<g id="node35" class="node">
<title>2787271231296</title>
<ellipse fill="none" stroke="black" cx="1658.36" cy="-288" rx="81.04" ry="18"/>
<text text-anchor="middle" x="1658.36" y="-282" font-family="Times New Roman,serif" font-size="15.00">Register due date</text>
</g>
<!-- 2787271237824&#45;&#45;2787271231296 -->
<g id="edge30" class="edge">
<title>2787271237824&#45;&#45;2787271231296</title>
<path fill="none" stroke="black" d="M1289.56,-338.46C1349.51,-330.23 1499.74,-309.62 1588.56,-297.44"/>
</g>
<!-- 2787271240416 -->
<g id="node37" class="node">
<title>2787271240416</title>
<ellipse fill="none" stroke="black" cx="1658.36" cy="-234" rx="152.69" ry="18"/>
<text text-anchor="middle" x="1658.36" y="-228" font-family="Times New Roman,serif" font-size="15.00">send request to competent authority</text>
</g>
<!-- 2787271235232&#45;&#45;2787271240416 -->
<g id="edge32" class="edge">
<title>2787271235232&#45;&#45;2787271240416</title>
<path fill="none" stroke="black" d="M1288.95,-158.19C1346.65,-170.06 1490.18,-199.6 1580.1,-218.1"/>
</g>
<!-- 2787271229520 -->
<g id="node38" class="node">
<title>2787271229520</title>
<ellipse fill="none" stroke="black" cx="1658.36" cy="-180" rx="180.33" ry="18"/>
<text text-anchor="middle" x="1658.36" y="-174" font-family="Times New Roman,serif" font-size="15.00">note the senddate for letter to the authority</text>
</g>
<!-- 2787271235232&#45;&#45;2787271229520 -->
<g id="edge33" class="edge">
<title>2787271235232&#45;&#45;2787271229520</title>
<path fill="none" stroke="black" d="M1289.86,-154.79C1334.08,-157.83 1426.77,-164.18 1508,-169.76"/>
</g>
<!-- 2787271232496 -->
<g id="node39" class="node">
<title>2787271232496</title>
<ellipse fill="none" stroke="black" cx="1658.36" cy="-126" rx="133.75" ry="18"/>
<text text-anchor="middle" x="1658.36" y="-120" font-family="Times New Roman,serif" font-size="15.00">send transcript to stakeholders</text>
</g>
<!-- 2787271235232&#45;&#45;2787271232496 -->
<g id="edge34" class="edge">
<title>2787271235232&#45;&#45;2787271232496</title>
<path fill="none" stroke="black" d="M1289.86,-151.21C1339.66,-147.79 1450.95,-140.16 1538.09,-134.18"/>
</g>
<!-- 2787271240032 -->
<g id="node40" class="node">
<title>2787271240032</title>
<ellipse fill="none" stroke="black" cx="1658.36" cy="-72" rx="167.02" ry="18"/>
<text text-anchor="middle" x="1658.36" y="-66" font-family="Times New Roman,serif" font-size="15.00">note senddate for letter to stakeholders</text>
</g>
<!-- 2787271235232&#45;&#45;2787271240032 -->
<g id="edge35" class="edge">
<title>2787271235232&#45;&#45;2787271240032</title>
<path fill="none" stroke="black" d="M1288.95,-147.81C1346.31,-136.01 1488.49,-106.75 1578.51,-88.23"/>
</g>
<!-- 2787271234944 -->
<g id="node41" class="node">
<title>2787271234944</title>
<ellipse fill="none" stroke="black" cx="1658.36" cy="-18" rx="146.55" ry="18"/>
<text text-anchor="middle" x="1658.36" y="-12" font-family="Times New Roman,serif" font-size="15.00">send phase to competent authority</text>
</g>
<!-- 2787271235232&#45;&#45;2787271234944 -->
<g id="edge36" class="edge">
<title>2787271235232&#45;&#45;2787271234944</title>
<path fill="none" stroke="black" d="M1287.18,-144.96C1349.66,-123.53 1521.24,-64.68 1607.08,-35.24"/>
</g>
</g>
</svg>
