<?xml version="1.0" encoding="UTF-8" standalone="no"?>
<!DOCTYPE svg PUBLIC "-//W3C//DTD SVG 1.1//EN"
 "http://www.w3.org/Graphics/SVG/1.1/DTD/svg11.dtd">
<!-- Generated by graphviz version 11.0.0 (20240428.1522)
 -->
<!-- Title: pt Pages: 1 -->
<svg width="4361pt" height="959pt"
 viewBox="0.00 0.00 4360.63 959.00" xmlns="http://www.w3.org/2000/svg" xmlns:xlink="http://www.w3.org/1999/xlink">
<g id="graph0" class="graph" transform="scale(1 1) rotate(0) translate(4 955)">
<title>pt</title>
<polygon fill="white" stroke="none" points="-4,4 -4,-955 4356.63,-955 4356.63,4 -4,4"/>
<!-- 2049669690096 -->
<g id="node1" class="node">
<title>2049669690096</title>
<ellipse fill="none" stroke="black" cx="27" cy="-495" rx="27" ry="18"/>
<text text-anchor="middle" x="27" y="-489" font-family="Times New Roman,serif" font-size="15.00">seq</text>
</g>
<!-- 2049670041808 -->
<g id="node2" class="node">
<title>2049670041808</title>
<ellipse fill="none" stroke="black" cx="117" cy="-636" rx="27" ry="18"/>
<text text-anchor="middle" x="117" y="-630" font-family="Times New Roman,serif" font-size="15.00">xor</text>
</g>
<!-- 2049669690096&#45;&#45;2049670041808 -->
<g id="edge66" class="edge">
<title>2049669690096&#45;&#45;2049670041808</title>
<path fill="none" stroke="black" d="M38.44,-511.73C55.38,-538.86 88.65,-592.17 105.57,-619.29"/>
</g>
<!-- 2049670149568 -->
<g id="node68" class="node">
<title>2049670149568</title>
<ellipse fill="none" stroke="black" cx="117" cy="-456" rx="27" ry="18"/>
<text text-anchor="middle" x="117" y="-450" font-family="Times New Roman,serif" font-size="15.00">xor</text>
</g>
<!-- 2049669690096&#45;&#45;2049670149568 -->
<g id="edge74" class="edge">
<title>2049669690096&#45;&#45;2049670149568</title>
<path fill="none" stroke="black" d="M50.21,-485.16C63.55,-479.25 80.46,-471.75 93.8,-465.84"/>
</g>
<!-- 2049670149520 -->
<g id="node3" class="node">
<title>2049670149520</title>
<ellipse fill="black" stroke="black" cx="297.89" cy="-783" rx="2.7" ry="2.7"/>
</g>
<!-- 2049670041808&#45;&#45;2049670149520 -->
<g id="edge1" class="edge">
<title>2049670041808&#45;&#45;2049670149520</title>
<path fill="none" stroke="black" d="M134.83,-649.83C176.23,-683.85 280.72,-769.72 295.21,-781.62"/>
</g>
<!-- 2049670150336 -->
<g id="node4" class="node">
<title>2049670150336</title>
<ellipse fill="none" stroke="black" cx="297.89" cy="-744" rx="27" ry="18"/>
<text text-anchor="middle" x="297.89" y="-738" font-family="Times New Roman,serif" font-size="15.00">seq</text>
</g>
<!-- 2049670041808&#45;&#45;2049670150336 -->
<g id="edge10" class="edge">
<title>2049670041808&#45;&#45;2049670150336</title>
<path fill="none" stroke="black" d="M137.83,-647.97C172.3,-668.79 242.9,-711.4 277.24,-732.14"/>
</g>
<!-- 2049670150096 -->
<g id="node13" class="node">
<title>2049670150096</title>
<ellipse fill="none" stroke="black" cx="297.89" cy="-561" rx="27" ry="18"/>
<text text-anchor="middle" x="297.89" y="-555" font-family="Times New Roman,serif" font-size="15.00">and</text>
</g>
<!-- 2049670041808&#45;&#45;2049670150096 -->
<g id="edge65" class="edge">
<title>2049670041808&#45;&#45;2049670150096</title>
<path fill="none" stroke="black" d="M140.29,-626.65C174.57,-612.28 239.86,-584.91 274.31,-570.46"/>
</g>
<!-- 2049670150288 -->
<g id="node5" class="node">
<title>2049670150288</title>
<ellipse fill="none" stroke="black" cx="624.93" cy="-933" rx="128.63" ry="18"/>
<text text-anchor="middle" x="624.93" y="-927" font-family="Times New Roman,serif" font-size="15.00">initiative competent authority</text>
</g>
<!-- 2049670150336&#45;&#45;2049670150288 -->
<g id="edge2" class="edge">
<title>2049670150336&#45;&#45;2049670150288</title>
<path fill="none" stroke="black" d="M318.73,-755.54C373.59,-787.44 527.58,-876.98 593.44,-915.27"/>
</g>
<!-- 2049670150672 -->
<g id="node6" class="node">
<title>2049670150672</title>
<ellipse fill="none" stroke="black" cx="624.93" cy="-879" rx="168.04" ry="18"/>
<text text-anchor="middle" x="624.93" y="-873" font-family="Times New Roman,serif" font-size="15.00">enter date termination request received</text>
</g>
<!-- 2049670150336&#45;&#45;2049670150672 -->
<g id="edge3" class="edge">
<title>2049670150336&#45;&#45;2049670150672</title>
<path fill="none" stroke="black" d="M321.49,-753.39C375.19,-775.69 511.16,-832.16 581.04,-861.18"/>
</g>
<!-- 2049670150720 -->
<g id="node7" class="node">
<title>2049670150720</title>
<ellipse fill="none" stroke="black" cx="624.93" cy="-825" rx="173.16" ry="18"/>
<text text-anchor="middle" x="624.93" y="-819" font-family="Times New Roman,serif" font-size="15.00">phase procedure prematurely terminated</text>
</g>
<!-- 2049670150336&#45;&#45;2049670150720 -->
<g id="edge4" class="edge">
<title>2049670150336&#45;&#45;2049670150720</title>
<path fill="none" stroke="black" d="M323.58,-750.15C372.55,-762.36 483.45,-789.99 555.92,-808.05"/>
</g>
<!-- 2049670151008 -->
<g id="node8" class="node">
<title>2049670151008</title>
<ellipse fill="none" stroke="black" cx="624.93" cy="-771" rx="143.48" ry="18"/>
<text text-anchor="middle" x="624.93" y="-765" font-family="Times New Roman,serif" font-size="15.00">create message terminate request</text>
</g>
<!-- 2049670150336&#45;&#45;2049670151008 -->
<g id="edge5" class="edge">
<title>2049670150336&#45;&#45;2049670151008</title>
<path fill="none" stroke="black" d="M324.94,-746.16C363.58,-749.37 438.54,-755.6 503.74,-761.02"/>
</g>
<!-- 2049670151056 -->
<g id="node9" class="node">
<title>2049670151056</title>
<ellipse fill="none" stroke="black" cx="624.93" cy="-717" rx="27" ry="18"/>
<text text-anchor="middle" x="624.93" y="-711" font-family="Times New Roman,serif" font-size="15.00">and</text>
</g>
<!-- 2049670150336&#45;&#45;2049670151056 -->
<g id="edge8" class="edge">
<title>2049670150336&#45;&#45;2049670151056</title>
<path fill="none" stroke="black" d="M324.94,-741.84C385.8,-736.78 536.78,-724.24 597.76,-719.17"/>
</g>
<!-- 2049670151344 -->
<g id="node12" class="node">
<title>2049670151344</title>
<ellipse fill="none" stroke="black" cx="624.93" cy="-663" rx="110.72" ry="18"/>
<text text-anchor="middle" x="624.93" y="-657" font-family="Times New Roman,serif" font-size="15.00">phase procedure aborted</text>
</g>
<!-- 2049670150336&#45;&#45;2049670151344 -->
<g id="edge9" class="edge">
<title>2049670150336&#45;&#45;2049670151344</title>
<path fill="none" stroke="black" d="M323.58,-737.85C374.11,-725.26 490.56,-696.24 562.71,-678.26"/>
</g>
<!-- 2049670151776 -->
<g id="node10" class="node">
<title>2049670151776</title>
<ellipse fill="none" stroke="black" cx="982.69" cy="-744" rx="116.35" ry="18"/>
<text text-anchor="middle" x="982.69" y="-738" font-family="Times New Roman,serif" font-size="15.00">message terminate request</text>
</g>
<!-- 2049670151056&#45;&#45;2049670151776 -->
<g id="edge6" class="edge">
<title>2049670151056&#45;&#45;2049670151776</title>
<path fill="none" stroke="black" d="M652.09,-718.99C698.95,-722.54 799.56,-730.18 877.38,-736.08"/>
</g>
<!-- 2049670151296 -->
<g id="node11" class="node">
<title>2049670151296</title>
<ellipse fill="none" stroke="black" cx="982.69" cy="-690" rx="148.59" ry="18"/>
<text text-anchor="middle" x="982.69" y="-684" font-family="Times New Roman,serif" font-size="15.00">enter senddate request termination</text>
</g>
<!-- 2049670151056&#45;&#45;2049670151296 -->
<g id="edge7" class="edge">
<title>2049670151056&#45;&#45;2049670151296</title>
<path fill="none" stroke="black" d="M652.09,-715.01C694.62,-711.79 781.42,-705.2 855.27,-699.59"/>
</g>
<!-- 2049670152016 -->
<g id="node14" class="node">
<title>2049670152016</title>
<ellipse fill="none" stroke="black" cx="624.93" cy="-609" rx="27" ry="18"/>
<text text-anchor="middle" x="624.93" y="-603" font-family="Times New Roman,serif" font-size="15.00">xor</text>
</g>
<!-- 2049670150096&#45;&#45;2049670152016 -->
<g id="edge15" class="edge">
<title>2049670150096&#45;&#45;2049670152016</title>
<path fill="none" stroke="black" d="M324.66,-564.81C385.48,-573.79 537.34,-596.21 598.15,-605.19"/>
</g>
<!-- 2049670152064 -->
<g id="node19" class="node">
<title>2049670152064</title>
<ellipse fill="none" stroke="black" cx="624.93" cy="-555" rx="119.93" ry="18"/>
<text text-anchor="middle" x="624.93" y="-549" font-family="Times New Roman,serif" font-size="15.00">phase application received</text>
</g>
<!-- 2049670150096&#45;&#45;2049670152064 -->
<g id="edge16" class="edge">
<title>2049670150096&#45;&#45;2049670152064</title>
<path fill="none" stroke="black" d="M325.21,-560.51C364.28,-559.79 440.05,-558.39 505.49,-557.19"/>
</g>
<!-- 2049670218384 -->
<g id="node20" class="node">
<title>2049670218384</title>
<ellipse fill="none" stroke="black" cx="624.93" cy="-501" rx="140.41" ry="18"/>
<text text-anchor="middle" x="624.93" y="-495" font-family="Times New Roman,serif" font-size="15.00">register submission date request</text>
</g>
<!-- 2049670150096&#45;&#45;2049670218384 -->
<g id="edge17" class="edge">
<title>2049670150096&#45;&#45;2049670218384</title>
<path fill="none" stroke="black" d="M324.39,-556.29C370.86,-547.71 471.13,-529.21 542.86,-515.97"/>
</g>
<!-- 2049670218000 -->
<g id="node21" class="node">
<title>2049670218000</title>
<ellipse fill="none" stroke="black" cx="624.93" cy="-447" rx="27" ry="18"/>
<text text-anchor="middle" x="624.93" y="-441" font-family="Times New Roman,serif" font-size="15.00">seq</text>
</g>
<!-- 2049670150096&#45;&#45;2049670218000 -->
<g id="edge64" class="edge">
<title>2049670150096&#45;&#45;2049670218000</title>
<path fill="none" stroke="black" d="M322.26,-552.8C382.24,-531.77 541.03,-476.08 600.77,-455.12"/>
</g>
<!-- 2049670218048 -->
<g id="node15" class="node">
<title>2049670218048</title>
<ellipse fill="black" stroke="black" cx="982.69" cy="-628" rx="2.7" ry="2.7"/>
</g>
<!-- 2049670152016&#45;&#45;2049670218048 -->
<g id="edge11" class="edge">
<title>2049670152016&#45;&#45;2049670218048</title>
<path fill="none" stroke="black" d="M652.09,-610.4C729.76,-614.54 955.12,-626.58 979.54,-627.89"/>
</g>
<!-- 2049670217904 -->
<g id="node16" class="node">
<title>2049670217904</title>
<ellipse fill="none" stroke="black" cx="982.69" cy="-589" rx="45.21" ry="18"/>
<text text-anchor="middle" x="982.69" y="-583" font-family="Times New Roman,serif" font-size="15.00">xor loop</text>
</g>
<!-- 2049670152016&#45;&#45;2049670217904 -->
<g id="edge14" class="edge">
<title>2049670152016&#45;&#45;2049670217904</title>
<path fill="none" stroke="black" d="M652.09,-607.53C712.59,-604.13 862.7,-595.69 937.65,-591.48"/>
</g>
<!-- 2049670218720 -->
<g id="node17" class="node">
<title>2049670218720</title>
<ellipse fill="none" stroke="black" cx="1356.83" cy="-613" rx="189.54" ry="18"/>
<text text-anchor="middle" x="1356.83" y="-607" font-family="Times New Roman,serif" font-size="15.00">registrer date of publishing received request</text>
</g>
<!-- 2049670217904&#45;&#45;2049670218720 -->
<g id="edge12" class="edge">
<title>2049670217904&#45;&#45;2049670218720</title>
<path fill="none" stroke="black" d="M1027.84,-591.85C1070.1,-594.57 1136.41,-598.85 1198.38,-602.85"/>
</g>
<!-- 2049670218240 -->
<g id="node18" class="node">
<title>2049670218240</title>
<ellipse fill="black" stroke="black" cx="1356.83" cy="-574" rx="2.7" ry="2.7"/>
</g>
<!-- 2049670217904&#45;&#45;2049670218240 -->
<g id="edge13" class="edge">
<title>2049670217904&#45;&#45;2049670218240</title>
<path fill="none" stroke="black" d="M1027.84,-587.22C1121.03,-583.46 1331.13,-575 1353.83,-574.08"/>
</g>
<!-- 2049670219008 -->
<g id="node22" class="node">
<title>2049670219008</title>
<ellipse fill="none" stroke="black" cx="982.69" cy="-454" rx="27" ry="18"/>
<text text-anchor="middle" x="982.69" y="-448" font-family="Times New Roman,serif" font-size="15.00">and</text>
</g>
<!-- 2049670218000&#45;&#45;2049670219008 -->
<g id="edge60" class="edge">
<title>2049670218000&#45;&#45;2049670219008</title>
<path fill="none" stroke="black" d="M652.38,-447.52C718.41,-448.82 889.86,-452.19 955.55,-453.49"/>
</g>
<!-- 2049670219296 -->
<g id="node65" class="node">
<title>2049670219296</title>
<ellipse fill="none" stroke="black" cx="982.69" cy="-400" rx="27" ry="18"/>
<text text-anchor="middle" x="982.69" y="-394" font-family="Times New Roman,serif" font-size="15.00">xor</text>
</g>
<!-- 2049670218000&#45;&#45;2049670219296 -->
<g id="edge63" class="edge">
<title>2049670218000&#45;&#45;2049670219296</title>
<path fill="none" stroke="black" d="M651.81,-443.58C717.52,-434.9 890.31,-412.07 955.92,-403.41"/>
</g>
<!-- 2049670219728 -->
<g id="node23" class="node">
<title>2049670219728</title>
<ellipse fill="none" stroke="black" cx="1356.83" cy="-504" rx="102.02" ry="18"/>
<text text-anchor="middle" x="1356.83" y="-498" font-family="Times New Roman,serif" font-size="15.00">start WABOprocedure</text>
</g>
<!-- 2049670219008&#45;&#45;2049670219728 -->
<g id="edge18" class="edge">
<title>2049670219008&#45;&#45;2049670219728</title>
<path fill="none" stroke="black" d="M1009.56,-457.48C1063.54,-464.73 1190.14,-481.74 1274.37,-493.06"/>
</g>
<!-- 2049670219248 -->
<g id="node24" class="node">
<title>2049670219248</title>
<ellipse fill="none" stroke="black" cx="1356.83" cy="-450" rx="27" ry="18"/>
<text text-anchor="middle" x="1356.83" y="-444" font-family="Times New Roman,serif" font-size="15.00">seq</text>
</g>
<!-- 2049670219008&#45;&#45;2049670219248 -->
<g id="edge59" class="edge">
<title>2049670219008&#45;&#45;2049670219248</title>
<path fill="none" stroke="black" d="M1010.16,-453.72C1078.73,-452.98 1261.59,-451.01 1329.74,-450.28"/>
</g>
<!-- 2049670220016 -->
<g id="node25" class="node">
<title>2049670220016</title>
<ellipse fill="none" stroke="black" cx="1627.58" cy="-477" rx="45.21" ry="18"/>
<text text-anchor="middle" x="1627.58" y="-471" font-family="Times New Roman,serif" font-size="15.00">xor loop</text>
</g>
<!-- 2049670219248&#45;&#45;2049670220016 -->
<g id="edge55" class="edge">
<title>2049670219248&#45;&#45;2049670220016</title>
<path fill="none" stroke="black" d="M1383.59,-452.59C1429.71,-457.22 1526.79,-466.98 1583.29,-472.65"/>
</g>
<!-- 2049670220304 -->
<g id="node62" class="node">
<title>2049670220304</title>
<ellipse fill="none" stroke="black" cx="1627.58" cy="-423" rx="27" ry="18"/>
<text text-anchor="middle" x="1627.58" y="-417" font-family="Times New Roman,serif" font-size="15.00">xor</text>
</g>
<!-- 2049670219248&#45;&#45;2049670220304 -->
<g id="edge58" class="edge">
<title>2049670219248&#45;&#45;2049670220304</title>
<path fill="none" stroke="black" d="M1383.59,-447.41C1434.83,-442.26 1548.99,-430.79 1600.49,-425.62"/>
</g>
<!-- 2049670220736 -->
<g id="node26" class="node">
<title>2049670220736</title>
<ellipse fill="none" stroke="black" cx="1837.93" cy="-508" rx="27" ry="18"/>
<text text-anchor="middle" x="1837.93" y="-502" font-family="Times New Roman,serif" font-size="15.00">xor</text>
</g>
<!-- 2049670220016&#45;&#45;2049670220736 -->
<g id="edge53" class="edge">
<title>2049670220016&#45;&#45;2049670220736</title>
<path fill="none" stroke="black" d="M1670.24,-483.2C1712.28,-489.45 1775.87,-498.92 1811.12,-504.16"/>
</g>
<!-- 2049670220256 -->
<g id="node61" class="node">
<title>2049670220256</title>
<ellipse fill="black" stroke="black" cx="1837.93" cy="-469" rx="2.7" ry="2.7"/>
</g>
<!-- 2049670220016&#45;&#45;2049670220256 -->
<g id="edge54" class="edge">
<title>2049670220016&#45;&#45;2049670220256</title>
<path fill="none" stroke="black" d="M1673.02,-475.29C1728.95,-473.15 1819.58,-469.67 1834.75,-469.08"/>
</g>
<!-- 2049670220976 -->
<g id="node27" class="node">
<title>2049670220976</title>
<ellipse fill="none" stroke="black" cx="2152.7" cy="-643" rx="149.62" ry="18"/>
<text text-anchor="middle" x="2152.7" y="-637" font-family="Times New Roman,serif" font-size="15.00">forward to the competent authority</text>
</g>
<!-- 2049670220736&#45;&#45;2049670220976 -->
<g id="edge19" class="edge">
<title>2049670220736&#45;&#45;2049670220976</title>
<path fill="none" stroke="black" d="M1860.92,-517.49C1912.86,-539.91 2043.76,-596.41 2110.78,-625.34"/>
</g>
<!-- 2049670221024 -->
<g id="node28" class="node">
<title>2049670221024</title>
<ellipse fill="none" stroke="black" cx="2152.7" cy="-589" rx="92.3" ry="18"/>
<text text-anchor="middle" x="2152.7" y="-583" font-family="Times New Roman,serif" font-size="15.00">terminate on request</text>
</g>
<!-- 2049670220736&#45;&#45;2049670221024 -->
<g id="edge20" class="edge">
<title>2049670220736&#45;&#45;2049670221024</title>
<path fill="none" stroke="black" d="M1863.47,-514.36C1913.16,-527.22 2026.75,-556.64 2095.57,-574.46"/>
</g>
<!-- 2049670221312 -->
<g id="node29" class="node">
<title>2049670221312</title>
<ellipse fill="none" stroke="black" cx="2152.7" cy="-535" rx="27" ry="18"/>
<text text-anchor="middle" x="2152.7" y="-529" font-family="Times New Roman,serif" font-size="15.00">seq</text>
</g>
<!-- 2049670220736&#45;&#45;2049670221312 -->
<g id="edge23" class="edge">
<title>2049670220736&#45;&#45;2049670221312</title>
<path fill="none" stroke="black" d="M1865.06,-510.26C1923.93,-515.34 2066.41,-527.64 2125.42,-532.73"/>
</g>
<!-- 2049670221360 -->
<g id="node32" class="node">
<title>2049670221360</title>
<ellipse fill="none" stroke="black" cx="2152.7" cy="-481" rx="27" ry="18"/>
<text text-anchor="middle" x="2152.7" y="-475" font-family="Times New Roman,serif" font-size="15.00">seq</text>
</g>
<!-- 2049670220736&#45;&#45;2049670221360 -->
<g id="edge30" class="edge">
<title>2049670220736&#45;&#45;2049670221360</title>
<path fill="none" stroke="black" d="M1865.06,-505.74C1923.93,-500.66 2066.41,-488.36 2125.42,-483.27"/>
</g>
<!-- 2049670221936 -->
<g id="node39" class="node">
<title>2049670221936</title>
<ellipse fill="none" stroke="black" cx="2152.7" cy="-292" rx="27" ry="18"/>
<text text-anchor="middle" x="2152.7" y="-286" font-family="Times New Roman,serif" font-size="15.00">seq</text>
</g>
<!-- 2049670220736&#45;&#45;2049670221936 -->
<g id="edge35" class="edge">
<title>2049670220736&#45;&#45;2049670221936</title>
<path fill="none" stroke="black" d="M1857.56,-495.14C1913.19,-456.72 2077.66,-343.13 2133.17,-304.8"/>
</g>
<!-- 2049670222656 -->
<g id="node44" class="node">
<title>2049670222656</title>
<ellipse fill="none" stroke="black" cx="2152.7" cy="-130" rx="27" ry="18"/>
<text text-anchor="middle" x="2152.7" y="-124" font-family="Times New Roman,serif" font-size="15.00">seq</text>
</g>
<!-- 2049670220736&#45;&#45;2049670222656 -->
<g id="edge52" class="edge">
<title>2049670220736&#45;&#45;2049670222656</title>
<path fill="none" stroke="black" d="M1851.97,-492.24C1902.84,-430.76 2087.63,-207.43 2138.6,-145.83"/>
</g>
<!-- 2049670221264 -->
<g id="node30" class="node">
<title>2049670221264</title>
<ellipse fill="none" stroke="black" cx="2529.9" cy="-670" rx="191.59" ry="18"/>
<text text-anchor="middle" x="2529.9" y="-664" font-family="Times New Roman,serif" font-size="15.00">no permit needed or only notification needed</text>
</g>
<!-- 2049670221312&#45;&#45;2049670221264 -->
<g id="edge21" class="edge">
<title>2049670221312&#45;&#45;2049670221264</title>
<path fill="none" stroke="black" d="M2176.88,-543.34C2236.72,-564.87 2397.36,-622.67 2479.32,-652.16"/>
</g>
<!-- 2049670222032 -->
<g id="node31" class="node">
<title>2049670222032</title>
<ellipse fill="none" stroke="black" cx="2529.9" cy="-616" rx="107.14" ry="18"/>
<text text-anchor="middle" x="2529.9" y="-610" font-family="Times New Roman,serif" font-size="15.00">applicant is stakeholder</text>
</g>
<!-- 2049670221312&#45;&#45;2049670222032 -->
<g id="edge22" class="edge">
<title>2049670221312&#45;&#45;2049670222032</title>
<path fill="none" stroke="black" d="M2178.9,-540.44C2236.24,-552.82 2378.03,-583.43 2462.5,-601.67"/>
</g>
<!-- 2049670222368 -->
<g id="node33" class="node">
<title>2049670222368</title>
<ellipse fill="none" stroke="black" cx="2529.9" cy="-562" rx="166" ry="18"/>
<text text-anchor="middle" x="2529.9" y="-556" font-family="Times New Roman,serif" font-size="15.00">enter senddate procedure confirmation</text>
</g>
<!-- 2049670221360&#45;&#45;2049670222368 -->
<g id="edge24" class="edge">
<title>2049670221360&#45;&#45;2049670222368</title>
<path fill="none" stroke="black" d="M2178.9,-486.44C2234.19,-498.38 2367.98,-527.26 2453.21,-545.66"/>
</g>
<!-- 2049670221888 -->
<g id="node34" class="node">
<title>2049670221888</title>
<ellipse fill="none" stroke="black" cx="2529.9" cy="-508" rx="126.59" ry="18"/>
<text text-anchor="middle" x="2529.9" y="-502" font-family="Times New Roman,serif" font-size="15.00">send procedure confirmation</text>
</g>
<!-- 2049670221360&#45;&#45;2049670221888 -->
<g id="edge25" class="edge">
<title>2049670221360&#45;&#45;2049670221888</title>
<path fill="none" stroke="black" d="M2179.78,-482.88C2227.98,-486.35 2333.58,-493.94 2416.09,-499.88"/>
</g>
<!-- 2049670222704 -->
<g id="node35" class="node">
<title>2049670222704</title>
<ellipse fill="none" stroke="black" cx="2529.9" cy="-454" rx="27" ry="18"/>
<text text-anchor="middle" x="2529.9" y="-448" font-family="Times New Roman,serif" font-size="15.00">xor</text>
</g>
<!-- 2049670221360&#45;&#45;2049670222704 -->
<g id="edge28" class="edge">
<title>2049670221360&#45;&#45;2049670222704</title>
<path fill="none" stroke="black" d="M2179.78,-479.12C2248.58,-474.17 2434.38,-460.8 2502.99,-455.86"/>
</g>
<!-- 2049670222224 -->
<g id="node38" class="node">
<title>2049670222224</title>
<ellipse fill="none" stroke="black" cx="2529.9" cy="-400" rx="124.54" ry="18"/>
<text text-anchor="middle" x="2529.9" y="-394" font-family="Times New Roman,serif" font-size="15.00">registration date publication</text>
</g>
<!-- 2049670221360&#45;&#45;2049670222224 -->
<g id="edge29" class="edge">
<title>2049670221360&#45;&#45;2049670222224</title>
<path fill="none" stroke="black" d="M2178.9,-475.56C2235.42,-463.36 2373.99,-433.44 2458.84,-415.13"/>
</g>
<!-- 2049670222944 -->
<g id="node36" class="node">
<title>2049670222944</title>
<ellipse fill="black" stroke="black" cx="2881.52" cy="-473" rx="2.7" ry="2.7"/>
</g>
<!-- 2049670222704&#45;&#45;2049670222944 -->
<g id="edge26" class="edge">
<title>2049670222704&#45;&#45;2049670222944</title>
<path fill="none" stroke="black" d="M2557.18,-455.43C2634.04,-459.61 2854.53,-471.59 2878.41,-472.89"/>
</g>
<!-- 2049670222992 -->
<g id="node37" class="node">
<title>2049670222992</title>
<ellipse fill="none" stroke="black" cx="2881.52" cy="-434" rx="117.37" ry="18"/>
<text text-anchor="middle" x="2881.52" y="-428" font-family="Times New Roman,serif" font-size="15.00">inform BAG administrator</text>
</g>
<!-- 2049670222704&#45;&#45;2049670222992 -->
<g id="edge27" class="edge">
<title>2049670222704&#45;&#45;2049670222992</title>
<path fill="none" stroke="black" d="M2557.18,-452.5C2602.04,-449.93 2695.83,-444.56 2770.9,-440.27"/>
</g>
<!-- 2049670222896 -->
<g id="node40" class="node">
<title>2049670222896</title>
<ellipse fill="none" stroke="black" cx="2529.9" cy="-346" rx="139.89" ry="18"/>
<text text-anchor="middle" x="2529.9" y="-340" font-family="Times New Roman,serif" font-size="15.00">regular procedure without MER</text>
</g>
<!-- 2049670221936&#45;&#45;2049670222896 -->
<g id="edge31" class="edge">
<title>2049670221936&#45;&#45;2049670222896</title>
<path fill="none" stroke="black" d="M2179.49,-295.71C2231.22,-303.16 2349.97,-320.25 2434.66,-332.44"/>
</g>
<!-- 2049670223712 -->
<g id="node41" class="node">
<title>2049670223712</title>
<ellipse fill="none" stroke="black" cx="2529.9" cy="-292" rx="132.73" ry="18"/>
<text text-anchor="middle" x="2529.9" y="-286" font-family="Times New Roman,serif" font-size="15.00">create procedure confirmation</text>
</g>
<!-- 2049670221936&#45;&#45;2049670223712 -->
<g id="edge32" class="edge">
<title>2049670221936&#45;&#45;2049670223712</title>
<path fill="none" stroke="black" d="M2180.08,-292C2224.7,-292 2317.91,-292 2396.76,-292"/>
</g>
<!-- 2049670223232 -->
<g id="node42" class="node">
<title>2049670223232</title>
<ellipse fill="none" stroke="black" cx="2529.9" cy="-238" rx="40.6" ry="18"/>
<text text-anchor="middle" x="2529.9" y="-232" font-family="Times New Roman,serif" font-size="15.00">publish</text>
</g>
<!-- 2049670221936&#45;&#45;2049670223232 -->
<g id="edge33" class="edge">
<title>2049670221936&#45;&#45;2049670223232</title>
<path fill="none" stroke="black" d="M2179.49,-288.29C2244.3,-278.96 2414.29,-254.49 2490.72,-243.5"/>
</g>
<!-- 2049670224048 -->
<g id="node43" class="node">
<title>2049670224048</title>
<ellipse fill="none" stroke="black" cx="2529.9" cy="-184" rx="124.54" ry="18"/>
<text text-anchor="middle" x="2529.9" y="-178" font-family="Times New Roman,serif" font-size="15.00">create publication document</text>
</g>
<!-- 2049670221936&#45;&#45;2049670224048 -->
<g id="edge34" class="edge">
<title>2049670221936&#45;&#45;2049670224048</title>
<path fill="none" stroke="black" d="M2178.03,-285C2236.97,-268.03 2388.71,-224.35 2472.03,-200.37"/>
</g>
<!-- 2049670224384 -->
<g id="node45" class="node">
<title>2049670224384</title>
<ellipse fill="none" stroke="black" cx="2529.9" cy="-130" rx="27" ry="18"/>
<text text-anchor="middle" x="2529.9" y="-124" font-family="Times New Roman,serif" font-size="15.00">xor</text>
</g>
<!-- 2049670222656&#45;&#45;2049670224384 -->
<g id="edge50" class="edge">
<title>2049670222656&#45;&#45;2049670224384</title>
<path fill="none" stroke="black" d="M2180.08,-130C2248.97,-130 2433.69,-130 2502.55,-130"/>
</g>
<!-- 2049670224336 -->
<g id="node60" class="node">
<title>2049670224336</title>
<ellipse fill="none" stroke="black" cx="2529.9" cy="-76" rx="113.79" ry="18"/>
<text text-anchor="middle" x="2529.9" y="-70" font-family="Times New Roman,serif" font-size="15.00">send confirmation receipt</text>
</g>
<!-- 2049670222656&#45;&#45;2049670224336 -->
<g id="edge51" class="edge">
<title>2049670222656&#45;&#45;2049670224336</title>
<path fill="none" stroke="black" d="M2179.49,-126.29C2233.21,-118.56 2359.19,-100.42 2444.26,-88.18"/>
</g>
<!-- 2049670224624 -->
<g id="node46" class="node">
<title>2049670224624</title>
<ellipse fill="none" stroke="black" cx="2881.52" cy="-184" rx="124.03" ry="18"/>
<text text-anchor="middle" x="2881.52" y="-178" font-family="Times New Roman,serif" font-size="15.00">treat subcases completeness</text>
</g>
<!-- 2049670224384&#45;&#45;2049670224624 -->
<g id="edge36" class="edge">
<title>2049670224384&#45;&#45;2049670224624</title>
<path fill="none" stroke="black" d="M2556.61,-133.97C2606.13,-141.62 2716.73,-158.7 2794.88,-170.77"/>
</g>
<!-- 2049670224672 -->
<g id="node47" class="node">
<title>2049670224672</title>
<ellipse fill="none" stroke="black" cx="2881.52" cy="-130" rx="102.02" ry="18"/>
<text text-anchor="middle" x="2881.52" y="-124" font-family="Times New Roman,serif" font-size="15.00">OLO messaging active</text>
</g>
<!-- 2049670224384&#45;&#45;2049670224672 -->
<g id="edge37" class="edge">
<title>2049670224384&#45;&#45;2049670224672</title>
<path fill="none" stroke="black" d="M2557.18,-130C2603.71,-130 2702.87,-130 2779.19,-130"/>
</g>
<!-- 2049670224960 -->
<g id="node48" class="node">
<title>2049670224960</title>
<ellipse fill="none" stroke="black" cx="2881.52" cy="-76" rx="27" ry="18"/>
<text text-anchor="middle" x="2881.52" y="-70" font-family="Times New Roman,serif" font-size="15.00">seq</text>
</g>
<!-- 2049670224384&#45;&#45;2049670224960 -->
<g id="edge49" class="edge">
<title>2049670224384&#45;&#45;2049670224960</title>
<path fill="none" stroke="black" d="M2556.61,-126.03C2621.26,-116.04 2790.08,-89.97 2854.77,-79.98"/>
</g>
<!-- 2049670224912 -->
<g id="node49" class="node">
<title>2049670224912</title>
<ellipse fill="none" stroke="black" cx="3185.02" cy="-130" rx="27" ry="18"/>
<text text-anchor="middle" x="3185.02" y="-124" font-family="Times New Roman,serif" font-size="15.00">xor</text>
</g>
<!-- 2049670224960&#45;&#45;2049670224912 -->
<g id="edge44" class="edge">
<title>2049670224960&#45;&#45;2049670224912</title>
<path fill="none" stroke="black" d="M2907.96,-80.56C2964.89,-90.75 3101.98,-115.31 3158.75,-125.47"/>
</g>
<!-- 2049670225728 -->
<g id="node56" class="node">
<title>2049670225728</title>
<ellipse fill="none" stroke="black" cx="3185.02" cy="-76" rx="143.48" ry="18"/>
<text text-anchor="middle" x="3185.02" y="-70" font-family="Times New Roman,serif" font-size="15.00">enter senddate acknowledgement</text>
</g>
<!-- 2049670224960&#45;&#45;2049670225728 -->
<g id="edge45" class="edge">
<title>2049670224960&#45;&#45;2049670225728</title>
<path fill="none" stroke="black" d="M2909.01,-76C2939.19,-76 2990.87,-76 3041.35,-76"/>
</g>
<!-- 2049670225584 -->
<g id="node57" class="node">
<title>2049670225584</title>
<ellipse fill="none" stroke="black" cx="3185.02" cy="-22" rx="27" ry="18"/>
<text text-anchor="middle" x="3185.02" y="-16" font-family="Times New Roman,serif" font-size="15.00">xor</text>
</g>
<!-- 2049670224960&#45;&#45;2049670225584 -->
<g id="edge48" class="edge">
<title>2049670224960&#45;&#45;2049670225584</title>
<path fill="none" stroke="black" d="M2907.96,-71.44C2964.89,-61.25 3101.98,-36.69 3158.75,-26.53"/>
</g>
<!-- 2049670225680 -->
<g id="node50" class="node">
<title>2049670225680</title>
<ellipse fill="black" stroke="black" cx="3468.05" cy="-152" rx="2.7" ry="2.7"/>
</g>
<!-- 2049670224912&#45;&#45;2049670225680 -->
<g id="edge38" class="edge">
<title>2049670224912&#45;&#45;2049670225680</title>
<path fill="none" stroke="black" d="M3212.21,-132.05C3277.61,-137.17 3444.37,-150.22 3464.96,-151.84"/>
</g>
<!-- 2049670226016 -->
<g id="node51" class="node">
<title>2049670226016</title>
<ellipse fill="none" stroke="black" cx="3468.05" cy="-113" rx="27" ry="18"/>
<text text-anchor="middle" x="3468.05" y="-107" font-family="Times New Roman,serif" font-size="15.00">seq</text>
</g>
<!-- 2049670224912&#45;&#45;2049670226016 -->
<g id="edge43" class="edge">
<title>2049670224912&#45;&#45;2049670226016</title>
<path fill="none" stroke="black" d="M3212.21,-128.42C3265.76,-125.18 3387.25,-117.83 3440.83,-114.59"/>
</g>
<!-- 2049670225968 -->
<g id="node52" class="node">
<title>2049670225968</title>
<ellipse fill="none" stroke="black" cx="3778.21" cy="-140" rx="170.6" ry="18"/>
<text text-anchor="middle" x="3778.21" y="-134" font-family="Times New Roman,serif" font-size="15.00">phase forwarded to competent authority</text>
</g>
<!-- 2049670226016&#45;&#45;2049670225968 -->
<g id="edge39" class="edge">
<title>2049670226016&#45;&#45;2049670225968</title>
<path fill="none" stroke="black" d="M3495.33,-115.3C3528.73,-118.23 3588.83,-123.49 3644.97,-128.41"/>
</g>
<!-- 2049670226784 -->
<g id="node53" class="node">
<title>2049670226784</title>
<ellipse fill="none" stroke="black" cx="3778.21" cy="-86" rx="27" ry="18"/>
<text text-anchor="middle" x="3778.21" y="-80" font-family="Times New Roman,serif" font-size="15.00">and</text>
</g>
<!-- 2049670226016&#45;&#45;2049670226784 -->
<g id="edge42" class="edge">
<title>2049670226016&#45;&#45;2049670226784</title>
<path fill="none" stroke="black" d="M3495.33,-110.7C3553.55,-105.6 3692.85,-93.39 3751.01,-88.3"/>
</g>
<!-- 2049670227024 -->
<g id="node54" class="node">
<title>2049670227024</title>
<ellipse fill="none" stroke="black" cx="4168.73" cy="-113" rx="155.76" ry="18"/>
<text text-anchor="middle" x="4168.73" y="-107" font-family="Times New Roman,serif" font-size="15.00">enter senddate letter to stakeholders</text>
</g>
<!-- 2049670226784&#45;&#45;2049670227024 -->
<g id="edge40" class="edge">
<title>2049670226784&#45;&#45;2049670227024</title>
<path fill="none" stroke="black" d="M3805.31,-87.81C3851.58,-91.03 3950.98,-97.94 4033.99,-103.71"/>
</g>
<!-- 2049670227072 -->
<g id="node55" class="node">
<title>2049670227072</title>
<ellipse fill="none" stroke="black" cx="4168.73" cy="-59" rx="183.91" ry="18"/>
<text text-anchor="middle" x="4168.73" y="-53" font-family="Times New Roman,serif" font-size="15.00">enter senddate letter to competent authority</text>
</g>
<!-- 2049670226784&#45;&#45;2049670227072 -->
<g id="edge41" class="edge">
<title>2049670226784&#45;&#45;2049670227072</title>
<path fill="none" stroke="black" d="M3805.31,-84.19C3848.44,-81.19 3937.7,-74.99 4016.84,-69.49"/>
</g>
<!-- 2049670226736 -->
<g id="node58" class="node">
<title>2049670226736</title>
<ellipse fill="black" stroke="black" cx="3468.05" cy="-57" rx="2.7" ry="2.7"/>
</g>
<!-- 2049670225584&#45;&#45;2049670226736 -->
<g id="edge46" class="edge">
<title>2049670225584&#45;&#45;2049670226736</title>
<path fill="none" stroke="black" d="M3211.96,-25.23C3277.18,-33.35 3444.32,-54.17 3464.95,-56.74"/>
</g>
<!-- 2049670227360 -->
<g id="node59" class="node">
<title>2049670227360</title>
<ellipse fill="none" stroke="black" cx="3468.05" cy="-18" rx="103.56" ry="18"/>
<text text-anchor="middle" x="3468.05" y="-12" font-family="Times New Roman,serif" font-size="15.00">reception through OLO</text>
</g>
<!-- 2049670225584&#45;&#45;2049670227360 -->
<g id="edge47" class="edge">
<title>2049670225584&#45;&#45;2049670227360</title>
<path fill="none" stroke="black" d="M3212.46,-21.62C3247.1,-21.13 3309.85,-20.24 3364.38,-19.46"/>
</g>
<!-- 2049670223568 -->
<g id="node63" class="node">
<title>2049670223568</title>
<ellipse fill="black" stroke="black" cx="1837.93" cy="-431" rx="2.7" ry="2.7"/>
</g>
<!-- 2049670220304&#45;&#45;2049670223568 -->
<g id="edge56" class="edge">
<title>2049670220304&#45;&#45;2049670223568</title>
<path fill="none" stroke="black" d="M1654.96,-424.01C1707.09,-426.01 1819.57,-430.33 1835.13,-430.93"/>
</g>
<!-- 2049670224576 -->
<g id="node64" class="node">
<title>2049670224576</title>
<ellipse fill="none" stroke="black" cx="1837.93" cy="-392" rx="129.15" ry="18"/>
<text text-anchor="middle" x="1837.93" y="-386" font-family="Times New Roman,serif" font-size="15.00">read field phased application</text>
</g>
<!-- 2049670220304&#45;&#45;2049670224576 -->
<g id="edge57" class="edge">
<title>2049670220304&#45;&#45;2049670224576</title>
<path fill="none" stroke="black" d="M1654.12,-419.2C1677.6,-415.71 1713.8,-410.32 1747.81,-405.26"/>
</g>
<!-- 2049670219920 -->
<g id="node66" class="node">
<title>2049670219920</title>
<ellipse fill="black" stroke="black" cx="1356.83" cy="-404" rx="2.7" ry="2.7"/>
</g>
<!-- 2049670219296&#45;&#45;2049670219920 -->
<g id="edge61" class="edge">
<title>2049670219296&#45;&#45;2049670219920</title>
<path fill="none" stroke="black" d="M1010.16,-400.28C1090.86,-401.15 1329.81,-403.72 1353.87,-403.98"/>
</g>
<!-- 2049670223376 -->
<g id="node67" class="node">
<title>2049670223376</title>
<ellipse fill="none" stroke="black" cx="1356.83" cy="-365" rx="63.63" ry="18"/>
<text text-anchor="middle" x="1356.83" y="-359" font-family="Times New Roman,serif" font-size="15.00">suspend term</text>
</g>
<!-- 2049670219296&#45;&#45;2049670223376 -->
<g id="edge62" class="edge">
<title>2049670219296&#45;&#45;2049670223376</title>
<path fill="none" stroke="black" d="M1009.86,-397.54C1068.84,-391.99 1213.42,-378.39 1295.79,-370.65"/>
</g>
<!-- 2049670218672 -->
<g id="node69" class="node">
<title>2049670218672</title>
<ellipse fill="black" stroke="black" cx="297.89" cy="-522" rx="2.7" ry="2.7"/>
</g>
<!-- 2049670149568&#45;&#45;2049670218672 -->
<g id="edge67" class="edge">
<title>2049670149568&#45;&#45;2049670218672</title>
<path fill="none" stroke="black" d="M141.02,-464.49C185.56,-480.93 280.44,-515.93 295,-521.3"/>
</g>
<!-- 2049670218960 -->
<g id="node70" class="node">
<title>2049670218960</title>
<ellipse fill="none" stroke="black" cx="297.89" cy="-483" rx="87.18" ry="18"/>
<text text-anchor="middle" x="297.89" y="-477" font-family="Times New Roman,serif" font-size="15.00">phased application</text>
</g>
<!-- 2049670149568&#45;&#45;2049670218960 -->
<g id="edge68" class="edge">
<title>2049670149568&#45;&#45;2049670218960</title>
<path fill="none" stroke="black" d="M143.63,-459.87C165.27,-463.13 197.31,-467.97 226.51,-472.38"/>
</g>
<!-- 2049670219680 -->
<g id="node71" class="node">
<title>2049670219680</title>
<ellipse fill="none" stroke="black" cx="297.89" cy="-429" rx="117.89" ry="18"/>
<text text-anchor="middle" x="297.89" y="-423" font-family="Times New Roman,serif" font-size="15.00">read publication date field</text>
</g>
<!-- 2049670149568&#45;&#45;2049670219680 -->
<g id="edge69" class="edge">
<title>2049670149568&#45;&#45;2049670219680</title>
<path fill="none" stroke="black" d="M143.63,-452.13C161.79,-449.39 187.28,-445.54 212.26,-441.77"/>
</g>
<!-- 2049670225392 -->
<g id="node72" class="node">
<title>2049670225392</title>
<ellipse fill="none" stroke="black" cx="297.89" cy="-375" rx="27" ry="18"/>
<text text-anchor="middle" x="297.89" y="-369" font-family="Times New Roman,serif" font-size="15.00">seq</text>
</g>
<!-- 2049670149568&#45;&#45;2049670225392 -->
<g id="edge72" class="edge">
<title>2049670149568&#45;&#45;2049670225392</title>
<path fill="none" stroke="black" d="M139.93,-446.07C174.27,-430.52 240.33,-400.61 274.77,-385.01"/>
</g>
<!-- 2049670226064 -->
<g id="node75" class="node">
<title>2049670226064</title>
<ellipse fill="none" stroke="black" cx="297.89" cy="-321" rx="52.89" ry="18"/>
<text text-anchor="middle" x="297.89" y="-315" font-family="Times New Roman,serif" font-size="15.00">close case</text>
</g>
<!-- 2049670149568&#45;&#45;2049670226064 -->
<g id="edge73" class="edge">
<title>2049670149568&#45;&#45;2049670226064</title>
<path fill="none" stroke="black" d="M135.81,-442.56C168.77,-417.69 239.2,-364.54 275,-337.51"/>
</g>
<!-- 2049670226976 -->
<g id="node73" class="node">
<title>2049670226976</title>
<ellipse fill="none" stroke="black" cx="624.93" cy="-381" rx="92.3" ry="18"/>
<text text-anchor="middle" x="624.93" y="-375" font-family="Times New Roman,serif" font-size="15.00">phase archived case</text>
</g>
<!-- 2049670225392&#45;&#45;2049670226976 -->
<g id="edge70" class="edge">
<title>2049670225392&#45;&#45;2049670226976</title>
<path fill="none" stroke="black" d="M325.21,-375.49C369.87,-376.31 462.49,-378.02 532.82,-379.32"/>
</g>
<!-- 2049670227792 -->
<g id="node74" class="node">
<title>2049670227792</title>
<ellipse fill="none" stroke="black" cx="624.93" cy="-327" rx="88.71" ry="18"/>
<text text-anchor="middle" x="624.93" y="-321" font-family="Times New Roman,serif" font-size="15.00">phase case handled</text>
</g>
<!-- 2049670225392&#45;&#45;2049670227792 -->
<g id="edge71" class="edge">
<title>2049670225392&#45;&#45;2049670227792</title>
<path fill="none" stroke="black" d="M324.66,-371.19C373.32,-364.01 480.24,-348.22 552.2,-337.59"/>
</g>
</g>
</svg>
