<?xml version="1.0" encoding="UTF-8" standalone="no"?>
<!DOCTYPE svg PUBLIC "-//W3C//DTD SVG 1.1//EN"
 "http://www.w3.org/Graphics/SVG/1.1/DTD/svg11.dtd">
<!-- Generated by graphviz version 11.0.0 (20240428.1522)
 -->
<!-- Title: pt Pages: 1 -->
<svg width="3573pt" height="825pt"
 viewBox="0.00 0.00 3573.47 825.00" xmlns="http://www.w3.org/2000/svg" xmlns:xlink="http://www.w3.org/1999/xlink">
<g id="graph0" class="graph" transform="scale(1 1) rotate(0) translate(4 821)">
<title>pt</title>
<polygon fill="white" stroke="none" points="-4,4 -4,-821 3569.47,-821 3569.47,4 -4,4"/>
<!-- 2757327741456 -->
<g id="node1" class="node">
<title>2757327741456</title>
<ellipse fill="none" stroke="black" cx="27" cy="-691" rx="27" ry="18"/>
<text text-anchor="middle" x="27" y="-685" font-family="Times New Roman,serif" font-size="15.00">seq</text>
</g>
<!-- 2757327746928 -->
<g id="node2" class="node">
<title>2757327746928</title>
<ellipse fill="none" stroke="black" cx="215.05" cy="-799" rx="125.05" ry="18"/>
<text text-anchor="middle" x="215.05" y="-793" font-family="Times New Roman,serif" font-size="15.00">Log submission date request</text>
</g>
<!-- 2757327741456&#45;&#45;2757327746928 -->
<g id="edge1" class="edge">
<title>2757327741456&#45;&#45;2757327746928</title>
<path fill="none" stroke="black" d="M47.91,-702.56C80.44,-721.44 145.19,-759.03 183.54,-781.29"/>
</g>
<!-- 2757327737232 -->
<g id="node3" class="node">
<title>2757327737232</title>
<ellipse fill="none" stroke="black" cx="215.05" cy="-745" rx="27" ry="18"/>
<text text-anchor="middle" x="215.05" y="-739" font-family="Times New Roman,serif" font-size="15.00">xor</text>
</g>
<!-- 2757327741456&#45;&#45;2757327737232 -->
<g id="edge4" class="edge">
<title>2757327741456&#45;&#45;2757327737232</title>
<path fill="none" stroke="black" d="M52.32,-698.06C87.98,-708.41 154.06,-727.59 189.72,-737.94"/>
</g>
<!-- 2757327746688 -->
<g id="node6" class="node">
<title>2757327746688</title>
<ellipse fill="none" stroke="black" cx="215.05" cy="-664" rx="27" ry="18"/>
<text text-anchor="middle" x="215.05" y="-658" font-family="Times New Roman,serif" font-size="15.00">and</text>
</g>
<!-- 2757327741456&#45;&#45;2757327746688 -->
<g id="edge43" class="edge">
<title>2757327741456&#45;&#45;2757327746688</title>
<path fill="none" stroke="black" d="M53.87,-687.25C89.42,-682.09 152.97,-672.86 188.4,-667.72"/>
</g>
<!-- 2757327741120 -->
<g id="node45" class="node">
<title>2757327741120</title>
<ellipse fill="none" stroke="black" cx="215.05" cy="-443" rx="27" ry="18"/>
<text text-anchor="middle" x="215.05" y="-437" font-family="Times New Roman,serif" font-size="15.00">xor</text>
</g>
<!-- 2757327741456&#45;&#45;2757327741120 -->
<g id="edge57" class="edge">
<title>2757327741456&#45;&#45;2757327741120</title>
<path fill="none" stroke="black" d="M39.92,-675.11C73.45,-630.42 168.29,-504 201.99,-459.08"/>
</g>
<!-- 2757327748416 -->
<g id="node4" class="node">
<title>2757327748416</title>
<ellipse fill="black" stroke="black" cx="575.88" cy="-798" rx="2.7" ry="2.7"/>
</g>
<!-- 2757327737232&#45;&#45;2757327748416 -->
<g id="edge2" class="edge">
<title>2757327737232&#45;&#45;2757327748416</title>
<path fill="none" stroke="black" d="M241.86,-748.81C319.63,-760.3 547.96,-794.02 572.7,-797.68"/>
</g>
<!-- 2757327734352 -->
<g id="node5" class="node">
<title>2757327734352</title>
<ellipse fill="none" stroke="black" cx="575.88" cy="-759" rx="199.78" ry="18"/>
<text text-anchor="middle" x="575.88" y="-753" font-family="Times New Roman,serif" font-size="15.00">No permit required or only notification needed</text>
</g>
<!-- 2757327737232&#45;&#45;2757327734352 -->
<g id="edge3" class="edge">
<title>2757327737232&#45;&#45;2757327734352</title>
<path fill="none" stroke="black" d="M242.44,-746.03C274.89,-747.3 332.9,-749.56 391.49,-751.84"/>
</g>
<!-- 2757327747408 -->
<g id="node7" class="node">
<title>2757327747408</title>
<ellipse fill="none" stroke="black" cx="575.88" cy="-705" rx="118.91" ry="18"/>
<text text-anchor="middle" x="575.88" y="-699" font-family="Times New Roman,serif" font-size="15.00">Stage application received</text>
</g>
<!-- 2757327746688&#45;&#45;2757327747408 -->
<g id="edge5" class="edge">
<title>2757327746688&#45;&#45;2757327747408</title>
<path fill="none" stroke="black" d="M242.15,-666.98C291.34,-672.6 399.99,-685.02 479.82,-694.14"/>
</g>
<!-- 2757327736272 -->
<g id="node8" class="node">
<title>2757327736272</title>
<ellipse fill="none" stroke="black" cx="575.88" cy="-651" rx="45.21" ry="18"/>
<text text-anchor="middle" x="575.88" y="-645" font-family="Times New Roman,serif" font-size="15.00">xor loop</text>
</g>
<!-- 2757327746688&#45;&#45;2757327736272 -->
<g id="edge8" class="edge">
<title>2757327746688&#45;&#45;2757327736272</title>
<path fill="none" stroke="black" d="M242.44,-663.04C303.45,-660.83 454.86,-655.35 530.46,-652.61"/>
</g>
<!-- 2757327736656 -->
<g id="node11" class="node">
<title>2757327736656</title>
<ellipse fill="none" stroke="black" cx="575.88" cy="-597" rx="27" ry="18"/>
<text text-anchor="middle" x="575.88" y="-591" font-family="Times New Roman,serif" font-size="15.00">seq</text>
</g>
<!-- 2757327746688&#45;&#45;2757327736656 -->
<g id="edge42" class="edge">
<title>2757327746688&#45;&#45;2757327736656</title>
<path fill="none" stroke="black" d="M241.57,-659.24C307.7,-646.89 484.02,-613.97 549.73,-601.7"/>
</g>
<!-- 2757327736512 -->
<g id="node9" class="node">
<title>2757327736512</title>
<ellipse fill="none" stroke="black" cx="1011.94" cy="-690" rx="131.19" ry="18"/>
<text text-anchor="middle" x="1011.94" y="-684" font-family="Times New Roman,serif" font-size="15.00">Dispatch confirmation receipt</text>
</g>
<!-- 2757327736272&#45;&#45;2757327736512 -->
<g id="edge6" class="edge">
<title>2757327736272&#45;&#45;2757327736512</title>
<path fill="none" stroke="black" d="M620.49,-654.92C685.52,-660.76 810,-671.95 900.99,-680.12"/>
</g>
<!-- 2757327746448 -->
<g id="node10" class="node">
<title>2757327746448</title>
<ellipse fill="black" stroke="black" cx="1011.94" cy="-651" rx="2.7" ry="2.7"/>
</g>
<!-- 2757327736272&#45;&#45;2757327746448 -->
<g id="edge7" class="edge">
<title>2757327736272&#45;&#45;2757327746448</title>
<path fill="none" stroke="black" d="M621.29,-651C726.3,-651 983.04,-651 1008.84,-651"/>
</g>
<!-- 2757327748944 -->
<g id="node12" class="node">
<title>2757327748944</title>
<ellipse fill="none" stroke="black" cx="1011.94" cy="-612" rx="27" ry="18"/>
<text text-anchor="middle" x="1011.94" y="-606" font-family="Times New Roman,serif" font-size="15.00">xor</text>
</g>
<!-- 2757327736656&#45;&#45;2757327748944 -->
<g id="edge11" class="edge">
<title>2757327736656&#45;&#45;2757327748944</title>
<path fill="none" stroke="black" d="M603.05,-597.9C680.4,-600.58 907.34,-608.42 984.73,-611.09"/>
</g>
<!-- 2757327736416 -->
<g id="node15" class="node">
<title>2757327736416</title>
<ellipse fill="none" stroke="black" cx="1011.94" cy="-558" rx="27" ry="18"/>
<text text-anchor="middle" x="1011.94" y="-552" font-family="Times New Roman,serif" font-size="15.00">and</text>
</g>
<!-- 2757327736656&#45;&#45;2757327736416 -->
<g id="edge41" class="edge">
<title>2757327736656&#45;&#45;2757327736416</title>
<path fill="none" stroke="black" d="M603.05,-594.65C680.4,-587.7 907.34,-567.31 984.73,-560.35"/>
</g>
<!-- 2757327743280 -->
<g id="node13" class="node">
<title>2757327743280</title>
<ellipse fill="black" stroke="black" cx="1365.09" cy="-651" rx="2.7" ry="2.7"/>
</g>
<!-- 2757327748944&#45;&#45;2757327743280 -->
<g id="edge9" class="edge">
<title>2757327748944&#45;&#45;2757327743280</title>
<path fill="none" stroke="black" d="M1039.05,-614.9C1115.98,-623.44 1337.93,-648.09 1361.97,-650.76"/>
</g>
<!-- 2757327736848 -->
<g id="node14" class="node">
<title>2757327736848</title>
<ellipse fill="none" stroke="black" cx="1365.09" cy="-612" rx="116.86" ry="18"/>
<text text-anchor="middle" x="1365.09" y="-606" font-family="Times New Roman,serif" font-size="15.00">Applicant is a stakeholder</text>
</g>
<!-- 2757327748944&#45;&#45;2757327736848 -->
<g id="edge10" class="edge">
<title>2757327748944&#45;&#45;2757327736848</title>
<path fill="none" stroke="black" d="M1039.34,-612C1083.2,-612 1173.63,-612 1247.95,-612"/>
</g>
<!-- 2757327736752 -->
<g id="node16" class="node">
<title>2757327736752</title>
<ellipse fill="none" stroke="black" cx="1365.09" cy="-558" rx="27" ry="18"/>
<text text-anchor="middle" x="1365.09" y="-552" font-family="Times New Roman,serif" font-size="15.00">xor</text>
</g>
<!-- 2757327736416&#45;&#45;2757327736752 -->
<g id="edge14" class="edge">
<title>2757327736416&#45;&#45;2757327736752</title>
<path fill="none" stroke="black" d="M1039.34,-558C1104.57,-558 1272.82,-558 1337.87,-558"/>
</g>
<!-- 2757327748704 -->
<g id="node19" class="node">
<title>2757327748704</title>
<ellipse fill="none" stroke="black" cx="1365.09" cy="-504" rx="27" ry="18"/>
<text text-anchor="middle" x="1365.09" y="-498" font-family="Times New Roman,serif" font-size="15.00">seq</text>
</g>
<!-- 2757327736416&#45;&#45;2757327748704 -->
<g id="edge40" class="edge">
<title>2757327736416&#45;&#45;2757327748704</title>
<path fill="none" stroke="black" d="M1038.76,-554.03C1103.86,-544.02 1274.08,-517.84 1338.71,-507.9"/>
</g>
<!-- 2757322837024 -->
<g id="node17" class="node">
<title>2757322837024</title>
<ellipse fill="black" stroke="black" cx="1639.43" cy="-597" rx="2.7" ry="2.7"/>
</g>
<!-- 2757327736752&#45;&#45;2757322837024 -->
<g id="edge12" class="edge">
<title>2757327736752&#45;&#45;2757322837024</title>
<path fill="none" stroke="black" d="M1391.71,-561.67C1455.27,-570.77 1616.49,-593.86 1636.4,-596.71"/>
</g>
<!-- 2757322839712 -->
<g id="node18" class="node">
<title>2757322839712</title>
<ellipse fill="none" stroke="black" cx="1639.43" cy="-558" rx="121.47" ry="18"/>
<text text-anchor="middle" x="1639.43" y="-552" font-family="Times New Roman,serif" font-size="15.00">OLO communication active</text>
</g>
<!-- 2757327736752&#45;&#45;2757322839712 -->
<g id="edge13" class="edge">
<title>2757327736752&#45;&#45;2757322839712</title>
<path fill="none" stroke="black" d="M1392.21,-558C1421.43,-558 1470.85,-558 1517.78,-558"/>
</g>
<!-- 2757322838128 -->
<g id="node20" class="node">
<title>2757322838128</title>
<ellipse fill="none" stroke="black" cx="1639.43" cy="-504" rx="27" ry="18"/>
<text text-anchor="middle" x="1639.43" y="-498" font-family="Times New Roman,serif" font-size="15.00">xor</text>
</g>
<!-- 2757327748704&#45;&#45;2757322838128 -->
<g id="edge17" class="edge">
<title>2757327748704&#45;&#45;2757322838128</title>
<path fill="none" stroke="black" d="M1392.21,-504C1444.13,-504 1559.81,-504 1611.99,-504"/>
</g>
<!-- 2757322849552 -->
<g id="node23" class="node">
<title>2757322849552</title>
<ellipse fill="none" stroke="black" cx="1639.43" cy="-450" rx="27" ry="18"/>
<text text-anchor="middle" x="1639.43" y="-444" font-family="Times New Roman,serif" font-size="15.00">and</text>
</g>
<!-- 2757327748704&#45;&#45;2757322849552 -->
<g id="edge39" class="edge">
<title>2757327748704&#45;&#45;2757322849552</title>
<path fill="none" stroke="black" d="M1391.23,-499.02C1443.11,-488.73 1561.53,-465.25 1613.35,-454.97"/>
</g>
<!-- 2757327204000 -->
<g id="node21" class="node">
<title>2757327204000</title>
<ellipse fill="black" stroke="black" cx="1921.95" cy="-543" rx="2.7" ry="2.7"/>
</g>
<!-- 2757322838128&#45;&#45;2757327204000 -->
<g id="edge15" class="edge">
<title>2757322838128&#45;&#45;2757327204000</title>
<path fill="none" stroke="black" d="M1666.31,-507.6C1731.42,-516.65 1898.25,-539.84 1918.85,-542.71"/>
</g>
<!-- 2757327206256 -->
<g id="node22" class="node">
<title>2757327206256</title>
<ellipse fill="none" stroke="black" cx="1921.95" cy="-504" rx="125.05" ry="18"/>
<text text-anchor="middle" x="1921.95" y="-498" font-family="Times New Roman,serif" font-size="15.00">Submit application via OLO</text>
</g>
<!-- 2757322838128&#45;&#45;2757327206256 -->
<g id="edge16" class="edge">
<title>2757322838128&#45;&#45;2757327206256</title>
<path fill="none" stroke="black" d="M1666.82,-504C1696.82,-504 1747.96,-504 1796.53,-504"/>
</g>
<!-- 2757327202032 -->
<g id="node24" class="node">
<title>2757327202032</title>
<ellipse fill="none" stroke="black" cx="1921.95" cy="-450" rx="27" ry="18"/>
<text text-anchor="middle" x="1921.95" y="-444" font-family="Times New Roman,serif" font-size="15.00">xor</text>
</g>
<!-- 2757322849552&#45;&#45;2757327202032 -->
<g id="edge20" class="edge">
<title>2757322849552&#45;&#45;2757327202032</title>
<path fill="none" stroke="black" d="M1666.82,-450C1720.42,-450 1841.46,-450 1894.83,-450"/>
</g>
<!-- 2757327202320 -->
<g id="node27" class="node">
<title>2757327202320</title>
<ellipse fill="none" stroke="black" cx="1921.95" cy="-396" rx="27" ry="18"/>
<text text-anchor="middle" x="1921.95" y="-390" font-family="Times New Roman,serif" font-size="15.00">seq</text>
</g>
<!-- 2757322849552&#45;&#45;2757327202320 -->
<g id="edge38" class="edge">
<title>2757322849552&#45;&#45;2757327202320</title>
<path fill="none" stroke="black" d="M1665.81,-445.11C1719.22,-434.83 1842.64,-411.07 1895.82,-400.84"/>
</g>
<!-- 2757327204048 -->
<g id="node25" class="node">
<title>2757327204048</title>
<ellipse fill="black" stroke="black" cx="2236.2" cy="-489" rx="2.7" ry="2.7"/>
</g>
<!-- 2757327202032&#45;&#45;2757327204048 -->
<g id="edge18" class="edge">
<title>2757327202032&#45;&#45;2757327204048</title>
<path fill="none" stroke="black" d="M1948.76,-453.22C2019.49,-462.06 2212.46,-486.16 2233.36,-488.77"/>
</g>
<!-- 2757327195024 -->
<g id="node26" class="node">
<title>2757327195024</title>
<ellipse fill="none" stroke="black" cx="2236.2" cy="-450" rx="153.2" ry="18"/>
<text text-anchor="middle" x="2236.2" y="-444" font-family="Times New Roman,serif" font-size="15.00">Record senddate acknowledgement</text>
</g>
<!-- 2757327202032&#45;&#45;2757327195024 -->
<g id="edge19" class="edge">
<title>2757327202032&#45;&#45;2757327195024</title>
<path fill="none" stroke="black" d="M1949.3,-450C1979.44,-450 2031.28,-450 2082.61,-450"/>
</g>
<!-- 2757327202368 -->
<g id="node28" class="node">
<title>2757327202368</title>
<ellipse fill="none" stroke="black" cx="2236.2" cy="-396" rx="27" ry="18"/>
<text text-anchor="middle" x="2236.2" y="-390" font-family="Times New Roman,serif" font-size="15.00">xor</text>
</g>
<!-- 2757327202320&#45;&#45;2757327202368 -->
<g id="edge23" class="edge">
<title>2757327202320&#45;&#45;2757327202368</title>
<path fill="none" stroke="black" d="M1949.3,-396C2008.26,-396 2150.24,-396 2209.03,-396"/>
</g>
<!-- 2757327201072 -->
<g id="node31" class="node">
<title>2757327201072</title>
<ellipse fill="none" stroke="black" cx="2236.2" cy="-342" rx="27" ry="18"/>
<text text-anchor="middle" x="2236.2" y="-336" font-family="Times New Roman,serif" font-size="15.00">xor</text>
</g>
<!-- 2757327202320&#45;&#45;2757327201072 -->
<g id="edge37" class="edge">
<title>2757327202320&#45;&#45;2757327201072</title>
<path fill="none" stroke="black" d="M1948.5,-391.58C2007.2,-381.43 2151.11,-356.54 2209.73,-346.4"/>
</g>
<!-- 2757327195168 -->
<g id="node29" class="node">
<title>2757327195168</title>
<ellipse fill="black" stroke="black" cx="2496.2" cy="-431" rx="2.7" ry="2.7"/>
</g>
<!-- 2757327202368&#45;&#45;2757327195168 -->
<g id="edge21" class="edge">
<title>2757327202368&#45;&#45;2757327195168</title>
<path fill="none" stroke="black" d="M2262.88,-399.48C2323.81,-407.75 2473.46,-428.05 2493.07,-430.71"/>
</g>
<!-- 2757327197904 -->
<g id="node30" class="node">
<title>2757327197904</title>
<ellipse fill="none" stroke="black" cx="2496.2" cy="-392" rx="70.8" ry="18"/>
<text text-anchor="middle" x="2496.2" y="-386" font-family="Times New Roman,serif" font-size="15.00">End on request</text>
</g>
<!-- 2757327202368&#45;&#45;2757327197904 -->
<g id="edge22" class="edge">
<title>2757327202368&#45;&#45;2757327197904</title>
<path fill="none" stroke="black" d="M2263.36,-395.59C2300.96,-395.01 2371.63,-393.92 2425.11,-393.09"/>
</g>
<!-- 2757327199632 -->
<g id="node32" class="node">
<title>2757327199632</title>
<ellipse fill="black" stroke="black" cx="2496.2" cy="-346" rx="2.7" ry="2.7"/>
</g>
<!-- 2757327201072&#45;&#45;2757327199632 -->
<g id="edge24" class="edge">
<title>2757327201072&#45;&#45;2757327199632</title>
<path fill="none" stroke="black" d="M2263.36,-342.41C2324.59,-343.35 2473.56,-345.66 2493.08,-345.97"/>
</g>
<!-- 2757327205440 -->
<g id="node33" class="node">
<title>2757327205440</title>
<ellipse fill="none" stroke="black" cx="2496.2" cy="-307" rx="27" ry="18"/>
<text text-anchor="middle" x="2496.2" y="-301" font-family="Times New Roman,serif" font-size="15.00">seq</text>
</g>
<!-- 2757327201072&#45;&#45;2757327205440 -->
<g id="edge36" class="edge">
<title>2757327201072&#45;&#45;2757327205440</title>
<path fill="none" stroke="black" d="M2262.88,-338.52C2312.21,-331.82 2419.7,-317.24 2469.24,-310.52"/>
</g>
<!-- 2757327196320 -->
<g id="node34" class="node">
<title>2757327196320</title>
<ellipse fill="none" stroke="black" cx="2739.82" cy="-334" rx="136.82" ry="18"/>
<text text-anchor="middle" x="2739.82" y="-328" font-family="Times New Roman,serif" font-size="15.00">Send to the competent authority</text>
</g>
<!-- 2757327205440&#45;&#45;2757327196320 -->
<g id="edge25" class="edge">
<title>2757327205440&#45;&#45;2757327196320</title>
<path fill="none" stroke="black" d="M2523.06,-309.89C2549.72,-312.87 2593.05,-317.71 2633.91,-322.28"/>
</g>
<!-- 2757327192384 -->
<g id="node35" class="node">
<title>2757327192384</title>
<ellipse fill="none" stroke="black" cx="2739.82" cy="-280" rx="27" ry="18"/>
<text text-anchor="middle" x="2739.82" y="-274" font-family="Times New Roman,serif" font-size="15.00">xor</text>
</g>
<!-- 2757327205440&#45;&#45;2757327192384 -->
<g id="edge35" class="edge">
<title>2757327205440&#45;&#45;2757327192384</title>
<path fill="none" stroke="black" d="M2523.06,-304.11C2569.44,-298.93 2666.27,-288.11 2712.79,-282.91"/>
</g>
<!-- 2757327206400 -->
<g id="node36" class="node">
<title>2757327206400</title>
<ellipse fill="black" stroke="black" cx="2939.65" cy="-300" rx="2.7" ry="2.7"/>
</g>
<!-- 2757327192384&#45;&#45;2757327206400 -->
<g id="edge26" class="edge">
<title>2757327192384&#45;&#45;2757327206400</title>
<path fill="none" stroke="black" d="M2766.69,-282.61C2816.12,-287.61 2920.55,-298.17 2936.57,-299.79"/>
</g>
<!-- 2757327200112 -->
<g id="node37" class="node">
<title>2757327200112</title>
<ellipse fill="none" stroke="black" cx="2939.65" cy="-261" rx="27" ry="18"/>
<text text-anchor="middle" x="2939.65" y="-255" font-family="Times New Roman,serif" font-size="15.00">seq</text>
</g>
<!-- 2757327192384&#45;&#45;2757327200112 -->
<g id="edge34" class="edge">
<title>2757327192384&#45;&#45;2757327200112</title>
<path fill="none" stroke="black" d="M2766.69,-277.52C2804.49,-273.88 2874.47,-267.16 2912.46,-263.51"/>
</g>
<!-- 2757327206592 -->
<g id="node38" class="node">
<title>2757327206592</title>
<ellipse fill="none" stroke="black" cx="3149.71" cy="-369" rx="27" ry="18"/>
<text text-anchor="middle" x="3149.71" y="-363" font-family="Times New Roman,serif" font-size="15.00">xor</text>
</g>
<!-- 2757327200112&#45;&#45;2757327206592 -->
<g id="edge29" class="edge">
<title>2757327200112&#45;&#45;2757327206592</title>
<path fill="none" stroke="black" d="M2961.74,-271.95C3001.72,-292.7 3088.08,-337.53 3127.87,-358.18"/>
</g>
<!-- 2757327205104 -->
<g id="node41" class="node">
<title>2757327205104</title>
<ellipse fill="none" stroke="black" cx="3149.71" cy="-315" rx="147.06" ry="18"/>
<text text-anchor="middle" x="3149.71" y="-309" font-family="Times New Roman,serif" font-size="15.00">Standard procedure without MER</text>
</g>
<!-- 2757327200112&#45;&#45;2757327205104 -->
<g id="edge30" class="edge">
<title>2757327200112&#45;&#45;2757327205104</title>
<path fill="none" stroke="black" d="M2965.33,-267.41C2994.61,-275.01 3044.53,-287.96 3084.9,-298.44"/>
</g>
<!-- 2757327196608 -->
<g id="node42" class="node">
<title>2757327196608</title>
<ellipse fill="none" stroke="black" cx="3149.71" cy="-261" rx="144.5" ry="18"/>
<text text-anchor="middle" x="3149.71" y="-255" font-family="Times New Roman,serif" font-size="15.00">Generate procedure confirmation</text>
</g>
<!-- 2757327200112&#45;&#45;2757327196608 -->
<g id="edge31" class="edge">
<title>2757327200112&#45;&#45;2757327196608</title>
<path fill="none" stroke="black" d="M2967,-261C2977.6,-261 2990.71,-261 3005,-261"/>
</g>
<!-- 2757327192144 -->
<g id="node43" class="node">
<title>2757327192144</title>
<ellipse fill="none" stroke="black" cx="3149.71" cy="-207" rx="43.16" ry="18"/>
<text text-anchor="middle" x="3149.71" y="-201" font-family="Times New Roman,serif" font-size="15.00">Release</text>
</g>
<!-- 2757327200112&#45;&#45;2757327192144 -->
<g id="edge32" class="edge">
<title>2757327200112&#45;&#45;2757327192144</title>
<path fill="none" stroke="black" d="M2965.33,-254.59C3001.82,-245.12 3070.38,-227.33 3112.55,-216.39"/>
</g>
<!-- 2757327206064 -->
<g id="node44" class="node">
<title>2757327206064</title>
<ellipse fill="none" stroke="black" cx="3149.71" cy="-153" rx="108.16" ry="18"/>
<text text-anchor="middle" x="3149.71" y="-147" font-family="Times New Roman,serif" font-size="15.00">Begin WABOprocedure</text>
</g>
<!-- 2757327200112&#45;&#45;2757327206064 -->
<g id="edge33" class="edge">
<title>2757327200112&#45;&#45;2757327206064</title>
<path fill="none" stroke="black" d="M2961.74,-250.05C2997.9,-231.28 3071.99,-192.82 3115.26,-170.36"/>
</g>
<!-- 2757327199440 -->
<g id="node39" class="node">
<title>2757327199440</title>
<ellipse fill="black" stroke="black" cx="3449.12" cy="-388" rx="2.7" ry="2.7"/>
</g>
<!-- 2757327206592&#45;&#45;2757327199440 -->
<g id="edge27" class="edge">
<title>2757327206592&#45;&#45;2757327199440</title>
<path fill="none" stroke="black" d="M3176.84,-370.67C3245.44,-375.05 3426.76,-386.64 3446.39,-387.89"/>
</g>
<!-- 2757327193920 -->
<g id="node40" class="node">
<title>2757327193920</title>
<ellipse fill="none" stroke="black" cx="3449.12" cy="-349" rx="116.35" ry="18"/>
<text text-anchor="middle" x="3449.12" y="-343" font-family="Times New Roman,serif" font-size="15.00">Notify BAG administrator</text>
</g>
<!-- 2757327206592&#45;&#45;2757327193920 -->
<g id="edge28" class="edge">
<title>2757327206592&#45;&#45;2757327193920</title>
<path fill="none" stroke="black" d="M3176.84,-367.24C3213.55,-364.77 3282.54,-360.13 3341.75,-356.15"/>
</g>
<!-- 2757327747552 -->
<g id="node46" class="node">
<title>2757327747552</title>
<ellipse fill="black" stroke="black" cx="575.88" cy="-462" rx="2.7" ry="2.7"/>
</g>
<!-- 2757327741120&#45;&#45;2757327747552 -->
<g id="edge44" class="edge">
<title>2757327741120&#45;&#45;2757327747552</title>
<path fill="none" stroke="black" d="M242.44,-444.4C320.77,-448.54 548.08,-460.58 572.71,-461.89"/>
</g>
<!-- 2757327747072 -->
<g id="node47" class="node">
<title>2757327747072</title>
<ellipse fill="none" stroke="black" cx="575.88" cy="-423" rx="27" ry="18"/>
<text text-anchor="middle" x="575.88" y="-417" font-family="Times New Roman,serif" font-size="15.00">seq</text>
</g>
<!-- 2757327741120&#45;&#45;2757327747072 -->
<g id="edge49" class="edge">
<title>2757327741120&#45;&#45;2757327747072</title>
<path fill="none" stroke="black" d="M242.44,-441.53C308.96,-437.82 482.9,-428.13 548.94,-424.45"/>
</g>
<!-- 2757327737328 -->
<g id="node52" class="node">
<title>2757327737328</title>
<ellipse fill="none" stroke="black" cx="575.88" cy="-180" rx="27" ry="18"/>
<text text-anchor="middle" x="575.88" y="-174" font-family="Times New Roman,serif" font-size="15.00">seq</text>
</g>
<!-- 2757327741120&#45;&#45;2757327737328 -->
<g id="edge56" class="edge">
<title>2757327741120&#45;&#45;2757327737328</title>
<path fill="none" stroke="black" d="M233.85,-429.96C294.94,-385.18 495.72,-238.02 556.98,-193.12"/>
</g>
<!-- 2757327735504 -->
<g id="node48" class="node">
<title>2757327735504</title>
<ellipse fill="none" stroke="black" cx="1011.94" cy="-504" rx="174.7" ry="18"/>
<text text-anchor="middle" x="1011.94" y="-498" font-family="Times New Roman,serif" font-size="15.00">send confirmation to competent authority</text>
</g>
<!-- 2757327747072&#45;&#45;2757327735504 -->
<g id="edge45" class="edge">
<title>2757327747072&#45;&#45;2757327735504</title>
<path fill="none" stroke="black" d="M602.41,-427.76C664.29,-439.31 824.55,-469.22 924.97,-487.96"/>
</g>
<!-- 2757327740784 -->
<g id="node49" class="node">
<title>2757327740784</title>
<ellipse fill="none" stroke="black" cx="1011.94" cy="-450" rx="156.27" ry="18"/>
<text text-anchor="middle" x="1011.94" y="-444" font-family="Times New Roman,serif" font-size="15.00">message change competent authority</text>
</g>
<!-- 2757327747072&#45;&#45;2757327740784 -->
<g id="edge46" class="edge">
<title>2757327747072&#45;&#45;2757327740784</title>
<path fill="none" stroke="black" d="M603.05,-424.63C655.43,-427.89 776.39,-435.41 873.07,-441.42"/>
</g>
<!-- 2757327735360 -->
<g id="node50" class="node">
<title>2757327735360</title>
<ellipse fill="none" stroke="black" cx="1011.94" cy="-396" rx="200.29" ry="18"/>
<text text-anchor="middle" x="1011.94" y="-390" font-family="Times New Roman,serif" font-size="15.00">submit request towards the competent authority</text>
</g>
<!-- 2757327747072&#45;&#45;2757327735360 -->
<g id="edge47" class="edge">
<title>2757327747072&#45;&#45;2757327735360</title>
<path fill="none" stroke="black" d="M603.05,-421.37C650.53,-418.42 754.35,-411.96 845.36,-406.3"/>
</g>
<!-- 2757327739248 -->
<g id="node51" class="node">
<title>2757327739248</title>
<ellipse fill="none" stroke="black" cx="1011.94" cy="-342" rx="176.23" ry="18"/>
<text text-anchor="middle" x="1011.94" y="-336" font-family="Times New Roman,serif" font-size="15.00">log the senddate for letter to the authority</text>
</g>
<!-- 2757327747072&#45;&#45;2757327739248 -->
<g id="edge48" class="edge">
<title>2757327747072&#45;&#45;2757327739248</title>
<path fill="none" stroke="black" d="M602.41,-418.24C664.29,-406.69 824.55,-376.78 924.97,-358.04"/>
</g>
<!-- 2757327746160 -->
<g id="node53" class="node">
<title>2757327746160</title>
<ellipse fill="none" stroke="black" cx="1011.94" cy="-288" rx="163.44" ry="18"/>
<text text-anchor="middle" x="1011.94" y="-282" font-family="Times New Roman,serif" font-size="15.00">Log date termination request received</text>
</g>
<!-- 2757327737328&#45;&#45;2757327746160 -->
<g id="edge50" class="edge">
<title>2757327737328&#45;&#45;2757327746160</title>
<path fill="none" stroke="black" d="M601.78,-186.19C667.17,-202.46 845.51,-246.84 943.77,-271.29"/>
</g>
<!-- 2757327208176 -->
<g id="node54" class="node">
<title>2757327208176</title>
<ellipse fill="none" stroke="black" cx="1011.94" cy="-234" rx="158.32" ry="18"/>
<text text-anchor="middle" x="1011.94" y="-228" font-family="Times New Roman,serif" font-size="15.00">Record senddate termination request</text>
</g>
<!-- 2757327737328&#45;&#45;2757327208176 -->
<g id="edge51" class="edge">
<title>2757327737328&#45;&#45;2757327208176</title>
<path fill="none" stroke="black" d="M602.73,-183.22C660.5,-190.4 802.83,-208.11 903.11,-220.59"/>
</g>
<!-- 2757327206544 -->
<g id="node55" class="node">
<title>2757327206544</title>
<ellipse fill="none" stroke="black" cx="1011.94" cy="-180" rx="119.93" ry="18"/>
<text text-anchor="middle" x="1011.94" y="-174" font-family="Times New Roman,serif" font-size="15.00">Terminate request message</text>
</g>
<!-- 2757327737328&#45;&#45;2757327206544 -->
<g id="edge52" class="edge">
<title>2757327737328&#45;&#45;2757327206544</title>
<path fill="none" stroke="black" d="M603.38,-180C659.43,-180 792.96,-180 892,-180"/>
</g>
<!-- 2757327196752 -->
<g id="node56" class="node">
<title>2757327196752</title>
<ellipse fill="none" stroke="black" cx="1011.94" cy="-126" rx="63.63" ry="18"/>
<text text-anchor="middle" x="1011.94" y="-120" font-family="Times New Roman,serif" font-size="15.00">Log deadline</text>
</g>
<!-- 2757327737328&#45;&#45;2757327196752 -->
<g id="edge53" class="edge">
<title>2757327737328&#45;&#45;2757327196752</title>
<path fill="none" stroke="black" d="M602.73,-176.78C671.08,-168.28 857.84,-145.05 953.22,-133.18"/>
</g>
<!-- 2757327193536 -->
<g id="node57" class="node">
<title>2757327193536</title>
<ellipse fill="none" stroke="black" cx="1011.94" cy="-72" rx="119.42" ry="18"/>
<text text-anchor="middle" x="1011.94" y="-66" font-family="Times New Roman,serif" font-size="15.00">Phase procedure cancelled</text>
</g>
<!-- 2757327737328&#45;&#45;2757327193536 -->
<g id="edge54" class="edge">
<title>2757327737328&#45;&#45;2757327193536</title>
<path fill="none" stroke="black" d="M601.78,-173.81C668.16,-157.29 850.94,-111.81 948.18,-87.62"/>
</g>
<!-- 2757327193872 -->
<g id="node58" class="node">
<title>2757327193872</title>
<ellipse fill="none" stroke="black" cx="1011.94" cy="-18" rx="69.26" ry="18"/>
<text text-anchor="middle" x="1011.94" y="-12" font-family="Times New Roman,serif" font-size="15.00">Close the case</text>
</g>
<!-- 2757327737328&#45;&#45;2757327193872 -->
<g id="edge55" class="edge">
<title>2757327737328&#45;&#45;2757327193872</title>
<path fill="none" stroke="black" d="M599.91,-171.4C670.1,-145.21 881.99,-66.13 970.94,-32.93"/>
</g>
</g>
</svg>
