<?xml version="1.0" encoding="UTF-8" standalone="no"?>
<!DOCTYPE svg PUBLIC "-//W3C//DTD SVG 1.1//EN"
 "http://www.w3.org/Graphics/SVG/1.1/DTD/svg11.dtd">
<!-- Generated by graphviz version 11.0.0 (20240428.1522)
 -->
<!-- Title: pt Pages: 1 -->
<svg width="2151pt" height="1664pt"
 viewBox="0.00 0.00 2151.22 1664.00" xmlns="http://www.w3.org/2000/svg" xmlns:xlink="http://www.w3.org/1999/xlink">
<g id="graph0" class="graph" transform="scale(1 1) rotate(0) translate(4 1660)">
<title>pt</title>
<polygon fill="white" stroke="none" points="-4,4 -4,-1660 2147.22,-1660 2147.22,4 -4,4"/>
<!-- 2757333246192 -->
<g id="node1" class="node">
<title>2757333246192</title>
<ellipse fill="none" stroke="black" cx="27" cy="-1098" rx="27" ry="18"/>
<text text-anchor="middle" x="27" y="-1092" font-family="Times New Roman,serif" font-size="15.00">seq</text>
</g>
<!-- 2757333241152 -->
<g id="node2" class="node">
<title>2757333241152</title>
<ellipse fill="none" stroke="black" cx="253.44" cy="-1638" rx="125.05" ry="18"/>
<text text-anchor="middle" x="253.44" y="-1632" font-family="Times New Roman,serif" font-size="15.00">Log submission date request</text>
</g>
<!-- 2757333246192&#45;&#45;2757333241152 -->
<g id="edge1" class="edge">
<title>2757333246192&#45;&#45;2757333241152</title>
<path fill="none" stroke="black" d="M35.21,-1115.36C68.86,-1196.32 210.24,-1536.48 244.8,-1619.61"/>
</g>
<!-- 2757333250704 -->
<g id="node3" class="node">
<title>2757333250704</title>
<ellipse fill="none" stroke="black" cx="253.44" cy="-1584" rx="121.47" ry="18"/>
<text text-anchor="middle" x="253.44" y="-1578" font-family="Times New Roman,serif" font-size="15.00">OLO communication active</text>
</g>
<!-- 2757333246192&#45;&#45;2757333250704 -->
<g id="edge2" class="edge">
<title>2757333246192&#45;&#45;2757333250704</title>
<path fill="none" stroke="black" d="M35.99,-1115.3C70.7,-1190.46 208.28,-1488.38 243.95,-1565.63"/>
</g>
<!-- 2757333253344 -->
<g id="node4" class="node">
<title>2757333253344</title>
<ellipse fill="none" stroke="black" cx="253.44" cy="-1530" rx="27" ry="18"/>
<text text-anchor="middle" x="253.44" y="-1524" font-family="Times New Roman,serif" font-size="15.00">xor</text>
</g>
<!-- 2757333246192&#45;&#45;2757333253344 -->
<g id="edge7" class="edge">
<title>2757333246192&#45;&#45;2757333253344</title>
<path fill="none" stroke="black" d="M36.94,-1115.2C73.05,-1184.72 208,-1444.47 243.72,-1513.22"/>
</g>
<!-- 2757333239184 -->
<g id="node9" class="node">
<title>2757333239184</title>
<ellipse fill="none" stroke="black" cx="253.44" cy="-1476" rx="163.44" ry="18"/>
<text text-anchor="middle" x="253.44" y="-1470" font-family="Times New Roman,serif" font-size="15.00">Log date termination request received</text>
</g>
<!-- 2757333246192&#45;&#45;2757333239184 -->
<g id="edge8" class="edge">
<title>2757333246192&#45;&#45;2757333239184</title>
<path fill="none" stroke="black" d="M37.93,-1114.73C74.75,-1176.74 203.28,-1393.2 241.58,-1457.72"/>
</g>
<!-- 2757333247344 -->
<g id="node10" class="node">
<title>2757333247344</title>
<ellipse fill="none" stroke="black" cx="253.44" cy="-1422" rx="27" ry="18"/>
<text text-anchor="middle" x="253.44" y="-1416" font-family="Times New Roman,serif" font-size="15.00">xor</text>
</g>
<!-- 2757333246192&#45;&#45;2757333247344 -->
<g id="edge15" class="edge">
<title>2757333246192&#45;&#45;2757333247344</title>
<path fill="none" stroke="black" d="M39.13,-1114.07C77.34,-1169.23 202.93,-1350.53 241.24,-1405.84"/>
</g>
<!-- 2757333247632 -->
<g id="node17" class="node">
<title>2757333247632</title>
<ellipse fill="none" stroke="black" cx="253.44" cy="-1368" rx="27" ry="18"/>
<text text-anchor="middle" x="253.44" y="-1362" font-family="Times New Roman,serif" font-size="15.00">and</text>
</g>
<!-- 2757333246192&#45;&#45;2757333247632 -->
<g id="edge26" class="edge">
<title>2757333246192&#45;&#45;2757333247632</title>
<path fill="none" stroke="black" d="M41.04,-1113.68C80.7,-1161.4 199.65,-1304.5 239.36,-1352.27"/>
</g>
<!-- 2757333244464 -->
<g id="node28" class="node">
<title>2757333244464</title>
<ellipse fill="none" stroke="black" cx="253.44" cy="-1314" rx="118.91" ry="18"/>
<text text-anchor="middle" x="253.44" y="-1308" font-family="Times New Roman,serif" font-size="15.00">Stage application received</text>
</g>
<!-- 2757333246192&#45;&#45;2757333244464 -->
<g id="edge27" class="edge">
<title>2757333246192&#45;&#45;2757333244464</title>
<path fill="none" stroke="black" d="M43.07,-1112.51C82.78,-1150.72 190.18,-1254.08 233.72,-1295.99"/>
</g>
<!-- 2757333252048 -->
<g id="node29" class="node">
<title>2757333252048</title>
<ellipse fill="none" stroke="black" cx="253.44" cy="-1260" rx="116.86" ry="18"/>
<text text-anchor="middle" x="253.44" y="-1254" font-family="Times New Roman,serif" font-size="15.00">Applicant is a stakeholder</text>
</g>
<!-- 2757333246192&#45;&#45;2757333252048 -->
<g id="edge28" class="edge">
<title>2757333246192&#45;&#45;2757333252048</title>
<path fill="none" stroke="black" d="M45.99,-1110.98C85.93,-1139.81 182.09,-1209.22 227.67,-1242.12"/>
</g>
<!-- 2757333244416 -->
<g id="node30" class="node">
<title>2757333244416</title>
<ellipse fill="none" stroke="black" cx="253.44" cy="-1206" rx="70.8" ry="18"/>
<text text-anchor="middle" x="253.44" y="-1200" font-family="Times New Roman,serif" font-size="15.00">End on request</text>
</g>
<!-- 2757333246192&#45;&#45;2757333244416 -->
<g id="edge29" class="edge">
<title>2757333246192&#45;&#45;2757333244416</title>
<path fill="none" stroke="black" d="M49.52,-1108.36C88.8,-1127.26 172.36,-1167.46 219.07,-1189.94"/>
</g>
<!-- 2757333238176 -->
<g id="node31" class="node">
<title>2757333238176</title>
<ellipse fill="none" stroke="black" cx="253.44" cy="-1152" rx="129.15" ry="18"/>
<text text-anchor="middle" x="253.44" y="-1146" font-family="Times New Roman,serif" font-size="15.00">Compute provisional charges</text>
</g>
<!-- 2757333246192&#45;&#45;2757333238176 -->
<g id="edge30" class="edge">
<title>2757333246192&#45;&#45;2757333238176</title>
<path fill="none" stroke="black" d="M52.88,-1103.99C84.95,-1111.7 141.93,-1125.41 186.81,-1136.21"/>
</g>
<!-- 2757333242160 -->
<g id="node32" class="node">
<title>2757333242160</title>
<ellipse fill="none" stroke="black" cx="253.44" cy="-1098" rx="131.19" ry="18"/>
<text text-anchor="middle" x="253.44" y="-1092" font-family="Times New Roman,serif" font-size="15.00">Dispatch confirmation receipt</text>
</g>
<!-- 2757333246192&#45;&#45;2757333242160 -->
<g id="edge31" class="edge">
<title>2757333246192&#45;&#45;2757333242160</title>
<path fill="none" stroke="black" d="M54.19,-1098C71.65,-1098 96.05,-1098 121.79,-1098"/>
</g>
<!-- 2757333248640 -->
<g id="node33" class="node">
<title>2757333248640</title>
<ellipse fill="none" stroke="black" cx="253.44" cy="-1044" rx="136.82" ry="18"/>
<text text-anchor="middle" x="253.44" y="-1038" font-family="Times New Roman,serif" font-size="15.00">Send to the competent authority</text>
</g>
<!-- 2757333246192&#45;&#45;2757333248640 -->
<g id="edge32" class="edge">
<title>2757333246192&#45;&#45;2757333248640</title>
<path fill="none" stroke="black" d="M52.88,-1092.01C84.72,-1084.35 141.12,-1070.78 185.85,-1060.02"/>
</g>
<!-- 2757333245328 -->
<g id="node34" class="node">
<title>2757333245328</title>
<ellipse fill="none" stroke="black" cx="253.44" cy="-990" rx="153.2" ry="18"/>
<text text-anchor="middle" x="253.44" y="-984" font-family="Times New Roman,serif" font-size="15.00">Record senddate acknowledgement</text>
</g>
<!-- 2757333246192&#45;&#45;2757333245328 -->
<g id="edge33" class="edge">
<title>2757333246192&#45;&#45;2757333245328</title>
<path fill="none" stroke="black" d="M49.52,-1087.64C87.81,-1069.22 168.18,-1030.54 215.48,-1007.79"/>
</g>
<!-- 2757333249408 -->
<g id="node35" class="node">
<title>2757333249408</title>
<ellipse fill="none" stroke="black" cx="253.44" cy="-936" rx="147.06" ry="18"/>
<text text-anchor="middle" x="253.44" y="-930" font-family="Times New Roman,serif" font-size="15.00">Standard procedure without MER</text>
</g>
<!-- 2757333246192&#45;&#45;2757333249408 -->
<g id="edge34" class="edge">
<title>2757333246192&#45;&#45;2757333249408</title>
<path fill="none" stroke="black" d="M45.99,-1085.02C85.83,-1056.26 181.59,-987.14 227.31,-954.14"/>
</g>
<!-- 2757333241872 -->
<g id="node36" class="node">
<title>2757333241872</title>
<ellipse fill="none" stroke="black" cx="253.44" cy="-882" rx="27" ry="18"/>
<text text-anchor="middle" x="253.44" y="-876" font-family="Times New Roman,serif" font-size="15.00">xor</text>
</g>
<!-- 2757333246192&#45;&#45;2757333241872 -->
<g id="edge37" class="edge">
<title>2757333246192&#45;&#45;2757333241872</title>
<path fill="none" stroke="black" d="M43.07,-1083.49C83.86,-1044.24 196.08,-936.24 237.13,-896.73"/>
</g>
<!-- 2757333241584 -->
<g id="node39" class="node">
<title>2757333241584</title>
<ellipse fill="none" stroke="black" cx="253.44" cy="-828" rx="126.08" ry="18"/>
<text text-anchor="middle" x="253.44" y="-822" font-family="Times New Roman,serif" font-size="15.00">Regular procedure activities</text>
</g>
<!-- 2757333246192&#45;&#45;2757333241584 -->
<g id="edge38" class="edge">
<title>2757333246192&#45;&#45;2757333241584</title>
<path fill="none" stroke="black" d="M41.04,-1082.32C80.05,-1035.38 195.74,-896.2 237.33,-846.17"/>
</g>
<!-- 2757333250320 -->
<g id="node40" class="node">
<title>2757333250320</title>
<ellipse fill="none" stroke="black" cx="253.44" cy="-774" rx="87.69" ry="18"/>
<text text-anchor="middle" x="253.44" y="-768" font-family="Times New Roman,serif" font-size="15.00">Phased application</text>
</g>
<!-- 2757333246192&#45;&#45;2757333250320 -->
<g id="edge39" class="edge">
<title>2757333246192&#45;&#45;2757333250320</title>
<path fill="none" stroke="black" d="M39.13,-1081.93C76.9,-1027.41 200.03,-849.65 239.88,-792.13"/>
</g>
<!-- 2757333245904 -->
<g id="node41" class="node">
<title>2757333245904</title>
<ellipse fill="none" stroke="black" cx="253.44" cy="-720" rx="144.5" ry="18"/>
<text text-anchor="middle" x="253.44" y="-714" font-family="Times New Roman,serif" font-size="15.00">Generate procedure confirmation</text>
</g>
<!-- 2757333246192&#45;&#45;2757333245904 -->
<g id="edge40" class="edge">
<title>2757333246192&#45;&#45;2757333245904</title>
<path fill="none" stroke="black" d="M37.93,-1081.27C74.75,-1019.26 203.28,-802.8 241.58,-738.28"/>
</g>
<!-- 2757333246768 -->
<g id="node42" class="node">
<title>2757333246768</title>
<ellipse fill="none" stroke="black" cx="253.44" cy="-666" rx="43.16" ry="18"/>
<text text-anchor="middle" x="253.44" y="-660" font-family="Times New Roman,serif" font-size="15.00">Release</text>
</g>
<!-- 2757333246192&#45;&#45;2757333246768 -->
<g id="edge41" class="edge">
<title>2757333246192&#45;&#45;2757333246768</title>
<path fill="none" stroke="black" d="M36.94,-1080.8C72.89,-1011.59 206.79,-753.87 243.23,-683.72"/>
</g>
<!-- 2757333240000 -->
<g id="node43" class="node">
<title>2757333240000</title>
<ellipse fill="none" stroke="black" cx="253.44" cy="-612" rx="108.16" ry="18"/>
<text text-anchor="middle" x="253.44" y="-606" font-family="Times New Roman,serif" font-size="15.00">Begin WABOprocedure</text>
</g>
<!-- 2757333246192&#45;&#45;2757333240000 -->
<g id="edge42" class="edge">
<title>2757333246192&#45;&#45;2757333240000</title>
<path fill="none" stroke="black" d="M35.99,-1080.7C70.7,-1005.54 208.28,-707.62 243.95,-630.37"/>
</g>
<!-- 2757333251472 -->
<g id="node44" class="node">
<title>2757333251472</title>
<ellipse fill="none" stroke="black" cx="253.44" cy="-558" rx="27" ry="18"/>
<text text-anchor="middle" x="253.44" y="-552" font-family="Times New Roman,serif" font-size="15.00">xor</text>
</g>
<!-- 2757333246192&#45;&#45;2757333251472 -->
<g id="edge70" class="edge">
<title>2757333246192&#45;&#45;2757333251472</title>
<path fill="none" stroke="black" d="M35.21,-1080.64C68.98,-999.41 211.19,-657.24 245.14,-575.56"/>
</g>
<!-- 2757333245088 -->
<g id="node5" class="node">
<title>2757333245088</title>
<ellipse fill="none" stroke="black" cx="635.76" cy="-1597" rx="130.68" ry="18"/>
<text text-anchor="middle" x="635.76" y="-1591" font-family="Times New Roman,serif" font-size="15.00">Competent authority initiative</text>
</g>
<!-- 2757333253344&#45;&#45;2757333245088 -->
<g id="edge3" class="edge">
<title>2757333253344&#45;&#45;2757333245088</title>
<path fill="none" stroke="black" d="M279.98,-1534.5C335.03,-1544.2 466.84,-1567.42 553.37,-1582.66"/>
</g>
<!-- 2757333248064 -->
<g id="node6" class="node">
<title>2757333248064</title>
<ellipse fill="none" stroke="black" cx="635.76" cy="-1543" rx="27" ry="18"/>
<text text-anchor="middle" x="635.76" y="-1537" font-family="Times New Roman,serif" font-size="15.00">seq</text>
</g>
<!-- 2757333253344&#45;&#45;2757333248064 -->
<g id="edge6" class="edge">
<title>2757333253344&#45;&#45;2757333248064</title>
<path fill="none" stroke="black" d="M280.88,-1530.9C350.62,-1533.29 538.95,-1539.73 608.49,-1542.1"/>
</g>
<!-- 2757333242400 -->
<g id="node7" class="node">
<title>2757333242400</title>
<ellipse fill="none" stroke="black" cx="1030.37" cy="-1624" rx="116.35" ry="18"/>
<text text-anchor="middle" x="1030.37" y="-1618" font-family="Times New Roman,serif" font-size="15.00">Notify BAG administrator</text>
</g>
<!-- 2757333248064&#45;&#45;2757333242400 -->
<g id="edge4" class="edge">
<title>2757333248064&#45;&#45;2757333242400</title>
<path fill="none" stroke="black" d="M661.92,-1548.19C720.9,-1560.36 869.83,-1591.08 958.93,-1609.47"/>
</g>
<!-- 2757333251040 -->
<g id="node8" class="node">
<title>2757333251040</title>
<ellipse fill="none" stroke="black" cx="1030.37" cy="-1570" rx="175.72" ry="18"/>
<text text-anchor="middle" x="1030.37" y="-1564" font-family="Times New Roman,serif" font-size="15.00">Record senddate procedure confirmation</text>
</g>
<!-- 2757333248064&#45;&#45;2757333251040 -->
<g id="edge5" class="edge">
<title>2757333248064&#45;&#45;2757333251040</title>
<path fill="none" stroke="black" d="M662.82,-1544.79C707.35,-1547.85 801.18,-1554.31 882.75,-1559.92"/>
</g>
<!-- 2757333250080 -->
<g id="node11" class="node">
<title>2757333250080</title>
<ellipse fill="none" stroke="black" cx="635.76" cy="-1462" rx="27" ry="18"/>
<text text-anchor="middle" x="635.76" y="-1456" font-family="Times New Roman,serif" font-size="15.00">seq</text>
</g>
<!-- 2757333247344&#45;&#45;2757333250080 -->
<g id="edge11" class="edge">
<title>2757333247344&#45;&#45;2757333250080</title>
<path fill="none" stroke="black" d="M280.58,-1424.75C350.14,-1432.07 539.2,-1451.95 608.69,-1459.26"/>
</g>
<!-- 2757333247728 -->
<g id="node14" class="node">
<title>2757333247728</title>
<ellipse fill="none" stroke="black" cx="635.76" cy="-1408" rx="27" ry="18"/>
<text text-anchor="middle" x="635.76" y="-1402" font-family="Times New Roman,serif" font-size="15.00">seq</text>
</g>
<!-- 2757333247344&#45;&#45;2757333247728 -->
<g id="edge14" class="edge">
<title>2757333247344&#45;&#45;2757333247728</title>
<path fill="none" stroke="black" d="M280.88,-1421.03C350.62,-1418.46 538.95,-1411.53 608.49,-1408.97"/>
</g>
<!-- 2757333244128 -->
<g id="node12" class="node">
<title>2757333244128</title>
<ellipse fill="none" stroke="black" cx="1030.37" cy="-1516" rx="145.52" ry="18"/>
<text text-anchor="middle" x="1030.37" y="-1510" font-family="Times New Roman,serif" font-size="15.00">Create terminate request message</text>
</g>
<!-- 2757333250080&#45;&#45;2757333244128 -->
<g id="edge9" class="edge">
<title>2757333250080&#45;&#45;2757333244128</title>
<path fill="none" stroke="black" d="M662.52,-1465.54C716.09,-1472.91 841.93,-1490.22 931.25,-1502.5"/>
</g>
<!-- 2757333248016 -->
<g id="node13" class="node">
<title>2757333248016</title>
<ellipse fill="none" stroke="black" cx="1030.37" cy="-1462" rx="125.05" ry="18"/>
<text text-anchor="middle" x="1030.37" y="-1456" font-family="Times New Roman,serif" font-size="15.00">Check publication date field</text>
</g>
<!-- 2757333250080&#45;&#45;2757333248016 -->
<g id="edge10" class="edge">
<title>2757333250080&#45;&#45;2757333248016</title>
<path fill="none" stroke="black" d="M663.13,-1462C711.96,-1462 819.3,-1462 905.22,-1462"/>
</g>
<!-- 2757333246240 -->
<g id="node15" class="node">
<title>2757333246240</title>
<ellipse fill="none" stroke="black" cx="1030.37" cy="-1408" rx="163.95" ry="18"/>
<text text-anchor="middle" x="1030.37" y="-1402" font-family="Times New Roman,serif" font-size="15.00">Log senddate for confirmation request</text>
</g>
<!-- 2757333247728&#45;&#45;2757333246240 -->
<g id="edge12" class="edge">
<title>2757333247728&#45;&#45;2757333246240</title>
<path fill="none" stroke="black" d="M663.13,-1408C704.74,-1408 788.83,-1408 865.95,-1408"/>
</g>
<!-- 2757333245376 -->
<g id="node16" class="node">
<title>2757333245376</title>
<ellipse fill="none" stroke="black" cx="1030.37" cy="-1354" rx="149.11" ry="18"/>
<text text-anchor="middle" x="1030.37" y="-1348" font-family="Times New Roman,serif" font-size="15.00">Register termination decision date</text>
</g>
<!-- 2757333247728&#45;&#45;2757333245376 -->
<g id="edge13" class="edge">
<title>2757333247728&#45;&#45;2757333245376</title>
<path fill="none" stroke="black" d="M662.52,-1404.46C715.83,-1397.12 840.73,-1379.95 929.96,-1367.67"/>
</g>
<!-- 2757333245616 -->
<g id="node18" class="node">
<title>2757333245616</title>
<ellipse fill="none" stroke="black" cx="635.76" cy="-1354" rx="63.63" ry="18"/>
<text text-anchor="middle" x="635.76" y="-1348" font-family="Times New Roman,serif" font-size="15.00">Log deadline</text>
</g>
<!-- 2757333247632&#45;&#45;2757333245616 -->
<g id="edge16" class="edge">
<title>2757333247632&#45;&#45;2757333245616</title>
<path fill="none" stroke="black" d="M280.88,-1367.03C340.68,-1364.83 487.68,-1359.41 572.21,-1356.3"/>
</g>
<!-- 2757333244752 -->
<g id="node19" class="node">
<title>2757333244752</title>
<ellipse fill="none" stroke="black" cx="635.76" cy="-1138" rx="27" ry="18"/>
<text text-anchor="middle" x="635.76" y="-1132" font-family="Times New Roman,serif" font-size="15.00">seq</text>
</g>
<!-- 2757333247632&#45;&#45;2757333244752 -->
<g id="edge25" class="edge">
<title>2757333247632&#45;&#45;2757333244752</title>
<path fill="none" stroke="black" d="M274.08,-1356.12C339.49,-1316.56 549.43,-1189.6 615,-1149.95"/>
</g>
<!-- 2757333251328 -->
<g id="node20" class="node">
<title>2757333251328</title>
<ellipse fill="none" stroke="black" cx="1030.37" cy="-1300" rx="89.74" ry="18"/>
<text text-anchor="middle" x="1030.37" y="-1294" font-family="Times New Roman,serif" font-size="15.00">Reception via OLO</text>
</g>
<!-- 2757333244752&#45;&#45;2757333251328 -->
<g id="edge17" class="edge">
<title>2757333244752&#45;&#45;2757333251328</title>
<path fill="none" stroke="black" d="M659.28,-1147.29C723.48,-1173.78 908.03,-1249.93 989.69,-1283.63"/>
</g>
<!-- 2757333251760 -->
<g id="node21" class="node">
<title>2757333251760</title>
<ellipse fill="none" stroke="black" cx="1030.37" cy="-1246" rx="143.99" ry="18"/>
<text text-anchor="middle" x="1030.37" y="-1240" font-family="Times New Roman,serif" font-size="15.00">Dispatch procedure confirmation</text>
</g>
<!-- 2757333244752&#45;&#45;2757333251760 -->
<g id="edge18" class="edge">
<title>2757333244752&#45;&#45;2757333251760</title>
<path fill="none" stroke="black" d="M661.32,-1144.76C722.09,-1161.47 880.91,-1205.16 968.76,-1229.33"/>
</g>
<!-- 2757333247968 -->
<g id="node22" class="node">
<title>2757333247968</title>
<ellipse fill="none" stroke="black" cx="1030.37" cy="-1192" rx="80.52" ry="18"/>
<text text-anchor="middle" x="1030.37" y="-1186" font-family="Times New Roman,serif" font-size="15.00">Suspend duration</text>
</g>
<!-- 2757333244752&#45;&#45;2757333247968 -->
<g id="edge19" class="edge">
<title>2757333244752&#45;&#45;2757333247968</title>
<path fill="none" stroke="black" d="M662.52,-1141.54C722.31,-1149.77 872.16,-1170.38 960.74,-1182.56"/>
</g>
<!-- 2757333239520 -->
<g id="node23" class="node">
<title>2757333239520</title>
<ellipse fill="none" stroke="black" cx="1030.37" cy="-1138" rx="166.51" ry="18"/>
<text text-anchor="middle" x="1030.37" y="-1132" font-family="Times New Roman,serif" font-size="15.00">Create termination decision on request</text>
</g>
<!-- 2757333244752&#45;&#45;2757333239520 -->
<g id="edge20" class="edge">
<title>2757333244752&#45;&#45;2757333239520</title>
<path fill="none" stroke="black" d="M663.13,-1138C704.31,-1138 787.1,-1138 863.56,-1138"/>
</g>
<!-- 2757333251088 -->
<g id="node24" class="node">
<title>2757333251088</title>
<ellipse fill="none" stroke="black" cx="1030.37" cy="-1084" rx="171.63" ry="18"/>
<text text-anchor="middle" x="1030.37" y="-1078" font-family="Times New Roman,serif" font-size="15.00">Execute termination decision on request</text>
</g>
<!-- 2757333244752&#45;&#45;2757333251088 -->
<g id="edge21" class="edge">
<title>2757333244752&#45;&#45;2757333251088</title>
<path fill="none" stroke="black" d="M662.52,-1134.46C714.64,-1127.29 835.17,-1110.71 923.91,-1098.5"/>
</g>
<!-- 2757333247392 -->
<g id="node25" class="node">
<title>2757333247392</title>
<ellipse fill="none" stroke="black" cx="1030.37" cy="-1030" rx="119.42" ry="18"/>
<text text-anchor="middle" x="1030.37" y="-1024" font-family="Times New Roman,serif" font-size="15.00">Phase procedure cancelled</text>
</g>
<!-- 2757333244752&#45;&#45;2757333247392 -->
<g id="edge22" class="edge">
<title>2757333244752&#45;&#45;2757333247392</title>
<path fill="none" stroke="black" d="M661.32,-1131.24C722.68,-1114.37 883.99,-1069.99 971.28,-1045.98"/>
</g>
<!-- 2757333250416 -->
<g id="node26" class="node">
<title>2757333250416</title>
<ellipse fill="none" stroke="black" cx="1030.37" cy="-976" rx="173.67" ry="18"/>
<text text-anchor="middle" x="1030.37" y="-970" font-family="Times New Roman,serif" font-size="15.00">Prematurely terminated phase procedure</text>
</g>
<!-- 2757333244752&#45;&#45;2757333250416 -->
<g id="edge23" class="edge">
<title>2757333244752&#45;&#45;2757333250416</title>
<path fill="none" stroke="black" d="M659.28,-1128.71C722.58,-1102.59 902.9,-1028.18 986.21,-993.81"/>
</g>
<!-- 2757333245040 -->
<g id="node27" class="node">
<title>2757333245040</title>
<ellipse fill="none" stroke="black" cx="1030.37" cy="-922" rx="93.83" ry="18"/>
<text text-anchor="middle" x="1030.37" y="-916" font-family="Times New Roman,serif" font-size="15.00">Log date publication</text>
</g>
<!-- 2757333244752&#45;&#45;2757333245040 -->
<g id="edge24" class="edge">
<title>2757333244752&#45;&#45;2757333245040</title>
<path fill="none" stroke="black" d="M657.32,-1126.69C721.85,-1091.19 920.7,-981.79 998.09,-939.21"/>
</g>
<!-- 2757333251664 -->
<g id="node37" class="node">
<title>2757333251664</title>
<ellipse fill="none" stroke="black" cx="635.76" cy="-909" rx="182.89" ry="18"/>
<text text-anchor="middle" x="635.76" y="-903" font-family="Times New Roman,serif" font-size="15.00">Mandatory Environmental Report required</text>
</g>
<!-- 2757333241872&#45;&#45;2757333251664 -->
<g id="edge35" class="edge">
<title>2757333241872&#45;&#45;2757333251664</title>
<path fill="none" stroke="black" d="M280.58,-883.86C322.79,-886.85 408.99,-892.97 485.78,-898.42"/>
</g>
<!-- 2757333241776 -->
<g id="node38" class="node">
<title>2757333241776</title>
<ellipse fill="none" stroke="black" cx="635.76" cy="-855" rx="69.78" ry="18"/>
<text text-anchor="middle" x="635.76" y="-849" font-family="Times New Roman,serif" font-size="15.00">MER included</text>
</g>
<!-- 2757333241872&#45;&#45;2757333241776 -->
<g id="edge36" class="edge">
<title>2757333241872&#45;&#45;2757333241776</title>
<path fill="none" stroke="black" d="M280.58,-880.14C339.23,-875.98 482.85,-865.78 568.1,-859.73"/>
</g>
<!-- 2757333446016 -->
<g id="node45" class="node">
<title>2757333446016</title>
<ellipse fill="none" stroke="black" cx="635.76" cy="-612" rx="140.41" ry="18"/>
<text text-anchor="middle" x="635.76" y="-606" font-family="Times New Roman,serif" font-size="15.00">WAW permit aspect considered</text>
</g>
<!-- 2757333251472&#45;&#45;2757333446016 -->
<g id="edge43" class="edge">
<title>2757333251472&#45;&#45;2757333446016</title>
<path fill="none" stroke="black" d="M280.28,-561.67C332.69,-569.11 453.82,-586.31 539.87,-598.53"/>
</g>
<!-- 2757333445680 -->
<g id="node46" class="node">
<title>2757333445680</title>
<ellipse fill="none" stroke="black" cx="635.76" cy="-558" rx="27" ry="18"/>
<text text-anchor="middle" x="635.76" y="-552" font-family="Times New Roman,serif" font-size="15.00">seq</text>
</g>
<!-- 2757333251472&#45;&#45;2757333445680 -->
<g id="edge48" class="edge">
<title>2757333251472&#45;&#45;2757333445680</title>
<path fill="none" stroke="black" d="M280.88,-558C350.62,-558 538.95,-558 608.49,-558"/>
</g>
<!-- 2757333447360 -->
<g id="node51" class="node">
<title>2757333447360</title>
<ellipse fill="none" stroke="black" cx="635.76" cy="-396" rx="27" ry="18"/>
<text text-anchor="middle" x="635.76" y="-390" font-family="Times New Roman,serif" font-size="15.00">seq</text>
</g>
<!-- 2757333251472&#45;&#45;2757333447360 -->
<g id="edge69" class="edge">
<title>2757333251472&#45;&#45;2757333447360</title>
<path fill="none" stroke="black" d="M276.81,-548.47C344.32,-519.71 545.5,-434.02 612.66,-405.42"/>
</g>
<!-- 2757333449040 -->
<g id="node47" class="node">
<title>2757333449040</title>
<ellipse fill="none" stroke="black" cx="1030.37" cy="-666" rx="92.81" ry="18"/>
<text text-anchor="middle" x="1030.37" y="-660" font-family="Times New Roman,serif" font-size="15.00">Phase archived case</text>
</g>
<!-- 2757333445680&#45;&#45;2757333449040 -->
<g id="edge44" class="edge">
<title>2757333445680&#45;&#45;2757333449040</title>
<path fill="none" stroke="black" d="M661.32,-564.76C723.6,-581.89 888.87,-627.35 975.17,-651.09"/>
</g>
<!-- 2757333448368 -->
<g id="node48" class="node">
<title>2757333448368</title>
<ellipse fill="none" stroke="black" cx="1030.37" cy="-612" rx="92.81" ry="18"/>
<text text-anchor="middle" x="1030.37" y="-606" font-family="Times New Roman,serif" font-size="15.00">Phase case managed</text>
</g>
<!-- 2757333445680&#45;&#45;2757333448368 -->
<g id="edge45" class="edge">
<title>2757333445680&#45;&#45;2757333448368</title>
<path fill="none" stroke="black" d="M662.52,-561.54C720.69,-569.54 864.1,-589.27 953.41,-601.55"/>
</g>
<!-- 2757333448032 -->
<g id="node49" class="node">
<title>2757333448032</title>
<ellipse fill="none" stroke="black" cx="1030.37" cy="-558" rx="126.08" ry="18"/>
<text text-anchor="middle" x="1030.37" y="-552" font-family="Times New Roman,serif" font-size="15.00">Stop all running subcases 2b</text>
</g>
<!-- 2757333445680&#45;&#45;2757333448032 -->
<g id="edge46" class="edge">
<title>2757333445680&#45;&#45;2757333448032</title>
<path fill="none" stroke="black" d="M663.13,-558C711.7,-558 818.17,-558 903.86,-558"/>
</g>
<!-- 2757333448704 -->
<g id="node50" class="node">
<title>2757333448704</title>
<ellipse fill="none" stroke="black" cx="1030.37" cy="-504" rx="69.26" ry="18"/>
<text text-anchor="middle" x="1030.37" y="-498" font-family="Times New Roman,serif" font-size="15.00">Close the case</text>
</g>
<!-- 2757333445680&#45;&#45;2757333448704 -->
<g id="edge47" class="edge">
<title>2757333445680&#45;&#45;2757333448704</title>
<path fill="none" stroke="black" d="M662.52,-554.46C724.11,-545.99 881.22,-524.38 968.53,-512.37"/>
</g>
<!-- 2757333450480 -->
<g id="node52" class="node">
<title>2757333450480</title>
<ellipse fill="none" stroke="black" cx="1030.37" cy="-450" rx="135.29" ry="18"/>
<text text-anchor="middle" x="1030.37" y="-444" font-family="Times New Roman,serif" font-size="15.00">Handle subcases completeness</text>
</g>
<!-- 2757333447360&#45;&#45;2757333450480 -->
<g id="edge49" class="edge">
<title>2757333447360&#45;&#45;2757333450480</title>
<path fill="none" stroke="black" d="M662.52,-399.54C716.77,-407 845.15,-424.66 934.64,-436.97"/>
</g>
<!-- 2757333449712 -->
<g id="node53" class="node">
<title>2757333449712</title>
<ellipse fill="none" stroke="black" cx="1030.37" cy="-396" rx="143.99" ry="18"/>
<text text-anchor="middle" x="1030.37" y="-390" font-family="Times New Roman,serif" font-size="15.00">Subcases completeness achieved</text>
</g>
<!-- 2757333447360&#45;&#45;2757333449712 -->
<g id="edge50" class="edge">
<title>2757333447360&#45;&#45;2757333449712</title>
<path fill="none" stroke="black" d="M663.13,-396C708.43,-396 804.11,-396 886.31,-396"/>
</g>
<!-- 2757333450672 -->
<g id="node54" class="node">
<title>2757333450672</title>
<ellipse fill="none" stroke="black" cx="1030.37" cy="-342" rx="27" ry="18"/>
<text text-anchor="middle" x="1030.37" y="-336" font-family="Times New Roman,serif" font-size="15.00">and</text>
</g>
<!-- 2757333447360&#45;&#45;2757333450672 -->
<g id="edge57" class="edge">
<title>2757333447360&#45;&#45;2757333450672</title>
<path fill="none" stroke="black" d="M662.52,-392.46C733.66,-382.67 932.26,-355.36 1003.51,-345.56"/>
</g>
<!-- 2757333450624 -->
<g id="node61" class="node">
<title>2757333450624</title>
<ellipse fill="none" stroke="black" cx="1030.37" cy="-261" rx="27" ry="18"/>
<text text-anchor="middle" x="1030.37" y="-255" font-family="Times New Roman,serif" font-size="15.00">xor</text>
</g>
<!-- 2757333447360&#45;&#45;2757333450624 -->
<g id="edge68" class="edge">
<title>2757333447360&#45;&#45;2757333450624</title>
<path fill="none" stroke="black" d="M660.44,-387.86C730.56,-363.75 936.63,-292.89 1006.16,-268.98"/>
</g>
<!-- 2757333439920 -->
<g id="node55" class="node">
<title>2757333439920</title>
<ellipse fill="none" stroke="black" cx="1326.2" cy="-436" rx="84.11" ry="18"/>
<text text-anchor="middle" x="1326.2" y="-430" font-family="Times New Roman,serif" font-size="15.00">Modify procedure</text>
</g>
<!-- 2757333450672&#45;&#45;2757333439920 -->
<g id="edge51" class="edge">
<title>2757333450672&#45;&#45;2757333439920</title>
<path fill="none" stroke="black" d="M1054.92,-349.53C1103.19,-364.98 1214.19,-400.49 1277.91,-420.87"/>
</g>
<!-- 2757333439584 -->
<g id="node56" class="node">
<title>2757333439584</title>
<ellipse fill="none" stroke="black" cx="1326.2" cy="-382" rx="27" ry="18"/>
<text text-anchor="middle" x="1326.2" y="-376" font-family="Times New Roman,serif" font-size="15.00">seq</text>
</g>
<!-- 2757333450672&#45;&#45;2757333439584 -->
<g id="edge55" class="edge">
<title>2757333450672&#45;&#45;2757333439584</title>
<path fill="none" stroke="black" d="M1057.19,-345.51C1112.92,-353.1 1243.95,-370.94 1299.54,-378.51"/>
</g>
<!-- 2757333440592 -->
<g id="node60" class="node">
<title>2757333440592</title>
<ellipse fill="none" stroke="black" cx="1326.2" cy="-328" rx="81.55" ry="18"/>
<text text-anchor="middle" x="1326.2" y="-322" font-family="Times New Roman,serif" font-size="15.00">Complete request</text>
</g>
<!-- 2757333450672&#45;&#45;2757333440592 -->
<g id="edge56" class="edge">
<title>2757333450672&#45;&#45;2757333440592</title>
<path fill="none" stroke="black" d="M1057.7,-340.75C1099.68,-338.75 1183.41,-334.76 1246.07,-331.77"/>
</g>
<!-- 2757333441600 -->
<g id="node57" class="node">
<title>2757333441600</title>
<ellipse fill="none" stroke="black" cx="1608.2" cy="-450" rx="140.41" ry="18"/>
<text text-anchor="middle" x="1608.2" y="-444" font-family="Times New Roman,serif" font-size="15.00">Time for supplying missing data</text>
</g>
<!-- 2757333439584&#45;&#45;2757333441600 -->
<g id="edge52" class="edge">
<title>2757333439584&#45;&#45;2757333441600</title>
<path fill="none" stroke="black" d="M1352.04,-388.03C1393.94,-398.21 1479.97,-419.1 1540.52,-433.8"/>
</g>
<!-- 2757333438240 -->
<g id="node58" class="node">
<title>2757333438240</title>
<ellipse fill="none" stroke="black" cx="1608.2" cy="-396" rx="152.18" ry="18"/>
<text text-anchor="middle" x="1608.2" y="-390" font-family="Times New Roman,serif" font-size="15.00">Draft letter requesting missing data</text>
</g>
<!-- 2757333439584&#45;&#45;2757333438240 -->
<g id="edge53" class="edge">
<title>2757333439584&#45;&#45;2757333438240</title>
<path fill="none" stroke="black" d="M1353.54,-383.32C1380.22,-384.65 1423.65,-386.82 1467.09,-388.99"/>
</g>
<!-- 2757333438912 -->
<g id="node59" class="node">
<title>2757333438912</title>
<ellipse fill="none" stroke="black" cx="1608.2" cy="-342" rx="132.73" ry="18"/>
<text text-anchor="middle" x="1608.2" y="-336" font-family="Times New Roman,serif" font-size="15.00">Create subcases completeness</text>
</g>
<!-- 2757333439584&#45;&#45;2757333438912 -->
<g id="edge54" class="edge">
<title>2757333439584&#45;&#45;2757333438912</title>
<path fill="none" stroke="black" d="M1353.04,-378.31C1389.59,-373.09 1458.27,-363.28 1515.03,-355.17"/>
</g>
<!-- 2757333437904 -->
<g id="node62" class="node">
<title>2757333437904</title>
<ellipse fill="none" stroke="black" cx="1326.2" cy="-261" rx="27" ry="18"/>
<text text-anchor="middle" x="1326.2" y="-255" font-family="Times New Roman,serif" font-size="15.00">seq</text>
</g>
<!-- 2757333450624&#45;&#45;2757333437904 -->
<g id="edge62" class="edge">
<title>2757333450624&#45;&#45;2757333437904</title>
<path fill="none" stroke="black" d="M1057.7,-261C1113.48,-261 1242.99,-261 1298.82,-261"/>
</g>
<!-- 2757333437568 -->
<g id="node67" class="node">
<title>2757333437568</title>
<ellipse fill="none" stroke="black" cx="1326.2" cy="-126" rx="27" ry="18"/>
<text text-anchor="middle" x="1326.2" y="-120" font-family="Times New Roman,serif" font-size="15.00">seq</text>
</g>
<!-- 2757333450624&#45;&#45;2757333437568 -->
<g id="edge67" class="edge">
<title>2757333450624&#45;&#45;2757333437568</title>
<path fill="none" stroke="black" d="M1052.97,-251.07C1107.31,-226.11 1249.19,-160.92 1303.56,-135.94"/>
</g>
<!-- 2757333443328 -->
<g id="node63" class="node">
<title>2757333443328</title>
<ellipse fill="none" stroke="black" cx="1608.2" cy="-288" rx="27" ry="18"/>
<text text-anchor="middle" x="1608.2" y="-282" font-family="Times New Roman,serif" font-size="15.00">and</text>
</g>
<!-- 2757333437904&#45;&#45;2757333443328 -->
<g id="edge60" class="edge">
<title>2757333437904&#45;&#45;2757333443328</title>
<path fill="none" stroke="black" d="M1353.29,-263.52C1406.64,-268.66 1527.69,-280.33 1581.08,-285.48"/>
</g>
<!-- 2757333441936 -->
<g id="node66" class="node">
<title>2757333441936</title>
<ellipse fill="none" stroke="black" cx="1608.2" cy="-234" rx="151.15" ry="18"/>
<text text-anchor="middle" x="1608.2" y="-228" font-family="Times New Roman,serif" font-size="15.00">Log senddate retrieve missing data</text>
</g>
<!-- 2757333437904&#45;&#45;2757333441936 -->
<g id="edge61" class="edge">
<title>2757333437904&#45;&#45;2757333441936</title>
<path fill="none" stroke="black" d="M1353.29,-258.48C1384.45,-255.48 1438.69,-250.25 1489.06,-245.39"/>
</g>
<!-- 2757333440928 -->
<g id="node64" class="node">
<title>2757333440928</title>
<ellipse fill="none" stroke="black" cx="1974.66" cy="-315" rx="97.93" ry="18"/>
<text text-anchor="middle" x="1974.66" y="-309" font-family="Times New Roman,serif" font-size="15.00">Recover missing data</text>
</g>
<!-- 2757333443328&#45;&#45;2757333440928 -->
<g id="edge58" class="edge">
<title>2757333443328&#45;&#45;2757333440928</title>
<path fill="none" stroke="black" d="M1635.42,-289.94C1686.5,-293.73 1801.54,-302.25 1883.24,-308.3"/>
</g>
<!-- 2757333442992 -->
<g id="node65" class="node">
<title>2757333442992</title>
<ellipse fill="none" stroke="black" cx="1974.66" cy="-261" rx="168.56" ry="18"/>
<text text-anchor="middle" x="1974.66" y="-255" font-family="Times New Roman,serif" font-size="15.00">Phase requested additional information</text>
</g>
<!-- 2757333443328&#45;&#45;2757333442992 -->
<g id="edge59" class="edge">
<title>2757333443328&#45;&#45;2757333442992</title>
<path fill="none" stroke="black" d="M1635.42,-286.06C1676.95,-282.98 1760.77,-276.77 1834.57,-271.3"/>
</g>
<!-- 2757333442272 -->
<g id="node68" class="node">
<title>2757333442272</title>
<ellipse fill="none" stroke="black" cx="1608.2" cy="-180" rx="161.9" ry="18"/>
<text text-anchor="middle" x="1608.2" y="-174" font-family="Times New Roman,serif" font-size="15.00">Change procedure after completeness</text>
</g>
<!-- 2757333437568&#45;&#45;2757333442272 -->
<g id="edge63" class="edge">
<title>2757333437568&#45;&#45;2757333442272</title>
<path fill="none" stroke="black" d="M1352.54,-130.89C1391.11,-138.33 1466.25,-152.82 1524.96,-164.14"/>
</g>
<!-- 2757333443664 -->
<g id="node69" class="node">
<title>2757333443664</title>
<ellipse fill="none" stroke="black" cx="1608.2" cy="-126" rx="117.89" ry="18"/>
<text text-anchor="middle" x="1608.2" y="-120" font-family="Times New Roman,serif" font-size="15.00">Dispatch letter in progress</text>
</g>
<!-- 2757333437568&#45;&#45;2757333443664 -->
<g id="edge64" class="edge">
<title>2757333437568&#45;&#45;2757333443664</title>
<path fill="none" stroke="black" d="M1353.54,-126C1384.92,-126 1439.46,-126 1489.94,-126"/>
</g>
<!-- 2757333437232 -->
<g id="node70" class="node">
<title>2757333437232</title>
<ellipse fill="none" stroke="black" cx="1608.2" cy="-72" rx="121.47" ry="18"/>
<text text-anchor="middle" x="1608.2" y="-66" font-family="Times New Roman,serif" font-size="15.00">Stage application receptive</text>
</g>
<!-- 2757333437568&#45;&#45;2757333437232 -->
<g id="edge65" class="edge">
<title>2757333437568&#45;&#45;2757333437232</title>
<path fill="none" stroke="black" d="M1352.54,-121.11C1392.72,-113.36 1472.61,-97.96 1532.25,-86.45"/>
</g>
<!-- 2757333436896 -->
<g id="node71" class="node">
<title>2757333436896</title>
<ellipse fill="none" stroke="black" cx="1608.2" cy="-18" rx="116.86" ry="18"/>
<text text-anchor="middle" x="1608.2" y="-12" font-family="Times New Roman,serif" font-size="15.00">Received OLO documents</text>
</g>
<!-- 2757333437568&#45;&#45;2757333436896 -->
<g id="edge66" class="edge">
<title>2757333437568&#45;&#45;2757333436896</title>
<path fill="none" stroke="black" d="M1350.11,-117.16C1396.61,-99.23 1502.74,-58.29 1563.1,-35.01"/>
</g>
</g>
</svg>
