<?xml version="1.0" encoding="UTF-8" standalone="no"?>
<!DOCTYPE svg PUBLIC "-//W3C//DTD SVG 1.1//EN"
 "http://www.w3.org/Graphics/SVG/1.1/DTD/svg11.dtd">
<!-- Generated by graphviz version 11.0.0 (20240428.1522)
 -->
<!-- Title: pt Pages: 1 -->
<svg width="4342pt" height="808pt"
 viewBox="0.00 0.00 4342.29 808.00" xmlns="http://www.w3.org/2000/svg" xmlns:xlink="http://www.w3.org/1999/xlink">
<g id="graph0" class="graph" transform="scale(1 1) rotate(0) translate(4 804)">
<title>pt</title>
<polygon fill="white" stroke="none" points="-4,4 -4,-804 4338.29,-804 4338.29,4 -4,4"/>
<!-- 2757334002304 -->
<g id="node1" class="node">
<title>2757334002304</title>
<ellipse fill="none" stroke="black" cx="27" cy="-234" rx="27" ry="18"/>
<text text-anchor="middle" x="27" y="-228" font-family="Times New Roman,serif" font-size="15.00">seq</text>
</g>
<!-- 2757334003696 -->
<g id="node2" class="node">
<title>2757334003696</title>
<ellipse fill="none" stroke="black" cx="241.15" cy="-315" rx="125.05" ry="18"/>
<text text-anchor="middle" x="241.15" y="-309" font-family="Times New Roman,serif" font-size="15.00">Log submission date request</text>
</g>
<!-- 2757334002304&#45;&#45;2757334003696 -->
<g id="edge1" class="edge">
<title>2757334002304&#45;&#45;2757334003696</title>
<path fill="none" stroke="black" d="M51.11,-242.82C85.58,-255.98 151.14,-281.01 195.25,-297.86"/>
</g>
<!-- 2757333992464 -->
<g id="node3" class="node">
<title>2757333992464</title>
<ellipse fill="none" stroke="black" cx="241.15" cy="-261" rx="27" ry="18"/>
<text text-anchor="middle" x="241.15" y="-255" font-family="Times New Roman,serif" font-size="15.00">and</text>
</g>
<!-- 2757334002304&#45;&#45;2757333992464 -->
<g id="edge70" class="edge">
<title>2757334002304&#45;&#45;2757333992464</title>
<path fill="none" stroke="black" d="M54.01,-237.31C94.84,-242.51 173.5,-252.52 214.26,-257.7"/>
</g>
<!-- 2757334001680 -->
<g id="node72" class="node">
<title>2757334001680</title>
<ellipse fill="none" stroke="black" cx="241.15" cy="-180" rx="27" ry="18"/>
<text text-anchor="middle" x="241.15" y="-174" font-family="Times New Roman,serif" font-size="15.00">and</text>
</g>
<!-- 2757334002304&#45;&#45;2757334001680 -->
<g id="edge73" class="edge">
<title>2757334002304&#45;&#45;2757334001680</title>
<path fill="none" stroke="black" d="M52.75,-227.7C93.63,-217.29 174.78,-196.64 215.56,-186.26"/>
</g>
<!-- 2757333997408 -->
<g id="node75" class="node">
<title>2757333997408</title>
<ellipse fill="none" stroke="black" cx="241.15" cy="-126" rx="151.15" ry="18"/>
<text text-anchor="middle" x="241.15" y="-120" font-family="Times New Roman,serif" font-size="15.00">Log senddate retrieve missing data</text>
</g>
<!-- 2757334002304&#45;&#45;2757333997408 -->
<g id="edge74" class="edge">
<title>2757334002304&#45;&#45;2757333997408</title>
<path fill="none" stroke="black" d="M49.12,-223.25C85.59,-204.68 160.74,-166.43 205.14,-143.83"/>
</g>
<!-- 2757333995056 -->
<g id="node4" class="node">
<title>2757333995056</title>
<ellipse fill="none" stroke="black" cx="596.86" cy="-423" rx="116.86" ry="18"/>
<text text-anchor="middle" x="596.86" y="-417" font-family="Times New Roman,serif" font-size="15.00">Applicant is a stakeholder</text>
</g>
<!-- 2757333992464&#45;&#45;2757333995056 -->
<g id="edge2" class="edge">
<title>2757333992464&#45;&#45;2757333995056</title>
<path fill="none" stroke="black" d="M264.01,-271.01C322.68,-297.88 484.14,-371.83 558.04,-405.68"/>
</g>
<!-- 2757334002352 -->
<g id="node5" class="node">
<title>2757334002352</title>
<ellipse fill="none" stroke="black" cx="596.86" cy="-369" rx="118.91" ry="18"/>
<text text-anchor="middle" x="596.86" y="-363" font-family="Times New Roman,serif" font-size="15.00">Stage application received</text>
</g>
<!-- 2757333992464&#45;&#45;2757334002352 -->
<g id="edge3" class="edge">
<title>2757333992464&#45;&#45;2757334002352</title>
<path fill="none" stroke="black" d="M266.19,-268.34C322.47,-285.52 463.97,-328.73 542.05,-352.57"/>
</g>
<!-- 2757333996640 -->
<g id="node6" class="node">
<title>2757333996640</title>
<ellipse fill="none" stroke="black" cx="596.86" cy="-315" rx="147.06" ry="18"/>
<text text-anchor="middle" x="596.86" y="-309" font-family="Times New Roman,serif" font-size="15.00">Standard procedure without MER</text>
</g>
<!-- 2757333992464&#45;&#45;2757333996640 -->
<g id="edge4" class="edge">
<title>2757333992464&#45;&#45;2757333996640</title>
<path fill="none" stroke="black" d="M267.88,-264.93C316.52,-272.35 424.18,-288.79 502.93,-300.81"/>
</g>
<!-- 2757333994288 -->
<g id="node7" class="node">
<title>2757333994288</title>
<ellipse fill="none" stroke="black" cx="596.86" cy="-261" rx="136.82" ry="18"/>
<text text-anchor="middle" x="596.86" y="-255" font-family="Times New Roman,serif" font-size="15.00">Send to the competent authority</text>
</g>
<!-- 2757333992464&#45;&#45;2757333994288 -->
<g id="edge5" class="edge">
<title>2757333992464&#45;&#45;2757333994288</title>
<path fill="none" stroke="black" d="M268.45,-261C308.88,-261 389.06,-261 459.95,-261"/>
</g>
<!-- 2757334000144 -->
<g id="node8" class="node">
<title>2757334000144</title>
<ellipse fill="none" stroke="black" cx="596.86" cy="-207" rx="27" ry="18"/>
<text text-anchor="middle" x="596.86" y="-201" font-family="Times New Roman,serif" font-size="15.00">seq</text>
</g>
<!-- 2757333992464&#45;&#45;2757334000144 -->
<g id="edge69" class="edge">
<title>2757333992464&#45;&#45;2757334000144</title>
<path fill="none" stroke="black" d="M267.88,-257.07C333.22,-247.1 505,-220.87 570.24,-210.91"/>
</g>
<!-- 2757334004848 -->
<g id="node9" class="node">
<title>2757334004848</title>
<ellipse fill="none" stroke="black" cx="1001.19" cy="-234" rx="199.78" ry="18"/>
<text text-anchor="middle" x="1001.19" y="-228" font-family="Times New Roman,serif" font-size="15.00">No permit required or only notification needed</text>
</g>
<!-- 2757334000144&#45;&#45;2757334004848 -->
<g id="edge6" class="edge">
<title>2757334000144&#45;&#45;2757334004848</title>
<path fill="none" stroke="black" d="M623.95,-208.75C667.4,-211.67 757.84,-217.74 839.17,-223.19"/>
</g>
<!-- 2757334000672 -->
<g id="node10" class="node">
<title>2757334000672</title>
<ellipse fill="none" stroke="black" cx="1001.19" cy="-180" rx="27" ry="18"/>
<text text-anchor="middle" x="1001.19" y="-174" font-family="Times New Roman,serif" font-size="15.00">and</text>
</g>
<!-- 2757334000144&#45;&#45;2757334000672 -->
<g id="edge68" class="edge">
<title>2757334000144&#45;&#45;2757334000672</title>
<path fill="none" stroke="black" d="M623.95,-205.25C696.65,-200.37 900.96,-186.66 973.9,-181.76"/>
</g>
<!-- 2757333996496 -->
<g id="node11" class="node">
<title>2757333996496</title>
<ellipse fill="none" stroke="black" cx="1345.13" cy="-207" rx="108.16" ry="18"/>
<text text-anchor="middle" x="1345.13" y="-201" font-family="Times New Roman,serif" font-size="15.00">Begin WABOprocedure</text>
</g>
<!-- 2757334000672&#45;&#45;2757333996496 -->
<g id="edge7" class="edge">
<title>2757334000672&#45;&#45;2757333996496</title>
<path fill="none" stroke="black" d="M1028.46,-182.07C1074.51,-185.71 1172.03,-193.41 1246.57,-199.3"/>
</g>
<!-- 2757334004944 -->
<g id="node12" class="node">
<title>2757334004944</title>
<ellipse fill="none" stroke="black" cx="1345.13" cy="-153" rx="27" ry="18"/>
<text text-anchor="middle" x="1345.13" y="-147" font-family="Times New Roman,serif" font-size="15.00">seq</text>
</g>
<!-- 2757334000672&#45;&#45;2757334004944 -->
<g id="edge67" class="edge">
<title>2757334000672&#45;&#45;2757334004944</title>
<path fill="none" stroke="black" d="M1028.46,-177.93C1092.26,-172.89 1254.84,-160.05 1318.25,-155.04"/>
</g>
<!-- 2757333996592 -->
<g id="node13" class="node">
<title>2757333996592</title>
<ellipse fill="none" stroke="black" cx="1615.37" cy="-292" rx="45.21" ry="18"/>
<text text-anchor="middle" x="1615.37" y="-286" font-family="Times New Roman,serif" font-size="15.00">xor loop</text>
</g>
<!-- 2757334004944&#45;&#45;2757333996592 -->
<g id="edge53" class="edge">
<title>2757334004944&#45;&#45;2757333996592</title>
<path fill="none" stroke="black" d="M1367.18,-163.91C1415.22,-188.8 1532.95,-249.81 1586.74,-277.68"/>
</g>
<!-- 2757333997840 -->
<g id="node59" class="node">
<title>2757333997840</title>
<ellipse fill="none" stroke="black" cx="1615.37" cy="-234" rx="27" ry="18"/>
<text text-anchor="middle" x="1615.37" y="-228" font-family="Times New Roman,serif" font-size="15.00">xor</text>
</g>
<!-- 2757334004944&#45;&#45;2757333997840 -->
<g id="edge60" class="edge">
<title>2757334004944&#45;&#45;2757333997840</title>
<path fill="none" stroke="black" d="M1369.94,-160.19C1420.71,-175.52 1539.17,-211.29 1590.23,-226.71"/>
</g>
<!-- 2757333995920 -->
<g id="node66" class="node">
<title>2757333995920</title>
<ellipse fill="none" stroke="black" cx="1615.37" cy="-180" rx="126.08" ry="18"/>
<text text-anchor="middle" x="1615.37" y="-174" font-family="Times New Roman,serif" font-size="15.00">Stop all running subcases 2b</text>
</g>
<!-- 2757334004944&#45;&#45;2757333995920 -->
<g id="edge61" class="edge">
<title>2757334004944&#45;&#45;2757333995920</title>
<path fill="none" stroke="black" d="M1372.34,-155.64C1404.44,-158.87 1460.75,-164.54 1510.98,-169.59"/>
</g>
<!-- 2757334005328 -->
<g id="node67" class="node">
<title>2757334005328</title>
<ellipse fill="none" stroke="black" cx="1615.37" cy="-126" rx="92.81" ry="18"/>
<text text-anchor="middle" x="1615.37" y="-120" font-family="Times New Roman,serif" font-size="15.00">Phase case managed</text>
</g>
<!-- 2757334004944&#45;&#45;2757334005328 -->
<g id="edge62" class="edge">
<title>2757334004944&#45;&#45;2757334005328</title>
<path fill="none" stroke="black" d="M1372.34,-150.36C1409.05,-146.67 1477.44,-139.78 1532.18,-134.27"/>
</g>
<!-- 2757333994912 -->
<g id="node68" class="node">
<title>2757333994912</title>
<ellipse fill="none" stroke="black" cx="1615.37" cy="-72" rx="27" ry="18"/>
<text text-anchor="middle" x="1615.37" y="-66" font-family="Times New Roman,serif" font-size="15.00">and</text>
</g>
<!-- 2757334004944&#45;&#45;2757333994912 -->
<g id="edge65" class="edge">
<title>2757334004944&#45;&#45;2757333994912</title>
<path fill="none" stroke="black" d="M1369.94,-145.81C1420.71,-130.48 1539.17,-94.71 1590.23,-79.29"/>
</g>
<!-- 2757333993616 -->
<g id="node71" class="node">
<title>2757333993616</title>
<ellipse fill="none" stroke="black" cx="1615.37" cy="-18" rx="69.26" ry="18"/>
<text text-anchor="middle" x="1615.37" y="-12" font-family="Times New Roman,serif" font-size="15.00">Close the case</text>
</g>
<!-- 2757334004944&#45;&#45;2757333993616 -->
<g id="edge66" class="edge">
<title>2757334004944&#45;&#45;2757333993616</title>
<path fill="none" stroke="black" d="M1367.18,-142.41C1413.99,-118.85 1526.95,-62 1582.47,-34.05"/>
</g>
<!-- 2757334005520 -->
<g id="node14" class="node">
<title>2757334005520</title>
<ellipse fill="none" stroke="black" cx="1896.87" cy="-338" rx="27" ry="18"/>
<text text-anchor="middle" x="1896.87" y="-332" font-family="Times New Roman,serif" font-size="15.00">seq</text>
</g>
<!-- 2757333996592&#45;&#45;2757334005520 -->
<g id="edge51" class="edge">
<title>2757333996592&#45;&#45;2757334005520</title>
<path fill="none" stroke="black" d="M1657.61,-298.79C1716.22,-308.43 1821.88,-325.82 1870.33,-333.8"/>
</g>
<!-- 2757334000096 -->
<g id="node58" class="node">
<title>2757334000096</title>
<ellipse fill="black" stroke="black" cx="1896.87" cy="-292" rx="2.7" ry="2.7"/>
</g>
<!-- 2757333996592&#45;&#45;2757334000096 -->
<g id="edge52" class="edge">
<title>2757333996592&#45;&#45;2757334000096</title>
<path fill="none" stroke="black" d="M1660.97,-292C1734.64,-292 1875.49,-292 1893.87,-292"/>
</g>
<!-- 2757333997360 -->
<g id="node15" class="node">
<title>2757333997360</title>
<ellipse fill="none" stroke="black" cx="2225.96" cy="-392" rx="27" ry="18"/>
<text text-anchor="middle" x="2225.96" y="-386" font-family="Times New Roman,serif" font-size="15.00">and</text>
</g>
<!-- 2757334005520&#45;&#45;2757333997360 -->
<g id="edge49" class="edge">
<title>2757334005520&#45;&#45;2757333997360</title>
<path fill="none" stroke="black" d="M1923.53,-342.24C1984.68,-352.33 2138.39,-377.71 2199.42,-387.78"/>
</g>
<!-- 2757333997168 -->
<g id="node57" class="node">
<title>2757333997168</title>
<ellipse fill="none" stroke="black" cx="2225.96" cy="-338" rx="163.44" ry="18"/>
<text text-anchor="middle" x="2225.96" y="-332" font-family="Times New Roman,serif" font-size="15.00">Log date termination request received</text>
</g>
<!-- 2757334005520&#45;&#45;2757333997168 -->
<g id="edge50" class="edge">
<title>2757334005520&#45;&#45;2757333997168</title>
<path fill="none" stroke="black" d="M1924.36,-338C1955.23,-338 2008.88,-338 2062.39,-338"/>
</g>
<!-- 2757333993520 -->
<g id="node16" class="node">
<title>2757333993520</title>
<ellipse fill="none" stroke="black" cx="2506.44" cy="-419" rx="70.8" ry="18"/>
<text text-anchor="middle" x="2506.44" y="-413" font-family="Times New Roman,serif" font-size="15.00">End on request</text>
</g>
<!-- 2757333997360&#45;&#45;2757333993520 -->
<g id="edge8" class="edge">
<title>2757333997360&#45;&#45;2757333993520</title>
<path fill="none" stroke="black" d="M2253.16,-394.54C2295.47,-398.64 2380.11,-406.85 2439.65,-412.62"/>
</g>
<!-- 2757333992128 -->
<g id="node17" class="node">
<title>2757333992128</title>
<ellipse fill="none" stroke="black" cx="2506.44" cy="-365" rx="27" ry="18"/>
<text text-anchor="middle" x="2506.44" y="-359" font-family="Times New Roman,serif" font-size="15.00">seq</text>
</g>
<!-- 2757333997360&#45;&#45;2757333992128 -->
<g id="edge48" class="edge">
<title>2757333997360&#45;&#45;2757333992128</title>
<path fill="none" stroke="black" d="M2253.16,-389.46C2306.37,-384.3 2426.53,-372.65 2479.51,-367.51"/>
</g>
<!-- 2757334001392 -->
<g id="node18" class="node">
<title>2757334001392</title>
<ellipse fill="none" stroke="black" cx="2766.44" cy="-689" rx="130.68" ry="18"/>
<text text-anchor="middle" x="2766.44" y="-683" font-family="Times New Roman,serif" font-size="15.00">Competent authority initiative</text>
</g>
<!-- 2757333992128&#45;&#45;2757334001392 -->
<g id="edge9" class="edge">
<title>2757333992128&#45;&#45;2757334001392</title>
<path fill="none" stroke="black" d="M2519.88,-380.63C2562.86,-434.6 2704.94,-613.03 2750.94,-670.79"/>
</g>
<!-- 2757333992560 -->
<g id="node19" class="node">
<title>2757333992560</title>
<ellipse fill="none" stroke="black" cx="2766.44" cy="-635" rx="27" ry="18"/>
<text text-anchor="middle" x="2766.44" y="-629" font-family="Times New Roman,serif" font-size="15.00">and</text>
</g>
<!-- 2757333992128&#45;&#45;2757333992560 -->
<g id="edge20" class="edge">
<title>2757333992128&#45;&#45;2757333992560</title>
<path fill="none" stroke="black" d="M2521.68,-379.9C2566.68,-427 2705.54,-572.32 2750.93,-619.81"/>
</g>
<!-- 2757333999952 -->
<g id="node30" class="node">
<title>2757333999952</title>
<ellipse fill="none" stroke="black" cx="2766.44" cy="-581" rx="116.35" ry="18"/>
<text text-anchor="middle" x="2766.44" y="-575" font-family="Times New Roman,serif" font-size="15.00">Notify BAG administrator</text>
</g>
<!-- 2757333992128&#45;&#45;2757333999952 -->
<g id="edge21" class="edge">
<title>2757333992128&#45;&#45;2757333999952</title>
<path fill="none" stroke="black" d="M2523.97,-378.84C2569.01,-416.55 2693.88,-521.09 2744.11,-563.14"/>
</g>
<!-- 2757333995824 -->
<g id="node31" class="node">
<title>2757333995824</title>
<ellipse fill="none" stroke="black" cx="2766.44" cy="-527" rx="144.5" ry="18"/>
<text text-anchor="middle" x="2766.44" y="-521" font-family="Times New Roman,serif" font-size="15.00">Generate procedure confirmation</text>
</g>
<!-- 2757333992128&#45;&#45;2757333995824 -->
<g id="edge22" class="edge">
<title>2757333992128&#45;&#45;2757333995824</title>
<path fill="none" stroke="black" d="M2526.83,-377.18C2571.95,-405.51 2684.13,-475.95 2737.01,-509.15"/>
</g>
<!-- 2757333997552 -->
<g id="node32" class="node">
<title>2757333997552</title>
<ellipse fill="none" stroke="black" cx="2766.44" cy="-473" rx="145.52" ry="18"/>
<text text-anchor="middle" x="2766.44" y="-467" font-family="Times New Roman,serif" font-size="15.00">Create terminate request message</text>
</g>
<!-- 2757333992128&#45;&#45;2757333997552 -->
<g id="edge23" class="edge">
<title>2757333992128&#45;&#45;2757333997552</title>
<path fill="none" stroke="black" d="M2529.88,-374.4C2573.04,-392.46 2668.19,-432.29 2723.45,-455.42"/>
</g>
<!-- 2757333998224 -->
<g id="node33" class="node">
<title>2757333998224</title>
<ellipse fill="none" stroke="black" cx="2766.44" cy="-419" rx="43.16" ry="18"/>
<text text-anchor="middle" x="2766.44" y="-413" font-family="Times New Roman,serif" font-size="15.00">Release</text>
</g>
<!-- 2757333992128&#45;&#45;2757333998224 -->
<g id="edge24" class="edge">
<title>2757333992128&#45;&#45;2757333998224</title>
<path fill="none" stroke="black" d="M2532.64,-370.28C2578.04,-379.78 2673.77,-399.81 2727.25,-411.01"/>
</g>
<!-- 2757334006768 -->
<g id="node34" class="node">
<title>2757334006768</title>
<ellipse fill="none" stroke="black" cx="2766.44" cy="-365" rx="27" ry="18"/>
<text text-anchor="middle" x="2766.44" y="-359" font-family="Times New Roman,serif" font-size="15.00">xor</text>
</g>
<!-- 2757333992128&#45;&#45;2757334006768 -->
<g id="edge27" class="edge">
<title>2757333992128&#45;&#45;2757334006768</title>
<path fill="none" stroke="black" d="M2533.59,-365C2583.04,-365 2689.71,-365 2739.21,-365"/>
</g>
<!-- 2757333992080 -->
<g id="node37" class="node">
<title>2757333992080</title>
<ellipse fill="none" stroke="black" cx="2766.44" cy="-311" rx="45.21" ry="18"/>
<text text-anchor="middle" x="2766.44" y="-305" font-family="Times New Roman,serif" font-size="15.00">xor loop</text>
</g>
<!-- 2757333992128&#45;&#45;2757333992080 -->
<g id="edge30" class="edge">
<title>2757333992128&#45;&#45;2757333992080</title>
<path fill="none" stroke="black" d="M2532.64,-359.72C2577.66,-350.3 2672.16,-330.52 2725.89,-319.28"/>
</g>
<!-- 2757334004704 -->
<g id="node40" class="node">
<title>2757334004704</title>
<ellipse fill="none" stroke="black" cx="2766.44" cy="-257" rx="153.2" ry="18"/>
<text text-anchor="middle" x="2766.44" y="-251" font-family="Times New Roman,serif" font-size="15.00">Record senddate acknowledgement</text>
</g>
<!-- 2757333992128&#45;&#45;2757334004704 -->
<g id="edge31" class="edge">
<title>2757333992128&#45;&#45;2757334004704</title>
<path fill="none" stroke="black" d="M2529.88,-355.6C2573.04,-337.54 2668.19,-297.71 2723.45,-274.58"/>
</g>
<!-- 2757333993376 -->
<g id="node41" class="node">
<title>2757333993376</title>
<ellipse fill="none" stroke="black" cx="2766.44" cy="-203" rx="27" ry="18"/>
<text text-anchor="middle" x="2766.44" y="-197" font-family="Times New Roman,serif" font-size="15.00">xor</text>
</g>
<!-- 2757333992128&#45;&#45;2757333993376 -->
<g id="edge34" class="edge">
<title>2757333992128&#45;&#45;2757333993376</title>
<path fill="none" stroke="black" d="M2526.83,-352.82C2574.76,-322.73 2698.38,-245.11 2746.17,-215.1"/>
</g>
<!-- 2757334000336 -->
<g id="node44" class="node">
<title>2757334000336</title>
<ellipse fill="none" stroke="black" cx="2766.44" cy="-149" rx="45.21" ry="18"/>
<text text-anchor="middle" x="2766.44" y="-143" font-family="Times New Roman,serif" font-size="15.00">xor loop</text>
</g>
<!-- 2757333992128&#45;&#45;2757334000336 -->
<g id="edge45" class="edge">
<title>2757333992128&#45;&#45;2757334000336</title>
<path fill="none" stroke="black" d="M2523.97,-351.16C2569.57,-312.98 2696.98,-206.31 2745.94,-165.33"/>
</g>
<!-- 2757333994240 -->
<g id="node55" class="node">
<title>2757333994240</title>
<ellipse fill="none" stroke="black" cx="2766.44" cy="-95" rx="121.47" ry="18"/>
<text text-anchor="middle" x="2766.44" y="-89" font-family="Times New Roman,serif" font-size="15.00">Stage application receptive</text>
</g>
<!-- 2757333992128&#45;&#45;2757333994240 -->
<g id="edge46" class="edge">
<title>2757333992128&#45;&#45;2757333994240</title>
<path fill="none" stroke="black" d="M2521.68,-350.1C2565.83,-303.89 2700.36,-163.1 2748.27,-112.97"/>
</g>
<!-- 2757334007344 -->
<g id="node56" class="node">
<title>2757334007344</title>
<ellipse fill="none" stroke="black" cx="2766.44" cy="-41" rx="117.89" ry="18"/>
<text text-anchor="middle" x="2766.44" y="-35" font-family="Times New Roman,serif" font-size="15.00">Dispatch letter in progress</text>
</g>
<!-- 2757333992128&#45;&#45;2757334007344 -->
<g id="edge47" class="edge">
<title>2757333992128&#45;&#45;2757334007344</title>
<path fill="none" stroke="black" d="M2519.88,-349.37C2562.86,-295.4 2704.94,-116.97 2750.94,-59.21"/>
</g>
<!-- 2757333991600 -->
<g id="node20" class="node">
<title>2757333991600</title>
<ellipse fill="none" stroke="black" cx="3131.36" cy="-782" rx="87.69" ry="18"/>
<text text-anchor="middle" x="3131.36" y="-776" font-family="Times New Roman,serif" font-size="15.00">Phased application</text>
</g>
<!-- 2757333992560&#45;&#45;2757333991600 -->
<g id="edge10" class="edge">
<title>2757333992560&#45;&#45;2757333991600</title>
<path fill="none" stroke="black" d="M2790.14,-644.2C2850.2,-668.52 3013.84,-734.8 3090.16,-765.72"/>
</g>
<!-- 2757334002592 -->
<g id="node21" class="node">
<title>2757334002592</title>
<ellipse fill="none" stroke="black" cx="3131.36" cy="-728" rx="175.72" ry="18"/>
<text text-anchor="middle" x="3131.36" y="-722" font-family="Times New Roman,serif" font-size="15.00">Record senddate procedure confirmation</text>
</g>
<!-- 2757333992560&#45;&#45;2757334002592 -->
<g id="edge11" class="edge">
<title>2757333992560&#45;&#45;2757334002592</title>
<path fill="none" stroke="black" d="M2792.1,-641.32C2847.22,-655.44 2981.98,-689.98 3063.8,-710.94"/>
</g>
<!-- 2757334003984 -->
<g id="node22" class="node">
<title>2757334003984</title>
<ellipse fill="none" stroke="black" cx="3131.36" cy="-674" rx="69.78" ry="18"/>
<text text-anchor="middle" x="3131.36" y="-668" font-family="Times New Roman,serif" font-size="15.00">MER included</text>
</g>
<!-- 2757333992560&#45;&#45;2757334003984 -->
<g id="edge12" class="edge">
<title>2757333992560&#45;&#45;2757334003984</title>
<path fill="none" stroke="black" d="M2793.54,-637.8C2850.1,-643.88 2985.38,-658.42 3066.23,-667.11"/>
</g>
<!-- 2757333997216 -->
<g id="node23" class="node">
<title>2757333997216</title>
<ellipse fill="none" stroke="black" cx="3131.36" cy="-620" rx="126.08" ry="18"/>
<text text-anchor="middle" x="3131.36" y="-614" font-family="Times New Roman,serif" font-size="15.00">Regular procedure activities</text>
</g>
<!-- 2757333992560&#45;&#45;2757333997216 -->
<g id="edge13" class="edge">
<title>2757333992560&#45;&#45;2757333997216</title>
<path fill="none" stroke="black" d="M2793.83,-633.91C2838.69,-632.06 2932.44,-628.18 3009.63,-624.99"/>
</g>
<!-- 2757333993184 -->
<g id="node24" class="node">
<title>2757333993184</title>
<ellipse fill="none" stroke="black" cx="3131.36" cy="-566" rx="143.99" ry="18"/>
<text text-anchor="middle" x="3131.36" y="-560" font-family="Times New Roman,serif" font-size="15.00">Dispatch procedure confirmation</text>
</g>
<!-- 2757333992560&#45;&#45;2757333993184 -->
<g id="edge14" class="edge">
<title>2757333992560&#45;&#45;2757333993184</title>
<path fill="none" stroke="black" d="M2792.96,-630.15C2845.64,-620.13 2968.34,-596.8 3050.33,-581.22"/>
</g>
<!-- 2757333996688 -->
<g id="node25" class="node">
<title>2757333996688</title>
<ellipse fill="none" stroke="black" cx="3131.36" cy="-512" rx="45.21" ry="18"/>
<text text-anchor="middle" x="3131.36" y="-506" font-family="Times New Roman,serif" font-size="15.00">xor loop</text>
</g>
<!-- 2757333992560&#45;&#45;2757333996688 -->
<g id="edge19" class="edge">
<title>2757333992560&#45;&#45;2757333996688</title>
<path fill="none" stroke="black" d="M2790.97,-627.02C2853.33,-605.89 3023.03,-548.37 3096.12,-523.6"/>
</g>
<!-- 2757333997120 -->
<g id="node26" class="node">
<title>2757333997120</title>
<ellipse fill="none" stroke="black" cx="3513.68" cy="-539" rx="170.6" ry="18"/>
<text text-anchor="middle" x="3513.68" y="-533" font-family="Times New Roman,serif" font-size="15.00">Log date of publishing received request</text>
</g>
<!-- 2757333996688&#45;&#45;2757333997120 -->
<g id="edge15" class="edge">
<title>2757333996688&#45;&#45;2757333997120</title>
<path fill="none" stroke="black" d="M3176.36,-515.12C3223.78,-518.49 3301.72,-524.02 3370.64,-528.92"/>
</g>
<!-- 2757333999904 -->
<g id="node27" class="node">
<title>2757333999904</title>
<ellipse fill="none" stroke="black" cx="3513.68" cy="-485" rx="27" ry="18"/>
<text text-anchor="middle" x="3513.68" y="-479" font-family="Times New Roman,serif" font-size="15.00">seq</text>
</g>
<!-- 2757333996688&#45;&#45;2757333999904 -->
<g id="edge18" class="edge">
<title>2757333996688&#45;&#45;2757333999904</title>
<path fill="none" stroke="black" d="M3176.36,-508.88C3256.14,-503.21 3422.34,-491.41 3486.57,-486.85"/>
</g>
<!-- 2757334004320 -->
<g id="node28" class="node">
<title>2757334004320</title>
<ellipse fill="none" stroke="black" cx="3857.11" cy="-512" rx="136.82" ry="18"/>
<text text-anchor="middle" x="3857.11" y="-506" font-family="Times New Roman,serif" font-size="15.00">No application permit required</text>
</g>
<!-- 2757333999904&#45;&#45;2757334004320 -->
<g id="edge16" class="edge">
<title>2757333999904&#45;&#45;2757334004320</title>
<path fill="none" stroke="black" d="M3540.91,-487.07C3582.83,-490.39 3667.47,-497.08 3738.49,-502.7"/>
</g>
<!-- 2757334003120 -->
<g id="node29" class="node">
<title>2757334003120</title>
<ellipse fill="none" stroke="black" cx="3857.11" cy="-458" rx="80.52" ry="18"/>
<text text-anchor="middle" x="3857.11" y="-452" font-family="Times New Roman,serif" font-size="15.00">Suspend duration</text>
</g>
<!-- 2757333999904&#45;&#45;2757334003120 -->
<g id="edge17" class="edge">
<title>2757333999904&#45;&#45;2757334003120</title>
<path fill="none" stroke="black" d="M3540.91,-482.93C3591.58,-478.92 3704.63,-469.98 3780.64,-463.97"/>
</g>
<!-- 2757334006432 -->
<g id="node35" class="node">
<title>2757334006432</title>
<ellipse fill="none" stroke="black" cx="3131.36" cy="-431" rx="94.86" ry="18"/>
<text text-anchor="middle" x="3131.36" y="-425" font-family="Times New Roman,serif" font-size="15.00">Inspect BAG objects</text>
</g>
<!-- 2757334006768&#45;&#45;2757334006432 -->
<g id="edge25" class="edge">
<title>2757334006768&#45;&#45;2757334006432</title>
<path fill="none" stroke="black" d="M2792.96,-369.64C2848.06,-379.66 2979.76,-403.61 3061.36,-418.45"/>
</g>
<!-- 2757334006672 -->
<g id="node36" class="node">
<title>2757334006672</title>
<ellipse fill="none" stroke="black" cx="3131.36" cy="-377" rx="121.47" ry="18"/>
<text text-anchor="middle" x="3131.36" y="-371" font-family="Times New Roman,serif" font-size="15.00">OLO communication active</text>
</g>
<!-- 2757334006768&#45;&#45;2757334006672 -->
<g id="edge26" class="edge">
<title>2757334006768&#45;&#45;2757334006672</title>
<path fill="none" stroke="black" d="M2793.83,-365.87C2839.18,-367.37 2934.49,-370.52 3012.15,-373.09"/>
</g>
<!-- 2757333991504 -->
<g id="node38" class="node">
<title>2757333991504</title>
<ellipse fill="none" stroke="black" cx="3131.36" cy="-323" rx="131.19" ry="18"/>
<text text-anchor="middle" x="3131.36" y="-317" font-family="Times New Roman,serif" font-size="15.00">Dispatch confirmation receipt</text>
</g>
<!-- 2757333992080&#45;&#45;2757333991504 -->
<g id="edge28" class="edge">
<title>2757333992080&#45;&#45;2757333991504</title>
<path fill="none" stroke="black" d="M2811.94,-312.47C2859.35,-314.04 2936.59,-316.59 3003.12,-318.79"/>
</g>
<!-- 2757334007392 -->
<g id="node39" class="node">
<title>2757334007392</title>
<ellipse fill="black" stroke="black" cx="3131.36" cy="-284" rx="2.7" ry="2.7"/>
</g>
<!-- 2757333992080&#45;&#45;2757334007392 -->
<g id="edge29" class="edge">
<title>2757333992080&#45;&#45;2757334007392</title>
<path fill="none" stroke="black" d="M2811.21,-307.74C2902.46,-300.95 3106.39,-285.78 3128.42,-284.14"/>
</g>
<!-- 2757333991792 -->
<g id="node42" class="node">
<title>2757333991792</title>
<ellipse fill="none" stroke="black" cx="3131.36" cy="-245" rx="132.73" ry="18"/>
<text text-anchor="middle" x="3131.36" y="-239" font-family="Times New Roman,serif" font-size="15.00">Create subcases completeness</text>
</g>
<!-- 2757333993376&#45;&#45;2757333991792 -->
<g id="edge32" class="edge">
<title>2757333993376&#45;&#45;2757333991792</title>
<path fill="none" stroke="black" d="M2793.54,-206.02C2842.05,-211.64 2948.48,-223.95 3028.81,-233.25"/>
</g>
<!-- 2757334007728 -->
<g id="node43" class="node">
<title>2757334007728</title>
<ellipse fill="none" stroke="black" cx="3131.36" cy="-191" rx="140.41" ry="18"/>
<text text-anchor="middle" x="3131.36" y="-185" font-family="Times New Roman,serif" font-size="15.00">WAW permit aspect considered</text>
</g>
<!-- 2757333993376&#45;&#45;2757334007728 -->
<g id="edge33" class="edge">
<title>2757333993376&#45;&#45;2757334007728</title>
<path fill="none" stroke="black" d="M2793.83,-202.13C2835.83,-200.74 2920.71,-197.93 2994.71,-195.49"/>
</g>
<!-- 2757334001296 -->
<g id="node45" class="node">
<title>2757334001296</title>
<ellipse fill="none" stroke="black" cx="3131.36" cy="-137" rx="27" ry="18"/>
<text text-anchor="middle" x="3131.36" y="-131" font-family="Times New Roman,serif" font-size="15.00">seq</text>
</g>
<!-- 2757334000336&#45;&#45;2757334001296 -->
<g id="edge43" class="edge">
<title>2757334000336&#45;&#45;2757334001296</title>
<path fill="none" stroke="black" d="M2811.94,-147.53C2888.41,-145 3042.45,-139.91 3104.04,-137.87"/>
</g>
<!-- 2757333998656 -->
<g id="node54" class="node">
<title>2757333998656</title>
<ellipse fill="black" stroke="black" cx="3131.36" cy="-98" rx="2.7" ry="2.7"/>
</g>
<!-- 2757334000336&#45;&#45;2757333998656 -->
<g id="edge44" class="edge">
<title>2757334000336&#45;&#45;2757333998656</title>
<path fill="none" stroke="black" d="M2809.42,-143.1C2899.73,-130.41 3106.09,-101.41 3128.4,-98.28"/>
</g>
<!-- 2757333995248 -->
<g id="node46" class="node">
<title>2757333995248</title>
<ellipse fill="none" stroke="black" cx="3513.68" cy="-164" rx="27" ry="18"/>
<text text-anchor="middle" x="3513.68" y="-158" font-family="Times New Roman,serif" font-size="15.00">xor</text>
</g>
<!-- 2757334001296&#45;&#45;2757333995248 -->
<g id="edge41" class="edge">
<title>2757334001296&#45;&#45;2757333995248</title>
<path fill="none" stroke="black" d="M3158.5,-138.86C3227.98,-143.79 3416.67,-157.18 3486.36,-162.13"/>
</g>
<!-- 2757333996736 -->
<g id="node53" class="node">
<title>2757333996736</title>
<ellipse fill="none" stroke="black" cx="3513.68" cy="-110" rx="143.99" ry="18"/>
<text text-anchor="middle" x="3513.68" y="-104" font-family="Times New Roman,serif" font-size="15.00">Subcases completeness achieved</text>
</g>
<!-- 2757334001296&#45;&#45;2757333996736 -->
<g id="edge42" class="edge">
<title>2757334001296&#45;&#45;2757333996736</title>
<path fill="none" stroke="black" d="M3158.5,-135.14C3205.07,-131.84 3305.2,-124.73 3387.16,-118.91"/>
</g>
<!-- 2757333999472 -->
<g id="node47" class="node">
<title>2757333999472</title>
<ellipse fill="none" stroke="black" cx="3857.11" cy="-191" rx="135.29" ry="18"/>
<text text-anchor="middle" x="3857.11" y="-185" font-family="Times New Roman,serif" font-size="15.00">Handle subcases completeness</text>
</g>
<!-- 2757333995248&#45;&#45;2757333999472 -->
<g id="edge35" class="edge">
<title>2757333995248&#45;&#45;2757333999472</title>
<path fill="none" stroke="black" d="M3540.91,-166.07C3583.07,-169.41 3668.42,-176.16 3739.68,-181.79"/>
</g>
<!-- 2757333993808 -->
<g id="node48" class="node">
<title>2757333993808</title>
<ellipse fill="none" stroke="black" cx="3857.11" cy="-137" rx="27" ry="18"/>
<text text-anchor="middle" x="3857.11" y="-131" font-family="Times New Roman,serif" font-size="15.00">seq</text>
</g>
<!-- 2757333995248&#45;&#45;2757333993808 -->
<g id="edge40" class="edge">
<title>2757333995248&#45;&#45;2757333993808</title>
<path fill="none" stroke="black" d="M3540.91,-161.93C3604.46,-156.9 3766.15,-144.11 3829.8,-139.08"/>
</g>
<!-- 2757334002928 -->
<g id="node49" class="node">
<title>2757334002928</title>
<ellipse fill="none" stroke="black" cx="4182.11" cy="-218" rx="84.11" ry="18"/>
<text text-anchor="middle" x="4182.11" y="-212" font-family="Times New Roman,serif" font-size="15.00">Modify procedure</text>
</g>
<!-- 2757333993808&#45;&#45;2757334002928 -->
<g id="edge36" class="edge">
<title>2757333993808&#45;&#45;2757334002928</title>
<path fill="none" stroke="black" d="M3882.92,-143.22C3934.62,-156.19 4054.98,-186.37 4125.97,-204.17"/>
</g>
<!-- 2757333995776 -->
<g id="node50" class="node">
<title>2757333995776</title>
<ellipse fill="none" stroke="black" cx="4182.11" cy="-164" rx="81.55" ry="18"/>
<text text-anchor="middle" x="4182.11" y="-158" font-family="Times New Roman,serif" font-size="15.00">Complete request</text>
</g>
<!-- 2757333993808&#45;&#45;2757333995776 -->
<g id="edge37" class="edge">
<title>2757333993808&#45;&#45;2757333995776</title>
<path fill="none" stroke="black" d="M3884.27,-139.19C3931.8,-143.16 4034,-151.7 4105.12,-157.65"/>
</g>
<!-- 2757332596304 -->
<g id="node51" class="node">
<title>2757332596304</title>
<ellipse fill="none" stroke="black" cx="4182.11" cy="-110" rx="140.41" ry="18"/>
<text text-anchor="middle" x="4182.11" y="-104" font-family="Times New Roman,serif" font-size="15.00">Time for supplying missing data</text>
</g>
<!-- 2757333993808&#45;&#45;2757332596304 -->
<g id="edge38" class="edge">
<title>2757333993808&#45;&#45;2757332596304</title>
<path fill="none" stroke="black" d="M3884.27,-134.81C3923.02,-131.57 3998.09,-125.3 4063.04,-119.87"/>
</g>
<!-- 2757332593040 -->
<g id="node52" class="node">
<title>2757332593040</title>
<ellipse fill="none" stroke="black" cx="4182.11" cy="-56" rx="152.18" ry="18"/>
<text text-anchor="middle" x="4182.11" y="-50" font-family="Times New Roman,serif" font-size="15.00">Draft letter requesting missing data</text>
</g>
<!-- 2757333993808&#45;&#45;2757332593040 -->
<g id="edge39" class="edge">
<title>2757333993808&#45;&#45;2757332593040</title>
<path fill="none" stroke="black" d="M3882.92,-130.78C3932.04,-118.46 4043.12,-90.6 4114.97,-72.59"/>
</g>
<!-- 2757334001776 -->
<g id="node60" class="node">
<title>2757334001776</title>
<ellipse fill="none" stroke="black" cx="1896.87" cy="-234" rx="27" ry="18"/>
<text text-anchor="middle" x="1896.87" y="-228" font-family="Times New Roman,serif" font-size="15.00">seq</text>
</g>
<!-- 2757333997840&#45;&#45;2757334001776 -->
<g id="edge56" class="edge">
<title>2757333997840&#45;&#45;2757334001776</title>
<path fill="none" stroke="black" d="M1642.66,-234C1695.93,-234 1816.06,-234 1869.44,-234"/>
</g>
<!-- 2757334007104 -->
<g id="node63" class="node">
<title>2757334007104</title>
<ellipse fill="none" stroke="black" cx="1896.87" cy="-176" rx="27" ry="18"/>
<text text-anchor="middle" x="1896.87" y="-170" font-family="Times New Roman,serif" font-size="15.00">seq</text>
</g>
<!-- 2757333997840&#45;&#45;2757334007104 -->
<g id="edge59" class="edge">
<title>2757333997840&#45;&#45;2757334007104</title>
<path fill="none" stroke="black" d="M1641.67,-228.75C1694.88,-217.71 1817.84,-192.19 1870.83,-181.2"/>
</g>
<!-- 2757333996832 -->
<g id="node61" class="node">
<title>2757333996832</title>
<ellipse fill="none" stroke="black" cx="2225.96" cy="-284" rx="119.93" ry="18"/>
<text text-anchor="middle" x="2225.96" y="-278" font-family="Times New Roman,serif" font-size="15.00">Terminate request message</text>
</g>
<!-- 2757334001776&#45;&#45;2757333996832 -->
<g id="edge54" class="edge">
<title>2757334001776&#45;&#45;2757333996832</title>
<path fill="none" stroke="black" d="M1923.53,-237.92C1969.62,-244.97 2068.29,-260.05 2140.22,-271.05"/>
</g>
<!-- 2757333994048 -->
<g id="node62" class="node">
<title>2757333994048</title>
<ellipse fill="none" stroke="black" cx="2225.96" cy="-230" rx="158.32" ry="18"/>
<text text-anchor="middle" x="2225.96" y="-224" font-family="Times New Roman,serif" font-size="15.00">Record senddate termination request</text>
</g>
<!-- 2757334001776&#45;&#45;2757333994048 -->
<g id="edge55" class="edge">
<title>2757334001776&#45;&#45;2757333994048</title>
<path fill="none" stroke="black" d="M1924.36,-233.68C1956.37,-233.28 2012.87,-232.59 2068.32,-231.92"/>
</g>
<!-- 2757333999328 -->
<g id="node64" class="node">
<title>2757333999328</title>
<ellipse fill="none" stroke="black" cx="2225.96" cy="-176" rx="173.67" ry="18"/>
<text text-anchor="middle" x="2225.96" y="-170" font-family="Times New Roman,serif" font-size="15.00">Prematurely terminated phase procedure</text>
</g>
<!-- 2757334007104&#45;&#45;2757333999328 -->
<g id="edge57" class="edge">
<title>2757334007104&#45;&#45;2757333999328</title>
<path fill="none" stroke="black" d="M1924.36,-176C1953.26,-176 2002.1,-176 2052.11,-176"/>
</g>
<!-- 2757333993136 -->
<g id="node65" class="node">
<title>2757333993136</title>
<ellipse fill="none" stroke="black" cx="2225.96" cy="-122" rx="92.81" ry="18"/>
<text text-anchor="middle" x="2225.96" y="-116" font-family="Times New Roman,serif" font-size="15.00">Phase archived case</text>
</g>
<!-- 2757334007104&#45;&#45;2757333993136 -->
<g id="edge58" class="edge">
<title>2757334007104&#45;&#45;2757333993136</title>
<path fill="none" stroke="black" d="M1923.53,-171.76C1972.63,-163.66 2081.41,-145.7 2153.96,-133.72"/>
</g>
<!-- 2757333998272 -->
<g id="node69" class="node">
<title>2757333998272</title>
<ellipse fill="none" stroke="black" cx="1896.87" cy="-97" rx="119.42" ry="18"/>
<text text-anchor="middle" x="1896.87" y="-91" font-family="Times New Roman,serif" font-size="15.00">Phase procedure cancelled</text>
</g>
<!-- 2757333994912&#45;&#45;2757333998272 -->
<g id="edge63" class="edge">
<title>2757333994912&#45;&#45;2757333998272</title>
<path fill="none" stroke="black" d="M1642.41,-74.33C1676.63,-77.39 1738.74,-82.95 1792.91,-87.79"/>
</g>
<!-- 2757333995008 -->
<g id="node70" class="node">
<title>2757333995008</title>
<ellipse fill="none" stroke="black" cx="1896.87" cy="-43" rx="63.63" ry="18"/>
<text text-anchor="middle" x="1896.87" y="-37" font-family="Times New Roman,serif" font-size="15.00">Log deadline</text>
</g>
<!-- 2757333994912&#45;&#45;2757333995008 -->
<g id="edge64" class="edge">
<title>2757333994912&#45;&#45;2757333995008</title>
<path fill="none" stroke="black" d="M1642.41,-69.3C1686.39,-64.73 1776.43,-55.39 1836.48,-49.16"/>
</g>
<!-- 2757333994816 -->
<g id="node73" class="node">
<title>2757333994816</title>
<ellipse fill="none" stroke="black" cx="596.86" cy="-153" rx="97.93" ry="18"/>
<text text-anchor="middle" x="596.86" y="-147" font-family="Times New Roman,serif" font-size="15.00">Recover missing data</text>
</g>
<!-- 2757334001680&#45;&#45;2757333994816 -->
<g id="edge71" class="edge">
<title>2757334001680&#45;&#45;2757333994816</title>
<path fill="none" stroke="black" d="M268.45,-177.99C317.92,-174.22 426.93,-165.9 505.6,-159.89"/>
</g>
<!-- 2757333995680 -->
<g id="node74" class="node">
<title>2757333995680</title>
<ellipse fill="none" stroke="black" cx="596.86" cy="-99" rx="168.56" ry="18"/>
<text text-anchor="middle" x="596.86" y="-93" font-family="Times New Roman,serif" font-size="15.00">Phase requested additional information</text>
</g>
<!-- 2757334001680&#45;&#45;2757333995680 -->
<g id="edge72" class="edge">
<title>2757334001680&#45;&#45;2757333995680</title>
<path fill="none" stroke="black" d="M267.03,-174.3C319.55,-162.28 443.48,-133.9 523.31,-115.62"/>
</g>
</g>
</svg>
