<?xml version="1.0" encoding="UTF-8" standalone="no"?>
<!DOCTYPE svg PUBLIC "-//W3C//DTD SVG 1.1//EN"
 "http://www.w3.org/Graphics/SVG/1.1/DTD/svg11.dtd">
<!-- Generated by graphviz version 11.0.0 (20240428.1522)
 -->
<!-- Title: pt Pages: 1 -->
<svg width="3922pt" height="621pt"
 viewBox="0.00 0.00 3921.50 621.00" xmlns="http://www.w3.org/2000/svg" xmlns:xlink="http://www.w3.org/1999/xlink">
<g id="graph0" class="graph" transform="scale(1 1) rotate(0) translate(4 617)">
<title>pt</title>
<polygon fill="white" stroke="none" points="-4,4 -4,-617 3917.5,-617 3917.5,4 -4,4"/>
<!-- 2757328414592 -->
<g id="node1" class="node">
<title>2757328414592</title>
<ellipse fill="none" stroke="black" cx="27" cy="-431" rx="27" ry="18"/>
<text text-anchor="middle" x="27" y="-425" font-family="Times New Roman,serif" font-size="15.00">seq</text>
</g>
<!-- 2757328413776 -->
<g id="node2" class="node">
<title>2757328413776</title>
<ellipse fill="none" stroke="black" cx="215.05" cy="-485" rx="125.05" ry="18"/>
<text text-anchor="middle" x="215.05" y="-479" font-family="Times New Roman,serif" font-size="15.00">Log submission date request</text>
</g>
<!-- 2757328414592&#45;&#45;2757328413776 -->
<g id="edge1" class="edge">
<title>2757328414592&#45;&#45;2757328413776</title>
<path fill="none" stroke="black" d="M52.32,-438.06C78.92,-445.78 122.44,-458.41 157.64,-468.63"/>
</g>
<!-- 2757328418624 -->
<g id="node3" class="node">
<title>2757328418624</title>
<ellipse fill="none" stroke="black" cx="215.05" cy="-431" rx="27" ry="18"/>
<text text-anchor="middle" x="215.05" y="-425" font-family="Times New Roman,serif" font-size="15.00">and</text>
</g>
<!-- 2757328414592&#45;&#45;2757328418624 -->
<g id="edge63" class="edge">
<title>2757328414592&#45;&#45;2757328418624</title>
<path fill="none" stroke="black" d="M54.26,-431C89.62,-431 152.18,-431 187.62,-431"/>
</g>
<!-- 2757328417712 -->
<g id="node65" class="node">
<title>2757328417712</title>
<ellipse fill="none" stroke="black" cx="215.05" cy="-296" rx="27" ry="18"/>
<text text-anchor="middle" x="215.05" y="-290" font-family="Times New Roman,serif" font-size="15.00">xor</text>
</g>
<!-- 2757328414592&#45;&#45;2757328417712 -->
<g id="edge79" class="edge">
<title>2757328414592&#45;&#45;2757328417712</title>
<path fill="none" stroke="black" d="M46.18,-417.81C81.84,-391.93 160.58,-334.8 196.07,-309.04"/>
</g>
<!-- 2757328408064 -->
<g id="node4" class="node">
<title>2757328408064</title>
<ellipse fill="none" stroke="black" cx="495.01" cy="-512" rx="118.91" ry="18"/>
<text text-anchor="middle" x="495.01" y="-506" font-family="Times New Roman,serif" font-size="15.00">Stage application received</text>
</g>
<!-- 2757328418624&#45;&#45;2757328408064 -->
<g id="edge2" class="edge">
<title>2757328418624&#45;&#45;2757328408064</title>
<path fill="none" stroke="black" d="M240.23,-438.05C284.08,-450.83 377.77,-478.13 438.23,-495.74"/>
</g>
<!-- 2757328406336 -->
<g id="node5" class="node">
<title>2757328406336</title>
<ellipse fill="none" stroke="black" cx="495.01" cy="-458" rx="27" ry="18"/>
<text text-anchor="middle" x="495.01" y="-452" font-family="Times New Roman,serif" font-size="15.00">xor</text>
</g>
<!-- 2757328418624&#45;&#45;2757328406336 -->
<g id="edge5" class="edge">
<title>2757328418624&#45;&#45;2757328406336</title>
<path fill="none" stroke="black" d="M242.2,-433.54C295.31,-438.7 415.25,-450.35 468.14,-455.49"/>
</g>
<!-- 2757328412576 -->
<g id="node8" class="node">
<title>2757328412576</title>
<ellipse fill="none" stroke="black" cx="495.01" cy="-404" rx="27" ry="18"/>
<text text-anchor="middle" x="495.01" y="-398" font-family="Times New Roman,serif" font-size="15.00">seq</text>
</g>
<!-- 2757328418624&#45;&#45;2757328412576 -->
<g id="edge62" class="edge">
<title>2757328418624&#45;&#45;2757328412576</title>
<path fill="none" stroke="black" d="M242.2,-428.46C295.31,-423.3 415.25,-411.65 468.14,-406.51"/>
</g>
<!-- 2757328410608 -->
<g id="node6" class="node">
<title>2757328410608</title>
<ellipse fill="black" stroke="black" cx="813.36" cy="-497" rx="2.7" ry="2.7"/>
</g>
<!-- 2757328406336&#45;&#45;2757328410608 -->
<g id="edge3" class="edge">
<title>2757328406336&#45;&#45;2757328410608</title>
<path fill="none" stroke="black" d="M521.9,-461.19C593.32,-470 789.27,-494.15 810.49,-496.77"/>
</g>
<!-- 2757330886464 -->
<g id="node7" class="node">
<title>2757330886464</title>
<ellipse fill="none" stroke="black" cx="813.36" cy="-458" rx="163.44" ry="18"/>
<text text-anchor="middle" x="813.36" y="-452" font-family="Times New Roman,serif" font-size="15.00">Log date termination request received</text>
</g>
<!-- 2757328406336&#45;&#45;2757330886464 -->
<g id="edge4" class="edge">
<title>2757328406336&#45;&#45;2757330886464</title>
<path fill="none" stroke="black" d="M522.44,-458C551.32,-458 600.1,-458 649.49,-458"/>
</g>
<!-- 2757330879744 -->
<g id="node9" class="node">
<title>2757330879744</title>
<ellipse fill="none" stroke="black" cx="813.36" cy="-404" rx="27" ry="18"/>
<text text-anchor="middle" x="813.36" y="-398" font-family="Times New Roman,serif" font-size="15.00">and</text>
</g>
<!-- 2757328412576&#45;&#45;2757330879744 -->
<g id="edge58" class="edge">
<title>2757328412576&#45;&#45;2757330879744</title>
<path fill="none" stroke="black" d="M522.44,-404C582.14,-404 726.82,-404 786.23,-404"/>
</g>
<!-- 2757330880080 -->
<g id="node62" class="node">
<title>2757330880080</title>
<ellipse fill="none" stroke="black" cx="813.36" cy="-350" rx="27" ry="18"/>
<text text-anchor="middle" x="813.36" y="-344" font-family="Times New Roman,serif" font-size="15.00">xor</text>
</g>
<!-- 2757328412576&#45;&#45;2757330880080 -->
<g id="edge61" class="edge">
<title>2757328412576&#45;&#45;2757330880080</title>
<path fill="none" stroke="black" d="M521.63,-399.63C581.06,-389.48 727.72,-364.45 786.94,-354.34"/>
</g>
<!-- 2757330890400 -->
<g id="node10" class="node">
<title>2757330890400</title>
<ellipse fill="none" stroke="black" cx="1188.52" cy="-454" rx="27" ry="18"/>
<text text-anchor="middle" x="1188.52" y="-448" font-family="Times New Roman,serif" font-size="15.00">xor</text>
</g>
<!-- 2757330879744&#45;&#45;2757330890400 -->
<g id="edge8" class="edge">
<title>2757330879744&#45;&#45;2757330890400</title>
<path fill="none" stroke="black" d="M840.3,-407.48C908.73,-416.64 1093.52,-441.4 1161.75,-450.55"/>
</g>
<!-- 2757330886560 -->
<g id="node13" class="node">
<title>2757330886560</title>
<ellipse fill="none" stroke="black" cx="1188.52" cy="-400" rx="27" ry="18"/>
<text text-anchor="middle" x="1188.52" y="-394" font-family="Times New Roman,serif" font-size="15.00">seq</text>
</g>
<!-- 2757330879744&#45;&#45;2757330886560 -->
<g id="edge57" class="edge">
<title>2757330879744&#45;&#45;2757330886560</title>
<path fill="none" stroke="black" d="M840.6,-403.72C909.12,-402.98 1092.83,-401.02 1161.31,-400.28"/>
</g>
<!-- 2757330887856 -->
<g id="node11" class="node">
<title>2757330887856</title>
<ellipse fill="black" stroke="black" cx="1518.13" cy="-493" rx="2.7" ry="2.7"/>
</g>
<!-- 2757330890400&#45;&#45;2757330887856 -->
<g id="edge6" class="edge">
<title>2757330890400&#45;&#45;2757330887856</title>
<path fill="none" stroke="black" d="M1215.5,-457.09C1288.75,-465.81 1493.05,-490.13 1515.18,-492.77"/>
</g>
<!-- 2757330883632 -->
<g id="node12" class="node">
<title>2757330883632</title>
<ellipse fill="none" stroke="black" cx="1518.13" cy="-454" rx="63.63" ry="18"/>
<text text-anchor="middle" x="1518.13" y="-448" font-family="Times New Roman,serif" font-size="15.00">Log deadline</text>
</g>
<!-- 2757330890400&#45;&#45;2757330883632 -->
<g id="edge7" class="edge">
<title>2757330890400&#45;&#45;2757330883632</title>
<path fill="none" stroke="black" d="M1215.77,-454C1267.1,-454 1381.99,-454 1454.15,-454"/>
</g>
<!-- 2757330885216 -->
<g id="node14" class="node">
<title>2757330885216</title>
<ellipse fill="none" stroke="black" cx="1518.13" cy="-400" rx="27" ry="18"/>
<text text-anchor="middle" x="1518.13" y="-394" font-family="Times New Roman,serif" font-size="15.00">and</text>
</g>
<!-- 2757330886560&#45;&#45;2757330885216 -->
<g id="edge43" class="edge">
<title>2757330886560&#45;&#45;2757330885216</title>
<path fill="none" stroke="black" d="M1215.77,-400C1277.12,-400 1429.28,-400 1490.75,-400"/>
</g>
<!-- 2757330879648 -->
<g id="node49" class="node">
<title>2757330879648</title>
<ellipse fill="none" stroke="black" cx="1518.13" cy="-337" rx="27" ry="18"/>
<text text-anchor="middle" x="1518.13" y="-331" font-family="Times New Roman,serif" font-size="15.00">xor</text>
</g>
<!-- 2757330886560&#45;&#45;2757330879648 -->
<g id="edge56" class="edge">
<title>2757330886560&#45;&#45;2757330879648</title>
<path fill="none" stroke="black" d="M1214.95,-395.11C1276.14,-383.34 1430.99,-353.56 1491.93,-341.84"/>
</g>
<!-- 2757330879456 -->
<g id="node15" class="node">
<title>2757330879456</title>
<ellipse fill="none" stroke="black" cx="1825.21" cy="-454" rx="153.2" ry="18"/>
<text text-anchor="middle" x="1825.21" y="-448" font-family="Times New Roman,serif" font-size="15.00">Record senddate acknowledgement</text>
</g>
<!-- 2757330885216&#45;&#45;2757330879456 -->
<g id="edge9" class="edge">
<title>2757330885216&#45;&#45;2757330879456</title>
<path fill="none" stroke="black" d="M1544.61,-404.51C1586.72,-411.96 1672.66,-427.18 1738.21,-438.78"/>
</g>
<!-- 2757328140240 -->
<g id="node16" class="node">
<title>2757328140240</title>
<ellipse fill="none" stroke="black" cx="1825.21" cy="-400" rx="27" ry="18"/>
<text text-anchor="middle" x="1825.21" y="-394" font-family="Times New Roman,serif" font-size="15.00">seq</text>
</g>
<!-- 2757330885216&#45;&#45;2757328140240 -->
<g id="edge42" class="edge">
<title>2757330885216&#45;&#45;2757328140240</title>
<path fill="none" stroke="black" d="M1545.4,-400C1603.07,-400 1740.18,-400 1797.89,-400"/>
</g>
<!-- 2757328140384 -->
<g id="node17" class="node">
<title>2757328140384</title>
<ellipse fill="none" stroke="black" cx="2135.88" cy="-454" rx="121.47" ry="18"/>
<text text-anchor="middle" x="2135.88" y="-448" font-family="Times New Roman,serif" font-size="15.00">OLO communication active</text>
</g>
<!-- 2757328140240&#45;&#45;2757328140384 -->
<g id="edge10" class="edge">
<title>2757328140240&#45;&#45;2757328140384</title>
<path fill="none" stroke="black" d="M1851.74,-404.46C1895.94,-412.2 1988.44,-428.38 2055.72,-440.15"/>
</g>
<!-- 2757328135872 -->
<g id="node18" class="node">
<title>2757328135872</title>
<ellipse fill="none" stroke="black" cx="2135.88" cy="-400" rx="27" ry="18"/>
<text text-anchor="middle" x="2135.88" y="-394" font-family="Times New Roman,serif" font-size="15.00">xor</text>
</g>
<!-- 2757328140240&#45;&#45;2757328135872 -->
<g id="edge41" class="edge">
<title>2757328140240&#45;&#45;2757328135872</title>
<path fill="none" stroke="black" d="M1852.53,-400C1910.85,-400 2050.38,-400 2108.63,-400"/>
</g>
<!-- 2757328126224 -->
<g id="node19" class="node">
<title>2757328126224</title>
<ellipse fill="black" stroke="black" cx="2320.35" cy="-439" rx="2.7" ry="2.7"/>
</g>
<!-- 2757328135872&#45;&#45;2757328126224 -->
<g id="edge11" class="edge">
<title>2757328135872&#45;&#45;2757328126224</title>
<path fill="none" stroke="black" d="M2161.87,-405.34C2207.94,-415.19 2302.91,-435.48 2317.46,-438.6"/>
</g>
<!-- 2757328127808 -->
<g id="node20" class="node">
<title>2757328127808</title>
<ellipse fill="none" stroke="black" cx="2320.35" cy="-400" rx="27" ry="18"/>
<text text-anchor="middle" x="2320.35" y="-394" font-family="Times New Roman,serif" font-size="15.00">and</text>
</g>
<!-- 2757328135872&#45;&#45;2757328127808 -->
<g id="edge40" class="edge">
<title>2757328135872&#45;&#45;2757328127808</title>
<path fill="none" stroke="black" d="M2163.03,-400C2197.62,-400 2258.25,-400 2292.96,-400"/>
</g>
<!-- 2757328140720 -->
<g id="node21" class="node">
<title>2757328140720</title>
<ellipse fill="none" stroke="black" cx="2428.56" cy="-556" rx="45.21" ry="18"/>
<text text-anchor="middle" x="2428.56" y="-550" font-family="Times New Roman,serif" font-size="15.00">xor loop</text>
</g>
<!-- 2757328127808&#45;&#45;2757328140720 -->
<g id="edge14" class="edge">
<title>2757328127808&#45;&#45;2757328140720</title>
<path fill="none" stroke="black" d="M2332.52,-416.4C2352.65,-445.97 2394.86,-507.97 2415.58,-538.4"/>
</g>
<!-- 2757328139280 -->
<g id="node24" class="node">
<title>2757328139280</title>
<ellipse fill="none" stroke="black" cx="2428.56" cy="-400" rx="27" ry="18"/>
<text text-anchor="middle" x="2428.56" y="-394" font-family="Times New Roman,serif" font-size="15.00">seq</text>
</g>
<!-- 2757328127808&#45;&#45;2757328139280 -->
<g id="edge39" class="edge">
<title>2757328127808&#45;&#45;2757328139280</title>
<path fill="none" stroke="black" d="M2347.61,-400C2363.95,-400 2384.89,-400 2401.24,-400"/>
</g>
<!-- 2757328140576 -->
<g id="node22" class="node">
<title>2757328140576</title>
<ellipse fill="none" stroke="black" cx="2726.95" cy="-595" rx="131.19" ry="18"/>
<text text-anchor="middle" x="2726.95" y="-589" font-family="Times New Roman,serif" font-size="15.00">Dispatch confirmation receipt</text>
</g>
<!-- 2757328140720&#45;&#45;2757328140576 -->
<g id="edge12" class="edge">
<title>2757328140720&#45;&#45;2757328140576</title>
<path fill="none" stroke="black" d="M2472.03,-561.59C2513.25,-567.01 2577.23,-575.43 2630.66,-582.46"/>
</g>
<!-- 2757328126512 -->
<g id="node23" class="node">
<title>2757328126512</title>
<ellipse fill="black" stroke="black" cx="2726.95" cy="-556" rx="2.7" ry="2.7"/>
</g>
<!-- 2757328140720&#45;&#45;2757328126512 -->
<g id="edge13" class="edge">
<title>2757328140720&#45;&#45;2757328126512</title>
<path fill="none" stroke="black" d="M2474.26,-556C2551.56,-556 2703.9,-556 2723.79,-556"/>
</g>
<!-- 2757328134240 -->
<g id="node25" class="node">
<title>2757328134240</title>
<ellipse fill="none" stroke="black" cx="2726.95" cy="-517" rx="27" ry="18"/>
<text text-anchor="middle" x="2726.95" y="-511" font-family="Times New Roman,serif" font-size="15.00">xor</text>
</g>
<!-- 2757328139280&#45;&#45;2757328134240 -->
<g id="edge17" class="edge">
<title>2757328139280&#45;&#45;2757328134240</title>
<path fill="none" stroke="black" d="M2452.33,-408.99C2507.5,-430.76 2647.86,-486.17 2703.11,-507.98"/>
</g>
<!-- 2757328141776 -->
<g id="node28" class="node">
<title>2757328141776</title>
<ellipse fill="none" stroke="black" cx="2726.95" cy="-463" rx="27" ry="18"/>
<text text-anchor="middle" x="2726.95" y="-457" font-family="Times New Roman,serif" font-size="15.00">xor</text>
</g>
<!-- 2757328139280&#45;&#45;2757328141776 -->
<g id="edge24" class="edge">
<title>2757328139280&#45;&#45;2757328141776</title>
<path fill="none" stroke="black" d="M2454.83,-405.37C2510.83,-417.27 2644.81,-445.75 2700.74,-457.64"/>
</g>
<!-- 2757328133136 -->
<g id="node35" class="node">
<title>2757328133136</title>
<ellipse fill="none" stroke="black" cx="2726.95" cy="-409" rx="136.82" ry="18"/>
<text text-anchor="middle" x="2726.95" y="-403" font-family="Times New Roman,serif" font-size="15.00">Send to the competent authority</text>
</g>
<!-- 2757328139280&#45;&#45;2757328133136 -->
<g id="edge25" class="edge">
<title>2757328139280&#45;&#45;2757328133136</title>
<path fill="none" stroke="black" d="M2455.87,-400.8C2487.03,-401.75 2541.28,-403.39 2593.02,-404.96"/>
</g>
<!-- 2757328140768 -->
<g id="node36" class="node">
<title>2757328140768</title>
<ellipse fill="none" stroke="black" cx="2726.95" cy="-355" rx="27" ry="18"/>
<text text-anchor="middle" x="2726.95" y="-349" font-family="Times New Roman,serif" font-size="15.00">xor</text>
</g>
<!-- 2757328139280&#45;&#45;2757328140768 -->
<g id="edge28" class="edge">
<title>2757328139280&#45;&#45;2757328140768</title>
<path fill="none" stroke="black" d="M2455.35,-396.09C2511.54,-387.55 2644.49,-367.37 2700.44,-358.87"/>
</g>
<!-- 2757328141200 -->
<g id="node39" class="node">
<title>2757328141200</title>
<ellipse fill="none" stroke="black" cx="2726.95" cy="-301" rx="147.06" ry="18"/>
<text text-anchor="middle" x="2726.95" y="-295" font-family="Times New Roman,serif" font-size="15.00">Standard procedure without MER</text>
</g>
<!-- 2757328139280&#45;&#45;2757328141200 -->
<g id="edge29" class="edge">
<title>2757328139280&#45;&#45;2757328141200</title>
<path fill="none" stroke="black" d="M2453.32,-392.07C2501.05,-376.12 2609.58,-339.87 2674.39,-318.22"/>
</g>
<!-- 2757328129776 -->
<g id="node40" class="node">
<title>2757328129776</title>
<ellipse fill="none" stroke="black" cx="2726.95" cy="-247" rx="27" ry="18"/>
<text text-anchor="middle" x="2726.95" y="-241" font-family="Times New Roman,serif" font-size="15.00">xor</text>
</g>
<!-- 2757328139280&#45;&#45;2757328129776 -->
<g id="edge38" class="edge">
<title>2757328139280&#45;&#45;2757328129776</title>
<path fill="none" stroke="black" d="M2450.4,-389.24C2504.82,-361.15 2650.74,-285.83 2705.13,-257.75"/>
</g>
<!-- 2757328128528 -->
<g id="node26" class="node">
<title>2757328128528</title>
<ellipse fill="black" stroke="black" cx="3096.99" cy="-552" rx="2.7" ry="2.7"/>
</g>
<!-- 2757328134240&#45;&#45;2757328128528 -->
<g id="edge15" class="edge">
<title>2757328134240&#45;&#45;2757328128528</title>
<path fill="none" stroke="black" d="M2754.12,-519.49C2833.94,-527.08 3070.26,-549.55 3094.05,-551.82"/>
</g>
<!-- 2757328138464 -->
<g id="node27" class="node">
<title>2757328138464</title>
<ellipse fill="none" stroke="black" cx="3096.99" cy="-513" rx="116.86" ry="18"/>
<text text-anchor="middle" x="3096.99" y="-507" font-family="Times New Roman,serif" font-size="15.00">Applicant is a stakeholder</text>
</g>
<!-- 2757328134240&#45;&#45;2757328138464 -->
<g id="edge16" class="edge">
<title>2757328134240&#45;&#45;2757328138464</title>
<path fill="none" stroke="black" d="M2754.42,-516.71C2801.06,-516.21 2900.5,-515.12 2980.12,-514.26"/>
</g>
<!-- 2757328129008 -->
<g id="node29" class="node">
<title>2757328129008</title>
<ellipse fill="black" stroke="black" cx="3096.99" cy="-467" rx="2.7" ry="2.7"/>
</g>
<!-- 2757328141776&#45;&#45;2757328129008 -->
<g id="edge18" class="edge">
<title>2757328141776&#45;&#45;2757328129008</title>
<path fill="none" stroke="black" d="M2754.42,-463.29C2834.52,-464.16 3070.32,-466.72 3094.06,-466.98"/>
</g>
<!-- 2757328141584 -->
<g id="node30" class="node">
<title>2757328141584</title>
<ellipse fill="none" stroke="black" cx="3096.99" cy="-428" rx="27" ry="18"/>
<text text-anchor="middle" x="3096.99" y="-422" font-family="Times New Roman,serif" font-size="15.00">seq</text>
</g>
<!-- 2757328141776&#45;&#45;2757328141584 -->
<g id="edge23" class="edge">
<title>2757328141776&#45;&#45;2757328141584</title>
<path fill="none" stroke="black" d="M2754.12,-460.51C2821.95,-454.06 3002.79,-436.86 3070.2,-430.45"/>
</g>
<!-- 2757328128480 -->
<g id="node31" class="node">
<title>2757328128480</title>
<ellipse fill="none" stroke="black" cx="3358.02" cy="-455" rx="70.8" ry="18"/>
<text text-anchor="middle" x="3358.02" y="-449" font-family="Times New Roman,serif" font-size="15.00">End on request</text>
</g>
<!-- 2757328141584&#45;&#45;2757328128480 -->
<g id="edge19" class="edge">
<title>2757328141584&#45;&#45;2757328128480</title>
<path fill="none" stroke="black" d="M3123.77,-430.69C3162.61,-434.74 3237.36,-442.53 3291.8,-448.2"/>
</g>
<!-- 2757328140192 -->
<g id="node32" class="node">
<title>2757328140192</title>
<ellipse fill="none" stroke="black" cx="3358.02" cy="-401" rx="27" ry="18"/>
<text text-anchor="middle" x="3358.02" y="-395" font-family="Times New Roman,serif" font-size="15.00">xor</text>
</g>
<!-- 2757328141584&#45;&#45;2757328140192 -->
<g id="edge22" class="edge">
<title>2757328141584&#45;&#45;2757328140192</title>
<path fill="none" stroke="black" d="M3123.77,-425.31C3173.3,-420.15 3281.21,-408.9 3330.95,-403.72"/>
</g>
<!-- 2757328139856 -->
<g id="node33" class="node">
<title>2757328139856</title>
<ellipse fill="black" stroke="black" cx="3646.68" cy="-421" rx="2.7" ry="2.7"/>
</g>
<!-- 2757328140192&#45;&#45;2757328139856 -->
<g id="edge20" class="edge">
<title>2757328140192&#45;&#45;2757328139856</title>
<path fill="none" stroke="black" d="M3385.21,-402.83C3451.56,-407.46 3622.43,-419.38 3643.53,-420.85"/>
</g>
<!-- 2757328135536 -->
<g id="node34" class="node">
<title>2757328135536</title>
<ellipse fill="none" stroke="black" cx="3646.68" cy="-382" rx="129.15" ry="18"/>
<text text-anchor="middle" x="3646.68" y="-376" font-family="Times New Roman,serif" font-size="15.00">Compute provisional charges</text>
</g>
<!-- 2757328140192&#45;&#45;2757328135536 -->
<g id="edge21" class="edge">
<title>2757328140192&#45;&#45;2757328135536</title>
<path fill="none" stroke="black" d="M3385.21,-399.26C3417.9,-397.1 3475.97,-393.25 3528.99,-389.73"/>
</g>
<!-- 2757328131792 -->
<g id="node37" class="node">
<title>2757328131792</title>
<ellipse fill="black" stroke="black" cx="3096.99" cy="-367" rx="2.7" ry="2.7"/>
</g>
<!-- 2757328140768&#45;&#45;2757328131792 -->
<g id="edge26" class="edge">
<title>2757328140768&#45;&#45;2757328131792</title>
<path fill="none" stroke="black" d="M2754.42,-355.86C2834.52,-358.47 3070.32,-366.16 3094.06,-366.94"/>
</g>
<!-- 2757328142304 -->
<g id="node38" class="node">
<title>2757328142304</title>
<ellipse fill="none" stroke="black" cx="3096.99" cy="-328" rx="116.35" ry="18"/>
<text text-anchor="middle" x="3096.99" y="-322" font-family="Times New Roman,serif" font-size="15.00">Notify BAG administrator</text>
</g>
<!-- 2757328140768&#45;&#45;2757328142304 -->
<g id="edge27" class="edge">
<title>2757328140768&#45;&#45;2757328142304</title>
<path fill="none" stroke="black" d="M2754.12,-353.08C2802.82,-349.51 2909.76,-341.66 2991.16,-335.69"/>
</g>
<!-- 2757328140816 -->
<g id="node41" class="node">
<title>2757328140816</title>
<ellipse fill="black" stroke="black" cx="3096.99" cy="-274" rx="2.7" ry="2.7"/>
</g>
<!-- 2757328129776&#45;&#45;2757328140816 -->
<g id="edge30" class="edge">
<title>2757328129776&#45;&#45;2757328140816</title>
<path fill="none" stroke="black" d="M2754.12,-248.92C2833.94,-254.78 3070.26,-272.11 3094.05,-273.86"/>
</g>
<!-- 2757328131696 -->
<g id="node42" class="node">
<title>2757328131696</title>
<ellipse fill="none" stroke="black" cx="3096.99" cy="-235" rx="27" ry="18"/>
<text text-anchor="middle" x="3096.99" y="-229" font-family="Times New Roman,serif" font-size="15.00">and</text>
</g>
<!-- 2757328129776&#45;&#45;2757328131696 -->
<g id="edge37" class="edge">
<title>2757328129776&#45;&#45;2757328131696</title>
<path fill="none" stroke="black" d="M2754.42,-246.14C2822.33,-243.92 3002.12,-238.06 3069.76,-235.86"/>
</g>
<!-- 2757328134144 -->
<g id="node43" class="node">
<title>2757328134144</title>
<ellipse fill="none" stroke="black" cx="3358.02" cy="-262" rx="108.16" ry="18"/>
<text text-anchor="middle" x="3358.02" y="-256" font-family="Times New Roman,serif" font-size="15.00">Begin WABOprocedure</text>
</g>
<!-- 2757328131696&#45;&#45;2757328134144 -->
<g id="edge31" class="edge">
<title>2757328131696&#45;&#45;2757328134144</title>
<path fill="none" stroke="black" d="M3123.77,-237.69C3156.6,-241.11 3215.07,-247.2 3265.26,-252.44"/>
</g>
<!-- 2757328133184 -->
<g id="node44" class="node">
<title>2757328133184</title>
<ellipse fill="none" stroke="black" cx="3358.02" cy="-208" rx="27" ry="18"/>
<text text-anchor="middle" x="3358.02" y="-202" font-family="Times New Roman,serif" font-size="15.00">seq</text>
</g>
<!-- 2757328131696&#45;&#45;2757328133184 -->
<g id="edge36" class="edge">
<title>2757328131696&#45;&#45;2757328133184</title>
<path fill="none" stroke="black" d="M3123.77,-232.31C3173.3,-227.15 3281.21,-215.9 3330.95,-210.72"/>
</g>
<!-- 2757328130688 -->
<g id="node45" class="node">
<title>2757328130688</title>
<ellipse fill="none" stroke="black" cx="3646.68" cy="-235" rx="144.5" ry="18"/>
<text text-anchor="middle" x="3646.68" y="-229" font-family="Times New Roman,serif" font-size="15.00">Generate procedure confirmation</text>
</g>
<!-- 2757328133184&#45;&#45;2757328130688 -->
<g id="edge32" class="edge">
<title>2757328133184&#45;&#45;2757328130688</title>
<path fill="none" stroke="black" d="M3385.21,-210.47C3418.11,-213.57 3476.7,-219.08 3530,-224.1"/>
</g>
<!-- 2757328137168 -->
<g id="node46" class="node">
<title>2757328137168</title>
<ellipse fill="none" stroke="black" cx="3646.68" cy="-181" rx="27" ry="18"/>
<text text-anchor="middle" x="3646.68" y="-175" font-family="Times New Roman,serif" font-size="15.00">xor</text>
</g>
<!-- 2757328133184&#45;&#45;2757328137168 -->
<g id="edge35" class="edge">
<title>2757328133184&#45;&#45;2757328137168</title>
<path fill="none" stroke="black" d="M3385.21,-205.53C3439.81,-200.39 3565.19,-188.58 3619.64,-183.45"/>
</g>
<!-- 2757328130928 -->
<g id="node47" class="node">
<title>2757328130928</title>
<ellipse fill="black" stroke="black" cx="3870.34" cy="-201" rx="2.7" ry="2.7"/>
</g>
<!-- 2757328137168&#45;&#45;2757328130928 -->
<g id="edge33" class="edge">
<title>2757328137168&#45;&#45;2757328130928</title>
<path fill="none" stroke="black" d="M3673.54,-183.33C3727.9,-188.24 3850.42,-199.29 3867.38,-200.82"/>
</g>
<!-- 2757328131264 -->
<g id="node48" class="node">
<title>2757328131264</title>
<ellipse fill="none" stroke="black" cx="3870.34" cy="-162" rx="43.16" ry="18"/>
<text text-anchor="middle" x="3870.34" y="-156" font-family="Times New Roman,serif" font-size="15.00">Release</text>
</g>
<!-- 2757328137168&#45;&#45;2757328131264 -->
<g id="edge34" class="edge">
<title>2757328137168&#45;&#45;2757328131264</title>
<path fill="none" stroke="black" d="M3673.54,-178.78C3711.46,-175.53 3782.53,-169.44 3827.81,-165.56"/>
</g>
<!-- 2757328139760 -->
<g id="node50" class="node">
<title>2757328139760</title>
<ellipse fill="black" stroke="black" cx="1825.21" cy="-337" rx="2.7" ry="2.7"/>
</g>
<!-- 2757330879648&#45;&#45;2757328139760 -->
<g id="edge44" class="edge">
<title>2757330879648&#45;&#45;2757328139760</title>
<path fill="none" stroke="black" d="M1545.4,-337C1615.36,-337 1802.2,-337 1822.43,-337"/>
</g>
<!-- 2757328141152 -->
<g id="node51" class="node">
<title>2757328141152</title>
<ellipse fill="none" stroke="black" cx="1825.21" cy="-281" rx="27" ry="18"/>
<text text-anchor="middle" x="1825.21" y="-275" font-family="Times New Roman,serif" font-size="15.00">seq</text>
</g>
<!-- 2757330879648&#45;&#45;2757328141152 -->
<g id="edge55" class="edge">
<title>2757330879648&#45;&#45;2757328141152</title>
<path fill="none" stroke="black" d="M1544.61,-332.32C1602.18,-321.75 1741.72,-296.14 1799.01,-285.63"/>
</g>
<!-- 2757328130448 -->
<g id="node52" class="node">
<title>2757328130448</title>
<ellipse fill="none" stroke="black" cx="2135.88" cy="-281" rx="27" ry="18"/>
<text text-anchor="middle" x="2135.88" y="-275" font-family="Times New Roman,serif" font-size="15.00">xor</text>
</g>
<!-- 2757328141152&#45;&#45;2757328130448 -->
<g id="edge53" class="edge">
<title>2757328141152&#45;&#45;2757328130448</title>
<path fill="none" stroke="black" d="M1852.53,-281C1910.85,-281 2050.38,-281 2108.63,-281"/>
</g>
<!-- 2757328131840 -->
<g id="node61" class="node">
<title>2757328131840</title>
<ellipse fill="none" stroke="black" cx="2135.88" cy="-227" rx="119.42" ry="18"/>
<text text-anchor="middle" x="2135.88" y="-221" font-family="Times New Roman,serif" font-size="15.00">Phase procedure cancelled</text>
</g>
<!-- 2757328141152&#45;&#45;2757328131840 -->
<g id="edge54" class="edge">
<title>2757328141152&#45;&#45;2757328131840</title>
<path fill="none" stroke="black" d="M1851.74,-276.54C1896.01,-268.79 1988.74,-252.57 2056.05,-240.79"/>
</g>
<!-- 2757328129536 -->
<g id="node53" class="node">
<title>2757328129536</title>
<ellipse fill="black" stroke="black" cx="2320.35" cy="-281" rx="2.7" ry="2.7"/>
</g>
<!-- 2757328130448&#45;&#45;2757328129536 -->
<g id="edge45" class="edge">
<title>2757328130448&#45;&#45;2757328129536</title>
<path fill="none" stroke="black" d="M2163.03,-281C2209.54,-281 2303.15,-281 2317.49,-281"/>
</g>
<!-- 2757328132800 -->
<g id="node54" class="node">
<title>2757328132800</title>
<ellipse fill="none" stroke="black" cx="2320.35" cy="-188" rx="27" ry="18"/>
<text text-anchor="middle" x="2320.35" y="-182" font-family="Times New Roman,serif" font-size="15.00">seq</text>
</g>
<!-- 2757328130448&#45;&#45;2757328132800 -->
<g id="edge52" class="edge">
<title>2757328130448&#45;&#45;2757328132800</title>
<path fill="none" stroke="black" d="M2157.82,-270.33C2192.83,-252.49 2262.88,-216.78 2298.1,-198.83"/>
</g>
<!-- 2757328130736 -->
<g id="node55" class="node">
<title>2757328130736</title>
<ellipse fill="none" stroke="black" cx="2428.56" cy="-188" rx="27" ry="18"/>
<text text-anchor="middle" x="2428.56" y="-182" font-family="Times New Roman,serif" font-size="15.00">xor</text>
</g>
<!-- 2757328132800&#45;&#45;2757328130736 -->
<g id="edge48" class="edge">
<title>2757328132800&#45;&#45;2757328130736</title>
<path fill="none" stroke="black" d="M2347.61,-188C2363.95,-188 2384.89,-188 2401.24,-188"/>
</g>
<!-- 2757328139232 -->
<g id="node58" class="node">
<title>2757328139232</title>
<ellipse fill="none" stroke="black" cx="2428.56" cy="-115" rx="27" ry="18"/>
<text text-anchor="middle" x="2428.56" y="-109" font-family="Times New Roman,serif" font-size="15.00">and</text>
</g>
<!-- 2757328132800&#45;&#45;2757328139232 -->
<g id="edge51" class="edge">
<title>2757328132800&#45;&#45;2757328139232</title>
<path fill="none" stroke="black" d="M2339.85,-175.28C2359.23,-161.97 2389.49,-141.17 2408.92,-127.81"/>
</g>
<!-- 2757328132128 -->
<g id="node56" class="node">
<title>2757328132128</title>
<ellipse fill="black" stroke="black" cx="2726.95" cy="-208" rx="2.7" ry="2.7"/>
</g>
<!-- 2757328130736&#45;&#45;2757328132128 -->
<g id="edge46" class="edge">
<title>2757328130736&#45;&#45;2757328132128</title>
<path fill="none" stroke="black" d="M2455.87,-189.77C2524.44,-194.4 2704.72,-206.57 2724.23,-207.88"/>
</g>
<!-- 2757328127568 -->
<g id="node57" class="node">
<title>2757328127568</title>
<ellipse fill="none" stroke="black" cx="2726.95" cy="-169" rx="140.41" ry="18"/>
<text text-anchor="middle" x="2726.95" y="-163" font-family="Times New Roman,serif" font-size="15.00">phase demands only notification</text>
</g>
<!-- 2757328130736&#45;&#45;2757328127568 -->
<g id="edge47" class="edge">
<title>2757328130736&#45;&#45;2757328127568</title>
<path fill="none" stroke="black" d="M2455.87,-186.31C2488.52,-184.22 2546.51,-180.5 2600.41,-177.05"/>
</g>
<!-- 2757328140960 -->
<g id="node59" class="node">
<title>2757328140960</title>
<ellipse fill="none" stroke="black" cx="2726.95" cy="-115" rx="217.18" ry="18"/>
<text text-anchor="middle" x="2726.95" y="-109" font-family="Times New Roman,serif" font-size="15.00">log senddate letter no permit or notification needed</text>
</g>
<!-- 2757328139232&#45;&#45;2757328140960 -->
<g id="edge49" class="edge">
<title>2757328139232&#45;&#45;2757328140960</title>
<path fill="none" stroke="black" d="M2455.87,-115C2469.82,-115 2488.4,-115 2509.31,-115"/>
</g>
<!-- 2757328133328 -->
<g id="node60" class="node">
<title>2757328133328</title>
<ellipse fill="none" stroke="black" cx="2726.95" cy="-61" rx="205.41" ry="18"/>
<text text-anchor="middle" x="2726.95" y="-55" font-family="Times New Roman,serif" font-size="15.00">draft letter for no permit or notification required</text>
</g>
<!-- 2757328139232&#45;&#45;2757328133328 -->
<g id="edge50" class="edge">
<title>2757328139232&#45;&#45;2757328133328</title>
<path fill="none" stroke="black" d="M2455.09,-110.35C2494.76,-103.12 2573.11,-88.85 2635.38,-77.5"/>
</g>
<!-- 2757330881952 -->
<g id="node63" class="node">
<title>2757330881952</title>
<ellipse fill="black" stroke="black" cx="1188.52" cy="-354" rx="2.7" ry="2.7"/>
</g>
<!-- 2757330880080&#45;&#45;2757330881952 -->
<g id="edge59" class="edge">
<title>2757330880080&#45;&#45;2757330881952</title>
<path fill="none" stroke="black" d="M840.6,-350.28C921.23,-351.15 1161.37,-353.72 1185.55,-353.98"/>
</g>
<!-- 2757330893520 -->
<g id="node64" class="node">
<title>2757330893520</title>
<ellipse fill="none" stroke="black" cx="1188.52" cy="-315" rx="173.67" ry="18"/>
<text text-anchor="middle" x="1188.52" y="-309" font-family="Times New Roman,serif" font-size="15.00">Prematurely terminated phase procedure</text>
</g>
<!-- 2757330880080&#45;&#45;2757330893520 -->
<g id="edge60" class="edge">
<title>2757330880080&#45;&#45;2757330893520</title>
<path fill="none" stroke="black" d="M840.6,-347.54C885.31,-343.35 979.07,-334.55 1057.86,-327.16"/>
</g>
<!-- 2757328408544 -->
<g id="node66" class="node">
<title>2757328408544</title>
<ellipse fill="black" stroke="black" cx="495.01" cy="-335" rx="2.7" ry="2.7"/>
</g>
<!-- 2757328417712&#45;&#45;2757328408544 -->
<g id="edge64" class="edge">
<title>2757328417712&#45;&#45;2757328408544</title>
<path fill="none" stroke="black" d="M241.95,-299.63C306.64,-308.71 471.58,-331.85 491.94,-334.71"/>
</g>
<!-- 2757328419008 -->
<g id="node67" class="node">
<title>2757328419008</title>
<ellipse fill="none" stroke="black" cx="495.01" cy="-296" rx="69.26" ry="18"/>
<text text-anchor="middle" x="495.01" y="-290" font-family="Times New Roman,serif" font-size="15.00">Close the case</text>
</g>
<!-- 2757328417712&#45;&#45;2757328419008 -->
<g id="edge65" class="edge">
<title>2757328417712&#45;&#45;2757328419008</title>
<path fill="none" stroke="black" d="M242.45,-296C284.06,-296 366.21,-296 425.33,-296"/>
</g>
<!-- 2757328417280 -->
<g id="node68" class="node">
<title>2757328417280</title>
<ellipse fill="none" stroke="black" cx="495.01" cy="-242" rx="27" ry="18"/>
<text text-anchor="middle" x="495.01" y="-236" font-family="Times New Roman,serif" font-size="15.00">seq</text>
</g>
<!-- 2757328417712&#45;&#45;2757328417280 -->
<g id="edge69" class="edge">
<title>2757328417712&#45;&#45;2757328417280</title>
<path fill="none" stroke="black" d="M241.21,-291.11C294,-280.86 415.8,-257.19 468.71,-246.92"/>
</g>
<!-- 2757328406384 -->
<g id="node72" class="node">
<title>2757328406384</title>
<ellipse fill="none" stroke="black" cx="495.01" cy="-134" rx="27" ry="18"/>
<text text-anchor="middle" x="495.01" y="-128" font-family="Times New Roman,serif" font-size="15.00">seq</text>
</g>
<!-- 2757328417712&#45;&#45;2757328406384 -->
<g id="edge78" class="edge">
<title>2757328417712&#45;&#45;2757328406384</title>
<path fill="none" stroke="black" d="M236.04,-284.35C287.2,-254.53 422.46,-175.7 473.83,-145.76"/>
</g>
<!-- 2757330890928 -->
<g id="node69" class="node">
<title>2757330890928</title>
<ellipse fill="none" stroke="black" cx="813.36" cy="-296" rx="69.78" ry="18"/>
<text text-anchor="middle" x="813.36" y="-290" font-family="Times New Roman,serif" font-size="15.00">MER included</text>
</g>
<!-- 2757328417280&#45;&#45;2757330890928 -->
<g id="edge66" class="edge">
<title>2757328417280&#45;&#45;2757330890928</title>
<path fill="none" stroke="black" d="M521.63,-246.37C571.94,-254.96 684.76,-274.22 754.13,-286.06"/>
</g>
<!-- 2757330884304 -->
<g id="node70" class="node">
<title>2757330884304</title>
<ellipse fill="none" stroke="black" cx="813.36" cy="-242" rx="126.08" ry="18"/>
<text text-anchor="middle" x="813.36" y="-236" font-family="Times New Roman,serif" font-size="15.00">Regular procedure activities</text>
</g>
<!-- 2757328417280&#45;&#45;2757330884304 -->
<g id="edge67" class="edge">
<title>2757328417280&#45;&#45;2757330884304</title>
<path fill="none" stroke="black" d="M522.44,-242C558.67,-242 626.22,-242 687,-242"/>
</g>
<!-- 2757330892320 -->
<g id="node71" class="node">
<title>2757330892320</title>
<ellipse fill="none" stroke="black" cx="813.36" cy="-188" rx="87.69" ry="18"/>
<text text-anchor="middle" x="813.36" y="-182" font-family="Times New Roman,serif" font-size="15.00">Phased application</text>
</g>
<!-- 2757328417280&#45;&#45;2757330892320 -->
<g id="edge68" class="edge">
<title>2757328417280&#45;&#45;2757330892320</title>
<path fill="none" stroke="black" d="M521.63,-237.63C569.73,-229.42 674.98,-211.45 744.76,-199.54"/>
</g>
<!-- 2757328139472 -->
<g id="node73" class="node">
<title>2757328139472</title>
<ellipse fill="none" stroke="black" cx="813.36" cy="-134" rx="27" ry="18"/>
<text text-anchor="middle" x="813.36" y="-128" font-family="Times New Roman,serif" font-size="15.00">and</text>
</g>
<!-- 2757328406384&#45;&#45;2757328139472 -->
<g id="edge72" class="edge">
<title>2757328406384&#45;&#45;2757328139472</title>
<path fill="none" stroke="black" d="M522.44,-134C582.14,-134 726.82,-134 786.23,-134"/>
</g>
<!-- 2757330888384 -->
<g id="node76" class="node">
<title>2757330888384</title>
<ellipse fill="none" stroke="black" cx="813.36" cy="-80" rx="27" ry="18"/>
<text text-anchor="middle" x="813.36" y="-74" font-family="Times New Roman,serif" font-size="15.00">xor</text>
</g>
<!-- 2757328406384&#45;&#45;2757330888384 -->
<g id="edge77" class="edge">
<title>2757328406384&#45;&#45;2757330888384</title>
<path fill="none" stroke="black" d="M521.63,-129.63C581.06,-119.48 727.72,-94.45 786.94,-84.34"/>
</g>
<!-- 2757328133376 -->
<g id="node74" class="node">
<title>2757328133376</title>
<ellipse fill="none" stroke="black" cx="1188.52" cy="-184" rx="175.72" ry="18"/>
<text text-anchor="middle" x="1188.52" y="-178" font-family="Times New Roman,serif" font-size="15.00">Record senddate procedure confirmation</text>
</g>
<!-- 2757328139472&#45;&#45;2757328133376 -->
<g id="edge70" class="edge">
<title>2757328139472&#45;&#45;2757328133376</title>
<path fill="none" stroke="black" d="M840.3,-137.48C889.06,-144.01 996.9,-158.46 1079.55,-169.53"/>
</g>
<!-- 2757328138272 -->
<g id="node75" class="node">
<title>2757328138272</title>
<ellipse fill="none" stroke="black" cx="1188.52" cy="-130" rx="143.99" ry="18"/>
<text text-anchor="middle" x="1188.52" y="-124" font-family="Times New Roman,serif" font-size="15.00">Dispatch procedure confirmation</text>
</g>
<!-- 2757328139472&#45;&#45;2757328138272 -->
<g id="edge71" class="edge">
<title>2757328139472&#45;&#45;2757328138272</title>
<path fill="none" stroke="black" d="M840.6,-133.72C882.82,-133.27 968.78,-132.34 1044.57,-131.53"/>
</g>
<!-- 2757328137888 -->
<g id="node77" class="node">
<title>2757328137888</title>
<ellipse fill="black" stroke="black" cx="1188.52" cy="-84" rx="2.7" ry="2.7"/>
</g>
<!-- 2757330888384&#45;&#45;2757328137888 -->
<g id="edge73" class="edge">
<title>2757330888384&#45;&#45;2757328137888</title>
<path fill="none" stroke="black" d="M840.6,-80.28C921.23,-81.15 1161.37,-83.72 1185.55,-83.98"/>
</g>
<!-- 2757328138224 -->
<g id="node78" class="node">
<title>2757328138224</title>
<ellipse fill="none" stroke="black" cx="1188.52" cy="-45" rx="27" ry="18"/>
<text text-anchor="middle" x="1188.52" y="-39" font-family="Times New Roman,serif" font-size="15.00">seq</text>
</g>
<!-- 2757330888384&#45;&#45;2757328138224 -->
<g id="edge76" class="edge">
<title>2757330888384&#45;&#45;2757328138224</title>
<path fill="none" stroke="black" d="M840.6,-77.54C909.12,-71.11 1092.83,-53.88 1161.31,-47.46"/>
</g>
<!-- 2757328129632 -->
<g id="node79" class="node">
<title>2757328129632</title>
<ellipse fill="none" stroke="black" cx="1518.13" cy="-72" rx="117.89" ry="18"/>
<text text-anchor="middle" x="1518.13" y="-66" font-family="Times New Roman,serif" font-size="15.00">Extend procedure duration</text>
</g>
<!-- 2757328138224&#45;&#45;2757328129632 -->
<g id="edge74" class="edge">
<title>2757328138224&#45;&#45;2757328129632</title>
<path fill="none" stroke="black" d="M1215.77,-47.16C1258.21,-50.66 1344.12,-57.74 1413.39,-63.45"/>
</g>
<!-- 2757328136880 -->
<g id="node80" class="node">
<title>2757328136880</title>
<ellipse fill="none" stroke="black" cx="1518.13" cy="-18" rx="93.83" ry="18"/>
<text text-anchor="middle" x="1518.13" y="-12" font-family="Times New Roman,serif" font-size="15.00">Log date publication</text>
</g>
<!-- 2757328138224&#45;&#45;2757328136880 -->
<g id="edge75" class="edge">
<title>2757328138224&#45;&#45;2757328136880</title>
<path fill="none" stroke="black" d="M1215.77,-42.84C1261.93,-39.03 1359.52,-30.99 1431.19,-25.08"/>
</g>
</g>
</svg>
