<?xml version="1.0" encoding="UTF-8" standalone="no"?>
<!DOCTYPE svg PUBLIC "-//W3C//DTD SVG 1.1//EN"
 "http://www.w3.org/Graphics/SVG/1.1/DTD/svg11.dtd">
<!-- Generated by graphviz version 11.0.0 (20240428.1522)
 -->
<!-- Title: pt Pages: 1 -->
<svg width="2221pt" height="1414pt"
 viewBox="0.00 0.00 2220.75 1413.70" xmlns="http://www.w3.org/2000/svg" xmlns:xlink="http://www.w3.org/1999/xlink">
<g id="graph0" class="graph" transform="scale(1 1) rotate(0) translate(4 1409.7)">
<title>pt</title>
<polygon fill="white" stroke="none" points="-4,4 -4,-1409.7 2216.75,-1409.7 2216.75,4 -4,4"/>
<!-- 2757332416128 -->
<g id="node1" class="node">
<title>2757332416128</title>
<ellipse fill="none" stroke="black" cx="27" cy="-762" rx="27" ry="18"/>
<text text-anchor="middle" x="27" y="-756" font-family="Times New Roman,serif" font-size="15.00">seq</text>
</g>
<!-- 2757332416416 -->
<g id="node2" class="node">
<title>2757332416416</title>
<ellipse fill="none" stroke="black" cx="215.05" cy="-1059" rx="125.05" ry="18"/>
<text text-anchor="middle" x="215.05" y="-1053" font-family="Times New Roman,serif" font-size="15.00">Log submission date request</text>
</g>
<!-- 2757332416128&#45;&#45;2757332416416 -->
<g id="edge1" class="edge">
<title>2757332416128&#45;&#45;2757332416416</title>
<path fill="none" stroke="black" d="M38.27,-778.39C70.42,-829.71 168.99,-987.06 202.65,-1040.79"/>
</g>
<!-- 2757332416752 -->
<g id="node3" class="node">
<title>2757332416752</title>
<ellipse fill="none" stroke="black" cx="215.05" cy="-1005" rx="121.47" ry="18"/>
<text text-anchor="middle" x="215.05" y="-999" font-family="Times New Roman,serif" font-size="15.00">OLO communication active</text>
</g>
<!-- 2757332416128&#45;&#45;2757332416752 -->
<g id="edge2" class="edge">
<title>2757332416128&#45;&#45;2757332416752</title>
<path fill="none" stroke="black" d="M40.21,-777.94C73.35,-821.23 164.89,-940.79 200.05,-986.71"/>
</g>
<!-- 2757332415744 -->
<g id="node4" class="node">
<title>2757332415744</title>
<ellipse fill="none" stroke="black" cx="215.05" cy="-951" rx="27" ry="18"/>
<text text-anchor="middle" x="215.05" y="-945" font-family="Times New Roman,serif" font-size="15.00">and</text>
</g>
<!-- 2757332416128&#45;&#45;2757332415744 -->
<g id="edge37" class="edge">
<title>2757332416128&#45;&#45;2757332415744</title>
<path fill="none" stroke="black" d="M42.6,-776.83C77.29,-812.07 164.38,-900.54 199.26,-935.98"/>
</g>
<!-- 2757332416080 -->
<g id="node39" class="node">
<title>2757332416080</title>
<ellipse fill="none" stroke="black" cx="215.05" cy="-762" rx="27" ry="18"/>
<text text-anchor="middle" x="215.05" y="-756" font-family="Times New Roman,serif" font-size="15.00">xor</text>
</g>
<!-- 2757332416128&#45;&#45;2757332416080 -->
<g id="edge50" class="edge">
<title>2757332416128&#45;&#45;2757332416080</title>
<path fill="none" stroke="black" d="M54.26,-762C89.62,-762 152.18,-762 187.62,-762"/>
</g>
<!-- 2757332413392 -->
<g id="node52" class="node">
<title>2757332413392</title>
<ellipse fill="none" stroke="black" cx="215.05" cy="-658" rx="27" ry="18"/>
<text text-anchor="middle" x="215.05" y="-652" font-family="Times New Roman,serif" font-size="15.00">xor</text>
</g>
<!-- 2757332416128&#45;&#45;2757332413392 -->
<g id="edge55" class="edge">
<title>2757332416128&#45;&#45;2757332413392</title>
<path fill="none" stroke="black" d="M48.26,-750.67C83.96,-730.72 157.65,-689.53 193.53,-669.47"/>
</g>
<!-- 2757332412672 -->
<g id="node57" class="node">
<title>2757332412672</title>
<ellipse fill="none" stroke="black" cx="215.05" cy="-576" rx="27" ry="18"/>
<text text-anchor="middle" x="215.05" y="-570" font-family="Times New Roman,serif" font-size="15.00">xor</text>
</g>
<!-- 2757332416128&#45;&#45;2757332412672 -->
<g id="edge58" class="edge">
<title>2757332416128&#45;&#45;2757332412672</title>
<path fill="none" stroke="black" d="M42.91,-747.09C77.75,-712.27 164.16,-625.87 199.07,-590.98"/>
</g>
<!-- 2757332404848 -->
<g id="node60" class="node">
<title>2757332404848</title>
<ellipse fill="none" stroke="black" cx="215.05" cy="-492" rx="27" ry="18"/>
<text text-anchor="middle" x="215.05" y="-486" font-family="Times New Roman,serif" font-size="15.00">xor</text>
</g>
<!-- 2757332416128&#45;&#45;2757332404848 -->
<g id="edge83" class="edge">
<title>2757332416128&#45;&#45;2757332404848</title>
<path fill="none" stroke="black" d="M39.36,-745.52C72.65,-697.2 169.74,-556.31 202.84,-508.27"/>
</g>
<!-- 2757332414400 -->
<g id="node5" class="node">
<title>2757332414400</title>
<ellipse fill="none" stroke="black" cx="516.51" cy="-1310" rx="118.91" ry="18"/>
<text text-anchor="middle" x="516.51" y="-1304" font-family="Times New Roman,serif" font-size="15.00">Stage application received</text>
</g>
<!-- 2757332415744&#45;&#45;2757332414400 -->
<g id="edge3" class="edge">
<title>2757332415744&#45;&#45;2757332414400</title>
<path fill="none" stroke="black" d="M228.92,-966.43C277.28,-1024.4 448.06,-1229.14 500.25,-1291.7"/>
</g>
<!-- 2757332414064 -->
<g id="node6" class="node">
<title>2757332414064</title>
<ellipse fill="none" stroke="black" cx="516.51" cy="-1256" rx="27" ry="18"/>
<text text-anchor="middle" x="516.51" y="-1250" font-family="Times New Roman,serif" font-size="15.00">xor</text>
</g>
<!-- 2757332415744&#45;&#45;2757332414064 -->
<g id="edge6" class="edge">
<title>2757332415744&#45;&#45;2757332414064</title>
<path fill="none" stroke="black" d="M230.5,-965.71C281.08,-1017.24 449.95,-1189.23 500.86,-1241.08"/>
</g>
<!-- 2757332413728 -->
<g id="node9" class="node">
<title>2757332413728</title>
<ellipse fill="none" stroke="black" cx="516.51" cy="-1067" rx="27" ry="18"/>
<text text-anchor="middle" x="516.51" y="-1061" font-family="Times New Roman,serif" font-size="15.00">seq</text>
</g>
<!-- 2757332415744&#45;&#45;2757332413728 -->
<g id="edge36" class="edge">
<title>2757332415744&#45;&#45;2757332413728</title>
<path fill="none" stroke="black" d="M239.05,-959.91C294.93,-981.56 437.31,-1036.71 492.84,-1058.22"/>
</g>
<!-- 2757332412336 -->
<g id="node7" class="node">
<title>2757332412336</title>
<ellipse fill="black" stroke="black" cx="856.35" cy="-1403" rx="2.7" ry="2.7"/>
</g>
<!-- 2757332414064&#45;&#45;2757332412336 -->
<g id="edge4" class="edge">
<title>2757332414064&#45;&#45;2757332412336</title>
<path fill="none" stroke="black" d="M539.68,-1265.65C611.02,-1296.69 831.35,-1392.56 853.55,-1402.21"/>
</g>
<!-- 2757332412000 -->
<g id="node8" class="node">
<title>2757332412000</title>
<ellipse fill="none" stroke="black" cx="856.35" cy="-1364" rx="163.44" ry="18"/>
<text text-anchor="middle" x="856.35" y="-1358" font-family="Times New Roman,serif" font-size="15.00">Log date termination request received</text>
</g>
<!-- 2757332414064&#45;&#45;2757332412000 -->
<g id="edge5" class="edge">
<title>2757332414064&#45;&#45;2757332412000</title>
<path fill="none" stroke="black" d="M541.27,-1263.59C594.89,-1280.74 726.43,-1322.79 801.17,-1346.68"/>
</g>
<!-- 2757332411328 -->
<g id="node10" class="node">
<title>2757332411328</title>
<ellipse fill="none" stroke="black" cx="856.35" cy="-1310" rx="27" ry="18"/>
<text text-anchor="middle" x="856.35" y="-1304" font-family="Times New Roman,serif" font-size="15.00">xor</text>
</g>
<!-- 2757332413728&#45;&#45;2757332411328 -->
<g id="edge12" class="edge">
<title>2757332413728&#45;&#45;2757332411328</title>
<path fill="none" stroke="black" d="M535.67,-1080.06C594.33,-1122.26 778.31,-1254.59 837.1,-1296.87"/>
</g>
<!-- 2757332410992 -->
<g id="node16" class="node">
<title>2757332410992</title>
<ellipse fill="none" stroke="black" cx="856.35" cy="-1256" rx="27" ry="18"/>
<text text-anchor="middle" x="856.35" y="-1250" font-family="Times New Roman,serif" font-size="15.00">xor</text>
</g>
<!-- 2757332413728&#45;&#45;2757332410992 -->
<g id="edge15" class="edge">
<title>2757332413728&#45;&#45;2757332410992</title>
<path fill="none" stroke="black" d="M537.88,-1078.4C598.09,-1112.08 774.72,-1210.89 834.95,-1244.59"/>
</g>
<!-- 2757332409984 -->
<g id="node19" class="node">
<title>2757332409984</title>
<ellipse fill="none" stroke="black" cx="856.35" cy="-1202" rx="27" ry="18"/>
<text text-anchor="middle" x="856.35" y="-1196" font-family="Times New Roman,serif" font-size="15.00">xor</text>
</g>
<!-- 2757332413728&#45;&#45;2757332409984 -->
<g id="edge18" class="edge">
<title>2757332413728&#45;&#45;2757332409984</title>
<path fill="none" stroke="black" d="M540.2,-1076.07C601.75,-1100.66 771.33,-1168.43 832.76,-1192.97"/>
</g>
<!-- 2757332408976 -->
<g id="node22" class="node">
<title>2757332408976</title>
<ellipse fill="none" stroke="black" cx="856.35" cy="-1148" rx="45.21" ry="18"/>
<text text-anchor="middle" x="856.35" y="-1142" font-family="Times New Roman,serif" font-size="15.00">xor loop</text>
</g>
<!-- 2757332413728&#45;&#45;2757332408976 -->
<g id="edge21" class="edge">
<title>2757332413728&#45;&#45;2757332408976</title>
<path fill="none" stroke="black" d="M542.35,-1072.96C600.72,-1086.95 746.91,-1122 816.87,-1138.77"/>
</g>
<!-- 2757332407968 -->
<g id="node25" class="node">
<title>2757332407968</title>
<ellipse fill="none" stroke="black" cx="856.35" cy="-1094" rx="136.82" ry="18"/>
<text text-anchor="middle" x="856.35" y="-1088" font-family="Times New Roman,serif" font-size="15.00">Send to the competent authority</text>
</g>
<!-- 2757332413728&#45;&#45;2757332407968 -->
<g id="edge22" class="edge">
<title>2757332413728&#45;&#45;2757332407968</title>
<path fill="none" stroke="black" d="M543.74,-1069.1C585.13,-1072.4 668.1,-1079.03 738.02,-1084.62"/>
</g>
<!-- 2757332405952 -->
<g id="node26" class="node">
<title>2757332405952</title>
<ellipse fill="none" stroke="black" cx="856.35" cy="-1040" rx="147.06" ry="18"/>
<text text-anchor="middle" x="856.35" y="-1034" font-family="Times New Roman,serif" font-size="15.00">Standard procedure without MER</text>
</g>
<!-- 2757332413728&#45;&#45;2757332405952 -->
<g id="edge23" class="edge">
<title>2757332413728&#45;&#45;2757332405952</title>
<path fill="none" stroke="black" d="M543.74,-1064.9C583.89,-1061.69 663.16,-1055.36 731.7,-1049.88"/>
</g>
<!-- 2757332406960 -->
<g id="node27" class="node">
<title>2757332406960</title>
<ellipse fill="none" stroke="black" cx="856.35" cy="-986" rx="27" ry="18"/>
<text text-anchor="middle" x="856.35" y="-980" font-family="Times New Roman,serif" font-size="15.00">xor</text>
</g>
<!-- 2757332413728&#45;&#45;2757332406960 -->
<g id="edge29" class="edge">
<title>2757332413728&#45;&#45;2757332406960</title>
<path fill="none" stroke="black" d="M542.35,-1061.04C604.83,-1046.06 767.96,-1006.95 830.47,-991.96"/>
</g>
<!-- 2757332410656 -->
<g id="node33" class="node">
<title>2757332410656</title>
<ellipse fill="none" stroke="black" cx="856.35" cy="-932" rx="27" ry="18"/>
<text text-anchor="middle" x="856.35" y="-926" font-family="Times New Roman,serif" font-size="15.00">xor</text>
</g>
<!-- 2757332413728&#45;&#45;2757332410656 -->
<g id="edge32" class="edge">
<title>2757332413728&#45;&#45;2757332410656</title>
<path fill="none" stroke="black" d="M540.2,-1057.93C601.75,-1033.34 771.33,-965.57 832.76,-941.03"/>
</g>
<!-- 2757332403504 -->
<g id="node36" class="node">
<title>2757332403504</title>
<ellipse fill="none" stroke="black" cx="856.35" cy="-878" rx="27" ry="18"/>
<text text-anchor="middle" x="856.35" y="-872" font-family="Times New Roman,serif" font-size="15.00">xor</text>
</g>
<!-- 2757332413728&#45;&#45;2757332403504 -->
<g id="edge35" class="edge">
<title>2757332413728&#45;&#45;2757332403504</title>
<path fill="none" stroke="black" d="M537.88,-1055.6C598.09,-1021.92 774.72,-923.11 834.95,-889.41"/>
</g>
<!-- 2757332409648 -->
<g id="node11" class="node">
<title>2757332409648</title>
<ellipse fill="black" stroke="black" cx="1208.99" cy="-1362" rx="2.7" ry="2.7"/>
</g>
<!-- 2757332411328&#45;&#45;2757332409648 -->
<g id="edge7" class="edge">
<title>2757332411328&#45;&#45;2757332409648</title>
<path fill="none" stroke="black" d="M883.14,-1313.82C959.68,-1325.18 1181.8,-1358.12 1205.87,-1361.69"/>
</g>
<!-- 2757332409312 -->
<g id="node12" class="node">
<title>2757332409312</title>
<ellipse fill="none" stroke="black" cx="1208.99" cy="-1323" rx="27" ry="18"/>
<text text-anchor="middle" x="1208.99" y="-1317" font-family="Times New Roman,serif" font-size="15.00">seq</text>
</g>
<!-- 2757332411328&#45;&#45;2757332409312 -->
<g id="edge11" class="edge">
<title>2757332411328&#45;&#45;2757332409312</title>
<path fill="none" stroke="black" d="M883.71,-1310.98C948.85,-1313.39 1116.85,-1319.62 1181.81,-1322.03"/>
</g>
<!-- 2757332407632 -->
<g id="node13" class="node">
<title>2757332407632</title>
<ellipse fill="none" stroke="black" cx="1573.91" cy="-1377" rx="163.95" ry="18"/>
<text text-anchor="middle" x="1573.91" y="-1371" font-family="Times New Roman,serif" font-size="15.00">Log senddate for confirmation request</text>
</g>
<!-- 2757332409312&#45;&#45;2757332407632 -->
<g id="edge8" class="edge">
<title>2757332409312&#45;&#45;2757332407632</title>
<path fill="none" stroke="black" d="M1235.8,-1326.84C1284.79,-1334.13 1393.57,-1350.31 1474.38,-1362.34"/>
</g>
<!-- 2757332407296 -->
<g id="node14" class="node">
<title>2757332407296</title>
<ellipse fill="none" stroke="black" cx="1573.91" cy="-1323" rx="149.11" ry="18"/>
<text text-anchor="middle" x="1573.91" y="-1317" font-family="Times New Roman,serif" font-size="15.00">Register termination decision date</text>
</g>
<!-- 2757332409312&#45;&#45;2757332407296 -->
<g id="edge9" class="edge">
<title>2757332409312&#45;&#45;2757332407296</title>
<path fill="none" stroke="black" d="M1236.38,-1323C1276.02,-1323 1353.84,-1323 1424.67,-1323"/>
</g>
<!-- 2757332406912 -->
<g id="node15" class="node">
<title>2757332406912</title>
<ellipse fill="none" stroke="black" cx="1573.91" cy="-1269" rx="63.63" ry="18"/>
<text text-anchor="middle" x="1573.91" y="-1263" font-family="Times New Roman,serif" font-size="15.00">Log deadline</text>
</g>
<!-- 2757332409312&#45;&#45;2757332406912 -->
<g id="edge10" class="edge">
<title>2757332409312&#45;&#45;2757332406912</title>
<path fill="none" stroke="black" d="M1235.8,-1319.16C1294.1,-1310.49 1437.08,-1289.21 1516.83,-1277.34"/>
</g>
<!-- 2757332408640 -->
<g id="node17" class="node">
<title>2757332408640</title>
<ellipse fill="black" stroke="black" cx="1208.99" cy="-1284" rx="2.7" ry="2.7"/>
</g>
<!-- 2757332410992&#45;&#45;2757332408640 -->
<g id="edge13" class="edge">
<title>2757332410992&#45;&#45;2757332408640</title>
<path fill="none" stroke="black" d="M883.42,-1258.08C960.24,-1264.22 1181.86,-1281.91 1205.87,-1283.83"/>
</g>
<!-- 2757332408304 -->
<g id="node18" class="node">
<title>2757332408304</title>
<ellipse fill="none" stroke="black" cx="1208.99" cy="-1245" rx="153.2" ry="18"/>
<text text-anchor="middle" x="1208.99" y="-1239" font-family="Times New Roman,serif" font-size="15.00">Record senddate acknowledgement</text>
</g>
<!-- 2757332410992&#45;&#45;2757332408304 -->
<g id="edge14" class="edge">
<title>2757332410992&#45;&#45;2757332408304</title>
<path fill="none" stroke="black" d="M883.71,-1255.17C921.45,-1253.99 993.74,-1251.72 1060.5,-1249.63"/>
</g>
<!-- 2757332406576 -->
<g id="node20" class="node">
<title>2757332406576</title>
<ellipse fill="black" stroke="black" cx="1208.99" cy="-1206" rx="2.7" ry="2.7"/>
</g>
<!-- 2757332409984&#45;&#45;2757332406576 -->
<g id="edge16" class="edge">
<title>2757332409984&#45;&#45;2757332406576</title>
<path fill="none" stroke="black" d="M883.71,-1202.3C960.79,-1203.18 1181.92,-1205.7 1205.88,-1205.98"/>
</g>
<!-- 2757332406240 -->
<g id="node21" class="node">
<title>2757332406240</title>
<ellipse fill="none" stroke="black" cx="1208.99" cy="-1167" rx="89.74" ry="18"/>
<text text-anchor="middle" x="1208.99" y="-1161" font-family="Times New Roman,serif" font-size="15.00">Reception via OLO</text>
</g>
<!-- 2757332409984&#45;&#45;2757332406240 -->
<g id="edge17" class="edge">
<title>2757332409984&#45;&#45;2757332406240</title>
<path fill="none" stroke="black" d="M883.42,-1199.4C934.45,-1194.3 1049.37,-1182.83 1127.82,-1175"/>
</g>
<!-- 2757332405472 -->
<g id="node23" class="node">
<title>2757332405472</title>
<ellipse fill="none" stroke="black" cx="1208.99" cy="-1113" rx="131.19" ry="18"/>
<text text-anchor="middle" x="1208.99" y="-1107" font-family="Times New Roman,serif" font-size="15.00">Dispatch confirmation receipt</text>
</g>
<!-- 2757332408976&#45;&#45;2757332405472 -->
<g id="edge19" class="edge">
<title>2757332408976&#45;&#45;2757332405472</title>
<path fill="none" stroke="black" d="M900.7,-1143.67C950.54,-1138.7 1034.15,-1130.35 1101.58,-1123.62"/>
</g>
<!-- 2757332405136 -->
<g id="node24" class="node">
<title>2757332405136</title>
<ellipse fill="black" stroke="black" cx="1208.99" cy="-1074" rx="2.7" ry="2.7"/>
</g>
<!-- 2757332408976&#45;&#45;2757332405136 -->
<g id="edge20" class="edge">
<title>2757332408976&#45;&#45;2757332405136</title>
<path fill="none" stroke="black" d="M896.89,-1139.66C983.58,-1121.36 1184.38,-1078.98 1206.08,-1074.4"/>
</g>
<!-- 2757332403168 -->
<g id="node28" class="node">
<title>2757332403168</title>
<ellipse fill="black" stroke="black" cx="1208.99" cy="-1045" rx="2.7" ry="2.7"/>
</g>
<!-- 2757332406960&#45;&#45;2757332403168 -->
<g id="edge24" class="edge">
<title>2757332406960&#45;&#45;2757332403168</title>
<path fill="none" stroke="black" d="M882.85,-990.29C959.13,-1003.13 1181.74,-1040.58 1205.87,-1044.64"/>
</g>
<!-- 2757332402832 -->
<g id="node29" class="node">
<title>2757332402832</title>
<ellipse fill="none" stroke="black" cx="1208.99" cy="-1006" rx="27" ry="18"/>
<text text-anchor="middle" x="1208.99" y="-1000" font-family="Times New Roman,serif" font-size="15.00">seq</text>
</g>
<!-- 2757332406960&#45;&#45;2757332402832 -->
<g id="edge28" class="edge">
<title>2757332406960&#45;&#45;2757332402832</title>
<path fill="none" stroke="black" d="M883.71,-987.5C948.85,-991.22 1116.85,-1000.8 1181.81,-1004.51"/>
</g>
<!-- 2757332417856 -->
<g id="node30" class="node">
<title>2757332417856</title>
<ellipse fill="none" stroke="black" cx="1573.91" cy="-1060" rx="175.72" ry="18"/>
<text text-anchor="middle" x="1573.91" y="-1054" font-family="Times New Roman,serif" font-size="15.00">Record senddate procedure confirmation</text>
</g>
<!-- 2757332402832&#45;&#45;2757332417856 -->
<g id="edge25" class="edge">
<title>2757332402832&#45;&#45;2757332417856</title>
<path fill="none" stroke="black" d="M1235.8,-1009.84C1284.3,-1017.06 1391.41,-1032.99 1471.97,-1044.98"/>
</g>
<!-- 2757332417520 -->
<g id="node31" class="node">
<title>2757332417520</title>
<ellipse fill="none" stroke="black" cx="1573.91" cy="-1006" rx="143.99" ry="18"/>
<text text-anchor="middle" x="1573.91" y="-1000" font-family="Times New Roman,serif" font-size="15.00">Dispatch procedure confirmation</text>
</g>
<!-- 2757332402832&#45;&#45;2757332417520 -->
<g id="edge26" class="edge">
<title>2757332402832&#45;&#45;2757332417520</title>
<path fill="none" stroke="black" d="M1236.38,-1006C1276.92,-1006 1357.38,-1006 1429.46,-1006"/>
</g>
<!-- 2757332417184 -->
<g id="node32" class="node">
<title>2757332417184</title>
<ellipse fill="none" stroke="black" cx="1573.91" cy="-952" rx="80.52" ry="18"/>
<text text-anchor="middle" x="1573.91" y="-946" font-family="Times New Roman,serif" font-size="15.00">Suspend duration</text>
</g>
<!-- 2757332402832&#45;&#45;2757332417184 -->
<g id="edge27" class="edge">
<title>2757332402832&#45;&#45;2757332417184</title>
<path fill="none" stroke="black" d="M1235.8,-1002.16C1291.51,-993.87 1424.54,-974.08 1505.84,-961.98"/>
</g>
<!-- 2757332412816 -->
<g id="node34" class="node">
<title>2757332412816</title>
<ellipse fill="black" stroke="black" cx="1208.99" cy="-967" rx="2.7" ry="2.7"/>
</g>
<!-- 2757332410656&#45;&#45;2757332412816 -->
<g id="edge30" class="edge">
<title>2757332410656&#45;&#45;2757332412816</title>
<path fill="none" stroke="black" d="M883.42,-934.6C960.24,-942.27 1181.86,-964.39 1205.87,-966.79"/>
</g>
<!-- 2757332407056 -->
<g id="node35" class="node">
<title>2757332407056</title>
<ellipse fill="none" stroke="black" cx="1208.99" cy="-928" rx="70.8" ry="18"/>
<text text-anchor="middle" x="1208.99" y="-922" font-family="Times New Roman,serif" font-size="15.00">End on request</text>
</g>
<!-- 2757332410656&#45;&#45;2757332407056 -->
<g id="edge31" class="edge">
<title>2757332410656&#45;&#45;2757332407056</title>
<path fill="none" stroke="black" d="M883.71,-931.7C937.14,-931.09 1059.79,-929.69 1138,-928.8"/>
</g>
<!-- 2757332416848 -->
<g id="node37" class="node">
<title>2757332416848</title>
<ellipse fill="black" stroke="black" cx="1208.99" cy="-889" rx="2.7" ry="2.7"/>
</g>
<!-- 2757332403504&#45;&#45;2757332416848 -->
<g id="edge33" class="edge">
<title>2757332403504&#45;&#45;2757332416848</title>
<path fill="none" stroke="black" d="M883.71,-878.83C960.79,-881.25 1181.92,-888.18 1205.88,-888.93"/>
</g>
<!-- 2757332416512 -->
<g id="node38" class="node">
<title>2757332416512</title>
<ellipse fill="none" stroke="black" cx="1208.99" cy="-850" rx="130.68" ry="18"/>
<text text-anchor="middle" x="1208.99" y="-844" font-family="Times New Roman,serif" font-size="15.00">Competent authority initiative</text>
</g>
<!-- 2757332403504&#45;&#45;2757332416512 -->
<g id="edge34" class="edge">
<title>2757332403504&#45;&#45;2757332416512</title>
<path fill="none" stroke="black" d="M883.42,-875.92C927.62,-872.39 1019.77,-865.03 1094.63,-859.05"/>
</g>
<!-- 2757332403840 -->
<g id="node40" class="node">
<title>2757332403840</title>
<ellipse fill="black" stroke="black" cx="516.51" cy="-782" rx="2.7" ry="2.7"/>
</g>
<!-- 2757332416080&#45;&#45;2757332403840 -->
<g id="edge38" class="edge">
<title>2757332416080&#45;&#45;2757332403840</title>
<path fill="none" stroke="black" d="M242.36,-763.76C311.44,-768.37 494.01,-780.56 513.77,-781.88"/>
</g>
<!-- 2757332415408 -->
<g id="node41" class="node">
<title>2757332415408</title>
<ellipse fill="none" stroke="black" cx="516.51" cy="-743" rx="27" ry="18"/>
<text text-anchor="middle" x="516.51" y="-737" font-family="Times New Roman,serif" font-size="15.00">seq</text>
</g>
<!-- 2757332416080&#45;&#45;2757332415408 -->
<g id="edge49" class="edge">
<title>2757332416080&#45;&#45;2757332415408</title>
<path fill="none" stroke="black" d="M242.36,-760.33C299.17,-756.73 432.71,-748.25 489.36,-744.66"/>
</g>
<!-- 2757332411664 -->
<g id="node42" class="node">
<title>2757332411664</title>
<ellipse fill="none" stroke="black" cx="856.35" cy="-824" rx="27" ry="18"/>
<text text-anchor="middle" x="856.35" y="-818" font-family="Times New Roman,serif" font-size="15.00">xor</text>
</g>
<!-- 2757332415408&#45;&#45;2757332411664 -->
<g id="edge45" class="edge">
<title>2757332415408&#45;&#45;2757332411664</title>
<path fill="none" stroke="black" d="M542.35,-748.96C604.83,-763.94 767.96,-803.05 830.47,-818.04"/>
</g>
<!-- 2757332416176 -->
<g id="node49" class="node">
<title>2757332416176</title>
<ellipse fill="none" stroke="black" cx="856.35" cy="-770" rx="92.81" ry="18"/>
<text text-anchor="middle" x="856.35" y="-764" font-family="Times New Roman,serif" font-size="15.00">Phase archived case</text>
</g>
<!-- 2757332415408&#45;&#45;2757332416176 -->
<g id="edge46" class="edge">
<title>2757332415408&#45;&#45;2757332416176</title>
<path fill="none" stroke="black" d="M543.74,-745.1C591.64,-748.92 695.23,-757.2 769.83,-763.17"/>
</g>
<!-- 2757332414160 -->
<g id="node50" class="node">
<title>2757332414160</title>
<ellipse fill="none" stroke="black" cx="856.35" cy="-716" rx="92.81" ry="18"/>
<text text-anchor="middle" x="856.35" y="-710" font-family="Times New Roman,serif" font-size="15.00">Phase case managed</text>
</g>
<!-- 2757332415408&#45;&#45;2757332414160 -->
<g id="edge47" class="edge">
<title>2757332415408&#45;&#45;2757332414160</title>
<path fill="none" stroke="black" d="M543.74,-740.9C591.64,-737.08 695.23,-728.8 769.83,-722.83"/>
</g>
<!-- 2757332415504 -->
<g id="node51" class="node">
<title>2757332415504</title>
<ellipse fill="none" stroke="black" cx="856.35" cy="-662" rx="119.42" ry="18"/>
<text text-anchor="middle" x="856.35" y="-656" font-family="Times New Roman,serif" font-size="15.00">Phase procedure cancelled</text>
</g>
<!-- 2757332415408&#45;&#45;2757332415504 -->
<g id="edge48" class="edge">
<title>2757332415408&#45;&#45;2757332415504</title>
<path fill="none" stroke="black" d="M542.35,-737.04C594.24,-724.6 715.55,-695.52 790.99,-677.43"/>
</g>
<!-- 2757332414832 -->
<g id="node43" class="node">
<title>2757332414832</title>
<ellipse fill="none" stroke="black" cx="1208.99" cy="-796" rx="27" ry="18"/>
<text text-anchor="middle" x="1208.99" y="-790" font-family="Times New Roman,serif" font-size="15.00">seq</text>
</g>
<!-- 2757332411664&#45;&#45;2757332414832 -->
<g id="edge41" class="edge">
<title>2757332411664&#45;&#45;2757332414832</title>
<path fill="none" stroke="black" d="M883.42,-821.92C948.34,-816.73 1116.66,-803.29 1181.75,-798.1"/>
</g>
<!-- 2757332414496 -->
<g id="node46" class="node">
<title>2757332414496</title>
<ellipse fill="none" stroke="black" cx="1208.99" cy="-742" rx="27" ry="18"/>
<text text-anchor="middle" x="1208.99" y="-736" font-family="Times New Roman,serif" font-size="15.00">seq</text>
</g>
<!-- 2757332411664&#45;&#45;2757332414496 -->
<g id="edge44" class="edge">
<title>2757332411664&#45;&#45;2757332414496</title>
<path fill="none" stroke="black" d="M882.29,-818.17C946.75,-803.09 1118.37,-762.96 1182.95,-747.86"/>
</g>
<!-- 2757332413152 -->
<g id="node44" class="node">
<title>2757332413152</title>
<ellipse fill="none" stroke="black" cx="1573.91" cy="-850" rx="166.51" ry="18"/>
<text text-anchor="middle" x="1573.91" y="-844" font-family="Times New Roman,serif" font-size="15.00">Create termination decision on request</text>
</g>
<!-- 2757332414832&#45;&#45;2757332413152 -->
<g id="edge39" class="edge">
<title>2757332414832&#45;&#45;2757332413152</title>
<path fill="none" stroke="black" d="M1235.8,-799.84C1284.63,-807.1 1392.85,-823.21 1473.58,-835.22"/>
</g>
<!-- 2757332412768 -->
<g id="node45" class="node">
<title>2757332412768</title>
<ellipse fill="none" stroke="black" cx="1573.91" cy="-796" rx="171.63" ry="18"/>
<text text-anchor="middle" x="1573.91" y="-790" font-family="Times New Roman,serif" font-size="15.00">Execute termination decision on request</text>
</g>
<!-- 2757332414832&#45;&#45;2757332412768 -->
<g id="edge40" class="edge">
<title>2757332414832&#45;&#45;2757332412768</title>
<path fill="none" stroke="black" d="M1236.38,-796C1271.86,-796 1337.93,-796 1402.19,-796"/>
</g>
<!-- 2757332412096 -->
<g id="node47" class="node">
<title>2757332412096</title>
<ellipse fill="none" stroke="black" cx="1573.91" cy="-742" rx="145.52" ry="18"/>
<text text-anchor="middle" x="1573.91" y="-736" font-family="Times New Roman,serif" font-size="15.00">Create terminate request message</text>
</g>
<!-- 2757332414496&#45;&#45;2757332412096 -->
<g id="edge42" class="edge">
<title>2757332414496&#45;&#45;2757332412096</title>
<path fill="none" stroke="black" d="M1236.38,-742C1276.67,-742 1356.41,-742 1428.16,-742"/>
</g>
<!-- 2757332411760 -->
<g id="node48" class="node">
<title>2757332411760</title>
<ellipse fill="none" stroke="black" cx="1573.91" cy="-688" rx="125.05" ry="18"/>
<text text-anchor="middle" x="1573.91" y="-682" font-family="Times New Roman,serif" font-size="15.00">Check publication date field</text>
</g>
<!-- 2757332414496&#45;&#45;2757332411760 -->
<g id="edge43" class="edge">
<title>2757332414496&#45;&#45;2757332411760</title>
<path fill="none" stroke="black" d="M1235.8,-738.16C1287.05,-730.53 1403.76,-713.17 1485.42,-701.02"/>
</g>
<!-- 2757332415072 -->
<g id="node53" class="node">
<title>2757332415072</title>
<ellipse fill="black" stroke="black" cx="516.51" cy="-658" rx="2.7" ry="2.7"/>
</g>
<!-- 2757332413392&#45;&#45;2757332415072 -->
<g id="edge51" class="edge">
<title>2757332413392&#45;&#45;2757332415072</title>
<path fill="none" stroke="black" d="M242.36,-658C311.44,-658 494.01,-658 513.77,-658"/>
</g>
<!-- 2757332418192 -->
<g id="node54" class="node">
<title>2757332418192</title>
<ellipse fill="none" stroke="black" cx="516.51" cy="-615" rx="27" ry="18"/>
<text text-anchor="middle" x="516.51" y="-609" font-family="Times New Roman,serif" font-size="15.00">seq</text>
</g>
<!-- 2757332413392&#45;&#45;2757332418192 -->
<g id="edge54" class="edge">
<title>2757332413392&#45;&#45;2757332418192</title>
<path fill="none" stroke="black" d="M241.84,-654.3C298.45,-646.17 433.03,-626.84 489.67,-618.71"/>
</g>
<!-- 2757332415168 -->
<g id="node55" class="node">
<title>2757332415168</title>
<ellipse fill="none" stroke="black" cx="856.35" cy="-608" rx="126.08" ry="18"/>
<text text-anchor="middle" x="856.35" y="-602" font-family="Times New Roman,serif" font-size="15.00">Stop all running subcases 2b</text>
</g>
<!-- 2757332418192&#45;&#45;2757332415168 -->
<g id="edge52" class="edge">
<title>2757332418192&#45;&#45;2757332415168</title>
<path fill="none" stroke="black" d="M543.74,-614.46C583.81,-613.63 662.86,-611.99 731.3,-610.57"/>
</g>
<!-- 2757332415840 -->
<g id="node56" class="node">
<title>2757332415840</title>
<ellipse fill="none" stroke="black" cx="856.35" cy="-554" rx="69.26" ry="18"/>
<text text-anchor="middle" x="856.35" y="-548" font-family="Times New Roman,serif" font-size="15.00">Close the case</text>
</g>
<!-- 2757332418192&#45;&#45;2757332415840 -->
<g id="edge53" class="edge">
<title>2757332418192&#45;&#45;2757332415840</title>
<path fill="none" stroke="black" d="M542.9,-610.42C596.84,-600.68 723.98,-577.72 798.39,-564.28"/>
</g>
<!-- 2757332412432 -->
<g id="node58" class="node">
<title>2757332412432</title>
<ellipse fill="black" stroke="black" cx="516.51" cy="-576" rx="2.7" ry="2.7"/>
</g>
<!-- 2757332412672&#45;&#45;2757332412432 -->
<g id="edge56" class="edge">
<title>2757332412672&#45;&#45;2757332412432</title>
<path fill="none" stroke="black" d="M242.36,-576C311.44,-576 494.01,-576 513.77,-576"/>
</g>
<!-- 2757332413488 -->
<g id="node59" class="node">
<title>2757332413488</title>
<ellipse fill="none" stroke="black" cx="516.51" cy="-537" rx="140.41" ry="18"/>
<text text-anchor="middle" x="516.51" y="-531" font-family="Times New Roman,serif" font-size="15.00">WAW permit aspect considered</text>
</g>
<!-- 2757332412672&#45;&#45;2757332413488 -->
<g id="edge57" class="edge">
<title>2757332412672&#45;&#45;2757332413488</title>
<path fill="none" stroke="black" d="M241.84,-572.64C280.29,-567.63 354.71,-557.94 416.24,-549.93"/>
</g>
<!-- 2757332411424 -->
<g id="node61" class="node">
<title>2757332411424</title>
<ellipse fill="black" stroke="black" cx="516.51" cy="-492" rx="2.7" ry="2.7"/>
</g>
<!-- 2757332404848&#45;&#45;2757332411424 -->
<g id="edge59" class="edge">
<title>2757332404848&#45;&#45;2757332411424</title>
<path fill="none" stroke="black" d="M242.36,-492C311.44,-492 494.01,-492 513.77,-492"/>
</g>
<!-- 2757332411088 -->
<g id="node62" class="node">
<title>2757332411088</title>
<ellipse fill="none" stroke="black" cx="516.51" cy="-446" rx="27" ry="18"/>
<text text-anchor="middle" x="516.51" y="-440" font-family="Times New Roman,serif" font-size="15.00">seq</text>
</g>
<!-- 2757332404848&#45;&#45;2757332411088 -->
<g id="edge82" class="edge">
<title>2757332404848&#45;&#45;2757332411088</title>
<path fill="none" stroke="black" d="M241.84,-488.04C298.45,-479.34 433.03,-458.67 489.67,-449.97"/>
</g>
<!-- 2757332409408 -->
<g id="node63" class="node">
<title>2757332409408</title>
<ellipse fill="none" stroke="black" cx="856.35" cy="-500" rx="27" ry="18"/>
<text text-anchor="middle" x="856.35" y="-494" font-family="Times New Roman,serif" font-size="15.00">xor</text>
</g>
<!-- 2757332411088&#45;&#45;2757332409408 -->
<g id="edge62" class="edge">
<title>2757332411088&#45;&#45;2757332409408</title>
<path fill="none" stroke="black" d="M543.18,-450.1C606.01,-460.15 766.94,-485.87 829.72,-495.9"/>
</g>
<!-- 2757332409072 -->
<g id="node66" class="node">
<title>2757332409072</title>
<ellipse fill="none" stroke="black" cx="856.35" cy="-446" rx="135.29" ry="18"/>
<text text-anchor="middle" x="856.35" y="-440" font-family="Times New Roman,serif" font-size="15.00">Handle subcases completeness</text>
</g>
<!-- 2757332411088&#45;&#45;2757332409072 -->
<g id="edge63" class="edge">
<title>2757332411088&#45;&#45;2757332409072</title>
<path fill="none" stroke="black" d="M543.74,-446C581.8,-446 655,-446 720.9,-446"/>
</g>
<!-- 2757332408064 -->
<g id="node67" class="node">
<title>2757332408064</title>
<ellipse fill="none" stroke="black" cx="856.35" cy="-392" rx="84.11" ry="18"/>
<text text-anchor="middle" x="856.35" y="-386" font-family="Times New Roman,serif" font-size="15.00">Modify procedure</text>
</g>
<!-- 2757332411088&#45;&#45;2757332408064 -->
<g id="edge64" class="edge">
<title>2757332411088&#45;&#45;2757332408064</title>
<path fill="none" stroke="black" d="M543.18,-441.9C594.77,-433.65 712.49,-414.83 787.72,-402.81"/>
</g>
<!-- 2757332408400 -->
<g id="node68" class="node">
<title>2757332408400</title>
<ellipse fill="none" stroke="black" cx="856.35" cy="-338" rx="27" ry="18"/>
<text text-anchor="middle" x="856.35" y="-332" font-family="Times New Roman,serif" font-size="15.00">xor</text>
</g>
<!-- 2757332411088&#45;&#45;2757332408400 -->
<g id="edge81" class="edge">
<title>2757332411088&#45;&#45;2757332408400</title>
<path fill="none" stroke="black" d="M541.27,-438.41C603.3,-418.58 769.62,-365.41 831.62,-345.59"/>
</g>
<!-- 2757332407728 -->
<g id="node64" class="node">
<title>2757332407728</title>
<ellipse fill="black" stroke="black" cx="1208.99" cy="-520" rx="2.7" ry="2.7"/>
</g>
<!-- 2757332409408&#45;&#45;2757332407728 -->
<g id="edge60" class="edge">
<title>2757332409408&#45;&#45;2757332407728</title>
<path fill="none" stroke="black" d="M883.71,-501.5C960.79,-505.9 1181.92,-518.51 1205.88,-519.88"/>
</g>
<!-- 2757332407392 -->
<g id="node65" class="node">
<title>2757332407392</title>
<ellipse fill="none" stroke="black" cx="1208.99" cy="-481" rx="143.99" ry="18"/>
<text text-anchor="middle" x="1208.99" y="-475" font-family="Times New Roman,serif" font-size="15.00">Subcases completeness achieved</text>
</g>
<!-- 2757332409408&#45;&#45;2757332407392 -->
<g id="edge61" class="edge">
<title>2757332409408&#45;&#45;2757332407392</title>
<path fill="none" stroke="black" d="M883.71,-498.57C924.4,-496.37 1005.23,-491.99 1076.01,-488.15"/>
</g>
<!-- 2757332405808 -->
<g id="node69" class="node">
<title>2757332405808</title>
<ellipse fill="none" stroke="black" cx="1208.99" cy="-365" rx="45.21" ry="18"/>
<text text-anchor="middle" x="1208.99" y="-359" font-family="Times New Roman,serif" font-size="15.00">xor loop</text>
</g>
<!-- 2757332408400&#45;&#45;2757332405808 -->
<g id="edge67" class="edge">
<title>2757332408400&#45;&#45;2757332405808</title>
<path fill="none" stroke="black" d="M883.42,-340.01C943.1,-344.6 1090.17,-355.93 1164.09,-361.62"/>
</g>
<!-- 2757332405568 -->
<g id="node72" class="node">
<title>2757332405568</title>
<ellipse fill="none" stroke="black" cx="1208.99" cy="-311" rx="27" ry="18"/>
<text text-anchor="middle" x="1208.99" y="-305" font-family="Times New Roman,serif" font-size="15.00">seq</text>
</g>
<!-- 2757332408400&#45;&#45;2757332405568 -->
<g id="edge80" class="edge">
<title>2757332408400&#45;&#45;2757332405568</title>
<path fill="none" stroke="black" d="M883.42,-335.99C948.34,-330.99 1116.66,-318.03 1181.75,-313.02"/>
</g>
<!-- 2757332403600 -->
<g id="node70" class="node">
<title>2757332403600</title>
<ellipse fill="none" stroke="black" cx="1573.91" cy="-400" rx="170.6" ry="18"/>
<text text-anchor="middle" x="1573.91" y="-394" font-family="Times New Roman,serif" font-size="15.00">Log date of publishing received request</text>
</g>
<!-- 2757332405808&#45;&#45;2757332403600 -->
<g id="edge65" class="edge">
<title>2757332405808&#45;&#45;2757332403600</title>
<path fill="none" stroke="black" d="M1253.41,-369.19C1300.82,-373.76 1378.96,-381.3 1446.1,-387.77"/>
</g>
<!-- 2757332403264 -->
<g id="node71" class="node">
<title>2757332403264</title>
<ellipse fill="black" stroke="black" cx="1573.91" cy="-361" rx="2.7" ry="2.7"/>
</g>
<!-- 2757332405808&#45;&#45;2757332403264 -->
<g id="edge66" class="edge">
<title>2757332405808&#45;&#45;2757332403264</title>
<path fill="none" stroke="black" d="M1254.49,-364.51C1346.1,-363.5 1549.06,-361.26 1570.98,-361.02"/>
</g>
<!-- 2757332402592 -->
<g id="node73" class="node">
<title>2757332402592</title>
<ellipse fill="none" stroke="black" cx="1573.91" cy="-315" rx="81.55" ry="18"/>
<text text-anchor="middle" x="1573.91" y="-309" font-family="Times New Roman,serif" font-size="15.00">Complete request</text>
</g>
<!-- 2757332405568&#45;&#45;2757332402592 -->
<g id="edge68" class="edge">
<title>2757332405568&#45;&#45;2757332402592</title>
<path fill="none" stroke="black" d="M1236.38,-311.29C1289.4,-311.88 1410.7,-313.21 1492.25,-314.11"/>
</g>
<!-- 2757332402256 -->
<g id="node74" class="node">
<title>2757332402256</title>
<ellipse fill="none" stroke="black" cx="1573.91" cy="-261" rx="27" ry="18"/>
<text text-anchor="middle" x="1573.91" y="-255" font-family="Times New Roman,serif" font-size="15.00">xor</text>
</g>
<!-- 2757332405568&#45;&#45;2757332402256 -->
<g id="edge79" class="edge">
<title>2757332405568&#45;&#45;2757332402256</title>
<path fill="none" stroke="black" d="M1235.8,-307.44C1302.52,-298.25 1480.15,-273.78 1546.99,-264.57"/>
</g>
<!-- 2757332403408 -->
<g id="node75" class="node">
<title>2757332403408</title>
<ellipse fill="none" stroke="black" cx="1812.63" cy="-342" rx="27" ry="18"/>
<text text-anchor="middle" x="1812.63" y="-336" font-family="Times New Roman,serif" font-size="15.00">seq</text>
</g>
<!-- 2757332402256&#45;&#45;2757332403408 -->
<g id="edge71" class="edge">
<title>2757332402256&#45;&#45;2757332403408</title>
<path fill="none" stroke="black" d="M1598.48,-269.06C1643.85,-284.59 1742.87,-318.47 1788.17,-333.97"/>
</g>
<!-- 2757332403360 -->
<g id="node78" class="node">
<title>2757332403360</title>
<ellipse fill="none" stroke="black" cx="1812.63" cy="-180" rx="27" ry="18"/>
<text text-anchor="middle" x="1812.63" y="-174" font-family="Times New Roman,serif" font-size="15.00">seq</text>
</g>
<!-- 2757332402256&#45;&#45;2757332403360 -->
<g id="edge78" class="edge">
<title>2757332402256&#45;&#45;2757332403360</title>
<path fill="none" stroke="black" d="M1598.48,-252.94C1643.85,-237.41 1742.87,-203.53 1788.17,-188.03"/>
</g>
<!-- 2757332403648 -->
<g id="node76" class="node">
<title>2757332403648</title>
<ellipse fill="none" stroke="black" cx="2044.19" cy="-396" rx="117.89" ry="18"/>
<text text-anchor="middle" x="2044.19" y="-390" font-family="Times New Roman,serif" font-size="15.00">Dispatch letter in progress</text>
</g>
<!-- 2757332403408&#45;&#45;2757332403648 -->
<g id="edge69" class="edge">
<title>2757332403408&#45;&#45;2757332403648</title>
<path fill="none" stroke="black" d="M1838.64,-347.88C1871.87,-355.7 1931.8,-369.8 1978.24,-380.72"/>
</g>
<!-- 2757332404560 -->
<g id="node77" class="node">
<title>2757332404560</title>
<ellipse fill="none" stroke="black" cx="2044.19" cy="-342" rx="121.47" ry="18"/>
<text text-anchor="middle" x="2044.19" y="-336" font-family="Times New Roman,serif" font-size="15.00">Stage application receptive</text>
</g>
<!-- 2757332403408&#45;&#45;2757332404560 -->
<g id="edge70" class="edge">
<title>2757332403408&#45;&#45;2757332404560</title>
<path fill="none" stroke="black" d="M1839.97,-342C1860.69,-342 1891.19,-342 1922.28,-342"/>
</g>
<!-- 2757332404656 -->
<g id="node79" class="node">
<title>2757332404656</title>
<ellipse fill="none" stroke="black" cx="2044.19" cy="-288" rx="140.41" ry="18"/>
<text text-anchor="middle" x="2044.19" y="-282" font-family="Times New Roman,serif" font-size="15.00">Time for supplying missing data</text>
</g>
<!-- 2757332403360&#45;&#45;2757332404656 -->
<g id="edge72" class="edge">
<title>2757332403360&#45;&#45;2757332404656</title>
<path fill="none" stroke="black" d="M1835.23,-190.16C1874.29,-208.54 1957.13,-247.51 2005.64,-270.33"/>
</g>
<!-- 2757332404800 -->
<g id="node80" class="node">
<title>2757332404800</title>
<ellipse fill="none" stroke="black" cx="2044.19" cy="-234" rx="152.18" ry="18"/>
<text text-anchor="middle" x="2044.19" y="-228" font-family="Times New Roman,serif" font-size="15.00">Draft letter requesting missing data</text>
</g>
<!-- 2757332403360&#45;&#45;2757332404800 -->
<g id="edge73" class="edge">
<title>2757332403360&#45;&#45;2757332404800</title>
<path fill="none" stroke="black" d="M1838.64,-185.88C1870.83,-193.45 1928.06,-206.92 1973.81,-217.68"/>
</g>
<!-- 2757332405328 -->
<g id="node81" class="node">
<title>2757332405328</title>
<ellipse fill="none" stroke="black" cx="2044.19" cy="-180" rx="132.73" ry="18"/>
<text text-anchor="middle" x="2044.19" y="-174" font-family="Times New Roman,serif" font-size="15.00">Create subcases completeness</text>
</g>
<!-- 2757332403360&#45;&#45;2757332405328 -->
<g id="edge74" class="edge">
<title>2757332403360&#45;&#45;2757332405328</title>
<path fill="none" stroke="black" d="M1839.97,-180C1858.22,-180 1884.05,-180 1911.19,-180"/>
</g>
<!-- 2757332406096 -->
<g id="node82" class="node">
<title>2757332406096</title>
<ellipse fill="none" stroke="black" cx="2044.19" cy="-126" rx="97.93" ry="18"/>
<text text-anchor="middle" x="2044.19" y="-120" font-family="Times New Roman,serif" font-size="15.00">Recover missing data</text>
</g>
<!-- 2757332403360&#45;&#45;2757332406096 -->
<g id="edge75" class="edge">
<title>2757332403360&#45;&#45;2757332406096</title>
<path fill="none" stroke="black" d="M1838.64,-174.12C1872.92,-166.05 1935.6,-151.31 1982.58,-140.26"/>
</g>
<!-- 2757332405712 -->
<g id="node83" class="node">
<title>2757332405712</title>
<ellipse fill="none" stroke="black" cx="2044.19" cy="-72" rx="168.56" ry="18"/>
<text text-anchor="middle" x="2044.19" y="-66" font-family="Times New Roman,serif" font-size="15.00">Phase requested additional information</text>
</g>
<!-- 2757332403360&#45;&#45;2757332405712 -->
<g id="edge76" class="edge">
<title>2757332403360&#45;&#45;2757332405712</title>
<path fill="none" stroke="black" d="M1835.23,-169.84C1874.18,-151.51 1956.66,-112.71 2005.22,-89.86"/>
</g>
<!-- 2757332405664 -->
<g id="node84" class="node">
<title>2757332405664</title>
<ellipse fill="none" stroke="black" cx="2044.19" cy="-18" rx="151.15" ry="18"/>
<text text-anchor="middle" x="2044.19" y="-12" font-family="Times New Roman,serif" font-size="15.00">Log senddate retrieve missing data</text>
</g>
<!-- 2757332403360&#45;&#45;2757332405664 -->
<g id="edge77" class="edge">
<title>2757332403360&#45;&#45;2757332405664</title>
<path fill="none" stroke="black" d="M1832.03,-167.02C1872.78,-138.26 1970.72,-69.14 2017.49,-36.14"/>
</g>
</g>
</svg>
