<?xml version="1.0" encoding="UTF-8" standalone="no"?>
<!DOCTYPE svg PUBLIC "-//W3C//DTD SVG 1.1//EN"
 "http://www.w3.org/Graphics/SVG/1.1/DTD/svg11.dtd">
<!-- Generated by graphviz version 11.0.0 (20240428.1522)
 -->
<!-- Title: pt Pages: 1 -->
<svg width="1220pt" height="1040pt"
 viewBox="0.00 0.00 1220.23 1040.00" xmlns="http://www.w3.org/2000/svg" xmlns:xlink="http://www.w3.org/1999/xlink">
<g id="graph0" class="graph" transform="scale(1 1) rotate(0) translate(4 1036)">
<title>pt</title>
<polygon fill="white" stroke="none" points="-4,4 -4,-1036 1216.23,-1036 1216.23,4 -4,4"/>
<!-- 2757328414880 -->
<g id="node1" class="node">
<title>2757328414880</title>
<ellipse fill="none" stroke="black" cx="27" cy="-852" rx="27" ry="18"/>
<text text-anchor="middle" x="27" y="-846" font-family="Times New Roman,serif" font-size="15.00">seq</text>
</g>
<!-- 2757328405616 -->
<g id="node2" class="node">
<title>2757328405616</title>
<ellipse fill="none" stroke="black" cx="215.05" cy="-1014" rx="125.05" ry="18"/>
<text text-anchor="middle" x="215.05" y="-1008" font-family="Times New Roman,serif" font-size="15.00">Log submission date request</text>
</g>
<!-- 2757328414880&#45;&#45;2757328405616 -->
<g id="edge1" class="edge">
<title>2757328414880&#45;&#45;2757328405616</title>
<path fill="none" stroke="black" d="M44.19,-866.09C77.96,-895.5 155.89,-963.36 193.29,-995.92"/>
</g>
<!-- 2757328415168 -->
<g id="node3" class="node">
<title>2757328415168</title>
<ellipse fill="none" stroke="black" cx="215.05" cy="-960" rx="27" ry="18"/>
<text text-anchor="middle" x="215.05" y="-954" font-family="Times New Roman,serif" font-size="15.00">xor</text>
</g>
<!-- 2757328414880&#45;&#45;2757328415168 -->
<g id="edge4" class="edge">
<title>2757328414880&#45;&#45;2757328415168</title>
<path fill="none" stroke="black" d="M47.91,-863.56C83.63,-884.29 158.19,-927.57 194,-948.36"/>
</g>
<!-- 2757328407056 -->
<g id="node6" class="node">
<title>2757328407056</title>
<ellipse fill="none" stroke="black" cx="215.05" cy="-906" rx="121.47" ry="18"/>
<text text-anchor="middle" x="215.05" y="-900" font-family="Times New Roman,serif" font-size="15.00">OLO communication active</text>
</g>
<!-- 2757328414880&#45;&#45;2757328407056 -->
<g id="edge5" class="edge">
<title>2757328414880&#45;&#45;2757328407056</title>
<path fill="none" stroke="black" d="M52.32,-859.06C79.02,-866.81 122.76,-879.5 158.03,-889.74"/>
</g>
<!-- 2757328412288 -->
<g id="node7" class="node">
<title>2757328412288</title>
<ellipse fill="none" stroke="black" cx="215.05" cy="-852" rx="27" ry="18"/>
<text text-anchor="middle" x="215.05" y="-846" font-family="Times New Roman,serif" font-size="15.00">xor</text>
</g>
<!-- 2757328414880&#45;&#45;2757328412288 -->
<g id="edge8" class="edge">
<title>2757328414880&#45;&#45;2757328412288</title>
<path fill="none" stroke="black" d="M54.26,-852C89.62,-852 152.18,-852 187.62,-852"/>
</g>
<!-- 2757328404704 -->
<g id="node10" class="node">
<title>2757328404704</title>
<ellipse fill="none" stroke="black" cx="215.05" cy="-786" rx="27" ry="18"/>
<text text-anchor="middle" x="215.05" y="-780" font-family="Times New Roman,serif" font-size="15.00">and</text>
</g>
<!-- 2757328414880&#45;&#45;2757328404704 -->
<g id="edge20" class="edge">
<title>2757328414880&#45;&#45;2757328404704</title>
<path fill="none" stroke="black" d="M51.19,-843.77C86.84,-831.13 154.74,-807.04 190.57,-794.33"/>
</g>
<!-- 2757328410224 -->
<g id="node22" class="node">
<title>2757328410224</title>
<ellipse fill="none" stroke="black" cx="215.05" cy="-681" rx="27" ry="18"/>
<text text-anchor="middle" x="215.05" y="-675" font-family="Times New Roman,serif" font-size="15.00">xor</text>
</g>
<!-- 2757328414880&#45;&#45;2757328410224 -->
<g id="edge23" class="edge">
<title>2757328414880&#45;&#45;2757328410224</title>
<path fill="none" stroke="black" d="M43.86,-837.42C79.01,-805.11 163.12,-727.81 198.23,-695.54"/>
</g>
<!-- 2757328406336 -->
<g id="node25" class="node">
<title>2757328406336</title>
<ellipse fill="none" stroke="black" cx="215.05" cy="-443" rx="27" ry="18"/>
<text text-anchor="middle" x="215.05" y="-437" font-family="Times New Roman,serif" font-size="15.00">xor</text>
</g>
<!-- 2757328414880&#45;&#45;2757328406336 -->
<g id="edge37" class="edge">
<title>2757328414880&#45;&#45;2757328406336</title>
<path fill="none" stroke="black" d="M35.88,-834.69C66.31,-767.79 176.02,-526.6 206.28,-460.09"/>
</g>
<!-- 2757328406672 -->
<g id="node4" class="node">
<title>2757328406672</title>
<ellipse fill="black" stroke="black" cx="575.88" cy="-999" rx="2.7" ry="2.7"/>
</g>
<!-- 2757328415168&#45;&#45;2757328406672 -->
<g id="edge2" class="edge">
<title>2757328415168&#45;&#45;2757328406672</title>
<path fill="none" stroke="black" d="M242.15,-962.84C320.2,-971.32 548.02,-996.08 572.7,-998.76"/>
</g>
<!-- 2757328419776 -->
<g id="node5" class="node">
<title>2757328419776</title>
<ellipse fill="none" stroke="black" cx="575.88" cy="-960" rx="199.78" ry="18"/>
<text text-anchor="middle" x="575.88" y="-954" font-family="Times New Roman,serif" font-size="15.00">No permit required or only notification needed</text>
</g>
<!-- 2757328415168&#45;&#45;2757328419776 -->
<g id="edge3" class="edge">
<title>2757328415168&#45;&#45;2757328419776</title>
<path fill="none" stroke="black" d="M242.44,-960C271.97,-960 322.69,-960 375.74,-960"/>
</g>
<!-- 2757328409984 -->
<g id="node8" class="node">
<title>2757328409984</title>
<ellipse fill="black" stroke="black" cx="575.88" cy="-921" rx="2.7" ry="2.7"/>
</g>
<!-- 2757328412288&#45;&#45;2757328409984 -->
<g id="edge6" class="edge">
<title>2757328412288&#45;&#45;2757328409984</title>
<path fill="none" stroke="black" d="M241.28,-856.85C318.81,-871.76 549.73,-916.16 572.99,-920.64"/>
</g>
<!-- 2757328417328 -->
<g id="node9" class="node">
<title>2757328417328</title>
<ellipse fill="none" stroke="black" cx="575.88" cy="-882" rx="125.05" ry="18"/>
<text text-anchor="middle" x="575.88" y="-876" font-family="Times New Roman,serif" font-size="15.00">Submit application via OLO</text>
</g>
<!-- 2757328412288&#45;&#45;2757328417328 -->
<g id="edge7" class="edge">
<title>2757328412288&#45;&#45;2757328417328</title>
<path fill="none" stroke="black" d="M242.15,-854.18C288.67,-858.07 388.41,-866.41 466.62,-872.95"/>
</g>
<!-- 2757328417760 -->
<g id="node11" class="node">
<title>2757328417760</title>
<ellipse fill="none" stroke="black" cx="575.88" cy="-828" rx="118.91" ry="18"/>
<text text-anchor="middle" x="575.88" y="-822" font-family="Times New Roman,serif" font-size="15.00">Stage application received</text>
</g>
<!-- 2757328404704&#45;&#45;2757328417760 -->
<g id="edge9" class="edge">
<title>2757328404704&#45;&#45;2757328417760</title>
<path fill="none" stroke="black" d="M242.15,-789.05C291.5,-794.83 400.71,-807.61 480.6,-816.96"/>
</g>
<!-- 2757328406384 -->
<g id="node12" class="node">
<title>2757328406384</title>
<ellipse fill="none" stroke="black" cx="575.88" cy="-774" rx="45.21" ry="18"/>
<text text-anchor="middle" x="575.88" y="-768" font-family="Times New Roman,serif" font-size="15.00">xor loop</text>
</g>
<!-- 2757328404704&#45;&#45;2757328406384 -->
<g id="edge12" class="edge">
<title>2757328404704&#45;&#45;2757328406384</title>
<path fill="none" stroke="black" d="M242.44,-785.12C303.45,-783.08 454.86,-778.01 530.46,-775.49"/>
</g>
<!-- 2757328409696 -->
<g id="node15" class="node">
<title>2757328409696</title>
<ellipse fill="none" stroke="black" cx="575.88" cy="-720" rx="27" ry="18"/>
<text text-anchor="middle" x="575.88" y="-714" font-family="Times New Roman,serif" font-size="15.00">seq</text>
</g>
<!-- 2757328404704&#45;&#45;2757328409696 -->
<g id="edge19" class="edge">
<title>2757328404704&#45;&#45;2757328409696</title>
<path fill="none" stroke="black" d="M241.57,-781.31C307.7,-769.14 484.02,-736.71 549.73,-724.63"/>
</g>
<!-- 2757328412864 -->
<g id="node13" class="node">
<title>2757328412864</title>
<ellipse fill="none" stroke="black" cx="1011.94" cy="-906" rx="131.19" ry="18"/>
<text text-anchor="middle" x="1011.94" y="-900" font-family="Times New Roman,serif" font-size="15.00">Dispatch confirmation receipt</text>
</g>
<!-- 2757328406384&#45;&#45;2757328412864 -->
<g id="edge10" class="edge">
<title>2757328406384&#45;&#45;2757328412864</title>
<path fill="none" stroke="black" d="M612.77,-784.91C688.63,-807.98 865.7,-861.83 955.95,-889.28"/>
</g>
<!-- 2757328414064 -->
<g id="node14" class="node">
<title>2757328414064</title>
<ellipse fill="black" stroke="black" cx="1011.94" cy="-867" rx="2.7" ry="2.7"/>
</g>
<!-- 2757328406384&#45;&#45;2757328414064 -->
<g id="edge11" class="edge">
<title>2757328406384&#45;&#45;2757328414064</title>
<path fill="none" stroke="black" d="M616.17,-782.42C717.59,-804.15 982.17,-860.83 1008.78,-866.54"/>
</g>
<!-- 2757328409072 -->
<g id="node16" class="node">
<title>2757328409072</title>
<ellipse fill="none" stroke="black" cx="1011.94" cy="-828" rx="136.82" ry="18"/>
<text text-anchor="middle" x="1011.94" y="-822" font-family="Times New Roman,serif" font-size="15.00">Send to the competent authority</text>
</g>
<!-- 2757328409696&#45;&#45;2757328409072 -->
<g id="edge13" class="edge">
<title>2757328409696&#45;&#45;2757328409072</title>
<path fill="none" stroke="black" d="M601.78,-726.19C667.62,-742.58 847.97,-787.45 945.79,-811.79"/>
</g>
<!-- 2757328410752 -->
<g id="node17" class="node">
<title>2757328410752</title>
<ellipse fill="none" stroke="black" cx="1011.94" cy="-774" rx="116.35" ry="18"/>
<text text-anchor="middle" x="1011.94" y="-768" font-family="Times New Roman,serif" font-size="15.00">Notify BAG administrator</text>
</g>
<!-- 2757328409696&#45;&#45;2757328410752 -->
<g id="edge14" class="edge">
<title>2757328409696&#45;&#45;2757328410752</title>
<path fill="none" stroke="black" d="M602.73,-723.22C663.78,-730.81 819.3,-750.16 919.79,-762.66"/>
</g>
<!-- 2757328407776 -->
<g id="node18" class="node">
<title>2757328407776</title>
<ellipse fill="none" stroke="black" cx="1011.94" cy="-720" rx="147.06" ry="18"/>
<text text-anchor="middle" x="1011.94" y="-714" font-family="Times New Roman,serif" font-size="15.00">Standard procedure without MER</text>
</g>
<!-- 2757328409696&#45;&#45;2757328407776 -->
<g id="edge15" class="edge">
<title>2757328409696&#45;&#45;2757328407776</title>
<path fill="none" stroke="black" d="M603.38,-720C654.36,-720 769.48,-720 864.4,-720"/>
</g>
<!-- 2757328405520 -->
<g id="node19" class="node">
<title>2757328405520</title>
<ellipse fill="none" stroke="black" cx="1011.94" cy="-666" rx="144.5" ry="18"/>
<text text-anchor="middle" x="1011.94" y="-660" font-family="Times New Roman,serif" font-size="15.00">Generate procedure confirmation</text>
</g>
<!-- 2757328409696&#45;&#45;2757328405520 -->
<g id="edge16" class="edge">
<title>2757328409696&#45;&#45;2757328405520</title>
<path fill="none" stroke="black" d="M602.73,-716.78C661.41,-709.48 807.35,-691.33 907.83,-678.83"/>
</g>
<!-- 2757328410368 -->
<g id="node20" class="node">
<title>2757328410368</title>
<ellipse fill="none" stroke="black" cx="1011.94" cy="-612" rx="43.16" ry="18"/>
<text text-anchor="middle" x="1011.94" y="-606" font-family="Times New Roman,serif" font-size="15.00">Release</text>
</g>
<!-- 2757328409696&#45;&#45;2757328410368 -->
<g id="edge17" class="edge">
<title>2757328409696&#45;&#45;2757328410368</title>
<path fill="none" stroke="black" d="M601.78,-713.81C674.64,-695.68 887.76,-642.65 974.04,-621.18"/>
</g>
<!-- 2757328405712 -->
<g id="node21" class="node">
<title>2757328405712</title>
<ellipse fill="none" stroke="black" cx="1011.94" cy="-558" rx="108.16" ry="18"/>
<text text-anchor="middle" x="1011.94" y="-552" font-family="Times New Roman,serif" font-size="15.00">Begin WABOprocedure</text>
</g>
<!-- 2757328409696&#45;&#45;2757328405712 -->
<g id="edge18" class="edge">
<title>2757328409696&#45;&#45;2757328405712</title>
<path fill="none" stroke="black" d="M599.91,-711.4C668.88,-685.66 874.62,-608.88 966.16,-574.71"/>
</g>
<!-- 2757328412624 -->
<g id="node23" class="node">
<title>2757328412624</title>
<ellipse fill="black" stroke="black" cx="575.88" cy="-681" rx="2.7" ry="2.7"/>
</g>
<!-- 2757328410224&#45;&#45;2757328412624 -->
<g id="edge21" class="edge">
<title>2757328410224&#45;&#45;2757328412624</title>
<path fill="none" stroke="black" d="M242.44,-681C320.77,-681 548.08,-681 572.71,-681"/>
</g>
<!-- 2757328420496 -->
<g id="node24" class="node">
<title>2757328420496</title>
<ellipse fill="none" stroke="black" cx="575.88" cy="-642" rx="153.2" ry="18"/>
<text text-anchor="middle" x="575.88" y="-636" font-family="Times New Roman,serif" font-size="15.00">Record senddate acknowledgement</text>
</g>
<!-- 2757328410224&#45;&#45;2757328420496 -->
<g id="edge22" class="edge">
<title>2757328410224&#45;&#45;2757328420496</title>
<path fill="none" stroke="black" d="M242.15,-678.16C287.71,-673.21 384.29,-662.72 461.71,-654.3"/>
</g>
<!-- 2757328418096 -->
<g id="node26" class="node">
<title>2757328418096</title>
<ellipse fill="black" stroke="black" cx="575.88" cy="-462" rx="2.7" ry="2.7"/>
</g>
<!-- 2757328406336&#45;&#45;2757328418096 -->
<g id="edge24" class="edge">
<title>2757328406336&#45;&#45;2757328418096</title>
<path fill="none" stroke="black" d="M242.44,-444.4C320.77,-448.54 548.08,-460.58 572.71,-461.89"/>
</g>
<!-- 2757328410128 -->
<g id="node27" class="node">
<title>2757328410128</title>
<ellipse fill="none" stroke="black" cx="575.88" cy="-423" rx="27" ry="18"/>
<text text-anchor="middle" x="575.88" y="-417" font-family="Times New Roman,serif" font-size="15.00">seq</text>
</g>
<!-- 2757328406336&#45;&#45;2757328410128 -->
<g id="edge29" class="edge">
<title>2757328406336&#45;&#45;2757328410128</title>
<path fill="none" stroke="black" d="M242.44,-441.53C308.96,-437.82 482.9,-428.13 548.94,-424.45"/>
</g>
<!-- 2757328411328 -->
<g id="node32" class="node">
<title>2757328411328</title>
<ellipse fill="none" stroke="black" cx="575.88" cy="-180" rx="27" ry="18"/>
<text text-anchor="middle" x="575.88" y="-174" font-family="Times New Roman,serif" font-size="15.00">seq</text>
</g>
<!-- 2757328406336&#45;&#45;2757328411328 -->
<g id="edge36" class="edge">
<title>2757328406336&#45;&#45;2757328411328</title>
<path fill="none" stroke="black" d="M233.85,-429.96C294.94,-385.18 495.72,-238.02 556.98,-193.12"/>
</g>
<!-- 2757328408544 -->
<g id="node28" class="node">
<title>2757328408544</title>
<ellipse fill="none" stroke="black" cx="1011.94" cy="-504" rx="174.7" ry="18"/>
<text text-anchor="middle" x="1011.94" y="-498" font-family="Times New Roman,serif" font-size="15.00">send confirmation to competent authority</text>
</g>
<!-- 2757328410128&#45;&#45;2757328408544 -->
<g id="edge25" class="edge">
<title>2757328410128&#45;&#45;2757328408544</title>
<path fill="none" stroke="black" d="M602.41,-427.76C664.29,-439.31 824.55,-469.22 924.97,-487.96"/>
</g>
<!-- 2757328418960 -->
<g id="node29" class="node">
<title>2757328418960</title>
<ellipse fill="none" stroke="black" cx="1011.94" cy="-450" rx="156.27" ry="18"/>
<text text-anchor="middle" x="1011.94" y="-444" font-family="Times New Roman,serif" font-size="15.00">message change competent authority</text>
</g>
<!-- 2757328410128&#45;&#45;2757328418960 -->
<g id="edge26" class="edge">
<title>2757328410128&#45;&#45;2757328418960</title>
<path fill="none" stroke="black" d="M603.05,-424.63C655.43,-427.89 776.39,-435.41 873.07,-441.42"/>
</g>
<!-- 2757328406000 -->
<g id="node30" class="node">
<title>2757328406000</title>
<ellipse fill="none" stroke="black" cx="1011.94" cy="-396" rx="200.29" ry="18"/>
<text text-anchor="middle" x="1011.94" y="-390" font-family="Times New Roman,serif" font-size="15.00">submit request towards the competent authority</text>
</g>
<!-- 2757328410128&#45;&#45;2757328406000 -->
<g id="edge27" class="edge">
<title>2757328410128&#45;&#45;2757328406000</title>
<path fill="none" stroke="black" d="M603.05,-421.37C650.53,-418.42 754.35,-411.96 845.36,-406.3"/>
</g>
<!-- 2757328415456 -->
<g id="node31" class="node">
<title>2757328415456</title>
<ellipse fill="none" stroke="black" cx="1011.94" cy="-342" rx="176.23" ry="18"/>
<text text-anchor="middle" x="1011.94" y="-336" font-family="Times New Roman,serif" font-size="15.00">log the senddate for letter to the authority</text>
</g>
<!-- 2757328410128&#45;&#45;2757328415456 -->
<g id="edge28" class="edge">
<title>2757328410128&#45;&#45;2757328415456</title>
<path fill="none" stroke="black" d="M602.41,-418.24C664.29,-406.69 824.55,-376.78 924.97,-358.04"/>
</g>
<!-- 2757328416608 -->
<g id="node33" class="node">
<title>2757328416608</title>
<ellipse fill="none" stroke="black" cx="1011.94" cy="-288" rx="163.44" ry="18"/>
<text text-anchor="middle" x="1011.94" y="-282" font-family="Times New Roman,serif" font-size="15.00">Log date termination request received</text>
</g>
<!-- 2757328411328&#45;&#45;2757328416608 -->
<g id="edge30" class="edge">
<title>2757328411328&#45;&#45;2757328416608</title>
<path fill="none" stroke="black" d="M601.78,-186.19C667.17,-202.46 845.51,-246.84 943.77,-271.29"/>
</g>
<!-- 2757328413632 -->
<g id="node34" class="node">
<title>2757328413632</title>
<ellipse fill="none" stroke="black" cx="1011.94" cy="-234" rx="158.32" ry="18"/>
<text text-anchor="middle" x="1011.94" y="-228" font-family="Times New Roman,serif" font-size="15.00">Record senddate termination request</text>
</g>
<!-- 2757328411328&#45;&#45;2757328413632 -->
<g id="edge31" class="edge">
<title>2757328411328&#45;&#45;2757328413632</title>
<path fill="none" stroke="black" d="M602.73,-183.22C660.5,-190.4 802.83,-208.11 903.11,-220.59"/>
</g>
<!-- 2757328414592 -->
<g id="node35" class="node">
<title>2757328414592</title>
<ellipse fill="none" stroke="black" cx="1011.94" cy="-180" rx="119.93" ry="18"/>
<text text-anchor="middle" x="1011.94" y="-174" font-family="Times New Roman,serif" font-size="15.00">Terminate request message</text>
</g>
<!-- 2757328411328&#45;&#45;2757328414592 -->
<g id="edge32" class="edge">
<title>2757328411328&#45;&#45;2757328414592</title>
<path fill="none" stroke="black" d="M603.38,-180C659.43,-180 792.96,-180 892,-180"/>
</g>
<!-- 2757328405328 -->
<g id="node36" class="node">
<title>2757328405328</title>
<ellipse fill="none" stroke="black" cx="1011.94" cy="-126" rx="63.63" ry="18"/>
<text text-anchor="middle" x="1011.94" y="-120" font-family="Times New Roman,serif" font-size="15.00">Log deadline</text>
</g>
<!-- 2757328411328&#45;&#45;2757328405328 -->
<g id="edge33" class="edge">
<title>2757328411328&#45;&#45;2757328405328</title>
<path fill="none" stroke="black" d="M602.73,-176.78C671.08,-168.28 857.84,-145.05 953.22,-133.18"/>
</g>
<!-- 2757328410608 -->
<g id="node37" class="node">
<title>2757328410608</title>
<ellipse fill="none" stroke="black" cx="1011.94" cy="-72" rx="119.42" ry="18"/>
<text text-anchor="middle" x="1011.94" y="-66" font-family="Times New Roman,serif" font-size="15.00">Phase procedure cancelled</text>
</g>
<!-- 2757328411328&#45;&#45;2757328410608 -->
<g id="edge34" class="edge">
<title>2757328411328&#45;&#45;2757328410608</title>
<path fill="none" stroke="black" d="M601.78,-173.81C668.16,-157.29 850.94,-111.81 948.18,-87.62"/>
</g>
<!-- 2757328420784 -->
<g id="node38" class="node">
<title>2757328420784</title>
<ellipse fill="none" stroke="black" cx="1011.94" cy="-18" rx="69.26" ry="18"/>
<text text-anchor="middle" x="1011.94" y="-12" font-family="Times New Roman,serif" font-size="15.00">Close the case</text>
</g>
<!-- 2757328411328&#45;&#45;2757328420784 -->
<g id="edge35" class="edge">
<title>2757328411328&#45;&#45;2757328420784</title>
<path fill="none" stroke="black" d="M599.91,-171.4C670.1,-145.21 881.99,-66.13 970.94,-32.93"/>
</g>
</g>
</svg>
