<?xml version="1.0" encoding="UTF-8" standalone="no"?>
<!DOCTYPE svg PUBLIC "-//W3C//DTD SVG 1.1//EN"
 "http://www.w3.org/Graphics/SVG/1.1/DTD/svg11.dtd">
<!-- Generated by graphviz version 11.0.0 (20240428.1522)
 -->
<!-- Title: pt Pages: 1 -->
<svg width="2120pt" height="546pt"
 viewBox="0.00 0.00 2120.43 546.00" xmlns="http://www.w3.org/2000/svg" xmlns:xlink="http://www.w3.org/1999/xlink">
<g id="graph0" class="graph" transform="scale(1 1) rotate(0) translate(4 542)">
<title>pt</title>
<polygon fill="white" stroke="none" points="-4,4 -4,-542 2116.43,-542 2116.43,4 -4,4"/>
<!-- 2757326950032 -->
<g id="node1" class="node">
<title>2757326950032</title>
<ellipse fill="none" stroke="black" cx="27" cy="-273" rx="27" ry="18"/>
<text text-anchor="middle" x="27" y="-267" font-family="Times New Roman,serif" font-size="15.00">seq</text>
</g>
<!-- 2757326962608 -->
<g id="node2" class="node">
<title>2757326962608</title>
<ellipse fill="none" stroke="black" cx="215.05" cy="-381" rx="125.05" ry="18"/>
<text text-anchor="middle" x="215.05" y="-375" font-family="Times New Roman,serif" font-size="15.00">Log submission date request</text>
</g>
<!-- 2757326950032&#45;&#45;2757326962608 -->
<g id="edge1" class="edge">
<title>2757326950032&#45;&#45;2757326962608</title>
<path fill="none" stroke="black" d="M47.91,-284.56C80.44,-303.44 145.19,-341.03 183.54,-363.29"/>
</g>
<!-- 2757326954784 -->
<g id="node3" class="node">
<title>2757326954784</title>
<ellipse fill="none" stroke="black" cx="215.05" cy="-327" rx="27" ry="18"/>
<text text-anchor="middle" x="215.05" y="-321" font-family="Times New Roman,serif" font-size="15.00">xor</text>
</g>
<!-- 2757326950032&#45;&#45;2757326954784 -->
<g id="edge4" class="edge">
<title>2757326950032&#45;&#45;2757326954784</title>
<path fill="none" stroke="black" d="M52.32,-280.06C87.98,-290.41 154.06,-309.59 189.72,-319.94"/>
</g>
<!-- 2757326947344 -->
<g id="node6" class="node">
<title>2757326947344</title>
<ellipse fill="none" stroke="black" cx="215.05" cy="-273" rx="121.47" ry="18"/>
<text text-anchor="middle" x="215.05" y="-267" font-family="Times New Roman,serif" font-size="15.00">OLO communication active</text>
</g>
<!-- 2757326950032&#45;&#45;2757326947344 -->
<g id="edge5" class="edge">
<title>2757326950032&#45;&#45;2757326947344</title>
<path fill="none" stroke="black" d="M54.26,-273C65.18,-273 78.69,-273 93.2,-273"/>
</g>
<!-- 2757326961984 -->
<g id="node7" class="node">
<title>2757326961984</title>
<ellipse fill="none" stroke="black" cx="215.05" cy="-219" rx="27" ry="18"/>
<text text-anchor="middle" x="215.05" y="-213" font-family="Times New Roman,serif" font-size="15.00">and</text>
</g>
<!-- 2757326950032&#45;&#45;2757326961984 -->
<g id="edge30" class="edge">
<title>2757326950032&#45;&#45;2757326961984</title>
<path fill="none" stroke="black" d="M52.32,-265.94C87.98,-255.59 154.06,-236.41 189.72,-226.06"/>
</g>
<!-- 2757326961072 -->
<g id="node32" class="node">
<title>2757326961072</title>
<ellipse fill="none" stroke="black" cx="215.05" cy="-165" rx="27" ry="18"/>
<text text-anchor="middle" x="215.05" y="-159" font-family="Times New Roman,serif" font-size="15.00">xor</text>
</g>
<!-- 2757326950032&#45;&#45;2757326961072 -->
<g id="edge37" class="edge">
<title>2757326950032&#45;&#45;2757326961072</title>
<path fill="none" stroke="black" d="M47.91,-261.44C83.63,-240.71 158.19,-197.43 194,-176.64"/>
</g>
<!-- 2757326960832 -->
<g id="node4" class="node">
<title>2757326960832</title>
<ellipse fill="black" stroke="black" cx="539.54" cy="-366" rx="2.7" ry="2.7"/>
</g>
<!-- 2757326954784&#45;&#45;2757326960832 -->
<g id="edge2" class="edge">
<title>2757326954784&#45;&#45;2757326960832</title>
<path fill="none" stroke="black" d="M241.9,-330.13C314.24,-338.87 514.89,-363.14 536.63,-365.77"/>
</g>
<!-- 2757326955072 -->
<g id="node5" class="node">
<title>2757326955072</title>
<ellipse fill="none" stroke="black" cx="539.54" cy="-327" rx="163.44" ry="18"/>
<text text-anchor="middle" x="539.54" y="-321" font-family="Times New Roman,serif" font-size="15.00">Log date termination request received</text>
</g>
<!-- 2757326954784&#45;&#45;2757326955072 -->
<g id="edge3" class="edge">
<title>2757326954784&#45;&#45;2757326955072</title>
<path fill="none" stroke="black" d="M242.44,-327C272.45,-327 324.03,-327 375.81,-327"/>
</g>
<!-- 2757326961408 -->
<g id="node8" class="node">
<title>2757326961408</title>
<ellipse fill="none" stroke="black" cx="539.54" cy="-273" rx="118.91" ry="18"/>
<text text-anchor="middle" x="539.54" y="-267" font-family="Times New Roman,serif" font-size="15.00">Stage application received</text>
</g>
<!-- 2757326961984&#45;&#45;2757326961408 -->
<g id="edge6" class="edge">
<title>2757326961984&#45;&#45;2757326961408</title>
<path fill="none" stroke="black" d="M241.63,-223.28C287.81,-231.02 386.91,-247.61 457.93,-259.5"/>
</g>
<!-- 2757326955792 -->
<g id="node9" class="node">
<title>2757326955792</title>
<ellipse fill="none" stroke="black" cx="539.54" cy="-219" rx="45.21" ry="18"/>
<text text-anchor="middle" x="539.54" y="-213" font-family="Times New Roman,serif" font-size="15.00">xor loop</text>
</g>
<!-- 2757326961984&#45;&#45;2757326955792 -->
<g id="edge29" class="edge">
<title>2757326961984&#45;&#45;2757326955792</title>
<path fill="none" stroke="black" d="M242.44,-219C297.65,-219 425.85,-219 494.03,-219"/>
</g>
<!-- 2757326952528 -->
<g id="node10" class="node">
<title>2757326952528</title>
<ellipse fill="none" stroke="black" cx="897.3" cy="-258" rx="27" ry="18"/>
<text text-anchor="middle" x="897.3" y="-252" font-family="Times New Roman,serif" font-size="15.00">seq</text>
</g>
<!-- 2757326955792&#45;&#45;2757326952528 -->
<g id="edge27" class="edge">
<title>2757326955792&#45;&#45;2757326952528</title>
<path fill="none" stroke="black" d="M583.45,-223.7C658.11,-231.89 809.73,-248.51 870.38,-255.16"/>
</g>
<!-- 2757326962368 -->
<g id="node31" class="node">
<title>2757326962368</title>
<ellipse fill="black" stroke="black" cx="897.3" cy="-219" rx="2.7" ry="2.7"/>
</g>
<!-- 2757326955792&#45;&#45;2757326962368 -->
<g id="edge28" class="edge">
<title>2757326955792&#45;&#45;2757326962368</title>
<path fill="none" stroke="black" d="M585.24,-219C675.56,-219 873.08,-219 894.42,-219"/>
</g>
<!-- 2757326950992 -->
<g id="node11" class="node">
<title>2757326950992</title>
<ellipse fill="none" stroke="black" cx="1238.68" cy="-447" rx="27" ry="18"/>
<text text-anchor="middle" x="1238.68" y="-441" font-family="Times New Roman,serif" font-size="15.00">xor</text>
</g>
<!-- 2757326952528&#45;&#45;2757326950992 -->
<g id="edge15" class="edge">
<title>2757326952528&#45;&#45;2757326950992</title>
<path fill="none" stroke="black" d="M918.76,-269.4C979.24,-303.08 1156.67,-401.89 1217.18,-435.59"/>
</g>
<!-- 2757331514912 -->
<g id="node20" class="node">
<title>2757331514912</title>
<ellipse fill="none" stroke="black" cx="1238.68" cy="-393" rx="27" ry="18"/>
<text text-anchor="middle" x="1238.68" y="-387" font-family="Times New Roman,serif" font-size="15.00">xor</text>
</g>
<!-- 2757326952528&#45;&#45;2757331514912 -->
<g id="edge18" class="edge">
<title>2757326952528&#45;&#45;2757331514912</title>
<path fill="none" stroke="black" d="M921.09,-267.07C982.92,-291.66 1153.27,-359.43 1214.98,-383.97"/>
</g>
<!-- 2757331517360 -->
<g id="node23" class="node">
<title>2757331517360</title>
<ellipse fill="none" stroke="black" cx="1238.68" cy="-339" rx="131.19" ry="18"/>
<text text-anchor="middle" x="1238.68" y="-333" font-family="Times New Roman,serif" font-size="15.00">Dispatch confirmation receipt</text>
</g>
<!-- 2757326952528&#45;&#45;2757331517360 -->
<g id="edge19" class="edge">
<title>2757326952528&#45;&#45;2757331517360</title>
<path fill="none" stroke="black" d="M923.25,-263.96C974.99,-276.3 1095.45,-305.05 1171.34,-323.17"/>
</g>
<!-- 2757331510544 -->
<g id="node24" class="node">
<title>2757331510544</title>
<ellipse fill="none" stroke="black" cx="1238.68" cy="-285" rx="136.82" ry="18"/>
<text text-anchor="middle" x="1238.68" y="-279" font-family="Times New Roman,serif" font-size="15.00">Send to the competent authority</text>
</g>
<!-- 2757326952528&#45;&#45;2757331510544 -->
<g id="edge20" class="edge">
<title>2757326952528&#45;&#45;2757331510544</title>
<path fill="none" stroke="black" d="M924.36,-260.07C965.96,-263.38 1049.86,-270.06 1120.37,-275.67"/>
</g>
<!-- 2757331509344 -->
<g id="node25" class="node">
<title>2757331509344</title>
<ellipse fill="none" stroke="black" cx="1238.68" cy="-231" rx="147.06" ry="18"/>
<text text-anchor="middle" x="1238.68" y="-225" font-family="Times New Roman,serif" font-size="15.00">Standard procedure without MER</text>
</g>
<!-- 2757326952528&#45;&#45;2757331509344 -->
<g id="edge21" class="edge">
<title>2757326952528&#45;&#45;2757331509344</title>
<path fill="none" stroke="black" d="M924.36,-255.93C964.72,-252.72 1044.88,-246.34 1114.02,-240.84"/>
</g>
<!-- 2757331508672 -->
<g id="node26" class="node">
<title>2757331508672</title>
<ellipse fill="none" stroke="black" cx="1238.68" cy="-177" rx="144.5" ry="18"/>
<text text-anchor="middle" x="1238.68" y="-171" font-family="Times New Roman,serif" font-size="15.00">Generate procedure confirmation</text>
</g>
<!-- 2757326952528&#45;&#45;2757331508672 -->
<g id="edge22" class="edge">
<title>2757326952528&#45;&#45;2757331508672</title>
<path fill="none" stroke="black" d="M923.25,-252.04C974.61,-239.79 1093.67,-211.37 1169.65,-193.24"/>
</g>
<!-- 2757331508000 -->
<g id="node27" class="node">
<title>2757331508000</title>
<ellipse fill="none" stroke="black" cx="1238.68" cy="-123" rx="43.16" ry="18"/>
<text text-anchor="middle" x="1238.68" y="-117" font-family="Times New Roman,serif" font-size="15.00">Release</text>
</g>
<!-- 2757326952528&#45;&#45;2757331508000 -->
<g id="edge23" class="edge">
<title>2757326952528&#45;&#45;2757331508000</title>
<path fill="none" stroke="black" d="M921.09,-248.93C980.32,-225.37 1139.13,-162.2 1206.63,-135.35"/>
</g>
<!-- 2757331507328 -->
<g id="node28" class="node">
<title>2757331507328</title>
<ellipse fill="none" stroke="black" cx="1238.68" cy="-69" rx="27" ry="18"/>
<text text-anchor="middle" x="1238.68" y="-63" font-family="Times New Roman,serif" font-size="15.00">xor</text>
</g>
<!-- 2757326952528&#45;&#45;2757331507328 -->
<g id="edge26" class="edge">
<title>2757326952528&#45;&#45;2757331507328</title>
<path fill="none" stroke="black" d="M918.76,-246.6C979.24,-212.92 1156.67,-114.11 1217.18,-80.41"/>
</g>
<!-- 2757331509680 -->
<g id="node12" class="node">
<title>2757331509680</title>
<ellipse fill="black" stroke="black" cx="1574.94" cy="-482" rx="2.7" ry="2.7"/>
</g>
<!-- 2757326950992&#45;&#45;2757331509680 -->
<g id="edge7" class="edge">
<title>2757326950992&#45;&#45;2757331509680</title>
<path fill="none" stroke="black" d="M1265.63,-449.72C1339.87,-457.49 1549.26,-479.42 1571.94,-481.79"/>
</g>
<!-- 2757331509872 -->
<g id="node13" class="node">
<title>2757331509872</title>
<ellipse fill="none" stroke="black" cx="1574.94" cy="-443" rx="27" ry="18"/>
<text text-anchor="middle" x="1574.94" y="-437" font-family="Times New Roman,serif" font-size="15.00">seq</text>
</g>
<!-- 2757326950992&#45;&#45;2757331509872 -->
<g id="edge14" class="edge">
<title>2757326950992&#45;&#45;2757331509872</title>
<path fill="none" stroke="black" d="M1265.91,-446.69C1328.39,-445.94 1485.47,-444.06 1547.83,-443.31"/>
</g>
<!-- 2757331515920 -->
<g id="node14" class="node">
<title>2757331515920</title>
<ellipse fill="none" stroke="black" cx="1791.14" cy="-470" rx="27" ry="18"/>
<text text-anchor="middle" x="1791.14" y="-464" font-family="Times New Roman,serif" font-size="15.00">and</text>
</g>
<!-- 2757331509872&#45;&#45;2757331515920 -->
<g id="edge10" class="edge">
<title>2757331509872&#45;&#45;2757331515920</title>
<path fill="none" stroke="black" d="M1601.77,-446.26C1642.95,-451.45 1722.98,-461.53 1764.21,-466.73"/>
</g>
<!-- 2757331515440 -->
<g id="node17" class="node">
<title>2757331515440</title>
<ellipse fill="none" stroke="black" cx="1791.14" cy="-416" rx="27" ry="18"/>
<text text-anchor="middle" x="1791.14" y="-410" font-family="Times New Roman,serif" font-size="15.00">xor</text>
</g>
<!-- 2757331509872&#45;&#45;2757331515440 -->
<g id="edge13" class="edge">
<title>2757331509872&#45;&#45;2757331515440</title>
<path fill="none" stroke="black" d="M1601.77,-439.74C1642.95,-434.55 1722.98,-424.47 1764.21,-419.27"/>
</g>
<!-- 2757331513712 -->
<g id="node15" class="node">
<title>2757331513712</title>
<ellipse fill="none" stroke="black" cx="1983.28" cy="-520" rx="116.86" ry="18"/>
<text text-anchor="middle" x="1983.28" y="-514" font-family="Times New Roman,serif" font-size="15.00">Applicant is a stakeholder</text>
</g>
<!-- 2757331515920&#45;&#45;2757331513712 -->
<g id="edge8" class="edge">
<title>2757331515920&#45;&#45;2757331513712</title>
<path fill="none" stroke="black" d="M1816.61,-476.43C1843.19,-483.42 1886.64,-494.85 1922.37,-504.25"/>
</g>
<!-- 2757331513040 -->
<g id="node16" class="node">
<title>2757331513040</title>
<ellipse fill="none" stroke="black" cx="1983.28" cy="-466" rx="70.8" ry="18"/>
<text text-anchor="middle" x="1983.28" y="-460" font-family="Times New Roman,serif" font-size="15.00">End on request</text>
</g>
<!-- 2757331515920&#45;&#45;2757331513040 -->
<g id="edge9" class="edge">
<title>2757331515920&#45;&#45;2757331513040</title>
<path fill="none" stroke="black" d="M1818.58,-469.44C1842.76,-468.94 1879.63,-468.16 1912.27,-467.47"/>
</g>
<!-- 2757331511648 -->
<g id="node18" class="node">
<title>2757331511648</title>
<ellipse fill="black" stroke="black" cx="1983.28" cy="-420" rx="2.7" ry="2.7"/>
</g>
<!-- 2757331515440&#45;&#45;2757331511648 -->
<g id="edge11" class="edge">
<title>2757331515440&#45;&#45;2757331511648</title>
<path fill="none" stroke="black" d="M1818.58,-416.56C1866.74,-417.57 1965.23,-419.64 1980.33,-419.96"/>
</g>
<!-- 2757331510880 -->
<g id="node19" class="node">
<title>2757331510880</title>
<ellipse fill="none" stroke="black" cx="1983.28" cy="-381" rx="129.15" ry="18"/>
<text text-anchor="middle" x="1983.28" y="-375" font-family="Times New Roman,serif" font-size="15.00">Compute provisional charges</text>
</g>
<!-- 2757331515440&#45;&#45;2757331510880 -->
<g id="edge12" class="edge">
<title>2757331515440&#45;&#45;2757331510880</title>
<path fill="none" stroke="black" d="M1817.39,-411.35C1839.41,-407.3 1872.57,-401.19 1903.4,-395.52"/>
</g>
<!-- 2757331514384 -->
<g id="node21" class="node">
<title>2757331514384</title>
<ellipse fill="black" stroke="black" cx="1574.94" cy="-397" rx="2.7" ry="2.7"/>
</g>
<!-- 2757331514912&#45;&#45;2757331514384 -->
<g id="edge16" class="edge">
<title>2757331514912&#45;&#45;2757331514384</title>
<path fill="none" stroke="black" d="M1265.91,-393.31C1340.39,-394.21 1549.31,-396.71 1571.94,-396.98"/>
</g>
<!-- 2757331512320 -->
<g id="node22" class="node">
<title>2757331512320</title>
<ellipse fill="none" stroke="black" cx="1574.94" cy="-358" rx="153.2" ry="18"/>
<text text-anchor="middle" x="1574.94" y="-352" font-family="Times New Roman,serif" font-size="15.00">Record senddate acknowledgement</text>
</g>
<!-- 2757331514912&#45;&#45;2757331512320 -->
<g id="edge17" class="edge">
<title>2757331514912&#45;&#45;2757331512320</title>
<path fill="none" stroke="black" d="M1265.63,-390.28C1306.74,-385.98 1389.28,-377.34 1458.62,-370.07"/>
</g>
<!-- 2757331505648 -->
<g id="node29" class="node">
<title>2757331505648</title>
<ellipse fill="black" stroke="black" cx="1574.94" cy="-89" rx="2.7" ry="2.7"/>
</g>
<!-- 2757331507328&#45;&#45;2757331505648 -->
<g id="edge24" class="edge">
<title>2757331507328&#45;&#45;2757331505648</title>
<path fill="none" stroke="black" d="M1265.91,-70.57C1340.39,-75.03 1549.31,-87.53 1571.94,-88.88"/>
</g>
<!-- 2757331504976 -->
<g id="node30" class="node">
<title>2757331504976</title>
<ellipse fill="none" stroke="black" cx="1574.94" cy="-50" rx="108.16" ry="18"/>
<text text-anchor="middle" x="1574.94" y="-44" font-family="Times New Roman,serif" font-size="15.00">Begin WABOprocedure</text>
</g>
<!-- 2757331507328&#45;&#45;2757331504976 -->
<g id="edge25" class="edge">
<title>2757331507328&#45;&#45;2757331504976</title>
<path fill="none" stroke="black" d="M1265.91,-67.51C1309.77,-65.02 1400.24,-59.87 1471.85,-55.8"/>
</g>
<!-- 2757326951472 -->
<g id="node33" class="node">
<title>2757326951472</title>
<ellipse fill="black" stroke="black" cx="539.54" cy="-165" rx="2.7" ry="2.7"/>
</g>
<!-- 2757326961072&#45;&#45;2757326951472 -->
<g id="edge31" class="edge">
<title>2757326961072&#45;&#45;2757326951472</title>
<path fill="none" stroke="black" d="M242.44,-165C315.25,-165 515,-165 536.63,-165"/>
</g>
<!-- 2757331506656 -->
<g id="node34" class="node">
<title>2757331506656</title>
<ellipse fill="none" stroke="black" cx="539.54" cy="-126" rx="27" ry="18"/>
<text text-anchor="middle" x="539.54" y="-120" font-family="Times New Roman,serif" font-size="15.00">seq</text>
</g>
<!-- 2757326961072&#45;&#45;2757331506656 -->
<g id="edge36" class="edge">
<title>2757326961072&#45;&#45;2757331506656</title>
<path fill="none" stroke="black" d="M241.9,-161.87C302.28,-154.57 452.07,-136.46 512.57,-129.14"/>
</g>
<!-- 2757331503632 -->
<g id="node35" class="node">
<title>2757331503632</title>
<ellipse fill="none" stroke="black" cx="897.3" cy="-180" rx="119.93" ry="18"/>
<text text-anchor="middle" x="897.3" y="-174" font-family="Times New Roman,serif" font-size="15.00">Terminate request message</text>
</g>
<!-- 2757331506656&#45;&#45;2757331503632 -->
<g id="edge32" class="edge">
<title>2757331506656&#45;&#45;2757331503632</title>
<path fill="none" stroke="black" d="M566.41,-129.93C617.1,-137.62 731.48,-154.98 811.25,-167.09"/>
</g>
<!-- 2757331502960 -->
<g id="node36" class="node">
<title>2757331502960</title>
<ellipse fill="none" stroke="black" cx="897.3" cy="-126" rx="158.32" ry="18"/>
<text text-anchor="middle" x="897.3" y="-120" font-family="Times New Roman,serif" font-size="15.00">Record senddate termination request</text>
</g>
<!-- 2757331506656&#45;&#45;2757331502960 -->
<g id="edge33" class="edge">
<title>2757331506656&#45;&#45;2757331502960</title>
<path fill="none" stroke="black" d="M566.99,-126C603.7,-126 673.02,-126 738.63,-126"/>
</g>
<!-- 2757331502288 -->
<g id="node37" class="node">
<title>2757331502288</title>
<ellipse fill="none" stroke="black" cx="897.3" cy="-72" rx="119.42" ry="18"/>
<text text-anchor="middle" x="897.3" y="-66" font-family="Times New Roman,serif" font-size="15.00">Phase procedure cancelled</text>
</g>
<!-- 2757331506656&#45;&#45;2757331502288 -->
<g id="edge34" class="edge">
<title>2757331506656&#45;&#45;2757331502288</title>
<path fill="none" stroke="black" d="M566.41,-122.07C617.18,-114.37 731.84,-96.96 811.63,-84.85"/>
</g>
<!-- 2757331501616 -->
<g id="node38" class="node">
<title>2757331501616</title>
<ellipse fill="none" stroke="black" cx="897.3" cy="-18" rx="63.63" ry="18"/>
<text text-anchor="middle" x="897.3" y="-12" font-family="Times New Roman,serif" font-size="15.00">Log deadline</text>
</g>
<!-- 2757331506656&#45;&#45;2757331501616 -->
<g id="edge35" class="edge">
<title>2757331506656&#45;&#45;2757331501616</title>
<path fill="none" stroke="black" d="M564.71,-118.66C623.99,-100.67 777.2,-54.16 852.8,-31.21"/>
</g>
</g>
</svg>
