<?xml version="1.0" encoding="UTF-8" standalone="no"?>
<!DOCTYPE svg PUBLIC "-//W3C//DTD SVG 1.1//EN"
 "http://www.w3.org/Graphics/SVG/1.1/DTD/svg11.dtd">
<!-- Generated by graphviz version 11.0.0 (20240428.1522)
 -->
<!-- Title: pt Pages: 1 -->
<svg width="2044pt" height="1340pt"
 viewBox="0.00 0.00 2044.09 1340.00" xmlns="http://www.w3.org/2000/svg" xmlns:xlink="http://www.w3.org/1999/xlink">
<g id="graph0" class="graph" transform="scale(1 1) rotate(0) translate(4 1336)">
<title>pt</title>
<polygon fill="white" stroke="none" points="-4,4 -4,-1336 2040.09,-1336 2040.09,4 -4,4"/>
<!-- 2757332587232 -->
<g id="node1" class="node">
<title>2757332587232</title>
<ellipse fill="none" stroke="black" cx="27" cy="-639" rx="27" ry="18"/>
<text text-anchor="middle" x="27" y="-633" font-family="Times New Roman,serif" font-size="15.00">seq</text>
</g>
<!-- 2757332588912 -->
<g id="node2" class="node">
<title>2757332588912</title>
<ellipse fill="none" stroke="black" cx="117" cy="-788" rx="27" ry="18"/>
<text text-anchor="middle" x="117" y="-782" font-family="Times New Roman,serif" font-size="15.00">xor</text>
</g>
<!-- 2757332587232&#45;&#45;2757332588912 -->
<g id="edge33" class="edge">
<title>2757332587232&#45;&#45;2757332588912</title>
<path fill="none" stroke="black" d="M37.92,-655.8C54.91,-684.57 89.37,-742.92 106.25,-771.49"/>
</g>
<!-- 2757332588576 -->
<g id="node35" class="node">
<title>2757332588576</title>
<ellipse fill="none" stroke="black" cx="117" cy="-450" rx="27" ry="18"/>
<text text-anchor="middle" x="117" y="-444" font-family="Times New Roman,serif" font-size="15.00">xor</text>
</g>
<!-- 2757332587232&#45;&#45;2757332588576 -->
<g id="edge62" class="edge">
<title>2757332587232&#45;&#45;2757332588576</title>
<path fill="none" stroke="black" d="M36.12,-621.56C52.89,-585.55 91.15,-503.37 107.9,-467.4"/>
</g>
<!-- 2757332587184 -->
<g id="node3" class="node">
<title>2757332587184</title>
<ellipse fill="black" stroke="black" cx="207" cy="-827" rx="2.7" ry="2.7"/>
</g>
<!-- 2757332588912&#45;&#45;2757332587184 -->
<g id="edge1" class="edge">
<title>2757332588912&#45;&#45;2757332587184</title>
<path fill="none" stroke="black" d="M140.21,-797.84C163.02,-807.95 196.28,-822.69 204.24,-826.22"/>
</g>
<!-- 2757332586848 -->
<g id="node4" class="node">
<title>2757332586848</title>
<ellipse fill="none" stroke="black" cx="207" cy="-788" rx="27" ry="18"/>
<text text-anchor="middle" x="207" y="-782" font-family="Times New Roman,serif" font-size="15.00">seq</text>
</g>
<!-- 2757332588912&#45;&#45;2757332586848 -->
<g id="edge32" class="edge">
<title>2757332588912&#45;&#45;2757332586848</title>
<path fill="none" stroke="black" d="M144.4,-788C155.54,-788 168.48,-788 179.62,-788"/>
</g>
<!-- 2757332584592 -->
<g id="node5" class="node">
<title>2757332584592</title>
<ellipse fill="none" stroke="black" cx="417.06" cy="-963" rx="27" ry="18"/>
<text text-anchor="middle" x="417.06" y="-957" font-family="Times New Roman,serif" font-size="15.00">xor</text>
</g>
<!-- 2757332586848&#45;&#45;2757332584592 -->
<g id="edge29" class="edge">
<title>2757332586848&#45;&#45;2757332584592</title>
<path fill="none" stroke="black" d="M224.67,-802.03C263.63,-834.79 360.27,-916.07 399.31,-948.91"/>
</g>
<!-- 2757332584256 -->
<g id="node33" class="node">
<title>2757332584256</title>
<ellipse fill="none" stroke="black" cx="417.06" cy="-815" rx="136.82" ry="18"/>
<text text-anchor="middle" x="417.06" y="-809" font-family="Times New Roman,serif" font-size="15.00">Send to the competent authority</text>
</g>
<!-- 2757332586848&#45;&#45;2757332584256 -->
<g id="edge30" class="edge">
<title>2757332586848&#45;&#45;2757332584256</title>
<path fill="none" stroke="black" d="M233.93,-791.36C255.28,-794.14 286.98,-798.25 317.97,-802.27"/>
</g>
<!-- 2757332583248 -->
<g id="node34" class="node">
<title>2757332583248</title>
<ellipse fill="none" stroke="black" cx="417.06" cy="-761" rx="147.06" ry="18"/>
<text text-anchor="middle" x="417.06" y="-755" font-family="Times New Roman,serif" font-size="15.00">Standard procedure without MER</text>
</g>
<!-- 2757332586848&#45;&#45;2757332583248 -->
<g id="edge31" class="edge">
<title>2757332586848&#45;&#45;2757332583248</title>
<path fill="none" stroke="black" d="M233.93,-784.64C254.41,-781.98 284.41,-778.08 314.17,-774.22"/>
</g>
<!-- 2757332582912 -->
<g id="node6" class="node">
<title>2757332582912</title>
<ellipse fill="black" stroke="black" cx="744.11" cy="-1002" rx="2.7" ry="2.7"/>
</g>
<!-- 2757332584592&#45;&#45;2757332582912 -->
<g id="edge2" class="edge">
<title>2757332584592&#45;&#45;2757332582912</title>
<path fill="none" stroke="black" d="M444.11,-966.13C517.02,-974.87 719.27,-999.14 741.18,-1001.77"/>
</g>
<!-- 2757332582576 -->
<g id="node7" class="node">
<title>2757332582576</title>
<ellipse fill="none" stroke="black" cx="744.11" cy="-963" rx="27" ry="18"/>
<text text-anchor="middle" x="744.11" y="-957" font-family="Times New Roman,serif" font-size="15.00">seq</text>
</g>
<!-- 2757332584592&#45;&#45;2757332582576 -->
<g id="edge28" class="edge">
<title>2757332584592&#45;&#45;2757332582576</title>
<path fill="none" stroke="black" d="M444.38,-963C505.44,-963 656.13,-963 716.99,-963"/>
</g>
<!-- 2757332597888 -->
<g id="node8" class="node">
<title>2757332597888</title>
<ellipse fill="none" stroke="black" cx="1129.5" cy="-1314" rx="125.05" ry="18"/>
<text text-anchor="middle" x="1129.5" y="-1308" font-family="Times New Roman,serif" font-size="15.00">Log submission date request</text>
</g>
<!-- 2757332582576&#45;&#45;2757332597888 -->
<g id="edge3" class="edge">
<title>2757332582576&#45;&#45;2757332597888</title>
<path fill="none" stroke="black" d="M760.61,-977.19C821.13,-1032.6 1041.43,-1234.29 1108.8,-1295.96"/>
</g>
<!-- 2757332597552 -->
<g id="node9" class="node">
<title>2757332597552</title>
<ellipse fill="none" stroke="black" cx="1129.5" cy="-1260" rx="27" ry="18"/>
<text text-anchor="middle" x="1129.5" y="-1254" font-family="Times New Roman,serif" font-size="15.00">xor</text>
</g>
<!-- 2757332582576&#45;&#45;2757332597552 -->
<g id="edge6" class="edge">
<title>2757332582576&#45;&#45;2757332597552</title>
<path fill="none" stroke="black" d="M762.58,-976.53C826.45,-1026.01 1046.89,-1196.78 1110.93,-1246.39"/>
</g>
<!-- 2757332597216 -->
<g id="node12" class="node">
<title>2757332597216</title>
<ellipse fill="none" stroke="black" cx="1129.5" cy="-1206" rx="121.47" ry="18"/>
<text text-anchor="middle" x="1129.5" y="-1200" font-family="Times New Roman,serif" font-size="15.00">OLO communication active</text>
</g>
<!-- 2757332582576&#45;&#45;2757332597216 -->
<g id="edge7" class="edge">
<title>2757332582576&#45;&#45;2757332597216</title>
<path fill="none" stroke="black" d="M764.38,-975.22C827.17,-1015.01 1026.04,-1141.06 1100.23,-1188.08"/>
</g>
<!-- 2757332596208 -->
<g id="node13" class="node">
<title>2757332596208</title>
<ellipse fill="none" stroke="black" cx="1129.5" cy="-1152" rx="27" ry="18"/>
<text text-anchor="middle" x="1129.5" y="-1146" font-family="Times New Roman,serif" font-size="15.00">xor</text>
</g>
<!-- 2757332582576&#45;&#45;2757332596208 -->
<g id="edge12" class="edge">
<title>2757332582576&#45;&#45;2757332596208</title>
<path fill="none" stroke="black" d="M766.54,-973.57C833.72,-1006.68 1039.69,-1108.22 1106.98,-1141.39"/>
</g>
<!-- 2757332596544 -->
<g id="node18" class="node">
<title>2757332596544</title>
<ellipse fill="none" stroke="black" cx="1129.5" cy="-1098" rx="126.08" ry="18"/>
<text text-anchor="middle" x="1129.5" y="-1092" font-family="Times New Roman,serif" font-size="15.00">Regular procedure activities</text>
</g>
<!-- 2757332582576&#45;&#45;2757332596544 -->
<g id="edge13" class="edge">
<title>2757332582576&#45;&#45;2757332596544</title>
<path fill="none" stroke="black" d="M768.51,-971.24C830.05,-992.91 997.34,-1051.81 1080.39,-1081.06"/>
</g>
<!-- 2757332594864 -->
<g id="node19" class="node">
<title>2757332594864</title>
<ellipse fill="none" stroke="black" cx="1129.5" cy="-1044" rx="27" ry="18"/>
<text text-anchor="middle" x="1129.5" y="-1038" font-family="Times New Roman,serif" font-size="15.00">xor</text>
</g>
<!-- 2757332582576&#45;&#45;2757332594864 -->
<g id="edge18" class="edge">
<title>2757332582576&#45;&#45;2757332594864</title>
<path fill="none" stroke="black" d="M770.26,-968.31C839.73,-982.99 1033.67,-1023.97 1103.25,-1038.67"/>
</g>
<!-- 2757332595200 -->
<g id="node24" class="node">
<title>2757332595200</title>
<ellipse fill="none" stroke="black" cx="1129.5" cy="-990" rx="144.5" ry="18"/>
<text text-anchor="middle" x="1129.5" y="-984" font-family="Times New Roman,serif" font-size="15.00">Generate procedure confirmation</text>
</g>
<!-- 2757332582576&#45;&#45;2757332595200 -->
<g id="edge19" class="edge">
<title>2757332582576&#45;&#45;2757332595200</title>
<path fill="none" stroke="black" d="M771.46,-964.86C818.49,-968.17 919.71,-975.3 1002.41,-981.12"/>
</g>
<!-- 2757332592800 -->
<g id="node25" class="node">
<title>2757332592800</title>
<ellipse fill="none" stroke="black" cx="1129.5" cy="-936" rx="43.16" ry="18"/>
<text text-anchor="middle" x="1129.5" y="-930" font-family="Times New Roman,serif" font-size="15.00">Release</text>
</g>
<!-- 2757332582576&#45;&#45;2757332592800 -->
<g id="edge20" class="edge">
<title>2757332582576&#45;&#45;2757332592800</title>
<path fill="none" stroke="black" d="M771.46,-961.14C836.85,-956.54 1006.98,-944.56 1086.45,-938.96"/>
</g>
<!-- 2757332593856 -->
<g id="node26" class="node">
<title>2757332593856</title>
<ellipse fill="none" stroke="black" cx="1129.5" cy="-882" rx="134.26" ry="18"/>
<text text-anchor="middle" x="1129.5" y="-876" font-family="Times New Roman,serif" font-size="15.00">Commence phased application</text>
</g>
<!-- 2757332582576&#45;&#45;2757332593856 -->
<g id="edge21" class="edge">
<title>2757332582576&#45;&#45;2757332593856</title>
<path fill="none" stroke="black" d="M770.26,-957.69C827.32,-945.63 968.35,-915.84 1055.47,-897.43"/>
</g>
<!-- 2757332583920 -->
<g id="node27" class="node">
<title>2757332583920</title>
<ellipse fill="none" stroke="black" cx="1129.5" cy="-828" rx="136.31" ry="18"/>
<text text-anchor="middle" x="1129.5" y="-822" font-family="Times New Roman,serif" font-size="15.00">Check field phased application</text>
</g>
<!-- 2757332582576&#45;&#45;2757332583920 -->
<g id="edge22" class="edge">
<title>2757332582576&#45;&#45;2757332583920</title>
<path fill="none" stroke="black" d="M768.51,-954.76C829.89,-933.15 996.46,-874.5 1079.73,-845.17"/>
</g>
<!-- 2757332591792 -->
<g id="node28" class="node">
<title>2757332591792</title>
<ellipse fill="none" stroke="black" cx="1129.5" cy="-774" rx="108.16" ry="18"/>
<text text-anchor="middle" x="1129.5" y="-768" font-family="Times New Roman,serif" font-size="15.00">Begin WABOprocedure</text>
</g>
<!-- 2757332582576&#45;&#45;2757332591792 -->
<g id="edge23" class="edge">
<title>2757332582576&#45;&#45;2757332591792</title>
<path fill="none" stroke="black" d="M766.54,-952.43C829.62,-921.34 1015.06,-829.92 1093.17,-791.42"/>
</g>
<!-- 2757332590784 -->
<g id="node29" class="node">
<title>2757332590784</title>
<ellipse fill="none" stroke="black" cx="1129.5" cy="-720" rx="118.91" ry="18"/>
<text text-anchor="middle" x="1129.5" y="-714" font-family="Times New Roman,serif" font-size="15.00">Stage application received</text>
</g>
<!-- 2757332582576&#45;&#45;2757332590784 -->
<g id="edge24" class="edge">
<title>2757332582576&#45;&#45;2757332590784</title>
<path fill="none" stroke="black" d="M764.38,-950.78C827.17,-910.99 1026.04,-784.94 1100.23,-737.92"/>
</g>
<!-- 2757332591120 -->
<g id="node30" class="node">
<title>2757332591120</title>
<ellipse fill="none" stroke="black" cx="1129.5" cy="-666" rx="45.21" ry="18"/>
<text text-anchor="middle" x="1129.5" y="-660" font-family="Times New Roman,serif" font-size="15.00">xor loop</text>
</g>
<!-- 2757332582576&#45;&#45;2757332591120 -->
<g id="edge27" class="edge">
<title>2757332582576&#45;&#45;2757332591120</title>
<path fill="none" stroke="black" d="M762.58,-949.47C825.42,-900.78 1039.85,-734.67 1107.73,-682.09"/>
</g>
<!-- 2757332595872 -->
<g id="node10" class="node">
<title>2757332595872</title>
<ellipse fill="black" stroke="black" cx="1588.08" cy="-1279" rx="2.7" ry="2.7"/>
</g>
<!-- 2757332597552&#45;&#45;2757332595872 -->
<g id="edge4" class="edge">
<title>2757332597552&#45;&#45;2757332595872</title>
<path fill="none" stroke="black" d="M1156.69,-1261.09C1249.16,-1264.94 1556.35,-1277.72 1584.95,-1278.91"/>
</g>
<!-- 2757332595536 -->
<g id="node11" class="node">
<title>2757332595536</title>
<ellipse fill="none" stroke="black" cx="1588.08" cy="-1240" rx="217.18" ry="18"/>
<text text-anchor="middle" x="1588.08" y="-1234" font-family="Times New Roman,serif" font-size="15.00">log senddate letter no permit or notification needed</text>
</g>
<!-- 2757332597552&#45;&#45;2757332595536 -->
<g id="edge5" class="edge">
<title>2757332597552&#45;&#45;2757332595536</title>
<path fill="none" stroke="black" d="M1156.69,-1258.85C1202.88,-1256.83 1302.64,-1252.46 1394.49,-1248.44"/>
</g>
<!-- 2757332594528 -->
<g id="node14" class="node">
<title>2757332594528</title>
<ellipse fill="none" stroke="black" cx="1588.08" cy="-1178" rx="182.89" ry="18"/>
<text text-anchor="middle" x="1588.08" y="-1172" font-family="Times New Roman,serif" font-size="15.00">Mandatory Environmental Report required</text>
</g>
<!-- 2757332596208&#45;&#45;2757332594528 -->
<g id="edge8" class="edge">
<title>2757332596208&#45;&#45;2757332594528</title>
<path fill="none" stroke="black" d="M1156.69,-1153.49C1208.61,-1156.45 1328.22,-1163.26 1428.2,-1168.95"/>
</g>
<!-- 2757332594192 -->
<g id="node15" class="node">
<title>2757332594192</title>
<ellipse fill="none" stroke="black" cx="1588.08" cy="-1124" rx="27" ry="18"/>
<text text-anchor="middle" x="1588.08" y="-1118" font-family="Times New Roman,serif" font-size="15.00">seq</text>
</g>
<!-- 2757332596208&#45;&#45;2757332594192 -->
<g id="edge11" class="edge">
<title>2757332596208&#45;&#45;2757332594192</title>
<path fill="none" stroke="black" d="M1156.69,-1150.39C1237.13,-1145.46 1480.04,-1130.56 1560.72,-1125.62"/>
</g>
<!-- 2757332592464 -->
<g id="node16" class="node">
<title>2757332592464</title>
<ellipse fill="none" stroke="black" cx="1938.68" cy="-1127" rx="69.78" ry="18"/>
<text text-anchor="middle" x="1938.68" y="-1121" font-family="Times New Roman,serif" font-size="15.00">MER included</text>
</g>
<!-- 2757332594192&#45;&#45;2757332592464 -->
<g id="edge9" class="edge">
<title>2757332594192&#45;&#45;2757332592464</title>
<path fill="none" stroke="black" d="M1615.57,-1124.23C1668.96,-1124.69 1790.99,-1125.74 1868.58,-1126.41"/>
</g>
<!-- 2757332592128 -->
<g id="node17" class="node">
<title>2757332592128</title>
<ellipse fill="none" stroke="black" cx="1938.68" cy="-1073" rx="94.86" ry="18"/>
<text text-anchor="middle" x="1938.68" y="-1067" font-family="Times New Roman,serif" font-size="15.00">Inspect BAG objects</text>
</g>
<!-- 2757332594192&#45;&#45;2757332592128 -->
<g id="edge10" class="edge">
<title>2757332594192&#45;&#45;2757332592128</title>
<path fill="none" stroke="black" d="M1615,-1120.21C1666.68,-1112.65 1784.27,-1095.44 1862.3,-1084.03"/>
</g>
<!-- 2757332593184 -->
<g id="node20" class="node">
<title>2757332593184</title>
<ellipse fill="none" stroke="black" cx="1588.08" cy="-1059" rx="87.69" ry="18"/>
<text text-anchor="middle" x="1588.08" y="-1053" font-family="Times New Roman,serif" font-size="15.00">Phased application</text>
</g>
<!-- 2757332594864&#45;&#45;2757332593184 -->
<g id="edge14" class="edge">
<title>2757332594864&#45;&#45;2757332593184</title>
<path fill="none" stroke="black" d="M1156.69,-1044.86C1222.25,-1047.01 1395.76,-1052.71 1501.37,-1056.18"/>
</g>
<!-- 2757332587328 -->
<g id="node21" class="node">
<title>2757332587328</title>
<ellipse fill="none" stroke="black" cx="1588.08" cy="-1005" rx="27" ry="18"/>
<text text-anchor="middle" x="1588.08" y="-999" font-family="Times New Roman,serif" font-size="15.00">seq</text>
</g>
<!-- 2757332594864&#45;&#45;2757332587328 -->
<g id="edge17" class="edge">
<title>2757332594864&#45;&#45;2757332587328</title>
<path fill="none" stroke="black" d="M1156.69,-1041.76C1237.22,-1034.88 1480.61,-1014.09 1561,-1007.23"/>
</g>
<!-- 2757332590448 -->
<g id="node22" class="node">
<title>2757332590448</title>
<ellipse fill="none" stroke="black" cx="1938.68" cy="-1012" rx="97.41" ry="18"/>
<text text-anchor="middle" x="1938.68" y="-1006" font-family="Times New Roman,serif" font-size="15.00">First or second phase</text>
</g>
<!-- 2757332587328&#45;&#45;2757332590448 -->
<g id="edge15" class="edge">
<title>2757332587328&#45;&#45;2757332590448</title>
<path fill="none" stroke="black" d="M1615.57,-1005.53C1663.08,-1006.49 1764.95,-1008.53 1841.49,-1010.07"/>
</g>
<!-- 2757332590112 -->
<g id="node23" class="node">
<title>2757332590112</title>
<ellipse fill="none" stroke="black" cx="1938.68" cy="-958" rx="97.41" ry="18"/>
<text text-anchor="middle" x="1938.68" y="-952" font-family="Times New Roman,serif" font-size="15.00">Term 14 or 26 weeks</text>
</g>
<!-- 2757332587328&#45;&#45;2757332590112 -->
<g id="edge16" class="edge">
<title>2757332587328&#45;&#45;2757332590112</title>
<path fill="none" stroke="black" d="M1615,-1001.51C1665.89,-994.64 1780.69,-979.17 1858.7,-968.65"/>
</g>
<!-- 2757332588672 -->
<g id="node31" class="node">
<title>2757332588672</title>
<ellipse fill="none" stroke="black" cx="1588.08" cy="-685" rx="131.19" ry="18"/>
<text text-anchor="middle" x="1588.08" y="-679" font-family="Times New Roman,serif" font-size="15.00">Dispatch confirmation receipt</text>
</g>
<!-- 2757332591120&#45;&#45;2757332588672 -->
<g id="edge25" class="edge">
<title>2757332591120&#45;&#45;2757332588672</title>
<path fill="none" stroke="black" d="M1174.7,-667.84C1240.38,-670.57 1366.27,-675.81 1461.76,-679.78"/>
</g>
<!-- 2757332588336 -->
<g id="node32" class="node">
<title>2757332588336</title>
<ellipse fill="black" stroke="black" cx="1588.08" cy="-646" rx="2.7" ry="2.7"/>
</g>
<!-- 2757332591120&#45;&#45;2757332588336 -->
<g id="edge26" class="edge">
<title>2757332591120&#45;&#45;2757332588336</title>
<path fill="none" stroke="black" d="M1174.7,-664.06C1283.91,-659.28 1559.57,-647.21 1585.17,-646.08"/>
</g>
<!-- 2757332586224 -->
<g id="node36" class="node">
<title>2757332586224</title>
<ellipse fill="none" stroke="black" cx="207" cy="-450" rx="27" ry="18"/>
<text text-anchor="middle" x="207" y="-444" font-family="Times New Roman,serif" font-size="15.00">seq</text>
</g>
<!-- 2757332588576&#45;&#45;2757332586224 -->
<g id="edge47" class="edge">
<title>2757332588576&#45;&#45;2757332586224</title>
<path fill="none" stroke="black" d="M144.4,-450C155.54,-450 168.48,-450 179.62,-450"/>
</g>
<!-- 2757332585744 -->
<g id="node50" class="node">
<title>2757332585744</title>
<ellipse fill="none" stroke="black" cx="207" cy="-315" rx="27" ry="18"/>
<text text-anchor="middle" x="207" y="-309" font-family="Times New Roman,serif" font-size="15.00">seq</text>
</g>
<!-- 2757332588576&#45;&#45;2757332585744 -->
<g id="edge61" class="edge">
<title>2757332588576&#45;&#45;2757332585744</title>
<path fill="none" stroke="black" d="M128.79,-433.45C145.77,-407.4 178.53,-357.14 195.4,-331.27"/>
</g>
<!-- 2757332592848 -->
<g id="node37" class="node">
<title>2757332592848</title>
<ellipse fill="none" stroke="black" cx="417.06" cy="-504" rx="27" ry="18"/>
<text text-anchor="middle" x="417.06" y="-498" font-family="Times New Roman,serif" font-size="15.00">xor</text>
</g>
<!-- 2757332586224&#45;&#45;2757332592848 -->
<g id="edge42" class="edge">
<title>2757332586224&#45;&#45;2757332592848</title>
<path fill="none" stroke="black" d="M232.68,-456.41C272.73,-466.8 351.39,-487.21 391.41,-497.6"/>
</g>
<!-- 2757332591456 -->
<g id="node46" class="node">
<title>2757332591456</title>
<ellipse fill="none" stroke="black" cx="417.06" cy="-450" rx="27" ry="18"/>
<text text-anchor="middle" x="417.06" y="-444" font-family="Times New Roman,serif" font-size="15.00">and</text>
</g>
<!-- 2757332586224&#45;&#45;2757332591456 -->
<g id="edge45" class="edge">
<title>2757332586224&#45;&#45;2757332591456</title>
<path fill="none" stroke="black" d="M234.35,-450C274.26,-450 349.62,-450 389.59,-450"/>
</g>
<!-- 2757332586080 -->
<g id="node49" class="node">
<title>2757332586080</title>
<ellipse fill="none" stroke="black" cx="417.06" cy="-396" rx="69.26" ry="18"/>
<text text-anchor="middle" x="417.06" y="-390" font-family="Times New Roman,serif" font-size="15.00">Close the case</text>
</g>
<!-- 2757332586224&#45;&#45;2757332586080 -->
<g id="edge46" class="edge">
<title>2757332586224&#45;&#45;2757332586080</title>
<path fill="none" stroke="black" d="M232.68,-443.59C265.62,-435.04 324.69,-419.71 366.89,-408.76"/>
</g>
<!-- 2757332589008 -->
<g id="node38" class="node">
<title>2757332589008</title>
<ellipse fill="none" stroke="black" cx="744.11" cy="-558" rx="27" ry="18"/>
<text text-anchor="middle" x="744.11" y="-552" font-family="Times New Roman,serif" font-size="15.00">seq</text>
</g>
<!-- 2757332592848&#45;&#45;2757332589008 -->
<g id="edge38" class="edge">
<title>2757332592848&#45;&#45;2757332589008</title>
<path fill="none" stroke="black" d="M443.57,-508.24C504.33,-518.33 657.08,-543.71 717.72,-553.78"/>
</g>
<!-- 2757332589248 -->
<g id="node43" class="node">
<title>2757332589248</title>
<ellipse fill="none" stroke="black" cx="744.11" cy="-504" rx="27" ry="18"/>
<text text-anchor="middle" x="744.11" y="-498" font-family="Times New Roman,serif" font-size="15.00">seq</text>
</g>
<!-- 2757332592848&#45;&#45;2757332589248 -->
<g id="edge41" class="edge">
<title>2757332592848&#45;&#45;2757332589248</title>
<path fill="none" stroke="black" d="M444.38,-504C505.44,-504 656.13,-504 716.99,-504"/>
</g>
<!-- 2757332587280 -->
<g id="node39" class="node">
<title>2757332587280</title>
<ellipse fill="none" stroke="black" cx="1129.5" cy="-612" rx="163.44" ry="18"/>
<text text-anchor="middle" x="1129.5" y="-606" font-family="Times New Roman,serif" font-size="15.00">Log date termination request received</text>
</g>
<!-- 2757332589008&#45;&#45;2757332587280 -->
<g id="edge34" class="edge">
<title>2757332589008&#45;&#45;2757332587280</title>
<path fill="none" stroke="black" d="M770.86,-561.63C822.32,-568.87 940.33,-585.5 1026.78,-597.67"/>
</g>
<!-- 2757332586944 -->
<g id="node40" class="node">
<title>2757332586944</title>
<ellipse fill="none" stroke="black" cx="1129.5" cy="-558" rx="27" ry="18"/>
<text text-anchor="middle" x="1129.5" y="-552" font-family="Times New Roman,serif" font-size="15.00">and</text>
</g>
<!-- 2757332589008&#45;&#45;2757332586944 -->
<g id="edge37" class="edge">
<title>2757332589008&#45;&#45;2757332586944</title>
<path fill="none" stroke="black" d="M771.46,-558C841.58,-558 1032.17,-558 1102.22,-558"/>
</g>
<!-- 2757332584688 -->
<g id="node41" class="node">
<title>2757332584688</title>
<ellipse fill="none" stroke="black" cx="1588.08" cy="-582" rx="158.32" ry="18"/>
<text text-anchor="middle" x="1588.08" y="-576" font-family="Times New Roman,serif" font-size="15.00">Record senddate termination request</text>
</g>
<!-- 2757332586944&#45;&#45;2757332584688 -->
<g id="edge35" class="edge">
<title>2757332586944&#45;&#45;2757332584688</title>
<path fill="none" stroke="black" d="M1156.69,-559.38C1211.26,-562.25 1340.62,-569.04 1443.36,-574.45"/>
</g>
<!-- 2757332584352 -->
<g id="node42" class="node">
<title>2757332584352</title>
<ellipse fill="none" stroke="black" cx="1588.08" cy="-528" rx="119.93" ry="18"/>
<text text-anchor="middle" x="1588.08" y="-522" font-family="Times New Roman,serif" font-size="15.00">Terminate request message</text>
</g>
<!-- 2757332586944&#45;&#45;2757332584352 -->
<g id="edge36" class="edge">
<title>2757332586944&#45;&#45;2757332584352</title>
<path fill="none" stroke="black" d="M1156.69,-556.28C1217.52,-552.28 1371.25,-542.18 1477.48,-535.2"/>
</g>
<!-- 2757332585504 -->
<g id="node44" class="node">
<title>2757332585504</title>
<ellipse fill="none" stroke="black" cx="1129.5" cy="-504" rx="140.41" ry="18"/>
<text text-anchor="middle" x="1129.5" y="-498" font-family="Times New Roman,serif" font-size="15.00">phase demands only notification</text>
</g>
<!-- 2757332589248&#45;&#45;2757332585504 -->
<g id="edge39" class="edge">
<title>2757332589248&#45;&#45;2757332585504</title>
<path fill="none" stroke="black" d="M771.46,-504C815.95,-504 908.95,-504 988.87,-504"/>
</g>
<!-- 2757332585840 -->
<g id="node45" class="node">
<title>2757332585840</title>
<ellipse fill="none" stroke="black" cx="1129.5" cy="-450" rx="205.41" ry="18"/>
<text text-anchor="middle" x="1129.5" y="-444" font-family="Times New Roman,serif" font-size="15.00">draft letter for no permit or notification required</text>
</g>
<!-- 2757332589248&#45;&#45;2757332585840 -->
<g id="edge40" class="edge">
<title>2757332589248&#45;&#45;2757332585840</title>
<path fill="none" stroke="black" d="M770.86,-500.37C820.64,-493.36 932.7,-477.58 1018.22,-465.53"/>
</g>
<!-- 2757332586608 -->
<g id="node47" class="node">
<title>2757332586608</title>
<ellipse fill="none" stroke="black" cx="744.11" cy="-450" rx="119.42" ry="18"/>
<text text-anchor="middle" x="744.11" y="-444" font-family="Times New Roman,serif" font-size="15.00">Phase procedure cancelled</text>
</g>
<!-- 2757332591456&#45;&#45;2757332586608 -->
<g id="edge43" class="edge">
<title>2757332591456&#45;&#45;2757332586608</title>
<path fill="none" stroke="black" d="M444.38,-450C483.38,-450 558.93,-450 624.29,-450"/>
</g>
<!-- 2757332598224 -->
<g id="node48" class="node">
<title>2757332598224</title>
<ellipse fill="none" stroke="black" cx="744.11" cy="-396" rx="63.63" ry="18"/>
<text text-anchor="middle" x="744.11" y="-390" font-family="Times New Roman,serif" font-size="15.00">Log deadline</text>
</g>
<!-- 2757332591456&#45;&#45;2757332598224 -->
<g id="edge44" class="edge">
<title>2757332591456&#45;&#45;2757332598224</title>
<path fill="none" stroke="black" d="M443.57,-445.76C496.1,-437.04 617.38,-416.89 688.46,-405.08"/>
</g>
<!-- 2757332585408 -->
<g id="node51" class="node">
<title>2757332585408</title>
<ellipse fill="none" stroke="black" cx="417.06" cy="-315" rx="27" ry="18"/>
<text text-anchor="middle" x="417.06" y="-309" font-family="Times New Roman,serif" font-size="15.00">and</text>
</g>
<!-- 2757332585744&#45;&#45;2757332585408 -->
<g id="edge52" class="edge">
<title>2757332585744&#45;&#45;2757332585408</title>
<path fill="none" stroke="black" d="M234.35,-315C274.26,-315 349.62,-315 389.59,-315"/>
</g>
<!-- 2757332589776 -->
<g id="node56" class="node">
<title>2757332589776</title>
<ellipse fill="none" stroke="black" cx="417.06" cy="-207" rx="27" ry="18"/>
<text text-anchor="middle" x="417.06" y="-201" font-family="Times New Roman,serif" font-size="15.00">xor</text>
</g>
<!-- 2757332585744&#45;&#45;2757332589776 -->
<g id="edge60" class="edge">
<title>2757332585744&#45;&#45;2757332589776</title>
<path fill="none" stroke="black" d="M229.09,-304.05C269.08,-283.3 355.43,-238.47 395.22,-217.82"/>
</g>
<!-- 2757332583680 -->
<g id="node52" class="node">
<title>2757332583680</title>
<ellipse fill="none" stroke="black" cx="744.11" cy="-342" rx="143.99" ry="18"/>
<text text-anchor="middle" x="744.11" y="-336" font-family="Times New Roman,serif" font-size="15.00">Subcases completeness achieved</text>
</g>
<!-- 2757332585408&#45;&#45;2757332583680 -->
<g id="edge48" class="edge">
<title>2757332585408&#45;&#45;2757332583680</title>
<path fill="none" stroke="black" d="M444.11,-317.16C482.75,-320.37 557.72,-326.6 622.92,-332.02"/>
</g>
<!-- 2757332583344 -->
<g id="node53" class="node">
<title>2757332583344</title>
<ellipse fill="none" stroke="black" cx="744.11" cy="-288" rx="27" ry="18"/>
<text text-anchor="middle" x="744.11" y="-282" font-family="Times New Roman,serif" font-size="15.00">seq</text>
</g>
<!-- 2757332585408&#45;&#45;2757332583344 -->
<g id="edge51" class="edge">
<title>2757332585408&#45;&#45;2757332583344</title>
<path fill="none" stroke="black" d="M444.11,-312.84C504.97,-307.78 655.95,-295.24 716.93,-290.17"/>
</g>
<!-- 2757332583200 -->
<g id="node54" class="node">
<title>2757332583200</title>
<ellipse fill="none" stroke="black" cx="1129.5" cy="-342" rx="135.29" ry="18"/>
<text text-anchor="middle" x="1129.5" y="-336" font-family="Times New Roman,serif" font-size="15.00">Handle subcases completeness</text>
</g>
<!-- 2757332583344&#45;&#45;2757332583200 -->
<g id="edge49" class="edge">
<title>2757332583344&#45;&#45;2757332583200</title>
<path fill="none" stroke="black" d="M770.86,-291.63C823.91,-299.1 947.71,-316.54 1034.72,-328.79"/>
</g>
<!-- 2757332583440 -->
<g id="node55" class="node">
<title>2757332583440</title>
<ellipse fill="none" stroke="black" cx="1129.5" cy="-288" rx="84.11" ry="18"/>
<text text-anchor="middle" x="1129.5" y="-282" font-family="Times New Roman,serif" font-size="15.00">Modify procedure</text>
</g>
<!-- 2757332583344&#45;&#45;2757332583440 -->
<g id="edge50" class="edge">
<title>2757332583344&#45;&#45;2757332583440</title>
<path fill="none" stroke="black" d="M771.46,-288C827.04,-288 958.27,-288 1045.21,-288"/>
</g>
<!-- 2757332582720 -->
<g id="node57" class="node">
<title>2757332582720</title>
<ellipse fill="none" stroke="black" cx="744.11" cy="-207" rx="27" ry="18"/>
<text text-anchor="middle" x="744.11" y="-201" font-family="Times New Roman,serif" font-size="15.00">seq</text>
</g>
<!-- 2757332589776&#45;&#45;2757332582720 -->
<g id="edge55" class="edge">
<title>2757332589776&#45;&#45;2757332582720</title>
<path fill="none" stroke="black" d="M444.38,-207C505.44,-207 656.13,-207 716.99,-207"/>
</g>
<!-- 2757332583152 -->
<g id="node60" class="node">
<title>2757332583152</title>
<ellipse fill="none" stroke="black" cx="744.11" cy="-99" rx="27" ry="18"/>
<text text-anchor="middle" x="744.11" y="-93" font-family="Times New Roman,serif" font-size="15.00">seq</text>
</g>
<!-- 2757332589776&#45;&#45;2757332583152 -->
<g id="edge59" class="edge">
<title>2757332589776&#45;&#45;2757332583152</title>
<path fill="none" stroke="black" d="M441.7,-199.15C501.74,-179.2 659.61,-126.74 719.56,-106.82"/>
</g>
<!-- 2757332583392 -->
<g id="node58" class="node">
<title>2757332583392</title>
<ellipse fill="none" stroke="black" cx="1129.5" cy="-234" rx="80.52" ry="18"/>
<text text-anchor="middle" x="1129.5" y="-228" font-family="Times New Roman,serif" font-size="15.00">Suspend duration</text>
</g>
<!-- 2757332582720&#45;&#45;2757332583392 -->
<g id="edge53" class="edge">
<title>2757332582720&#45;&#45;2757332583392</title>
<path fill="none" stroke="black" d="M771.46,-208.86C828.56,-212.88 965.52,-222.52 1052.25,-228.63"/>
</g>
<!-- 2757332583728 -->
<g id="node59" class="node">
<title>2757332583728</title>
<ellipse fill="none" stroke="black" cx="1129.5" cy="-180" rx="93.83" ry="18"/>
<text text-anchor="middle" x="1129.5" y="-174" font-family="Times New Roman,serif" font-size="15.00">Log date publication</text>
</g>
<!-- 2757332582720&#45;&#45;2757332583728 -->
<g id="edge54" class="edge">
<title>2757332582720&#45;&#45;2757332583728</title>
<path fill="none" stroke="black" d="M771.46,-205.14C826.1,-201.3 953.9,-192.3 1040.8,-186.18"/>
</g>
<!-- 2757332584880 -->
<g id="node61" class="node">
<title>2757332584880</title>
<ellipse fill="none" stroke="black" cx="1129.5" cy="-126" rx="81.55" ry="18"/>
<text text-anchor="middle" x="1129.5" y="-120" font-family="Times New Roman,serif" font-size="15.00">Complete request</text>
</g>
<!-- 2757332583152&#45;&#45;2757332584880 -->
<g id="edge56" class="edge">
<title>2757332583152&#45;&#45;2757332584880</title>
<path fill="none" stroke="black" d="M771.46,-100.86C828.39,-104.86 964.71,-114.47 1051.48,-120.58"/>
</g>
<!-- 2757332584496 -->
<g id="node62" class="node">
<title>2757332584496</title>
<ellipse fill="none" stroke="black" cx="1129.5" cy="-72" rx="117.89" ry="18"/>
<text text-anchor="middle" x="1129.5" y="-66" font-family="Times New Roman,serif" font-size="15.00">Dispatch letter in progress</text>
</g>
<!-- 2757332583152&#45;&#45;2757332584496 -->
<g id="edge57" class="edge">
<title>2757332583152&#45;&#45;2757332584496</title>
<path fill="none" stroke="black" d="M771.46,-97.14C822.21,-93.57 936.07,-85.55 1021.66,-79.52"/>
</g>
<!-- 2757332584832 -->
<g id="node63" class="node">
<title>2757332584832</title>
<ellipse fill="none" stroke="black" cx="1129.5" cy="-18" rx="121.47" ry="18"/>
<text text-anchor="middle" x="1129.5" y="-12" font-family="Times New Roman,serif" font-size="15.00">Stage application receptive</text>
</g>
<!-- 2757332583152&#45;&#45;2757332584832 -->
<g id="edge58" class="edge">
<title>2757332583152&#45;&#45;2757332584832</title>
<path fill="none" stroke="black" d="M770.26,-93.69C827.82,-81.53 970.83,-51.31 1057.75,-32.95"/>
</g>
</g>
</svg>
