<?xml version="1.0" encoding="UTF-8" standalone="no"?>
<!DOCTYPE svg PUBLIC "-//W3C//DTD SVG 1.1//EN"
 "http://www.w3.org/Graphics/SVG/1.1/DTD/svg11.dtd">
<!-- Generated by graphviz version 11.0.0 (20240428.1522)
 -->
<!-- Title: pt Pages: 1 -->
<svg width="2593pt" height="750pt"
 viewBox="0.00 0.00 2592.91 750.00" xmlns="http://www.w3.org/2000/svg" xmlns:xlink="http://www.w3.org/1999/xlink">
<g id="graph0" class="graph" transform="scale(1 1) rotate(0) translate(4 746)">
<title>pt</title>
<polygon fill="white" stroke="none" points="-4,4 -4,-746 2588.91,-746 2588.91,4 -4,4"/>
<!-- 1760901787008 -->
<g id="node1" class="node">
<title>1760901787008</title>
<ellipse fill="none" stroke="black" cx="27" cy="-430" rx="27" ry="18"/>
<text text-anchor="middle" x="27" y="-424" font-family="Times New Roman,serif" font-size="15.00">seq</text>
</g>
<!-- 1760901784416 -->
<g id="node2" class="node">
<title>1760901784416</title>
<ellipse fill="none" stroke="black" cx="247.3" cy="-557" rx="131.19" ry="18"/>
<text text-anchor="middle" x="247.3" y="-551" font-family="Times New Roman,serif" font-size="15.00">Enter submission date request</text>
</g>
<!-- 1760901787008&#45;&#45;1760901784416 -->
<g id="edge1" class="edge">
<title>1760901787008&#45;&#45;1760901784416</title>
<path fill="none" stroke="black" d="M48.15,-441.72C86.46,-464.01 170.05,-512.64 215.45,-539.06"/>
</g>
<!-- 1760901783072 -->
<g id="node3" class="node">
<title>1760901783072</title>
<ellipse fill="none" stroke="black" cx="247.3" cy="-503" rx="27" ry="18"/>
<text text-anchor="middle" x="247.3" y="-497" font-family="Times New Roman,serif" font-size="15.00">and</text>
</g>
<!-- 1760901787008&#45;&#45;1760901783072 -->
<g id="edge40" class="edge">
<title>1760901787008&#45;&#45;1760901783072</title>
<path fill="none" stroke="black" d="M51.78,-437.95C93.77,-451.99 180.58,-481.02 222.55,-495.06"/>
</g>
<!-- 1760901782208 -->
<g id="node42" class="node">
<title>1760901782208</title>
<ellipse fill="none" stroke="black" cx="247.3" cy="-430" rx="27" ry="18"/>
<text text-anchor="middle" x="247.3" y="-424" font-family="Times New Roman,serif" font-size="15.00">xor</text>
</g>
<!-- 1760901787008&#45;&#45;1760901782208 -->
<g id="edge43" class="edge">
<title>1760901787008&#45;&#45;1760901782208</title>
<path fill="none" stroke="black" d="M54.33,-430C96.29,-430 177.85,-430 219.87,-430"/>
</g>
<!-- 1760901776160 -->
<g id="node45" class="node">
<title>1760901776160</title>
<ellipse fill="none" stroke="black" cx="247.3" cy="-376" rx="157.3" ry="18"/>
<text text-anchor="middle" x="247.3" y="-370" font-family="Times New Roman,serif" font-size="15.00">Register senddate acknowledgement</text>
</g>
<!-- 1760901787008&#45;&#45;1760901776160 -->
<g id="edge44" class="edge">
<title>1760901787008&#45;&#45;1760901776160</title>
<path fill="none" stroke="black" d="M52.62,-423.91C83.06,-416.38 136.1,-403.26 178.99,-392.65"/>
</g>
<!-- 1760901779424 -->
<g id="node46" class="node">
<title>1760901779424</title>
<ellipse fill="none" stroke="black" cx="247.3" cy="-288" rx="27" ry="18"/>
<text text-anchor="middle" x="247.3" y="-282" font-family="Times New Roman,serif" font-size="15.00">xor</text>
</g>
<!-- 1760901787008&#45;&#45;1760901779424 -->
<g id="edge55" class="edge">
<title>1760901787008&#45;&#45;1760901779424</title>
<path fill="none" stroke="black" d="M46.99,-417.65C88.28,-390.79 185.81,-327.35 227.19,-300.43"/>
</g>
<!-- 1760901780912 -->
<g id="node4" class="node">
<title>1760901780912</title>
<ellipse fill="none" stroke="black" cx="640.88" cy="-650" rx="45.21" ry="18"/>
<text text-anchor="middle" x="640.88" y="-644" font-family="Times New Roman,serif" font-size="15.00">xor loop</text>
</g>
<!-- 1760901783072&#45;&#45;1760901780912 -->
<g id="edge4" class="edge">
<title>1760901783072&#45;&#45;1760901780912</title>
<path fill="none" stroke="black" d="M271.33,-511.65C337.73,-536.57 529.68,-608.63 607.02,-637.66"/>
</g>
<!-- 1760901780048 -->
<g id="node7" class="node">
<title>1760901780048</title>
<ellipse fill="none" stroke="black" cx="640.88" cy="-577" rx="114.82" ry="18"/>
<text text-anchor="middle" x="640.88" y="-571" font-family="Times New Roman,serif" font-size="15.00">Step application received</text>
</g>
<!-- 1760901783072&#45;&#45;1760901780048 -->
<g id="edge5" class="edge">
<title>1760901783072&#45;&#45;1760901780048</title>
<path fill="none" stroke="black" d="M273.69,-507.8C331.9,-518.8 476.83,-546.19 565.92,-563.02"/>
</g>
<!-- 1760901777456 -->
<g id="node8" class="node">
<title>1760901777456</title>
<ellipse fill="none" stroke="black" cx="640.88" cy="-523" rx="98.44" ry="18"/>
<text text-anchor="middle" x="640.88" y="-517" font-family="Times New Roman,serif" font-size="15.00">OLO messages active</text>
</g>
<!-- 1760901783072&#45;&#45;1760901777456 -->
<g id="edge6" class="edge">
<title>1760901783072&#45;&#45;1760901777456</title>
<path fill="none" stroke="black" d="M274.6,-504.34C329.13,-507.13 456.83,-513.65 545.78,-518.19"/>
</g>
<!-- 1760901776592 -->
<g id="node9" class="node">
<title>1760901776592</title>
<ellipse fill="none" stroke="black" cx="640.88" cy="-469" rx="27" ry="18"/>
<text text-anchor="middle" x="640.88" y="-463" font-family="Times New Roman,serif" font-size="15.00">seq</text>
</g>
<!-- 1760901783072&#45;&#45;1760901776592 -->
<g id="edge39" class="edge">
<title>1760901783072&#45;&#45;1760901776592</title>
<path fill="none" stroke="black" d="M274.29,-500.74C345.35,-494.57 542.28,-477.47 613.64,-471.28"/>
</g>
<!-- 1760901778752 -->
<g id="node5" class="node">
<title>1760901778752</title>
<ellipse fill="none" stroke="black" cx="1056.98" cy="-689" rx="131.19" ry="18"/>
<text text-anchor="middle" x="1056.98" y="-683" font-family="Times New Roman,serif" font-size="15.00">Transmit confirmation receipt</text>
</g>
<!-- 1760901780912&#45;&#45;1760901778752 -->
<g id="edge2" class="edge">
<title>1760901780912&#45;&#45;1760901778752</title>
<path fill="none" stroke="black" d="M685.41,-654.1C747.09,-659.91 861.9,-670.72 947.45,-678.78"/>
</g>
<!-- 1760901777888 -->
<g id="node6" class="node">
<title>1760901777888</title>
<ellipse fill="black" stroke="black" cx="1056.98" cy="-650" rx="2.7" ry="2.7"/>
</g>
<!-- 1760901780912&#45;&#45;1760901777888 -->
<g id="edge3" class="edge">
<title>1760901780912&#45;&#45;1760901777888</title>
<path fill="none" stroke="black" d="M686.59,-650C788.23,-650 1029.74,-650 1054.01,-650"/>
</g>
<!-- 1760901790752 -->
<g id="node10" class="node">
<title>1760901790752</title>
<ellipse fill="none" stroke="black" cx="1056.98" cy="-611" rx="27" ry="18"/>
<text text-anchor="middle" x="1056.98" y="-605" font-family="Times New Roman,serif" font-size="15.00">xor</text>
</g>
<!-- 1760901776592&#45;&#45;1760901790752 -->
<g id="edge14" class="edge">
<title>1760901776592&#45;&#45;1760901790752</title>
<path fill="none" stroke="black" d="M665.33,-477.04C738.13,-502.01 959.73,-578 1032.53,-602.96"/>
</g>
<!-- 1760901789888 -->
<g id="node18" class="node">
<title>1760901789888</title>
<ellipse fill="none" stroke="black" cx="1056.98" cy="-523" rx="27" ry="18"/>
<text text-anchor="middle" x="1056.98" y="-517" font-family="Times New Roman,serif" font-size="15.00">and</text>
</g>
<!-- 1760901776592&#45;&#45;1760901789888 -->
<g id="edge27" class="edge">
<title>1760901776592&#45;&#45;1760901789888</title>
<path fill="none" stroke="black" d="M667.78,-472.38C742.15,-482.08 955.73,-509.93 1030.09,-519.62"/>
</g>
<!-- 1760901787296 -->
<g id="node31" class="node">
<title>1760901787296</title>
<ellipse fill="none" stroke="black" cx="1056.98" cy="-469" rx="141.43" ry="18"/>
<text text-anchor="middle" x="1056.98" y="-463" font-family="Times New Roman,serif" font-size="15.00">Produce procedure confirmation</text>
</g>
<!-- 1760901776592&#45;&#45;1760901787296 -->
<g id="edge28" class="edge">
<title>1760901776592&#45;&#45;1760901787296</title>
<path fill="none" stroke="black" d="M668.1,-469C717.08,-469 825.65,-469 915.51,-469"/>
</g>
<!-- 1760901779904 -->
<g id="node32" class="node">
<title>1760901779904</title>
<ellipse fill="none" stroke="black" cx="1056.98" cy="-415" rx="27" ry="18"/>
<text text-anchor="middle" x="1056.98" y="-409" font-family="Times New Roman,serif" font-size="15.00">xor</text>
</g>
<!-- 1760901776592&#45;&#45;1760901779904 -->
<g id="edge33" class="edge">
<title>1760901776592&#45;&#45;1760901779904</title>
<path fill="none" stroke="black" d="M667.78,-465.62C742.15,-455.92 955.73,-428.07 1030.09,-418.38"/>
</g>
<!-- 1760901779472 -->
<g id="node37" class="node">
<title>1760901779472</title>
<ellipse fill="none" stroke="black" cx="1056.98" cy="-342" rx="27" ry="18"/>
<text text-anchor="middle" x="1056.98" y="-336" font-family="Times New Roman,serif" font-size="15.00">and</text>
</g>
<!-- 1760901776592&#45;&#45;1760901779472 -->
<g id="edge38" class="edge">
<title>1760901776592&#45;&#45;1760901779472</title>
<path fill="none" stroke="black" d="M665.93,-461.62C739.12,-439.18 958.58,-371.87 1031.86,-349.4"/>
</g>
<!-- 1760901788592 -->
<g id="node11" class="node">
<title>1760901788592</title>
<ellipse fill="black" stroke="black" cx="1420.37" cy="-655" rx="2.7" ry="2.7"/>
</g>
<!-- 1760901790752&#45;&#45;1760901788592 -->
<g id="edge7" class="edge">
<title>1760901790752&#45;&#45;1760901788592</title>
<path fill="none" stroke="black" d="M1083.97,-614.16C1162.63,-623.74 1394.16,-651.93 1417.47,-654.77"/>
</g>
<!-- 1760901787728 -->
<g id="node12" class="node">
<title>1760901787728</title>
<ellipse fill="none" stroke="black" cx="1420.37" cy="-616" rx="27" ry="18"/>
<text text-anchor="middle" x="1420.37" y="-610" font-family="Times New Roman,serif" font-size="15.00">seq</text>
</g>
<!-- 1760901790752&#45;&#45;1760901787728 -->
<g id="edge13" class="edge">
<title>1760901790752&#45;&#45;1760901787728</title>
<path fill="none" stroke="black" d="M1084.26,-611.36C1151.02,-612.29 1326.54,-614.72 1393.19,-615.64"/>
</g>
<!-- 1760901785568 -->
<g id="node13" class="node">
<title>1760901785568</title>
<ellipse fill="none" stroke="black" cx="1746.9" cy="-724" rx="142.97" ry="18"/>
<text text-anchor="middle" x="1746.9" y="-718" font-family="Times New Roman,serif" font-size="15.00">Applicant plays stakeholder role</text>
</g>
<!-- 1760901787728&#45;&#45;1760901785568 -->
<g id="edge8" class="edge">
<title>1760901787728&#45;&#45;1760901785568</title>
<path fill="none" stroke="black" d="M1444.97,-623.85C1497.12,-641.21 1623.16,-683.15 1694.48,-706.89"/>
</g>
<!-- 1760901784704 -->
<g id="node14" class="node">
<title>1760901784704</title>
<ellipse fill="none" stroke="black" cx="1746.9" cy="-670" rx="73.36" ry="18"/>
<text text-anchor="middle" x="1746.9" y="-664" font-family="Times New Roman,serif" font-size="15.00">Stop on request</text>
</g>
<!-- 1760901787728&#45;&#45;1760901784704 -->
<g id="edge9" class="edge">
<title>1760901787728&#45;&#45;1760901784704</title>
<path fill="none" stroke="black" d="M1447.11,-620.28C1498.23,-628.79 1613.79,-648.02 1685.29,-659.91"/>
</g>
<!-- 1760901783360 -->
<g id="node15" class="node">
<title>1760901783360</title>
<ellipse fill="none" stroke="black" cx="1746.9" cy="-616" rx="27" ry="18"/>
<text text-anchor="middle" x="1746.9" y="-610" font-family="Times New Roman,serif" font-size="15.00">xor</text>
</g>
<!-- 1760901787728&#45;&#45;1760901783360 -->
<g id="edge12" class="edge">
<title>1760901787728&#45;&#45;1760901783360</title>
<path fill="none" stroke="black" d="M1447.65,-616C1508.62,-616 1659.07,-616 1719.83,-616"/>
</g>
<!-- 1760901781200 -->
<g id="node16" class="node">
<title>1760901781200</title>
<ellipse fill="black" stroke="black" cx="2054.5" cy="-651" rx="2.7" ry="2.7"/>
</g>
<!-- 1760901783360&#45;&#45;1760901781200 -->
<g id="edge10" class="edge">
<title>1760901783360&#45;&#45;1760901781200</title>
<path fill="none" stroke="black" d="M1773.96,-618.98C1843.82,-626.99 2031.41,-648.47 2051.71,-650.8"/>
</g>
<!-- 1760901780336 -->
<g id="node17" class="node">
<title>1760901780336</title>
<ellipse fill="none" stroke="black" cx="2054.5" cy="-612" rx="128.63" ry="18"/>
<text text-anchor="middle" x="2054.5" y="-606" font-family="Times New Roman,serif" font-size="15.00">Evaluate provisional charges</text>
</g>
<!-- 1760901783360&#45;&#45;1760901780336 -->
<g id="edge11" class="edge">
<title>1760901783360&#45;&#45;1760901780336</title>
<path fill="none" stroke="black" d="M1774.22,-615.66C1808.18,-615.21 1869.61,-614.41 1926.23,-613.67"/>
</g>
<!-- 1760901782928 -->
<g id="node19" class="node">
<title>1760901782928</title>
<ellipse fill="none" stroke="black" cx="1420.37" cy="-562" rx="147.57" ry="18"/>
<text text-anchor="middle" x="1420.37" y="-556" font-family="Times New Roman,serif" font-size="15.00">Ordinary procedure without MER</text>
</g>
<!-- 1760901789888&#45;&#45;1760901782928 -->
<g id="edge15" class="edge">
<title>1760901789888&#45;&#45;1760901782928</title>
<path fill="none" stroke="black" d="M1083.97,-525.8C1130.26,-530.8 1229.49,-541.51 1308.07,-549.99"/>
</g>
<!-- 1760901782064 -->
<g id="node20" class="node">
<title>1760901782064</title>
<ellipse fill="none" stroke="black" cx="1420.37" cy="-508" rx="27" ry="18"/>
<text text-anchor="middle" x="1420.37" y="-502" font-family="Times New Roman,serif" font-size="15.00">seq</text>
</g>
<!-- 1760901789888&#45;&#45;1760901782064 -->
<g id="edge26" class="edge">
<title>1760901789888&#45;&#45;1760901782064</title>
<path fill="none" stroke="black" d="M1084.26,-521.91C1151.02,-519.14 1326.54,-511.85 1393.19,-509.09"/>
</g>
<!-- 1760901778176 -->
<g id="node21" class="node">
<title>1760901778176</title>
<ellipse fill="none" stroke="black" cx="1746.9" cy="-562" rx="27" ry="18"/>
<text text-anchor="middle" x="1746.9" y="-556" font-family="Times New Roman,serif" font-size="15.00">xor</text>
</g>
<!-- 1760901782064&#45;&#45;1760901778176 -->
<g id="edge21" class="edge">
<title>1760901782064&#45;&#45;1760901778176</title>
<path fill="none" stroke="black" d="M1447.11,-512.28C1507.82,-522.39 1659.44,-547.61 1720.17,-557.72"/>
</g>
<!-- 1760901777312 -->
<g id="node27" class="node">
<title>1760901777312</title>
<ellipse fill="none" stroke="black" cx="1746.9" cy="-508" rx="139.38" ry="18"/>
<text text-anchor="middle" x="1746.9" y="-502" font-family="Times New Roman,serif" font-size="15.00">Refer to the competent authority</text>
</g>
<!-- 1760901782064&#45;&#45;1760901777312 -->
<g id="edge22" class="edge">
<title>1760901782064&#45;&#45;1760901777312</title>
<path fill="none" stroke="black" d="M1447.65,-508C1482.66,-508 1547.18,-508 1607.28,-508"/>
</g>
<!-- 1760901791136 -->
<g id="node28" class="node">
<title>1760901791136</title>
<ellipse fill="none" stroke="black" cx="1746.9" cy="-454" rx="27" ry="18"/>
<text text-anchor="middle" x="1746.9" y="-448" font-family="Times New Roman,serif" font-size="15.00">xor</text>
</g>
<!-- 1760901782064&#45;&#45;1760901791136 -->
<g id="edge25" class="edge">
<title>1760901782064&#45;&#45;1760901791136</title>
<path fill="none" stroke="black" d="M1447.11,-503.72C1507.82,-493.61 1659.44,-468.39 1720.17,-458.28"/>
</g>
<!-- 1760901776016 -->
<g id="node22" class="node">
<title>1760901776016</title>
<ellipse fill="black" stroke="black" cx="2054.5" cy="-566" rx="2.7" ry="2.7"/>
</g>
<!-- 1760901778176&#45;&#45;1760901776016 -->
<g id="edge16" class="edge">
<title>1760901778176&#45;&#45;1760901776016</title>
<path fill="none" stroke="black" d="M1774.22,-562.34C1844.3,-563.26 2031.46,-565.71 2051.72,-565.98"/>
</g>
<!-- 1760901791568 -->
<g id="node23" class="node">
<title>1760901791568</title>
<ellipse fill="none" stroke="black" cx="2054.5" cy="-527" rx="27" ry="18"/>
<text text-anchor="middle" x="2054.5" y="-521" font-family="Times New Roman,serif" font-size="15.00">seq</text>
</g>
<!-- 1760901778176&#45;&#45;1760901791568 -->
<g id="edge20" class="edge">
<title>1760901778176&#45;&#45;1760901791568</title>
<path fill="none" stroke="black" d="M1773.96,-559.02C1831.7,-552.4 1969.84,-536.58 2027.51,-529.98"/>
</g>
<!-- 1760901789408 -->
<g id="node24" class="node">
<title>1760901789408</title>
<ellipse fill="none" stroke="black" cx="2402.02" cy="-581" rx="182.89" ry="18"/>
<text text-anchor="middle" x="2402.02" y="-575" font-family="Times New Roman,serif" font-size="15.00">Mandatory Environmental Report required</text>
</g>
<!-- 1760901791568&#45;&#45;1760901789408 -->
<g id="edge17" class="edge">
<title>1760901791568&#45;&#45;1760901789408</title>
<path fill="none" stroke="black" d="M2081.19,-531.01C2127.33,-538.23 2226.48,-553.72 2302.23,-565.56"/>
</g>
<!-- 1760901788544 -->
<g id="node25" class="node">
<title>1760901788544</title>
<ellipse fill="none" stroke="black" cx="2402.02" cy="-527" rx="129.15" ry="18"/>
<text text-anchor="middle" x="2402.02" y="-521" font-family="Times New Roman,serif" font-size="15.00">Regular procedural activities</text>
</g>
<!-- 1760901791568&#45;&#45;1760901788544 -->
<g id="edge18" class="edge">
<title>1760901791568&#45;&#45;1760901788544</title>
<path fill="none" stroke="black" d="M2081.76,-527C2122.23,-527 2202.52,-527 2272.45,-527"/>
</g>
<!-- 1760901787680 -->
<g id="node26" class="node">
<title>1760901787680</title>
<ellipse fill="none" stroke="black" cx="2402.02" cy="-473" rx="87.69" ry="18"/>
<text text-anchor="middle" x="2402.02" y="-467" font-family="Times New Roman,serif" font-size="15.00">Phased application</text>
</g>
<!-- 1760901791568&#45;&#45;1760901787680 -->
<g id="edge19" class="edge">
<title>1760901791568&#45;&#45;1760901787680</title>
<path fill="none" stroke="black" d="M2081.19,-522.99C2133.51,-514.81 2253.98,-495.98 2331.22,-483.91"/>
</g>
<!-- 1760901786384 -->
<g id="node29" class="node">
<title>1760901786384</title>
<ellipse fill="black" stroke="black" cx="2054.5" cy="-469" rx="2.7" ry="2.7"/>
</g>
<!-- 1760901791136&#45;&#45;1760901786384 -->
<g id="edge23" class="edge">
<title>1760901791136&#45;&#45;1760901786384</title>
<path fill="none" stroke="black" d="M1774.22,-455.29C1844.3,-458.73 2031.46,-467.92 2051.72,-468.91"/>
</g>
<!-- 1760901785520 -->
<g id="node30" class="node">
<title>1760901785520</title>
<ellipse fill="none" stroke="black" cx="2054.5" cy="-430" rx="119.42" ry="18"/>
<text text-anchor="middle" x="2054.5" y="-424" font-family="Times New Roman,serif" font-size="15.00">Update BAG administrator</text>
</g>
<!-- 1760901791136&#45;&#45;1760901785520 -->
<g id="edge24" class="edge">
<title>1760901791136&#45;&#45;1760901785520</title>
<path fill="none" stroke="black" d="M1774.22,-451.93C1812.52,-448.93 1885.78,-443.17 1947.66,-438.31"/>
</g>
<!-- 1760901787248 -->
<g id="node33" class="node">
<title>1760901787248</title>
<ellipse fill="black" stroke="black" cx="1420.37" cy="-429" rx="2.7" ry="2.7"/>
</g>
<!-- 1760901779904&#45;&#45;1760901787248 -->
<g id="edge29" class="edge">
<title>1760901779904&#45;&#45;1760901787248</title>
<path fill="none" stroke="black" d="M1084.26,-416.02C1162.88,-419.06 1392.32,-427.95 1417.18,-428.92"/>
</g>
<!-- 1760901784656 -->
<g id="node34" class="node">
<title>1760901784656</title>
<ellipse fill="none" stroke="black" cx="1420.37" cy="-390" rx="27" ry="18"/>
<text text-anchor="middle" x="1420.37" y="-384" font-family="Times New Roman,serif" font-size="15.00">seq</text>
</g>
<!-- 1760901779904&#45;&#45;1760901784656 -->
<g id="edge32" class="edge">
<title>1760901779904&#45;&#45;1760901784656</title>
<path fill="none" stroke="black" d="M1084.26,-413.18C1151.02,-408.56 1326.54,-396.42 1393.19,-391.81"/>
</g>
<!-- 1760901782016 -->
<g id="node35" class="node">
<title>1760901782016</title>
<ellipse fill="none" stroke="black" cx="1746.9" cy="-400" rx="51.86" ry="18"/>
<text text-anchor="middle" x="1746.9" y="-394" font-family="Times New Roman,serif" font-size="15.00">Broadcast</text>
</g>
<!-- 1760901784656&#45;&#45;1760901782016 -->
<g id="edge30" class="edge">
<title>1760901784656&#45;&#45;1760901782016</title>
<path fill="none" stroke="black" d="M1447.65,-390.81C1501.45,-392.47 1624.93,-396.27 1694.97,-398.43"/>
</g>
<!-- 1760901781152 -->
<g id="node36" class="node">
<title>1760901781152</title>
<ellipse fill="none" stroke="black" cx="1746.9" cy="-346" rx="121.47" ry="18"/>
<text text-anchor="middle" x="1746.9" y="-340" font-family="Times New Roman,serif" font-size="15.00">Form publication document</text>
</g>
<!-- 1760901784656&#45;&#45;1760901781152 -->
<g id="edge31" class="edge">
<title>1760901784656&#45;&#45;1760901781152</title>
<path fill="none" stroke="black" d="M1447.11,-386.51C1491.63,-380.47 1585.04,-367.81 1655.64,-358.24"/>
</g>
<!-- 1760901780720 -->
<g id="node38" class="node">
<title>1760901780720</title>
<ellipse fill="none" stroke="black" cx="1420.37" cy="-326" rx="27" ry="18"/>
<text text-anchor="middle" x="1420.37" y="-320" font-family="Times New Roman,serif" font-size="15.00">xor</text>
</g>
<!-- 1760901779472&#45;&#45;1760901780720 -->
<g id="edge36" class="edge">
<title>1760901779472&#45;&#45;1760901780720</title>
<path fill="none" stroke="black" d="M1084.26,-340.84C1151.02,-337.88 1326.54,-330.11 1393.19,-327.16"/>
</g>
<!-- 1760901779856 -->
<g id="node41" class="node">
<title>1760901779856</title>
<ellipse fill="none" stroke="black" cx="1420.37" cy="-272" rx="129.15" ry="18"/>
<text text-anchor="middle" x="1420.37" y="-266" font-family="Times New Roman,serif" font-size="15.00">Commence WABOprocedure</text>
</g>
<!-- 1760901779472&#45;&#45;1760901779856 -->
<g id="edge37" class="edge">
<title>1760901779472&#45;&#45;1760901779856</title>
<path fill="none" stroke="black" d="M1083.39,-337.08C1136.57,-326.78 1261.41,-302.6 1343.03,-286.79"/>
</g>
<!-- 1760901778560 -->
<g id="node39" class="node">
<title>1760901778560</title>
<ellipse fill="black" stroke="black" cx="1746.9" cy="-307" rx="2.7" ry="2.7"/>
</g>
<!-- 1760901780720&#45;&#45;1760901778560 -->
<g id="edge34" class="edge">
<title>1760901780720&#45;&#45;1760901778560</title>
<path fill="none" stroke="black" d="M1447.65,-324.46C1520.69,-320.19 1722.16,-308.39 1743.98,-307.11"/>
</g>
<!-- 1760901777696 -->
<g id="node40" class="node">
<title>1760901777696</title>
<ellipse fill="none" stroke="black" cx="1746.9" cy="-268" rx="112.26" ry="18"/>
<text text-anchor="middle" x="1746.9" y="-262" font-family="Times New Roman,serif" font-size="15.00">Register publication date</text>
</g>
<!-- 1760901780720&#45;&#45;1760901777696 -->
<g id="edge35" class="edge">
<title>1760901780720&#45;&#45;1760901777696</title>
<path fill="none" stroke="black" d="M1446.83,-321.45C1494.43,-312.94 1598.54,-294.34 1670.44,-281.49"/>
</g>
<!-- 1760901790272 -->
<g id="node43" class="node">
<title>1760901790272</title>
<ellipse fill="black" stroke="black" cx="640.88" cy="-430" rx="2.7" ry="2.7"/>
</g>
<!-- 1760901782208&#45;&#45;1760901790272 -->
<g id="edge41" class="edge">
<title>1760901782208&#45;&#45;1760901790272</title>
<path fill="none" stroke="black" d="M274.6,-430C357.94,-430 612.19,-430 637.79,-430"/>
</g>
<!-- 1760901783312 -->
<g id="node44" class="node">
<title>1760901783312</title>
<ellipse fill="none" stroke="black" cx="640.88" cy="-391" rx="154.22" ry="18"/>
<text text-anchor="middle" x="640.88" y="-385" font-family="Times New Roman,serif" font-size="15.00">Inspect field for phased application</text>
</g>
<!-- 1760901782208&#45;&#45;1760901783312 -->
<g id="edge42" class="edge">
<title>1760901782208&#45;&#45;1760901783312</title>
<path fill="none" stroke="black" d="M274.29,-427.41C323.91,-422.47 434.92,-411.41 521.67,-402.77"/>
</g>
<!-- 1760901775536 -->
<g id="node47" class="node">
<title>1760901775536</title>
<ellipse fill="black" stroke="black" cx="640.88" cy="-327" rx="2.7" ry="2.7"/>
</g>
<!-- 1760901779424&#45;&#45;1760901775536 -->
<g id="edge45" class="edge">
<title>1760901779424&#45;&#45;1760901775536</title>
<path fill="none" stroke="black" d="M274.29,-290.59C357.31,-298.86 612.12,-324.24 637.79,-326.79"/>
</g>
<!-- 1760901791040 -->
<g id="node48" class="node">
<title>1760901791040</title>
<ellipse fill="none" stroke="black" cx="640.88" cy="-288" rx="200.29" ry="18"/>
<text text-anchor="middle" x="640.88" y="-282" font-family="Times New Roman,serif" font-size="15.00">Permit not needed or only notification required</text>
</g>
<!-- 1760901779424&#45;&#45;1760901791040 -->
<g id="edge46" class="edge">
<title>1760901779424&#45;&#45;1760901791040</title>
<path fill="none" stroke="black" d="M274.6,-288C309.58,-288 374.67,-288 440.33,-288"/>
</g>
<!-- 1760901790176 -->
<g id="node49" class="node">
<title>1760901790176</title>
<ellipse fill="none" stroke="black" cx="640.88" cy="-234" rx="27" ry="18"/>
<text text-anchor="middle" x="640.88" y="-228" font-family="Times New Roman,serif" font-size="15.00">seq</text>
</g>
<!-- 1760901779424&#45;&#45;1760901790176 -->
<g id="edge50" class="edge">
<title>1760901779424&#45;&#45;1760901790176</title>
<path fill="none" stroke="black" d="M273.99,-284.46C344.94,-274.67 543.03,-247.36 614.09,-237.56"/>
</g>
<!-- 1760901788880 -->
<g id="node53" class="node">
<title>1760901788880</title>
<ellipse fill="none" stroke="black" cx="640.88" cy="-99" rx="27" ry="18"/>
<text text-anchor="middle" x="640.88" y="-93" font-family="Times New Roman,serif" font-size="15.00">seq</text>
</g>
<!-- 1760901779424&#45;&#45;1760901788880 -->
<g id="edge54" class="edge">
<title>1760901779424&#45;&#45;1760901788880</title>
<path fill="none" stroke="black" d="M269.91,-277.57C338.37,-244.53 549.97,-142.4 618.33,-109.4"/>
</g>
<!-- 1760901788016 -->
<g id="node50" class="node">
<title>1760901788016</title>
<ellipse fill="none" stroke="black" cx="1056.98" cy="-288" rx="131.71" ry="18"/>
<text text-anchor="middle" x="1056.98" y="-282" font-family="Times New Roman,serif" font-size="15.00">Action by competent authority</text>
</g>
<!-- 1760901790176&#45;&#45;1760901788016 -->
<g id="edge47" class="edge">
<title>1760901790176&#45;&#45;1760901788016</title>
<path fill="none" stroke="black" d="M667.78,-237.38C725.06,-244.85 864.94,-263.09 960.16,-275.51"/>
</g>
<!-- 1760901787152 -->
<g id="node51" class="node">
<title>1760901787152</title>
<ellipse fill="none" stroke="black" cx="1056.98" cy="-234" rx="153.71" ry="18"/>
<text text-anchor="middle" x="1056.98" y="-228" font-family="Times New Roman,serif" font-size="15.00">Create termination request message</text>
</g>
<!-- 1760901790176&#45;&#45;1760901787152 -->
<g id="edge48" class="edge">
<title>1760901790176&#45;&#45;1760901787152</title>
<path fill="none" stroke="black" d="M668.1,-234C714.86,-234 815.92,-234 903.17,-234"/>
</g>
<!-- 1760901786288 -->
<g id="node52" class="node">
<title>1760901786288</title>
<ellipse fill="none" stroke="black" cx="1056.98" cy="-180" rx="179.82" ry="18"/>
<text text-anchor="middle" x="1056.98" y="-174" font-family="Times New Roman,serif" font-size="15.00">Premature termination of procedure phase</text>
</g>
<!-- 1760901790176&#45;&#45;1760901786288 -->
<g id="edge49" class="edge">
<title>1760901790176&#45;&#45;1760901786288</title>
<path fill="none" stroke="black" d="M667.78,-230.62C722.14,-223.53 850.88,-206.75 945.26,-194.44"/>
</g>
<!-- 1760901784560 -->
<g id="node54" class="node">
<title>1760901784560</title>
<ellipse fill="none" stroke="black" cx="1056.98" cy="-126" rx="119.42" ry="18"/>
<text text-anchor="middle" x="1056.98" y="-120" font-family="Times New Roman,serif" font-size="15.00">Phase procedure cancelled</text>
</g>
<!-- 1760901788880&#45;&#45;1760901784560 -->
<g id="edge51" class="edge">
<title>1760901788880&#45;&#45;1760901784560</title>
<path fill="none" stroke="black" d="M668.1,-100.71C722.86,-104.28 852.1,-112.71 946.4,-118.86"/>
</g>
<!-- 1760901783216 -->
<g id="node55" class="node">
<title>1760901783216</title>
<ellipse fill="none" stroke="black" cx="1056.98" cy="-72" rx="96.39" ry="18"/>
<text text-anchor="middle" x="1056.98" y="-66" font-family="Times New Roman,serif" font-size="15.00">Register the deadline</text>
</g>
<!-- 1760901788880&#45;&#45;1760901783216 -->
<g id="edge52" class="edge">
<title>1760901788880&#45;&#45;1760901783216</title>
<path fill="none" stroke="black" d="M668.1,-97.29C726.68,-93.47 870.51,-84.09 965.6,-77.89"/>
</g>
<!-- 1760901782352 -->
<g id="node56" class="node">
<title>1760901782352</title>
<ellipse fill="none" stroke="black" cx="1056.98" cy="-18" rx="84.11" ry="18"/>
<text text-anchor="middle" x="1056.98" y="-12" font-family="Times New Roman,serif" font-size="15.00">Conclude the case</text>
</g>
<!-- 1760901788880&#45;&#45;1760901782352 -->
<g id="edge53" class="edge">
<title>1760901788880&#45;&#45;1760901782352</title>
<path fill="none" stroke="black" d="M667.16,-94.06C731.17,-81.54 901.1,-48.3 993.7,-30.18"/>
</g>
</g>
</svg>
