<?xml version="1.0" encoding="UTF-8" standalone="no"?>
<!DOCTYPE svg PUBLIC "-//W3C//DTD SVG 1.1//EN"
 "http://www.w3.org/Graphics/SVG/1.1/DTD/svg11.dtd">
<!-- Generated by graphviz version 8.0.5 (20230430.1635)
 -->
<!-- Title: pt Pages: 1 -->
<svg width="2094pt" height="566pt"
 viewBox="0.00 0.00 2094.20 566.00" xmlns="http://www.w3.org/2000/svg" xmlns:xlink="http://www.w3.org/1999/xlink">
<g id="graph0" class="graph" transform="scale(1 1) rotate(0) translate(4 562)">
<title>pt</title>
<polygon fill="white" stroke="none" points="-4,4 -4,-562 2090.2,-562 2090.2,4 -4,4"/>
<!-- 6629474512 -->
<g id="node1" class="node">
<title>6629474512</title>
<ellipse fill="none" stroke="black" cx="27" cy="-349" rx="27" ry="18"/>
<text text-anchor="middle" x="27" y="-343.38" font-family="Times,serif" font-size="15.00">seq</text>
</g>
<!-- 6629488336 -->
<g id="node2" class="node">
<title>6629488336</title>
<ellipse fill="none" stroke="black" cx="239.06" cy="-403" rx="149.06" ry="18"/>
<text text-anchor="middle" x="239.06" y="-397.38" font-family="Times,serif" font-size="15.00">register submission date request</text>
</g>
<!-- 6629474512&#45;&#45;6629488336 -->
<g id="edge1" class="edge">
<title>6629474512&#45;&#45;6629488336</title>
<path fill="none" stroke="black" d="M52.51,-355.3C82.05,-362.9 132.85,-375.95 173.83,-386.49"/>
</g>
<!-- 6629488592 -->
<g id="node3" class="node">
<title>6629488592</title>
<ellipse fill="none" stroke="black" cx="239.06" cy="-349" rx="27" ry="18"/>
<text text-anchor="middle" x="239.06" y="-343.38" font-family="Times,serif" font-size="15.00">xor</text>
</g>
<!-- 6629474512&#45;&#45;6629488592 -->
<g id="edge34" class="edge">
<title>6629474512&#45;&#45;6629488592</title>
<path fill="none" stroke="black" d="M54.18,-349C94.54,-349 171.52,-349 211.89,-349"/>
</g>
<!-- 6629477328 -->
<g id="node36" class="node">
<title>6629477328</title>
<ellipse fill="none" stroke="black" cx="239.06" cy="-291" rx="27" ry="18"/>
<text text-anchor="middle" x="239.06" y="-285.38" font-family="Times,serif" font-size="15.00">xor</text>
</g>
<!-- 6629474512&#45;&#45;6629477328 -->
<g id="edge40" class="edge">
<title>6629474512&#45;&#45;6629477328</title>
<path fill="none" stroke="black" d="M52.51,-342.23C92.99,-331.06 173.34,-308.87 213.71,-297.72"/>
</g>
<!-- 6629487312 -->
<g id="node4" class="node">
<title>6629487312</title>
<ellipse fill="black" stroke="black" cx="451.13" cy="-388" rx="2.7" ry="2.7"/>
</g>
<!-- 6629488592&#45;&#45;6629487312 -->
<g id="edge2" class="edge">
<title>6629488592&#45;&#45;6629487312</title>
<path fill="none" stroke="black" d="M265.4,-353.7C317.35,-363.35 432.37,-384.7 448.29,-387.66"/>
</g>
<!-- 6629480784 -->
<g id="node5" class="node">
<title>6629480784</title>
<ellipse fill="none" stroke="black" cx="451.13" cy="-349" rx="27" ry="18"/>
<text text-anchor="middle" x="451.13" y="-343.38" font-family="Times,serif" font-size="15.00">seq</text>
</g>
<!-- 6629488592&#45;&#45;6629480784 -->
<g id="edge33" class="edge">
<title>6629488592&#45;&#45;6629480784</title>
<path fill="none" stroke="black" d="M266.24,-349C306.61,-349 383.59,-349 423.95,-349"/>
</g>
<!-- 6629489232 -->
<g id="node6" class="node">
<title>6629489232</title>
<ellipse fill="none" stroke="black" cx="629.52" cy="-476" rx="27" ry="18"/>
<text text-anchor="middle" x="629.52" y="-470.38" font-family="Times,serif" font-size="15.00">xor</text>
</g>
<!-- 6629480784&#45;&#45;6629489232 -->
<g id="edge8" class="edge">
<title>6629480784&#45;&#45;6629489232</title>
<path fill="none" stroke="black" d="M470.34,-362.11C504.23,-386.51 576.59,-438.61 610.41,-462.96"/>
</g>
<!-- 6629489680 -->
<g id="node12" class="node">
<title>6629489680</title>
<ellipse fill="none" stroke="black" cx="629.52" cy="-349" rx="27" ry="18"/>
<text text-anchor="middle" x="629.52" y="-343.38" font-family="Times,serif" font-size="15.00">and</text>
</g>
<!-- 6629480784&#45;&#45;6629489680 -->
<g id="edge32" class="edge">
<title>6629480784&#45;&#45;6629489680</title>
<path fill="none" stroke="black" d="M478.54,-349C511.89,-349 568.92,-349 602.22,-349"/>
</g>
<!-- 6629479440 -->
<g id="node7" class="node">
<title>6629479440</title>
<ellipse fill="black" stroke="black" cx="905.78" cy="-515" rx="2.7" ry="2.7"/>
</g>
<!-- 6629489232&#45;&#45;6629479440 -->
<g id="edge3" class="edge">
<title>6629489232&#45;&#45;6629479440</title>
<path fill="none" stroke="black" d="M656.32,-479.67C720.33,-488.77 882.69,-511.86 902.74,-514.71"/>
</g>
<!-- 6629488848 -->
<g id="node8" class="node">
<title>6629488848</title>
<ellipse fill="none" stroke="black" cx="905.78" cy="-476" rx="27" ry="18"/>
<text text-anchor="middle" x="905.78" y="-470.38" font-family="Times,serif" font-size="15.00">seq</text>
</g>
<!-- 6629489232&#45;&#45;6629488848 -->
<g id="edge7" class="edge">
<title>6629489232&#45;&#45;6629488848</title>
<path fill="none" stroke="black" d="M656.82,-476C709.24,-476 826.21,-476 878.56,-476"/>
</g>
<!-- 6629480208 -->
<g id="node9" class="node">
<title>6629480208</title>
<ellipse fill="none" stroke="black" cx="1227.28" cy="-540" rx="72.25" ry="18"/>
<text text-anchor="middle" x="1227.28" y="-534.38" font-family="Times,serif" font-size="15.00">MER required</text>
</g>
<!-- 6629488848&#45;&#45;6629480208 -->
<g id="edge4" class="edge">
<title>6629488848&#45;&#45;6629480208</title>
<path fill="none" stroke="black" d="M932.12,-481.08C983.26,-491.32 1099.91,-514.69 1169.97,-528.72"/>
</g>
<!-- 6629485968 -->
<g id="node10" class="node">
<title>6629485968</title>
<ellipse fill="none" stroke="black" cx="1227.28" cy="-486" rx="129.07" ry="18"/>
<text text-anchor="middle" x="1227.28" y="-480.38" font-family="Times,serif" font-size="15.00">activities regular procedure</text>
</g>
<!-- 6629488848&#45;&#45;6629485968 -->
<g id="edge5" class="edge">
<title>6629488848&#45;&#45;6629485968</title>
<path fill="none" stroke="black" d="M933.2,-476.83C969.98,-477.98 1039.07,-480.14 1100.94,-482.08"/>
</g>
<!-- 6629486480 -->
<g id="node11" class="node">
<title>6629486480</title>
<ellipse fill="none" stroke="black" cx="1227.28" cy="-432" rx="91.19" ry="18"/>
<text text-anchor="middle" x="1227.28" y="-426.38" font-family="Times,serif" font-size="15.00">phased application</text>
</g>
<!-- 6629488848&#45;&#45;6629486480 -->
<g id="edge6" class="edge">
<title>6629488848&#45;&#45;6629486480</title>
<path fill="none" stroke="black" d="M932.65,-472.44C979.75,-465.95 1081.08,-452 1151.44,-442.31"/>
</g>
<!-- 6629489744 -->
<g id="node13" class="node">
<title>6629489744</title>
<ellipse fill="none" stroke="black" cx="905.78" cy="-403" rx="124.86" ry="18"/>
<text text-anchor="middle" x="905.78" y="-397.38" font-family="Times,serif" font-size="15.00">phase application received</text>
</g>
<!-- 6629489680&#45;&#45;6629489744 -->
<g id="edge9" class="edge">
<title>6629489680&#45;&#45;6629489744</title>
<path fill="none" stroke="black" d="M655.83,-353.98C695.08,-361.71 772.16,-376.89 830.2,-388.32"/>
</g>
<!-- 6629476176 -->
<g id="node14" class="node">
<title>6629476176</title>
<ellipse fill="none" stroke="black" cx="905.78" cy="-349" rx="47" ry="18"/>
<text text-anchor="middle" x="905.78" y="-343.38" font-family="Times,serif" font-size="15.00">xor loop</text>
</g>
<!-- 6629489680&#45;&#45;6629476176 -->
<g id="edge12" class="edge">
<title>6629489680&#45;&#45;6629476176</title>
<path fill="none" stroke="black" d="M656.82,-349C703.27,-349 800.42,-349 858.37,-349"/>
</g>
<!-- 6629476240 -->
<g id="node17" class="node">
<title>6629476240</title>
<ellipse fill="none" stroke="black" cx="905.78" cy="-295" rx="108.55" ry="18"/>
<text text-anchor="middle" x="905.78" y="-289.38" font-family="Times,serif" font-size="15.00">OLO messaging active</text>
</g>
<!-- 6629489680&#45;&#45;6629476240 -->
<g id="edge13" class="edge">
<title>6629489680&#45;&#45;6629476240</title>
<path fill="none" stroke="black" d="M655.83,-344.02C696.01,-336.11 775.82,-320.39 834.28,-308.88"/>
</g>
<!-- 6629478352 -->
<g id="node18" class="node">
<title>6629478352</title>
<ellipse fill="none" stroke="black" cx="905.78" cy="-192" rx="27" ry="18"/>
<text text-anchor="middle" x="905.78" y="-186.38" font-family="Times,serif" font-size="15.00">seq</text>
</g>
<!-- 6629489680&#45;&#45;6629478352 -->
<g id="edge31" class="edge">
<title>6629489680&#45;&#45;6629478352</title>
<path fill="none" stroke="black" d="M650.69,-337.46C701.41,-308.42 833.83,-232.61 884.58,-203.56"/>
</g>
<!-- 6629477008 -->
<g id="node15" class="node">
<title>6629477008</title>
<ellipse fill="none" stroke="black" cx="1227.28" cy="-378" rx="121.18" ry="18"/>
<text text-anchor="middle" x="1227.28" y="-372.38" font-family="Times,serif" font-size="15.00">send confirmation receipt</text>
</g>
<!-- 6629476176&#45;&#45;6629477008 -->
<g id="edge10" class="edge">
<title>6629476176&#45;&#45;6629477008</title>
<path fill="none" stroke="black" d="M951.88,-353.09C996.09,-357.11 1065.05,-363.37 1122.78,-368.61"/>
</g>
<!-- 6629477520 -->
<g id="node16" class="node">
<title>6629477520</title>
<ellipse fill="black" stroke="black" cx="1227.28" cy="-339" rx="2.7" ry="2.7"/>
</g>
<!-- 6629476176&#45;&#45;6629477520 -->
<g id="edge11" class="edge">
<title>6629476176&#45;&#45;6629477520</title>
<path fill="none" stroke="black" d="M952.9,-347.56C1035.85,-344.96 1203.55,-339.71 1224.18,-339.07"/>
</g>
<!-- 6629481168 -->
<g id="node19" class="node">
<title>6629481168</title>
<ellipse fill="none" stroke="black" cx="1227.28" cy="-300" rx="27" ry="18"/>
<text text-anchor="middle" x="1227.28" y="-294.38" font-family="Times,serif" font-size="15.00">xor</text>
</g>
<!-- 6629478352&#45;&#45;6629481168 -->
<g id="edge19" class="edge">
<title>6629478352&#45;&#45;6629481168</title>
<path fill="none" stroke="black" d="M930.53,-200.03C989.83,-220.07 1143.81,-272.12 1202.81,-292.06"/>
</g>
<!-- 6632261072 -->
<g id="node25" class="node">
<title>6632261072</title>
<ellipse fill="none" stroke="black" cx="1227.28" cy="-246" rx="160.64" ry="18"/>
<text text-anchor="middle" x="1227.28" y="-240.38" font-family="Times,serif" font-size="15.00">forward to the competent authority</text>
</g>
<!-- 6629478352&#45;&#45;6632261072 -->
<g id="edge20" class="edge">
<title>6629478352&#45;&#45;6632261072</title>
<path fill="none" stroke="black" d="M932.39,-196.33C976.07,-203.71 1066.98,-219.08 1136.19,-230.77"/>
</g>
<!-- 6632269904 -->
<g id="node26" class="node">
<title>6632269904</title>
<ellipse fill="none" stroke="black" cx="1227.28" cy="-192" rx="147.49" ry="18"/>
<text text-anchor="middle" x="1227.28" y="-186.38" font-family="Times,serif" font-size="15.00">regular procedure without MER</text>
</g>
<!-- 6629478352&#45;&#45;6632269904 -->
<g id="edge21" class="edge">
<title>6629478352&#45;&#45;6632269904</title>
<path fill="none" stroke="black" d="M933.2,-192C965.79,-192 1023.76,-192 1079.59,-192"/>
</g>
<!-- 6632274064 -->
<g id="node27" class="node">
<title>6632274064</title>
<ellipse fill="none" stroke="black" cx="1227.28" cy="-138" rx="140.65" ry="18"/>
<text text-anchor="middle" x="1227.28" y="-132.38" font-family="Times,serif" font-size="15.00">create procedure confirmation</text>
</g>
<!-- 6629478352&#45;&#45;6632274064 -->
<g id="edge22" class="edge">
<title>6629478352&#45;&#45;6632274064</title>
<path fill="none" stroke="black" d="M932.39,-187.67C976.96,-180.14 1070.7,-164.3 1140.39,-152.52"/>
</g>
<!-- 6632261968 -->
<g id="node28" class="node">
<title>6632261968</title>
<ellipse fill="none" stroke="black" cx="1227.28" cy="-84" rx="27" ry="18"/>
<text text-anchor="middle" x="1227.28" y="-78.38" font-family="Times,serif" font-size="15.00">xor</text>
</g>
<!-- 6629478352&#45;&#45;6632261968 -->
<g id="edge29" class="edge">
<title>6629478352&#45;&#45;6632261968</title>
<path fill="none" stroke="black" d="M930.53,-183.97C989.83,-163.93 1143.81,-111.88 1202.81,-91.94"/>
</g>
<!-- 6628802384 -->
<g id="node35" class="node">
<title>6628802384</title>
<ellipse fill="none" stroke="black" cx="1227.28" cy="-30" rx="105.92" ry="18"/>
<text text-anchor="middle" x="1227.28" y="-24.38" font-family="Times,serif" font-size="15.00">start WABOprocedure</text>
</g>
<!-- 6629478352&#45;&#45;6628802384 -->
<g id="edge30" class="edge">
<title>6629478352&#45;&#45;6628802384</title>
<path fill="none" stroke="black" d="M927.99,-181.25C982.14,-153.79 1125.86,-80.92 1192.04,-47.36"/>
</g>
<!-- 6632263568 -->
<g id="node20" class="node">
<title>6632263568</title>
<ellipse fill="black" stroke="black" cx="1450.92" cy="-319" rx="2.7" ry="2.7"/>
</g>
<!-- 6629481168&#45;&#45;6632263568 -->
<g id="edge14" class="edge">
<title>6629481168&#45;&#45;6632263568</title>
<path fill="none" stroke="black" d="M1254.14,-302.22C1308.5,-306.88 1431,-317.38 1447.96,-318.83"/>
</g>
<!-- 6632275856 -->
<g id="node21" class="node">
<title>6632275856</title>
<ellipse fill="none" stroke="black" cx="1450.92" cy="-280" rx="27" ry="18"/>
<text text-anchor="middle" x="1450.92" y="-274.38" font-family="Times,serif" font-size="15.00">seq</text>
</g>
<!-- 6629481168&#45;&#45;6632275856 -->
<g id="edge18" class="edge">
<title>6629481168&#45;&#45;6632275856</title>
<path fill="none" stroke="black" d="M1254.14,-297.67C1296.73,-293.82 1381.17,-286.2 1423.88,-282.35"/>
</g>
<!-- 6632272656 -->
<g id="node22" class="node">
<title>6632272656</title>
<ellipse fill="none" stroke="black" cx="1649.31" cy="-334" rx="112.76" ry="18"/>
<text text-anchor="middle" x="1649.31" y="-328.38" font-family="Times,serif" font-size="15.00">applicant is stakeholder</text>
</g>
<!-- 6632275856&#45;&#45;6632272656 -->
<g id="edge15" class="edge">
<title>6632275856&#45;&#45;6632272656</title>
<path fill="none" stroke="black" d="M1476.4,-286.73C1504.88,-294.56 1552.86,-307.75 1590.9,-318.22"/>
</g>
<!-- 6632268624 -->
<g id="node23" class="node">
<title>6632268624</title>
<ellipse fill="none" stroke="black" cx="1649.31" cy="-280" rx="99.08" ry="18"/>
<text text-anchor="middle" x="1649.31" y="-274.38" font-family="Times,serif" font-size="15.00">terminate on request</text>
</g>
<!-- 6632275856&#45;&#45;6632268624 -->
<g id="edge16" class="edge">
<title>6632275856&#45;&#45;6632268624</title>
<path fill="none" stroke="black" d="M1478.41,-280C1497.15,-280 1523.55,-280 1549.97,-280"/>
</g>
<!-- 6632272720 -->
<g id="node24" class="node">
<title>6632272720</title>
<ellipse fill="none" stroke="black" cx="1649.31" cy="-226" rx="135.39" ry="18"/>
<text text-anchor="middle" x="1649.31" y="-220.38" font-family="Times,serif" font-size="15.00">calculate provisional charges</text>
</g>
<!-- 6632275856&#45;&#45;6632272720 -->
<g id="edge17" class="edge">
<title>6632275856&#45;&#45;6632272720</title>
<path fill="none" stroke="black" d="M1476.4,-273.27C1504.26,-265.61 1550.79,-252.81 1588.42,-242.47"/>
</g>
<!-- 6632272208 -->
<g id="node29" class="node">
<title>6632272208</title>
<ellipse fill="black" stroke="black" cx="1450.92" cy="-103" rx="2.7" ry="2.7"/>
</g>
<!-- 6632261968&#45;&#45;6632272208 -->
<g id="edge23" class="edge">
<title>6632261968&#45;&#45;6632272208</title>
<path fill="none" stroke="black" d="M1254.14,-86.22C1308.5,-90.88 1431,-101.38 1447.96,-102.83"/>
</g>
<!-- 6632265680 -->
<g id="node30" class="node">
<title>6632265680</title>
<ellipse fill="none" stroke="black" cx="1450.92" cy="-64" rx="27" ry="18"/>
<text text-anchor="middle" x="1450.92" y="-58.38" font-family="Times,serif" font-size="15.00">seq</text>
</g>
<!-- 6632261968&#45;&#45;6632265680 -->
<g id="edge28" class="edge">
<title>6632261968&#45;&#45;6632265680</title>
<path fill="none" stroke="black" d="M1254.14,-81.67C1296.73,-77.82 1381.17,-70.2 1423.88,-66.35"/>
</g>
<!-- 6632274640 -->
<g id="node31" class="node">
<title>6632274640</title>
<ellipse fill="none" stroke="black" cx="1649.31" cy="-91" rx="42.79" ry="18"/>
<text text-anchor="middle" x="1649.31" y="-85.38" font-family="Times,serif" font-size="15.00">publish</text>
</g>
<!-- 6632265680&#45;&#45;6632274640 -->
<g id="edge24" class="edge">
<title>6632265680&#45;&#45;6632274640</title>
<path fill="none" stroke="black" d="M1477.59,-67.53C1510.86,-72.1 1569.23,-80.13 1608.33,-85.5"/>
</g>
<!-- 6632272016 -->
<g id="node32" class="node">
<title>6632272016</title>
<ellipse fill="none" stroke="black" cx="1649.31" cy="-37" rx="27" ry="18"/>
<text text-anchor="middle" x="1649.31" y="-31.38" font-family="Times,serif" font-size="15.00">xor</text>
</g>
<!-- 6632265680&#45;&#45;6632272016 -->
<g id="edge27" class="edge">
<title>6632265680&#45;&#45;6632272016</title>
<path fill="none" stroke="black" d="M1477.59,-60.47C1515.23,-55.3 1584.99,-45.71 1622.63,-40.53"/>
</g>
<!-- 6632262864 -->
<g id="node33" class="node">
<title>6632262864</title>
<ellipse fill="black" stroke="black" cx="1953.45" cy="-57" rx="2.7" ry="2.7"/>
</g>
<!-- 6632272016&#45;&#45;6632262864 -->
<g id="edge25" class="edge">
<title>6632272016&#45;&#45;6632262864</title>
<path fill="none" stroke="black" d="M1676.59,-38.74C1746.08,-43.34 1930.7,-55.56 1950.69,-56.88"/>
</g>
<!-- 6632261328 -->
<g id="node34" class="node">
<title>6632261328</title>
<ellipse fill="none" stroke="black" cx="1953.45" cy="-18" rx="132.76" ry="18"/>
<text text-anchor="middle" x="1953.45" y="-12.38" font-family="Times,serif" font-size="15.00">create publication document</text>
</g>
<!-- 6632272016&#45;&#45;6632261328 -->
<g id="edge26" class="edge">
<title>6632272016&#45;&#45;6632261328</title>
<path fill="none" stroke="black" d="M1676.59,-35.35C1711.34,-33.16 1774.86,-29.17 1832.2,-25.56"/>
</g>
<!-- 6628790992 -->
<g id="node37" class="node">
<title>6628790992</title>
<ellipse fill="black" stroke="black" cx="451.13" cy="-291" rx="2.7" ry="2.7"/>
</g>
<!-- 6629477328&#45;&#45;6628790992 -->
<g id="edge35" class="edge">
<title>6629477328&#45;&#45;6628790992</title>
<path fill="none" stroke="black" d="M266.24,-291C318.6,-291 432.54,-291 448.31,-291"/>
</g>
<!-- 6628787280 -->
<g id="node38" class="node">
<title>6628787280</title>
<ellipse fill="none" stroke="black" cx="451.13" cy="-248" rx="27" ry="18"/>
<text text-anchor="middle" x="451.13" y="-242.38" font-family="Times,serif" font-size="15.00">seq</text>
</g>
<!-- 6629477328&#45;&#45;6628787280 -->
<g id="edge39" class="edge">
<title>6629477328&#45;&#45;6628787280</title>
<path fill="none" stroke="black" d="M265.4,-285.81C305.89,-277.53 384.69,-261.39 425.03,-253.14"/>
</g>
<!-- 6628798864 -->
<g id="node39" class="node">
<title>6628798864</title>
<ellipse fill="none" stroke="black" cx="629.52" cy="-295" rx="115.39" ry="18"/>
<text text-anchor="middle" x="629.52" y="-289.38" font-family="Times,serif" font-size="15.00">phase procedure aborted</text>
</g>
<!-- 6628787280&#45;&#45;6628798864 -->
<g id="edge36" class="edge">
<title>6628787280&#45;&#45;6628798864</title>
<path fill="none" stroke="black" d="M476.66,-254.54C500.51,-260.89 537.67,-270.79 569.26,-279.21"/>
</g>
<!-- 6628789136 -->
<g id="node40" class="node">
<title>6628789136</title>
<ellipse fill="none" stroke="black" cx="629.52" cy="-241" rx="82.77" ry="18"/>
<text text-anchor="middle" x="629.52" y="-235.38" font-family="Times,serif" font-size="15.00">register deadline</text>
</g>
<!-- 6628787280&#45;&#45;6628789136 -->
<g id="edge37" class="edge">
<title>6628787280&#45;&#45;6628789136</title>
<path fill="none" stroke="black" d="M478.54,-246.95C496.99,-246.22 522.69,-245.2 547.62,-244.21"/>
</g>
<!-- 6628792848 -->
<g id="node41" class="node">
<title>6628792848</title>
<ellipse fill="none" stroke="black" cx="629.52" cy="-187" rx="54.36" ry="18"/>
<text text-anchor="middle" x="629.52" y="-181.38" font-family="Times,serif" font-size="15.00">close case</text>
</g>
<!-- 6628787280&#45;&#45;6628792848 -->
<g id="edge38" class="edge">
<title>6628787280&#45;&#45;6628792848</title>
<path fill="none" stroke="black" d="M475.55,-239.9C504.98,-229.72 555.85,-212.13 590.79,-200.05"/>
</g>
</g>
</svg>
