<?xml version="1.0" encoding="UTF-8" standalone="no"?>
<!DOCTYPE svg PUBLIC "-//W3C//DTD SVG 1.1//EN"
 "http://www.w3.org/Graphics/SVG/1.1/DTD/svg11.dtd">
<!-- Generated by graphviz version 8.0.5 (20230430.1635)
 -->
<!-- Title: pt Pages: 1 -->
<svg width="2862pt" height="1243pt"
 viewBox="0.00 0.00 2861.86 1243.00" xmlns="http://www.w3.org/2000/svg" xmlns:xlink="http://www.w3.org/1999/xlink">
<g id="graph0" class="graph" transform="scale(1 1) rotate(0) translate(4 1239)">
<title>pt</title>
<polygon fill="white" stroke="none" points="-4,4 -4,-1239 2857.86,-1239 2857.86,4 -4,4"/>
<!-- 6637174480 -->
<g id="node1" class="node">
<title>6637174480</title>
<ellipse fill="none" stroke="black" cx="27" cy="-477" rx="27" ry="18"/>
<text text-anchor="middle" x="27" y="-471.38" font-family="Times,serif" font-size="15.00">seq</text>
</g>
<!-- 6637173968 -->
<g id="node2" class="node">
<title>6637173968</title>
<ellipse fill="none" stroke="black" cx="290.1" cy="-855" rx="149.06" ry="18"/>
<text text-anchor="middle" x="290.1" y="-849.38" font-family="Times,serif" font-size="15.00">register submission date request</text>
</g>
<!-- 6637174480&#45;&#45;6637173968 -->
<g id="edge1" class="edge">
<title>6637174480&#45;&#45;6637173968</title>
<path fill="none" stroke="black" d="M39.22,-493.24C81.58,-554.57 231.67,-771.86 276.42,-836.64"/>
</g>
<!-- 6637166480 -->
<g id="node3" class="node">
<title>6637166480</title>
<ellipse fill="none" stroke="black" cx="290.1" cy="-801" rx="108.55" ry="18"/>
<text text-anchor="middle" x="290.1" y="-795.38" font-family="Times,serif" font-size="15.00">OLO messaging active</text>
</g>
<!-- 6637174480&#45;&#45;6637166480 -->
<g id="edge2" class="edge">
<title>6637174480&#45;&#45;6637166480</title>
<path fill="none" stroke="black" d="M40.59,-492.63C84.09,-546.6 227.88,-725.03 274.42,-782.79"/>
</g>
<!-- 6637159440 -->
<g id="node4" class="node">
<title>6637159440</title>
<ellipse fill="none" stroke="black" cx="290.1" cy="-747" rx="27" ry="18"/>
<text text-anchor="middle" x="290.1" y="-741.38" font-family="Times,serif" font-size="15.00">and</text>
</g>
<!-- 6637174480&#45;&#45;6637159440 -->
<g id="edge47" class="edge">
<title>6637174480&#45;&#45;6637159440</title>
<path fill="none" stroke="black" d="M42.41,-491.9C87.95,-539 228.48,-684.32 274.41,-731.81"/>
</g>
<!-- 6637170896 -->
<g id="node49" class="node">
<title>6637170896</title>
<ellipse fill="none" stroke="black" cx="290.1" cy="-693" rx="134.33" ry="18"/>
<text text-anchor="middle" x="290.1" y="-687.38" font-family="Times,serif" font-size="15.00">send procedure confirmation</text>
</g>
<!-- 6637174480&#45;&#45;6637170896 -->
<g id="edge48" class="edge">
<title>6637174480&#45;&#45;6637170896</title>
<path fill="none" stroke="black" d="M44.73,-490.84C90.2,-528.46 216.06,-632.58 267.13,-674.83"/>
</g>
<!-- 6636312336 -->
<g id="node50" class="node">
<title>6636312336</title>
<ellipse fill="none" stroke="black" cx="290.1" cy="-639" rx="200.1" ry="18"/>
<text text-anchor="middle" x="290.1" y="-633.38" font-family="Times,serif" font-size="15.00">registrer date of publishing received request</text>
</g>
<!-- 6637174480&#45;&#45;6636312336 -->
<g id="edge49" class="edge">
<title>6637174480&#45;&#45;6636312336</title>
<path fill="none" stroke="black" d="M47.62,-489.18C93.17,-517.43 206.22,-587.58 259.91,-620.89"/>
</g>
<!-- 6636311056 -->
<g id="node51" class="node">
<title>6636311056</title>
<ellipse fill="none" stroke="black" cx="290.1" cy="-585" rx="131.18" ry="18"/>
<text text-anchor="middle" x="290.1" y="-579.38" font-family="Times,serif" font-size="15.00">treat subcases completeness</text>
</g>
<!-- 6637174480&#45;&#45;6636311056 -->
<g id="edge50" class="edge">
<title>6637174480&#45;&#45;6636311056</title>
<path fill="none" stroke="black" d="M50.26,-486.21C93.79,-504.21 190.83,-544.35 246.9,-567.54"/>
</g>
<!-- 6636306896 -->
<g id="node52" class="node">
<title>6636306896</title>
<ellipse fill="none" stroke="black" cx="290.1" cy="-531" rx="97.51" ry="18"/>
<text text-anchor="middle" x="290.1" y="-525.38" font-family="Times,serif" font-size="15.00">WAW permit aspect</text>
</g>
<!-- 6637174480&#45;&#45;6636306896 -->
<g id="edge51" class="edge">
<title>6637174480&#45;&#45;6636306896</title>
<path fill="none" stroke="black" d="M53.04,-482.18C91.96,-490.23 168.28,-506.01 223.63,-517.46"/>
</g>
<!-- 6636310288 -->
<g id="node53" class="node">
<title>6636310288</title>
<ellipse fill="none" stroke="black" cx="290.1" cy="-477" rx="112.76" ry="18"/>
<text text-anchor="middle" x="290.1" y="-471.38" font-family="Times,serif" font-size="15.00">applicant is stakeholder</text>
</g>
<!-- 6637174480&#45;&#45;6636310288 -->
<g id="edge52" class="edge">
<title>6637174480&#45;&#45;6636310288</title>
<path fill="none" stroke="black" d="M54.47,-477C83.38,-477 131.62,-477 176.86,-477"/>
</g>
<!-- 6636322704 -->
<g id="node54" class="node">
<title>6636322704</title>
<ellipse fill="none" stroke="black" cx="290.1" cy="-423" rx="99.08" ry="18"/>
<text text-anchor="middle" x="290.1" y="-417.38" font-family="Times,serif" font-size="15.00">terminate on request</text>
</g>
<!-- 6637174480&#45;&#45;6636322704 -->
<g id="edge53" class="edge">
<title>6637174480&#45;&#45;6636322704</title>
<path fill="none" stroke="black" d="M53.04,-471.82C91.84,-463.8 167.78,-448.09 223.08,-436.65"/>
</g>
<!-- 6636308240 -->
<g id="node55" class="node">
<title>6636308240</title>
<ellipse fill="none" stroke="black" cx="290.1" cy="-369" rx="165.9" ry="18"/>
<text text-anchor="middle" x="290.1" y="-363.38" font-family="Times,serif" font-size="15.00">create decision terminate on request</text>
</g>
<!-- 6637174480&#45;&#45;6636308240 -->
<g id="edge54" class="edge">
<title>6637174480&#45;&#45;6636308240</title>
<path fill="none" stroke="black" d="M50.26,-467.79C93.67,-449.84 190.28,-409.88 246.42,-386.65"/>
</g>
<!-- 6636319184 -->
<g id="node56" class="node">
<title>6636319184</title>
<ellipse fill="none" stroke="black" cx="290.1" cy="-315" rx="137.49" ry="18"/>
<text text-anchor="middle" x="290.1" y="-309.38" font-family="Times,serif" font-size="15.00">decision terminate on request</text>
</g>
<!-- 6637174480&#45;&#45;6636319184 -->
<g id="edge55" class="edge">
<title>6637174480&#45;&#45;6636319184</title>
<path fill="none" stroke="black" d="M47.62,-464.82C93.28,-436.49 206.81,-366.05 260.32,-332.85"/>
</g>
<!-- 6636319504 -->
<g id="node57" class="node">
<title>6636319504</title>
<ellipse fill="none" stroke="black" cx="290.1" cy="-261" rx="176.95" ry="18"/>
<text text-anchor="middle" x="290.1" y="-255.38" font-family="Times,serif" font-size="15.00">stop process after terminate on request</text>
</g>
<!-- 6637174480&#45;&#45;6636319504 -->
<g id="edge56" class="edge">
<title>6637174480&#45;&#45;6636319504</title>
<path fill="none" stroke="black" d="M44.73,-463.16C90.2,-425.54 216.06,-321.42 267.13,-279.17"/>
</g>
<!-- 6636310928 -->
<g id="node58" class="node">
<title>6636310928</title>
<ellipse fill="none" stroke="black" cx="290.1" cy="-207" rx="115.39" ry="18"/>
<text text-anchor="middle" x="290.1" y="-201.38" font-family="Times,serif" font-size="15.00">phase procedure aborted</text>
</g>
<!-- 6637174480&#45;&#45;6636310928 -->
<g id="edge57" class="edge">
<title>6637174480&#45;&#45;6636310928</title>
<path fill="none" stroke="black" d="M42.41,-462.1C87.1,-415.89 223.24,-275.1 271.72,-224.97"/>
</g>
<!-- 6636307344 -->
<g id="node59" class="node">
<title>6636307344</title>
<ellipse fill="none" stroke="black" cx="290.1" cy="-153" rx="54.36" ry="18"/>
<text text-anchor="middle" x="290.1" y="-147.38" font-family="Times,serif" font-size="15.00">close case</text>
</g>
<!-- 6637174480&#45;&#45;6636307344 -->
<g id="edge58" class="edge">
<title>6637174480&#45;&#45;6636307344</title>
<path fill="none" stroke="black" d="M40.59,-461.37C84.29,-407.14 229.23,-227.29 275.07,-170.41"/>
</g>
<!-- 6636314768 -->
<g id="node60" class="node">
<title>6636314768</title>
<ellipse fill="none" stroke="black" cx="290.1" cy="-99" rx="27" ry="18"/>
<text text-anchor="middle" x="290.1" y="-93.38" font-family="Times,serif" font-size="15.00">xor</text>
</g>
<!-- 6637174480&#45;&#45;6636314768 -->
<g id="edge64" class="edge">
<title>6637174480&#45;&#45;6636314768</title>
<path fill="none" stroke="black" d="M39.22,-460.76C82.07,-398.72 235.14,-177.11 277.92,-115.18"/>
</g>
<!-- 6637169552 -->
<g id="node5" class="node">
<title>6637169552</title>
<ellipse fill="none" stroke="black" cx="651.06" cy="-774" rx="124.86" ry="18"/>
<text text-anchor="middle" x="651.06" y="-768.38" font-family="Times,serif" font-size="15.00">phase application received</text>
</g>
<!-- 6637159440&#45;&#45;6637169552 -->
<g id="edge3" class="edge">
<title>6637159440&#45;&#45;6637169552</title>
<path fill="none" stroke="black" d="M317.2,-748.96C363.26,-752.43 461.45,-759.81 539.31,-765.67"/>
</g>
<!-- 6637171280 -->
<g id="node6" class="node">
<title>6637171280</title>
<ellipse fill="none" stroke="black" cx="651.06" cy="-720" rx="27" ry="18"/>
<text text-anchor="middle" x="651.06" y="-714.38" font-family="Times,serif" font-size="15.00">seq</text>
</g>
<!-- 6637159440&#45;&#45;6637171280 -->
<g id="edge46" class="edge">
<title>6637159440&#45;&#45;6637171280</title>
<path fill="none" stroke="black" d="M317.2,-745.04C383.51,-740.05 557.85,-726.94 624.05,-721.96"/>
</g>
<!-- 6637162000 -->
<g id="node7" class="node">
<title>6637162000</title>
<ellipse fill="none" stroke="black" cx="977.3" cy="-747" rx="152.75" ry="18"/>
<text text-anchor="middle" x="977.3" y="-741.38" font-family="Times,serif" font-size="15.00">enter senddate acknowledgement</text>
</g>
<!-- 6637171280&#45;&#45;6637162000 -->
<g id="edge4" class="edge">
<title>6637171280&#45;&#45;6637162000</title>
<path fill="none" stroke="black" d="M678.32,-722.19C715.86,-725.31 787.36,-731.27 850.91,-736.56"/>
</g>
<!-- 6635250960 -->
<g id="node8" class="node">
<title>6635250960</title>
<ellipse fill="none" stroke="black" cx="977.3" cy="-693" rx="47" ry="18"/>
<text text-anchor="middle" x="977.3" y="-687.38" font-family="Times,serif" font-size="15.00">xor loop</text>
</g>
<!-- 6637171280&#45;&#45;6635250960 -->
<g id="edge45" class="edge">
<title>6637171280&#45;&#45;6635250960</title>
<path fill="none" stroke="black" d="M678.32,-717.81C733.5,-713.22 862.05,-702.51 930.88,-696.78"/>
</g>
<!-- 6635250192 -->
<g id="node9" class="node">
<title>6635250192</title>
<ellipse fill="none" stroke="black" cx="1205.67" cy="-712" rx="27" ry="18"/>
<text text-anchor="middle" x="1205.67" y="-706.38" font-family="Times,serif" font-size="15.00">seq</text>
</g>
<!-- 6635250960&#45;&#45;6635250192 -->
<g id="edge43" class="edge">
<title>6635250960&#45;&#45;6635250192</title>
<path fill="none" stroke="black" d="M1023.56,-696.8C1070.01,-700.7 1140.68,-706.63 1178.54,-709.81"/>
</g>
<!-- 6635247504 -->
<g id="node48" class="node">
<title>6635247504</title>
<ellipse fill="black" stroke="black" cx="1205.67" cy="-673" rx="2.7" ry="2.7"/>
</g>
<!-- 6635250960&#45;&#45;6635247504 -->
<g id="edge44" class="edge">
<title>6635250960&#45;&#45;6635247504</title>
<path fill="none" stroke="black" d="M1023.56,-689C1084.46,-683.62 1186.99,-674.56 1202.64,-673.18"/>
</g>
<!-- 6635248400 -->
<g id="node10" class="node">
<title>6635248400</title>
<ellipse fill="none" stroke="black" cx="1379.33" cy="-766" rx="110.66" ry="18"/>
<text text-anchor="middle" x="1379.33" y="-760.38" font-family="Times,serif" font-size="15.00">reception through OLO</text>
</g>
<!-- 6635250192&#45;&#45;6635248400 -->
<g id="edge5" class="edge">
<title>6635250192&#45;&#45;6635248400</title>
<path fill="none" stroke="black" d="M1230.54,-719.51C1255.32,-727.3 1294.86,-739.74 1326.8,-749.79"/>
</g>
<!-- 6635247440 -->
<g id="node11" class="node">
<title>6635247440</title>
<ellipse fill="none" stroke="black" cx="1379.33" cy="-712" rx="27" ry="18"/>
<text text-anchor="middle" x="1379.33" y="-706.38" font-family="Times,serif" font-size="15.00">xor</text>
</g>
<!-- 6635250192&#45;&#45;6635247440 -->
<g id="edge34" class="edge">
<title>6635250192&#45;&#45;6635247440</title>
<path fill="none" stroke="black" d="M1233.11,-712C1265.37,-712 1319.58,-712 1351.85,-712"/>
</g>
<!-- 6635248464 -->
<g id="node40" class="node">
<title>6635248464</title>
<ellipse fill="none" stroke="black" cx="1379.33" cy="-483" rx="27" ry="18"/>
<text text-anchor="middle" x="1379.33" y="-477.38" font-family="Times,serif" font-size="15.00">xor</text>
</g>
<!-- 6635250192&#45;&#45;6635248464 -->
<g id="edge42" class="edge">
<title>6635250192&#45;&#45;6635248464</title>
<path fill="none" stroke="black" d="M1218.74,-695.9C1250.26,-653.85 1334.77,-541.11 1366.27,-499.09"/>
</g>
<!-- 6635257104 -->
<g id="node12" class="node">
<title>6635257104</title>
<ellipse fill="none" stroke="black" cx="1631.91" cy="-1117" rx="27" ry="18"/>
<text text-anchor="middle" x="1631.91" y="-1111.38" font-family="Times,serif" font-size="15.00">seq</text>
</g>
<!-- 6635247440&#45;&#45;6635257104 -->
<g id="edge11" class="edge">
<title>6635247440&#45;&#45;6635257104</title>
<path fill="none" stroke="black" d="M1390.62,-728.63C1431.23,-794.27 1580.15,-1034.96 1620.67,-1100.45"/>
</g>
<!-- 6635245328 -->
<g id="node18" class="node">
<title>6635245328</title>
<ellipse fill="none" stroke="black" cx="1631.91" cy="-712" rx="27" ry="18"/>
<text text-anchor="middle" x="1631.91" y="-706.38" font-family="Times,serif" font-size="15.00">seq</text>
</g>
<!-- 6635247440&#45;&#45;6635245328 -->
<g id="edge33" class="edge">
<title>6635247440&#45;&#45;6635245328</title>
<path fill="none" stroke="black" d="M1406.67,-712C1454.8,-712 1556.4,-712 1604.54,-712"/>
</g>
<!-- 6635246544 -->
<g id="node13" class="node">
<title>6635246544</title>
<ellipse fill="none" stroke="black" cx="1967.09" cy="-1198" rx="47" ry="18"/>
<text text-anchor="middle" x="1967.09" y="-1192.38" font-family="Times,serif" font-size="15.00">xor loop</text>
</g>
<!-- 6635257104&#45;&#45;6635246544 -->
<g id="edge8" class="edge">
<title>6635257104&#45;&#45;6635246544</title>
<path fill="none" stroke="black" d="M1657.68,-1123.02C1714.99,-1136.95 1857.12,-1171.51 1926.59,-1188.4"/>
</g>
<!-- 6635243152 -->
<g id="node16" class="node">
<title>6635243152</title>
<ellipse fill="none" stroke="black" cx="1967.09" cy="-1144" rx="160.64" ry="18"/>
<text text-anchor="middle" x="1967.09" y="-1138.38" font-family="Times,serif" font-size="15.00">forward to the competent authority</text>
</g>
<!-- 6635257104&#45;&#45;6635243152 -->
<g id="edge9" class="edge">
<title>6635257104&#45;&#45;6635243152</title>
<path fill="none" stroke="black" d="M1659.05,-1119.12C1697.02,-1122.2 1770.03,-1128.11 1835.33,-1133.4"/>
</g>
<!-- 6635245968 -->
<g id="node17" class="node">
<title>6635245968</title>
<ellipse fill="none" stroke="black" cx="1967.09" cy="-1090" rx="147.49" ry="18"/>
<text text-anchor="middle" x="1967.09" y="-1084.38" font-family="Times,serif" font-size="15.00">regular procedure without MER</text>
</g>
<!-- 6635257104&#45;&#45;6635245968 -->
<g id="edge10" class="edge">
<title>6635257104&#45;&#45;6635245968</title>
<path fill="none" stroke="black" d="M1659.05,-1114.88C1698.48,-1111.69 1775.69,-1105.43 1842.81,-1099.99"/>
</g>
<!-- 6635245584 -->
<g id="node14" class="node">
<title>6635245584</title>
<ellipse fill="none" stroke="black" cx="2374.87" cy="-1217" rx="121.18" ry="18"/>
<text text-anchor="middle" x="2374.87" y="-1211.38" font-family="Times,serif" font-size="15.00">send confirmation receipt</text>
</g>
<!-- 6635246544&#45;&#45;6635245584 -->
<g id="edge6" class="edge">
<title>6635246544&#45;&#45;6635245584</title>
<path fill="none" stroke="black" d="M2014.24,-1200.16C2073.24,-1202.92 2177.44,-1207.8 2258.54,-1211.6"/>
</g>
<!-- 6635247952 -->
<g id="node15" class="node">
<title>6635247952</title>
<ellipse fill="black" stroke="black" cx="2374.87" cy="-1178" rx="2.7" ry="2.7"/>
</g>
<!-- 6635246544&#45;&#45;6635247952 -->
<g id="edge7" class="edge">
<title>6635246544&#45;&#45;6635247952</title>
<path fill="none" stroke="black" d="M2013.85,-1195.74C2114.58,-1190.78 2348.47,-1179.25 2371.96,-1178.09"/>
</g>
<!-- 6635245840 -->
<g id="node19" class="node">
<title>6635245840</title>
<ellipse fill="none" stroke="black" cx="1967.09" cy="-1036" rx="140.65" ry="18"/>
<text text-anchor="middle" x="1967.09" y="-1030.38" font-family="Times,serif" font-size="15.00">create procedure confirmation</text>
</g>
<!-- 6635245328&#45;&#45;6635245840 -->
<g id="edge12" class="edge">
<title>6635245328&#45;&#45;6635245840</title>
<path fill="none" stroke="black" d="M1648.09,-726.76C1702.58,-779.75 1888.18,-960.24 1947.62,-1018.04"/>
</g>
<!-- 6635255248 -->
<g id="node20" class="node">
<title>6635255248</title>
<ellipse fill="none" stroke="black" cx="1967.09" cy="-982" rx="42.79" ry="18"/>
<text text-anchor="middle" x="1967.09" y="-976.38" font-family="Times,serif" font-size="15.00">publish</text>
</g>
<!-- 6635245328&#45;&#45;6635255248 -->
<g id="edge13" class="edge">
<title>6635245328&#45;&#45;6635255248</title>
<path fill="none" stroke="black" d="M1649.89,-725.76C1706.12,-771.32 1886.07,-917.15 1946.26,-965.93"/>
</g>
<!-- 6635247312 -->
<g id="node21" class="node">
<title>6635247312</title>
<ellipse fill="none" stroke="black" cx="1967.09" cy="-928" rx="137.49" ry="18"/>
<text text-anchor="middle" x="1967.09" y="-922.38" font-family="Times,serif" font-size="15.00">create subcases completeness</text>
</g>
<!-- 6635245328&#45;&#45;6635247312 -->
<g id="edge14" class="edge">
<title>6635245328&#45;&#45;6635247312</title>
<path fill="none" stroke="black" d="M1651.78,-724.23C1707.67,-760.47 1872.56,-867.36 1938.44,-910.07"/>
</g>
<!-- 6635244560 -->
<g id="node22" class="node">
<title>6635244560</title>
<ellipse fill="none" stroke="black" cx="1967.09" cy="-874" rx="132.76" ry="18"/>
<text text-anchor="middle" x="1967.09" y="-868.38" font-family="Times,serif" font-size="15.00">create publication document</text>
</g>
<!-- 6635245328&#45;&#45;6635244560 -->
<g id="edge15" class="edge">
<title>6635245328&#45;&#45;6635244560</title>
<path fill="none" stroke="black" d="M1654.51,-722.5C1710.39,-749.67 1860.16,-822.49 1929.69,-856.3"/>
</g>
<!-- 6635252816 -->
<g id="node23" class="node">
<title>6635252816</title>
<ellipse fill="none" stroke="black" cx="1967.09" cy="-820" rx="139.07" ry="18"/>
<text text-anchor="middle" x="1967.09" y="-814.38" font-family="Times,serif" font-size="15.00">initiative competent authority</text>
</g>
<!-- 6635245328&#45;&#45;6635252816 -->
<g id="edge16" class="edge">
<title>6635245328&#45;&#45;6635252816</title>
<path fill="none" stroke="black" d="M1656.6,-719.68C1709.9,-736.96 1840.29,-779.22 1913.69,-803.01"/>
</g>
<!-- 6635253200 -->
<g id="node24" class="node">
<title>6635253200</title>
<ellipse fill="none" stroke="black" cx="1967.09" cy="-766" rx="27" ry="18"/>
<text text-anchor="middle" x="1967.09" y="-760.38" font-family="Times,serif" font-size="15.00">and</text>
</g>
<!-- 6635245328&#45;&#45;6635253200 -->
<g id="edge19" class="edge">
<title>6635245328&#45;&#45;6635253200</title>
<path fill="none" stroke="black" d="M1658.5,-716.15C1720.52,-726.2 1878.3,-751.77 1940.41,-761.84"/>
</g>
<!-- 6635249744 -->
<g id="node27" class="node">
<title>6635249744</title>
<ellipse fill="none" stroke="black" cx="1967.09" cy="-712" rx="193.26" ry="18"/>
<text text-anchor="middle" x="1967.09" y="-706.38" font-family="Times,serif" font-size="15.00">register date decision terminate on request</text>
</g>
<!-- 6635245328&#45;&#45;6635249744 -->
<g id="edge20" class="edge">
<title>6635245328&#45;&#45;6635249744</title>
<path fill="none" stroke="black" d="M1659.33,-712C1685.5,-712 1728.11,-712 1773.35,-712"/>
</g>
<!-- 6635243920 -->
<g id="node28" class="node">
<title>6635243920</title>
<ellipse fill="none" stroke="black" cx="1967.09" cy="-658" rx="164.85" ry="18"/>
<text text-anchor="middle" x="1967.09" y="-652.38" font-family="Times,serif" font-size="15.00">enter senddate confirmation request</text>
</g>
<!-- 6635245328&#45;&#45;6635243920 -->
<g id="edge21" class="edge">
<title>6635245328&#45;&#45;6635243920</title>
<path fill="none" stroke="black" d="M1658.5,-707.85C1703.68,-700.53 1799.69,-684.97 1872.5,-673.17"/>
</g>
<!-- 6635254928 -->
<g id="node29" class="node">
<title>6635254928</title>
<ellipse fill="none" stroke="black" cx="1967.09" cy="-604" rx="123.81" ry="18"/>
<text text-anchor="middle" x="1967.09" y="-598.38" font-family="Times,serif" font-size="15.00">read publication date field</text>
</g>
<!-- 6635245328&#45;&#45;6635254928 -->
<g id="edge22" class="edge">
<title>6635245328&#45;&#45;6635254928</title>
<path fill="none" stroke="black" d="M1656.6,-704.32C1710.12,-686.97 1841.39,-644.42 1914.61,-620.69"/>
</g>
<!-- 6635243728 -->
<g id="node30" class="node">
<title>6635243728</title>
<ellipse fill="none" stroke="black" cx="1967.09" cy="-550" rx="184.31" ry="18"/>
<text text-anchor="middle" x="1967.09" y="-544.38" font-family="Times,serif" font-size="15.00">phase procedure prematurely terminated</text>
</g>
<!-- 6635245328&#45;&#45;6635243728 -->
<g id="edge23" class="edge">
<title>6635245328&#45;&#45;6635243728</title>
<path fill="none" stroke="black" d="M1654.51,-701.5C1710.18,-674.43 1859,-602.07 1928.88,-568.09"/>
</g>
<!-- 6635256464 -->
<g id="node31" class="node">
<title>6635256464</title>
<ellipse fill="none" stroke="black" cx="1967.09" cy="-496" rx="27" ry="18"/>
<text text-anchor="middle" x="1967.09" y="-490.38" font-family="Times,serif" font-size="15.00">and</text>
</g>
<!-- 6635245328&#45;&#45;6635256464 -->
<g id="edge26" class="edge">
<title>6635245328&#45;&#45;6635256464</title>
<path fill="none" stroke="black" d="M1651.78,-699.77C1710.28,-661.84 1888.23,-546.48 1947.02,-508.37"/>
</g>
<!-- 6635249232 -->
<g id="node34" class="node">
<title>6635249232</title>
<ellipse fill="none" stroke="black" cx="1967.09" cy="-442" rx="92.77" ry="18"/>
<text text-anchor="middle" x="1967.09" y="-436.38" font-family="Times,serif" font-size="15.00">phase case handled</text>
</g>
<!-- 6635245328&#45;&#45;6635249232 -->
<g id="edge27" class="edge">
<title>6635245328&#45;&#45;6635249232</title>
<path fill="none" stroke="black" d="M1649.89,-698.24C1705.45,-653.21 1881.84,-510.28 1944.08,-459.83"/>
</g>
<!-- 6635243088 -->
<g id="node35" class="node">
<title>6635243088</title>
<ellipse fill="none" stroke="black" cx="1967.09" cy="-388" rx="27" ry="18"/>
<text text-anchor="middle" x="1967.09" y="-382.38" font-family="Times,serif" font-size="15.00">xor</text>
</g>
<!-- 6635245328&#45;&#45;6635243088 -->
<g id="edge32" class="edge">
<title>6635245328&#45;&#45;6635243088</title>
<path fill="none" stroke="black" d="M1648.09,-697.24C1703.6,-643.26 1895.17,-456.97 1950.82,-402.85"/>
</g>
<!-- 6635250576 -->
<g id="node25" class="node">
<title>6635250576</title>
<ellipse fill="none" stroke="black" cx="2374.87" cy="-793" rx="178.53" ry="18"/>
<text text-anchor="middle" x="2374.87" y="-787.38" font-family="Times,serif" font-size="15.00">enter date termination request received</text>
</g>
<!-- 6635253200&#45;&#45;6635250576 -->
<g id="edge17" class="edge">
<title>6635253200&#45;&#45;6635250576</title>
<path fill="none" stroke="black" d="M1994.4,-767.75C2040.5,-770.82 2139.08,-777.38 2224.21,-783.04"/>
</g>
<!-- 6635242320 -->
<g id="node26" class="node">
<title>6635242320</title>
<ellipse fill="none" stroke="black" cx="2374.87" cy="-739" rx="176.42" ry="18"/>
<text text-anchor="middle" x="2374.87" y="-733.38" font-family="Times,serif" font-size="15.00">enter senddate procedure confirmation</text>
</g>
<!-- 6635253200&#45;&#45;6635242320 -->
<g id="edge18" class="edge">
<title>6635253200&#45;&#45;6635242320</title>
<path fill="none" stroke="black" d="M1994.4,-764.25C2040.77,-761.16 2140.21,-754.55 2225.66,-748.86"/>
</g>
<!-- 6635245072 -->
<g id="node32" class="node">
<title>6635245072</title>
<ellipse fill="none" stroke="black" cx="2374.87" cy="-523" rx="95.93" ry="18"/>
<text text-anchor="middle" x="2374.87" y="-517.38" font-family="Times,serif" font-size="15.00">phase archived case</text>
</g>
<!-- 6635256464&#45;&#45;6635245072 -->
<g id="edge24" class="edge">
<title>6635256464&#45;&#45;6635245072</title>
<path fill="none" stroke="black" d="M1994.4,-497.75C2051.92,-501.58 2191.12,-510.84 2283.97,-517.02"/>
</g>
<!-- 6635246416 -->
<g id="node33" class="node">
<title>6635246416</title>
<ellipse fill="none" stroke="black" cx="2374.87" cy="-469" rx="124.86" ry="18"/>
<text text-anchor="middle" x="2374.87" y="-463.38" font-family="Times,serif" font-size="15.00">message terminate request</text>
</g>
<!-- 6635256464&#45;&#45;6635246416 -->
<g id="edge25" class="edge">
<title>6635256464&#45;&#45;6635246416</title>
<path fill="none" stroke="black" d="M1994.4,-494.25C2047.27,-490.73 2169.12,-482.62 2260.59,-476.54"/>
</g>
<!-- 6635431696 -->
<g id="node36" class="node">
<title>6635431696</title>
<ellipse fill="none" stroke="black" cx="2374.87" cy="-401" rx="82.77" ry="18"/>
<text text-anchor="middle" x="2374.87" y="-395.38" font-family="Times,serif" font-size="15.00">register deadline</text>
</g>
<!-- 6635243088&#45;&#45;6635431696 -->
<g id="edge28" class="edge">
<title>6635243088&#45;&#45;6635431696</title>
<path fill="none" stroke="black" d="M1994.4,-388.84C2053.76,-390.74 2200.13,-395.43 2292.75,-398.4"/>
</g>
<!-- 6635428624 -->
<g id="node37" class="node">
<title>6635428624</title>
<ellipse fill="none" stroke="black" cx="2374.87" cy="-347" rx="27" ry="18"/>
<text text-anchor="middle" x="2374.87" y="-341.38" font-family="Times,serif" font-size="15.00">seq</text>
</g>
<!-- 6635243088&#45;&#45;6635428624 -->
<g id="edge31" class="edge">
<title>6635243088&#45;&#45;6635428624</title>
<path fill="none" stroke="black" d="M1994.09,-385.37C2067.3,-377.98 2274.57,-357.03 2347.83,-349.63"/>
</g>
<!-- 6635423376 -->
<g id="node38" class="node">
<title>6635423376</title>
<ellipse fill="none" stroke="black" cx="2721.63" cy="-374" rx="131.7" ry="18"/>
<text text-anchor="middle" x="2721.63" y="-368.38" font-family="Times,serif" font-size="15.00">stop all running subcases 2b</text>
</g>
<!-- 6635428624&#45;&#45;6635423376 -->
<g id="edge29" class="edge">
<title>6635428624&#45;&#45;6635423376</title>
<path fill="none" stroke="black" d="M2402.07,-349.05C2445.13,-352.42 2533.33,-359.33 2606.03,-365.03"/>
</g>
<!-- 6635436240 -->
<g id="node39" class="node">
<title>6635436240</title>
<ellipse fill="none" stroke="black" cx="2721.63" cy="-320" rx="132.23" ry="18"/>
<text text-anchor="middle" x="2721.63" y="-314.38" font-family="Times,serif" font-size="15.00">registration date publication</text>
</g>
<!-- 6635428624&#45;&#45;6635436240 -->
<g id="edge30" class="edge">
<title>6635428624&#45;&#45;6635436240</title>
<path fill="none" stroke="black" d="M2402.07,-344.95C2445.13,-341.58 2533.33,-334.67 2606.03,-328.97"/>
</g>
<!-- 6635426256 -->
<g id="node41" class="node">
<title>6635426256</title>
<ellipse fill="none" stroke="black" cx="1631.91" cy="-483" rx="105.92" ry="18"/>
<text text-anchor="middle" x="1631.91" y="-477.38" font-family="Times,serif" font-size="15.00">start WABOprocedure</text>
</g>
<!-- 6635248464&#45;&#45;6635426256 -->
<g id="edge35" class="edge">
<title>6635248464&#45;&#45;6635426256</title>
<path fill="none" stroke="black" d="M1406.67,-483C1435.07,-483 1482.09,-483 1525.75,-483"/>
</g>
<!-- 6635437520 -->
<g id="node42" class="node">
<title>6635437520</title>
<ellipse fill="none" stroke="black" cx="1631.91" cy="-253" rx="27" ry="18"/>
<text text-anchor="middle" x="1631.91" y="-247.38" font-family="Times,serif" font-size="15.00">seq</text>
</g>
<!-- 6635248464&#45;&#45;6635437520 -->
<g id="edge41" class="edge">
<title>6635248464&#45;&#45;6635437520</title>
<path fill="none" stroke="black" d="M1396,-468.61C1441,-427.31 1570.25,-308.68 1615.24,-267.38"/>
</g>
<!-- 6636312976 -->
<g id="node43" class="node">
<title>6636312976</title>
<ellipse fill="none" stroke="black" cx="1967.09" cy="-334" rx="86.46" ry="18"/>
<text text-anchor="middle" x="1967.09" y="-328.38" font-family="Times,serif" font-size="15.00">procedure change</text>
</g>
<!-- 6635437520&#45;&#45;6636312976 -->
<g id="edge36" class="edge">
<title>6635437520&#45;&#45;6636312976</title>
<path fill="none" stroke="black" d="M1657.68,-259.02C1710.61,-271.89 1835.92,-302.35 1909.48,-320.24"/>
</g>
<!-- 6636319440 -->
<g id="node44" class="node">
<title>6636319440</title>
<ellipse fill="none" stroke="black" cx="1967.09" cy="-280" rx="84.35" ry="18"/>
<text text-anchor="middle" x="1967.09" y="-274.38" font-family="Times,serif" font-size="15.00">request complete</text>
</g>
<!-- 6635437520&#45;&#45;6636319440 -->
<g id="edge37" class="edge">
<title>6635437520&#45;&#45;6636319440</title>
<path fill="none" stroke="black" d="M1659.05,-255.12C1707.68,-259.06 1813.79,-267.66 1887.57,-273.64"/>
</g>
<!-- 6636311312 -->
<g id="node45" class="node">
<title>6636311312</title>
<ellipse fill="none" stroke="black" cx="1967.09" cy="-226" rx="148.01" ry="18"/>
<text text-anchor="middle" x="1967.09" y="-220.38" font-family="Times,serif" font-size="15.00">term for supplying missing data</text>
</g>
<!-- 6635437520&#45;&#45;6636311312 -->
<g id="edge38" class="edge">
<title>6635437520&#45;&#45;6636311312</title>
<path fill="none" stroke="black" d="M1659.05,-250.88C1698.4,-247.69 1775.38,-241.45 1842.42,-236.02"/>
</g>
<!-- 6636309968 -->
<g id="node46" class="node">
<title>6636309968</title>
<ellipse fill="none" stroke="black" cx="1967.09" cy="-172" rx="166.43" ry="18"/>
<text text-anchor="middle" x="1967.09" y="-166.38" font-family="Times,serif" font-size="15.00">create letter requesting missing data</text>
</g>
<!-- 6635437520&#45;&#45;6636309968 -->
<g id="edge39" class="edge">
<title>6635437520&#45;&#45;6636309968</title>
<path fill="none" stroke="black" d="M1657.68,-246.98C1707.75,-234.81 1822.56,-206.89 1897.1,-188.77"/>
</g>
<!-- 6636320144 -->
<g id="node47" class="node">
<title>6636320144</title>
<ellipse fill="none" stroke="black" cx="1967.09" cy="-118" rx="156.43" ry="18"/>
<text text-anchor="middle" x="1967.09" y="-112.38" font-family="Times,serif" font-size="15.00">subcases completeness completed</text>
</g>
<!-- 6635437520&#45;&#45;6636320144 -->
<g id="edge40" class="edge">
<title>6635437520&#45;&#45;6636320144</title>
<path fill="none" stroke="black" d="M1655.55,-243.83C1710.33,-221.63 1850.78,-164.72 1922.51,-135.66"/>
</g>
<!-- 6636313488 -->
<g id="node61" class="node">
<title>6636313488</title>
<ellipse fill="none" stroke="black" cx="651.06" cy="-126" rx="59.63" ry="18"/>
<text text-anchor="middle" x="651.06" y="-120.38" font-family="Times,serif" font-size="15.00">cancel case</text>
</g>
<!-- 6636314768&#45;&#45;6636313488 -->
<g id="edge59" class="edge">
<title>6636314768&#45;&#45;6636313488</title>
<path fill="none" stroke="black" d="M317.2,-100.96C374.8,-105.3 513.9,-115.76 592.85,-121.7"/>
</g>
<!-- 6636313808 -->
<g id="node62" class="node">
<title>6636313808</title>
<ellipse fill="none" stroke="black" cx="651.06" cy="-72" rx="27" ry="18"/>
<text text-anchor="middle" x="651.06" y="-66.38" font-family="Times,serif" font-size="15.00">seq</text>
</g>
<!-- 6636314768&#45;&#45;6636313808 -->
<g id="edge63" class="edge">
<title>6636314768&#45;&#45;6636313808</title>
<path fill="none" stroke="black" d="M317.2,-97.04C383.51,-92.05 557.85,-78.94 624.05,-73.96"/>
</g>
<!-- 6636312464 -->
<g id="node63" class="node">
<title>6636312464</title>
<ellipse fill="none" stroke="black" cx="977.3" cy="-126" rx="161.69" ry="18"/>
<text text-anchor="middle" x="977.3" y="-120.38" font-family="Times,serif" font-size="15.00">phase asked additional information</text>
</g>
<!-- 6636313808&#45;&#45;6636312464 -->
<g id="edge60" class="edge">
<title>6636313808&#45;&#45;6636312464</title>
<path fill="none" stroke="black" d="M677.77,-76.28C722.03,-83.65 814.64,-99.08 885.05,-110.8"/>
</g>
<!-- 6636317584 -->
<g id="node64" class="node">
<title>6636317584</title>
<ellipse fill="none" stroke="black" cx="977.3" cy="-72" rx="101.19" ry="18"/>
<text text-anchor="middle" x="977.3" y="-66.38" font-family="Times,serif" font-size="15.00">retrieve missing data</text>
</g>
<!-- 6636313808&#45;&#45;6636317584 -->
<g id="edge61" class="edge">
<title>6636313808&#45;&#45;6636317584</title>
<path fill="none" stroke="black" d="M678.32,-72C720.83,-72 806.91,-72 875.66,-72"/>
</g>
<!-- 6636318160 -->
<g id="node65" class="node">
<title>6636318160</title>
<ellipse fill="none" stroke="black" cx="977.3" cy="-18" rx="165.37" ry="18"/>
<text text-anchor="middle" x="977.3" y="-12.38" font-family="Times,serif" font-size="15.00">enter senddate retrieve missing data</text>
</g>
<!-- 6636313808&#45;&#45;6636318160 -->
<g id="edge62" class="edge">
<title>6636313808&#45;&#45;6636318160</title>
<path fill="none" stroke="black" d="M677.77,-67.72C721.88,-60.37 814.01,-45.03 884.33,-33.32"/>
</g>
</g>
</svg>
