<?xml version="1.0" encoding="UTF-8" standalone="no"?>
<!DOCTYPE svg PUBLIC "-//W3C//DTD SVG 1.1//EN"
 "http://www.w3.org/Graphics/SVG/1.1/DTD/svg11.dtd">
<!-- Generated by graphviz version 8.0.5 (20230430.1635)
 -->
<!-- Title: pt Pages: 1 -->
<svg width="3514pt" height="727pt"
 viewBox="0.00 0.00 3513.77 727.00" xmlns="http://www.w3.org/2000/svg" xmlns:xlink="http://www.w3.org/1999/xlink">
<g id="graph0" class="graph" transform="scale(1 1) rotate(0) translate(4 723)">
<title>pt</title>
<polygon fill="white" stroke="none" points="-4,4 -4,-723 3509.77,-723 3509.77,4 -4,4"/>
<!-- 6627160080 -->
<g id="node1" class="node">
<title>6627160080</title>
<ellipse fill="none" stroke="black" cx="27" cy="-469" rx="27" ry="18"/>
<text text-anchor="middle" x="27" y="-463.38" font-family="Times,serif" font-size="15.00">seq</text>
</g>
<!-- 6632272144 -->
<g id="node2" class="node">
<title>6632272144</title>
<ellipse fill="none" stroke="black" cx="239.06" cy="-573" rx="149.06" ry="18"/>
<text text-anchor="middle" x="239.06" y="-567.38" font-family="Times,serif" font-size="15.00">register submission date request</text>
</g>
<!-- 6627160080&#45;&#45;6632272144 -->
<g id="edge1" class="edge">
<title>6627160080&#45;&#45;6632272144</title>
<path fill="none" stroke="black" d="M49.3,-479.54C85.18,-497.31 158.06,-533.39 202.02,-555.16"/>
</g>
<!-- 6630613264 -->
<g id="node3" class="node">
<title>6630613264</title>
<ellipse fill="none" stroke="black" cx="239.06" cy="-519" rx="27" ry="18"/>
<text text-anchor="middle" x="239.06" y="-513.38" font-family="Times,serif" font-size="15.00">and</text>
</g>
<!-- 6627160080&#45;&#45;6630613264 -->
<g id="edge53" class="edge">
<title>6627160080&#45;&#45;6630613264</title>
<path fill="none" stroke="black" d="M52.92,-474.93C93.35,-484.55 172.77,-503.46 213.17,-513.08"/>
</g>
<!-- 6630605328 -->
<g id="node55" class="node">
<title>6630605328</title>
<ellipse fill="none" stroke="black" cx="239.06" cy="-442" rx="27" ry="18"/>
<text text-anchor="middle" x="239.06" y="-436.38" font-family="Times,serif" font-size="15.00">xor</text>
</g>
<!-- 6627160080&#45;&#45;6630605328 -->
<g id="edge60" class="edge">
<title>6627160080&#45;&#45;6630605328</title>
<path fill="none" stroke="black" d="M53.76,-465.69C94.08,-460.51 171.65,-450.54 212.1,-445.34"/>
</g>
<!-- 6634767184 -->
<g id="node62" class="node">
<title>6634767184</title>
<ellipse fill="none" stroke="black" cx="239.06" cy="-288" rx="27" ry="18"/>
<text text-anchor="middle" x="239.06" y="-282.38" font-family="Times,serif" font-size="15.00">xor</text>
</g>
<!-- 6627160080&#45;&#45;6634767184 -->
<g id="edge71" class="edge">
<title>6627160080&#45;&#45;6634767184</title>
<path fill="none" stroke="black" d="M44.48,-454.8C83.75,-420.96 182.47,-335.91 221.66,-302.14"/>
</g>
<!-- 6630616848 -->
<g id="node4" class="node">
<title>6630616848</title>
<ellipse fill="none" stroke="black" cx="627.91" cy="-651" rx="124.86" ry="18"/>
<text text-anchor="middle" x="627.91" y="-645.38" font-family="Times,serif" font-size="15.00">phase application received</text>
</g>
<!-- 6630613264&#45;&#45;6630616848 -->
<g id="edge2" class="edge">
<title>6630613264&#45;&#45;6630616848</title>
<path fill="none" stroke="black" d="M263.68,-527.06C325.52,-548.16 493.23,-605.39 577.37,-634.1"/>
</g>
<!-- 6630618320 -->
<g id="node5" class="node">
<title>6630618320</title>
<ellipse fill="none" stroke="black" cx="627.91" cy="-597" rx="47" ry="18"/>
<text text-anchor="middle" x="627.91" y="-591.38" font-family="Times,serif" font-size="15.00">xor loop</text>
</g>
<!-- 6630613264&#45;&#45;6630618320 -->
<g id="edge5" class="edge">
<title>6630613264&#45;&#45;6630618320</title>
<path fill="none" stroke="black" d="M265.45,-524.12C330.83,-537.3 505.51,-572.52 585.67,-588.68"/>
</g>
<!-- 6630607696 -->
<g id="node8" class="node">
<title>6630607696</title>
<ellipse fill="none" stroke="black" cx="627.91" cy="-543" rx="108.55" ry="18"/>
<text text-anchor="middle" x="627.91" y="-537.38" font-family="Times,serif" font-size="15.00">OLO messaging active</text>
</g>
<!-- 6630613264&#45;&#45;6630607696 -->
<g id="edge6" class="edge">
<title>6630613264&#45;&#45;6630607696</title>
<path fill="none" stroke="black" d="M266.35,-520.63C318.73,-523.88 438.57,-531.32 525.75,-536.72"/>
</g>
<!-- 6630615696 -->
<g id="node9" class="node">
<title>6630615696</title>
<ellipse fill="none" stroke="black" cx="627.91" cy="-489" rx="27" ry="18"/>
<text text-anchor="middle" x="627.91" y="-483.38" font-family="Times,serif" font-size="15.00">seq</text>
</g>
<!-- 6630613264&#45;&#45;6630615696 -->
<g id="edge52" class="edge">
<title>6630613264&#45;&#45;6630615696</title>
<path fill="none" stroke="black" d="M266.35,-516.96C336.92,-511.49 529.97,-496.52 600.59,-491.04"/>
</g>
<!-- 6630616144 -->
<g id="node6" class="node">
<title>6630616144</title>
<ellipse fill="none" stroke="black" cx="1052" cy="-636" rx="121.18" ry="18"/>
<text text-anchor="middle" x="1052" y="-630.38" font-family="Times,serif" font-size="15.00">send confirmation receipt</text>
</g>
<!-- 6630618320&#45;&#45;6630616144 -->
<g id="edge3" class="edge">
<title>6630618320&#45;&#45;6630616144</title>
<path fill="none" stroke="black" d="M674.08,-601.17C738.95,-607.17 860.29,-618.38 947.8,-626.46"/>
</g>
<!-- 6630609488 -->
<g id="node7" class="node">
<title>6630609488</title>
<ellipse fill="black" stroke="black" cx="1052" cy="-597" rx="2.7" ry="2.7"/>
</g>
<!-- 6630618320&#45;&#45;6630609488 -->
<g id="edge4" class="edge">
<title>6630618320&#45;&#45;6630609488</title>
<path fill="none" stroke="black" d="M675.29,-597C779.37,-597 1024.38,-597 1049,-597"/>
</g>
<!-- 6630609744 -->
<g id="node10" class="node">
<title>6630609744</title>
<ellipse fill="none" stroke="black" cx="1052" cy="-558" rx="27" ry="18"/>
<text text-anchor="middle" x="1052" y="-552.38" font-family="Times,serif" font-size="15.00">xor</text>
</g>
<!-- 6630615696&#45;&#45;6630609744 -->
<g id="edge13" class="edge">
<title>6630615696&#45;&#45;6630609744</title>
<path fill="none" stroke="black" d="M654.68,-493.21C730.12,-505.55 949.95,-541.48 1025.3,-553.8"/>
</g>
<!-- 6630610960 -->
<g id="node17" class="node">
<title>6630610960</title>
<ellipse fill="none" stroke="black" cx="1052" cy="-489" rx="27" ry="18"/>
<text text-anchor="middle" x="1052" y="-483.38" font-family="Times,serif" font-size="15.00">xor</text>
</g>
<!-- 6630615696&#45;&#45;6630610960 -->
<g id="edge51" class="edge">
<title>6630615696&#45;&#45;6630610960</title>
<path fill="none" stroke="black" d="M655.31,-489C731.12,-489 948.82,-489 1024.61,-489"/>
</g>
<!-- 6630614416 -->
<g id="node11" class="node">
<title>6630614416</title>
<ellipse fill="black" stroke="black" cx="1407.18" cy="-643" rx="2.7" ry="2.7"/>
</g>
<!-- 6630609744&#45;&#45;6630614416 -->
<g id="edge7" class="edge">
<title>6630609744&#45;&#45;6630614416</title>
<path fill="none" stroke="black" d="M1077.84,-563.98C1153.83,-582.27 1379.56,-636.59 1404.02,-642.48"/>
</g>
<!-- 6630606480 -->
<g id="node12" class="node">
<title>6630606480</title>
<ellipse fill="none" stroke="black" cx="1407.18" cy="-604" rx="27" ry="18"/>
<text text-anchor="middle" x="1407.18" y="-598.38" font-family="Times,serif" font-size="15.00">seq</text>
</g>
<!-- 6630609744&#45;&#45;6630606480 -->
<g id="edge12" class="edge">
<title>6630609744&#45;&#45;6630606480</title>
<path fill="none" stroke="black" d="M1078.97,-561.38C1144.28,-569.89 1314.81,-592.1 1380.17,-600.61"/>
</g>
<!-- 6630613392 -->
<g id="node13" class="node">
<title>6630613392</title>
<ellipse fill="none" stroke="black" cx="1756.56" cy="-701" rx="112.76" ry="18"/>
<text text-anchor="middle" x="1756.56" y="-695.38" font-family="Times,serif" font-size="15.00">applicant is stakeholder</text>
</g>
<!-- 6630606480&#45;&#45;6630613392 -->
<g id="edge8" class="edge">
<title>6630606480&#45;&#45;6630613392</title>
<path fill="none" stroke="black" d="M1432.6,-610.82C1487.51,-626.15 1621.87,-663.67 1698.87,-685.17"/>
</g>
<!-- 6630611792 -->
<g id="node14" class="node">
<title>6630611792</title>
<ellipse fill="none" stroke="black" cx="1756.56" cy="-647" rx="27" ry="18"/>
<text text-anchor="middle" x="1756.56" y="-641.38" font-family="Times,serif" font-size="15.00">xor</text>
</g>
<!-- 6630606480&#45;&#45;6630611792 -->
<g id="edge11" class="edge">
<title>6630606480&#45;&#45;6630611792</title>
<path fill="none" stroke="black" d="M1434,-607.2C1498.31,-615.16 1665.07,-635.8 1729.57,-643.78"/>
</g>
<!-- 6630616720 -->
<g id="node15" class="node">
<title>6630616720</title>
<ellipse fill="black" stroke="black" cx="2131.73" cy="-666" rx="2.7" ry="2.7"/>
</g>
<!-- 6630611792&#45;&#45;6630616720 -->
<g id="edge9" class="edge">
<title>6630611792&#45;&#45;6630616720</title>
<path fill="none" stroke="black" d="M1783.8,-648.34C1864.43,-652.44 2104.58,-664.67 2128.76,-665.9"/>
</g>
<!-- 6630609680 -->
<g id="node16" class="node">
<title>6630609680</title>
<ellipse fill="none" stroke="black" cx="2131.73" cy="-627" rx="99.08" ry="18"/>
<text text-anchor="middle" x="2131.73" y="-621.38" font-family="Times,serif" font-size="15.00">terminate on request</text>
</g>
<!-- 6630611792&#45;&#45;6630609680 -->
<g id="edge10" class="edge">
<title>6630611792&#45;&#45;6630609680</title>
<path fill="none" stroke="black" d="M1783.8,-645.59C1835.4,-642.83 1952.31,-636.56 2036.16,-632.07"/>
</g>
<!-- 6630619664 -->
<g id="node18" class="node">
<title>6630619664</title>
<ellipse fill="none" stroke="black" cx="1407.18" cy="-491" rx="27" ry="18"/>
<text text-anchor="middle" x="1407.18" y="-485.38" font-family="Times,serif" font-size="15.00">seq</text>
</g>
<!-- 6630610960&#45;&#45;6630619664 -->
<g id="edge17" class="edge">
<title>6630610960&#45;&#45;6630619664</title>
<path fill="none" stroke="black" d="M1079.26,-489.15C1144.64,-489.52 1314.18,-490.48 1379.75,-490.85"/>
</g>
<!-- 6630608912 -->
<g id="node22" class="node">
<title>6630608912</title>
<ellipse fill="none" stroke="black" cx="1407.18" cy="-431" rx="27" ry="18"/>
<text text-anchor="middle" x="1407.18" y="-425.38" font-family="Times,serif" font-size="15.00">seq</text>
</g>
<!-- 6630610960&#45;&#45;6630608912 -->
<g id="edge50" class="edge">
<title>6630610960&#45;&#45;6630608912</title>
<path fill="none" stroke="black" d="M1078.69,-484.78C1143.93,-474.07 1315.45,-445.9 1380.59,-435.2"/>
</g>
<!-- 6630608016 -->
<g id="node19" class="node">
<title>6630608016</title>
<ellipse fill="none" stroke="black" cx="1756.56" cy="-593" rx="178.53" ry="18"/>
<text text-anchor="middle" x="1756.56" y="-587.38" font-family="Times,serif" font-size="15.00">enter date termination request received</text>
</g>
<!-- 6630619664&#45;&#45;6630608016 -->
<g id="edge14" class="edge">
<title>6630619664&#45;&#45;6630608016</title>
<path fill="none" stroke="black" d="M1432.33,-498.09C1486.49,-513.99 1618.96,-552.89 1696.46,-575.65"/>
</g>
<!-- 6630618704 -->
<g id="node20" class="node">
<title>6630618704</title>
<ellipse fill="none" stroke="black" cx="1756.56" cy="-539" rx="159.06" ry="18"/>
<text text-anchor="middle" x="1756.56" y="-533.38" font-family="Times,serif" font-size="15.00">enter senddate request termination</text>
</g>
<!-- 6630619664&#45;&#45;6630618704 -->
<g id="edge15" class="edge">
<title>6630619664&#45;&#45;6630618704</title>
<path fill="none" stroke="black" d="M1434,-494.57C1479.84,-500.9 1577.71,-514.43 1653.52,-524.9"/>
</g>
<!-- 6630618576 -->
<g id="node21" class="node">
<title>6630618576</title>
<ellipse fill="none" stroke="black" cx="1756.56" cy="-485" rx="124.86" ry="18"/>
<text text-anchor="middle" x="1756.56" y="-479.38" font-family="Times,serif" font-size="15.00">message terminate request</text>
</g>
<!-- 6630619664&#45;&#45;6630618576 -->
<g id="edge16" class="edge">
<title>6630619664&#45;&#45;6630618576</title>
<path fill="none" stroke="black" d="M1434.57,-490.54C1476.45,-489.82 1560.73,-488.37 1632.42,-487.13"/>
</g>
<!-- 6630614352 -->
<g id="node23" class="node">
<title>6630614352</title>
<ellipse fill="none" stroke="black" cx="1756.56" cy="-431" rx="27" ry="18"/>
<text text-anchor="middle" x="1756.56" y="-425.38" font-family="Times,serif" font-size="15.00">xor</text>
</g>
<!-- 6630608912&#45;&#45;6630614352 -->
<g id="edge20" class="edge">
<title>6630608912&#45;&#45;6630614352</title>
<path fill="none" stroke="black" d="M1434.57,-431C1499.17,-431 1664.65,-431 1729.21,-431"/>
</g>
<!-- 6630620368 -->
<g id="node26" class="node">
<title>6630620368</title>
<ellipse fill="none" stroke="black" cx="1756.56" cy="-377" rx="27" ry="18"/>
<text text-anchor="middle" x="1756.56" y="-371.38" font-family="Times,serif" font-size="15.00">and</text>
</g>
<!-- 6630608912&#45;&#45;6630620368 -->
<g id="edge33" class="edge">
<title>6630608912&#45;&#45;6630620368</title>
<path fill="none" stroke="black" d="M1434,-426.99C1498.47,-416.96 1665.89,-390.94 1730.04,-380.97"/>
</g>
<!-- 6630608720 -->
<g id="node39" class="node">
<title>6630608720</title>
<ellipse fill="none" stroke="black" cx="1756.56" cy="-304" rx="27" ry="18"/>
<text text-anchor="middle" x="1756.56" y="-298.38" font-family="Times,serif" font-size="15.00">xor</text>
</g>
<!-- 6630608912&#45;&#45;6630608720 -->
<g id="edge44" class="edge">
<title>6630608912&#45;&#45;6630608720</title>
<path fill="none" stroke="black" d="M1431.51,-422.47C1494.79,-399.33 1669.17,-335.59 1732.33,-312.49"/>
</g>
<!-- 6630608336 -->
<g id="node50" class="node">
<title>6630608336</title>
<ellipse fill="none" stroke="black" cx="1756.56" cy="-184" rx="27" ry="18"/>
<text text-anchor="middle" x="1756.56" y="-178.38" font-family="Times,serif" font-size="15.00">and</text>
</g>
<!-- 6630608912&#45;&#45;6630608336 -->
<g id="edge49" class="edge">
<title>6630608912&#45;&#45;6630608336</title>
<path fill="none" stroke="black" d="M1426.36,-418.07C1486.39,-375.39 1677.79,-239.3 1737.55,-196.8"/>
</g>
<!-- 6630608848 -->
<g id="node24" class="node">
<title>6630608848</title>
<ellipse fill="black" stroke="black" cx="2131.73" cy="-490" rx="2.7" ry="2.7"/>
</g>
<!-- 6630614352&#45;&#45;6630608848 -->
<g id="edge18" class="edge">
<title>6630614352&#45;&#45;6630608848</title>
<path fill="none" stroke="black" d="M1783.21,-435.06C1863.24,-447.71 2104.46,-485.85 2128.75,-489.69"/>
</g>
<!-- 6630605968 -->
<g id="node25" class="node">
<title>6630605968</title>
<ellipse fill="none" stroke="black" cx="2131.73" cy="-451" rx="135.39" ry="18"/>
<text text-anchor="middle" x="2131.73" y="-445.38" font-family="Times,serif" font-size="15.00">calculate provisional charges</text>
</g>
<!-- 6630614352&#45;&#45;6630605968 -->
<g id="edge19" class="edge">
<title>6630614352&#45;&#45;6630605968</title>
<path fill="none" stroke="black" d="M1783.8,-432.41C1829.34,-434.85 1925.77,-440.02 2005.43,-444.28"/>
</g>
<!-- 6630615888 -->
<g id="node27" class="node">
<title>6630615888</title>
<ellipse fill="none" stroke="black" cx="2131.73" cy="-397" rx="160.64" ry="18"/>
<text text-anchor="middle" x="2131.73" y="-391.38" font-family="Times,serif" font-size="15.00">forward to the competent authority</text>
</g>
<!-- 6630620368&#45;&#45;6630615888 -->
<g id="edge21" class="edge">
<title>6630620368&#45;&#45;6630615888</title>
<path fill="none" stroke="black" d="M1783.8,-378.41C1825.61,-380.65 1910.3,-385.19 1985.54,-389.22"/>
</g>
<!-- 6630618000 -->
<g id="node28" class="node">
<title>6630618000</title>
<ellipse fill="none" stroke="black" cx="2131.73" cy="-343" rx="27" ry="18"/>
<text text-anchor="middle" x="2131.73" y="-337.38" font-family="Times,serif" font-size="15.00">seq</text>
</g>
<!-- 6630620368&#45;&#45;6630618000 -->
<g id="edge32" class="edge">
<title>6630620368&#45;&#45;6630618000</title>
<path fill="none" stroke="black" d="M1783.8,-374.61C1852.32,-368.37 2036.03,-351.63 2104.52,-345.39"/>
</g>
<!-- 6630608528 -->
<g id="node29" class="node">
<title>6630608528</title>
<ellipse fill="none" stroke="black" cx="2475.85" cy="-439" rx="27" ry="18"/>
<text text-anchor="middle" x="2475.85" y="-433.38" font-family="Times,serif" font-size="15.00">xor</text>
</g>
<!-- 6630618000&#45;&#45;6630608528 -->
<g id="edge24" class="edge">
<title>6630618000&#45;&#45;6630608528</title>
<path fill="none" stroke="black" d="M2157.06,-349.83C2219.95,-367.48 2387.41,-414.46 2450.42,-432.14"/>
</g>
<!-- 6630606608 -->
<g id="node32" class="node">
<title>6630606608</title>
<ellipse fill="none" stroke="black" cx="2475.85" cy="-385" rx="147.49" ry="18"/>
<text text-anchor="middle" x="2475.85" y="-379.38" font-family="Times,serif" font-size="15.00">regular procedure without MER</text>
</g>
<!-- 6630618000&#45;&#45;6630606608 -->
<g id="edge25" class="edge">
<title>6630618000&#45;&#45;6630606608</title>
<path fill="none" stroke="black" d="M2158.72,-346.19C2203.24,-351.66 2296.41,-363.09 2370.13,-372.14"/>
</g>
<!-- 6630612624 -->
<g id="node33" class="node">
<title>6630612624</title>
<ellipse fill="none" stroke="black" cx="2475.85" cy="-331" rx="27" ry="18"/>
<text text-anchor="middle" x="2475.85" y="-325.38" font-family="Times,serif" font-size="15.00">xor</text>
</g>
<!-- 6630618000&#45;&#45;6630612624 -->
<g id="edge31" class="edge">
<title>6630618000&#45;&#45;6630612624</title>
<path fill="none" stroke="black" d="M2159.01,-342.08C2222.69,-339.84 2384.71,-334.16 2448.49,-331.92"/>
</g>
<!-- 6630619408 -->
<g id="node30" class="node">
<title>6630619408</title>
<ellipse fill="black" stroke="black" cx="2784.73" cy="-451" rx="2.7" ry="2.7"/>
</g>
<!-- 6630608528&#45;&#45;6630619408 -->
<g id="edge22" class="edge">
<title>6630608528&#45;&#45;6630619408</title>
<path fill="none" stroke="black" d="M2503.28,-440.03C2573.65,-442.79 2761.59,-450.13 2781.94,-450.93"/>
</g>
<!-- 6630612880 -->
<g id="node31" class="node">
<title>6630612880</title>
<ellipse fill="none" stroke="black" cx="2784.73" cy="-412" rx="125.39" ry="18"/>
<text text-anchor="middle" x="2784.73" y="-406.38" font-family="Times,serif" font-size="15.00">inform BAG administrator</text>
</g>
<!-- 6630608528&#45;&#45;6630612880 -->
<g id="edge23" class="edge">
<title>6630608528&#45;&#45;6630612880</title>
<path fill="none" stroke="black" d="M2503.02,-436.7C2541.21,-433.34 2614.44,-426.89 2676.53,-421.43"/>
</g>
<!-- 6630617168 -->
<g id="node34" class="node">
<title>6630617168</title>
<ellipse fill="black" stroke="black" cx="2784.73" cy="-358" rx="2.7" ry="2.7"/>
</g>
<!-- 6630612624&#45;&#45;6630617168 -->
<g id="edge26" class="edge">
<title>6630612624&#45;&#45;6630617168</title>
<path fill="none" stroke="black" d="M2503.02,-333.3C2573.17,-339.47 2761.54,-356.05 2781.93,-357.84"/>
</g>
<!-- 6630605520 -->
<g id="node35" class="node">
<title>6630605520</title>
<ellipse fill="none" stroke="black" cx="2784.73" cy="-319" rx="27" ry="18"/>
<text text-anchor="middle" x="2784.73" y="-313.38" font-family="Times,serif" font-size="15.00">seq</text>
</g>
<!-- 6630612624&#45;&#45;6630605520 -->
<g id="edge30" class="edge">
<title>6630612624&#45;&#45;6630605520</title>
<path fill="none" stroke="black" d="M2503.28,-329.97C2561.44,-327.69 2699.9,-322.28 2757.69,-320.02"/>
</g>
<!-- 6630610256 -->
<g id="node36" class="node">
<title>6630610256</title>
<ellipse fill="none" stroke="black" cx="3075.19" cy="-373" rx="72.25" ry="18"/>
<text text-anchor="middle" x="3075.19" y="-367.38" font-family="Times,serif" font-size="15.00">MER required</text>
</g>
<!-- 6630605520&#45;&#45;6630610256 -->
<g id="edge27" class="edge">
<title>6630605520&#45;&#45;6630610256</title>
<path fill="none" stroke="black" d="M2811.07,-323.74C2856.72,-332.29 2953.8,-350.46 3016.42,-362.19"/>
</g>
<!-- 6630613136 -->
<g id="node37" class="node">
<title>6630613136</title>
<ellipse fill="none" stroke="black" cx="3075.19" cy="-319" rx="129.07" ry="18"/>
<text text-anchor="middle" x="3075.19" y="-313.38" font-family="Times,serif" font-size="15.00">activities regular procedure</text>
</g>
<!-- 6630605520&#45;&#45;6630613136 -->
<g id="edge28" class="edge">
<title>6630605520&#45;&#45;6630613136</title>
<path fill="none" stroke="black" d="M2812.09,-319C2842.76,-319 2895.62,-319 2945.88,-319"/>
</g>
<!-- 6630614928 -->
<g id="node38" class="node">
<title>6630614928</title>
<ellipse fill="none" stroke="black" cx="3075.19" cy="-265" rx="91.19" ry="18"/>
<text text-anchor="middle" x="3075.19" y="-259.38" font-family="Times,serif" font-size="15.00">phased application</text>
</g>
<!-- 6630605520&#45;&#45;6630614928 -->
<g id="edge29" class="edge">
<title>6630605520&#45;&#45;6630614928</title>
<path fill="none" stroke="black" d="M2811.07,-314.26C2854.66,-306.1 2945.13,-289.16 3007.73,-277.44"/>
</g>
<!-- 6630606736 -->
<g id="node40" class="node">
<title>6630606736</title>
<ellipse fill="black" stroke="black" cx="2131.73" cy="-304" rx="2.7" ry="2.7"/>
</g>
<!-- 6630608720&#45;&#45;6630606736 -->
<g id="edge34" class="edge">
<title>6630608720&#45;&#45;6630606736</title>
<path fill="none" stroke="black" d="M1783.8,-304C1864.43,-304 2104.58,-304 2128.76,-304"/>
</g>
<!-- 6630608976 -->
<g id="node41" class="node">
<title>6630608976</title>
<ellipse fill="none" stroke="black" cx="2131.73" cy="-265" rx="27" ry="18"/>
<text text-anchor="middle" x="2131.73" y="-259.38" font-family="Times,serif" font-size="15.00">seq</text>
</g>
<!-- 6630608720&#45;&#45;6630608976 -->
<g id="edge43" class="edge">
<title>6630608720&#45;&#45;6630608976</title>
<path fill="none" stroke="black" d="M1783.51,-301.29C1851.93,-294.14 2036.72,-274.82 2104.96,-267.69"/>
</g>
<!-- 6630611216 -->
<g id="node42" class="node">
<title>6630611216</title>
<ellipse fill="none" stroke="black" cx="2475.85" cy="-277" rx="140.65" ry="18"/>
<text text-anchor="middle" x="2475.85" y="-271.38" font-family="Times,serif" font-size="15.00">create procedure confirmation</text>
</g>
<!-- 6630608976&#45;&#45;6630611216 -->
<g id="edge35" class="edge">
<title>6630608976&#45;&#45;6630611216</title>
<path fill="none" stroke="black" d="M2159.01,-265.92C2197.65,-267.28 2272.52,-269.9 2339.66,-272.26"/>
</g>
<!-- 6630614096 -->
<g id="node43" class="node">
<title>6630614096</title>
<ellipse fill="none" stroke="black" cx="2475.85" cy="-223" rx="27" ry="18"/>
<text text-anchor="middle" x="2475.85" y="-217.38" font-family="Times,serif" font-size="15.00">xor</text>
</g>
<!-- 6630608976&#45;&#45;6630614096 -->
<g id="edge42" class="edge">
<title>6630608976&#45;&#45;6630614096</title>
<path fill="none" stroke="black" d="M2158.72,-261.81C2222.35,-254 2385.32,-233.99 2448.9,-226.19"/>
</g>
<!-- 6634776656 -->
<g id="node44" class="node">
<title>6634776656</title>
<ellipse fill="black" stroke="black" cx="2784.73" cy="-233" rx="2.7" ry="2.7"/>
</g>
<!-- 6630614096&#45;&#45;6634776656 -->
<g id="edge36" class="edge">
<title>6630614096&#45;&#45;6634776656</title>
<path fill="none" stroke="black" d="M2503.28,-223.86C2573.65,-226.15 2761.59,-232.28 2781.94,-232.94"/>
</g>
<!-- 6634767568 -->
<g id="node45" class="node">
<title>6634767568</title>
<ellipse fill="none" stroke="black" cx="2784.73" cy="-194" rx="27" ry="18"/>
<text text-anchor="middle" x="2784.73" y="-188.38" font-family="Times,serif" font-size="15.00">seq</text>
</g>
<!-- 6630614096&#45;&#45;6634767568 -->
<g id="edge41" class="edge">
<title>6630614096&#45;&#45;6634767568</title>
<path fill="none" stroke="black" d="M2503.02,-220.53C2560.99,-215.05 2699.71,-201.94 2757.63,-196.47"/>
</g>
<!-- 6634782416 -->
<g id="node46" class="node">
<title>6634782416</title>
<ellipse fill="none" stroke="black" cx="3075.19" cy="-204" rx="42.79" ry="18"/>
<text text-anchor="middle" x="3075.19" y="-198.38" font-family="Times,serif" font-size="15.00">publish</text>
</g>
<!-- 6634767568&#45;&#45;6634782416 -->
<g id="edge37" class="edge">
<title>6634767568&#45;&#45;6634782416</title>
<path fill="none" stroke="black" d="M2812.09,-194.91C2862.23,-196.65 2971.7,-200.45 3032.1,-202.54"/>
</g>
<!-- 6634775888 -->
<g id="node47" class="node">
<title>6634775888</title>
<ellipse fill="none" stroke="black" cx="3075.19" cy="-150" rx="27" ry="18"/>
<text text-anchor="middle" x="3075.19" y="-144.38" font-family="Times,serif" font-size="15.00">xor</text>
</g>
<!-- 6634767568&#45;&#45;6634775888 -->
<g id="edge40" class="edge">
<title>6634767568&#45;&#45;6634775888</title>
<path fill="none" stroke="black" d="M2811.58,-190.06C2866.48,-181.68 2994.13,-162.21 3048.71,-153.89"/>
</g>
<!-- 6634768080 -->
<g id="node48" class="node">
<title>6634768080</title>
<ellipse fill="black" stroke="black" cx="3373.02" cy="-170" rx="2.7" ry="2.7"/>
</g>
<!-- 6634775888&#45;&#45;6634768080 -->
<g id="edge38" class="edge">
<title>6634775888&#45;&#45;6634768080</title>
<path fill="none" stroke="black" d="M3102.44,-151.77C3170.88,-156.4 3350.82,-168.57 3370.3,-169.88"/>
</g>
<!-- 6634776528 -->
<g id="node49" class="node">
<title>6634776528</title>
<ellipse fill="none" stroke="black" cx="3373.02" cy="-131" rx="132.76" ry="18"/>
<text text-anchor="middle" x="3373.02" y="-125.38" font-family="Times,serif" font-size="15.00">create publication document</text>
</g>
<!-- 6634775888&#45;&#45;6634776528 -->
<g id="edge39" class="edge">
<title>6634775888&#45;&#45;6634776528</title>
<path fill="none" stroke="black" d="M3102.44,-148.31C3136.1,-146.15 3196.71,-142.26 3251.95,-138.71"/>
</g>
<!-- 6634782224 -->
<g id="node51" class="node">
<title>6634782224</title>
<ellipse fill="none" stroke="black" cx="2131.73" cy="-184" rx="27" ry="18"/>
<text text-anchor="middle" x="2131.73" y="-178.38" font-family="Times,serif" font-size="15.00">xor</text>
</g>
<!-- 6630608336&#45;&#45;6634782224 -->
<g id="edge47" class="edge">
<title>6630608336&#45;&#45;6634782224</title>
<path fill="none" stroke="black" d="M1783.8,-184C1852.32,-184 2036.03,-184 2104.52,-184"/>
</g>
<!-- 6634780112 -->
<g id="node54" class="node">
<title>6634780112</title>
<ellipse fill="none" stroke="black" cx="2131.73" cy="-130" rx="105.92" ry="18"/>
<text text-anchor="middle" x="2131.73" y="-124.38" font-family="Times,serif" font-size="15.00">start WABOprocedure</text>
</g>
<!-- 6630608336&#45;&#45;6634780112 -->
<g id="edge48" class="edge">
<title>6630608336&#45;&#45;6634780112</title>
<path fill="none" stroke="black" d="M1783.21,-180.29C1837.3,-172.46 1965.04,-153.98 2049.65,-141.73"/>
</g>
<!-- 6634777360 -->
<g id="node52" class="node">
<title>6634777360</title>
<ellipse fill="black" stroke="black" cx="2475.85" cy="-184" rx="2.7" ry="2.7"/>
</g>
<!-- 6634782224&#45;&#45;6634777360 -->
<g id="edge45" class="edge">
<title>6634782224&#45;&#45;6634777360</title>
<path fill="none" stroke="black" d="M2159.01,-184C2234.74,-184 2449.53,-184 2472.8,-184"/>
</g>
<!-- 6634774928 -->
<g id="node53" class="node">
<title>6634774928</title>
<ellipse fill="none" stroke="black" cx="2475.85" cy="-145" rx="132.23" ry="18"/>
<text text-anchor="middle" x="2475.85" y="-139.38" font-family="Times,serif" font-size="15.00">registration date publication</text>
</g>
<!-- 6634782224&#45;&#45;6634774928 -->
<g id="edge46" class="edge">
<title>6634782224&#45;&#45;6634774928</title>
<path fill="none" stroke="black" d="M2158.72,-181.04C2203.79,-175.9 2298.7,-165.08 2372.83,-156.63"/>
</g>
<!-- 6634777680 -->
<g id="node56" class="node">
<title>6634777680</title>
<ellipse fill="black" stroke="black" cx="627.91" cy="-442" rx="2.7" ry="2.7"/>
</g>
<!-- 6630605328&#45;&#45;6634777680 -->
<g id="edge54" class="edge">
<title>6630605328&#45;&#45;6634777680</title>
<path fill="none" stroke="black" d="M266.35,-442C349,-442 599.61,-442 624.85,-442"/>
</g>
<!-- 6634781584 -->
<g id="node57" class="node">
<title>6634781584</title>
<ellipse fill="none" stroke="black" cx="627.91" cy="-396" rx="27" ry="18"/>
<text text-anchor="middle" x="627.91" y="-390.38" font-family="Times,serif" font-size="15.00">seq</text>
</g>
<!-- 6630605328&#45;&#45;6634781584 -->
<g id="edge59" class="edge">
<title>6630605328&#45;&#45;6634781584</title>
<path fill="none" stroke="black" d="M266.05,-438.91C336.52,-430.53 530.7,-407.44 601.04,-399.08"/>
</g>
<!-- 6634778960 -->
<g id="node58" class="node">
<title>6634778960</title>
<ellipse fill="none" stroke="black" cx="1052" cy="-396" rx="27" ry="18"/>
<text text-anchor="middle" x="1052" y="-390.38" font-family="Times,serif" font-size="15.00">xor</text>
</g>
<!-- 6634781584&#45;&#45;6634778960 -->
<g id="edge57" class="edge">
<title>6634781584&#45;&#45;6634778960</title>
<path fill="none" stroke="black" d="M655.31,-396C731.12,-396 948.82,-396 1024.61,-396"/>
</g>
<!-- 6634772112 -->
<g id="node61" class="node">
<title>6634772112</title>
<ellipse fill="none" stroke="black" cx="1052" cy="-342" rx="152.75" ry="18"/>
<text text-anchor="middle" x="1052" y="-336.38" font-family="Times,serif" font-size="15.00">enter senddate acknowledgement</text>
</g>
<!-- 6634781584&#45;&#45;6634772112 -->
<g id="edge58" class="edge">
<title>6634781584&#45;&#45;6634772112</title>
<path fill="none" stroke="black" d="M654.68,-392.7C711.33,-385.46 849.39,-367.79 946.56,-355.36"/>
</g>
<!-- 6634781392 -->
<g id="node59" class="node">
<title>6634781392</title>
<ellipse fill="black" stroke="black" cx="1407.18" cy="-392" rx="2.7" ry="2.7"/>
</g>
<!-- 6634778960&#45;&#45;6634781392 -->
<g id="edge55" class="edge">
<title>6634778960&#45;&#45;6634781392</title>
<path fill="none" stroke="black" d="M1079.26,-395.7C1156.63,-394.83 1379.86,-392.3 1404.04,-392.02"/>
</g>
<!-- 6634772048 -->
<g id="node60" class="node">
<title>6634772048</title>
<ellipse fill="none" stroke="black" cx="1407.18" cy="-353" rx="134.86" ry="18"/>
<text text-anchor="middle" x="1407.18" y="-347.38" font-family="Times,serif" font-size="15.00">read field phased application</text>
</g>
<!-- 6634778960&#45;&#45;6634772048 -->
<g id="edge56" class="edge">
<title>6634778960&#45;&#45;6634772048</title>
<path fill="none" stroke="black" d="M1078.97,-392.84C1126.12,-387.1 1228.12,-374.68 1305.78,-365.22"/>
</g>
<!-- 6634772560 -->
<g id="node63" class="node">
<title>6634772560</title>
<ellipse fill="black" stroke="black" cx="627.91" cy="-327" rx="2.7" ry="2.7"/>
</g>
<!-- 6634767184&#45;&#45;6634772560 -->
<g id="edge61" class="edge">
<title>6634767184&#45;&#45;6634772560</title>
<path fill="none" stroke="black" d="M266.05,-290.62C348.38,-298.92 599.55,-324.24 624.85,-326.79"/>
</g>
<!-- 6634767760 -->
<g id="node64" class="node">
<title>6634767760</title>
<ellipse fill="none" stroke="black" cx="627.91" cy="-288" rx="203.78" ry="18"/>
<text text-anchor="middle" x="627.91" y="-282.38" font-family="Times,serif" font-size="15.00">no permit needed or only notification needed</text>
</g>
<!-- 6634767184&#45;&#45;6634767760 -->
<g id="edge62" class="edge">
<title>6634767184&#45;&#45;6634767760</title>
<path fill="none" stroke="black" d="M266.35,-288C299.94,-288 361.26,-288 423.93,-288"/>
</g>
<!-- 6634768976 -->
<g id="node65" class="node">
<title>6634768976</title>
<ellipse fill="none" stroke="black" cx="627.91" cy="-234" rx="27" ry="18"/>
<text text-anchor="middle" x="627.91" y="-228.38" font-family="Times,serif" font-size="15.00">seq</text>
</g>
<!-- 6634767184&#45;&#45;6634768976 -->
<g id="edge66" class="edge">
<title>6634767184&#45;&#45;6634768976</title>
<path fill="none" stroke="black" d="M265.75,-284.42C335.95,-274.62 530.49,-247.46 600.98,-237.62"/>
</g>
<!-- 6634778384 -->
<g id="node69" class="node">
<title>6634778384</title>
<ellipse fill="none" stroke="black" cx="627.91" cy="-99" rx="27" ry="18"/>
<text text-anchor="middle" x="627.91" y="-93.38" font-family="Times,serif" font-size="15.00">seq</text>
</g>
<!-- 6634767184&#45;&#45;6634778384 -->
<g id="edge70" class="edge">
<title>6634767184&#45;&#45;6634778384</title>
<path fill="none" stroke="black" d="M261.41,-277.57C329.05,-244.53 538.08,-142.4 605.63,-109.4"/>
</g>
<!-- 6634774352 -->
<g id="node66" class="node">
<title>6634774352</title>
<ellipse fill="none" stroke="black" cx="1052" cy="-288" rx="139.07" ry="18"/>
<text text-anchor="middle" x="1052" y="-282.38" font-family="Times,serif" font-size="15.00">initiative competent authority</text>
</g>
<!-- 6634768976&#45;&#45;6634774352 -->
<g id="edge63" class="edge">
<title>6634768976&#45;&#45;6634774352</title>
<path fill="none" stroke="black" d="M654.68,-237.3C712.22,-244.66 853.77,-262.77 951.13,-275.22"/>
</g>
<!-- 6634776272 -->
<g id="node67" class="node">
<title>6634776272</title>
<ellipse fill="none" stroke="black" cx="1052" cy="-234" rx="153.27" ry="18"/>
<text text-anchor="middle" x="1052" y="-228.38" font-family="Times,serif" font-size="15.00">create message terminate request</text>
</g>
<!-- 6634768976&#45;&#45;6634776272 -->
<g id="edge64" class="edge">
<title>6634768976&#45;&#45;6634776272</title>
<path fill="none" stroke="black" d="M655.31,-234C703.37,-234 808.44,-234 898.25,-234"/>
</g>
<!-- 6634769040 -->
<g id="node68" class="node">
<title>6634769040</title>
<ellipse fill="none" stroke="black" cx="1052" cy="-180" rx="184.31" ry="18"/>
<text text-anchor="middle" x="1052" y="-174.38" font-family="Times,serif" font-size="15.00">phase procedure prematurely terminated</text>
</g>
<!-- 6634768976&#45;&#45;6634769040 -->
<g id="edge65" class="edge">
<title>6634768976&#45;&#45;6634769040</title>
<path fill="none" stroke="black" d="M654.68,-230.7C709.63,-223.67 841.17,-206.84 937.7,-194.5"/>
</g>
<!-- 6634770448 -->
<g id="node70" class="node">
<title>6634770448</title>
<ellipse fill="none" stroke="black" cx="1052" cy="-126" rx="115.39" ry="18"/>
<text text-anchor="middle" x="1052" y="-120.38" font-family="Times,serif" font-size="15.00">phase procedure aborted</text>
</g>
<!-- 6634778384&#45;&#45;6634770448 -->
<g id="edge67" class="edge">
<title>6634778384&#45;&#45;6634770448</title>
<path fill="none" stroke="black" d="M654.99,-100.67C711.43,-104.28 847.59,-112.99 944.46,-119.18"/>
</g>
<!-- 6634774096 -->
<g id="node71" class="node">
<title>6634774096</title>
<ellipse fill="none" stroke="black" cx="1052" cy="-72" rx="82.77" ry="18"/>
<text text-anchor="middle" x="1052" y="-66.38" font-family="Times,serif" font-size="15.00">register deadline</text>
</g>
<!-- 6634778384&#45;&#45;6634774096 -->
<g id="edge68" class="edge">
<title>6634778384&#45;&#45;6634774096</title>
<path fill="none" stroke="black" d="M654.99,-97.33C717.09,-93.36 875.71,-83.21 972.31,-77.03"/>
</g>
<!-- 6634770128 -->
<g id="node72" class="node">
<title>6634770128</title>
<ellipse fill="none" stroke="black" cx="1052" cy="-18" rx="54.36" ry="18"/>
<text text-anchor="middle" x="1052" y="-12.38" font-family="Times,serif" font-size="15.00">close case</text>
</g>
<!-- 6634778384&#45;&#45;6634770128 -->
<g id="edge69" class="edge">
<title>6634778384&#45;&#45;6634770128</title>
<path fill="none" stroke="black" d="M654.36,-94.12C723.43,-80.86 915.15,-44.07 1004.3,-26.96"/>
</g>
</g>
</svg>
