<?xml version="1.0" encoding="UTF-8" standalone="no"?>
<!DOCTYPE svg PUBLIC "-//W3C//DTD SVG 1.1//EN"
 "http://www.w3.org/Graphics/SVG/1.1/DTD/svg11.dtd">
<!-- Generated by graphviz version 8.0.5 (20230430.1635)
 -->
<!-- Title: pt Pages: 1 -->
<svg width="1787pt" height="662pt"
 viewBox="0.00 0.00 1787.43 662.00" xmlns="http://www.w3.org/2000/svg" xmlns:xlink="http://www.w3.org/1999/xlink">
<g id="graph0" class="graph" transform="scale(1 1) rotate(0) translate(4 658)">
<title>pt</title>
<polygon fill="white" stroke="none" points="-4,4 -4,-658 1783.43,-658 1783.43,4 -4,4"/>
<!-- 6631616528 -->
<g id="node1" class="node">
<title>6631616528</title>
<ellipse fill="none" stroke="black" cx="27" cy="-445" rx="27" ry="18"/>
<text text-anchor="middle" x="27" y="-439.38" font-family="Times,serif" font-size="15.00">seq</text>
</g>
<!-- 6632268624 -->
<g id="node2" class="node">
<title>6632268624</title>
<ellipse fill="none" stroke="black" cx="239.06" cy="-499" rx="149.06" ry="18"/>
<text text-anchor="middle" x="239.06" y="-493.38" font-family="Times,serif" font-size="15.00">register submission date request</text>
</g>
<!-- 6631616528&#45;&#45;6632268624 -->
<g id="edge1" class="edge">
<title>6631616528&#45;&#45;6632268624</title>
<path fill="none" stroke="black" d="M52.51,-451.3C82.05,-458.9 132.85,-471.95 173.83,-482.49"/>
</g>
<!-- 6632274064 -->
<g id="node3" class="node">
<title>6632274064</title>
<ellipse fill="none" stroke="black" cx="239.06" cy="-445" rx="27" ry="18"/>
<text text-anchor="middle" x="239.06" y="-439.38" font-family="Times,serif" font-size="15.00">xor</text>
</g>
<!-- 6631616528&#45;&#45;6632274064 -->
<g id="edge29" class="edge">
<title>6631616528&#45;&#45;6632274064</title>
<path fill="none" stroke="black" d="M54.18,-445C94.54,-445 171.52,-445 211.89,-445"/>
</g>
<!-- 6631467280 -->
<g id="node31" class="node">
<title>6631467280</title>
<ellipse fill="none" stroke="black" cx="239.06" cy="-387" rx="27" ry="18"/>
<text text-anchor="middle" x="239.06" y="-381.38" font-family="Times,serif" font-size="15.00">xor</text>
</g>
<!-- 6631616528&#45;&#45;6631467280 -->
<g id="edge35" class="edge">
<title>6631616528&#45;&#45;6631467280</title>
<path fill="none" stroke="black" d="M52.51,-438.23C92.99,-427.06 173.34,-404.87 213.71,-393.72"/>
</g>
<!-- 6631470864 -->
<g id="node4" class="node">
<title>6631470864</title>
<ellipse fill="black" stroke="black" cx="451.13" cy="-484" rx="2.7" ry="2.7"/>
</g>
<!-- 6632274064&#45;&#45;6631470864 -->
<g id="edge2" class="edge">
<title>6632274064&#45;&#45;6631470864</title>
<path fill="none" stroke="black" d="M265.4,-449.7C317.35,-459.35 432.37,-480.7 448.29,-483.66"/>
</g>
<!-- 6631472784 -->
<g id="node5" class="node">
<title>6631472784</title>
<ellipse fill="none" stroke="black" cx="451.13" cy="-445" rx="27" ry="18"/>
<text text-anchor="middle" x="451.13" y="-439.38" font-family="Times,serif" font-size="15.00">seq</text>
</g>
<!-- 6632274064&#45;&#45;6631472784 -->
<g id="edge28" class="edge">
<title>6632274064&#45;&#45;6631472784</title>
<path fill="none" stroke="black" d="M266.24,-445C306.61,-445 383.59,-445 423.95,-445"/>
</g>
<!-- 6631465104 -->
<g id="node6" class="node">
<title>6631465104</title>
<ellipse fill="none" stroke="black" cx="629.52" cy="-572" rx="27" ry="18"/>
<text text-anchor="middle" x="629.52" y="-566.38" font-family="Times,serif" font-size="15.00">xor</text>
</g>
<!-- 6631472784&#45;&#45;6631465104 -->
<g id="edge8" class="edge">
<title>6631472784&#45;&#45;6631465104</title>
<path fill="none" stroke="black" d="M470.34,-458.11C504.23,-482.51 576.59,-534.61 610.41,-558.96"/>
</g>
<!-- 6631464336 -->
<g id="node12" class="node">
<title>6631464336</title>
<ellipse fill="none" stroke="black" cx="629.52" cy="-445" rx="27" ry="18"/>
<text text-anchor="middle" x="629.52" y="-439.38" font-family="Times,serif" font-size="15.00">and</text>
</g>
<!-- 6631472784&#45;&#45;6631464336 -->
<g id="edge27" class="edge">
<title>6631472784&#45;&#45;6631464336</title>
<path fill="none" stroke="black" d="M478.54,-445C511.89,-445 568.92,-445 602.22,-445"/>
</g>
<!-- 6630337040 -->
<g id="node7" class="node">
<title>6630337040</title>
<ellipse fill="black" stroke="black" cx="905.78" cy="-611" rx="2.7" ry="2.7"/>
</g>
<!-- 6631465104&#45;&#45;6630337040 -->
<g id="edge3" class="edge">
<title>6631465104&#45;&#45;6630337040</title>
<path fill="none" stroke="black" d="M656.32,-575.67C720.33,-584.77 882.69,-607.86 902.74,-610.71"/>
</g>
<!-- 6631460176 -->
<g id="node8" class="node">
<title>6631460176</title>
<ellipse fill="none" stroke="black" cx="905.78" cy="-572" rx="27" ry="18"/>
<text text-anchor="middle" x="905.78" y="-566.38" font-family="Times,serif" font-size="15.00">seq</text>
</g>
<!-- 6631465104&#45;&#45;6631460176 -->
<g id="edge7" class="edge">
<title>6631465104&#45;&#45;6631460176</title>
<path fill="none" stroke="black" d="M656.82,-572C709.24,-572 826.21,-572 878.56,-572"/>
</g>
<!-- 6630328848 -->
<g id="node9" class="node">
<title>6630328848</title>
<ellipse fill="none" stroke="black" cx="1227.28" cy="-636" rx="72.25" ry="18"/>
<text text-anchor="middle" x="1227.28" y="-630.38" font-family="Times,serif" font-size="15.00">MER required</text>
</g>
<!-- 6631460176&#45;&#45;6630328848 -->
<g id="edge4" class="edge">
<title>6631460176&#45;&#45;6630328848</title>
<path fill="none" stroke="black" d="M932.12,-577.08C983.26,-587.32 1099.91,-610.69 1169.97,-624.72"/>
</g>
<!-- 6630334544 -->
<g id="node10" class="node">
<title>6630334544</title>
<ellipse fill="none" stroke="black" cx="1227.28" cy="-582" rx="129.07" ry="18"/>
<text text-anchor="middle" x="1227.28" y="-576.38" font-family="Times,serif" font-size="15.00">activities regular procedure</text>
</g>
<!-- 6631460176&#45;&#45;6630334544 -->
<g id="edge5" class="edge">
<title>6631460176&#45;&#45;6630334544</title>
<path fill="none" stroke="black" d="M933.2,-572.83C969.98,-573.98 1039.07,-576.14 1100.94,-578.08"/>
</g>
<!-- 6630340112 -->
<g id="node11" class="node">
<title>6630340112</title>
<ellipse fill="none" stroke="black" cx="1227.28" cy="-528" rx="91.19" ry="18"/>
<text text-anchor="middle" x="1227.28" y="-522.38" font-family="Times,serif" font-size="15.00">phased application</text>
</g>
<!-- 6631460176&#45;&#45;6630340112 -->
<g id="edge6" class="edge">
<title>6631460176&#45;&#45;6630340112</title>
<path fill="none" stroke="black" d="M932.65,-568.44C979.75,-561.95 1081.08,-548 1151.44,-538.31"/>
</g>
<!-- 6630342032 -->
<g id="node13" class="node">
<title>6630342032</title>
<ellipse fill="none" stroke="black" cx="905.78" cy="-499" rx="124.86" ry="18"/>
<text text-anchor="middle" x="905.78" y="-493.38" font-family="Times,serif" font-size="15.00">phase application received</text>
</g>
<!-- 6631464336&#45;&#45;6630342032 -->
<g id="edge9" class="edge">
<title>6631464336&#45;&#45;6630342032</title>
<path fill="none" stroke="black" d="M655.83,-449.98C695.08,-457.71 772.16,-472.89 830.2,-484.32"/>
</g>
<!-- 6630336400 -->
<g id="node14" class="node">
<title>6630336400</title>
<ellipse fill="none" stroke="black" cx="905.78" cy="-445" rx="47" ry="18"/>
<text text-anchor="middle" x="905.78" y="-439.38" font-family="Times,serif" font-size="15.00">xor loop</text>
</g>
<!-- 6631464336&#45;&#45;6630336400 -->
<g id="edge12" class="edge">
<title>6631464336&#45;&#45;6630336400</title>
<path fill="none" stroke="black" d="M656.82,-445C703.27,-445 800.42,-445 858.37,-445"/>
</g>
<!-- 6630341328 -->
<g id="node17" class="node">
<title>6630341328</title>
<ellipse fill="none" stroke="black" cx="905.78" cy="-391" rx="108.55" ry="18"/>
<text text-anchor="middle" x="905.78" y="-385.38" font-family="Times,serif" font-size="15.00">OLO messaging active</text>
</g>
<!-- 6631464336&#45;&#45;6630341328 -->
<g id="edge13" class="edge">
<title>6631464336&#45;&#45;6630341328</title>
<path fill="none" stroke="black" d="M655.83,-440.02C696.01,-432.11 775.82,-416.39 834.28,-404.88"/>
</g>
<!-- 6630341136 -->
<g id="node18" class="node">
<title>6630341136</title>
<ellipse fill="none" stroke="black" cx="905.78" cy="-234" rx="27" ry="18"/>
<text text-anchor="middle" x="905.78" y="-228.38" font-family="Times,serif" font-size="15.00">seq</text>
</g>
<!-- 6631464336&#45;&#45;6630341136 -->
<g id="edge26" class="edge">
<title>6631464336&#45;&#45;6630341136</title>
<path fill="none" stroke="black" d="M648.1,-431.48C697.63,-393.37 838,-285.38 887.35,-247.41"/>
</g>
<!-- 6630332240 -->
<g id="node15" class="node">
<title>6630332240</title>
<ellipse fill="none" stroke="black" cx="1227.28" cy="-474" rx="121.18" ry="18"/>
<text text-anchor="middle" x="1227.28" y="-468.38" font-family="Times,serif" font-size="15.00">send confirmation receipt</text>
</g>
<!-- 6630336400&#45;&#45;6630332240 -->
<g id="edge10" class="edge">
<title>6630336400&#45;&#45;6630332240</title>
<path fill="none" stroke="black" d="M951.88,-449.09C996.09,-453.11 1065.05,-459.37 1122.78,-464.61"/>
</g>
<!-- 6630327440 -->
<g id="node16" class="node">
<title>6630327440</title>
<ellipse fill="black" stroke="black" cx="1227.28" cy="-435" rx="2.7" ry="2.7"/>
</g>
<!-- 6630336400&#45;&#45;6630327440 -->
<g id="edge11" class="edge">
<title>6630336400&#45;&#45;6630327440</title>
<path fill="none" stroke="black" d="M952.9,-443.56C1035.85,-440.96 1203.55,-435.71 1224.18,-435.07"/>
</g>
<!-- 6630335952 -->
<g id="node19" class="node">
<title>6630335952</title>
<ellipse fill="none" stroke="black" cx="1227.28" cy="-396" rx="112.76" ry="18"/>
<text text-anchor="middle" x="1227.28" y="-390.38" font-family="Times,serif" font-size="15.00">applicant is stakeholder</text>
</g>
<!-- 6630341136&#45;&#45;6630335952 -->
<g id="edge14" class="edge">
<title>6630341136&#45;&#45;6630335952</title>
<path fill="none" stroke="black" d="M927.99,-244.75C982.07,-272.17 1125.49,-344.89 1191.78,-378.51"/>
</g>
<!-- 6630333392 -->
<g id="node20" class="node">
<title>6630333392</title>
<ellipse fill="none" stroke="black" cx="1227.28" cy="-342" rx="99.08" ry="18"/>
<text text-anchor="middle" x="1227.28" y="-336.38" font-family="Times,serif" font-size="15.00">terminate on request</text>
</g>
<!-- 6630341136&#45;&#45;6630333392 -->
<g id="edge15" class="edge">
<title>6630341136&#45;&#45;6630333392</title>
<path fill="none" stroke="black" d="M930.53,-242.03C982.96,-259.75 1109.4,-302.49 1178.77,-325.94"/>
</g>
<!-- 6630337424 -->
<g id="node21" class="node">
<title>6630337424</title>
<ellipse fill="none" stroke="black" cx="1227.28" cy="-288" rx="135.39" ry="18"/>
<text text-anchor="middle" x="1227.28" y="-282.38" font-family="Times,serif" font-size="15.00">calculate provisional charges</text>
</g>
<!-- 6630341136&#45;&#45;6630337424 -->
<g id="edge16" class="edge">
<title>6630341136&#45;&#45;6630337424</title>
<path fill="none" stroke="black" d="M932.39,-238.33C977.25,-245.91 1071.95,-261.92 1141.78,-273.72"/>
</g>
<!-- 6630335248 -->
<g id="node22" class="node">
<title>6630335248</title>
<ellipse fill="none" stroke="black" cx="1227.28" cy="-234" rx="160.64" ry="18"/>
<text text-anchor="middle" x="1227.28" y="-228.38" font-family="Times,serif" font-size="15.00">forward to the competent authority</text>
</g>
<!-- 6630341136&#45;&#45;6630335248 -->
<g id="edge17" class="edge">
<title>6630341136&#45;&#45;6630335248</title>
<path fill="none" stroke="black" d="M933.2,-234C963.25,-234 1014.87,-234 1066.5,-234"/>
</g>
<!-- 6630328784 -->
<g id="node23" class="node">
<title>6630328784</title>
<ellipse fill="none" stroke="black" cx="1227.28" cy="-180" rx="147.49" ry="18"/>
<text text-anchor="middle" x="1227.28" y="-174.38" font-family="Times,serif" font-size="15.00">regular procedure without MER</text>
</g>
<!-- 6630341136&#45;&#45;6630328784 -->
<g id="edge18" class="edge">
<title>6630341136&#45;&#45;6630328784</title>
<path fill="none" stroke="black" d="M932.39,-229.67C976.59,-222.2 1069.14,-206.56 1138.65,-194.81"/>
</g>
<!-- 6633930896 -->
<g id="node24" class="node">
<title>6633930896</title>
<ellipse fill="none" stroke="black" cx="1227.28" cy="-126" rx="140.65" ry="18"/>
<text text-anchor="middle" x="1227.28" y="-120.38" font-family="Times,serif" font-size="15.00">create procedure confirmation</text>
</g>
<!-- 6630341136&#45;&#45;6633930896 -->
<g id="edge19" class="edge">
<title>6630341136&#45;&#45;6633930896</title>
<path fill="none" stroke="black" d="M930.53,-225.97C982.16,-208.52 1105.58,-166.8 1175.57,-143.14"/>
</g>
<!-- 6633936016 -->
<g id="node25" class="node">
<title>6633936016</title>
<ellipse fill="none" stroke="black" cx="1227.28" cy="-72" rx="27" ry="18"/>
<text text-anchor="middle" x="1227.28" y="-66.38" font-family="Times,serif" font-size="15.00">xor</text>
</g>
<!-- 6630341136&#45;&#45;6633936016 -->
<g id="edge24" class="edge">
<title>6630341136&#45;&#45;6633936016</title>
<path fill="none" stroke="black" d="M927.99,-223.25C986.11,-193.78 1147.42,-111.98 1205.29,-82.65"/>
</g>
<!-- 6633940624 -->
<g id="node30" class="node">
<title>6633940624</title>
<ellipse fill="none" stroke="black" cx="1227.28" cy="-18" rx="105.92" ry="18"/>
<text text-anchor="middle" x="1227.28" y="-12.38" font-family="Times,serif" font-size="15.00">start WABOprocedure</text>
</g>
<!-- 6630341136&#45;&#45;6633940624 -->
<g id="edge25" class="edge">
<title>6630341136&#45;&#45;6633940624</title>
<path fill="none" stroke="black" d="M925.34,-221.45C979.41,-184.9 1136.96,-78.39 1199.88,-35.85"/>
</g>
<!-- 6633944208 -->
<g id="node26" class="node">
<title>6633944208</title>
<ellipse fill="black" stroke="black" cx="1450.92" cy="-91" rx="2.7" ry="2.7"/>
</g>
<!-- 6633936016&#45;&#45;6633944208 -->
<g id="edge20" class="edge">
<title>6633936016&#45;&#45;6633944208</title>
<path fill="none" stroke="black" d="M1254.14,-74.22C1308.5,-78.88 1431,-89.38 1447.96,-90.83"/>
</g>
<!-- 6633944336 -->
<g id="node27" class="node">
<title>6633944336</title>
<ellipse fill="none" stroke="black" cx="1450.92" cy="-52" rx="27" ry="18"/>
<text text-anchor="middle" x="1450.92" y="-46.38" font-family="Times,serif" font-size="15.00">seq</text>
</g>
<!-- 6633936016&#45;&#45;6633944336 -->
<g id="edge23" class="edge">
<title>6633936016&#45;&#45;6633944336</title>
<path fill="none" stroke="black" d="M1254.14,-69.67C1296.73,-65.82 1381.17,-58.2 1423.88,-54.35"/>
</g>
<!-- 6633946192 -->
<g id="node28" class="node">
<title>6633946192</title>
<ellipse fill="none" stroke="black" cx="1646.68" cy="-79" rx="42.79" ry="18"/>
<text text-anchor="middle" x="1646.68" y="-73.38" font-family="Times,serif" font-size="15.00">publish</text>
</g>
<!-- 6633944336&#45;&#45;6633946192 -->
<g id="edge21" class="edge">
<title>6633944336&#45;&#45;6633946192</title>
<path fill="none" stroke="black" d="M1477.65,-55.59C1510.38,-60.15 1567.27,-68.07 1605.69,-73.43"/>
</g>
<!-- 6633946000 -->
<g id="node29" class="node">
<title>6633946000</title>
<ellipse fill="none" stroke="black" cx="1646.68" cy="-25" rx="132.76" ry="18"/>
<text text-anchor="middle" x="1646.68" y="-19.38" font-family="Times,serif" font-size="15.00">create publication document</text>
</g>
<!-- 6633944336&#45;&#45;6633946000 -->
<g id="edge22" class="edge">
<title>6633944336&#45;&#45;6633946000</title>
<path fill="none" stroke="black" d="M1477.65,-48.41C1497,-45.72 1524.8,-41.84 1552.23,-38.02"/>
</g>
<!-- 6633941264 -->
<g id="node32" class="node">
<title>6633941264</title>
<ellipse fill="black" stroke="black" cx="451.13" cy="-387" rx="2.7" ry="2.7"/>
</g>
<!-- 6631467280&#45;&#45;6633941264 -->
<g id="edge30" class="edge">
<title>6631467280&#45;&#45;6633941264</title>
<path fill="none" stroke="black" d="M266.24,-387C318.6,-387 432.54,-387 448.31,-387"/>
</g>
<!-- 6633933200 -->
<g id="node33" class="node">
<title>6633933200</title>
<ellipse fill="none" stroke="black" cx="451.13" cy="-344" rx="27" ry="18"/>
<text text-anchor="middle" x="451.13" y="-338.38" font-family="Times,serif" font-size="15.00">seq</text>
</g>
<!-- 6631467280&#45;&#45;6633933200 -->
<g id="edge34" class="edge">
<title>6631467280&#45;&#45;6633933200</title>
<path fill="none" stroke="black" d="M265.4,-381.81C305.89,-373.53 384.69,-357.39 425.03,-349.14"/>
</g>
<!-- 6633941008 -->
<g id="node34" class="node">
<title>6633941008</title>
<ellipse fill="none" stroke="black" cx="629.52" cy="-391" rx="115.39" ry="18"/>
<text text-anchor="middle" x="629.52" y="-385.38" font-family="Times,serif" font-size="15.00">phase procedure aborted</text>
</g>
<!-- 6633933200&#45;&#45;6633941008 -->
<g id="edge31" class="edge">
<title>6633933200&#45;&#45;6633941008</title>
<path fill="none" stroke="black" d="M476.66,-350.54C500.51,-356.89 537.67,-366.79 569.26,-375.21"/>
</g>
<!-- 6633934160 -->
<g id="node35" class="node">
<title>6633934160</title>
<ellipse fill="none" stroke="black" cx="629.52" cy="-337" rx="82.77" ry="18"/>
<text text-anchor="middle" x="629.52" y="-331.38" font-family="Times,serif" font-size="15.00">register deadline</text>
</g>
<!-- 6633933200&#45;&#45;6633934160 -->
<g id="edge32" class="edge">
<title>6633933200&#45;&#45;6633934160</title>
<path fill="none" stroke="black" d="M478.54,-342.95C496.99,-342.22 522.69,-341.2 547.62,-340.21"/>
</g>
<!-- 6633943952 -->
<g id="node36" class="node">
<title>6633943952</title>
<ellipse fill="none" stroke="black" cx="629.52" cy="-283" rx="54.36" ry="18"/>
<text text-anchor="middle" x="629.52" y="-277.38" font-family="Times,serif" font-size="15.00">close case</text>
</g>
<!-- 6633933200&#45;&#45;6633943952 -->
<g id="edge33" class="edge">
<title>6633933200&#45;&#45;6633943952</title>
<path fill="none" stroke="black" d="M475.55,-335.9C504.98,-325.72 555.85,-308.13 590.79,-296.05"/>
</g>
</g>
</svg>
