<?xml version="1.0" encoding="UTF-8" standalone="no"?>
<!DOCTYPE svg PUBLIC "-//W3C//DTD SVG 1.1//EN"
 "http://www.w3.org/Graphics/SVG/1.1/DTD/svg11.dtd">
<!-- Generated by graphviz version 8.0.5 (20230430.1635)
 -->
<!-- Title: pt Pages: 1 -->
<svg width="3073pt" height="1737pt"
 viewBox="0.00 0.00 3073.27 1737.00" xmlns="http://www.w3.org/2000/svg" xmlns:xlink="http://www.w3.org/1999/xlink">
<g id="graph0" class="graph" transform="scale(1 1) rotate(0) translate(4 1733)">
<title>pt</title>
<polygon fill="white" stroke="none" points="-4,4 -4,-1733 3069.27,-1733 3069.27,4 -4,4"/>
<!-- 6636148688 -->
<g id="node1" class="node">
<title>6636148688</title>
<ellipse fill="none" stroke="black" cx="27" cy="-774" rx="27" ry="18"/>
<text text-anchor="middle" x="27" y="-768.38" font-family="Times,serif" font-size="15.00">seq</text>
</g>
<!-- 6636155536 -->
<g id="node2" class="node">
<title>6636155536</title>
<ellipse fill="none" stroke="black" cx="239.06" cy="-1017" rx="149.06" ry="18"/>
<text text-anchor="middle" x="239.06" y="-1011.38" font-family="Times,serif" font-size="15.00">register submission date request</text>
</g>
<!-- 6636148688&#45;&#45;6636155536 -->
<g id="edge1" class="edge">
<title>6636148688&#45;&#45;6636155536</title>
<path fill="none" stroke="black" d="M41.46,-789.57C78.59,-832.52 182.33,-952.52 222.19,-998.63"/>
</g>
<!-- 6636149648 -->
<g id="node3" class="node">
<title>6636149648</title>
<ellipse fill="none" stroke="black" cx="239.06" cy="-963" rx="27" ry="18"/>
<text text-anchor="middle" x="239.06" y="-957.38" font-family="Times,serif" font-size="15.00">and</text>
</g>
<!-- 6636148688&#45;&#45;6636149648 -->
<g id="edge50" class="edge">
<title>6636148688&#45;&#45;6636149648</title>
<path fill="none" stroke="black" d="M43.79,-788.21C82.72,-823.23 182.97,-913.43 222.09,-948.63"/>
</g>
<!-- 6636157840 -->
<g id="node52" class="node">
<title>6636157840</title>
<ellipse fill="none" stroke="black" cx="239.06" cy="-882" rx="27" ry="18"/>
<text text-anchor="middle" x="239.06" y="-876.38" font-family="Times,serif" font-size="15.00">xor</text>
</g>
<!-- 6636148688&#45;&#45;6636157840 -->
<g id="edge56" class="edge">
<title>6636148688&#45;&#45;6636157840</title>
<path fill="none" stroke="black" d="M48.91,-784.75C89.07,-805.4 176.59,-850.39 216.93,-871.13"/>
</g>
<!-- 6635696400 -->
<g id="node58" class="node">
<title>6635696400</title>
<ellipse fill="none" stroke="black" cx="239.06" cy="-828" rx="115.39" ry="18"/>
<text text-anchor="middle" x="239.06" y="-822.38" font-family="Times,serif" font-size="15.00">phase procedure aborted</text>
</g>
<!-- 6636148688&#45;&#45;6635696400 -->
<g id="edge57" class="edge">
<title>6636148688&#45;&#45;6635696400</title>
<path fill="none" stroke="black" d="M52.51,-780.3C82.92,-788.12 135.84,-801.72 177.41,-812.41"/>
</g>
<!-- 6635692240 -->
<g id="node59" class="node">
<title>6635692240</title>
<ellipse fill="none" stroke="black" cx="239.06" cy="-774" rx="82.77" ry="18"/>
<text text-anchor="middle" x="239.06" y="-768.38" font-family="Times,serif" font-size="15.00">register deadline</text>
</g>
<!-- 6636148688&#45;&#45;6635692240 -->
<g id="edge58" class="edge">
<title>6636148688&#45;&#45;6635692240</title>
<path fill="none" stroke="black" d="M54.18,-774C79.7,-774 119.84,-774 156.12,-774"/>
</g>
<!-- 6635685328 -->
<g id="node60" class="node">
<title>6635685328</title>
<ellipse fill="none" stroke="black" cx="239.06" cy="-720" rx="92.77" ry="18"/>
<text text-anchor="middle" x="239.06" y="-714.38" font-family="Times,serif" font-size="15.00">phase case handled</text>
</g>
<!-- 6636148688&#45;&#45;6635685328 -->
<g id="edge59" class="edge">
<title>6636148688&#45;&#45;6635685328</title>
<path fill="none" stroke="black" d="M52.51,-767.7C84,-759.6 139.64,-745.3 181.8,-734.46"/>
</g>
<!-- 6635689680 -->
<g id="node61" class="node">
<title>6635689680</title>
<ellipse fill="none" stroke="black" cx="239.06" cy="-666" rx="95.93" ry="18"/>
<text text-anchor="middle" x="239.06" y="-660.38" font-family="Times,serif" font-size="15.00">phase archived case</text>
</g>
<!-- 6636148688&#45;&#45;6635689680 -->
<g id="edge60" class="edge">
<title>6636148688&#45;&#45;6635689680</title>
<path fill="none" stroke="black" d="M48.91,-763.25C85.34,-744.52 160.72,-705.77 204.52,-683.25"/>
</g>
<!-- 6635690128 -->
<g id="node62" class="node">
<title>6635690128</title>
<ellipse fill="none" stroke="black" cx="239.06" cy="-612" rx="54.36" ry="18"/>
<text text-anchor="middle" x="239.06" y="-606.38" font-family="Times,serif" font-size="15.00">close case</text>
</g>
<!-- 6636148688&#45;&#45;6635690128 -->
<g id="edge61" class="edge">
<title>6636148688&#45;&#45;6635690128</title>
<path fill="none" stroke="black" d="M45.55,-760.47C83.81,-730.96 174.64,-660.91 216.39,-628.71"/>
</g>
<!-- 6635698512 -->
<g id="node63" class="node">
<title>6635698512</title>
<ellipse fill="none" stroke="black" cx="239.06" cy="-544" rx="27" ry="18"/>
<text text-anchor="middle" x="239.06" y="-538.38" font-family="Times,serif" font-size="15.00">xor</text>
</g>
<!-- 6636148688&#45;&#45;6635698512 -->
<g id="edge79" class="edge">
<title>6636148688&#45;&#45;6635698512</title>
<path fill="none" stroke="black" d="M42.11,-758.55C80.38,-716.65 185.82,-601.2 224.02,-559.38"/>
</g>
<!-- 6636146064 -->
<g id="node4" class="node">
<title>6636146064</title>
<ellipse fill="none" stroke="black" cx="690.52" cy="-1071" rx="152.75" ry="18"/>
<text text-anchor="middle" x="690.52" y="-1065.38" font-family="Times,serif" font-size="15.00">enter senddate acknowledgement</text>
</g>
<!-- 6636149648&#45;&#45;6636146064 -->
<g id="edge2" class="edge">
<title>6636149648&#45;&#45;6636146064</title>
<path fill="none" stroke="black" d="M264.87,-968.96C332.04,-985.1 519.25,-1030.09 621.21,-1054.59"/>
</g>
<!-- 6636143504 -->
<g id="node5" class="node">
<title>6636143504</title>
<ellipse fill="none" stroke="black" cx="690.52" cy="-1017" rx="124.86" ry="18"/>
<text text-anchor="middle" x="690.52" y="-1011.38" font-family="Times,serif" font-size="15.00">phase application received</text>
</g>
<!-- 6636149648&#45;&#45;6636143504 -->
<g id="edge3" class="edge">
<title>6636149648&#45;&#45;6636143504</title>
<path fill="none" stroke="black" d="M265.84,-966.1C327.96,-973.56 488.49,-992.85 593.15,-1005.42"/>
</g>
<!-- 6636157392 -->
<g id="node6" class="node">
<title>6636157392</title>
<ellipse fill="none" stroke="black" cx="690.52" cy="-963" rx="27" ry="18"/>
<text text-anchor="middle" x="690.52" y="-957.38" font-family="Times,serif" font-size="15.00">seq</text>
</g>
<!-- 6636149648&#45;&#45;6636157392 -->
<g id="edge49" class="edge">
<title>6636149648&#45;&#45;6636157392</title>
<path fill="none" stroke="black" d="M266.5,-963C346.19,-963 583.47,-963 663.11,-963"/>
</g>
<!-- 6636147536 -->
<g id="node7" class="node">
<title>6636147536</title>
<ellipse fill="none" stroke="black" cx="1222.46" cy="-1125" rx="110.66" ry="18"/>
<text text-anchor="middle" x="1222.46" y="-1119.38" font-family="Times,serif" font-size="15.00">reception through OLO</text>
</g>
<!-- 6636157392&#45;&#45;6636147536 -->
<g id="edge4" class="edge">
<title>6636157392&#45;&#45;6636147536</title>
<path fill="none" stroke="black" d="M715.66,-970.38C796.15,-994.99 1056.53,-1074.58 1168.96,-1108.95"/>
</g>
<!-- 6636143696 -->
<g id="node8" class="node">
<title>6636143696</title>
<ellipse fill="none" stroke="black" cx="1222.46" cy="-1071" rx="47" ry="18"/>
<text text-anchor="middle" x="1222.46" y="-1065.38" font-family="Times,serif" font-size="15.00">xor loop</text>
</g>
<!-- 6636157392&#45;&#45;6636143696 -->
<g id="edge40" class="edge">
<title>6636157392&#45;&#45;6636143696</title>
<path fill="none" stroke="black" d="M716.72,-968.14C801.36,-985.39 1075.99,-1041.35 1180.54,-1062.66"/>
</g>
<!-- 6636155664 -->
<g id="node44" class="node">
<title>6636155664</title>
<ellipse fill="none" stroke="black" cx="1222.46" cy="-1017" rx="140.65" ry="18"/>
<text text-anchor="middle" x="1222.46" y="-1011.38" font-family="Times,serif" font-size="15.00">decision date prior to decision</text>
</g>
<!-- 6636157392&#45;&#45;6636155664 -->
<g id="edge41" class="edge">
<title>6636157392&#45;&#45;6636155664</title>
<path fill="none" stroke="black" d="M717.44,-965.64C787.67,-972.8 984.83,-992.89 1110.73,-1005.72"/>
</g>
<!-- 6637268240 -->
<g id="node45" class="node">
<title>6637268240</title>
<ellipse fill="none" stroke="black" cx="1222.46" cy="-963" rx="180.1" ry="18"/>
<text text-anchor="middle" x="1222.46" y="-957.38" font-family="Times,serif" font-size="15.00">creating cover letter no permit required</text>
</g>
<!-- 6636157392&#45;&#45;6637268240 -->
<g id="edge42" class="edge">
<title>6636157392&#45;&#45;6637268240</title>
<path fill="none" stroke="black" d="M717.8,-963C776.43,-963 922.2,-963 1041.92,-963"/>
</g>
<!-- 6637265744 -->
<g id="node46" class="node">
<title>6637265744</title>
<ellipse fill="none" stroke="black" cx="1222.46" cy="-909" rx="47" ry="18"/>
<text text-anchor="middle" x="1222.46" y="-903.38" font-family="Times,serif" font-size="15.00">xor loop</text>
</g>
<!-- 6636157392&#45;&#45;6637265744 -->
<g id="edge45" class="edge">
<title>6636157392&#45;&#45;6637265744</title>
<path fill="none" stroke="black" d="M717.44,-960.36C801.91,-951.75 1069.96,-924.44 1176.84,-913.55"/>
</g>
<!-- 6635687056 -->
<g id="node49" class="node">
<title>6635687056</title>
<ellipse fill="none" stroke="black" cx="1222.46" cy="-855" rx="27" ry="18"/>
<text text-anchor="middle" x="1222.46" y="-849.38" font-family="Times,serif" font-size="15.00">and</text>
</g>
<!-- 6636157392&#45;&#45;6635687056 -->
<g id="edge48" class="edge">
<title>6636157392&#45;&#45;6635687056</title>
<path fill="none" stroke="black" d="M716.72,-957.86C805.99,-939.67 1106.59,-878.41 1196.1,-860.17"/>
</g>
<!-- 6636158544 -->
<g id="node9" class="node">
<title>6636158544</title>
<ellipse fill="none" stroke="black" cx="1718.63" cy="-1090" rx="27" ry="18"/>
<text text-anchor="middle" x="1718.63" y="-1084.38" font-family="Times,serif" font-size="15.00">seq</text>
</g>
<!-- 6636143696&#45;&#45;6636158544 -->
<g id="edge38" class="edge">
<title>6636143696&#45;&#45;6636158544</title>
<path fill="none" stroke="black" d="M1269.51,-1072.77C1370.98,-1076.67 1611.18,-1085.91 1691.19,-1088.98"/>
</g>
<!-- 6636148176 -->
<g id="node43" class="node">
<title>6636148176</title>
<ellipse fill="black" stroke="black" cx="1718.63" cy="-1051" rx="2.7" ry="2.7"/>
</g>
<!-- 6636143696&#45;&#45;6636148176 -->
<g id="edge39" class="edge">
<title>6636143696&#45;&#45;6636148176</title>
<path fill="none" stroke="black" d="M1269.51,-1069.14C1386.44,-1064.4 1687.57,-1052.22 1715.54,-1051.08"/>
</g>
<!-- 6636144208 -->
<g id="node10" class="node">
<title>6636144208</title>
<ellipse fill="none" stroke="black" cx="2185.34" cy="-1711" rx="112.76" ry="18"/>
<text text-anchor="middle" x="2185.34" y="-1705.38" font-family="Times,serif" font-size="15.00">applicant is stakeholder</text>
</g>
<!-- 6636158544&#45;&#45;6636144208 -->
<g id="edge5" class="edge">
<title>6636158544&#45;&#45;6636144208</title>
<path fill="none" stroke="black" d="M1731.59,-1105.97C1796.09,-1192.16 2102.19,-1601.22 2170.71,-1692.78"/>
</g>
<!-- 6636152720 -->
<g id="node11" class="node">
<title>6636152720</title>
<ellipse fill="none" stroke="black" cx="2185.34" cy="-1657" rx="178.53" ry="18"/>
<text text-anchor="middle" x="2185.34" y="-1651.38" font-family="Times,serif" font-size="15.00">enter date termination request received</text>
</g>
<!-- 6636158544&#45;&#45;6636152720 -->
<g id="edge6" class="edge">
<title>6636158544&#45;&#45;6636152720</title>
<path fill="none" stroke="black" d="M1732.55,-1105.76C1798.66,-1186.42 2098.85,-1552.69 2169.45,-1638.83"/>
</g>
<!-- 6636209872 -->
<g id="node12" class="node">
<title>6636209872</title>
<ellipse fill="none" stroke="black" cx="2185.34" cy="-1603" rx="176.42" ry="18"/>
<text text-anchor="middle" x="2185.34" y="-1597.38" font-family="Times,serif" font-size="15.00">enter senddate procedure confirmation</text>
</g>
<!-- 6636158544&#45;&#45;6636209872 -->
<g id="edge7" class="edge">
<title>6636158544&#45;&#45;6636209872</title>
<path fill="none" stroke="black" d="M1733.54,-1105.35C1801.12,-1179.96 2094.94,-1504.31 2167.9,-1584.85"/>
</g>
<!-- 6636212944 -->
<g id="node13" class="node">
<title>6636212944</title>
<ellipse fill="none" stroke="black" cx="2185.34" cy="-1549" rx="164.85" ry="18"/>
<text text-anchor="middle" x="2185.34" y="-1543.38" font-family="Times,serif" font-size="15.00">enter senddate confirmation request</text>
</g>
<!-- 6636158544&#45;&#45;6636212944 -->
<g id="edge8" class="edge">
<title>6636158544&#45;&#45;6636212944</title>
<path fill="none" stroke="black" d="M1734.57,-1104.75C1803.39,-1172.73 2089.83,-1455.65 2165.79,-1530.67"/>
</g>
<!-- 6636221328 -->
<g id="node14" class="node">
<title>6636221328</title>
<ellipse fill="none" stroke="black" cx="2185.34" cy="-1495" rx="134.33" ry="18"/>
<text text-anchor="middle" x="2185.34" y="-1489.38" font-family="Times,serif" font-size="15.00">send procedure confirmation</text>
</g>
<!-- 6636158544&#45;&#45;6636221328 -->
<g id="edge9" class="edge">
<title>6636158544&#45;&#45;6636221328</title>
<path fill="none" stroke="black" d="M1735.9,-1104.18C1806.34,-1165.57 2085.06,-1408.47 2163.63,-1476.95"/>
</g>
<!-- 6636217168 -->
<g id="node15" class="node">
<title>6636217168</title>
<ellipse fill="none" stroke="black" cx="2185.34" cy="-1441" rx="139.07" ry="18"/>
<text text-anchor="middle" x="2185.34" y="-1435.38" font-family="Times,serif" font-size="15.00">initiative competent authority</text>
</g>
<!-- 6636158544&#45;&#45;6636217168 -->
<g id="edge10" class="edge">
<title>6636158544&#45;&#45;6636217168</title>
<path fill="none" stroke="black" d="M1737.28,-1103.33C1808.9,-1157.43 2077.93,-1360.63 2160.25,-1422.81"/>
</g>
<!-- 6636209168 -->
<g id="node16" class="node">
<title>6636209168</title>
<ellipse fill="none" stroke="black" cx="2185.34" cy="-1387" rx="153.27" ry="18"/>
<text text-anchor="middle" x="2185.34" y="-1381.38" font-family="Times,serif" font-size="15.00">create message terminate request</text>
</g>
<!-- 6636158544&#45;&#45;6636209168 -->
<g id="edge11" class="edge">
<title>6636158544&#45;&#45;6636209168</title>
<path fill="none" stroke="black" d="M1739.01,-1102.38C1811.93,-1148.99 2070.06,-1313.96 2156.16,-1368.99"/>
</g>
<!-- 6636217232 -->
<g id="node17" class="node">
<title>6636217232</title>
<ellipse fill="none" stroke="black" cx="2185.34" cy="-1333" rx="200.1" ry="18"/>
<text text-anchor="middle" x="2185.34" y="-1327.38" font-family="Times,serif" font-size="15.00">registrer date of publishing received request</text>
</g>
<!-- 6636158544&#45;&#45;6636217232 -->
<g id="edge12" class="edge">
<title>6636158544&#45;&#45;6636217232</title>
<path fill="none" stroke="black" d="M1740.5,-1100.91C1813.62,-1139.15 2058.69,-1267.29 2149.82,-1314.95"/>
</g>
<!-- 6636209232 -->
<g id="node18" class="node">
<title>6636209232</title>
<ellipse fill="none" stroke="black" cx="2185.34" cy="-1279" rx="99.08" ry="18"/>
<text text-anchor="middle" x="2185.34" y="-1273.38" font-family="Times,serif" font-size="15.00">terminate on request</text>
</g>
<!-- 6636158544&#45;&#45;6636209232 -->
<g id="edge13" class="edge">
<title>6636158544&#45;&#45;6636209232</title>
<path fill="none" stroke="black" d="M1742.36,-1099.24C1815.98,-1129.19 2048.61,-1223.8 2143.47,-1262.38"/>
</g>
<!-- 6636219792 -->
<g id="node19" class="node">
<title>6636219792</title>
<ellipse fill="none" stroke="black" cx="2185.34" cy="-1225" rx="135.39" ry="18"/>
<text text-anchor="middle" x="2185.34" y="-1219.38" font-family="Times,serif" font-size="15.00">calculate provisional charges</text>
</g>
<!-- 6636158544&#45;&#45;6636219792 -->
<g id="edge14" class="edge">
<title>6636158544&#45;&#45;6636219792</title>
<path fill="none" stroke="black" d="M1743.96,-1097.07C1815.21,-1117.77 2024.78,-1178.65 2126.98,-1208.34"/>
</g>
<!-- 6636212560 -->
<g id="node20" class="node">
<title>6636212560</title>
<ellipse fill="none" stroke="black" cx="2185.34" cy="-1171" rx="160.64" ry="18"/>
<text text-anchor="middle" x="2185.34" y="-1165.38" font-family="Times,serif" font-size="15.00">forward to the competent authority</text>
</g>
<!-- 6636158544&#45;&#45;6636212560 -->
<g id="edge15" class="edge">
<title>6636158544&#45;&#45;6636212560</title>
<path fill="none" stroke="black" d="M1745.28,-1094.47C1811.02,-1105.93 1987.97,-1136.77 2096.1,-1155.62"/>
</g>
<!-- 6636211280 -->
<g id="node21" class="node">
<title>6636211280</title>
<ellipse fill="none" stroke="black" cx="2185.34" cy="-1117" rx="147.49" ry="18"/>
<text text-anchor="middle" x="2185.34" y="-1111.38" font-family="Times,serif" font-size="15.00">regular procedure without MER</text>
</g>
<!-- 6636158544&#45;&#45;6636211280 -->
<g id="edge16" class="edge">
<title>6636158544&#45;&#45;6636211280</title>
<path fill="none" stroke="black" d="M1745.95,-1091.53C1803.6,-1094.88 1944.39,-1103.06 2050.99,-1109.25"/>
</g>
<!-- 6636213200 -->
<g id="node22" class="node">
<title>6636213200</title>
<ellipse fill="none" stroke="black" cx="2185.34" cy="-1063" rx="27" ry="18"/>
<text text-anchor="middle" x="2185.34" y="-1057.38" font-family="Times,serif" font-size="15.00">xor</text>
</g>
<!-- 6636158544&#45;&#45;6636213200 -->
<g id="edge22" class="edge">
<title>6636158544&#45;&#45;6636213200</title>
<path fill="none" stroke="black" d="M1745.95,-1088.47C1827.65,-1083.72 2076.33,-1069.28 2158.03,-1064.53"/>
</g>
<!-- 6636223056 -->
<g id="node28" class="node">
<title>6636223056</title>
<ellipse fill="none" stroke="black" cx="2185.34" cy="-1009" rx="140.65" ry="18"/>
<text text-anchor="middle" x="2185.34" y="-1003.38" font-family="Times,serif" font-size="15.00">create procedure confirmation</text>
</g>
<!-- 6636158544&#45;&#45;6636223056 -->
<g id="edge23" class="edge">
<title>6636158544&#45;&#45;6636223056</title>
<path fill="none" stroke="black" d="M1745.28,-1085.53C1811.88,-1073.92 1992.6,-1042.42 2100.29,-1023.65"/>
</g>
<!-- 6636223312 -->
<g id="node29" class="node">
<title>6636223312</title>
<ellipse fill="none" stroke="black" cx="2185.34" cy="-955" rx="42.79" ry="18"/>
<text text-anchor="middle" x="2185.34" y="-949.38" font-family="Times,serif" font-size="15.00">publish</text>
</g>
<!-- 6636158544&#45;&#45;6636223312 -->
<g id="edge24" class="edge">
<title>6636158544&#45;&#45;6636223312</title>
<path fill="none" stroke="black" d="M1743.96,-1082.93C1820.91,-1060.58 2059.17,-991.36 2149.31,-965.18"/>
</g>
<!-- 6635963856 -->
<g id="node30" class="node">
<title>6635963856</title>
<ellipse fill="none" stroke="black" cx="2185.34" cy="-901" rx="137.49" ry="18"/>
<text text-anchor="middle" x="2185.34" y="-895.38" font-family="Times,serif" font-size="15.00">create subcases completeness</text>
</g>
<!-- 6636158544&#45;&#45;6635963856 -->
<g id="edge25" class="edge">
<title>6636158544&#45;&#45;6635963856</title>
<path fill="none" stroke="black" d="M1742.36,-1080.76C1815.43,-1051.04 2045.16,-957.61 2141.33,-918.49"/>
</g>
<!-- 6635964048 -->
<g id="node31" class="node">
<title>6635964048</title>
<ellipse fill="none" stroke="black" cx="2185.34" cy="-847" rx="86.46" ry="18"/>
<text text-anchor="middle" x="2185.34" y="-841.38" font-family="Times,serif" font-size="15.00">procedure change</text>
</g>
<!-- 6636158544&#45;&#45;6635964048 -->
<g id="edge26" class="edge">
<title>6636158544&#45;&#45;6635964048</title>
<path fill="none" stroke="black" d="M1740.5,-1079.09C1814.15,-1040.58 2062.25,-910.84 2151.78,-864.03"/>
</g>
<!-- 6635976528 -->
<g id="node32" class="node">
<title>6635976528</title>
<ellipse fill="none" stroke="black" cx="2185.34" cy="-793" rx="132.76" ry="18"/>
<text text-anchor="middle" x="2185.34" y="-787.38" font-family="Times,serif" font-size="15.00">create publication document</text>
</g>
<!-- 6636158544&#45;&#45;6635976528 -->
<g id="edge27" class="edge">
<title>6636158544&#45;&#45;6635976528</title>
<path fill="none" stroke="black" d="M1739.01,-1077.62C1811.93,-1031.01 2070.06,-866.04 2156.16,-811.01"/>
</g>
<!-- 6636787600 -->
<g id="node33" class="node">
<title>6636787600</title>
<ellipse fill="none" stroke="black" cx="2185.34" cy="-739" rx="27" ry="18"/>
<text text-anchor="middle" x="2185.34" y="-733.38" font-family="Times,serif" font-size="15.00">xor</text>
</g>
<!-- 6636158544&#45;&#45;6636787600 -->
<g id="edge30" class="edge">
<title>6636158544&#45;&#45;6636787600</title>
<path fill="none" stroke="black" d="M1737.28,-1076.67C1810.89,-1021.07 2093.03,-807.97 2166.67,-752.34"/>
</g>
<!-- 6636792848 -->
<g id="node36" class="node">
<title>6636792848</title>
<ellipse fill="none" stroke="black" cx="2185.34" cy="-685" rx="105.92" ry="18"/>
<text text-anchor="middle" x="2185.34" y="-679.38" font-family="Times,serif" font-size="15.00">start WABOprocedure</text>
</g>
<!-- 6636158544&#45;&#45;6636792848 -->
<g id="edge31" class="edge">
<title>6636158544&#45;&#45;6636792848</title>
<path fill="none" stroke="black" d="M1735.9,-1075.82C1806.34,-1014.43 2085.06,-771.53 2163.63,-703.05"/>
</g>
<!-- 6636789776 -->
<g id="node37" class="node">
<title>6636789776</title>
<ellipse fill="none" stroke="black" cx="2185.34" cy="-631" rx="115.39" ry="18"/>
<text text-anchor="middle" x="2185.34" y="-625.38" font-family="Times,serif" font-size="15.00">investigate BAG objects</text>
</g>
<!-- 6636158544&#45;&#45;6636789776 -->
<g id="edge32" class="edge">
<title>6636158544&#45;&#45;6636789776</title>
<path fill="none" stroke="black" d="M1734.57,-1075.25C1803.47,-1007.19 2090.48,-723.71 2166.04,-649.07"/>
</g>
<!-- 6636795152 -->
<g id="node38" class="node">
<title>6636795152</title>
<ellipse fill="none" stroke="black" cx="2185.34" cy="-577" rx="132.23" ry="18"/>
<text text-anchor="middle" x="2185.34" y="-571.38" font-family="Times,serif" font-size="15.00">registration date publication</text>
</g>
<!-- 6636158544&#45;&#45;6636795152 -->
<g id="edge33" class="edge">
<title>6636158544&#45;&#45;6636795152</title>
<path fill="none" stroke="black" d="M1733.54,-1074.65C1801.12,-1000.04 2094.94,-675.69 2167.9,-595.15"/>
</g>
<!-- 6636788816 -->
<g id="node39" class="node">
<title>6636788816</title>
<ellipse fill="none" stroke="black" cx="2185.34" cy="-523" rx="47" ry="18"/>
<text text-anchor="middle" x="2185.34" y="-517.38" font-family="Times,serif" font-size="15.00">xor loop</text>
</g>
<!-- 6636158544&#45;&#45;6636788816 -->
<g id="edge36" class="edge">
<title>6636158544&#45;&#45;6636788816</title>
<path fill="none" stroke="black" d="M1732.55,-1074.24C1798.88,-993.31 2100.85,-624.87 2170.14,-540.32"/>
</g>
<!-- 6636783696 -->
<g id="node42" class="node">
<title>6636783696</title>
<ellipse fill="none" stroke="black" cx="2185.34" cy="-469" rx="193.26" ry="18"/>
<text text-anchor="middle" x="2185.34" y="-463.38" font-family="Times,serif" font-size="15.00">register date decision terminate on request</text>
</g>
<!-- 6636158544&#45;&#45;6636783696 -->
<g id="edge37" class="edge">
<title>6636158544&#45;&#45;6636783696</title>
<path fill="none" stroke="black" d="M1731.59,-1074.03C1796.09,-987.84 2102.19,-578.78 2170.71,-487.22"/>
</g>
<!-- 6636222352 -->
<g id="node23" class="node">
<title>6636222352</title>
<ellipse fill="none" stroke="black" cx="2596.28" cy="-1090" rx="174.84" ry="18"/>
<text text-anchor="middle" x="2596.28" y="-1084.38" font-family="Times,serif" font-size="15.00">create letter only notification required</text>
</g>
<!-- 6636213200&#45;&#45;6636222352 -->
<g id="edge17" class="edge">
<title>6636213200&#45;&#45;6636222352</title>
<path fill="none" stroke="black" d="M2212.54,-1064.73C2259.44,-1067.83 2360.91,-1074.53 2447.6,-1080.25"/>
</g>
<!-- 6636212816 -->
<g id="node24" class="node">
<title>6636212816</title>
<ellipse fill="none" stroke="black" cx="2596.28" cy="-1036" rx="27" ry="18"/>
<text text-anchor="middle" x="2596.28" y="-1030.38" font-family="Times,serif" font-size="15.00">seq</text>
</g>
<!-- 6636213200&#45;&#45;6636212816 -->
<g id="edge21" class="edge">
<title>6636213200&#45;&#45;6636212816</title>
<path fill="none" stroke="black" d="M2212.54,-1061.27C2286.32,-1056.4 2495.2,-1042.61 2569.03,-1037.73"/>
</g>
<!-- 6636216976 -->
<g id="node25" class="node">
<title>6636216976</title>
<ellipse fill="none" stroke="black" cx="2936.2" cy="-1090" rx="72.25" ry="18"/>
<text text-anchor="middle" x="2936.2" y="-1084.38" font-family="Times,serif" font-size="15.00">MER required</text>
</g>
<!-- 6636212816&#45;&#45;6636216976 -->
<g id="edge18" class="edge">
<title>6636212816&#45;&#45;6636216976</title>
<path fill="none" stroke="black" d="M2622.96,-1040.1C2676.17,-1048.61 2799.75,-1068.35 2874.5,-1080.3"/>
</g>
<!-- 6636212112 -->
<g id="node26" class="node">
<title>6636212112</title>
<ellipse fill="none" stroke="black" cx="2936.2" cy="-1036" rx="129.07" ry="18"/>
<text text-anchor="middle" x="2936.2" y="-1030.38" font-family="Times,serif" font-size="15.00">activities regular procedure</text>
</g>
<!-- 6636212816&#45;&#45;6636212112 -->
<g id="edge19" class="edge">
<title>6636212816&#45;&#45;6636212112</title>
<path fill="none" stroke="black" d="M2623.52,-1036C2662.75,-1036 2739.31,-1036 2806.74,-1036"/>
</g>
<!-- 6635975632 -->
<g id="node27" class="node">
<title>6635975632</title>
<ellipse fill="none" stroke="black" cx="2936.2" cy="-982" rx="91.19" ry="18"/>
<text text-anchor="middle" x="2936.2" y="-976.38" font-family="Times,serif" font-size="15.00">phased application</text>
</g>
<!-- 6636212816&#45;&#45;6635975632 -->
<g id="edge20" class="edge">
<title>6636212816&#45;&#45;6635975632</title>
<path fill="none" stroke="black" d="M2622.96,-1031.9C2673.78,-1023.77 2788.8,-1005.39 2864.15,-993.35"/>
</g>
<!-- 6636795664 -->
<g id="node34" class="node">
<title>6636795664</title>
<ellipse fill="none" stroke="black" cx="2596.28" cy="-766" rx="134.86" ry="18"/>
<text text-anchor="middle" x="2596.28" y="-760.38" font-family="Times,serif" font-size="15.00">read field phased application</text>
</g>
<!-- 6636787600&#45;&#45;6636795664 -->
<g id="edge28" class="edge">
<title>6636787600&#45;&#45;6636795664</title>
<path fill="none" stroke="black" d="M2212.54,-740.73C2264.37,-744.15 2382.88,-751.98 2474.4,-758.02"/>
</g>
<!-- 6636791504 -->
<g id="node35" class="node">
<title>6636791504</title>
<ellipse fill="none" stroke="black" cx="2596.28" cy="-712" rx="108.55" ry="18"/>
<text text-anchor="middle" x="2596.28" y="-706.38" font-family="Times,serif" font-size="15.00">OLO messaging active</text>
</g>
<!-- 6636787600&#45;&#45;6636791504 -->
<g id="edge29" class="edge">
<title>6636787600&#45;&#45;6636791504</title>
<path fill="none" stroke="black" d="M2212.54,-737.27C2268.34,-733.59 2401.41,-724.8 2494.89,-718.63"/>
</g>
<!-- 6636365456 -->
<g id="node40" class="node">
<title>6636365456</title>
<ellipse fill="none" stroke="black" cx="2596.28" cy="-542" rx="121.18" ry="18"/>
<text text-anchor="middle" x="2596.28" y="-536.38" font-family="Times,serif" font-size="15.00">send confirmation receipt</text>
</g>
<!-- 6636788816&#45;&#45;6636365456 -->
<g id="edge34" class="edge">
<title>6636788816&#45;&#45;6636365456</title>
<path fill="none" stroke="black" d="M2232.46,-525.14C2292.09,-527.91 2398.04,-532.84 2480.1,-536.65"/>
</g>
<!-- 6636875472 -->
<g id="node41" class="node">
<title>6636875472</title>
<ellipse fill="black" stroke="black" cx="2596.28" cy="-503" rx="2.7" ry="2.7"/>
</g>
<!-- 6636788816&#45;&#45;6636875472 -->
<g id="edge35" class="edge">
<title>6636788816&#45;&#45;6636875472</title>
<path fill="none" stroke="black" d="M2232.46,-520.74C2333.97,-515.78 2569.68,-504.25 2593.36,-503.09"/>
</g>
<!-- 6635696976 -->
<g id="node47" class="node">
<title>6635696976</title>
<ellipse fill="none" stroke="black" cx="1718.63" cy="-941" rx="203.78" ry="18"/>
<text text-anchor="middle" x="1718.63" y="-935.38" font-family="Times,serif" font-size="15.00">no permit needed or only notification needed</text>
</g>
<!-- 6637265744&#45;&#45;6635696976 -->
<g id="edge43" class="edge">
<title>6637265744&#45;&#45;6635696976</title>
<path fill="none" stroke="black" d="M1269.07,-911.95C1332.98,-916.09 1452.55,-923.83 1552.18,-930.29"/>
</g>
<!-- 6635698576 -->
<g id="node48" class="node">
<title>6635698576</title>
<ellipse fill="black" stroke="black" cx="1718.63" cy="-902" rx="2.7" ry="2.7"/>
</g>
<!-- 6637265744&#45;&#45;6635698576 -->
<g id="edge44" class="edge">
<title>6637265744&#45;&#45;6635698576</title>
<path fill="none" stroke="black" d="M1269.51,-908.35C1386.44,-906.69 1687.57,-902.43 1715.54,-902.03"/>
</g>
<!-- 6635688528 -->
<g id="node50" class="node">
<title>6635688528</title>
<ellipse fill="none" stroke="black" cx="1718.63" cy="-859" rx="148.01" ry="18"/>
<text text-anchor="middle" x="1718.63" y="-853.38" font-family="Times,serif" font-size="15.00">phase only notification required</text>
</g>
<!-- 6635687056&#45;&#45;6635688528 -->
<g id="edge46" class="edge">
<title>6635687056&#45;&#45;6635688528</title>
<path fill="none" stroke="black" d="M1249.68,-855.21C1308.89,-855.69 1456.67,-856.89 1570.45,-857.81"/>
</g>
<!-- 6635694160 -->
<g id="node51" class="node">
<title>6635694160</title>
<ellipse fill="none" stroke="black" cx="1718.63" cy="-805" rx="230.61" ry="18"/>
<text text-anchor="middle" x="1718.63" y="-799.38" font-family="Times,serif" font-size="15.00">create letter no permit or only notification required</text>
</g>
<!-- 6635687056&#45;&#45;6635694160 -->
<g id="edge47" class="edge">
<title>6635687056&#45;&#45;6635694160</title>
<path fill="none" stroke="black" d="M1249.34,-852.38C1309.06,-846.34 1460.2,-831.05 1574.76,-819.46"/>
</g>
<!-- 6635690064 -->
<g id="node53" class="node">
<title>6635690064</title>
<ellipse fill="none" stroke="black" cx="690.52" cy="-909" rx="266.39" ry="18"/>
<text text-anchor="middle" x="690.52" y="-903.38" font-family="Times,serif" font-size="15.00">enter senddate letter no permit or only notification required</text>
</g>
<!-- 6636157840&#45;&#45;6635690064 -->
<g id="edge51" class="edge">
<title>6636157840&#45;&#45;6635690064</title>
<path fill="none" stroke="black" d="M266.17,-883.57C309.87,-886.19 401.62,-891.7 488.56,-896.93"/>
</g>
<!-- 6635688464 -->
<g id="node54" class="node">
<title>6635688464</title>
<ellipse fill="none" stroke="black" cx="690.52" cy="-855" rx="137.49" ry="18"/>
<text text-anchor="middle" x="690.52" y="-849.38" font-family="Times,serif" font-size="15.00">decision terminate on request</text>
</g>
<!-- 6636157840&#45;&#45;6635688464 -->
<g id="edge52" class="edge">
<title>6636157840&#45;&#45;6635688464</title>
<path fill="none" stroke="black" d="M266.17,-880.43C323.08,-877.01 461.46,-868.7 564.62,-862.5"/>
</g>
<!-- 6635693712 -->
<g id="node55" class="node">
<title>6635693712</title>
<ellipse fill="none" stroke="black" cx="690.52" cy="-801" rx="27" ry="18"/>
<text text-anchor="middle" x="690.52" y="-795.38" font-family="Times,serif" font-size="15.00">seq</text>
</g>
<!-- 6636157840&#45;&#45;6635693712 -->
<g id="edge55" class="edge">
<title>6636157840&#45;&#45;6635693712</title>
<path fill="none" stroke="black" d="M265.52,-877.41C344.53,-863.17 585.05,-819.83 664.06,-805.59"/>
</g>
<!-- 6635684560 -->
<g id="node56" class="node">
<title>6635684560</title>
<ellipse fill="none" stroke="black" cx="1222.46" cy="-801" rx="124.86" ry="18"/>
<text text-anchor="middle" x="1222.46" y="-795.38" font-family="Times,serif" font-size="15.00">message terminate request</text>
</g>
<!-- 6635693712&#45;&#45;6635684560 -->
<g id="edge53" class="edge">
<title>6635693712&#45;&#45;6635684560</title>
<path fill="none" stroke="black" d="M717.8,-801C785.88,-801 971.46,-801 1097.3,-801"/>
</g>
<!-- 6635693520 -->
<g id="node57" class="node">
<title>6635693520</title>
<ellipse fill="none" stroke="black" cx="1222.46" cy="-747" rx="159.06" ry="18"/>
<text text-anchor="middle" x="1222.46" y="-741.38" font-family="Times,serif" font-size="15.00">enter senddate request termination</text>
</g>
<!-- 6635693712&#45;&#45;6635693520 -->
<g id="edge54" class="edge">
<title>6635693712&#45;&#45;6635693520</title>
<path fill="none" stroke="black" d="M717.44,-798.36C786.12,-791.36 976.15,-772 1102.24,-759.15"/>
</g>
<!-- 6635688976 -->
<g id="node64" class="node">
<title>6635688976</title>
<ellipse fill="none" stroke="black" cx="690.52" cy="-544" rx="27" ry="18"/>
<text text-anchor="middle" x="690.52" y="-538.38" font-family="Times,serif" font-size="15.00">seq</text>
</g>
<!-- 6635698512&#45;&#45;6635688976 -->
<g id="edge68" class="edge">
<title>6635698512&#45;&#45;6635688976</title>
<path fill="none" stroke="black" d="M266.5,-544C346.19,-544 583.47,-544 663.11,-544"/>
</g>
<!-- 6635685264 -->
<g id="node71" class="node">
<title>6635685264</title>
<ellipse fill="none" stroke="black" cx="690.52" cy="-234" rx="27" ry="18"/>
<text text-anchor="middle" x="690.52" y="-228.38" font-family="Times,serif" font-size="15.00">seq</text>
</g>
<!-- 6635698512&#45;&#45;6635685264 -->
<g id="edge78" class="edge">
<title>6635698512&#45;&#45;6635685264</title>
<path fill="none" stroke="black" d="M258.52,-531.27C331.37,-481.03 598.47,-296.79 671.15,-246.67"/>
</g>
<!-- 6635691728 -->
<g id="node65" class="node">
<title>6635691728</title>
<ellipse fill="none" stroke="black" cx="1222.46" cy="-693" rx="84.35" ry="18"/>
<text text-anchor="middle" x="1222.46" y="-687.38" font-family="Times,serif" font-size="15.00">request complete</text>
</g>
<!-- 6635688976&#45;&#45;6635691728 -->
<g id="edge62" class="edge">
<title>6635688976&#45;&#45;6635691728</title>
<path fill="none" stroke="black" d="M716.01,-550.89C797.13,-573.7 1058.17,-647.09 1169.92,-678.51"/>
</g>
<!-- 6635691088 -->
<g id="node66" class="node">
<title>6635691088</title>
<ellipse fill="none" stroke="black" cx="1222.46" cy="-639" rx="148.01" ry="18"/>
<text text-anchor="middle" x="1222.46" y="-633.38" font-family="Times,serif" font-size="15.00">term for supplying missing data</text>
</g>
<!-- 6635688976&#45;&#45;6635691088 -->
<g id="edge63" class="edge">
<title>6635688976&#45;&#45;6635691088</title>
<path fill="none" stroke="black" d="M717.08,-548.58C792.13,-562.04 1014.29,-601.86 1137.24,-623.9"/>
</g>
<!-- 6635698448 -->
<g id="node67" class="node">
<title>6635698448</title>
<ellipse fill="none" stroke="black" cx="1222.46" cy="-585" rx="166.43" ry="18"/>
<text text-anchor="middle" x="1222.46" y="-579.38" font-family="Times,serif" font-size="15.00">create letter requesting missing data</text>
</g>
<!-- 6635688976&#45;&#45;6635698448 -->
<g id="edge64" class="edge">
<title>6635688976&#45;&#45;6635698448</title>
<path fill="none" stroke="black" d="M717.8,-546.03C783.79,-551.14 960.18,-564.79 1085.56,-574.49"/>
</g>
<!-- 6635697936 -->
<g id="node68" class="node">
<title>6635697936</title>
<ellipse fill="none" stroke="black" cx="1222.46" cy="-531" rx="161.69" ry="18"/>
<text text-anchor="middle" x="1222.46" y="-525.38" font-family="Times,serif" font-size="15.00">phase asked additional information</text>
</g>
<!-- 6635688976&#45;&#45;6635697936 -->
<g id="edge65" class="edge">
<title>6635688976&#45;&#45;6635697936</title>
<path fill="none" stroke="black" d="M717.8,-543.36C780.09,-541.83 940.71,-537.89 1063.98,-534.86"/>
</g>
<!-- 6635696912 -->
<g id="node69" class="node">
<title>6635696912</title>
<ellipse fill="none" stroke="black" cx="1222.46" cy="-477" rx="101.19" ry="18"/>
<text text-anchor="middle" x="1222.46" y="-471.38" font-family="Times,serif" font-size="15.00">retrieve missing data</text>
</g>
<!-- 6635688976&#45;&#45;6635696912 -->
<g id="edge66" class="edge">
<title>6635688976&#45;&#45;6635696912</title>
<path fill="none" stroke="black" d="M717.44,-540.72C793.13,-531.15 1016.22,-502.95 1138.68,-487.47"/>
</g>
<!-- 6635695504 -->
<g id="node70" class="node">
<title>6635695504</title>
<ellipse fill="none" stroke="black" cx="1222.46" cy="-423" rx="165.37" ry="18"/>
<text text-anchor="middle" x="1222.46" y="-417.38" font-family="Times,serif" font-size="15.00">enter senddate retrieve missing data</text>
</g>
<!-- 6635688976&#45;&#45;6635695504 -->
<g id="edge67" class="edge">
<title>6635688976&#45;&#45;6635695504</title>
<path fill="none" stroke="black" d="M716.37,-538.33C793.21,-520.78 1029.01,-466.94 1149.29,-439.48"/>
</g>
<!-- 6635690256 -->
<g id="node72" class="node">
<title>6635690256</title>
<ellipse fill="none" stroke="black" cx="1222.46" cy="-369" rx="89.09" ry="18"/>
<text text-anchor="middle" x="1222.46" y="-363.38" font-family="Times,serif" font-size="15.00">set decision status</text>
</g>
<!-- 6635685264&#45;&#45;6635690256 -->
<g id="edge69" class="edge">
<title>6635685264&#45;&#45;6635690256</title>
<path fill="none" stroke="black" d="M716.01,-240.24C796.12,-260.65 1051.65,-325.74 1165.64,-354.78"/>
</g>
<!-- 6635688144 -->
<g id="node73" class="node">
<title>6635688144</title>
<ellipse fill="none" stroke="black" cx="1222.46" cy="-315" rx="153.27" ry="18"/>
<text text-anchor="middle" x="1222.46" y="-309.38" font-family="Times,serif" font-size="15.00">phase activity no permit required</text>
</g>
<!-- 6635685264&#45;&#45;6635688144 -->
<g id="edge70" class="edge">
<title>6635685264&#45;&#45;6635688144</title>
<path fill="none" stroke="black" d="M717.08,-237.91C790.06,-249.06 1002.16,-281.48 1126.86,-300.54"/>
</g>
<!-- 6635687504 -->
<g id="node74" class="node">
<title>6635687504</title>
<ellipse fill="none" stroke="black" cx="1222.46" cy="-261" rx="177.47" ry="18"/>
<text text-anchor="middle" x="1222.46" y="-255.38" font-family="Times,serif" font-size="15.00">generating decision no permit required</text>
</g>
<!-- 6635685264&#45;&#45;6635687504 -->
<g id="edge71" class="edge">
<title>6635685264&#45;&#45;6635687504</title>
<path fill="none" stroke="black" d="M717.8,-235.34C779.88,-238.5 939.64,-246.64 1062.74,-252.91"/>
</g>
<!-- 6635687120 -->
<g id="node75" class="node">
<title>6635687120</title>
<ellipse fill="none" stroke="black" cx="1222.46" cy="-207" rx="229.56" ry="18"/>
<text text-anchor="middle" x="1222.46" y="-201.38" font-family="Times,serif" font-size="15.00">set decision phase decision no permit required sent</text>
</g>
<!-- 6635685264&#45;&#45;6635687120 -->
<g id="edge72" class="edge">
<title>6635685264&#45;&#45;6635687120</title>
<path fill="none" stroke="black" d="M717.8,-232.66C774.19,-229.79 911.17,-222.81 1028.06,-216.85"/>
</g>
<!-- 6635691920 -->
<g id="node76" class="node">
<title>6635691920</title>
<ellipse fill="none" stroke="black" cx="1222.46" cy="-153" rx="158.01" ry="18"/>
<text text-anchor="middle" x="1222.46" y="-147.38" font-family="Times,serif" font-size="15.00">create decision no permit required</text>
</g>
<!-- 6635685264&#45;&#45;6635691920 -->
<g id="edge73" class="edge">
<title>6635685264&#45;&#45;6635691920</title>
<path fill="none" stroke="black" d="M717.08,-230.09C789.85,-218.97 1000.96,-186.7 1125.8,-167.62"/>
</g>
<!-- 6635694096 -->
<g id="node77" class="node">
<title>6635694096</title>
<ellipse fill="none" stroke="black" cx="1222.46" cy="-99" rx="206.94" ry="18"/>
<text text-anchor="middle" x="1222.46" y="-93.38" font-family="Times,serif" font-size="15.00">set decision phase no permit required decided</text>
</g>
<!-- 6635685264&#45;&#45;6635694096 -->
<g id="edge74" class="edge">
<title>6635685264&#45;&#45;6635694096</title>
<path fill="none" stroke="black" d="M716.01,-227.76C793.37,-208.05 1034.32,-146.67 1153.42,-116.33"/>
</g>
<!-- 6635695440 -->
<g id="node78" class="node">
<title>6635695440</title>
<ellipse fill="none" stroke="black" cx="1222.46" cy="-45" rx="47" ry="18"/>
<text text-anchor="middle" x="1222.46" y="-39.38" font-family="Times,serif" font-size="15.00">xor loop</text>
</g>
<!-- 6635685264&#45;&#45;6635695440 -->
<g id="edge77" class="edge">
<title>6635685264&#45;&#45;6635695440</title>
<path fill="none" stroke="black" d="M714.97,-225.64C799.3,-195.56 1087.4,-92.81 1187.14,-57.24"/>
</g>
<!-- 6635694032 -->
<g id="node79" class="node">
<title>6635694032</title>
<ellipse fill="none" stroke="black" cx="1718.63" cy="-72" rx="180.63" ry="18"/>
<text text-anchor="middle" x="1718.63" y="-66.38" font-family="Times,serif" font-size="15.00">enter senddate letter no permit required</text>
</g>
<!-- 6635695440&#45;&#45;6635694032 -->
<g id="edge75" class="edge">
<title>6635695440&#45;&#45;6635694032</title>
<path fill="none" stroke="black" d="M1269.51,-47.52C1334.98,-51.09 1458.21,-57.83 1558.89,-63.33"/>
</g>
<!-- 6635689168 -->
<g id="node80" class="node">
<title>6635689168</title>
<ellipse fill="none" stroke="black" cx="1718.63" cy="-18" rx="191.68" ry="18"/>
<text text-anchor="middle" x="1718.63" y="-12.38" font-family="Times,serif" font-size="15.00">record date of decision no permit required</text>
</g>
<!-- 6635695440&#45;&#45;6635689168 -->
<g id="edge76" class="edge">
<title>6635695440&#45;&#45;6635689168</title>
<path fill="none" stroke="black" d="M1269.51,-42.48C1333.36,-39 1452.15,-32.5 1551.39,-27.08"/>
</g>
</g>
</svg>
