<?xml version="1.0" encoding="UTF-8" standalone="no"?>
<!DOCTYPE svg PUBLIC "-//W3C//DTD SVG 1.1//EN"
 "http://www.w3.org/Graphics/SVG/1.1/DTD/svg11.dtd">
<!-- Generated by graphviz version 8.0.5 (20230430.1635)
 -->
<!-- Title: pt Pages: 1 -->
<svg width="1684pt" height="766pt"
 viewBox="0.00 0.00 1683.75 766.00" xmlns="http://www.w3.org/2000/svg" xmlns:xlink="http://www.w3.org/1999/xlink">
<g id="graph0" class="graph" transform="scale(1 1) rotate(0) translate(4 762)">
<title>pt</title>
<polygon fill="white" stroke="none" points="-4,4 -4,-762 1679.75,-762 1679.75,4 -4,4"/>
<!-- 6631881232 -->
<g id="node1" class="node">
<title>6631881232</title>
<ellipse fill="none" stroke="black" cx="27" cy="-443" rx="27" ry="18"/>
<text text-anchor="middle" x="27" y="-437.38" font-family="Times,serif" font-size="15.00">seq</text>
</g>
<!-- 6631877136 -->
<g id="node2" class="node">
<title>6631877136</title>
<ellipse fill="none" stroke="black" cx="239.06" cy="-497" rx="149.06" ry="18"/>
<text text-anchor="middle" x="239.06" y="-491.38" font-family="Times,serif" font-size="15.00">register submission date request</text>
</g>
<!-- 6631881232&#45;&#45;6631877136 -->
<g id="edge1" class="edge">
<title>6631881232&#45;&#45;6631877136</title>
<path fill="none" stroke="black" d="M52.51,-449.3C82.05,-456.9 132.85,-469.95 173.83,-480.49"/>
</g>
<!-- 6631878096 -->
<g id="node3" class="node">
<title>6631878096</title>
<ellipse fill="none" stroke="black" cx="239.06" cy="-443" rx="27" ry="18"/>
<text text-anchor="middle" x="239.06" y="-437.38" font-family="Times,serif" font-size="15.00">xor</text>
</g>
<!-- 6631881232&#45;&#45;6631878096 -->
<g id="edge32" class="edge">
<title>6631881232&#45;&#45;6631878096</title>
<path fill="none" stroke="black" d="M54.18,-443C94.54,-443 171.52,-443 211.89,-443"/>
</g>
<!-- 6631880848 -->
<g id="node34" class="node">
<title>6631880848</title>
<ellipse fill="none" stroke="black" cx="239.06" cy="-300" rx="27" ry="18"/>
<text text-anchor="middle" x="239.06" y="-294.38" font-family="Times,serif" font-size="15.00">xor</text>
</g>
<!-- 6631881232&#45;&#45;6631880848 -->
<g id="edge38" class="edge">
<title>6631881232&#45;&#45;6631880848</title>
<path fill="none" stroke="black" d="M46.64,-430.31C86.51,-403.17 179.64,-339.77 219.46,-312.66"/>
</g>
<!-- 6631867152 -->
<g id="node4" class="node">
<title>6631867152</title>
<ellipse fill="black" stroke="black" cx="451.13" cy="-482" rx="2.7" ry="2.7"/>
</g>
<!-- 6631878096&#45;&#45;6631867152 -->
<g id="edge2" class="edge">
<title>6631878096&#45;&#45;6631867152</title>
<path fill="none" stroke="black" d="M265.4,-447.7C317.35,-457.35 432.37,-478.7 448.29,-481.66"/>
</g>
<!-- 6631875088 -->
<g id="node5" class="node">
<title>6631875088</title>
<ellipse fill="none" stroke="black" cx="451.13" cy="-443" rx="27" ry="18"/>
<text text-anchor="middle" x="451.13" y="-437.38" font-family="Times,serif" font-size="15.00">seq</text>
</g>
<!-- 6631878096&#45;&#45;6631875088 -->
<g id="edge31" class="edge">
<title>6631878096&#45;&#45;6631875088</title>
<path fill="none" stroke="black" d="M266.24,-443C306.61,-443 383.59,-443 423.95,-443"/>
</g>
<!-- 6631875600 -->
<g id="node6" class="node">
<title>6631875600</title>
<ellipse fill="none" stroke="black" cx="692.66" cy="-659" rx="27" ry="18"/>
<text text-anchor="middle" x="692.66" y="-653.38" font-family="Times,serif" font-size="15.00">xor</text>
</g>
<!-- 6631875088&#45;&#45;6631875600 -->
<g id="edge11" class="edge">
<title>6631875088&#45;&#45;6631875600</title>
<path fill="none" stroke="black" d="M467.84,-457.17C511.25,-496.31 632.41,-605.58 675.88,-644.78"/>
</g>
<!-- 6631868880 -->
<g id="node15" class="node">
<title>6631868880</title>
<ellipse fill="none" stroke="black" cx="692.66" cy="-605" rx="108.55" ry="18"/>
<text text-anchor="middle" x="692.66" y="-599.38" font-family="Times,serif" font-size="15.00">OLO messaging active</text>
</g>
<!-- 6631875088&#45;&#45;6631868880 -->
<g id="edge12" class="edge">
<title>6631875088&#45;&#45;6631868880</title>
<path fill="none" stroke="black" d="M470.92,-455.71C513.38,-484.43 616.8,-554.37 665.49,-587.3"/>
</g>
<!-- 6631879504 -->
<g id="node16" class="node">
<title>6631879504</title>
<ellipse fill="none" stroke="black" cx="692.66" cy="-551" rx="132.23" ry="18"/>
<text text-anchor="middle" x="692.66" y="-545.38" font-family="Times,serif" font-size="15.00">registration date publication</text>
</g>
<!-- 6631875088&#45;&#45;6631879504 -->
<g id="edge13" class="edge">
<title>6631875088&#45;&#45;6631879504</title>
<path fill="none" stroke="black" d="M474.23,-452.97C514.88,-471.3 601.98,-510.57 652.74,-533.45"/>
</g>
<!-- 6632258384 -->
<g id="node17" class="node">
<title>6632258384</title>
<ellipse fill="none" stroke="black" cx="692.66" cy="-497" rx="124.86" ry="18"/>
<text text-anchor="middle" x="692.66" y="-491.38" font-family="Times,serif" font-size="15.00">phase application received</text>
</g>
<!-- 6631875088&#45;&#45;6632258384 -->
<g id="edge14" class="edge">
<title>6631875088&#45;&#45;6632258384</title>
<path fill="none" stroke="black" d="M476.86,-448.58C511.17,-456.31 574.5,-470.59 623.55,-481.64"/>
</g>
<!-- 6632257232 -->
<g id="node18" class="node">
<title>6632257232</title>
<ellipse fill="none" stroke="black" cx="692.66" cy="-443" rx="178.53" ry="18"/>
<text text-anchor="middle" x="692.66" y="-437.38" font-family="Times,serif" font-size="15.00">enter date termination request received</text>
</g>
<!-- 6631875088&#45;&#45;6632257232 -->
<g id="edge15" class="edge">
<title>6631875088&#45;&#45;6632257232</title>
<path fill="none" stroke="black" d="M478.22,-443C488.16,-443 500.39,-443 513.93,-443"/>
</g>
<!-- 6632252944 -->
<g id="node19" class="node">
<title>6632252944</title>
<ellipse fill="none" stroke="black" cx="692.66" cy="-389" rx="159.06" ry="18"/>
<text text-anchor="middle" x="692.66" y="-383.38" font-family="Times,serif" font-size="15.00">enter senddate request termination</text>
</g>
<!-- 6631875088&#45;&#45;6632252944 -->
<g id="edge16" class="edge">
<title>6631875088&#45;&#45;6632252944</title>
<path fill="none" stroke="black" d="M476.86,-437.42C510.15,-429.92 570.78,-416.25 619.15,-405.35"/>
</g>
<!-- 6632245904 -->
<g id="node20" class="node">
<title>6632245904</title>
<ellipse fill="none" stroke="black" cx="692.66" cy="-335" rx="124.86" ry="18"/>
<text text-anchor="middle" x="692.66" y="-329.38" font-family="Times,serif" font-size="15.00">message terminate request</text>
</g>
<!-- 6631875088&#45;&#45;6632245904 -->
<g id="edge17" class="edge">
<title>6631875088&#45;&#45;6632245904</title>
<path fill="none" stroke="black" d="M474.23,-433.03C515,-414.65 602.48,-375.21 653.17,-352.35"/>
</g>
<!-- 6632245712 -->
<g id="node21" class="node">
<title>6632245712</title>
<ellipse fill="none" stroke="black" cx="692.66" cy="-281" rx="27" ry="18"/>
<text text-anchor="middle" x="692.66" y="-275.38" font-family="Times,serif" font-size="15.00">and</text>
</g>
<!-- 6631875088&#45;&#45;6632245712 -->
<g id="edge30" class="edge">
<title>6631875088&#45;&#45;6632245712</title>
<path fill="none" stroke="black" d="M470.92,-430.29C515.7,-400 628.26,-323.88 672.95,-293.65"/>
</g>
<!-- 6631874192 -->
<g id="node7" class="node">
<title>6631874192</title>
<ellipse fill="black" stroke="black" cx="954.18" cy="-698" rx="2.7" ry="2.7"/>
</g>
<!-- 6631875600&#45;&#45;6631874192 -->
<g id="edge3" class="edge">
<title>6631875600&#45;&#45;6631874192</title>
<path fill="none" stroke="black" d="M719.49,-662.88C780.77,-672.09 931.31,-694.71 951.04,-697.68"/>
</g>
<!-- 6631875984 -->
<g id="node8" class="node">
<title>6631875984</title>
<ellipse fill="none" stroke="black" cx="954.18" cy="-659" rx="27" ry="18"/>
<text text-anchor="middle" x="954.18" y="-653.38" font-family="Times,serif" font-size="15.00">seq</text>
</g>
<!-- 6631875600&#45;&#45;6631875984 -->
<g id="edge7" class="edge">
<title>6631875600&#45;&#45;6631875984</title>
<path fill="none" stroke="black" d="M719.97,-659C769.71,-659 877,-659 926.8,-659"/>
</g>
<!-- 6631880656 -->
<g id="node12" class="node">
<title>6631880656</title>
<ellipse fill="none" stroke="black" cx="954.18" cy="-578" rx="27" ry="18"/>
<text text-anchor="middle" x="954.18" y="-572.38" font-family="Times,serif" font-size="15.00">seq</text>
</g>
<!-- 6631875600&#45;&#45;6631880656 -->
<g id="edge10" class="edge">
<title>6631875600&#45;&#45;6631880656</title>
<path fill="none" stroke="black" d="M717.61,-651.52C767.05,-636.09 879.9,-600.87 929.29,-585.46"/>
</g>
<!-- 6631873808 -->
<g id="node9" class="node">
<title>6631873808</title>
<ellipse fill="none" stroke="black" cx="1197.82" cy="-740" rx="72.25" ry="18"/>
<text text-anchor="middle" x="1197.82" y="-734.38" font-family="Times,serif" font-size="15.00">MER required</text>
</g>
<!-- 6631875984&#45;&#45;6631873808 -->
<g id="edge4" class="edge">
<title>6631875984&#45;&#45;6631873808</title>
<path fill="none" stroke="black" d="M978.79,-666.91C1019.29,-680.49 1102.55,-708.4 1153.66,-725.53"/>
</g>
<!-- 6631881040 -->
<g id="node10" class="node">
<title>6631881040</title>
<ellipse fill="none" stroke="black" cx="1197.82" cy="-686" rx="129.07" ry="18"/>
<text text-anchor="middle" x="1197.82" y="-680.38" font-family="Times,serif" font-size="15.00">activities regular procedure</text>
</g>
<!-- 6631875984&#45;&#45;6631881040 -->
<g id="edge5" class="edge">
<title>6631875984&#45;&#45;6631881040</title>
<path fill="none" stroke="black" d="M981.04,-661.89C1008.5,-664.96 1053.62,-670 1095.53,-674.68"/>
</g>
<!-- 6631873040 -->
<g id="node11" class="node">
<title>6631873040</title>
<ellipse fill="none" stroke="black" cx="1197.82" cy="-632" rx="91.19" ry="18"/>
<text text-anchor="middle" x="1197.82" y="-626.38" font-family="Times,serif" font-size="15.00">phased application</text>
</g>
<!-- 6631875984&#45;&#45;6631873040 -->
<g id="edge6" class="edge">
<title>6631875984&#45;&#45;6631873040</title>
<path fill="none" stroke="black" d="M981.04,-656.11C1013.37,-652.5 1070.19,-646.15 1117.41,-640.87"/>
</g>
<!-- 6631876368 -->
<g id="node13" class="node">
<title>6631876368</title>
<ellipse fill="none" stroke="black" cx="1197.82" cy="-578" rx="42.79" ry="18"/>
<text text-anchor="middle" x="1197.82" y="-572.38" font-family="Times,serif" font-size="15.00">publish</text>
</g>
<!-- 6631880656&#45;&#45;6631876368 -->
<g id="edge8" class="edge">
<title>6631880656&#45;&#45;6631876368</title>
<path fill="none" stroke="black" d="M981.5,-578C1023.21,-578 1104.87,-578 1154.77,-578"/>
</g>
<!-- 6632258256 -->
<g id="node14" class="node">
<title>6632258256</title>
<ellipse fill="none" stroke="black" cx="1197.82" cy="-524" rx="132.76" ry="18"/>
<text text-anchor="middle" x="1197.82" y="-518.38" font-family="Times,serif" font-size="15.00">create publication document</text>
</g>
<!-- 6631880656&#45;&#45;6632258256 -->
<g id="edge9" class="edge">
<title>6631880656&#45;&#45;6632258256</title>
<path fill="none" stroke="black" d="M980.13,-572.42C1014.44,-564.76 1077.52,-550.66 1126.81,-539.64"/>
</g>
<!-- 6625945296 -->
<g id="node22" class="node">
<title>6625945296</title>
<ellipse fill="none" stroke="black" cx="954.18" cy="-354" rx="47" ry="18"/>
<text text-anchor="middle" x="954.18" y="-348.38" font-family="Times,serif" font-size="15.00">xor loop</text>
</g>
<!-- 6632245712&#45;&#45;6625945296 -->
<g id="edge20" class="edge">
<title>6632245712&#45;&#45;6625945296</title>
<path fill="none" stroke="black" d="M718.07,-287.87C763.62,-300.68 861.82,-328.3 915.78,-343.48"/>
</g>
<!-- 6625946192 -->
<g id="node25" class="node">
<title>6625946192</title>
<ellipse fill="none" stroke="black" cx="954.18" cy="-207" rx="27" ry="18"/>
<text text-anchor="middle" x="954.18" y="-201.38" font-family="Times,serif" font-size="15.00">seq</text>
</g>
<!-- 6632245712&#45;&#45;6625946192 -->
<g id="edge29" class="edge">
<title>6632245712&#45;&#45;6625946192</title>
<path fill="none" stroke="black" d="M718.07,-274.04C767.66,-259.9 879.64,-227.97 929.02,-213.89"/>
</g>
<!-- 6625944528 -->
<g id="node23" class="node">
<title>6625944528</title>
<ellipse fill="none" stroke="black" cx="1197.82" cy="-393" rx="121.18" ry="18"/>
<text text-anchor="middle" x="1197.82" y="-387.38" font-family="Times,serif" font-size="15.00">send confirmation receipt</text>
</g>
<!-- 6625945296&#45;&#45;6625944528 -->
<g id="edge18" class="edge">
<title>6625945296&#45;&#45;6625944528</title>
<path fill="none" stroke="black" d="M998.1,-360.93C1030.24,-366.12 1075.21,-373.37 1114.24,-379.67"/>
</g>
<!-- 6625949520 -->
<g id="node24" class="node">
<title>6625949520</title>
<ellipse fill="black" stroke="black" cx="1197.82" cy="-354" rx="2.7" ry="2.7"/>
</g>
<!-- 6625945296&#45;&#45;6625949520 -->
<g id="edge19" class="edge">
<title>6625945296&#45;&#45;6625949520</title>
<path fill="none" stroke="black" d="M1001.49,-354C1066.72,-354 1179.49,-354 1195.03,-354"/>
</g>
<!-- 6626189072 -->
<g id="node26" class="node">
<title>6626189072</title>
<ellipse fill="none" stroke="black" cx="1197.82" cy="-315" rx="112.76" ry="18"/>
<text text-anchor="middle" x="1197.82" y="-309.38" font-family="Times,serif" font-size="15.00">applicant is stakeholder</text>
</g>
<!-- 6625946192&#45;&#45;6626189072 -->
<g id="edge21" class="edge">
<title>6625946192&#45;&#45;6626189072</title>
<path fill="none" stroke="black" d="M977.05,-216.77C1018.06,-235.1 1106.99,-274.85 1158.27,-297.77"/>
</g>
<!-- 6626195472 -->
<g id="node27" class="node">
<title>6626195472</title>
<ellipse fill="none" stroke="black" cx="1197.82" cy="-261" rx="99.08" ry="18"/>
<text text-anchor="middle" x="1197.82" y="-255.38" font-family="Times,serif" font-size="15.00">terminate on request</text>
</g>
<!-- 6625946192&#45;&#45;6626195472 -->
<g id="edge22" class="edge">
<title>6625946192&#45;&#45;6626195472</title>
<path fill="none" stroke="black" d="M980.13,-212.58C1016.06,-220.61 1083.57,-235.69 1133.73,-246.9"/>
</g>
<!-- 6626192080 -->
<g id="node28" class="node">
<title>6626192080</title>
<ellipse fill="none" stroke="black" cx="1197.82" cy="-207" rx="135.39" ry="18"/>
<text text-anchor="middle" x="1197.82" y="-201.38" font-family="Times,serif" font-size="15.00">calculate provisional charges</text>
</g>
<!-- 6625946192&#45;&#45;6626192080 -->
<g id="edge23" class="edge">
<title>6625946192&#45;&#45;6626192080</title>
<path fill="none" stroke="black" d="M981.5,-207C1001.68,-207 1031.22,-207 1061.98,-207"/>
</g>
<!-- 6626190480 -->
<g id="node29" class="node">
<title>6626190480</title>
<ellipse fill="none" stroke="black" cx="1197.82" cy="-153" rx="160.64" ry="18"/>
<text text-anchor="middle" x="1197.82" y="-147.38" font-family="Times,serif" font-size="15.00">forward to the competent authority</text>
</g>
<!-- 6625946192&#45;&#45;6626190480 -->
<g id="edge24" class="edge">
<title>6625946192&#45;&#45;6626190480</title>
<path fill="none" stroke="black" d="M980.13,-201.42C1013.65,-193.93 1074.65,-180.3 1123.41,-169.4"/>
</g>
<!-- 6626181264 -->
<g id="node30" class="node">
<title>6626181264</title>
<ellipse fill="none" stroke="black" cx="1197.82" cy="-99" rx="147.49" ry="18"/>
<text text-anchor="middle" x="1197.82" y="-93.38" font-family="Times,serif" font-size="15.00">regular procedure without MER</text>
</g>
<!-- 6625946192&#45;&#45;6626181264 -->
<g id="edge25" class="edge">
<title>6625946192&#45;&#45;6626181264</title>
<path fill="none" stroke="black" d="M977.05,-197.23C1017.83,-179 1105.98,-139.6 1157.39,-116.62"/>
</g>
<!-- 6628795792 -->
<g id="node31" class="node">
<title>6628795792</title>
<ellipse fill="none" stroke="black" cx="1197.82" cy="-45" rx="27" ry="18"/>
<text text-anchor="middle" x="1197.82" y="-39.38" font-family="Times,serif" font-size="15.00">and</text>
</g>
<!-- 6625946192&#45;&#45;6628795792 -->
<g id="edge28" class="edge">
<title>6625946192&#45;&#45;6628795792</title>
<path fill="none" stroke="black" d="M974.14,-194.29C1019.31,-164 1132.87,-87.88 1177.95,-57.65"/>
</g>
<!-- 6628786256 -->
<g id="node32" class="node">
<title>6628786256</title>
<ellipse fill="none" stroke="black" cx="1535.11" cy="-72" rx="140.65" ry="18"/>
<text text-anchor="middle" x="1535.11" y="-66.38" font-family="Times,serif" font-size="15.00">create procedure confirmation</text>
</g>
<!-- 6628795792&#45;&#45;6628786256 -->
<g id="edge26" class="edge">
<title>6628795792&#45;&#45;6628786256</title>
<path fill="none" stroke="black" d="M1225.13,-47.12C1265.73,-50.39 1346.15,-56.86 1414.76,-62.39"/>
</g>
<!-- 6628788432 -->
<g id="node33" class="node">
<title>6628788432</title>
<ellipse fill="none" stroke="black" cx="1535.11" cy="-18" rx="105.92" ry="18"/>
<text text-anchor="middle" x="1535.11" y="-12.38" font-family="Times,serif" font-size="15.00">start WABOprocedure</text>
</g>
<!-- 6628795792&#45;&#45;6628788432 -->
<g id="edge27" class="edge">
<title>6628795792&#45;&#45;6628788432</title>
<path fill="none" stroke="black" d="M1225.13,-42.88C1270.52,-39.23 1365.66,-31.56 1438.45,-25.7"/>
</g>
<!-- 6630974160 -->
<g id="node35" class="node">
<title>6630974160</title>
<ellipse fill="black" stroke="black" cx="451.13" cy="-300" rx="2.7" ry="2.7"/>
</g>
<!-- 6631880848&#45;&#45;6630974160 -->
<g id="edge33" class="edge">
<title>6631880848&#45;&#45;6630974160</title>
<path fill="none" stroke="black" d="M266.24,-300C318.6,-300 432.54,-300 448.31,-300"/>
</g>
<!-- 6630972048 -->
<g id="node36" class="node">
<title>6630972048</title>
<ellipse fill="none" stroke="black" cx="451.13" cy="-200" rx="27" ry="18"/>
<text text-anchor="middle" x="451.13" y="-194.38" font-family="Times,serif" font-size="15.00">seq</text>
</g>
<!-- 6631880848&#45;&#45;6630972048 -->
<g id="edge37" class="edge">
<title>6631880848&#45;&#45;6630972048</title>
<path fill="none" stroke="black" d="M261.75,-289.67C302.11,-270.46 388.29,-229.44 428.56,-210.27"/>
</g>
<!-- 6631472784 -->
<g id="node37" class="node">
<title>6631472784</title>
<ellipse fill="none" stroke="black" cx="692.66" cy="-227" rx="115.39" ry="18"/>
<text text-anchor="middle" x="692.66" y="-221.38" font-family="Times,serif" font-size="15.00">phase procedure aborted</text>
</g>
<!-- 6630972048&#45;&#45;6631472784 -->
<g id="edge34" class="edge">
<title>6630972048&#45;&#45;6631472784</title>
<path fill="none" stroke="black" d="M478.22,-202.94C506.89,-206.17 554.62,-211.55 597.68,-216.41"/>
</g>
<!-- 6634404752 -->
<g id="node38" class="node">
<title>6634404752</title>
<ellipse fill="none" stroke="black" cx="692.66" cy="-173" rx="82.77" ry="18"/>
<text text-anchor="middle" x="692.66" y="-167.38" font-family="Times,serif" font-size="15.00">register deadline</text>
</g>
<!-- 6630972048&#45;&#45;6634404752 -->
<g id="edge35" class="edge">
<title>6630972048&#45;&#45;6634404752</title>
<path fill="none" stroke="black" d="M478.22,-197.06C511.56,-193.3 570.66,-186.64 618.23,-181.28"/>
</g>
<!-- 6634396432 -->
<g id="node39" class="node">
<title>6634396432</title>
<ellipse fill="none" stroke="black" cx="692.66" cy="-119" rx="54.36" ry="18"/>
<text text-anchor="middle" x="692.66" y="-113.38" font-family="Times,serif" font-size="15.00">close case</text>
</g>
<!-- 6630972048&#45;&#45;6634396432 -->
<g id="edge36" class="edge">
<title>6630972048&#45;&#45;6634396432</title>
<path fill="none" stroke="black" d="M475.53,-192.09C516.97,-178.07 603.58,-148.78 653.67,-131.85"/>
</g>
</g>
</svg>
