<?xml version="1.0" encoding="UTF-8" standalone="no"?>
<!DOCTYPE svg PUBLIC "-//W3C//DTD SVG 1.1//EN"
 "http://www.w3.org/Graphics/SVG/1.1/DTD/svg11.dtd">
<!-- Generated by graphviz version 8.0.5 (20230430.1635)
 -->
<!-- Title: pt Pages: 1 -->
<svg width="4262pt" height="981pt"
 viewBox="0.00 0.00 4262.13 981.00" xmlns="http://www.w3.org/2000/svg" xmlns:xlink="http://www.w3.org/1999/xlink">
<g id="graph0" class="graph" transform="scale(1 1) rotate(0) translate(4 977)">
<title>pt</title>
<polygon fill="white" stroke="none" points="-4,4 -4,-977 4258.13,-977 4258.13,4 -4,4"/>
<!-- 6634657680 -->
<g id="node1" class="node">
<title>6634657680</title>
<ellipse fill="none" stroke="black" cx="27" cy="-376" rx="27" ry="18"/>
<text text-anchor="middle" x="27" y="-370.38" font-family="Times,serif" font-size="15.00">seq</text>
</g>
<!-- 6630336784 -->
<g id="node2" class="node">
<title>6630336784</title>
<ellipse fill="none" stroke="black" cx="117" cy="-423" rx="27" ry="18"/>
<text text-anchor="middle" x="117" y="-417.38" font-family="Times,serif" font-size="15.00">and</text>
</g>
<!-- 6634657680&#45;&#45;6630336784 -->
<g id="edge82" class="edge">
<title>6634657680&#45;&#45;6630336784</title>
<path fill="none" stroke="black" d="M48.85,-387.14C62.88,-394.63 81.3,-404.47 95.29,-411.94"/>
</g>
<!-- 6635182544 -->
<g id="node84" class="node">
<title>6635182544</title>
<ellipse fill="none" stroke="black" cx="117" cy="-330" rx="27" ry="18"/>
<text text-anchor="middle" x="117" y="-324.38" font-family="Times,serif" font-size="15.00">xor</text>
</g>
<!-- 6634657680&#45;&#45;6635182544 -->
<g id="edge85" class="edge">
<title>6634657680&#45;&#45;6635182544</title>
<path fill="none" stroke="black" d="M48.85,-365.1C62.78,-357.82 81.03,-348.28 94.99,-340.98"/>
</g>
<!-- 6635526032 -->
<g id="node3" class="node">
<title>6635526032</title>
<ellipse fill="none" stroke="black" cx="332.75" cy="-531" rx="152.75" ry="18"/>
<text text-anchor="middle" x="332.75" y="-525.38" font-family="Times,serif" font-size="15.00">enter senddate acknowledgement</text>
</g>
<!-- 6630336784&#45;&#45;6635526032 -->
<g id="edge1" class="edge">
<title>6630336784&#45;&#45;6635526032</title>
<path fill="none" stroke="black" d="M139.28,-433.75C176.02,-452.32 251.73,-490.57 296.47,-513.17"/>
</g>
<!-- 6635528080 -->
<g id="node4" class="node">
<title>6635528080</title>
<ellipse fill="none" stroke="black" cx="332.75" cy="-477" rx="124.86" ry="18"/>
<text text-anchor="middle" x="332.75" y="-471.38" font-family="Times,serif" font-size="15.00">phase application received</text>
</g>
<!-- 6630336784&#45;&#45;6635528080 -->
<g id="edge2" class="edge">
<title>6630336784&#45;&#45;6635528080</title>
<path fill="none" stroke="black" d="M142.52,-429.19C173.11,-436.92 226.55,-450.42 268.86,-461.11"/>
</g>
<!-- 6635526736 -->
<g id="node5" class="node">
<title>6635526736</title>
<ellipse fill="none" stroke="black" cx="332.75" cy="-423" rx="149.06" ry="18"/>
<text text-anchor="middle" x="332.75" y="-417.38" font-family="Times,serif" font-size="15.00">register submission date request</text>
</g>
<!-- 6630336784&#45;&#45;6635526736 -->
<g id="edge3" class="edge">
<title>6630336784&#45;&#45;6635526736</title>
<path fill="none" stroke="black" d="M144.21,-423C155.13,-423 168.75,-423 183.62,-423"/>
</g>
<!-- 6635520400 -->
<g id="node6" class="node">
<title>6635520400</title>
<ellipse fill="none" stroke="black" cx="332.75" cy="-369" rx="27" ry="18"/>
<text text-anchor="middle" x="332.75" y="-363.38" font-family="Times,serif" font-size="15.00">seq</text>
</g>
<!-- 6630336784&#45;&#45;6635520400 -->
<g id="edge81" class="edge">
<title>6630336784&#45;&#45;6635520400</title>
<path fill="none" stroke="black" d="M142.52,-416.81C183.64,-406.42 266.04,-385.6 307.19,-375.21"/>
</g>
<!-- 6635528208 -->
<g id="node7" class="node">
<title>6635528208</title>
<ellipse fill="none" stroke="black" cx="630.05" cy="-396" rx="108.55" ry="18"/>
<text text-anchor="middle" x="630.05" y="-390.38" font-family="Times,serif" font-size="15.00">OLO messaging active</text>
</g>
<!-- 6635520400&#45;&#45;6635528208 -->
<g id="edge4" class="edge">
<title>6635520400&#45;&#45;6635528208</title>
<path fill="none" stroke="black" d="M359.95,-371.4C398.7,-374.94 473.25,-381.75 534.07,-387.32"/>
</g>
<!-- 6635533904 -->
<g id="node8" class="node">
<title>6635533904</title>
<ellipse fill="none" stroke="black" cx="630.05" cy="-342" rx="27" ry="18"/>
<text text-anchor="middle" x="630.05" y="-336.38" font-family="Times,serif" font-size="15.00">and</text>
</g>
<!-- 6635520400&#45;&#45;6635533904 -->
<g id="edge80" class="edge">
<title>6635520400&#45;&#45;6635533904</title>
<path fill="none" stroke="black" d="M359.95,-366.6C415.99,-361.48 546.92,-349.51 602.9,-344.39"/>
</g>
<!-- 6635531024 -->
<g id="node9" class="node">
<title>6635531024</title>
<ellipse fill="none" stroke="black" cx="801.6" cy="-369" rx="27" ry="18"/>
<text text-anchor="middle" x="801.6" y="-363.38" font-family="Times,serif" font-size="15.00">xor</text>
</g>
<!-- 6635533904&#45;&#45;6635531024 -->
<g id="edge7" class="edge">
<title>6635533904&#45;&#45;6635531024</title>
<path fill="none" stroke="black" d="M656.8,-346.1C688.76,-351.19 742.94,-359.82 774.89,-364.91"/>
</g>
<!-- 6635528720 -->
<g id="node12" class="node">
<title>6635528720</title>
<ellipse fill="none" stroke="black" cx="801.6" cy="-315" rx="27" ry="18"/>
<text text-anchor="middle" x="801.6" y="-309.38" font-family="Times,serif" font-size="15.00">seq</text>
</g>
<!-- 6635533904&#45;&#45;6635528720 -->
<g id="edge79" class="edge">
<title>6635533904&#45;&#45;6635528720</title>
<path fill="none" stroke="black" d="M656.8,-337.9C688.76,-332.81 742.94,-324.18 774.89,-319.09"/>
</g>
<!-- 6635531152 -->
<g id="node10" class="node">
<title>6635531152</title>
<ellipse fill="black" stroke="black" cx="1023.66" cy="-408" rx="2.7" ry="2.7"/>
</g>
<!-- 6635531024&#45;&#45;6635531152 -->
<g id="edge5" class="edge">
<title>6635531024&#45;&#45;6635531152</title>
<path fill="none" stroke="black" d="M827.85,-373.47C881.58,-383 1003.79,-404.65 1020.71,-407.65"/>
</g>
<!-- 6635520080 -->
<g id="node11" class="node">
<title>6635520080</title>
<ellipse fill="none" stroke="black" cx="1023.66" cy="-369" rx="159.06" ry="18"/>
<text text-anchor="middle" x="1023.66" y="-363.38" font-family="Times,serif" font-size="15.00">enter senddate request termination</text>
</g>
<!-- 6635531024&#45;&#45;6635520080 -->
<g id="edge6" class="edge">
<title>6635531024&#45;&#45;6635520080</title>
<path fill="none" stroke="black" d="M828.71,-369C838.73,-369 851.03,-369 864.54,-369"/>
</g>
<!-- 6635535248 -->
<g id="node13" class="node">
<title>6635535248</title>
<ellipse fill="none" stroke="black" cx="1023.66" cy="-315" rx="27" ry="18"/>
<text text-anchor="middle" x="1023.66" y="-309.38" font-family="Times,serif" font-size="15.00">and</text>
</g>
<!-- 6635528720&#45;&#45;6635535248 -->
<g id="edge70" class="edge">
<title>6635528720&#45;&#45;6635535248</title>
<path fill="none" stroke="black" d="M828.71,-315C870.95,-315 953.81,-315 996.25,-315"/>
</g>
<!-- 6635525648 -->
<g id="node76" class="node">
<title>6635525648</title>
<ellipse fill="none" stroke="black" cx="1023.66" cy="-254" rx="27" ry="18"/>
<text text-anchor="middle" x="1023.66" y="-248.38" font-family="Times,serif" font-size="15.00">xor</text>
</g>
<!-- 6635528720&#45;&#45;6635525648 -->
<g id="edge78" class="edge">
<title>6635528720&#45;&#45;6635525648</title>
<path fill="none" stroke="black" d="M826.99,-308.24C869.29,-296.51 955.79,-272.54 998.16,-260.79"/>
</g>
<!-- 6635522512 -->
<g id="node14" class="node">
<title>6635522512</title>
<ellipse fill="none" stroke="black" cx="1245.72" cy="-396" rx="27" ry="18"/>
<text text-anchor="middle" x="1245.72" y="-390.38" font-family="Times,serif" font-size="15.00">xor</text>
</g>
<!-- 6635535248&#45;&#45;6635522512 -->
<g id="edge10" class="edge">
<title>6635535248&#45;&#45;6635522512</title>
<path fill="none" stroke="black" d="M1047.8,-323.52C1090.06,-339.07 1179.29,-371.91 1221.57,-387.48"/>
</g>
<!-- 6635522320 -->
<g id="node17" class="node">
<title>6635522320</title>
<ellipse fill="none" stroke="black" cx="1245.72" cy="-315" rx="27" ry="18"/>
<text text-anchor="middle" x="1245.72" y="-309.38" font-family="Times,serif" font-size="15.00">seq</text>
</g>
<!-- 6635535248&#45;&#45;6635522320 -->
<g id="edge69" class="edge">
<title>6635535248&#45;&#45;6635522320</title>
<path fill="none" stroke="black" d="M1050.77,-315C1093.01,-315 1175.87,-315 1218.31,-315"/>
</g>
<!-- 6635526800 -->
<g id="node15" class="node">
<title>6635526800</title>
<ellipse fill="black" stroke="black" cx="1493.04" cy="-435" rx="2.7" ry="2.7"/>
</g>
<!-- 6635522512&#45;&#45;6635526800 -->
<g id="edge8" class="edge">
<title>6635522512&#45;&#45;6635526800</title>
<path fill="none" stroke="black" d="M1272.51,-400.1C1331.31,-409.45 1471.66,-431.76 1490.04,-434.68"/>
</g>
<!-- 6635530960 -->
<g id="node16" class="node">
<title>6635530960</title>
<ellipse fill="none" stroke="black" cx="1493.04" cy="-396" rx="184.31" ry="18"/>
<text text-anchor="middle" x="1493.04" y="-390.38" font-family="Times,serif" font-size="15.00">phase procedure prematurely terminated</text>
</g>
<!-- 6635522512&#45;&#45;6635530960 -->
<g id="edge9" class="edge">
<title>6635522512&#45;&#45;6635530960</title>
<path fill="none" stroke="black" d="M1272.98,-396C1282.86,-396 1295.01,-396 1308.47,-396"/>
</g>
<!-- 6635424208 -->
<g id="node18" class="node">
<title>6635424208</title>
<ellipse fill="none" stroke="black" cx="1493.04" cy="-342" rx="27" ry="18"/>
<text text-anchor="middle" x="1493.04" y="-336.38" font-family="Times,serif" font-size="15.00">and</text>
</g>
<!-- 6635522320&#45;&#45;6635424208 -->
<g id="edge65" class="edge">
<title>6635522320&#45;&#45;6635424208</title>
<path fill="none" stroke="black" d="M1272.51,-317.84C1319.63,-323.02 1419.09,-333.97 1466.23,-339.16"/>
</g>
<!-- 6635426512 -->
<g id="node73" class="node">
<title>6635426512</title>
<ellipse fill="none" stroke="black" cx="1493.04" cy="-288" rx="27" ry="18"/>
<text text-anchor="middle" x="1493.04" y="-282.38" font-family="Times,serif" font-size="15.00">xor</text>
</g>
<!-- 6635522320&#45;&#45;6635426512 -->
<g id="edge68" class="edge">
<title>6635522320&#45;&#45;6635426512</title>
<path fill="none" stroke="black" d="M1272.51,-312.16C1319.63,-306.98 1419.09,-296.03 1466.23,-290.84"/>
</g>
<!-- 6635422928 -->
<g id="node19" class="node">
<title>6635422928</title>
<ellipse fill="none" stroke="black" cx="1845.58" cy="-392" rx="132.23" ry="18"/>
<text text-anchor="middle" x="1845.58" y="-386.38" font-family="Times,serif" font-size="15.00">registration date publication</text>
</g>
<!-- 6635424208&#45;&#45;6635422928 -->
<g id="edge11" class="edge">
<title>6635424208&#45;&#45;6635422928</title>
<path fill="none" stroke="black" d="M1519.81,-345.68C1568.2,-352.58 1674.75,-367.78 1752.66,-378.89"/>
</g>
<!-- 6635431056 -->
<g id="node20" class="node">
<title>6635431056</title>
<ellipse fill="none" stroke="black" cx="1845.58" cy="-338" rx="27" ry="18"/>
<text text-anchor="middle" x="1845.58" y="-332.38" font-family="Times,serif" font-size="15.00">seq</text>
</g>
<!-- 6635424208&#45;&#45;6635431056 -->
<g id="edge64" class="edge">
<title>6635424208&#45;&#45;6635431056</title>
<path fill="none" stroke="black" d="M1520.39,-341.7C1585.51,-340.96 1753.46,-339.04 1818.41,-338.3"/>
</g>
<!-- 6635426896 -->
<g id="node21" class="node">
<title>6635426896</title>
<ellipse fill="none" stroke="black" cx="2040.81" cy="-365" rx="27" ry="18"/>
<text text-anchor="middle" x="2040.81" y="-359.38" font-family="Times,serif" font-size="15.00">and</text>
</g>
<!-- 6635431056&#45;&#45;6635426896 -->
<g id="edge60" class="edge">
<title>6635431056&#45;&#45;6635426896</title>
<path fill="none" stroke="black" d="M1872.24,-341.59C1909.2,-346.75 1977.03,-356.23 2014.04,-361.4"/>
</g>
<!-- 6635435344 -->
<g id="node70" class="node">
<title>6635435344</title>
<ellipse fill="none" stroke="black" cx="2040.81" cy="-311" rx="27" ry="18"/>
<text text-anchor="middle" x="2040.81" y="-305.38" font-family="Times,serif" font-size="15.00">xor</text>
</g>
<!-- 6635431056&#45;&#45;6635435344 -->
<g id="edge63" class="edge">
<title>6635431056&#45;&#45;6635435344</title>
<path fill="none" stroke="black" d="M1872.24,-334.41C1909.2,-329.25 1977.03,-319.77 2014.04,-314.6"/>
</g>
<!-- 6635423184 -->
<g id="node22" class="node">
<title>6635423184</title>
<ellipse fill="none" stroke="black" cx="2209.73" cy="-415" rx="105.92" ry="18"/>
<text text-anchor="middle" x="2209.73" y="-409.38" font-family="Times,serif" font-size="15.00">start WABOprocedure</text>
</g>
<!-- 6635426896&#45;&#45;6635423184 -->
<g id="edge12" class="edge">
<title>6635426896&#45;&#45;6635423184</title>
<path fill="none" stroke="black" d="M2066.08,-372.27C2089.5,-379.29 2125.73,-390.14 2155.82,-399.15"/>
</g>
<!-- 6635425424 -->
<g id="node23" class="node">
<title>6635425424</title>
<ellipse fill="none" stroke="black" cx="2209.73" cy="-361" rx="27" ry="18"/>
<text text-anchor="middle" x="2209.73" y="-355.38" font-family="Times,serif" font-size="15.00">seq</text>
</g>
<!-- 6635426896&#45;&#45;6635425424 -->
<g id="edge59" class="edge">
<title>6635426896&#45;&#45;6635425424</title>
<path fill="none" stroke="black" d="M2068.26,-364.37C2099.51,-363.62 2151.2,-362.38 2182.41,-361.63"/>
</g>
<!-- 6635425232 -->
<g id="node24" class="node">
<title>6635425232</title>
<ellipse fill="none" stroke="black" cx="2378.66" cy="-388" rx="27" ry="18"/>
<text text-anchor="middle" x="2378.66" y="-382.38" font-family="Times,serif" font-size="15.00">xor</text>
</g>
<!-- 6635425424&#45;&#45;6635425232 -->
<g id="edge55" class="edge">
<title>6635425424&#45;&#45;6635425232</title>
<path fill="none" stroke="black" d="M2236.45,-365.16C2267.82,-370.23 2320.53,-378.76 2351.91,-383.84"/>
</g>
<!-- 6635431120 -->
<g id="node67" class="node">
<title>6635431120</title>
<ellipse fill="none" stroke="black" cx="2378.66" cy="-334" rx="27" ry="18"/>
<text text-anchor="middle" x="2378.66" y="-328.38" font-family="Times,serif" font-size="15.00">xor</text>
</g>
<!-- 6635425424&#45;&#45;6635431120 -->
<g id="edge58" class="edge">
<title>6635425424&#45;&#45;6635431120</title>
<path fill="none" stroke="black" d="M2236.45,-356.84C2267.82,-351.77 2320.53,-343.24 2351.91,-338.16"/>
</g>
<!-- 6635425104 -->
<g id="node25" class="node">
<title>6635425104</title>
<ellipse fill="black" stroke="black" cx="2598.09" cy="-427" rx="2.7" ry="2.7"/>
</g>
<!-- 6635425232&#45;&#45;6635425104 -->
<g id="edge13" class="edge">
<title>6635425232&#45;&#45;6635425104</title>
<path fill="none" stroke="black" d="M2405.02,-392.55C2458.35,-402.11 2578.53,-423.67 2595.16,-426.65"/>
</g>
<!-- 6635423312 -->
<g id="node26" class="node">
<title>6635423312</title>
<ellipse fill="none" stroke="black" cx="2598.09" cy="-388" rx="27" ry="18"/>
<text text-anchor="middle" x="2598.09" y="-382.38" font-family="Times,serif" font-size="15.00">seq</text>
</g>
<!-- 6635425232&#45;&#45;6635423312 -->
<g id="edge54" class="edge">
<title>6635425232&#45;&#45;6635423312</title>
<path fill="none" stroke="black" d="M2405.88,-388C2447.67,-388 2528.92,-388 2570.77,-388"/>
</g>
<!-- 6635429520 -->
<g id="node27" class="node">
<title>6635429520</title>
<ellipse fill="none" stroke="black" cx="2951.16" cy="-712" rx="27" ry="18"/>
<text text-anchor="middle" x="2951.16" y="-706.38" font-family="Times,serif" font-size="15.00">xor</text>
</g>
<!-- 6635423312&#45;&#45;6635429520 -->
<g id="edge24" class="edge">
<title>6635423312&#45;&#45;6635429520</title>
<path fill="none" stroke="black" d="M2614.62,-402.34C2672.61,-455.86 2876.04,-643.6 2934.4,-697.46"/>
</g>
<!-- 6635433040 -->
<g id="node38" class="node">
<title>6635433040</title>
<ellipse fill="none" stroke="black" cx="2951.16" cy="-577" rx="27" ry="18"/>
<text text-anchor="middle" x="2951.16" y="-571.38" font-family="Times,serif" font-size="15.00">xor</text>
</g>
<!-- 6635423312&#45;&#45;6635433040 -->
<g id="edge29" class="edge">
<title>6635423312&#45;&#45;6635433040</title>
<path fill="none" stroke="black" d="M2619.74,-399.12C2681.91,-432.59 2866.88,-532.17 2929.31,-565.78"/>
</g>
<!-- 6635430928 -->
<g id="node43" class="node">
<title>6635430928</title>
<ellipse fill="none" stroke="black" cx="2951.16" cy="-523" rx="160.64" ry="18"/>
<text text-anchor="middle" x="2951.16" y="-517.38" font-family="Times,serif" font-size="15.00">forward to the competent authority</text>
</g>
<!-- 6635423312&#45;&#45;6635430928 -->
<g id="edge30" class="edge">
<title>6635423312&#45;&#45;6635430928</title>
<path fill="none" stroke="black" d="M2622.12,-396.86C2679.25,-418.83 2828.31,-476.14 2904.25,-505.35"/>
</g>
<!-- 6635422288 -->
<g id="node44" class="node">
<title>6635422288</title>
<ellipse fill="none" stroke="black" cx="2951.16" cy="-469" rx="27" ry="18"/>
<text text-anchor="middle" x="2951.16" y="-463.38" font-family="Times,serif" font-size="15.00">xor</text>
</g>
<!-- 6635423312&#45;&#45;6635422288 -->
<g id="edge33" class="edge">
<title>6635423312&#45;&#45;6635422288</title>
<path fill="none" stroke="black" d="M2624.05,-393.76C2688.59,-408.65 2860.42,-448.3 2925.08,-463.21"/>
</g>
<!-- 6635429264 -->
<g id="node47" class="node">
<title>6635429264</title>
<ellipse fill="none" stroke="black" cx="2951.16" cy="-415" rx="147.49" ry="18"/>
<text text-anchor="middle" x="2951.16" y="-409.38" font-family="Times,serif" font-size="15.00">regular procedure without MER</text>
</g>
<!-- 6635423312&#45;&#45;6635429264 -->
<g id="edge34" class="edge">
<title>6635423312&#45;&#45;6635429264</title>
<path fill="none" stroke="black" d="M2625.19,-390.01C2667.22,-393.24 2752.55,-399.8 2825.23,-405.39"/>
</g>
<!-- 6635426960 -->
<g id="node48" class="node">
<title>6635426960</title>
<ellipse fill="none" stroke="black" cx="2951.16" cy="-361" rx="27" ry="18"/>
<text text-anchor="middle" x="2951.16" y="-355.38" font-family="Times,serif" font-size="15.00">xor</text>
</g>
<!-- 6635423312&#45;&#45;6635426960 -->
<g id="edge42" class="edge">
<title>6635423312&#45;&#45;6635426960</title>
<path fill="none" stroke="black" d="M2625.19,-385.99C2690.18,-380.99 2858.71,-368.03 2923.88,-363.02"/>
</g>
<!-- 6635432336 -->
<g id="node56" class="node">
<title>6635432336</title>
<ellipse fill="none" stroke="black" cx="2951.16" cy="-307" rx="140.65" ry="18"/>
<text text-anchor="middle" x="2951.16" y="-301.38" font-family="Times,serif" font-size="15.00">create procedure confirmation</text>
</g>
<!-- 6635423312&#45;&#45;6635432336 -->
<g id="edge43" class="edge">
<title>6635423312&#45;&#45;6635432336</title>
<path fill="none" stroke="black" d="M2624.05,-382.24C2676.92,-370.04 2801.79,-341.23 2880.76,-323.01"/>
</g>
<!-- 6635432976 -->
<g id="node57" class="node">
<title>6635432976</title>
<ellipse fill="none" stroke="black" cx="2951.16" cy="-253" rx="42.79" ry="18"/>
<text text-anchor="middle" x="2951.16" y="-247.38" font-family="Times,serif" font-size="15.00">publish</text>
</g>
<!-- 6635423312&#45;&#45;6635432976 -->
<g id="edge44" class="edge">
<title>6635423312&#45;&#45;6635432976</title>
<path fill="none" stroke="black" d="M2622.12,-379.14C2683.14,-355.68 2849.03,-291.89 2918.69,-265.1"/>
</g>
<!-- 6635434896 -->
<g id="node58" class="node">
<title>6635434896</title>
<ellipse fill="none" stroke="black" cx="2951.16" cy="-199" rx="27" ry="18"/>
<text text-anchor="middle" x="2951.16" y="-193.38" font-family="Times,serif" font-size="15.00">xor</text>
</g>
<!-- 6635423312&#45;&#45;6635434896 -->
<g id="edge52" class="edge">
<title>6635423312&#45;&#45;6635434896</title>
<path fill="none" stroke="black" d="M2619.74,-376.88C2681.91,-343.41 2866.88,-243.83 2929.31,-210.22"/>
</g>
<!-- 6635424336 -->
<g id="node66" class="node">
<title>6635424336</title>
<ellipse fill="none" stroke="black" cx="2951.16" cy="-145" rx="121.18" ry="18"/>
<text text-anchor="middle" x="2951.16" y="-139.38" font-family="Times,serif" font-size="15.00">send confirmation receipt</text>
</g>
<!-- 6635423312&#45;&#45;6635424336 -->
<g id="edge53" class="edge">
<title>6635423312&#45;&#45;6635424336</title>
<path fill="none" stroke="black" d="M2617.47,-375.28C2675.73,-334.95 2856.47,-209.85 2924.19,-162.98"/>
</g>
<!-- 6635437648 -->
<g id="node28" class="node">
<title>6635437648</title>
<ellipse fill="none" stroke="black" cx="3326.32" cy="-901" rx="27" ry="18"/>
<text text-anchor="middle" x="3326.32" y="-895.38" font-family="Times,serif" font-size="15.00">seq</text>
</g>
<!-- 6635429520&#45;&#45;6635437648 -->
<g id="edge16" class="edge">
<title>6635429520&#45;&#45;6635437648</title>
<path fill="none" stroke="black" d="M2973.29,-722.7C3038.97,-755.97 3239.06,-857.31 3304.42,-890.41"/>
</g>
<!-- 6635423696 -->
<g id="node31" class="node">
<title>6635423696</title>
<ellipse fill="none" stroke="black" cx="3326.32" cy="-712" rx="27" ry="18"/>
<text text-anchor="middle" x="3326.32" y="-706.38" font-family="Times,serif" font-size="15.00">seq</text>
</g>
<!-- 6635429520&#45;&#45;6635423696 -->
<g id="edge23" class="edge">
<title>6635429520&#45;&#45;6635423696</title>
<path fill="none" stroke="black" d="M2978.4,-712C3046.91,-712 3230.63,-712 3299.11,-712"/>
</g>
<!-- 6635435280 -->
<g id="node29" class="node">
<title>6635435280</title>
<ellipse fill="none" stroke="black" cx="3807.23" cy="-955" rx="135.39" ry="18"/>
<text text-anchor="middle" x="3807.23" y="-949.38" font-family="Times,serif" font-size="15.00">calculate provisional charges</text>
</g>
<!-- 6635437648&#45;&#45;6635435280 -->
<g id="edge14" class="edge">
<title>6635437648&#45;&#45;6635435280</title>
<path fill="none" stroke="black" d="M3353.41,-903.94C3418.31,-911.26 3589.89,-930.61 3702.22,-943.27"/>
</g>
<!-- 6635434192 -->
<g id="node30" class="node">
<title>6635434192</title>
<ellipse fill="none" stroke="black" cx="3807.23" cy="-901" rx="203.78" ry="18"/>
<text text-anchor="middle" x="3807.23" y="-895.38" font-family="Times,serif" font-size="15.00">no permit needed or only notification needed</text>
</g>
<!-- 6635437648&#45;&#45;6635434192 -->
<g id="edge15" class="edge">
<title>6635437648&#45;&#45;6635434192</title>
<path fill="none" stroke="black" d="M3353.75,-901C3401.55,-901 3506.39,-901 3603.13,-901"/>
</g>
<!-- 6635437840 -->
<g id="node32" class="node">
<title>6635437840</title>
<ellipse fill="none" stroke="black" cx="3807.23" cy="-847" rx="112.76" ry="18"/>
<text text-anchor="middle" x="3807.23" y="-841.38" font-family="Times,serif" font-size="15.00">applicant is stakeholder</text>
</g>
<!-- 6635423696&#45;&#45;6635437840 -->
<g id="edge17" class="edge">
<title>6635423696&#45;&#45;6635437840</title>
<path fill="none" stroke="black" d="M3351.73,-718.88C3425.11,-739.57 3645.13,-801.59 3749.76,-831.08"/>
</g>
<!-- 6635430480 -->
<g id="node33" class="node">
<title>6635430480</title>
<ellipse fill="none" stroke="black" cx="3807.23" cy="-793" rx="134.33" ry="18"/>
<text text-anchor="middle" x="3807.23" y="-787.38" font-family="Times,serif" font-size="15.00">send procedure confirmation</text>
</g>
<!-- 6635423696&#45;&#45;6635430480 -->
<g id="edge18" class="edge">
<title>6635423696&#45;&#45;6635430480</title>
<path fill="none" stroke="black" d="M3352.73,-716.3C3420.99,-727.84 3610.7,-759.93 3721.94,-778.74"/>
</g>
<!-- 6635423888 -->
<g id="node34" class="node">
<title>6635423888</title>
<ellipse fill="none" stroke="black" cx="3807.23" cy="-739" rx="176.42" ry="18"/>
<text text-anchor="middle" x="3807.23" y="-733.38" font-family="Times,serif" font-size="15.00">enter senddate procedure confirmation</text>
</g>
<!-- 6635423696&#45;&#45;6635423888 -->
<g id="edge19" class="edge">
<title>6635423696&#45;&#45;6635423888</title>
<path fill="none" stroke="black" d="M3353.41,-713.47C3409.14,-716.61 3543.51,-724.19 3651.5,-730.28"/>
</g>
<!-- 6635432016 -->
<g id="node35" class="node">
<title>6635432016</title>
<ellipse fill="none" stroke="black" cx="3807.23" cy="-685" rx="101.19" ry="18"/>
<text text-anchor="middle" x="3807.23" y="-679.38" font-family="Times,serif" font-size="15.00">retrieve missing data</text>
</g>
<!-- 6635423696&#45;&#45;6635432016 -->
<g id="edge20" class="edge">
<title>6635423696&#45;&#45;6635432016</title>
<path fill="none" stroke="black" d="M3353.41,-710.53C3419.87,-706.78 3598.21,-696.73 3710.22,-690.41"/>
</g>
<!-- 6635425360 -->
<g id="node36" class="node">
<title>6635425360</title>
<ellipse fill="none" stroke="black" cx="3807.23" cy="-631" rx="165.37" ry="18"/>
<text text-anchor="middle" x="3807.23" y="-625.38" font-family="Times,serif" font-size="15.00">enter senddate retrieve missing data</text>
</g>
<!-- 6635423696&#45;&#45;6635425360 -->
<g id="edge21" class="edge">
<title>6635423696&#45;&#45;6635425360</title>
<path fill="none" stroke="black" d="M3352.73,-707.7C3419.64,-696.39 3603.22,-665.34 3715.23,-646.39"/>
</g>
<!-- 6635429776 -->
<g id="node37" class="node">
<title>6635429776</title>
<ellipse fill="none" stroke="black" cx="3807.23" cy="-577" rx="99.08" ry="18"/>
<text text-anchor="middle" x="3807.23" y="-571.38" font-family="Times,serif" font-size="15.00">terminate on request</text>
</g>
<!-- 6635423696&#45;&#45;6635429776 -->
<g id="edge22" class="edge">
<title>6635423696&#45;&#45;6635429776</title>
<path fill="none" stroke="black" d="M3351.73,-705.12C3425.59,-684.3 3647.99,-621.61 3751.78,-592.35"/>
</g>
<!-- 6635436368 -->
<g id="node39" class="node">
<title>6635436368</title>
<ellipse fill="none" stroke="black" cx="3326.32" cy="-577" rx="139.07" ry="18"/>
<text text-anchor="middle" x="3326.32" y="-571.38" font-family="Times,serif" font-size="15.00">initiative competent authority</text>
</g>
<!-- 6635433040&#45;&#45;6635436368 -->
<g id="edge25" class="edge">
<title>6635433040&#45;&#45;6635436368</title>
<path fill="none" stroke="black" d="M2978.4,-577C3021.45,-577 3109.98,-577 3186.83,-577"/>
</g>
<!-- 6635422736 -->
<g id="node40" class="node">
<title>6635422736</title>
<ellipse fill="none" stroke="black" cx="3326.32" cy="-523" rx="27" ry="18"/>
<text text-anchor="middle" x="3326.32" y="-517.38" font-family="Times,serif" font-size="15.00">seq</text>
</g>
<!-- 6635433040&#45;&#45;6635422736 -->
<g id="edge28" class="edge">
<title>6635433040&#45;&#45;6635422736</title>
<path fill="none" stroke="black" d="M2977.8,-573.29C3045.98,-563.42 3231.12,-536.63 3299.49,-526.74"/>
</g>
<!-- 6635423568 -->
<g id="node41" class="node">
<title>6635423568</title>
<ellipse fill="none" stroke="black" cx="3807.23" cy="-523" rx="266.39" ry="18"/>
<text text-anchor="middle" x="3807.23" y="-517.38" font-family="Times,serif" font-size="15.00">enter senddate letter no permit or only notification required</text>
</g>
<!-- 6635422736&#45;&#45;6635423568 -->
<g id="edge26" class="edge">
<title>6635422736&#45;&#45;6635423568</title>
<path fill="none" stroke="black" d="M3353.75,-523C3391.3,-523 3464.06,-523 3540.44,-523"/>
</g>
<!-- 6635427216 -->
<g id="node42" class="node">
<title>6635427216</title>
<ellipse fill="none" stroke="black" cx="3807.23" cy="-469" rx="230.61" ry="18"/>
<text text-anchor="middle" x="3807.23" y="-463.38" font-family="Times,serif" font-size="15.00">create letter no permit or only notification required</text>
</g>
<!-- 6635422736&#45;&#45;6635427216 -->
<g id="edge27" class="edge">
<title>6635422736&#45;&#45;6635427216</title>
<path fill="none" stroke="black" d="M3353.41,-520.06C3412.89,-513.35 3561.99,-496.54 3672.95,-484.03"/>
</g>
<!-- 6635437776 -->
<g id="node45" class="node">
<title>6635437776</title>
<ellipse fill="none" stroke="black" cx="3326.32" cy="-469" rx="125.39" ry="18"/>
<text text-anchor="middle" x="3326.32" y="-463.38" font-family="Times,serif" font-size="15.00">inform BAG administrator</text>
</g>
<!-- 6635422288&#45;&#45;6635437776 -->
<g id="edge31" class="edge">
<title>6635422288&#45;&#45;6635437776</title>
<path fill="none" stroke="black" d="M2978.4,-469C3024.02,-469 3120.71,-469 3200.46,-469"/>
</g>
<!-- 6635435856 -->
<g id="node46" class="node">
<title>6635435856</title>
<ellipse fill="none" stroke="black" cx="3326.32" cy="-415" rx="178.53" ry="18"/>
<text text-anchor="middle" x="3326.32" y="-409.38" font-family="Times,serif" font-size="15.00">enter date termination request received</text>
</g>
<!-- 6635422288&#45;&#45;6635435856 -->
<g id="edge32" class="edge">
<title>6635422288&#45;&#45;6635435856</title>
<path fill="none" stroke="black" d="M2977.8,-465.29C3027.29,-458.13 3138.39,-442.05 3221.74,-429.99"/>
</g>
<!-- 6635428624 -->
<g id="node49" class="node">
<title>6635428624</title>
<ellipse fill="black" stroke="black" cx="3326.32" cy="-369" rx="2.7" ry="2.7"/>
</g>
<!-- 6635426960&#45;&#45;6635428624 -->
<g id="edge35" class="edge">
<title>6635426960&#45;&#45;6635428624</title>
<path fill="none" stroke="black" d="M2978.4,-361.56C3059.02,-363.29 3299.17,-368.44 3323.35,-368.96"/>
</g>
<!-- 6635428304 -->
<g id="node50" class="node">
<title>6635428304</title>
<ellipse fill="none" stroke="black" cx="3326.32" cy="-330" rx="27" ry="18"/>
<text text-anchor="middle" x="3326.32" y="-324.38" font-family="Times,serif" font-size="15.00">seq</text>
</g>
<!-- 6635426960&#45;&#45;6635428304 -->
<g id="edge41" class="edge">
<title>6635426960&#45;&#45;6635428304</title>
<path fill="none" stroke="black" d="M2978.4,-358.82C3046.91,-353.13 3230.63,-337.87 3299.11,-332.18"/>
</g>
<!-- 6635425488 -->
<g id="node51" class="node">
<title>6635425488</title>
<ellipse fill="none" stroke="black" cx="3807.23" cy="-384" rx="27" ry="18"/>
<text text-anchor="middle" x="3807.23" y="-378.38" font-family="Times,serif" font-size="15.00">xor</text>
</g>
<!-- 6635428304&#45;&#45;6635425488 -->
<g id="edge38" class="edge">
<title>6635428304&#45;&#45;6635425488</title>
<path fill="none" stroke="black" d="M3353.41,-332.94C3436.85,-342.35 3696.64,-371.64 3780.12,-381.06"/>
</g>
<!-- 6635434576 -->
<g id="node54" class="node">
<title>6635434576</title>
<ellipse fill="none" stroke="black" cx="3807.23" cy="-330" rx="129.07" ry="18"/>
<text text-anchor="middle" x="3807.23" y="-324.38" font-family="Times,serif" font-size="15.00">activities regular procedure</text>
</g>
<!-- 6635428304&#45;&#45;6635434576 -->
<g id="edge39" class="edge">
<title>6635428304&#45;&#45;6635434576</title>
<path fill="none" stroke="black" d="M3353.75,-330C3414.34,-330 3566.61,-330 3677.82,-330"/>
</g>
<!-- 6635435664 -->
<g id="node55" class="node">
<title>6635435664</title>
<ellipse fill="none" stroke="black" cx="3807.23" cy="-276" rx="91.19" ry="18"/>
<text text-anchor="middle" x="3807.23" y="-270.38" font-family="Times,serif" font-size="15.00">phased application</text>
</g>
<!-- 6635428304&#45;&#45;6635435664 -->
<g id="edge40" class="edge">
<title>6635428304&#45;&#45;6635435664</title>
<path fill="none" stroke="black" d="M3353.41,-327.06C3423.39,-319.17 3617.38,-297.29 3727.4,-284.89"/>
</g>
<!-- 6635431888 -->
<g id="node52" class="node">
<title>6635431888</title>
<ellipse fill="none" stroke="black" cx="4181.87" cy="-411" rx="72.25" ry="18"/>
<text text-anchor="middle" x="4181.87" y="-405.38" font-family="Times,serif" font-size="15.00">MER required</text>
</g>
<!-- 6635425488&#45;&#45;6635431888 -->
<g id="edge36" class="edge">
<title>6635425488&#45;&#45;6635431888</title>
<path fill="none" stroke="black" d="M3834.44,-385.9C3891.43,-390.03 4028.22,-399.94 4111.86,-406"/>
</g>
<!-- 6635436112 -->
<g id="node53" class="node">
<title>6635436112</title>
<ellipse fill="none" stroke="black" cx="4181.87" cy="-357" rx="67.52" ry="18"/>
<text text-anchor="middle" x="4181.87" y="-351.38" font-family="Times,serif" font-size="15.00">MER present</text>
</g>
<!-- 6635425488&#45;&#45;6635436112 -->
<g id="edge37" class="edge">
<title>6635425488&#45;&#45;6635436112</title>
<path fill="none" stroke="black" d="M3834.44,-382.1C3892.42,-377.9 4033.02,-367.71 4116.19,-361.69"/>
</g>
<!-- 6635421776 -->
<g id="node59" class="node">
<title>6635421776</title>
<ellipse fill="none" stroke="black" cx="3326.32" cy="-253" rx="134.86" ry="18"/>
<text text-anchor="middle" x="3326.32" y="-247.38" font-family="Times,serif" font-size="15.00">read field phased application</text>
</g>
<!-- 6635434896&#45;&#45;6635421776 -->
<g id="edge45" class="edge">
<title>6635434896&#45;&#45;6635421776</title>
<path fill="none" stroke="black" d="M2977.8,-202.71C3029.59,-210.21 3148.88,-227.47 3233.2,-239.67"/>
</g>
<!-- 6635426832 -->
<g id="node60" class="node">
<title>6635426832</title>
<ellipse fill="none" stroke="black" cx="3326.32" cy="-199" rx="153.27" ry="18"/>
<text text-anchor="middle" x="3326.32" y="-193.38" font-family="Times,serif" font-size="15.00">create message terminate request</text>
</g>
<!-- 6635434896&#45;&#45;6635426832 -->
<g id="edge46" class="edge">
<title>6635434896&#45;&#45;6635426832</title>
<path fill="none" stroke="black" d="M2978.4,-199C3018.87,-199 3099.56,-199 3172.94,-199"/>
</g>
<!-- 6635435152 -->
<g id="node61" class="node">
<title>6635435152</title>
<ellipse fill="none" stroke="black" cx="3326.32" cy="-145" rx="27" ry="18"/>
<text text-anchor="middle" x="3326.32" y="-139.38" font-family="Times,serif" font-size="15.00">seq</text>
</g>
<!-- 6635434896&#45;&#45;6635435152 -->
<g id="edge51" class="edge">
<title>6635434896&#45;&#45;6635435152</title>
<path fill="none" stroke="black" d="M2977.8,-195.29C3045.98,-185.42 3231.12,-158.63 3299.49,-148.74"/>
</g>
<!-- 6635430800 -->
<g id="node62" class="node">
<title>6635430800</title>
<ellipse fill="none" stroke="black" cx="3807.23" cy="-211" rx="137.49" ry="18"/>
<text text-anchor="middle" x="3807.23" y="-205.38" font-family="Times,serif" font-size="15.00">create subcases completeness</text>
</g>
<!-- 6635435152&#45;&#45;6635430800 -->
<g id="edge47" class="edge">
<title>6635435152&#45;&#45;6635430800</title>
<path fill="none" stroke="black" d="M3353.07,-148.55C3419.32,-157.68 3598.34,-182.35 3710.52,-197.81"/>
</g>
<!-- 6635424464 -->
<g id="node63" class="node">
<title>6635424464</title>
<ellipse fill="none" stroke="black" cx="3807.23" cy="-157" rx="132.76" ry="18"/>
<text text-anchor="middle" x="3807.23" y="-151.38" font-family="Times,serif" font-size="15.00">create publication document</text>
</g>
<!-- 6635435152&#45;&#45;6635424464 -->
<g id="edge48" class="edge">
<title>6635435152&#45;&#45;6635424464</title>
<path fill="none" stroke="black" d="M3353.75,-145.66C3414.05,-147.17 3565.13,-150.96 3676.2,-153.74"/>
</g>
<!-- 6635436176 -->
<g id="node64" class="node">
<title>6635436176</title>
<ellipse fill="none" stroke="black" cx="3807.23" cy="-103" rx="86.46" ry="18"/>
<text text-anchor="middle" x="3807.23" y="-97.38" font-family="Times,serif" font-size="15.00">procedure change</text>
</g>
<!-- 6635435152&#45;&#45;6635436176 -->
<g id="edge49" class="edge">
<title>6635435152&#45;&#45;6635436176</title>
<path fill="none" stroke="black" d="M3353.41,-142.71C3423.29,-136.58 3616.84,-119.61 3726.94,-109.95"/>
</g>
<!-- 6635425168 -->
<g id="node65" class="node">
<title>6635425168</title>
<ellipse fill="none" stroke="black" cx="3807.23" cy="-49" rx="131.18" ry="18"/>
<text text-anchor="middle" x="3807.23" y="-43.38" font-family="Times,serif" font-size="15.00">treat subcases completeness</text>
</g>
<!-- 6635435152&#45;&#45;6635425168 -->
<g id="edge50" class="edge">
<title>6635435152&#45;&#45;6635425168</title>
<path fill="none" stroke="black" d="M3352.73,-139.91C3422.93,-125.84 3621.54,-86.02 3731.2,-64.04"/>
</g>
<!-- 6635185296 -->
<g id="node68" class="node">
<title>6635185296</title>
<ellipse fill="none" stroke="black" cx="2598.09" cy="-334" rx="156.43" ry="18"/>
<text text-anchor="middle" x="2598.09" y="-328.38" font-family="Times,serif" font-size="15.00">subcases completeness completed</text>
</g>
<!-- 6635431120&#45;&#45;6635185296 -->
<g id="edge56" class="edge">
<title>6635431120&#45;&#45;6635185296</title>
<path fill="none" stroke="black" d="M2405.88,-334C2415.82,-334 2427.99,-334 2441.34,-334"/>
</g>
<!-- 6635185040 -->
<g id="node69" class="node">
<title>6635185040</title>
<ellipse fill="none" stroke="black" cx="2598.09" cy="-280" rx="124.86" ry="18"/>
<text text-anchor="middle" x="2598.09" y="-274.38" font-family="Times,serif" font-size="15.00">message terminate request</text>
</g>
<!-- 6635431120&#45;&#45;6635185040 -->
<g id="edge57" class="edge">
<title>6635431120&#45;&#45;6635185040</title>
<path fill="none" stroke="black" d="M2404.18,-327.91C2435.38,-320.16 2490.44,-306.49 2533.77,-295.72"/>
</g>
<!-- 6635191440 -->
<g id="node71" class="node">
<title>6635191440</title>
<ellipse fill="black" stroke="black" cx="2209.73" cy="-315" rx="2.7" ry="2.7"/>
</g>
<!-- 6635435344&#45;&#45;6635191440 -->
<g id="edge61" class="edge">
<title>6635435344&#45;&#45;6635191440</title>
<path fill="none" stroke="black" d="M2068.26,-311.63C2111.28,-312.66 2193.02,-314.62 2206.75,-314.95"/>
</g>
<!-- 6635186192 -->
<g id="node72" class="node">
<title>6635186192</title>
<ellipse fill="none" stroke="black" cx="2209.73" cy="-276" rx="84.35" ry="18"/>
<text text-anchor="middle" x="2209.73" y="-270.38" font-family="Times,serif" font-size="15.00">request complete</text>
</g>
<!-- 6635435344&#45;&#45;6635186192 -->
<g id="edge62" class="edge">
<title>6635435344&#45;&#45;6635186192</title>
<path fill="none" stroke="black" d="M2066.8,-305.76C2088.26,-301.26 2120.1,-294.59 2148.18,-288.7"/>
</g>
<!-- 6635180752 -->
<g id="node74" class="node">
<title>6635180752</title>
<ellipse fill="black" stroke="black" cx="1845.58" cy="-292" rx="2.7" ry="2.7"/>
</g>
<!-- 6635426512&#45;&#45;6635180752 -->
<g id="edge66" class="edge">
<title>6635426512&#45;&#45;6635180752</title>
<path fill="none" stroke="black" d="M1520.39,-288.3C1597.45,-289.18 1818.52,-291.7 1842.47,-291.98"/>
</g>
<!-- 6635192144 -->
<g id="node75" class="node">
<title>6635192144</title>
<ellipse fill="none" stroke="black" cx="1845.58" cy="-253" rx="92.77" ry="18"/>
<text text-anchor="middle" x="1845.58" y="-247.38" font-family="Times,serif" font-size="15.00">phase case handled</text>
</g>
<!-- 6635426512&#45;&#45;6635192144 -->
<g id="edge67" class="edge">
<title>6635426512&#45;&#45;6635192144</title>
<path fill="none" stroke="black" d="M1520.1,-285.4C1570.64,-280.35 1683.86,-269.05 1762.23,-261.22"/>
</g>
<!-- 6635185104 -->
<g id="node77" class="node">
<title>6635185104</title>
<ellipse fill="black" stroke="black" cx="1245.72" cy="-254" rx="2.7" ry="2.7"/>
</g>
<!-- 6635525648&#45;&#45;6635185104 -->
<g id="edge71" class="edge">
<title>6635525648&#45;&#45;6635185104</title>
<path fill="none" stroke="black" d="M1050.77,-254C1104.96,-254 1226.03,-254 1242.79,-254"/>
</g>
<!-- 6635182352 -->
<g id="node78" class="node">
<title>6635182352</title>
<ellipse fill="none" stroke="black" cx="1245.72" cy="-153" rx="27" ry="18"/>
<text text-anchor="middle" x="1245.72" y="-147.38" font-family="Times,serif" font-size="15.00">seq</text>
</g>
<!-- 6635525648&#45;&#45;6635182352 -->
<g id="edge77" class="edge">
<title>6635525648&#45;&#45;6635182352</title>
<path fill="none" stroke="black" d="M1046.57,-243.95C1088.75,-224.59 1180.8,-182.34 1222.91,-163.01"/>
</g>
<!-- 6635178192 -->
<g id="node79" class="node">
<title>6635178192</title>
<ellipse fill="none" stroke="black" cx="1493.04" cy="-234" rx="131.7" ry="18"/>
<text text-anchor="middle" x="1493.04" y="-228.38" font-family="Times,serif" font-size="15.00">stop all running subcases 2b</text>
</g>
<!-- 6635182352&#45;&#45;6635178192 -->
<g id="edge72" class="edge">
<title>6635182352&#45;&#45;6635178192</title>
<path fill="none" stroke="black" d="M1270.25,-160.77C1309.34,-173.68 1388.57,-199.84 1440.97,-217.14"/>
</g>
<!-- 6635177296 -->
<g id="node80" class="node">
<title>6635177296</title>
<ellipse fill="none" stroke="black" cx="1493.04" cy="-180" rx="95.93" ry="18"/>
<text text-anchor="middle" x="1493.04" y="-174.38" font-family="Times,serif" font-size="15.00">phase archived case</text>
</g>
<!-- 6635182352&#45;&#45;6635177296 -->
<g id="edge73" class="edge">
<title>6635182352&#45;&#45;6635177296</title>
<path fill="none" stroke="black" d="M1272.51,-155.84C1304.74,-159.39 1361.47,-165.63 1409.19,-170.88"/>
</g>
<!-- 6635188880 -->
<g id="node81" class="node">
<title>6635188880</title>
<ellipse fill="none" stroke="black" cx="1493.04" cy="-126" rx="82.77" ry="18"/>
<text text-anchor="middle" x="1493.04" y="-120.38" font-family="Times,serif" font-size="15.00">register deadline</text>
</g>
<!-- 6635182352&#45;&#45;6635188880 -->
<g id="edge74" class="edge">
<title>6635182352&#45;&#45;6635188880</title>
<path fill="none" stroke="black" d="M1272.51,-150.16C1306.83,-146.38 1368.94,-139.55 1418.35,-134.11"/>
</g>
<!-- 6635176464 -->
<g id="node82" class="node">
<title>6635176464</title>
<ellipse fill="none" stroke="black" cx="1493.04" cy="-72" rx="115.39" ry="18"/>
<text text-anchor="middle" x="1493.04" y="-66.38" font-family="Times,serif" font-size="15.00">phase procedure aborted</text>
</g>
<!-- 6635182352&#45;&#45;6635176464 -->
<g id="edge75" class="edge">
<title>6635182352&#45;&#45;6635176464</title>
<path fill="none" stroke="black" d="M1270.25,-145.23C1309.58,-132.25 1389.54,-105.84 1441.93,-88.54"/>
</g>
<!-- 6635188432 -->
<g id="node83" class="node">
<title>6635188432</title>
<ellipse fill="none" stroke="black" cx="1493.04" cy="-18" rx="54.36" ry="18"/>
<text text-anchor="middle" x="1493.04" y="-12.38" font-family="Times,serif" font-size="15.00">close case</text>
</g>
<!-- 6635182352&#45;&#45;6635188432 -->
<g id="edge76" class="edge">
<title>6635182352&#45;&#45;6635188432</title>
<path fill="none" stroke="black" d="M1267.22,-141.72C1311.09,-117.58 1414.16,-60.86 1464.03,-33.41"/>
</g>
<!-- 6635188176 -->
<g id="node85" class="node">
<title>6635188176</title>
<ellipse fill="black" stroke="black" cx="332.75" cy="-330" rx="2.7" ry="2.7"/>
</g>
<!-- 6635182544&#45;&#45;6635188176 -->
<g id="edge83" class="edge">
<title>6635182544&#45;&#45;6635188176</title>
<path fill="none" stroke="black" d="M144.21,-330C197.27,-330 313.76,-330 329.88,-330"/>
</g>
<!-- 6635178384 -->
<g id="node86" class="node">
<title>6635178384</title>
<ellipse fill="none" stroke="black" cx="332.75" cy="-291" rx="128.02" ry="18"/>
<text text-anchor="middle" x="332.75" y="-285.38" font-family="Times,serif" font-size="15.00">phase application receptive</text>
</g>
<!-- 6635182544&#45;&#45;6635178384 -->
<g id="edge84" class="edge">
<title>6635182544&#45;&#45;6635178384</title>
<path fill="none" stroke="black" d="M143.36,-325.37C170.23,-320.47 214.03,-312.48 252.64,-305.43"/>
</g>
</g>
</svg>
