<?xml version="1.0" encoding="UTF-8" standalone="no"?>
<!DOCTYPE svg PUBLIC "-//W3C//DTD SVG 1.1//EN"
 "http://www.w3.org/Graphics/SVG/1.1/DTD/svg11.dtd">
<!-- Generated by graphviz version 8.0.5 (20230430.1635)
 -->
<!-- Title: pt Pages: 1 -->
<svg width="1553pt" height="476pt"
 viewBox="0.00 0.00 1553.19 476.00" xmlns="http://www.w3.org/2000/svg" xmlns:xlink="http://www.w3.org/1999/xlink">
<g id="graph0" class="graph" transform="scale(1 1) rotate(0) translate(4 472)">
<title>pt</title>
<polygon fill="white" stroke="none" points="-4,4 -4,-472 1549.19,-472 1549.19,4 -4,4"/>
<!-- 6631212816 -->
<g id="node1" class="node">
<title>6631212816</title>
<ellipse fill="none" stroke="black" cx="27" cy="-288" rx="27" ry="18"/>
<text text-anchor="middle" x="27" y="-282.38" font-family="Times,serif" font-size="15.00">seq</text>
</g>
<!-- 6631220048 -->
<g id="node2" class="node">
<title>6631220048</title>
<ellipse fill="none" stroke="black" cx="242.75" cy="-450" rx="149.06" ry="18"/>
<text text-anchor="middle" x="242.75" y="-444.38" font-family="Times,serif" font-size="15.00">register submission date request</text>
</g>
<!-- 6631212816&#45;&#45;6631220048 -->
<g id="edge1" class="edge">
<title>6631212816&#45;&#45;6631220048</title>
<path fill="none" stroke="black" d="M45.49,-301.26C83.68,-330.2 174.55,-399.07 217.92,-431.94"/>
</g>
<!-- 6631222416 -->
<g id="node3" class="node">
<title>6631222416</title>
<ellipse fill="none" stroke="black" cx="242.75" cy="-396" rx="108.55" ry="18"/>
<text text-anchor="middle" x="242.75" y="-390.38" font-family="Times,serif" font-size="15.00">OLO messaging active</text>
</g>
<!-- 6631212816&#45;&#45;6631222416 -->
<g id="edge2" class="edge">
<title>6631212816&#45;&#45;6631222416</title>
<path fill="none" stroke="black" d="M49.28,-298.75C86.23,-317.42 162.61,-356.01 207.23,-378.56"/>
</g>
<!-- 6631222992 -->
<g id="node4" class="node">
<title>6631222992</title>
<ellipse fill="none" stroke="black" cx="242.75" cy="-342" rx="27" ry="18"/>
<text text-anchor="middle" x="242.75" y="-336.38" font-family="Times,serif" font-size="15.00">xor</text>
</g>
<!-- 6631212816&#45;&#45;6631222992 -->
<g id="edge8" class="edge">
<title>6631212816&#45;&#45;6631222992</title>
<path fill="none" stroke="black" d="M52.52,-294.19C93.64,-304.58 176.04,-325.4 217.19,-335.79"/>
</g>
<!-- 6631215568 -->
<g id="node10" class="node">
<title>6631215568</title>
<ellipse fill="none" stroke="black" cx="242.75" cy="-288" rx="27" ry="18"/>
<text text-anchor="middle" x="242.75" y="-282.38" font-family="Times,serif" font-size="15.00">and</text>
</g>
<!-- 6631212816&#45;&#45;6631215568 -->
<g id="edge20" class="edge">
<title>6631212816&#45;&#45;6631215568</title>
<path fill="none" stroke="black" d="M54.21,-288C95.23,-288 174.17,-288 215.32,-288"/>
</g>
<!-- 6631226128 -->
<g id="node22" class="node">
<title>6631226128</title>
<ellipse fill="none" stroke="black" cx="242.75" cy="-234" rx="124.86" ry="18"/>
<text text-anchor="middle" x="242.75" y="-228.38" font-family="Times,serif" font-size="15.00">phase application received</text>
</g>
<!-- 6631212816&#45;&#45;6631226128 -->
<g id="edge21" class="edge">
<title>6631212816&#45;&#45;6631226128</title>
<path fill="none" stroke="black" d="M52.52,-281.81C83.11,-274.08 136.55,-260.58 178.86,-249.89"/>
</g>
<!-- 6632398096 -->
<g id="node23" class="node">
<title>6632398096</title>
<ellipse fill="none" stroke="black" cx="242.75" cy="-180" rx="152.75" ry="18"/>
<text text-anchor="middle" x="242.75" y="-174.38" font-family="Times,serif" font-size="15.00">enter senddate acknowledgement</text>
</g>
<!-- 6631212816&#45;&#45;6632398096 -->
<g id="edge22" class="edge">
<title>6631212816&#45;&#45;6632398096</title>
<path fill="none" stroke="black" d="M49.28,-277.25C86.02,-258.68 161.73,-220.43 206.47,-197.83"/>
</g>
<!-- 6632401744 -->
<g id="node24" class="node">
<title>6632401744</title>
<ellipse fill="none" stroke="black" cx="242.75" cy="-126" rx="27" ry="18"/>
<text text-anchor="middle" x="242.75" y="-120.38" font-family="Times,serif" font-size="15.00">xor</text>
</g>
<!-- 6631212816&#45;&#45;6632401744 -->
<g id="edge28" class="edge">
<title>6631212816&#45;&#45;6632401744</title>
<path fill="none" stroke="black" d="M45.49,-274.74C85.57,-244.36 183.7,-169.99 224.01,-139.44"/>
</g>
<!-- 6631211984 -->
<g id="node5" class="node">
<title>6631211984</title>
<ellipse fill="black" stroke="black" cx="635.27" cy="-435" rx="2.7" ry="2.7"/>
</g>
<!-- 6631222992&#45;&#45;6631211984 -->
<g id="edge3" class="edge">
<title>6631222992&#45;&#45;6631211984</title>
<path fill="none" stroke="black" d="M268.77,-347.96C350.59,-367.44 606.4,-428.36 632.18,-434.5"/>
</g>
<!-- 6631213584 -->
<g id="node6" class="node">
<title>6631213584</title>
<ellipse fill="none" stroke="black" cx="635.27" cy="-396" rx="27" ry="18"/>
<text text-anchor="middle" x="635.27" y="-390.38" font-family="Times,serif" font-size="15.00">seq</text>
</g>
<!-- 6631222992&#45;&#45;6631213584 -->
<g id="edge7" class="edge">
<title>6631222992&#45;&#45;6631213584</title>
<path fill="none" stroke="black" d="M269.67,-345.58C340.63,-355.4 537.41,-382.61 608.36,-392.42"/>
</g>
<!-- 6631215760 -->
<g id="node7" class="node">
<title>6631215760</title>
<ellipse fill="none" stroke="black" cx="1059.37" cy="-450" rx="112.76" ry="18"/>
<text text-anchor="middle" x="1059.37" y="-444.38" font-family="Times,serif" font-size="15.00">applicant is stakeholder</text>
</g>
<!-- 6631213584&#45;&#45;6631215760 -->
<g id="edge4" class="edge">
<title>6631213584&#45;&#45;6631215760</title>
<path fill="none" stroke="black" d="M662.04,-399.3C721.91,-406.96 872.72,-426.25 970.08,-438.71"/>
</g>
<!-- 6631221328 -->
<g id="node8" class="node">
<title>6631221328</title>
<ellipse fill="none" stroke="black" cx="1059.37" cy="-396" rx="99.08" ry="18"/>
<text text-anchor="middle" x="1059.37" y="-390.38" font-family="Times,serif" font-size="15.00">terminate on request</text>
</g>
<!-- 6631213584&#45;&#45;6631221328 -->
<g id="edge5" class="edge">
<title>6631213584&#45;&#45;6631221328</title>
<path fill="none" stroke="black" d="M662.68,-396C720.88,-396 862.75,-396 959.8,-396"/>
</g>
<!-- 6631218192 -->
<g id="node9" class="node">
<title>6631218192</title>
<ellipse fill="none" stroke="black" cx="1059.37" cy="-342" rx="135.39" ry="18"/>
<text text-anchor="middle" x="1059.37" y="-336.38" font-family="Times,serif" font-size="15.00">calculate provisional charges</text>
</g>
<!-- 6631213584&#45;&#45;6631218192 -->
<g id="edge6" class="edge">
<title>6631213584&#45;&#45;6631218192</title>
<path fill="none" stroke="black" d="M662.04,-392.7C719.95,-385.3 862.9,-367.01 960.31,-354.54"/>
</g>
<!-- 6631221904 -->
<g id="node11" class="node">
<title>6631221904</title>
<ellipse fill="none" stroke="black" cx="635.27" cy="-342" rx="160.64" ry="18"/>
<text text-anchor="middle" x="635.27" y="-336.38" font-family="Times,serif" font-size="15.00">forward to the competent authority</text>
</g>
<!-- 6631215568&#45;&#45;6631221904 -->
<g id="edge9" class="edge">
<title>6631215568&#45;&#45;6631221904</title>
<path fill="none" stroke="black" d="M269.67,-291.58C322.23,-298.85 443.82,-315.66 532.17,-327.88"/>
</g>
<!-- 6631214864 -->
<g id="node12" class="node">
<title>6631214864</title>
<ellipse fill="none" stroke="black" cx="635.27" cy="-288" rx="140.65" ry="18"/>
<text text-anchor="middle" x="635.27" y="-282.38" font-family="Times,serif" font-size="15.00">create procedure confirmation</text>
</g>
<!-- 6631215568&#45;&#45;6631214864 -->
<g id="edge10" class="edge">
<title>6631215568&#45;&#45;6631214864</title>
<path fill="none" stroke="black" d="M269.98,-288C315.47,-288 412.02,-288 494.3,-288"/>
</g>
<!-- 6631222032 -->
<g id="node13" class="node">
<title>6631222032</title>
<ellipse fill="none" stroke="black" cx="635.27" cy="-234" rx="147.49" ry="18"/>
<text text-anchor="middle" x="635.27" y="-228.38" font-family="Times,serif" font-size="15.00">regular procedure without MER</text>
</g>
<!-- 6631215568&#45;&#45;6631222032 -->
<g id="edge11" class="edge">
<title>6631215568&#45;&#45;6631222032</title>
<path fill="none" stroke="black" d="M269.67,-284.42C322.91,-277.05 446.98,-259.9 535.59,-247.65"/>
</g>
<!-- 6631226768 -->
<g id="node14" class="node">
<title>6631226768</title>
<ellipse fill="none" stroke="black" cx="635.27" cy="-180" rx="47" ry="18"/>
<text text-anchor="middle" x="635.27" y="-174.38" font-family="Times,serif" font-size="15.00">xor loop</text>
</g>
<!-- 6631215568&#45;&#45;6631226768 -->
<g id="edge19" class="edge">
<title>6631215568&#45;&#45;6631226768</title>
<path fill="none" stroke="black" d="M268.18,-281.24C334.22,-262.98 516.68,-212.52 596.29,-190.5"/>
</g>
<!-- 6631221520 -->
<g id="node15" class="node">
<title>6631221520</title>
<ellipse fill="none" stroke="black" cx="1059.37" cy="-253" rx="47" ry="18"/>
<text text-anchor="middle" x="1059.37" y="-247.38" font-family="Times,serif" font-size="15.00">xor loop</text>
</g>
<!-- 6631226768&#45;&#45;6631221520 -->
<g id="edge14" class="edge">
<title>6631226768&#45;&#45;6631221520</title>
<path fill="none" stroke="black" d="M678.68,-187.33C759.58,-201.33 935.11,-231.68 1015.99,-245.67"/>
</g>
<!-- 6631226320 -->
<g id="node18" class="node">
<title>6631226320</title>
<ellipse fill="none" stroke="black" cx="1059.37" cy="-180" rx="27" ry="18"/>
<text text-anchor="middle" x="1059.37" y="-174.38" font-family="Times,serif" font-size="15.00">seq</text>
</g>
<!-- 6631226768&#45;&#45;6631226320 -->
<g id="edge18" class="edge">
<title>6631226768&#45;&#45;6631226320</title>
<path fill="none" stroke="black" d="M682.65,-180C771.31,-180 962.25,-180 1032.09,-180"/>
</g>
<!-- 6631221264 -->
<g id="node16" class="node">
<title>6631221264</title>
<ellipse fill="none" stroke="black" cx="1412.44" cy="-292" rx="121.18" ry="18"/>
<text text-anchor="middle" x="1412.44" y="-286.38" font-family="Times,serif" font-size="15.00">send confirmation receipt</text>
</g>
<!-- 6631221520&#45;&#45;6631221264 -->
<g id="edge12" class="edge">
<title>6631221520&#45;&#45;6631221264</title>
<path fill="none" stroke="black" d="M1104.83,-257.94C1157.14,-263.75 1245.52,-273.57 1314,-281.18"/>
</g>
<!-- 6631226448 -->
<g id="node17" class="node">
<title>6631226448</title>
<ellipse fill="black" stroke="black" cx="1412.44" cy="-253" rx="2.7" ry="2.7"/>
</g>
<!-- 6631221520&#45;&#45;6631226448 -->
<g id="edge13" class="edge">
<title>6631221520&#45;&#45;6631226448</title>
<path fill="none" stroke="black" d="M1106.63,-253C1196.74,-253 1388.87,-253 1409.61,-253"/>
</g>
<!-- 6631219536 -->
<g id="node19" class="node">
<title>6631219536</title>
<ellipse fill="none" stroke="black" cx="1412.44" cy="-214" rx="125.39" ry="18"/>
<text text-anchor="middle" x="1412.44" y="-208.38" font-family="Times,serif" font-size="15.00">inform BAG administrator</text>
</g>
<!-- 6631226320&#45;&#45;6631219536 -->
<g id="edge15" class="edge">
<title>6631226320&#45;&#45;6631219536</title>
<path fill="none" stroke="black" d="M1086.47,-182.53C1132.55,-186.99 1230.69,-196.49 1307.12,-203.9"/>
</g>
<!-- 6631225808 -->
<g id="node20" class="node">
<title>6631225808</title>
<ellipse fill="none" stroke="black" cx="1412.44" cy="-160" rx="42.79" ry="18"/>
<text text-anchor="middle" x="1412.44" y="-154.38" font-family="Times,serif" font-size="15.00">publish</text>
</g>
<!-- 6631226320&#45;&#45;6631225808 -->
<g id="edge16" class="edge">
<title>6631226320&#45;&#45;6631225808</title>
<path fill="none" stroke="black" d="M1086.76,-178.5C1147.27,-175.05 1296.46,-166.55 1369.62,-162.38"/>
</g>
<!-- 6631222608 -->
<g id="node21" class="node">
<title>6631222608</title>
<ellipse fill="none" stroke="black" cx="1412.44" cy="-106" rx="132.76" ry="18"/>
<text text-anchor="middle" x="1412.44" y="-100.38" font-family="Times,serif" font-size="15.00">create publication document</text>
</g>
<!-- 6631226320&#45;&#45;6631222608 -->
<g id="edge17" class="edge">
<title>6631226320&#45;&#45;6631222608</title>
<path fill="none" stroke="black" d="M1085.62,-174.68C1137.89,-163.66 1259.68,-137.99 1338.65,-121.34"/>
</g>
<!-- 6632402896 -->
<g id="node25" class="node">
<title>6632402896</title>
<ellipse fill="none" stroke="black" cx="635.27" cy="-126" rx="203.78" ry="18"/>
<text text-anchor="middle" x="635.27" y="-120.38" font-family="Times,serif" font-size="15.00">no permit needed or only notification needed</text>
</g>
<!-- 6632401744&#45;&#45;6632402896 -->
<g id="edge23" class="edge">
<title>6632401744&#45;&#45;6632402896</title>
<path fill="none" stroke="black" d="M269.98,-126C304.18,-126 367.25,-126 431.41,-126"/>
</g>
<!-- 6632395600 -->
<g id="node26" class="node">
<title>6632395600</title>
<ellipse fill="none" stroke="black" cx="635.27" cy="-72" rx="27" ry="18"/>
<text text-anchor="middle" x="635.27" y="-66.38" font-family="Times,serif" font-size="15.00">seq</text>
</g>
<!-- 6632401744&#45;&#45;6632395600 -->
<g id="edge27" class="edge">
<title>6632401744&#45;&#45;6632395600</title>
<path fill="none" stroke="black" d="M269.67,-122.42C340.63,-112.6 537.41,-85.39 608.36,-75.58"/>
</g>
<!-- 6632399888 -->
<g id="node27" class="node">
<title>6632399888</title>
<ellipse fill="none" stroke="black" cx="1059.37" cy="-126" rx="139.07" ry="18"/>
<text text-anchor="middle" x="1059.37" y="-120.38" font-family="Times,serif" font-size="15.00">initiative competent authority</text>
</g>
<!-- 6632395600&#45;&#45;6632399888 -->
<g id="edge24" class="edge">
<title>6632395600&#45;&#45;6632399888</title>
<path fill="none" stroke="black" d="M662.04,-75.3C719.59,-82.66 861.13,-100.77 958.5,-113.22"/>
</g>
<!-- 6632391568 -->
<g id="node28" class="node">
<title>6632391568</title>
<ellipse fill="none" stroke="black" cx="1059.37" cy="-72" rx="153.27" ry="18"/>
<text text-anchor="middle" x="1059.37" y="-66.38" font-family="Times,serif" font-size="15.00">create message terminate request</text>
</g>
<!-- 6632395600&#45;&#45;6632391568 -->
<g id="edge25" class="edge">
<title>6632395600&#45;&#45;6632391568</title>
<path fill="none" stroke="black" d="M662.68,-72C710.73,-72 815.81,-72 905.61,-72"/>
</g>
<!-- 6632394256 -->
<g id="node29" class="node">
<title>6632394256</title>
<ellipse fill="none" stroke="black" cx="1059.37" cy="-18" rx="184.31" ry="18"/>
<text text-anchor="middle" x="1059.37" y="-12.38" font-family="Times,serif" font-size="15.00">phase procedure prematurely terminated</text>
</g>
<!-- 6632395600&#45;&#45;6632394256 -->
<g id="edge26" class="edge">
<title>6632395600&#45;&#45;6632394256</title>
<path fill="none" stroke="black" d="M662.04,-68.7C716.99,-61.67 848.54,-44.84 945.07,-32.5"/>
</g>
</g>
</svg>
