<?xml version="1.0" encoding="UTF-8" standalone="no"?>
<!DOCTYPE svg PUBLIC "-//W3C//DTD SVG 1.1//EN"
 "http://www.w3.org/Graphics/SVG/1.1/DTD/svg11.dtd">
<!-- Generated by graphviz version 8.0.5 (20230430.1635)
 -->
<!-- Title: pt Pages: 1 -->
<svg width="1961pt" height="581pt"
 viewBox="0.00 0.00 1961.06 581.00" xmlns="http://www.w3.org/2000/svg" xmlns:xlink="http://www.w3.org/1999/xlink">
<g id="graph0" class="graph" transform="scale(1 1) rotate(0) translate(4 577)">
<title>pt</title>
<polygon fill="white" stroke="none" points="-4,4 -4,-577 1957.06,-577 1957.06,4 -4,4"/>
<!-- 6634191888 -->
<g id="node1" class="node">
<title>6634191888</title>
<ellipse fill="none" stroke="black" cx="27" cy="-364" rx="27" ry="18"/>
<text text-anchor="middle" x="27" y="-358.38" font-family="Times,serif" font-size="15.00">seq</text>
</g>
<!-- 6629482512 -->
<g id="node2" class="node">
<title>6629482512</title>
<ellipse fill="none" stroke="black" cx="239.06" cy="-418" rx="149.06" ry="18"/>
<text text-anchor="middle" x="239.06" y="-412.38" font-family="Times,serif" font-size="15.00">register submission date request</text>
</g>
<!-- 6634191888&#45;&#45;6629482512 -->
<g id="edge1" class="edge">
<title>6634191888&#45;&#45;6629482512</title>
<path fill="none" stroke="black" d="M52.51,-370.3C82.05,-377.9 132.85,-390.95 173.83,-401.49"/>
</g>
<!-- 6629487312 -->
<g id="node3" class="node">
<title>6629487312</title>
<ellipse fill="none" stroke="black" cx="239.06" cy="-364" rx="27" ry="18"/>
<text text-anchor="middle" x="239.06" y="-358.38" font-family="Times,serif" font-size="15.00">xor</text>
</g>
<!-- 6634191888&#45;&#45;6629487312 -->
<g id="edge27" class="edge">
<title>6634191888&#45;&#45;6629487312</title>
<path fill="none" stroke="black" d="M54.18,-364C94.54,-364 171.52,-364 211.89,-364"/>
</g>
<!-- 6629478352 -->
<g id="node29" class="node">
<title>6629478352</title>
<ellipse fill="none" stroke="black" cx="239.06" cy="-306" rx="27" ry="18"/>
<text text-anchor="middle" x="239.06" y="-300.38" font-family="Times,serif" font-size="15.00">xor</text>
</g>
<!-- 6634191888&#45;&#45;6629478352 -->
<g id="edge33" class="edge">
<title>6634191888&#45;&#45;6629478352</title>
<path fill="none" stroke="black" d="M52.51,-357.23C92.99,-346.06 173.34,-323.87 213.71,-312.72"/>
</g>
<!-- 6629480784 -->
<g id="node4" class="node">
<title>6629480784</title>
<ellipse fill="black" stroke="black" cx="451.13" cy="-403" rx="2.7" ry="2.7"/>
</g>
<!-- 6629487312&#45;&#45;6629480784 -->
<g id="edge2" class="edge">
<title>6629487312&#45;&#45;6629480784</title>
<path fill="none" stroke="black" d="M265.4,-368.7C317.35,-378.35 432.37,-399.7 448.29,-402.66"/>
</g>
<!-- 6629482256 -->
<g id="node5" class="node">
<title>6629482256</title>
<ellipse fill="none" stroke="black" cx="451.13" cy="-364" rx="27" ry="18"/>
<text text-anchor="middle" x="451.13" y="-358.38" font-family="Times,serif" font-size="15.00">seq</text>
</g>
<!-- 6629487312&#45;&#45;6629482256 -->
<g id="edge26" class="edge">
<title>6629487312&#45;&#45;6629482256</title>
<path fill="none" stroke="black" d="M266.24,-364C306.61,-364 383.59,-364 423.95,-364"/>
</g>
<!-- 6629481168 -->
<g id="node6" class="node">
<title>6629481168</title>
<ellipse fill="none" stroke="black" cx="629.52" cy="-491" rx="27" ry="18"/>
<text text-anchor="middle" x="629.52" y="-485.38" font-family="Times,serif" font-size="15.00">xor</text>
</g>
<!-- 6629482256&#45;&#45;6629481168 -->
<g id="edge8" class="edge">
<title>6629482256&#45;&#45;6629481168</title>
<path fill="none" stroke="black" d="M470.34,-377.11C504.23,-401.51 576.59,-453.61 610.41,-477.96"/>
</g>
<!-- 6629488336 -->
<g id="node12" class="node">
<title>6629488336</title>
<ellipse fill="none" stroke="black" cx="629.52" cy="-364" rx="27" ry="18"/>
<text text-anchor="middle" x="629.52" y="-358.38" font-family="Times,serif" font-size="15.00">and</text>
</g>
<!-- 6629482256&#45;&#45;6629488336 -->
<g id="edge25" class="edge">
<title>6629482256&#45;&#45;6629488336</title>
<path fill="none" stroke="black" d="M478.54,-364C511.89,-364 568.92,-364 602.22,-364"/>
</g>
<!-- 6629480720 -->
<g id="node7" class="node">
<title>6629480720</title>
<ellipse fill="black" stroke="black" cx="905.78" cy="-530" rx="2.7" ry="2.7"/>
</g>
<!-- 6629481168&#45;&#45;6629480720 -->
<g id="edge3" class="edge">
<title>6629481168&#45;&#45;6629480720</title>
<path fill="none" stroke="black" d="M656.32,-494.67C720.33,-503.77 882.69,-526.86 902.74,-529.71"/>
</g>
<!-- 6629475344 -->
<g id="node8" class="node">
<title>6629475344</title>
<ellipse fill="none" stroke="black" cx="905.78" cy="-491" rx="27" ry="18"/>
<text text-anchor="middle" x="905.78" y="-485.38" font-family="Times,serif" font-size="15.00">seq</text>
</g>
<!-- 6629481168&#45;&#45;6629475344 -->
<g id="edge7" class="edge">
<title>6629481168&#45;&#45;6629475344</title>
<path fill="none" stroke="black" d="M656.82,-491C709.24,-491 826.21,-491 878.56,-491"/>
</g>
<!-- 6629480464 -->
<g id="node9" class="node">
<title>6629480464</title>
<ellipse fill="none" stroke="black" cx="1227.28" cy="-555" rx="72.25" ry="18"/>
<text text-anchor="middle" x="1227.28" y="-549.38" font-family="Times,serif" font-size="15.00">MER required</text>
</g>
<!-- 6629475344&#45;&#45;6629480464 -->
<g id="edge4" class="edge">
<title>6629475344&#45;&#45;6629480464</title>
<path fill="none" stroke="black" d="M932.12,-496.08C983.26,-506.32 1099.91,-529.69 1169.97,-543.72"/>
</g>
<!-- 6629481680 -->
<g id="node10" class="node">
<title>6629481680</title>
<ellipse fill="none" stroke="black" cx="1227.28" cy="-501" rx="129.07" ry="18"/>
<text text-anchor="middle" x="1227.28" y="-495.38" font-family="Times,serif" font-size="15.00">activities regular procedure</text>
</g>
<!-- 6629475344&#45;&#45;6629481680 -->
<g id="edge5" class="edge">
<title>6629475344&#45;&#45;6629481680</title>
<path fill="none" stroke="black" d="M933.2,-491.83C969.98,-492.98 1039.07,-495.14 1100.94,-497.08"/>
</g>
<!-- 6629482320 -->
<g id="node11" class="node">
<title>6629482320</title>
<ellipse fill="none" stroke="black" cx="1227.28" cy="-447" rx="91.19" ry="18"/>
<text text-anchor="middle" x="1227.28" y="-441.38" font-family="Times,serif" font-size="15.00">phased application</text>
</g>
<!-- 6629475344&#45;&#45;6629482320 -->
<g id="edge6" class="edge">
<title>6629475344&#45;&#45;6629482320</title>
<path fill="none" stroke="black" d="M932.65,-487.44C979.75,-480.95 1081.08,-467 1151.44,-457.31"/>
</g>
<!-- 6629482576 -->
<g id="node13" class="node">
<title>6629482576</title>
<ellipse fill="none" stroke="black" cx="905.78" cy="-418" rx="124.86" ry="18"/>
<text text-anchor="middle" x="905.78" y="-412.38" font-family="Times,serif" font-size="15.00">phase application received</text>
</g>
<!-- 6629488336&#45;&#45;6629482576 -->
<g id="edge9" class="edge">
<title>6629488336&#45;&#45;6629482576</title>
<path fill="none" stroke="black" d="M655.83,-368.98C695.08,-376.71 772.16,-391.89 830.2,-403.32"/>
</g>
<!-- 6629485648 -->
<g id="node14" class="node">
<title>6629485648</title>
<ellipse fill="none" stroke="black" cx="905.78" cy="-364" rx="47" ry="18"/>
<text text-anchor="middle" x="905.78" y="-358.38" font-family="Times,serif" font-size="15.00">xor loop</text>
</g>
<!-- 6629488336&#45;&#45;6629485648 -->
<g id="edge12" class="edge">
<title>6629488336&#45;&#45;6629485648</title>
<path fill="none" stroke="black" d="M656.82,-364C703.27,-364 800.42,-364 858.37,-364"/>
</g>
<!-- 6629483152 -->
<g id="node17" class="node">
<title>6629483152</title>
<ellipse fill="none" stroke="black" cx="905.78" cy="-310" rx="108.55" ry="18"/>
<text text-anchor="middle" x="905.78" y="-304.38" font-family="Times,serif" font-size="15.00">OLO messaging active</text>
</g>
<!-- 6629488336&#45;&#45;6629483152 -->
<g id="edge13" class="edge">
<title>6629488336&#45;&#45;6629483152</title>
<path fill="none" stroke="black" d="M655.83,-359.02C696.01,-351.11 775.82,-335.39 834.28,-323.88"/>
</g>
<!-- 6629486480 -->
<g id="node18" class="node">
<title>6629486480</title>
<ellipse fill="none" stroke="black" cx="905.78" cy="-207" rx="27" ry="18"/>
<text text-anchor="middle" x="905.78" y="-201.38" font-family="Times,serif" font-size="15.00">seq</text>
</g>
<!-- 6629488336&#45;&#45;6629486480 -->
<g id="edge24" class="edge">
<title>6629488336&#45;&#45;6629486480</title>
<path fill="none" stroke="black" d="M650.69,-352.46C701.41,-323.42 833.83,-247.61 884.58,-218.56"/>
</g>
<!-- 6629479632 -->
<g id="node15" class="node">
<title>6629479632</title>
<ellipse fill="none" stroke="black" cx="1227.28" cy="-393" rx="121.18" ry="18"/>
<text text-anchor="middle" x="1227.28" y="-387.38" font-family="Times,serif" font-size="15.00">send confirmation receipt</text>
</g>
<!-- 6629485648&#45;&#45;6629479632 -->
<g id="edge10" class="edge">
<title>6629485648&#45;&#45;6629479632</title>
<path fill="none" stroke="black" d="M951.88,-368.09C996.09,-372.11 1065.05,-378.37 1122.78,-383.61"/>
</g>
<!-- 6629489680 -->
<g id="node16" class="node">
<title>6629489680</title>
<ellipse fill="black" stroke="black" cx="1227.28" cy="-354" rx="2.7" ry="2.7"/>
</g>
<!-- 6629485648&#45;&#45;6629489680 -->
<g id="edge11" class="edge">
<title>6629485648&#45;&#45;6629489680</title>
<path fill="none" stroke="black" d="M952.9,-362.56C1035.85,-359.96 1203.55,-354.71 1224.18,-354.07"/>
</g>
<!-- 6634405712 -->
<g id="node19" class="node">
<title>6634405712</title>
<ellipse fill="none" stroke="black" cx="1227.28" cy="-315" rx="112.76" ry="18"/>
<text text-anchor="middle" x="1227.28" y="-309.38" font-family="Times,serif" font-size="15.00">applicant is stakeholder</text>
</g>
<!-- 6629486480&#45;&#45;6634405712 -->
<g id="edge14" class="edge">
<title>6629486480&#45;&#45;6634405712</title>
<path fill="none" stroke="black" d="M930.53,-215.03C982.6,-232.63 1107.66,-274.9 1177.33,-298.45"/>
</g>
<!-- 6634401296 -->
<g id="node20" class="node">
<title>6634401296</title>
<ellipse fill="none" stroke="black" cx="1227.28" cy="-261" rx="99.08" ry="18"/>
<text text-anchor="middle" x="1227.28" y="-255.38" font-family="Times,serif" font-size="15.00">terminate on request</text>
</g>
<!-- 6629486480&#45;&#45;6634401296 -->
<g id="edge15" class="edge">
<title>6629486480&#45;&#45;6634401296</title>
<path fill="none" stroke="black" d="M932.39,-211.33C979.77,-219.34 1082.73,-236.74 1153.28,-248.66"/>
</g>
<!-- 6634396560 -->
<g id="node21" class="node">
<title>6634396560</title>
<ellipse fill="none" stroke="black" cx="1227.28" cy="-207" rx="135.39" ry="18"/>
<text text-anchor="middle" x="1227.28" y="-201.38" font-family="Times,serif" font-size="15.00">calculate provisional charges</text>
</g>
<!-- 6629486480&#45;&#45;6634396560 -->
<g id="edge16" class="edge">
<title>6629486480&#45;&#45;6634396560</title>
<path fill="none" stroke="black" d="M933.2,-207C968.11,-207 1032.13,-207 1091.46,-207"/>
</g>
<!-- 6634392656 -->
<g id="node22" class="node">
<title>6634392656</title>
<ellipse fill="none" stroke="black" cx="1227.28" cy="-153" rx="160.64" ry="18"/>
<text text-anchor="middle" x="1227.28" y="-147.38" font-family="Times,serif" font-size="15.00">forward to the competent authority</text>
</g>
<!-- 6629486480&#45;&#45;6634392656 -->
<g id="edge17" class="edge">
<title>6629486480&#45;&#45;6634392656</title>
<path fill="none" stroke="black" d="M932.39,-202.67C976.07,-195.29 1066.98,-179.92 1136.19,-168.23"/>
</g>
<!-- 6634402384 -->
<g id="node23" class="node">
<title>6634402384</title>
<ellipse fill="none" stroke="black" cx="1227.28" cy="-99" rx="147.49" ry="18"/>
<text text-anchor="middle" x="1227.28" y="-93.38" font-family="Times,serif" font-size="15.00">regular procedure without MER</text>
</g>
<!-- 6629486480&#45;&#45;6634402384 -->
<g id="edge18" class="edge">
<title>6629486480&#45;&#45;6634402384</title>
<path fill="none" stroke="black" d="M930.53,-198.97C982.09,-181.54 1105.23,-139.92 1175.28,-116.24"/>
</g>
<!-- 6630978448 -->
<g id="node24" class="node">
<title>6630978448</title>
<ellipse fill="none" stroke="black" cx="1227.28" cy="-45" rx="27" ry="18"/>
<text text-anchor="middle" x="1227.28" y="-39.38" font-family="Times,serif" font-size="15.00">and</text>
</g>
<!-- 6629486480&#45;&#45;6630978448 -->
<g id="edge23" class="edge">
<title>6629486480&#45;&#45;6630978448</title>
<path fill="none" stroke="black" d="M927.99,-196.25C986.11,-166.78 1147.42,-84.98 1205.29,-55.65"/>
</g>
<!-- 6630969744 -->
<g id="node25" class="node">
<title>6630969744</title>
<ellipse fill="none" stroke="black" cx="1529.84" cy="-72" rx="27" ry="18"/>
<text text-anchor="middle" x="1529.84" y="-66.38" font-family="Times,serif" font-size="15.00">xor</text>
</g>
<!-- 6630978448&#45;&#45;6630969744 -->
<g id="edge21" class="edge">
<title>6630978448&#45;&#45;6630969744</title>
<path fill="none" stroke="black" d="M1254.43,-47.35C1311.41,-52.47 1446.24,-64.58 1502.97,-69.68"/>
</g>
<!-- 6631672400 -->
<g id="node28" class="node">
<title>6631672400</title>
<ellipse fill="none" stroke="black" cx="1529.84" cy="-18" rx="105.92" ry="18"/>
<text text-anchor="middle" x="1529.84" y="-12.38" font-family="Times,serif" font-size="15.00">start WABOprocedure</text>
</g>
<!-- 6630978448&#45;&#45;6631672400 -->
<g id="edge22" class="edge">
<title>6630978448&#45;&#45;6631672400</title>
<path fill="none" stroke="black" d="M1254.43,-42.65C1294.35,-39.07 1372.46,-32.05 1435.17,-26.41"/>
</g>
<!-- 6632243408 -->
<g id="node26" class="node">
<title>6632243408</title>
<ellipse fill="black" stroke="black" cx="1812.41" cy="-91" rx="2.7" ry="2.7"/>
</g>
<!-- 6630969744&#45;&#45;6632243408 -->
<g id="edge19" class="edge">
<title>6630969744&#45;&#45;6632243408</title>
<path fill="none" stroke="black" d="M1556.99,-73.77C1622.29,-78.19 1788.77,-89.47 1809.32,-90.86"/>
</g>
<!-- 6632249808 -->
<g id="node27" class="node">
<title>6632249808</title>
<ellipse fill="none" stroke="black" cx="1812.41" cy="-52" rx="140.65" ry="18"/>
<text text-anchor="middle" x="1812.41" y="-46.38" font-family="Times,serif" font-size="15.00">create procedure confirmation</text>
</g>
<!-- 6630969744&#45;&#45;6632249808 -->
<g id="edge20" class="edge">
<title>6630969744&#45;&#45;6632249808</title>
<path fill="none" stroke="black" d="M1556.99,-70.14C1587.26,-67.98 1639.27,-64.27 1688.4,-60.77"/>
</g>
<!-- 6632253072 -->
<g id="node30" class="node">
<title>6632253072</title>
<ellipse fill="black" stroke="black" cx="451.13" cy="-306" rx="2.7" ry="2.7"/>
</g>
<!-- 6629478352&#45;&#45;6632253072 -->
<g id="edge28" class="edge">
<title>6629478352&#45;&#45;6632253072</title>
<path fill="none" stroke="black" d="M266.24,-306C318.6,-306 432.54,-306 448.31,-306"/>
</g>
<!-- 6625946192 -->
<g id="node31" class="node">
<title>6625946192</title>
<ellipse fill="none" stroke="black" cx="451.13" cy="-263" rx="27" ry="18"/>
<text text-anchor="middle" x="451.13" y="-257.38" font-family="Times,serif" font-size="15.00">seq</text>
</g>
<!-- 6629478352&#45;&#45;6625946192 -->
<g id="edge32" class="edge">
<title>6629478352&#45;&#45;6625946192</title>
<path fill="none" stroke="black" d="M265.4,-300.81C305.89,-292.53 384.69,-276.39 425.03,-268.14"/>
</g>
<!-- 6625936336 -->
<g id="node32" class="node">
<title>6625936336</title>
<ellipse fill="none" stroke="black" cx="629.52" cy="-310" rx="115.39" ry="18"/>
<text text-anchor="middle" x="629.52" y="-304.38" font-family="Times,serif" font-size="15.00">phase procedure aborted</text>
</g>
<!-- 6625946192&#45;&#45;6625936336 -->
<g id="edge29" class="edge">
<title>6625946192&#45;&#45;6625936336</title>
<path fill="none" stroke="black" d="M476.66,-269.54C500.51,-275.89 537.67,-285.79 569.26,-294.21"/>
</g>
<!-- 6625949520 -->
<g id="node33" class="node">
<title>6625949520</title>
<ellipse fill="none" stroke="black" cx="629.52" cy="-256" rx="82.77" ry="18"/>
<text text-anchor="middle" x="629.52" y="-250.38" font-family="Times,serif" font-size="15.00">register deadline</text>
</g>
<!-- 6625946192&#45;&#45;6625949520 -->
<g id="edge30" class="edge">
<title>6625946192&#45;&#45;6625949520</title>
<path fill="none" stroke="black" d="M478.54,-261.95C496.99,-261.22 522.69,-260.2 547.62,-259.21"/>
</g>
<!-- 6631604368 -->
<g id="node34" class="node">
<title>6631604368</title>
<ellipse fill="none" stroke="black" cx="629.52" cy="-202" rx="54.36" ry="18"/>
<text text-anchor="middle" x="629.52" y="-196.38" font-family="Times,serif" font-size="15.00">close case</text>
</g>
<!-- 6625946192&#45;&#45;6631604368 -->
<g id="edge31" class="edge">
<title>6625946192&#45;&#45;6631604368</title>
<path fill="none" stroke="black" d="M475.55,-254.9C504.98,-244.72 555.85,-227.13 590.79,-215.05"/>
</g>
</g>
</svg>
