<?xml version="1.0" encoding="UTF-8" standalone="no"?>
<!DOCTYPE svg PUBLIC "-//W3C//DTD SVG 1.1//EN"
 "http://www.w3.org/Graphics/SVG/1.1/DTD/svg11.dtd">
<!-- Generated by graphviz version 11.0.0 (20240428.1522)
 -->
<!-- Title: pt Pages: 1 -->
<svg width="2398pt" height="1813pt"
 viewBox="0.00 0.00 2397.83 1813.00" xmlns="http://www.w3.org/2000/svg" xmlns:xlink="http://www.w3.org/1999/xlink">
<g id="graph0" class="graph" transform="scale(1 1) rotate(0) translate(4 1809)">
<title>pt</title>
<polygon fill="white" stroke="none" points="-4,4 -4,-1809 2393.83,-1809 2393.83,4 -4,4"/>
<!-- 2049671217520 -->
<g id="node1" class="node">
<title>2049671217520</title>
<ellipse fill="none" stroke="black" cx="27" cy="-428" rx="27" ry="18"/>
<text text-anchor="middle" x="27" y="-422" font-family="Times New Roman,serif" font-size="15.00">seq</text>
</g>
<!-- 2049671857696 -->
<g id="node2" class="node">
<title>2049671857696</title>
<ellipse fill="none" stroke="black" cx="117" cy="-663" rx="27" ry="18"/>
<text text-anchor="middle" x="117" y="-657" font-family="Times New Roman,serif" font-size="15.00">xor</text>
</g>
<!-- 2049671217520&#45;&#45;2049671857696 -->
<g id="edge71" class="edge">
<title>2049671217520&#45;&#45;2049671857696</title>
<path fill="none" stroke="black" d="M34.61,-445.66C50.96,-489.32 93.13,-601.92 109.43,-645.45"/>
</g>
<!-- 2049671857264 -->
<g id="node73" class="node">
<title>2049671857264</title>
<ellipse fill="none" stroke="black" cx="117" cy="-254" rx="27" ry="18"/>
<text text-anchor="middle" x="117" y="-248" font-family="Times New Roman,serif" font-size="15.00">xor</text>
</g>
<!-- 2049671217520&#45;&#45;2049671857264 -->
<g id="edge82" class="edge">
<title>2049671217520&#45;&#45;2049671857264</title>
<path fill="none" stroke="black" d="M36.6,-411C53.42,-377.73 90.52,-304.39 107.37,-271.07"/>
</g>
<!-- 2049671858752 -->
<g id="node3" class="node">
<title>2049671858752</title>
<ellipse fill="black" stroke="black" cx="225.21" cy="-702" rx="2.7" ry="2.7"/>
</g>
<!-- 2049671857696&#45;&#45;2049671858752 -->
<g id="edge1" class="edge">
<title>2049671857696&#45;&#45;2049671858752</title>
<path fill="none" stroke="black" d="M141.31,-671.56C169.15,-681.78 213.16,-697.94 222.45,-701.35"/>
</g>
<!-- 2049671857936 -->
<g id="node4" class="node">
<title>2049671857936</title>
<ellipse fill="none" stroke="black" cx="225.21" cy="-663" rx="27" ry="18"/>
<text text-anchor="middle" x="225.21" y="-657" font-family="Times New Roman,serif" font-size="15.00">seq</text>
</g>
<!-- 2049671857696&#45;&#45;2049671857936 -->
<g id="edge70" class="edge">
<title>2049671857696&#45;&#45;2049671857936</title>
<path fill="none" stroke="black" d="M144.25,-663C160.59,-663 181.54,-663 197.89,-663"/>
</g>
<!-- 2049671859376 -->
<g id="node5" class="node">
<title>2049671859376</title>
<ellipse fill="none" stroke="black" cx="477.02" cy="-1382" rx="27" ry="18"/>
<text text-anchor="middle" x="477.02" y="-1376" font-family="Times New Roman,serif" font-size="15.00">xor</text>
</g>
<!-- 2049671857936&#45;&#45;2049671859376 -->
<g id="edge35" class="edge">
<title>2049671857936&#45;&#45;2049671859376</title>
<path fill="none" stroke="black" d="M232.38,-680.77C266.87,-780.03 435.33,-1264.89 469.84,-1364.2"/>
</g>
<!-- 2049671860000 -->
<g id="node39" class="node">
<title>2049671860000</title>
<ellipse fill="none" stroke="black" cx="477.02" cy="-960" rx="27" ry="18"/>
<text text-anchor="middle" x="477.02" y="-954" font-family="Times New Roman,serif" font-size="15.00">xor</text>
</g>
<!-- 2049671857936&#45;&#45;2049671860000 -->
<g id="edge49" class="edge">
<title>2049671857936&#45;&#45;2049671860000</title>
<path fill="none" stroke="black" d="M239.29,-678.55C282.36,-729.75 419.45,-892.75 462.77,-944.25"/>
</g>
<!-- 2049671860960 -->
<g id="node53" class="node">
<title>2049671860960</title>
<ellipse fill="none" stroke="black" cx="477.02" cy="-906" rx="136.82" ry="18"/>
<text text-anchor="middle" x="477.02" y="-900" font-family="Times New Roman,serif" font-size="15.00">Send to the competent authority</text>
</g>
<!-- 2049671857936&#45;&#45;2049671860960 -->
<g id="edge50" class="edge">
<title>2049671857936&#45;&#45;2049671860960</title>
<path fill="none" stroke="black" d="M241.46,-677.83C285,-720.19 409.79,-841.57 457.32,-887.81"/>
</g>
<!-- 2049671863840 -->
<g id="node54" class="node">
<title>2049671863840</title>
<ellipse fill="none" stroke="black" cx="477.02" cy="-852" rx="147.06" ry="18"/>
<text text-anchor="middle" x="477.02" y="-846" font-family="Times New Roman,serif" font-size="15.00">Standard procedure without MER</text>
</g>
<!-- 2049671857936&#45;&#45;2049671863840 -->
<g id="edge51" class="edge">
<title>2049671857936&#45;&#45;2049671863840</title>
<path fill="none" stroke="black" d="M243.78,-676.29C287.64,-709.48 402.06,-796.04 452.05,-833.87"/>
</g>
<!-- 2049671683232 -->
<g id="node55" class="node">
<title>2049671683232</title>
<ellipse fill="none" stroke="black" cx="477.02" cy="-798" rx="27" ry="18"/>
<text text-anchor="middle" x="477.02" y="-792" font-family="Times New Roman,serif" font-size="15.00">and</text>
</g>
<!-- 2049671857936&#45;&#45;2049671683232 -->
<g id="edge54" class="edge">
<title>2049671857936&#45;&#45;2049671683232</title>
<path fill="none" stroke="black" d="M246.65,-674.05C293.5,-699.36 408.18,-761.34 455.3,-786.8"/>
</g>
<!-- 2049671691344 -->
<g id="node58" class="node">
<title>2049671691344</title>
<ellipse fill="none" stroke="black" cx="477.02" cy="-744" rx="27" ry="18"/>
<text text-anchor="middle" x="477.02" y="-738" font-family="Times New Roman,serif" font-size="15.00">xor</text>
</g>
<!-- 2049671857936&#45;&#45;2049671691344 -->
<g id="edge57" class="edge">
<title>2049671857936&#45;&#45;2049671691344</title>
<path fill="none" stroke="black" d="M250.16,-670.77C297.91,-686.25 404.45,-720.79 452.14,-736.26"/>
</g>
<!-- 2049671689616 -->
<g id="node61" class="node">
<title>2049671689616</title>
<ellipse fill="none" stroke="black" cx="477.02" cy="-690" rx="70.8" ry="18"/>
<text text-anchor="middle" x="477.02" y="-684" font-family="Times New Roman,serif" font-size="15.00">End on request</text>
</g>
<!-- 2049671857936&#45;&#45;2049671689616 -->
<g id="edge58" class="edge">
<title>2049671857936&#45;&#45;2049671689616</title>
<path fill="none" stroke="black" d="M252,-665.79C289.21,-669.81 359.18,-677.37 411.06,-682.98"/>
</g>
<!-- 2049671688368 -->
<g id="node62" class="node">
<title>2049671688368</title>
<ellipse fill="none" stroke="black" cx="477.02" cy="-636" rx="163.44" ry="18"/>
<text text-anchor="middle" x="477.02" y="-630" font-family="Times New Roman,serif" font-size="15.00">Log date termination request received</text>
</g>
<!-- 2049671857936&#45;&#45;2049671688368 -->
<g id="edge59" class="edge">
<title>2049671857936&#45;&#45;2049671688368</title>
<path fill="none" stroke="black" d="M252,-660.21C277.5,-657.46 318.36,-653.04 358.26,-648.73"/>
</g>
<!-- 2049671688608 -->
<g id="node63" class="node">
<title>2049671688608</title>
<ellipse fill="none" stroke="black" cx="477.02" cy="-582" rx="27" ry="18"/>
<text text-anchor="middle" x="477.02" y="-576" font-family="Times New Roman,serif" font-size="15.00">and</text>
</g>
<!-- 2049671857936&#45;&#45;2049671688608 -->
<g id="edge62" class="edge">
<title>2049671857936&#45;&#45;2049671688608</title>
<path fill="none" stroke="black" d="M250.16,-655.23C297.91,-639.75 404.45,-605.21 452.14,-589.74"/>
</g>
<!-- 2049671688896 -->
<g id="node66" class="node">
<title>2049671688896</title>
<ellipse fill="none" stroke="black" cx="477.02" cy="-528" rx="63.63" ry="18"/>
<text text-anchor="middle" x="477.02" y="-522" font-family="Times New Roman,serif" font-size="15.00">Log deadline</text>
</g>
<!-- 2049671857936&#45;&#45;2049671688896 -->
<g id="edge63" class="edge">
<title>2049671857936&#45;&#45;2049671688896</title>
<path fill="none" stroke="black" d="M246.65,-651.95C290.7,-628.15 394.73,-571.93 446.16,-544.14"/>
</g>
<!-- 2049671678240 -->
<g id="node67" class="node">
<title>2049671678240</title>
<ellipse fill="none" stroke="black" cx="477.02" cy="-474" rx="27" ry="18"/>
<text text-anchor="middle" x="477.02" y="-468" font-family="Times New Roman,serif" font-size="15.00">xor</text>
</g>
<!-- 2049671857936&#45;&#45;2049671678240 -->
<g id="edge67" class="edge">
<title>2049671857936&#45;&#45;2049671678240</title>
<path fill="none" stroke="black" d="M243.78,-649.71C289.64,-615.01 412.63,-521.96 458.48,-487.28"/>
</g>
<!-- 2049671678576 -->
<g id="node71" class="node">
<title>2049671678576</title>
<ellipse fill="none" stroke="black" cx="477.02" cy="-420" rx="119.42" ry="18"/>
<text text-anchor="middle" x="477.02" y="-414" font-family="Times New Roman,serif" font-size="15.00">Phase procedure cancelled</text>
</g>
<!-- 2049671857936&#45;&#45;2049671678576 -->
<g id="edge68" class="edge">
<title>2049671857936&#45;&#45;2049671678576</title>
<path fill="none" stroke="black" d="M241.46,-648.17C285,-605.81 409.79,-484.43 457.32,-438.19"/>
</g>
<!-- 2049671685536 -->
<g id="node72" class="node">
<title>2049671685536</title>
<ellipse fill="none" stroke="black" cx="477.02" cy="-366" rx="69.26" ry="18"/>
<text text-anchor="middle" x="477.02" y="-360" font-family="Times New Roman,serif" font-size="15.00">Close the case</text>
</g>
<!-- 2049671857936&#45;&#45;2049671685536 -->
<g id="edge69" class="edge">
<title>2049671857936&#45;&#45;2049671685536</title>
<path fill="none" stroke="black" d="M239.29,-647.45C281.75,-596.96 415.64,-437.79 460.9,-383.98"/>
</g>
<!-- 2049671860720 -->
<g id="node6" class="node">
<title>2049671860720</title>
<ellipse fill="black" stroke="black" cx="889.03" cy="-1421" rx="2.7" ry="2.7"/>
</g>
<!-- 2049671859376&#45;&#45;2049671860720 -->
<g id="edge2" class="edge">
<title>2049671859376&#45;&#45;2049671860720</title>
<path fill="none" stroke="black" d="M503.98,-1384.47C589.88,-1392.64 860.92,-1418.42 886.14,-1420.82"/>
</g>
<!-- 2049671860672 -->
<g id="node7" class="node">
<title>2049671860672</title>
<ellipse fill="none" stroke="black" cx="889.03" cy="-1382" rx="27" ry="18"/>
<text text-anchor="middle" x="889.03" y="-1376" font-family="Times New Roman,serif" font-size="15.00">seq</text>
</g>
<!-- 2049671859376&#45;&#45;2049671860672 -->
<g id="edge34" class="edge">
<title>2049671859376&#45;&#45;2049671860672</title>
<path fill="none" stroke="black" d="M504.29,-1382C578.26,-1382 787.69,-1382 861.71,-1382"/>
</g>
<!-- 2049671861248 -->
<g id="node8" class="node">
<title>2049671861248</title>
<ellipse fill="none" stroke="black" cx="1306.67" cy="-1787" rx="125.05" ry="18"/>
<text text-anchor="middle" x="1306.67" y="-1781" font-family="Times New Roman,serif" font-size="15.00">Log submission date request</text>
</g>
<!-- 2049671860672&#45;&#45;2049671861248 -->
<g id="edge3" class="edge">
<title>2049671860672&#45;&#45;2049671861248</title>
<path fill="none" stroke="black" d="M905.32,-1396.89C969.46,-1459.4 1216.85,-1700.45 1287.02,-1768.83"/>
</g>
<!-- 2049671862400 -->
<g id="node9" class="node">
<title>2049671862400</title>
<ellipse fill="none" stroke="black" cx="1306.67" cy="-1733" rx="27" ry="18"/>
<text text-anchor="middle" x="1306.67" y="-1727" font-family="Times New Roman,serif" font-size="15.00">xor</text>
</g>
<!-- 2049671860672&#45;&#45;2049671862400 -->
<g id="edge6" class="edge">
<title>2049671860672&#45;&#45;2049671862400</title>
<path fill="none" stroke="black" d="M906.58,-1395.98C973.32,-1452.33 1222.25,-1662.55 1289.07,-1718.98"/>
</g>
<!-- 2049671862352 -->
<g id="node12" class="node">
<title>2049671862352</title>
<ellipse fill="none" stroke="black" cx="1306.67" cy="-1679" rx="121.47" ry="18"/>
<text text-anchor="middle" x="1306.67" y="-1673" font-family="Times New Roman,serif" font-size="15.00">OLO communication active</text>
</g>
<!-- 2049671860672&#45;&#45;2049671862352 -->
<g id="edge7" class="edge">
<title>2049671860672&#45;&#45;2049671862352</title>
<path fill="none" stroke="black" d="M908.16,-1394.95C974.48,-1442.35 1204.08,-1606.41 1280.62,-1661.1"/>
</g>
<!-- 2049671863264 -->
<g id="node13" class="node">
<title>2049671863264</title>
<ellipse fill="none" stroke="black" cx="1306.67" cy="-1625" rx="116.35" ry="18"/>
<text text-anchor="middle" x="1306.67" y="-1619" font-family="Times New Roman,serif" font-size="15.00">Notify BAG administrator</text>
</g>
<!-- 2049671860672&#45;&#45;2049671863264 -->
<g id="edge8" class="edge">
<title>2049671860672&#45;&#45;2049671863264</title>
<path fill="none" stroke="black" d="M910.08,-1393.72C977.29,-1433.02 1194.95,-1560.27 1275.41,-1607.31"/>
</g>
<!-- 2049671863984 -->
<g id="node14" class="node">
<title>2049671863984</title>
<ellipse fill="none" stroke="black" cx="1306.67" cy="-1571" rx="27" ry="18"/>
<text text-anchor="middle" x="1306.67" y="-1565" font-family="Times New Roman,serif" font-size="15.00">xor</text>
</g>
<!-- 2049671860672&#45;&#45;2049671863984 -->
<g id="edge13" class="edge">
<title>2049671860672&#45;&#45;2049671863984</title>
<path fill="none" stroke="black" d="M912.08,-1392.03C984.08,-1424.77 1211.75,-1528.29 1283.67,-1561"/>
</g>
<!-- 2049671864368 -->
<g id="node19" class="node">
<title>2049671864368</title>
<ellipse fill="none" stroke="black" cx="1306.67" cy="-1517" rx="126.08" ry="18"/>
<text text-anchor="middle" x="1306.67" y="-1511" font-family="Times New Roman,serif" font-size="15.00">Regular procedure activities</text>
</g>
<!-- 2049671860672&#45;&#45;2049671864368 -->
<g id="edge14" class="edge">
<title>2049671860672&#45;&#45;2049671864368</title>
<path fill="none" stroke="black" d="M913.87,-1389.74C979.42,-1411.03 1163.49,-1470.82 1254.04,-1500.23"/>
</g>
<!-- 2049671865424 -->
<g id="node20" class="node">
<title>2049671865424</title>
<ellipse fill="none" stroke="black" cx="1306.67" cy="-1463" rx="27" ry="18"/>
<text text-anchor="middle" x="1306.67" y="-1457" font-family="Times New Roman,serif" font-size="15.00">xor</text>
</g>
<!-- 2049671860672&#45;&#45;2049671865424 -->
<g id="edge19" class="edge">
<title>2049671860672&#45;&#45;2049671865424</title>
<path fill="none" stroke="black" d="M915.4,-1386.94C989.7,-1401.42 1206.16,-1443.61 1280.36,-1458.07"/>
</g>
<!-- 2049671866048 -->
<g id="node25" class="node">
<title>2049671866048</title>
<ellipse fill="none" stroke="black" cx="1306.67" cy="-1409" rx="144.5" ry="18"/>
<text text-anchor="middle" x="1306.67" y="-1403" font-family="Times New Roman,serif" font-size="15.00">Generate procedure confirmation</text>
</g>
<!-- 2049671860672&#45;&#45;2049671866048 -->
<g id="edge20" class="edge">
<title>2049671860672&#45;&#45;2049671866048</title>
<path fill="none" stroke="black" d="M916.35,-1383.71C967.83,-1387.05 1084.9,-1394.66 1177.31,-1400.66"/>
</g>
<!-- 2049671867344 -->
<g id="node26" class="node">
<title>2049671867344</title>
<ellipse fill="none" stroke="black" cx="1306.67" cy="-1355" rx="43.16" ry="18"/>
<text text-anchor="middle" x="1306.67" y="-1349" font-family="Times New Roman,serif" font-size="15.00">Release</text>
</g>
<!-- 2049671860672&#45;&#45;2049671867344 -->
<g id="edge21" class="edge">
<title>2049671860672&#45;&#45;2049671867344</title>
<path fill="none" stroke="black" d="M916.35,-1380.29C986.48,-1375.73 1178.33,-1363.27 1263.72,-1357.73"/>
</g>
<!-- 2049671868496 -->
<g id="node27" class="node">
<title>2049671868496</title>
<ellipse fill="none" stroke="black" cx="1306.67" cy="-1301" rx="134.26" ry="18"/>
<text text-anchor="middle" x="1306.67" y="-1295" font-family="Times New Roman,serif" font-size="15.00">Commence phased application</text>
</g>
<!-- 2049671860672&#45;&#45;2049671868496 -->
<g id="edge22" class="edge">
<title>2049671860672&#45;&#45;2049671868496</title>
<path fill="none" stroke="black" d="M915.4,-1377.06C976.39,-1365.17 1133.17,-1334.62 1228.43,-1316.05"/>
</g>
<!-- 2049671869504 -->
<g id="node28" class="node">
<title>2049671869504</title>
<ellipse fill="none" stroke="black" cx="1306.67" cy="-1247" rx="136.31" ry="18"/>
<text text-anchor="middle" x="1306.67" y="-1241" font-family="Times New Roman,serif" font-size="15.00">Check field phased application</text>
</g>
<!-- 2049671860672&#45;&#45;2049671869504 -->
<g id="edge23" class="edge">
<title>2049671860672&#45;&#45;2049671869504</title>
<path fill="none" stroke="black" d="M913.87,-1374.26C979.25,-1353.02 1162.52,-1293.5 1253.32,-1264"/>
</g>
<!-- 2049671869360 -->
<g id="node29" class="node">
<title>2049671869360</title>
<ellipse fill="none" stroke="black" cx="1306.67" cy="-1193" rx="108.16" ry="18"/>
<text text-anchor="middle" x="1306.67" y="-1187" font-family="Times New Roman,serif" font-size="15.00">Begin WABOprocedure</text>
</g>
<!-- 2049671860672&#45;&#45;2049671869360 -->
<g id="edge24" class="edge">
<title>2049671860672&#45;&#45;2049671869360</title>
<path fill="none" stroke="black" d="M912.08,-1371.97C979.47,-1341.33 1183.2,-1248.69 1268,-1210.13"/>
</g>
<!-- 2049671870080 -->
<g id="node30" class="node">
<title>2049671870080</title>
<ellipse fill="none" stroke="black" cx="1306.67" cy="-1139" rx="118.91" ry="18"/>
<text text-anchor="middle" x="1306.67" y="-1133" font-family="Times New Roman,serif" font-size="15.00">Stage application received</text>
</g>
<!-- 2049671860672&#45;&#45;2049671870080 -->
<g id="edge25" class="edge">
<title>2049671860672&#45;&#45;2049671870080</title>
<path fill="none" stroke="black" d="M910.08,-1370.28C977.29,-1330.98 1194.95,-1203.73 1275.41,-1156.69"/>
</g>
<!-- 2049671870464 -->
<g id="node31" class="node">
<title>2049671870464</title>
<ellipse fill="none" stroke="black" cx="1306.67" cy="-1085" rx="27" ry="18"/>
<text text-anchor="middle" x="1306.67" y="-1079" font-family="Times New Roman,serif" font-size="15.00">xor</text>
</g>
<!-- 2049671860672&#45;&#45;2049671870464 -->
<g id="edge28" class="edge">
<title>2049671860672&#45;&#45;2049671870464</title>
<path fill="none" stroke="black" d="M908.16,-1369.05C976.59,-1320.15 1218.85,-1147.04 1287.45,-1098.02"/>
</g>
<!-- 2049671870368 -->
<g id="node34" class="node">
<title>2049671870368</title>
<ellipse fill="none" stroke="black" cx="1306.67" cy="-1031" rx="27" ry="18"/>
<text text-anchor="middle" x="1306.67" y="-1025" font-family="Times New Roman,serif" font-size="15.00">and</text>
</g>
<!-- 2049671860672&#45;&#45;2049671870368 -->
<g id="edge33" class="edge">
<title>2049671860672&#45;&#45;2049671870368</title>
<path fill="none" stroke="black" d="M906.58,-1368.02C973.32,-1311.67 1222.25,-1101.45 1289.07,-1045.02"/>
</g>
<!-- 2049671863072 -->
<g id="node10" class="node">
<title>2049671863072</title>
<ellipse fill="black" stroke="black" cx="1736.08" cy="-1752" rx="2.7" ry="2.7"/>
</g>
<!-- 2049671862400&#45;&#45;2049671863072 -->
<g id="edge4" class="edge">
<title>2049671862400&#45;&#45;2049671863072</title>
<path fill="none" stroke="black" d="M1334.08,-1734.17C1422.9,-1738.12 1706.69,-1750.74 1733.1,-1751.91"/>
</g>
<!-- 2049671863696 -->
<g id="node11" class="node">
<title>2049671863696</title>
<ellipse fill="none" stroke="black" cx="1736.08" cy="-1713" rx="217.18" ry="18"/>
<text text-anchor="middle" x="1736.08" y="-1707" font-family="Times New Roman,serif" font-size="15.00">log senddate letter no permit or notification needed</text>
</g>
<!-- 2049671862400&#45;&#45;2049671863696 -->
<g id="edge5" class="edge">
<title>2049671862400&#45;&#45;2049671863696</title>
<path fill="none" stroke="black" d="M1334.08,-1731.76C1376.49,-1729.78 1463.34,-1725.72 1545.41,-1721.88"/>
</g>
<!-- 2049671865376 -->
<g id="node15" class="node">
<title>2049671865376</title>
<ellipse fill="none" stroke="black" cx="1736.08" cy="-1598" rx="182.89" ry="18"/>
<text text-anchor="middle" x="1736.08" y="-1592" font-family="Times New Roman,serif" font-size="15.00">Mandatory Environmental Report required</text>
</g>
<!-- 2049671863984&#45;&#45;2049671865376 -->
<g id="edge9" class="edge">
<title>2049671863984&#45;&#45;2049671865376</title>
<path fill="none" stroke="black" d="M1333.76,-1572.65C1382.15,-1575.71 1489.21,-1582.47 1580.59,-1588.24"/>
</g>
<!-- 2049671865040 -->
<g id="node16" class="node">
<title>2049671865040</title>
<ellipse fill="none" stroke="black" cx="1736.08" cy="-1544" rx="27" ry="18"/>
<text text-anchor="middle" x="1736.08" y="-1538" font-family="Times New Roman,serif" font-size="15.00">seq</text>
</g>
<!-- 2049671863984&#45;&#45;2049671865040 -->
<g id="edge12" class="edge">
<title>2049671863984&#45;&#45;2049671865040</title>
<path fill="none" stroke="black" d="M1333.76,-1569.35C1410.07,-1564.53 1632.22,-1550.5 1708.78,-1545.66"/>
</g>
<!-- 2049671866480 -->
<g id="node17" class="node">
<title>2049671866480</title>
<ellipse fill="none" stroke="black" cx="2189.54" cy="-1585" rx="69.78" ry="18"/>
<text text-anchor="middle" x="2189.54" y="-1579" font-family="Times New Roman,serif" font-size="15.00">MER included</text>
</g>
<!-- 2049671865040&#45;&#45;2049671866480 -->
<g id="edge10" class="edge">
<title>2049671865040&#45;&#45;2049671866480</title>
<path fill="none" stroke="black" d="M1763.3,-1546.38C1832.65,-1552.68 2022.45,-1569.92 2123.4,-1579.08"/>
</g>
<!-- 2049671866336 -->
<g id="node18" class="node">
<title>2049671866336</title>
<ellipse fill="none" stroke="black" cx="2189.54" cy="-1531" rx="94.86" ry="18"/>
<text text-anchor="middle" x="2189.54" y="-1525" font-family="Times New Roman,serif" font-size="15.00">Inspect BAG objects</text>
</g>
<!-- 2049671865040&#45;&#45;2049671866336 -->
<g id="edge11" class="edge">
<title>2049671865040&#45;&#45;2049671866336</title>
<path fill="none" stroke="black" d="M1763.3,-1543.24C1826.63,-1541.42 1990.4,-1536.71 2095.23,-1533.69"/>
</g>
<!-- 2049671867824 -->
<g id="node21" class="node">
<title>2049671867824</title>
<ellipse fill="none" stroke="black" cx="1736.08" cy="-1476" rx="87.69" ry="18"/>
<text text-anchor="middle" x="1736.08" y="-1470" font-family="Times New Roman,serif" font-size="15.00">Phased application</text>
</g>
<!-- 2049671865424&#45;&#45;2049671867824 -->
<g id="edge15" class="edge">
<title>2049671865424&#45;&#45;2049671867824</title>
<path fill="none" stroke="black" d="M1334.08,-1463.8C1395.6,-1465.67 1550.65,-1470.39 1648.93,-1473.38"/>
</g>
<!-- 2049671867008 -->
<g id="node22" class="node">
<title>2049671867008</title>
<ellipse fill="none" stroke="black" cx="1736.08" cy="-1422" rx="27" ry="18"/>
<text text-anchor="middle" x="1736.08" y="-1416" font-family="Times New Roman,serif" font-size="15.00">seq</text>
</g>
<!-- 2049671865424&#45;&#45;2049671867008 -->
<g id="edge18" class="edge">
<title>2049671865424&#45;&#45;2049671867008</title>
<path fill="none" stroke="black" d="M1333.76,-1460.5C1410.16,-1453.17 1632.75,-1431.82 1709.06,-1424.5"/>
</g>
<!-- 2049671868448 -->
<g id="node23" class="node">
<title>2049671868448</title>
<ellipse fill="none" stroke="black" cx="2189.54" cy="-1449" rx="97.41" ry="18"/>
<text text-anchor="middle" x="2189.54" y="-1443" font-family="Times New Roman,serif" font-size="15.00">First or second phase</text>
</g>
<!-- 2049671867008&#45;&#45;2049671868448 -->
<g id="edge16" class="edge">
<title>2049671867008&#45;&#45;2049671868448</title>
<path fill="none" stroke="black" d="M1763.3,-1423.57C1826.82,-1427.37 1991.37,-1437.21 2096.16,-1443.48"/>
</g>
<!-- 2049671869072 -->
<g id="node24" class="node">
<title>2049671869072</title>
<ellipse fill="none" stroke="black" cx="2189.54" cy="-1395" rx="97.41" ry="18"/>
<text text-anchor="middle" x="2189.54" y="-1389" font-family="Times New Roman,serif" font-size="15.00">Term 14 or 26 weeks</text>
</g>
<!-- 2049671867008&#45;&#45;2049671869072 -->
<g id="edge17" class="edge">
<title>2049671867008&#45;&#45;2049671869072</title>
<path fill="none" stroke="black" d="M1763.3,-1420.43C1826.82,-1416.63 1991.37,-1406.79 2096.16,-1400.52"/>
</g>
<!-- 2049671871136 -->
<g id="node32" class="node">
<title>2049671871136</title>
<ellipse fill="black" stroke="black" cx="1736.08" cy="-1124" rx="2.7" ry="2.7"/>
</g>
<!-- 2049671870464&#45;&#45;2049671871136 -->
<g id="edge26" class="edge">
<title>2049671870464&#45;&#45;2049671871136</title>
<path fill="none" stroke="black" d="M1333.76,-1087.38C1422.21,-1095.45 1706.63,-1121.4 1733.1,-1123.82"/>
</g>
<!-- 2049671871712 -->
<g id="node33" class="node">
<title>2049671871712</title>
<ellipse fill="none" stroke="black" cx="1736.08" cy="-1085" rx="89.74" ry="18"/>
<text text-anchor="middle" x="1736.08" y="-1079" font-family="Times New Roman,serif" font-size="15.00">Reception via OLO</text>
</g>
<!-- 2049671870464&#45;&#45;2049671871712 -->
<g id="edge27" class="edge">
<title>2049671870464&#45;&#45;2049671871712</title>
<path fill="none" stroke="black" d="M1334.08,-1085C1394.96,-1085 1547.45,-1085 1645.86,-1085"/>
</g>
<!-- 2049671856256 -->
<g id="node35" class="node">
<title>2049671856256</title>
<ellipse fill="none" stroke="black" cx="1736.08" cy="-1031" rx="45.21" ry="18"/>
<text text-anchor="middle" x="1736.08" y="-1025" font-family="Times New Roman,serif" font-size="15.00">xor loop</text>
</g>
<!-- 2049671870368&#45;&#45;2049671856256 -->
<g id="edge31" class="edge">
<title>2049671870368&#45;&#45;2049671856256</title>
<path fill="none" stroke="black" d="M1334.08,-1031C1405.25,-1031 1601.58,-1031 1690.4,-1031"/>
</g>
<!-- 2049671787680 -->
<g id="node38" class="node">
<title>2049671787680</title>
<ellipse fill="none" stroke="black" cx="1736.08" cy="-977" rx="153.2" ry="18"/>
<text text-anchor="middle" x="1736.08" y="-971" font-family="Times New Roman,serif" font-size="15.00">Record senddate acknowledgement</text>
</g>
<!-- 2049671870368&#45;&#45;2049671787680 -->
<g id="edge32" class="edge">
<title>2049671870368&#45;&#45;2049671787680</title>
<path fill="none" stroke="black" d="M1333.44,-1027.74C1390.66,-1020.52 1530.98,-1002.79 1629.58,-990.33"/>
</g>
<!-- 2049671790560 -->
<g id="node36" class="node">
<title>2049671790560</title>
<ellipse fill="none" stroke="black" cx="2189.54" cy="-1070" rx="131.19" ry="18"/>
<text text-anchor="middle" x="2189.54" y="-1064" font-family="Times New Roman,serif" font-size="15.00">Dispatch confirmation receipt</text>
</g>
<!-- 2049671856256&#45;&#45;2049671790560 -->
<g id="edge29" class="edge">
<title>2049671856256&#45;&#45;2049671790560</title>
<path fill="none" stroke="black" d="M1780.78,-1034.77C1848.71,-1040.64 1981.78,-1052.14 2077.45,-1060.4"/>
</g>
<!-- 2049671789840 -->
<g id="node37" class="node">
<title>2049671789840</title>
<ellipse fill="black" stroke="black" cx="2189.54" cy="-1031" rx="2.7" ry="2.7"/>
</g>
<!-- 2049671856256&#45;&#45;2049671789840 -->
<g id="edge30" class="edge">
<title>2049671856256&#45;&#45;2049671789840</title>
<path fill="none" stroke="black" d="M1781.6,-1031C1890.16,-1031 2161.46,-1031 2186.66,-1031"/>
</g>
<!-- 2049671871424 -->
<g id="node40" class="node">
<title>2049671871424</title>
<ellipse fill="black" stroke="black" cx="889.03" cy="-960" rx="2.7" ry="2.7"/>
</g>
<!-- 2049671860000&#45;&#45;2049671871424 -->
<g id="edge36" class="edge">
<title>2049671860000&#45;&#45;2049671871424</title>
<path fill="none" stroke="black" d="M504.29,-960C590.54,-960 860.98,-960 886.15,-960"/>
</g>
<!-- 2049671872192 -->
<g id="node41" class="node">
<title>2049671872192</title>
<ellipse fill="none" stroke="black" cx="889.03" cy="-913" rx="27" ry="18"/>
<text text-anchor="middle" x="889.03" y="-907" font-family="Times New Roman,serif" font-size="15.00">seq</text>
</g>
<!-- 2049671860000&#45;&#45;2049671872192 -->
<g id="edge48" class="edge">
<title>2049671860000&#45;&#45;2049671872192</title>
<path fill="none" stroke="black" d="M503.98,-957.02C577.74,-948.57 787.98,-924.47 861.92,-915.99"/>
</g>
<!-- 2049671864512 -->
<g id="node42" class="node">
<title>2049671864512</title>
<ellipse fill="none" stroke="black" cx="1306.67" cy="-913" rx="27" ry="18"/>
<text text-anchor="middle" x="1306.67" y="-907" font-family="Times New Roman,serif" font-size="15.00">xor</text>
</g>
<!-- 2049671872192&#45;&#45;2049671864512 -->
<g id="edge46" class="edge">
<title>2049671872192&#45;&#45;2049671864512</title>
<path fill="none" stroke="black" d="M916.35,-913C991.12,-913 1204.24,-913 1279.2,-913"/>
</g>
<!-- 2049671676464 -->
<g id="node52" class="node">
<title>2049671676464</title>
<ellipse fill="none" stroke="black" cx="1306.67" cy="-859" rx="176.23" ry="18"/>
<text text-anchor="middle" x="1306.67" y="-853" font-family="Times New Roman,serif" font-size="15.00">log the senddate for letter to the authority</text>
</g>
<!-- 2049671872192&#45;&#45;2049671676464 -->
<g id="edge47" class="edge">
<title>2049671872192&#45;&#45;2049671676464</title>
<path fill="none" stroke="black" d="M916.03,-909.62C970.77,-902.51 1100.65,-885.64 1195.46,-873.32"/>
</g>
<!-- 2049671676176 -->
<g id="node43" class="node">
<title>2049671676176</title>
<ellipse fill="none" stroke="black" cx="1736.08" cy="-913" rx="188.52" ry="18"/>
<text text-anchor="middle" x="1736.08" y="-907" font-family="Times New Roman,serif" font-size="15.00">document senddate for letter to stakeholders</text>
</g>
<!-- 2049671864512&#45;&#45;2049671676176 -->
<g id="edge37" class="edge">
<title>2049671864512&#45;&#45;2049671676176</title>
<path fill="none" stroke="black" d="M1334.08,-913C1376.81,-913 1464.65,-913 1547.26,-913"/>
</g>
<!-- 2049671690048 -->
<g id="node44" class="node">
<title>2049671690048</title>
<ellipse fill="none" stroke="black" cx="1736.08" cy="-840" rx="27" ry="18"/>
<text text-anchor="middle" x="1736.08" y="-834" font-family="Times New Roman,serif" font-size="15.00">seq</text>
</g>
<!-- 2049671864512&#45;&#45;2049671690048 -->
<g id="edge45" class="edge">
<title>2049671864512&#45;&#45;2049671690048</title>
<path fill="none" stroke="black" d="M1333.13,-908.65C1409.05,-895.68 1633.38,-857.37 1709.49,-844.37"/>
</g>
<!-- 2049671681888 -->
<g id="node45" class="node">
<title>2049671681888</title>
<ellipse fill="none" stroke="black" cx="2189.54" cy="-992" rx="99.46" ry="18"/>
<text text-anchor="middle" x="2189.54" y="-986" font-family="Times New Roman,serif" font-size="15.00">draft forwarding copy</text>
</g>
<!-- 2049671690048&#45;&#45;2049671681888 -->
<g id="edge38" class="edge">
<title>2049671690048&#45;&#45;2049671681888</title>
<path fill="none" stroke="black" d="M1760.72,-847.96C1831.84,-871.9 2044.84,-943.62 2140.78,-975.92"/>
</g>
<!-- 2049671685584 -->
<g id="node46" class="node">
<title>2049671685584</title>
<ellipse fill="none" stroke="black" cx="2189.54" cy="-938" rx="174.7" ry="18"/>
<text text-anchor="middle" x="2189.54" y="-932" font-family="Times New Roman,serif" font-size="15.00">send confirmation to competent authority</text>
</g>
<!-- 2049671690048&#45;&#45;2049671685584 -->
<g id="edge39" class="edge">
<title>2049671690048&#45;&#45;2049671685584</title>
<path fill="none" stroke="black" d="M1762.32,-845.48C1828.43,-859.83 2008.67,-898.95 2112.36,-921.46"/>
</g>
<!-- 2049671677520 -->
<g id="node47" class="node">
<title>2049671677520</title>
<ellipse fill="none" stroke="black" cx="2189.54" cy="-884" rx="160.88" ry="18"/>
<text text-anchor="middle" x="2189.54" y="-878" font-family="Times New Roman,serif" font-size="15.00">forward phase to competent authority</text>
</g>
<!-- 2049671690048&#45;&#45;2049671677520 -->
<g id="edge40" class="edge">
<title>2049671690048&#45;&#45;2049671677520</title>
<path fill="none" stroke="black" d="M1763.3,-842.56C1821.08,-848.19 1962.45,-861.97 2066.41,-872.1"/>
</g>
<!-- 2049671678864 -->
<g id="node48" class="node">
<title>2049671678864</title>
<ellipse fill="none" stroke="black" cx="2189.54" cy="-830" rx="92.81" ry="18"/>
<text text-anchor="middle" x="2189.54" y="-824" font-family="Times New Roman,serif" font-size="15.00">Phase archived case</text>
</g>
<!-- 2049671690048&#45;&#45;2049671678864 -->
<g id="edge41" class="edge">
<title>2049671690048&#45;&#45;2049671678864</title>
<path fill="none" stroke="black" d="M1763.3,-839.42C1827.01,-838.01 1992.35,-834.35 2097.09,-832.03"/>
</g>
<!-- 2049671685248 -->
<g id="node49" class="node">
<title>2049671685248</title>
<ellipse fill="none" stroke="black" cx="2189.54" cy="-776" rx="92.81" ry="18"/>
<text text-anchor="middle" x="2189.54" y="-770" font-family="Times New Roman,serif" font-size="15.00">Phase case managed</text>
</g>
<!-- 2049671690048&#45;&#45;2049671685248 -->
<g id="edge42" class="edge">
<title>2049671690048&#45;&#45;2049671685248</title>
<path fill="none" stroke="black" d="M1762.97,-836.33C1829.86,-826.85 2010.38,-801.26 2113.54,-786.63"/>
</g>
<!-- 2049671681024 -->
<g id="node50" class="node">
<title>2049671681024</title>
<ellipse fill="none" stroke="black" cx="2189.54" cy="-722" rx="126.08" ry="18"/>
<text text-anchor="middle" x="2189.54" y="-716" font-family="Times New Roman,serif" font-size="15.00">Stop all running subcases 2b</text>
</g>
<!-- 2049671690048&#45;&#45;2049671681024 -->
<g id="edge43" class="edge">
<title>2049671690048&#45;&#45;2049671681024</title>
<path fill="none" stroke="black" d="M1761.67,-833.57C1830.49,-815.58 2026.54,-764.34 2127.23,-738.03"/>
</g>
<!-- 2049671689280 -->
<g id="node51" class="node">
<title>2049671689280</title>
<ellipse fill="none" stroke="black" cx="2189.54" cy="-668" rx="200.29" ry="18"/>
<text text-anchor="middle" x="2189.54" y="-662" font-family="Times New Roman,serif" font-size="15.00">submit request towards the competent authority</text>
</g>
<!-- 2049671690048&#45;&#45;2049671689280 -->
<g id="edge44" class="edge">
<title>2049671690048&#45;&#45;2049671689280</title>
<path fill="none" stroke="black" d="M1760.09,-831.23C1830.79,-804.3 2045.9,-722.35 2141.68,-685.86"/>
</g>
<!-- 2049671679872 -->
<g id="node56" class="node">
<title>2049671679872</title>
<ellipse fill="none" stroke="black" cx="889.03" cy="-848" rx="175.72" ry="18"/>
<text text-anchor="middle" x="889.03" y="-842" font-family="Times New Roman,serif" font-size="15.00">Record senddate procedure confirmation</text>
</g>
<!-- 2049671683232&#45;&#45;2049671679872 -->
<g id="edge52" class="edge">
<title>2049671683232&#45;&#45;2049671679872</title>
<path fill="none" stroke="black" d="M503.98,-801.17C557.05,-807.64 680.8,-822.73 773.57,-834.04"/>
</g>
<!-- 2049671677472 -->
<g id="node57" class="node">
<title>2049671677472</title>
<ellipse fill="none" stroke="black" cx="889.03" cy="-794" rx="143.99" ry="18"/>
<text text-anchor="middle" x="889.03" y="-788" font-family="Times New Roman,serif" font-size="15.00">Dispatch procedure confirmation</text>
</g>
<!-- 2049671683232&#45;&#45;2049671677472 -->
<g id="edge53" class="edge">
<title>2049671683232&#45;&#45;2049671677472</title>
<path fill="none" stroke="black" d="M504.29,-797.74C552.28,-797.28 657.28,-796.25 745.33,-795.39"/>
</g>
<!-- 2049671688560 -->
<g id="node59" class="node">
<title>2049671688560</title>
<ellipse fill="black" stroke="black" cx="889.03" cy="-748" rx="2.7" ry="2.7"/>
</g>
<!-- 2049671691344&#45;&#45;2049671688560 -->
<g id="edge55" class="edge">
<title>2049671691344&#45;&#45;2049671688560</title>
<path fill="none" stroke="black" d="M504.29,-744.26C590.54,-745.1 860.98,-747.74 886.15,-747.98"/>
</g>
<!-- 2049671691008 -->
<g id="node60" class="node">
<title>2049671691008</title>
<ellipse fill="none" stroke="black" cx="889.03" cy="-709" rx="80.52" ry="18"/>
<text text-anchor="middle" x="889.03" y="-703" font-family="Times New Roman,serif" font-size="15.00">Suspend duration</text>
</g>
<!-- 2049671691344&#45;&#45;2049671691008 -->
<g id="edge56" class="edge">
<title>2049671691344&#45;&#45;2049671691008</title>
<path fill="none" stroke="black" d="M504.29,-741.76C565.62,-736.52 720.08,-723.34 813.27,-715.38"/>
</g>
<!-- 2049671686208 -->
<g id="node64" class="node">
<title>2049671686208</title>
<ellipse fill="none" stroke="black" cx="889.03" cy="-621" rx="158.32" ry="18"/>
<text text-anchor="middle" x="889.03" y="-615" font-family="Times New Roman,serif" font-size="15.00">Record senddate termination request</text>
</g>
<!-- 2049671688608&#45;&#45;2049671686208 -->
<g id="edge60" class="edge">
<title>2049671688608&#45;&#45;2049671686208</title>
<path fill="none" stroke="black" d="M503.98,-584.47C555.56,-589.38 673.88,-600.63 765.66,-609.36"/>
</g>
<!-- 2049671677424 -->
<g id="node65" class="node">
<title>2049671677424</title>
<ellipse fill="none" stroke="black" cx="889.03" cy="-567" rx="119.93" ry="18"/>
<text text-anchor="middle" x="889.03" y="-561" font-family="Times New Roman,serif" font-size="15.00">Terminate request message</text>
</g>
<!-- 2049671688608&#45;&#45;2049671677424 -->
<g id="edge61" class="edge">
<title>2049671688608&#45;&#45;2049671677424</title>
<path fill="none" stroke="black" d="M504.29,-581.04C557.23,-579.1 679.54,-574.63 771.95,-571.25"/>
</g>
<!-- 2049671688320 -->
<g id="node68" class="node">
<title>2049671688320</title>
<ellipse fill="black" stroke="black" cx="889.03" cy="-513" rx="2.7" ry="2.7"/>
</g>
<!-- 2049671678240&#45;&#45;2049671688320 -->
<g id="edge64" class="edge">
<title>2049671678240&#45;&#45;2049671688320</title>
<path fill="none" stroke="black" d="M503.98,-476.47C589.88,-484.64 860.92,-510.42 886.14,-512.82"/>
</g>
<!-- 2049671679920 -->
<g id="node69" class="node">
<title>2049671679920</title>
<ellipse fill="none" stroke="black" cx="889.03" cy="-474" rx="133.75" ry="18"/>
<text text-anchor="middle" x="889.03" y="-468" font-family="Times New Roman,serif" font-size="15.00">send transcript to stakeholders</text>
</g>
<!-- 2049671678240&#45;&#45;2049671679920 -->
<g id="edge65" class="edge">
<title>2049671678240&#45;&#45;2049671679920</title>
<path fill="none" stroke="black" d="M504.29,-474C554.05,-474 665.09,-474 754.99,-474"/>
</g>
<!-- 2049671676608 -->
<g id="node70" class="node">
<title>2049671676608</title>
<ellipse fill="none" stroke="black" cx="889.03" cy="-420" rx="205.41" ry="18"/>
<text text-anchor="middle" x="889.03" y="-414" font-family="Times New Roman,serif" font-size="15.00">draft letter for no permit or notification required</text>
</g>
<!-- 2049671678240&#45;&#45;2049671676608 -->
<g id="edge66" class="edge">
<title>2049671678240&#45;&#45;2049671676608</title>
<path fill="none" stroke="black" d="M503.98,-470.58C556.88,-463.61 679.98,-447.4 772.65,-435.2"/>
</g>
<!-- 2049671681696 -->
<g id="node74" class="node">
<title>2049671681696</title>
<ellipse fill="none" stroke="black" cx="225.21" cy="-281" rx="45.21" ry="18"/>
<text text-anchor="middle" x="225.21" y="-275" font-family="Times New Roman,serif" font-size="15.00">xor loop</text>
</g>
<!-- 2049671857264&#45;&#45;2049671681696 -->
<g id="edge74" class="edge">
<title>2049671857264&#45;&#45;2049671681696</title>
<path fill="none" stroke="black" d="M142.63,-260.26C155.62,-263.56 171.84,-267.69 186.39,-271.39"/>
</g>
<!-- 2049671677952 -->
<g id="node77" class="node">
<title>2049671677952</title>
<ellipse fill="none" stroke="black" cx="225.21" cy="-227" rx="27" ry="18"/>
<text text-anchor="middle" x="225.21" y="-221" font-family="Times New Roman,serif" font-size="15.00">seq</text>
</g>
<!-- 2049671857264&#45;&#45;2049671677952 -->
<g id="edge77" class="edge">
<title>2049671857264&#45;&#45;2049671677952</title>
<path fill="none" stroke="black" d="M142.63,-247.74C159.79,-243.38 182.58,-237.58 199.71,-233.23"/>
</g>
<!-- 2049671691488 -->
<g id="node80" class="node">
<title>2049671691488</title>
<ellipse fill="none" stroke="black" cx="225.21" cy="-99" rx="27" ry="18"/>
<text text-anchor="middle" x="225.21" y="-93" font-family="Times New Roman,serif" font-size="15.00">seq</text>
</g>
<!-- 2049671857264&#45;&#45;2049671691488 -->
<g id="edge81" class="edge">
<title>2049671857264&#45;&#45;2049671691488</title>
<path fill="none" stroke="black" d="M129.17,-237.71C149.62,-207.86 192.85,-144.76 213.19,-115.08"/>
</g>
<!-- 2049671691776 -->
<g id="node75" class="node">
<title>2049671691776</title>
<ellipse fill="none" stroke="black" cx="477.02" cy="-312" rx="170.6" ry="18"/>
<text text-anchor="middle" x="477.02" y="-306" font-family="Times New Roman,serif" font-size="15.00">Log date of publishing received request</text>
</g>
<!-- 2049671681696&#45;&#45;2049671691776 -->
<g id="edge72" class="edge">
<title>2049671681696&#45;&#45;2049671691776</title>
<path fill="none" stroke="black" d="M268.87,-286.29C295.21,-289.56 330.33,-293.92 364.16,-298.12"/>
</g>
<!-- 2049671689376 -->
<g id="node76" class="node">
<title>2049671689376</title>
<ellipse fill="black" stroke="black" cx="477.02" cy="-273" rx="2.7" ry="2.7"/>
</g>
<!-- 2049671681696&#45;&#45;2049671689376 -->
<g id="edge73" class="edge">
<title>2049671681696&#45;&#45;2049671689376</title>
<path fill="none" stroke="black" d="M270.58,-279.58C337.32,-277.44 457.53,-273.59 474.11,-273.06"/>
</g>
<!-- 2049671692256 -->
<g id="node78" class="node">
<title>2049671692256</title>
<ellipse fill="none" stroke="black" cx="477.02" cy="-234" rx="117.89" ry="18"/>
<text text-anchor="middle" x="477.02" y="-228" font-family="Times New Roman,serif" font-size="15.00">Extend procedure duration</text>
</g>
<!-- 2049671677952&#45;&#45;2049671692256 -->
<g id="edge75" class="edge">
<title>2049671677952&#45;&#45;2049671692256</title>
<path fill="none" stroke="black" d="M252.47,-227.74C278.53,-228.47 320.31,-229.64 360.74,-230.77"/>
</g>
<!-- 2049671676368 -->
<g id="node79" class="node">
<title>2049671676368</title>
<ellipse fill="none" stroke="black" cx="477.02" cy="-180" rx="93.83" ry="18"/>
<text text-anchor="middle" x="477.02" y="-174" font-family="Times New Roman,serif" font-size="15.00">Log date publication</text>
</g>
<!-- 2049671677952&#45;&#45;2049671676368 -->
<g id="edge76" class="edge">
<title>2049671677952&#45;&#45;2049671676368</title>
<path fill="none" stroke="black" d="M251.54,-222.23C288.07,-215.36 356.84,-202.42 408.69,-192.67"/>
</g>
<!-- 2049671690912 -->
<g id="node81" class="node">
<title>2049671690912</title>
<ellipse fill="none" stroke="black" cx="477.02" cy="-126" rx="81.55" ry="18"/>
<text text-anchor="middle" x="477.02" y="-120" font-family="Times New Roman,serif" font-size="15.00">Complete request</text>
</g>
<!-- 2049671691488&#45;&#45;2049671690912 -->
<g id="edge78" class="edge">
<title>2049671691488&#45;&#45;2049671690912</title>
<path fill="none" stroke="black" d="M252,-101.79C287.34,-105.61 352.23,-112.62 403.11,-118.12"/>
</g>
<!-- 2049671678960 -->
<g id="node82" class="node">
<title>2049671678960</title>
<ellipse fill="none" stroke="black" cx="477.02" cy="-72" rx="117.89" ry="18"/>
<text text-anchor="middle" x="477.02" y="-66" font-family="Times New Roman,serif" font-size="15.00">Dispatch letter in progress</text>
</g>
<!-- 2049671691488&#45;&#45;2049671678960 -->
<g id="edge79" class="edge">
<title>2049671691488&#45;&#45;2049671678960</title>
<path fill="none" stroke="black" d="M252,-96.21C282.05,-92.97 333.44,-87.41 379.43,-82.44"/>
</g>
<!-- 2049671677280 -->
<g id="node83" class="node">
<title>2049671677280</title>
<ellipse fill="none" stroke="black" cx="477.02" cy="-18" rx="121.47" ry="18"/>
<text text-anchor="middle" x="477.02" y="-12" font-family="Times New Roman,serif" font-size="15.00">Stage application receptive</text>
</g>
<!-- 2049671691488&#45;&#45;2049671677280 -->
<g id="edge80" class="edge">
<title>2049671691488&#45;&#45;2049671677280</title>
<path fill="none" stroke="black" d="M250.16,-91.23C290.22,-78.25 371.65,-51.84 425,-34.54"/>
</g>
</g>
</svg>
