<?xml version="1.0" encoding="UTF-8" standalone="no"?>
<!DOCTYPE svg PUBLIC "-//W3C//DTD SVG 1.1//EN"
 "http://www.w3.org/Graphics/SVG/1.1/DTD/svg11.dtd">
<!-- Generated by graphviz version 11.0.0 (20240428.1522)
 -->
<!-- Title: pt Pages: 1 -->
<svg width="1076pt" height="662pt"
 viewBox="0.00 0.00 1075.90 662.00" xmlns="http://www.w3.org/2000/svg" xmlns:xlink="http://www.w3.org/1999/xlink">
<g id="graph0" class="graph" transform="scale(1 1) rotate(0) translate(4 658)">
<title>pt</title>
<polygon fill="white" stroke="none" points="-4,4 -4,-658 1071.9,-658 1071.9,4 -4,4"/>
<!-- 2561230034832 -->
<g id="node1" class="node">
<title>2561230034832</title>
<ellipse fill="none" stroke="black" cx="27" cy="-447" rx="27" ry="18"/>
<text text-anchor="middle" x="27" y="-441" font-family="Times New Roman,serif" font-size="15.00">seq</text>
</g>
<!-- 2561230032960 -->
<g id="node2" class="node">
<title>2561230032960</title>
<ellipse fill="none" stroke="black" cx="253.44" cy="-636" rx="125.05" ry="18"/>
<text text-anchor="middle" x="253.44" y="-630" font-family="Times New Roman,serif" font-size="15.00">Log submission date request</text>
</g>
<!-- 2561230034832&#45;&#45;2561230032960 -->
<g id="edge1" class="edge">
<title>2561230034832&#45;&#45;2561230032960</title>
<path fill="none" stroke="black" d="M44.5,-460.9C84.49,-494.57 186.54,-580.51 231.09,-618.02"/>
</g>
<!-- 2561230032864 -->
<g id="node3" class="node">
<title>2561230032864</title>
<ellipse fill="none" stroke="black" cx="253.44" cy="-582" rx="163.44" ry="18"/>
<text text-anchor="middle" x="253.44" y="-576" font-family="Times New Roman,serif" font-size="15.00">Log date termination request received</text>
</g>
<!-- 2561230034832&#45;&#45;2561230032864 -->
<g id="edge2" class="edge">
<title>2561230034832&#45;&#45;2561230032864</title>
<path fill="none" stroke="black" d="M47.92,-458.98C87.4,-482.73 175.78,-535.89 222.37,-563.92"/>
</g>
<!-- 2561230034016 -->
<g id="node4" class="node">
<title>2561230034016</title>
<ellipse fill="none" stroke="black" cx="253.44" cy="-528" rx="153.2" ry="18"/>
<text text-anchor="middle" x="253.44" y="-522" font-family="Times New Roman,serif" font-size="15.00">Record senddate acknowledgement</text>
</g>
<!-- 2561230034832&#45;&#45;2561230034016 -->
<g id="edge3" class="edge">
<title>2561230034832&#45;&#45;2561230034016</title>
<path fill="none" stroke="black" d="M51.17,-455.36C87.13,-468.34 157.11,-493.6 204.32,-510.63"/>
</g>
<!-- 2561230033968 -->
<g id="node5" class="node">
<title>2561230033968</title>
<ellipse fill="none" stroke="black" cx="253.44" cy="-474" rx="121.47" ry="18"/>
<text text-anchor="middle" x="253.44" y="-468" font-family="Times New Roman,serif" font-size="15.00">OLO communication active</text>
</g>
<!-- 2561230034832&#45;&#45;2561230033968 -->
<g id="edge4" class="edge">
<title>2561230034832&#45;&#45;2561230033968</title>
<path fill="none" stroke="black" d="M53.75,-450.1C79.19,-453.16 119.69,-458.03 157.5,-462.58"/>
</g>
<!-- 2561230034592 -->
<g id="node6" class="node">
<title>2561230034592</title>
<ellipse fill="none" stroke="black" cx="253.44" cy="-420" rx="116.86" ry="18"/>
<text text-anchor="middle" x="253.44" y="-414" font-family="Times New Roman,serif" font-size="15.00">Applicant is a stakeholder</text>
</g>
<!-- 2561230034832&#45;&#45;2561230034592 -->
<g id="edge5" class="edge">
<title>2561230034832&#45;&#45;2561230034592</title>
<path fill="none" stroke="black" d="M53.75,-443.9C79.71,-440.78 121.35,-435.77 159.81,-431.14"/>
</g>
<!-- 2561230035024 -->
<g id="node7" class="node">
<title>2561230035024</title>
<ellipse fill="none" stroke="black" cx="253.44" cy="-366" rx="27" ry="18"/>
<text text-anchor="middle" x="253.44" y="-360" font-family="Times New Roman,serif" font-size="15.00">and</text>
</g>
<!-- 2561230034832&#45;&#45;2561230035024 -->
<g id="edge9" class="edge">
<title>2561230034832&#45;&#45;2561230035024</title>
<path fill="none" stroke="black" d="M51.17,-438.64C94.18,-423.12 185.89,-390.02 229.05,-374.44"/>
</g>
<!-- 2561230035360 -->
<g id="node11" class="node">
<title>2561230035360</title>
<ellipse fill="none" stroke="black" cx="253.44" cy="-312" rx="45.21" ry="18"/>
<text text-anchor="middle" x="253.44" y="-306" font-family="Times New Roman,serif" font-size="15.00">xor loop</text>
</g>
<!-- 2561230034832&#45;&#45;2561230035360 -->
<g id="edge12" class="edge">
<title>2561230034832&#45;&#45;2561230035360</title>
<path fill="none" stroke="black" d="M47.92,-435.02C88.9,-410.37 182.58,-354.02 227.5,-327"/>
</g>
<!-- 2561230036992 -->
<g id="node14" class="node">
<title>2561230036992</title>
<ellipse fill="none" stroke="black" cx="253.44" cy="-234" rx="27" ry="18"/>
<text text-anchor="middle" x="253.44" y="-228" font-family="Times New Roman,serif" font-size="15.00">xor</text>
</g>
<!-- 2561230034832&#45;&#45;2561230036992 -->
<g id="edge21" class="edge">
<title>2561230034832&#45;&#45;2561230036992</title>
<path fill="none" stroke="black" d="M43.43,-432.36C84.43,-393.45 195.78,-287.77 236.9,-248.74"/>
</g>
<!-- 2561230036368 -->
<g id="node8" class="node">
<title>2561230036368</title>
<ellipse fill="none" stroke="black" cx="584.07" cy="-474" rx="118.91" ry="18"/>
<text text-anchor="middle" x="584.07" y="-468" font-family="Times New Roman,serif" font-size="15.00">Stage application received</text>
</g>
<!-- 2561230035024&#45;&#45;2561230036368 -->
<g id="edge6" class="edge">
<title>2561230035024&#45;&#45;2561230036368</title>
<path fill="none" stroke="black" d="M278.07,-373.77C331.05,-391.18 460.32,-433.66 532.39,-457.35"/>
</g>
<!-- 2561230035552 -->
<g id="node9" class="node">
<title>2561230035552</title>
<ellipse fill="none" stroke="black" cx="584.07" cy="-420" rx="129.15" ry="18"/>
<text text-anchor="middle" x="584.07" y="-414" font-family="Times New Roman,serif" font-size="15.00">Compute provisional charges</text>
</g>
<!-- 2561230035024&#45;&#45;2561230035552 -->
<g id="edge7" class="edge">
<title>2561230035024&#45;&#45;2561230035552</title>
<path fill="none" stroke="black" d="M279.95,-370.19C326.32,-377.81 426.33,-394.25 498.82,-406.16"/>
</g>
<!-- 2561230036896 -->
<g id="node10" class="node">
<title>2561230036896</title>
<ellipse fill="none" stroke="black" cx="584.07" cy="-366" rx="70.8" ry="18"/>
<text text-anchor="middle" x="584.07" y="-360" font-family="Times New Roman,serif" font-size="15.00">End on request</text>
</g>
<!-- 2561230035024&#45;&#45;2561230036896 -->
<g id="edge8" class="edge">
<title>2561230035024&#45;&#45;2561230036896</title>
<path fill="none" stroke="black" d="M280.78,-366C330.66,-366 440.41,-366 513.03,-366"/>
</g>
<!-- 2561230037568 -->
<g id="node12" class="node">
<title>2561230037568</title>
<ellipse fill="none" stroke="black" cx="584.07" cy="-312" rx="131.19" ry="18"/>
<text text-anchor="middle" x="584.07" y="-306" font-family="Times New Roman,serif" font-size="15.00">Dispatch confirmation receipt</text>
</g>
<!-- 2561230035360&#45;&#45;2561230037568 -->
<g id="edge10" class="edge">
<title>2561230035360&#45;&#45;2561230037568</title>
<path fill="none" stroke="black" d="M299.1,-312C338.59,-312 398.21,-312 452.64,-312"/>
</g>
<!-- 2561230037280 -->
<g id="node13" class="node">
<title>2561230037280</title>
<ellipse fill="black" stroke="black" cx="584.07" cy="-273" rx="2.7" ry="2.7"/>
</g>
<!-- 2561230035360&#45;&#45;2561230037280 -->
<g id="edge11" class="edge">
<title>2561230035360&#45;&#45;2561230037280</title>
<path fill="none" stroke="black" d="M297.06,-306.94C381.12,-296.97 561.84,-275.52 581.35,-273.2"/>
</g>
<!-- 2561230037952 -->
<g id="node15" class="node">
<title>2561230037952</title>
<ellipse fill="none" stroke="black" cx="584.07" cy="-234" rx="27" ry="18"/>
<text text-anchor="middle" x="584.07" y="-228" font-family="Times New Roman,serif" font-size="15.00">seq</text>
</g>
<!-- 2561230036992&#45;&#45;2561230037952 -->
<g id="edge15" class="edge">
<title>2561230036992&#45;&#45;2561230037952</title>
<path fill="none" stroke="black" d="M280.78,-234C342.31,-234 494.95,-234 556.61,-234"/>
</g>
<!-- 2561230039008 -->
<g id="node18" class="node">
<title>2561230039008</title>
<ellipse fill="none" stroke="black" cx="584.07" cy="-126" rx="27" ry="18"/>
<text text-anchor="middle" x="584.07" y="-120" font-family="Times New Roman,serif" font-size="15.00">seq</text>
</g>
<!-- 2561230036992&#45;&#45;2561230039008 -->
<g id="edge20" class="edge">
<title>2561230036992&#45;&#45;2561230039008</title>
<path fill="none" stroke="black" d="M278.07,-226.23C338.56,-206.35 498.47,-153.8 559.21,-133.84"/>
</g>
<!-- 2561230039296 -->
<g id="node16" class="node">
<title>2561230039296</title>
<ellipse fill="none" stroke="black" cx="909.58" cy="-288" rx="136.82" ry="18"/>
<text text-anchor="middle" x="909.58" y="-282" font-family="Times New Roman,serif" font-size="15.00">Send to the competent authority</text>
</g>
<!-- 2561230037952&#45;&#45;2561230039296 -->
<g id="edge13" class="edge">
<title>2561230037952&#45;&#45;2561230039296</title>
<path fill="none" stroke="black" d="M610.72,-238.28C656.01,-245.84 752.01,-261.87 822.84,-273.69"/>
</g>
<!-- 2561230039680 -->
<g id="node17" class="node">
<title>2561230039680</title>
<ellipse fill="none" stroke="black" cx="909.58" cy="-234" rx="147.06" ry="18"/>
<text text-anchor="middle" x="909.58" y="-228" font-family="Times New Roman,serif" font-size="15.00">Standard procedure without MER</text>
</g>
<!-- 2561230037952&#45;&#45;2561230039680 -->
<g id="edge14" class="edge">
<title>2561230037952&#45;&#45;2561230039680</title>
<path fill="none" stroke="black" d="M611.54,-234C644.89,-234 704.8,-234 762.11,-234"/>
</g>
<!-- 2561230040640 -->
<g id="node19" class="node">
<title>2561230040640</title>
<ellipse fill="none" stroke="black" cx="909.58" cy="-180" rx="119.93" ry="18"/>
<text text-anchor="middle" x="909.58" y="-174" font-family="Times New Roman,serif" font-size="15.00">Terminate request message</text>
</g>
<!-- 2561230039008&#45;&#45;2561230040640 -->
<g id="edge16" class="edge">
<title>2561230039008&#45;&#45;2561230040640</title>
<path fill="none" stroke="black" d="M610.72,-130.28C657.05,-138.02 756.47,-154.61 827.71,-166.5"/>
</g>
<!-- 2561230041072 -->
<g id="node20" class="node">
<title>2561230041072</title>
<ellipse fill="none" stroke="black" cx="909.58" cy="-126" rx="158.32" ry="18"/>
<text text-anchor="middle" x="909.58" y="-120" font-family="Times New Roman,serif" font-size="15.00">Record senddate termination request</text>
</g>
<!-- 2561230039008&#45;&#45;2561230041072 -->
<g id="edge17" class="edge">
<title>2561230039008&#45;&#45;2561230041072</title>
<path fill="none" stroke="black" d="M611.54,-126C642.7,-126 697.05,-126 750.81,-126"/>
</g>
<!-- 2561230040928 -->
<g id="node21" class="node">
<title>2561230040928</title>
<ellipse fill="none" stroke="black" cx="909.58" cy="-72" rx="119.42" ry="18"/>
<text text-anchor="middle" x="909.58" y="-66" font-family="Times New Roman,serif" font-size="15.00">Phase procedure cancelled</text>
</g>
<!-- 2561230039008&#45;&#45;2561230040928 -->
<g id="edge18" class="edge">
<title>2561230039008&#45;&#45;2561230040928</title>
<path fill="none" stroke="black" d="M610.72,-121.72C657.05,-113.98 756.47,-97.39 827.71,-85.5"/>
</g>
<!-- 2561230041648 -->
<g id="node22" class="node">
<title>2561230041648</title>
<ellipse fill="none" stroke="black" cx="909.58" cy="-18" rx="63.63" ry="18"/>
<text text-anchor="middle" x="909.58" y="-12" font-family="Times New Roman,serif" font-size="15.00">Log deadline</text>
</g>
<!-- 2561230039008&#45;&#45;2561230041648 -->
<g id="edge19" class="edge">
<title>2561230039008&#45;&#45;2561230041648</title>
<path fill="none" stroke="black" d="M608.86,-118.06C663.5,-99.82 798.56,-54.73 867.17,-31.83"/>
</g>
</g>
</svg>
