<?xml version="1.0" encoding="UTF-8" standalone="no"?>
<!DOCTYPE svg PUBLIC "-//W3C//DTD SVG 1.1//EN"
 "http://www.w3.org/Graphics/SVG/1.1/DTD/svg11.dtd">
<!-- Generated by graphviz version 11.0.0 (20240428.1522)
 -->
<!-- Title: pt Pages: 1 -->
<svg width="3279pt" height="1350pt"
 viewBox="0.00 0.00 3278.74 1350.00" xmlns="http://www.w3.org/2000/svg" xmlns:xlink="http://www.w3.org/1999/xlink">
<g id="graph0" class="graph" transform="scale(1 1) rotate(0) translate(4 1346)">
<title>pt</title>
<polygon fill="white" stroke="none" points="-4,4 -4,-1346 3274.74,-1346 3274.74,4 -4,4"/>
<!-- 2067588636768 -->
<g id="node1" class="node">
<title>2067588636768</title>
<ellipse fill="none" stroke="black" cx="27" cy="-1132" rx="27" ry="18"/>
<text text-anchor="middle" x="27" y="-1126" font-family="Times New Roman,serif" font-size="15.00">seq</text>
</g>
<!-- 2067588644544 -->
<g id="node2" class="node">
<title>2067588644544</title>
<ellipse fill="none" stroke="black" cx="219.66" cy="-1186" rx="129.66" ry="18"/>
<text text-anchor="middle" x="219.66" y="-1180" font-family="Times New Roman,serif" font-size="15.00">Input submission date request</text>
</g>
<!-- 2067588636768&#45;&#45;2067588644544 -->
<g id="edge1" class="edge">
<title>2067588636768&#45;&#45;2067588644544</title>
<path fill="none" stroke="black" d="M52.15,-1138.84C79.3,-1146.53 124.36,-1159.29 160.76,-1169.6"/>
</g>
<!-- 2067588642288 -->
<g id="node3" class="node">
<title>2067588642288</title>
<ellipse fill="none" stroke="black" cx="219.66" cy="-1132" rx="27" ry="18"/>
<text text-anchor="middle" x="219.66" y="-1126" font-family="Times New Roman,serif" font-size="15.00">and</text>
</g>
<!-- 2067588636768&#45;&#45;2067588642288 -->
<g id="edge56" class="edge">
<title>2067588636768&#45;&#45;2067588642288</title>
<path fill="none" stroke="black" d="M54.11,-1132C90.42,-1132 155.79,-1132 192.25,-1132"/>
</g>
<!-- 2067588630480 -->
<g id="node58" class="node">
<title>2067588630480</title>
<ellipse fill="none" stroke="black" cx="219.66" cy="-628" rx="27" ry="18"/>
<text text-anchor="middle" x="219.66" y="-622" font-family="Times New Roman,serif" font-size="15.00">xor</text>
</g>
<!-- 2067588636768&#45;&#45;2067588630480 -->
<g id="edge94" class="edge">
<title>2067588636768&#45;&#45;2067588630480</title>
<path fill="none" stroke="black" d="M34.67,-1114.36C64.17,-1036.39 182.65,-723.18 212.04,-645.5"/>
</g>
<!-- 2067589258208 -->
<g id="node4" class="node">
<title>2067589258208</title>
<ellipse fill="none" stroke="black" cx="536.47" cy="-1213" rx="131.19" ry="18"/>
<text text-anchor="middle" x="536.47" y="-1207" font-family="Times New Roman,serif" font-size="15.00">Phase of application received</text>
</g>
<!-- 2067588642288&#45;&#45;2067589258208 -->
<g id="edge2" class="edge">
<title>2067588642288&#45;&#45;2067589258208</title>
<path fill="none" stroke="black" d="M245.36,-1138.36C293.92,-1150.85 403.13,-1178.95 472.84,-1196.89"/>
</g>
<!-- 2067589254032 -->
<g id="node5" class="node">
<title>2067589254032</title>
<ellipse fill="none" stroke="black" cx="536.47" cy="-1159" rx="151.15" ry="18"/>
<text text-anchor="middle" x="536.47" y="-1153" font-family="Times New Roman,serif" font-size="15.00">Transfer to the competent authority</text>
</g>
<!-- 2067588642288&#45;&#45;2067589254032 -->
<g id="edge3" class="edge">
<title>2067588642288&#45;&#45;2067589254032</title>
<path fill="none" stroke="black" d="M246.69,-1134.23C283,-1137.35 351.29,-1143.2 412.34,-1148.44"/>
</g>
<!-- 2067589267280 -->
<g id="node6" class="node">
<title>2067589267280</title>
<ellipse fill="none" stroke="black" cx="536.47" cy="-1105" rx="27" ry="18"/>
<text text-anchor="middle" x="536.47" y="-1099" font-family="Times New Roman,serif" font-size="15.00">seq</text>
</g>
<!-- 2067588642288&#45;&#45;2067589267280 -->
<g id="edge55" class="edge">
<title>2067588642288&#45;&#45;2067589267280</title>
<path fill="none" stroke="black" d="M246.69,-1129.77C305.91,-1124.69 450.16,-1112.32 509.41,-1107.24"/>
</g>
<!-- 2067589259936 -->
<g id="node7" class="node">
<title>2067589259936</title>
<ellipse fill="none" stroke="black" cx="920.84" cy="-1324" rx="93.32" ry="18"/>
<text text-anchor="middle" x="920.84" y="-1318" font-family="Times New Roman,serif" font-size="15.00">OLO messaging live</text>
</g>
<!-- 2067589267280&#45;&#45;2067589259936 -->
<g id="edge4" class="edge">
<title>2067589267280&#45;&#45;2067589259936</title>
<path fill="none" stroke="black" d="M557.76,-1116.62C620.91,-1152.79 814.22,-1263.51 889.44,-1306.59"/>
</g>
<!-- 2067589267040 -->
<g id="node8" class="node">
<title>2067589267040</title>
<ellipse fill="none" stroke="black" cx="920.84" cy="-1270" rx="45.21" ry="18"/>
<text text-anchor="middle" x="920.84" y="-1264" font-family="Times New Roman,serif" font-size="15.00">xor loop</text>
</g>
<!-- 2067589267280&#45;&#45;2067589267040 -->
<g id="edge7" class="edge">
<title>2067589267280&#45;&#45;2067589267040</title>
<path fill="none" stroke="black" d="M559.68,-1114.58C624.63,-1142.61 814.34,-1224.47 889.07,-1256.72"/>
</g>
<!-- 2067589262720 -->
<g id="node11" class="node">
<title>2067589262720</title>
<ellipse fill="none" stroke="black" cx="920.84" cy="-1213" rx="27" ry="18"/>
<text text-anchor="middle" x="920.84" y="-1207" font-family="Times New Roman,serif" font-size="15.00">xor</text>
</g>
<!-- 2067589267280&#45;&#45;2067589262720 -->
<g id="edge12" class="edge">
<title>2067589267280&#45;&#45;2067589262720</title>
<path fill="none" stroke="black" d="M561.97,-1111.92C631.03,-1131.43 826.73,-1186.7 895.54,-1206.14"/>
</g>
<!-- 2067589262960 -->
<g id="node16" class="node">
<title>2067589262960</title>
<ellipse fill="none" stroke="black" cx="920.84" cy="-1159" rx="142.45" ry="18"/>
<text text-anchor="middle" x="920.84" y="-1153" font-family="Times New Roman,serif" font-size="15.00">Routine procedure without MER</text>
</g>
<!-- 2067589267280&#45;&#45;2067589262960 -->
<g id="edge13" class="edge">
<title>2067589267280&#45;&#45;2067589262960</title>
<path fill="none" stroke="black" d="M563.15,-1108.63C615.56,-1116.03 737.2,-1133.21 823.83,-1145.44"/>
</g>
<!-- 2067589267424 -->
<g id="node17" class="node">
<title>2067589267424</title>
<ellipse fill="none" stroke="black" cx="920.84" cy="-1105" rx="27" ry="18"/>
<text text-anchor="middle" x="920.84" y="-1099" font-family="Times New Roman,serif" font-size="15.00">xor</text>
</g>
<!-- 2067589267280&#45;&#45;2067589267424 -->
<g id="edge18" class="edge">
<title>2067589267280&#45;&#45;2067589267424</title>
<path fill="none" stroke="black" d="M563.75,-1105C633.61,-1105 823.31,-1105 893.38,-1105"/>
</g>
<!-- 2067589257104 -->
<g id="node22" class="node">
<title>2067589257104</title>
<ellipse fill="none" stroke="black" cx="920.84" cy="-1045" rx="27" ry="18"/>
<text text-anchor="middle" x="920.84" y="-1039" font-family="Times New Roman,serif" font-size="15.00">and</text>
</g>
<!-- 2067589267280&#45;&#45;2067589257104 -->
<g id="edge25" class="edge">
<title>2067589267280&#45;&#45;2067589257104</title>
<path fill="none" stroke="black" d="M563.15,-1100.97C632.73,-1090.05 824.28,-1059.99 894.02,-1049.05"/>
</g>
<!-- 2067589261136 -->
<g id="node29" class="node">
<title>2067589261136</title>
<ellipse fill="none" stroke="black" cx="920.84" cy="-944" rx="27" ry="18"/>
<text text-anchor="middle" x="920.84" y="-938" font-family="Times New Roman,serif" font-size="15.00">xor</text>
</g>
<!-- 2067589267280&#45;&#45;2067589261136 -->
<g id="edge49" class="edge">
<title>2067589267280&#45;&#45;2067589261136</title>
<path fill="none" stroke="black" d="M559.96,-1095.53C627.84,-1066.95 830.1,-981.79 897.62,-953.36"/>
</g>
<!-- 2067589264880 -->
<g id="node53" class="node">
<title>2067589264880</title>
<ellipse fill="none" stroke="black" cx="920.84" cy="-871" rx="27" ry="18"/>
<text text-anchor="middle" x="920.84" y="-865" font-family="Times New Roman,serif" font-size="15.00">xor</text>
</g>
<!-- 2067589267280&#45;&#45;2067589264880 -->
<g id="edge54" class="edge">
<title>2067589267280&#45;&#45;2067589264880</title>
<path fill="none" stroke="black" d="M557.22,-1092.91C623.13,-1052.58 835.04,-922.9 900.43,-882.88"/>
</g>
<!-- 2067589259264 -->
<g id="node9" class="node">
<title>2067589259264</title>
<ellipse fill="none" stroke="black" cx="1281.67" cy="-1310" rx="127.61" ry="18"/>
<text text-anchor="middle" x="1281.67" y="-1304" font-family="Times New Roman,serif" font-size="15.00">Provide confirmation receipt</text>
</g>
<!-- 2067589267040&#45;&#45;2067589259264 -->
<g id="edge5" class="edge">
<title>2067589267040&#45;&#45;2067589259264</title>
<path fill="none" stroke="black" d="M964.77,-1274.79C1017.6,-1280.67 1109.02,-1290.87 1179.96,-1298.77"/>
</g>
<!-- 2067589265264 -->
<g id="node10" class="node">
<title>2067589265264</title>
<ellipse fill="black" stroke="black" cx="1281.67" cy="-1271" rx="2.7" ry="2.7"/>
</g>
<!-- 2067589267040&#45;&#45;2067589265264 -->
<g id="edge6" class="edge">
<title>2067589267040&#45;&#45;2067589265264</title>
<path fill="none" stroke="black" d="M966.2,-1270.12C1056.95,-1270.38 1257.14,-1270.93 1278.76,-1270.99"/>
</g>
<!-- 2067589265696 -->
<g id="node12" class="node">
<title>2067589265696</title>
<ellipse fill="black" stroke="black" cx="1281.67" cy="-1248" rx="2.7" ry="2.7"/>
</g>
<!-- 2067589262720&#45;&#45;2067589265696 -->
<g id="edge8" class="edge">
<title>2067589262720&#45;&#45;2067589265696</title>
<path fill="none" stroke="black" d="M947.94,-1215.55C1025.99,-1223.16 1253.81,-1245.38 1278.49,-1247.79"/>
</g>
<!-- 2067588224384 -->
<g id="node13" class="node">
<title>2067588224384</title>
<ellipse fill="none" stroke="black" cx="1281.67" cy="-1209" rx="27" ry="18"/>
<text text-anchor="middle" x="1281.67" y="-1203" font-family="Times New Roman,serif" font-size="15.00">seq</text>
</g>
<!-- 2067589262720&#45;&#45;2067588224384 -->
<g id="edge11" class="edge">
<title>2067589262720&#45;&#45;2067588224384</title>
<path fill="none" stroke="black" d="M948.23,-1212.71C1014.58,-1211.97 1187.84,-1210.03 1254.24,-1209.29"/>
</g>
<!-- 2067588229904 -->
<g id="node14" class="node">
<title>2067588229904</title>
<ellipse fill="none" stroke="black" cx="1662.46" cy="-1284" rx="147.06" ry="18"/>
<text text-anchor="middle" x="1662.46" y="-1278" font-family="Times New Roman,serif" font-size="15.00">Applicant considered stakeholder</text>
</g>
<!-- 2067588224384&#45;&#45;2067588229904 -->
<g id="edge9" class="edge">
<title>2067588224384&#45;&#45;2067588229904</title>
<path fill="none" stroke="black" d="M1308.11,-1214.04C1363.51,-1225.01 1497,-1251.44 1583.12,-1268.49"/>
</g>
<!-- 2067588219104 -->
<g id="node15" class="node">
<title>2067588219104</title>
<ellipse fill="none" stroke="black" cx="1662.46" cy="-1230" rx="111.74" ry="18"/>
<text text-anchor="middle" x="1662.46" y="-1224" font-family="Times New Roman,serif" font-size="15.00">Alert BAG administrator</text>
</g>
<!-- 2067588224384&#45;&#45;2067588219104 -->
<g id="edge10" class="edge">
<title>2067588224384&#45;&#45;2067588219104</title>
<path fill="none" stroke="black" d="M1309,-1210.46C1359.34,-1213.25 1471.69,-1219.48 1556.1,-1224.16"/>
</g>
<!-- 2067588222128 -->
<g id="node18" class="node">
<title>2067588222128</title>
<ellipse fill="black" stroke="black" cx="1281.67" cy="-1159" rx="2.7" ry="2.7"/>
</g>
<!-- 2067589267424&#45;&#45;2067588222128 -->
<g id="edge14" class="edge">
<title>2067589267424&#45;&#45;2067588222128</title>
<path fill="none" stroke="black" d="M947.65,-1108.88C1025.42,-1120.59 1253.75,-1154.95 1278.49,-1158.67"/>
</g>
<!-- 2067588229280 -->
<g id="node19" class="node">
<title>2067588229280</title>
<ellipse fill="none" stroke="black" cx="1281.67" cy="-1120" rx="27" ry="18"/>
<text text-anchor="middle" x="1281.67" y="-1114" font-family="Times New Roman,serif" font-size="15.00">seq</text>
</g>
<!-- 2067589267424&#45;&#45;2067588229280 -->
<g id="edge17" class="edge">
<title>2067589267424&#45;&#45;2067588229280</title>
<path fill="none" stroke="black" d="M948.23,-1106.1C1014.58,-1108.88 1187.84,-1116.12 1254.24,-1118.9"/>
</g>
<!-- 2067588227552 -->
<g id="node20" class="node">
<title>2067588227552</title>
<ellipse fill="none" stroke="black" cx="1662.46" cy="-1176" rx="57.49" ry="18"/>
<text text-anchor="middle" x="1662.46" y="-1170" font-family="Times New Roman,serif" font-size="15.00">MER listed</text>
</g>
<!-- 2067588229280&#45;&#45;2067588227552 -->
<g id="edge15" class="edge">
<title>2067588229280&#45;&#45;2067588227552</title>
<path fill="none" stroke="black" d="M1308.41,-1123.81C1370.18,-1132.94 1527.8,-1156.24 1609.93,-1168.38"/>
</g>
<!-- 2067588230192 -->
<g id="node21" class="node">
<title>2067588230192</title>
<ellipse fill="none" stroke="black" cx="1662.46" cy="-1122" rx="125.56" ry="18"/>
<text text-anchor="middle" x="1662.46" y="-1116" font-family="Times New Roman,serif" font-size="15.00">Routine procedure activities</text>
</g>
<!-- 2067588229280&#45;&#45;2067588230192 -->
<g id="edge16" class="edge">
<title>2067588229280&#45;&#45;2067588230192</title>
<path fill="none" stroke="black" d="M1309,-1120.14C1355.56,-1120.38 1455.19,-1120.91 1536.68,-1121.34"/>
</g>
<!-- 2067588233648 -->
<g id="node23" class="node">
<title>2067588233648</title>
<ellipse fill="none" stroke="black" cx="1281.67" cy="-1045" rx="27" ry="18"/>
<text text-anchor="middle" x="1281.67" y="-1039" font-family="Times New Roman,serif" font-size="15.00">xor</text>
</g>
<!-- 2067589257104&#45;&#45;2067588233648 -->
<g id="edge21" class="edge">
<title>2067589257104&#45;&#45;2067588233648</title>
<path fill="none" stroke="black" d="M948.23,-1045C1014.58,-1045 1187.84,-1045 1254.24,-1045"/>
</g>
<!-- 2067588221936 -->
<g id="node26" class="node">
<title>2067588221936</title>
<ellipse fill="none" stroke="black" cx="1281.67" cy="-990" rx="27" ry="18"/>
<text text-anchor="middle" x="1281.67" y="-984" font-family="Times New Roman,serif" font-size="15.00">seq</text>
</g>
<!-- 2067589257104&#45;&#45;2067588221936 -->
<g id="edge24" class="edge">
<title>2067589257104&#45;&#45;2067588221936</title>
<path fill="none" stroke="black" d="M947.65,-1041.04C1013.85,-1030.9 1189.15,-1004.03 1255.1,-993.92"/>
</g>
<!-- 2067588231008 -->
<g id="node24" class="node">
<title>2067588231008</title>
<ellipse fill="black" stroke="black" cx="1662.46" cy="-1083" rx="2.7" ry="2.7"/>
</g>
<!-- 2067588233648&#45;&#45;2067588231008 -->
<g id="edge19" class="edge">
<title>2067588233648&#45;&#45;2067588231008</title>
<path fill="none" stroke="black" d="M1308.7,-1047.61C1389.94,-1055.76 1634.79,-1080.32 1659.45,-1082.8"/>
</g>
<!-- 2067588230000 -->
<g id="node25" class="node">
<title>2067588230000</title>
<ellipse fill="none" stroke="black" cx="1662.46" cy="-1044" rx="112.77" ry="18"/>
<text text-anchor="middle" x="1662.46" y="-1038" font-family="Times New Roman,serif" font-size="15.00">Initiate WABOprocedure</text>
</g>
<!-- 2067588233648&#45;&#45;2067588230000 -->
<g id="edge20" class="edge">
<title>2067588233648&#45;&#45;2067588230000</title>
<path fill="none" stroke="black" d="M1309,-1044.93C1357.99,-1044.8 1465.74,-1044.52 1549.29,-1044.3"/>
</g>
<!-- 2067588234944 -->
<g id="node27" class="node">
<title>2067588234944</title>
<ellipse fill="none" stroke="black" cx="1662.46" cy="-990" rx="139.89" ry="18"/>
<text text-anchor="middle" x="1662.46" y="-984" font-family="Times New Roman,serif" font-size="15.00">Inspect field phased application</text>
</g>
<!-- 2067588221936&#45;&#45;2067588234944 -->
<g id="edge22" class="edge">
<title>2067588221936&#45;&#45;2067588234944</title>
<path fill="none" stroke="black" d="M1309,-990C1352.88,-990 1443.87,-990 1522.41,-990"/>
</g>
<!-- 2067588229472 -->
<g id="node28" class="node">
<title>2067588229472</title>
<ellipse fill="none" stroke="black" cx="1662.46" cy="-936" rx="129.15" ry="18"/>
<text text-anchor="middle" x="1662.46" y="-930" font-family="Times New Roman,serif" font-size="15.00">Draft procedure confirmation</text>
</g>
<!-- 2067588221936&#45;&#45;2067588229472 -->
<g id="edge23" class="edge">
<title>2067588221936&#45;&#45;2067588229472</title>
<path fill="none" stroke="black" d="M1308.41,-986.33C1361.36,-978.78 1484.73,-961.19 1570.61,-948.95"/>
</g>
<!-- 2067588225008 -->
<g id="node30" class="node">
<title>2067588225008</title>
<ellipse fill="black" stroke="black" cx="1281.67" cy="-944" rx="2.7" ry="2.7"/>
</g>
<!-- 2067589261136&#45;&#45;2067588225008 -->
<g id="edge26" class="edge">
<title>2067589261136&#45;&#45;2067588225008</title>
<path fill="none" stroke="black" d="M948.23,-944C1026.56,-944 1253.87,-944 1278.5,-944"/>
</g>
<!-- 2067588227600 -->
<g id="node31" class="node">
<title>2067588227600</title>
<ellipse fill="none" stroke="black" cx="1281.67" cy="-890" rx="27" ry="18"/>
<text text-anchor="middle" x="1281.67" y="-884" font-family="Times New Roman,serif" font-size="15.00">seq</text>
</g>
<!-- 2067589261136&#45;&#45;2067588227600 -->
<g id="edge48" class="edge">
<title>2067589261136&#45;&#45;2067588227600</title>
<path fill="none" stroke="black" d="M947.65,-940.12C1013.85,-930.15 1189.15,-903.77 1255.1,-893.85"/>
</g>
<!-- 2067588224096 -->
<g id="node32" class="node">
<title>2067588224096</title>
<ellipse fill="none" stroke="black" cx="1662.46" cy="-882" rx="27" ry="18"/>
<text text-anchor="middle" x="1662.46" y="-876" font-family="Times New Roman,serif" font-size="15.00">xor</text>
</g>
<!-- 2067588227600&#45;&#45;2067588224096 -->
<g id="edge29" class="edge">
<title>2067588227600&#45;&#45;2067588224096</title>
<path fill="none" stroke="black" d="M1309,-889.44C1378.38,-887.98 1565.58,-884.02 1635.04,-882.56"/>
</g>
<!-- 2067588219200 -->
<g id="node35" class="node">
<title>2067588219200</title>
<ellipse fill="none" stroke="black" cx="1662.46" cy="-828" rx="27" ry="18"/>
<text text-anchor="middle" x="1662.46" y="-822" font-family="Times New Roman,serif" font-size="15.00">and</text>
</g>
<!-- 2067588227600&#45;&#45;2067588219200 -->
<g id="edge47" class="edge">
<title>2067588227600&#45;&#45;2067588219200</title>
<path fill="none" stroke="black" d="M1308.41,-885.79C1377.51,-874.48 1566.54,-843.54 1635.68,-832.22"/>
</g>
<!-- 2067588224528 -->
<g id="node33" class="node">
<title>2067588224528</title>
<ellipse fill="black" stroke="black" cx="2065.76" cy="-921" rx="2.7" ry="2.7"/>
</g>
<!-- 2067588224096&#45;&#45;2067588224528 -->
<g id="edge27" class="edge">
<title>2067588224096&#45;&#45;2067588224528</title>
<path fill="none" stroke="black" d="M1689.48,-884.53C1773.89,-892.73 2036.19,-918.22 2062.61,-920.79"/>
</g>
<!-- 2067588225392 -->
<g id="node34" class="node">
<title>2067588225392</title>
<ellipse fill="none" stroke="black" cx="2065.76" cy="-882" rx="87.69" ry="18"/>
<text text-anchor="middle" x="2065.76" y="-876" font-family="Times New Roman,serif" font-size="15.00">Phased application</text>
</g>
<!-- 2067588224096&#45;&#45;2067588225392 -->
<g id="edge28" class="edge">
<title>2067588224096&#45;&#45;2067588225392</title>
<path fill="none" stroke="black" d="M1689.79,-882C1747.24,-882 1886.05,-882 1977.7,-882"/>
</g>
<!-- 2067588225872 -->
<g id="node36" class="node">
<title>2067588225872</title>
<ellipse fill="none" stroke="black" cx="2065.76" cy="-828" rx="51.35" ry="18"/>
<text text-anchor="middle" x="2065.76" y="-822" font-family="Times New Roman,serif" font-size="15.00">Distribute</text>
</g>
<!-- 2067588219200&#45;&#45;2067588225872 -->
<g id="edge30" class="edge">
<title>2067588219200&#45;&#45;2067588225872</title>
<path fill="none" stroke="black" d="M1689.79,-828C1755.53,-828 1927.76,-828 2014.01,-828"/>
</g>
<!-- 2067589204496 -->
<g id="node37" class="node">
<title>2067589204496</title>
<ellipse fill="none" stroke="black" cx="2065.76" cy="-774" rx="27" ry="18"/>
<text text-anchor="middle" x="2065.76" y="-768" font-family="Times New Roman,serif" font-size="15.00">seq</text>
</g>
<!-- 2067588219200&#45;&#45;2067589204496 -->
<g id="edge46" class="edge">
<title>2067588219200&#45;&#45;2067589204496</title>
<path fill="none" stroke="black" d="M1689.17,-824.54C1761.57,-814.8 1966.55,-787.22 2039.01,-777.47"/>
</g>
<!-- 2067589205648 -->
<g id="node38" class="node">
<title>2067589205648</title>
<ellipse fill="none" stroke="black" cx="2395.88" cy="-862" rx="27" ry="18"/>
<text text-anchor="middle" x="2395.88" y="-856" font-family="Times New Roman,serif" font-size="15.00">xor</text>
</g>
<!-- 2067589204496&#45;&#45;2067589205648 -->
<g id="edge35" class="edge">
<title>2067589204496&#45;&#45;2067589205648</title>
<path fill="none" stroke="black" d="M2091.43,-780.61C2152.38,-796.96 2309.6,-839.13 2370.38,-855.43"/>
</g>
<!-- 2067589211696 -->
<g id="node43" class="node">
<title>2067589211696</title>
<ellipse fill="none" stroke="black" cx="2395.88" cy="-801" rx="27" ry="18"/>
<text text-anchor="middle" x="2395.88" y="-795" font-family="Times New Roman,serif" font-size="15.00">xor</text>
</g>
<!-- 2067589204496&#45;&#45;2067589211696 -->
<g id="edge41" class="edge">
<title>2067589204496&#45;&#45;2067589211696</title>
<path fill="none" stroke="black" d="M2093.06,-776.16C2154.65,-781.23 2307.66,-793.82 2368.92,-798.86"/>
</g>
<!-- 2067589206800 -->
<g id="node49" class="node">
<title>2067589206800</title>
<ellipse fill="none" stroke="black" cx="2395.88" cy="-747" rx="143.99" ry="18"/>
<text text-anchor="middle" x="2395.88" y="-741" font-family="Times New Roman,serif" font-size="15.00">Transmit procedure confirmation</text>
</g>
<!-- 2067589204496&#45;&#45;2067589206800 -->
<g id="edge42" class="edge">
<title>2067589204496&#45;&#45;2067589206800</title>
<path fill="none" stroke="black" d="M2093.06,-771.84C2132.22,-768.61 2208.33,-762.35 2274.32,-756.92"/>
</g>
<!-- 2067589204592 -->
<g id="node50" class="node">
<title>2067589204592</title>
<ellipse fill="none" stroke="black" cx="2395.88" cy="-693" rx="27" ry="18"/>
<text text-anchor="middle" x="2395.88" y="-687" font-family="Times New Roman,serif" font-size="15.00">xor</text>
</g>
<!-- 2067589204496&#45;&#45;2067589204592 -->
<g id="edge45" class="edge">
<title>2067589204496&#45;&#45;2067589204592</title>
<path fill="none" stroke="black" d="M2091.7,-767.85C2152.71,-752.78 2309.01,-714.2 2369.99,-699.15"/>
</g>
<!-- 2067589206512 -->
<g id="node39" class="node">
<title>2067589206512</title>
<ellipse fill="black" stroke="black" cx="2741.87" cy="-901" rx="2.7" ry="2.7"/>
</g>
<!-- 2067589205648&#45;&#45;2067589206512 -->
<g id="edge31" class="edge">
<title>2067589205648&#45;&#45;2067589206512</title>
<path fill="none" stroke="black" d="M2423.02,-864.96C2498.9,-873.57 2715.35,-898.11 2738.8,-900.77"/>
</g>
<!-- 2067589203584 -->
<g id="node40" class="node">
<title>2067589203584</title>
<ellipse fill="none" stroke="black" cx="2741.87" cy="-862" rx="27" ry="18"/>
<text text-anchor="middle" x="2741.87" y="-856" font-family="Times New Roman,serif" font-size="15.00">seq</text>
</g>
<!-- 2067589205648&#45;&#45;2067589203584 -->
<g id="edge34" class="edge">
<title>2067589205648&#45;&#45;2067589203584</title>
<path fill="none" stroke="black" d="M2423.3,-862C2487.49,-862 2651.04,-862 2714.83,-862"/>
</g>
<!-- 2067589211936 -->
<g id="node41" class="node">
<title>2067589211936</title>
<ellipse fill="none" stroke="black" cx="3107.3" cy="-916" rx="127.61" ry="18"/>
<text text-anchor="middle" x="3107.3" y="-910" font-family="Times New Roman,serif" font-size="15.00">Form subcases completeness</text>
</g>
<!-- 2067589203584&#45;&#45;2067589211936 -->
<g id="edge32" class="edge">
<title>2067589203584&#45;&#45;2067589211936</title>
<path fill="none" stroke="black" d="M2768.71,-865.84C2819.8,-873.43 2935.81,-890.67 3017.52,-902.81"/>
</g>
<!-- 2067588981936 -->
<g id="node42" class="node">
<title>2067588981936</title>
<ellipse fill="none" stroke="black" cx="3107.3" cy="-862" rx="83.08" ry="18"/>
<text text-anchor="middle" x="3107.3" y="-856" font-family="Times New Roman,serif" font-size="15.00">Amend procedure</text>
</g>
<!-- 2067589203584&#45;&#45;2067588981936 -->
<g id="edge33" class="edge">
<title>2067589203584&#45;&#45;2067588981936</title>
<path fill="none" stroke="black" d="M2769.3,-862C2822.06,-862 2942.37,-862 3024.01,-862"/>
</g>
<!-- 2067589207184 -->
<g id="node44" class="node">
<title>2067589207184</title>
<ellipse fill="black" stroke="black" cx="2741.87" cy="-801" rx="2.7" ry="2.7"/>
</g>
<!-- 2067589211696&#45;&#45;2067589207184 -->
<g id="edge36" class="edge">
<title>2067589211696&#45;&#45;2067589207184</title>
<path fill="none" stroke="black" d="M2423.3,-801C2499.45,-801 2715.41,-801 2738.81,-801"/>
</g>
<!-- 2067589208192 -->
<g id="node45" class="node">
<title>2067589208192</title>
<ellipse fill="none" stroke="black" cx="2741.87" cy="-758" rx="27" ry="18"/>
<text text-anchor="middle" x="2741.87" y="-752" font-family="Times New Roman,serif" font-size="15.00">seq</text>
</g>
<!-- 2067589211696&#45;&#45;2067589208192 -->
<g id="edge40" class="edge">
<title>2067589211696&#45;&#45;2067589208192</title>
<path fill="none" stroke="black" d="M2422.74,-797.77C2486.64,-789.78 2651.46,-769.18 2715.18,-761.21"/>
</g>
<!-- 2067588979776 -->
<g id="node46" class="node">
<title>2067588979776</title>
<ellipse fill="none" stroke="black" cx="3107.3" cy="-808" rx="75.41" ry="18"/>
<text text-anchor="middle" x="3107.3" y="-802" font-family="Times New Roman,serif" font-size="15.00">Finalize request</text>
</g>
<!-- 2067589208192&#45;&#45;2067588979776 -->
<g id="edge37" class="edge">
<title>2067589208192&#45;&#45;2067588979776</title>
<path fill="none" stroke="black" d="M2768.71,-761.56C2824.99,-769.3 2960.05,-787.88 3041.25,-799.05"/>
</g>
<!-- 2067588988464 -->
<g id="node47" class="node">
<title>2067588988464</title>
<ellipse fill="none" stroke="black" cx="3107.3" cy="-754" rx="163.44" ry="18"/>
<text text-anchor="middle" x="3107.3" y="-748" font-family="Times New Roman,serif" font-size="15.00">Timeframe for supplying missing data</text>
</g>
<!-- 2067589208192&#45;&#45;2067588988464 -->
<g id="edge38" class="edge">
<title>2067589208192&#45;&#45;2067588988464</title>
<path fill="none" stroke="black" d="M2769.3,-757.71C2806.46,-757.3 2877.13,-756.52 2944.2,-755.78"/>
</g>
<!-- 2067588985440 -->
<g id="node48" class="node">
<title>2067588985440</title>
<ellipse fill="none" stroke="black" cx="3107.3" cy="-700" rx="122.49" ry="18"/>
<text text-anchor="middle" x="3107.3" y="-694" font-family="Times New Roman,serif" font-size="15.00">Draft letter for missing data</text>
</g>
<!-- 2067589208192&#45;&#45;2067588985440 -->
<g id="edge39" class="edge">
<title>2067589208192&#45;&#45;2067588985440</title>
<path fill="none" stroke="black" d="M2768.42,-753.92C2820.45,-745.62 2940.68,-726.43 3022.74,-713.34"/>
</g>
<!-- 2067588986256 -->
<g id="node51" class="node">
<title>2067588986256</title>
<ellipse fill="black" stroke="black" cx="2741.87" cy="-704" rx="2.7" ry="2.7"/>
</g>
<!-- 2067589204592&#45;&#45;2067588986256 -->
<g id="edge43" class="edge">
<title>2067589204592&#45;&#45;2067588986256</title>
<path fill="none" stroke="black" d="M2423.3,-693.84C2499.45,-696.28 2715.41,-703.19 2738.81,-703.93"/>
</g>
<!-- 2067588982128 -->
<g id="node52" class="node">
<title>2067588982128</title>
<ellipse fill="none" stroke="black" cx="2741.87" cy="-665" rx="166" ry="18"/>
<text text-anchor="middle" x="2741.87" y="-659" font-family="Times New Roman,serif" font-size="15.00">Input senddate procedure confirmation</text>
</g>
<!-- 2067589204592&#45;&#45;2067588982128 -->
<g id="edge44" class="edge">
<title>2067589204592&#45;&#45;2067588982128</title>
<path fill="none" stroke="black" d="M2423.02,-690.87C2462.29,-687.68 2539.22,-681.41 2607.56,-675.85"/>
</g>
<!-- 2067588226880 -->
<g id="node54" class="node">
<title>2067588226880</title>
<ellipse fill="black" stroke="black" cx="1281.67" cy="-851" rx="2.7" ry="2.7"/>
</g>
<!-- 2067589264880&#45;&#45;2067588226880 -->
<g id="edge50" class="edge">
<title>2067589264880&#45;&#45;2067588226880</title>
<path fill="none" stroke="black" d="M948.23,-869.53C1026.56,-865.16 1253.87,-852.49 1278.5,-851.12"/>
</g>
<!-- 2067588235184 -->
<g id="node55" class="node">
<title>2067588235184</title>
<ellipse fill="none" stroke="black" cx="1281.67" cy="-774" rx="45.21" ry="18"/>
<text text-anchor="middle" x="1281.67" y="-768" font-family="Times New Roman,serif" font-size="15.00">xor loop</text>
</g>
<!-- 2067589264880&#45;&#45;2067588235184 -->
<g id="edge53" class="edge">
<title>2067589264880&#45;&#45;2067588235184</title>
<path fill="none" stroke="black" d="M946.22,-864.41C1007.82,-847.76 1170.01,-803.91 1243.51,-784.04"/>
</g>
<!-- 2067588226112 -->
<g id="node56" class="node">
<title>2067588226112</title>
<ellipse fill="none" stroke="black" cx="1662.46" cy="-774" rx="191.08" ry="18"/>
<text text-anchor="middle" x="1662.46" y="-768" font-family="Times New Roman,serif" font-size="15.00">No permit needed or just notification needed</text>
</g>
<!-- 2067588235184&#45;&#45;2067588226112 -->
<g id="edge51" class="edge">
<title>2067588235184&#45;&#45;2067588226112</title>
<path fill="none" stroke="black" d="M1327.23,-774C1363.51,-774 1417.37,-774 1471.32,-774"/>
</g>
<!-- 2067588222800 -->
<g id="node57" class="node">
<title>2067588222800</title>
<ellipse fill="black" stroke="black" cx="1662.46" cy="-735" rx="2.7" ry="2.7"/>
</g>
<!-- 2067588235184&#45;&#45;2067588222800 -->
<g id="edge52" class="edge">
<title>2067588235184&#45;&#45;2067588222800</title>
<path fill="none" stroke="black" d="M1325.75,-769.56C1419.6,-759.9 1636.01,-737.62 1659.4,-735.21"/>
</g>
<!-- 2067589251440 -->
<g id="node59" class="node">
<title>2067589251440</title>
<ellipse fill="none" stroke="black" cx="536.47" cy="-655" rx="130.68" ry="18"/>
<text text-anchor="middle" x="536.47" y="-649" font-family="Times New Roman,serif" font-size="15.00">WAW permit aspect included</text>
</g>
<!-- 2067588630480&#45;&#45;2067589251440 -->
<g id="edge57" class="edge">
<title>2067588630480&#45;&#45;2067589251440</title>
<path fill="none" stroke="black" d="M246.69,-630.23C285.36,-633.55 360.28,-639.98 424.13,-645.45"/>
</g>
<!-- 2067589254608 -->
<g id="node60" class="node">
<title>2067589254608</title>
<ellipse fill="none" stroke="black" cx="536.47" cy="-601" rx="27" ry="18"/>
<text text-anchor="middle" x="536.47" y="-595" font-family="Times New Roman,serif" font-size="15.00">seq</text>
</g>
<!-- 2067588630480&#45;&#45;2067589254608 -->
<g id="edge67" class="edge">
<title>2067588630480&#45;&#45;2067589254608</title>
<path fill="none" stroke="black" d="M246.69,-625.77C305.91,-620.69 450.16,-608.32 509.41,-603.24"/>
</g>
<!-- 2067589261664 -->
<g id="node70" class="node">
<title>2067589261664</title>
<ellipse fill="none" stroke="black" cx="536.47" cy="-185" rx="27" ry="18"/>
<text text-anchor="middle" x="536.47" y="-179" font-family="Times New Roman,serif" font-size="15.00">seq</text>
</g>
<!-- 2067588630480&#45;&#45;2067589261664 -->
<g id="edge93" class="edge">
<title>2067588630480&#45;&#45;2067589261664</title>
<path fill="none" stroke="black" d="M232.24,-611.71C281.71,-542.09 475.09,-269.97 524.12,-200.97"/>
</g>
<!-- 2067588233792 -->
<g id="node61" class="node">
<title>2067588233792</title>
<ellipse fill="none" stroke="black" cx="920.84" cy="-817" rx="127.61" ry="18"/>
<text text-anchor="middle" x="920.84" y="-811" font-family="Times New Roman,serif" font-size="15.00">create decision for no permit</text>
</g>
<!-- 2067589254608&#45;&#45;2067588233792 -->
<g id="edge58" class="edge">
<title>2067589254608&#45;&#45;2067588233792</title>
<path fill="none" stroke="black" d="M557.76,-612.46C620.6,-647.96 812.33,-756.27 888.33,-799.2"/>
</g>
<!-- 2067588234224 -->
<g id="node62" class="node">
<title>2067588234224</title>
<ellipse fill="none" stroke="black" cx="920.84" cy="-763" rx="162.41" ry="18"/>
<text text-anchor="middle" x="920.84" y="-757" font-family="Times New Roman,serif" font-size="15.00">set no permit required phase decision</text>
</g>
<!-- 2067589254608&#45;&#45;2067588234224 -->
<g id="edge59" class="edge">
<title>2067589254608&#45;&#45;2067588234224</title>
<path fill="none" stroke="black" d="M559.96,-610.53C622.15,-636.88 797.17,-711.03 877.98,-745.27"/>
</g>
<!-- 2067588228896 -->
<g id="node63" class="node">
<title>2067588228896</title>
<ellipse fill="none" stroke="black" cx="920.84" cy="-709" rx="86.15" ry="18"/>
<text text-anchor="middle" x="920.84" y="-703" font-family="Times New Roman,serif" font-size="15.00">Fix decision status</text>
</g>
<!-- 2067589254608&#45;&#45;2067588228896 -->
<g id="edge60" class="edge">
<title>2067589254608&#45;&#45;2067588228896</title>
<path fill="none" stroke="black" d="M561.97,-607.92C623.29,-625.24 784.42,-670.75 867.96,-694.35"/>
</g>
<!-- 2067588221264 -->
<g id="node64" class="node">
<title>2067588221264</title>
<ellipse fill="none" stroke="black" cx="920.84" cy="-655" rx="140.41" ry="18"/>
<text text-anchor="middle" x="920.84" y="-649" font-family="Times New Roman,serif" font-size="15.00">Decision date ahead of decision</text>
</g>
<!-- 2067589254608&#45;&#45;2067588221264 -->
<g id="edge61" class="edge">
<title>2067589254608&#45;&#45;2067588221264</title>
<path fill="none" stroke="black" d="M563.15,-604.63C615.73,-612.05 737.97,-629.32 824.66,-641.56"/>
</g>
<!-- 2067589202096 -->
<g id="node65" class="node">
<title>2067589202096</title>
<ellipse fill="none" stroke="black" cx="920.84" cy="-601" rx="133.24" ry="18"/>
<text text-anchor="middle" x="920.84" y="-595" font-family="Times New Roman,serif" font-size="15.00">generate decision of no permit</text>
</g>
<!-- 2067589254608&#45;&#45;2067589202096 -->
<g id="edge62" class="edge">
<title>2067589254608&#45;&#45;2067589202096</title>
<path fill="none" stroke="black" d="M563.75,-601C609.39,-601 706.2,-601 787.37,-601"/>
</g>
<!-- 2067589204304 -->
<g id="node66" class="node">
<title>2067589204304</title>
<ellipse fill="none" stroke="black" cx="920.84" cy="-547" rx="149.11" ry="18"/>
<text text-anchor="middle" x="920.84" y="-541" font-family="Times New Roman,serif" font-size="15.00">record date for no permit decision</text>
</g>
<!-- 2067589254608&#45;&#45;2067589204304 -->
<g id="edge63" class="edge">
<title>2067589254608&#45;&#45;2067589204304</title>
<path fill="none" stroke="black" d="M563.15,-597.37C615.14,-590.03 735.26,-573.07 821.75,-560.85"/>
</g>
<!-- 2067589213232 -->
<g id="node67" class="node">
<title>2067589213232</title>
<ellipse fill="none" stroke="black" cx="920.84" cy="-493" rx="147.06" ry="18"/>
<text text-anchor="middle" x="920.84" y="-487" font-family="Times New Roman,serif" font-size="15.00">phase activity requiring no permit</text>
</g>
<!-- 2067589254608&#45;&#45;2067589213232 -->
<g id="edge64" class="edge">
<title>2067589254608&#45;&#45;2067589213232</title>
<path fill="none" stroke="black" d="M561.97,-594.08C621.47,-577.27 774.98,-533.92 860.35,-509.8"/>
</g>
<!-- 2067589209344 -->
<g id="node68" class="node">
<title>2067589209344</title>
<ellipse fill="none" stroke="black" cx="920.84" cy="-439" rx="191.08" ry="18"/>
<text text-anchor="middle" x="920.84" y="-433" font-family="Times New Roman,serif" font-size="15.00">create cover letter stating no permit required</text>
</g>
<!-- 2067589254608&#45;&#45;2067589209344 -->
<g id="edge65" class="edge">
<title>2067589254608&#45;&#45;2067589209344</title>
<path fill="none" stroke="black" d="M559.96,-591.47C621.99,-565.19 796.27,-491.35 877.36,-457"/>
</g>
<!-- 2067589212800 -->
<g id="node69" class="node">
<title>2067589212800</title>
<ellipse fill="none" stroke="black" cx="920.84" cy="-385" rx="197.22" ry="18"/>
<text text-anchor="middle" x="920.84" y="-379" font-family="Times New Roman,serif" font-size="15.00">prepare a memo stating no permit is necessary</text>
</g>
<!-- 2067589254608&#45;&#45;2067589212800 -->
<g id="edge66" class="edge">
<title>2067589254608&#45;&#45;2067589212800</title>
<path fill="none" stroke="black" d="M557.76,-589.54C620.44,-554.13 811.39,-446.26 887.77,-403.12"/>
</g>
<!-- 2067589202720 -->
<g id="node71" class="node">
<title>2067589202720</title>
<ellipse fill="none" stroke="black" cx="920.84" cy="-331" rx="27" ry="18"/>
<text text-anchor="middle" x="920.84" y="-325" font-family="Times New Roman,serif" font-size="15.00">xor</text>
</g>
<!-- 2067589261664&#45;&#45;2067589202720 -->
<g id="edge76" class="edge">
<title>2067589261664&#45;&#45;2067589202720</title>
<path fill="none" stroke="black" d="M560.53,-193.8C628.67,-219.82 828.58,-296.15 896.75,-322.18"/>
</g>
<!-- 2067589217984 -->
<g id="node80" class="node">
<title>2067589217984</title>
<ellipse fill="none" stroke="black" cx="920.84" cy="-212" rx="27" ry="18"/>
<text text-anchor="middle" x="920.84" y="-206" font-family="Times New Roman,serif" font-size="15.00">and</text>
</g>
<!-- 2067589261664&#45;&#45;2067589217984 -->
<g id="edge83" class="edge">
<title>2067589261664&#45;&#45;2067589217984</title>
<path fill="none" stroke="black" d="M563.75,-186.86C633.69,-191.79 823.77,-205.22 893.63,-210.15"/>
</g>
<!-- 2067588986544 -->
<g id="node87" class="node">
<title>2067588986544</title>
<ellipse fill="none" stroke="black" cx="920.84" cy="-158" rx="27" ry="18"/>
<text text-anchor="middle" x="920.84" y="-152" font-family="Times New Roman,serif" font-size="15.00">xor</text>
</g>
<!-- 2067589261664&#45;&#45;2067588986544 -->
<g id="edge88" class="edge">
<title>2067589261664&#45;&#45;2067588986544</title>
<path fill="none" stroke="black" d="M563.75,-183.14C633.69,-178.21 823.77,-164.78 893.63,-159.85"/>
</g>
<!-- 2067588976560 -->
<g id="node92" class="node">
<title>2067588976560</title>
<ellipse fill="none" stroke="black" cx="920.84" cy="-88" rx="27" ry="18"/>
<text text-anchor="middle" x="920.84" y="-82" font-family="Times New Roman,serif" font-size="15.00">and</text>
</g>
<!-- 2067589261664&#45;&#45;2067588976560 -->
<g id="edge91" class="edge">
<title>2067589261664&#45;&#45;2067588976560</title>
<path fill="none" stroke="black" d="M562.26,-178.71C631.44,-161.16 826,-111.81 895.1,-94.28"/>
</g>
<!-- 2067588977424 -->
<g id="node95" class="node">
<title>2067588977424</title>
<ellipse fill="none" stroke="black" cx="920.84" cy="-34" rx="69.78" ry="18"/>
<text text-anchor="middle" x="920.84" y="-28" font-family="Times New Roman,serif" font-size="15.00">Conclude case</text>
</g>
<!-- 2067589261664&#45;&#45;2067588977424 -->
<g id="edge92" class="edge">
<title>2067589261664&#45;&#45;2067588977424</title>
<path fill="none" stroke="black" d="M560.24,-176.01C623.59,-150.99 802.39,-80.38 881.44,-49.17"/>
</g>
<!-- 2067588981696 -->
<g id="node72" class="node">
<title>2067588981696</title>
<ellipse fill="black" stroke="black" cx="1281.67" cy="-451" rx="2.7" ry="2.7"/>
</g>
<!-- 2067589202720&#45;&#45;2067588981696 -->
<g id="edge68" class="edge">
<title>2067589202720&#45;&#45;2067588981696</title>
<path fill="none" stroke="black" d="M945.38,-338.87C1021.16,-364.21 1255.18,-442.48 1278.75,-450.36"/>
</g>
<!-- 2067588981552 -->
<g id="node73" class="node">
<title>2067588981552</title>
<ellipse fill="none" stroke="black" cx="1281.67" cy="-412" rx="27" ry="18"/>
<text text-anchor="middle" x="1281.67" y="-406" font-family="Times New Roman,serif" font-size="15.00">seq</text>
</g>
<!-- 2067589202720&#45;&#45;2067588981552 -->
<g id="edge71" class="edge">
<title>2067589202720&#45;&#45;2067588981552</title>
<path fill="none" stroke="black" d="M946.79,-336.63C1012.59,-351.48 1190.28,-391.6 1255.89,-406.41"/>
</g>
<!-- 2067588974544 -->
<g id="node76" class="node">
<title>2067588974544</title>
<ellipse fill="none" stroke="black" cx="1281.67" cy="-331" rx="27" ry="18"/>
<text text-anchor="middle" x="1281.67" y="-325" font-family="Times New Roman,serif" font-size="15.00">seq</text>
</g>
<!-- 2067589202720&#45;&#45;2067588974544 -->
<g id="edge75" class="edge">
<title>2067589202720&#45;&#45;2067588974544</title>
<path fill="none" stroke="black" d="M948.23,-331C1014.58,-331 1187.84,-331 1254.24,-331"/>
</g>
<!-- 2067588982416 -->
<g id="node74" class="node">
<title>2067588982416</title>
<ellipse fill="none" stroke="black" cx="1662.46" cy="-493" rx="142.45" ry="18"/>
<text text-anchor="middle" x="1662.46" y="-487" font-family="Times New Roman,serif" font-size="15.00">Competent authority action taken</text>
</g>
<!-- 2067588981552&#45;&#45;2067588982416 -->
<g id="edge69" class="edge">
<title>2067588981552&#45;&#45;2067588982416</title>
<path fill="none" stroke="black" d="M1307.82,-417.38C1364.08,-429.41 1501.91,-458.88 1587.94,-477.28"/>
</g>
<!-- 2067588980832 -->
<g id="node75" class="node">
<title>2067588980832</title>
<ellipse fill="none" stroke="black" cx="1662.46" cy="-439" rx="147.06" ry="18"/>
<text text-anchor="middle" x="1662.46" y="-433" font-family="Times New Roman,serif" font-size="15.00">Initiate terminate request message</text>
</g>
<!-- 2067588981552&#45;&#45;2067588980832 -->
<g id="edge70" class="edge">
<title>2067588981552&#45;&#45;2067588980832</title>
<path fill="none" stroke="black" d="M1309,-413.88C1355.06,-417.16 1453.04,-424.14 1534.03,-429.92"/>
</g>
<!-- 2067588987312 -->
<g id="node77" class="node">
<title>2067588987312</title>
<ellipse fill="none" stroke="black" cx="1662.46" cy="-385" rx="142.97" ry="18"/>
<text text-anchor="middle" x="1662.46" y="-379" font-family="Times New Roman,serif" font-size="15.00">phase requires notification alone</text>
</g>
<!-- 2067588974544&#45;&#45;2067588987312 -->
<g id="edge72" class="edge">
<title>2067588974544&#45;&#45;2067588987312</title>
<path fill="none" stroke="black" d="M1308.41,-334.67C1360.36,-342.08 1480.09,-359.15 1565.71,-371.35"/>
</g>
<!-- 2067588974304 -->
<g id="node78" class="node">
<title>2067588974304</title>
<ellipse fill="none" stroke="black" cx="1662.46" cy="-331" rx="217.18" ry="18"/>
<text text-anchor="middle" x="1662.46" y="-325" font-family="Times New Roman,serif" font-size="15.00">log senddate letter no permit or notification needed</text>
</g>
<!-- 2067588974544&#45;&#45;2067588974304 -->
<g id="edge73" class="edge">
<title>2067588974544&#45;&#45;2067588974304</title>
<path fill="none" stroke="black" d="M1309,-331C1338.78,-331 1390.28,-331 1444.85,-331"/>
</g>
<!-- 2067588977856 -->
<g id="node79" class="node">
<title>2067588977856</title>
<ellipse fill="none" stroke="black" cx="1662.46" cy="-277" rx="173.67" ry="18"/>
<text text-anchor="middle" x="1662.46" y="-271" font-family="Times New Roman,serif" font-size="15.00">draft letter indicating no permit required</text>
</g>
<!-- 2067588974544&#45;&#45;2067588977856 -->
<g id="edge74" class="edge">
<title>2067588974544&#45;&#45;2067588977856</title>
<path fill="none" stroke="black" d="M1308.41,-327.33C1358.78,-320.15 1472.87,-303.89 1557.8,-291.78"/>
</g>
<!-- 2067588986304 -->
<g id="node81" class="node">
<title>2067588986304</title>
<ellipse fill="none" stroke="black" cx="1281.67" cy="-262" rx="79.5" ry="18"/>
<text text-anchor="middle" x="1281.67" y="-256" font-family="Times New Roman,serif" font-size="15.00">Cease on request</text>
</g>
<!-- 2067589217984&#45;&#45;2067588986304 -->
<g id="edge77" class="edge">
<title>2067589217984&#45;&#45;2067588986304</title>
<path fill="none" stroke="black" d="M947.65,-215.6C1002.6,-223.25 1132.73,-241.39 1213.08,-252.58"/>
</g>
<!-- 2067588982992 -->
<g id="node82" class="node">
<title>2067588982992</title>
<ellipse fill="none" stroke="black" cx="1281.67" cy="-208" rx="27" ry="18"/>
<text text-anchor="middle" x="1281.67" y="-202" font-family="Times New Roman,serif" font-size="15.00">seq</text>
</g>
<!-- 2067589217984&#45;&#45;2067588982992 -->
<g id="edge82" class="edge">
<title>2067589217984&#45;&#45;2067588982992</title>
<path fill="none" stroke="black" d="M948.23,-211.71C1014.58,-210.97 1187.84,-209.03 1254.24,-208.29"/>
</g>
<!-- 2067588975168 -->
<g id="node83" class="node">
<title>2067588975168</title>
<ellipse fill="none" stroke="black" cx="1662.46" cy="-223" rx="169.58" ry="18"/>
<text text-anchor="middle" x="1662.46" y="-217" font-family="Times New Roman,serif" font-size="15.00">Enter date termination request received</text>
</g>
<!-- 2067588982992&#45;&#45;2067588975168 -->
<g id="edge78" class="edge">
<title>2067588982992&#45;&#45;2067588975168</title>
<path fill="none" stroke="black" d="M1309,-209.04C1349.27,-210.64 1429.23,-213.8 1502.82,-216.72"/>
</g>
<!-- 2067588983520 -->
<g id="node84" class="node">
<title>2067588983520</title>
<ellipse fill="none" stroke="black" cx="1662.46" cy="-169" rx="27" ry="18"/>
<text text-anchor="middle" x="1662.46" y="-163" font-family="Times New Roman,serif" font-size="15.00">and</text>
</g>
<!-- 2067588982992&#45;&#45;2067588983520 -->
<g id="edge81" class="edge">
<title>2067588982992&#45;&#45;2067588983520</title>
<path fill="none" stroke="black" d="M1308.7,-205.32C1377.99,-198.19 1566.29,-178.8 1635.49,-171.67"/>
</g>
<!-- 2067588973296 -->
<g id="node85" class="node">
<title>2067588973296</title>
<ellipse fill="none" stroke="black" cx="2065.76" cy="-196" rx="150.13" ry="18"/>
<text text-anchor="middle" x="2065.76" y="-190" font-family="Times New Roman,serif" font-size="15.00">Enter senddate termination request</text>
</g>
<!-- 2067588983520&#45;&#45;2067588973296 -->
<g id="edge79" class="edge">
<title>2067588983520&#45;&#45;2067588973296</title>
<path fill="none" stroke="black" d="M1689.79,-170.77C1738.61,-174.06 1846.18,-181.29 1933.64,-187.18"/>
</g>
<!-- 2067588986112 -->
<g id="node86" class="node">
<title>2067588986112</title>
<ellipse fill="none" stroke="black" cx="2065.76" cy="-142" rx="132.22" ry="18"/>
<text text-anchor="middle" x="2065.76" y="-136" font-family="Times New Roman,serif" font-size="15.00">Terminate request notification</text>
</g>
<!-- 2067588983520&#45;&#45;2067588986112 -->
<g id="edge80" class="edge">
<title>2067588983520&#45;&#45;2067588986112</title>
<path fill="none" stroke="black" d="M1689.79,-167.23C1740.97,-163.79 1856.69,-156 1946.14,-149.98"/>
</g>
<!-- 2067588973968 -->
<g id="node88" class="node">
<title>2067588973968</title>
<ellipse fill="black" stroke="black" cx="1281.67" cy="-165" rx="2.7" ry="2.7"/>
</g>
<!-- 2067588986544&#45;&#45;2067588973968 -->
<g id="edge84" class="edge">
<title>2067588986544&#45;&#45;2067588973968</title>
<path fill="none" stroke="black" d="M948.23,-158.51C1026.56,-160.04 1253.87,-164.48 1278.5,-164.96"/>
</g>
<!-- 2067588988272 -->
<g id="node89" class="node">
<title>2067588988272</title>
<ellipse fill="none" stroke="black" cx="1281.67" cy="-126" rx="27" ry="18"/>
<text text-anchor="middle" x="1281.67" y="-120" font-family="Times New Roman,serif" font-size="15.00">seq</text>
</g>
<!-- 2067588986544&#45;&#45;2067588988272 -->
<g id="edge87" class="edge">
<title>2067588986544&#45;&#45;2067588988272</title>
<path fill="none" stroke="black" d="M947.94,-155.67C1014.22,-149.76 1188.49,-134.22 1254.67,-128.32"/>
</g>
<!-- 2067588981072 -->
<g id="node90" class="node">
<title>2067588981072</title>
<ellipse fill="none" stroke="black" cx="1662.46" cy="-115" rx="132.22" ry="18"/>
<text text-anchor="middle" x="1662.46" y="-109" font-family="Times New Roman,serif" font-size="15.00">Cease all running subcases 2b</text>
</g>
<!-- 2067588988272&#45;&#45;2067588981072 -->
<g id="edge85" class="edge">
<title>2067588988272&#45;&#45;2067588981072</title>
<path fill="none" stroke="black" d="M1309,-125.24C1354.81,-123.91 1451.97,-121.08 1532.7,-118.74"/>
</g>
<!-- 2067588975408 -->
<g id="node91" class="node">
<title>2067588975408</title>
<ellipse fill="none" stroke="black" cx="1662.46" cy="-61" rx="155.25" ry="18"/>
<text text-anchor="middle" x="1662.46" y="-55" font-family="Times New Roman,serif" font-size="15.00">Phase procedure ended prematurely</text>
</g>
<!-- 2067588988272&#45;&#45;2067588975408 -->
<g id="edge86" class="edge">
<title>2067588988272&#45;&#45;2067588975408</title>
<path fill="none" stroke="black" d="M1308.11,-121.63C1361.44,-112.48 1487.12,-90.92 1573.26,-76.14"/>
</g>
<!-- 2067588977328 -->
<g id="node93" class="node">
<title>2067588977328</title>
<ellipse fill="none" stroke="black" cx="1281.67" cy="-72" rx="81.04" ry="18"/>
<text text-anchor="middle" x="1281.67" y="-66" font-family="Times New Roman,serif" font-size="15.00">Register due date</text>
</g>
<!-- 2067588976560&#45;&#45;2067588977328 -->
<g id="edge89" class="edge">
<title>2067588976560&#45;&#45;2067588977328</title>
<path fill="none" stroke="black" d="M948.23,-86.82C1000.99,-84.47 1121.34,-79.1 1201.81,-75.52"/>
</g>
<!-- 2067588974592 -->
<g id="node94" class="node">
<title>2067588974592</title>
<ellipse fill="none" stroke="black" cx="1281.67" cy="-18" rx="111.23" ry="18"/>
<text text-anchor="middle" x="1281.67" y="-12" font-family="Times New Roman,serif" font-size="15.00">Phase procedure aborted</text>
</g>
<!-- 2067588976560&#45;&#45;2067588974592 -->
<g id="edge90" class="edge">
<title>2067588976560&#45;&#45;2067588974592</title>
<path fill="none" stroke="black" d="M947.07,-83.08C1000.75,-72.61 1127.97,-47.79 1208.87,-32.01"/>
</g>
</g>
</svg>
