<?xml version="1.0" encoding="UTF-8" standalone="no"?>
<!DOCTYPE svg PUBLIC "-//W3C//DTD SVG 1.1//EN"
 "http://www.w3.org/Graphics/SVG/1.1/DTD/svg11.dtd">
<!-- Generated by graphviz version 11.0.0 (20240428.1522)
 -->
<!-- Title: pt Pages: 1 -->
<svg width="3290pt" height="1105pt"
 viewBox="0.00 0.00 3289.92 1105.00" xmlns="http://www.w3.org/2000/svg" xmlns:xlink="http://www.w3.org/1999/xlink">
<g id="graph0" class="graph" transform="scale(1 1) rotate(0) translate(4 1101)">
<title>pt</title>
<polygon fill="white" stroke="none" points="-4,4 -4,-1101 3285.92,-1101 3285.92,4 -4,4"/>
<!-- 2067591251104 -->
<g id="node1" class="node">
<title>2067591251104</title>
<ellipse fill="none" stroke="black" cx="27" cy="-705" rx="27" ry="18"/>
<text text-anchor="middle" x="27" y="-699" font-family="Times New Roman,serif" font-size="15.00">seq</text>
</g>
<!-- 2067591251776 -->
<g id="node2" class="node">
<title>2067591251776</title>
<ellipse fill="none" stroke="black" cx="117" cy="-840" rx="27" ry="18"/>
<text text-anchor="middle" x="117" y="-834" font-family="Times New Roman,serif" font-size="15.00">xor</text>
</g>
<!-- 2067591251104&#45;&#45;2067591251776 -->
<g id="edge70" class="edge">
<title>2067591251104&#45;&#45;2067591251776</title>
<path fill="none" stroke="black" d="M38.79,-721.55C55.77,-747.6 88.53,-797.86 105.4,-823.73"/>
</g>
<!-- 2067591252112 -->
<g id="node72" class="node">
<title>2067591252112</title>
<ellipse fill="none" stroke="black" cx="117" cy="-639" rx="27" ry="18"/>
<text text-anchor="middle" x="117" y="-633" font-family="Times New Roman,serif" font-size="15.00">xor</text>
</g>
<!-- 2067591251104&#45;&#45;2067591252112 -->
<g id="edge88" class="edge">
<title>2067591251104&#45;&#45;2067591252112</title>
<path fill="none" stroke="black" d="M45.81,-691.64C61.08,-680.19 82.96,-663.78 98.22,-652.34"/>
</g>
<!-- 2067591252544 -->
<g id="node3" class="node">
<title>2067591252544</title>
<ellipse fill="black" stroke="black" cx="313.75" cy="-879" rx="2.7" ry="2.7"/>
</g>
<!-- 2067591251776&#45;&#45;2067591252544 -->
<g id="edge1" class="edge">
<title>2067591251776&#45;&#45;2067591252544</title>
<path fill="none" stroke="black" d="M143.06,-845.02C191.55,-854.73 294.85,-875.42 310.7,-878.59"/>
</g>
<!-- 2067591252832 -->
<g id="node4" class="node">
<title>2067591252832</title>
<ellipse fill="none" stroke="black" cx="313.75" cy="-840" rx="27" ry="18"/>
<text text-anchor="middle" x="313.75" y="-834" font-family="Times New Roman,serif" font-size="15.00">seq</text>
</g>
<!-- 2067591251776&#45;&#45;2067591252832 -->
<g id="edge69" class="edge">
<title>2067591251776&#45;&#45;2067591252832</title>
<path fill="none" stroke="black" d="M144.27,-840C181.44,-840 249,-840 286.28,-840"/>
</g>
<!-- 2067591253216 -->
<g id="node5" class="node">
<title>2067591253216</title>
<ellipse fill="none" stroke="black" cx="680.72" cy="-1025" rx="27" ry="18"/>
<text text-anchor="middle" x="680.72" y="-1019" font-family="Times New Roman,serif" font-size="15.00">xor</text>
</g>
<!-- 2067591252832&#45;&#45;2067591253216 -->
<g id="edge6" class="edge">
<title>2067591252832&#45;&#45;2067591253216</title>
<path fill="none" stroke="black" d="M335.95,-850.75C400.46,-883.44 593.88,-981.49 658.46,-1014.22"/>
</g>
<!-- 2067591253072 -->
<g id="node10" class="node">
<title>2067591253072</title>
<ellipse fill="none" stroke="black" cx="680.72" cy="-913" rx="129.66" ry="18"/>
<text text-anchor="middle" x="680.72" y="-907" font-family="Times New Roman,serif" font-size="15.00">Input submission date request</text>
</g>
<!-- 2067591252832&#45;&#45;2067591253072 -->
<g id="edge7" class="edge">
<title>2067591252832&#45;&#45;2067591253072</title>
<path fill="none" stroke="black" d="M340.13,-845.08C394.12,-855.87 522.18,-881.49 604.7,-897.99"/>
</g>
<!-- 2067591253648 -->
<g id="node11" class="node">
<title>2067591253648</title>
<ellipse fill="none" stroke="black" cx="680.72" cy="-859" rx="27" ry="18"/>
<text text-anchor="middle" x="680.72" y="-853" font-family="Times New Roman,serif" font-size="15.00">xor</text>
</g>
<!-- 2067591252832&#45;&#45;2067591253648 -->
<g id="edge15" class="edge">
<title>2067591252832&#45;&#45;2067591253648</title>
<path fill="none" stroke="black" d="M341,-841.37C408.34,-844.87 586.63,-854.15 653.71,-857.65"/>
</g>
<!-- 2067591253696 -->
<g id="node19" class="node">
<title>2067591253696</title>
<ellipse fill="none" stroke="black" cx="680.72" cy="-803" rx="27" ry="18"/>
<text text-anchor="middle" x="680.72" y="-797" font-family="Times New Roman,serif" font-size="15.00">xor</text>
</g>
<!-- 2067591252832&#45;&#45;2067591253696 -->
<g id="edge54" class="edge">
<title>2067591252832&#45;&#45;2067591253696</title>
<path fill="none" stroke="black" d="M340.71,-837.37C407.8,-830.57 586.44,-812.46 653.65,-805.64"/>
</g>
<!-- 2067591253264 -->
<g id="node58" class="node">
<title>2067591253264</title>
<ellipse fill="none" stroke="black" cx="680.72" cy="-612" rx="27" ry="18"/>
<text text-anchor="middle" x="680.72" y="-606" font-family="Times New Roman,serif" font-size="15.00">xor</text>
</g>
<!-- 2067591252832&#45;&#45;2067591253264 -->
<g id="edge68" class="edge">
<title>2067591252832&#45;&#45;2067591253264</title>
<path fill="none" stroke="black" d="M334.12,-827.9C397.34,-788.41 597.25,-663.52 660.4,-624.07"/>
</g>
<!-- 2067591253504 -->
<g id="node6" class="node">
<title>2067591253504</title>
<ellipse fill="black" stroke="black" cx="1077.89" cy="-1064" rx="2.7" ry="2.7"/>
</g>
<!-- 2067591253216&#45;&#45;2067591253504 -->
<g id="edge2" class="edge">
<title>2067591253216&#45;&#45;2067591253504</title>
<path fill="none" stroke="black" d="M707.65,-1027.56C791.1,-1035.79 1048.81,-1061.23 1074.77,-1063.79"/>
</g>
<!-- 2067591253840 -->
<g id="node7" class="node">
<title>2067591253840</title>
<ellipse fill="none" stroke="black" cx="1077.89" cy="-1025" rx="27" ry="18"/>
<text text-anchor="middle" x="1077.89" y="-1019" font-family="Times New Roman,serif" font-size="15.00">seq</text>
</g>
<!-- 2067591253216&#45;&#45;2067591253840 -->
<g id="edge5" class="edge">
<title>2067591253216&#45;&#45;2067591253840</title>
<path fill="none" stroke="black" d="M707.96,-1025C779.67,-1025 978.4,-1025 1050.4,-1025"/>
</g>
<!-- 2067591254560 -->
<g id="node8" class="node">
<title>2067591254560</title>
<ellipse fill="none" stroke="black" cx="1441.27" cy="-1079" rx="81.04" ry="18"/>
<text text-anchor="middle" x="1441.27" y="-1073" font-family="Times New Roman,serif" font-size="15.00">Register due date</text>
</g>
<!-- 2067591253840&#45;&#45;2067591254560 -->
<g id="edge3" class="edge">
<title>2067591253840&#45;&#45;2067591254560</title>
<path fill="none" stroke="black" d="M1104.59,-1028.84C1159.98,-1037.12 1292.14,-1056.87 1373.13,-1068.97"/>
</g>
<!-- 2067591254512 -->
<g id="node9" class="node">
<title>2067591254512</title>
<ellipse fill="none" stroke="black" cx="1441.27" cy="-1025" rx="149.11" ry="18"/>
<text text-anchor="middle" x="1441.27" y="-1019" font-family="Times New Roman,serif" font-size="15.00">Register termination decision date</text>
</g>
<!-- 2067591253840&#45;&#45;2067591254512 -->
<g id="edge4" class="edge">
<title>2067591253840&#45;&#45;2067591254512</title>
<path fill="none" stroke="black" d="M1105.17,-1025C1144.48,-1025 1221.49,-1025 1291.78,-1025"/>
</g>
<!-- 2067591253936 -->
<g id="node12" class="node">
<title>2067591253936</title>
<ellipse fill="none" stroke="black" cx="1077.89" cy="-967" rx="143.48" ry="18"/>
<text text-anchor="middle" x="1077.89" y="-961" font-family="Times New Roman,serif" font-size="15.00">Input senddate acknowledgement</text>
</g>
<!-- 2067591253648&#45;&#45;2067591253936 -->
<g id="edge8" class="edge">
<title>2067591253648&#45;&#45;2067591253936</title>
<path fill="none" stroke="black" d="M706.14,-865.67C767.14,-882.35 927.61,-926.2 1016.12,-950.39"/>
</g>
<!-- 2067591253408 -->
<g id="node13" class="node">
<title>2067591253408</title>
<ellipse fill="none" stroke="black" cx="1077.89" cy="-913" rx="163.95" ry="18"/>
<text text-anchor="middle" x="1077.89" y="-907" font-family="Times New Roman,serif" font-size="15.00">Log senddate for confirmation request</text>
</g>
<!-- 2067591253648&#45;&#45;2067591253408 -->
<g id="edge9" class="edge">
<title>2067591253648&#45;&#45;2067591253408</title>
<path fill="none" stroke="black" d="M707.65,-862.54C760.54,-869.77 883.41,-886.56 972.93,-898.79"/>
</g>
<!-- 2067591254368 -->
<g id="node14" class="node">
<title>2067591254368</title>
<ellipse fill="none" stroke="black" cx="1077.89" cy="-859" rx="27" ry="18"/>
<text text-anchor="middle" x="1077.89" y="-853" font-family="Times New Roman,serif" font-size="15.00">seq</text>
</g>
<!-- 2067591253648&#45;&#45;2067591254368 -->
<g id="edge14" class="edge">
<title>2067591253648&#45;&#45;2067591254368</title>
<path fill="none" stroke="black" d="M707.96,-859C779.67,-859 978.4,-859 1050.4,-859"/>
</g>
<!-- 2067591255136 -->
<g id="node15" class="node">
<title>2067591255136</title>
<ellipse fill="none" stroke="black" cx="1441.27" cy="-971" rx="93.32" ry="18"/>
<text text-anchor="middle" x="1441.27" y="-965" font-family="Times New Roman,serif" font-size="15.00">OLO messaging live</text>
</g>
<!-- 2067591254368&#45;&#45;2067591255136 -->
<g id="edge10" class="edge">
<title>2067591254368&#45;&#45;2067591255136</title>
<path fill="none" stroke="black" d="M1102.88,-866.44C1161.21,-884.51 1311.43,-931.07 1390.27,-955.5"/>
</g>
<!-- 2067591255424 -->
<g id="node16" class="node">
<title>2067591255424</title>
<ellipse fill="none" stroke="black" cx="1441.27" cy="-917" rx="27" ry="18"/>
<text text-anchor="middle" x="1441.27" y="-911" font-family="Times New Roman,serif" font-size="15.00">xor</text>
</g>
<!-- 2067591254368&#45;&#45;2067591255424 -->
<g id="edge13" class="edge">
<title>2067591254368&#45;&#45;2067591255424</title>
<path fill="none" stroke="black" d="M1104.59,-863.12C1171.19,-873.81 1348.76,-902.31 1414.95,-912.93"/>
</g>
<!-- 2067591255808 -->
<g id="node17" class="node">
<title>2067591255808</title>
<ellipse fill="black" stroke="black" cx="1806.71" cy="-955" rx="2.7" ry="2.7"/>
</g>
<!-- 2067591255424&#45;&#45;2067591255808 -->
<g id="edge11" class="edge">
<title>2067591255424&#45;&#45;2067591255808</title>
<path fill="none" stroke="black" d="M1468.41,-919.73C1547.51,-928 1780.35,-952.35 1803.8,-954.8"/>
</g>
<!-- 2067591255664 -->
<g id="node18" class="node">
<title>2067591255664</title>
<ellipse fill="none" stroke="black" cx="1806.71" cy="-916" rx="125.05" ry="18"/>
<text text-anchor="middle" x="1806.71" y="-910" font-family="Times New Roman,serif" font-size="15.00">Submit application via OLO</text>
</g>
<!-- 2067591255424&#45;&#45;2067591255664 -->
<g id="edge12" class="edge">
<title>2067591255424&#45;&#45;2067591255664</title>
<path fill="none" stroke="black" d="M1468.7,-916.93C1512.97,-916.81 1604.79,-916.55 1681.42,-916.34"/>
</g>
<!-- 2067591254800 -->
<g id="node20" class="node">
<title>2067591254800</title>
<ellipse fill="black" stroke="black" cx="1077.89" cy="-803" rx="2.7" ry="2.7"/>
</g>
<!-- 2067591253696&#45;&#45;2067591254800 -->
<g id="edge16" class="edge">
<title>2067591253696&#45;&#45;2067591254800</title>
<path fill="none" stroke="black" d="M707.96,-803C791.73,-803 1048.88,-803 1074.78,-803"/>
</g>
<!-- 2067591254944 -->
<g id="node21" class="node">
<title>2067591254944</title>
<ellipse fill="none" stroke="black" cx="1077.89" cy="-757" rx="27" ry="18"/>
<text text-anchor="middle" x="1077.89" y="-751" font-family="Times New Roman,serif" font-size="15.00">seq</text>
</g>
<!-- 2067591253696&#45;&#45;2067591254944 -->
<g id="edge53" class="edge">
<title>2067591253696&#45;&#45;2067591254944</title>
<path fill="none" stroke="black" d="M707.65,-799.98C779.25,-791.65 979.15,-768.38 1050.86,-760.03"/>
</g>
<!-- 2067591254992 -->
<g id="node22" class="node">
<title>2067591254992</title>
<ellipse fill="none" stroke="black" cx="1441.27" cy="-863" rx="27" ry="18"/>
<text text-anchor="middle" x="1441.27" y="-857" font-family="Times New Roman,serif" font-size="15.00">xor</text>
</g>
<!-- 2067591254944&#45;&#45;2067591254992 -->
<g id="edge40" class="edge">
<title>2067591254944&#45;&#45;2067591254992</title>
<path fill="none" stroke="black" d="M1103.16,-764.12C1169,-783.43 1350.4,-836.64 1416.11,-855.91"/>
</g>
<!-- 2067591256000 -->
<g id="node46" class="node">
<title>2067591256000</title>
<ellipse fill="none" stroke="black" cx="1441.27" cy="-809" rx="143.99" ry="18"/>
<text text-anchor="middle" x="1441.27" y="-803" font-family="Times New Roman,serif" font-size="15.00">Transmit procedure confirmation</text>
</g>
<!-- 2067591254944&#45;&#45;2067591256000 -->
<g id="edge41" class="edge">
<title>2067591254944&#45;&#45;2067591256000</title>
<path fill="none" stroke="black" d="M1104.59,-760.7C1153.93,-767.8 1264.2,-783.66 1344.94,-795.28"/>
</g>
<!-- 2067591256096 -->
<g id="node47" class="node">
<title>2067591256096</title>
<ellipse fill="none" stroke="black" cx="1441.27" cy="-755" rx="27" ry="18"/>
<text text-anchor="middle" x="1441.27" y="-749" font-family="Times New Roman,serif" font-size="15.00">xor</text>
</g>
<!-- 2067591254944&#45;&#45;2067591256096 -->
<g id="edge44" class="edge">
<title>2067591254944&#45;&#45;2067591256096</title>
<path fill="none" stroke="black" d="M1105.17,-756.85C1171.93,-756.49 1347.44,-755.51 1414.09,-755.14"/>
</g>
<!-- 2067591256240 -->
<g id="node50" class="node">
<title>2067591256240</title>
<ellipse fill="none" stroke="black" cx="1441.27" cy="-701" rx="27" ry="18"/>
<text text-anchor="middle" x="1441.27" y="-695" font-family="Times New Roman,serif" font-size="15.00">xor</text>
</g>
<!-- 2067591254944&#45;&#45;2067591256240 -->
<g id="edge49" class="edge">
<title>2067591254944&#45;&#45;2067591256240</title>
<path fill="none" stroke="black" d="M1104.59,-753.02C1171.02,-742.72 1347.9,-715.31 1414.46,-705"/>
</g>
<!-- 2067591257152 -->
<g id="node55" class="node">
<title>2067591257152</title>
<ellipse fill="none" stroke="black" cx="1441.27" cy="-647" rx="27" ry="18"/>
<text text-anchor="middle" x="1441.27" y="-641" font-family="Times New Roman,serif" font-size="15.00">xor</text>
</g>
<!-- 2067591254944&#45;&#45;2067591257152 -->
<g id="edge52" class="edge">
<title>2067591254944&#45;&#45;2067591257152</title>
<path fill="none" stroke="black" d="M1102.88,-749.7C1168.46,-729.74 1350.21,-674.42 1416.05,-654.37"/>
</g>
<!-- 2067591256432 -->
<g id="node23" class="node">
<title>2067591256432</title>
<ellipse fill="black" stroke="black" cx="1806.71" cy="-876" rx="2.7" ry="2.7"/>
</g>
<!-- 2067591254992&#45;&#45;2067591256432 -->
<g id="edge17" class="edge">
<title>2067591254992&#45;&#45;2067591256432</title>
<path fill="none" stroke="black" d="M1468.7,-863.95C1548.09,-866.79 1780.41,-875.1 1803.8,-875.93"/>
</g>
<!-- 2067591256720 -->
<g id="node24" class="node">
<title>2067591256720</title>
<ellipse fill="none" stroke="black" cx="1806.71" cy="-837" rx="27" ry="18"/>
<text text-anchor="middle" x="1806.71" y="-831" font-family="Times New Roman,serif" font-size="15.00">and</text>
</g>
<!-- 2067591254992&#45;&#45;2067591256720 -->
<g id="edge39" class="edge">
<title>2067591254992&#45;&#45;2067591256720</title>
<path fill="none" stroke="black" d="M1468.41,-861.13C1535.47,-856.33 1713.01,-843.63 1779.81,-838.85"/>
</g>
<!-- 2067591257104 -->
<g id="node25" class="node">
<title>2067591257104</title>
<ellipse fill="none" stroke="black" cx="2180.33" cy="-864" rx="131.19" ry="18"/>
<text text-anchor="middle" x="2180.33" y="-858" font-family="Times New Roman,serif" font-size="15.00">Phase of application received</text>
</g>
<!-- 2067591256720&#45;&#45;2067591257104 -->
<g id="edge18" class="edge">
<title>2067591256720&#45;&#45;2067591257104</title>
<path fill="none" stroke="black" d="M1833.84,-838.9C1880.84,-842.31 1982.28,-849.68 2063.15,-855.56"/>
</g>
<!-- 2067591256960 -->
<g id="node26" class="node">
<title>2067591256960</title>
<ellipse fill="none" stroke="black" cx="2180.33" cy="-810" rx="27" ry="18"/>
<text text-anchor="middle" x="2180.33" y="-804" font-family="Times New Roman,serif" font-size="15.00">seq</text>
</g>
<!-- 2067591256720&#45;&#45;2067591256960 -->
<g id="edge38" class="edge">
<title>2067591256720&#45;&#45;2067591256960</title>
<path fill="none" stroke="black" d="M1833.84,-835.1C1902.07,-830.14 2085.03,-816.85 2153.23,-811.9"/>
</g>
<!-- 2067591257728 -->
<g id="node27" class="node">
<title>2067591257728</title>
<ellipse fill="none" stroke="black" cx="2539.11" cy="-945" rx="27" ry="18"/>
<text text-anchor="middle" x="2539.11" y="-939" font-family="Times New Roman,serif" font-size="15.00">xor</text>
</g>
<!-- 2067591256960&#45;&#45;2067591257728 -->
<g id="edge21" class="edge">
<title>2067591256960&#45;&#45;2067591257728</title>
<path fill="none" stroke="black" d="M2204.47,-818.75C2269.01,-843.18 2450.55,-911.87 2515.03,-936.27"/>
</g>
<!-- 2067591258016 -->
<g id="node30" class="node">
<title>2067591258016</title>
<ellipse fill="none" stroke="black" cx="2539.11" cy="-891" rx="27" ry="18"/>
<text text-anchor="middle" x="2539.11" y="-885" font-family="Times New Roman,serif" font-size="15.00">and</text>
</g>
<!-- 2067591256960&#45;&#45;2067591258016 -->
<g id="edge28" class="edge">
<title>2067591256960&#45;&#45;2067591258016</title>
<path fill="none" stroke="black" d="M2206.42,-815.7C2271.93,-830.57 2447.57,-870.45 2513.05,-885.31"/>
</g>
<!-- 2067591258160 -->
<g id="node37" class="node">
<title>2067591258160</title>
<ellipse fill="none" stroke="black" cx="2539.11" cy="-837" rx="151.15" ry="18"/>
<text text-anchor="middle" x="2539.11" y="-831" font-family="Times New Roman,serif" font-size="15.00">Transfer to the competent authority</text>
</g>
<!-- 2067591256960&#45;&#45;2067591258160 -->
<g id="edge29" class="edge">
<title>2067591256960&#45;&#45;2067591258160</title>
<path fill="none" stroke="black" d="M2207.57,-811.99C2249.97,-815.19 2336.28,-821.73 2410.07,-827.31"/>
</g>
<!-- 2067591258832 -->
<g id="node38" class="node">
<title>2067591258832</title>
<ellipse fill="none" stroke="black" cx="2539.11" cy="-783" rx="142.45" ry="18"/>
<text text-anchor="middle" x="2539.11" y="-777" font-family="Times New Roman,serif" font-size="15.00">Routine procedure without MER</text>
</g>
<!-- 2067591256960&#45;&#45;2067591258832 -->
<g id="edge30" class="edge">
<title>2067591256960&#45;&#45;2067591258832</title>
<path fill="none" stroke="black" d="M2207.57,-808.01C2251.02,-804.73 2340.56,-797.95 2415.5,-792.28"/>
</g>
<!-- 2067591257392 -->
<g id="node39" class="node">
<title>2067591257392</title>
<ellipse fill="none" stroke="black" cx="2539.11" cy="-729" rx="129.15" ry="18"/>
<text text-anchor="middle" x="2539.11" y="-723" font-family="Times New Roman,serif" font-size="15.00">Draft procedure confirmation</text>
</g>
<!-- 2067591256960&#45;&#45;2067591257392 -->
<g id="edge31" class="edge">
<title>2067591256960&#45;&#45;2067591257392</title>
<path fill="none" stroke="black" d="M2206.42,-804.3C2260.43,-792.04 2389.3,-762.78 2469.58,-744.56"/>
</g>
<!-- 2067591257584 -->
<g id="node40" class="node">
<title>2067591257584</title>
<ellipse fill="none" stroke="black" cx="2539.11" cy="-675" rx="27" ry="18"/>
<text text-anchor="middle" x="2539.11" y="-669" font-family="Times New Roman,serif" font-size="15.00">xor</text>
</g>
<!-- 2067591256960&#45;&#45;2067591257584 -->
<g id="edge37" class="edge">
<title>2067591256960&#45;&#45;2067591257584</title>
<path fill="none" stroke="black" d="M2204.47,-801.25C2269.01,-776.82 2450.55,-708.13 2515.03,-683.73"/>
</g>
<!-- 2067591258448 -->
<g id="node28" class="node">
<title>2067591258448</title>
<ellipse fill="black" stroke="black" cx="2839.03" cy="-984" rx="2.7" ry="2.7"/>
</g>
<!-- 2067591257728&#45;&#45;2067591258448 -->
<g id="edge19" class="edge">
<title>2067591257728&#45;&#45;2067591258448</title>
<path fill="none" stroke="black" d="M2566.03,-948.39C2634.55,-957.36 2816.59,-981.19 2836.3,-983.77"/>
</g>
<!-- 2067591258400 -->
<g id="node29" class="node">
<title>2067591258400</title>
<ellipse fill="none" stroke="black" cx="2839.03" cy="-945" rx="87.18" ry="18"/>
<text text-anchor="middle" x="2839.03" y="-939" font-family="Times New Roman,serif" font-size="15.00">Received via OLO</text>
</g>
<!-- 2067591257728&#45;&#45;2067591258400 -->
<g id="edge20" class="edge">
<title>2067591257728&#45;&#45;2067591258400</title>
<path fill="none" stroke="black" d="M2566.55,-945C2607.63,-945 2688.62,-945 2751.49,-945"/>
</g>
<!-- 2067591258592 -->
<g id="node31" class="node">
<title>2067591258592</title>
<ellipse fill="none" stroke="black" cx="2839.03" cy="-891" rx="45.21" ry="18"/>
<text text-anchor="middle" x="2839.03" y="-885" font-family="Times New Roman,serif" font-size="15.00">xor loop</text>
</g>
<!-- 2067591258016&#45;&#45;2067591258592 -->
<g id="edge24" class="edge">
<title>2067591258016&#45;&#45;2067591258592</title>
<path fill="none" stroke="black" d="M2566.55,-891C2617.67,-891 2730.58,-891 2793.49,-891"/>
</g>
<!-- 2067591258880 -->
<g id="node34" class="node">
<title>2067591258880</title>
<ellipse fill="none" stroke="black" cx="2839.03" cy="-837" rx="27" ry="18"/>
<text text-anchor="middle" x="2839.03" y="-831" font-family="Times New Roman,serif" font-size="15.00">xor</text>
</g>
<!-- 2067591258016&#45;&#45;2067591258880 -->
<g id="edge27" class="edge">
<title>2067591258016&#45;&#45;2067591258880</title>
<path fill="none" stroke="black" d="M2565.51,-886.4C2621.8,-876.19 2756.47,-851.78 2812.7,-841.59"/>
</g>
<!-- 2067591259312 -->
<g id="node32" class="node">
<title>2067591259312</title>
<ellipse fill="none" stroke="black" cx="3134.86" cy="-922" rx="127.61" ry="18"/>
<text text-anchor="middle" x="3134.86" y="-916" font-family="Times New Roman,serif" font-size="15.00">Provide confirmation receipt</text>
</g>
<!-- 2067591258592&#45;&#45;2067591259312 -->
<g id="edge22" class="edge">
<title>2067591258592&#45;&#45;2067591259312</title>
<path fill="none" stroke="black" d="M2883.07,-895.54C2921.89,-899.64 2980.51,-905.82 3031.31,-911.18"/>
</g>
<!-- 2067591259264 -->
<g id="node33" class="node">
<title>2067591259264</title>
<ellipse fill="black" stroke="black" cx="3134.86" cy="-883" rx="2.7" ry="2.7"/>
</g>
<!-- 2067591258592&#45;&#45;2067591259264 -->
<g id="edge23" class="edge">
<title>2067591258592&#45;&#45;2067591259264</title>
<path fill="none" stroke="black" d="M2884.34,-889.79C2960.97,-887.71 3112,-883.6 3131.72,-883.06"/>
</g>
<!-- 2067591259456 -->
<g id="node35" class="node">
<title>2067591259456</title>
<ellipse fill="black" stroke="black" cx="3134.86" cy="-845" rx="2.7" ry="2.7"/>
</g>
<!-- 2067591258880&#45;&#45;2067591259456 -->
<g id="edge25" class="edge">
<title>2067591258880&#45;&#45;2067591259456</title>
<path fill="none" stroke="black" d="M2866.37,-837.72C2934.54,-839.57 3112.86,-844.43 3132.16,-844.95"/>
</g>
<!-- 2067591259744 -->
<g id="node36" class="node">
<title>2067591259744</title>
<ellipse fill="none" stroke="black" cx="3134.86" cy="-806" rx="147.06" ry="18"/>
<text text-anchor="middle" x="3134.86" y="-800" font-family="Times New Roman,serif" font-size="15.00">Applicant considered stakeholder</text>
</g>
<!-- 2067591258880&#45;&#45;2067591259744 -->
<g id="edge26" class="edge">
<title>2067591258880&#45;&#45;2067591259744</title>
<path fill="none" stroke="black" d="M2866.11,-834.25C2901.01,-830.57 2965.11,-823.8 3021.84,-817.82"/>
</g>
<!-- 2067591259696 -->
<g id="node41" class="node">
<title>2067591259696</title>
<ellipse fill="none" stroke="black" cx="2839.03" cy="-702" rx="112.77" ry="18"/>
<text text-anchor="middle" x="2839.03" y="-696" font-family="Times New Roman,serif" font-size="15.00">Initiate WABOprocedure</text>
</g>
<!-- 2067591257584&#45;&#45;2067591259696 -->
<g id="edge32" class="edge">
<title>2067591257584&#45;&#45;2067591259696</title>
<path fill="none" stroke="black" d="M2566.29,-677.37C2604.84,-680.87 2678.92,-687.58 2740,-693.12"/>
</g>
<!-- 2067591259552 -->
<g id="node42" class="node">
<title>2067591259552</title>
<ellipse fill="none" stroke="black" cx="2839.03" cy="-648" rx="27" ry="18"/>
<text text-anchor="middle" x="2839.03" y="-642" font-family="Times New Roman,serif" font-size="15.00">seq</text>
</g>
<!-- 2067591257584&#45;&#45;2067591259552 -->
<g id="edge36" class="edge">
<title>2067591257584&#45;&#45;2067591259552</title>
<path fill="none" stroke="black" d="M2566.29,-672.63C2622.8,-667.51 2755.66,-655.47 2812.02,-650.36"/>
</g>
<!-- 2067591260320 -->
<g id="node43" class="node">
<title>2067591260320</title>
<ellipse fill="none" stroke="black" cx="3134.86" cy="-702" rx="51.35" ry="18"/>
<text text-anchor="middle" x="3134.86" y="-696" font-family="Times New Roman,serif" font-size="15.00">Distribute</text>
</g>
<!-- 2067591259552&#45;&#45;2067591260320 -->
<g id="edge33" class="edge">
<title>2067591259552&#45;&#45;2067591260320</title>
<path fill="none" stroke="black" d="M2865.59,-652.7C2915.44,-661.86 3026.2,-682.21 3088.69,-693.7"/>
</g>
<!-- 2067591260608 -->
<g id="node44" class="node">
<title>2067591260608</title>
<ellipse fill="none" stroke="black" cx="3134.86" cy="-648" rx="127.61" ry="18"/>
<text text-anchor="middle" x="3134.86" y="-642" font-family="Times New Roman,serif" font-size="15.00">Form subcases completeness</text>
</g>
<!-- 2067591259552&#45;&#45;2067591260608 -->
<g id="edge34" class="edge">
<title>2067591259552&#45;&#45;2067591260608</title>
<path fill="none" stroke="black" d="M2866.37,-648C2898.27,-648 2954.3,-648 3006.86,-648"/>
</g>
<!-- 2067591260560 -->
<g id="node45" class="node">
<title>2067591260560</title>
<ellipse fill="none" stroke="black" cx="3134.86" cy="-594" rx="83.08" ry="18"/>
<text text-anchor="middle" x="3134.86" y="-588" font-family="Times New Roman,serif" font-size="15.00">Amend procedure</text>
</g>
<!-- 2067591259552&#45;&#45;2067591260560 -->
<g id="edge35" class="edge">
<title>2067591259552&#45;&#45;2067591260560</title>
<path fill="none" stroke="black" d="M2865.59,-643.3C2910.83,-634.99 3006.24,-617.45 3070.21,-605.7"/>
</g>
<!-- 2067591256864 -->
<g id="node48" class="node">
<title>2067591256864</title>
<ellipse fill="black" stroke="black" cx="1806.71" cy="-795" rx="2.7" ry="2.7"/>
</g>
<!-- 2067591256096&#45;&#45;2067591256864 -->
<g id="edge42" class="edge">
<title>2067591256096&#45;&#45;2067591256864</title>
<path fill="none" stroke="black" d="M1468.41,-757.88C1547.51,-766.58 1780.35,-792.21 1803.8,-794.79"/>
</g>
<!-- 2067591256288 -->
<g id="node49" class="node">
<title>2067591256288</title>
<ellipse fill="none" stroke="black" cx="1806.71" cy="-756" rx="166" ry="18"/>
<text text-anchor="middle" x="1806.71" y="-750" font-family="Times New Roman,serif" font-size="15.00">Input senddate procedure confirmation</text>
</g>
<!-- 2067591256096&#45;&#45;2067591256288 -->
<g id="edge43" class="edge">
<title>2067591256096&#45;&#45;2067591256288</title>
<path fill="none" stroke="black" d="M1468.7,-755.07C1505.29,-755.17 1574.37,-755.36 1640.51,-755.55"/>
</g>
<!-- 2067591258688 -->
<g id="node51" class="node">
<title>2067591258688</title>
<ellipse fill="black" stroke="black" cx="1806.71" cy="-717" rx="2.7" ry="2.7"/>
</g>
<!-- 2067591256240&#45;&#45;2067591258688 -->
<g id="edge45" class="edge">
<title>2067591256240&#45;&#45;2067591258688</title>
<path fill="none" stroke="black" d="M1468.7,-702.16C1548.09,-705.66 1780.41,-715.89 1803.8,-716.92"/>
</g>
<!-- 2067591257536 -->
<g id="node52" class="node">
<title>2067591257536</title>
<ellipse fill="none" stroke="black" cx="1806.71" cy="-678" rx="27" ry="18"/>
<text text-anchor="middle" x="1806.71" y="-672" font-family="Times New Roman,serif" font-size="15.00">seq</text>
</g>
<!-- 2067591256240&#45;&#45;2067591257536 -->
<g id="edge48" class="edge">
<title>2067591256240&#45;&#45;2067591257536</title>
<path fill="none" stroke="black" d="M1468.41,-699.35C1535.47,-695.1 1713.01,-683.87 1779.81,-679.64"/>
</g>
<!-- 2067591256528 -->
<g id="node53" class="node">
<title>2067591256528</title>
<ellipse fill="none" stroke="black" cx="2180.33" cy="-702" rx="142.45" ry="18"/>
<text text-anchor="middle" x="2180.33" y="-696" font-family="Times New Roman,serif" font-size="15.00">Competent authority action taken</text>
</g>
<!-- 2067591257536&#45;&#45;2067591256528 -->
<g id="edge46" class="edge">
<title>2067591257536&#45;&#45;2067591256528</title>
<path fill="none" stroke="black" d="M1833.84,-679.69C1878.78,-682.59 1973.48,-688.71 2052.38,-693.8"/>
</g>
<!-- 2067591259888 -->
<g id="node54" class="node">
<title>2067591259888</title>
<ellipse fill="none" stroke="black" cx="2180.33" cy="-648" rx="147.06" ry="18"/>
<text text-anchor="middle" x="2180.33" y="-642" font-family="Times New Roman,serif" font-size="15.00">Initiate terminate request message</text>
</g>
<!-- 2067591257536&#45;&#45;2067591259888 -->
<g id="edge47" class="edge">
<title>2067591257536&#45;&#45;2067591259888</title>
<path fill="none" stroke="black" d="M1833.84,-675.89C1879.52,-672.2 1976.62,-664.36 2056.28,-657.93"/>
</g>
<!-- 2067591258256 -->
<g id="node56" class="node">
<title>2067591258256</title>
<ellipse fill="black" stroke="black" cx="1806.71" cy="-639" rx="2.7" ry="2.7"/>
</g>
<!-- 2067591257152&#45;&#45;2067591258256 -->
<g id="edge50" class="edge">
<title>2067591257152&#45;&#45;2067591258256</title>
<path fill="none" stroke="black" d="M1468.7,-646.42C1548.09,-644.67 1780.41,-639.56 1803.8,-639.04"/>
</g>
<!-- 2067591257824 -->
<g id="node57" class="node">
<title>2067591257824</title>
<ellipse fill="none" stroke="black" cx="1806.71" cy="-600" rx="79.5" ry="18"/>
<text text-anchor="middle" x="1806.71" y="-594" font-family="Times New Roman,serif" font-size="15.00">Cease on request</text>
</g>
<!-- 2067591257152&#45;&#45;2067591257824 -->
<g id="edge51" class="edge">
<title>2067591257152&#45;&#45;2067591257824</title>
<path fill="none" stroke="black" d="M1468.12,-643.66C1523.5,-636.5 1655.19,-619.47 1736.76,-608.92"/>
</g>
<!-- 2067591259024 -->
<g id="node59" class="node">
<title>2067591259024</title>
<ellipse fill="none" stroke="black" cx="1077.89" cy="-566" rx="27" ry="18"/>
<text text-anchor="middle" x="1077.89" y="-560" font-family="Times New Roman,serif" font-size="15.00">seq</text>
</g>
<!-- 2067591253264&#45;&#45;2067591259024 -->
<g id="edge58" class="edge">
<title>2067591253264&#45;&#45;2067591259024</title>
<path fill="none" stroke="black" d="M707.65,-608.98C779.25,-600.65 979.15,-577.38 1050.86,-569.03"/>
</g>
<!-- 2067591255856 -->
<g id="node63" class="node">
<title>2067591255856</title>
<ellipse fill="none" stroke="black" cx="1077.89" cy="-431" rx="27" ry="18"/>
<text text-anchor="middle" x="1077.89" y="-425" font-family="Times New Roman,serif" font-size="15.00">seq</text>
</g>
<!-- 2067591253264&#45;&#45;2067591255856 -->
<g id="edge67" class="edge">
<title>2067591253264&#45;&#45;2067591255856</title>
<path fill="none" stroke="black" d="M703.53,-602.01C772.62,-570.37 986.15,-472.56 1055.15,-440.96"/>
</g>
<!-- 2067591259120 -->
<g id="node60" class="node">
<title>2067591259120</title>
<ellipse fill="none" stroke="black" cx="1441.27" cy="-593" rx="75.41" ry="18"/>
<text text-anchor="middle" x="1441.27" y="-587" font-family="Times New Roman,serif" font-size="15.00">Finalize request</text>
</g>
<!-- 2067591259024&#45;&#45;2067591259120 -->
<g id="edge55" class="edge">
<title>2067591259024&#45;&#45;2067591259120</title>
<path fill="none" stroke="black" d="M1105.17,-567.96C1159.91,-572.05 1287.76,-581.61 1368.77,-587.66"/>
</g>
<!-- 2067591255376 -->
<g id="node61" class="node">
<title>2067591255376</title>
<ellipse fill="none" stroke="black" cx="1441.27" cy="-539" rx="163.44" ry="18"/>
<text text-anchor="middle" x="1441.27" y="-533" font-family="Times New Roman,serif" font-size="15.00">Timeframe for supplying missing data</text>
</g>
<!-- 2067591259024&#45;&#45;2067591255376 -->
<g id="edge56" class="edge">
<title>2067591259024&#45;&#45;2067591255376</title>
<path fill="none" stroke="black" d="M1105.17,-564.04C1146.83,-560.92 1230.85,-554.65 1304.34,-549.16"/>
</g>
<!-- 2067591256672 -->
<g id="node62" class="node">
<title>2067591256672</title>
<ellipse fill="none" stroke="black" cx="1441.27" cy="-485" rx="122.49" ry="18"/>
<text text-anchor="middle" x="1441.27" y="-479" font-family="Times New Roman,serif" font-size="15.00">Draft letter for missing data</text>
</g>
<!-- 2067591259024&#45;&#45;2067591256672 -->
<g id="edge57" class="edge">
<title>2067591259024&#45;&#45;2067591256672</title>
<path fill="none" stroke="black" d="M1104.01,-560.37C1158.84,-548.08 1290.78,-518.51 1372.14,-500.27"/>
</g>
<!-- 2067591260128 -->
<g id="node64" class="node">
<title>2067591260128</title>
<ellipse fill="none" stroke="black" cx="1441.27" cy="-431" rx="27" ry="18"/>
<text text-anchor="middle" x="1441.27" y="-425" font-family="Times New Roman,serif" font-size="15.00">xor</text>
</g>
<!-- 2067591255856&#45;&#45;2067591260128 -->
<g id="edge65" class="edge">
<title>2067591255856&#45;&#45;2067591260128</title>
<path fill="none" stroke="black" d="M1105.17,-431C1171.93,-431 1347.44,-431 1414.09,-431"/>
</g>
<!-- 2067591259984 -->
<g id="node71" class="node">
<title>2067591259984</title>
<ellipse fill="none" stroke="black" cx="1441.27" cy="-377" rx="111.23" ry="18"/>
<text text-anchor="middle" x="1441.27" y="-371" font-family="Times New Roman,serif" font-size="15.00">Phase procedure aborted</text>
</g>
<!-- 2067591255856&#45;&#45;2067591259984 -->
<g id="edge66" class="edge">
<title>2067591255856&#45;&#45;2067591259984</title>
<path fill="none" stroke="black" d="M1104.59,-427.16C1156.67,-419.38 1276.64,-401.45 1358.11,-389.28"/>
</g>
<!-- 2067591260992 -->
<g id="node65" class="node">
<title>2067591260992</title>
<ellipse fill="none" stroke="black" cx="1806.71" cy="-458" rx="27" ry="18"/>
<text text-anchor="middle" x="1806.71" y="-452" font-family="Times New Roman,serif" font-size="15.00">seq</text>
</g>
<!-- 2067591260128&#45;&#45;2067591260992 -->
<g id="edge61" class="edge">
<title>2067591260128&#45;&#45;2067591260992</title>
<path fill="none" stroke="black" d="M1468.41,-432.94C1535.47,-437.92 1713.01,-451.11 1779.81,-456.08"/>
</g>
<!-- 2067591260848 -->
<g id="node68" class="node">
<title>2067591260848</title>
<ellipse fill="none" stroke="black" cx="1806.71" cy="-404" rx="27" ry="18"/>
<text text-anchor="middle" x="1806.71" y="-398" font-family="Times New Roman,serif" font-size="15.00">and</text>
</g>
<!-- 2067591260128&#45;&#45;2067591260848 -->
<g id="edge64" class="edge">
<title>2067591260128&#45;&#45;2067591260848</title>
<path fill="none" stroke="black" d="M1468.41,-429.06C1535.47,-424.08 1713.01,-410.89 1779.81,-405.92"/>
</g>
<!-- 2067591261280 -->
<g id="node66" class="node">
<title>2067591261280</title>
<ellipse fill="none" stroke="black" cx="2180.33" cy="-512" rx="160.88" ry="18"/>
<text text-anchor="middle" x="2180.33" y="-506" font-family="Times New Roman,serif" font-size="15.00">Draft termination decision on request</text>
</g>
<!-- 2067591260992&#45;&#45;2067591261280 -->
<g id="edge59" class="edge">
<title>2067591260992&#45;&#45;2067591261280</title>
<path fill="none" stroke="black" d="M1833.54,-461.75C1883.75,-469.05 1996.85,-485.48 2080.09,-497.58"/>
</g>
<!-- 2067591261616 -->
<g id="node67" class="node">
<title>2067591261616</title>
<ellipse fill="none" stroke="black" cx="2180.33" cy="-458" rx="171.63" ry="18"/>
<text text-anchor="middle" x="2180.33" y="-452" font-family="Times New Roman,serif" font-size="15.00">Execute termination decision on request</text>
</g>
<!-- 2067591260992&#45;&#45;2067591261616 -->
<g id="edge60" class="edge">
<title>2067591260992&#45;&#45;2067591261616</title>
<path fill="none" stroke="black" d="M1834.14,-458C1871.03,-458 1941.05,-458 2008.44,-458"/>
</g>
<!-- 2067591261856 -->
<g id="node69" class="node">
<title>2067591261856</title>
<ellipse fill="none" stroke="black" cx="2180.33" cy="-404" rx="150.13" ry="18"/>
<text text-anchor="middle" x="2180.33" y="-398" font-family="Times New Roman,serif" font-size="15.00">Enter senddate termination request</text>
</g>
<!-- 2067591260848&#45;&#45;2067591261856 -->
<g id="edge62" class="edge">
<title>2067591260848&#45;&#45;2067591261856</title>
<path fill="none" stroke="black" d="M1834.14,-404C1875.01,-404 1956.54,-404 2030.1,-404"/>
</g>
<!-- 2067591261712 -->
<g id="node70" class="node">
<title>2067591261712</title>
<ellipse fill="none" stroke="black" cx="2180.33" cy="-350" rx="132.22" ry="18"/>
<text text-anchor="middle" x="2180.33" y="-344" font-family="Times New Roman,serif" font-size="15.00">Terminate request notification</text>
</g>
<!-- 2067591260848&#45;&#45;2067591261712 -->
<g id="edge63" class="edge">
<title>2067591260848&#45;&#45;2067591261712</title>
<path fill="none" stroke="black" d="M1833.54,-400.25C1885.39,-392.71 2004.33,-375.43 2088.18,-363.25"/>
</g>
<!-- 2067591254128 -->
<g id="node73" class="node">
<title>2067591254128</title>
<ellipse fill="black" stroke="black" cx="313.75" cy="-732" rx="2.7" ry="2.7"/>
</g>
<!-- 2067591252112&#45;&#45;2067591254128 -->
<g id="edge71" class="edge">
<title>2067591252112&#45;&#45;2067591254128</title>
<path fill="none" stroke="black" d="M139.59,-649.31C186.73,-671.82 295.89,-723.95 311,-731.16"/>
</g>
<!-- 2067591252976 -->
<g id="node74" class="node">
<title>2067591252976</title>
<ellipse fill="none" stroke="black" cx="313.75" cy="-693" rx="69.78" ry="18"/>
<text text-anchor="middle" x="313.75" y="-687" font-family="Times New Roman,serif" font-size="15.00">Conclude case</text>
</g>
<!-- 2067591252112&#45;&#45;2067591252976 -->
<g id="edge72" class="edge">
<title>2067591252112&#45;&#45;2067591252976</title>
<path fill="none" stroke="black" d="M142.27,-645.73C172.86,-654.21 226.13,-668.98 265.01,-679.76"/>
</g>
<!-- 2067591255232 -->
<g id="node75" class="node">
<title>2067591255232</title>
<ellipse fill="none" stroke="black" cx="313.75" cy="-639" rx="133.75" ry="18"/>
<text text-anchor="middle" x="313.75" y="-633" font-family="Times New Roman,serif" font-size="15.00">Phase of application receptive</text>
</g>
<!-- 2067591252112&#45;&#45;2067591255232 -->
<g id="edge73" class="edge">
<title>2067591252112&#45;&#45;2067591255232</title>
<path fill="none" stroke="black" d="M144.27,-639C154.23,-639 166.39,-639 179.55,-639"/>
</g>
<!-- 2067591254704 -->
<g id="node76" class="node">
<title>2067591254704</title>
<ellipse fill="none" stroke="black" cx="313.75" cy="-585" rx="132.73" ry="18"/>
<text text-anchor="middle" x="313.75" y="-579" font-family="Times New Roman,serif" font-size="15.00">applicable detailed procedure</text>
</g>
<!-- 2067591252112&#45;&#45;2067591254704 -->
<g id="edge74" class="edge">
<title>2067591252112&#45;&#45;2067591254704</title>
<path fill="none" stroke="black" d="M142.27,-632.27C169.9,-624.61 216.05,-611.81 253.36,-601.47"/>
</g>
<!-- 2067591252400 -->
<g id="node77" class="node">
<title>2067591252400</title>
<ellipse fill="none" stroke="black" cx="313.75" cy="-531" rx="27" ry="18"/>
<text text-anchor="middle" x="313.75" y="-525" font-family="Times New Roman,serif" font-size="15.00">seq</text>
</g>
<!-- 2067591252112&#45;&#45;2067591252400 -->
<g id="edge77" class="edge">
<title>2067591252112&#45;&#45;2067591252400</title>
<path fill="none" stroke="black" d="M138.47,-627.65C175.88,-606.9 254.84,-563.11 292.26,-542.36"/>
</g>
<!-- 2067591254080 -->
<g id="node80" class="node">
<title>2067591254080</title>
<ellipse fill="none" stroke="black" cx="313.75" cy="-261" rx="27" ry="18"/>
<text text-anchor="middle" x="313.75" y="-255" font-family="Times New Roman,serif" font-size="15.00">seq</text>
</g>
<!-- 2067591252112&#45;&#45;2067591254080 -->
<g id="edge87" class="edge">
<title>2067591252112&#45;&#45;2067591254080</title>
<path fill="none" stroke="black" d="M126.87,-621.78C159.39,-558.66 271.81,-340.46 304.05,-277.89"/>
</g>
<!-- 2067591257968 -->
<g id="node78" class="node">
<title>2067591257968</title>
<ellipse fill="none" stroke="black" cx="680.72" cy="-558" rx="90.76" ry="18"/>
<text text-anchor="middle" x="680.72" y="-552" font-family="Times New Roman,serif" font-size="15.00">Locate missing data</text>
</g>
<!-- 2067591252400&#45;&#45;2067591257968 -->
<g id="edge75" class="edge">
<title>2067591252400&#45;&#45;2067591257968</title>
<path fill="none" stroke="black" d="M341,-532.94C393.38,-536.82 512.91,-545.66 595,-551.73"/>
</g>
<!-- 2067591254272 -->
<g id="node79" class="node">
<title>2067591254272</title>
<ellipse fill="none" stroke="black" cx="680.72" cy="-504" rx="157.3" ry="18"/>
<text text-anchor="middle" x="680.72" y="-498" font-family="Times New Roman,serif" font-size="15.00">Enter senddate retrieve missing data</text>
</g>
<!-- 2067591252400&#45;&#45;2067591254272 -->
<g id="edge76" class="edge">
<title>2067591252400&#45;&#45;2067591254272</title>
<path fill="none" stroke="black" d="M341,-529.06C383.9,-525.88 471.85,-519.38 547.37,-513.79"/>
</g>
<!-- 2067591260752 -->
<g id="node81" class="node">
<title>2067591260752</title>
<ellipse fill="none" stroke="black" cx="680.72" cy="-450" rx="127.61" ry="18"/>
<text text-anchor="middle" x="680.72" y="-444" font-family="Times New Roman,serif" font-size="15.00">create decision for no permit</text>
</g>
<!-- 2067591254080&#45;&#45;2067591260752 -->
<g id="edge78" class="edge">
<title>2067591254080&#45;&#45;2067591260752</title>
<path fill="none" stroke="black" d="M335.69,-271.84C396.05,-303.1 570.86,-393.62 645.4,-432.22"/>
</g>
<!-- 2067591260176 -->
<g id="node82" class="node">
<title>2067591260176</title>
<ellipse fill="none" stroke="black" cx="680.72" cy="-396" rx="162.41" ry="18"/>
<text text-anchor="middle" x="680.72" y="-390" font-family="Times New Roman,serif" font-size="15.00">set no permit required phase decision</text>
</g>
<!-- 2067591254080&#45;&#45;2067591260176 -->
<g id="edge79" class="edge">
<title>2067591254080&#45;&#45;2067591260176</title>
<path fill="none" stroke="black" d="M337.86,-269.55C396.62,-291.28 552.69,-349.01 632.01,-378.35"/>
</g>
<!-- 2067591261424 -->
<g id="node83" class="node">
<title>2067591261424</title>
<ellipse fill="none" stroke="black" cx="680.72" cy="-342" rx="86.15" ry="18"/>
<text text-anchor="middle" x="680.72" y="-336" font-family="Times New Roman,serif" font-size="15.00">Fix decision status</text>
</g>
<!-- 2067591254080&#45;&#45;2067591261424 -->
<g id="edge80" class="edge">
<title>2067591254080&#45;&#45;2067591261424</title>
<path fill="none" stroke="black" d="M339.84,-266.57C397.17,-279.29 539.1,-310.79 620.26,-328.8"/>
</g>
<!-- 2067591261904 -->
<g id="node84" class="node">
<title>2067591261904</title>
<ellipse fill="none" stroke="black" cx="680.72" cy="-288" rx="140.41" ry="18"/>
<text text-anchor="middle" x="680.72" y="-282" font-family="Times New Roman,serif" font-size="15.00">Decision date ahead of decision</text>
</g>
<!-- 2067591254080&#45;&#45;2067591261904 -->
<g id="edge81" class="edge">
<title>2067591254080&#45;&#45;2067591261904</title>
<path fill="none" stroke="black" d="M341,-262.94C385.95,-266.27 480.33,-273.25 558.07,-279"/>
</g>
<!-- 2067591261040 -->
<g id="node85" class="node">
<title>2067591261040</title>
<ellipse fill="none" stroke="black" cx="680.72" cy="-234" rx="133.24" ry="18"/>
<text text-anchor="middle" x="680.72" y="-228" font-family="Times New Roman,serif" font-size="15.00">generate decision of no permit</text>
</g>
<!-- 2067591254080&#45;&#45;2067591261040 -->
<g id="edge82" class="edge">
<title>2067591254080&#45;&#45;2067591261040</title>
<path fill="none" stroke="black" d="M341,-259.06C386.85,-255.67 484.12,-248.47 562.72,-242.66"/>
</g>
<!-- 2067591260416 -->
<g id="node86" class="node">
<title>2067591260416</title>
<ellipse fill="none" stroke="black" cx="680.72" cy="-180" rx="149.11" ry="18"/>
<text text-anchor="middle" x="680.72" y="-174" font-family="Times New Roman,serif" font-size="15.00">record date for no permit decision</text>
</g>
<!-- 2067591254080&#45;&#45;2067591260416 -->
<g id="edge83" class="edge">
<title>2067591254080&#45;&#45;2067591260416</title>
<path fill="none" stroke="black" d="M339.84,-255.43C394.27,-243.35 524.96,-214.35 607.5,-196.03"/>
</g>
<!-- 2067591262048 -->
<g id="node87" class="node">
<title>2067591262048</title>
<ellipse fill="none" stroke="black" cx="680.72" cy="-126" rx="147.06" ry="18"/>
<text text-anchor="middle" x="680.72" y="-120" font-family="Times New Roman,serif" font-size="15.00">phase activity requiring no permit</text>
</g>
<!-- 2067591254080&#45;&#45;2067591262048 -->
<g id="edge84" class="edge">
<title>2067591254080&#45;&#45;2067591262048</title>
<path fill="none" stroke="black" d="M337.86,-252.45C396.78,-230.66 553.53,-172.68 632.64,-143.41"/>
</g>
<!-- 2067591262336 -->
<g id="node88" class="node">
<title>2067591262336</title>
<ellipse fill="none" stroke="black" cx="680.72" cy="-72" rx="191.08" ry="18"/>
<text text-anchor="middle" x="680.72" y="-66" font-family="Times New Roman,serif" font-size="15.00">create cover letter stating no permit required</text>
</g>
<!-- 2067591254080&#45;&#45;2067591262336 -->
<g id="edge85" class="edge">
<title>2067591254080&#45;&#45;2067591262336</title>
<path fill="none" stroke="black" d="M335.69,-250.16C395.89,-218.98 569.98,-128.83 644.83,-90.07"/>
</g>
<!-- 2067591262288 -->
<g id="node89" class="node">
<title>2067591262288</title>
<ellipse fill="none" stroke="black" cx="680.72" cy="-18" rx="197.22" ry="18"/>
<text text-anchor="middle" x="680.72" y="-12" font-family="Times New Roman,serif" font-size="15.00">prepare a memo stating no permit is necessary</text>
</g>
<!-- 2067591254080&#45;&#45;2067591262288 -->
<g id="edge86" class="edge">
<title>2067591254080&#45;&#45;2067591262288</title>
<path fill="none" stroke="black" d="M333.61,-248.45C393.82,-208.36 581.67,-83.28 652.41,-36.18"/>
</g>
</g>
</svg>
