<?xml version="1.0" encoding="UTF-8" standalone="no"?>
<!DOCTYPE svg PUBLIC "-//W3C//DTD SVG 1.1//EN"
 "http://www.w3.org/Graphics/SVG/1.1/DTD/svg11.dtd">
<!-- Generated by graphviz version 11.0.0 (20240428.1522)
 -->
<!-- Title: pt Pages: 1 -->
<svg width="1202pt" height="1097pt"
 viewBox="0.00 0.00 1201.73 1097.00" xmlns="http://www.w3.org/2000/svg" xmlns:xlink="http://www.w3.org/1999/xlink">
<g id="graph0" class="graph" transform="scale(1 1) rotate(0) translate(4 1093)">
<title>pt</title>
<polygon fill="white" stroke="none" points="-4,4 -4,-1093 1197.73,-1093 1197.73,4 -4,4"/>
<!-- 2067588083792 -->
<g id="node1" class="node">
<title>2067588083792</title>
<ellipse fill="none" stroke="black" cx="27" cy="-639" rx="27" ry="18"/>
<text text-anchor="middle" x="27" y="-633" font-family="Times New Roman,serif" font-size="15.00">seq</text>
</g>
<!-- 2067588076064 -->
<g id="node2" class="node">
<title>2067588076064</title>
<ellipse fill="none" stroke="black" cx="241.15" cy="-1071" rx="129.66" ry="18"/>
<text text-anchor="middle" x="241.15" y="-1065" font-family="Times New Roman,serif" font-size="15.00">Input submission date request</text>
</g>
<!-- 2067588083792&#45;&#45;2067588076064 -->
<g id="edge1" class="edge">
<title>2067588083792&#45;&#45;2067588076064</title>
<path fill="none" stroke="black" d="M36.45,-656.2C70.36,-725.25 196.43,-981.96 231.21,-1052.79"/>
</g>
<!-- 2067588076448 -->
<g id="node3" class="node">
<title>2067588076448</title>
<ellipse fill="none" stroke="black" cx="241.15" cy="-1017" rx="93.32" ry="18"/>
<text text-anchor="middle" x="241.15" y="-1011" font-family="Times New Roman,serif" font-size="15.00">OLO messaging live</text>
</g>
<!-- 2067588083792&#45;&#45;2067588076448 -->
<g id="edge2" class="edge">
<title>2067588083792&#45;&#45;2067588076448</title>
<path fill="none" stroke="black" d="M37.39,-655.73C72.19,-717.74 193.68,-934.2 229.89,-998.72"/>
</g>
<!-- 2067589042000 -->
<g id="node4" class="node">
<title>2067589042000</title>
<ellipse fill="none" stroke="black" cx="241.15" cy="-963" rx="127.61" ry="18"/>
<text text-anchor="middle" x="241.15" y="-957" font-family="Times New Roman,serif" font-size="15.00">Provide confirmation receipt</text>
</g>
<!-- 2067588083792&#45;&#45;2067589042000 -->
<g id="edge3" class="edge">
<title>2067588083792&#45;&#45;2067589042000</title>
<path fill="none" stroke="black" d="M38.81,-655.51C74.87,-710.58 190.82,-887.66 228.33,-944.94"/>
</g>
<!-- 2067589051120 -->
<g id="node5" class="node">
<title>2067589051120</title>
<ellipse fill="none" stroke="black" cx="241.15" cy="-909" rx="147.06" ry="18"/>
<text text-anchor="middle" x="241.15" y="-903" font-family="Times New Roman,serif" font-size="15.00">Applicant considered stakeholder</text>
</g>
<!-- 2067588083792&#45;&#45;2067589051120 -->
<g id="edge4" class="edge">
<title>2067588083792&#45;&#45;2067589051120</title>
<path fill="none" stroke="black" d="M40.32,-654.68C77.2,-701.62 186.56,-840.8 225.88,-890.83"/>
</g>
<!-- 2067589039648 -->
<g id="node6" class="node">
<title>2067589039648</title>
<ellipse fill="none" stroke="black" cx="241.15" cy="-855" rx="121.47" ry="18"/>
<text text-anchor="middle" x="241.15" y="-849" font-family="Times New Roman,serif" font-size="15.00">Assess provisional charges</text>
</g>
<!-- 2067588083792&#45;&#45;2067589039648 -->
<g id="edge5" class="edge">
<title>2067588083792&#45;&#45;2067589039648</title>
<path fill="none" stroke="black" d="M42.58,-653.85C80.31,-692.26 181.05,-794.82 222.23,-836.75"/>
</g>
<!-- 2067589041808 -->
<g id="node7" class="node">
<title>2067589041808</title>
<ellipse fill="none" stroke="black" cx="241.15" cy="-801" rx="151.15" ry="18"/>
<text text-anchor="middle" x="241.15" y="-795" font-family="Times New Roman,serif" font-size="15.00">Transfer to the competent authority</text>
</g>
<!-- 2067588083792&#45;&#45;2067589041808 -->
<g id="edge6" class="edge">
<title>2067588083792&#45;&#45;2067589041808</title>
<path fill="none" stroke="black" d="M45.72,-652.53C83.77,-681.58 173.27,-749.93 216.27,-782.76"/>
</g>
<!-- 2067589040656 -->
<g id="node8" class="node">
<title>2067589040656</title>
<ellipse fill="none" stroke="black" cx="241.15" cy="-747" rx="111.74" ry="18"/>
<text text-anchor="middle" x="241.15" y="-741" font-family="Times New Roman,serif" font-size="15.00">Alert BAG administrator</text>
</g>
<!-- 2067588083792&#45;&#45;2067589040656 -->
<g id="edge7" class="edge">
<title>2067588083792&#45;&#45;2067589040656</title>
<path fill="none" stroke="black" d="M49.12,-649.75C85.8,-668.42 161.6,-707.01 205.9,-729.56"/>
</g>
<!-- 2067589048768 -->
<g id="node9" class="node">
<title>2067589048768</title>
<ellipse fill="none" stroke="black" cx="241.15" cy="-693" rx="131.19" ry="18"/>
<text text-anchor="middle" x="241.15" y="-687" font-family="Times New Roman,serif" font-size="15.00">Phase of application received</text>
</g>
<!-- 2067588083792&#45;&#45;2067589048768 -->
<g id="edge8" class="edge">
<title>2067588083792&#45;&#45;2067589048768</title>
<path fill="none" stroke="black" d="M52.75,-645.3C83.03,-653.01 135.4,-666.34 177.09,-676.95"/>
</g>
<!-- 2067589041712 -->
<g id="node10" class="node">
<title>2067589041712</title>
<ellipse fill="none" stroke="black" cx="241.15" cy="-639" rx="142.45" ry="18"/>
<text text-anchor="middle" x="241.15" y="-633" font-family="Times New Roman,serif" font-size="15.00">Routine procedure without MER</text>
</g>
<!-- 2067588083792&#45;&#45;2067589041712 -->
<g id="edge9" class="edge">
<title>2067588083792&#45;&#45;2067589041712</title>
<path fill="none" stroke="black" d="M54.44,-639C66.55,-639 81.92,-639 98.61,-639"/>
</g>
<!-- 2067589039120 -->
<g id="node11" class="node">
<title>2067589039120</title>
<ellipse fill="none" stroke="black" cx="241.15" cy="-585" rx="57.49" ry="18"/>
<text text-anchor="middle" x="241.15" y="-579" font-family="Times New Roman,serif" font-size="15.00">MER listed</text>
</g>
<!-- 2067588083792&#45;&#45;2067589039120 -->
<g id="edge10" class="edge">
<title>2067588083792&#45;&#45;2067589039120</title>
<path fill="none" stroke="black" d="M52.75,-632.7C87.73,-623.8 152.19,-607.39 195.61,-596.34"/>
</g>
<!-- 2067589050832 -->
<g id="node12" class="node">
<title>2067589050832</title>
<ellipse fill="none" stroke="black" cx="241.15" cy="-531" rx="125.56" ry="18"/>
<text text-anchor="middle" x="241.15" y="-525" font-family="Times New Roman,serif" font-size="15.00">Routine procedure activities</text>
</g>
<!-- 2067588083792&#45;&#45;2067589050832 -->
<g id="edge11" class="edge">
<title>2067588083792&#45;&#45;2067589050832</title>
<path fill="none" stroke="black" d="M49.12,-628.25C85.7,-609.63 161.17,-571.21 205.52,-548.63"/>
</g>
<!-- 2067589042144 -->
<g id="node13" class="node">
<title>2067589042144</title>
<ellipse fill="none" stroke="black" cx="241.15" cy="-477" rx="139.89" ry="18"/>
<text text-anchor="middle" x="241.15" y="-471" font-family="Times New Roman,serif" font-size="15.00">Inspect field phased application</text>
</g>
<!-- 2067588083792&#45;&#45;2067589042144 -->
<g id="edge12" class="edge">
<title>2067588083792&#45;&#45;2067589042144</title>
<path fill="none" stroke="black" d="M45.72,-625.47C83.87,-596.34 173.74,-527.71 216.61,-494.98"/>
</g>
<!-- 2067589053088 -->
<g id="node14" class="node">
<title>2067589053088</title>
<ellipse fill="none" stroke="black" cx="241.15" cy="-423" rx="112.77" ry="18"/>
<text text-anchor="middle" x="241.15" y="-417" font-family="Times New Roman,serif" font-size="15.00">Initiate WABOprocedure</text>
</g>
<!-- 2067588083792&#45;&#45;2067589053088 -->
<g id="edge13" class="edge">
<title>2067588083792&#45;&#45;2067589053088</title>
<path fill="none" stroke="black" d="M42.58,-624.15C80.4,-585.65 181.55,-482.67 222.54,-440.93"/>
</g>
<!-- 2067589038688 -->
<g id="node15" class="node">
<title>2067589038688</title>
<ellipse fill="none" stroke="black" cx="241.15" cy="-369" rx="129.15" ry="18"/>
<text text-anchor="middle" x="241.15" y="-363" font-family="Times New Roman,serif" font-size="15.00">Draft procedure confirmation</text>
</g>
<!-- 2067588083792&#45;&#45;2067589038688 -->
<g id="edge14" class="edge">
<title>2067588083792&#45;&#45;2067589038688</title>
<path fill="none" stroke="black" d="M40.32,-623.32C77.2,-576.38 186.56,-437.2 225.88,-387.17"/>
</g>
<!-- 2067589053424 -->
<g id="node16" class="node">
<title>2067589053424</title>
<ellipse fill="none" stroke="black" cx="241.15" cy="-315" rx="51.35" ry="18"/>
<text text-anchor="middle" x="241.15" y="-309" font-family="Times New Roman,serif" font-size="15.00">Distribute</text>
</g>
<!-- 2067588083792&#45;&#45;2067589053424 -->
<g id="edge15" class="edge">
<title>2067588083792&#45;&#45;2067589053424</title>
<path fill="none" stroke="black" d="M38.81,-622.49C74.95,-567.29 191.37,-389.51 228.59,-332.66"/>
</g>
<!-- 2067589050640 -->
<g id="node17" class="node">
<title>2067589050640</title>
<ellipse fill="none" stroke="black" cx="241.15" cy="-261" rx="127.61" ry="18"/>
<text text-anchor="middle" x="241.15" y="-255" font-family="Times New Roman,serif" font-size="15.00">Form subcases completeness</text>
</g>
<!-- 2067588083792&#45;&#45;2067589050640 -->
<g id="edge16" class="edge">
<title>2067588083792&#45;&#45;2067589050640</title>
<path fill="none" stroke="black" d="M37.39,-622.27C72.19,-560.26 193.68,-343.8 229.89,-279.28"/>
</g>
<!-- 2067589050976 -->
<g id="node18" class="node">
<title>2067589050976</title>
<ellipse fill="none" stroke="black" cx="241.15" cy="-207" rx="27" ry="18"/>
<text text-anchor="middle" x="241.15" y="-201" font-family="Times New Roman,serif" font-size="15.00">xor</text>
</g>
<!-- 2067588083792&#45;&#45;2067589050976 -->
<g id="edge31" class="edge">
<title>2067588083792&#45;&#45;2067589050976</title>
<path fill="none" stroke="black" d="M36.45,-621.8C70.51,-552.44 197.57,-293.7 231.68,-224.25"/>
</g>
<!-- 2067589042672 -->
<g id="node19" class="node">
<title>2067589042672</title>
<ellipse fill="none" stroke="black" cx="455.31" cy="-315" rx="27" ry="18"/>
<text text-anchor="middle" x="455.31" y="-309" font-family="Times New Roman,serif" font-size="15.00">seq</text>
</g>
<!-- 2067589050976&#45;&#45;2067589042672 -->
<g id="edge20" class="edge">
<title>2067589050976&#45;&#45;2067589042672</title>
<path fill="none" stroke="black" d="M263.27,-217.75C303.94,-238.45 392.68,-283.63 433.28,-304.29"/>
</g>
<!-- 2067589047376 -->
<g id="node23" class="node">
<title>2067589047376</title>
<ellipse fill="none" stroke="black" cx="455.31" cy="-153" rx="27" ry="18"/>
<text text-anchor="middle" x="455.31" y="-147" font-family="Times New Roman,serif" font-size="15.00">seq</text>
</g>
<!-- 2067589050976&#45;&#45;2067589047376 -->
<g id="edge30" class="edge">
<title>2067589050976&#45;&#45;2067589047376</title>
<path fill="none" stroke="black" d="M266.91,-200.7C307.79,-190.29 388.94,-169.64 429.71,-159.26"/>
</g>
<!-- 2067589043872 -->
<g id="node20" class="node">
<title>2067589043872</title>
<ellipse fill="none" stroke="black" cx="687.89" cy="-396" rx="83.08" ry="18"/>
<text text-anchor="middle" x="687.89" y="-390" font-family="Times New Roman,serif" font-size="15.00">Amend procedure</text>
</g>
<!-- 2067589042672&#45;&#45;2067589043872 -->
<g id="edge17" class="edge">
<title>2067589042672&#45;&#45;2067589043872</title>
<path fill="none" stroke="black" d="M479.69,-323.21C517.93,-336.65 594.45,-363.53 643.04,-380.6"/>
</g>
<!-- 2067589045888 -->
<g id="node21" class="node">
<title>2067589045888</title>
<ellipse fill="none" stroke="black" cx="687.89" cy="-342" rx="143.99" ry="18"/>
<text text-anchor="middle" x="687.89" y="-336" font-family="Times New Roman,serif" font-size="15.00">Transmit procedure confirmation</text>
</g>
<!-- 2067589042672&#45;&#45;2067589045888 -->
<g id="edge18" class="edge">
<title>2067589042672&#45;&#45;2067589045888</title>
<path fill="none" stroke="black" d="M482.31,-318.04C506.57,-320.89 544.43,-325.32 581.01,-329.6"/>
</g>
<!-- 2067589041376 -->
<g id="node22" class="node">
<title>2067589041376</title>
<ellipse fill="none" stroke="black" cx="687.89" cy="-288" rx="166" ry="18"/>
<text text-anchor="middle" x="687.89" y="-282" font-family="Times New Roman,serif" font-size="15.00">Input senddate procedure confirmation</text>
</g>
<!-- 2067589042672&#45;&#45;2067589041376 -->
<g id="edge19" class="edge">
<title>2067589042672&#45;&#45;2067589041376</title>
<path fill="none" stroke="black" d="M482.31,-311.96C504.81,-309.32 538.99,-305.32 573.01,-301.34"/>
</g>
<!-- 2067589051792 -->
<g id="node24" class="node">
<title>2067589051792</title>
<ellipse fill="none" stroke="black" cx="687.89" cy="-234" rx="79.5" ry="18"/>
<text text-anchor="middle" x="687.89" y="-228" font-family="Times New Roman,serif" font-size="15.00">Cease on request</text>
</g>
<!-- 2067589047376&#45;&#45;2067589051792 -->
<g id="edge21" class="edge">
<title>2067589047376&#45;&#45;2067589051792</title>
<path fill="none" stroke="black" d="M479.69,-161.21C518.04,-174.69 594.91,-201.69 643.47,-218.75"/>
</g>
<!-- 2067589051264 -->
<g id="node25" class="node">
<title>2067589051264</title>
<ellipse fill="none" stroke="black" cx="687.89" cy="-180" rx="169.58" ry="18"/>
<text text-anchor="middle" x="687.89" y="-174" font-family="Times New Roman,serif" font-size="15.00">Enter date termination request received</text>
</g>
<!-- 2067589047376&#45;&#45;2067589051264 -->
<g id="edge22" class="edge">
<title>2067589047376&#45;&#45;2067589051264</title>
<path fill="none" stroke="black" d="M482.31,-156.04C504.51,-158.64 538.09,-162.58 571.67,-166.51"/>
</g>
<!-- 2067589041520 -->
<g id="node26" class="node">
<title>2067589041520</title>
<ellipse fill="none" stroke="black" cx="687.89" cy="-126" rx="27" ry="18"/>
<text text-anchor="middle" x="687.89" y="-120" font-family="Times New Roman,serif" font-size="15.00">and</text>
</g>
<!-- 2067589047376&#45;&#45;2067589041520 -->
<g id="edge25" class="edge">
<title>2067589047376&#45;&#45;2067589041520</title>
<path fill="none" stroke="black" d="M482.31,-149.96C526.71,-144.76 616.64,-134.23 660.98,-129.03"/>
</g>
<!-- 2067589045840 -->
<g id="node29" class="node">
<title>2067589045840</title>
<ellipse fill="none" stroke="black" cx="687.89" cy="-72" rx="27" ry="18"/>
<text text-anchor="middle" x="687.89" y="-66" font-family="Times New Roman,serif" font-size="15.00">and</text>
</g>
<!-- 2067589047376&#45;&#45;2067589045840 -->
<g id="edge28" class="edge">
<title>2067589047376&#45;&#45;2067589045840</title>
<path fill="none" stroke="black" d="M479.69,-144.79C523.88,-129.26 619.21,-95.78 663.45,-80.23"/>
</g>
<!-- 2067589039360 -->
<g id="node32" class="node">
<title>2067589039360</title>
<ellipse fill="none" stroke="black" cx="687.89" cy="-18" rx="69.78" ry="18"/>
<text text-anchor="middle" x="687.89" y="-12" font-family="Times New Roman,serif" font-size="15.00">Conclude case</text>
</g>
<!-- 2067589047376&#45;&#45;2067589039360 -->
<g id="edge29" class="edge">
<title>2067589047376&#45;&#45;2067589039360</title>
<path fill="none" stroke="black" d="M476.37,-141.26C517.45,-117.2 611.29,-62.26 658.56,-34.58"/>
</g>
<!-- 2067588631920 -->
<g id="node27" class="node">
<title>2067588631920</title>
<ellipse fill="none" stroke="black" cx="1043.6" cy="-180" rx="150.13" ry="18"/>
<text text-anchor="middle" x="1043.6" y="-174" font-family="Times New Roman,serif" font-size="15.00">Enter senddate termination request</text>
</g>
<!-- 2067589041520&#45;&#45;2067588631920 -->
<g id="edge23" class="edge">
<title>2067589041520&#45;&#45;2067588631920</title>
<path fill="none" stroke="black" d="M714.61,-129.93C763.1,-137.33 870.21,-153.68 948.89,-165.69"/>
</g>
<!-- 2067588639504 -->
<g id="node28" class="node">
<title>2067588639504</title>
<ellipse fill="none" stroke="black" cx="1043.6" cy="-126" rx="132.22" ry="18"/>
<text text-anchor="middle" x="1043.6" y="-120" font-family="Times New Roman,serif" font-size="15.00">Terminate request notification</text>
</g>
<!-- 2067589041520&#45;&#45;2067588639504 -->
<g id="edge24" class="edge">
<title>2067589041520&#45;&#45;2067588639504</title>
<path fill="none" stroke="black" d="M715.18,-126C756.41,-126 838.98,-126 910.89,-126"/>
</g>
<!-- 2067588632448 -->
<g id="node30" class="node">
<title>2067588632448</title>
<ellipse fill="none" stroke="black" cx="1043.6" cy="-72" rx="81.04" ry="18"/>
<text text-anchor="middle" x="1043.6" y="-66" font-family="Times New Roman,serif" font-size="15.00">Register due date</text>
</g>
<!-- 2067589045840&#45;&#45;2067588632448 -->
<g id="edge26" class="edge">
<title>2067589045840&#45;&#45;2067588632448</title>
<path fill="none" stroke="black" d="M715.18,-72C766.74,-72 882.95,-72 962.09,-72"/>
</g>
<!-- 2067588638256 -->
<g id="node31" class="node">
<title>2067588638256</title>
<ellipse fill="none" stroke="black" cx="1043.6" cy="-18" rx="111.23" ry="18"/>
<text text-anchor="middle" x="1043.6" y="-12" font-family="Times New Roman,serif" font-size="15.00">Phase procedure aborted</text>
</g>
<!-- 2067589045840&#45;&#45;2067588638256 -->
<g id="edge27" class="edge">
<title>2067589045840&#45;&#45;2067588638256</title>
<path fill="none" stroke="black" d="M714.61,-68.07C765.64,-60.28 881.61,-42.58 961.02,-30.45"/>
</g>
</g>
</svg>
