<?xml version="1.0" encoding="UTF-8" standalone="no"?>
<!DOCTYPE svg PUBLIC "-//W3C//DTD SVG 1.1//EN"
 "http://www.w3.org/Graphics/SVG/1.1/DTD/svg11.dtd">
<!-- Generated by graphviz version 11.0.0 (20240428.1522)
 -->
<!-- Title: pt Pages: 1 -->
<svg width="4356pt" height="935pt"
 viewBox="0.00 0.00 4355.59 935.00" xmlns="http://www.w3.org/2000/svg" xmlns:xlink="http://www.w3.org/1999/xlink">
<g id="graph0" class="graph" transform="scale(1 1) rotate(0) translate(4 931)">
<title>pt</title>
<polygon fill="white" stroke="none" points="-4,4 -4,-931 4351.59,-931 4351.59,4 -4,4"/>
<!-- 2067590058048 -->
<g id="node1" class="node">
<title>2067590058048</title>
<ellipse fill="none" stroke="black" cx="27" cy="-666" rx="27" ry="18"/>
<text text-anchor="middle" x="27" y="-660" font-family="Times New Roman,serif" font-size="15.00">seq</text>
</g>
<!-- 2067590068416 -->
<g id="node2" class="node">
<title>2067590068416</title>
<ellipse fill="none" stroke="black" cx="268.28" cy="-693" rx="27" ry="18"/>
<text text-anchor="middle" x="268.28" y="-687" font-family="Times New Roman,serif" font-size="15.00">and</text>
</g>
<!-- 2067590058048&#45;&#45;2067590068416 -->
<g id="edge82" class="edge">
<title>2067590058048&#45;&#45;2067590068416</title>
<path fill="none" stroke="black" d="M54.06,-668.94C100.09,-674.13 195.24,-684.87 241.25,-690.06"/>
</g>
<!-- 2067590056992 -->
<g id="node84" class="node">
<title>2067590056992</title>
<ellipse fill="none" stroke="black" cx="268.28" cy="-639" rx="178.28" ry="18"/>
<text text-anchor="middle" x="268.28" y="-633" font-family="Times New Roman,serif" font-size="15.00">halt proceedings after request termination</text>
</g>
<!-- 2067590058048&#45;&#45;2067590056992 -->
<g id="edge83" class="edge">
<title>2067590058048&#45;&#45;2067590056992</title>
<path fill="none" stroke="black" d="M54.06,-663.06C76.96,-660.48 112,-656.52 147.11,-652.56"/>
</g>
<!-- 2067590060544 -->
<g id="node3" class="node">
<title>2067590060544</title>
<ellipse fill="none" stroke="black" cx="652.14" cy="-774" rx="79.5" ry="18"/>
<text text-anchor="middle" x="652.14" y="-768" font-family="Times New Roman,serif" font-size="15.00">Cease on request</text>
</g>
<!-- 2067590068416&#45;&#45;2067590060544 -->
<g id="edge1" class="edge">
<title>2067590068416&#45;&#45;2067590060544</title>
<path fill="none" stroke="black" d="M294.33,-698.31C354.48,-711.07 508.32,-743.7 593.03,-761.67"/>
</g>
<!-- 2067590061072 -->
<g id="node4" class="node">
<title>2067590061072</title>
<ellipse fill="none" stroke="black" cx="652.14" cy="-720" rx="169.58" ry="18"/>
<text text-anchor="middle" x="652.14" y="-714" font-family="Times New Roman,serif" font-size="15.00">Enter date termination request received</text>
</g>
<!-- 2067590068416&#45;&#45;2067590061072 -->
<g id="edge2" class="edge">
<title>2067590068416&#45;&#45;2067590061072</title>
<path fill="none" stroke="black" d="M295.53,-694.86C339.34,-697.95 430.36,-704.39 509.34,-709.97"/>
</g>
<!-- 2067590056656 -->
<g id="node5" class="node">
<title>2067590056656</title>
<ellipse fill="none" stroke="black" cx="652.14" cy="-666" rx="129.66" ry="18"/>
<text text-anchor="middle" x="652.14" y="-660" font-family="Times New Roman,serif" font-size="15.00">Input submission date request</text>
</g>
<!-- 2067590068416&#45;&#45;2067590056656 -->
<g id="edge3" class="edge">
<title>2067590068416&#45;&#45;2067590056656</title>
<path fill="none" stroke="black" d="M295.53,-691.14C344.31,-687.7 451.62,-680.11 535.67,-674.16"/>
</g>
<!-- 2067590059248 -->
<g id="node6" class="node">
<title>2067590059248</title>
<ellipse fill="none" stroke="black" cx="652.14" cy="-612" rx="27" ry="18"/>
<text text-anchor="middle" x="652.14" y="-606" font-family="Times New Roman,serif" font-size="15.00">seq</text>
</g>
<!-- 2067590068416&#45;&#45;2067590059248 -->
<g id="edge81" class="edge">
<title>2067590068416&#45;&#45;2067590059248</title>
<path fill="none" stroke="black" d="M294.33,-687.69C363.53,-673.01 556.69,-632.03 625.99,-617.33"/>
</g>
<!-- 2067590062272 -->
<g id="node7" class="node">
<title>2067590062272</title>
<ellipse fill="none" stroke="black" cx="951.04" cy="-639" rx="93.32" ry="18"/>
<text text-anchor="middle" x="951.04" y="-633" font-family="Times New Roman,serif" font-size="15.00">OLO messaging live</text>
</g>
<!-- 2067590059248&#45;&#45;2067590062272 -->
<g id="edge4" class="edge">
<title>2067590059248&#45;&#45;2067590062272</title>
<path fill="none" stroke="black" d="M679.23,-614.37C720.54,-618.13 802.82,-625.61 865.89,-631.35"/>
</g>
<!-- 2067590069184 -->
<g id="node8" class="node">
<title>2067590069184</title>
<ellipse fill="none" stroke="black" cx="951.04" cy="-585" rx="27" ry="18"/>
<text text-anchor="middle" x="951.04" y="-579" font-family="Times New Roman,serif" font-size="15.00">and</text>
</g>
<!-- 2067590059248&#45;&#45;2067590069184 -->
<g id="edge80" class="edge">
<title>2067590059248&#45;&#45;2067590069184</title>
<path fill="none" stroke="black" d="M679.23,-609.63C735.54,-604.51 867.95,-592.47 924.12,-587.36"/>
</g>
<!-- 2067590062512 -->
<g id="node9" class="node">
<title>2067590062512</title>
<ellipse fill="none" stroke="black" cx="1231.51" cy="-720" rx="131.19" ry="18"/>
<text text-anchor="middle" x="1231.51" y="-714" font-family="Times New Roman,serif" font-size="15.00">Phase of application received</text>
</g>
<!-- 2067590069184&#45;&#45;2067590062512 -->
<g id="edge5" class="edge">
<title>2067590069184&#45;&#45;2067590062512</title>
<path fill="none" stroke="black" d="M973.43,-595.37C1020.8,-618.34 1135.05,-673.72 1193.98,-702.29"/>
</g>
<!-- 2067590061648 -->
<g id="node10" class="node">
<title>2067590061648</title>
<ellipse fill="none" stroke="black" cx="1231.51" cy="-666" rx="143.99" ry="18"/>
<text text-anchor="middle" x="1231.51" y="-660" font-family="Times New Roman,serif" font-size="15.00">Transmit procedure confirmation</text>
</g>
<!-- 2067590069184&#45;&#45;2067590061648 -->
<g id="edge6" class="edge">
<title>2067590069184&#45;&#45;2067590061648</title>
<path fill="none" stroke="black" d="M976.26,-592.05C1019.73,-604.69 1112.08,-631.55 1172.7,-649.18"/>
</g>
<!-- 2067590057712 -->
<g id="node11" class="node">
<title>2067590057712</title>
<ellipse fill="none" stroke="black" cx="1231.51" cy="-612" rx="150.13" ry="18"/>
<text text-anchor="middle" x="1231.51" y="-606" font-family="Times New Roman,serif" font-size="15.00">Enter senddate termination request</text>
</g>
<!-- 2067590069184&#45;&#45;2067590057712 -->
<g id="edge7" class="edge">
<title>2067590069184&#45;&#45;2067590057712</title>
<path fill="none" stroke="black" d="M978.24,-587.54C1009.24,-590.55 1062.98,-595.76 1112.91,-600.6"/>
</g>
<!-- 2067590069424 -->
<g id="node12" class="node">
<title>2067590069424</title>
<ellipse fill="none" stroke="black" cx="1231.51" cy="-558" rx="151.15" ry="18"/>
<text text-anchor="middle" x="1231.51" y="-552" font-family="Times New Roman,serif" font-size="15.00">Transfer to the competent authority</text>
</g>
<!-- 2067590069184&#45;&#45;2067590069424 -->
<g id="edge8" class="edge">
<title>2067590069184&#45;&#45;2067590069424</title>
<path fill="none" stroke="black" d="M978.24,-582.46C1009.17,-579.46 1062.74,-574.27 1112.58,-569.43"/>
</g>
<!-- 2067590062944 -->
<g id="node13" class="node">
<title>2067590062944</title>
<ellipse fill="none" stroke="black" cx="1231.51" cy="-504" rx="142.45" ry="18"/>
<text text-anchor="middle" x="1231.51" y="-498" font-family="Times New Roman,serif" font-size="15.00">Routine procedure without MER</text>
</g>
<!-- 2067590069184&#45;&#45;2067590062944 -->
<g id="edge9" class="edge">
<title>2067590069184&#45;&#45;2067590062944</title>
<path fill="none" stroke="black" d="M976.26,-577.95C1019.73,-565.31 1112.08,-538.45 1172.7,-520.82"/>
</g>
<!-- 2067590059680 -->
<g id="node14" class="node">
<title>2067590059680</title>
<ellipse fill="none" stroke="black" cx="1231.51" cy="-450" rx="27" ry="18"/>
<text text-anchor="middle" x="1231.51" y="-444" font-family="Times New Roman,serif" font-size="15.00">seq</text>
</g>
<!-- 2067590069184&#45;&#45;2067590059680 -->
<g id="edge79" class="edge">
<title>2067590069184&#45;&#45;2067590059680</title>
<path fill="none" stroke="black" d="M973.43,-574.63C1025.26,-549.5 1157.14,-485.57 1209.05,-460.4"/>
</g>
<!-- 2067590068320 -->
<g id="node15" class="node">
<title>2067590068320</title>
<ellipse fill="none" stroke="black" cx="1584.66" cy="-693" rx="27" ry="18"/>
<text text-anchor="middle" x="1584.66" y="-687" font-family="Times New Roman,serif" font-size="15.00">xor</text>
</g>
<!-- 2067590059680&#45;&#45;2067590068320 -->
<g id="edge14" class="edge">
<title>2067590059680&#45;&#45;2067590068320</title>
<path fill="none" stroke="black" d="M1250.9,-462.72C1311.44,-504.62 1504.15,-637.97 1565.03,-680.11"/>
</g>
<!-- 2067590057088 -->
<g id="node20" class="node">
<title>2067590057088</title>
<ellipse fill="none" stroke="black" cx="1584.66" cy="-585" rx="27" ry="18"/>
<text text-anchor="middle" x="1584.66" y="-579" font-family="Times New Roman,serif" font-size="15.00">and</text>
</g>
<!-- 2067590059680&#45;&#45;2067590057088 -->
<g id="edge52" class="edge">
<title>2067590059680&#45;&#45;2067590057088</title>
<path fill="none" stroke="black" d="M1255.55,-458.86C1319.33,-483.38 1497.66,-551.94 1560.99,-576.29"/>
</g>
<!-- 2067590064288 -->
<g id="node58" class="node">
<title>2067590064288</title>
<ellipse fill="none" stroke="black" cx="1584.66" cy="-531" rx="27" ry="18"/>
<text text-anchor="middle" x="1584.66" y="-525" font-family="Times New Roman,serif" font-size="15.00">xor</text>
</g>
<!-- 2067590059680&#45;&#45;2067590064288 -->
<g id="edge57" class="edge">
<title>2067590059680&#45;&#45;2067590064288</title>
<path fill="none" stroke="black" d="M1257.48,-455.76C1322.04,-470.65 1493.91,-510.3 1558.58,-525.21"/>
</g>
<!-- 2067590063376 -->
<g id="node63" class="node">
<title>2067590063376</title>
<ellipse fill="none" stroke="black" cx="1584.66" cy="-477" rx="112.77" ry="18"/>
<text text-anchor="middle" x="1584.66" y="-471" font-family="Times New Roman,serif" font-size="15.00">Initiate WABOprocedure</text>
</g>
<!-- 2067590059680&#45;&#45;2067590063376 -->
<g id="edge58" class="edge">
<title>2067590059680&#45;&#45;2067590063376</title>
<path fill="none" stroke="black" d="M1258.62,-452.01C1305.27,-455.59 1405.25,-463.28 1482.08,-469.19"/>
</g>
<!-- 2067589601360 -->
<g id="node64" class="node">
<title>2067589601360</title>
<ellipse fill="none" stroke="black" cx="1584.66" cy="-423" rx="166" ry="18"/>
<text text-anchor="middle" x="1584.66" y="-417" font-family="Times New Roman,serif" font-size="15.00">Input senddate procedure confirmation</text>
</g>
<!-- 2067590059680&#45;&#45;2067589601360 -->
<g id="edge59" class="edge">
<title>2067590059680&#45;&#45;2067589601360</title>
<path fill="none" stroke="black" d="M1258.62,-447.99C1298.51,-444.93 1377.41,-438.86 1447.48,-433.47"/>
</g>
<!-- 2067589603184 -->
<g id="node65" class="node">
<title>2067589603184</title>
<ellipse fill="none" stroke="black" cx="1584.66" cy="-369" rx="139.89" ry="18"/>
<text text-anchor="middle" x="1584.66" y="-363" font-family="Times New Roman,serif" font-size="15.00">Address subcases completeness</text>
</g>
<!-- 2067590059680&#45;&#45;2067589603184 -->
<g id="edge60" class="edge">
<title>2067590059680&#45;&#45;2067589603184</title>
<path fill="none" stroke="black" d="M1257.48,-444.24C1310.44,-432.02 1435.63,-403.15 1514.6,-384.93"/>
</g>
<!-- 2067589607072 -->
<g id="node66" class="node">
<title>2067589607072</title>
<ellipse fill="none" stroke="black" cx="1584.66" cy="-315" rx="27" ry="18"/>
<text text-anchor="middle" x="1584.66" y="-309" font-family="Times New Roman,serif" font-size="15.00">xor</text>
</g>
<!-- 2067590059680&#45;&#45;2067589607072 -->
<g id="edge65" class="edge">
<title>2067590059680&#45;&#45;2067589607072</title>
<path fill="none" stroke="black" d="M1255.55,-441.14C1319.33,-416.62 1497.66,-348.06 1560.99,-323.71"/>
</g>
<!-- 2067589606640 -->
<g id="node71" class="node">
<title>2067589606640</title>
<ellipse fill="none" stroke="black" cx="1584.66" cy="-261" rx="27" ry="18"/>
<text text-anchor="middle" x="1584.66" y="-255" font-family="Times New Roman,serif" font-size="15.00">and</text>
</g>
<!-- 2067590059680&#45;&#45;2067589606640 -->
<g id="edge78" class="edge">
<title>2067590059680&#45;&#45;2067589606640</title>
<path fill="none" stroke="black" d="M1253.17,-438.88C1315.35,-405.41 1500.37,-305.83 1562.81,-272.22"/>
</g>
<!-- 2067590055696 -->
<g id="node16" class="node">
<title>2067590055696</title>
<ellipse fill="black" stroke="black" cx="1926.55" cy="-732" rx="2.7" ry="2.7"/>
</g>
<!-- 2067590068320&#45;&#45;2067590055696 -->
<g id="edge10" class="edge">
<title>2067590068320&#45;&#45;2067590055696</title>
<path fill="none" stroke="black" d="M1611.77,-696C1687,-704.63 1900.4,-729.11 1923.51,-731.77"/>
</g>
<!-- 2067590059920 -->
<g id="node17" class="node">
<title>2067590059920</title>
<ellipse fill="none" stroke="black" cx="1926.55" cy="-693" rx="27" ry="18"/>
<text text-anchor="middle" x="1926.55" y="-687" font-family="Times New Roman,serif" font-size="15.00">seq</text>
</g>
<!-- 2067590068320&#45;&#45;2067590059920 -->
<g id="edge13" class="edge">
<title>2067590068320&#45;&#45;2067590059920</title>
<path fill="none" stroke="black" d="M1612.05,-693C1675.53,-693 1836.19,-693 1899.41,-693"/>
</g>
<!-- 2067590055504 -->
<g id="node18" class="node">
<title>2067590055504</title>
<ellipse fill="none" stroke="black" cx="2303.76" cy="-747" rx="201.31" ry="18"/>
<text text-anchor="middle" x="2303.76" y="-741" font-family="Times New Roman,serif" font-size="15.00">Record date decision procedure term extension</text>
</g>
<!-- 2067590059920&#45;&#45;2067590055504 -->
<g id="edge11" class="edge">
<title>2067590059920&#45;&#45;2067590055504</title>
<path fill="none" stroke="black" d="M1953.34,-696.71C2002.35,-703.76 2111.48,-719.47 2194.83,-731.47"/>
</g>
<!-- 2067590060112 -->
<g id="node19" class="node">
<title>2067590060112</title>
<ellipse fill="none" stroke="black" cx="2303.76" cy="-693" rx="168.04" ry="18"/>
<text text-anchor="middle" x="2303.76" y="-687" font-family="Times New Roman,serif" font-size="15.00">Enter senddate decision term extension</text>
</g>
<!-- 2067590059920&#45;&#45;2067590060112 -->
<g id="edge12" class="edge">
<title>2067590059920&#45;&#45;2067590060112</title>
<path fill="none" stroke="black" d="M1953.94,-693C1992.05,-693 2065.62,-693 2135.41,-693"/>
</g>
<!-- 2067590058480 -->
<g id="node21" class="node">
<title>2067590058480</title>
<ellipse fill="none" stroke="black" cx="1926.55" cy="-639" rx="51.35" ry="18"/>
<text text-anchor="middle" x="1926.55" y="-633" font-family="Times New Roman,serif" font-size="15.00">Distribute</text>
</g>
<!-- 2067590057088&#45;&#45;2067590058480 -->
<g id="edge15" class="edge">
<title>2067590057088&#45;&#45;2067590058480</title>
<path fill="none" stroke="black" d="M1611.21,-589.06C1668.25,-598.12 1806.68,-620.11 1879.31,-631.65"/>
</g>
<!-- 2067590056368 -->
<g id="node22" class="node">
<title>2067590056368</title>
<ellipse fill="none" stroke="black" cx="1926.55" cy="-585" rx="27" ry="18"/>
<text text-anchor="middle" x="1926.55" y="-579" font-family="Times New Roman,serif" font-size="15.00">seq</text>
</g>
<!-- 2067590057088&#45;&#45;2067590056368 -->
<g id="edge51" class="edge">
<title>2067590057088&#45;&#45;2067590056368</title>
<path fill="none" stroke="black" d="M1612.05,-585C1675.53,-585 1836.19,-585 1899.41,-585"/>
</g>
<!-- 2067590064720 -->
<g id="node23" class="node">
<title>2067590064720</title>
<ellipse fill="none" stroke="black" cx="2303.76" cy="-639" rx="27" ry="18"/>
<text text-anchor="middle" x="2303.76" y="-633" font-family="Times New Roman,serif" font-size="15.00">and</text>
</g>
<!-- 2067590056368&#45;&#45;2067590064720 -->
<g id="edge43" class="edge">
<title>2067590056368&#45;&#45;2067590064720</title>
<path fill="none" stroke="black" d="M1953.34,-588.71C2022.05,-598.6 2208.94,-625.5 2277.28,-635.33"/>
</g>
<!-- 2067590061504 -->
<g id="node51" class="node">
<title>2067590061504</title>
<ellipse fill="none" stroke="black" cx="2303.76" cy="-531" rx="27" ry="18"/>
<text text-anchor="middle" x="2303.76" y="-525" font-family="Times New Roman,serif" font-size="15.00">xor</text>
</g>
<!-- 2067590056368&#45;&#45;2067590061504 -->
<g id="edge50" class="edge">
<title>2067590056368&#45;&#45;2067590061504</title>
<path fill="none" stroke="black" d="M1953.34,-581.29C2022.05,-571.4 2208.94,-544.5 2277.28,-534.67"/>
</g>
<!-- 2067590066448 -->
<g id="node24" class="node">
<title>2067590066448</title>
<ellipse fill="none" stroke="black" cx="2586.28" cy="-786" rx="45.21" ry="18"/>
<text text-anchor="middle" x="2586.28" y="-780" font-family="Times New Roman,serif" font-size="15.00">xor loop</text>
</g>
<!-- 2067590064720&#45;&#45;2067590066448 -->
<g id="edge18" class="edge">
<title>2067590064720&#45;&#45;2067590066448</title>
<path fill="none" stroke="black" d="M2325.39,-649.81C2375.11,-675.87 2501.62,-742.16 2557.74,-771.57"/>
</g>
<!-- 2067590064864 -->
<g id="node27" class="node">
<title>2067590064864</title>
<ellipse fill="none" stroke="black" cx="2586.28" cy="-639" rx="27" ry="18"/>
<text text-anchor="middle" x="2586.28" y="-633" font-family="Times New Roman,serif" font-size="15.00">seq</text>
</g>
<!-- 2067590064720&#45;&#45;2067590064864 -->
<g id="edge42" class="edge">
<title>2067590064720&#45;&#45;2067590064864</title>
<path fill="none" stroke="black" d="M2331.15,-639C2384.75,-639 2505.79,-639 2559.16,-639"/>
</g>
<!-- 2067590061840 -->
<g id="node25" class="node">
<title>2067590061840</title>
<ellipse fill="none" stroke="black" cx="2827.34" cy="-825" rx="159.85" ry="18"/>
<text text-anchor="middle" x="2827.34" y="-819" font-family="Times New Roman,serif" font-size="15.00">Log date publishing received request</text>
</g>
<!-- 2067590066448&#45;&#45;2067590061840 -->
<g id="edge16" class="edge">
<title>2067590066448&#45;&#45;2067590061840</title>
<path fill="none" stroke="black" d="M2628.65,-792.75C2657.71,-797.49 2697.76,-804.02 2734.21,-809.97"/>
</g>
<!-- 2067590065968 -->
<g id="node26" class="node">
<title>2067590065968</title>
<ellipse fill="black" stroke="black" cx="2827.34" cy="-786" rx="2.7" ry="2.7"/>
</g>
<!-- 2067590066448&#45;&#45;2067590065968 -->
<g id="edge17" class="edge">
<title>2067590066448&#45;&#45;2067590065968</title>
<path fill="none" stroke="black" d="M2631.96,-786C2696.29,-786 2809.02,-786 2824.55,-786"/>
</g>
<!-- 2067589596848 -->
<g id="node28" class="node">
<title>2067589596848</title>
<ellipse fill="none" stroke="black" cx="2827.34" cy="-747" rx="27" ry="18"/>
<text text-anchor="middle" x="2827.34" y="-741" font-family="Times New Roman,serif" font-size="15.00">xor</text>
</g>
<!-- 2067590064864&#45;&#45;2067589596848 -->
<g id="edge34" class="edge">
<title>2067590064864&#45;&#45;2067589596848</title>
<path fill="none" stroke="black" d="M2609.34,-648.97C2654.88,-669.54 2758.84,-716.5 2804.33,-737.06"/>
</g>
<!-- 2067589605536 -->
<g id="node44" class="node">
<title>2067589605536</title>
<ellipse fill="none" stroke="black" cx="2827.34" cy="-693" rx="27" ry="18"/>
<text text-anchor="middle" x="2827.34" y="-687" font-family="Times New Roman,serif" font-size="15.00">xor</text>
</g>
<!-- 2067590064864&#45;&#45;2067589605536 -->
<g id="edge39" class="edge">
<title>2067590064864&#45;&#45;2067589605536</title>
<path fill="none" stroke="black" d="M2612.41,-644.68C2658.33,-655.05 2755.26,-676.94 2801.19,-687.32"/>
</g>
<!-- 2067589602752 -->
<g id="node49" class="node">
<title>2067589602752</title>
<ellipse fill="none" stroke="black" cx="2827.34" cy="-639" rx="125.56" ry="18"/>
<text text-anchor="middle" x="2827.34" y="-633" font-family="Times New Roman,serif" font-size="15.00">Routine procedure activities</text>
</g>
<!-- 2067590064864&#45;&#45;2067589602752 -->
<g id="edge40" class="edge">
<title>2067590064864&#45;&#45;2067589602752</title>
<path fill="none" stroke="black" d="M2613.78,-639C2635.6,-639 2668.25,-639 2701.45,-639"/>
</g>
<!-- 2067589598336 -->
<g id="node50" class="node">
<title>2067589598336</title>
<ellipse fill="none" stroke="black" cx="2827.34" cy="-585" rx="87.69" ry="18"/>
<text text-anchor="middle" x="2827.34" y="-579" font-family="Times New Roman,serif" font-size="15.00">Phased application</text>
</g>
<!-- 2067590064864&#45;&#45;2067589598336 -->
<g id="edge41" class="edge">
<title>2067590064864&#45;&#45;2067589598336</title>
<path fill="none" stroke="black" d="M2612.41,-633.32C2648.85,-625.09 2717.44,-609.6 2767.15,-598.37"/>
</g>
<!-- 2067589608848 -->
<g id="node29" class="node">
<title>2067589608848</title>
<ellipse fill="none" stroke="black" cx="3160.02" cy="-855" rx="27" ry="18"/>
<text text-anchor="middle" x="3160.02" y="-849" font-family="Times New Roman,serif" font-size="15.00">seq</text>
</g>
<!-- 2067589596848&#45;&#45;2067589608848 -->
<g id="edge21" class="edge">
<title>2067589596848&#45;&#45;2067589608848</title>
<path fill="none" stroke="black" d="M2852.12,-754.77C2913.14,-774.69 3074.68,-827.45 3135.46,-847.3"/>
</g>
<!-- 2067589607216 -->
<g id="node32" class="node">
<title>2067589607216</title>
<ellipse fill="none" stroke="black" cx="3160.02" cy="-747" rx="27" ry="18"/>
<text text-anchor="middle" x="3160.02" y="-741" font-family="Times New Roman,serif" font-size="15.00">seq</text>
</g>
<!-- 2067589596848&#45;&#45;2067589607216 -->
<g id="edge33" class="edge">
<title>2067589596848&#45;&#45;2067589607216</title>
<path fill="none" stroke="black" d="M2854.57,-747C2916.43,-747 3070.92,-747 3132.79,-747"/>
</g>
<!-- 2067589609808 -->
<g id="node30" class="node">
<title>2067589609808</title>
<ellipse fill="none" stroke="black" cx="3481.95" cy="-909" rx="127.61" ry="18"/>
<text text-anchor="middle" x="3481.95" y="-903" font-family="Times New Roman,serif" font-size="15.00">Provide confirmation receipt</text>
</g>
<!-- 2067589608848&#45;&#45;2067589609808 -->
<g id="edge19" class="edge">
<title>2067589608848&#45;&#45;2067589609808</title>
<path fill="none" stroke="black" d="M3186.66,-859.33C3232.03,-866.99 3328.29,-883.23 3398.4,-895.07"/>
</g>
<!-- 2067589608704 -->
<g id="node31" class="node">
<title>2067589608704</title>
<ellipse fill="none" stroke="black" cx="3481.95" cy="-855" rx="147.06" ry="18"/>
<text text-anchor="middle" x="3481.95" y="-849" font-family="Times New Roman,serif" font-size="15.00">Applicant considered stakeholder</text>
</g>
<!-- 2067589608848&#45;&#45;2067589608704 -->
<g id="edge20" class="edge">
<title>2067589608848&#45;&#45;2067589608704</title>
<path fill="none" stroke="black" d="M3187.47,-855C3220.19,-855 3278.43,-855 3334.45,-855"/>
</g>
<!-- 2067589596704 -->
<g id="node33" class="node">
<title>2067589596704</title>
<ellipse fill="none" stroke="black" cx="3481.95" cy="-801" rx="149.11" ry="18"/>
<text text-anchor="middle" x="3481.95" y="-795" font-family="Times New Roman,serif" font-size="15.00">Register termination decision date</text>
</g>
<!-- 2067589607216&#45;&#45;2067589596704 -->
<g id="edge22" class="edge">
<title>2067589607216&#45;&#45;2067589596704</title>
<path fill="none" stroke="black" d="M3186.66,-751.33C3230.92,-758.8 3323.6,-774.44 3393.2,-786.19"/>
</g>
<!-- 2067589608368 -->
<g id="node34" class="node">
<title>2067589608368</title>
<ellipse fill="none" stroke="black" cx="3481.95" cy="-747" rx="143.48" ry="18"/>
<text text-anchor="middle" x="3481.95" y="-741" font-family="Times New Roman,serif" font-size="15.00">Input senddate acknowledgement</text>
</g>
<!-- 2067589607216&#45;&#45;2067589608368 -->
<g id="edge23" class="edge">
<title>2067589607216&#45;&#45;2067589608368</title>
<path fill="none" stroke="black" d="M3187.47,-747C3220.93,-747 3281.11,-747 3338.29,-747"/>
</g>
<!-- 2067589600352 -->
<g id="node35" class="node">
<title>2067589600352</title>
<ellipse fill="none" stroke="black" cx="3481.95" cy="-693" rx="27" ry="18"/>
<text text-anchor="middle" x="3481.95" y="-687" font-family="Times New Roman,serif" font-size="15.00">and</text>
</g>
<!-- 2067589607216&#45;&#45;2067589600352 -->
<g id="edge32" class="edge">
<title>2067589607216&#45;&#45;2067589600352</title>
<path fill="none" stroke="black" d="M3186.66,-742.67C3246.71,-732.54 3395.9,-707.36 3455.63,-697.27"/>
</g>
<!-- 2067589610288 -->
<g id="node36" class="node">
<title>2067589610288</title>
<ellipse fill="none" stroke="black" cx="3754.24" cy="-720" rx="87.18" ry="18"/>
<text text-anchor="middle" x="3754.24" y="-714" font-family="Times New Roman,serif" font-size="15.00">Received via OLO</text>
</g>
<!-- 2067589600352&#45;&#45;2067589610288 -->
<g id="edge24" class="edge">
<title>2067589600352&#45;&#45;2067589610288</title>
<path fill="none" stroke="black" d="M3508.87,-695.59C3546.72,-699.37 3618.73,-706.56 3674.81,-712.17"/>
</g>
<!-- 2067589600496 -->
<g id="node37" class="node">
<title>2067589600496</title>
<ellipse fill="none" stroke="black" cx="3754.24" cy="-666" rx="27" ry="18"/>
<text text-anchor="middle" x="3754.24" y="-660" font-family="Times New Roman,serif" font-size="15.00">seq</text>
</g>
<!-- 2067589600352&#45;&#45;2067589600496 -->
<g id="edge31" class="edge">
<title>2067589600352&#45;&#45;2067589600496</title>
<path fill="none" stroke="black" d="M3508.87,-690.41C3560.53,-685.25 3675.8,-673.74 3727.4,-668.58"/>
</g>
<!-- 2067589610240 -->
<g id="node38" class="node">
<title>2067589610240</title>
<ellipse fill="none" stroke="black" cx="4112.5" cy="-801" rx="106.63" ry="18"/>
<text text-anchor="middle" x="4112.5" y="-795" font-family="Times New Roman,serif" font-size="15.00">Prolong procedure term</text>
</g>
<!-- 2067589600496&#45;&#45;2067589610240 -->
<g id="edge25" class="edge">
<title>2067589600496&#45;&#45;2067589610240</title>
<path fill="none" stroke="black" d="M3778.34,-674.75C3836.7,-696.87 3990.85,-755.28 4067.27,-784.24"/>
</g>
<!-- 2067589605680 -->
<g id="node39" class="node">
<title>2067589605680</title>
<ellipse fill="none" stroke="black" cx="4112.5" cy="-747" rx="130.17" ry="18"/>
<text text-anchor="middle" x="4112.5" y="-741" font-family="Times New Roman,serif" font-size="15.00">Register extension days count</text>
</g>
<!-- 2067589600496&#45;&#45;2067589605680 -->
<g id="edge26" class="edge">
<title>2067589600496&#45;&#45;2067589605680</title>
<path fill="none" stroke="black" d="M3780.29,-671.7C3834.14,-683.94 3962.53,-713.13 4042.71,-731.36"/>
</g>
<!-- 2067589608992 -->
<g id="node40" class="node">
<title>2067589608992</title>
<ellipse fill="none" stroke="black" cx="4112.5" cy="-693" rx="186.47" ry="18"/>
<text text-anchor="middle" x="4112.5" y="-687" font-family="Times New Roman,serif" font-size="15.00">Creating term extension procedure decision</text>
</g>
<!-- 2067589600496&#45;&#45;2067589608992 -->
<g id="edge27" class="edge">
<title>2067589600496&#45;&#45;2067589608992</title>
<path fill="none" stroke="black" d="M3781.43,-667.99C3820.08,-670.91 3895.25,-676.61 3964.1,-681.83"/>
</g>
<!-- 2067589607648 -->
<g id="node41" class="node">
<title>2067589607648</title>
<ellipse fill="none" stroke="black" cx="4112.5" cy="-639" rx="167.53" ry="18"/>
<text text-anchor="middle" x="4112.5" y="-633" font-family="Times New Roman,serif" font-size="15.00">Term extension for decision procedure</text>
</g>
<!-- 2067589600496&#45;&#45;2067589607648 -->
<g id="edge28" class="edge">
<title>2067589600496&#45;&#45;2067589607648</title>
<path fill="none" stroke="black" d="M3781.43,-664.01C3821.93,-660.95 3902.52,-654.84 3973.93,-649.43"/>
</g>
<!-- 2067589606976 -->
<g id="node42" class="node">
<title>2067589606976</title>
<ellipse fill="none" stroke="black" cx="4112.5" cy="-585" rx="235.09" ry="18"/>
<text text-anchor="middle" x="4112.5" y="-579" font-family="Times New Roman,serif" font-size="15.00">Copy decision for procedure extension for stakeholders</text>
</g>
<!-- 2067589600496&#45;&#45;2067589606976 -->
<g id="edge29" class="edge">
<title>2067589600496&#45;&#45;2067589606976</title>
<path fill="none" stroke="black" d="M3780.29,-660.3C3832.4,-648.46 3954.3,-620.74 4034.78,-602.44"/>
</g>
<!-- 2067589596176 -->
<g id="node43" class="node">
<title>2067589596176</title>
<ellipse fill="none" stroke="black" cx="4112.5" cy="-531" rx="163.95" ry="18"/>
<text text-anchor="middle" x="4112.5" y="-525" font-family="Times New Roman,serif" font-size="15.00">Log senddate for confirmation request</text>
</g>
<!-- 2067589600496&#45;&#45;2067589596176 -->
<g id="edge30" class="edge">
<title>2067589600496&#45;&#45;2067589596176</title>
<path fill="none" stroke="black" d="M3778.34,-657.25C3836.08,-635.36 3987.6,-577.95 4064.82,-548.69"/>
</g>
<!-- 2067589603760 -->
<g id="node45" class="node">
<title>2067589603760</title>
<ellipse fill="none" stroke="black" cx="3160.02" cy="-693" rx="136.82" ry="18"/>
<text text-anchor="middle" x="3160.02" y="-687" font-family="Times New Roman,serif" font-size="15.00">Environmental Report required</text>
</g>
<!-- 2067589605536&#45;&#45;2067589603760 -->
<g id="edge35" class="edge">
<title>2067589605536&#45;&#45;2067589603760</title>
<path fill="none" stroke="black" d="M2854.57,-693C2891.08,-693 2959.84,-693 3022.79,-693"/>
</g>
<!-- 2067589607696 -->
<g id="node46" class="node">
<title>2067589607696</title>
<ellipse fill="none" stroke="black" cx="3160.02" cy="-639" rx="27" ry="18"/>
<text text-anchor="middle" x="3160.02" y="-633" font-family="Times New Roman,serif" font-size="15.00">seq</text>
</g>
<!-- 2067589605536&#45;&#45;2067589607696 -->
<g id="edge38" class="edge">
<title>2067589605536&#45;&#45;2067589607696</title>
<path fill="none" stroke="black" d="M2854.02,-688.81C2915.78,-678.72 3072.08,-653.2 3133.59,-643.15"/>
</g>
<!-- 2067589601216 -->
<g id="node47" class="node">
<title>2067589601216</title>
<ellipse fill="none" stroke="black" cx="3481.95" cy="-639" rx="145.52" ry="18"/>
<text text-anchor="middle" x="3481.95" y="-633" font-family="Times New Roman,serif" font-size="15.00">No permit needed for application</text>
</g>
<!-- 2067589607696&#45;&#45;2067589601216 -->
<g id="edge36" class="edge">
<title>2067589607696&#45;&#45;2067589601216</title>
<path fill="none" stroke="black" d="M3187.47,-639C3220.49,-639 3279.49,-639 3335.99,-639"/>
</g>
<!-- 2067589598624 -->
<g id="node48" class="node">
<title>2067589598624</title>
<ellipse fill="none" stroke="black" cx="3481.95" cy="-585" rx="57.49" ry="18"/>
<text text-anchor="middle" x="3481.95" y="-579" font-family="Times New Roman,serif" font-size="15.00">MER listed</text>
</g>
<!-- 2067589607696&#45;&#45;2067589598624 -->
<g id="edge37" class="edge">
<title>2067589607696&#45;&#45;2067589598624</title>
<path fill="none" stroke="black" d="M3186.66,-634.67C3239.52,-625.75 3361.45,-605.17 3430.63,-593.49"/>
</g>
<!-- 2067589609088 -->
<g id="node52" class="node">
<title>2067589609088</title>
<ellipse fill="none" stroke="black" cx="2586.28" cy="-531" rx="27" ry="18"/>
<text text-anchor="middle" x="2586.28" y="-525" font-family="Times New Roman,serif" font-size="15.00">seq</text>
</g>
<!-- 2067590061504&#45;&#45;2067589609088 -->
<g id="edge46" class="edge">
<title>2067590061504&#45;&#45;2067589609088</title>
<path fill="none" stroke="black" d="M2331.15,-531C2384.75,-531 2505.79,-531 2559.16,-531"/>
</g>
<!-- 2067589600304 -->
<g id="node55" class="node">
<title>2067589600304</title>
<ellipse fill="none" stroke="black" cx="2586.28" cy="-423" rx="27" ry="18"/>
<text text-anchor="middle" x="2586.28" y="-417" font-family="Times New Roman,serif" font-size="15.00">seq</text>
</g>
<!-- 2067590061504&#45;&#45;2067589600304 -->
<g id="edge49" class="edge">
<title>2067590061504&#45;&#45;2067589600304</title>
<path fill="none" stroke="black" d="M2327.71,-522.16C2380.45,-501.86 2509.74,-452.08 2562.4,-431.81"/>
</g>
<!-- 2067589602512 -->
<g id="node53" class="node">
<title>2067589602512</title>
<ellipse fill="none" stroke="black" cx="2827.34" cy="-531" rx="121.47" ry="18"/>
<text text-anchor="middle" x="2827.34" y="-525" font-family="Times New Roman,serif" font-size="15.00">Assess provisional charges</text>
</g>
<!-- 2067589609088&#45;&#45;2067589602512 -->
<g id="edge44" class="edge">
<title>2067589609088&#45;&#45;2067589602512</title>
<path fill="none" stroke="black" d="M2613.78,-531C2636.51,-531 2670.99,-531 2705.61,-531"/>
</g>
<!-- 2067589605968 -->
<g id="node54" class="node">
<title>2067589605968</title>
<ellipse fill="none" stroke="black" cx="2827.34" cy="-477" rx="129.15" ry="18"/>
<text text-anchor="middle" x="2827.34" y="-471" font-family="Times New Roman,serif" font-size="15.00">Draft procedure confirmation</text>
</g>
<!-- 2067589609088&#45;&#45;2067589605968 -->
<g id="edge45" class="edge">
<title>2067589609088&#45;&#45;2067589605968</title>
<path fill="none" stroke="black" d="M2612.41,-525.32C2646.58,-517.61 2708.99,-503.51 2757.62,-492.52"/>
</g>
<!-- 2067589604912 -->
<g id="node56" class="node">
<title>2067589604912</title>
<ellipse fill="none" stroke="black" cx="2827.34" cy="-423" rx="90.25" ry="18"/>
<text text-anchor="middle" x="2827.34" y="-417" font-family="Times New Roman,serif" font-size="15.00">First or second part</text>
</g>
<!-- 2067589600304&#45;&#45;2067589604912 -->
<g id="edge47" class="edge">
<title>2067589600304&#45;&#45;2067589604912</title>
<path fill="none" stroke="black" d="M2613.78,-423C2643.38,-423 2692.9,-423 2736.7,-423"/>
</g>
<!-- 2067589600736 -->
<g id="node57" class="node">
<title>2067589600736</title>
<ellipse fill="none" stroke="black" cx="2827.34" cy="-369" rx="137.34" ry="18"/>
<text text-anchor="middle" x="2827.34" y="-363" font-family="Times New Roman,serif" font-size="15.00">Term period of 14 or 26 weeks</text>
</g>
<!-- 2067589600304&#45;&#45;2067589600736 -->
<g id="edge48" class="edge">
<title>2067589600304&#45;&#45;2067589600736</title>
<path fill="none" stroke="black" d="M2612.41,-417.32C2646.28,-409.67 2707.9,-395.75 2756.34,-384.81"/>
</g>
<!-- 2067590067984 -->
<g id="node59" class="node">
<title>2067590067984</title>
<ellipse fill="none" stroke="black" cx="1926.55" cy="-531" rx="139.89" ry="18"/>
<text text-anchor="middle" x="1926.55" y="-525" font-family="Times New Roman,serif" font-size="15.00">Inspect field phased application</text>
</g>
<!-- 2067590064288&#45;&#45;2067590067984 -->
<g id="edge53" class="edge">
<title>2067590064288&#45;&#45;2067590067984</title>
<path fill="none" stroke="black" d="M1612.05,-531C1649.56,-531 1721,-531 1786.23,-531"/>
</g>
<!-- 2067590054928 -->
<g id="node60" class="node">
<title>2067590054928</title>
<ellipse fill="none" stroke="black" cx="1926.55" cy="-477" rx="27" ry="18"/>
<text text-anchor="middle" x="1926.55" y="-471" font-family="Times New Roman,serif" font-size="15.00">seq</text>
</g>
<!-- 2067590064288&#45;&#45;2067590054928 -->
<g id="edge56" class="edge">
<title>2067590064288&#45;&#45;2067590054928</title>
<path fill="none" stroke="black" d="M1611.21,-526.94C1674.35,-516.91 1837.21,-491.04 1900.17,-481.03"/>
</g>
<!-- 2067589606544 -->
<g id="node61" class="node">
<title>2067589606544</title>
<ellipse fill="none" stroke="black" cx="2303.76" cy="-477" rx="127.61" ry="18"/>
<text text-anchor="middle" x="2303.76" y="-471" font-family="Times New Roman,serif" font-size="15.00">Form subcases completeness</text>
</g>
<!-- 2067590054928&#45;&#45;2067589606544 -->
<g id="edge54" class="edge">
<title>2067590054928&#45;&#45;2067589606544</title>
<path fill="none" stroke="black" d="M1953.94,-477C1999.56,-477 2095.97,-477 2175.9,-477"/>
</g>
<!-- 2067589606784 -->
<g id="node62" class="node">
<title>2067589606784</title>
<ellipse fill="none" stroke="black" cx="2303.76" cy="-423" rx="83.08" ry="18"/>
<text text-anchor="middle" x="2303.76" y="-417" font-family="Times New Roman,serif" font-size="15.00">Amend procedure</text>
</g>
<!-- 2067590054928&#45;&#45;2067589606784 -->
<g id="edge55" class="edge">
<title>2067590054928&#45;&#45;2067589606784</title>
<path fill="none" stroke="black" d="M1953.34,-473.29C2010.46,-465.07 2149.25,-445.09 2233.72,-432.94"/>
</g>
<!-- 2067589609568 -->
<g id="node67" class="node">
<title>2067589609568</title>
<ellipse fill="none" stroke="black" cx="1926.55" cy="-369" rx="27" ry="18"/>
<text text-anchor="middle" x="1926.55" y="-363" font-family="Times New Roman,serif" font-size="15.00">seq</text>
</g>
<!-- 2067589607072&#45;&#45;2067589609568 -->
<g id="edge63" class="edge">
<title>2067589607072&#45;&#45;2067589609568</title>
<path fill="none" stroke="black" d="M1611.21,-319.06C1674.35,-329.09 1837.21,-354.96 1900.17,-364.97"/>
</g>
<!-- 2067589603088 -->
<g id="node70" class="node">
<title>2067589603088</title>
<ellipse fill="none" stroke="black" cx="1926.55" cy="-315" rx="139.38" ry="18"/>
<text text-anchor="middle" x="1926.55" y="-309" font-family="Times New Roman,serif" font-size="15.00">Subcases completeness attained</text>
</g>
<!-- 2067589607072&#45;&#45;2067589603088 -->
<g id="edge64" class="edge">
<title>2067589607072&#45;&#45;2067589603088</title>
<path fill="none" stroke="black" d="M1612.05,-315C1649.72,-315 1721.6,-315 1787.04,-315"/>
</g>
<!-- 2067589609376 -->
<g id="node68" class="node">
<title>2067589609376</title>
<ellipse fill="none" stroke="black" cx="2303.76" cy="-369" rx="160.88" ry="18"/>
<text text-anchor="middle" x="2303.76" y="-363" font-family="Times New Roman,serif" font-size="15.00">Draft termination decision on request</text>
</g>
<!-- 2067589609568&#45;&#45;2067589609376 -->
<g id="edge61" class="edge">
<title>2067589609568&#45;&#45;2067589609376</title>
<path fill="none" stroke="black" d="M1953.94,-369C1993.39,-369 2070.82,-369 2142.72,-369"/>
</g>
<!-- 2067589608560 -->
<g id="node69" class="node">
<title>2067589608560</title>
<ellipse fill="none" stroke="black" cx="2303.76" cy="-315" rx="171.63" ry="18"/>
<text text-anchor="middle" x="2303.76" y="-309" font-family="Times New Roman,serif" font-size="15.00">Execute termination decision on request</text>
</g>
<!-- 2067589609568&#45;&#45;2067589608560 -->
<g id="edge62" class="edge">
<title>2067589609568&#45;&#45;2067589608560</title>
<path fill="none" stroke="black" d="M1953.34,-365.29C2003.43,-358.08 2116.3,-341.84 2200.28,-329.75"/>
</g>
<!-- 2067589605488 -->
<g id="node72" class="node">
<title>2067589605488</title>
<ellipse fill="none" stroke="black" cx="1926.55" cy="-261" rx="61.08" ry="18"/>
<text text-anchor="middle" x="1926.55" y="-255" font-family="Times New Roman,serif" font-size="15.00">case closure</text>
</g>
<!-- 2067589606640&#45;&#45;2067589605488 -->
<g id="edge66" class="edge">
<title>2067589606640&#45;&#45;2067589605488</title>
<path fill="none" stroke="black" d="M1612.05,-261C1666.02,-261 1790.21,-261 1865.08,-261"/>
</g>
<!-- 2067589604384 -->
<g id="node73" class="node">
<title>2067589604384</title>
<ellipse fill="none" stroke="black" cx="1926.55" cy="-207" rx="27" ry="18"/>
<text text-anchor="middle" x="1926.55" y="-201" font-family="Times New Roman,serif" font-size="15.00">seq</text>
</g>
<!-- 2067589606640&#45;&#45;2067589604384 -->
<g id="edge77" class="edge">
<title>2067589606640&#45;&#45;2067589604384</title>
<path fill="none" stroke="black" d="M1611.21,-256.94C1674.35,-246.91 1837.21,-221.04 1900.17,-211.03"/>
</g>
<!-- 2067589603328 -->
<g id="node74" class="node">
<title>2067589603328</title>
<ellipse fill="none" stroke="black" cx="2303.76" cy="-261" rx="142.45" ry="18"/>
<text text-anchor="middle" x="2303.76" y="-255" font-family="Times New Roman,serif" font-size="15.00">Competent authority action taken</text>
</g>
<!-- 2067589604384&#45;&#45;2067589603328 -->
<g id="edge67" class="edge">
<title>2067589604384&#45;&#45;2067589603328</title>
<path fill="none" stroke="black" d="M1953.34,-210.71C2004.92,-218.13 2123.07,-235.14 2207.7,-247.32"/>
</g>
<!-- 2067589597040 -->
<g id="node75" class="node">
<title>2067589597040</title>
<ellipse fill="none" stroke="black" cx="2303.76" cy="-207" rx="147.06" ry="18"/>
<text text-anchor="middle" x="2303.76" y="-201" font-family="Times New Roman,serif" font-size="15.00">Initiate terminate request message</text>
</g>
<!-- 2067589604384&#45;&#45;2067589597040 -->
<g id="edge68" class="edge">
<title>2067589604384&#45;&#45;2067589597040</title>
<path fill="none" stroke="black" d="M1953.94,-207C1995.89,-207 2080.79,-207 2156.33,-207"/>
</g>
<!-- 2067589602032 -->
<g id="node76" class="node">
<title>2067589602032</title>
<ellipse fill="none" stroke="black" cx="2303.76" cy="-153" rx="132.22" ry="18"/>
<text text-anchor="middle" x="2303.76" y="-147" font-family="Times New Roman,serif" font-size="15.00">Cease all running subcases 2b</text>
</g>
<!-- 2067589604384&#45;&#45;2067589602032 -->
<g id="edge69" class="edge">
<title>2067589604384&#45;&#45;2067589602032</title>
<path fill="none" stroke="black" d="M1953.34,-203.29C2005.58,-195.77 2126.12,-178.42 2210.94,-166.21"/>
</g>
<!-- 2067589597760 -->
<g id="node77" class="node">
<title>2067589597760</title>
<ellipse fill="none" stroke="black" cx="2303.76" cy="-99" rx="27" ry="18"/>
<text text-anchor="middle" x="2303.76" y="-93" font-family="Times New Roman,serif" font-size="15.00">xor</text>
</g>
<!-- 2067589604384&#45;&#45;2067589597760 -->
<g id="edge76" class="edge">
<title>2067589604384&#45;&#45;2067589597760</title>
<path fill="none" stroke="black" d="M1951.88,-200C2019.76,-180.46 2210.67,-125.51 2278.48,-105.99"/>
</g>
<!-- 2067589608128 -->
<g id="node78" class="node">
<title>2067589608128</title>
<ellipse fill="none" stroke="black" cx="2586.28" cy="-126" rx="27" ry="18"/>
<text text-anchor="middle" x="2586.28" y="-120" font-family="Times New Roman,serif" font-size="15.00">and</text>
</g>
<!-- 2067589597760&#45;&#45;2067589608128 -->
<g id="edge72" class="edge">
<title>2067589597760&#45;&#45;2067589608128</title>
<path fill="none" stroke="black" d="M2330.9,-101.52C2384.35,-106.66 2505.62,-118.33 2559.1,-123.48"/>
</g>
<!-- 2067589604816 -->
<g id="node81" class="node">
<title>2067589604816</title>
<ellipse fill="none" stroke="black" cx="2586.28" cy="-72" rx="27" ry="18"/>
<text text-anchor="middle" x="2586.28" y="-66" font-family="Times New Roman,serif" font-size="15.00">seq</text>
</g>
<!-- 2067589597760&#45;&#45;2067589604816 -->
<g id="edge75" class="edge">
<title>2067589597760&#45;&#45;2067589604816</title>
<path fill="none" stroke="black" d="M2330.9,-96.48C2384.35,-91.34 2505.62,-79.67 2559.1,-74.52"/>
</g>
<!-- 2067589596464 -->
<g id="node79" class="node">
<title>2067589596464</title>
<ellipse fill="none" stroke="black" cx="2827.34" cy="-180" rx="134.78" ry="18"/>
<text text-anchor="middle" x="2827.34" y="-174" font-family="Times New Roman,serif" font-size="15.00">Examine publication date field</text>
</g>
<!-- 2067589608128&#45;&#45;2067589596464 -->
<g id="edge70" class="edge">
<title>2067589608128&#45;&#45;2067589596464</title>
<path fill="none" stroke="black" d="M2612.41,-131.68C2646.34,-139.34 2708.12,-153.3 2756.6,-164.25"/>
</g>
<!-- 2067589597904 -->
<g id="node80" class="node">
<title>2067589597904</title>
<ellipse fill="none" stroke="black" cx="2827.34" cy="-126" rx="155.25" ry="18"/>
<text text-anchor="middle" x="2827.34" y="-120" font-family="Times New Roman,serif" font-size="15.00">Phase procedure ended prematurely</text>
</g>
<!-- 2067589608128&#45;&#45;2067589597904 -->
<g id="edge71" class="edge">
<title>2067589608128&#45;&#45;2067589597904</title>
<path fill="none" stroke="black" d="M2613.78,-126C2628.97,-126 2649.42,-126 2671.65,-126"/>
</g>
<!-- 2067589596416 -->
<g id="node82" class="node">
<title>2067589596416</title>
<ellipse fill="none" stroke="black" cx="2827.34" cy="-72" rx="132.22" ry="18"/>
<text text-anchor="middle" x="2827.34" y="-66" font-family="Times New Roman,serif" font-size="15.00">Terminate request notification</text>
</g>
<!-- 2067589604816&#45;&#45;2067589596416 -->
<g id="edge73" class="edge">
<title>2067589604816&#45;&#45;2067589596416</title>
<path fill="none" stroke="black" d="M2613.78,-72C2634.14,-72 2663.93,-72 2694.8,-72"/>
</g>
<!-- 2067589611104 -->
<g id="node83" class="node">
<title>2067589611104</title>
<ellipse fill="none" stroke="black" cx="2827.34" cy="-18" rx="111.23" ry="18"/>
<text text-anchor="middle" x="2827.34" y="-12" font-family="Times New Roman,serif" font-size="15.00">Phase procedure aborted</text>
</g>
<!-- 2067589604816&#45;&#45;2067589611104 -->
<g id="edge74" class="edge">
<title>2067589604816&#45;&#45;2067589611104</title>
<path fill="none" stroke="black" d="M2612.41,-66.32C2647.3,-58.44 2711.63,-43.91 2760.68,-32.83"/>
</g>
</g>
</svg>
