<?xml version="1.0" encoding="UTF-8" standalone="no"?>
<!DOCTYPE svg PUBLIC "-//W3C//DTD SVG 1.1//EN"
 "http://www.w3.org/Graphics/SVG/1.1/DTD/svg11.dtd">
<!-- Generated by graphviz version 11.0.0 (20240428.1522)
 -->
<!-- Title: pt Pages: 1 -->
<svg width="2110pt" height="1141pt"
 viewBox="0.00 0.00 2110.27 1141.00" xmlns="http://www.w3.org/2000/svg" xmlns:xlink="http://www.w3.org/1999/xlink">
<g id="graph0" class="graph" transform="scale(1 1) rotate(0) translate(4 1137)">
<title>pt</title>
<polygon fill="white" stroke="none" points="-4,4 -4,-1137 2106.27,-1137 2106.27,4 -4,4"/>
<!-- 2067589904624 -->
<g id="node1" class="node">
<title>2067589904624</title>
<ellipse fill="none" stroke="black" cx="27" cy="-710" rx="27" ry="18"/>
<text text-anchor="middle" x="27" y="-704" font-family="Times New Roman,serif" font-size="15.00">seq</text>
</g>
<!-- 2067589895696 -->
<g id="node2" class="node">
<title>2067589895696</title>
<ellipse fill="none" stroke="black" cx="241.15" cy="-1115" rx="129.66" ry="18"/>
<text text-anchor="middle" x="241.15" y="-1109" font-family="Times New Roman,serif" font-size="15.00">Input submission date request</text>
</g>
<!-- 2067589904624&#45;&#45;2067589895696 -->
<g id="edge1" class="edge">
<title>2067589904624&#45;&#45;2067589895696</title>
<path fill="none" stroke="black" d="M36.98,-727.14C71.45,-792.94 195.09,-1028.97 230.57,-1096.71"/>
</g>
<!-- 2067589895936 -->
<g id="node3" class="node">
<title>2067589895936</title>
<ellipse fill="none" stroke="black" cx="241.15" cy="-1061" rx="93.32" ry="18"/>
<text text-anchor="middle" x="241.15" y="-1055" font-family="Times New Roman,serif" font-size="15.00">OLO messaging live</text>
</g>
<!-- 2067589904624&#45;&#45;2067589895936 -->
<g id="edge2" class="edge">
<title>2067589904624&#45;&#45;2067589895936</title>
<path fill="none" stroke="black" d="M37.95,-726.46C73.26,-784.87 192.41,-982.01 229.22,-1042.92"/>
</g>
<!-- 2067589900736 -->
<g id="node4" class="node">
<title>2067589900736</title>
<ellipse fill="none" stroke="black" cx="241.15" cy="-1007" rx="127.61" ry="18"/>
<text text-anchor="middle" x="241.15" y="-1001" font-family="Times New Roman,serif" font-size="15.00">Provide confirmation receipt</text>
</g>
<!-- 2067589904624&#45;&#45;2067589900736 -->
<g id="edge3" class="edge">
<title>2067589904624&#45;&#45;2067589900736</title>
<path fill="none" stroke="black" d="M39.71,-726.39C76.37,-777.71 188.77,-935.06 227.15,-988.79"/>
</g>
<!-- 2067589894352 -->
<g id="node5" class="node">
<title>2067589894352</title>
<ellipse fill="none" stroke="black" cx="241.15" cy="-953" rx="27" ry="18"/>
<text text-anchor="middle" x="241.15" y="-947" font-family="Times New Roman,serif" font-size="15.00">xor</text>
</g>
<!-- 2067589904624&#45;&#45;2067589894352 -->
<g id="edge10" class="edge">
<title>2067589904624&#45;&#45;2067589894352</title>
<path fill="none" stroke="black" d="M41.59,-725.57C79.91,-769.46 188.49,-893.83 226.67,-937.56"/>
</g>
<!-- 2067589898480 -->
<g id="node12" class="node">
<title>2067589898480</title>
<ellipse fill="none" stroke="black" cx="241.15" cy="-899" rx="151.15" ry="18"/>
<text text-anchor="middle" x="241.15" y="-893" font-family="Times New Roman,serif" font-size="15.00">Transfer to the competent authority</text>
</g>
<!-- 2067589904624&#45;&#45;2067589898480 -->
<g id="edge11" class="edge">
<title>2067589904624&#45;&#45;2067589898480</title>
<path fill="none" stroke="black" d="M43.95,-724.21C81.91,-758.03 177.64,-843.31 219.74,-880.82"/>
</g>
<!-- 2067589895504 -->
<g id="node13" class="node">
<title>2067589895504</title>
<ellipse fill="none" stroke="black" cx="241.15" cy="-845" rx="27" ry="18"/>
<text text-anchor="middle" x="241.15" y="-839" font-family="Times New Roman,serif" font-size="15.00">xor</text>
</g>
<!-- 2067589904624&#45;&#45;2067589895504 -->
<g id="edge14" class="edge">
<title>2067589904624&#45;&#45;2067589895504</title>
<path fill="none" stroke="black" d="M47.2,-722.22C87.49,-747.86 180.46,-807.01 220.84,-832.71"/>
</g>
<!-- 2067589903904 -->
<g id="node16" class="node">
<title>2067589903904</title>
<ellipse fill="none" stroke="black" cx="241.15" cy="-791" rx="27" ry="18"/>
<text text-anchor="middle" x="241.15" y="-785" font-family="Times New Roman,serif" font-size="15.00">xor</text>
</g>
<!-- 2067589904624&#45;&#45;2067589903904 -->
<g id="edge24" class="edge">
<title>2067589904624&#45;&#45;2067589903904</title>
<path fill="none" stroke="black" d="M51.11,-718.82C91.92,-734.4 176.29,-766.61 217.07,-782.19"/>
</g>
<!-- 2067589897328 -->
<g id="node26" class="node">
<title>2067589897328</title>
<ellipse fill="none" stroke="black" cx="241.15" cy="-737" rx="142.45" ry="18"/>
<text text-anchor="middle" x="241.15" y="-731" font-family="Times New Roman,serif" font-size="15.00">Routine procedure without MER</text>
</g>
<!-- 2067589904624&#45;&#45;2067589897328 -->
<g id="edge25" class="edge">
<title>2067589904624&#45;&#45;2067589897328</title>
<path fill="none" stroke="black" d="M54.01,-713.31C75.48,-716.04 107.4,-720.11 138.78,-724.1"/>
</g>
<!-- 2067589900016 -->
<g id="node27" class="node">
<title>2067589900016</title>
<ellipse fill="none" stroke="black" cx="241.15" cy="-683" rx="27" ry="18"/>
<text text-anchor="middle" x="241.15" y="-677" font-family="Times New Roman,serif" font-size="15.00">xor</text>
</g>
<!-- 2067589904624&#45;&#45;2067589900016 -->
<g id="edge28" class="edge">
<title>2067589904624&#45;&#45;2067589900016</title>
<path fill="none" stroke="black" d="M54.01,-706.69C94.84,-701.49 173.5,-691.48 214.26,-686.3"/>
</g>
<!-- 2067589899872 -->
<g id="node30" class="node">
<title>2067589899872</title>
<ellipse fill="none" stroke="black" cx="241.15" cy="-629" rx="129.15" ry="18"/>
<text text-anchor="middle" x="241.15" y="-623" font-family="Times New Roman,serif" font-size="15.00">Draft procedure confirmation</text>
</g>
<!-- 2067589904624&#45;&#45;2067589899872 -->
<g id="edge29" class="edge">
<title>2067589904624&#45;&#45;2067589899872</title>
<path fill="none" stroke="black" d="M51.11,-701.18C85.58,-688.02 151.14,-662.99 195.25,-646.14"/>
</g>
<!-- 2067589905056 -->
<g id="node31" class="node">
<title>2067589905056</title>
<ellipse fill="none" stroke="black" cx="241.15" cy="-575" rx="51.35" ry="18"/>
<text text-anchor="middle" x="241.15" y="-569" font-family="Times New Roman,serif" font-size="15.00">Distribute</text>
</g>
<!-- 2067589904624&#45;&#45;2067589905056 -->
<g id="edge30" class="edge">
<title>2067589904624&#45;&#45;2067589905056</title>
<path fill="none" stroke="black" d="M47.2,-697.78C85.76,-673.25 172.55,-618.02 215.35,-590.79"/>
</g>
<!-- 2067589906256 -->
<g id="node32" class="node">
<title>2067589906256</title>
<ellipse fill="none" stroke="black" cx="241.15" cy="-521" rx="127.61" ry="18"/>
<text text-anchor="middle" x="241.15" y="-515" font-family="Times New Roman,serif" font-size="15.00">Form subcases completeness</text>
</g>
<!-- 2067589904624&#45;&#45;2067589906256 -->
<g id="edge31" class="edge">
<title>2067589904624&#45;&#45;2067589906256</title>
<path fill="none" stroke="black" d="M43.95,-695.79C81.91,-661.97 177.64,-576.69 219.74,-539.18"/>
</g>
<!-- 2067589900208 -->
<g id="node33" class="node">
<title>2067589900208</title>
<ellipse fill="none" stroke="black" cx="241.15" cy="-467" rx="83.08" ry="18"/>
<text text-anchor="middle" x="241.15" y="-461" font-family="Times New Roman,serif" font-size="15.00">Amend procedure</text>
</g>
<!-- 2067589904624&#45;&#45;2067589900208 -->
<g id="edge32" class="edge">
<title>2067589904624&#45;&#45;2067589900208</title>
<path fill="none" stroke="black" d="M41.59,-694.43C79.18,-651.38 184.37,-530.89 224.41,-485.03"/>
</g>
<!-- 2067589890464 -->
<g id="node34" class="node">
<title>2067589890464</title>
<ellipse fill="none" stroke="black" cx="241.15" cy="-413" rx="27" ry="18"/>
<text text-anchor="middle" x="241.15" y="-407" font-family="Times New Roman,serif" font-size="15.00">xor</text>
</g>
<!-- 2067589904624&#45;&#45;2067589890464 -->
<g id="edge35" class="edge">
<title>2067589904624&#45;&#45;2067589890464</title>
<path fill="none" stroke="black" d="M39.71,-693.61C76.8,-641.68 191.44,-481.2 228.48,-429.34"/>
</g>
<!-- 2067589904192 -->
<g id="node37" class="node">
<title>2067589904192</title>
<ellipse fill="none" stroke="black" cx="241.15" cy="-332" rx="27" ry="18"/>
<text text-anchor="middle" x="241.15" y="-326" font-family="Times New Roman,serif" font-size="15.00">and</text>
</g>
<!-- 2067589904624&#45;&#45;2067589904192 -->
<g id="edge45" class="edge">
<title>2067589904624&#45;&#45;2067589904192</title>
<path fill="none" stroke="black" d="M37.39,-693.27C72.43,-630.83 195.37,-411.8 230.63,-348.97"/>
</g>
<!-- 2067589903760 -->
<g id="node47" class="node">
<title>2067589903760</title>
<ellipse fill="none" stroke="black" cx="241.15" cy="-180" rx="27" ry="18"/>
<text text-anchor="middle" x="241.15" y="-174" font-family="Times New Roman,serif" font-size="15.00">xor</text>
</g>
<!-- 2067589904624&#45;&#45;2067589903760 -->
<g id="edge66" class="edge">
<title>2067589904624&#45;&#45;2067589903760</title>
<path fill="none" stroke="black" d="M35.06,-692.37C67.38,-611.63 201.03,-277.74 233.18,-197.43"/>
</g>
<!-- 2067589895168 -->
<g id="node6" class="node">
<title>2067589895168</title>
<ellipse fill="black" stroke="black" cx="594.3" cy="-959" rx="2.7" ry="2.7"/>
</g>
<!-- 2067589894352&#45;&#45;2067589895168 -->
<g id="edge4" class="edge">
<title>2067589894352&#45;&#45;2067589895168</title>
<path fill="none" stroke="black" d="M268.55,-953.45C345.75,-954.77 567.2,-958.55 591.19,-958.96"/>
</g>
<!-- 2067589898048 -->
<g id="node7" class="node">
<title>2067589898048</title>
<ellipse fill="none" stroke="black" cx="594.3" cy="-920" rx="27" ry="18"/>
<text text-anchor="middle" x="594.3" y="-914" font-family="Times New Roman,serif" font-size="15.00">seq</text>
</g>
<!-- 2067589894352&#45;&#45;2067589898048 -->
<g id="edge9" class="edge">
<title>2067589894352&#45;&#45;2067589898048</title>
<path fill="none" stroke="black" d="M268.26,-950.55C333.43,-944.42 502.66,-928.52 567.5,-922.42"/>
</g>
<!-- 2067589905632 -->
<g id="node8" class="node">
<title>2067589905632</title>
<ellipse fill="none" stroke="black" cx="943.36" cy="-951" rx="147.06" ry="18"/>
<text text-anchor="middle" x="943.36" y="-945" font-family="Times New Roman,serif" font-size="15.00">Applicant considered stakeholder</text>
</g>
<!-- 2067589898048&#45;&#45;2067589905632 -->
<g id="edge5" class="edge">
<title>2067589898048&#45;&#45;2067589905632</title>
<path fill="none" stroke="black" d="M621.39,-922.33C663.87,-926.12 750.56,-933.87 823.15,-940.35"/>
</g>
<!-- 2067589900640 -->
<g id="node9" class="node">
<title>2067589900640</title>
<ellipse fill="none" stroke="black" cx="943.36" cy="-897" rx="27" ry="18"/>
<text text-anchor="middle" x="943.36" y="-891" font-family="Times New Roman,serif" font-size="15.00">xor</text>
</g>
<!-- 2067589898048&#45;&#45;2067589900640 -->
<g id="edge8" class="edge">
<title>2067589898048&#45;&#45;2067589900640</title>
<path fill="none" stroke="black" d="M621.67,-918.25C686.21,-913.98 851.53,-903.02 916.03,-898.74"/>
</g>
<!-- 2067589905392 -->
<g id="node10" class="node">
<title>2067589905392</title>
<ellipse fill="black" stroke="black" cx="1247.89" cy="-916" rx="2.7" ry="2.7"/>
</g>
<!-- 2067589900640&#45;&#45;2067589905392 -->
<g id="edge6" class="edge">
<title>2067589900640&#45;&#45;2067589905392</title>
<path fill="none" stroke="black" d="M970.68,-898.65C1040.26,-903.02 1225.11,-914.63 1245.13,-915.89"/>
</g>
<!-- 2067589902896 -->
<g id="node11" class="node">
<title>2067589902896</title>
<ellipse fill="none" stroke="black" cx="1247.89" cy="-877" rx="121.47" ry="18"/>
<text text-anchor="middle" x="1247.89" y="-871" font-family="Times New Roman,serif" font-size="15.00">Assess provisional charges</text>
</g>
<!-- 2067589900640&#45;&#45;2067589902896 -->
<g id="edge7" class="edge">
<title>2067589900640&#45;&#45;2067589902896</title>
<path fill="none" stroke="black" d="M970.68,-895.26C1007.41,-892.83 1076.26,-888.28 1136.03,-884.33"/>
</g>
<!-- 2067589901792 -->
<g id="node14" class="node">
<title>2067589901792</title>
<ellipse fill="black" stroke="black" cx="594.3" cy="-878" rx="2.7" ry="2.7"/>
</g>
<!-- 2067589895504&#45;&#45;2067589901792 -->
<g id="edge12" class="edge">
<title>2067589895504&#45;&#45;2067589901792</title>
<path fill="none" stroke="black" d="M268.26,-847.45C345.19,-854.68 567.14,-875.54 591.18,-877.8"/>
</g>
<!-- 2067589901744 -->
<g id="node15" class="node">
<title>2067589901744</title>
<ellipse fill="none" stroke="black" cx="594.3" cy="-839" rx="136.82" ry="18"/>
<text text-anchor="middle" x="594.3" y="-833" font-family="Times New Roman,serif" font-size="15.00">Environmental Report required</text>
</g>
<!-- 2067589895504&#45;&#45;2067589901744 -->
<g id="edge13" class="edge">
<title>2067589895504&#45;&#45;2067589901744</title>
<path fill="none" stroke="black" d="M268.55,-844.55C308.74,-843.86 388.04,-842.51 458.22,-841.31"/>
</g>
<!-- 2067589903520 -->
<g id="node17" class="node">
<title>2067589903520</title>
<ellipse fill="black" stroke="black" cx="594.3" cy="-792" rx="2.7" ry="2.7"/>
</g>
<!-- 2067589903904&#45;&#45;2067589903520 -->
<g id="edge15" class="edge">
<title>2067589903904&#45;&#45;2067589903520</title>
<path fill="none" stroke="black" d="M268.55,-791.08C345.75,-791.3 567.2,-791.93 591.19,-791.99"/>
</g>
<!-- 2067589905200 -->
<g id="node18" class="node">
<title>2067589905200</title>
<ellipse fill="none" stroke="black" cx="594.3" cy="-753" rx="27" ry="18"/>
<text text-anchor="middle" x="594.3" y="-747" font-family="Times New Roman,serif" font-size="15.00">seq</text>
</g>
<!-- 2067589903904&#45;&#45;2067589905200 -->
<g id="edge23" class="edge">
<title>2067589903904&#45;&#45;2067589905200</title>
<path fill="none" stroke="black" d="M268.26,-788.17C333.43,-781.12 502.66,-762.81 567.5,-755.79"/>
</g>
<!-- 2067589893536 -->
<g id="node19" class="node">
<title>2067589893536</title>
<ellipse fill="none" stroke="black" cx="943.36" cy="-807" rx="27" ry="18"/>
<text text-anchor="middle" x="943.36" y="-801" font-family="Times New Roman,serif" font-size="15.00">xor</text>
</g>
<!-- 2067589905200&#45;&#45;2067589893536 -->
<g id="edge18" class="edge">
<title>2067589905200&#45;&#45;2067589893536</title>
<path fill="none" stroke="black" d="M621.11,-757.01C685.51,-767.04 852.77,-793.06 916.86,-803.03"/>
</g>
<!-- 2067589904096 -->
<g id="node22" class="node">
<title>2067589904096</title>
<ellipse fill="none" stroke="black" cx="943.36" cy="-753" rx="125.56" ry="18"/>
<text text-anchor="middle" x="943.36" y="-747" font-family="Times New Roman,serif" font-size="15.00">Routine procedure activities</text>
</g>
<!-- 2067589905200&#45;&#45;2067589904096 -->
<g id="edge19" class="edge">
<title>2067589905200&#45;&#45;2067589904096</title>
<path fill="none" stroke="black" d="M621.67,-753C663.12,-753 746.12,-753 817.3,-753"/>
</g>
<!-- 2067589897232 -->
<g id="node23" class="node">
<title>2067589897232</title>
<ellipse fill="none" stroke="black" cx="943.36" cy="-699" rx="27" ry="18"/>
<text text-anchor="middle" x="943.36" y="-693" font-family="Times New Roman,serif" font-size="15.00">xor</text>
</g>
<!-- 2067589905200&#45;&#45;2067589897232 -->
<g id="edge22" class="edge">
<title>2067589905200&#45;&#45;2067589897232</title>
<path fill="none" stroke="black" d="M621.11,-748.99C685.51,-738.96 852.77,-712.94 916.86,-702.97"/>
</g>
<!-- 2067589903232 -->
<g id="node20" class="node">
<title>2067589903232</title>
<ellipse fill="black" stroke="black" cx="1247.89" cy="-823" rx="2.7" ry="2.7"/>
</g>
<!-- 2067589893536&#45;&#45;2067589903232 -->
<g id="edge16" class="edge">
<title>2067589893536&#45;&#45;2067589903232</title>
<path fill="none" stroke="black" d="M970.68,-808.39C1040.26,-812.07 1225.11,-821.85 1245.13,-822.91"/>
</g>
<!-- 2067589905824 -->
<g id="node21" class="node">
<title>2067589905824</title>
<ellipse fill="none" stroke="black" cx="1247.89" cy="-784" rx="57.49" ry="18"/>
<text text-anchor="middle" x="1247.89" y="-778" font-family="Times New Roman,serif" font-size="15.00">MER listed</text>
</g>
<!-- 2067589893536&#45;&#45;2067589905824 -->
<g id="edge17" class="edge">
<title>2067589893536&#45;&#45;2067589905824</title>
<path fill="none" stroke="black" d="M970.68,-805C1019.7,-801.27 1125.94,-793.19 1191.44,-788.22"/>
</g>
<!-- 2067589897760 -->
<g id="node24" class="node">
<title>2067589897760</title>
<ellipse fill="black" stroke="black" cx="1247.89" cy="-718" rx="2.7" ry="2.7"/>
</g>
<!-- 2067589897232&#45;&#45;2067589897760 -->
<g id="edge20" class="edge">
<title>2067589897232&#45;&#45;2067589897760</title>
<path fill="none" stroke="black" d="M970.68,-700.65C1040.26,-705.02 1225.11,-716.63 1245.13,-717.89"/>
</g>
<!-- 2067589899632 -->
<g id="node25" class="node">
<title>2067589899632</title>
<ellipse fill="none" stroke="black" cx="1247.89" cy="-679" rx="87.69" ry="18"/>
<text text-anchor="middle" x="1247.89" y="-673" font-family="Times New Roman,serif" font-size="15.00">Phased application</text>
</g>
<!-- 2067589897232&#45;&#45;2067589899632 -->
<g id="edge21" class="edge">
<title>2067589897232&#45;&#45;2067589899632</title>
<path fill="none" stroke="black" d="M970.68,-697.26C1013.3,-694.44 1099.19,-688.76 1163.94,-684.48"/>
</g>
<!-- 2067589901504 -->
<g id="node28" class="node">
<title>2067589901504</title>
<ellipse fill="black" stroke="black" cx="594.3" cy="-699" rx="2.7" ry="2.7"/>
</g>
<!-- 2067589900016&#45;&#45;2067589901504 -->
<g id="edge26" class="edge">
<title>2067589900016&#45;&#45;2067589901504</title>
<path fill="none" stroke="black" d="M268.55,-684.2C345.75,-687.72 567.2,-697.81 591.19,-698.9"/>
</g>
<!-- 2067589900064 -->
<g id="node29" class="node">
<title>2067589900064</title>
<ellipse fill="none" stroke="black" cx="594.3" cy="-660" rx="139.89" ry="18"/>
<text text-anchor="middle" x="594.3" y="-654" font-family="Times New Roman,serif" font-size="15.00">Inspect field phased application</text>
</g>
<!-- 2067589900016&#45;&#45;2067589900064 -->
<g id="edge27" class="edge">
<title>2067589900016&#45;&#45;2067589900064</title>
<path fill="none" stroke="black" d="M268.26,-681.29C310.38,-678.53 395.98,-672.92 468.76,-668.16"/>
</g>
<!-- 2067589904336 -->
<g id="node35" class="node">
<title>2067589904336</title>
<ellipse fill="black" stroke="black" cx="594.3" cy="-466" rx="2.7" ry="2.7"/>
</g>
<!-- 2067589890464&#45;&#45;2067589904336 -->
<g id="edge33" class="edge">
<title>2067589890464&#45;&#45;2067589904336</title>
<path fill="none" stroke="black" d="M267.97,-416.9C344.63,-428.47 567.08,-462.04 591.18,-465.68"/>
</g>
<!-- 2067589774272 -->
<g id="node36" class="node">
<title>2067589774272</title>
<ellipse fill="none" stroke="black" cx="594.3" cy="-427" rx="111.74" ry="18"/>
<text text-anchor="middle" x="594.3" y="-421" font-family="Times New Roman,serif" font-size="15.00">Alert BAG administrator</text>
</g>
<!-- 2067589890464&#45;&#45;2067589774272 -->
<g id="edge34" class="edge">
<title>2067589890464&#45;&#45;2067589774272</title>
<path fill="none" stroke="black" d="M268.55,-414.05C314,-415.86 409.48,-419.67 485.21,-422.69"/>
</g>
<!-- 2067589772784 -->
<g id="node38" class="node">
<title>2067589772784</title>
<ellipse fill="none" stroke="black" cx="594.3" cy="-373" rx="27" ry="18"/>
<text text-anchor="middle" x="594.3" y="-367" font-family="Times New Roman,serif" font-size="15.00">xor</text>
</g>
<!-- 2067589904192&#45;&#45;2067589772784 -->
<g id="edge38" class="edge">
<title>2067589904192&#45;&#45;2067589772784</title>
<path fill="none" stroke="black" d="M268.26,-335.05C333.43,-342.66 502.66,-362.42 567.5,-369.99"/>
</g>
<!-- 2067589765728 -->
<g id="node41" class="node">
<title>2067589765728</title>
<ellipse fill="none" stroke="black" cx="594.3" cy="-319" rx="27" ry="18"/>
<text text-anchor="middle" x="594.3" y="-313" font-family="Times New Roman,serif" font-size="15.00">xor</text>
</g>
<!-- 2067589904192&#45;&#45;2067589765728 -->
<g id="edge41" class="edge">
<title>2067589904192&#45;&#45;2067589765728</title>
<path fill="none" stroke="black" d="M268.55,-331.02C333.78,-328.61 502.03,-322.38 567.08,-319.97"/>
</g>
<!-- 2067589604048 -->
<g id="node44" class="node">
<title>2067589604048</title>
<ellipse fill="none" stroke="black" cx="594.3" cy="-261" rx="27" ry="18"/>
<text text-anchor="middle" x="594.3" y="-255" font-family="Times New Roman,serif" font-size="15.00">xor</text>
</g>
<!-- 2067589904192&#45;&#45;2067589604048 -->
<g id="edge44" class="edge">
<title>2067589904192&#45;&#45;2067589604048</title>
<path fill="none" stroke="black" d="M267.41,-326.89C332.2,-313.79 503.74,-279.11 568.28,-266.06"/>
</g>
<!-- 2067589768320 -->
<g id="node39" class="node">
<title>2067589768320</title>
<ellipse fill="black" stroke="black" cx="943.36" cy="-415" rx="2.7" ry="2.7"/>
</g>
<!-- 2067589772784&#45;&#45;2067589768320 -->
<g id="edge36" class="edge">
<title>2067589772784&#45;&#45;2067589768320</title>
<path fill="none" stroke="black" d="M621.39,-376.16C697.69,-385.39 916.56,-411.88 940.27,-414.75"/>
</g>
<!-- 2067589774944 -->
<g id="node40" class="node">
<title>2067589774944</title>
<ellipse fill="none" stroke="black" cx="943.36" cy="-376" rx="131.19" ry="18"/>
<text text-anchor="middle" x="943.36" y="-370" font-family="Times New Roman,serif" font-size="15.00">Phase of application received</text>
</g>
<!-- 2067589772784&#45;&#45;2067589774944 -->
<g id="edge37" class="edge">
<title>2067589772784&#45;&#45;2067589774944</title>
<path fill="none" stroke="black" d="M621.67,-373.23C662.09,-373.58 742.03,-374.27 811.98,-374.87"/>
</g>
<!-- 2067589763232 -->
<g id="node42" class="node">
<title>2067589763232</title>
<ellipse fill="black" stroke="black" cx="943.36" cy="-337" rx="2.7" ry="2.7"/>
</g>
<!-- 2067589765728&#45;&#45;2067589763232 -->
<g id="edge39" class="edge">
<title>2067589765728&#45;&#45;2067589763232</title>
<path fill="none" stroke="black" d="M621.67,-320.37C698.24,-324.34 916.62,-335.66 940.27,-336.89"/>
</g>
<!-- 2067589764288 -->
<g id="node43" class="node">
<title>2067589764288</title>
<ellipse fill="none" stroke="black" cx="943.36" cy="-298" rx="112.77" ry="18"/>
<text text-anchor="middle" x="943.36" y="-292" font-family="Times New Roman,serif" font-size="15.00">Initiate WABOprocedure</text>
</g>
<!-- 2067589765728&#45;&#45;2067589764288 -->
<g id="edge40" class="edge">
<title>2067589765728&#45;&#45;2067589764288</title>
<path fill="none" stroke="black" d="M621.67,-317.4C667.07,-314.66 762.34,-308.89 837.3,-304.36"/>
</g>
<!-- 2067589596272 -->
<g id="node45" class="node">
<title>2067589596272</title>
<ellipse fill="black" stroke="black" cx="943.36" cy="-259" rx="2.7" ry="2.7"/>
</g>
<!-- 2067589604048&#45;&#45;2067589596272 -->
<g id="edge42" class="edge">
<title>2067589604048&#45;&#45;2067589596272</title>
<path fill="none" stroke="black" d="M621.67,-260.85C698.24,-260.41 916.62,-259.15 940.27,-259.01"/>
</g>
<!-- 2067589600304 -->
<g id="node46" class="node">
<title>2067589600304</title>
<ellipse fill="none" stroke="black" cx="943.36" cy="-220" rx="143.99" ry="18"/>
<text text-anchor="middle" x="943.36" y="-214" font-family="Times New Roman,serif" font-size="15.00">Transmit procedure confirmation</text>
</g>
<!-- 2067589604048&#45;&#45;2067589600304 -->
<g id="edge43" class="edge">
<title>2067589604048&#45;&#45;2067589600304</title>
<path fill="none" stroke="black" d="M621.39,-257.92C666.63,-252.57 762.01,-241.31 837.1,-232.44"/>
</g>
<!-- 2067589602656 -->
<g id="node48" class="node">
<title>2067589602656</title>
<ellipse fill="none" stroke="black" cx="594.3" cy="-207" rx="166" ry="18"/>
<text text-anchor="middle" x="594.3" y="-201" font-family="Times New Roman,serif" font-size="15.00">Input senddate procedure confirmation</text>
</g>
<!-- 2067589903760&#45;&#45;2067589602656 -->
<g id="edge46" class="edge">
<title>2067589903760&#45;&#45;2067589602656</title>
<path fill="none" stroke="black" d="M268.26,-182.01C308.16,-185.07 387.05,-191.14 457.12,-196.53"/>
</g>
<!-- 2067589600160 -->
<g id="node49" class="node">
<title>2067589600160</title>
<ellipse fill="none" stroke="black" cx="594.3" cy="-153" rx="61.08" ry="18"/>
<text text-anchor="middle" x="594.3" y="-147" font-family="Times New Roman,serif" font-size="15.00">case closure</text>
</g>
<!-- 2067589903760&#45;&#45;2067589600160 -->
<g id="edge47" class="edge">
<title>2067589903760&#45;&#45;2067589600160</title>
<path fill="none" stroke="black" d="M268.26,-177.99C324.29,-173.68 457.24,-163.46 534.64,-157.51"/>
</g>
<!-- 2067589600496 -->
<g id="node50" class="node">
<title>2067589600496</title>
<ellipse fill="none" stroke="black" cx="594.3" cy="-99" rx="27" ry="18"/>
<text text-anchor="middle" x="594.3" y="-93" font-family="Times New Roman,serif" font-size="15.00">seq</text>
</g>
<!-- 2067589903760&#45;&#45;2067589600496 -->
<g id="edge65" class="edge">
<title>2067589903760&#45;&#45;2067589600496</title>
<path fill="none" stroke="black" d="M267.13,-174.24C331.68,-159.35 503.55,-119.7 568.22,-104.79"/>
</g>
<!-- 2067589608128 -->
<g id="node51" class="node">
<title>2067589608128</title>
<ellipse fill="none" stroke="black" cx="943.36" cy="-153" rx="27" ry="18"/>
<text text-anchor="middle" x="943.36" y="-147" font-family="Times New Roman,serif" font-size="15.00">xor</text>
</g>
<!-- 2067589600496&#45;&#45;2067589608128 -->
<g id="edge60" class="edge">
<title>2067589600496&#45;&#45;2067589608128</title>
<path fill="none" stroke="black" d="M621.11,-103.01C685.51,-113.04 852.77,-139.06 916.86,-149.03"/>
</g>
<!-- 2067589602896 -->
<g id="node64" class="node">
<title>2067589602896</title>
<ellipse fill="none" stroke="black" cx="943.36" cy="-99" rx="27" ry="18"/>
<text text-anchor="middle" x="943.36" y="-93" font-family="Times New Roman,serif" font-size="15.00">and</text>
</g>
<!-- 2067589600496&#45;&#45;2067589602896 -->
<g id="edge63" class="edge">
<title>2067589600496&#45;&#45;2067589602896</title>
<path fill="none" stroke="black" d="M621.67,-99C686.21,-99 851.53,-99 916.03,-99"/>
</g>
<!-- 2067589601792 -->
<g id="node67" class="node">
<title>2067589601792</title>
<ellipse fill="none" stroke="black" cx="943.36" cy="-45" rx="69.78" ry="18"/>
<text text-anchor="middle" x="943.36" y="-39" font-family="Times New Roman,serif" font-size="15.00">Conclude case</text>
</g>
<!-- 2067589600496&#45;&#45;2067589601792 -->
<g id="edge64" class="edge">
<title>2067589600496&#45;&#45;2067589601792</title>
<path fill="none" stroke="black" d="M621.11,-94.99C676.09,-86.43 806.02,-66.21 882.74,-54.28"/>
</g>
<!-- 2067589597472 -->
<g id="node52" class="node">
<title>2067589597472</title>
<ellipse fill="none" stroke="black" cx="1247.89" cy="-315" rx="27" ry="18"/>
<text text-anchor="middle" x="1247.89" y="-309" font-family="Times New Roman,serif" font-size="15.00">seq</text>
</g>
<!-- 2067589608128&#45;&#45;2067589597472 -->
<g id="edge53" class="edge">
<title>2067589608128&#45;&#45;2067589597472</title>
<path fill="none" stroke="black" d="M965.15,-164.13C1020.56,-193.8 1171.24,-274.49 1226.35,-304"/>
</g>
<!-- 2067589597040 -->
<g id="node58" class="node">
<title>2067589597040</title>
<ellipse fill="none" stroke="black" cx="1247.89" cy="-153" rx="27" ry="18"/>
<text text-anchor="middle" x="1247.89" y="-147" font-family="Times New Roman,serif" font-size="15.00">seq</text>
</g>
<!-- 2067589608128&#45;&#45;2067589597040 -->
<g id="edge59" class="edge">
<title>2067589608128&#45;&#45;2067589597040</title>
<path fill="none" stroke="black" d="M970.68,-153C1027.89,-153 1163.06,-153 1220.42,-153"/>
</g>
<!-- 2067589599200 -->
<g id="node53" class="node">
<title>2067589599200</title>
<ellipse fill="none" stroke="black" cx="1585.69" cy="-396" rx="79.5" ry="18"/>
<text text-anchor="middle" x="1585.69" y="-390" font-family="Times New Roman,serif" font-size="15.00">Cease on request</text>
</g>
<!-- 2067589597472&#45;&#45;2067589599200 -->
<g id="edge48" class="edge">
<title>2067589597472&#45;&#45;2067589599200</title>
<path fill="none" stroke="black" d="M1273.85,-321.02C1327.74,-334.02 1456.01,-364.96 1529.84,-382.77"/>
</g>
<!-- 2067589599440 -->
<g id="node54" class="node">
<title>2067589599440</title>
<ellipse fill="none" stroke="black" cx="1585.69" cy="-342" rx="169.58" ry="18"/>
<text text-anchor="middle" x="1585.69" y="-336" font-family="Times New Roman,serif" font-size="15.00">Enter date termination request received</text>
</g>
<!-- 2067589597472&#45;&#45;2067589599440 -->
<g id="edge49" class="edge">
<title>2067589597472&#45;&#45;2067589599440</title>
<path fill="none" stroke="black" d="M1274.96,-317.1C1312.33,-320.1 1383.78,-325.85 1448.64,-331.06"/>
</g>
<!-- 2067589607696 -->
<g id="node55" class="node">
<title>2067589607696</title>
<ellipse fill="none" stroke="black" cx="1585.69" cy="-288" rx="27" ry="18"/>
<text text-anchor="middle" x="1585.69" y="-282" font-family="Times New Roman,serif" font-size="15.00">and</text>
</g>
<!-- 2067589597472&#45;&#45;2067589607696 -->
<g id="edge52" class="edge">
<title>2067589597472&#45;&#45;2067589607696</title>
<path fill="none" stroke="black" d="M1274.96,-312.9C1337.52,-307.87 1495.62,-295.16 1558.4,-290.11"/>
</g>
<!-- 2067589979392 -->
<g id="node56" class="node">
<title>2067589979392</title>
<ellipse fill="none" stroke="black" cx="1952.14" cy="-315" rx="150.13" ry="18"/>
<text text-anchor="middle" x="1952.14" y="-309" font-family="Times New Roman,serif" font-size="15.00">Enter senddate termination request</text>
</g>
<!-- 2067589607696&#45;&#45;2067589979392 -->
<g id="edge50" class="edge">
<title>2067589607696&#45;&#45;2067589979392</title>
<path fill="none" stroke="black" d="M1612.9,-289.94C1656.56,-293.18 1746.92,-299.87 1823.28,-305.53"/>
</g>
<!-- 2067589983856 -->
<g id="node57" class="node">
<title>2067589983856</title>
<ellipse fill="none" stroke="black" cx="1952.14" cy="-261" rx="132.22" ry="18"/>
<text text-anchor="middle" x="1952.14" y="-255" font-family="Times New Roman,serif" font-size="15.00">Terminate request notification</text>
</g>
<!-- 2067589607696&#45;&#45;2067589983856 -->
<g id="edge51" class="edge">
<title>2067589607696&#45;&#45;2067589983856</title>
<path fill="none" stroke="black" d="M1612.9,-286.06C1658.84,-282.65 1756.51,-275.42 1835.14,-269.59"/>
</g>
<!-- 2067589599296 -->
<g id="node59" class="node">
<title>2067589599296</title>
<ellipse fill="none" stroke="black" cx="1585.69" cy="-234" rx="152.69" ry="18"/>
<text text-anchor="middle" x="1585.69" y="-228" font-family="Times New Roman,serif" font-size="15.00">send request to competent authority</text>
</g>
<!-- 2067589597040&#45;&#45;2067589599296 -->
<g id="edge54" class="edge">
<title>2067589597040&#45;&#45;2067589599296</title>
<path fill="none" stroke="black" d="M1273.85,-159.02C1324.62,-171.27 1441.43,-199.44 1516.51,-217.55"/>
</g>
<!-- 2067589605248 -->
<g id="node60" class="node">
<title>2067589605248</title>
<ellipse fill="none" stroke="black" cx="1585.69" cy="-180" rx="180.33" ry="18"/>
<text text-anchor="middle" x="1585.69" y="-174" font-family="Times New Roman,serif" font-size="15.00">note the senddate for letter to the authority</text>
</g>
<!-- 2067589597040&#45;&#45;2067589605248 -->
<g id="edge55" class="edge">
<title>2067589597040&#45;&#45;2067589605248</title>
<path fill="none" stroke="black" d="M1274.96,-155.1C1311.33,-158.02 1379.97,-163.54 1443.41,-168.64"/>
</g>
<!-- 2067589985776 -->
<g id="node61" class="node">
<title>2067589985776</title>
<ellipse fill="none" stroke="black" cx="1585.69" cy="-126" rx="133.75" ry="18"/>
<text text-anchor="middle" x="1585.69" y="-120" font-family="Times New Roman,serif" font-size="15.00">send transcript to stakeholders</text>
</g>
<!-- 2067589597040&#45;&#45;2067589985776 -->
<g id="edge56" class="edge">
<title>2067589597040&#45;&#45;2067589985776</title>
<path fill="none" stroke="black" d="M1274.96,-150.9C1316.41,-147.57 1399.8,-140.87 1469.62,-135.25"/>
</g>
<!-- 2067589980832 -->
<g id="node62" class="node">
<title>2067589980832</title>
<ellipse fill="none" stroke="black" cx="1585.69" cy="-72" rx="167.02" ry="18"/>
<text text-anchor="middle" x="1585.69" y="-66" font-family="Times New Roman,serif" font-size="15.00">note senddate for letter to stakeholders</text>
</g>
<!-- 2067589597040&#45;&#45;2067589980832 -->
<g id="edge57" class="edge">
<title>2067589597040&#45;&#45;2067589980832</title>
<path fill="none" stroke="black" d="M1273.85,-146.98C1324.32,-134.81 1440.03,-106.89 1515.16,-88.77"/>
</g>
<!-- 2067589983616 -->
<g id="node63" class="node">
<title>2067589983616</title>
<ellipse fill="none" stroke="black" cx="1585.69" cy="-18" rx="146.55" ry="18"/>
<text text-anchor="middle" x="1585.69" y="-12" font-family="Times New Roman,serif" font-size="15.00">send phase to competent authority</text>
</g>
<!-- 2067589597040&#45;&#45;2067589983616 -->
<g id="edge58" class="edge">
<title>2067589597040&#45;&#45;2067589983616</title>
<path fill="none" stroke="black" d="M1271.71,-143.83C1326.99,-121.6 1468.85,-64.57 1541.05,-35.54"/>
</g>
<!-- 2067589598000 -->
<g id="node65" class="node">
<title>2067589598000</title>
<ellipse fill="none" stroke="black" cx="1247.89" cy="-99" rx="81.04" ry="18"/>
<text text-anchor="middle" x="1247.89" y="-93" font-family="Times New Roman,serif" font-size="15.00">Register due date</text>
</g>
<!-- 2067589602896&#45;&#45;2067589598000 -->
<g id="edge61" class="edge">
<title>2067589602896&#45;&#45;2067589598000</title>
<path fill="none" stroke="black" d="M970.68,-99C1013.88,-99 1101.51,-99 1166.55,-99"/>
</g>
<!-- 2067589599488 -->
<g id="node66" class="node">
<title>2067589599488</title>
<ellipse fill="none" stroke="black" cx="1247.89" cy="-45" rx="111.23" ry="18"/>
<text text-anchor="middle" x="1247.89" y="-39" font-family="Times New Roman,serif" font-size="15.00">Phase procedure aborted</text>
</g>
<!-- 2067589602896&#45;&#45;2067589599488 -->
<g id="edge62" class="edge">
<title>2067589602896&#45;&#45;2067589599488</title>
<path fill="none" stroke="black" d="M969.89,-94.44C1013.91,-86.59 1105.69,-70.2 1171.55,-58.45"/>
</g>
</g>
</svg>
