<?xml version="1.0" encoding="UTF-8" standalone="no"?>
<!DOCTYPE svg PUBLIC "-//W3C//DTD SVG 1.1//EN"
 "http://www.w3.org/Graphics/SVG/1.1/DTD/svg11.dtd">
<!-- Generated by graphviz version 11.0.0 (20240428.1522)
 -->
<!-- Title: pt Pages: 1 -->
<svg width="2005pt" height="1673pt"
 viewBox="0.00 0.00 2005.35 1672.70" xmlns="http://www.w3.org/2000/svg" xmlns:xlink="http://www.w3.org/1999/xlink">
<g id="graph0" class="graph" transform="scale(1 1) rotate(0) translate(4 1668.7)">
<title>pt</title>
<polygon fill="white" stroke="none" points="-4,4 -4,-1668.7 2001.35,-1668.7 2001.35,4 -4,4"/>
<!-- 2067590143424 -->
<g id="node1" class="node">
<title>2067590143424</title>
<ellipse fill="none" stroke="black" cx="27" cy="-1206" rx="27" ry="18"/>
<text text-anchor="middle" x="27" y="-1200" font-family="Times New Roman,serif" font-size="15.00">seq</text>
</g>
<!-- 2067590141696 -->
<g id="node2" class="node">
<title>2067590141696</title>
<ellipse fill="none" stroke="black" cx="256" cy="-1584" rx="129.66" ry="18"/>
<text text-anchor="middle" x="256" y="-1578" font-family="Times New Roman,serif" font-size="15.00">Input submission date request</text>
</g>
<!-- 2067590143424&#45;&#45;2067590141696 -->
<g id="edge1" class="edge">
<title>2067590143424&#45;&#45;2067590141696</title>
<path fill="none" stroke="black" d="M38.05,-1222.73C75.28,-1284.74 205.28,-1501.2 244.02,-1565.72"/>
</g>
<!-- 2067590149280 -->
<g id="node3" class="node">
<title>2067590149280</title>
<ellipse fill="none" stroke="black" cx="256" cy="-1530" rx="93.32" ry="18"/>
<text text-anchor="middle" x="256" y="-1524" font-family="Times New Roman,serif" font-size="15.00">OLO messaging live</text>
</g>
<!-- 2067590143424&#45;&#45;2067590149280 -->
<g id="edge2" class="edge">
<title>2067590143424&#45;&#45;2067590149280</title>
<path fill="none" stroke="black" d="M39.26,-1222.07C77.46,-1276.59 201.99,-1454.35 242.29,-1511.87"/>
</g>
<!-- 2067590137952 -->
<g id="node4" class="node">
<title>2067590137952</title>
<ellipse fill="none" stroke="black" cx="256" cy="-1476" rx="27" ry="18"/>
<text text-anchor="middle" x="256" y="-1470" font-family="Times New Roman,serif" font-size="15.00">xor</text>
</g>
<!-- 2067590143424&#45;&#45;2067590137952 -->
<g id="edge5" class="edge">
<title>2067590143424&#45;&#45;2067590137952</title>
<path fill="none" stroke="black" d="M41.19,-1221.68C81.31,-1269.4 201.61,-1412.5 241.77,-1460.27"/>
</g>
<!-- 2067590151680 -->
<g id="node7" class="node">
<title>2067590151680</title>
<ellipse fill="none" stroke="black" cx="256" cy="-1422" rx="27" ry="18"/>
<text text-anchor="middle" x="256" y="-1416" font-family="Times New Roman,serif" font-size="15.00">and</text>
</g>
<!-- 2067590143424&#45;&#45;2067590151680 -->
<g id="edge13" class="edge">
<title>2067590143424&#45;&#45;2067590151680</title>
<path fill="none" stroke="black" d="M43.25,-1220.51C84.5,-1259.76 197.99,-1367.76 239.52,-1407.27"/>
</g>
<!-- 2067589042864 -->
<g id="node15" class="node">
<title>2067589042864</title>
<ellipse fill="none" stroke="black" cx="256" cy="-1368" rx="142.45" ry="18"/>
<text text-anchor="middle" x="256" y="-1362" font-family="Times New Roman,serif" font-size="15.00">Routine procedure without MER</text>
</g>
<!-- 2067590143424&#45;&#45;2067589042864 -->
<g id="edge14" class="edge">
<title>2067590143424&#45;&#45;2067589042864</title>
<path fill="none" stroke="black" d="M46.19,-1218.98C86.49,-1247.74 183.34,-1316.86 229.58,-1349.86"/>
</g>
<!-- 2067588165952 -->
<g id="node16" class="node">
<title>2067588165952</title>
<ellipse fill="none" stroke="black" cx="256" cy="-1314" rx="27" ry="18"/>
<text text-anchor="middle" x="256" y="-1308" font-family="Times New Roman,serif" font-size="15.00">xor</text>
</g>
<!-- 2067590143424&#45;&#45;2067588165952 -->
<g id="edge20" class="edge">
<title>2067590143424&#45;&#45;2067588165952</title>
<path fill="none" stroke="black" d="M49.77,-1216.36C93.15,-1237 189.96,-1283.06 233.3,-1303.68"/>
</g>
<!-- 2067589602656 -->
<g id="node22" class="node">
<title>2067589602656</title>
<ellipse fill="none" stroke="black" cx="256" cy="-1260" rx="27" ry="18"/>
<text text-anchor="middle" x="256" y="-1254" font-family="Times New Roman,serif" font-size="15.00">xor</text>
</g>
<!-- 2067590143424&#45;&#45;2067589602656 -->
<g id="edge23" class="edge">
<title>2067590143424&#45;&#45;2067589602656</title>
<path fill="none" stroke="black" d="M52.72,-1211.88C96.39,-1222.27 186.66,-1243.74 230.3,-1254.13"/>
</g>
<!-- 2067588161488 -->
<g id="node25" class="node">
<title>2067588161488</title>
<ellipse fill="none" stroke="black" cx="256" cy="-1206" rx="129.15" ry="18"/>
<text text-anchor="middle" x="256" y="-1200" font-family="Times New Roman,serif" font-size="15.00">Draft procedure confirmation</text>
</g>
<!-- 2067590143424&#45;&#45;2067588161488 -->
<g id="edge24" class="edge">
<title>2067590143424&#45;&#45;2067588161488</title>
<path fill="none" stroke="black" d="M54.48,-1206C72.96,-1206 99.13,-1206 126.48,-1206"/>
</g>
<!-- 2067588158416 -->
<g id="node26" class="node">
<title>2067588158416</title>
<ellipse fill="none" stroke="black" cx="256" cy="-1152" rx="51.35" ry="18"/>
<text text-anchor="middle" x="256" y="-1146" font-family="Times New Roman,serif" font-size="15.00">Distribute</text>
</g>
<!-- 2067590143424&#45;&#45;2067588158416 -->
<g id="edge25" class="edge">
<title>2067590143424&#45;&#45;2067588158416</title>
<path fill="none" stroke="black" d="M52.72,-1200.12C91.1,-1190.99 165.49,-1173.29 212.57,-1162.09"/>
</g>
<!-- 2067588163792 -->
<g id="node27" class="node">
<title>2067588163792</title>
<ellipse fill="none" stroke="black" cx="256" cy="-1098" rx="127.61" ry="18"/>
<text text-anchor="middle" x="256" y="-1092" font-family="Times New Roman,serif" font-size="15.00">Form subcases completeness</text>
</g>
<!-- 2067590143424&#45;&#45;2067588163792 -->
<g id="edge26" class="edge">
<title>2067590143424&#45;&#45;2067588163792</title>
<path fill="none" stroke="black" d="M49.77,-1195.64C88.6,-1177.17 170.25,-1138.32 218.02,-1115.59"/>
</g>
<!-- 2067588159568 -->
<g id="node28" class="node">
<title>2067588159568</title>
<ellipse fill="none" stroke="black" cx="256" cy="-1044" rx="83.08" ry="18"/>
<text text-anchor="middle" x="256" y="-1038" font-family="Times New Roman,serif" font-size="15.00">Amend procedure</text>
</g>
<!-- 2067590143424&#45;&#45;2067588159568 -->
<g id="edge27" class="edge">
<title>2067590143424&#45;&#45;2067588159568</title>
<path fill="none" stroke="black" d="M46.19,-1193.02C86.8,-1164.04 184.86,-1094.05 230.66,-1061.37"/>
</g>
<!-- 2067588156880 -->
<g id="node29" class="node">
<title>2067588156880</title>
<ellipse fill="none" stroke="black" cx="256" cy="-990" rx="27" ry="18"/>
<text text-anchor="middle" x="256" y="-984" font-family="Times New Roman,serif" font-size="15.00">xor</text>
</g>
<!-- 2067590143424&#45;&#45;2067588156880 -->
<g id="edge34" class="edge">
<title>2067590143424&#45;&#45;2067588156880</title>
<path fill="none" stroke="black" d="M43.25,-1191.49C84.5,-1152.24 197.99,-1044.24 239.52,-1004.73"/>
</g>
<!-- 2067589609136 -->
<g id="node36" class="node">
<title>2067589609136</title>
<ellipse fill="none" stroke="black" cx="256" cy="-936" rx="143.99" ry="18"/>
<text text-anchor="middle" x="256" y="-930" font-family="Times New Roman,serif" font-size="15.00">Transmit procedure confirmation</text>
</g>
<!-- 2067590143424&#45;&#45;2067589609136 -->
<g id="edge35" class="edge">
<title>2067590143424&#45;&#45;2067589609136</title>
<path fill="none" stroke="black" d="M41.19,-1190.32C80.64,-1143.38 197.66,-1004.2 239.72,-954.17"/>
</g>
<!-- 2067587847888 -->
<g id="node37" class="node">
<title>2067587847888</title>
<ellipse fill="none" stroke="black" cx="256" cy="-882" rx="166" ry="18"/>
<text text-anchor="middle" x="256" y="-876" font-family="Times New Roman,serif" font-size="15.00">Input senddate procedure confirmation</text>
</g>
<!-- 2067590143424&#45;&#45;2067587847888 -->
<g id="edge36" class="edge">
<title>2067590143424&#45;&#45;2067587847888</title>
<path fill="none" stroke="black" d="M39.26,-1189.93C77.46,-1135.41 201.99,-957.65 242.29,-900.13"/>
</g>
<!-- 2067587842752 -->
<g id="node38" class="node">
<title>2067587842752</title>
<ellipse fill="none" stroke="black" cx="256" cy="-693" rx="27" ry="18"/>
<text text-anchor="middle" x="256" y="-687" font-family="Times New Roman,serif" font-size="15.00">xor</text>
</g>
<!-- 2067590143424&#45;&#45;2067587842752 -->
<g id="edge71" class="edge">
<title>2067590143424&#45;&#45;2067587842752</title>
<path fill="none" stroke="black" d="M35.68,-1188.64C70.42,-1110.14 212.59,-788.85 247.32,-710.36"/>
</g>
<!-- 2067590140256 -->
<g id="node5" class="node">
<title>2067590140256</title>
<ellipse fill="black" stroke="black" cx="609.15" cy="-1662" rx="2.7" ry="2.7"/>
</g>
<!-- 2067590137952&#45;&#45;2067590140256 -->
<g id="edge3" class="edge">
<title>2067590137952&#45;&#45;2067590140256</title>
<path fill="none" stroke="black" d="M277.91,-1487.08C349.67,-1525.09 582.75,-1648.55 606.23,-1660.99"/>
</g>
<!-- 2067590138960 -->
<g id="node6" class="node">
<title>2067590138960</title>
<ellipse fill="none" stroke="black" cx="609.15" cy="-1623" rx="125.05" ry="18"/>
<text text-anchor="middle" x="609.15" y="-1617" font-family="Times New Roman,serif" font-size="15.00">Submit application via OLO</text>
</g>
<!-- 2067590137952&#45;&#45;2067590138960 -->
<g id="edge4" class="edge">
<title>2067590137952&#45;&#45;2067590138960</title>
<path fill="none" stroke="black" d="M279.5,-1485.42C337.4,-1509.66 492.21,-1574.47 566.82,-1605.7"/>
</g>
<!-- 2067590149904 -->
<g id="node8" class="node">
<title>2067590149904</title>
<ellipse fill="none" stroke="black" cx="609.15" cy="-1569" rx="131.19" ry="18"/>
<text text-anchor="middle" x="609.15" y="-1563" font-family="Times New Roman,serif" font-size="15.00">Phase of application received</text>
</g>
<!-- 2067590151680&#45;&#45;2067590149904 -->
<g id="edge6" class="edge">
<title>2067590151680&#45;&#45;2067590149904</title>
<path fill="none" stroke="black" d="M279.5,-1431.42C337.32,-1455.63 491.81,-1520.3 566.53,-1551.58"/>
</g>
<!-- 2067590146016 -->
<g id="node9" class="node">
<title>2067590146016</title>
<ellipse fill="none" stroke="black" cx="609.15" cy="-1515" rx="45.21" ry="18"/>
<text text-anchor="middle" x="609.15" y="-1509" font-family="Times New Roman,serif" font-size="15.00">xor loop</text>
</g>
<!-- 2067590151680&#45;&#45;2067590146016 -->
<g id="edge9" class="edge">
<title>2067590151680&#45;&#45;2067590146016</title>
<path fill="none" stroke="black" d="M281.69,-1428.54C342.26,-1444.58 498.51,-1485.96 570.64,-1505.07"/>
</g>
<!-- 2067589607408 -->
<g id="node12" class="node">
<title>2067589607408</title>
<ellipse fill="none" stroke="black" cx="609.15" cy="-1461" rx="111.74" ry="18"/>
<text text-anchor="middle" x="609.15" y="-1455" font-family="Times New Roman,serif" font-size="15.00">Alert BAG administrator</text>
</g>
<!-- 2067590151680&#45;&#45;2067589607408 -->
<g id="edge10" class="edge">
<title>2067590151680&#45;&#45;2067589607408</title>
<path fill="none" stroke="black" d="M283.1,-1424.9C331.66,-1430.29 438,-1442.1 515.87,-1450.75"/>
</g>
<!-- 2067589606784 -->
<g id="node13" class="node">
<title>2067589606784</title>
<ellipse fill="none" stroke="black" cx="609.15" cy="-1407" rx="151.15" ry="18"/>
<text text-anchor="middle" x="609.15" y="-1401" font-family="Times New Roman,serif" font-size="15.00">Transfer to the competent authority</text>
</g>
<!-- 2067590151680&#45;&#45;2067589606784 -->
<g id="edge11" class="edge">
<title>2067590151680&#45;&#45;2067589606784</title>
<path fill="none" stroke="black" d="M283.39,-1420.87C322.23,-1419.21 397.58,-1415.99 465.93,-1413.08"/>
</g>
<!-- 2067582849520 -->
<g id="node14" class="node">
<title>2067582849520</title>
<ellipse fill="none" stroke="black" cx="609.15" cy="-1353" rx="147.06" ry="18"/>
<text text-anchor="middle" x="609.15" y="-1347" font-family="Times New Roman,serif" font-size="15.00">Applicant considered stakeholder</text>
</g>
<!-- 2067590151680&#45;&#45;2067582849520 -->
<g id="edge12" class="edge">
<title>2067590151680&#45;&#45;2067582849520</title>
<path fill="none" stroke="black" d="M282.25,-1417.04C333.2,-1407.03 450.17,-1384.04 529.21,-1368.51"/>
</g>
<!-- 2067589606112 -->
<g id="node10" class="node">
<title>2067589606112</title>
<ellipse fill="none" stroke="black" cx="993.52" cy="-1535" rx="127.61" ry="18"/>
<text text-anchor="middle" x="993.52" y="-1529" font-family="Times New Roman,serif" font-size="15.00">Provide confirmation receipt</text>
</g>
<!-- 2067590146016&#45;&#45;2067589606112 -->
<g id="edge7" class="edge">
<title>2067590146016&#45;&#45;2067589606112</title>
<path fill="none" stroke="black" d="M654.38,-1517.31C707.56,-1520.1 798.93,-1524.87 873.29,-1528.76"/>
</g>
<!-- 2067589607072 -->
<g id="node11" class="node">
<title>2067589607072</title>
<ellipse fill="black" stroke="black" cx="993.52" cy="-1496" rx="2.7" ry="2.7"/>
</g>
<!-- 2067590146016&#45;&#45;2067589607072 -->
<g id="edge8" class="edge">
<title>2067590146016&#45;&#45;2067589607072</title>
<path fill="none" stroke="black" d="M654.38,-1512.8C749.53,-1508.07 966.95,-1497.27 990.45,-1496.1"/>
</g>
<!-- 2067588160336 -->
<g id="node17" class="node">
<title>2067588160336</title>
<ellipse fill="black" stroke="black" cx="609.15" cy="-1314" rx="2.7" ry="2.7"/>
</g>
<!-- 2067588165952&#45;&#45;2067588160336 -->
<g id="edge15" class="edge">
<title>2067588165952&#45;&#45;2067588160336</title>
<path fill="none" stroke="black" d="M283.39,-1314C360.59,-1314 582.04,-1314 606.03,-1314"/>
</g>
<!-- 2067588164080 -->
<g id="node18" class="node">
<title>2067588164080</title>
<ellipse fill="none" stroke="black" cx="609.15" cy="-1275" rx="27" ry="18"/>
<text text-anchor="middle" x="609.15" y="-1269" font-family="Times New Roman,serif" font-size="15.00">seq</text>
</g>
<!-- 2067588165952&#45;&#45;2067588164080 -->
<g id="edge19" class="edge">
<title>2067588165952&#45;&#45;2067588164080</title>
<path fill="none" stroke="black" d="M283.1,-1311.1C348.27,-1303.86 517.5,-1285.07 582.34,-1277.87"/>
</g>
<!-- 2067587855616 -->
<g id="node19" class="node">
<title>2067587855616</title>
<ellipse fill="none" stroke="black" cx="993.52" cy="-1329" rx="57.49" ry="18"/>
<text text-anchor="middle" x="993.52" y="-1323" font-family="Times New Roman,serif" font-size="15.00">MER listed</text>
</g>
<!-- 2067588164080&#45;&#45;2067587855616 -->
<g id="edge16" class="edge">
<title>2067588164080&#45;&#45;2067587855616</title>
<path fill="none" stroke="black" d="M635.83,-1278.63C697.95,-1287.4 857.33,-1309.91 940.4,-1321.64"/>
</g>
<!-- 2067587848800 -->
<g id="node20" class="node">
<title>2067587848800</title>
<ellipse fill="none" stroke="black" cx="993.52" cy="-1275" rx="125.56" ry="18"/>
<text text-anchor="middle" x="993.52" y="-1269" font-family="Times New Roman,serif" font-size="15.00">Routine procedure activities</text>
</g>
<!-- 2067588164080&#45;&#45;2067587848800 -->
<g id="edge17" class="edge">
<title>2067588164080&#45;&#45;2067587848800</title>
<path fill="none" stroke="black" d="M636.43,-1275C683.5,-1275 785.01,-1275 867.65,-1275"/>
</g>
<!-- 2067587850096 -->
<g id="node21" class="node">
<title>2067587850096</title>
<ellipse fill="none" stroke="black" cx="993.52" cy="-1221" rx="139.89" ry="18"/>
<text text-anchor="middle" x="993.52" y="-1215" font-family="Times New Roman,serif" font-size="15.00">Inspect field phased application</text>
</g>
<!-- 2067588164080&#45;&#45;2067587850096 -->
<g id="edge18" class="edge">
<title>2067588164080&#45;&#45;2067587850096</title>
<path fill="none" stroke="black" d="M635.83,-1271.37C688.41,-1263.95 810.65,-1246.68 897.33,-1234.44"/>
</g>
<!-- 2067588168592 -->
<g id="node23" class="node">
<title>2067588168592</title>
<ellipse fill="black" stroke="black" cx="609.15" cy="-1236" rx="2.7" ry="2.7"/>
</g>
<!-- 2067589602656&#45;&#45;2067588168592 -->
<g id="edge21" class="edge">
<title>2067589602656&#45;&#45;2067588168592</title>
<path fill="none" stroke="black" d="M283.1,-1258.22C360.03,-1252.96 581.98,-1237.79 606.03,-1236.14"/>
</g>
<!-- 2067588154144 -->
<g id="node24" class="node">
<title>2067588154144</title>
<ellipse fill="none" stroke="black" cx="609.15" cy="-1197" rx="112.77" ry="18"/>
<text text-anchor="middle" x="609.15" y="-1191" font-family="Times New Roman,serif" font-size="15.00">Initiate WABOprocedure</text>
</g>
<!-- 2067589602656&#45;&#45;2067588154144 -->
<g id="edge22" class="edge">
<title>2067589602656&#45;&#45;2067588154144</title>
<path fill="none" stroke="black" d="M282.53,-1255.42C334.38,-1246.12 453.74,-1224.7 532.63,-1210.55"/>
</g>
<!-- 2067587852784 -->
<g id="node30" class="node">
<title>2067587852784</title>
<ellipse fill="black" stroke="black" cx="609.15" cy="-1056" rx="2.7" ry="2.7"/>
</g>
<!-- 2067588156880&#45;&#45;2067587852784 -->
<g id="edge28" class="edge">
<title>2067588156880&#45;&#45;2067587852784</title>
<path fill="none" stroke="black" d="M282.53,-994.8C358.92,-1009.16 581.86,-1051.06 606.02,-1055.6"/>
</g>
<!-- 2067587850336 -->
<g id="node31" class="node">
<title>2067587850336</title>
<ellipse fill="none" stroke="black" cx="609.15" cy="-1017" rx="87.69" ry="18"/>
<text text-anchor="middle" x="609.15" y="-1011" font-family="Times New Roman,serif" font-size="15.00">Phased application</text>
</g>
<!-- 2067588156880&#45;&#45;2067587850336 -->
<g id="edge29" class="edge">
<title>2067588156880&#45;&#45;2067587850336</title>
<path fill="none" stroke="black" d="M283.1,-992.01C333.89,-995.91 447.86,-1004.68 526.39,-1010.71"/>
</g>
<!-- 2067587846016 -->
<g id="node32" class="node">
<title>2067587846016</title>
<ellipse fill="none" stroke="black" cx="609.15" cy="-963" rx="27" ry="18"/>
<text text-anchor="middle" x="609.15" y="-957" font-family="Times New Roman,serif" font-size="15.00">seq</text>
</g>
<!-- 2067588156880&#45;&#45;2067587846016 -->
<g id="edge33" class="edge">
<title>2067588156880&#45;&#45;2067587846016</title>
<path fill="none" stroke="black" d="M283.1,-987.99C348.11,-982.99 516.68,-970.03 581.87,-965.02"/>
</g>
<!-- 2067588886368 -->
<g id="node33" class="node">
<title>2067588886368</title>
<ellipse fill="none" stroke="black" cx="993.52" cy="-1044" rx="75.41" ry="18"/>
<text text-anchor="middle" x="993.52" y="-1038" font-family="Times New Roman,serif" font-size="15.00">Finalize request</text>
</g>
<!-- 2067587846016&#45;&#45;2067588886368 -->
<g id="edge30" class="edge">
<title>2067587846016&#45;&#45;2067588886368</title>
<path fill="none" stroke="black" d="M635.24,-968.31C695.88,-981.16 851.63,-1014.16 936.07,-1032.04"/>
</g>
<!-- 2067588888864 -->
<g id="node34" class="node">
<title>2067588888864</title>
<ellipse fill="none" stroke="black" cx="993.52" cy="-990" rx="163.44" ry="18"/>
<text text-anchor="middle" x="993.52" y="-984" font-family="Times New Roman,serif" font-size="15.00">Timeframe for supplying missing data</text>
</g>
<!-- 2067587846016&#45;&#45;2067588888864 -->
<g id="edge31" class="edge">
<title>2067587846016&#45;&#45;2067588888864</title>
<path fill="none" stroke="black" d="M636.43,-964.86C681.06,-968.01 774.61,-974.61 854.62,-980.26"/>
</g>
<!-- 2067588887376 -->
<g id="node35" class="node">
<title>2067588887376</title>
<ellipse fill="none" stroke="black" cx="993.52" cy="-936" rx="122.49" ry="18"/>
<text text-anchor="middle" x="993.52" y="-930" font-family="Times New Roman,serif" font-size="15.00">Draft letter for missing data</text>
</g>
<!-- 2067587846016&#45;&#45;2067588887376 -->
<g id="edge32" class="edge">
<title>2067587846016&#45;&#45;2067588887376</title>
<path fill="none" stroke="black" d="M636.43,-961.14C686.29,-957.62 797.21,-949.79 882.1,-943.8"/>
</g>
<!-- 2067588882672 -->
<g id="node39" class="node">
<title>2067588882672</title>
<ellipse fill="none" stroke="black" cx="609.15" cy="-720" rx="130.68" ry="18"/>
<text text-anchor="middle" x="609.15" y="-714" font-family="Times New Roman,serif" font-size="15.00">WAW permit aspect included</text>
</g>
<!-- 2067587842752&#45;&#45;2067588882672 -->
<g id="edge37" class="edge">
<title>2067587842752&#45;&#45;2067588882672</title>
<path fill="none" stroke="black" d="M283.1,-695.01C327.21,-698.4 418.99,-705.46 493.81,-711.21"/>
</g>
<!-- 2067588883488 -->
<g id="node40" class="node">
<title>2067588883488</title>
<ellipse fill="none" stroke="black" cx="609.15" cy="-666" rx="27" ry="18"/>
<text text-anchor="middle" x="609.15" y="-660" font-family="Times New Roman,serif" font-size="15.00">seq</text>
</g>
<!-- 2067587842752&#45;&#45;2067588883488 -->
<g id="edge47" class="edge">
<title>2067587842752&#45;&#45;2067588883488</title>
<path fill="none" stroke="black" d="M283.1,-690.99C348.11,-685.99 516.68,-673.03 581.87,-668.02"/>
</g>
<!-- 2067587850048 -->
<g id="node50" class="node">
<title>2067587850048</title>
<ellipse fill="none" stroke="black" cx="609.15" cy="-234" rx="27" ry="18"/>
<text text-anchor="middle" x="609.15" y="-228" font-family="Times New Roman,serif" font-size="15.00">seq</text>
</g>
<!-- 2067587842752&#45;&#45;2067587850048 -->
<g id="edge70" class="edge">
<title>2067587842752&#45;&#45;2067587850048</title>
<path fill="none" stroke="black" d="M269.29,-676.93C323.67,-605.85 542.32,-320.04 596.14,-249.7"/>
</g>
<!-- 2067588875520 -->
<g id="node41" class="node">
<title>2067588875520</title>
<ellipse fill="none" stroke="black" cx="993.52" cy="-882" rx="127.61" ry="18"/>
<text text-anchor="middle" x="993.52" y="-876" font-family="Times New Roman,serif" font-size="15.00">create decision for no permit</text>
</g>
<!-- 2067588883488&#45;&#45;2067588875520 -->
<g id="edge38" class="edge">
<title>2067588883488&#45;&#45;2067588875520</title>
<path fill="none" stroke="black" d="M630.43,-677.46C693.27,-712.96 885.01,-821.27 961.01,-864.2"/>
</g>
<!-- 2067588882192 -->
<g id="node42" class="node">
<title>2067588882192</title>
<ellipse fill="none" stroke="black" cx="993.52" cy="-828" rx="162.41" ry="18"/>
<text text-anchor="middle" x="993.52" y="-822" font-family="Times New Roman,serif" font-size="15.00">set no permit required phase decision</text>
</g>
<!-- 2067588883488&#45;&#45;2067588882192 -->
<g id="edge39" class="edge">
<title>2067588883488&#45;&#45;2067588882192</title>
<path fill="none" stroke="black" d="M632.64,-675.53C694.83,-701.88 869.85,-776.03 950.66,-810.27"/>
</g>
<!-- 2067588889968 -->
<g id="node43" class="node">
<title>2067588889968</title>
<ellipse fill="none" stroke="black" cx="993.52" cy="-774" rx="86.15" ry="18"/>
<text text-anchor="middle" x="993.52" y="-768" font-family="Times New Roman,serif" font-size="15.00">Fix decision status</text>
</g>
<!-- 2067588883488&#45;&#45;2067588889968 -->
<g id="edge40" class="edge">
<title>2067588883488&#45;&#45;2067588889968</title>
<path fill="none" stroke="black" d="M634.65,-672.92C695.96,-690.24 857.1,-735.75 940.63,-759.35"/>
</g>
<!-- 2067588874800 -->
<g id="node44" class="node">
<title>2067588874800</title>
<ellipse fill="none" stroke="black" cx="993.52" cy="-720" rx="140.41" ry="18"/>
<text text-anchor="middle" x="993.52" y="-714" font-family="Times New Roman,serif" font-size="15.00">Decision date ahead of decision</text>
</g>
<!-- 2067588883488&#45;&#45;2067588874800 -->
<g id="edge41" class="edge">
<title>2067588883488&#45;&#45;2067588874800</title>
<path fill="none" stroke="black" d="M635.83,-669.63C688.41,-677.05 810.65,-694.32 897.33,-706.56"/>
</g>
<!-- 2067588890256 -->
<g id="node45" class="node">
<title>2067588890256</title>
<ellipse fill="none" stroke="black" cx="993.52" cy="-666" rx="133.24" ry="18"/>
<text text-anchor="middle" x="993.52" y="-660" font-family="Times New Roman,serif" font-size="15.00">generate decision of no permit</text>
</g>
<!-- 2067588883488&#45;&#45;2067588890256 -->
<g id="edge42" class="edge">
<title>2067588883488&#45;&#45;2067588890256</title>
<path fill="none" stroke="black" d="M636.43,-666C682.07,-666 778.88,-666 860.05,-666"/>
</g>
<!-- 2067588886512 -->
<g id="node46" class="node">
<title>2067588886512</title>
<ellipse fill="none" stroke="black" cx="993.52" cy="-612" rx="149.11" ry="18"/>
<text text-anchor="middle" x="993.52" y="-606" font-family="Times New Roman,serif" font-size="15.00">record date for no permit decision</text>
</g>
<!-- 2067588883488&#45;&#45;2067588886512 -->
<g id="edge43" class="edge">
<title>2067588883488&#45;&#45;2067588886512</title>
<path fill="none" stroke="black" d="M635.83,-662.37C687.82,-655.03 807.93,-638.07 894.42,-625.85"/>
</g>
<!-- 2067588878160 -->
<g id="node47" class="node">
<title>2067588878160</title>
<ellipse fill="none" stroke="black" cx="993.52" cy="-558" rx="147.06" ry="18"/>
<text text-anchor="middle" x="993.52" y="-552" font-family="Times New Roman,serif" font-size="15.00">phase activity requiring no permit</text>
</g>
<!-- 2067588883488&#45;&#45;2067588878160 -->
<g id="edge44" class="edge">
<title>2067588883488&#45;&#45;2067588878160</title>
<path fill="none" stroke="black" d="M634.65,-659.08C694.15,-642.27 847.66,-598.92 933.02,-574.8"/>
</g>
<!-- 2067588888720 -->
<g id="node48" class="node">
<title>2067588888720</title>
<ellipse fill="none" stroke="black" cx="993.52" cy="-504" rx="191.08" ry="18"/>
<text text-anchor="middle" x="993.52" y="-498" font-family="Times New Roman,serif" font-size="15.00">create cover letter stating no permit required</text>
</g>
<!-- 2067588883488&#45;&#45;2067588888720 -->
<g id="edge45" class="edge">
<title>2067588883488&#45;&#45;2067588888720</title>
<path fill="none" stroke="black" d="M632.64,-656.47C694.67,-630.19 868.95,-556.35 950.03,-522"/>
</g>
<!-- 2067588890160 -->
<g id="node49" class="node">
<title>2067588890160</title>
<ellipse fill="none" stroke="black" cx="993.52" cy="-450" rx="197.22" ry="18"/>
<text text-anchor="middle" x="993.52" y="-444" font-family="Times New Roman,serif" font-size="15.00">prepare a memo stating no permit is necessary</text>
</g>
<!-- 2067588883488&#45;&#45;2067588890160 -->
<g id="edge46" class="edge">
<title>2067588883488&#45;&#45;2067588890160</title>
<path fill="none" stroke="black" d="M630.43,-654.54C693.12,-619.13 884.07,-511.26 960.45,-468.12"/>
</g>
<!-- 2067588886272 -->
<g id="node51" class="node">
<title>2067588886272</title>
<ellipse fill="none" stroke="black" cx="993.52" cy="-396" rx="27" ry="18"/>
<text text-anchor="middle" x="993.52" y="-390" font-family="Times New Roman,serif" font-size="15.00">xor</text>
</g>
<!-- 2067587850048&#45;&#45;2067588886272 -->
<g id="edge56" class="edge">
<title>2067587850048&#45;&#45;2067588886272</title>
<path fill="none" stroke="black" d="M632.64,-243.53C700.51,-272.29 902.77,-357.98 970.29,-386.58"/>
</g>
<!-- 2067588878304 -->
<g id="node60" class="node">
<title>2067588878304</title>
<ellipse fill="none" stroke="black" cx="993.52" cy="-342" rx="79.5" ry="18"/>
<text text-anchor="middle" x="993.52" y="-336" font-family="Times New Roman,serif" font-size="15.00">Cease on request</text>
</g>
<!-- 2067587850048&#45;&#45;2067588878304 -->
<g id="edge57" class="edge">
<title>2067587850048&#45;&#45;2067588878304</title>
<path fill="none" stroke="black" d="M634.65,-240.92C696.38,-258.36 859.27,-304.36 942.31,-327.82"/>
</g>
<!-- 2067588876960 -->
<g id="node61" class="node">
<title>2067588876960</title>
<ellipse fill="none" stroke="black" cx="993.52" cy="-288" rx="169.58" ry="18"/>
<text text-anchor="middle" x="993.52" y="-282" font-family="Times New Roman,serif" font-size="15.00">Enter date termination request received</text>
</g>
<!-- 2067587850048&#45;&#45;2067588876960 -->
<g id="edge58" class="edge">
<title>2067587850048&#45;&#45;2067588876960</title>
<path fill="none" stroke="black" d="M635.83,-237.63C686.82,-244.83 803.32,-261.28 889.37,-273.43"/>
</g>
<!-- 2067588880464 -->
<g id="node62" class="node">
<title>2067588880464</title>
<ellipse fill="none" stroke="black" cx="993.52" cy="-234" rx="27" ry="18"/>
<text text-anchor="middle" x="993.52" y="-228" font-family="Times New Roman,serif" font-size="15.00">and</text>
</g>
<!-- 2067587850048&#45;&#45;2067588880464 -->
<g id="edge61" class="edge">
<title>2067587850048&#45;&#45;2067588880464</title>
<path fill="none" stroke="black" d="M636.43,-234C706.28,-234 895.99,-234 966.05,-234"/>
</g>
<!-- 2067588884112 -->
<g id="node65" class="node">
<title>2067588884112</title>
<ellipse fill="none" stroke="black" cx="993.52" cy="-180" rx="81.04" ry="18"/>
<text text-anchor="middle" x="993.52" y="-174" font-family="Times New Roman,serif" font-size="15.00">Register due date</text>
</g>
<!-- 2067587850048&#45;&#45;2067588884112 -->
<g id="edge62" class="edge">
<title>2067587850048&#45;&#45;2067588884112</title>
<path fill="none" stroke="black" d="M635.83,-230.37C694.1,-222.14 837.94,-201.83 924.11,-189.66"/>
</g>
<!-- 2067588882816 -->
<g id="node66" class="node">
<title>2067588882816</title>
<ellipse fill="none" stroke="black" cx="993.52" cy="-126" rx="27" ry="18"/>
<text text-anchor="middle" x="993.52" y="-120" font-family="Times New Roman,serif" font-size="15.00">xor</text>
</g>
<!-- 2067587850048&#45;&#45;2067588882816 -->
<g id="edge67" class="edge">
<title>2067587850048&#45;&#45;2067588882816</title>
<path fill="none" stroke="black" d="M634.65,-227.08C703.71,-207.57 899.41,-152.3 968.22,-132.86"/>
</g>
<!-- 2067588875856 -->
<g id="node71" class="node">
<title>2067588875856</title>
<ellipse fill="none" stroke="black" cx="993.52" cy="-72" rx="111.23" ry="18"/>
<text text-anchor="middle" x="993.52" y="-66" font-family="Times New Roman,serif" font-size="15.00">Phase procedure aborted</text>
</g>
<!-- 2067587850048&#45;&#45;2067588875856 -->
<g id="edge68" class="edge">
<title>2067587850048&#45;&#45;2067588875856</title>
<path fill="none" stroke="black" d="M632.64,-224.47C695.23,-197.95 872.1,-123.02 952.21,-89.08"/>
</g>
<!-- 2067589453184 -->
<g id="node72" class="node">
<title>2067589453184</title>
<ellipse fill="none" stroke="black" cx="993.52" cy="-18" rx="69.78" ry="18"/>
<text text-anchor="middle" x="993.52" y="-12" font-family="Times New Roman,serif" font-size="15.00">Conclude case</text>
</g>
<!-- 2067587850048&#45;&#45;2067589453184 -->
<g id="edge69" class="edge">
<title>2067587850048&#45;&#45;2067589453184</title>
<path fill="none" stroke="black" d="M630.43,-222.54C693.89,-186.69 888.79,-76.6 963.21,-34.55"/>
</g>
<!-- 2067588881088 -->
<g id="node52" class="node">
<title>2067588881088</title>
<ellipse fill="black" stroke="black" cx="1376.86" cy="-435" rx="2.7" ry="2.7"/>
</g>
<!-- 2067588886272&#45;&#45;2067588881088 -->
<g id="edge48" class="edge">
<title>2067588886272&#45;&#45;2067588881088</title>
<path fill="none" stroke="black" d="M1020.43,-398.65C1101.9,-406.98 1348.96,-432.25 1373.84,-434.79"/>
</g>
<!-- 2067588887232 -->
<g id="node53" class="node">
<title>2067588887232</title>
<ellipse fill="none" stroke="black" cx="1376.86" cy="-396" rx="27" ry="18"/>
<text text-anchor="middle" x="1376.86" y="-390" font-family="Times New Roman,serif" font-size="15.00">seq</text>
</g>
<!-- 2067588886272&#45;&#45;2067588887232 -->
<g id="edge51" class="edge">
<title>2067588886272&#45;&#45;2067588887232</title>
<path fill="none" stroke="black" d="M1020.73,-396C1090.4,-396 1279.59,-396 1349.47,-396"/>
</g>
<!-- 2067588890448 -->
<g id="node56" class="node">
<title>2067588890448</title>
<ellipse fill="none" stroke="black" cx="1376.86" cy="-329" rx="27" ry="18"/>
<text text-anchor="middle" x="1376.86" y="-323" font-family="Times New Roman,serif" font-size="15.00">seq</text>
</g>
<!-- 2067588886272&#45;&#45;2067588890448 -->
<g id="edge55" class="edge">
<title>2067588886272&#45;&#45;2067588890448</title>
<path fill="none" stroke="black" d="M1020.13,-391.5C1089.6,-379.29 1281.02,-345.66 1350.36,-333.48"/>
</g>
<!-- 2067588396816 -->
<g id="node54" class="node">
<title>2067588396816</title>
<ellipse fill="none" stroke="black" cx="1780.17" cy="-450" rx="142.45" ry="18"/>
<text text-anchor="middle" x="1780.17" y="-444" font-family="Times New Roman,serif" font-size="15.00">Competent authority action taken</text>
</g>
<!-- 2067588887232&#45;&#45;2067588396816 -->
<g id="edge49" class="edge">
<title>2067588887232&#45;&#45;2067588396816</title>
<path fill="none" stroke="black" d="M1403.58,-399.46C1458.33,-406.83 1588.92,-424.4 1680.66,-436.74"/>
</g>
<!-- 2067588396672 -->
<g id="node55" class="node">
<title>2067588396672</title>
<ellipse fill="none" stroke="black" cx="1780.17" cy="-396" rx="147.06" ry="18"/>
<text text-anchor="middle" x="1780.17" y="-390" font-family="Times New Roman,serif" font-size="15.00">Initiate terminate request message</text>
</g>
<!-- 2067588887232&#45;&#45;2067588396672 -->
<g id="edge50" class="edge">
<title>2067588887232&#45;&#45;2067588396672</title>
<path fill="none" stroke="black" d="M1404.2,-396C1450.23,-396 1548.49,-396 1632.87,-396"/>
</g>
<!-- 2067588383808 -->
<g id="node57" class="node">
<title>2067588383808</title>
<ellipse fill="none" stroke="black" cx="1780.17" cy="-342" rx="142.97" ry="18"/>
<text text-anchor="middle" x="1780.17" y="-336" font-family="Times New Roman,serif" font-size="15.00">phase requires notification alone</text>
</g>
<!-- 2067588890448&#45;&#45;2067588383808 -->
<g id="edge52" class="edge">
<title>2067588890448&#45;&#45;2067588383808</title>
<path fill="none" stroke="black" d="M1404.2,-329.85C1451.71,-331.39 1554.87,-334.73 1640.98,-337.52"/>
</g>
<!-- 2067588395088 -->
<g id="node58" class="node">
<title>2067588395088</title>
<ellipse fill="none" stroke="black" cx="1780.17" cy="-288" rx="217.18" ry="18"/>
<text text-anchor="middle" x="1780.17" y="-282" font-family="Times New Roman,serif" font-size="15.00">log senddate letter no permit or notification needed</text>
</g>
<!-- 2067588890448&#45;&#45;2067588395088 -->
<g id="edge53" class="edge">
<title>2067588890448&#45;&#45;2067588395088</title>
<path fill="none" stroke="black" d="M1403.89,-326.34C1451.22,-321.51 1554.47,-310.96 1640.71,-302.15"/>
</g>
<!-- 2067588387168 -->
<g id="node59" class="node">
<title>2067588387168</title>
<ellipse fill="none" stroke="black" cx="1780.17" cy="-234" rx="173.67" ry="18"/>
<text text-anchor="middle" x="1780.17" y="-228" font-family="Times New Roman,serif" font-size="15.00">draft letter indicating no permit required</text>
</g>
<!-- 2067588890448&#45;&#45;2067588387168 -->
<g id="edge54" class="edge">
<title>2067588890448&#45;&#45;2067588387168</title>
<path fill="none" stroke="black" d="M1402.67,-323.13C1462.56,-308.95 1616.9,-272.42 1708.3,-250.78"/>
</g>
<!-- 2067588387504 -->
<g id="node63" class="node">
<title>2067588387504</title>
<ellipse fill="none" stroke="black" cx="1376.86" cy="-261" rx="150.13" ry="18"/>
<text text-anchor="middle" x="1376.86" y="-255" font-family="Times New Roman,serif" font-size="15.00">Enter senddate termination request</text>
</g>
<!-- 2067588880464&#45;&#45;2067588387504 -->
<g id="edge59" class="edge">
<title>2067588880464&#45;&#45;2067588387504</title>
<path fill="none" stroke="black" d="M1020.73,-235.86C1066.75,-239.11 1164.94,-246.07 1246.44,-251.84"/>
</g>
<!-- 2067588392928 -->
<g id="node64" class="node">
<title>2067588392928</title>
<ellipse fill="none" stroke="black" cx="1376.86" cy="-207" rx="132.22" ry="18"/>
<text text-anchor="middle" x="1376.86" y="-201" font-family="Times New Roman,serif" font-size="15.00">Terminate request notification</text>
</g>
<!-- 2067588880464&#45;&#45;2067588392928 -->
<g id="edge60" class="edge">
<title>2067588880464&#45;&#45;2067588392928</title>
<path fill="none" stroke="black" d="M1020.73,-232.14C1069.02,-228.72 1174.76,-221.24 1258.37,-215.32"/>
</g>
<!-- 2067588382992 -->
<g id="node67" class="node">
<title>2067588382992</title>
<ellipse fill="black" stroke="black" cx="1376.86" cy="-133" rx="2.7" ry="2.7"/>
</g>
<!-- 2067588882816&#45;&#45;2067588382992 -->
<g id="edge63" class="edge">
<title>2067588882816&#45;&#45;2067588382992</title>
<path fill="none" stroke="black" d="M1020.73,-126.48C1102.51,-127.98 1349.02,-132.51 1373.84,-132.96"/>
</g>
<!-- 2067589456448 -->
<g id="node68" class="node">
<title>2067589456448</title>
<ellipse fill="none" stroke="black" cx="1376.86" cy="-94" rx="27" ry="18"/>
<text text-anchor="middle" x="1376.86" y="-88" font-family="Times New Roman,serif" font-size="15.00">seq</text>
</g>
<!-- 2067588882816&#45;&#45;2067589456448 -->
<g id="edge66" class="edge">
<title>2067588882816&#45;&#45;2067589456448</title>
<path fill="none" stroke="black" d="M1020.73,-123.8C1090.48,-117.95 1280.05,-102.04 1349.72,-96.19"/>
</g>
<!-- 2067589462112 -->
<g id="node69" class="node">
<title>2067589462112</title>
<ellipse fill="none" stroke="black" cx="1780.17" cy="-121" rx="132.22" ry="18"/>
<text text-anchor="middle" x="1780.17" y="-115" font-family="Times New Roman,serif" font-size="15.00">Cease all running subcases 2b</text>
</g>
<!-- 2067589456448&#45;&#45;2067589462112 -->
<g id="edge64" class="edge">
<title>2067589456448&#45;&#45;2067589462112</title>
<path fill="none" stroke="black" d="M1404.2,-95.77C1455.37,-99.21 1571.1,-107 1660.55,-113.02"/>
</g>
<!-- 2067587927696 -->
<g id="node70" class="node">
<title>2067587927696</title>
<ellipse fill="none" stroke="black" cx="1780.17" cy="-67" rx="155.25" ry="18"/>
<text text-anchor="middle" x="1780.17" y="-61" font-family="Times New Roman,serif" font-size="15.00">Phase procedure ended prematurely</text>
</g>
<!-- 2067589456448&#45;&#45;2067587927696 -->
<g id="edge65" class="edge">
<title>2067589456448&#45;&#45;2067587927696</title>
<path fill="none" stroke="black" d="M1404.2,-92.23C1452.41,-88.98 1557.91,-81.89 1644.76,-76.04"/>
</g>
</g>
</svg>
