<?xml version="1.0" encoding="UTF-8" standalone="no"?>
<!DOCTYPE svg PUBLIC "-//W3C//DTD SVG 1.1//EN"
 "http://www.w3.org/Graphics/SVG/1.1/DTD/svg11.dtd">
<!-- Generated by graphviz version 11.0.0 (20240428.1522)
 -->
<!-- Title: pt Pages: 1 -->
<svg width="3730pt" height="1019pt"
 viewBox="0.00 0.00 3730.08 1019.00" xmlns="http://www.w3.org/2000/svg" xmlns:xlink="http://www.w3.org/1999/xlink">
<g id="graph0" class="graph" transform="scale(1 1) rotate(0) translate(4 1015)">
<title>pt</title>
<polygon fill="white" stroke="none" points="-4,4 -4,-1015 3726.08,-1015 3726.08,4 -4,4"/>
<!-- 2757338762080 -->
<g id="node1" class="node">
<title>2757338762080</title>
<ellipse fill="none" stroke="black" cx="27" cy="-669" rx="27" ry="18"/>
<text text-anchor="middle" x="27" y="-663" font-family="Times New Roman,serif" font-size="15.00">seq</text>
</g>
<!-- 2757338760400 -->
<g id="node2" class="node">
<title>2757338760400</title>
<ellipse fill="none" stroke="black" cx="229.38" cy="-723" rx="139.38" ry="18"/>
<text text-anchor="middle" x="229.38" y="-717" font-family="Times New Roman,serif" font-size="15.00">Record submission date request</text>
</g>
<!-- 2757338762080&#45;&#45;2757338760400 -->
<g id="edge1" class="edge">
<title>2757338762080&#45;&#45;2757338760400</title>
<path fill="none" stroke="black" d="M52.57,-675.62C80.89,-683.25 128.49,-696.08 167.02,-706.46"/>
</g>
<!-- 2757338767504 -->
<g id="node3" class="node">
<title>2757338767504</title>
<ellipse fill="none" stroke="black" cx="229.38" cy="-669" rx="27" ry="18"/>
<text text-anchor="middle" x="229.38" y="-663" font-family="Times New Roman,serif" font-size="15.00">xor</text>
</g>
<!-- 2757338762080&#45;&#45;2757338767504 -->
<g id="edge71" class="edge">
<title>2757338762080&#45;&#45;2757338767504</title>
<path fill="none" stroke="black" d="M54.2,-669C92.6,-669 163.77,-669 202.18,-669"/>
</g>
<!-- 2757338767024 -->
<g id="node73" class="node">
<title>2757338767024</title>
<ellipse fill="none" stroke="black" cx="229.38" cy="-507" rx="27" ry="18"/>
<text text-anchor="middle" x="229.38" y="-501" font-family="Times New Roman,serif" font-size="15.00">xor</text>
</g>
<!-- 2757338762080&#45;&#45;2757338767024 -->
<g id="edge82" class="edge">
<title>2757338762080&#45;&#45;2757338767024</title>
<path fill="none" stroke="black" d="M45.08,-655.19C82.94,-624.58 173.52,-551.35 211.34,-520.78"/>
</g>
<!-- 2757338770336 -->
<g id="node4" class="node">
<title>2757338770336</title>
<ellipse fill="black" stroke="black" cx="469.94" cy="-708" rx="2.7" ry="2.7"/>
</g>
<!-- 2757338767504&#45;&#45;2757338770336 -->
<g id="edge2" class="edge">
<title>2757338767504&#45;&#45;2757338770336</title>
<path fill="none" stroke="black" d="M255.91,-673.17C313.12,-682.53 448.08,-704.59 466.77,-707.65"/>
</g>
<!-- 2757338772832 -->
<g id="node5" class="node">
<title>2757338772832</title>
<ellipse fill="none" stroke="black" cx="469.94" cy="-669" rx="27" ry="18"/>
<text text-anchor="middle" x="469.94" y="-663" font-family="Times New Roman,serif" font-size="15.00">seq</text>
</g>
<!-- 2757338767504&#45;&#45;2757338772832 -->
<g id="edge70" class="edge">
<title>2757338767504&#45;&#45;2757338772832</title>
<path fill="none" stroke="black" d="M256.82,-669C302.8,-669 396.94,-669 442.74,-669"/>
</g>
<!-- 2757338774080 -->
<g id="node6" class="node">
<title>2757338774080</title>
<ellipse fill="none" stroke="black" cx="744.78" cy="-885" rx="27" ry="18"/>
<text text-anchor="middle" x="744.78" y="-879" font-family="Times New Roman,serif" font-size="15.00">and</text>
</g>
<!-- 2757338772832&#45;&#45;2757338774080 -->
<g id="edge60" class="edge">
<title>2757338772832&#45;&#45;2757338774080</title>
<path fill="none" stroke="black" d="M488,-682.51C537,-721.3 677.73,-832.71 726.72,-871.49"/>
</g>
<!-- 2757338773072 -->
<g id="node64" class="node">
<title>2757338773072</title>
<ellipse fill="none" stroke="black" cx="744.78" cy="-831" rx="137.85" ry="18"/>
<text text-anchor="middle" x="744.78" y="-825" font-family="Times New Roman,serif" font-size="15.00">Process subcases completeness</text>
</g>
<!-- 2757338772832&#45;&#45;2757338773072 -->
<g id="edge61" class="edge">
<title>2757338772832&#45;&#45;2757338773072</title>
<path fill="none" stroke="black" d="M490.56,-680.65C537.6,-708.58 657.07,-779.52 713.45,-812.99"/>
</g>
<!-- 2757338771440 -->
<g id="node65" class="node">
<title>2757338771440</title>
<ellipse fill="none" stroke="black" cx="744.78" cy="-777" rx="127.1" ry="18"/>
<text text-anchor="middle" x="744.78" y="-771" font-family="Times New Roman,serif" font-size="15.00">Subcases completeness done</text>
</g>
<!-- 2757338772832&#45;&#45;2757338771440 -->
<g id="edge62" class="edge">
<title>2757338772832&#45;&#45;2757338771440</title>
<path fill="none" stroke="black" d="M493.73,-678.02C539.2,-696.02 641.82,-736.64 700.49,-759.86"/>
</g>
<!-- 2757338775520 -->
<g id="node66" class="node">
<title>2757338775520</title>
<ellipse fill="none" stroke="black" cx="744.78" cy="-723" rx="83.08" ry="18"/>
<text text-anchor="middle" x="744.78" y="-717" font-family="Times New Roman,serif" font-size="15.00">Update procedure</text>
</g>
<!-- 2757338772832&#45;&#45;2757338775520 -->
<g id="edge63" class="edge">
<title>2757338772832&#45;&#45;2757338775520</title>
<path fill="none" stroke="black" d="M496.11,-673.98C538.07,-682.29 623.44,-699.18 682.12,-710.8"/>
</g>
<!-- 2757338762032 -->
<g id="node67" class="node">
<title>2757338762032</title>
<ellipse fill="none" stroke="black" cx="744.78" cy="-669" rx="27" ry="18"/>
<text text-anchor="middle" x="744.78" y="-663" font-family="Times New Roman,serif" font-size="15.00">xor</text>
</g>
<!-- 2757338772832&#45;&#45;2757338762032 -->
<g id="edge66" class="edge">
<title>2757338772832&#45;&#45;2757338762032</title>
<path fill="none" stroke="black" d="M497.1,-669C549.11,-669 665.02,-669 717.3,-669"/>
</g>
<!-- 2757338763520 -->
<g id="node70" class="node">
<title>2757338763520</title>
<ellipse fill="none" stroke="black" cx="744.78" cy="-615" rx="68.24" ry="18"/>
<text text-anchor="middle" x="744.78" y="-609" font-family="Times New Roman,serif" font-size="15.00">Fulfill request</text>
</g>
<!-- 2757338772832&#45;&#45;2757338763520 -->
<g id="edge67" class="edge">
<title>2757338772832&#45;&#45;2757338763520</title>
<path fill="none" stroke="black" d="M496.11,-664.02C539.78,-655.37 630.5,-637.42 689.18,-625.81"/>
</g>
<!-- 2757338759392 -->
<g id="node71" class="node">
<title>2757338759392</title>
<ellipse fill="none" stroke="black" cx="744.78" cy="-561" rx="146.55" ry="18"/>
<text text-anchor="middle" x="744.78" y="-555" font-family="Times New Roman,serif" font-size="15.00">Period for supplying missing data</text>
</g>
<!-- 2757338772832&#45;&#45;2757338759392 -->
<g id="edge68" class="edge">
<title>2757338772832&#45;&#45;2757338759392</title>
<path fill="none" stroke="black" d="M493.73,-659.98C538.94,-642.08 640.67,-601.81 699.49,-578.53"/>
</g>
<!-- 2757338761072 -->
<g id="node72" class="node">
<title>2757338761072</title>
<ellipse fill="none" stroke="black" cx="744.78" cy="-507" rx="85.64" ry="18"/>
<text text-anchor="middle" x="744.78" y="-501" font-family="Times New Roman,serif" font-size="15.00">Fetch missing data</text>
</g>
<!-- 2757338772832&#45;&#45;2757338761072 -->
<g id="edge69" class="edge">
<title>2757338772832&#45;&#45;2757338761072</title>
<path fill="none" stroke="black" d="M490.56,-657.35C537.97,-629.2 658.94,-557.37 714.76,-524.23"/>
</g>
<!-- 2757338772352 -->
<g id="node7" class="node">
<title>2757338772352</title>
<ellipse fill="none" stroke="black" cx="1096.91" cy="-993" rx="142.45" ry="18"/>
<text text-anchor="middle" x="1096.91" y="-987" font-family="Times New Roman,serif" font-size="15.00">Direct to the competent authority</text>
</g>
<!-- 2757338774080&#45;&#45;2757338772352 -->
<g id="edge3" class="edge">
<title>2757338774080&#45;&#45;2757338772352</title>
<path fill="none" stroke="black" d="M769.84,-892.42C825.31,-909.53 963.3,-952.1 1040.82,-976.01"/>
</g>
<!-- 2757338768752 -->
<g id="node8" class="node">
<title>2757338768752</title>
<ellipse fill="none" stroke="black" cx="1096.91" cy="-939" rx="141.94" ry="18"/>
<text text-anchor="middle" x="1096.91" y="-933" font-family="Times New Roman,serif" font-size="15.00">Normal procedure without MER</text>
</g>
<!-- 2757338774080&#45;&#45;2757338768752 -->
<g id="edge4" class="edge">
<title>2757338774080&#45;&#45;2757338768752</title>
<path fill="none" stroke="black" d="M771.52,-888.97C820.01,-896.45 926.97,-912.95 1004.86,-924.96"/>
</g>
<!-- 2757338762128 -->
<g id="node9" class="node">
<title>2757338762128</title>
<ellipse fill="none" stroke="black" cx="1096.91" cy="-885" rx="98.95" ry="18"/>
<text text-anchor="middle" x="1096.91" y="-879" font-family="Times New Roman,serif" font-size="15.00">Applicant is involved</text>
</g>
<!-- 2757338774080&#45;&#45;2757338762128 -->
<g id="edge5" class="edge">
<title>2757338774080&#45;&#45;2757338762128</title>
<path fill="none" stroke="black" d="M772.1,-885C819.33,-885 920.72,-885 997.55,-885"/>
</g>
<!-- 2757338764816 -->
<g id="node10" class="node">
<title>2757338764816</title>
<ellipse fill="none" stroke="black" cx="1096.91" cy="-831" rx="124.03" ry="18"/>
<text text-anchor="middle" x="1096.91" y="-825" font-family="Times New Roman,serif" font-size="15.00">Period application received</text>
</g>
<!-- 2757338774080&#45;&#45;2757338764816 -->
<g id="edge6" class="edge">
<title>2757338774080&#45;&#45;2757338764816</title>
<path fill="none" stroke="black" d="M771.52,-881.03C821.11,-873.38 931.88,-856.3 1010.14,-844.23"/>
</g>
<!-- 2757338765392 -->
<g id="node11" class="node">
<title>2757338765392</title>
<ellipse fill="none" stroke="black" cx="1096.91" cy="-777" rx="27" ry="18"/>
<text text-anchor="middle" x="1096.91" y="-771" font-family="Times New Roman,serif" font-size="15.00">seq</text>
</g>
<!-- 2757338774080&#45;&#45;2757338765392 -->
<g id="edge59" class="edge">
<title>2757338774080&#45;&#45;2757338765392</title>
<path fill="none" stroke="black" d="M769.84,-877.58C833.96,-857.8 1008.36,-804.01 1072.13,-784.33"/>
</g>
<!-- 2757338759680 -->
<g id="node12" class="node">
<title>2757338759680</title>
<ellipse fill="none" stroke="black" cx="1302.36" cy="-813" rx="27" ry="18"/>
<text text-anchor="middle" x="1302.36" y="-807" font-family="Times New Roman,serif" font-size="15.00">xor</text>
</g>
<!-- 2757338765392&#45;&#45;2757338759680 -->
<g id="edge55" class="edge">
<title>2757338765392&#45;&#45;2757338759680</title>
<path fill="none" stroke="black" d="M1123.26,-781.49C1162.36,-788.4 1236.91,-801.6 1276,-808.51"/>
</g>
<!-- 2757338775232 -->
<g id="node61" class="node">
<title>2757338775232</title>
<ellipse fill="none" stroke="black" cx="1302.36" cy="-740" rx="27" ry="18"/>
<text text-anchor="middle" x="1302.36" y="-734" font-family="Times New Roman,serif" font-size="15.00">xor</text>
</g>
<!-- 2757338765392&#45;&#45;2757338775232 -->
<g id="edge58" class="edge">
<title>2757338765392&#45;&#45;2757338775232</title>
<path fill="none" stroke="black" d="M1123.26,-772.39C1162.36,-765.28 1236.91,-751.72 1276,-744.61"/>
</g>
<!-- 2757338772928 -->
<g id="node13" class="node">
<title>2757338772928</title>
<ellipse fill="black" stroke="black" cx="1464.31" cy="-872" rx="2.7" ry="2.7"/>
</g>
<!-- 2757338759680&#45;&#45;2757338772928 -->
<g id="edge7" class="edge">
<title>2757338759680&#45;&#45;2757338772928</title>
<path fill="none" stroke="black" d="M1326.62,-821.58C1367.17,-836.54 1447.79,-866.28 1461.35,-871.28"/>
</g>
<!-- 2757338772016 -->
<g id="node14" class="node">
<title>2757338772016</title>
<ellipse fill="none" stroke="black" cx="1464.31" cy="-833" rx="27" ry="18"/>
<text text-anchor="middle" x="1464.31" y="-827" font-family="Times New Roman,serif" font-size="15.00">seq</text>
</g>
<!-- 2757338759680&#45;&#45;2757338772016 -->
<g id="edge14" class="edge">
<title>2757338759680&#45;&#45;2757338772016</title>
<path fill="none" stroke="black" d="M1329.41,-816.26C1359.16,-819.98 1407.53,-826.02 1437.26,-829.74"/>
</g>
<!-- 2757338771008 -->
<g id="node21" class="node">
<title>2757338771008</title>
<ellipse fill="none" stroke="black" cx="1464.31" cy="-779" rx="27" ry="18"/>
<text text-anchor="middle" x="1464.31" y="-773" font-family="Times New Roman,serif" font-size="15.00">seq</text>
</g>
<!-- 2757338759680&#45;&#45;2757338771008 -->
<g id="edge54" class="edge">
<title>2757338759680&#45;&#45;2757338771008</title>
<path fill="none" stroke="black" d="M1328.35,-807.69C1358.31,-801.32 1408.23,-790.71 1438.23,-784.33"/>
</g>
<!-- 2757338768272 -->
<g id="node15" class="node">
<title>2757338768272</title>
<ellipse fill="none" stroke="black" cx="1708.44" cy="-899" rx="109.19" ry="18"/>
<text text-anchor="middle" x="1708.44" y="-893" font-family="Times New Roman,serif" font-size="15.00">OLO messaging ongoing</text>
</g>
<!-- 2757338772016&#45;&#45;2757338768272 -->
<g id="edge8" class="edge">
<title>2757338772016&#45;&#45;2757338768272</title>
<path fill="none" stroke="black" d="M1489.86,-839.69C1527.25,-849.88 1599.5,-869.58 1650.46,-883.47"/>
</g>
<!-- 2757338767984 -->
<g id="node16" class="node">
<title>2757338767984</title>
<ellipse fill="none" stroke="black" cx="1708.44" cy="-845" rx="27" ry="18"/>
<text text-anchor="middle" x="1708.44" y="-839" font-family="Times New Roman,serif" font-size="15.00">and</text>
</g>
<!-- 2757338772016&#45;&#45;2757338767984 -->
<g id="edge13" class="edge">
<title>2757338772016&#45;&#45;2757338767984</title>
<path fill="none" stroke="black" d="M1491.68,-834.31C1538.26,-836.62 1634.55,-841.39 1681.1,-843.69"/>
</g>
<!-- 2757338764432 -->
<g id="node17" class="node">
<title>2757338764432</title>
<ellipse fill="none" stroke="black" cx="2019.11" cy="-926" rx="138.87" ry="18"/>
<text text-anchor="middle" x="2019.11" y="-920" font-family="Times New Roman,serif" font-size="15.00">Log senddate acknowledgement</text>
</g>
<!-- 2757338767984&#45;&#45;2757338764432 -->
<g id="edge9" class="edge">
<title>2757338767984&#45;&#45;2757338764432</title>
<path fill="none" stroke="black" d="M1734.18,-851.49C1781.75,-863.97 1887.28,-891.67 1955.43,-909.55"/>
</g>
<!-- 2757338763376 -->
<g id="node18" class="node">
<title>2757338763376</title>
<ellipse fill="none" stroke="black" cx="2019.11" cy="-872" rx="45.21" ry="18"/>
<text text-anchor="middle" x="2019.11" y="-866" font-family="Times New Roman,serif" font-size="15.00">xor loop</text>
</g>
<!-- 2757338767984&#45;&#45;2757338763376 -->
<g id="edge12" class="edge">
<title>2757338767984&#45;&#45;2757338763376</title>
<path fill="none" stroke="black" d="M1735.49,-847.28C1788.47,-851.91 1909.26,-862.48 1974.45,-868.18"/>
</g>
<!-- 2757338760352 -->
<g id="node19" class="node">
<title>2757338760352</title>
<ellipse fill="none" stroke="black" cx="2376.36" cy="-946" rx="115.84" ry="18"/>
<text text-anchor="middle" x="2376.36" y="-940" font-family="Times New Roman,serif" font-size="15.00">Issue confirmation receipt</text>
</g>
<!-- 2757338763376&#45;&#45;2757338760352 -->
<g id="edge10" class="edge">
<title>2757338763376&#45;&#45;2757338760352</title>
<path fill="none" stroke="black" d="M2059.83,-880.27C2119.22,-892.64 2232.01,-916.14 2305.41,-931.43"/>
</g>
<!-- 2757338759776 -->
<g id="node20" class="node">
<title>2757338759776</title>
<ellipse fill="black" stroke="black" cx="2376.36" cy="-907" rx="2.7" ry="2.7"/>
</g>
<!-- 2757338763376&#45;&#45;2757338759776 -->
<g id="edge11" class="edge">
<title>2757338763376&#45;&#45;2757338759776</title>
<path fill="none" stroke="black" d="M2063.32,-876.26C2152.81,-885.07 2351.95,-904.69 2373.46,-906.81"/>
</g>
<!-- 2757338765056 -->
<g id="node22" class="node">
<title>2757338765056</title>
<ellipse fill="none" stroke="black" cx="1708.44" cy="-779" rx="27" ry="18"/>
<text text-anchor="middle" x="1708.44" y="-773" font-family="Times New Roman,serif" font-size="15.00">xor</text>
</g>
<!-- 2757338771008&#45;&#45;2757338765056 -->
<g id="edge24" class="edge">
<title>2757338771008&#45;&#45;2757338765056</title>
<path fill="none" stroke="black" d="M1491.68,-779C1538.26,-779 1634.55,-779 1681.1,-779"/>
</g>
<!-- 2757338765968 -->
<g id="node32" class="node">
<title>2757338765968</title>
<ellipse fill="none" stroke="black" cx="1708.44" cy="-463" rx="27" ry="18"/>
<text text-anchor="middle" x="1708.44" y="-457" font-family="Times New Roman,serif" font-size="15.00">xor</text>
</g>
<!-- 2757338771008&#45;&#45;2757338765968 -->
<g id="edge50" class="edge">
<title>2757338771008&#45;&#45;2757338765968</title>
<path fill="none" stroke="black" d="M1477.65,-762.9C1519.19,-708.69 1653.63,-533.23 1695.13,-479.07"/>
</g>
<!-- 2757338760640 -->
<g id="node58" class="node">
<title>2757338760640</title>
<ellipse fill="none" stroke="black" cx="1708.44" cy="-208" rx="27" ry="18"/>
<text text-anchor="middle" x="1708.44" y="-202" font-family="Times New Roman,serif" font-size="15.00">xor</text>
</g>
<!-- 2757338771008&#45;&#45;2757338760640 -->
<g id="edge53" class="edge">
<title>2757338771008&#45;&#45;2757338760640</title>
<path fill="none" stroke="black" d="M1472.69,-761.6C1508.51,-677.12 1664.04,-310.35 1700,-225.55"/>
</g>
<!-- 2757338761744 -->
<g id="node23" class="node">
<title>2757338761744</title>
<ellipse fill="black" stroke="black" cx="2019.11" cy="-799" rx="2.7" ry="2.7"/>
</g>
<!-- 2757338765056&#45;&#45;2757338761744 -->
<g id="edge15" class="edge">
<title>2757338765056&#45;&#45;2757338761744</title>
<path fill="none" stroke="black" d="M1735.76,-780.71C1806.32,-785.28 1995.79,-797.55 2016.31,-798.88"/>
</g>
<!-- 2757338766448 -->
<g id="node24" class="node">
<title>2757338766448</title>
<ellipse fill="none" stroke="black" cx="2019.11" cy="-760" rx="27" ry="18"/>
<text text-anchor="middle" x="2019.11" y="-754" font-family="Times New Roman,serif" font-size="15.00">seq</text>
</g>
<!-- 2757338765056&#45;&#45;2757338766448 -->
<g id="edge23" class="edge">
<title>2757338765056&#45;&#45;2757338766448</title>
<path fill="none" stroke="black" d="M1735.76,-777.38C1794.08,-773.79 1933.61,-765.2 1991.86,-761.62"/>
</g>
<!-- 2757338770576 -->
<g id="node25" class="node">
<title>2757338770576</title>
<ellipse fill="none" stroke="black" cx="2376.36" cy="-868" rx="27" ry="18"/>
<text text-anchor="middle" x="2376.36" y="-862" font-family="Times New Roman,serif" font-size="15.00">xor</text>
</g>
<!-- 2757338766448&#45;&#45;2757338770576 -->
<g id="edge18" class="edge">
<title>2757338766448&#45;&#45;2757338770576</title>
<path fill="none" stroke="black" d="M2044.25,-767.34C2109.06,-787.04 2286.34,-840.94 2351.19,-860.65"/>
</g>
<!-- 2757338768512 -->
<g id="node28" class="node">
<title>2757338768512</title>
<ellipse fill="none" stroke="black" cx="2376.36" cy="-814" rx="139.89" ry="18"/>
<text text-anchor="middle" x="2376.36" y="-808" font-family="Times New Roman,serif" font-size="15.00">Activities for regular procedure</text>
</g>
<!-- 2757338766448&#45;&#45;2757338768512 -->
<g id="edge19" class="edge">
<title>2757338766448&#45;&#45;2757338768512</title>
<path fill="none" stroke="black" d="M2045.95,-763.93C2095.2,-771.41 2204.7,-788.06 2283.95,-800.11"/>
</g>
<!-- 2757338767408 -->
<g id="node29" class="node">
<title>2757338767408</title>
<ellipse fill="none" stroke="black" cx="2376.36" cy="-760" rx="87.69" ry="18"/>
<text text-anchor="middle" x="2376.36" y="-754" font-family="Times New Roman,serif" font-size="15.00">Phased application</text>
</g>
<!-- 2757338766448&#45;&#45;2757338767408 -->
<g id="edge20" class="edge">
<title>2757338766448&#45;&#45;2757338767408</title>
<path fill="none" stroke="black" d="M2046.52,-760C2097.02,-760 2209.26,-760 2288.51,-760"/>
</g>
<!-- 2757338769904 -->
<g id="node30" class="node">
<title>2757338769904</title>
<ellipse fill="none" stroke="black" cx="2376.36" cy="-706" rx="94.86" ry="18"/>
<text text-anchor="middle" x="2376.36" y="-700" font-family="Times New Roman,serif" font-size="15.00">First or second stage</text>
</g>
<!-- 2757338766448&#45;&#45;2757338769904 -->
<g id="edge21" class="edge">
<title>2757338766448&#45;&#45;2757338769904</title>
<path fill="none" stroke="black" d="M2045.95,-756.07C2098.88,-748.03 2221.36,-729.41 2301.14,-717.28"/>
</g>
<!-- 2757338775136 -->
<g id="node31" class="node">
<title>2757338775136</title>
<ellipse fill="none" stroke="black" cx="2376.36" cy="-652" rx="121.98" ry="18"/>
<text text-anchor="middle" x="2376.36" y="-646" font-family="Times New Roman,serif" font-size="15.00">Duration of 14 or 26 weeks</text>
</g>
<!-- 2757338766448&#45;&#45;2757338775136 -->
<g id="edge22" class="edge">
<title>2757338766448&#45;&#45;2757338775136</title>
<path fill="none" stroke="black" d="M2044.25,-752.66C2100.78,-735.48 2242.89,-692.27 2321.31,-668.43"/>
</g>
<!-- 2757338765152 -->
<g id="node26" class="node">
<title>2757338765152</title>
<ellipse fill="none" stroke="black" cx="2756.64" cy="-895" rx="61.08" ry="18"/>
<text text-anchor="middle" x="2756.64" y="-889" font-family="Times New Roman,serif" font-size="15.00">MER shown</text>
</g>
<!-- 2757338770576&#45;&#45;2757338765152 -->
<g id="edge16" class="edge">
<title>2757338770576&#45;&#45;2757338765152</title>
<path fill="none" stroke="black" d="M2403.66,-869.88C2463.98,-874.18 2613.48,-884.85 2696.94,-890.81"/>
</g>
<!-- 2757338765440 -->
<g id="node27" class="node">
<title>2757338765440</title>
<ellipse fill="none" stroke="black" cx="2756.64" cy="-841" rx="131.19" ry="18"/>
<text text-anchor="middle" x="2756.64" y="-835" font-family="Times New Roman,serif" font-size="15.00">Environmental Report needed</text>
</g>
<!-- 2757338770576&#45;&#45;2757338765440 -->
<g id="edge17" class="edge">
<title>2757338770576&#45;&#45;2757338765440</title>
<path fill="none" stroke="black" d="M2403.66,-866.12C2451.74,-862.69 2556.52,-855.21 2639.32,-849.3"/>
</g>
<!-- 2757338769184 -->
<g id="node33" class="node">
<title>2757338769184</title>
<ellipse fill="none" stroke="black" cx="2019.11" cy="-463" rx="27" ry="18"/>
<text text-anchor="middle" x="2019.11" y="-457" font-family="Times New Roman,serif" font-size="15.00">seq</text>
</g>
<!-- 2757338765968&#45;&#45;2757338769184 -->
<g id="edge31" class="edge">
<title>2757338765968&#45;&#45;2757338769184</title>
<path fill="none" stroke="black" d="M1735.76,-463C1794.08,-463 1933.61,-463 1991.86,-463"/>
</g>
<!-- 2757338774224 -->
<g id="node40" class="node">
<title>2757338774224</title>
<ellipse fill="none" stroke="black" cx="2019.11" cy="-247" rx="27" ry="18"/>
<text text-anchor="middle" x="2019.11" y="-241" font-family="Times New Roman,serif" font-size="15.00">seq</text>
</g>
<!-- 2757338765968&#45;&#45;2757338774224 -->
<g id="edge49" class="edge">
<title>2757338765968&#45;&#45;2757338774224</title>
<path fill="none" stroke="black" d="M1727.83,-450.14C1782.73,-411.72 1945.05,-298.13 1999.83,-259.8"/>
</g>
<!-- 2757338761888 -->
<g id="node34" class="node">
<title>2757338761888</title>
<ellipse fill="none" stroke="black" cx="2376.36" cy="-598" rx="134.78" ry="18"/>
<text text-anchor="middle" x="2376.36" y="-592" font-family="Times New Roman,serif" font-size="15.00">Create procedure confirmation</text>
</g>
<!-- 2757338769184&#45;&#45;2757338761888 -->
<g id="edge25" class="edge">
<title>2757338769184&#45;&#45;2757338761888</title>
<path fill="none" stroke="black" d="M2043.15,-471.75C2100.96,-493.72 2253.02,-551.51 2329.73,-580.66"/>
</g>
<!-- 2757338762752 -->
<g id="node35" class="node">
<title>2757338762752</title>
<ellipse fill="none" stroke="black" cx="2376.36" cy="-544" rx="50.84" ry="18"/>
<text text-anchor="middle" x="2376.36" y="-538" font-family="Times New Roman,serif" font-size="15.00">Announce</text>
</g>
<!-- 2757338769184&#45;&#45;2757338762752 -->
<g id="edge26" class="edge">
<title>2757338769184&#45;&#45;2757338762752</title>
<path fill="none" stroke="black" d="M2045.09,-468.7C2105.11,-482.38 2257.96,-517.23 2332.79,-534.29"/>
</g>
<!-- 2757338763712 -->
<g id="node36" class="node">
<title>2757338763712</title>
<ellipse fill="none" stroke="black" cx="2376.36" cy="-490" rx="132.73" ry="18"/>
<text text-anchor="middle" x="2376.36" y="-484" font-family="Times New Roman,serif" font-size="15.00">Create subcases completeness</text>
</g>
<!-- 2757338769184&#45;&#45;2757338763712 -->
<g id="edge27" class="edge">
<title>2757338769184&#45;&#45;2757338763712</title>
<path fill="none" stroke="black" d="M2046.24,-464.99C2090.7,-468.36 2183.65,-475.43 2259.46,-481.19"/>
</g>
<!-- 2757338760880 -->
<g id="node37" class="node">
<title>2757338760880</title>
<ellipse fill="none" stroke="black" cx="2376.36" cy="-436" rx="155.76" ry="18"/>
<text text-anchor="middle" x="2376.36" y="-430" font-family="Times New Roman,serif" font-size="15.00">Create letter to request missing data</text>
</g>
<!-- 2757338769184&#45;&#45;2757338760880 -->
<g id="edge28" class="edge">
<title>2757338769184&#45;&#45;2757338760880</title>
<path fill="none" stroke="black" d="M2046.24,-461.01C2087.9,-457.85 2172.12,-451.45 2244.93,-445.91"/>
</g>
<!-- 2757338775088 -->
<g id="node38" class="node">
<title>2757338775088</title>
<ellipse fill="none" stroke="black" cx="2376.36" cy="-382" rx="148.08" ry="18"/>
<text text-anchor="middle" x="2376.36" y="-376" font-family="Times New Roman,serif" font-size="15.00">Phase requested more information</text>
</g>
<!-- 2757338769184&#45;&#45;2757338775088 -->
<g id="edge29" class="edge">
<title>2757338769184&#45;&#45;2757338775088</title>
<path fill="none" stroke="black" d="M2045.09,-457.3C2098.32,-445.17 2224.56,-416.38 2304.64,-398.13"/>
</g>
<!-- 2757338775424 -->
<g id="node39" class="node">
<title>2757338775424</title>
<ellipse fill="none" stroke="black" cx="2376.36" cy="-328" rx="103.56" ry="18"/>
<text text-anchor="middle" x="2376.36" y="-322" font-family="Times New Roman,serif" font-size="15.00">Start WABOprocedure</text>
</g>
<!-- 2757338769184&#45;&#45;2757338775424 -->
<g id="edge30" class="edge">
<title>2757338769184&#45;&#45;2757338775424</title>
<path fill="none" stroke="black" d="M2043.15,-454.25C2101.42,-432.1 2255.46,-373.57 2331.55,-344.65"/>
</g>
<!-- 2757338774176 -->
<g id="node41" class="node">
<title>2757338774176</title>
<ellipse fill="none" stroke="black" cx="2376.36" cy="-274" rx="27" ry="18"/>
<text text-anchor="middle" x="2376.36" y="-268" font-family="Times New Roman,serif" font-size="15.00">xor</text>
</g>
<!-- 2757338774224&#45;&#45;2757338774176 -->
<g id="edge36" class="edge">
<title>2757338774224&#45;&#45;2757338774176</title>
<path fill="none" stroke="black" d="M2046.24,-248.99C2111.93,-253.98 2283.46,-267.02 2349.2,-272.01"/>
</g>
<!-- 2757338772400 -->
<g id="node46" class="node">
<title>2757338772400</title>
<ellipse fill="none" stroke="black" cx="2376.36" cy="-220" rx="27" ry="18"/>
<text text-anchor="middle" x="2376.36" y="-214" font-family="Times New Roman,serif" font-size="15.00">and</text>
</g>
<!-- 2757338774224&#45;&#45;2757338772400 -->
<g id="edge39" class="edge">
<title>2757338774224&#45;&#45;2757338772400</title>
<path fill="none" stroke="black" d="M2046.24,-245.01C2111.93,-240.02 2283.46,-226.98 2349.2,-221.99"/>
</g>
<!-- 2757338771536 -->
<g id="node49" class="node">
<title>2757338771536</title>
<ellipse fill="none" stroke="black" cx="2376.36" cy="-139" rx="27" ry="18"/>
<text text-anchor="middle" x="2376.36" y="-133" font-family="Times New Roman,serif" font-size="15.00">xor</text>
</g>
<!-- 2757338774224&#45;&#45;2757338771536 -->
<g id="edge47" class="edge">
<title>2757338774224&#45;&#45;2757338771536</title>
<path fill="none" stroke="black" d="M2044.25,-239.66C2109.06,-219.96 2286.34,-166.06 2351.19,-146.35"/>
</g>
<!-- 2757338770528 -->
<g id="node57" class="node">
<title>2757338770528</title>
<ellipse fill="none" stroke="black" cx="2376.36" cy="-85" rx="128.12" ry="18"/>
<text text-anchor="middle" x="2376.36" y="-79" font-family="Times New Roman,serif" font-size="15.00">Send procedure confirmation</text>
</g>
<!-- 2757338774224&#45;&#45;2757338770528 -->
<g id="edge48" class="edge">
<title>2757338774224&#45;&#45;2757338770528</title>
<path fill="none" stroke="black" d="M2042.07,-236.99C2100.84,-210.19 2262.32,-136.55 2336.8,-102.59"/>
</g>
<!-- 2757338769520 -->
<g id="node42" class="node">
<title>2757338769520</title>
<ellipse fill="black" stroke="black" cx="2756.64" cy="-327" rx="2.7" ry="2.7"/>
</g>
<!-- 2757338774176&#45;&#45;2757338769520 -->
<g id="edge32" class="edge">
<title>2757338774176&#45;&#45;2757338769520</title>
<path fill="none" stroke="black" d="M2403.06,-277.6C2483.88,-288.92 2728.94,-323.26 2753.63,-326.72"/>
</g>
<!-- 2757338769856 -->
<g id="node43" class="node">
<title>2757338769856</title>
<ellipse fill="none" stroke="black" cx="2756.64" cy="-288" rx="27" ry="18"/>
<text text-anchor="middle" x="2756.64" y="-282" font-family="Times New Roman,serif" font-size="15.00">seq</text>
</g>
<!-- 2757338774176&#45;&#45;2757338769856 -->
<g id="edge35" class="edge">
<title>2757338774176&#45;&#45;2757338769856</title>
<path fill="none" stroke="black" d="M2403.66,-274.97C2472.94,-277.54 2659.89,-284.46 2729.26,-287.02"/>
</g>
<!-- 2757338767696 -->
<g id="node44" class="node">
<title>2757338767696</title>
<ellipse fill="none" stroke="black" cx="3159.43" cy="-315" rx="117.89" ry="18"/>
<text text-anchor="middle" x="3159.43" y="-309" font-family="Times New Roman,serif" font-size="15.00">Initiate phased application</text>
</g>
<!-- 2757338769856&#45;&#45;2757338767696 -->
<g id="edge33" class="edge">
<title>2757338769856&#45;&#45;2757338767696</title>
<path fill="none" stroke="black" d="M2783.93,-289.77C2837.14,-293.36 2960.18,-301.64 3050.78,-307.75"/>
</g>
<!-- 2757338760496 -->
<g id="node45" class="node">
<title>2757338760496</title>
<ellipse fill="none" stroke="black" cx="3159.43" cy="-261" rx="133.24" ry="18"/>
<text text-anchor="middle" x="3159.43" y="-255" font-family="Times New Roman,serif" font-size="15.00">View field phased application</text>
</g>
<!-- 2757338769856&#45;&#45;2757338760496 -->
<g id="edge34" class="edge">
<title>2757338769856&#45;&#45;2757338760496</title>
<path fill="none" stroke="black" d="M2783.93,-286.23C2834.87,-282.8 2949.83,-275.05 3039.04,-269.04"/>
</g>
<!-- 2757338761840 -->
<g id="node47" class="node">
<title>2757338761840</title>
<ellipse fill="none" stroke="black" cx="2756.64" cy="-234" rx="188.52" ry="18"/>
<text text-anchor="middle" x="2756.64" y="-228" font-family="Times New Roman,serif" font-size="15.00">Document date termination request received</text>
</g>
<!-- 2757338772400&#45;&#45;2757338761840 -->
<g id="edge37" class="edge">
<title>2757338772400&#45;&#45;2757338761840</title>
<path fill="none" stroke="black" d="M2403.66,-220.97C2440.77,-222.35 2511.65,-224.97 2580.13,-227.5"/>
</g>
<!-- 2757338761504 -->
<g id="node48" class="node">
<title>2757338761504</title>
<ellipse fill="none" stroke="black" cx="2756.64" cy="-180" rx="161.39" ry="18"/>
<text text-anchor="middle" x="2756.64" y="-174" font-family="Times New Roman,serif" font-size="15.00">Log senddate procedure confirmation</text>
</g>
<!-- 2757338772400&#45;&#45;2757338761504 -->
<g id="edge38" class="edge">
<title>2757338772400&#45;&#45;2757338761504</title>
<path fill="none" stroke="black" d="M2403.36,-217.25C2450.93,-212.22 2554.7,-201.25 2637.35,-192.51"/>
</g>
<!-- 2757338759248 -->
<g id="node50" class="node">
<title>2757338759248</title>
<ellipse fill="none" stroke="black" cx="2756.64" cy="-126" rx="103.04" ry="18"/>
<text text-anchor="middle" x="2756.64" y="-120" font-family="Times New Roman,serif" font-size="15.00">grant temporary permit</text>
</g>
<!-- 2757338771536&#45;&#45;2757338759248 -->
<g id="edge40" class="edge">
<title>2757338771536&#45;&#45;2757338759248</title>
<path fill="none" stroke="black" d="M2403.66,-138.1C2454.84,-136.34 2570.26,-132.37 2655.03,-129.46"/>
</g>
<!-- 2757338764624 -->
<g id="node51" class="node">
<title>2757338764624</title>
<ellipse fill="none" stroke="black" cx="2756.64" cy="-72" rx="27" ry="18"/>
<text text-anchor="middle" x="2756.64" y="-66" font-family="Times New Roman,serif" font-size="15.00">seq</text>
</g>
<!-- 2757338771536&#45;&#45;2757338764624 -->
<g id="edge46" class="edge">
<title>2757338771536&#45;&#45;2757338764624</title>
<path fill="none" stroke="black" d="M2402.77,-134.5C2471.59,-122.31 2661.1,-88.74 2730.09,-76.52"/>
</g>
<!-- 2757338773936 -->
<g id="node52" class="node">
<title>2757338773936</title>
<ellipse fill="none" stroke="black" cx="3159.43" cy="-126" rx="130.68" ry="18"/>
<text text-anchor="middle" x="3159.43" y="-120" font-family="Times New Roman,serif" font-size="15.00">Log termination decision date</text>
</g>
<!-- 2757338764624&#45;&#45;2757338773936 -->
<g id="edge41" class="edge">
<title>2757338764624&#45;&#45;2757338773936</title>
<path fill="none" stroke="black" d="M2783.62,-75.5C2839.31,-83 2972.49,-100.95 3064.11,-113.29"/>
</g>
<!-- 2757338771872 -->
<g id="node53" class="node">
<title>2757338771872</title>
<ellipse fill="none" stroke="black" cx="3159.43" cy="-72" rx="27" ry="18"/>
<text text-anchor="middle" x="3159.43" y="-66" font-family="Times New Roman,serif" font-size="15.00">xor</text>
</g>
<!-- 2757338764624&#45;&#45;2757338771872 -->
<g id="edge44" class="edge">
<title>2757338764624&#45;&#45;2757338771872</title>
<path fill="none" stroke="black" d="M2783.93,-72C2856.55,-72 3059.3,-72 3132.04,-72"/>
</g>
<!-- 2757338769952 -->
<g id="node56" class="node">
<title>2757338769952</title>
<ellipse fill="none" stroke="black" cx="3159.43" cy="-18" rx="178.28" ry="18"/>
<text text-anchor="middle" x="3159.43" y="-12" font-family="Times New Roman,serif" font-size="15.00">Record senddate for confirmation request</text>
</g>
<!-- 2757338764624&#45;&#45;2757338769952 -->
<g id="edge45" class="edge">
<title>2757338764624&#45;&#45;2757338769952</title>
<path fill="none" stroke="black" d="M2783.62,-68.5C2836.53,-61.37 2959.41,-44.81 3050.12,-32.59"/>
</g>
<!-- 2757338766352 -->
<g id="node54" class="node">
<title>2757338766352</title>
<ellipse fill="none" stroke="black" cx="3547.9" cy="-99" rx="174.19" ry="18"/>
<text text-anchor="middle" x="3547.9" y="-93" font-family="Times New Roman,serif" font-size="15.00">cease activities after request termination</text>
</g>
<!-- 2757338771872&#45;&#45;2757338766352 -->
<g id="edge42" class="edge">
<title>2757338771872&#45;&#45;2757338766352</title>
<path fill="none" stroke="black" d="M3186.69,-73.83C3230.69,-76.91 3322.35,-83.31 3402.19,-88.89"/>
</g>
<!-- 2757338766928 -->
<g id="node55" class="node">
<title>2757338766928</title>
<ellipse fill="none" stroke="black" cx="3547.9" cy="-45" rx="88.71" ry="18"/>
<text text-anchor="middle" x="3547.9" y="-39" font-family="Times New Roman,serif" font-size="15.00">Document deadline</text>
</g>
<!-- 2757338771872&#45;&#45;2757338766928 -->
<g id="edge43" class="edge">
<title>2757338771872&#45;&#45;2757338766928</title>
<path fill="none" stroke="black" d="M3186.69,-70.17C3242.67,-66.25 3375.78,-56.95 3463.56,-50.82"/>
</g>
<!-- 2757338760208 -->
<g id="node59" class="node">
<title>2757338760208</title>
<ellipse fill="black" stroke="black" cx="2019.11" cy="-208" rx="2.7" ry="2.7"/>
</g>
<!-- 2757338760640&#45;&#45;2757338760208 -->
<g id="edge51" class="edge">
<title>2757338760640&#45;&#45;2757338760208</title>
<path fill="none" stroke="black" d="M1735.76,-208C1806.32,-208 1995.79,-208 2016.31,-208"/>
</g>
<!-- 2757338764240 -->
<g id="node60" class="node">
<title>2757338764240</title>
<ellipse fill="none" stroke="black" cx="2019.11" cy="-169" rx="165.48" ry="18"/>
<text text-anchor="middle" x="2019.11" y="-163" font-family="Times New Roman,serif" font-size="15.00">Record senddate retrieve missing data</text>
</g>
<!-- 2757338760640&#45;&#45;2757338764240 -->
<g id="edge52" class="edge">
<title>2757338760640&#45;&#45;2757338764240</title>
<path fill="none" stroke="black" d="M1735.49,-204.71C1773.58,-199.9 1846.69,-190.66 1909.01,-182.79"/>
</g>
<!-- 2757338768464 -->
<g id="node62" class="node">
<title>2757338768464</title>
<ellipse fill="black" stroke="black" cx="1464.31" cy="-740" rx="2.7" ry="2.7"/>
</g>
<!-- 2757338775232&#45;&#45;2757338768464 -->
<g id="edge56" class="edge">
<title>2757338775232&#45;&#45;2757338768464</title>
<path fill="none" stroke="black" d="M1329.77,-740C1371.3,-740 1448.48,-740 1461.44,-740"/>
</g>
<!-- 2757338774704 -->
<g id="node63" class="node">
<title>2757338774704</title>
<ellipse fill="none" stroke="black" cx="1464.31" cy="-701" rx="98.95" ry="18"/>
<text text-anchor="middle" x="1464.31" y="-695" font-family="Times New Roman,serif" font-size="15.00">WAW permit element</text>
</g>
<!-- 2757338775232&#45;&#45;2757338774704 -->
<g id="edge57" class="edge">
<title>2757338775232&#45;&#45;2757338774704</title>
<path fill="none" stroke="black" d="M1328,-733.99C1348.07,-729.1 1377.25,-721.98 1403.38,-715.61"/>
</g>
<!-- 2757338762896 -->
<g id="node68" class="node">
<title>2757338762896</title>
<ellipse fill="black" stroke="black" cx="1096.91" cy="-688" rx="2.7" ry="2.7"/>
</g>
<!-- 2757338762032&#45;&#45;2757338762896 -->
<g id="edge64" class="edge">
<title>2757338762032&#45;&#45;2757338762896</title>
<path fill="none" stroke="black" d="M772.1,-670.43C849.07,-674.61 1069.88,-686.59 1093.8,-687.89"/>
</g>
<!-- 2757338769472 -->
<g id="node69" class="node">
<title>2757338769472</title>
<ellipse fill="none" stroke="black" cx="1096.91" cy="-649" rx="124.54" ry="18"/>
<text text-anchor="middle" x="1096.91" y="-643" font-family="Times New Roman,serif" font-size="15.00">multiple components chosen</text>
</g>
<!-- 2757338762032&#45;&#45;2757338769472 -->
<g id="edge65" class="edge">
<title>2757338762032&#45;&#45;2757338769472</title>
<path fill="none" stroke="black" d="M772.1,-667.5C815.91,-664.99 906.33,-659.83 980.51,-655.59"/>
</g>
<!-- 2757338773696 -->
<g id="node74" class="node">
<title>2757338773696</title>
<ellipse fill="black" stroke="black" cx="469.94" cy="-573" rx="2.7" ry="2.7"/>
</g>
<!-- 2757338767024&#45;&#45;2757338773696 -->
<g id="edge72" class="edge">
<title>2757338767024&#45;&#45;2757338773696</title>
<path fill="none" stroke="black" d="M254.57,-513.69C311.19,-529.36 448.93,-567.47 466.97,-572.46"/>
</g>
<!-- 2757338775040 -->
<g id="node75" class="node">
<title>2757338775040</title>
<ellipse fill="none" stroke="black" cx="469.94" cy="-534" rx="54.93" ry="18"/>
<text text-anchor="middle" x="469.94" y="-528" font-family="Times New Roman,serif" font-size="15.00">Pause term</text>
</g>
<!-- 2757338767024&#45;&#45;2757338775040 -->
<g id="edge73" class="edge">
<title>2757338767024&#45;&#45;2757338775040</title>
<path fill="none" stroke="black" d="M256.37,-509.94C294.89,-514.3 367.92,-522.57 417.51,-528.18"/>
</g>
<!-- 2757338762368 -->
<g id="node76" class="node">
<title>2757338762368</title>
<ellipse fill="none" stroke="black" cx="469.94" cy="-480" rx="65.17" ry="18"/>
<text text-anchor="middle" x="469.94" y="-474" font-family="Times New Roman,serif" font-size="15.00">Close the file</text>
</g>
<!-- 2757338767024&#45;&#45;2757338762368 -->
<g id="edge74" class="edge">
<title>2757338767024&#45;&#45;2757338762368</title>
<path fill="none" stroke="black" d="M256.37,-504.06C292.71,-499.95 359.79,-492.35 408.91,-486.79"/>
</g>
<!-- 2757338762800 -->
<g id="node77" class="node">
<title>2757338762800</title>
<ellipse fill="none" stroke="black" cx="469.94" cy="-426" rx="27" ry="18"/>
<text text-anchor="middle" x="469.94" y="-420" font-family="Times New Roman,serif" font-size="15.00">seq</text>
</g>
<!-- 2757338767024&#45;&#45;2757338762800 -->
<g id="edge77" class="edge">
<title>2757338767024&#45;&#45;2757338762800</title>
<path fill="none" stroke="black" d="M254.13,-498.94C299.85,-483.41 399.64,-449.53 445.29,-434.03"/>
</g>
<!-- 2757338773408 -->
<g id="node80" class="node">
<title>2757338773408</title>
<ellipse fill="none" stroke="black" cx="469.94" cy="-318" rx="27" ry="18"/>
<text text-anchor="middle" x="469.94" y="-312" font-family="Times New Roman,serif" font-size="15.00">seq</text>
</g>
<!-- 2757338767024&#45;&#45;2757338773408 -->
<g id="edge81" class="edge">
<title>2757338767024&#45;&#45;2757338773408</title>
<path fill="none" stroke="black" d="M247.54,-493.41C291.45,-458.62 407.53,-366.65 451.61,-331.72"/>
</g>
<!-- 2757338770720 -->
<g id="node78" class="node">
<title>2757338770720</title>
<ellipse fill="none" stroke="black" cx="744.78" cy="-453" rx="173.67" ry="18"/>
<text text-anchor="middle" x="744.78" y="-447" font-family="Times New Roman,serif" font-size="15.00">Procedure phase terminated prematurely</text>
</g>
<!-- 2757338762800&#45;&#45;2757338770720 -->
<g id="edge75" class="edge">
<title>2757338762800&#45;&#45;2757338770720</title>
<path fill="none" stroke="black" d="M497.1,-428.59C525.17,-431.37 571.86,-435.99 617.11,-440.47"/>
</g>
<!-- 2757338770048 -->
<g id="node79" class="node">
<title>2757338770048</title>
<ellipse fill="none" stroke="black" cx="744.78" cy="-399" rx="155.25" ry="18"/>
<text text-anchor="middle" x="744.78" y="-393" font-family="Times New Roman,serif" font-size="15.00">Generate terminate request message</text>
</g>
<!-- 2757338762800&#45;&#45;2757338770048 -->
<g id="edge76" class="edge">
<title>2757338762800&#45;&#45;2757338770048</title>
<path fill="none" stroke="black" d="M497.1,-423.41C526.77,-420.47 577.24,-415.48 624.83,-410.77"/>
</g>
<!-- 2757338773264 -->
<g id="node81" class="node">
<title>2757338773264</title>
<ellipse fill="none" stroke="black" cx="744.78" cy="-345" rx="123" ry="18"/>
<text text-anchor="middle" x="744.78" y="-339" font-family="Times New Roman,serif" font-size="15.00">Gain additional information</text>
</g>
<!-- 2757338773408&#45;&#45;2757338773264 -->
<g id="edge78" class="edge">
<title>2757338773408&#45;&#45;2757338773264</title>
<path fill="none" stroke="black" d="M497.1,-320.59C530.31,-323.88 589.56,-329.74 641.67,-334.9"/>
</g>
<!-- 2757338772688 -->
<g id="node82" class="node">
<title>2757338772688</title>
<ellipse fill="none" stroke="black" cx="744.78" cy="-291" rx="134.78" ry="18"/>
<text text-anchor="middle" x="744.78" y="-285" font-family="Times New Roman,serif" font-size="15.00">Remain indefinitely suspended</text>
</g>
<!-- 2757338773408&#45;&#45;2757338772688 -->
<g id="edge79" class="edge">
<title>2757338773408&#45;&#45;2757338772688</title>
<path fill="none" stroke="black" d="M497.1,-315.41C528.91,-312.26 584.61,-306.75 635.04,-301.76"/>
</g>
<!-- 2757338766016 -->
<g id="node83" class="node">
<title>2757338766016</title>
<ellipse fill="none" stroke="black" cx="744.78" cy="-237" rx="172.65" ry="18"/>
<text text-anchor="middle" x="744.78" y="-231" font-family="Times New Roman,serif" font-size="15.00">Creating permanent suspension decision</text>
</g>
<!-- 2757338773408&#45;&#45;2757338766016 -->
<g id="edge80" class="edge">
<title>2757338773408&#45;&#45;2757338766016</title>
<path fill="none" stroke="black" d="M495.15,-310.81C537.53,-298.23 626.29,-271.88 685.47,-254.31"/>
</g>
</g>
</svg>
