<?xml version="1.0" encoding="UTF-8" standalone="no"?>
<!DOCTYPE svg PUBLIC "-//W3C//DTD SVG 1.1//EN"
 "http://www.w3.org/Graphics/SVG/1.1/DTD/svg11.dtd">
<!-- Generated by graphviz version 11.0.0 (20240428.1522)
 -->
<!-- Title: pt Pages: 1 -->
<svg width="3984pt" height="1124pt"
 viewBox="0.00 0.00 3983.94 1124.00" xmlns="http://www.w3.org/2000/svg" xmlns:xlink="http://www.w3.org/1999/xlink">
<g id="graph0" class="graph" transform="scale(1 1) rotate(0) translate(4 1120)">
<title>pt</title>
<polygon fill="white" stroke="none" points="-4,4 -4,-1120 3979.94,-1120 3979.94,4 -4,4"/>
<!-- 2757338954496 -->
<g id="node1" class="node">
<title>2757338954496</title>
<ellipse fill="none" stroke="black" cx="27" cy="-680" rx="27" ry="18"/>
<text text-anchor="middle" x="27" y="-674" font-family="Times New Roman,serif" font-size="15.00">seq</text>
</g>
<!-- 2757338947056 -->
<g id="node2" class="node">
<title>2757338947056</title>
<ellipse fill="none" stroke="black" cx="229.38" cy="-734" rx="139.38" ry="18"/>
<text text-anchor="middle" x="229.38" y="-728" font-family="Times New Roman,serif" font-size="15.00">Record submission date request</text>
</g>
<!-- 2757338954496&#45;&#45;2757338947056 -->
<g id="edge1" class="edge">
<title>2757338954496&#45;&#45;2757338947056</title>
<path fill="none" stroke="black" d="M52.57,-686.62C80.89,-694.25 128.49,-707.08 167.02,-717.46"/>
</g>
<!-- 2757338946384 -->
<g id="node3" class="node">
<title>2757338946384</title>
<ellipse fill="none" stroke="black" cx="229.38" cy="-680" rx="27" ry="18"/>
<text text-anchor="middle" x="229.38" y="-674" font-family="Times New Roman,serif" font-size="15.00">xor</text>
</g>
<!-- 2757338954496&#45;&#45;2757338946384 -->
<g id="edge65" class="edge">
<title>2757338954496&#45;&#45;2757338946384</title>
<path fill="none" stroke="black" d="M54.2,-680C92.6,-680 163.77,-680 202.18,-680"/>
</g>
<!-- 2757338944848 -->
<g id="node67" class="node">
<title>2757338944848</title>
<ellipse fill="none" stroke="black" cx="229.38" cy="-572" rx="27" ry="18"/>
<text text-anchor="middle" x="229.38" y="-566" font-family="Times New Roman,serif" font-size="15.00">xor</text>
</g>
<!-- 2757338954496&#45;&#45;2757338944848 -->
<g id="edge75" class="edge">
<title>2757338954496&#45;&#45;2757338944848</title>
<path fill="none" stroke="black" d="M48.69,-668.85C87.19,-648.1 169.39,-603.79 207.81,-583.09"/>
</g>
<!-- 2757338942016 -->
<g id="node4" class="node">
<title>2757338942016</title>
<ellipse fill="black" stroke="black" cx="469.94" cy="-719" rx="2.7" ry="2.7"/>
</g>
<!-- 2757338946384&#45;&#45;2757338942016 -->
<g id="edge2" class="edge">
<title>2757338946384&#45;&#45;2757338942016</title>
<path fill="none" stroke="black" d="M255.91,-684.17C313.12,-693.53 448.08,-715.59 466.77,-718.65"/>
</g>
<!-- 2757338941872 -->
<g id="node5" class="node">
<title>2757338941872</title>
<ellipse fill="none" stroke="black" cx="469.94" cy="-680" rx="27" ry="18"/>
<text text-anchor="middle" x="469.94" y="-674" font-family="Times New Roman,serif" font-size="15.00">and</text>
</g>
<!-- 2757338946384&#45;&#45;2757338941872 -->
<g id="edge64" class="edge">
<title>2757338946384&#45;&#45;2757338941872</title>
<path fill="none" stroke="black" d="M256.82,-680C302.8,-680 396.94,-680 442.74,-680"/>
</g>
<!-- 2757338954784 -->
<g id="node6" class="node">
<title>2757338954784</title>
<ellipse fill="none" stroke="black" cx="744.78" cy="-707" rx="142.45" ry="18"/>
<text text-anchor="middle" x="744.78" y="-701" font-family="Times New Roman,serif" font-size="15.00">Direct to the competent authority</text>
</g>
<!-- 2757338941872&#45;&#45;2757338954784 -->
<g id="edge3" class="edge">
<title>2757338941872&#45;&#45;2757338954784</title>
<path fill="none" stroke="black" d="M497.1,-682.59C528.04,-685.65 581.59,-690.95 630.91,-695.83"/>
</g>
<!-- 2757338953728 -->
<g id="node7" class="node">
<title>2757338953728</title>
<ellipse fill="none" stroke="black" cx="744.78" cy="-653" rx="27" ry="18"/>
<text text-anchor="middle" x="744.78" y="-647" font-family="Times New Roman,serif" font-size="15.00">seq</text>
</g>
<!-- 2757338941872&#45;&#45;2757338953728 -->
<g id="edge63" class="edge">
<title>2757338941872&#45;&#45;2757338953728</title>
<path fill="none" stroke="black" d="M497.1,-677.41C549.25,-672.25 665.61,-660.74 717.7,-655.58"/>
</g>
<!-- 2757338950848 -->
<g id="node8" class="node">
<title>2757338950848</title>
<ellipse fill="none" stroke="black" cx="1101" cy="-788" rx="27" ry="18"/>
<text text-anchor="middle" x="1101" y="-782" font-family="Times New Roman,serif" font-size="15.00">and</text>
</g>
<!-- 2757338953728&#45;&#45;2757338950848 -->
<g id="edge55" class="edge">
<title>2757338953728&#45;&#45;2757338950848</title>
<path fill="none" stroke="black" d="M768.75,-661.75C832.83,-686.18 1013.06,-754.87 1077.08,-779.27"/>
</g>
<!-- 2757338950368 -->
<g id="node60" class="node">
<title>2757338950368</title>
<ellipse fill="none" stroke="black" cx="1101" cy="-734" rx="83.08" ry="18"/>
<text text-anchor="middle" x="1101" y="-728" font-family="Times New Roman,serif" font-size="15.00">Update procedure</text>
</g>
<!-- 2757338953728&#45;&#45;2757338950368 -->
<g id="edge56" class="edge">
<title>2757338953728&#45;&#45;2757338950368</title>
<path fill="none" stroke="black" d="M770.69,-658.7C826.75,-671.52 964.06,-702.91 1042.53,-720.86"/>
</g>
<!-- 2757338948256 -->
<g id="node61" class="node">
<title>2757338948256</title>
<ellipse fill="none" stroke="black" cx="1101" cy="-680" rx="27" ry="18"/>
<text text-anchor="middle" x="1101" y="-674" font-family="Times New Roman,serif" font-size="15.00">xor</text>
</g>
<!-- 2757338953728&#45;&#45;2757338948256 -->
<g id="edge59" class="edge">
<title>2757338953728&#45;&#45;2757338948256</title>
<path fill="none" stroke="black" d="M772.11,-655.01C837.85,-660.02 1008.56,-673.03 1073.97,-678.02"/>
</g>
<!-- 2757338948496 -->
<g id="node64" class="node">
<title>2757338948496</title>
<ellipse fill="none" stroke="black" cx="1101" cy="-626" rx="68.24" ry="18"/>
<text text-anchor="middle" x="1101" y="-620" font-family="Times New Roman,serif" font-size="15.00">Fulfill request</text>
</g>
<!-- 2757338953728&#45;&#45;2757338948496 -->
<g id="edge60" class="edge">
<title>2757338953728&#45;&#45;2757338948496</title>
<path fill="none" stroke="black" d="M772.11,-650.99C827.27,-646.79 956.32,-636.95 1035.08,-630.95"/>
</g>
<!-- 2757338943792 -->
<g id="node65" class="node">
<title>2757338943792</title>
<ellipse fill="none" stroke="black" cx="1101" cy="-572" rx="146.55" ry="18"/>
<text text-anchor="middle" x="1101" y="-566" font-family="Times New Roman,serif" font-size="15.00">Period for supplying missing data</text>
</g>
<!-- 2757338953728&#45;&#45;2757338943792 -->
<g id="edge61" class="edge">
<title>2757338953728&#45;&#45;2757338943792</title>
<path fill="none" stroke="black" d="M770.69,-647.3C823.76,-635.17 949.63,-606.38 1029.48,-588.13"/>
</g>
<!-- 2757338945568 -->
<g id="node66" class="node">
<title>2757338945568</title>
<ellipse fill="none" stroke="black" cx="1101" cy="-518" rx="85.64" ry="18"/>
<text text-anchor="middle" x="1101" y="-512" font-family="Times New Roman,serif" font-size="15.00">Fetch missing data</text>
</g>
<!-- 2757338953728&#45;&#45;2757338945568 -->
<g id="edge62" class="edge">
<title>2757338953728&#45;&#45;2757338945568</title>
<path fill="none" stroke="black" d="M768.75,-644.25C827.31,-621.93 982.88,-562.64 1058.11,-533.97"/>
</g>
<!-- 2757338947728 -->
<g id="node9" class="node">
<title>2757338947728</title>
<ellipse fill="none" stroke="black" cx="1425.49" cy="-815" rx="141.94" ry="18"/>
<text text-anchor="middle" x="1425.49" y="-809" font-family="Times New Roman,serif" font-size="15.00">Normal procedure without MER</text>
</g>
<!-- 2757338950848&#45;&#45;2757338947728 -->
<g id="edge4" class="edge">
<title>2757338950848&#45;&#45;2757338947728</title>
<path fill="none" stroke="black" d="M1128.12,-790.19C1166.65,-793.41 1241.18,-799.65 1305.85,-805.07"/>
</g>
<!-- 2757338946672 -->
<g id="node10" class="node">
<title>2757338946672</title>
<ellipse fill="none" stroke="black" cx="1425.49" cy="-761" rx="27" ry="18"/>
<text text-anchor="middle" x="1425.49" y="-755" font-family="Times New Roman,serif" font-size="15.00">xor</text>
</g>
<!-- 2757338950848&#45;&#45;2757338946672 -->
<g id="edge54" class="edge">
<title>2757338950848&#45;&#45;2757338946672</title>
<path fill="none" stroke="black" d="M1128.12,-785.81C1188.7,-780.74 1338.2,-768.22 1398.58,-763.17"/>
</g>
<!-- 2757338943024 -->
<g id="node11" class="node">
<title>2757338943024</title>
<ellipse fill="none" stroke="black" cx="1630.43" cy="-936" rx="27" ry="18"/>
<text text-anchor="middle" x="1630.43" y="-930" font-family="Times New Roman,serif" font-size="15.00">seq</text>
</g>
<!-- 2757338946672&#45;&#45;2757338943024 -->
<g id="edge17" class="edge">
<title>2757338946672&#45;&#45;2757338943024</title>
<path fill="none" stroke="black" d="M1442.75,-775.03C1480.75,-807.79 1575.01,-889.07 1613.09,-921.91"/>
</g>
<!-- 2757338942448 -->
<g id="node24" class="node">
<title>2757338942448</title>
<ellipse fill="none" stroke="black" cx="1630.43" cy="-585" rx="27" ry="18"/>
<text text-anchor="middle" x="1630.43" y="-579" font-family="Times New Roman,serif" font-size="15.00">seq</text>
</g>
<!-- 2757338946672&#45;&#45;2757338942448 -->
<g id="edge53" class="edge">
<title>2757338946672&#45;&#45;2757338942448</title>
<path fill="none" stroke="black" d="M1442.75,-746.89C1480.75,-713.94 1575.01,-632.19 1613.09,-599.17"/>
</g>
<!-- 2757338955456 -->
<g id="node12" class="node">
<title>2757338955456</title>
<ellipse fill="none" stroke="black" cx="1882.46" cy="-1098" rx="109.19" ry="18"/>
<text text-anchor="middle" x="1882.46" y="-1092" font-family="Times New Roman,serif" font-size="15.00">OLO messaging ongoing</text>
</g>
<!-- 2757338943024&#45;&#45;2757338955456 -->
<g id="edge5" class="edge">
<title>2757338943024&#45;&#45;2757338955456</title>
<path fill="none" stroke="black" d="M1650.63,-948.44C1694.66,-976.97 1802.99,-1047.16 1854.02,-1080.22"/>
</g>
<!-- 2757338954352 -->
<g id="node13" class="node">
<title>2757338954352</title>
<ellipse fill="none" stroke="black" cx="1882.46" cy="-1044" rx="27" ry="18"/>
<text text-anchor="middle" x="1882.46" y="-1038" font-family="Times New Roman,serif" font-size="15.00">xor</text>
</g>
<!-- 2757338943024&#45;&#45;2757338954352 -->
<g id="edge10" class="edge">
<title>2757338943024&#45;&#45;2757338954352</title>
<path fill="none" stroke="black" d="M1653.62,-945.58C1701.07,-966.08 1811.92,-1013.96 1859.32,-1034.44"/>
</g>
<!-- 2757338954064 -->
<g id="node18" class="node">
<title>2757338954064</title>
<ellipse fill="none" stroke="black" cx="1882.46" cy="-990" rx="98.95" ry="18"/>
<text text-anchor="middle" x="1882.46" y="-984" font-family="Times New Roman,serif" font-size="15.00">Applicant is involved</text>
</g>
<!-- 2757338943024&#45;&#45;2757338954064 -->
<g id="edge11" class="edge">
<title>2757338943024&#45;&#45;2757338954064</title>
<path fill="none" stroke="black" d="M1656.32,-941.38C1693.5,-949.4 1764.77,-964.8 1817.21,-976.12"/>
</g>
<!-- 2757338951712 -->
<g id="node19" class="node">
<title>2757338951712</title>
<ellipse fill="none" stroke="black" cx="1882.46" cy="-936" rx="124.03" ry="18"/>
<text text-anchor="middle" x="1882.46" y="-930" font-family="Times New Roman,serif" font-size="15.00">Period application received</text>
</g>
<!-- 2757338943024&#45;&#45;2757338951712 -->
<g id="edge12" class="edge">
<title>2757338943024&#45;&#45;2757338951712</title>
<path fill="none" stroke="black" d="M1657.72,-936C1682.1,-936 1720.25,-936 1758.18,-936"/>
</g>
<!-- 2757338952672 -->
<g id="node20" class="node">
<title>2757338952672</title>
<ellipse fill="none" stroke="black" cx="1882.46" cy="-882" rx="45.21" ry="18"/>
<text text-anchor="middle" x="1882.46" y="-876" font-family="Times New Roman,serif" font-size="15.00">xor loop</text>
</g>
<!-- 2757338943024&#45;&#45;2757338952672 -->
<g id="edge15" class="edge">
<title>2757338943024&#45;&#45;2757338952672</title>
<path fill="none" stroke="black" d="M1656.32,-930.62C1699.8,-921.23 1789.91,-901.77 1841.98,-890.53"/>
</g>
<!-- 2757338941536 -->
<g id="node23" class="node">
<title>2757338941536</title>
<ellipse fill="none" stroke="black" cx="1882.46" cy="-828" rx="138.87" ry="18"/>
<text text-anchor="middle" x="1882.46" y="-822" font-family="Times New Roman,serif" font-size="15.00">Log senddate acknowledgement</text>
</g>
<!-- 2757338943024&#45;&#45;2757338941536 -->
<g id="edge16" class="edge">
<title>2757338943024&#45;&#45;2757338941536</title>
<path fill="none" stroke="black" d="M1653.62,-926.42C1695.69,-908.24 1787.6,-868.54 1840.94,-845.5"/>
</g>
<!-- 2757338951472 -->
<g id="node14" class="node">
<title>2757338951472</title>
<ellipse fill="black" stroke="black" cx="2272.97" cy="-1063" rx="2.7" ry="2.7"/>
</g>
<!-- 2757338954352&#45;&#45;2757338951472 -->
<g id="edge6" class="edge">
<title>2757338954352&#45;&#45;2757338951472</title>
<path fill="none" stroke="black" d="M1909.86,-1045.29C1992.86,-1049.35 2244.56,-1061.66 2269.91,-1062.9"/>
</g>
<!-- 2757338950944 -->
<g id="node15" class="node">
<title>2757338950944</title>
<ellipse fill="none" stroke="black" cx="2272.97" cy="-1024" rx="27" ry="18"/>
<text text-anchor="middle" x="2272.97" y="-1018" font-family="Times New Roman,serif" font-size="15.00">seq</text>
</g>
<!-- 2757338954352&#45;&#45;2757338950944 -->
<g id="edge9" class="edge">
<title>2757338954352&#45;&#45;2757338950944</title>
<path fill="none" stroke="black" d="M1909.86,-1042.64C1980.82,-1038.99 2175.08,-1028.99 2245.79,-1025.35"/>
</g>
<!-- 2757338947344 -->
<g id="node16" class="node">
<title>2757338947344</title>
<ellipse fill="none" stroke="black" cx="2630.22" cy="-1051" rx="136.31" ry="18"/>
<text text-anchor="middle" x="2630.22" y="-1045" font-family="Times New Roman,serif" font-size="15.00">Reception through OLO system</text>
</g>
<!-- 2757338950944&#45;&#45;2757338947344 -->
<g id="edge7" class="edge">
<title>2757338950944&#45;&#45;2757338947344</title>
<path fill="none" stroke="black" d="M2300.09,-1025.99C2344.08,-1029.33 2435.5,-1036.28 2510.85,-1042"/>
</g>
<!-- 2757338946240 -->
<g id="node17" class="node">
<title>2757338946240</title>
<ellipse fill="none" stroke="black" cx="2630.22" cy="-997" rx="98.95" ry="18"/>
<text text-anchor="middle" x="2630.22" y="-991" font-family="Times New Roman,serif" font-size="15.00">WAW permit element</text>
</g>
<!-- 2757338950944&#45;&#45;2757338946240 -->
<g id="edge8" class="edge">
<title>2757338950944&#45;&#45;2757338946240</title>
<path fill="none" stroke="black" d="M2300.09,-1022.01C2349.61,-1018.25 2459.23,-1009.92 2538.38,-1003.9"/>
</g>
<!-- 2757338953584 -->
<g id="node21" class="node">
<title>2757338953584</title>
<ellipse fill="none" stroke="black" cx="2272.97" cy="-901" rx="115.84" ry="18"/>
<text text-anchor="middle" x="2272.97" y="-895" font-family="Times New Roman,serif" font-size="15.00">Issue confirmation receipt</text>
</g>
<!-- 2757338952672&#45;&#45;2757338953584 -->
<g id="edge13" class="edge">
<title>2757338952672&#45;&#45;2757338953584</title>
<path fill="none" stroke="black" d="M1927.65,-884.16C1984.23,-886.93 2084.25,-891.82 2161.95,-895.62"/>
</g>
<!-- 2757338945952 -->
<g id="node22" class="node">
<title>2757338945952</title>
<ellipse fill="black" stroke="black" cx="2272.97" cy="-862" rx="2.7" ry="2.7"/>
</g>
<!-- 2757338952672&#45;&#45;2757338945952 -->
<g id="edge14" class="edge">
<title>2757338952672&#45;&#45;2757338945952</title>
<path fill="none" stroke="black" d="M1927.65,-879.73C2023.91,-874.77 2245.87,-863.34 2269.86,-862.11"/>
</g>
<!-- 2757338948352 -->
<g id="node25" class="node">
<title>2757338948352</title>
<ellipse fill="none" stroke="black" cx="1882.46" cy="-774" rx="27" ry="18"/>
<text text-anchor="middle" x="1882.46" y="-768" font-family="Times New Roman,serif" font-size="15.00">xor</text>
</g>
<!-- 2757338942448&#45;&#45;2757338948352 -->
<g id="edge20" class="edge">
<title>2757338942448&#45;&#45;2757338948352</title>
<path fill="none" stroke="black" d="M1649.01,-598.29C1694.92,-632.99 1818.01,-726.04 1863.9,-760.72"/>
</g>
<!-- 2757338949072 -->
<g id="node28" class="node">
<title>2757338949072</title>
<ellipse fill="none" stroke="black" cx="1882.46" cy="-720" rx="139.89" ry="18"/>
<text text-anchor="middle" x="1882.46" y="-714" font-family="Times New Roman,serif" font-size="15.00">Activities for regular procedure</text>
</g>
<!-- 2757338942448&#45;&#45;2757338949072 -->
<g id="edge21" class="edge">
<title>2757338942448&#45;&#45;2757338949072</title>
<path fill="none" stroke="black" d="M1651.89,-596.05C1695.04,-619.35 1795.72,-673.7 1848.24,-702.06"/>
</g>
<!-- 2757338943888 -->
<g id="node29" class="node">
<title>2757338943888</title>
<ellipse fill="none" stroke="black" cx="1882.46" cy="-666" rx="87.69" ry="18"/>
<text text-anchor="middle" x="1882.46" y="-660" font-family="Times New Roman,serif" font-size="15.00">Phased application</text>
</g>
<!-- 2757338942448&#45;&#45;2757338943888 -->
<g id="edge22" class="edge">
<title>2757338942448&#45;&#45;2757338943888</title>
<path fill="none" stroke="black" d="M1654.95,-592.62C1695.8,-605.85 1780.58,-633.32 1834.04,-650.64"/>
</g>
<!-- 2757338944464 -->
<g id="node30" class="node">
<title>2757338944464</title>
<ellipse fill="none" stroke="black" cx="1882.46" cy="-612" rx="27" ry="18"/>
<text text-anchor="middle" x="1882.46" y="-606" font-family="Times New Roman,serif" font-size="15.00">xor</text>
</g>
<!-- 2757338942448&#45;&#45;2757338944464 -->
<g id="edge27" class="edge">
<title>2757338942448&#45;&#45;2757338944464</title>
<path fill="none" stroke="black" d="M1657.25,-587.79C1705.16,-592.96 1807.32,-603.99 1855.41,-609.19"/>
</g>
<!-- 2757338948832 -->
<g id="node35" class="node">
<title>2757338948832</title>
<ellipse fill="none" stroke="black" cx="1882.46" cy="-558" rx="27" ry="18"/>
<text text-anchor="middle" x="1882.46" y="-552" font-family="Times New Roman,serif" font-size="15.00">xor</text>
</g>
<!-- 2757338942448&#45;&#45;2757338948832 -->
<g id="edge48" class="edge">
<title>2757338942448&#45;&#45;2757338948832</title>
<path fill="none" stroke="black" d="M1657.25,-582.21C1705.16,-577.04 1807.32,-566.01 1855.41,-560.81"/>
</g>
<!-- 2757338940432 -->
<g id="node56" class="node">
<title>2757338940432</title>
<ellipse fill="none" stroke="black" cx="1882.46" cy="-504" rx="128.12" ry="18"/>
<text text-anchor="middle" x="1882.46" y="-498" font-family="Times New Roman,serif" font-size="15.00">Send procedure confirmation</text>
</g>
<!-- 2757338942448&#45;&#45;2757338940432 -->
<g id="edge49" class="edge">
<title>2757338942448&#45;&#45;2757338940432</title>
<path fill="none" stroke="black" d="M1654.95,-577.38C1694.7,-564.5 1776.07,-538.14 1829.68,-520.77"/>
</g>
<!-- 2757338954160 -->
<g id="node57" class="node">
<title>2757338954160</title>
<ellipse fill="none" stroke="black" cx="1882.46" cy="-450" rx="189.03" ry="18"/>
<text text-anchor="middle" x="1882.46" y="-444" font-family="Times New Roman,serif" font-size="15.00">Register date of publishing received request</text>
</g>
<!-- 2757338942448&#45;&#45;2757338954160 -->
<g id="edge50" class="edge">
<title>2757338942448&#45;&#45;2757338954160</title>
<path fill="none" stroke="black" d="M1651.89,-573.95C1694.93,-550.72 1795.17,-496.59 1847.81,-468.17"/>
</g>
<!-- 2757338945328 -->
<g id="node58" class="node">
<title>2757338945328</title>
<ellipse fill="none" stroke="black" cx="1882.46" cy="-396" rx="137.85" ry="18"/>
<text text-anchor="middle" x="1882.46" y="-390" font-family="Times New Roman,serif" font-size="15.00">Process subcases completeness</text>
</g>
<!-- 2757338942448&#45;&#45;2757338945328 -->
<g id="edge51" class="edge">
<title>2757338942448&#45;&#45;2757338945328</title>
<path fill="none" stroke="black" d="M1649.01,-571.71C1692.92,-538.52 1807.43,-451.96 1857.47,-414.13"/>
</g>
<!-- 2757338940624 -->
<g id="node59" class="node">
<title>2757338940624</title>
<ellipse fill="none" stroke="black" cx="1882.46" cy="-342" rx="127.1" ry="18"/>
<text text-anchor="middle" x="1882.46" y="-336" font-family="Times New Roman,serif" font-size="15.00">Subcases completeness done</text>
</g>
<!-- 2757338942448&#45;&#45;2757338940624 -->
<g id="edge52" class="edge">
<title>2757338942448&#45;&#45;2757338940624</title>
<path fill="none" stroke="black" d="M1646.69,-570.17C1690.27,-527.81 1815.16,-406.43 1862.74,-360.19"/>
</g>
<!-- 2757338942592 -->
<g id="node26" class="node">
<title>2757338942592</title>
<ellipse fill="none" stroke="black" cx="2272.97" cy="-789" rx="61.08" ry="18"/>
<text text-anchor="middle" x="2272.97" y="-783" font-family="Times New Roman,serif" font-size="15.00">MER shown</text>
</g>
<!-- 2757338948352&#45;&#45;2757338942592 -->
<g id="edge18" class="edge">
<title>2757338948352&#45;&#45;2757338942592</title>
<path fill="none" stroke="black" d="M1909.86,-775.02C1971.51,-777.4 2126.24,-783.37 2212.15,-786.69"/>
</g>
<!-- 2757338942112 -->
<g id="node27" class="node">
<title>2757338942112</title>
<ellipse fill="none" stroke="black" cx="2272.97" cy="-735" rx="131.19" ry="18"/>
<text text-anchor="middle" x="2272.97" y="-729" font-family="Times New Roman,serif" font-size="15.00">Environmental Report needed</text>
</g>
<!-- 2757338948352&#45;&#45;2757338942112 -->
<g id="edge19" class="edge">
<title>2757338948352&#45;&#45;2757338942112</title>
<path fill="none" stroke="black" d="M1909.55,-771.38C1961.1,-766.21 2078.57,-754.41 2165.87,-745.65"/>
</g>
<!-- 2757338955024 -->
<g id="node31" class="node">
<title>2757338955024</title>
<ellipse fill="none" stroke="black" cx="2272.97" cy="-666" rx="134.78" ry="18"/>
<text text-anchor="middle" x="2272.97" y="-660" font-family="Times New Roman,serif" font-size="15.00">Create procedure confirmation</text>
</g>
<!-- 2757338944464&#45;&#45;2757338955024 -->
<g id="edge23" class="edge">
<title>2757338944464&#45;&#45;2757338955024</title>
<path fill="none" stroke="black" d="M1909.25,-615.58C1963.06,-623.06 2089.62,-640.65 2178,-652.94"/>
</g>
<!-- 2757338954736 -->
<g id="node32" class="node">
<title>2757338954736</title>
<ellipse fill="none" stroke="black" cx="2272.97" cy="-612" rx="27" ry="18"/>
<text text-anchor="middle" x="2272.97" y="-606" font-family="Times New Roman,serif" font-size="15.00">seq</text>
</g>
<!-- 2757338944464&#45;&#45;2757338954736 -->
<g id="edge26" class="edge">
<title>2757338944464&#45;&#45;2757338954736</title>
<path fill="none" stroke="black" d="M1909.86,-612C1980.73,-612 2174.62,-612 2245.54,-612"/>
</g>
<!-- 2757338951568 -->
<g id="node33" class="node">
<title>2757338951568</title>
<ellipse fill="none" stroke="black" cx="2630.22" cy="-666" rx="94.86" ry="18"/>
<text text-anchor="middle" x="2630.22" y="-660" font-family="Times New Roman,serif" font-size="15.00">First or second stage</text>
</g>
<!-- 2757338954736&#45;&#45;2757338951568 -->
<g id="edge24" class="edge">
<title>2757338954736&#45;&#45;2757338951568</title>
<path fill="none" stroke="black" d="M2299.81,-615.93C2352.73,-623.97 2475.21,-642.59 2555,-654.72"/>
</g>
<!-- 2757338950608 -->
<g id="node34" class="node">
<title>2757338950608</title>
<ellipse fill="none" stroke="black" cx="2630.22" cy="-612" rx="121.98" ry="18"/>
<text text-anchor="middle" x="2630.22" y="-606" font-family="Times New Roman,serif" font-size="15.00">Duration of 14 or 26 weeks</text>
</g>
<!-- 2757338954736&#45;&#45;2757338950608 -->
<g id="edge25" class="edge">
<title>2757338954736&#45;&#45;2757338950608</title>
<path fill="none" stroke="black" d="M2300.38,-612C2343.88,-612 2433.2,-612 2507.78,-612"/>
</g>
<!-- 2757338952048 -->
<g id="node36" class="node">
<title>2757338952048</title>
<ellipse fill="none" stroke="black" cx="2272.97" cy="-558" rx="165.48" ry="18"/>
<text text-anchor="middle" x="2272.97" y="-552" font-family="Times New Roman,serif" font-size="15.00">Record senddate retrieve missing data</text>
</g>
<!-- 2757338948832&#45;&#45;2757338952048 -->
<g id="edge28" class="edge">
<title>2757338948832&#45;&#45;2757338952048</title>
<path fill="none" stroke="black" d="M1909.86,-558C1950.59,-558 2031.95,-558 2107.25,-558"/>
</g>
<!-- 2757338952288 -->
<g id="node37" class="node">
<title>2757338952288</title>
<ellipse fill="none" stroke="black" cx="2272.97" cy="-369" rx="27" ry="18"/>
<text text-anchor="middle" x="2272.97" y="-363" font-family="Times New Roman,serif" font-size="15.00">seq</text>
</g>
<!-- 2757338948832&#45;&#45;2757338952288 -->
<g id="edge47" class="edge">
<title>2757338948832&#45;&#45;2757338952288</title>
<path fill="none" stroke="black" d="M1904.9,-547.57C1972.83,-514.53 2182.76,-412.4 2250.6,-379.4"/>
</g>
<!-- 2757338948016 -->
<g id="node38" class="node">
<title>2757338948016</title>
<ellipse fill="none" stroke="black" cx="2630.22" cy="-558" rx="50.84" ry="18"/>
<text text-anchor="middle" x="2630.22" y="-552" font-family="Times New Roman,serif" font-size="15.00">Announce</text>
</g>
<!-- 2757338952288&#45;&#45;2757338948016 -->
<g id="edge29" class="edge">
<title>2757338952288&#45;&#45;2757338948016</title>
<path fill="none" stroke="black" d="M2294.87,-380.12C2355.55,-412.4 2531.83,-506.19 2600.95,-542.96"/>
</g>
<!-- 2757338946912 -->
<g id="node39" class="node">
<title>2757338946912</title>
<ellipse fill="none" stroke="black" cx="2630.22" cy="-504" rx="132.73" ry="18"/>
<text text-anchor="middle" x="2630.22" y="-498" font-family="Times New Roman,serif" font-size="15.00">Create subcases completeness</text>
</g>
<!-- 2757338952288&#45;&#45;2757338946912 -->
<g id="edge30" class="edge">
<title>2757338952288&#45;&#45;2757338946912</title>
<path fill="none" stroke="black" d="M2297.01,-377.75C2354.89,-399.75 2507.29,-457.66 2583.89,-486.78"/>
</g>
<!-- 2757338946624 -->
<g id="node40" class="node">
<title>2757338946624</title>
<ellipse fill="none" stroke="black" cx="2630.22" cy="-450" rx="155.76" ry="18"/>
<text text-anchor="middle" x="2630.22" y="-444" font-family="Times New Roman,serif" font-size="15.00">Create letter to request missing data</text>
</g>
<!-- 2757338952288&#45;&#45;2757338946624 -->
<g id="edge31" class="edge">
<title>2757338952288&#45;&#45;2757338946624</title>
<path fill="none" stroke="black" d="M2298.95,-374.7C2351.94,-386.78 2477.29,-415.36 2557.42,-433.63"/>
</g>
<!-- 2757338946048 -->
<g id="node41" class="node">
<title>2757338946048</title>
<ellipse fill="none" stroke="black" cx="2630.22" cy="-396" rx="148.08" ry="18"/>
<text text-anchor="middle" x="2630.22" y="-390" font-family="Times New Roman,serif" font-size="15.00">Phase requested more information</text>
</g>
<!-- 2757338952288&#45;&#45;2757338946048 -->
<g id="edge32" class="edge">
<title>2757338952288&#45;&#45;2757338946048</title>
<path fill="none" stroke="black" d="M2300.09,-370.99C2342.63,-374.22 2429.56,-380.83 2503.39,-386.44"/>
</g>
<!-- 2757338944944 -->
<g id="node42" class="node">
<title>2757338944944</title>
<ellipse fill="none" stroke="black" cx="2630.22" cy="-342" rx="117.89" ry="18"/>
<text text-anchor="middle" x="2630.22" y="-336" font-family="Times New Roman,serif" font-size="15.00">Initiate phased application</text>
</g>
<!-- 2757338952288&#45;&#45;2757338944944 -->
<g id="edge33" class="edge">
<title>2757338952288&#45;&#45;2757338944944</title>
<path fill="none" stroke="black" d="M2300.09,-367.01C2346.64,-363.48 2446.32,-355.9 2523.85,-350.01"/>
</g>
<!-- 2757338944560 -->
<g id="node43" class="node">
<title>2757338944560</title>
<ellipse fill="none" stroke="black" cx="2630.22" cy="-288" rx="133.24" ry="18"/>
<text text-anchor="middle" x="2630.22" y="-282" font-family="Times New Roman,serif" font-size="15.00">View field phased application</text>
</g>
<!-- 2757338952288&#45;&#45;2757338944560 -->
<g id="edge34" class="edge">
<title>2757338952288&#45;&#45;2757338944560</title>
<path fill="none" stroke="black" d="M2298.95,-363.3C2352.57,-351.08 2480.29,-321.96 2560.27,-303.72"/>
</g>
<!-- 2757338943408 -->
<g id="node44" class="node">
<title>2757338943408</title>
<ellipse fill="none" stroke="black" cx="2630.22" cy="-234" rx="103.56" ry="18"/>
<text text-anchor="middle" x="2630.22" y="-228" font-family="Times New Roman,serif" font-size="15.00">Start WABOprocedure</text>
</g>
<!-- 2757338952288&#45;&#45;2757338943408 -->
<g id="edge35" class="edge">
<title>2757338952288&#45;&#45;2757338943408</title>
<path fill="none" stroke="black" d="M2297.01,-360.25C2355.28,-338.1 2509.31,-279.57 2585.41,-250.65"/>
</g>
<!-- 2757338942688 -->
<g id="node45" class="node">
<title>2757338942688</title>
<ellipse fill="none" stroke="black" cx="2630.22" cy="-180" rx="27" ry="18"/>
<text text-anchor="middle" x="2630.22" y="-174" font-family="Times New Roman,serif" font-size="15.00">and</text>
</g>
<!-- 2757338952288&#45;&#45;2757338942688 -->
<g id="edge38" class="edge">
<title>2757338952288&#45;&#45;2757338942688</title>
<path fill="none" stroke="black" d="M2294.87,-357.88C2357.93,-324.33 2545.84,-224.36 2608.57,-190.98"/>
</g>
<!-- 2757338941728 -->
<g id="node48" class="node">
<title>2757338941728</title>
<ellipse fill="none" stroke="black" cx="2630.22" cy="-126" rx="27" ry="18"/>
<text text-anchor="middle" x="2630.22" y="-120" font-family="Times New Roman,serif" font-size="15.00">xor</text>
</g>
<!-- 2757338952288&#45;&#45;2757338941728 -->
<g id="edge46" class="edge">
<title>2757338952288&#45;&#45;2757338941728</title>
<path fill="none" stroke="black" d="M2292.57,-356.28C2353.96,-314.29 2549.68,-180.4 2610.8,-138.6"/>
</g>
<!-- 2757338955600 -->
<g id="node46" class="node">
<title>2757338955600</title>
<ellipse fill="none" stroke="black" cx="3010.49" cy="-234" rx="188.52" ry="18"/>
<text text-anchor="middle" x="3010.49" y="-228" font-family="Times New Roman,serif" font-size="15.00">Document date termination request received</text>
</g>
<!-- 2757338942688&#45;&#45;2757338955600 -->
<g id="edge36" class="edge">
<title>2757338942688&#45;&#45;2757338955600</title>
<path fill="none" stroke="black" d="M2656.92,-183.67C2706.64,-190.77 2818.53,-206.74 2903.02,-218.8"/>
</g>
<!-- 2757338942976 -->
<g id="node47" class="node">
<title>2757338942976</title>
<ellipse fill="none" stroke="black" cx="3010.49" cy="-180" rx="161.39" ry="18"/>
<text text-anchor="middle" x="3010.49" y="-174" font-family="Times New Roman,serif" font-size="15.00">Log senddate procedure confirmation</text>
</g>
<!-- 2757338942688&#45;&#45;2757338942976 -->
<g id="edge37" class="edge">
<title>2757338942688&#45;&#45;2757338942976</title>
<path fill="none" stroke="black" d="M2657.52,-180C2697.31,-180 2775.92,-180 2848.77,-180"/>
</g>
<!-- 2757338946480 -->
<g id="node49" class="node">
<title>2757338946480</title>
<ellipse fill="none" stroke="black" cx="3010.49" cy="-126" rx="103.04" ry="18"/>
<text text-anchor="middle" x="3010.49" y="-120" font-family="Times New Roman,serif" font-size="15.00">grant temporary permit</text>
</g>
<!-- 2757338941728&#45;&#45;2757338946480 -->
<g id="edge39" class="edge">
<title>2757338941728&#45;&#45;2757338946480</title>
<path fill="none" stroke="black" d="M2657.52,-126C2708.37,-126 2822.61,-126 2907.22,-126"/>
</g>
<!-- 2757338946816 -->
<g id="node50" class="node">
<title>2757338946816</title>
<ellipse fill="none" stroke="black" cx="3010.49" cy="-72" rx="27" ry="18"/>
<text text-anchor="middle" x="3010.49" y="-66" font-family="Times New Roman,serif" font-size="15.00">seq</text>
</g>
<!-- 2757338941728&#45;&#45;2757338946816 -->
<g id="edge45" class="edge">
<title>2757338941728&#45;&#45;2757338946816</title>
<path fill="none" stroke="black" d="M2656.92,-122.33C2725.93,-112.48 2914.7,-85.53 2983.75,-75.67"/>
</g>
<!-- 2757338944752 -->
<g id="node51" class="node">
<title>2757338944752</title>
<ellipse fill="none" stroke="black" cx="3413.29" cy="-126" rx="130.68" ry="18"/>
<text text-anchor="middle" x="3413.29" y="-120" font-family="Times New Roman,serif" font-size="15.00">Log termination decision date</text>
</g>
<!-- 2757338946816&#45;&#45;2757338944752 -->
<g id="edge40" class="edge">
<title>2757338946816&#45;&#45;2757338944752</title>
<path fill="none" stroke="black" d="M3037.48,-75.5C3093.16,-83 3226.35,-100.95 3317.97,-113.29"/>
</g>
<!-- 2757338939856 -->
<g id="node52" class="node">
<title>2757338939856</title>
<ellipse fill="none" stroke="black" cx="3413.29" cy="-72" rx="27" ry="18"/>
<text text-anchor="middle" x="3413.29" y="-66" font-family="Times New Roman,serif" font-size="15.00">xor</text>
</g>
<!-- 2757338946816&#45;&#45;2757338939856 -->
<g id="edge43" class="edge">
<title>2757338946816&#45;&#45;2757338939856</title>
<path fill="none" stroke="black" d="M3037.79,-72C3110.41,-72 3313.16,-72 3385.89,-72"/>
</g>
<!-- 2757338954208 -->
<g id="node55" class="node">
<title>2757338954208</title>
<ellipse fill="none" stroke="black" cx="3413.29" cy="-18" rx="178.28" ry="18"/>
<text text-anchor="middle" x="3413.29" y="-12" font-family="Times New Roman,serif" font-size="15.00">Record senddate for confirmation request</text>
</g>
<!-- 2757338946816&#45;&#45;2757338954208 -->
<g id="edge44" class="edge">
<title>2757338946816&#45;&#45;2757338954208</title>
<path fill="none" stroke="black" d="M3037.48,-68.5C3090.39,-61.37 3213.27,-44.81 3303.98,-32.59"/>
</g>
<!-- 2757338951616 -->
<g id="node53" class="node">
<title>2757338951616</title>
<ellipse fill="none" stroke="black" cx="3801.75" cy="-99" rx="174.19" ry="18"/>
<text text-anchor="middle" x="3801.75" y="-93" font-family="Times New Roman,serif" font-size="15.00">cease activities after request termination</text>
</g>
<!-- 2757338939856&#45;&#45;2757338951616 -->
<g id="edge41" class="edge">
<title>2757338939856&#45;&#45;2757338951616</title>
<path fill="none" stroke="black" d="M3440.55,-73.83C3484.55,-76.91 3576.21,-83.31 3656.05,-88.89"/>
</g>
<!-- 2757338951904 -->
<g id="node54" class="node">
<title>2757338951904</title>
<ellipse fill="none" stroke="black" cx="3801.75" cy="-45" rx="88.71" ry="18"/>
<text text-anchor="middle" x="3801.75" y="-39" font-family="Times New Roman,serif" font-size="15.00">Document deadline</text>
</g>
<!-- 2757338939856&#45;&#45;2757338951904 -->
<g id="edge42" class="edge">
<title>2757338939856&#45;&#45;2757338951904</title>
<path fill="none" stroke="black" d="M3440.55,-70.17C3496.53,-66.25 3629.64,-56.95 3717.42,-50.82"/>
</g>
<!-- 2757338944320 -->
<g id="node62" class="node">
<title>2757338944320</title>
<ellipse fill="black" stroke="black" cx="1425.49" cy="-699" rx="2.7" ry="2.7"/>
</g>
<!-- 2757338948256&#45;&#45;2757338944320 -->
<g id="edge57" class="edge">
<title>2757338948256&#45;&#45;2757338944320</title>
<path fill="none" stroke="black" d="M1128.39,-681.55C1201.2,-685.84 1400.95,-697.61 1422.58,-698.89"/>
</g>
<!-- 2757338949456 -->
<g id="node63" class="node">
<title>2757338949456</title>
<ellipse fill="none" stroke="black" cx="1425.49" cy="-660" rx="124.54" ry="18"/>
<text text-anchor="middle" x="1425.49" y="-654" font-family="Times New Roman,serif" font-size="15.00">multiple components chosen</text>
</g>
<!-- 2757338948256&#45;&#45;2757338949456 -->
<g id="edge58" class="edge">
<title>2757338948256&#45;&#45;2757338949456</title>
<path fill="none" stroke="black" d="M1128.39,-678.36C1167.88,-675.91 1244.71,-671.15 1310.21,-667.09"/>
</g>
<!-- 2757338955744 -->
<g id="node68" class="node">
<title>2757338955744</title>
<ellipse fill="none" stroke="black" cx="469.94" cy="-626" rx="54.93" ry="18"/>
<text text-anchor="middle" x="469.94" y="-620" font-family="Times New Roman,serif" font-size="15.00">Pause term</text>
</g>
<!-- 2757338944848&#45;&#45;2757338955744 -->
<g id="edge66" class="edge">
<title>2757338944848&#45;&#45;2757338955744</title>
<path fill="none" stroke="black" d="M255.46,-577.68C295.42,-586.72 374.09,-604.53 423.96,-615.82"/>
</g>
<!-- 2757338939664 -->
<g id="node69" class="node">
<title>2757338939664</title>
<ellipse fill="none" stroke="black" cx="469.94" cy="-572" rx="65.17" ry="18"/>
<text text-anchor="middle" x="469.94" y="-566" font-family="Times New Roman,serif" font-size="15.00">Close the file</text>
</g>
<!-- 2757338944848&#45;&#45;2757338939664 -->
<g id="edge67" class="edge">
<title>2757338944848&#45;&#45;2757338939664</title>
<path fill="none" stroke="black" d="M256.82,-572C292.25,-572 356.25,-572 404.72,-572"/>
</g>
<!-- 2757338944080 -->
<g id="node70" class="node">
<title>2757338944080</title>
<ellipse fill="none" stroke="black" cx="469.94" cy="-518" rx="27" ry="18"/>
<text text-anchor="middle" x="469.94" y="-512" font-family="Times New Roman,serif" font-size="15.00">seq</text>
</g>
<!-- 2757338944848&#45;&#45;2757338944080 -->
<g id="edge70" class="edge">
<title>2757338944848&#45;&#45;2757338944080</title>
<path fill="none" stroke="black" d="M255.46,-566.32C301.28,-555.95 398,-534.06 443.83,-523.68"/>
</g>
<!-- 2757338953488 -->
<g id="node73" class="node">
<title>2757338953488</title>
<ellipse fill="none" stroke="black" cx="469.94" cy="-437" rx="27" ry="18"/>
<text text-anchor="middle" x="469.94" y="-431" font-family="Times New Roman,serif" font-size="15.00">seq</text>
</g>
<!-- 2757338944848&#45;&#45;2757338953488 -->
<g id="edge74" class="edge">
<title>2757338944848&#45;&#45;2757338953488</title>
<path fill="none" stroke="black" d="M250.72,-560.49C295.79,-534.98 403.63,-473.96 448.65,-448.48"/>
</g>
<!-- 2757338939952 -->
<g id="node71" class="node">
<title>2757338939952</title>
<ellipse fill="none" stroke="black" cx="744.78" cy="-572" rx="173.67" ry="18"/>
<text text-anchor="middle" x="744.78" y="-566" font-family="Times New Roman,serif" font-size="15.00">Procedure phase terminated prematurely</text>
</g>
<!-- 2757338944080&#45;&#45;2757338939952 -->
<g id="edge68" class="edge">
<title>2757338944080&#45;&#45;2757338939952</title>
<path fill="none" stroke="black" d="M496.11,-522.98C533.45,-530.37 605.18,-544.57 661.87,-555.79"/>
</g>
<!-- 2757338950032 -->
<g id="node72" class="node">
<title>2757338950032</title>
<ellipse fill="none" stroke="black" cx="744.78" cy="-518" rx="155.25" ry="18"/>
<text text-anchor="middle" x="744.78" y="-512" font-family="Times New Roman,serif" font-size="15.00">Generate terminate request message</text>
</g>
<!-- 2757338944080&#45;&#45;2757338950032 -->
<g id="edge69" class="edge">
<title>2757338944080&#45;&#45;2757338950032</title>
<path fill="none" stroke="black" d="M497.1,-518C519.37,-518 553.36,-518 589.05,-518"/>
</g>
<!-- 2757338940336 -->
<g id="node74" class="node">
<title>2757338940336</title>
<ellipse fill="none" stroke="black" cx="744.78" cy="-464" rx="123" ry="18"/>
<text text-anchor="middle" x="744.78" y="-458" font-family="Times New Roman,serif" font-size="15.00">Gain additional information</text>
</g>
<!-- 2757338953488&#45;&#45;2757338940336 -->
<g id="edge71" class="edge">
<title>2757338953488&#45;&#45;2757338940336</title>
<path fill="none" stroke="black" d="M497.1,-439.59C530.31,-442.88 589.56,-448.74 641.67,-453.9"/>
</g>
<!-- 2757338953248 -->
<g id="node75" class="node">
<title>2757338953248</title>
<ellipse fill="none" stroke="black" cx="744.78" cy="-410" rx="134.78" ry="18"/>
<text text-anchor="middle" x="744.78" y="-404" font-family="Times New Roman,serif" font-size="15.00">Remain indefinitely suspended</text>
</g>
<!-- 2757338953488&#45;&#45;2757338953248 -->
<g id="edge72" class="edge">
<title>2757338953488&#45;&#45;2757338953248</title>
<path fill="none" stroke="black" d="M497.1,-434.41C528.91,-431.26 584.61,-425.75 635.04,-420.76"/>
</g>
<!-- 2757338941200 -->
<g id="node76" class="node">
<title>2757338941200</title>
<ellipse fill="none" stroke="black" cx="744.78" cy="-356" rx="172.65" ry="18"/>
<text text-anchor="middle" x="744.78" y="-350" font-family="Times New Roman,serif" font-size="15.00">Creating permanent suspension decision</text>
</g>
<!-- 2757338953488&#45;&#45;2757338941200 -->
<g id="edge73" class="edge">
<title>2757338953488&#45;&#45;2757338941200</title>
<path fill="none" stroke="black" d="M495.15,-429.81C537.53,-417.23 626.29,-390.88 685.47,-373.31"/>
</g>
</g>
</svg>
