<?xml version="1.0" encoding="UTF-8" standalone="no"?>
<!DOCTYPE svg PUBLIC "-//W3C//DTD SVG 1.1//EN"
 "http://www.w3.org/Graphics/SVG/1.1/DTD/svg11.dtd">
<!-- Generated by graphviz version 11.0.0 (20240428.1522)
 -->
<!-- Title: pt Pages: 1 -->
<svg width="2068pt" height="1202pt"
 viewBox="0.00 0.00 2068.30 1202.00" xmlns="http://www.w3.org/2000/svg" xmlns:xlink="http://www.w3.org/1999/xlink">
<g id="graph0" class="graph" transform="scale(1 1) rotate(0) translate(4 1198)">
<title>pt</title>
<polygon fill="white" stroke="none" points="-4,4 -4,-1198 2064.3,-1198 2064.3,4 -4,4"/>
<!-- 2757336170032 -->
<g id="node1" class="node">
<title>2757336170032</title>
<ellipse fill="none" stroke="black" cx="27" cy="-825" rx="27" ry="18"/>
<text text-anchor="middle" x="27" y="-819" font-family="Times New Roman,serif" font-size="15.00">seq</text>
</g>
<!-- 2757336165760 -->
<g id="node2" class="node">
<title>2757336165760</title>
<ellipse fill="none" stroke="black" cx="232.45" cy="-1176" rx="139.38" ry="18"/>
<text text-anchor="middle" x="232.45" y="-1170" font-family="Times New Roman,serif" font-size="15.00">Record submission date request</text>
</g>
<!-- 2757336170032&#45;&#45;2757336165760 -->
<g id="edge1" class="edge">
<title>2757336170032&#45;&#45;2757336165760</title>
<path fill="none" stroke="black" d="M37.81,-841.93C71.94,-900.81 185.33,-1096.42 220.77,-1157.57"/>
</g>
<!-- 2757336168352 -->
<g id="node3" class="node">
<title>2757336168352</title>
<ellipse fill="none" stroke="black" cx="232.45" cy="-1122" rx="27" ry="18"/>
<text text-anchor="middle" x="232.45" y="-1116" font-family="Times New Roman,serif" font-size="15.00">xor</text>
</g>
<!-- 2757336170032&#45;&#45;2757336168352 -->
<g id="edge4" class="edge">
<title>2757336170032&#45;&#45;2757336168352</title>
<path fill="none" stroke="black" d="M39.23,-841.39C74.8,-893.32 184.74,-1053.8 220.26,-1105.66"/>
</g>
<!-- 2757336154912 -->
<g id="node6" class="node">
<title>2757336154912</title>
<ellipse fill="none" stroke="black" cx="232.45" cy="-1068" rx="109.19" ry="18"/>
<text text-anchor="middle" x="232.45" y="-1062" font-family="Times New Roman,serif" font-size="15.00">OLO messaging ongoing</text>
</g>
<!-- 2757336170032&#45;&#45;2757336154912 -->
<g id="edge5" class="edge">
<title>2757336170032&#45;&#45;2757336154912</title>
<path fill="none" stroke="black" d="M41.04,-840.57C77.08,-883.62 177.96,-1004.11 216.36,-1049.97"/>
</g>
<!-- 2757336164656 -->
<g id="node7" class="node">
<title>2757336164656</title>
<ellipse fill="none" stroke="black" cx="232.45" cy="-1014" rx="98.95" ry="18"/>
<text text-anchor="middle" x="232.45" y="-1008" font-family="Times New Roman,serif" font-size="15.00">Applicant is involved</text>
</g>
<!-- 2757336170032&#45;&#45;2757336164656 -->
<g id="edge6" class="edge">
<title>2757336170032&#45;&#45;2757336164656</title>
<path fill="none" stroke="black" d="M43.63,-839.52C80.38,-873.66 172.22,-958.97 212.27,-996.18"/>
</g>
<!-- 2757336167392 -->
<g id="node8" class="node">
<title>2757336167392</title>
<ellipse fill="none" stroke="black" cx="232.45" cy="-960" rx="124.03" ry="18"/>
<text text-anchor="middle" x="232.45" y="-954" font-family="Times New Roman,serif" font-size="15.00">Period application received</text>
</g>
<!-- 2757336170032&#45;&#45;2757336167392 -->
<g id="edge7" class="edge">
<title>2757336170032&#45;&#45;2757336167392</title>
<path fill="none" stroke="black" d="M46.78,-837.46C82.98,-861.48 162.54,-914.28 204.44,-942.07"/>
</g>
<!-- 2757336159712 -->
<g id="node9" class="node">
<title>2757336159712</title>
<ellipse fill="none" stroke="black" cx="232.45" cy="-906" rx="27" ry="18"/>
<text text-anchor="middle" x="232.45" y="-900" font-family="Times New Roman,serif" font-size="15.00">xor</text>
</g>
<!-- 2757336170032&#45;&#45;2757336159712 -->
<g id="edge10" class="edge">
<title>2757336170032&#45;&#45;2757336159712</title>
<path fill="none" stroke="black" d="M50.55,-833.98C89.66,-849.55 169.62,-881.38 208.8,-896.98"/>
</g>
<!-- 2757336161344 -->
<g id="node12" class="node">
<title>2757336161344</title>
<ellipse fill="none" stroke="black" cx="232.45" cy="-852" rx="45.21" ry="18"/>
<text text-anchor="middle" x="232.45" y="-846" font-family="Times New Roman,serif" font-size="15.00">xor loop</text>
</g>
<!-- 2757336170032&#45;&#45;2757336161344 -->
<g id="edge17" class="edge">
<title>2757336170032&#45;&#45;2757336161344</title>
<path fill="none" stroke="black" d="M53.77,-828.42C87.88,-832.95 148.46,-840.99 189.28,-846.4"/>
</g>
<!-- 2757336159616 -->
<g id="node19" class="node">
<title>2757336159616</title>
<ellipse fill="none" stroke="black" cx="232.45" cy="-798" rx="27" ry="18"/>
<text text-anchor="middle" x="232.45" y="-792" font-family="Times New Roman,serif" font-size="15.00">xor</text>
</g>
<!-- 2757336170032&#45;&#45;2757336159616 -->
<g id="edge22" class="edge">
<title>2757336170032&#45;&#45;2757336159616</title>
<path fill="none" stroke="black" d="M53.77,-821.58C92.8,-816.4 166.48,-806.62 205.57,-801.43"/>
</g>
<!-- 2757336154864 -->
<g id="node24" class="node">
<title>2757336154864</title>
<ellipse fill="none" stroke="black" cx="232.45" cy="-744" rx="27" ry="18"/>
<text text-anchor="middle" x="232.45" y="-738" font-family="Times New Roman,serif" font-size="15.00">xor</text>
</g>
<!-- 2757336170032&#45;&#45;2757336154864 -->
<g id="edge25" class="edge">
<title>2757336170032&#45;&#45;2757336154864</title>
<path fill="none" stroke="black" d="M50.55,-816.02C89.66,-800.45 169.62,-768.62 208.8,-753.02"/>
</g>
<!-- 2757336164608 -->
<g id="node27" class="node">
<title>2757336164608</title>
<ellipse fill="none" stroke="black" cx="232.45" cy="-685" rx="27" ry="18"/>
<text text-anchor="middle" x="232.45" y="-679" font-family="Times New Roman,serif" font-size="15.00">xor</text>
</g>
<!-- 2757336170032&#45;&#45;2757336164608 -->
<g id="edge32" class="edge">
<title>2757336170032&#45;&#45;2757336164608</title>
<path fill="none" stroke="black" d="M46.41,-812.33C85.05,-785.74 174.21,-724.39 212.93,-697.74"/>
</g>
<!-- 2757336157024 -->
<g id="node34" class="node">
<title>2757336157024</title>
<ellipse fill="none" stroke="black" cx="232.45" cy="-631" rx="142.45" ry="18"/>
<text text-anchor="middle" x="232.45" y="-625" font-family="Times New Roman,serif" font-size="15.00">Direct to the competent authority</text>
</g>
<!-- 2757336170032&#45;&#45;2757336157024 -->
<g id="edge33" class="edge">
<title>2757336170032&#45;&#45;2757336157024</title>
<path fill="none" stroke="black" d="M43.29,-810.42C79.89,-775.52 172.43,-687.28 212.49,-649.08"/>
</g>
<!-- 2757336170272 -->
<g id="node35" class="node">
<title>2757336170272</title>
<ellipse fill="none" stroke="black" cx="232.45" cy="-573" rx="27" ry="18"/>
<text text-anchor="middle" x="232.45" y="-567" font-family="Times New Roman,serif" font-size="15.00">xor</text>
</g>
<!-- 2757336170032&#45;&#45;2757336170272 -->
<g id="edge38" class="edge">
<title>2757336170032&#45;&#45;2757336170272</title>
<path fill="none" stroke="black" d="M40.73,-809.24C77.26,-763.98 182.2,-634.01 218.73,-588.76"/>
</g>
<!-- 2757336164272 -->
<g id="node40" class="node">
<title>2757336164272</title>
<ellipse fill="none" stroke="black" cx="232.45" cy="-492" rx="27" ry="18"/>
<text text-anchor="middle" x="232.45" y="-486" font-family="Times New Roman,serif" font-size="15.00">xor</text>
</g>
<!-- 2757336170032&#45;&#45;2757336164272 -->
<g id="edge41" class="edge">
<title>2757336170032&#45;&#45;2757336164272</title>
<path fill="none" stroke="black" d="M38.09,-808.49C72.73,-751.79 186.57,-565.46 221.3,-508.61"/>
</g>
<!-- 2757336162352 -->
<g id="node43" class="node">
<title>2757336162352</title>
<ellipse fill="none" stroke="black" cx="232.45" cy="-369" rx="27" ry="18"/>
<text text-anchor="middle" x="232.45" y="-363" font-family="Times New Roman,serif" font-size="15.00">xor</text>
</g>
<!-- 2757336170032&#45;&#45;2757336162352 -->
<g id="edge63" class="edge">
<title>2757336170032&#45;&#45;2757336162352</title>
<path fill="none" stroke="black" d="M35.73,-807.68C67.95,-735.45 191.48,-458.6 223.72,-386.34"/>
</g>
<!-- 2757336160000 -->
<g id="node4" class="node">
<title>2757336160000</title>
<ellipse fill="black" stroke="black" cx="572.3" cy="-1142" rx="2.7" ry="2.7"/>
</g>
<!-- 2757336168352&#45;&#45;2757336160000 -->
<g id="edge2" class="edge">
<title>2757336168352&#45;&#45;2757336160000</title>
<path fill="none" stroke="black" d="M259.68,-1123.55C334.72,-1127.99 546.35,-1140.52 569.28,-1141.88"/>
</g>
<!-- 2757336157648 -->
<g id="node5" class="node">
<title>2757336157648</title>
<ellipse fill="none" stroke="black" cx="572.3" cy="-1103" rx="161.39" ry="18"/>
<text text-anchor="middle" x="572.3" y="-1097" font-family="Times New Roman,serif" font-size="15.00">Log senddate procedure confirmation</text>
</g>
<!-- 2757336168352&#45;&#45;2757336157648 -->
<g id="edge3" class="edge">
<title>2757336168352&#45;&#45;2757336157648</title>
<path fill="none" stroke="black" d="M259.68,-1120.52C295.88,-1118.49 363.88,-1114.67 427.13,-1111.11"/>
</g>
<!-- 2757336156688 -->
<g id="node10" class="node">
<title>2757336156688</title>
<ellipse fill="black" stroke="black" cx="572.3" cy="-992" rx="2.7" ry="2.7"/>
</g>
<!-- 2757336159712&#45;&#45;2757336156688 -->
<g id="edge8" class="edge">
<title>2757336159712&#45;&#45;2757336156688</title>
<path fill="none" stroke="black" d="M258.3,-912.32C332.05,-931.1 546.07,-985.58 569.25,-991.48"/>
</g>
<!-- 2757336155680 -->
<g id="node11" class="node">
<title>2757336155680</title>
<ellipse fill="none" stroke="black" cx="572.3" cy="-953" rx="136.31" ry="18"/>
<text text-anchor="middle" x="572.3" y="-947" font-family="Times New Roman,serif" font-size="15.00">Reception through OLO system</text>
</g>
<!-- 2757336159712&#45;&#45;2757336155680 -->
<g id="edge9" class="edge">
<title>2757336159712&#45;&#45;2757336155680</title>
<path fill="none" stroke="black" d="M259.4,-909.61C305.29,-915.99 402.89,-929.57 476.77,-939.85"/>
</g>
<!-- 2757336158032 -->
<g id="node13" class="node">
<title>2757336158032</title>
<ellipse fill="none" stroke="black" cx="572.3" cy="-899" rx="27" ry="18"/>
<text text-anchor="middle" x="572.3" y="-893" font-family="Times New Roman,serif" font-size="15.00">seq</text>
</g>
<!-- 2757336161344&#45;&#45;2757336158032 -->
<g id="edge15" class="edge">
<title>2757336161344&#45;&#45;2757336158032</title>
<path fill="none" stroke="black" d="M275.56,-857.86C346.49,-867.73 487.72,-887.37 545.63,-895.43"/>
</g>
<!-- 2757336169600 -->
<g id="node18" class="node">
<title>2757336169600</title>
<ellipse fill="black" stroke="black" cx="572.3" cy="-860" rx="2.7" ry="2.7"/>
</g>
<!-- 2757336161344&#45;&#45;2757336169600 -->
<g id="edge16" class="edge">
<title>2757336161344&#45;&#45;2757336169600</title>
<path fill="none" stroke="black" d="M277.97,-853.05C364.69,-855.11 549.58,-859.49 569.54,-859.96"/>
</g>
<!-- 2757336156544 -->
<g id="node14" class="node">
<title>2757336156544</title>
<ellipse fill="none" stroke="black" cx="974.58" cy="-960" rx="115.84" ry="18"/>
<text text-anchor="middle" x="974.58" y="-954" font-family="Times New Roman,serif" font-size="15.00">Issue confirmation receipt</text>
</g>
<!-- 2757336158032&#45;&#45;2757336156544 -->
<g id="edge11" class="edge">
<title>2757336158032&#45;&#45;2757336156544</title>
<path fill="none" stroke="black" d="M598.95,-902.91C656.58,-911.69 798.44,-933.31 890.12,-947.28"/>
</g>
<!-- 2757336167824 -->
<g id="node15" class="node">
<title>2757336167824</title>
<ellipse fill="none" stroke="black" cx="974.58" cy="-906" rx="27" ry="18"/>
<text text-anchor="middle" x="974.58" y="-900" font-family="Times New Roman,serif" font-size="15.00">xor</text>
</g>
<!-- 2757336158032&#45;&#45;2757336167824 -->
<g id="edge14" class="edge">
<title>2757336158032&#45;&#45;2757336167824</title>
<path fill="none" stroke="black" d="M599.56,-899.46C672.09,-900.73 874.58,-904.27 947.22,-905.54"/>
</g>
<!-- 2757336160816 -->
<g id="node16" class="node">
<title>2757336160816</title>
<ellipse fill="black" stroke="black" cx="1354.35" cy="-925" rx="2.7" ry="2.7"/>
</g>
<!-- 2757336167824&#45;&#45;2757336160816 -->
<g id="edge12" class="edge">
<title>2757336167824&#45;&#45;2757336160816</title>
<path fill="none" stroke="black" d="M1001.84,-907.32C1083.16,-911.41 1326.81,-923.67 1351.35,-924.9"/>
</g>
<!-- 2757336166096 -->
<g id="node17" class="node">
<title>2757336166096</title>
<ellipse fill="none" stroke="black" cx="1354.35" cy="-886" rx="138.87" ry="18"/>
<text text-anchor="middle" x="1354.35" y="-880" font-family="Times New Roman,serif" font-size="15.00">Log senddate acknowledgement</text>
</g>
<!-- 2757336167824&#45;&#45;2757336166096 -->
<g id="edge13" class="edge">
<title>2757336167824&#45;&#45;2757336166096</title>
<path fill="none" stroke="black" d="M1001.84,-904.61C1047.52,-902.19 1144.42,-897.06 1224.94,-892.8"/>
</g>
<!-- 2757336170416 -->
<g id="node20" class="node">
<title>2757336170416</title>
<ellipse fill="black" stroke="black" cx="572.3" cy="-837" rx="2.7" ry="2.7"/>
</g>
<!-- 2757336159616&#45;&#45;2757336170416 -->
<g id="edge18" class="edge">
<title>2757336159616&#45;&#45;2757336170416</title>
<path fill="none" stroke="black" d="M259.4,-801C334.19,-809.63 546.3,-834.11 569.27,-836.77"/>
</g>
<!-- 2757336166960 -->
<g id="node21" class="node">
<title>2757336166960</title>
<ellipse fill="none" stroke="black" cx="572.3" cy="-798" rx="27" ry="18"/>
<text text-anchor="middle" x="572.3" y="-792" font-family="Times New Roman,serif" font-size="15.00">seq</text>
</g>
<!-- 2757336159616&#45;&#45;2757336166960 -->
<g id="edge21" class="edge">
<title>2757336159616&#45;&#45;2757336166960</title>
<path fill="none" stroke="black" d="M259.68,-798C322.63,-798 481.69,-798 544.85,-798"/>
</g>
<!-- 2757336154672 -->
<g id="node22" class="node">
<title>2757336154672</title>
<ellipse fill="none" stroke="black" cx="974.58" cy="-852" rx="131.71" ry="18"/>
<text text-anchor="middle" x="974.58" y="-846" font-family="Times New Roman,serif" font-size="15.00">Calculate provisional charges</text>
</g>
<!-- 2757336166960&#45;&#45;2757336154672 -->
<g id="edge19" class="edge">
<title>2757336166960&#45;&#45;2757336154672</title>
<path fill="none" stroke="black" d="M599.25,-801.5C654.78,-808.99 787.47,-826.89 878.96,-839.23"/>
</g>
<!-- 2757336167248 -->
<g id="node23" class="node">
<title>2757336167248</title>
<ellipse fill="none" stroke="black" cx="974.58" cy="-798" rx="95.88" ry="18"/>
<text text-anchor="middle" x="974.58" y="-792" font-family="Times New Roman,serif" font-size="15.00">Terminate on request</text>
</g>
<!-- 2757336166960&#45;&#45;2757336167248 -->
<g id="edge20" class="edge">
<title>2757336166960&#45;&#45;2757336167248</title>
<path fill="none" stroke="black" d="M599.56,-798C655.13,-798 786.99,-798 878.29,-798"/>
</g>
<!-- 2757336163072 -->
<g id="node25" class="node">
<title>2757336163072</title>
<ellipse fill="black" stroke="black" cx="572.3" cy="-759" rx="2.7" ry="2.7"/>
</g>
<!-- 2757336154864&#45;&#45;2757336163072 -->
<g id="edge23" class="edge">
<title>2757336154864&#45;&#45;2757336163072</title>
<path fill="none" stroke="black" d="M259.68,-745.16C334.72,-748.5 546.35,-757.89 569.28,-758.91"/>
</g>
<!-- 2757336157216 -->
<g id="node26" class="node">
<title>2757336157216</title>
<ellipse fill="none" stroke="black" cx="572.3" cy="-720" rx="131.19" ry="18"/>
<text text-anchor="middle" x="572.3" y="-714" font-family="Times New Roman,serif" font-size="15.00">Environmental Report needed</text>
</g>
<!-- 2757336154864&#45;&#45;2757336157216 -->
<g id="edge24" class="edge">
<title>2757336154864&#45;&#45;2757336157216</title>
<path fill="none" stroke="black" d="M259.68,-742.14C301.23,-739.19 384.66,-733.26 454.75,-728.28"/>
</g>
<!-- 2757336161632 -->
<g id="node28" class="node">
<title>2757336161632</title>
<ellipse fill="black" stroke="black" cx="572.3" cy="-681" rx="2.7" ry="2.7"/>
</g>
<!-- 2757336164608&#45;&#45;2757336161632 -->
<g id="edge26" class="edge">
<title>2757336164608&#45;&#45;2757336161632</title>
<path fill="none" stroke="black" d="M259.68,-684.69C334.72,-683.8 546.35,-681.3 569.28,-681.02"/>
</g>
<!-- 2757336158128 -->
<g id="node29" class="node">
<title>2757336158128</title>
<ellipse fill="none" stroke="black" cx="572.3" cy="-642" rx="27" ry="18"/>
<text text-anchor="middle" x="572.3" y="-636" font-family="Times New Roman,serif" font-size="15.00">seq</text>
</g>
<!-- 2757336164608&#45;&#45;2757336158128 -->
<g id="edge31" class="edge">
<title>2757336164608&#45;&#45;2757336158128</title>
<path fill="none" stroke="black" d="M259.4,-681.7C322.29,-673.69 482.28,-653.33 545.26,-645.31"/>
</g>
<!-- 2757336165424 -->
<g id="node30" class="node">
<title>2757336165424</title>
<ellipse fill="none" stroke="black" cx="974.58" cy="-744" rx="150.64" ry="18"/>
<text text-anchor="middle" x="974.58" y="-738" font-family="Times New Roman,serif" font-size="15.00">No permit required for submission</text>
</g>
<!-- 2757336158128&#45;&#45;2757336165424 -->
<g id="edge27" class="edge">
<title>2757336158128&#45;&#45;2757336165424</title>
<path fill="none" stroke="black" d="M598.03,-648.3C659.06,-663.85 818.35,-704.44 908.65,-727.46"/>
</g>
<!-- 2757336155872 -->
<g id="node31" class="node">
<title>2757336155872</title>
<ellipse fill="none" stroke="black" cx="974.58" cy="-690" rx="61.08" ry="18"/>
<text text-anchor="middle" x="974.58" y="-684" font-family="Times New Roman,serif" font-size="15.00">MER shown</text>
</g>
<!-- 2757336158128&#45;&#45;2757336155872 -->
<g id="edge28" class="edge">
<title>2757336158128&#45;&#45;2757336155872</title>
<path fill="none" stroke="black" d="M599.25,-645.11C663.27,-652.79 829.84,-672.76 917.61,-683.29"/>
</g>
<!-- 2757336154720 -->
<g id="node32" class="node">
<title>2757336154720</title>
<ellipse fill="none" stroke="black" cx="974.58" cy="-636" rx="139.89" ry="18"/>
<text text-anchor="middle" x="974.58" y="-630" font-family="Times New Roman,serif" font-size="15.00">Activities for regular procedure</text>
</g>
<!-- 2757336158128&#45;&#45;2757336154720 -->
<g id="edge29" class="edge">
<title>2757336158128&#45;&#45;2757336154720</title>
<path fill="none" stroke="black" d="M599.56,-641.61C646.87,-640.9 749.47,-639.36 835.27,-638.07"/>
</g>
<!-- 2757336155200 -->
<g id="node33" class="node">
<title>2757336155200</title>
<ellipse fill="none" stroke="black" cx="974.58" cy="-582" rx="87.69" ry="18"/>
<text text-anchor="middle" x="974.58" y="-576" font-family="Times New Roman,serif" font-size="15.00">Phased application</text>
</g>
<!-- 2757336158128&#45;&#45;2757336155200 -->
<g id="edge30" class="edge">
<title>2757336158128&#45;&#45;2757336155200</title>
<path fill="none" stroke="black" d="M598.95,-638.16C659.25,-629.12 811.79,-606.25 902.55,-592.65"/>
</g>
<!-- 2757336164320 -->
<g id="node36" class="node">
<title>2757336164320</title>
<ellipse fill="black" stroke="black" cx="572.3" cy="-573" rx="2.7" ry="2.7"/>
</g>
<!-- 2757336170272&#45;&#45;2757336164320 -->
<g id="edge34" class="edge">
<title>2757336170272&#45;&#45;2757336164320</title>
<path fill="none" stroke="black" d="M259.68,-573C334.72,-573 546.35,-573 569.28,-573"/>
</g>
<!-- 2757336169168 -->
<g id="node37" class="node">
<title>2757336169168</title>
<ellipse fill="none" stroke="black" cx="572.3" cy="-531" rx="45.21" ry="18"/>
<text text-anchor="middle" x="572.3" y="-525" font-family="Times New Roman,serif" font-size="15.00">xor loop</text>
</g>
<!-- 2757336170272&#45;&#45;2757336169168 -->
<g id="edge37" class="edge">
<title>2757336170272&#45;&#45;2757336169168</title>
<path fill="none" stroke="black" d="M259.4,-569.77C317.34,-562.57 457.72,-545.12 528.7,-536.3"/>
</g>
<!-- 2757336160576 -->
<g id="node38" class="node">
<title>2757336160576</title>
<ellipse fill="none" stroke="black" cx="974.58" cy="-528" rx="204.89" ry="18"/>
<text text-anchor="middle" x="974.58" y="-522" font-family="Times New Roman,serif" font-size="15.00">No permit necessary or only notification needed</text>
</g>
<!-- 2757336169168&#45;&#45;2757336160576 -->
<g id="edge35" class="edge">
<title>2757336169168&#45;&#45;2757336160576</title>
<path fill="none" stroke="black" d="M617.66,-530.67C655.42,-530.38 712.54,-529.96 770.03,-529.53"/>
</g>
<!-- 2757336165376 -->
<g id="node39" class="node">
<title>2757336165376</title>
<ellipse fill="black" stroke="black" cx="974.58" cy="-489" rx="2.7" ry="2.7"/>
</g>
<!-- 2757336169168&#45;&#45;2757336165376 -->
<g id="edge36" class="edge">
<title>2757336169168&#45;&#45;2757336165376</title>
<path fill="none" stroke="black" d="M616.51,-526.47C714.76,-516.16 948.22,-491.66 971.67,-489.2"/>
</g>
<!-- 2757336167632 -->
<g id="node41" class="node">
<title>2757336167632</title>
<ellipse fill="black" stroke="black" cx="572.3" cy="-492" rx="2.7" ry="2.7"/>
</g>
<!-- 2757336164272&#45;&#45;2757336167632 -->
<g id="edge39" class="edge">
<title>2757336164272&#45;&#45;2757336167632</title>
<path fill="none" stroke="black" d="M259.68,-492C334.72,-492 546.35,-492 569.28,-492"/>
</g>
<!-- 2757336158848 -->
<g id="node42" class="node">
<title>2757336158848</title>
<ellipse fill="none" stroke="black" cx="572.3" cy="-453" rx="141.94" ry="18"/>
<text text-anchor="middle" x="572.3" y="-447" font-family="Times New Roman,serif" font-size="15.00">Normal procedure without MER</text>
</g>
<!-- 2757336164272&#45;&#45;2757336158848 -->
<g id="edge40" class="edge">
<title>2757336164272&#45;&#45;2757336158848</title>
<path fill="none" stroke="black" d="M259.4,-489C302.97,-483.97 393.17,-473.56 465.4,-465.22"/>
</g>
<!-- 2757336166336 -->
<g id="node44" class="node">
<title>2757336166336</title>
<ellipse fill="none" stroke="black" cx="572.3" cy="-369" rx="27" ry="18"/>
<text text-anchor="middle" x="572.3" y="-363" font-family="Times New Roman,serif" font-size="15.00">seq</text>
</g>
<!-- 2757336162352&#45;&#45;2757336166336 -->
<g id="edge46" class="edge">
<title>2757336162352&#45;&#45;2757336166336</title>
<path fill="none" stroke="black" d="M259.68,-369C322.63,-369 481.69,-369 544.85,-369"/>
</g>
<!-- 2757336159328 -->
<g id="node49" class="node">
<title>2757336159328</title>
<ellipse fill="none" stroke="black" cx="572.3" cy="-207" rx="27" ry="18"/>
<text text-anchor="middle" x="572.3" y="-201" font-family="Times New Roman,serif" font-size="15.00">seq</text>
</g>
<!-- 2757336162352&#45;&#45;2757336159328 -->
<g id="edge62" class="edge">
<title>2757336162352&#45;&#45;2757336159328</title>
<path fill="none" stroke="black" d="M255.1,-358.62C316.12,-329.36 489.03,-246.45 549.83,-217.29"/>
</g>
<!-- 2757336238752 -->
<g id="node45" class="node">
<title>2757336238752</title>
<ellipse fill="none" stroke="black" cx="974.58" cy="-450" rx="153.2" ry="18"/>
<text text-anchor="middle" x="974.58" y="-444" font-family="Times New Roman,serif" font-size="15.00">Decision date before final decision</text>
</g>
<!-- 2757336166336&#45;&#45;2757336238752 -->
<g id="edge42" class="edge">
<title>2757336166336&#45;&#45;2757336238752</title>
<path fill="none" stroke="black" d="M598.64,-374.13C657.24,-385.99 804.1,-415.7 895.66,-434.23"/>
</g>
<!-- 2757334634896 -->
<g id="node46" class="node">
<title>2757334634896</title>
<ellipse fill="none" stroke="black" cx="974.58" cy="-396" rx="159.34" ry="18"/>
<text text-anchor="middle" x="974.58" y="-390" font-family="Times New Roman,serif" font-size="15.00">generate no permit required decision</text>
</g>
<!-- 2757336166336&#45;&#45;2757334634896 -->
<g id="edge43" class="edge">
<title>2757336166336&#45;&#45;2757334634896</title>
<path fill="none" stroke="black" d="M599.56,-370.77C647.13,-373.98 750.6,-380.96 836.68,-386.77"/>
</g>
<!-- 2757334641040 -->
<g id="node47" class="node">
<title>2757334641040</title>
<ellipse fill="none" stroke="black" cx="974.58" cy="-342" rx="110.21" ry="18"/>
<text text-anchor="middle" x="974.58" y="-336" font-family="Times New Roman,serif" font-size="15.00">Establish decision status</text>
</g>
<!-- 2757336166336&#45;&#45;2757334641040 -->
<g id="edge44" class="edge">
<title>2757336166336&#45;&#45;2757334641040</title>
<path fill="none" stroke="black" d="M599.56,-367.23C653.83,-363.57 780.84,-355 871.8,-348.87"/>
</g>
<!-- 2757334630816 -->
<g id="node48" class="node">
<title>2757334630816</title>
<ellipse fill="none" stroke="black" cx="974.58" cy="-288" rx="155.25" ry="18"/>
<text text-anchor="middle" x="974.58" y="-282" font-family="Times New Roman,serif" font-size="15.00">create no permit necessary decision</text>
</g>
<!-- 2757336166336&#45;&#45;2757334630816 -->
<g id="edge45" class="edge">
<title>2757336166336&#45;&#45;2757334630816</title>
<path fill="none" stroke="black" d="M598.64,-363.87C657.16,-352.03 803.67,-322.38 895.26,-303.85"/>
</g>
<!-- 2757334850720 -->
<g id="node50" class="node">
<title>2757334850720</title>
<ellipse fill="none" stroke="black" cx="974.58" cy="-234" rx="27" ry="18"/>
<text text-anchor="middle" x="974.58" y="-228" font-family="Times New Roman,serif" font-size="15.00">xor</text>
</g>
<!-- 2757336159328&#45;&#45;2757334850720 -->
<g id="edge51" class="edge">
<title>2757336159328&#45;&#45;2757334850720</title>
<path fill="none" stroke="black" d="M599.56,-208.77C672.09,-213.66 874.58,-227.32 947.22,-232.22"/>
</g>
<!-- 2757334856816 -->
<g id="node55" class="node">
<title>2757334856816</title>
<ellipse fill="none" stroke="black" cx="974.58" cy="-180" rx="103.56" ry="18"/>
<text text-anchor="middle" x="974.58" y="-174" font-family="Times New Roman,serif" font-size="15.00">Start WABOprocedure</text>
</g>
<!-- 2757336159328&#45;&#45;2757334856816 -->
<g id="edge52" class="edge">
<title>2757336159328&#45;&#45;2757334856816</title>
<path fill="none" stroke="black" d="M599.56,-205.23C654.96,-201.49 786.17,-192.64 877.43,-186.49"/>
</g>
<!-- 2757334858304 -->
<g id="node56" class="node">
<title>2757334858304</title>
<ellipse fill="none" stroke="black" cx="974.58" cy="-126" rx="27" ry="18"/>
<text text-anchor="middle" x="974.58" y="-120" font-family="Times New Roman,serif" font-size="15.00">xor</text>
</g>
<!-- 2757336159328&#45;&#45;2757334858304 -->
<g id="edge61" class="edge">
<title>2757336159328&#45;&#45;2757334858304</title>
<path fill="none" stroke="black" d="M598.64,-201.87C670.73,-187.28 876.39,-145.67 948.35,-131.11"/>
</g>
<!-- 2757334851776 -->
<g id="node51" class="node">
<title>2757334851776</title>
<ellipse fill="black" stroke="black" cx="1354.35" cy="-273" rx="2.7" ry="2.7"/>
</g>
<!-- 2757334850720&#45;&#45;2757334851776 -->
<g id="edge47" class="edge">
<title>2757334850720&#45;&#45;2757334851776</title>
<path fill="none" stroke="black" d="M1001.55,-236.68C1082.56,-245.04 1326.75,-270.25 1351.34,-272.79"/>
</g>
<!-- 2757334843472 -->
<g id="node52" class="node">
<title>2757334843472</title>
<ellipse fill="none" stroke="black" cx="1354.35" cy="-234" rx="27" ry="18"/>
<text text-anchor="middle" x="1354.35" y="-228" font-family="Times New Roman,serif" font-size="15.00">seq</text>
</g>
<!-- 2757334850720&#45;&#45;2757334843472 -->
<g id="edge50" class="edge">
<title>2757334850720&#45;&#45;2757334843472</title>
<path fill="none" stroke="black" d="M1001.84,-234C1071.03,-234 1257.73,-234 1327,-234"/>
</g>
<!-- 2757334847840 -->
<g id="node53" class="node">
<title>2757334847840</title>
<ellipse fill="none" stroke="black" cx="1663.99" cy="-261" rx="134.78" ry="18"/>
<text text-anchor="middle" x="1663.99" y="-255" font-family="Times New Roman,serif" font-size="15.00">Create procedure confirmation</text>
</g>
<!-- 2757334843472&#45;&#45;2757334847840 -->
<g id="edge48" class="edge">
<title>2757334843472&#45;&#45;2757334847840</title>
<path fill="none" stroke="black" d="M1381.57,-236.3C1418.77,-239.57 1489.13,-245.74 1550.18,-251.1"/>
</g>
<!-- 2757334850240 -->
<g id="node54" class="node">
<title>2757334850240</title>
<ellipse fill="none" stroke="black" cx="1663.99" cy="-207" rx="132.73" ry="18"/>
<text text-anchor="middle" x="1663.99" y="-201" font-family="Times New Roman,serif" font-size="15.00">Create subcases completeness</text>
</g>
<!-- 2757334843472&#45;&#45;2757334850240 -->
<g id="edge49" class="edge">
<title>2757334843472&#45;&#45;2757334850240</title>
<path fill="none" stroke="black" d="M1381.57,-231.7C1418.99,-228.41 1489.95,-222.19 1551.25,-216.81"/>
</g>
<!-- 2757334851440 -->
<g id="node57" class="node">
<title>2757334851440</title>
<ellipse fill="none" stroke="black" cx="1354.35" cy="-180" rx="133.24" ry="18"/>
<text text-anchor="middle" x="1354.35" y="-174" font-family="Times New Roman,serif" font-size="15.00">View field phased application</text>
</g>
<!-- 2757334858304&#45;&#45;2757334851440 -->
<g id="edge53" class="edge">
<title>2757334858304&#45;&#45;2757334851440</title>
<path fill="none" stroke="black" d="M1001.25,-129.67C1053.73,-137.17 1175.55,-154.58 1261.13,-166.82"/>
</g>
<!-- 2757334850432 -->
<g id="node58" class="node">
<title>2757334850432</title>
<ellipse fill="none" stroke="black" cx="1354.35" cy="-126" rx="137.85" ry="18"/>
<text text-anchor="middle" x="1354.35" y="-120" font-family="Times New Roman,serif" font-size="15.00">Process subcases completeness</text>
</g>
<!-- 2757334858304&#45;&#45;2757334850432 -->
<g id="edge54" class="edge">
<title>2757334858304&#45;&#45;2757334850432</title>
<path fill="none" stroke="black" d="M1001.84,-126C1045.85,-126 1137.39,-126 1216.03,-126"/>
</g>
<!-- 2757334850768 -->
<g id="node59" class="node">
<title>2757334850768</title>
<ellipse fill="none" stroke="black" cx="1354.35" cy="-72" rx="27" ry="18"/>
<text text-anchor="middle" x="1354.35" y="-66" font-family="Times New Roman,serif" font-size="15.00">seq</text>
</g>
<!-- 2757334858304&#45;&#45;2757334850768 -->
<g id="edge59" class="edge">
<title>2757334858304&#45;&#45;2757334850768</title>
<path fill="none" stroke="black" d="M1001.25,-122.33C1070.17,-112.48 1258.68,-85.53 1327.64,-75.67"/>
</g>
<!-- 2757335028352 -->
<g id="node64" class="node">
<title>2757335028352</title>
<ellipse fill="none" stroke="black" cx="1354.35" cy="-18" rx="83.08" ry="18"/>
<text text-anchor="middle" x="1354.35" y="-12" font-family="Times New Roman,serif" font-size="15.00">Update procedure</text>
</g>
<!-- 2757334858304&#45;&#45;2757335028352 -->
<g id="edge60" class="edge">
<title>2757334858304&#45;&#45;2757335028352</title>
<path fill="none" stroke="black" d="M999.79,-119.08C1060.53,-101.71 1220.41,-56 1302.75,-32.47"/>
</g>
<!-- 2757335024368 -->
<g id="node60" class="node">
<title>2757335024368</title>
<ellipse fill="none" stroke="black" cx="1663.99" cy="-99" rx="128.12" ry="18"/>
<text text-anchor="middle" x="1663.99" y="-93" font-family="Times New Roman,serif" font-size="15.00">Send procedure confirmation</text>
</g>
<!-- 2757334850768&#45;&#45;2757335024368 -->
<g id="edge55" class="edge">
<title>2757334850768&#45;&#45;2757335024368</title>
<path fill="none" stroke="black" d="M1381.57,-74.3C1419.57,-77.64 1492.17,-84.01 1554.1,-89.44"/>
</g>
<!-- 2757335030128 -->
<g id="node61" class="node">
<title>2757335030128</title>
<ellipse fill="none" stroke="black" cx="1663.99" cy="-45" rx="27" ry="18"/>
<text text-anchor="middle" x="1663.99" y="-39" font-family="Times New Roman,serif" font-size="15.00">xor</text>
</g>
<!-- 2757334850768&#45;&#45;2757335030128 -->
<g id="edge58" class="edge">
<title>2757334850768&#45;&#45;2757335030128</title>
<path fill="none" stroke="black" d="M1381.57,-69.7C1439.7,-64.6 1578.77,-52.39 1636.83,-47.3"/>
</g>
<!-- 2757335033584 -->
<g id="node62" class="node">
<title>2757335033584</title>
<ellipse fill="black" stroke="black" cx="1947.54" cy="-65" rx="2.7" ry="2.7"/>
</g>
<!-- 2757335030128&#45;&#45;2757335033584 -->
<g id="edge56" class="edge">
<title>2757335030128&#45;&#45;2757335033584</title>
<path fill="none" stroke="black" d="M1691.23,-46.86C1756.75,-51.52 1923.81,-63.39 1944.44,-64.85"/>
</g>
<!-- 2757335036272 -->
<g id="node63" class="node">
<title>2757335036272</title>
<ellipse fill="none" stroke="black" cx="1947.54" cy="-26" rx="112.77" ry="18"/>
<text text-anchor="middle" x="1947.54" y="-20" font-family="Times New Roman,serif" font-size="15.00">Create publication report</text>
</g>
<!-- 2757335030128&#45;&#45;2757335036272 -->
<g id="edge57" class="edge">
<title>2757335030128&#45;&#45;2757335036272</title>
<path fill="none" stroke="black" d="M1691.23,-43.23C1725.69,-40.9 1788.26,-36.68 1842.83,-33"/>
</g>
</g>
</svg>
