<?xml version="1.0" encoding="UTF-8" standalone="no"?>
<!DOCTYPE svg PUBLIC "-//W3C//DTD SVG 1.1//EN"
 "http://www.w3.org/Graphics/SVG/1.1/DTD/svg11.dtd">
<!-- Generated by graphviz version 11.0.0 (20240428.1522)
 -->
<!-- Title: pt Pages: 1 -->
<svg width="5525pt" height="494pt"
 viewBox="0.00 0.00 5525.01 494.00" xmlns="http://www.w3.org/2000/svg" xmlns:xlink="http://www.w3.org/1999/xlink">
<g id="graph0" class="graph" transform="scale(1 1) rotate(0) translate(4 490)">
<title>pt</title>
<polygon fill="white" stroke="none" points="-4,4 -4,-490 5521.01,-490 5521.01,4 -4,4"/>
<!-- 2757335122720 -->
<g id="node1" class="node">
<title>2757335122720</title>
<ellipse fill="none" stroke="black" cx="27" cy="-306" rx="27" ry="18"/>
<text text-anchor="middle" x="27" y="-300" font-family="Times New Roman,serif" font-size="15.00">seq</text>
</g>
<!-- 2757335369392 -->
<g id="node2" class="node">
<title>2757335369392</title>
<ellipse fill="none" stroke="black" cx="117" cy="-387" rx="27" ry="18"/>
<text text-anchor="middle" x="117" y="-381" font-family="Times New Roman,serif" font-size="15.00">and</text>
</g>
<!-- 2757335122720&#45;&#45;2757335369392 -->
<g id="edge67" class="edge">
<title>2757335122720&#45;&#45;2757335369392</title>
<path fill="none" stroke="black" d="M43.73,-320.48C59.75,-335.22 84.44,-357.95 100.4,-372.64"/>
</g>
<!-- 2757335382400 -->
<g id="node69" class="node">
<title>2757335382400</title>
<ellipse fill="none" stroke="black" cx="117" cy="-272" rx="27" ry="18"/>
<text text-anchor="middle" x="117" y="-266" font-family="Times New Roman,serif" font-size="15.00">xor</text>
</g>
<!-- 2757335122720&#45;&#45;2757335382400 -->
<g id="edge84" class="edge">
<title>2757335122720&#45;&#45;2757335382400</title>
<path fill="none" stroke="black" d="M50.66,-297.24C63.7,-292.21 80.03,-285.9 93.11,-280.84"/>
</g>
<!-- 2757335381056 -->
<g id="node3" class="node">
<title>2757335381056</title>
<ellipse fill="none" stroke="black" cx="319.38" cy="-468" rx="139.38" ry="18"/>
<text text-anchor="middle" x="319.38" y="-462" font-family="Times New Roman,serif" font-size="15.00">Record submission date request</text>
</g>
<!-- 2757335369392&#45;&#45;2757335381056 -->
<g id="edge1" class="edge">
<title>2757335369392&#45;&#45;2757335381056</title>
<path fill="none" stroke="black" d="M140.6,-396.13C173.15,-409.29 233.84,-433.83 275.17,-450.53"/>
</g>
<!-- 2757335379232 -->
<g id="node4" class="node">
<title>2757335379232</title>
<ellipse fill="none" stroke="black" cx="319.38" cy="-414" rx="124.03" ry="18"/>
<text text-anchor="middle" x="319.38" y="-408" font-family="Times New Roman,serif" font-size="15.00">Period application received</text>
</g>
<!-- 2757335369392&#45;&#45;2757335379232 -->
<g id="edge2" class="edge">
<title>2757335369392&#45;&#45;2757335379232</title>
<path fill="none" stroke="black" d="M143.79,-390.47C165.03,-393.34 196.51,-397.58 226.9,-401.67"/>
</g>
<!-- 2757335377456 -->
<g id="node5" class="node">
<title>2757335377456</title>
<ellipse fill="none" stroke="black" cx="319.38" cy="-360" rx="27" ry="18"/>
<text text-anchor="middle" x="319.38" y="-354" font-family="Times New Roman,serif" font-size="15.00">seq</text>
</g>
<!-- 2757335369392&#45;&#45;2757335377456 -->
<g id="edge66" class="edge">
<title>2757335369392&#45;&#45;2757335377456</title>
<path fill="none" stroke="black" d="M143.79,-383.53C182.26,-378.34 254.28,-368.64 292.7,-363.46"/>
</g>
<!-- 2757335372080 -->
<g id="node6" class="node">
<title>2757335372080</title>
<ellipse fill="none" stroke="black" cx="683.79" cy="-427" rx="27" ry="18"/>
<text text-anchor="middle" x="683.79" y="-421" font-family="Times New Roman,serif" font-size="15.00">xor</text>
</g>
<!-- 2757335377456&#45;&#45;2757335372080 -->
<g id="edge5" class="edge">
<title>2757335377456&#45;&#45;2757335372080</title>
<path fill="none" stroke="black" d="M345.87,-364.71C412.41,-377.01 590.83,-410 657.34,-422.29"/>
</g>
<!-- 2757335370736 -->
<g id="node9" class="node">
<title>2757335370736</title>
<ellipse fill="none" stroke="black" cx="683.79" cy="-360" rx="27" ry="18"/>
<text text-anchor="middle" x="683.79" y="-354" font-family="Times New Roman,serif" font-size="15.00">and</text>
</g>
<!-- 2757335377456&#45;&#45;2757335370736 -->
<g id="edge65" class="edge">
<title>2757335377456&#45;&#45;2757335370736</title>
<path fill="none" stroke="black" d="M346.74,-360C413.68,-360 589.7,-360 656.54,-360"/>
</g>
<!-- 2757335369728 -->
<g id="node7" class="node">
<title>2757335369728</title>
<ellipse fill="black" stroke="black" cx="1018.01" cy="-466" rx="2.7" ry="2.7"/>
</g>
<!-- 2757335372080&#45;&#45;2757335369728 -->
<g id="edge3" class="edge">
<title>2757335372080&#45;&#45;2757335369728</title>
<path fill="none" stroke="black" d="M710.86,-430.06C784.89,-438.75 992.53,-463.13 1015.02,-465.77"/>
</g>
<!-- 2757335368336 -->
<g id="node8" class="node">
<title>2757335368336</title>
<ellipse fill="none" stroke="black" cx="1018.01" cy="-427" rx="109.19" ry="18"/>
<text text-anchor="middle" x="1018.01" y="-421" font-family="Times New Roman,serif" font-size="15.00">OLO messaging ongoing</text>
</g>
<!-- 2757335372080&#45;&#45;2757335368336 -->
<g id="edge4" class="edge">
<title>2757335372080&#45;&#45;2757335368336</title>
<path fill="none" stroke="black" d="M711.14,-427C753.42,-427 838.76,-427 908.58,-427"/>
</g>
<!-- 2757335370544 -->
<g id="node10" class="node">
<title>2757335370544</title>
<ellipse fill="none" stroke="black" cx="1018.01" cy="-373" rx="27" ry="18"/>
<text text-anchor="middle" x="1018.01" y="-367" font-family="Times New Roman,serif" font-size="15.00">xor</text>
</g>
<!-- 2757335370736&#45;&#45;2757335370544 -->
<g id="edge8" class="edge">
<title>2757335370736&#45;&#45;2757335370544</title>
<path fill="none" stroke="black" d="M711.14,-361.03C773.29,-363.46 928.5,-369.54 990.66,-371.97"/>
</g>
<!-- 2757335369824 -->
<g id="node13" class="node">
<title>2757335369824</title>
<ellipse fill="none" stroke="black" cx="1018.01" cy="-319" rx="27" ry="18"/>
<text text-anchor="middle" x="1018.01" y="-313" font-family="Times New Roman,serif" font-size="15.00">seq</text>
</g>
<!-- 2757335370736&#45;&#45;2757335369824 -->
<g id="edge64" class="edge">
<title>2757335370736&#45;&#45;2757335369824</title>
<path fill="none" stroke="black" d="M710.86,-356.78C772.96,-349.12 929.08,-329.85 991.06,-322.2"/>
</g>
<!-- 2757335372176 -->
<g id="node11" class="node">
<title>2757335372176</title>
<ellipse fill="black" stroke="black" cx="1399.82" cy="-412" rx="2.7" ry="2.7"/>
</g>
<!-- 2757335370544&#45;&#45;2757335372176 -->
<g id="edge6" class="edge">
<title>2757335370544&#45;&#45;2757335372176</title>
<path fill="none" stroke="black" d="M1045.11,-375.68C1126.56,-384.04 1372.08,-409.25 1396.8,-411.79"/>
</g>
<!-- 2757335372464 -->
<g id="node12" class="node">
<title>2757335372464</title>
<ellipse fill="none" stroke="black" cx="1399.82" cy="-373" rx="98.95" ry="18"/>
<text text-anchor="middle" x="1399.82" y="-367" font-family="Times New Roman,serif" font-size="15.00">Applicant is involved</text>
</g>
<!-- 2757335370544&#45;&#45;2757335372464 -->
<g id="edge7" class="edge">
<title>2757335370544&#45;&#45;2757335372464</title>
<path fill="none" stroke="black" d="M1045.41,-373C1097.39,-373 1215.35,-373 1300.72,-373"/>
</g>
<!-- 2757335374240 -->
<g id="node14" class="node">
<title>2757335374240</title>
<ellipse fill="none" stroke="black" cx="1399.82" cy="-319" rx="27" ry="18"/>
<text text-anchor="middle" x="1399.82" y="-313" font-family="Times New Roman,serif" font-size="15.00">and</text>
</g>
<!-- 2757335369824&#45;&#45;2757335374240 -->
<g id="edge60" class="edge">
<title>2757335369824&#45;&#45;2757335374240</title>
<path fill="none" stroke="black" d="M1045.41,-319C1114.97,-319 1302.68,-319 1372.33,-319"/>
</g>
<!-- 2757335374480 -->
<g id="node66" class="node">
<title>2757335374480</title>
<ellipse fill="none" stroke="black" cx="1399.82" cy="-265" rx="27" ry="18"/>
<text text-anchor="middle" x="1399.82" y="-259" font-family="Times New Roman,serif" font-size="15.00">xor</text>
</g>
<!-- 2757335369824&#45;&#45;2757335374480 -->
<g id="edge63" class="edge">
<title>2757335369824&#45;&#45;2757335374480</title>
<path fill="none" stroke="black" d="M1044.81,-315.33C1114.1,-305.48 1303.64,-278.53 1372.97,-268.67"/>
</g>
<!-- 2757335377648 -->
<g id="node15" class="node">
<title>2757335377648</title>
<ellipse fill="none" stroke="black" cx="1800.57" cy="-369" rx="27" ry="18"/>
<text text-anchor="middle" x="1800.57" y="-363" font-family="Times New Roman,serif" font-size="15.00">xor</text>
</g>
<!-- 2757335374240&#45;&#45;2757335377648 -->
<g id="edge11" class="edge">
<title>2757335374240&#45;&#45;2757335377648</title>
<path fill="none" stroke="black" d="M1426.67,-322.24C1498.73,-331.28 1701.22,-356.67 1773.51,-365.73"/>
</g>
<!-- 2757335376160 -->
<g id="node18" class="node">
<title>2757335376160</title>
<ellipse fill="none" stroke="black" cx="1800.57" cy="-315" rx="27" ry="18"/>
<text text-anchor="middle" x="1800.57" y="-309" font-family="Times New Roman,serif" font-size="15.00">seq</text>
</g>
<!-- 2757335374240&#45;&#45;2757335376160 -->
<g id="edge59" class="edge">
<title>2757335374240&#45;&#45;2757335376160</title>
<path fill="none" stroke="black" d="M1427.29,-318.73C1499.74,-318.01 1700.67,-315.99 1773.1,-315.27"/>
</g>
<!-- 2757335378992 -->
<g id="node16" class="node">
<title>2757335378992</title>
<ellipse fill="black" stroke="black" cx="2153.21" cy="-408" rx="2.7" ry="2.7"/>
</g>
<!-- 2757335377648&#45;&#45;2757335378992 -->
<g id="edge9" class="edge">
<title>2757335377648&#45;&#45;2757335378992</title>
<path fill="none" stroke="black" d="M1827.63,-371.9C1904.45,-380.44 2126.08,-405.09 2150.09,-407.76"/>
</g>
<!-- 2757335379328 -->
<g id="node17" class="node">
<title>2757335379328</title>
<ellipse fill="none" stroke="black" cx="2153.21" cy="-369" rx="188.52" ry="18"/>
<text text-anchor="middle" x="2153.21" y="-363" font-family="Times New Roman,serif" font-size="15.00">Document date termination request received</text>
</g>
<!-- 2757335377648&#45;&#45;2757335379328 -->
<g id="edge10" class="edge">
<title>2757335377648&#45;&#45;2757335379328</title>
<path fill="none" stroke="black" d="M1827.92,-369C1858.1,-369 1910.37,-369 1964.23,-369"/>
</g>
<!-- 2757335381152 -->
<g id="node19" class="node">
<title>2757335381152</title>
<ellipse fill="none" stroke="black" cx="2153.21" cy="-315" rx="27" ry="18"/>
<text text-anchor="middle" x="2153.21" y="-309" font-family="Times New Roman,serif" font-size="15.00">and</text>
</g>
<!-- 2757335376160&#45;&#45;2757335381152 -->
<g id="edge55" class="edge">
<title>2757335376160&#45;&#45;2757335381152</title>
<path fill="none" stroke="black" d="M1827.92,-315C1893.06,-315 2061.06,-315 2126.02,-315"/>
</g>
<!-- 2757335381824 -->
<g id="node63" class="node">
<title>2757335381824</title>
<ellipse fill="none" stroke="black" cx="2153.21" cy="-261" rx="27" ry="18"/>
<text text-anchor="middle" x="2153.21" y="-255" font-family="Times New Roman,serif" font-size="15.00">xor</text>
</g>
<!-- 2757335376160&#45;&#45;2757335381824 -->
<g id="edge58" class="edge">
<title>2757335376160&#45;&#45;2757335381824</title>
<path fill="none" stroke="black" d="M1827.35,-311.03C1892.19,-301.04 2061.5,-274.97 2126.38,-264.98"/>
</g>
<!-- 2757335378128 -->
<g id="node20" class="node">
<title>2757335378128</title>
<ellipse fill="none" stroke="black" cx="2551.39" cy="-365" rx="27" ry="18"/>
<text text-anchor="middle" x="2551.39" y="-359" font-family="Times New Roman,serif" font-size="15.00">xor</text>
</g>
<!-- 2757335381152&#45;&#45;2757335378128 -->
<g id="edge14" class="edge">
<title>2757335381152&#45;&#45;2757335378128</title>
<path fill="none" stroke="black" d="M2180.2,-318.28C2252.07,-327.35 2452.88,-352.69 2524.56,-361.74"/>
</g>
<!-- 2757335383504 -->
<g id="node23" class="node">
<title>2757335383504</title>
<ellipse fill="none" stroke="black" cx="2551.39" cy="-311" rx="27" ry="18"/>
<text text-anchor="middle" x="2551.39" y="-305" font-family="Times New Roman,serif" font-size="15.00">seq</text>
</g>
<!-- 2757335381152&#45;&#45;2757335383504 -->
<g id="edge54" class="edge">
<title>2757335381152&#45;&#45;2757335383504</title>
<path fill="none" stroke="black" d="M2180.51,-314.73C2252.49,-314.01 2452.13,-311.99 2524.1,-311.27"/>
</g>
<!-- 2757335374768 -->
<g id="node21" class="node">
<title>2757335374768</title>
<ellipse fill="black" stroke="black" cx="2899.94" cy="-404" rx="2.7" ry="2.7"/>
</g>
<!-- 2757335378128&#45;&#45;2757335374768 -->
<g id="edge12" class="edge">
<title>2757335378128&#45;&#45;2757335374768</title>
<path fill="none" stroke="black" d="M2578.44,-367.93C2654.63,-376.51 2873.18,-401.1 2896.85,-403.77"/>
</g>
<!-- 2757335563200 -->
<g id="node22" class="node">
<title>2757335563200</title>
<ellipse fill="none" stroke="black" cx="2899.94" cy="-365" rx="138.87" ry="18"/>
<text text-anchor="middle" x="2899.94" y="-359" font-family="Times New Roman,serif" font-size="15.00">Log senddate acknowledgement</text>
</g>
<!-- 2757335378128&#45;&#45;2757335563200 -->
<g id="edge13" class="edge">
<title>2757335378128&#45;&#45;2757335563200</title>
<path fill="none" stroke="black" d="M2578.73,-365C2617.58,-365 2693.02,-365 2760.92,-365"/>
</g>
<!-- 2757335560560 -->
<g id="node24" class="node">
<title>2757335560560</title>
<ellipse fill="none" stroke="black" cx="2899.94" cy="-311" rx="27" ry="18"/>
<text text-anchor="middle" x="2899.94" y="-305" font-family="Times New Roman,serif" font-size="15.00">xor</text>
</g>
<!-- 2757335383504&#45;&#45;2757335560560 -->
<g id="edge17" class="edge">
<title>2757335383504&#45;&#45;2757335560560</title>
<path fill="none" stroke="black" d="M2578.73,-311C2643.17,-311 2808.24,-311 2872.65,-311"/>
</g>
<!-- 2757335559840 -->
<g id="node27" class="node">
<title>2757335559840</title>
<ellipse fill="none" stroke="black" cx="2899.94" cy="-257" rx="27" ry="18"/>
<text text-anchor="middle" x="2899.94" y="-251" font-family="Times New Roman,serif" font-size="15.00">and</text>
</g>
<!-- 2757335383504&#45;&#45;2757335559840 -->
<g id="edge53" class="edge">
<title>2757335383504&#45;&#45;2757335559840</title>
<path fill="none" stroke="black" d="M2578.16,-306.99C2642.47,-296.96 2809.48,-270.94 2873.48,-260.97"/>
</g>
<!-- 2757335557392 -->
<g id="node25" class="node">
<title>2757335557392</title>
<ellipse fill="black" stroke="black" cx="3211.12" cy="-350" rx="2.7" ry="2.7"/>
</g>
<!-- 2757335560560&#45;&#45;2757335557392 -->
<g id="edge15" class="edge">
<title>2757335560560&#45;&#45;2757335557392</title>
<path fill="none" stroke="black" d="M2926.77,-314.26C2997.01,-323.12 3187.66,-347.17 3208.3,-349.77"/>
</g>
<!-- 2757335555616 -->
<g id="node26" class="node">
<title>2757335555616</title>
<ellipse fill="none" stroke="black" cx="3211.12" cy="-311" rx="136.31" ry="18"/>
<text text-anchor="middle" x="3211.12" y="-305" font-family="Times New Roman,serif" font-size="15.00">Reception through OLO system</text>
</g>
<!-- 2757335560560&#45;&#45;2757335555616 -->
<g id="edge16" class="edge">
<title>2757335560560&#45;&#45;2757335555616</title>
<path fill="none" stroke="black" d="M2927.3,-311C2960.23,-311 3019.01,-311 3074.49,-311"/>
</g>
<!-- 2757335552592 -->
<g id="node28" class="node">
<title>2757335552592</title>
<ellipse fill="none" stroke="black" cx="3211.12" cy="-257" rx="27" ry="18"/>
<text text-anchor="middle" x="3211.12" y="-251" font-family="Times New Roman,serif" font-size="15.00">xor</text>
</g>
<!-- 2757335559840&#45;&#45;2757335552592 -->
<g id="edge20" class="edge">
<title>2757335559840&#45;&#45;2757335552592</title>
<path fill="none" stroke="black" d="M2927.3,-257C2985.71,-257 3125.48,-257 3183.83,-257"/>
</g>
<!-- 2757335551776 -->
<g id="node31" class="node">
<title>2757335551776</title>
<ellipse fill="none" stroke="black" cx="3211.12" cy="-203" rx="27" ry="18"/>
<text text-anchor="middle" x="3211.12" y="-197" font-family="Times New Roman,serif" font-size="15.00">seq</text>
</g>
<!-- 2757335559840&#45;&#45;2757335551776 -->
<g id="edge52" class="edge">
<title>2757335559840&#45;&#45;2757335551776</title>
<path fill="none" stroke="black" d="M2926.5,-252.54C2984.66,-242.38 3126.34,-217.63 3184.53,-207.47"/>
</g>
<!-- 2757335549616 -->
<g id="node29" class="node">
<title>2757335549616</title>
<ellipse fill="black" stroke="black" cx="3518.21" cy="-296" rx="2.7" ry="2.7"/>
</g>
<!-- 2757335552592&#45;&#45;2757335549616 -->
<g id="edge18" class="edge">
<title>2757335552592&#45;&#45;2757335549616</title>
<path fill="none" stroke="black" d="M3238.13,-260.33C3307.88,-269.24 3495.15,-293.18 3515.42,-295.77"/>
</g>
<!-- 2757335548128 -->
<g id="node30" class="node">
<title>2757335548128</title>
<ellipse fill="none" stroke="black" cx="3518.21" cy="-257" rx="134.78" ry="18"/>
<text text-anchor="middle" x="3518.21" y="-251" font-family="Times New Roman,serif" font-size="15.00">Create procedure confirmation</text>
</g>
<!-- 2757335552592&#45;&#45;2757335548128 -->
<g id="edge19" class="edge">
<title>2757335552592&#45;&#45;2757335548128</title>
<path fill="none" stroke="black" d="M3238.4,-257C3270.92,-257 3328.7,-257 3383.26,-257"/>
</g>
<!-- 2757335562048 -->
<g id="node32" class="node">
<title>2757335562048</title>
<ellipse fill="none" stroke="black" cx="3518.21" cy="-203" rx="27" ry="18"/>
<text text-anchor="middle" x="3518.21" y="-197" font-family="Times New Roman,serif" font-size="15.00">and</text>
</g>
<!-- 2757335551776&#45;&#45;2757335562048 -->
<g id="edge44" class="edge">
<title>2757335551776&#45;&#45;2757335562048</title>
<path fill="none" stroke="black" d="M3238.4,-203C3296.07,-203 3433.18,-203 3490.89,-203"/>
</g>
<!-- 2757335560272 -->
<g id="node56" class="node">
<title>2757335560272</title>
<ellipse fill="none" stroke="black" cx="3518.21" cy="-139" rx="27" ry="18"/>
<text text-anchor="middle" x="3518.21" y="-133" font-family="Times New Roman,serif" font-size="15.00">xor</text>
</g>
<!-- 2757335551776&#45;&#45;2757335560272 -->
<g id="edge51" class="edge">
<title>2757335551776&#45;&#45;2757335560272</title>
<path fill="none" stroke="black" d="M3237.35,-197.71C3294.74,-185.67 3434.53,-156.34 3491.95,-144.3"/>
</g>
<!-- 2757335558640 -->
<g id="node33" class="node">
<title>2757335558640</title>
<ellipse fill="none" stroke="black" cx="3734.19" cy="-259" rx="45.21" ry="18"/>
<text text-anchor="middle" x="3734.19" y="-253" font-family="Times New Roman,serif" font-size="15.00">xor loop</text>
</g>
<!-- 2757335562048&#45;&#45;2757335558640 -->
<g id="edge23" class="edge">
<title>2757335562048&#45;&#45;2757335558640</title>
<path fill="none" stroke="black" d="M3543.76,-209.42C3580.97,-219.16 3651.95,-237.74 3695.67,-249.18"/>
</g>
<!-- 2757335557200 -->
<g id="node36" class="node">
<title>2757335557200</title>
<ellipse fill="none" stroke="black" cx="3734.19" cy="-203" rx="27" ry="18"/>
<text text-anchor="middle" x="3734.19" y="-197" font-family="Times New Roman,serif" font-size="15.00">seq</text>
</g>
<!-- 2757335562048&#45;&#45;2757335557200 -->
<g id="edge43" class="edge">
<title>2757335562048&#45;&#45;2757335557200</title>
<path fill="none" stroke="black" d="M3545.45,-203C3586.52,-203 3665.54,-203 3706.74,-203"/>
</g>
<!-- 2757335554608 -->
<g id="node34" class="node">
<title>2757335554608</title>
<ellipse fill="none" stroke="black" cx="3931.24" cy="-298" rx="115.84" ry="18"/>
<text text-anchor="middle" x="3931.24" y="-292" font-family="Times New Roman,serif" font-size="15.00">Issue confirmation receipt</text>
</g>
<!-- 2757335558640&#45;&#45;2757335554608 -->
<g id="edge21" class="edge">
<title>2757335558640&#45;&#45;2757335554608</title>
<path fill="none" stroke="black" d="M3775.14,-266.99C3799.1,-271.78 3830.29,-278.01 3858.41,-283.64"/>
</g>
<!-- 2757335553744 -->
<g id="node35" class="node">
<title>2757335553744</title>
<ellipse fill="black" stroke="black" cx="3931.24" cy="-259" rx="2.7" ry="2.7"/>
</g>
<!-- 2757335558640&#45;&#45;2757335553744 -->
<g id="edge22" class="edge">
<title>2757335558640&#45;&#45;2757335553744</title>
<path fill="none" stroke="black" d="M3779.45,-259C3832.06,-259 3914.48,-259 3928.26,-259"/>
</g>
<!-- 2757335550912 -->
<g id="node37" class="node">
<title>2757335550912</title>
<ellipse fill="none" stroke="black" cx="3931.24" cy="-220" rx="27" ry="18"/>
<text text-anchor="middle" x="3931.24" y="-214" font-family="Times New Roman,serif" font-size="15.00">xor</text>
</g>
<!-- 2757335557200&#45;&#45;2757335550912 -->
<g id="edge37" class="edge">
<title>2757335557200&#45;&#45;2757335550912</title>
<path fill="none" stroke="black" d="M3761.1,-205.26C3798.4,-208.51 3866.87,-214.48 3904.24,-217.73"/>
</g>
<!-- 2757335548848 -->
<g id="node51" class="node">
<title>2757335548848</title>
<ellipse fill="none" stroke="black" cx="3931.24" cy="-166" rx="27" ry="18"/>
<text text-anchor="middle" x="3931.24" y="-160" font-family="Times New Roman,serif" font-size="15.00">xor</text>
</g>
<!-- 2757335557200&#45;&#45;2757335548848 -->
<g id="edge42" class="edge">
<title>2757335557200&#45;&#45;2757335548848</title>
<path fill="none" stroke="black" d="M3760.69,-198.16C3798.07,-191.07 3867.35,-177.93 3904.74,-170.84"/>
</g>
<!-- 2757335563248 -->
<g id="node38" class="node">
<title>2757335563248</title>
<ellipse fill="black" stroke="black" cx="4244.47" cy="-306" rx="2.7" ry="2.7"/>
</g>
<!-- 2757335550912&#45;&#45;2757335563248 -->
<g id="edge24" class="edge">
<title>2757335550912&#45;&#45;2757335563248</title>
<path fill="none" stroke="black" d="M3956.66,-226.75C4026.02,-245.91 4220.55,-299.67 4241.62,-305.49"/>
</g>
<!-- 2757335561808 -->
<g id="node39" class="node">
<title>2757335561808</title>
<ellipse fill="none" stroke="black" cx="4244.47" cy="-267" rx="161.39" ry="18"/>
<text text-anchor="middle" x="4244.47" y="-261" font-family="Times New Roman,serif" font-size="15.00">Log senddate procedure confirmation</text>
</g>
<!-- 2757335550912&#45;&#45;2757335561808 -->
<g id="edge25" class="edge">
<title>2757335550912&#45;&#45;2757335561808</title>
<path fill="none" stroke="black" d="M3957.98,-223.89C3998.83,-230.06 4080.61,-242.41 4146.21,-252.31"/>
</g>
<!-- 2757335560608 -->
<g id="node40" class="node">
<title>2757335560608</title>
<ellipse fill="none" stroke="black" cx="4244.47" cy="-213" rx="27" ry="18"/>
<text text-anchor="middle" x="4244.47" y="-207" font-family="Times New Roman,serif" font-size="15.00">seq</text>
</g>
<!-- 2757335550912&#45;&#45;2757335560608 -->
<g id="edge36" class="edge">
<title>2757335550912&#45;&#45;2757335560608</title>
<path fill="none" stroke="black" d="M3958.51,-219.41C4017.28,-218.09 4158.79,-214.9 4217.39,-213.59"/>
</g>
<!-- 2757335557440 -->
<g id="node41" class="node">
<title>2757335557440</title>
<ellipse fill="none" stroke="black" cx="4584.32" cy="-261" rx="27" ry="18"/>
<text text-anchor="middle" x="4584.32" y="-255" font-family="Times New Roman,serif" font-size="15.00">and</text>
</g>
<!-- 2757335560608&#45;&#45;2757335557440 -->
<g id="edge32" class="edge">
<title>2757335560608&#45;&#45;2757335557440</title>
<path fill="none" stroke="black" d="M4271.14,-216.65C4333.97,-225.57 4494.9,-248.44 4557.68,-257.36"/>
</g>
<!-- 2757335555664 -->
<g id="node48" class="node">
<title>2757335555664</title>
<ellipse fill="none" stroke="black" cx="4584.32" cy="-207" rx="27" ry="18"/>
<text text-anchor="middle" x="4584.32" y="-201" font-family="Times New Roman,serif" font-size="15.00">xor</text>
</g>
<!-- 2757335560608&#45;&#45;2757335555664 -->
<g id="edge35" class="edge">
<title>2757335560608&#45;&#45;2757335555664</title>
<path fill="none" stroke="black" d="M4271.7,-212.53C4334.65,-211.42 4493.71,-208.59 4556.87,-207.47"/>
</g>
<!-- 2757335552928 -->
<g id="node42" class="node">
<title>2757335552928</title>
<ellipse fill="none" stroke="black" cx="4916.99" cy="-311" rx="27" ry="18"/>
<text text-anchor="middle" x="4916.99" y="-305" font-family="Times New Roman,serif" font-size="15.00">xor</text>
</g>
<!-- 2757335557440&#45;&#45;2757335552928 -->
<g id="edge28" class="edge">
<title>2757335557440&#45;&#45;2757335552928</title>
<path fill="none" stroke="black" d="M4610.99,-264.88C4672.75,-274.22 4829.05,-297.85 4890.57,-307.16"/>
</g>
<!-- 2757335552064 -->
<g id="node45" class="node">
<title>2757335552064</title>
<ellipse fill="none" stroke="black" cx="4916.99" cy="-257" rx="27" ry="18"/>
<text text-anchor="middle" x="4916.99" y="-251" font-family="Times New Roman,serif" font-size="15.00">xor</text>
</g>
<!-- 2757335557440&#45;&#45;2757335552064 -->
<g id="edge31" class="edge">
<title>2757335557440&#45;&#45;2757335552064</title>
<path fill="none" stroke="black" d="M4611.54,-260.68C4673.41,-259.93 4827.9,-258.07 4889.77,-257.32"/>
</g>
<!-- 2757335549904 -->
<g id="node43" class="node">
<title>2757335549904</title>
<ellipse fill="black" stroke="black" cx="5312.11" cy="-346" rx="2.7" ry="2.7"/>
</g>
<!-- 2757335552928&#45;&#45;2757335549904 -->
<g id="edge26" class="edge">
<title>2757335552928&#45;&#45;2757335549904</title>
<path fill="none" stroke="black" d="M4944.09,-313.32C5027.44,-320.74 5283.25,-343.52 5309.01,-345.81"/>
</g>
<!-- 2757335548512 -->
<g id="node44" class="node">
<title>2757335548512</title>
<ellipse fill="none" stroke="black" cx="5312.11" cy="-307" rx="204.89" ry="18"/>
<text text-anchor="middle" x="5312.11" y="-301" font-family="Times New Roman,serif" font-size="15.00">No permit necessary or only notification needed</text>
</g>
<!-- 2757335552928&#45;&#45;2757335548512 -->
<g id="edge27" class="edge">
<title>2757335552928&#45;&#45;2757335548512</title>
<path fill="none" stroke="black" d="M4944.4,-310.73C4979.09,-310.38 5043.27,-309.73 5108.36,-309.06"/>
</g>
<!-- 2757335561424 -->
<g id="node46" class="node">
<title>2757335561424</title>
<ellipse fill="black" stroke="black" cx="5312.11" cy="-261" rx="2.7" ry="2.7"/>
</g>
<!-- 2757335552064&#45;&#45;2757335561424 -->
<g id="edge29" class="edge">
<title>2757335552064&#45;&#45;2757335561424</title>
<path fill="none" stroke="black" d="M4944.4,-257.27C5028.06,-258.12 5283.31,-260.72 5309.02,-260.98"/>
</g>
<!-- 2757335560704 -->
<g id="node47" class="node">
<title>2757335560704</title>
<ellipse fill="none" stroke="black" cx="5312.11" cy="-222" rx="95.88" ry="18"/>
<text text-anchor="middle" x="5312.11" y="-216" font-family="Times New Roman,serif" font-size="15.00">Terminate on request</text>
</g>
<!-- 2757335552064&#45;&#45;2757335560704 -->
<g id="edge30" class="edge">
<title>2757335552064&#45;&#45;2757335560704</title>
<path fill="none" stroke="black" d="M4944.09,-254.68C5000.34,-249.67 5135.15,-237.67 5224.77,-229.69"/>
</g>
<!-- 2757335559792 -->
<g id="node49" class="node">
<title>2757335559792</title>
<ellipse fill="black" stroke="black" cx="4916.99" cy="-211" rx="2.7" ry="2.7"/>
</g>
<!-- 2757335555664&#45;&#45;2757335559792 -->
<g id="edge33" class="edge">
<title>2757335555664&#45;&#45;2757335559792</title>
<path fill="none" stroke="black" d="M4611.54,-207.32C4685.48,-208.21 4891.69,-210.71 4914.03,-210.98"/>
</g>
<!-- 2757335558496 -->
<g id="node50" class="node">
<title>2757335558496</title>
<ellipse fill="none" stroke="black" cx="4916.99" cy="-172" rx="154.22" ry="18"/>
<text text-anchor="middle" x="4916.99" y="-166" font-family="Times New Roman,serif" font-size="15.00">draft no permit or notification letter</text>
</g>
<!-- 2757335555664&#45;&#45;2757335558496 -->
<g id="edge34" class="edge">
<title>2757335555664&#45;&#45;2757335558496</title>
<path fill="none" stroke="black" d="M4611.26,-204.25C4651.84,-199.96 4732.74,-191.4 4800.98,-184.17"/>
</g>
<!-- 2757335555088 -->
<g id="node52" class="node">
<title>2757335555088</title>
<ellipse fill="black" stroke="black" cx="4244.47" cy="-174" rx="2.7" ry="2.7"/>
</g>
<!-- 2757335548848&#45;&#45;2757335555088 -->
<g id="edge38" class="edge">
<title>2757335548848&#45;&#45;2757335555088</title>
<path fill="none" stroke="black" d="M3958.51,-166.68C4029.44,-168.5 4220.92,-173.42 4241.65,-173.95"/>
</g>
<!-- 2757335563872 -->
<g id="node53" class="node">
<title>2757335563872</title>
<ellipse fill="none" stroke="black" cx="4244.47" cy="-135" rx="27" ry="18"/>
<text text-anchor="middle" x="4244.47" y="-129" font-family="Times New Roman,serif" font-size="15.00">and</text>
</g>
<!-- 2757335548848&#45;&#45;2757335563872 -->
<g id="edge41" class="edge">
<title>2757335548848&#45;&#45;2757335563872</title>
<path fill="none" stroke="black" d="M3958.24,-163.41C4016.83,-157.57 4158.61,-143.45 4217.33,-137.6"/>
</g>
<!-- 2757335554704 -->
<g id="node54" class="node">
<title>2757335554704</title>
<ellipse fill="none" stroke="black" cx="4584.32" cy="-141" rx="142.45" ry="18"/>
<text text-anchor="middle" x="4584.32" y="-135" font-family="Times New Roman,serif" font-size="15.00">Direct to the competent authority</text>
</g>
<!-- 2757335563872&#45;&#45;2757335554704 -->
<g id="edge39" class="edge">
<title>2757335563872&#45;&#45;2757335554704</title>
<path fill="none" stroke="black" d="M4271.7,-135.47C4308.6,-136.12 4378.53,-137.36 4442.81,-138.5"/>
</g>
<!-- 2757335553312 -->
<g id="node55" class="node">
<title>2757335553312</title>
<ellipse fill="none" stroke="black" cx="4584.32" cy="-87" rx="141.94" ry="18"/>
<text text-anchor="middle" x="4584.32" y="-81" font-family="Times New Roman,serif" font-size="15.00">Normal procedure without MER</text>
</g>
<!-- 2757335563872&#45;&#45;2757335553312 -->
<g id="edge40" class="edge">
<title>2757335563872&#45;&#45;2757335553312</title>
<path fill="none" stroke="black" d="M4271.14,-131.35C4316.72,-124.88 4413.94,-111.06 4487.85,-100.56"/>
</g>
<!-- 2757335548992 -->
<g id="node57" class="node">
<title>2757335548992</title>
<ellipse fill="black" stroke="black" cx="3734.19" cy="-139" rx="2.7" ry="2.7"/>
</g>
<!-- 2757335560272&#45;&#45;2757335548992 -->
<g id="edge45" class="edge">
<title>2757335560272&#45;&#45;2757335548992</title>
<path fill="none" stroke="black" d="M3545.45,-139C3598.57,-139 3715.19,-139 3731.33,-139"/>
</g>
<!-- 2757335559168 -->
<g id="node58" class="node">
<title>2757335559168</title>
<ellipse fill="none" stroke="black" cx="3734.19" cy="-96" rx="27" ry="18"/>
<text text-anchor="middle" x="3734.19" y="-90" font-family="Times New Roman,serif" font-size="15.00">seq</text>
</g>
<!-- 2757335560272&#45;&#45;2757335559168 -->
<g id="edge50" class="edge">
<title>2757335560272&#45;&#45;2757335559168</title>
<path fill="none" stroke="black" d="M3544.6,-133.9C3585.78,-125.62 3666.68,-109.37 3707.84,-101.09"/>
</g>
<!-- 2757335551728 -->
<g id="node59" class="node">
<title>2757335551728</title>
<ellipse fill="none" stroke="black" cx="3931.24" cy="-96" rx="27" ry="18"/>
<text text-anchor="middle" x="3931.24" y="-90" font-family="Times New Roman,serif" font-size="15.00">xor</text>
</g>
<!-- 2757335559168&#45;&#45;2757335551728 -->
<g id="edge48" class="edge">
<title>2757335559168&#45;&#45;2757335551728</title>
<path fill="none" stroke="black" d="M3761.5,-96C3798.83,-96 3866.77,-96 3904.04,-96"/>
</g>
<!-- 2757335550528 -->
<g id="node62" class="node">
<title>2757335550528</title>
<ellipse fill="none" stroke="black" cx="3931.24" cy="-42" rx="103.56" ry="18"/>
<text text-anchor="middle" x="3931.24" y="-36" font-family="Times New Roman,serif" font-size="15.00">Start WABOprocedure</text>
</g>
<!-- 2757335559168&#45;&#45;2757335550528 -->
<g id="edge49" class="edge">
<title>2757335559168&#45;&#45;2757335550528</title>
<path fill="none" stroke="black" d="M3759.5,-89.27C3788.1,-81.35 3836.48,-67.96 3874.46,-57.44"/>
</g>
<!-- 2757335548224 -->
<g id="node60" class="node">
<title>2757335548224</title>
<ellipse fill="black" stroke="black" cx="4244.47" cy="-96" rx="2.7" ry="2.7"/>
</g>
<!-- 2757335551728&#45;&#45;2757335548224 -->
<g id="edge46" class="edge">
<title>2757335551728&#45;&#45;2757335548224</title>
<path fill="none" stroke="black" d="M3958.51,-96C4029.44,-96 4220.92,-96 4241.65,-96"/>
</g>
<!-- 2757335562960 -->
<g id="node61" class="node">
<title>2757335562960</title>
<ellipse fill="none" stroke="black" cx="4244.47" cy="-57" rx="50.84" ry="18"/>
<text text-anchor="middle" x="4244.47" y="-51" font-family="Times New Roman,serif" font-size="15.00">Announce</text>
</g>
<!-- 2757335551728&#45;&#45;2757335562960 -->
<g id="edge47" class="edge">
<title>2757335551728&#45;&#45;2757335562960</title>
<path fill="none" stroke="black" d="M3958.24,-92.74C4010.62,-86.18 4129.49,-71.28 4196.06,-62.94"/>
</g>
<!-- 2757335558832 -->
<g id="node64" class="node">
<title>2757335558832</title>
<ellipse fill="black" stroke="black" cx="2551.39" cy="-265" rx="2.7" ry="2.7"/>
</g>
<!-- 2757335381824&#45;&#45;2757335558832 -->
<g id="edge56" class="edge">
<title>2757335381824&#45;&#45;2757335558832</title>
<path fill="none" stroke="black" d="M2180.51,-261.27C2264.5,-262.11 2522.31,-264.72 2548.28,-264.98"/>
</g>
<!-- 2757335554752 -->
<g id="node65" class="node">
<title>2757335554752</title>
<ellipse fill="none" stroke="black" cx="2551.39" cy="-226" rx="173.67" ry="18"/>
<text text-anchor="middle" x="2551.39" y="-220" font-family="Times New Roman,serif" font-size="15.00">Procedure phase terminated prematurely</text>
</g>
<!-- 2757335381824&#45;&#45;2757335554752 -->
<g id="edge57" class="edge">
<title>2757335381824&#45;&#45;2757335554752</title>
<path fill="none" stroke="black" d="M2180.2,-258.7C2227.71,-254.51 2331.58,-245.33 2417.23,-237.76"/>
</g>
<!-- 2757335381584 -->
<g id="node67" class="node">
<title>2757335381584</title>
<ellipse fill="black" stroke="black" cx="1800.57" cy="-269" rx="2.7" ry="2.7"/>
</g>
<!-- 2757335374480&#45;&#45;2757335381584 -->
<g id="edge61" class="edge">
<title>2757335374480&#45;&#45;2757335381584</title>
<path fill="none" stroke="black" d="M1427.29,-265.27C1511.83,-266.11 1771.3,-268.72 1797.44,-268.98"/>
</g>
<!-- 2757335562912 -->
<g id="node68" class="node">
<title>2757335562912</title>
<ellipse fill="none" stroke="black" cx="1800.57" cy="-230" rx="128.12" ry="18"/>
<text text-anchor="middle" x="1800.57" y="-224" font-family="Times New Roman,serif" font-size="15.00">Send procedure confirmation</text>
</g>
<!-- 2757335374480&#45;&#45;2757335562912 -->
<g id="edge62" class="edge">
<title>2757335374480&#45;&#45;2757335562912</title>
<path fill="none" stroke="black" d="M1426.98,-262.7C1479.57,-258.09 1600.73,-247.45 1690.69,-239.56"/>
</g>
<!-- 2757335368864 -->
<g id="node70" class="node">
<title>2757335368864</title>
<ellipse fill="black" stroke="black" cx="319.38" cy="-291" rx="2.7" ry="2.7"/>
</g>
<!-- 2757335382400&#45;&#45;2757335368864 -->
<g id="edge68" class="edge">
<title>2757335382400&#45;&#45;2757335368864</title>
<path fill="none" stroke="black" d="M144.2,-274.48C194.27,-279.23 300.05,-289.26 316.28,-290.8"/>
</g>
<!-- 2757335367856 -->
<g id="node71" class="node">
<title>2757335367856</title>
<ellipse fill="none" stroke="black" cx="319.38" cy="-252" rx="27" ry="18"/>
<text text-anchor="middle" x="319.38" y="-246" font-family="Times New Roman,serif" font-size="15.00">seq</text>
</g>
<!-- 2757335382400&#45;&#45;2757335367856 -->
<g id="edge71" class="edge">
<title>2757335382400&#45;&#45;2757335367856</title>
<path fill="none" stroke="black" d="M144.2,-269.39C182.6,-265.55 253.77,-258.45 292.18,-254.62"/>
</g>
<!-- 2757335373520 -->
<g id="node74" class="node">
<title>2757335373520</title>
<ellipse fill="none" stroke="black" cx="319.38" cy="-134" rx="27" ry="18"/>
<text text-anchor="middle" x="319.38" y="-128" font-family="Times New Roman,serif" font-size="15.00">seq</text>
</g>
<!-- 2757335382400&#45;&#45;2757335373520 -->
<g id="edge83" class="edge">
<title>2757335382400&#45;&#45;2757335373520</title>
<path fill="none" stroke="black" d="M136.49,-259.26C174.67,-232.98 261.8,-172.97 299.93,-146.7"/>
</g>
<!-- 2757335377168 -->
<g id="node72" class="node">
<title>2757335377168</title>
<ellipse fill="none" stroke="black" cx="683.79" cy="-279" rx="54.93" ry="18"/>
<text text-anchor="middle" x="683.79" y="-273" font-family="Times New Roman,serif" font-size="15.00">Pause term</text>
</g>
<!-- 2757335367856&#45;&#45;2757335377168 -->
<g id="edge69" class="edge">
<title>2757335367856&#45;&#45;2757335377168</title>
<path fill="none" stroke="black" d="M346.45,-253.94C405.6,-258.35 551,-269.18 629.86,-275.06"/>
</g>
<!-- 2757335550864 -->
<g id="node73" class="node">
<title>2757335550864</title>
<ellipse fill="none" stroke="black" cx="683.79" cy="-225" rx="189.03" ry="18"/>
<text text-anchor="middle" x="683.79" y="-219" font-family="Times New Roman,serif" font-size="15.00">Register date of publishing received request</text>
</g>
<!-- 2757335367856&#45;&#45;2757335550864 -->
<g id="edge70" class="edge">
<title>2757335367856&#45;&#45;2757335550864</title>
<path fill="none" stroke="black" d="M346.45,-250.06C385.64,-247.14 462.69,-241.4 533.17,-236.15"/>
</g>
<!-- 2757335556768 -->
<g id="node75" class="node">
<title>2757335556768</title>
<ellipse fill="none" stroke="black" cx="683.79" cy="-161" rx="27" ry="18"/>
<text text-anchor="middle" x="683.79" y="-155" font-family="Times New Roman,serif" font-size="15.00">xor</text>
</g>
<!-- 2757335373520&#45;&#45;2757335556768 -->
<g id="edge78" class="edge">
<title>2757335373520&#45;&#45;2757335556768</title>
<path fill="none" stroke="black" d="M346.45,-135.94C413.15,-140.91 589.5,-154.05 656.48,-159.04"/>
</g>
<!-- 2757335557536 -->
<g id="node82" class="node">
<title>2757335557536</title>
<ellipse fill="none" stroke="black" cx="683.79" cy="-107" rx="123" ry="18"/>
<text text-anchor="middle" x="683.79" y="-101" font-family="Times New Roman,serif" font-size="15.00">Phase procedure terminated</text>
</g>
<!-- 2757335373520&#45;&#45;2757335557536 -->
<g id="edge79" class="edge">
<title>2757335373520&#45;&#45;2757335557536</title>
<path fill="none" stroke="black" d="M346.45,-132.06C393.27,-128.57 494.12,-121.06 573.24,-115.16"/>
</g>
<!-- 2757335561280 -->
<g id="node83" class="node">
<title>2757335561280</title>
<ellipse fill="none" stroke="black" cx="683.79" cy="-53" rx="27" ry="18"/>
<text text-anchor="middle" x="683.79" y="-47" font-family="Times New Roman,serif" font-size="15.00">xor</text>
</g>
<!-- 2757335373520&#45;&#45;2757335561280 -->
<g id="edge82" class="edge">
<title>2757335373520&#45;&#45;2757335561280</title>
<path fill="none" stroke="black" d="M345.29,-128.43C411.5,-113.64 591.3,-73.45 657.71,-58.61"/>
</g>
<!-- 2757335550000 -->
<g id="node76" class="node">
<title>2757335550000</title>
<ellipse fill="none" stroke="black" cx="1018.01" cy="-161" rx="27" ry="18"/>
<text text-anchor="middle" x="1018.01" y="-155" font-family="Times New Roman,serif" font-size="15.00">seq</text>
</g>
<!-- 2757335556768&#45;&#45;2757335550000 -->
<g id="edge74" class="edge">
<title>2757335556768&#45;&#45;2757335550000</title>
<path fill="none" stroke="black" d="M711.14,-161C773.29,-161 928.5,-161 990.66,-161"/>
</g>
<!-- 2757335561760 -->
<g id="node79" class="node">
<title>2757335561760</title>
<ellipse fill="none" stroke="black" cx="1018.01" cy="-103" rx="27" ry="18"/>
<text text-anchor="middle" x="1018.01" y="-97" font-family="Times New Roman,serif" font-size="15.00">seq</text>
</g>
<!-- 2757335556768&#45;&#45;2757335561760 -->
<g id="edge77" class="edge">
<title>2757335556768&#45;&#45;2757335561760</title>
<path fill="none" stroke="black" d="M710.31,-156.55C772.15,-145.75 929.47,-118.28 991.4,-107.47"/>
</g>
<!-- 2757335559360 -->
<g id="node77" class="node">
<title>2757335559360</title>
<ellipse fill="none" stroke="black" cx="1399.82" cy="-211" rx="158.32" ry="18"/>
<text text-anchor="middle" x="1399.82" y="-205" font-family="Times New Roman,serif" font-size="15.00">Log senddate for termination request</text>
</g>
<!-- 2757335550000&#45;&#45;2757335559360 -->
<g id="edge72" class="edge">
<title>2757335550000&#45;&#45;2757335559360</title>
<path fill="none" stroke="black" d="M1044.81,-164.4C1095.15,-171.02 1208.96,-186.01 1294.03,-197.21"/>
</g>
<!-- 2757335558064 -->
<g id="node78" class="node">
<title>2757335558064</title>
<ellipse fill="none" stroke="black" cx="1399.82" cy="-157" rx="128.12" ry="18"/>
<text text-anchor="middle" x="1399.82" y="-151" font-family="Times New Roman,serif" font-size="15.00">Message to terminate request</text>
</g>
<!-- 2757335550000&#45;&#45;2757335558064 -->
<g id="edge73" class="edge">
<title>2757335550000&#45;&#45;2757335558064</title>
<path fill="none" stroke="black" d="M1045.41,-160.72C1091.76,-160.23 1190.55,-159.19 1271.93,-158.34"/>
</g>
<!-- 2757335555376 -->
<g id="node80" class="node">
<title>2757335555376</title>
<ellipse fill="none" stroke="black" cx="1399.82" cy="-103" rx="236.63" ry="18"/>
<text text-anchor="middle" x="1399.82" y="-97" font-family="Times New Roman,serif" font-size="15.00">record senddate letter no permit or notification required</text>
</g>
<!-- 2757335561760&#45;&#45;2757335555376 -->
<g id="edge75" class="edge">
<title>2757335561760&#45;&#45;2757335555376</title>
<path fill="none" stroke="black" d="M1045.41,-103C1071.82,-103 1115.27,-103 1162.82,-103"/>
</g>
<!-- 2757335553984 -->
<g id="node81" class="node">
<title>2757335553984</title>
<ellipse fill="none" stroke="black" cx="1399.82" cy="-49" rx="88.71" ry="18"/>
<text text-anchor="middle" x="1399.82" y="-43" font-family="Times New Roman,serif" font-size="15.00">Document deadline</text>
</g>
<!-- 2757335561760&#45;&#45;2757335553984 -->
<g id="edge76" class="edge">
<title>2757335561760&#45;&#45;2757335553984</title>
<path fill="none" stroke="black" d="M1044.81,-99.33C1101.83,-91.22 1240.28,-71.54 1326.16,-59.33"/>
</g>
<!-- 2757335551344 -->
<g id="node84" class="node">
<title>2757335551344</title>
<ellipse fill="black" stroke="black" cx="1018.01" cy="-57" rx="2.7" ry="2.7"/>
</g>
<!-- 2757335561280&#45;&#45;2757335551344 -->
<g id="edge80" class="edge">
<title>2757335561280&#45;&#45;2757335551344</title>
<path fill="none" stroke="black" d="M711.14,-53.32C785.42,-54.21 992.59,-56.71 1015.03,-56.98"/>
</g>
<!-- 2757335550624 -->
<g id="node85" class="node">
<title>2757335550624</title>
<ellipse fill="none" stroke="black" cx="1018.01" cy="-18" rx="65.17" ry="18"/>
<text text-anchor="middle" x="1018.01" y="-12" font-family="Times New Roman,serif" font-size="15.00">Close the file</text>
</g>
<!-- 2757335561280&#45;&#45;2757335550624 -->
<g id="edge81" class="edge">
<title>2757335561280&#45;&#45;2757335550624</title>
<path fill="none" stroke="black" d="M710.86,-50.25C763.4,-44.72 883.24,-32.09 956.43,-24.38"/>
</g>
</g>
</svg>
