<?xml version="1.0" encoding="UTF-8" standalone="no"?>
<!DOCTYPE svg PUBLIC "-//W3C//DTD SVG 1.1//EN"
 "http://www.w3.org/Graphics/SVG/1.1/DTD/svg11.dtd">
<!-- Generated by graphviz version 11.0.0 (20240428.1522)
 -->
<!-- Title: pt Pages: 1 -->
<svg width="3468pt" height="770pt"
 viewBox="0.00 0.00 3467.95 770.00" xmlns="http://www.w3.org/2000/svg" xmlns:xlink="http://www.w3.org/1999/xlink">
<g id="graph0" class="graph" transform="scale(1 1) rotate(0) translate(4 766)">
<title>pt</title>
<polygon fill="white" stroke="none" points="-4,4 -4,-766 3463.95,-766 3463.95,4 -4,4"/>
<!-- 2757335029744 -->
<g id="node1" class="node">
<title>2757335029744</title>
<ellipse fill="none" stroke="black" cx="27" cy="-315" rx="27" ry="18"/>
<text text-anchor="middle" x="27" y="-309" font-family="Times New Roman,serif" font-size="15.00">seq</text>
</g>
<!-- 2757334641040 -->
<g id="node2" class="node">
<title>2757334641040</title>
<ellipse fill="none" stroke="black" cx="117" cy="-423" rx="27" ry="18"/>
<text text-anchor="middle" x="117" y="-417" font-family="Times New Roman,serif" font-size="15.00">xor</text>
</g>
<!-- 2757335029744&#45;&#45;2757334641040 -->
<g id="edge46" class="edge">
<title>2757335029744&#45;&#45;2757334641040</title>
<path fill="none" stroke="black" d="M40.61,-330.47C57.24,-350.89 86.36,-386.63 103.13,-407.2"/>
</g>
<!-- 2757334641568 -->
<g id="node48" class="node">
<title>2757334641568</title>
<ellipse fill="none" stroke="black" cx="117" cy="-261" rx="27" ry="18"/>
<text text-anchor="middle" x="117" y="-255" font-family="Times New Roman,serif" font-size="15.00">xor</text>
</g>
<!-- 2757335029744&#45;&#45;2757334641568 -->
<g id="edge56" class="edge">
<title>2757335029744&#45;&#45;2757334641568</title>
<path fill="none" stroke="black" d="M47.53,-303.02C62.11,-294.07 81.95,-281.89 96.52,-272.95"/>
</g>
<!-- 2757334633648 -->
<g id="node3" class="node">
<title>2757334633648</title>
<ellipse fill="black" stroke="black" cx="312.73" cy="-462" rx="2.7" ry="2.7"/>
</g>
<!-- 2757334641040&#45;&#45;2757334633648 -->
<g id="edge1" class="edge">
<title>2757334641040&#45;&#45;2757334633648</title>
<path fill="none" stroke="black" d="M143.33,-428.1C191.74,-437.84 294.01,-458.43 309.69,-461.59"/>
</g>
<!-- 2757334630816 -->
<g id="node4" class="node">
<title>2757334630816</title>
<ellipse fill="none" stroke="black" cx="312.73" cy="-423" rx="27" ry="18"/>
<text text-anchor="middle" x="312.73" y="-417" font-family="Times New Roman,serif" font-size="15.00">seq</text>
</g>
<!-- 2757334641040&#45;&#45;2757334630816 -->
<g id="edge45" class="edge">
<title>2757334641040&#45;&#45;2757334630816</title>
<path fill="none" stroke="black" d="M144.13,-423C181.1,-423 248.31,-423 285.4,-423"/>
</g>
<!-- 2757336618704 -->
<g id="node5" class="node">
<title>2757336618704</title>
<ellipse fill="none" stroke="black" cx="670.49" cy="-643" rx="27" ry="18"/>
<text text-anchor="middle" x="670.49" y="-637" font-family="Times New Roman,serif" font-size="15.00">and</text>
</g>
<!-- 2757334630816&#45;&#45;2757336618704 -->
<g id="edge33" class="edge">
<title>2757334630816&#45;&#45;2757336618704</title>
<path fill="none" stroke="black" d="M333.36,-435.14C395.56,-473.61 587.8,-592.48 649.91,-630.9"/>
</g>
<!-- 2757335030800 -->
<g id="node37" class="node">
<title>2757335030800</title>
<ellipse fill="none" stroke="black" cx="670.49" cy="-558" rx="27" ry="18"/>
<text text-anchor="middle" x="670.49" y="-552" font-family="Times New Roman,serif" font-size="15.00">xor</text>
</g>
<!-- 2757334630816&#45;&#45;2757335030800 -->
<g id="edge37" class="edge">
<title>2757334630816&#45;&#45;2757335030800</title>
<path fill="none" stroke="black" d="M336.8,-431.75C401.16,-456.18 582.17,-524.87 646.47,-549.27"/>
</g>
<!-- 2757336339264 -->
<g id="node41" class="node">
<title>2757336339264</title>
<ellipse fill="none" stroke="black" cx="670.49" cy="-504" rx="142.45" ry="18"/>
<text text-anchor="middle" x="670.49" y="-498" font-family="Times New Roman,serif" font-size="15.00">Direct to the competent authority</text>
</g>
<!-- 2757334630816&#45;&#45;2757336339264 -->
<g id="edge38" class="edge">
<title>2757334630816&#45;&#45;2757336339264</title>
<path fill="none" stroke="black" d="M338.75,-428.7C392.2,-440.87 519.22,-469.79 599.38,-488.04"/>
</g>
<!-- 2757335135776 -->
<g id="node42" class="node">
<title>2757335135776</title>
<ellipse fill="none" stroke="black" cx="670.49" cy="-450" rx="141.94" ry="18"/>
<text text-anchor="middle" x="670.49" y="-444" font-family="Times New Roman,serif" font-size="15.00">Normal procedure without MER</text>
</g>
<!-- 2757334630816&#45;&#45;2757335135776 -->
<g id="edge39" class="edge">
<title>2757334630816&#45;&#45;2757335135776</title>
<path fill="none" stroke="black" d="M339.89,-424.99C383.29,-428.28 472.83,-435.08 547.64,-440.75"/>
</g>
<!-- 2757335129824 -->
<g id="node43" class="node">
<title>2757335129824</title>
<ellipse fill="none" stroke="black" cx="670.49" cy="-396" rx="134.78" ry="18"/>
<text text-anchor="middle" x="670.49" y="-390" font-family="Times New Roman,serif" font-size="15.00">Create procedure confirmation</text>
</g>
<!-- 2757334630816&#45;&#45;2757335129824 -->
<g id="edge40" class="edge">
<title>2757334630816&#45;&#45;2757335129824</title>
<path fill="none" stroke="black" d="M339.89,-421.01C384.18,-417.65 476.49,-410.65 552.19,-404.9"/>
</g>
<!-- 2757335137984 -->
<g id="node44" class="node">
<title>2757335137984</title>
<ellipse fill="none" stroke="black" cx="670.49" cy="-342" rx="27" ry="18"/>
<text text-anchor="middle" x="670.49" y="-336" font-family="Times New Roman,serif" font-size="15.00">xor</text>
</g>
<!-- 2757334630816&#45;&#45;2757335137984 -->
<g id="edge43" class="edge">
<title>2757334630816&#45;&#45;2757335137984</title>
<path fill="none" stroke="black" d="M338.75,-417.3C404.06,-402.43 579.21,-362.55 644.5,-347.69"/>
</g>
<!-- 2757335028736 -->
<g id="node47" class="node">
<title>2757335028736</title>
<ellipse fill="none" stroke="black" cx="670.49" cy="-288" rx="103.56" ry="18"/>
<text text-anchor="middle" x="670.49" y="-282" font-family="Times New Roman,serif" font-size="15.00">Start WABOprocedure</text>
</g>
<!-- 2757334630816&#45;&#45;2757335028736 -->
<g id="edge44" class="edge">
<title>2757334630816&#45;&#45;2757335028736</title>
<path fill="none" stroke="black" d="M336.8,-414.25C395.15,-392.1 549.41,-333.57 625.61,-304.65"/>
</g>
<!-- 2757336626384 -->
<g id="node6" class="node">
<title>2757336626384</title>
<ellipse fill="none" stroke="black" cx="1056.9" cy="-724" rx="139.38" ry="18"/>
<text text-anchor="middle" x="1056.9" y="-718" font-family="Times New Roman,serif" font-size="15.00">Record submission date request</text>
</g>
<!-- 2757336618704&#45;&#45;2757336626384 -->
<g id="edge2" class="edge">
<title>2757336618704&#45;&#45;2757336626384</title>
<path fill="none" stroke="black" d="M696.71,-648.31C753.75,-660.33 894.5,-689.99 981.91,-708.41"/>
</g>
<!-- 2757336619712 -->
<g id="node7" class="node">
<title>2757336619712</title>
<ellipse fill="none" stroke="black" cx="1056.9" cy="-670" rx="124.03" ry="18"/>
<text text-anchor="middle" x="1056.9" y="-664" font-family="Times New Roman,serif" font-size="15.00">Period application received</text>
</g>
<!-- 2757336618704&#45;&#45;2757336619712 -->
<g id="edge3" class="edge">
<title>2757336618704&#45;&#45;2757336619712</title>
<path fill="none" stroke="black" d="M697.61,-644.83C747.46,-648.34 858.81,-656.16 944.24,-662.16"/>
</g>
<!-- 2757336619088 -->
<g id="node8" class="node">
<title>2757336619088</title>
<ellipse fill="none" stroke="black" cx="1056.9" cy="-616" rx="27" ry="18"/>
<text text-anchor="middle" x="1056.9" y="-610" font-family="Times New Roman,serif" font-size="15.00">seq</text>
</g>
<!-- 2757336618704&#45;&#45;2757336619088 -->
<g id="edge32" class="edge">
<title>2757336618704&#45;&#45;2757336619088</title>
<path fill="none" stroke="black" d="M697.61,-641.17C767.74,-636.24 959.58,-622.77 1029.75,-617.84"/>
</g>
<!-- 2757336615152 -->
<g id="node9" class="node">
<title>2757336615152</title>
<ellipse fill="none" stroke="black" cx="1363.48" cy="-643" rx="109.19" ry="18"/>
<text text-anchor="middle" x="1363.48" y="-637" font-family="Times New Roman,serif" font-size="15.00">OLO messaging ongoing</text>
</g>
<!-- 2757336619088&#45;&#45;2757336615152 -->
<g id="edge4" class="edge">
<title>2757336619088&#45;&#45;2757336615152</title>
<path fill="none" stroke="black" d="M1084.14,-618.33C1124.25,-621.88 1202.86,-628.85 1266.34,-634.48"/>
</g>
<!-- 2757336622064 -->
<g id="node10" class="node">
<title>2757336622064</title>
<ellipse fill="none" stroke="black" cx="1363.48" cy="-589" rx="27" ry="18"/>
<text text-anchor="middle" x="1363.48" y="-583" font-family="Times New Roman,serif" font-size="15.00">and</text>
</g>
<!-- 2757336619088&#45;&#45;2757336622064 -->
<g id="edge31" class="edge">
<title>2757336619088&#45;&#45;2757336622064</title>
<path fill="none" stroke="black" d="M1084.14,-613.67C1141.71,-608.57 1278.59,-596.44 1336.2,-591.33"/>
</g>
<!-- 2757336621056 -->
<g id="node11" class="node">
<title>2757336621056</title>
<ellipse fill="none" stroke="black" cx="1535.67" cy="-616" rx="27" ry="18"/>
<text text-anchor="middle" x="1535.67" y="-610" font-family="Times New Roman,serif" font-size="15.00">xor</text>
</g>
<!-- 2757336622064&#45;&#45;2757336621056 -->
<g id="edge7" class="edge">
<title>2757336622064&#45;&#45;2757336621056</title>
<path fill="none" stroke="black" d="M1389.96,-593.04C1422.04,-598.13 1476.85,-606.83 1509.01,-611.93"/>
</g>
<!-- 2757336617072 -->
<g id="node14" class="node">
<title>2757336617072</title>
<ellipse fill="none" stroke="black" cx="1535.67" cy="-562" rx="27" ry="18"/>
<text text-anchor="middle" x="1535.67" y="-556" font-family="Times New Roman,serif" font-size="15.00">seq</text>
</g>
<!-- 2757336622064&#45;&#45;2757336617072 -->
<g id="edge30" class="edge">
<title>2757336622064&#45;&#45;2757336617072</title>
<path fill="none" stroke="black" d="M1389.96,-584.96C1422.04,-579.87 1476.85,-571.17 1509.01,-566.07"/>
</g>
<!-- 2757336625376 -->
<g id="node12" class="node">
<title>2757336625376</title>
<ellipse fill="black" stroke="black" cx="1787.18" cy="-655" rx="2.7" ry="2.7"/>
</g>
<!-- 2757336621056&#45;&#45;2757336625376 -->
<g id="edge5" class="edge">
<title>2757336621056&#45;&#45;2757336625376</title>
<path fill="none" stroke="black" d="M1562.43,-620.03C1621.95,-629.33 1765.36,-651.74 1784.14,-654.68"/>
</g>
<!-- 2757336616160 -->
<g id="node13" class="node">
<title>2757336616160</title>
<ellipse fill="none" stroke="black" cx="1787.18" cy="-616" rx="188.52" ry="18"/>
<text text-anchor="middle" x="1787.18" y="-610" font-family="Times New Roman,serif" font-size="15.00">Document date termination request received</text>
</g>
<!-- 2757336621056&#45;&#45;2757336616160 -->
<g id="edge6" class="edge">
<title>2757336621056&#45;&#45;2757336616160</title>
<path fill="none" stroke="black" d="M1562.9,-616C1572.78,-616 1584.93,-616 1598.41,-616"/>
</g>
<!-- 2757336621728 -->
<g id="node15" class="node">
<title>2757336621728</title>
<ellipse fill="none" stroke="black" cx="1787.18" cy="-562" rx="27" ry="18"/>
<text text-anchor="middle" x="1787.18" y="-556" font-family="Times New Roman,serif" font-size="15.00">and</text>
</g>
<!-- 2757336617072&#45;&#45;2757336621728 -->
<g id="edge26" class="edge">
<title>2757336617072&#45;&#45;2757336621728</title>
<path fill="none" stroke="black" d="M1562.9,-562C1610.82,-562 1711.99,-562 1759.93,-562"/>
</g>
<!-- 2757335026576 -->
<g id="node34" class="node">
<title>2757335026576</title>
<ellipse fill="none" stroke="black" cx="1787.18" cy="-508" rx="27" ry="18"/>
<text text-anchor="middle" x="1787.18" y="-502" font-family="Times New Roman,serif" font-size="15.00">xor</text>
</g>
<!-- 2757336617072&#45;&#45;2757335026576 -->
<g id="edge29" class="edge">
<title>2757336617072&#45;&#45;2757335026576</title>
<path fill="none" stroke="black" d="M1561.5,-556.62C1609.21,-546.3 1713.16,-523.8 1761.07,-513.43"/>
</g>
<!-- 2757336627728 -->
<g id="node16" class="node">
<title>2757336627728</title>
<ellipse fill="none" stroke="black" cx="2185.37" cy="-705" rx="45.21" ry="18"/>
<text text-anchor="middle" x="2185.37" y="-699" font-family="Times New Roman,serif" font-size="15.00">xor loop</text>
</g>
<!-- 2757336621728&#45;&#45;2757336627728 -->
<g id="edge10" class="edge">
<title>2757336621728&#45;&#45;2757336627728</title>
<path fill="none" stroke="black" d="M1811.49,-570.41C1878.58,-594.63 2072.4,-664.59 2150.83,-692.89"/>
</g>
<!-- 2757336617216 -->
<g id="node19" class="node">
<title>2757336617216</title>
<ellipse fill="none" stroke="black" cx="2185.37" cy="-558" rx="27" ry="18"/>
<text text-anchor="middle" x="2185.37" y="-552" font-family="Times New Roman,serif" font-size="15.00">seq</text>
</g>
<!-- 2757336621728&#45;&#45;2757336617216 -->
<g id="edge25" class="edge">
<title>2757336621728&#45;&#45;2757336617216</title>
<path fill="none" stroke="black" d="M1814.48,-561.73C1886.47,-561.01 2086.11,-558.99 2158.08,-558.27"/>
</g>
<!-- 2757336616832 -->
<g id="node17" class="node">
<title>2757336616832</title>
<ellipse fill="none" stroke="black" cx="2599.94" cy="-744" rx="115.84" ry="18"/>
<text text-anchor="middle" x="2599.94" y="-738" font-family="Times New Roman,serif" font-size="15.00">Issue confirmation receipt</text>
</g>
<!-- 2757336627728&#45;&#45;2757336616832 -->
<g id="edge8" class="edge">
<title>2757336627728&#45;&#45;2757336616832</title>
<path fill="none" stroke="black" d="M2229.74,-709.1C2293.36,-715.11 2413.73,-726.49 2499.74,-734.62"/>
</g>
<!-- 2757336614000 -->
<g id="node18" class="node">
<title>2757336614000</title>
<ellipse fill="black" stroke="black" cx="2599.94" cy="-705" rx="2.7" ry="2.7"/>
</g>
<!-- 2757336627728&#45;&#45;2757336614000 -->
<g id="edge9" class="edge">
<title>2757336627728&#45;&#45;2757336614000</title>
<path fill="none" stroke="black" d="M2230.91,-705C2332.18,-705 2572.79,-705 2596.97,-705"/>
</g>
<!-- 2757336625568 -->
<g id="node20" class="node">
<title>2757336625568</title>
<ellipse fill="none" stroke="black" cx="2599.94" cy="-666" rx="27" ry="18"/>
<text text-anchor="middle" x="2599.94" y="-660" font-family="Times New Roman,serif" font-size="15.00">xor</text>
</g>
<!-- 2757336617216&#45;&#45;2757336625568 -->
<g id="edge15" class="edge">
<title>2757336617216&#45;&#45;2757336625568</title>
<path fill="none" stroke="black" d="M2210.94,-564.43C2284.24,-583.62 2500.77,-640.3 2574.23,-659.53"/>
</g>
<!-- 2757335030656 -->
<g id="node25" class="node">
<title>2757335030656</title>
<ellipse fill="none" stroke="black" cx="2599.94" cy="-612" rx="204.89" ry="18"/>
<text text-anchor="middle" x="2599.94" y="-606" font-family="Times New Roman,serif" font-size="15.00">No permit necessary or only notification needed</text>
</g>
<!-- 2757336617216&#45;&#45;2757335030656 -->
<g id="edge16" class="edge">
<title>2757336617216&#45;&#45;2757335030656</title>
<path fill="none" stroke="black" d="M2212.18,-561.38C2265.28,-568.33 2389.61,-584.6 2483.08,-596.84"/>
</g>
<!-- 2757335029792 -->
<g id="node26" class="node">
<title>2757335029792</title>
<ellipse fill="none" stroke="black" cx="2599.94" cy="-558" rx="98.95" ry="18"/>
<text text-anchor="middle" x="2599.94" y="-552" font-family="Times New Roman,serif" font-size="15.00">Applicant is involved</text>
</g>
<!-- 2757336617216&#45;&#45;2757335029792 -->
<g id="edge17" class="edge">
<title>2757336617216&#45;&#45;2757335029792</title>
<path fill="none" stroke="black" d="M2212.81,-558C2269.72,-558 2406.32,-558 2500.77,-558"/>
</g>
<!-- 2757335027680 -->
<g id="node27" class="node">
<title>2757335027680</title>
<ellipse fill="none" stroke="black" cx="2599.94" cy="-504" rx="27" ry="18"/>
<text text-anchor="middle" x="2599.94" y="-498" font-family="Times New Roman,serif" font-size="15.00">xor</text>
</g>
<!-- 2757336617216&#45;&#45;2757335027680 -->
<g id="edge20" class="edge">
<title>2757336617216&#45;&#45;2757335027680</title>
<path fill="none" stroke="black" d="M2212.18,-554.62C2286.27,-544.92 2499.06,-517.07 2573.14,-507.38"/>
</g>
<!-- 2757335023792 -->
<g id="node30" class="node">
<title>2757335023792</title>
<ellipse fill="none" stroke="black" cx="2599.94" cy="-450" rx="138.87" ry="18"/>
<text text-anchor="middle" x="2599.94" y="-444" font-family="Times New Roman,serif" font-size="15.00">Log senddate acknowledgement</text>
</g>
<!-- 2757336617216&#45;&#45;2757335023792 -->
<g id="edge21" class="edge">
<title>2757336617216&#45;&#45;2757335023792</title>
<path fill="none" stroke="black" d="M2210.94,-551.57C2274.09,-535.04 2443.55,-490.68 2536.25,-466.41"/>
</g>
<!-- 2757335030272 -->
<g id="node31" class="node">
<title>2757335030272</title>
<ellipse fill="none" stroke="black" cx="2599.94" cy="-396" rx="27" ry="18"/>
<text text-anchor="middle" x="2599.94" y="-390" font-family="Times New Roman,serif" font-size="15.00">xor</text>
</g>
<!-- 2757336617216&#45;&#45;2757335030272 -->
<g id="edge24" class="edge">
<title>2757336617216&#45;&#45;2757335030272</title>
<path fill="none" stroke="black" d="M2209.14,-549.06C2281.19,-520.77 2503.68,-433.4 2575.99,-405.01"/>
</g>
<!-- 2757334632592 -->
<g id="node21" class="node">
<title>2757334632592</title>
<ellipse fill="black" stroke="black" cx="2977.14" cy="-685" rx="2.7" ry="2.7"/>
</g>
<!-- 2757336625568&#45;&#45;2757334632592 -->
<g id="edge11" class="edge">
<title>2757336625568&#45;&#45;2757334632592</title>
<path fill="none" stroke="black" d="M2627.32,-667.34C2708.39,-671.44 2949.85,-683.67 2974.16,-684.9"/>
</g>
<!-- 2757335030944 -->
<g id="node22" class="node">
<title>2757335030944</title>
<ellipse fill="none" stroke="black" cx="2977.14" cy="-646" rx="27" ry="18"/>
<text text-anchor="middle" x="2977.14" y="-640" font-family="Times New Roman,serif" font-size="15.00">seq</text>
</g>
<!-- 2757336625568&#45;&#45;2757335030944 -->
<g id="edge14" class="edge">
<title>2757336625568&#45;&#45;2757335030944</title>
<path fill="none" stroke="black" d="M2627.32,-664.59C2696.21,-660.92 2880.93,-651.08 2949.79,-647.4"/>
</g>
<!-- 2757335024608 -->
<g id="node23" class="node">
<title>2757335024608</title>
<ellipse fill="none" stroke="black" cx="3304.7" cy="-673" rx="118.91" ry="18"/>
<text text-anchor="middle" x="3304.7" y="-667" font-family="Times New Roman,serif" font-size="15.00">Competent authority action</text>
</g>
<!-- 2757335030944&#45;&#45;2757335024608 -->
<g id="edge12" class="edge">
<title>2757335030944&#45;&#45;2757335024608</title>
<path fill="none" stroke="black" d="M3004.24,-648.16C3046.18,-651.64 3130.86,-658.67 3199.51,-664.36"/>
</g>
<!-- 2757335036272 -->
<g id="node24" class="node">
<title>2757335036272</title>
<ellipse fill="none" stroke="black" cx="3304.7" cy="-619" rx="155.25" ry="18"/>
<text text-anchor="middle" x="3304.7" y="-613" font-family="Times New Roman,serif" font-size="15.00">Generate terminate request message</text>
</g>
<!-- 2757335030944&#45;&#45;2757335036272 -->
<g id="edge13" class="edge">
<title>2757335030944&#45;&#45;2757335036272</title>
<path fill="none" stroke="black" d="M3004.24,-643.84C3041.66,-640.73 3113.09,-634.81 3176.8,-629.52"/>
</g>
<!-- 2757335039536 -->
<g id="node28" class="node">
<title>2757335039536</title>
<ellipse fill="black" stroke="black" cx="2977.14" cy="-524" rx="2.7" ry="2.7"/>
</g>
<!-- 2757335027680&#45;&#45;2757335039536 -->
<g id="edge18" class="edge">
<title>2757335027680&#45;&#45;2757335039536</title>
<path fill="none" stroke="black" d="M2627.32,-505.41C2708.39,-509.73 2949.85,-522.6 2974.16,-523.89"/>
</g>
<!-- 2757335131408 -->
<g id="node29" class="node">
<title>2757335131408</title>
<ellipse fill="none" stroke="black" cx="2977.14" cy="-485" rx="95.88" ry="18"/>
<text text-anchor="middle" x="2977.14" y="-479" font-family="Times New Roman,serif" font-size="15.00">Terminate on request</text>
</g>
<!-- 2757335027680&#45;&#45;2757335131408 -->
<g id="edge19" class="edge">
<title>2757335027680&#45;&#45;2757335131408</title>
<path fill="none" stroke="black" d="M2627.32,-502.66C2679.78,-500.01 2799.41,-493.95 2883.89,-489.67"/>
</g>
<!-- 2757335135008 -->
<g id="node32" class="node">
<title>2757335135008</title>
<ellipse fill="black" stroke="black" cx="2977.14" cy="-416" rx="2.7" ry="2.7"/>
</g>
<!-- 2757335030272&#45;&#45;2757335135008 -->
<g id="edge22" class="edge">
<title>2757335030272&#45;&#45;2757335135008</title>
<path fill="none" stroke="black" d="M2627.32,-397.41C2708.39,-401.73 2949.85,-414.6 2974.16,-415.89"/>
</g>
<!-- 2757335134528 -->
<g id="node33" class="node">
<title>2757335134528</title>
<ellipse fill="none" stroke="black" cx="2977.14" cy="-377" rx="136.31" ry="18"/>
<text text-anchor="middle" x="2977.14" y="-371" font-family="Times New Roman,serif" font-size="15.00">Reception through OLO system</text>
</g>
<!-- 2757335030272&#45;&#45;2757335134528 -->
<g id="edge23" class="edge">
<title>2757335030272&#45;&#45;2757335134528</title>
<path fill="none" stroke="black" d="M2627.32,-394.66C2672.94,-392.35 2769.36,-387.47 2849.29,-383.42"/>
</g>
<!-- 2757335137600 -->
<g id="node35" class="node">
<title>2757335137600</title>
<ellipse fill="black" stroke="black" cx="2185.37" cy="-512" rx="2.7" ry="2.7"/>
</g>
<!-- 2757335026576&#45;&#45;2757335137600 -->
<g id="edge27" class="edge">
<title>2757335026576&#45;&#45;2757335137600</title>
<path fill="none" stroke="black" d="M1814.48,-508.27C1898.48,-509.11 2156.29,-511.72 2182.26,-511.98"/>
</g>
<!-- 2757335126512 -->
<g id="node36" class="node">
<title>2757335126512</title>
<ellipse fill="none" stroke="black" cx="2185.37" cy="-473" rx="173.67" ry="18"/>
<text text-anchor="middle" x="2185.37" y="-467" font-family="Times New Roman,serif" font-size="15.00">Procedure phase terminated prematurely</text>
</g>
<!-- 2757335026576&#45;&#45;2757335126512 -->
<g id="edge28" class="edge">
<title>2757335026576&#45;&#45;2757335126512</title>
<path fill="none" stroke="black" d="M1814.18,-505.7C1861.69,-501.51 1965.55,-492.33 2051.21,-484.76"/>
</g>
<!-- 2757335125648 -->
<g id="node38" class="node">
<title>2757335125648</title>
<ellipse fill="black" stroke="black" cx="1056.9" cy="-577" rx="2.7" ry="2.7"/>
</g>
<!-- 2757335030800&#45;&#45;2757335125648 -->
<g id="edge34" class="edge">
<title>2757335030800&#45;&#45;2757335125648</title>
<path fill="none" stroke="black" d="M697.91,-559.31C780.35,-563.38 1028.84,-575.66 1053.87,-576.9"/>
</g>
<!-- 2757335129872 -->
<g id="node39" class="node">
<title>2757335129872</title>
<ellipse fill="none" stroke="black" cx="1056.9" cy="-538" rx="161.39" ry="18"/>
<text text-anchor="middle" x="1056.9" y="-532" font-family="Times New Roman,serif" font-size="15.00">Log senddate procedure confirmation</text>
</g>
<!-- 2757335030800&#45;&#45;2757335129872 -->
<g id="edge35" class="edge">
<title>2757335030800&#45;&#45;2757335129872</title>
<path fill="none" stroke="black" d="M697.91,-556.63C741.33,-554.37 830.83,-549.71 909.47,-545.62"/>
</g>
<!-- 2757335472688 -->
<g id="node40" class="node">
<title>2757335472688</title>
<ellipse fill="none" stroke="black" cx="1056.9" cy="-484" rx="154.22" ry="18"/>
<text text-anchor="middle" x="1056.9" y="-478" font-family="Times New Roman,serif" font-size="15.00">draft no permit or notification letter</text>
</g>
<!-- 2757335030800&#45;&#45;2757335472688 -->
<g id="edge36" class="edge">
<title>2757335030800&#45;&#45;2757335472688</title>
<path fill="none" stroke="black" d="M696.71,-553.14C752.25,-542.45 887.14,-516.49 974.89,-499.59"/>
</g>
<!-- 2757335473696 -->
<g id="node45" class="node">
<title>2757335473696</title>
<ellipse fill="black" stroke="black" cx="1056.9" cy="-361" rx="2.7" ry="2.7"/>
</g>
<!-- 2757335137984&#45;&#45;2757335473696 -->
<g id="edge41" class="edge">
<title>2757335137984&#45;&#45;2757335473696</title>
<path fill="none" stroke="black" d="M697.91,-343.31C780.35,-347.38 1028.84,-359.66 1053.87,-360.9"/>
</g>
<!-- 2757335478448 -->
<g id="node46" class="node">
<title>2757335478448</title>
<ellipse fill="none" stroke="black" cx="1056.9" cy="-322" rx="50.84" ry="18"/>
<text text-anchor="middle" x="1056.9" y="-316" font-family="Times New Roman,serif" font-size="15.00">Announce</text>
</g>
<!-- 2757335137984&#45;&#45;2757335478448 -->
<g id="edge42" class="edge">
<title>2757335137984&#45;&#45;2757335478448</title>
<path fill="none" stroke="black" d="M697.91,-340.63C761.52,-337.32 923.99,-328.86 1006.39,-324.58"/>
</g>
<!-- 2757335765344 -->
<g id="node49" class="node">
<title>2757335765344</title>
<ellipse fill="black" stroke="black" cx="312.73" cy="-300" rx="2.7" ry="2.7"/>
</g>
<!-- 2757334641568&#45;&#45;2757335765344 -->
<g id="edge47" class="edge">
<title>2757334641568&#45;&#45;2757335765344</title>
<path fill="none" stroke="black" d="M143.33,-266.1C191.74,-275.84 294.01,-296.43 309.69,-299.59"/>
</g>
<!-- 2757335481808 -->
<g id="node50" class="node">
<title>2757335481808</title>
<ellipse fill="none" stroke="black" cx="312.73" cy="-261" rx="132.73" ry="18"/>
<text text-anchor="middle" x="312.73" y="-255" font-family="Times New Roman,serif" font-size="15.00">Create subcases completeness</text>
</g>
<!-- 2757334641568&#45;&#45;2757335481808 -->
<g id="edge48" class="edge">
<title>2757334641568&#45;&#45;2757335481808</title>
<path fill="none" stroke="black" d="M144.13,-261C154.15,-261 166.38,-261 179.64,-261"/>
</g>
<!-- 2757335478928 -->
<g id="node51" class="node">
<title>2757335478928</title>
<ellipse fill="none" stroke="black" cx="312.73" cy="-207" rx="27" ry="18"/>
<text text-anchor="middle" x="312.73" y="-201" font-family="Times New Roman,serif" font-size="15.00">seq</text>
</g>
<!-- 2757334641568&#45;&#45;2757335478928 -->
<g id="edge51" class="edge">
<title>2757334641568&#45;&#45;2757335478928</title>
<path fill="none" stroke="black" d="M142.54,-254.16C179.8,-243.77 250.25,-224.14 287.39,-213.78"/>
</g>
<!-- 2757334634896 -->
<g id="node54" class="node">
<title>2757334634896</title>
<ellipse fill="none" stroke="black" cx="312.73" cy="-99" rx="27" ry="18"/>
<text text-anchor="middle" x="312.73" y="-93" font-family="Times New Roman,serif" font-size="15.00">seq</text>
</g>
<!-- 2757334641568&#45;&#45;2757334634896 -->
<g id="edge55" class="edge">
<title>2757334641568&#45;&#45;2757334634896</title>
<path fill="none" stroke="black" d="M134.52,-247.19C171.03,-216.66 258.25,-143.72 294.98,-113.01"/>
</g>
<!-- 2757335472352 -->
<g id="node52" class="node">
<title>2757335472352</title>
<ellipse fill="none" stroke="black" cx="670.49" cy="-234" rx="54.93" ry="18"/>
<text text-anchor="middle" x="670.49" y="-228" font-family="Times New Roman,serif" font-size="15.00">Pause term</text>
</g>
<!-- 2757335478928&#45;&#45;2757335472352 -->
<g id="edge49" class="edge">
<title>2757335478928&#45;&#45;2757335472352</title>
<path fill="none" stroke="black" d="M339.89,-208.99C398.06,-213.4 539.08,-224.1 616.47,-229.98"/>
</g>
<!-- 2757335469760 -->
<g id="node53" class="node">
<title>2757335469760</title>
<ellipse fill="none" stroke="black" cx="670.49" cy="-180" rx="189.03" ry="18"/>
<text text-anchor="middle" x="670.49" y="-174" font-family="Times New Roman,serif" font-size="15.00">Register date of publishing received request</text>
</g>
<!-- 2757335478928&#45;&#45;2757335469760 -->
<g id="edge50" class="edge">
<title>2757335478928&#45;&#45;2757335469760</title>
<path fill="none" stroke="black" d="M339.89,-205.01C378.16,-202.11 452.29,-196.48 520.58,-191.3"/>
</g>
<!-- 2757335474272 -->
<g id="node55" class="node">
<title>2757335474272</title>
<ellipse fill="none" stroke="black" cx="670.49" cy="-126" rx="158.32" ry="18"/>
<text text-anchor="middle" x="670.49" y="-120" font-family="Times New Roman,serif" font-size="15.00">Log senddate for termination request</text>
</g>
<!-- 2757334634896&#45;&#45;2757335474272 -->
<g id="edge52" class="edge">
<title>2757334634896&#45;&#45;2757335474272</title>
<path fill="none" stroke="black" d="M339.89,-100.99C381.29,-104.13 464.66,-110.45 537.18,-115.96"/>
</g>
<!-- 2757335469712 -->
<g id="node56" class="node">
<title>2757335469712</title>
<ellipse fill="none" stroke="black" cx="670.49" cy="-72" rx="128.12" ry="18"/>
<text text-anchor="middle" x="670.49" y="-66" font-family="Times New Roman,serif" font-size="15.00">Message to terminate request</text>
</g>
<!-- 2757334634896&#45;&#45;2757335469712 -->
<g id="edge53" class="edge">
<title>2757334634896&#45;&#45;2757335469712</title>
<path fill="none" stroke="black" d="M339.89,-97.01C385.06,-93.59 480.19,-86.37 556.69,-80.56"/>
</g>
<!-- 2757335470336 -->
<g id="node57" class="node">
<title>2757335470336</title>
<ellipse fill="none" stroke="black" cx="670.49" cy="-18" rx="123" ry="18"/>
<text text-anchor="middle" x="670.49" y="-12" font-family="Times New Roman,serif" font-size="15.00">Phase procedure terminated</text>
</g>
<!-- 2757334634896&#45;&#45;2757335470336 -->
<g id="edge54" class="edge">
<title>2757334634896&#45;&#45;2757335470336</title>
<path fill="none" stroke="black" d="M338.75,-93.3C392.84,-80.99 522.24,-51.53 602.2,-33.32"/>
</g>
</g>
</svg>
