<?xml version="1.0" encoding="UTF-8" standalone="no"?>
<!DOCTYPE svg PUBLIC "-//W3C//DTD SVG 1.1//EN"
 "http://www.w3.org/Graphics/SVG/1.1/DTD/svg11.dtd">
<!-- Generated by graphviz version 11.0.0 (20240428.1522)
 -->
<!-- Title: pt Pages: 1 -->
<svg width="2199pt" height="774pt"
 viewBox="0.00 0.00 2199.33 773.70" xmlns="http://www.w3.org/2000/svg" xmlns:xlink="http://www.w3.org/1999/xlink">
<g id="graph0" class="graph" transform="scale(1 1) rotate(0) translate(4 769.7)">
<title>pt</title>
<polygon fill="white" stroke="none" points="-4,4 -4,-769.7 2195.33,-769.7 2195.33,4 -4,4"/>
<!-- 2757335871472 -->
<g id="node1" class="node">
<title>2757335871472</title>
<ellipse fill="none" stroke="black" cx="27" cy="-477" rx="27" ry="18"/>
<text text-anchor="middle" x="27" y="-471" font-family="Times New Roman,serif" font-size="15.00">seq</text>
</g>
<!-- 2757335859520 -->
<g id="node2" class="node">
<title>2757335859520</title>
<ellipse fill="none" stroke="black" cx="232.45" cy="-666" rx="139.38" ry="18"/>
<text text-anchor="middle" x="232.45" y="-660" font-family="Times New Roman,serif" font-size="15.00">Record submission date request</text>
</g>
<!-- 2757335871472&#45;&#45;2757335859520 -->
<g id="edge1" class="edge">
<title>2757335871472&#45;&#45;2757335859520</title>
<path fill="none" stroke="black" d="M43.63,-491.52C80.29,-525.57 171.75,-610.54 211.96,-647.9"/>
</g>
<!-- 2757335870704 -->
<g id="node3" class="node">
<title>2757335870704</title>
<ellipse fill="none" stroke="black" cx="232.45" cy="-612" rx="27" ry="18"/>
<text text-anchor="middle" x="232.45" y="-606" font-family="Times New Roman,serif" font-size="15.00">xor</text>
</g>
<!-- 2757335871472&#45;&#45;2757335870704 -->
<g id="edge4" class="edge">
<title>2757335871472&#45;&#45;2757335870704</title>
<path fill="none" stroke="black" d="M46.78,-489.46C85.44,-515.11 173.55,-573.58 212.43,-599.38"/>
</g>
<!-- 2757335871904 -->
<g id="node6" class="node">
<title>2757335871904</title>
<ellipse fill="none" stroke="black" cx="232.45" cy="-531" rx="27" ry="18"/>
<text text-anchor="middle" x="232.45" y="-525" font-family="Times New Roman,serif" font-size="15.00">and</text>
</g>
<!-- 2757335871472&#45;&#45;2757335871904 -->
<g id="edge26" class="edge">
<title>2757335871472&#45;&#45;2757335871904</title>
<path fill="none" stroke="black" d="M52.54,-483.51C91.65,-493.89 167.67,-514.07 206.83,-524.46"/>
</g>
<!-- 2757335865472 -->
<g id="node28" class="node">
<title>2757335865472</title>
<ellipse fill="none" stroke="black" cx="232.45" cy="-477" rx="27" ry="18"/>
<text text-anchor="middle" x="232.45" y="-471" font-family="Times New Roman,serif" font-size="15.00">xor</text>
</g>
<!-- 2757335871472&#45;&#45;2757335865472 -->
<g id="edge30" class="edge">
<title>2757335871472&#45;&#45;2757335865472</title>
<path fill="none" stroke="black" d="M54.18,-477C93.14,-477 165.96,-477 205.05,-477"/>
</g>
<!-- 2757335867104 -->
<g id="node32" class="node">
<title>2757335867104</title>
<ellipse fill="none" stroke="black" cx="232.45" cy="-423" rx="142.45" ry="18"/>
<text text-anchor="middle" x="232.45" y="-417" font-family="Times New Roman,serif" font-size="15.00">Direct to the competent authority</text>
</g>
<!-- 2757335871472&#45;&#45;2757335867104 -->
<g id="edge31" class="edge">
<title>2757335871472&#45;&#45;2757335867104</title>
<path fill="none" stroke="black" d="M52.54,-470.49C81.29,-462.86 129.99,-449.93 169.32,-439.49"/>
</g>
<!-- 2757335862448 -->
<g id="node33" class="node">
<title>2757335862448</title>
<ellipse fill="none" stroke="black" cx="232.45" cy="-369" rx="141.94" ry="18"/>
<text text-anchor="middle" x="232.45" y="-363" font-family="Times New Roman,serif" font-size="15.00">Normal procedure without MER</text>
</g>
<!-- 2757335871472&#45;&#45;2757335862448 -->
<g id="edge32" class="edge">
<title>2757335871472&#45;&#45;2757335862448</title>
<path fill="none" stroke="black" d="M48.63,-466.05C83.78,-447.39 155.61,-409.26 198.02,-386.75"/>
</g>
<!-- 2757335872336 -->
<g id="node34" class="node">
<title>2757335872336</title>
<ellipse fill="none" stroke="black" cx="232.45" cy="-293" rx="27" ry="18"/>
<text text-anchor="middle" x="232.45" y="-287" font-family="Times New Roman,serif" font-size="15.00">xor</text>
</g>
<!-- 2757335871472&#45;&#45;2757335872336 -->
<g id="edge58" class="edge">
<title>2757335871472&#45;&#45;2757335872336</title>
<path fill="none" stroke="black" d="M43.96,-462.56C82,-428.17 177.61,-341.7 215.56,-307.37"/>
</g>
<!-- 2757335866096 -->
<g id="node4" class="node">
<title>2757335866096</title>
<ellipse fill="black" stroke="black" cx="572.3" cy="-671" rx="2.7" ry="2.7"/>
</g>
<!-- 2757335870704&#45;&#45;2757335866096 -->
<g id="edge2" class="edge">
<title>2757335870704&#45;&#45;2757335866096</title>
<path fill="none" stroke="black" d="M259.12,-616.48C333.65,-629.5 546.24,-666.62 569.27,-670.65"/>
</g>
<!-- 2757335859616 -->
<g id="node5" class="node">
<title>2757335859616</title>
<ellipse fill="none" stroke="black" cx="572.3" cy="-632" rx="109.19" ry="18"/>
<text text-anchor="middle" x="572.3" y="-626" font-family="Times New Roman,serif" font-size="15.00">OLO messaging ongoing</text>
</g>
<!-- 2757335870704&#45;&#45;2757335859616 -->
<g id="edge3" class="edge">
<title>2757335870704&#45;&#45;2757335859616</title>
<path fill="none" stroke="black" d="M259.68,-613.55C304.1,-616.18 396.38,-621.65 469.05,-625.95"/>
</g>
<!-- 2757335865232 -->
<g id="node7" class="node">
<title>2757335865232</title>
<ellipse fill="none" stroke="black" cx="572.3" cy="-578" rx="138.87" ry="18"/>
<text text-anchor="middle" x="572.3" y="-572" font-family="Times New Roman,serif" font-size="15.00">Log senddate acknowledgement</text>
</g>
<!-- 2757335871904&#45;&#45;2757335865232 -->
<g id="edge5" class="edge">
<title>2757335871904&#45;&#45;2757335865232</title>
<path fill="none" stroke="black" d="M259.4,-534.61C305.06,-540.96 401.91,-554.44 475.65,-564.69"/>
</g>
<!-- 2757335868976 -->
<g id="node8" class="node">
<title>2757335868976</title>
<ellipse fill="none" stroke="black" cx="572.3" cy="-524" rx="27" ry="18"/>
<text text-anchor="middle" x="572.3" y="-518" font-family="Times New Roman,serif" font-size="15.00">seq</text>
</g>
<!-- 2757335871904&#45;&#45;2757335868976 -->
<g id="edge25" class="edge">
<title>2757335871904&#45;&#45;2757335868976</title>
<path fill="none" stroke="black" d="M259.68,-530.46C322.63,-529.15 481.69,-525.86 544.85,-524.55"/>
</g>
<!-- 2757335872960 -->
<g id="node9" class="node">
<title>2757335872960</title>
<ellipse fill="none" stroke="black" cx="897.81" cy="-663" rx="27" ry="18"/>
<text text-anchor="middle" x="897.81" y="-657" font-family="Times New Roman,serif" font-size="15.00">xor</text>
</g>
<!-- 2757335868976&#45;&#45;2757335872960 -->
<g id="edge15" class="edge">
<title>2757335868976&#45;&#45;2757335872960</title>
<path fill="none" stroke="black" d="M595.53,-533.55C654.63,-558.95 815.14,-627.91 874.42,-653.38"/>
</g>
<!-- 2757335870176 -->
<g id="node19" class="node">
<title>2757335870176</title>
<ellipse fill="none" stroke="black" cx="897.81" cy="-524" rx="27" ry="18"/>
<text text-anchor="middle" x="897.81" y="-518" font-family="Times New Roman,serif" font-size="15.00">and</text>
</g>
<!-- 2757335868976&#45;&#45;2757335870176 -->
<g id="edge24" class="edge">
<title>2757335868976&#45;&#45;2757335870176</title>
<path fill="none" stroke="black" d="M599.77,-524C660.59,-524 809.69,-524 870.42,-524"/>
</g>
<!-- 2757335864512 -->
<g id="node10" class="node">
<title>2757335864512</title>
<ellipse fill="black" stroke="black" cx="1196.71" cy="-702" rx="2.7" ry="2.7"/>
</g>
<!-- 2757335872960&#45;&#45;2757335864512 -->
<g id="edge6" class="edge">
<title>2757335872960&#45;&#45;2757335864512</title>
<path fill="none" stroke="black" d="M924.64,-666.39C992.92,-675.36 1174.34,-699.19 1193.98,-701.77"/>
</g>
<!-- 2757297044512 -->
<g id="node11" class="node">
<title>2757297044512</title>
<ellipse fill="none" stroke="black" cx="1196.71" cy="-663" rx="27" ry="18"/>
<text text-anchor="middle" x="1196.71" y="-657" font-family="Times New Roman,serif" font-size="15.00">seq</text>
</g>
<!-- 2757335872960&#45;&#45;2757297044512 -->
<g id="edge14" class="edge">
<title>2757335872960&#45;&#45;2757297044512</title>
<path fill="none" stroke="black" d="M925.16,-663C981.5,-663 1113.13,-663 1169.42,-663"/>
</g>
<!-- 2757335776816 -->
<g id="node12" class="node">
<title>2757335776816</title>
<ellipse fill="none" stroke="black" cx="1556.51" cy="-744" rx="27" ry="18"/>
<text text-anchor="middle" x="1556.51" y="-738" font-family="Times New Roman,serif" font-size="15.00">xor</text>
</g>
<!-- 2757297044512&#45;&#45;2757335776816 -->
<g id="edge9" class="edge">
<title>2757297044512&#45;&#45;2757335776816</title>
<path fill="none" stroke="black" d="M1222.87,-668.7C1288.56,-683.57 1464.72,-723.45 1530.38,-738.31"/>
</g>
<!-- 2757335768176 -->
<g id="node15" class="node">
<title>2757335768176</title>
<ellipse fill="none" stroke="black" cx="1556.51" cy="-690" rx="98.95" ry="18"/>
<text text-anchor="middle" x="1556.51" y="-684" font-family="Times New Roman,serif" font-size="15.00">Applicant is involved</text>
</g>
<!-- 2757297044512&#45;&#45;2757335768176 -->
<g id="edge10" class="edge">
<title>2757297044512&#45;&#45;2757335768176</title>
<path fill="none" stroke="black" d="M1224.02,-664.99C1273.97,-668.75 1384.66,-677.11 1464.41,-683.13"/>
</g>
<!-- 2757335774320 -->
<g id="node16" class="node">
<title>2757335774320</title>
<ellipse fill="none" stroke="black" cx="1556.51" cy="-636" rx="27" ry="18"/>
<text text-anchor="middle" x="1556.51" y="-630" font-family="Times New Roman,serif" font-size="15.00">xor</text>
</g>
<!-- 2757297044512&#45;&#45;2757335774320 -->
<g id="edge13" class="edge">
<title>2757297044512&#45;&#45;2757335774320</title>
<path fill="none" stroke="black" d="M1224.02,-661.01C1290.35,-656.01 1463.8,-642.92 1529.65,-637.95"/>
</g>
<!-- 2757335773504 -->
<g id="node13" class="node">
<title>2757335773504</title>
<ellipse fill="black" stroke="black" cx="1986.43" cy="-763" rx="2.7" ry="2.7"/>
</g>
<!-- 2757335776816&#45;&#45;2757335773504 -->
<g id="edge7" class="edge">
<title>2757335776816&#45;&#45;2757335773504</title>
<path fill="none" stroke="black" d="M1583.64,-745.16C1672.19,-749.09 1956.95,-761.74 1983.45,-762.91"/>
</g>
<!-- 2757335766160 -->
<g id="node14" class="node">
<title>2757335766160</title>
<ellipse fill="none" stroke="black" cx="1986.43" cy="-724" rx="204.89" ry="18"/>
<text text-anchor="middle" x="1986.43" y="-718" font-family="Times New Roman,serif" font-size="15.00">No permit necessary or only notification needed</text>
</g>
<!-- 2757335776816&#45;&#45;2757335766160 -->
<g id="edge8" class="edge">
<title>2757335776816&#45;&#45;2757335766160</title>
<path fill="none" stroke="black" d="M1583.64,-742.78C1627.41,-740.73 1719.14,-736.45 1803.92,-732.48"/>
</g>
<!-- 2757335765152 -->
<g id="node17" class="node">
<title>2757335765152</title>
<ellipse fill="black" stroke="black" cx="1986.43" cy="-651" rx="2.7" ry="2.7"/>
</g>
<!-- 2757335774320&#45;&#45;2757335765152 -->
<g id="edge11" class="edge">
<title>2757335774320&#45;&#45;2757335765152</title>
<path fill="none" stroke="black" d="M1583.96,-636.93C1672.88,-640.04 1957.01,-650 1983.46,-650.93"/>
</g>
<!-- 2757335777104 -->
<g id="node18" class="node">
<title>2757335777104</title>
<ellipse fill="none" stroke="black" cx="1986.43" cy="-612" rx="95.88" ry="18"/>
<text text-anchor="middle" x="1986.43" y="-606" font-family="Times New Roman,serif" font-size="15.00">Terminate on request</text>
</g>
<!-- 2757335774320&#45;&#45;2757335777104 -->
<g id="edge12" class="edge">
<title>2757335774320&#45;&#45;2757335777104</title>
<path fill="none" stroke="black" d="M1583.64,-634.53C1643.97,-631.15 1795.4,-622.66 1894.15,-617.12"/>
</g>
<!-- 2757335765344 -->
<g id="node20" class="node">
<title>2757335765344</title>
<ellipse fill="none" stroke="black" cx="1196.71" cy="-551" rx="45.21" ry="18"/>
<text text-anchor="middle" x="1196.71" y="-545" font-family="Times New Roman,serif" font-size="15.00">xor loop</text>
</g>
<!-- 2757335870176&#45;&#45;2757335765344 -->
<g id="edge18" class="edge">
<title>2757335870176&#45;&#45;2757335765344</title>
<path fill="none" stroke="black" d="M924.9,-526.37C975.98,-531.02 1089.66,-541.36 1152.27,-547.05"/>
</g>
<!-- 2757335872048 -->
<g id="node23" class="node">
<title>2757335872048</title>
<ellipse fill="none" stroke="black" cx="1196.71" cy="-497" rx="27" ry="18"/>
<text text-anchor="middle" x="1196.71" y="-491" font-family="Times New Roman,serif" font-size="15.00">seq</text>
</g>
<!-- 2757335870176&#45;&#45;2757335872048 -->
<g id="edge23" class="edge">
<title>2757335870176&#45;&#45;2757335872048</title>
<path fill="none" stroke="black" d="M924.9,-521.63C981.21,-516.51 1113.62,-504.47 1169.79,-499.36"/>
</g>
<!-- 2757335774176 -->
<g id="node21" class="node">
<title>2757335774176</title>
<ellipse fill="none" stroke="black" cx="1556.51" cy="-582" rx="115.84" ry="18"/>
<text text-anchor="middle" x="1556.51" y="-576" font-family="Times New Roman,serif" font-size="15.00">Issue confirmation receipt</text>
</g>
<!-- 2757335765344&#45;&#45;2757335774176 -->
<g id="edge16" class="edge">
<title>2757335765344&#45;&#45;2757335774176</title>
<path fill="none" stroke="black" d="M1241.22,-554.77C1293.84,-559.33 1384.07,-567.15 1454.39,-573.24"/>
</g>
<!-- 2757335768704 -->
<g id="node22" class="node">
<title>2757335768704</title>
<ellipse fill="black" stroke="black" cx="1556.51" cy="-543" rx="2.7" ry="2.7"/>
</g>
<!-- 2757335765344&#45;&#45;2757335768704 -->
<g id="edge17" class="edge">
<title>2757335765344&#45;&#45;2757335768704</title>
<path fill="none" stroke="black" d="M1242.3,-550C1332.97,-547.98 1532.11,-543.52 1553.62,-543.04"/>
</g>
<!-- 2757335762848 -->
<g id="node24" class="node">
<title>2757335762848</title>
<ellipse fill="none" stroke="black" cx="1556.51" cy="-504" rx="124.03" ry="18"/>
<text text-anchor="middle" x="1556.51" y="-498" font-family="Times New Roman,serif" font-size="15.00">Period application received</text>
</g>
<!-- 2757335872048&#45;&#45;2757335762848 -->
<g id="edge19" class="edge">
<title>2757335872048&#45;&#45;2757335762848</title>
<path fill="none" stroke="black" d="M1224.02,-497.51C1267.75,-498.37 1358.06,-500.14 1433.39,-501.61"/>
</g>
<!-- 2757335762416 -->
<g id="node25" class="node">
<title>2757335762416</title>
<ellipse fill="none" stroke="black" cx="1556.51" cy="-450" rx="27" ry="18"/>
<text text-anchor="middle" x="1556.51" y="-444" font-family="Times New Roman,serif" font-size="15.00">xor</text>
</g>
<!-- 2757335872048&#45;&#45;2757335762416 -->
<g id="edge22" class="edge">
<title>2757335872048&#45;&#45;2757335762416</title>
<path fill="none" stroke="black" d="M1223.73,-493.58C1289.82,-484.9 1463.6,-462.07 1529.59,-453.41"/>
</g>
<!-- 2757335765008 -->
<g id="node26" class="node">
<title>2757335765008</title>
<ellipse fill="black" stroke="black" cx="1986.43" cy="-482" rx="2.7" ry="2.7"/>
</g>
<!-- 2757335762416&#45;&#45;2757335765008 -->
<g id="edge20" class="edge">
<title>2757335762416&#45;&#45;2757335765008</title>
<path fill="none" stroke="black" d="M1583.64,-451.95C1672.19,-458.58 1956.95,-479.87 1983.45,-481.85"/>
</g>
<!-- 2757335771152 -->
<g id="node27" class="node">
<title>2757335771152</title>
<ellipse fill="none" stroke="black" cx="1986.43" cy="-443" rx="136.31" ry="18"/>
<text text-anchor="middle" x="1986.43" y="-437" font-family="Times New Roman,serif" font-size="15.00">Reception through OLO system</text>
</g>
<!-- 2757335762416&#45;&#45;2757335771152 -->
<g id="edge21" class="edge">
<title>2757335762416&#45;&#45;2757335771152</title>
<path fill="none" stroke="black" d="M1583.96,-449.57C1636.16,-448.71 1755.65,-446.76 1850.78,-445.2"/>
</g>
<!-- 2757335866144 -->
<g id="node29" class="node">
<title>2757335866144</title>
<ellipse fill="black" stroke="black" cx="572.3" cy="-485" rx="2.7" ry="2.7"/>
</g>
<!-- 2757335865472&#45;&#45;2757335866144 -->
<g id="edge27" class="edge">
<title>2757335865472&#45;&#45;2757335866144</title>
<path fill="none" stroke="black" d="M259.68,-477.62C334.72,-479.4 546.35,-484.41 569.28,-484.95"/>
</g>
<!-- 2757335864176 -->
<g id="node30" class="node">
<title>2757335864176</title>
<ellipse fill="none" stroke="black" cx="572.3" cy="-446" rx="161.39" ry="18"/>
<text text-anchor="middle" x="572.3" y="-440" font-family="Times New Roman,serif" font-size="15.00">Log senddate procedure confirmation</text>
</g>
<!-- 2757335865472&#45;&#45;2757335864176 -->
<g id="edge28" class="edge">
<title>2757335865472&#45;&#45;2757335864176</title>
<path fill="none" stroke="black" d="M259.68,-474.59C299.53,-470.94 377.88,-463.75 446.05,-457.49"/>
</g>
<!-- 2757335870464 -->
<g id="node31" class="node">
<title>2757335870464</title>
<ellipse fill="none" stroke="black" cx="572.3" cy="-392" rx="154.22" ry="18"/>
<text text-anchor="middle" x="572.3" y="-386" font-family="Times New Roman,serif" font-size="15.00">draft no permit or notification letter</text>
</g>
<!-- 2757335865472&#45;&#45;2757335870464 -->
<g id="edge29" class="edge">
<title>2757335865472&#45;&#45;2757335870464</title>
<path fill="none" stroke="black" d="M258.3,-470.75C309.8,-457.79 429.71,-427.62 505.26,-408.61"/>
</g>
<!-- 2757335774848 -->
<g id="node35" class="node">
<title>2757335774848</title>
<ellipse fill="none" stroke="black" cx="572.3" cy="-293" rx="27" ry="18"/>
<text text-anchor="middle" x="572.3" y="-287" font-family="Times New Roman,serif" font-size="15.00">seq</text>
</g>
<!-- 2757335872336&#45;&#45;2757335774848 -->
<g id="edge43" class="edge">
<title>2757335872336&#45;&#45;2757335774848</title>
<path fill="none" stroke="black" d="M259.68,-293C322.63,-293 481.69,-293 544.85,-293"/>
</g>
<!-- 2757335766736 -->
<g id="node46" class="node">
<title>2757335766736</title>
<ellipse fill="none" stroke="black" cx="572.3" cy="-192" rx="27" ry="18"/>
<text text-anchor="middle" x="572.3" y="-186" font-family="Times New Roman,serif" font-size="15.00">seq</text>
</g>
<!-- 2757335872336&#45;&#45;2757335766736 -->
<g id="edge57" class="edge">
<title>2757335872336&#45;&#45;2757335766736</title>
<path fill="none" stroke="black" d="M257.48,-285.82C319.59,-267.25 484.94,-217.82 547.17,-199.21"/>
</g>
<!-- 2757335763088 -->
<g id="node36" class="node">
<title>2757335763088</title>
<ellipse fill="none" stroke="black" cx="897.81" cy="-347" rx="27" ry="18"/>
<text text-anchor="middle" x="897.81" y="-341" font-family="Times New Roman,serif" font-size="15.00">and</text>
</g>
<!-- 2757335774848&#45;&#45;2757335763088 -->
<g id="edge39" class="edge">
<title>2757335774848&#45;&#45;2757335763088</title>
<path fill="none" stroke="black" d="M598.95,-297.28C659.48,-307.39 810.62,-332.61 871.15,-342.72"/>
</g>
<!-- 2757335771200 -->
<g id="node43" class="node">
<title>2757335771200</title>
<ellipse fill="none" stroke="black" cx="897.81" cy="-293" rx="27" ry="18"/>
<text text-anchor="middle" x="897.81" y="-287" font-family="Times New Roman,serif" font-size="15.00">xor</text>
</g>
<!-- 2757335774848&#45;&#45;2757335771200 -->
<g id="edge42" class="edge">
<title>2757335774848&#45;&#45;2757335771200</title>
<path fill="none" stroke="black" d="M599.77,-293C660.59,-293 809.69,-293 870.42,-293"/>
</g>
<!-- 2757335763568 -->
<g id="node37" class="node">
<title>2757335763568</title>
<ellipse fill="none" stroke="black" cx="1196.71" cy="-395" rx="27" ry="18"/>
<text text-anchor="middle" x="1196.71" y="-389" font-family="Times New Roman,serif" font-size="15.00">seq</text>
</g>
<!-- 2757335763088&#45;&#45;2757335763568 -->
<g id="edge37" class="edge">
<title>2757335763088&#45;&#45;2757335763568</title>
<path fill="none" stroke="black" d="M924.38,-351.13C980.5,-360.21 1113.93,-381.78 1170.09,-390.86"/>
</g>
<!-- 2757335762320 -->
<g id="node42" class="node">
<title>2757335762320</title>
<ellipse fill="none" stroke="black" cx="1196.71" cy="-341" rx="134.78" ry="18"/>
<text text-anchor="middle" x="1196.71" y="-335" font-family="Times New Roman,serif" font-size="15.00">Create procedure confirmation</text>
</g>
<!-- 2757335763088&#45;&#45;2757335762320 -->
<g id="edge38" class="edge">
<title>2757335763088&#45;&#45;2757335762320</title>
<path fill="none" stroke="black" d="M925.16,-346.47C956.45,-345.84 1010.97,-344.73 1062.91,-343.68"/>
</g>
<!-- 2757335765728 -->
<g id="node38" class="node">
<title>2757335765728</title>
<ellipse fill="none" stroke="black" cx="1556.51" cy="-396" rx="27" ry="18"/>
<text text-anchor="middle" x="1556.51" y="-390" font-family="Times New Roman,serif" font-size="15.00">xor</text>
</g>
<!-- 2757335763568&#45;&#45;2757335765728 -->
<g id="edge35" class="edge">
<title>2757335763568&#45;&#45;2757335765728</title>
<path fill="none" stroke="black" d="M1224.02,-395.07C1290.19,-395.26 1462.95,-395.74 1529.16,-395.93"/>
</g>
<!-- 2757335761360 -->
<g id="node41" class="node">
<title>2757335761360</title>
<ellipse fill="none" stroke="black" cx="1556.51" cy="-342" rx="103.56" ry="18"/>
<text text-anchor="middle" x="1556.51" y="-336" font-family="Times New Roman,serif" font-size="15.00">Start WABOprocedure</text>
</g>
<!-- 2757335763568&#45;&#45;2757335761360 -->
<g id="edge36" class="edge">
<title>2757335763568&#45;&#45;2757335761360</title>
<path fill="none" stroke="black" d="M1223.44,-391.19C1275.6,-383.46 1395.65,-365.68 1476.19,-353.75"/>
</g>
<!-- 2757335766688 -->
<g id="node39" class="node">
<title>2757335766688</title>
<ellipse fill="black" stroke="black" cx="1986.43" cy="-400" rx="2.7" ry="2.7"/>
</g>
<!-- 2757335765728&#45;&#45;2757335766688 -->
<g id="edge33" class="edge">
<title>2757335765728&#45;&#45;2757335766688</title>
<path fill="none" stroke="black" d="M1583.96,-396.25C1672.88,-397.08 1957.01,-399.73 1983.46,-399.98"/>
</g>
<!-- 2757335766304 -->
<g id="node40" class="node">
<title>2757335766304</title>
<ellipse fill="none" stroke="black" cx="1986.43" cy="-361" rx="50.84" ry="18"/>
<text text-anchor="middle" x="1986.43" y="-355" font-family="Times New Roman,serif" font-size="15.00">Announce</text>
</g>
<!-- 2757335765728&#45;&#45;2757335766304 -->
<g id="edge34" class="edge">
<title>2757335765728&#45;&#45;2757335766304</title>
<path fill="none" stroke="black" d="M1583.64,-393.86C1653.5,-388.15 1845.48,-372.45 1936.43,-365.01"/>
</g>
<!-- 2757335761168 -->
<g id="node44" class="node">
<title>2757335761168</title>
<ellipse fill="black" stroke="black" cx="1196.71" cy="-299" rx="2.7" ry="2.7"/>
</g>
<!-- 2757335771200&#45;&#45;2757335761168 -->
<g id="edge40" class="edge">
<title>2757335771200&#45;&#45;2757335761168</title>
<path fill="none" stroke="black" d="M925.16,-293.53C993.85,-294.92 1174.44,-298.57 1193.99,-298.97"/>
</g>
<!-- 2757335770384 -->
<g id="node45" class="node">
<title>2757335770384</title>
<ellipse fill="none" stroke="black" cx="1196.71" cy="-260" rx="132.73" ry="18"/>
<text text-anchor="middle" x="1196.71" y="-254" font-family="Times New Roman,serif" font-size="15.00">Create subcases completeness</text>
</g>
<!-- 2757335771200&#45;&#45;2757335770384 -->
<g id="edge41" class="edge">
<title>2757335771200&#45;&#45;2757335770384</title>
<path fill="none" stroke="black" d="M924.9,-290.1C962.18,-285.96 1032.82,-278.11 1092.6,-271.46"/>
</g>
<!-- 2757335769568 -->
<g id="node47" class="node">
<title>2757335769568</title>
<ellipse fill="none" stroke="black" cx="897.81" cy="-219" rx="27" ry="18"/>
<text text-anchor="middle" x="897.81" y="-213" font-family="Times New Roman,serif" font-size="15.00">xor</text>
</g>
<!-- 2757335766736&#45;&#45;2757335769568 -->
<g id="edge50" class="edge">
<title>2757335766736&#45;&#45;2757335769568</title>
<path fill="none" stroke="black" d="M599.5,-194.19C660.27,-199.26 810.25,-211.78 870.82,-216.83"/>
</g>
<!-- 2757335771536 -->
<g id="node54" class="node">
<title>2757335771536</title>
<ellipse fill="none" stroke="black" cx="897.81" cy="-165" rx="128.12" ry="18"/>
<text text-anchor="middle" x="897.81" y="-159" font-family="Times New Roman,serif" font-size="15.00">Send procedure confirmation</text>
</g>
<!-- 2757335766736&#45;&#45;2757335771536 -->
<g id="edge51" class="edge">
<title>2757335766736&#45;&#45;2757335771536</title>
<path fill="none" stroke="black" d="M599.5,-189.81C639.89,-186.44 719.68,-179.78 786.44,-174.21"/>
</g>
<!-- 2757335773456 -->
<g id="node55" class="node">
<title>2757335773456</title>
<ellipse fill="none" stroke="black" cx="897.81" cy="-111" rx="27" ry="18"/>
<text text-anchor="middle" x="897.81" y="-105" font-family="Times New Roman,serif" font-size="15.00">xor</text>
</g>
<!-- 2757335766736&#45;&#45;2757335773456 -->
<g id="edge56" class="edge">
<title>2757335766736&#45;&#45;2757335773456</title>
<path fill="none" stroke="black" d="M598.14,-185.78C658.51,-170.66 812.32,-132.15 872.32,-117.13"/>
</g>
<!-- 2757335767072 -->
<g id="node48" class="node">
<title>2757335767072</title>
<ellipse fill="black" stroke="black" cx="1196.71" cy="-220" rx="2.7" ry="2.7"/>
</g>
<!-- 2757335769568&#45;&#45;2757335767072 -->
<g id="edge44" class="edge">
<title>2757335769568&#45;&#45;2757335767072</title>
<path fill="none" stroke="black" d="M925.16,-219.09C993.85,-219.32 1174.44,-219.93 1193.99,-219.99"/>
</g>
<!-- 2757335762128 -->
<g id="node49" class="node">
<title>2757335762128</title>
<ellipse fill="none" stroke="black" cx="1196.71" cy="-181" rx="27" ry="18"/>
<text text-anchor="middle" x="1196.71" y="-175" font-family="Times New Roman,serif" font-size="15.00">seq</text>
</g>
<!-- 2757335769568&#45;&#45;2757335762128 -->
<g id="edge49" class="edge">
<title>2757335769568&#45;&#45;2757335762128</title>
<path fill="none" stroke="black" d="M924.64,-215.69C980.79,-208.51 1113.44,-191.53 1169.73,-184.33"/>
</g>
<!-- 2757335773120 -->
<g id="node50" class="node">
<title>2757335773120</title>
<ellipse fill="none" stroke="black" cx="1556.51" cy="-288" rx="150.64" ry="18"/>
<text text-anchor="middle" x="1556.51" y="-282" font-family="Times New Roman,serif" font-size="15.00">No permit required for submission</text>
</g>
<!-- 2757335762128&#45;&#45;2757335773120 -->
<g id="edge45" class="edge">
<title>2757335762128&#45;&#45;2757335773120</title>
<path fill="none" stroke="black" d="M1221.74,-188.19C1277.91,-204.98 1419.06,-247.19 1498.65,-270.99"/>
</g>
<!-- 2757335763328 -->
<g id="node51" class="node">
<title>2757335763328</title>
<ellipse fill="none" stroke="black" cx="1556.51" cy="-234" rx="61.08" ry="18"/>
<text text-anchor="middle" x="1556.51" y="-228" font-family="Times New Roman,serif" font-size="15.00">MER shown</text>
</g>
<!-- 2757335762128&#45;&#45;2757335763328 -->
<g id="edge46" class="edge">
<title>2757335762128&#45;&#45;2757335763328</title>
<path fill="none" stroke="black" d="M1223.44,-184.81C1281.37,-193.39 1423.04,-214.38 1501.32,-225.97"/>
</g>
<!-- 2757335765296 -->
<g id="node52" class="node">
<title>2757335765296</title>
<ellipse fill="none" stroke="black" cx="1556.51" cy="-180" rx="139.89" ry="18"/>
<text text-anchor="middle" x="1556.51" y="-174" font-family="Times New Roman,serif" font-size="15.00">Activities for regular procedure</text>
</g>
<!-- 2757335762128&#45;&#45;2757335765296 -->
<g id="edge47" class="edge">
<title>2757335762128&#45;&#45;2757335765296</title>
<path fill="none" stroke="black" d="M1224.02,-180.93C1264.53,-180.81 1344.99,-180.59 1416.49,-180.39"/>
</g>
<!-- 2757335771056 -->
<g id="node53" class="node">
<title>2757335771056</title>
<ellipse fill="none" stroke="black" cx="1556.51" cy="-126" rx="87.69" ry="18"/>
<text text-anchor="middle" x="1556.51" y="-120" font-family="Times New Roman,serif" font-size="15.00">Phased application</text>
</g>
<!-- 2757335762128&#45;&#45;2757335771056 -->
<g id="edge48" class="edge">
<title>2757335762128&#45;&#45;2757335771056</title>
<path fill="none" stroke="black" d="M1223.44,-177.04C1277.6,-168.72 1404.97,-149.14 1485.29,-136.79"/>
</g>
<!-- 2757335772256 -->
<g id="node56" class="node">
<title>2757335772256</title>
<ellipse fill="black" stroke="black" cx="1196.71" cy="-111" rx="2.7" ry="2.7"/>
</g>
<!-- 2757335773456&#45;&#45;2757335772256 -->
<g id="edge52" class="edge">
<title>2757335773456&#45;&#45;2757335772256</title>
<path fill="none" stroke="black" d="M925.16,-111C993.85,-111 1174.44,-111 1193.99,-111"/>
</g>
<!-- 2757335762704 -->
<g id="node57" class="node">
<title>2757335762704</title>
<ellipse fill="none" stroke="black" cx="1196.71" cy="-72" rx="27" ry="18"/>
<text text-anchor="middle" x="1196.71" y="-66" font-family="Times New Roman,serif" font-size="15.00">seq</text>
</g>
<!-- 2757335773456&#45;&#45;2757335762704 -->
<g id="edge55" class="edge">
<title>2757335773456&#45;&#45;2757335762704</title>
<path fill="none" stroke="black" d="M924.64,-107.61C980.79,-100.23 1113.44,-82.81 1169.73,-75.41"/>
</g>
<!-- 2757335771680 -->
<g id="node58" class="node">
<title>2757335771680</title>
<ellipse fill="none" stroke="black" cx="1556.51" cy="-72" rx="54.93" ry="18"/>
<text text-anchor="middle" x="1556.51" y="-66" font-family="Times New Roman,serif" font-size="15.00">Pause term</text>
</g>
<!-- 2757335762704&#45;&#45;2757335771680 -->
<g id="edge53" class="edge">
<title>2757335762704&#45;&#45;2757335771680</title>
<path fill="none" stroke="black" d="M1224.02,-72C1282.28,-72 1423.18,-72 1501.22,-72"/>
</g>
<!-- 2757335770960 -->
<g id="node59" class="node">
<title>2757335770960</title>
<ellipse fill="none" stroke="black" cx="1556.51" cy="-18" rx="189.03" ry="18"/>
<text text-anchor="middle" x="1556.51" y="-12" font-family="Times New Roman,serif" font-size="15.00">Register date of publishing received request</text>
</g>
<!-- 2757335762704&#45;&#45;2757335770960 -->
<g id="edge54" class="edge">
<title>2757335762704&#45;&#45;2757335770960</title>
<path fill="none" stroke="black" d="M1223.44,-68.12C1270.79,-60.97 1374.1,-45.38 1453,-33.47"/>
</g>
</g>
</svg>
