<?xml version="1.0" encoding="UTF-8" standalone="no"?>
<!DOCTYPE svg PUBLIC "-//W3C//DTD SVG 1.1//EN"
 "http://www.w3.org/Graphics/SVG/1.1/DTD/svg11.dtd">
<!-- Generated by graphviz version 11.0.0 (20240428.1522)
 -->
<!-- Title: pt Pages: 1 -->
<svg width="1489pt" height="908pt"
 viewBox="0.00 0.00 1488.93 908.00" xmlns="http://www.w3.org/2000/svg" xmlns:xlink="http://www.w3.org/1999/xlink">
<g id="graph0" class="graph" transform="scale(1 1) rotate(0) translate(4 904)">
<title>pt</title>
<polygon fill="white" stroke="none" points="-4,4 -4,-904 1484.93,-904 1484.93,4 -4,4"/>
<!-- 2757335644016 -->
<g id="node1" class="node">
<title>2757335644016</title>
<ellipse fill="none" stroke="black" cx="27" cy="-650" rx="27" ry="18"/>
<text text-anchor="middle" x="27" y="-644" font-family="Times New Roman,serif" font-size="15.00">seq</text>
</g>
<!-- 2757335637152 -->
<g id="node2" class="node">
<title>2757335637152</title>
<ellipse fill="none" stroke="black" cx="232.45" cy="-839" rx="139.38" ry="18"/>
<text text-anchor="middle" x="232.45" y="-833" font-family="Times New Roman,serif" font-size="15.00">Record submission date request</text>
</g>
<!-- 2757335644016&#45;&#45;2757335637152 -->
<g id="edge1" class="edge">
<title>2757335644016&#45;&#45;2757335637152</title>
<path fill="none" stroke="black" d="M43.63,-664.52C80.29,-698.57 171.75,-783.54 211.96,-820.9"/>
</g>
<!-- 2757335643344 -->
<g id="node3" class="node">
<title>2757335643344</title>
<ellipse fill="none" stroke="black" cx="232.45" cy="-785" rx="109.19" ry="18"/>
<text text-anchor="middle" x="232.45" y="-779" font-family="Times New Roman,serif" font-size="15.00">OLO messaging ongoing</text>
</g>
<!-- 2757335644016&#45;&#45;2757335643344 -->
<g id="edge2" class="edge">
<title>2757335644016&#45;&#45;2757335643344</title>
<path fill="none" stroke="black" d="M46.78,-662.46C83.08,-686.54 162.98,-739.56 204.78,-767.3"/>
</g>
<!-- 2757335635280 -->
<g id="node4" class="node">
<title>2757335635280</title>
<ellipse fill="none" stroke="black" cx="232.45" cy="-731" rx="27" ry="18"/>
<text text-anchor="middle" x="232.45" y="-725" font-family="Times New Roman,serif" font-size="15.00">xor</text>
</g>
<!-- 2757335644016&#45;&#45;2757335635280 -->
<g id="edge8" class="edge">
<title>2757335644016&#45;&#45;2757335635280</title>
<path fill="none" stroke="black" d="M50.55,-658.98C89.66,-674.55 169.62,-706.38 208.8,-721.98"/>
</g>
<!-- 2757335638976 -->
<g id="node10" class="node">
<title>2757335638976</title>
<ellipse fill="none" stroke="black" cx="232.45" cy="-677" rx="27" ry="18"/>
<text text-anchor="middle" x="232.45" y="-671" font-family="Times New Roman,serif" font-size="15.00">and</text>
</g>
<!-- 2757335644016&#45;&#45;2757335638976 -->
<g id="edge16" class="edge">
<title>2757335644016&#45;&#45;2757335638976</title>
<path fill="none" stroke="black" d="M53.77,-653.42C92.8,-658.6 166.48,-668.38 205.57,-673.57"/>
</g>
<!-- 2757335637344 -->
<g id="node18" class="node">
<title>2757335637344</title>
<ellipse fill="none" stroke="black" cx="232.45" cy="-623" rx="27" ry="18"/>
<text text-anchor="middle" x="232.45" y="-617" font-family="Times New Roman,serif" font-size="15.00">xor</text>
</g>
<!-- 2757335644016&#45;&#45;2757335637344 -->
<g id="edge20" class="edge">
<title>2757335644016&#45;&#45;2757335637344</title>
<path fill="none" stroke="black" d="M53.77,-646.58C92.8,-641.4 166.48,-631.62 205.57,-626.43"/>
</g>
<!-- 2757335640464 -->
<g id="node22" class="node">
<title>2757335640464</title>
<ellipse fill="none" stroke="black" cx="232.45" cy="-569" rx="142.45" ry="18"/>
<text text-anchor="middle" x="232.45" y="-563" font-family="Times New Roman,serif" font-size="15.00">Direct to the competent authority</text>
</g>
<!-- 2757335644016&#45;&#45;2757335640464 -->
<g id="edge21" class="edge">
<title>2757335644016&#45;&#45;2757335640464</title>
<path fill="none" stroke="black" d="M50.55,-641.02C83.45,-627.92 145.27,-603.31 187.39,-586.54"/>
</g>
<!-- 2757335641088 -->
<g id="node23" class="node">
<title>2757335641088</title>
<ellipse fill="none" stroke="black" cx="232.45" cy="-515" rx="141.94" ry="18"/>
<text text-anchor="middle" x="232.45" y="-509" font-family="Times New Roman,serif" font-size="15.00">Normal procedure without MER</text>
</g>
<!-- 2757335644016&#45;&#45;2757335641088 -->
<g id="edge22" class="edge">
<title>2757335644016&#45;&#45;2757335641088</title>
<path fill="none" stroke="black" d="M46.78,-637.54C82.98,-613.52 162.54,-560.72 204.44,-532.93"/>
</g>
<!-- 2757335638496 -->
<g id="node24" class="node">
<title>2757335638496</title>
<ellipse fill="none" stroke="black" cx="232.45" cy="-454" rx="27" ry="18"/>
<text text-anchor="middle" x="232.45" y="-448" font-family="Times New Roman,serif" font-size="15.00">xor</text>
</g>
<!-- 2757335644016&#45;&#45;2757335638496 -->
<g id="edge38" class="edge">
<title>2757335644016&#45;&#45;2757335638496</title>
<path fill="none" stroke="black" d="M43.29,-635.27C81.09,-598.86 178.57,-504.95 216.26,-468.64"/>
</g>
<!-- 2757335637680 -->
<g id="node5" class="node">
<title>2757335637680</title>
<ellipse fill="black" stroke="black" cx="572.3" cy="-813" rx="2.7" ry="2.7"/>
</g>
<!-- 2757335635280&#45;&#45;2757335637680 -->
<g id="edge3" class="edge">
<title>2757335635280&#45;&#45;2757335637680</title>
<path fill="none" stroke="black" d="M258.3,-737.03C332.05,-754.93 546.07,-806.88 569.25,-812.5"/>
</g>
<!-- 2757335643968 -->
<g id="node6" class="node">
<title>2757335643968</title>
<ellipse fill="none" stroke="black" cx="572.3" cy="-774" rx="27" ry="18"/>
<text text-anchor="middle" x="572.3" y="-768" font-family="Times New Roman,serif" font-size="15.00">seq</text>
</g>
<!-- 2757335635280&#45;&#45;2757335643968 -->
<g id="edge7" class="edge">
<title>2757335635280&#45;&#45;2757335643968</title>
<path fill="none" stroke="black" d="M259.4,-734.3C322.29,-742.31 482.28,-762.67 545.26,-770.69"/>
</g>
<!-- 2757335635808 -->
<g id="node7" class="node">
<title>2757335635808</title>
<ellipse fill="none" stroke="black" cx="974.58" cy="-882" rx="204.89" ry="18"/>
<text text-anchor="middle" x="974.58" y="-876" font-family="Times New Roman,serif" font-size="15.00">No permit necessary or only notification needed</text>
</g>
<!-- 2757335643968&#45;&#45;2757335635808 -->
<g id="edge4" class="edge">
<title>2757335643968&#45;&#45;2757335635808</title>
<path fill="none" stroke="black" d="M597.73,-780.59C658.59,-797.01 818.49,-840.15 908.9,-864.55"/>
</g>
<!-- 2757335638592 -->
<g id="node8" class="node">
<title>2757335638592</title>
<ellipse fill="none" stroke="black" cx="974.58" cy="-828" rx="98.95" ry="18"/>
<text text-anchor="middle" x="974.58" y="-822" font-family="Times New Roman,serif" font-size="15.00">Applicant is involved</text>
</g>
<!-- 2757335643968&#45;&#45;2757335638592 -->
<g id="edge5" class="edge">
<title>2757335643968&#45;&#45;2757335638592</title>
<path fill="none" stroke="black" d="M599.25,-777.5C657.9,-785.41 802.61,-804.94 893.96,-817.26"/>
</g>
<!-- 2757335636048 -->
<g id="node9" class="node">
<title>2757335636048</title>
<ellipse fill="none" stroke="black" cx="974.58" cy="-774" rx="95.88" ry="18"/>
<text text-anchor="middle" x="974.58" y="-768" font-family="Times New Roman,serif" font-size="15.00">Terminate on request</text>
</g>
<!-- 2757335643968&#45;&#45;2757335636048 -->
<g id="edge6" class="edge">
<title>2757335643968&#45;&#45;2757335636048</title>
<path fill="none" stroke="black" d="M599.56,-774C655.13,-774 786.99,-774 878.29,-774"/>
</g>
<!-- 2757335641376 -->
<g id="node11" class="node">
<title>2757335641376</title>
<ellipse fill="none" stroke="black" cx="572.3" cy="-720" rx="138.87" ry="18"/>
<text text-anchor="middle" x="572.3" y="-714" font-family="Times New Roman,serif" font-size="15.00">Log senddate acknowledgement</text>
</g>
<!-- 2757335638976&#45;&#45;2757335641376 -->
<g id="edge9" class="edge">
<title>2757335638976&#45;&#45;2757335641376</title>
<path fill="none" stroke="black" d="M259.4,-680.3C304.21,-686.01 398.32,-697.98 471.51,-707.3"/>
</g>
<!-- 2757335632736 -->
<g id="node12" class="node">
<title>2757335632736</title>
<ellipse fill="none" stroke="black" cx="572.3" cy="-666" rx="27" ry="18"/>
<text text-anchor="middle" x="572.3" y="-660" font-family="Times New Roman,serif" font-size="15.00">seq</text>
</g>
<!-- 2757335638976&#45;&#45;2757335632736 -->
<g id="edge15" class="edge">
<title>2757335638976&#45;&#45;2757335632736</title>
<path fill="none" stroke="black" d="M259.68,-676.15C322.63,-674.1 481.69,-668.92 544.85,-666.86"/>
</g>
<!-- 2757335630288 -->
<g id="node13" class="node">
<title>2757335630288</title>
<ellipse fill="none" stroke="black" cx="974.58" cy="-720" rx="124.03" ry="18"/>
<text text-anchor="middle" x="974.58" y="-714" font-family="Times New Roman,serif" font-size="15.00">Period application received</text>
</g>
<!-- 2757335632736&#45;&#45;2757335630288 -->
<g id="edge10" class="edge">
<title>2757335632736&#45;&#45;2757335630288</title>
<path fill="none" stroke="black" d="M599.25,-669.5C655.47,-677.09 790.79,-695.34 882.36,-707.69"/>
</g>
<!-- 2757335631392 -->
<g id="node14" class="node">
<title>2757335631392</title>
<ellipse fill="none" stroke="black" cx="974.58" cy="-666" rx="136.31" ry="18"/>
<text text-anchor="middle" x="974.58" y="-660" font-family="Times New Roman,serif" font-size="15.00">Reception through OLO system</text>
</g>
<!-- 2757335632736&#45;&#45;2757335631392 -->
<g id="edge11" class="edge">
<title>2757335632736&#45;&#45;2757335631392</title>
<path fill="none" stroke="black" d="M599.56,-666C647.39,-666 751.74,-666 838.1,-666"/>
</g>
<!-- 2757335631920 -->
<g id="node15" class="node">
<title>2757335631920</title>
<ellipse fill="none" stroke="black" cx="974.58" cy="-612" rx="45.21" ry="18"/>
<text text-anchor="middle" x="974.58" y="-606" font-family="Times New Roman,serif" font-size="15.00">xor loop</text>
</g>
<!-- 2757335632736&#45;&#45;2757335631920 -->
<g id="edge14" class="edge">
<title>2757335632736&#45;&#45;2757335631920</title>
<path fill="none" stroke="black" d="M599.25,-662.5C666.73,-653.4 848.18,-628.92 931.14,-617.73"/>
</g>
<!-- 2757335630048 -->
<g id="node16" class="node">
<title>2757335630048</title>
<ellipse fill="none" stroke="black" cx="1348.2" cy="-631" rx="115.84" ry="18"/>
<text text-anchor="middle" x="1348.2" y="-625" font-family="Times New Roman,serif" font-size="15.00">Issue confirmation receipt</text>
</g>
<!-- 2757335631920&#45;&#45;2757335630048 -->
<g id="edge12" class="edge">
<title>2757335631920&#45;&#45;2757335630048</title>
<path fill="none" stroke="black" d="M1019.67,-614.25C1073.02,-616.98 1164.76,-621.67 1237.59,-625.4"/>
</g>
<!-- 2757335639168 -->
<g id="node17" class="node">
<title>2757335639168</title>
<ellipse fill="black" stroke="black" cx="1348.2" cy="-592" rx="2.7" ry="2.7"/>
</g>
<!-- 2757335631920&#45;&#45;2757335639168 -->
<g id="edge13" class="edge">
<title>2757335631920&#45;&#45;2757335639168</title>
<path fill="none" stroke="black" d="M1019.67,-609.63C1112.73,-604.62 1322.54,-593.33 1345.21,-592.11"/>
</g>
<!-- 2757335631344 -->
<g id="node19" class="node">
<title>2757335631344</title>
<ellipse fill="black" stroke="black" cx="572.3" cy="-627" rx="2.7" ry="2.7"/>
</g>
<!-- 2757335637344&#45;&#45;2757335631344 -->
<g id="edge17" class="edge">
<title>2757335637344&#45;&#45;2757335631344</title>
<path fill="none" stroke="black" d="M259.68,-623.31C334.72,-624.2 546.35,-626.7 569.28,-626.98"/>
</g>
<!-- 2757335639072 -->
<g id="node20" class="node">
<title>2757335639072</title>
<ellipse fill="none" stroke="black" cx="572.3" cy="-588" rx="161.39" ry="18"/>
<text text-anchor="middle" x="572.3" y="-582" font-family="Times New Roman,serif" font-size="15.00">Log senddate procedure confirmation</text>
</g>
<!-- 2757335637344&#45;&#45;2757335639072 -->
<g id="edge18" class="edge">
<title>2757335637344&#45;&#45;2757335639072</title>
<path fill="none" stroke="black" d="M259.4,-620.31C300.35,-616.07 382.46,-607.56 452.16,-600.34"/>
</g>
<!-- 2757335644448 -->
<g id="node21" class="node">
<title>2757335644448</title>
<ellipse fill="none" stroke="black" cx="572.3" cy="-534" rx="154.22" ry="18"/>
<text text-anchor="middle" x="572.3" y="-528" font-family="Times New Roman,serif" font-size="15.00">draft no permit or notification letter</text>
</g>
<!-- 2757335637344&#45;&#45;2757335644448 -->
<g id="edge19" class="edge">
<title>2757335637344&#45;&#45;2757335644448</title>
<path fill="none" stroke="black" d="M258.02,-616.53C309.95,-602.85 432.28,-570.62 507.8,-550.73"/>
</g>
<!-- 2757335642096 -->
<g id="node25" class="node">
<title>2757335642096</title>
<ellipse fill="none" stroke="black" cx="572.3" cy="-454" rx="27" ry="18"/>
<text text-anchor="middle" x="572.3" y="-448" font-family="Times New Roman,serif" font-size="15.00">seq</text>
</g>
<!-- 2757335638496&#45;&#45;2757335642096 -->
<g id="edge29" class="edge">
<title>2757335638496&#45;&#45;2757335642096</title>
<path fill="none" stroke="black" d="M259.68,-454C322.63,-454 481.69,-454 544.85,-454"/>
</g>
<!-- 2757335630672 -->
<g id="node32" class="node">
<title>2757335630672</title>
<ellipse fill="none" stroke="black" cx="572.3" cy="-207" rx="27" ry="18"/>
<text text-anchor="middle" x="572.3" y="-201" font-family="Times New Roman,serif" font-size="15.00">seq</text>
</g>
<!-- 2757335638496&#45;&#45;2757335630672 -->
<g id="edge37" class="edge">
<title>2757335638496&#45;&#45;2757335630672</title>
<path fill="none" stroke="black" d="M251.14,-441.07C309.39,-398.48 494.79,-262.93 553.38,-220.1"/>
</g>
<!-- 2757335637584 -->
<g id="node26" class="node">
<title>2757335637584</title>
<ellipse fill="none" stroke="black" cx="974.58" cy="-558" rx="134.78" ry="18"/>
<text text-anchor="middle" x="974.58" y="-552" font-family="Times New Roman,serif" font-size="15.00">Create procedure confirmation</text>
</g>
<!-- 2757335642096&#45;&#45;2757335637584 -->
<g id="edge23" class="edge">
<title>2757335642096&#45;&#45;2757335637584</title>
<path fill="none" stroke="black" d="M598.03,-460.43C659.57,-476.41 821.03,-518.36 910.91,-541.72"/>
</g>
<!-- 2757335645648 -->
<g id="node27" class="node">
<title>2757335645648</title>
<ellipse fill="none" stroke="black" cx="974.58" cy="-504" rx="50.84" ry="18"/>
<text text-anchor="middle" x="974.58" y="-498" font-family="Times New Roman,serif" font-size="15.00">Announce</text>
</g>
<!-- 2757335642096&#45;&#45;2757335645648 -->
<g id="edge24" class="edge">
<title>2757335642096&#45;&#45;2757335645648</title>
<path fill="none" stroke="black" d="M599.25,-457.24C665.43,-465.51 841.23,-487.47 926.24,-498.09"/>
</g>
<!-- 2757335631968 -->
<g id="node28" class="node">
<title>2757335631968</title>
<ellipse fill="none" stroke="black" cx="974.58" cy="-450" rx="103.56" ry="18"/>
<text text-anchor="middle" x="974.58" y="-444" font-family="Times New Roman,serif" font-size="15.00">Start WABOprocedure</text>
</g>
<!-- 2757335642096&#45;&#45;2757335631968 -->
<g id="edge25" class="edge">
<title>2757335642096&#45;&#45;2757335631968</title>
<path fill="none" stroke="black" d="M599.56,-453.74C653.65,-453.2 780.03,-451.93 870.92,-451.03"/>
</g>
<!-- 2757335644976 -->
<g id="node29" class="node">
<title>2757335644976</title>
<ellipse fill="none" stroke="black" cx="974.58" cy="-396" rx="27" ry="18"/>
<text text-anchor="middle" x="974.58" y="-390" font-family="Times New Roman,serif" font-size="15.00">xor</text>
</g>
<!-- 2757335642096&#45;&#45;2757335644976 -->
<g id="edge28" class="edge">
<title>2757335642096&#45;&#45;2757335644976</title>
<path fill="none" stroke="black" d="M598.95,-450.28C671.16,-439.82 875.62,-410.19 947.89,-399.72"/>
</g>
<!-- 2757335642768 -->
<g id="node30" class="node">
<title>2757335642768</title>
<ellipse fill="black" stroke="black" cx="1348.2" cy="-415" rx="2.7" ry="2.7"/>
</g>
<!-- 2757335644976&#45;&#45;2757335642768 -->
<g id="edge26" class="edge">
<title>2757335644976&#45;&#45;2757335642768</title>
<path fill="none" stroke="black" d="M1001.71,-397.34C1082.01,-401.44 1321.16,-413.67 1345.24,-414.9"/>
</g>
<!-- 2757335640608 -->
<g id="node31" class="node">
<title>2757335640608</title>
<ellipse fill="none" stroke="black" cx="1348.2" cy="-376" rx="132.73" ry="18"/>
<text text-anchor="middle" x="1348.2" y="-370" font-family="Times New Roman,serif" font-size="15.00">Create subcases completeness</text>
</g>
<!-- 2757335644976&#45;&#45;2757335640608 -->
<g id="edge27" class="edge">
<title>2757335644976&#45;&#45;2757335640608</title>
<path fill="none" stroke="black" d="M1001.71,-394.59C1047.39,-392.14 1144.5,-386.91 1224.16,-382.62"/>
</g>
<!-- 2757335632160 -->
<g id="node33" class="node">
<title>2757335632160</title>
<ellipse fill="none" stroke="black" cx="974.58" cy="-342" rx="150.64" ry="18"/>
<text text-anchor="middle" x="974.58" y="-336" font-family="Times New Roman,serif" font-size="15.00">No permit required for submission</text>
</g>
<!-- 2757335630672&#45;&#45;2757335632160 -->
<g id="edge30" class="edge">
<title>2757335630672&#45;&#45;2757335632160</title>
<path fill="none" stroke="black" d="M596.84,-214.94C660.1,-236.28 834.88,-295.22 922.34,-324.72"/>
</g>
<!-- 2757335640512 -->
<g id="node34" class="node">
<title>2757335640512</title>
<ellipse fill="none" stroke="black" cx="974.58" cy="-288" rx="61.08" ry="18"/>
<text text-anchor="middle" x="974.58" y="-282" font-family="Times New Roman,serif" font-size="15.00">MER shown</text>
</g>
<!-- 2757335630672&#45;&#45;2757335640512 -->
<g id="edge31" class="edge">
<title>2757335630672&#45;&#45;2757335640512</title>
<path fill="none" stroke="black" d="M598.64,-212.13C663.6,-225.27 837.01,-260.36 923.33,-277.83"/>
</g>
<!-- 2757335637872 -->
<g id="node35" class="node">
<title>2757335637872</title>
<ellipse fill="none" stroke="black" cx="974.58" cy="-234" rx="139.89" ry="18"/>
<text text-anchor="middle" x="974.58" y="-228" font-family="Times New Roman,serif" font-size="15.00">Activities for regular procedure</text>
</g>
<!-- 2757335630672&#45;&#45;2757335637872 -->
<g id="edge32" class="edge">
<title>2757335630672&#45;&#45;2757335637872</title>
<path fill="none" stroke="black" d="M599.56,-208.77C649.57,-212.14 761.34,-219.68 849.76,-225.65"/>
</g>
<!-- 2757335635712 -->
<g id="node36" class="node">
<title>2757335635712</title>
<ellipse fill="none" stroke="black" cx="974.58" cy="-180" rx="87.69" ry="18"/>
<text text-anchor="middle" x="974.58" y="-174" font-family="Times New Roman,serif" font-size="15.00">Phased application</text>
</g>
<!-- 2757335630672&#45;&#45;2757335635712 -->
<g id="edge33" class="edge">
<title>2757335630672&#45;&#45;2757335635712</title>
<path fill="none" stroke="black" d="M599.56,-205.23C657.74,-201.3 799.54,-191.74 890.87,-185.58"/>
</g>
<!-- 2757335630720 -->
<g id="node37" class="node">
<title>2757335630720</title>
<ellipse fill="none" stroke="black" cx="974.58" cy="-126" rx="128.12" ry="18"/>
<text text-anchor="middle" x="974.58" y="-120" font-family="Times New Roman,serif" font-size="15.00">Send procedure confirmation</text>
</g>
<!-- 2757335630672&#45;&#45;2757335630720 -->
<g id="edge34" class="edge">
<title>2757335630672&#45;&#45;2757335630720</title>
<path fill="none" stroke="black" d="M598.64,-201.87C658.1,-189.84 808.43,-159.42 899.65,-140.96"/>
</g>
<!-- 2757335644160 -->
<g id="node38" class="node">
<title>2757335644160</title>
<ellipse fill="none" stroke="black" cx="974.58" cy="-72" rx="54.93" ry="18"/>
<text text-anchor="middle" x="974.58" y="-66" font-family="Times New Roman,serif" font-size="15.00">Pause term</text>
</g>
<!-- 2757335630672&#45;&#45;2757335644160 -->
<g id="edge35" class="edge">
<title>2757335630672&#45;&#45;2757335644160</title>
<path fill="none" stroke="black" d="M596.84,-199.06C663.37,-176.62 853.24,-112.59 935.17,-84.95"/>
</g>
<!-- 2757335640032 -->
<g id="node39" class="node">
<title>2757335640032</title>
<ellipse fill="none" stroke="black" cx="974.58" cy="-18" rx="189.03" ry="18"/>
<text text-anchor="middle" x="974.58" y="-12" font-family="Times New Roman,serif" font-size="15.00">Register date of publishing received request</text>
</g>
<!-- 2757335630672&#45;&#45;2757335640032 -->
<g id="edge36" class="edge">
<title>2757335630672&#45;&#45;2757335640032</title>
<path fill="none" stroke="black" d="M595.1,-196.7C660.03,-166.05 852.72,-75.07 935.3,-36.07"/>
</g>
</g>
</svg>
