<?xml version="1.0" encoding="UTF-8" standalone="no"?>
<!DOCTYPE svg PUBLIC "-//W3C//DTD SVG 1.1//EN"
 "http://www.w3.org/Graphics/SVG/1.1/DTD/svg11.dtd">
<!-- Generated by graphviz version 11.0.0 (20240428.1522)
 -->
<!-- Title: pt Pages: 1 -->
<svg width="3718pt" height="605pt"
 viewBox="0.00 0.00 3718.31 605.00" xmlns="http://www.w3.org/2000/svg" xmlns:xlink="http://www.w3.org/1999/xlink">
<g id="graph0" class="graph" transform="scale(1 1) rotate(0) translate(4 601)">
<title>pt</title>
<polygon fill="white" stroke="none" points="-4,4 -4,-601 3714.31,-601 3714.31,4 -4,4"/>
<!-- 1344029720944 -->
<g id="node1" class="node">
<title>1344029720944</title>
<ellipse fill="none" stroke="black" cx="27" cy="-461" rx="27" ry="18"/>
<text text-anchor="middle" x="27" y="-455" font-family="Times New Roman,serif" font-size="15.00">seq</text>
</g>
<!-- 1344030112272 -->
<g id="node2" class="node">
<title>1344030112272</title>
<ellipse fill="none" stroke="black" cx="229.38" cy="-579" rx="139.38" ry="18"/>
<text text-anchor="middle" x="229.38" y="-573" font-family="Times New Roman,serif" font-size="15.00">Record submission date request</text>
</g>
<!-- 1344029720944&#45;&#45;1344030112272 -->
<g id="edge1" class="edge">
<title>1344029720944&#45;&#45;1344030112272</title>
<path fill="none" stroke="black" d="M47.95,-472.75C83.09,-493.44 156.24,-536.52 197.8,-560.99"/>
</g>
<!-- 1344030109824 -->
<g id="node3" class="node">
<title>1344030109824</title>
<ellipse fill="none" stroke="black" cx="229.38" cy="-525" rx="27" ry="18"/>
<text text-anchor="middle" x="229.38" y="-519" font-family="Times New Roman,serif" font-size="15.00">xor</text>
</g>
<!-- 1344029720944&#45;&#45;1344030109824 -->
<g id="edge4" class="edge">
<title>1344029720944&#45;&#45;1344030109824</title>
<path fill="none" stroke="black" d="M51.77,-468.59C90.34,-480.91 166.09,-505.11 204.64,-517.42"/>
</g>
<!-- 1344030108048 -->
<g id="node6" class="node">
<title>1344030108048</title>
<ellipse fill="none" stroke="black" cx="229.38" cy="-461" rx="27" ry="18"/>
<text text-anchor="middle" x="229.38" y="-455" font-family="Times New Roman,serif" font-size="15.00">and</text>
</g>
<!-- 1344029720944&#45;&#45;1344030108048 -->
<g id="edge42" class="edge">
<title>1344029720944&#45;&#45;1344030108048</title>
<path fill="none" stroke="black" d="M54.2,-461C92.6,-461 163.77,-461 202.18,-461"/>
</g>
<!-- 1344030103296 -->
<g id="node44" class="node">
<title>1344030103296</title>
<ellipse fill="none" stroke="black" cx="229.38" cy="-388" rx="27" ry="18"/>
<text text-anchor="middle" x="229.38" y="-382" font-family="Times New Roman,serif" font-size="15.00">xor</text>
</g>
<!-- 1344029720944&#45;&#45;1344030103296 -->
<g id="edge49" class="edge">
<title>1344029720944&#45;&#45;1344030103296</title>
<path fill="none" stroke="black" d="M51.38,-452.48C89.99,-438.42 166.64,-410.49 205.15,-396.46"/>
</g>
<!-- 1344030098688 -->
<g id="node51" class="node">
<title>1344030098688</title>
<ellipse fill="none" stroke="black" cx="229.38" cy="-232" rx="27" ry="18"/>
<text text-anchor="middle" x="229.38" y="-226" font-family="Times New Roman,serif" font-size="15.00">xor</text>
</g>
<!-- 1344029720944&#45;&#45;1344030098688 -->
<g id="edge66" class="edge">
<title>1344029720944&#45;&#45;1344030098688</title>
<path fill="none" stroke="black" d="M41.46,-445.62C77.88,-404 178.06,-289.51 214.72,-247.62"/>
</g>
<!-- 1344030106032 -->
<g id="node4" class="node">
<title>1344030106032</title>
<ellipse fill="black" stroke="black" cx="528.79" cy="-574" rx="2.7" ry="2.7"/>
</g>
<!-- 1344030109824&#45;&#45;1344030106032 -->
<g id="edge2" class="edge">
<title>1344030109824&#45;&#45;1344030106032</title>
<path fill="none" stroke="black" d="M256,-529.22C324.19,-540.46 506.34,-570.47 526.06,-573.71"/>
</g>
<!-- 1344030104400 -->
<g id="node5" class="node">
<title>1344030104400</title>
<ellipse fill="none" stroke="black" cx="528.79" cy="-535" rx="109.19" ry="18"/>
<text text-anchor="middle" x="528.79" y="-529" font-family="Times New Roman,serif" font-size="15.00">OLO messaging ongoing</text>
</g>
<!-- 1344030109824&#45;&#45;1344030104400 -->
<g id="edge3" class="edge">
<title>1344030109824&#45;&#45;1344030104400</title>
<path fill="none" stroke="black" d="M256.78,-525.89C293.52,-527.12 362.25,-529.43 421.3,-531.42"/>
</g>
<!-- 1344030101376 -->
<g id="node7" class="node">
<title>1344030101376</title>
<ellipse fill="none" stroke="black" cx="528.79" cy="-481" rx="124.03" ry="18"/>
<text text-anchor="middle" x="528.79" y="-475" font-family="Times New Roman,serif" font-size="15.00">Period application received</text>
</g>
<!-- 1344030108048&#45;&#45;1344030101376 -->
<g id="edge5" class="edge">
<title>1344030108048&#45;&#45;1344030101376</title>
<path fill="none" stroke="black" d="M256.51,-462.76C291.95,-465.14 357.46,-469.55 415.22,-473.43"/>
</g>
<!-- 1344030099264 -->
<g id="node8" class="node">
<title>1344030099264</title>
<ellipse fill="none" stroke="black" cx="528.79" cy="-427" rx="27" ry="18"/>
<text text-anchor="middle" x="528.79" y="-421" font-family="Times New Roman,serif" font-size="15.00">seq</text>
</g>
<!-- 1344030108048&#45;&#45;1344030099264 -->
<g id="edge41" class="edge">
<title>1344030108048&#45;&#45;1344030099264</title>
<path fill="none" stroke="black" d="M256.51,-458.01C312.93,-451.56 445.56,-436.4 501.83,-429.97"/>
</g>
<!-- 1344030111888 -->
<g id="node9" class="node">
<title>1344030111888</title>
<ellipse fill="none" stroke="black" cx="877.85" cy="-508" rx="27" ry="18"/>
<text text-anchor="middle" x="877.85" y="-502" font-family="Times New Roman,serif" font-size="15.00">xor</text>
</g>
<!-- 1344030099264&#45;&#45;1344030111888 -->
<g id="edge8" class="edge">
<title>1344030099264&#45;&#45;1344030111888</title>
<path fill="none" stroke="black" d="M554.75,-432.83C618.79,-447.77 788.33,-487.34 852.12,-502.23"/>
</g>
<!-- 1344030110496 -->
<g id="node12" class="node">
<title>1344030110496</title>
<ellipse fill="none" stroke="black" cx="877.85" cy="-427" rx="27" ry="18"/>
<text text-anchor="middle" x="877.85" y="-421" font-family="Times New Roman,serif" font-size="15.00">and</text>
</g>
<!-- 1344030099264&#45;&#45;1344030110496 -->
<g id="edge40" class="edge">
<title>1344030099264&#45;&#45;1344030110496</title>
<path fill="none" stroke="black" d="M556.16,-427C620.7,-427 786.02,-427 850.52,-427"/>
</g>
<!-- 1344030107616 -->
<g id="node10" class="node">
<title>1344030107616</title>
<ellipse fill="black" stroke="black" cx="1291.39" cy="-547" rx="2.7" ry="2.7"/>
</g>
<!-- 1344030111888&#45;&#45;1344030107616 -->
<g id="edge6" class="edge">
<title>1344030111888&#45;&#45;1344030107616</title>
<path fill="none" stroke="black" d="M904.91,-510.47C991.13,-518.64 1263.18,-544.42 1288.5,-546.82"/>
</g>
<!-- 1344030106992 -->
<g id="node11" class="node">
<title>1344030106992</title>
<ellipse fill="none" stroke="black" cx="1291.39" cy="-508" rx="188.52" ry="18"/>
<text text-anchor="middle" x="1291.39" y="-502" font-family="Times New Roman,serif" font-size="15.00">Document date termination request received</text>
</g>
<!-- 1344030111888&#45;&#45;1344030106992 -->
<g id="edge7" class="edge">
<title>1344030111888&#45;&#45;1344030106992</title>
<path fill="none" stroke="black" d="M905.22,-508C945.45,-508 1025.59,-508 1102.4,-508"/>
</g>
<!-- 1344030103680 -->
<g id="node13" class="node">
<title>1344030103680</title>
<ellipse fill="none" stroke="black" cx="1291.39" cy="-454" rx="27" ry="18"/>
<text text-anchor="middle" x="1291.39" y="-448" font-family="Times New Roman,serif" font-size="15.00">xor</text>
</g>
<!-- 1344030110496&#45;&#45;1344030103680 -->
<g id="edge11" class="edge">
<title>1344030110496&#45;&#45;1344030103680</title>
<path fill="none" stroke="black" d="M905.22,-428.73C979.55,-433.61 1190.18,-447.43 1264.24,-452.28"/>
</g>
<!-- 1344030102048 -->
<g id="node16" class="node">
<title>1344030102048</title>
<ellipse fill="none" stroke="black" cx="1291.39" cy="-400" rx="27" ry="18"/>
<text text-anchor="middle" x="1291.39" y="-394" font-family="Times New Roman,serif" font-size="15.00">seq</text>
</g>
<!-- 1344030110496&#45;&#45;1344030102048 -->
<g id="edge39" class="edge">
<title>1344030110496&#45;&#45;1344030102048</title>
<path fill="none" stroke="black" d="M905.22,-425.27C979.55,-420.39 1190.18,-406.57 1264.24,-401.72"/>
</g>
<!-- 1344030099984 -->
<g id="node14" class="node">
<title>1344030099984</title>
<ellipse fill="black" stroke="black" cx="1752.53" cy="-493" rx="2.7" ry="2.7"/>
</g>
<!-- 1344030103680&#45;&#45;1344030099984 -->
<g id="edge9" class="edge">
<title>1344030103680&#45;&#45;1344030099984</title>
<path fill="none" stroke="black" d="M1318.39,-456.21C1410.97,-464.07 1720.56,-490.37 1749.38,-492.82"/>
</g>
<!-- 1344030098304 -->
<g id="node15" class="node">
<title>1344030098304</title>
<ellipse fill="none" stroke="black" cx="1752.53" cy="-454" rx="98.95" ry="18"/>
<text text-anchor="middle" x="1752.53" y="-448" font-family="Times New Roman,serif" font-size="15.00">Applicant is involved</text>
</g>
<!-- 1344030103680&#45;&#45;1344030098304 -->
<g id="edge10" class="edge">
<title>1344030103680&#45;&#45;1344030098304</title>
<path fill="none" stroke="black" d="M1318.73,-454C1382.18,-454 1546.18,-454 1653.09,-454"/>
</g>
<!-- 1344030111456 -->
<g id="node17" class="node">
<title>1344030111456</title>
<ellipse fill="none" stroke="black" cx="1752.53" cy="-400" rx="27" ry="18"/>
<text text-anchor="middle" x="1752.53" y="-394" font-family="Times New Roman,serif" font-size="15.00">and</text>
</g>
<!-- 1344030102048&#45;&#45;1344030111456 -->
<g id="edge35" class="edge">
<title>1344030102048&#45;&#45;1344030111456</title>
<path fill="none" stroke="black" d="M1318.73,-400C1399.71,-400 1644.47,-400 1725.31,-400"/>
</g>
<!-- 1344030110592 -->
<g id="node41" class="node">
<title>1344030110592</title>
<ellipse fill="none" stroke="black" cx="1752.53" cy="-346" rx="27" ry="18"/>
<text text-anchor="middle" x="1752.53" y="-340" font-family="Times New Roman,serif" font-size="15.00">xor</text>
</g>
<!-- 1344030102048&#45;&#45;1344030110592 -->
<g id="edge38" class="edge">
<title>1344030102048&#45;&#45;1344030110592</title>
<path fill="none" stroke="black" d="M1318.39,-396.94C1399.11,-387.45 1644.82,-358.55 1725.53,-349.06"/>
</g>
<!-- 1344030107904 -->
<g id="node18" class="node">
<title>1344030107904</title>
<ellipse fill="none" stroke="black" cx="2153.28" cy="-450" rx="45.21" ry="18"/>
<text text-anchor="middle" x="2153.28" y="-444" font-family="Times New Roman,serif" font-size="15.00">xor loop</text>
</g>
<!-- 1344030111456&#45;&#45;1344030107904 -->
<g id="edge14" class="edge">
<title>1344030111456&#45;&#45;1344030107904</title>
<path fill="none" stroke="black" d="M1779.39,-403.24C1846.52,-411.66 2026.9,-434.28 2109.68,-444.66"/>
</g>
<!-- 1344030105984 -->
<g id="node21" class="node">
<title>1344030105984</title>
<ellipse fill="none" stroke="black" cx="2153.28" cy="-396" rx="27" ry="18"/>
<text text-anchor="middle" x="2153.28" y="-390" font-family="Times New Roman,serif" font-size="15.00">seq</text>
</g>
<!-- 1344030111456&#45;&#45;1344030105984 -->
<g id="edge34" class="edge">
<title>1344030111456&#45;&#45;1344030105984</title>
<path fill="none" stroke="black" d="M1780.01,-399.73C1852.45,-399.01 2053.38,-396.99 2125.82,-396.27"/>
</g>
<!-- 1344030104352 -->
<g id="node19" class="node">
<title>1344030104352</title>
<ellipse fill="none" stroke="black" cx="2433.25" cy="-485" rx="115.84" ry="18"/>
<text text-anchor="middle" x="2433.25" y="-479" font-family="Times New Roman,serif" font-size="15.00">Issue confirmation receipt</text>
</g>
<!-- 1344030107904&#45;&#45;1344030104352 -->
<g id="edge12" class="edge">
<title>1344030107904&#45;&#45;1344030104352</title>
<path fill="none" stroke="black" d="M2196.8,-455.35C2235.2,-460.19 2292.99,-467.47 2341.7,-473.6"/>
</g>
<!-- 1344030102720 -->
<g id="node20" class="node">
<title>1344030102720</title>
<ellipse fill="black" stroke="black" cx="2433.25" cy="-446" rx="2.7" ry="2.7"/>
</g>
<!-- 1344030107904&#45;&#45;1344030102720 -->
<g id="edge13" class="edge">
<title>1344030107904&#45;&#45;1344030102720</title>
<path fill="none" stroke="black" d="M2198.94,-449.36C2272.3,-448.3 2412.03,-446.29 2430.27,-446.03"/>
</g>
<!-- 1344030100080 -->
<g id="node22" class="node">
<title>1344030100080</title>
<ellipse fill="none" stroke="black" cx="2433.25" cy="-400" rx="27" ry="18"/>
<text text-anchor="middle" x="2433.25" y="-394" font-family="Times New Roman,serif" font-size="15.00">and</text>
</g>
<!-- 1344030105984&#45;&#45;1344030100080 -->
<g id="edge24" class="edge">
<title>1344030105984&#45;&#45;1344030100080</title>
<path fill="none" stroke="black" d="M2180.68,-396.38C2233.81,-397.14 2353.05,-398.86 2406.02,-399.62"/>
</g>
<!-- 1344030097680 -->
<g id="node32" class="node">
<title>1344030097680</title>
<ellipse fill="none" stroke="black" cx="2433.25" cy="-319" rx="27" ry="18"/>
<text text-anchor="middle" x="2433.25" y="-313" font-family="Times New Roman,serif" font-size="15.00">xor</text>
</g>
<!-- 1344030105984&#45;&#45;1344030097680 -->
<g id="edge33" class="edge">
<title>1344030105984&#45;&#45;1344030097680</title>
<path fill="none" stroke="black" d="M2178.46,-389.3C2231.03,-374.74 2355.22,-340.34 2407.92,-325.74"/>
</g>
<!-- 1344030106176 -->
<g id="node23" class="node">
<title>1344030106176</title>
<ellipse fill="none" stroke="black" cx="2612.08" cy="-490" rx="27" ry="18"/>
<text text-anchor="middle" x="2612.08" y="-484" font-family="Times New Roman,serif" font-size="15.00">xor</text>
</g>
<!-- 1344030100080&#45;&#45;1344030106176 -->
<g id="edge17" class="edge">
<title>1344030100080&#45;&#45;1344030106176</title>
<path fill="none" stroke="black" d="M2455.23,-410.68C2489.17,-427.95 2555.76,-461.84 2589.86,-479.2"/>
</g>
<!-- 1344030110688 -->
<g id="node26" class="node">
<title>1344030110688</title>
<ellipse fill="none" stroke="black" cx="2612.08" cy="-427" rx="27" ry="18"/>
<text text-anchor="middle" x="2612.08" y="-421" font-family="Times New Roman,serif" font-size="15.00">xor</text>
</g>
<!-- 1344030100080&#45;&#45;1344030110688 -->
<g id="edge20" class="edge">
<title>1344030100080&#45;&#45;1344030110688</title>
<path fill="none" stroke="black" d="M2459.96,-403.93C2493.49,-409.05 2551.8,-417.95 2585.34,-423.07"/>
</g>
<!-- 1344030108960 -->
<g id="node29" class="node">
<title>1344030108960</title>
<ellipse fill="none" stroke="black" cx="2612.08" cy="-373" rx="27" ry="18"/>
<text text-anchor="middle" x="2612.08" y="-367" font-family="Times New Roman,serif" font-size="15.00">xor</text>
</g>
<!-- 1344030100080&#45;&#45;1344030108960 -->
<g id="edge23" class="edge">
<title>1344030100080&#45;&#45;1344030108960</title>
<path fill="none" stroke="black" d="M2459.96,-396.07C2493.49,-390.95 2551.8,-382.05 2585.34,-376.93"/>
</g>
<!-- 1344030109680 -->
<g id="node24" class="node">
<title>1344030109680</title>
<ellipse fill="black" stroke="black" cx="2879.98" cy="-529" rx="2.7" ry="2.7"/>
</g>
<!-- 1344030106176&#45;&#45;1344030109680 -->
<g id="edge15" class="edge">
<title>1344030106176&#45;&#45;1344030109680</title>
<path fill="none" stroke="black" d="M2638.58,-493.74C2700.97,-502.89 2857.67,-525.87 2877.01,-528.71"/>
</g>
<!-- 1344030108144 -->
<g id="node25" class="node">
<title>1344030108144</title>
<ellipse fill="none" stroke="black" cx="2879.98" cy="-490" rx="204.89" ry="18"/>
<text text-anchor="middle" x="2879.98" y="-484" font-family="Times New Roman,serif" font-size="15.00">No permit necessary or only notification needed</text>
</g>
<!-- 1344030106176&#45;&#45;1344030108144 -->
<g id="edge16" class="edge">
<title>1344030106176&#45;&#45;1344030108144</title>
<path fill="none" stroke="black" d="M2639.55,-490C2649.34,-490 2661.34,-490 2674.72,-490"/>
</g>
<!-- 1344030104544 -->
<g id="node27" class="node">
<title>1344030104544</title>
<ellipse fill="black" stroke="black" cx="2879.98" cy="-451" rx="2.7" ry="2.7"/>
</g>
<!-- 1344030110688&#45;&#45;1344030104544 -->
<g id="edge18" class="edge">
<title>1344030110688&#45;&#45;1344030104544</title>
<path fill="none" stroke="black" d="M2639.06,-429.34C2701.79,-435.01 2857.77,-449.09 2877.02,-450.82"/>
</g>
<!-- 1344030102864 -->
<g id="node28" class="node">
<title>1344030102864</title>
<ellipse fill="none" stroke="black" cx="2879.98" cy="-412" rx="138.87" ry="18"/>
<text text-anchor="middle" x="2879.98" y="-406" font-family="Times New Roman,serif" font-size="15.00">Log senddate acknowledgement</text>
</g>
<!-- 1344030110688&#45;&#45;1344030102864 -->
<g id="edge19" class="edge">
<title>1344030110688&#45;&#45;1344030102864</title>
<path fill="none" stroke="black" d="M2639.06,-425.53C2665.66,-424.03 2709.01,-421.59 2751.6,-419.19"/>
</g>
<!-- 1344030099840 -->
<g id="node30" class="node">
<title>1344030099840</title>
<ellipse fill="black" stroke="black" cx="2879.98" cy="-373" rx="2.7" ry="2.7"/>
</g>
<!-- 1344030108960&#45;&#45;1344030099840 -->
<g id="edge21" class="edge">
<title>1344030108960&#45;&#45;1344030099840</title>
<path fill="none" stroke="black" d="M2639.55,-373C2702.34,-373 2856.57,-373 2876.78,-373"/>
</g>
<!-- 1344030098112 -->
<g id="node31" class="node">
<title>1344030098112</title>
<ellipse fill="none" stroke="black" cx="2879.98" cy="-334" rx="95.88" ry="18"/>
<text text-anchor="middle" x="2879.98" y="-328" font-family="Times New Roman,serif" font-size="15.00">Terminate on request</text>
</g>
<!-- 1344030108960&#45;&#45;1344030098112 -->
<g id="edge22" class="edge">
<title>1344030108960&#45;&#45;1344030098112</title>
<path fill="none" stroke="black" d="M2638.58,-369.26C2676.14,-363.75 2747.89,-353.23 2803.27,-345.1"/>
</g>
<!-- 1344030099120 -->
<g id="node33" class="node">
<title>1344030099120</title>
<ellipse fill="black" stroke="black" cx="2612.08" cy="-319" rx="2.7" ry="2.7"/>
</g>
<!-- 1344030097680&#45;&#45;1344030099120 -->
<g id="edge25" class="edge">
<title>1344030097680&#45;&#45;1344030099120</title>
<path fill="none" stroke="black" d="M2460.72,-319C2505.81,-319 2594.1,-319 2608.94,-319"/>
</g>
<!-- 1344030110976 -->
<g id="node34" class="node">
<title>1344030110976</title>
<ellipse fill="none" stroke="black" cx="2612.08" cy="-280" rx="27" ry="18"/>
<text text-anchor="middle" x="2612.08" y="-274" font-family="Times New Roman,serif" font-size="15.00">and</text>
</g>
<!-- 1344030097680&#45;&#45;1344030110976 -->
<g id="edge32" class="edge">
<title>1344030097680&#45;&#45;1344030110976</title>
<path fill="none" stroke="black" d="M2459.21,-313.49C2492.81,-306.08 2552.27,-292.97 2585.96,-285.54"/>
</g>
<!-- 1344030108240 -->
<g id="node35" class="node">
<title>1344030108240</title>
<ellipse fill="none" stroke="black" cx="2879.98" cy="-280" rx="142.45" ry="18"/>
<text text-anchor="middle" x="2879.98" y="-274" font-family="Times New Roman,serif" font-size="15.00">Direct to the competent authority</text>
</g>
<!-- 1344030110976&#45;&#45;1344030108240 -->
<g id="edge26" class="edge">
<title>1344030110976&#45;&#45;1344030108240</title>
<path fill="none" stroke="black" d="M2639.55,-280C2663.13,-280 2699.6,-280 2737.03,-280"/>
</g>
<!-- 1344030106848 -->
<g id="node36" class="node">
<title>1344030106848</title>
<ellipse fill="none" stroke="black" cx="2879.98" cy="-226" rx="27" ry="18"/>
<text text-anchor="middle" x="2879.98" y="-220" font-family="Times New Roman,serif" font-size="15.00">seq</text>
</g>
<!-- 1344030110976&#45;&#45;1344030106848 -->
<g id="edge31" class="edge">
<title>1344030110976&#45;&#45;1344030106848</title>
<path fill="none" stroke="black" d="M2638.1,-274.92C2688.78,-264.63 2803.05,-241.42 2853.84,-231.11"/>
</g>
<!-- 1344030101136 -->
<g id="node37" class="node">
<title>1344030101136</title>
<ellipse fill="none" stroke="black" cx="3262.81" cy="-253" rx="141.94" ry="18"/>
<text text-anchor="middle" x="3262.81" y="-247" font-family="Times New Roman,serif" font-size="15.00">Normal procedure without MER</text>
</g>
<!-- 1344030106848&#45;&#45;1344030101136 -->
<g id="edge27" class="edge">
<title>1344030106848&#45;&#45;1344030101136</title>
<path fill="none" stroke="black" d="M2907.15,-227.86C2954.12,-231.19 3055.5,-238.37 3137.89,-244.21"/>
</g>
<!-- 1344030102480 -->
<g id="node38" class="node">
<title>1344030102480</title>
<ellipse fill="none" stroke="black" cx="3262.81" cy="-199" rx="27" ry="18"/>
<text text-anchor="middle" x="3262.81" y="-193" font-family="Times New Roman,serif" font-size="15.00">xor</text>
</g>
<!-- 1344030106848&#45;&#45;1344030102480 -->
<g id="edge30" class="edge">
<title>1344030106848&#45;&#45;1344030102480</title>
<path fill="none" stroke="black" d="M2907.15,-224.14C2976.81,-219.21 3166.13,-205.78 3235.71,-200.85"/>
</g>
<!-- 1344030099552 -->
<g id="node39" class="node">
<title>1344030099552</title>
<ellipse fill="black" stroke="black" cx="3575.53" cy="-219" rx="2.7" ry="2.7"/>
</g>
<!-- 1344030102480&#45;&#45;1344030099552 -->
<g id="edge28" class="edge">
<title>1344030102480&#45;&#45;1344030099552</title>
<path fill="none" stroke="black" d="M3290.04,-200.69C3360.85,-205.25 3552.01,-217.55 3572.71,-218.88"/>
</g>
<!-- 1344030112416 -->
<g id="node40" class="node">
<title>1344030112416</title>
<ellipse fill="none" stroke="black" cx="3575.53" cy="-180" rx="134.78" ry="18"/>
<text text-anchor="middle" x="3575.53" y="-174" font-family="Times New Roman,serif" font-size="15.00">Create procedure confirmation</text>
</g>
<!-- 1344030102480&#45;&#45;1344030112416 -->
<g id="edge29" class="edge">
<title>1344030102480&#45;&#45;1344030112416</title>
<path fill="none" stroke="black" d="M3290.04,-197.4C3325.81,-195.21 3392.29,-191.14 3452,-187.49"/>
</g>
<!-- 1344030097872 -->
<g id="node42" class="node">
<title>1344030097872</title>
<ellipse fill="black" stroke="black" cx="2153.28" cy="-350" rx="2.7" ry="2.7"/>
</g>
<!-- 1344030110592&#45;&#45;1344030097872 -->
<g id="edge36" class="edge">
<title>1344030110592&#45;&#45;1344030097872</title>
<path fill="none" stroke="black" d="M1780.01,-346.27C1864.54,-347.11 2124.02,-349.72 2150.15,-349.98"/>
</g>
<!-- 1344030100848 -->
<g id="node43" class="node">
<title>1344030100848</title>
<ellipse fill="none" stroke="black" cx="2153.28" cy="-311" rx="128.12" ry="18"/>
<text text-anchor="middle" x="2153.28" y="-305" font-family="Times New Roman,serif" font-size="15.00">Send procedure confirmation</text>
</g>
<!-- 1344030110592&#45;&#45;1344030100848 -->
<g id="edge37" class="edge">
<title>1344030110592&#45;&#45;1344030100848</title>
<path fill="none" stroke="black" d="M1779.7,-343.7C1832.28,-339.09 1953.45,-328.45 2043.41,-320.56"/>
</g>
<!-- 1344030109920 -->
<g id="node45" class="node">
<title>1344030109920</title>
<ellipse fill="black" stroke="black" cx="528.79" cy="-388" rx="2.7" ry="2.7"/>
</g>
<!-- 1344030103296&#45;&#45;1344030109920 -->
<g id="edge43" class="edge">
<title>1344030103296&#45;&#45;1344030109920</title>
<path fill="none" stroke="black" d="M256.78,-388C325.58,-388 506.49,-388 526.07,-388"/>
</g>
<!-- 1344030105072 -->
<g id="node46" class="node">
<title>1344030105072</title>
<ellipse fill="none" stroke="black" cx="528.79" cy="-349" rx="27" ry="18"/>
<text text-anchor="middle" x="528.79" y="-343" font-family="Times New Roman,serif" font-size="15.00">seq</text>
</g>
<!-- 1344030103296&#45;&#45;1344030105072 -->
<g id="edge48" class="edge">
<title>1344030103296&#45;&#45;1344030105072</title>
<path fill="none" stroke="black" d="M256.26,-384.61C312.5,-377.23 445.38,-359.81 501.77,-352.41"/>
</g>
<!-- 1344030105744 -->
<g id="node47" class="node">
<title>1344030105744</title>
<ellipse fill="none" stroke="black" cx="877.85" cy="-361" rx="27" ry="18"/>
<text text-anchor="middle" x="877.85" y="-355" font-family="Times New Roman,serif" font-size="15.00">xor</text>
</g>
<!-- 1344030105072&#45;&#45;1344030105744 -->
<g id="edge46" class="edge">
<title>1344030105072&#45;&#45;1344030105744</title>
<path fill="none" stroke="black" d="M556.16,-349.91C620.7,-352.14 786.02,-357.86 850.52,-360.09"/>
</g>
<!-- 1344030111312 -->
<g id="node50" class="node">
<title>1344030111312</title>
<ellipse fill="none" stroke="black" cx="877.85" cy="-307" rx="103.56" ry="18"/>
<text text-anchor="middle" x="877.85" y="-301" font-family="Times New Roman,serif" font-size="15.00">Start WABOprocedure</text>
</g>
<!-- 1344030105072&#45;&#45;1344030111312 -->
<g id="edge47" class="edge">
<title>1344030105072&#45;&#45;1344030111312</title>
<path fill="none" stroke="black" d="M555.88,-345.84C605.3,-339.86 714.54,-326.64 791.81,-317.29"/>
</g>
<!-- 1344030104160 -->
<g id="node48" class="node">
<title>1344030104160</title>
<ellipse fill="black" stroke="black" cx="1291.39" cy="-361" rx="2.7" ry="2.7"/>
</g>
<!-- 1344030105744&#45;&#45;1344030104160 -->
<g id="edge44" class="edge">
<title>1344030105744&#45;&#45;1344030104160</title>
<path fill="none" stroke="black" d="M905.22,-361C991.79,-361 1263.25,-361 1288.5,-361"/>
</g>
<!-- 1344030105504 -->
<g id="node49" class="node">
<title>1344030105504</title>
<ellipse fill="none" stroke="black" cx="1291.39" cy="-322" rx="50.84" ry="18"/>
<text text-anchor="middle" x="1291.39" y="-316" font-family="Times New Roman,serif" font-size="15.00">Announce</text>
</g>
<!-- 1344030105744&#45;&#45;1344030105504 -->
<g id="edge45" class="edge">
<title>1344030105744&#45;&#45;1344030105504</title>
<path fill="none" stroke="black" d="M904.91,-358.53C972.49,-352.13 1154.24,-334.9 1241.86,-326.6"/>
</g>
<!-- 1344030112320 -->
<g id="node52" class="node">
<title>1344030112320</title>
<ellipse fill="black" stroke="black" cx="528.79" cy="-251" rx="2.7" ry="2.7"/>
</g>
<!-- 1344030098688&#45;&#45;1344030112320 -->
<g id="edge50" class="edge">
<title>1344030098688&#45;&#45;1344030112320</title>
<path fill="none" stroke="black" d="M256.51,-233.67C325.12,-238.05 506.44,-249.64 526.06,-250.89"/>
</g>
<!-- 1344030098064 -->
<g id="node53" class="node">
<title>1344030098064</title>
<ellipse fill="none" stroke="black" cx="528.79" cy="-212" rx="27" ry="18"/>
<text text-anchor="middle" x="528.79" y="-206" font-family="Times New Roman,serif" font-size="15.00">seq</text>
</g>
<!-- 1344030098688&#45;&#45;1344030098064 -->
<g id="edge53" class="edge">
<title>1344030098688&#45;&#45;1344030098064</title>
<path fill="none" stroke="black" d="M256.51,-230.24C312.93,-226.45 445.56,-217.53 501.83,-213.75"/>
</g>
<!-- 1344030113424 -->
<g id="node56" class="node">
<title>1344030113424</title>
<ellipse fill="none" stroke="black" cx="528.79" cy="-131" rx="27" ry="18"/>
<text text-anchor="middle" x="528.79" y="-125" font-family="Times New Roman,serif" font-size="15.00">seq</text>
</g>
<!-- 1344030098688&#45;&#45;1344030113424 -->
<g id="edge65" class="edge">
<title>1344030098688&#45;&#45;1344030113424</title>
<path fill="none" stroke="black" d="M253.97,-223.99C309.61,-205.09 448.56,-157.91 504.2,-139.01"/>
</g>
<!-- 1344030107232 -->
<g id="node54" class="node">
<title>1344030107232</title>
<ellipse fill="none" stroke="black" cx="877.85" cy="-253" rx="54.93" ry="18"/>
<text text-anchor="middle" x="877.85" y="-247" font-family="Times New Roman,serif" font-size="15.00">Pause term</text>
</g>
<!-- 1344030098064&#45;&#45;1344030107232 -->
<g id="edge51" class="edge">
<title>1344030098064&#45;&#45;1344030107232</title>
<path fill="none" stroke="black" d="M555.88,-215.08C613.1,-221.84 750.52,-238.08 825.66,-246.95"/>
</g>
<!-- 1344030104592 -->
<g id="node55" class="node">
<title>1344030104592</title>
<ellipse fill="none" stroke="black" cx="877.85" cy="-199" rx="189.03" ry="18"/>
<text text-anchor="middle" x="877.85" y="-193" font-family="Times New Roman,serif" font-size="15.00">Register date of publishing received request</text>
</g>
<!-- 1344030098064&#45;&#45;1344030104592 -->
<g id="edge52" class="edge">
<title>1344030098064&#45;&#45;1344030104592</title>
<path fill="none" stroke="black" d="M556.16,-211.01C587.96,-209.82 644.21,-207.71 700.82,-205.59"/>
</g>
<!-- 1344030101568 -->
<g id="node57" class="node">
<title>1344030101568</title>
<ellipse fill="none" stroke="black" cx="877.85" cy="-145" rx="27" ry="18"/>
<text text-anchor="middle" x="877.85" y="-139" font-family="Times New Roman,serif" font-size="15.00">xor</text>
</g>
<!-- 1344030113424&#45;&#45;1344030101568 -->
<g id="edge60" class="edge">
<title>1344030113424&#45;&#45;1344030101568</title>
<path fill="none" stroke="black" d="M556.16,-132.06C620.7,-134.67 786.02,-141.34 850.52,-143.94"/>
</g>
<!-- 1344030102576 -->
<g id="node64" class="node">
<title>1344030102576</title>
<ellipse fill="none" stroke="black" cx="877.85" cy="-91" rx="123" ry="18"/>
<text text-anchor="middle" x="877.85" y="-85" font-family="Times New Roman,serif" font-size="15.00">Phase procedure terminated</text>
</g>
<!-- 1344030113424&#45;&#45;1344030102576 -->
<g id="edge61" class="edge">
<title>1344030113424&#45;&#45;1344030102576</title>
<path fill="none" stroke="black" d="M555.88,-127.99C602.78,-122.59 703.54,-110.97 779.74,-102.19"/>
</g>
<!-- 1344030098208 -->
<g id="node65" class="node">
<title>1344030098208</title>
<ellipse fill="none" stroke="black" cx="877.85" cy="-37" rx="27" ry="18"/>
<text text-anchor="middle" x="877.85" y="-31" font-family="Times New Roman,serif" font-size="15.00">xor</text>
</g>
<!-- 1344030113424&#45;&#45;1344030098208 -->
<g id="edge64" class="edge">
<title>1344030113424&#45;&#45;1344030098208</title>
<path fill="none" stroke="black" d="M554.2,-124.39C617.92,-107.13 788.78,-60.85 852.47,-43.6"/>
</g>
<!-- 1344030098832 -->
<g id="node58" class="node">
<title>1344030098832</title>
<ellipse fill="none" stroke="black" cx="1291.39" cy="-175" rx="27" ry="18"/>
<text text-anchor="middle" x="1291.39" y="-169" font-family="Times New Roman,serif" font-size="15.00">seq</text>
</g>
<!-- 1344030101568&#45;&#45;1344030098832 -->
<g id="edge56" class="edge">
<title>1344030101568&#45;&#45;1344030098832</title>
<path fill="none" stroke="black" d="M904.91,-146.9C978.94,-152.3 1189.97,-167.68 1264.19,-173.09"/>
</g>
<!-- 1344030097488 -->
<g id="node61" class="node">
<title>1344030097488</title>
<ellipse fill="none" stroke="black" cx="1291.39" cy="-121" rx="27" ry="18"/>
<text text-anchor="middle" x="1291.39" y="-115" font-family="Times New Roman,serif" font-size="15.00">seq</text>
</g>
<!-- 1344030101568&#45;&#45;1344030097488 -->
<g id="edge59" class="edge">
<title>1344030101568&#45;&#45;1344030097488</title>
<path fill="none" stroke="black" d="M905.22,-143.46C979.55,-139.13 1190.18,-126.84 1264.24,-122.53"/>
</g>
<!-- 1344030097632 -->
<g id="node59" class="node">
<title>1344030097632</title>
<ellipse fill="none" stroke="black" cx="1752.53" cy="-229" rx="158.32" ry="18"/>
<text text-anchor="middle" x="1752.53" y="-223" font-family="Times New Roman,serif" font-size="15.00">Log senddate for termination request</text>
</g>
<!-- 1344030098832&#45;&#45;1344030097632 -->
<g id="edge54" class="edge">
<title>1344030098832&#45;&#45;1344030097632</title>
<path fill="none" stroke="black" d="M1318.39,-178.06C1379.15,-185.2 1533.36,-203.34 1640.35,-215.92"/>
</g>
<!-- 1344030100752 -->
<g id="node60" class="node">
<title>1344030100752</title>
<ellipse fill="none" stroke="black" cx="1752.53" cy="-175" rx="128.12" ry="18"/>
<text text-anchor="middle" x="1752.53" y="-169" font-family="Times New Roman,serif" font-size="15.00">Message to terminate request</text>
</g>
<!-- 1344030098832&#45;&#45;1344030100752 -->
<g id="edge55" class="edge">
<title>1344030098832&#45;&#45;1344030100752</title>
<path fill="none" stroke="black" d="M1318.73,-175C1376.65,-175 1518.37,-175 1623.96,-175"/>
</g>
<!-- 1344030102768 -->
<g id="node62" class="node">
<title>1344030102768</title>
<ellipse fill="none" stroke="black" cx="1752.53" cy="-121" rx="236.63" ry="18"/>
<text text-anchor="middle" x="1752.53" y="-115" font-family="Times New Roman,serif" font-size="15.00">record senddate letter no permit or notification required</text>
</g>
<!-- 1344030097488&#45;&#45;1344030102768 -->
<g id="edge57" class="edge">
<title>1344030097488&#45;&#45;1344030102768</title>
<path fill="none" stroke="black" d="M1318.73,-121C1358.12,-121 1436.28,-121 1515.46,-121"/>
</g>
<!-- 1344030101280 -->
<g id="node63" class="node">
<title>1344030101280</title>
<ellipse fill="none" stroke="black" cx="1752.53" cy="-67" rx="88.71" ry="18"/>
<text text-anchor="middle" x="1752.53" y="-61" font-family="Times New Roman,serif" font-size="15.00">Document deadline</text>
</g>
<!-- 1344030097488&#45;&#45;1344030101280 -->
<g id="edge58" class="edge">
<title>1344030097488&#45;&#45;1344030101280</title>
<path fill="none" stroke="black" d="M1318.39,-117.94C1386.12,-109.98 1569.98,-88.35 1675.1,-75.99"/>
</g>
<!-- 1344030103632 -->
<g id="node66" class="node">
<title>1344030103632</title>
<ellipse fill="black" stroke="black" cx="1291.39" cy="-57" rx="2.7" ry="2.7"/>
</g>
<!-- 1344030098208&#45;&#45;1344030103632 -->
<g id="edge62" class="edge">
<title>1344030098208&#45;&#45;1344030103632</title>
<path fill="none" stroke="black" d="M905.22,-38.28C991.79,-42.49 1263.25,-55.68 1288.5,-56.91"/>
</g>
<!-- 1344030104736 -->
<g id="node67" class="node">
<title>1344030104736</title>
<ellipse fill="none" stroke="black" cx="1291.39" cy="-18" rx="65.17" ry="18"/>
<text text-anchor="middle" x="1291.39" y="-12" font-family="Times New Roman,serif" font-size="15.00">Close the file</text>
</g>
<!-- 1344030098208&#45;&#45;1344030104736 -->
<g id="edge63" class="edge">
<title>1344030098208&#45;&#45;1344030104736</title>
<path fill="none" stroke="black" d="M905.22,-35.78C969.35,-32.82 1134.94,-25.18 1226.74,-20.94"/>
</g>
</g>
</svg>
