<?xml version="1.0" encoding="UTF-8" standalone="no"?>
<!DOCTYPE svg PUBLIC "-//W3C//DTD SVG 1.1//EN"
 "http://www.w3.org/Graphics/SVG/1.1/DTD/svg11.dtd">
<!-- Generated by graphviz version 11.0.0 (20240428.1522)
 -->
<!-- Title: pt Pages: 1 -->
<svg width="1547pt" height="557pt"
 viewBox="0.00 0.00 1546.77 557.00" xmlns="http://www.w3.org/2000/svg" xmlns:xlink="http://www.w3.org/1999/xlink">
<g id="graph0" class="graph" transform="scale(1 1) rotate(0) translate(4 553)">
<title>pt</title>
<polygon fill="white" stroke="none" points="-4,4 -4,-553 1542.77,-553 1542.77,4 -4,4"/>
<!-- 2067588086288 -->
<g id="node1" class="node">
<title>2067588086288</title>
<ellipse fill="none" stroke="black" cx="27" cy="-369" rx="27" ry="18"/>
<text text-anchor="middle" x="27" y="-363" font-family="Times New Roman,serif" font-size="15.00">seq</text>
</g>
<!-- 2067587848800 -->
<g id="node2" class="node">
<title>2067587848800</title>
<ellipse fill="none" stroke="black" cx="221.19" cy="-396" rx="131.19" ry="18"/>
<text text-anchor="middle" x="221.19" y="-390" font-family="Times New Roman,serif" font-size="15.00">Enter submission date request</text>
</g>
<!-- 2067588086288&#45;&#45;2067587848800 -->
<g id="edge1" class="edge">
<title>2067588086288&#45;&#45;2067587848800</title>
<path fill="none" stroke="black" d="M53.92,-372.64C73.18,-375.35 100.72,-379.22 127.85,-383.03"/>
</g>
<!-- 2067587844768 -->
<g id="node3" class="node">
<title>2067587844768</title>
<ellipse fill="none" stroke="black" cx="221.19" cy="-342" rx="27" ry="18"/>
<text text-anchor="middle" x="221.19" y="-336" font-family="Times New Roman,serif" font-size="15.00">and</text>
</g>
<!-- 2067588086288&#45;&#45;2067587844768 -->
<g id="edge22" class="edge">
<title>2067588086288&#45;&#45;2067587844768</title>
<path fill="none" stroke="black" d="M53.92,-365.36C90.7,-360.19 157.65,-350.79 194.38,-345.63"/>
</g>
<!-- 2067587924432 -->
<g id="node4" class="node">
<title>2067587924432</title>
<ellipse fill="none" stroke="black" cx="535.96" cy="-531" rx="141.43" ry="18"/>
<text text-anchor="middle" x="535.96" y="-525" font-family="Times New Roman,serif" font-size="15.00">Produce procedure confirmation</text>
</g>
<!-- 2067587844768&#45;&#45;2067587924432 -->
<g id="edge2" class="edge">
<title>2067587844768&#45;&#45;2067587924432</title>
<path fill="none" stroke="black" d="M241.76,-353.82C294.85,-385.91 441.89,-474.76 505.26,-513.06"/>
</g>
<!-- 2067587924144 -->
<g id="node5" class="node">
<title>2067587924144</title>
<ellipse fill="none" stroke="black" cx="535.96" cy="-477" rx="27" ry="18"/>
<text text-anchor="middle" x="535.96" y="-471" font-family="Times New Roman,serif" font-size="15.00">xor</text>
</g>
<!-- 2067587844768&#45;&#45;2067587924144 -->
<g id="edge5" class="edge">
<title>2067587844768&#45;&#45;2067587924144</title>
<path fill="none" stroke="black" d="M244.19,-351.49C301.47,-376.22 454.85,-442.42 512.57,-467.34"/>
</g>
<!-- 2067587936288 -->
<g id="node8" class="node">
<title>2067587936288</title>
<ellipse fill="none" stroke="black" cx="535.96" cy="-423" rx="139.38" ry="18"/>
<text text-anchor="middle" x="535.96" y="-417" font-family="Times New Roman,serif" font-size="15.00">Refer to the competent authority</text>
</g>
<!-- 2067587844768&#45;&#45;2067587936288 -->
<g id="edge6" class="edge">
<title>2067587844768&#45;&#45;2067587936288</title>
<path fill="none" stroke="black" d="M246.74,-348.36C294.76,-360.79 402.51,-388.7 471.8,-406.64"/>
</g>
<!-- 2067587924240 -->
<g id="node9" class="node">
<title>2067587924240</title>
<ellipse fill="none" stroke="black" cx="535.96" cy="-369" rx="129.15" ry="18"/>
<text text-anchor="middle" x="535.96" y="-363" font-family="Times New Roman,serif" font-size="15.00">Commence WABOprocedure</text>
</g>
<!-- 2067587844768&#45;&#45;2067587924240 -->
<g id="edge7" class="edge">
<title>2067587844768&#45;&#45;2067587924240</title>
<path fill="none" stroke="black" d="M248.32,-344.26C286.93,-347.59 361.51,-354.03 424.91,-359.5"/>
</g>
<!-- 2067587934800 -->
<g id="node10" class="node">
<title>2067587934800</title>
<ellipse fill="none" stroke="black" cx="535.96" cy="-315" rx="147.57" ry="18"/>
<text text-anchor="middle" x="535.96" y="-309" font-family="Times New Roman,serif" font-size="15.00">Ordinary procedure without MER</text>
</g>
<!-- 2067587844768&#45;&#45;2067587934800 -->
<g id="edge8" class="edge">
<title>2067587844768&#45;&#45;2067587934800</title>
<path fill="none" stroke="black" d="M248.32,-339.74C284.73,-336.6 353.12,-330.7 413.97,-325.44"/>
</g>
<!-- 2067587936144 -->
<g id="node11" class="node">
<title>2067587936144</title>
<ellipse fill="none" stroke="black" cx="535.96" cy="-261" rx="114.82" ry="18"/>
<text text-anchor="middle" x="535.96" y="-255" font-family="Times New Roman,serif" font-size="15.00">Step application received</text>
</g>
<!-- 2067587844768&#45;&#45;2067587936144 -->
<g id="edge9" class="edge">
<title>2067587844768&#45;&#45;2067587936144</title>
<path fill="none" stroke="black" d="M246.74,-335.64C295.41,-323.04 405.43,-294.55 474.58,-276.64"/>
</g>
<!-- 2067588471344 -->
<g id="node12" class="node">
<title>2067588471344</title>
<ellipse fill="none" stroke="black" cx="535.96" cy="-207" rx="98.44" ry="18"/>
<text text-anchor="middle" x="535.96" y="-201" font-family="Times New Roman,serif" font-size="15.00">OLO messages active</text>
</g>
<!-- 2067587844768&#45;&#45;2067588471344 -->
<g id="edge10" class="edge">
<title>2067587844768&#45;&#45;2067588471344</title>
<path fill="none" stroke="black" d="M244.19,-332.51C296.61,-309.88 429.48,-252.53 495.91,-223.86"/>
</g>
<!-- 2067588477200 -->
<g id="node13" class="node">
<title>2067588477200</title>
<ellipse fill="none" stroke="black" cx="535.96" cy="-153" rx="45.21" ry="18"/>
<text text-anchor="middle" x="535.96" y="-147" font-family="Times New Roman,serif" font-size="15.00">xor loop</text>
</g>
<!-- 2067587844768&#45;&#45;2067588477200 -->
<g id="edge21" class="edge">
<title>2067587844768&#45;&#45;2067588477200</title>
<path fill="none" stroke="black" d="M241.76,-330.18C296.19,-297.29 449.36,-204.73 509.89,-168.15"/>
</g>
<!-- 2067589895360 -->
<g id="node6" class="node">
<title>2067589895360</title>
<ellipse fill="black" stroke="black" cx="876.83" cy="-496" rx="2.7" ry="2.7"/>
</g>
<!-- 2067587924144&#45;&#45;2067589895360 -->
<g id="edge3" class="edge">
<title>2067587924144&#45;&#45;2067589895360</title>
<path fill="none" stroke="black" d="M563.27,-478.48C638.53,-482.7 850.81,-494.6 873.8,-495.89"/>
</g>
<!-- 2067588470528 -->
<g id="node7" class="node">
<title>2067588470528</title>
<ellipse fill="none" stroke="black" cx="876.83" cy="-457" rx="157.3" ry="18"/>
<text text-anchor="middle" x="876.83" y="-451" font-family="Times New Roman,serif" font-size="15.00">Register senddate acknowledgement</text>
</g>
<!-- 2067587924144&#45;&#45;2067588470528 -->
<g id="edge4" class="edge">
<title>2067587924144&#45;&#45;2067588470528</title>
<path fill="none" stroke="black" d="M563.27,-475.45C600.43,-473.25 671.01,-469.09 735.7,-465.27"/>
</g>
<!-- 2067588470912 -->
<g id="node14" class="node">
<title>2067588470912</title>
<ellipse fill="none" stroke="black" cx="876.83" cy="-207" rx="131.19" ry="18"/>
<text text-anchor="middle" x="876.83" y="-201" font-family="Times New Roman,serif" font-size="15.00">Transmit confirmation receipt</text>
</g>
<!-- 2067588477200&#45;&#45;2067588470912 -->
<g id="edge11" class="edge">
<title>2067588477200&#45;&#45;2067588470912</title>
<path fill="none" stroke="black" d="M578.51,-159.62C630.73,-167.94 721.71,-182.44 789.31,-193.21"/>
</g>
<!-- 2067588474848 -->
<g id="node15" class="node">
<title>2067588474848</title>
<ellipse fill="none" stroke="black" cx="876.83" cy="-153" rx="27" ry="18"/>
<text text-anchor="middle" x="876.83" y="-147" font-family="Times New Roman,serif" font-size="15.00">seq</text>
</g>
<!-- 2067588477200&#45;&#45;2067588474848 -->
<g id="edge17" class="edge">
<title>2067588477200&#45;&#45;2067588474848</title>
<path fill="none" stroke="black" d="M581.61,-153C653.32,-153 791.94,-153 849.64,-153"/>
</g>
<!-- 2067588480080 -->
<g id="node21" class="node">
<title>2067588480080</title>
<ellipse fill="none" stroke="black" cx="876.83" cy="-72" rx="27" ry="18"/>
<text text-anchor="middle" x="876.83" y="-66" font-family="Times New Roman,serif" font-size="15.00">seq</text>
</g>
<!-- 2067588477200&#45;&#45;2067588480080 -->
<g id="edge20" class="edge">
<title>2067588477200&#45;&#45;2067588480080</title>
<path fill="none" stroke="black" d="M575.5,-143.79C645.76,-126.99 792.78,-91.85 851.16,-77.9"/>
</g>
<!-- 2067588467216 -->
<g id="node16" class="node">
<title>2067588467216</title>
<ellipse fill="none" stroke="black" cx="1213.09" cy="-234" rx="142.97" ry="18"/>
<text text-anchor="middle" x="1213.09" y="-228" font-family="Times New Roman,serif" font-size="15.00">Applicant plays stakeholder role</text>
</g>
<!-- 2067588474848&#45;&#45;2067588467216 -->
<g id="edge12" class="edge">
<title>2067588474848&#45;&#45;2067588467216</title>
<path fill="none" stroke="black" d="M902.68,-159.02C953.44,-171.32 1070.53,-199.7 1145.23,-217.8"/>
</g>
<!-- 2067588466544 -->
<g id="node17" class="node">
<title>2067588466544</title>
<ellipse fill="none" stroke="black" cx="1213.09" cy="-180" rx="27" ry="18"/>
<text text-anchor="middle" x="1213.09" y="-174" font-family="Times New Roman,serif" font-size="15.00">xor</text>
</g>
<!-- 2067588474848&#45;&#45;2067588466544 -->
<g id="edge15" class="edge">
<title>2067588474848&#45;&#45;2067588466544</title>
<path fill="none" stroke="black" d="M904.05,-155.12C966.54,-160.17 1123.62,-172.85 1185.98,-177.89"/>
</g>
<!-- 2067588466496 -->
<g id="node20" class="node">
<title>2067588466496</title>
<ellipse fill="none" stroke="black" cx="1213.09" cy="-126" rx="128.63" ry="18"/>
<text text-anchor="middle" x="1213.09" y="-120" font-family="Times New Roman,serif" font-size="15.00">Evaluate provisional charges</text>
</g>
<!-- 2067588474848&#45;&#45;2067588466496 -->
<g id="edge16" class="edge">
<title>2067588474848&#45;&#45;2067588466496</title>
<path fill="none" stroke="black" d="M904.05,-150.88C945.99,-147.49 1030.54,-140.66 1100.47,-135.02"/>
</g>
<!-- 2067588466160 -->
<g id="node18" class="node">
<title>2067588466160</title>
<ellipse fill="black" stroke="black" cx="1465.41" cy="-199" rx="2.7" ry="2.7"/>
</g>
<!-- 2067588466544&#45;&#45;2067588466160 -->
<g id="edge13" class="edge">
<title>2067588466544&#45;&#45;2067588466160</title>
<path fill="none" stroke="black" d="M1240.4,-182C1300.4,-186.55 1443.62,-197.42 1462.37,-198.85"/>
</g>
<!-- 2067588476144 -->
<g id="node19" class="node">
<title>2067588476144</title>
<ellipse fill="none" stroke="black" cx="1465.41" cy="-160" rx="73.36" ry="18"/>
<text text-anchor="middle" x="1465.41" y="-154" font-family="Times New Roman,serif" font-size="15.00">Stop on request</text>
</g>
<!-- 2067588466544&#45;&#45;2067588476144 -->
<g id="edge14" class="edge">
<title>2067588466544&#45;&#45;2067588476144</title>
<path fill="none" stroke="black" d="M1240.4,-177.9C1276.8,-174.99 1343.84,-169.63 1395.12,-165.54"/>
</g>
<!-- 2067588475424 -->
<g id="node22" class="node">
<title>2067588475424</title>
<ellipse fill="none" stroke="black" cx="1213.09" cy="-72" rx="119.42" ry="18"/>
<text text-anchor="middle" x="1213.09" y="-66" font-family="Times New Roman,serif" font-size="15.00">Update BAG administrator</text>
</g>
<!-- 2067588480080&#45;&#45;2067588475424 -->
<g id="edge18" class="edge">
<title>2067588480080&#45;&#45;2067588475424</title>
<path fill="none" stroke="black" d="M904.05,-72C944.61,-72 1025.01,-72 1093.5,-72"/>
</g>
<!-- 2067588472400 -->
<g id="node23" class="node">
<title>2067588472400</title>
<ellipse fill="none" stroke="black" cx="1213.09" cy="-18" rx="51.86" ry="18"/>
<text text-anchor="middle" x="1213.09" y="-12" font-family="Times New Roman,serif" font-size="15.00">Broadcast</text>
</g>
<!-- 2067588480080&#45;&#45;2067588472400 -->
<g id="edge19" class="edge">
<title>2067588480080&#45;&#45;2067588472400</title>
<path fill="none" stroke="black" d="M903.5,-67.85C959.6,-58.79 1093.83,-37.1 1165.35,-25.55"/>
</g>
</g>
</svg>
