<?xml version="1.0" encoding="UTF-8" standalone="no"?>
<!DOCTYPE svg PUBLIC "-//W3C//DTD SVG 1.1//EN"
 "http://www.w3.org/Graphics/SVG/1.1/DTD/svg11.dtd">
<!-- Generated by graphviz version 11.0.0 (20240428.1522)
 -->
<!-- Title: pt Pages: 1 -->
<svg width="1927pt" height="476pt"
 viewBox="0.00 0.00 1927.05 476.00" xmlns="http://www.w3.org/2000/svg" xmlns:xlink="http://www.w3.org/1999/xlink">
<g id="graph0" class="graph" transform="scale(1 1) rotate(0) translate(4 472)">
<title>pt</title>
<polygon fill="white" stroke="none" points="-4,4 -4,-472 1923.05,-472 1923.05,4 -4,4"/>
<!-- 2067589688224 -->
<g id="node1" class="node">
<title>2067589688224</title>
<ellipse fill="none" stroke="black" cx="27" cy="-369" rx="27" ry="18"/>
<text text-anchor="middle" x="27" y="-363" font-family="Times New Roman,serif" font-size="15.00">seq</text>
</g>
<!-- 2067589681456 -->
<g id="node2" class="node">
<title>2067589681456</title>
<ellipse fill="none" stroke="black" cx="221.19" cy="-423" rx="131.19" ry="18"/>
<text text-anchor="middle" x="221.19" y="-417" font-family="Times New Roman,serif" font-size="15.00">Enter submission date request</text>
</g>
<!-- 2067589688224&#45;&#45;2067589681456 -->
<g id="edge1" class="edge">
<title>2067589688224&#45;&#45;2067589681456</title>
<path fill="none" stroke="black" d="M52.34,-375.84C79.71,-383.53 125.14,-396.29 161.83,-406.6"/>
</g>
<!-- 2067589691968 -->
<g id="node3" class="node">
<title>2067589691968</title>
<ellipse fill="none" stroke="black" cx="221.19" cy="-369" rx="27" ry="18"/>
<text text-anchor="middle" x="221.19" y="-363" font-family="Times New Roman,serif" font-size="15.00">xor</text>
</g>
<!-- 2067589688224&#45;&#45;2067589691968 -->
<g id="edge20" class="edge">
<title>2067589688224&#45;&#45;2067589691968</title>
<path fill="none" stroke="black" d="M54.32,-369C91.02,-369 157.19,-369 193.88,-369"/>
</g>
<!-- 2067589687264 -->
<g id="node22" class="node">
<title>2067589687264</title>
<ellipse fill="none" stroke="black" cx="221.19" cy="-288" rx="27" ry="18"/>
<text text-anchor="middle" x="221.19" y="-282" font-family="Times New Roman,serif" font-size="15.00">xor</text>
</g>
<!-- 2067589688224&#45;&#45;2067589687264 -->
<g id="edge29" class="edge">
<title>2067589688224&#45;&#45;2067589687264</title>
<path fill="none" stroke="black" d="M50.42,-359.55C87.36,-343.98 160.58,-313.12 197.62,-297.52"/>
</g>
<!-- 2067589690720 -->
<g id="node4" class="node">
<title>2067589690720</title>
<ellipse fill="black" stroke="black" cx="499.11" cy="-408" rx="2.7" ry="2.7"/>
</g>
<!-- 2067589691968&#45;&#45;2067589690720 -->
<g id="edge2" class="edge">
<title>2067589691968&#45;&#45;2067589690720</title>
<path fill="none" stroke="black" d="M247.66,-372.6C311.69,-381.65 475.78,-404.84 496.05,-407.71"/>
</g>
<!-- 2067588081824 -->
<g id="node5" class="node">
<title>2067588081824</title>
<ellipse fill="none" stroke="black" cx="499.11" cy="-369" rx="27" ry="18"/>
<text text-anchor="middle" x="499.11" y="-363" font-family="Times New Roman,serif" font-size="15.00">seq</text>
</g>
<!-- 2067589691968&#45;&#45;2067588081824 -->
<g id="edge19" class="edge">
<title>2067589691968&#45;&#45;2067588081824</title>
<path fill="none" stroke="black" d="M248.65,-369C301.39,-369 419.06,-369 471.73,-369"/>
</g>
<!-- 2067588077504 -->
<g id="node6" class="node">
<title>2067588077504</title>
<ellipse fill="none" stroke="black" cx="894.23" cy="-450" rx="98.44" ry="18"/>
<text text-anchor="middle" x="894.23" y="-444" font-family="Times New Roman,serif" font-size="15.00">OLO messages active</text>
</g>
<!-- 2067588081824&#45;&#45;2067588077504 -->
<g id="edge3" class="edge">
<title>2067588081824&#45;&#45;2067588077504</title>
<path fill="none" stroke="black" d="M525.3,-374.19C585.37,-386.57 738.64,-418.15 827.25,-436.41"/>
</g>
<!-- 2067588074240 -->
<g id="node7" class="node">
<title>2067588074240</title>
<ellipse fill="none" stroke="black" cx="894.23" cy="-396" rx="114.82" ry="18"/>
<text text-anchor="middle" x="894.23" y="-390" font-family="Times New Roman,serif" font-size="15.00">Step application received</text>
</g>
<!-- 2067588081824&#45;&#45;2067588074240 -->
<g id="edge4" class="edge">
<title>2067588081824&#45;&#45;2067588074240</title>
<path fill="none" stroke="black" d="M526.21,-370.79C578.68,-374.4 699.53,-382.7 788.28,-388.79"/>
</g>
<!-- 2067588078656 -->
<g id="node8" class="node">
<title>2067588078656</title>
<ellipse fill="none" stroke="black" cx="894.23" cy="-342" rx="27" ry="18"/>
<text text-anchor="middle" x="894.23" y="-336" font-family="Times New Roman,serif" font-size="15.00">and</text>
</g>
<!-- 2067588081824&#45;&#45;2067588078656 -->
<g id="edge18" class="edge">
<title>2067588081824&#45;&#45;2067588078656</title>
<path fill="none" stroke="black" d="M526.21,-367.21C597.54,-362.31 795.25,-348.73 866.88,-343.81"/>
</g>
<!-- 2067588080912 -->
<g id="node9" class="node">
<title>2067588080912</title>
<ellipse fill="none" stroke="black" cx="1223.83" cy="-402" rx="45.21" ry="18"/>
<text text-anchor="middle" x="1223.83" y="-396" font-family="Times New Roman,serif" font-size="15.00">xor loop</text>
</g>
<!-- 2067588078656&#45;&#45;2067588080912 -->
<g id="edge7" class="edge">
<title>2067588078656&#45;&#45;2067588080912</title>
<path fill="none" stroke="black" d="M920.66,-346.66C977.19,-357.01 1113.65,-382 1182.16,-394.55"/>
</g>
<!-- 2067588077408 -->
<g id="node12" class="node">
<title>2067588077408</title>
<ellipse fill="none" stroke="black" cx="1223.83" cy="-282" rx="27" ry="18"/>
<text text-anchor="middle" x="1223.83" y="-276" font-family="Times New Roman,serif" font-size="15.00">seq</text>
</g>
<!-- 2067588078656&#45;&#45;2067588077408 -->
<g id="edge17" class="edge">
<title>2067588078656&#45;&#45;2067588077408</title>
<path fill="none" stroke="black" d="M920.66,-337.34C981.85,-326.14 1136.7,-297.77 1197.64,-286.61"/>
</g>
<!-- 2067588076832 -->
<g id="node10" class="node">
<title>2067588076832</title>
<ellipse fill="none" stroke="black" cx="1452.62" cy="-441" rx="131.19" ry="18"/>
<text text-anchor="middle" x="1452.62" y="-435" font-family="Times New Roman,serif" font-size="15.00">Transmit confirmation receipt</text>
</g>
<!-- 2067588080912&#45;&#45;2067588076832 -->
<g id="edge5" class="edge">
<title>2067588080912&#45;&#45;2067588076832</title>
<path fill="none" stroke="black" d="M1265.9,-409.06C1294.62,-414 1333.96,-420.77 1369.05,-426.8"/>
</g>
<!-- 2067588075536 -->
<g id="node11" class="node">
<title>2067588075536</title>
<ellipse fill="black" stroke="black" cx="1452.62" cy="-402" rx="2.7" ry="2.7"/>
</g>
<!-- 2067588080912&#45;&#45;2067588075536 -->
<g id="edge6" class="edge">
<title>2067588080912&#45;&#45;2067588075536</title>
<path fill="none" stroke="black" d="M1269.37,-402C1330.25,-402 1433.76,-402 1449.57,-402"/>
</g>
<!-- 2067588085712 -->
<g id="node13" class="node">
<title>2067588085712</title>
<ellipse fill="none" stroke="black" cx="1452.62" cy="-363" rx="142.97" ry="18"/>
<text text-anchor="middle" x="1452.62" y="-357" font-family="Times New Roman,serif" font-size="15.00">Applicant plays stakeholder role</text>
</g>
<!-- 2067588077408&#45;&#45;2067588085712 -->
<g id="edge8" class="edge">
<title>2067588077408&#45;&#45;2067588085712</title>
<path fill="none" stroke="black" d="M1248.25,-290.36C1284.69,-303.38 1355.73,-328.75 1403.44,-345.79"/>
</g>
<!-- 2067588083792 -->
<g id="node14" class="node">
<title>2067588083792</title>
<ellipse fill="none" stroke="black" cx="1452.62" cy="-309" rx="27" ry="18"/>
<text text-anchor="middle" x="1452.62" y="-303" font-family="Times New Roman,serif" font-size="15.00">and</text>
</g>
<!-- 2067588077408&#45;&#45;2067588083792 -->
<g id="edge11" class="edge">
<title>2067588077408&#45;&#45;2067588083792</title>
<path fill="none" stroke="black" d="M1250.85,-285.1C1294.48,-290.29 1381.9,-300.7 1425.56,-305.9"/>
</g>
<!-- 2067588075248 -->
<g id="node17" class="node">
<title>2067588075248</title>
<ellipse fill="none" stroke="black" cx="1452.62" cy="-255" rx="139.38" ry="18"/>
<text text-anchor="middle" x="1452.62" y="-249" font-family="Times New Roman,serif" font-size="15.00">Refer to the competent authority</text>
</g>
<!-- 2067588077408&#45;&#45;2067588075248 -->
<g id="edge12" class="edge">
<title>2067588077408&#45;&#45;2067588075248</title>
<path fill="none" stroke="black" d="M1250.85,-278.9C1274.93,-276.04 1312.36,-271.58 1348.4,-267.29"/>
</g>
<!-- 2067588084800 -->
<g id="node18" class="node">
<title>2067588084800</title>
<ellipse fill="none" stroke="black" cx="1452.62" cy="-201" rx="147.57" ry="18"/>
<text text-anchor="middle" x="1452.62" y="-195" font-family="Times New Roman,serif" font-size="15.00">Ordinary procedure without MER</text>
</g>
<!-- 2067588077408&#45;&#45;2067588084800 -->
<g id="edge13" class="edge">
<title>2067588077408&#45;&#45;2067588084800</title>
<path fill="none" stroke="black" d="M1248.25,-273.64C1284.58,-260.66 1355.29,-235.4 1402.99,-218.37"/>
</g>
<!-- 2067588072176 -->
<g id="node19" class="node">
<title>2067588072176</title>
<ellipse fill="none" stroke="black" cx="1452.62" cy="-147" rx="27" ry="18"/>
<text text-anchor="middle" x="1452.62" y="-141" font-family="Times New Roman,serif" font-size="15.00">and</text>
</g>
<!-- 2067588077408&#45;&#45;2067588072176 -->
<g id="edge16" class="edge">
<title>2067588077408&#45;&#45;2067588072176</title>
<path fill="none" stroke="black" d="M1244.56,-270.26C1287.45,-244.72 1388.78,-184.41 1431.77,-158.81"/>
</g>
<!-- 2067588074624 -->
<g id="node15" class="node">
<title>2067588074624</title>
<ellipse fill="none" stroke="black" cx="1777.62" cy="-336" rx="73.36" ry="18"/>
<text text-anchor="middle" x="1777.62" y="-330" font-family="Times New Roman,serif" font-size="15.00">Stop on request</text>
</g>
<!-- 2067588083792&#45;&#45;2067588074624 -->
<g id="edge9" class="edge">
<title>2067588083792&#45;&#45;2067588074624</title>
<path fill="none" stroke="black" d="M1479.77,-311.19C1528.88,-315.29 1636.35,-324.27 1707.59,-330.23"/>
</g>
<!-- 2067588082208 -->
<g id="node16" class="node">
<title>2067588082208</title>
<ellipse fill="none" stroke="black" cx="1777.62" cy="-282" rx="128.63" ry="18"/>
<text text-anchor="middle" x="1777.62" y="-276" font-family="Times New Roman,serif" font-size="15.00">Evaluate provisional charges</text>
</g>
<!-- 2067588083792&#45;&#45;2067588082208 -->
<g id="edge10" class="edge">
<title>2067588083792&#45;&#45;2067588082208</title>
<path fill="none" stroke="black" d="M1479.77,-306.81C1520.02,-303.45 1599.47,-296.81 1666.05,-291.24"/>
</g>
<!-- 2067589689232 -->
<g id="node20" class="node">
<title>2067589689232</title>
<ellipse fill="none" stroke="black" cx="1777.62" cy="-201" rx="141.43" ry="18"/>
<text text-anchor="middle" x="1777.62" y="-195" font-family="Times New Roman,serif" font-size="15.00">Produce procedure confirmation</text>
</g>
<!-- 2067588072176&#45;&#45;2067589689232 -->
<g id="edge14" class="edge">
<title>2067588072176&#45;&#45;2067589689232</title>
<path fill="none" stroke="black" d="M1479.23,-151.28C1524.22,-158.8 1619.34,-174.71 1689.96,-186.51"/>
</g>
<!-- 2067587928224 -->
<g id="node21" class="node">
<title>2067587928224</title>
<ellipse fill="none" stroke="black" cx="1777.62" cy="-147" rx="129.15" ry="18"/>
<text text-anchor="middle" x="1777.62" y="-141" font-family="Times New Roman,serif" font-size="15.00">Commence WABOprocedure</text>
</g>
<!-- 2067588072176&#45;&#45;2067587928224 -->
<g id="edge15" class="edge">
<title>2067588072176&#45;&#45;2067587928224</title>
<path fill="none" stroke="black" d="M1480.05,-147C1516.81,-147 1585.89,-147 1648.13,-147"/>
</g>
<!-- 2067589691632 -->
<g id="node23" class="node">
<title>2067589691632</title>
<ellipse fill="none" stroke="black" cx="499.11" cy="-288" rx="110.72" ry="18"/>
<text text-anchor="middle" x="499.11" y="-282" font-family="Times New Roman,serif" font-size="15.00">Terminate request notice</text>
</g>
<!-- 2067589687264&#45;&#45;2067589691632 -->
<g id="edge21" class="edge">
<title>2067589687264&#45;&#45;2067589691632</title>
<path fill="none" stroke="black" d="M248.65,-288C280.82,-288 337.15,-288 388.15,-288"/>
</g>
<!-- 2067589684192 -->
<g id="node24" class="node">
<title>2067589684192</title>
<ellipse fill="none" stroke="black" cx="499.11" cy="-180" rx="27" ry="18"/>
<text text-anchor="middle" x="499.11" y="-174" font-family="Times New Roman,serif" font-size="15.00">seq</text>
</g>
<!-- 2067589687264&#45;&#45;2067589684192 -->
<g id="edge28" class="edge">
<title>2067589687264&#45;&#45;2067589684192</title>
<path fill="none" stroke="black" d="M244.77,-279.16C296.51,-258.91 423.18,-209.33 475.22,-188.96"/>
</g>
<!-- 2067587926496 -->
<g id="node25" class="node">
<title>2067587926496</title>
<ellipse fill="none" stroke="black" cx="894.23" cy="-288" rx="200.29" ry="18"/>
<text text-anchor="middle" x="894.23" y="-282" font-family="Times New Roman,serif" font-size="15.00">Permit not needed or only notification required</text>
</g>
<!-- 2067589684192&#45;&#45;2067587926496 -->
<g id="edge22" class="edge">
<title>2067589684192&#45;&#45;2067587926496</title>
<path fill="none" stroke="black" d="M524.7,-186.76C584.88,-203.29 741.08,-246.2 829.59,-270.52"/>
</g>
<!-- 2067588385200 -->
<g id="node26" class="node">
<title>2067588385200</title>
<ellipse fill="none" stroke="black" cx="894.23" cy="-234" rx="248.4" ry="18"/>
<text text-anchor="middle" x="894.23" y="-228" font-family="Times New Roman,serif" font-size="15.00">document senddate letter no permit or notification required</text>
</g>
<!-- 2067589684192&#45;&#45;2067588385200 -->
<g id="edge23" class="edge">
<title>2067589684192&#45;&#45;2067588385200</title>
<path fill="none" stroke="black" d="M525.9,-183.54C575.69,-190.38 687.86,-205.79 775.23,-217.79"/>
</g>
<!-- 2067588397536 -->
<g id="node27" class="node">
<title>2067588397536</title>
<ellipse fill="none" stroke="black" cx="894.23" cy="-180" rx="159.85" ry="18"/>
<text text-anchor="middle" x="894.23" y="-174" font-family="Times New Roman,serif" font-size="15.00">draft letter stating no permit required</text>
</g>
<!-- 2067589684192&#45;&#45;2067588397536 -->
<g id="edge24" class="edge">
<title>2067589684192&#45;&#45;2067588397536</title>
<path fill="none" stroke="black" d="M526.51,-180C568.95,-180 655.52,-180 733.9,-180"/>
</g>
<!-- 2067588398784 -->
<g id="node28" class="node">
<title>2067588398784</title>
<ellipse fill="none" stroke="black" cx="894.23" cy="-126" rx="96.39" ry="18"/>
<text text-anchor="middle" x="894.23" y="-120" font-family="Times New Roman,serif" font-size="15.00">Register the deadline</text>
</g>
<!-- 2067589684192&#45;&#45;2067588398784 -->
<g id="edge25" class="edge">
<title>2067589684192&#45;&#45;2067588398784</title>
<path fill="none" stroke="black" d="M525.9,-176.46C583.81,-168.5 726.07,-148.96 815.59,-136.66"/>
</g>
<!-- 2067588385440 -->
<g id="node29" class="node">
<title>2067588385440</title>
<ellipse fill="none" stroke="black" cx="894.23" cy="-72" rx="119.42" ry="18"/>
<text text-anchor="middle" x="894.23" y="-66" font-family="Times New Roman,serif" font-size="15.00">Phase procedure cancelled</text>
</g>
<!-- 2067589684192&#45;&#45;2067588385440 -->
<g id="edge26" class="edge">
<title>2067589684192&#45;&#45;2067588385440</title>
<path fill="none" stroke="black" d="M524.7,-173.24C586.14,-156.37 747.66,-111.99 835.07,-87.98"/>
</g>
<!-- 2067588390816 -->
<g id="node30" class="node">
<title>2067588390816</title>
<ellipse fill="none" stroke="black" cx="894.23" cy="-18" rx="84.11" ry="18"/>
<text text-anchor="middle" x="894.23" y="-12" font-family="Times New Roman,serif" font-size="15.00">Conclude the case</text>
</g>
<!-- 2067589684192&#45;&#45;2067588390816 -->
<g id="edge27" class="edge">
<title>2067589684192&#45;&#45;2067588390816</title>
<path fill="none" stroke="black" d="M522.66,-170.71C587.02,-144.19 772.2,-67.87 853.8,-34.25"/>
</g>
</g>
</svg>
