<?xml version="1.0" encoding="UTF-8" standalone="no"?>
<!DOCTYPE svg PUBLIC "-//W3C//DTD SVG 1.1//EN"
 "http://www.w3.org/Graphics/SVG/1.1/DTD/svg11.dtd">
<!-- Generated by graphviz version 11.0.0 (20240428.1522)
 -->
<!-- Title: pt Pages: 1 -->
<svg width="3548pt" height="1201pt"
 viewBox="0.00 0.00 3548.39 1201.00" xmlns="http://www.w3.org/2000/svg" xmlns:xlink="http://www.w3.org/1999/xlink">
<g id="graph0" class="graph" transform="scale(1 1) rotate(0) translate(4 1197)">
<title>pt</title>
<polygon fill="white" stroke="none" points="-4,4 -4,-1197 3544.39,-1197 3544.39,4 -4,4"/>
<!-- 2067591984672 -->
<g id="node1" class="node">
<title>2067591984672</title>
<ellipse fill="none" stroke="black" cx="27" cy="-693" rx="27" ry="18"/>
<text text-anchor="middle" x="27" y="-687" font-family="Times New Roman,serif" font-size="15.00">seq</text>
</g>
<!-- 2067591975984 -->
<g id="node2" class="node">
<title>2067591975984</title>
<ellipse fill="none" stroke="black" cx="207.37" cy="-720" rx="27" ry="18"/>
<text text-anchor="middle" x="207.37" y="-714" font-family="Times New Roman,serif" font-size="15.00">and</text>
</g>
<!-- 2067591984672&#45;&#45;2067591975984 -->
<g id="edge64" class="edge">
<title>2067591984672&#45;&#45;2067591975984</title>
<path fill="none" stroke="black" d="M53.56,-696.87C87.37,-701.99 146.64,-710.96 180.58,-716.09"/>
</g>
<!-- 2067591975792 -->
<g id="node66" class="node">
<title>2067591975792</title>
<ellipse fill="none" stroke="black" cx="207.37" cy="-666" rx="117.37" ry="18"/>
<text text-anchor="middle" x="207.37" y="-660" font-family="Times New Roman,serif" font-size="15.00">Step application receptive</text>
</g>
<!-- 2067591984672&#45;&#45;2067591975792 -->
<g id="edge65" class="edge">
<title>2067591984672&#45;&#45;2067591975792</title>
<path fill="none" stroke="black" d="M53.56,-689.13C71.76,-686.38 97.35,-682.5 122.39,-678.71"/>
</g>
<!-- 2067591985584 -->
<g id="node3" class="node">
<title>2067591985584</title>
<ellipse fill="none" stroke="black" cx="491.94" cy="-801" rx="112.26" ry="18"/>
<text text-anchor="middle" x="491.94" y="-795" font-family="Times New Roman,serif" font-size="15.00">Register publication date</text>
</g>
<!-- 2067591975984&#45;&#45;2067591985584 -->
<g id="edge1" class="edge">
<title>2067591975984&#45;&#45;2067591985584</title>
<path fill="none" stroke="black" d="M232.47,-726.91C277.11,-739.7 373.74,-767.4 435.38,-785.07"/>
</g>
<!-- 2067591979728 -->
<g id="node4" class="node">
<title>2067591979728</title>
<ellipse fill="none" stroke="black" cx="491.94" cy="-747" rx="114.82" ry="18"/>
<text text-anchor="middle" x="491.94" y="-741" font-family="Times New Roman,serif" font-size="15.00">Step application received</text>
</g>
<!-- 2067591975984&#45;&#45;2067591979728 -->
<g id="edge2" class="edge">
<title>2067591975984&#45;&#45;2067591979728</title>
<path fill="none" stroke="black" d="M234.45,-722.49C270.25,-725.91 336.57,-732.25 392.81,-737.62"/>
</g>
<!-- 2067591974592 -->
<g id="node5" class="node">
<title>2067591974592</title>
<ellipse fill="none" stroke="black" cx="491.94" cy="-693" rx="131.19" ry="18"/>
<text text-anchor="middle" x="491.94" y="-687" font-family="Times New Roman,serif" font-size="15.00">Enter submission date request</text>
</g>
<!-- 2067591975984&#45;&#45;2067591974592 -->
<g id="edge3" class="edge">
<title>2067591975984&#45;&#45;2067591974592</title>
<path fill="none" stroke="black" d="M234.45,-717.51C268.2,-714.28 329.08,-708.47 383.06,-703.31"/>
</g>
<!-- 2067591973152 -->
<g id="node6" class="node">
<title>2067591973152</title>
<ellipse fill="none" stroke="black" cx="491.94" cy="-639" rx="27" ry="18"/>
<text text-anchor="middle" x="491.94" y="-633" font-family="Times New Roman,serif" font-size="15.00">seq</text>
</g>
<!-- 2067591975984&#45;&#45;2067591973152 -->
<g id="edge63" class="edge">
<title>2067591975984&#45;&#45;2067591973152</title>
<path fill="none" stroke="black" d="M232.47,-713.09C285.72,-697.83 412.95,-661.36 466.51,-646"/>
</g>
<!-- 2067591972480 -->
<g id="node7" class="node">
<title>2067591972480</title>
<ellipse fill="none" stroke="black" cx="750.41" cy="-666" rx="27" ry="18"/>
<text text-anchor="middle" x="750.41" y="-660" font-family="Times New Roman,serif" font-size="15.00">and</text>
</g>
<!-- 2067591973152&#45;&#45;2067591972480 -->
<g id="edge61" class="edge">
<title>2067591973152&#45;&#45;2067591972480</title>
<path fill="none" stroke="black" d="M518.95,-641.74C568.1,-646.91 674.13,-658.07 723.34,-663.26"/>
</g>
<!-- 2067591986880 -->
<g id="node65" class="node">
<title>2067591986880</title>
<ellipse fill="none" stroke="black" cx="750.41" cy="-612" rx="91.27" ry="18"/>
<text text-anchor="middle" x="750.41" y="-606" font-family="Times New Roman,serif" font-size="15.00">Accomplish request</text>
</g>
<!-- 2067591973152&#45;&#45;2067591986880 -->
<g id="edge62" class="edge">
<title>2067591973152&#45;&#45;2067591986880</title>
<path fill="none" stroke="black" d="M518.95,-636.26C553.84,-632.59 617.39,-625.9 668.93,-620.47"/>
</g>
<!-- 2067591978240 -->
<g id="node8" class="node">
<title>2067591978240</title>
<ellipse fill="none" stroke="black" cx="1034.98" cy="-693" rx="157.3" ry="18"/>
<text text-anchor="middle" x="1034.98" y="-687" font-family="Times New Roman,serif" font-size="15.00">Register senddate acknowledgement</text>
</g>
<!-- 2067591972480&#45;&#45;2067591978240 -->
<g id="edge4" class="edge">
<title>2067591972480&#45;&#45;2067591978240</title>
<path fill="none" stroke="black" d="M777.49,-668.49C808.43,-671.45 862.19,-676.59 912.53,-681.4"/>
</g>
<!-- 2067591976416 -->
<g id="node9" class="node">
<title>2067591976416</title>
<ellipse fill="none" stroke="black" cx="1034.98" cy="-639" rx="27" ry="18"/>
<text text-anchor="middle" x="1034.98" y="-633" font-family="Times New Roman,serif" font-size="15.00">seq</text>
</g>
<!-- 2067591972480&#45;&#45;2067591976416 -->
<g id="edge60" class="edge">
<title>2067591972480&#45;&#45;2067591976416</title>
<path fill="none" stroke="black" d="M777.49,-663.51C831.32,-658.36 954.19,-646.62 1007.96,-641.49"/>
</g>
<!-- 2067591972864 -->
<g id="node10" class="node">
<title>2067591972864</title>
<ellipse fill="none" stroke="black" cx="1255.27" cy="-666" rx="27" ry="18"/>
<text text-anchor="middle" x="1255.27" y="-660" font-family="Times New Roman,serif" font-size="15.00">xor</text>
</g>
<!-- 2067591976416&#45;&#45;2067591972864 -->
<g id="edge7" class="edge">
<title>2067591976416&#45;&#45;2067591972864</title>
<path fill="none" stroke="black" d="M1061.88,-642.2C1103.89,-647.4 1186.42,-657.61 1228.41,-662.8"/>
</g>
<!-- 2067591986448 -->
<g id="node13" class="node">
<title>2067591986448</title>
<ellipse fill="none" stroke="black" cx="1255.27" cy="-612" rx="27" ry="18"/>
<text text-anchor="middle" x="1255.27" y="-606" font-family="Times New Roman,serif" font-size="15.00">and</text>
</g>
<!-- 2067591976416&#45;&#45;2067591986448 -->
<g id="edge59" class="edge">
<title>2067591976416&#45;&#45;2067591986448</title>
<path fill="none" stroke="black" d="M1061.88,-635.8C1103.89,-630.6 1186.42,-620.39 1228.41,-615.2"/>
</g>
<!-- 2067591983568 -->
<g id="node11" class="node">
<title>2067591983568</title>
<ellipse fill="none" stroke="black" cx="1451.51" cy="-720" rx="133.24" ry="18"/>
<text text-anchor="middle" x="1451.51" y="-714" font-family="Times New Roman,serif" font-size="15.00">Reception through OLO portal</text>
</g>
<!-- 2067591972864&#45;&#45;2067591983568 -->
<g id="edge5" class="edge">
<title>2067591972864&#45;&#45;2067591983568</title>
<path fill="none" stroke="black" d="M1280.48,-672.73C1308.04,-680.39 1354.06,-693.19 1391.28,-703.53"/>
</g>
<!-- 2067592458800 -->
<g id="node12" class="node">
<title>2067592458800</title>
<ellipse fill="none" stroke="black" cx="1451.51" cy="-666" rx="98.44" ry="18"/>
<text text-anchor="middle" x="1451.51" y="-660" font-family="Times New Roman,serif" font-size="15.00">OLO messages active</text>
</g>
<!-- 2067591972864&#45;&#45;2067592458800 -->
<g id="edge6" class="edge">
<title>2067591972864&#45;&#45;2067592458800</title>
<path fill="none" stroke="black" d="M1282.47,-666C1300.9,-666 1326.83,-666 1352.81,-666"/>
</g>
<!-- 2067592455344 -->
<g id="node14" class="node">
<title>2067592455344</title>
<ellipse fill="none" stroke="black" cx="1451.51" cy="-612" rx="129.15" ry="18"/>
<text text-anchor="middle" x="1451.51" y="-606" font-family="Times New Roman,serif" font-size="15.00">Commence WABOprocedure</text>
</g>
<!-- 2067591986448&#45;&#45;2067592455344 -->
<g id="edge8" class="edge">
<title>2067591986448&#45;&#45;2067592455344</title>
<path fill="none" stroke="black" d="M1282.47,-612C1293.55,-612 1307.34,-612 1322.22,-612"/>
</g>
<!-- 2067592454480 -->
<g id="node15" class="node">
<title>2067592454480</title>
<ellipse fill="none" stroke="black" cx="1451.51" cy="-558" rx="27" ry="18"/>
<text text-anchor="middle" x="1451.51" y="-552" font-family="Times New Roman,serif" font-size="15.00">seq</text>
</g>
<!-- 2067591986448&#45;&#45;2067592454480 -->
<g id="edge58" class="edge">
<title>2067591986448&#45;&#45;2067592454480</title>
<path fill="none" stroke="black" d="M1280.48,-605.27C1317.7,-594.92 1388.6,-575.21 1426,-564.81"/>
</g>
<!-- 2067592446224 -->
<g id="node16" class="node">
<title>2067592446224</title>
<ellipse fill="none" stroke="black" cx="1800.57" cy="-1098" rx="128.63" ry="18"/>
<text text-anchor="middle" x="1800.57" y="-1092" font-family="Times New Roman,serif" font-size="15.00">Evaluate provisional charges</text>
</g>
<!-- 2067592454480&#45;&#45;2067592446224 -->
<g id="edge9" class="edge">
<title>2067592454480&#45;&#45;2067592446224</title>
<path fill="none" stroke="black" d="M1463.09,-574.46C1514.1,-653.82 1734.41,-996.62 1787.86,-1079.78"/>
</g>
<!-- 2067592460528 -->
<g id="node17" class="node">
<title>2067592460528</title>
<ellipse fill="none" stroke="black" cx="1800.57" cy="-1044" rx="27" ry="18"/>
<text text-anchor="middle" x="1800.57" y="-1038" font-family="Times New Roman,serif" font-size="15.00">xor</text>
</g>
<!-- 2067592454480&#45;&#45;2067592460528 -->
<g id="edge26" class="edge">
<title>2067592454480&#45;&#45;2067592460528</title>
<path fill="none" stroke="black" d="M1464.06,-574.17C1516.87,-648.12 1735.08,-953.69 1787.98,-1027.77"/>
</g>
<!-- 2067592461392 -->
<g id="node34" class="node">
<title>2067592461392</title>
<ellipse fill="none" stroke="black" cx="1800.57" cy="-990" rx="179.82" ry="18"/>
<text text-anchor="middle" x="1800.57" y="-984" font-family="Times New Roman,serif" font-size="15.00">Register senddate procedure confirmation</text>
</g>
<!-- 2067592454480&#45;&#45;2067592461392 -->
<g id="edge27" class="edge">
<title>2067592454480&#45;&#45;2067592461392</title>
<path fill="none" stroke="black" d="M1465.28,-573.89C1519.09,-640.87 1727.29,-900.03 1784.79,-971.6"/>
</g>
<!-- 2067592449296 -->
<g id="node35" class="node">
<title>2067592449296</title>
<ellipse fill="none" stroke="black" cx="1800.57" cy="-936" rx="98.44" ry="18"/>
<text text-anchor="middle" x="1800.57" y="-930" font-family="Times New Roman,serif" font-size="15.00">Retrieve missing data</text>
</g>
<!-- 2067592454480&#45;&#45;2067592449296 -->
<g id="edge28" class="edge">
<title>2067592454480&#45;&#45;2067592449296</title>
<path fill="none" stroke="black" d="M1466.55,-573.29C1521.71,-633.37 1723.53,-853.18 1782.98,-917.93"/>
</g>
<!-- 2067592449728 -->
<g id="node36" class="node">
<title>2067592449728</title>
<ellipse fill="none" stroke="black" cx="1800.57" cy="-882" rx="132.73" ry="18"/>
<text text-anchor="middle" x="1800.57" y="-876" font-family="Times New Roman,serif" font-size="15.00">Log date retrieve missing data</text>
</g>
<!-- 2067592454480&#45;&#45;2067592449728 -->
<g id="edge29" class="edge">
<title>2067592454480&#45;&#45;2067592449728</title>
<path fill="none" stroke="black" d="M1467.87,-572.34C1524.02,-624.76 1718.08,-805.93 1780.25,-863.96"/>
</g>
<!-- 2067592459664 -->
<g id="node37" class="node">
<title>2067592459664</title>
<ellipse fill="none" stroke="black" cx="1800.57" cy="-828" rx="73.36" ry="18"/>
<text text-anchor="middle" x="1800.57" y="-822" font-family="Times New Roman,serif" font-size="15.00">Stop on request</text>
</g>
<!-- 2067592454480&#45;&#45;2067592459664 -->
<g id="edge30" class="edge">
<title>2067592454480&#45;&#45;2067592459664</title>
<path fill="none" stroke="black" d="M1469.72,-571.39C1527.31,-616.19 1713.21,-760.81 1777.47,-810.81"/>
</g>
<!-- 2067592454912 -->
<g id="node38" class="node">
<title>2067592454912</title>
<ellipse fill="none" stroke="black" cx="1800.57" cy="-774" rx="27" ry="18"/>
<text text-anchor="middle" x="1800.57" y="-768" font-family="Times New Roman,serif" font-size="15.00">and</text>
</g>
<!-- 2067592454480&#45;&#45;2067592454912 -->
<g id="edge43" class="edge">
<title>2067592454480&#45;&#45;2067592454912</title>
<path fill="none" stroke="black" d="M1471.92,-570.08C1532.73,-607.92 1719.17,-723.96 1780.09,-761.88"/>
</g>
<!-- 2067592454048 -->
<g id="node51" class="node">
<title>2067592454048</title>
<ellipse fill="none" stroke="black" cx="1800.57" cy="-720" rx="142.97" ry="18"/>
<text text-anchor="middle" x="1800.57" y="-714" font-family="Times New Roman,serif" font-size="15.00">Applicant plays stakeholder role</text>
</g>
<!-- 2067592454480&#45;&#45;2067592454048 -->
<g id="edge44" class="edge">
<title>2067592454480&#45;&#45;2067592454048</title>
<path fill="none" stroke="black" d="M1474.22,-568.13C1531.8,-595.01 1688.95,-668.37 1761.69,-702.32"/>
</g>
<!-- 2067592460912 -->
<g id="node52" class="node">
<title>2067592460912</title>
<ellipse fill="none" stroke="black" cx="1800.57" cy="-666" rx="147.57" ry="18"/>
<text text-anchor="middle" x="1800.57" y="-660" font-family="Times New Roman,serif" font-size="15.00">Ordinary procedure without MER</text>
</g>
<!-- 2067592454480&#45;&#45;2067592460912 -->
<g id="edge45" class="edge">
<title>2067592454480&#45;&#45;2067592460912</title>
<path fill="none" stroke="black" d="M1476.64,-565.51C1531.75,-582.66 1668.01,-625.06 1744.76,-648.94"/>
</g>
<!-- 2067592456208 -->
<g id="node53" class="node">
<title>2067592456208</title>
<ellipse fill="none" stroke="black" cx="1800.57" cy="-612" rx="141.43" ry="18"/>
<text text-anchor="middle" x="1800.57" y="-606" font-family="Times New Roman,serif" font-size="15.00">Produce procedure confirmation</text>
</g>
<!-- 2067592454480&#45;&#45;2067592456208 -->
<g id="edge46" class="edge">
<title>2067592454480&#45;&#45;2067592456208</title>
<path fill="none" stroke="black" d="M1478.32,-562.01C1526.46,-569.51 1632.09,-585.94 1709.12,-597.93"/>
</g>
<!-- 2067592446080 -->
<g id="node54" class="node">
<title>2067592446080</title>
<ellipse fill="none" stroke="black" cx="1800.57" cy="-558" rx="51.86" ry="18"/>
<text text-anchor="middle" x="1800.57" y="-552" font-family="Times New Roman,serif" font-size="15.00">Broadcast</text>
</g>
<!-- 2067592454480&#45;&#45;2067592446080 -->
<g id="edge47" class="edge">
<title>2067592454480&#45;&#45;2067592446080</title>
<path fill="none" stroke="black" d="M1478.88,-558C1536.3,-558 1673.5,-558 1748.49,-558"/>
</g>
<!-- 2067592452752 -->
<g id="node55" class="node">
<title>2067592452752</title>
<ellipse fill="none" stroke="black" cx="1800.57" cy="-504" rx="154.22" ry="18"/>
<text text-anchor="middle" x="1800.57" y="-498" font-family="Times New Roman,serif" font-size="15.00">Inspect field for phased application</text>
</g>
<!-- 2067592454480&#45;&#45;2067592452752 -->
<g id="edge48" class="edge">
<title>2067592454480&#45;&#45;2067592452752</title>
<path fill="none" stroke="black" d="M1478.32,-553.99C1525.76,-546.6 1629,-530.54 1705.71,-518.6"/>
</g>
<!-- 2067592455296 -->
<g id="node56" class="node">
<title>2067592455296</title>
<ellipse fill="none" stroke="black" cx="1800.57" cy="-450" rx="131.19" ry="18"/>
<text text-anchor="middle" x="1800.57" y="-444" font-family="Times New Roman,serif" font-size="15.00">Transmit confirmation receipt</text>
</g>
<!-- 2067592454480&#45;&#45;2067592455296 -->
<g id="edge49" class="edge">
<title>2067592454480&#45;&#45;2067592455296</title>
<path fill="none" stroke="black" d="M1476.64,-550.49C1531.98,-533.27 1669.15,-490.59 1745.72,-466.76"/>
</g>
<!-- 2067592451456 -->
<g id="node57" class="node">
<title>2067592451456</title>
<ellipse fill="none" stroke="black" cx="1800.57" cy="-396" rx="96.39" ry="18"/>
<text text-anchor="middle" x="1800.57" y="-390" font-family="Times New Roman,serif" font-size="15.00">Register the deadline</text>
</g>
<!-- 2067592454480&#45;&#45;2067592451456 -->
<g id="edge50" class="edge">
<title>2067592454480&#45;&#45;2067592451456</title>
<path fill="none" stroke="black" d="M1474.22,-547.87C1532.17,-520.82 1690.98,-446.69 1763.09,-413.03"/>
</g>
<!-- 2067592453136 -->
<g id="node58" class="node">
<title>2067592453136</title>
<ellipse fill="none" stroke="black" cx="1800.57" cy="-342" rx="166.51" ry="18"/>
<text text-anchor="middle" x="1800.57" y="-336" font-family="Times New Roman,serif" font-size="15.00">Create termination decision on request</text>
</g>
<!-- 2067592454480&#45;&#45;2067592453136 -->
<g id="edge51" class="edge">
<title>2067592454480&#45;&#45;2067592453136</title>
<path fill="none" stroke="black" d="M1471.92,-545.92C1529.8,-509.9 1701.52,-403.02 1770.45,-360.12"/>
</g>
<!-- 2067592453568 -->
<g id="node59" class="node">
<title>2067592453568</title>
<ellipse fill="none" stroke="black" cx="1800.57" cy="-288" rx="176.74" ry="18"/>
<text text-anchor="middle" x="1800.57" y="-282" font-family="Times New Roman,serif" font-size="15.00">Enter date of publishing received request</text>
</g>
<!-- 2067592454480&#45;&#45;2067592453568 -->
<g id="edge52" class="edge">
<title>2067592454480&#45;&#45;2067592453568</title>
<path fill="none" stroke="black" d="M1469.72,-544.61C1526.9,-500.13 1710.56,-357.24 1776.08,-306.27"/>
</g>
<!-- 2067592462208 -->
<g id="node60" class="node">
<title>2067592462208</title>
<ellipse fill="none" stroke="black" cx="1800.57" cy="-234" rx="149.11" ry="18"/>
<text text-anchor="middle" x="1800.57" y="-228" font-family="Times New Roman,serif" font-size="15.00">Register termination decision date</text>
</g>
<!-- 2067592454480&#45;&#45;2067592462208 -->
<g id="edge53" class="edge">
<title>2067592454480&#45;&#45;2067592462208</title>
<path fill="none" stroke="black" d="M1467.87,-543.66C1524.02,-491.24 1718.08,-310.07 1780.25,-252.04"/>
</g>
<!-- 2067592450592 -->
<g id="node61" class="node">
<title>2067592450592</title>
<ellipse fill="none" stroke="black" cx="1800.57" cy="-180" rx="162.41" ry="18"/>
<text text-anchor="middle" x="1800.57" y="-174" font-family="Times New Roman,serif" font-size="15.00">Enact termination decision on request</text>
</g>
<!-- 2067592454480&#45;&#45;2067592450592 -->
<g id="edge54" class="edge">
<title>2067592454480&#45;&#45;2067592450592</title>
<path fill="none" stroke="black" d="M1466.55,-542.71C1521.71,-482.63 1723.53,-262.82 1782.98,-198.07"/>
</g>
<!-- 2067592455728 -->
<g id="node62" class="node">
<title>2067592455728</title>
<ellipse fill="none" stroke="black" cx="1800.57" cy="-126" rx="119.42" ry="18"/>
<text text-anchor="middle" x="1800.57" y="-120" font-family="Times New Roman,serif" font-size="15.00">Phase procedure cancelled</text>
</g>
<!-- 2067592454480&#45;&#45;2067592455728 -->
<g id="edge55" class="edge">
<title>2067592454480&#45;&#45;2067592455728</title>
<path fill="none" stroke="black" d="M1465.28,-542.11C1519.21,-474.98 1728.24,-214.79 1785.18,-143.91"/>
</g>
<!-- 2067592450976 -->
<g id="node63" class="node">
<title>2067592450976</title>
<ellipse fill="none" stroke="black" cx="1800.57" cy="-72" rx="84.11" ry="18"/>
<text text-anchor="middle" x="1800.57" y="-66" font-family="Times New Roman,serif" font-size="15.00">Conclude the case</text>
</g>
<!-- 2067592454480&#45;&#45;2067592450976 -->
<g id="edge56" class="edge">
<title>2067592454480&#45;&#45;2067592450976</title>
<path fill="none" stroke="black" d="M1464.06,-541.83C1516.46,-468.45 1731.69,-167.06 1786.71,-90.01"/>
</g>
<!-- 2067592450544 -->
<g id="node64" class="node">
<title>2067592450544</title>
<ellipse fill="none" stroke="black" cx="1800.57" cy="-18" rx="140.41" ry="18"/>
<text text-anchor="middle" x="1800.57" y="-12" font-family="Times New Roman,serif" font-size="15.00">Subcases completeness fulfilled</text>
</g>
<!-- 2067592454480&#45;&#45;2067592450544 -->
<g id="edge57" class="edge">
<title>2067592454480&#45;&#45;2067592450544</title>
<path fill="none" stroke="black" d="M1463.09,-541.54C1514.1,-462.18 1734.41,-119.38 1787.86,-36.22"/>
</g>
<!-- 2067592448864 -->
<g id="node18" class="node">
<title>2067592448864</title>
<ellipse fill="none" stroke="black" cx="2192.62" cy="-1121" rx="27" ry="18"/>
<text text-anchor="middle" x="2192.62" y="-1115" font-family="Times New Roman,serif" font-size="15.00">seq</text>
</g>
<!-- 2067592460528&#45;&#45;2067592448864 -->
<g id="edge12" class="edge">
<title>2067592460528&#45;&#45;2067592448864</title>
<path fill="none" stroke="black" d="M1826.86,-1048.99C1897.42,-1062.92 2095.89,-1102.1 2166.38,-1116.02"/>
</g>
<!-- 2067592448432 -->
<g id="node21" class="node">
<title>2067592448432</title>
<ellipse fill="none" stroke="black" cx="2192.62" cy="-1040" rx="27" ry="18"/>
<text text-anchor="middle" x="2192.62" y="-1034" font-family="Times New Roman,serif" font-size="15.00">seq</text>
</g>
<!-- 2067592460528&#45;&#45;2067592448432 -->
<g id="edge25" class="edge">
<title>2067592460528&#45;&#45;2067592448432</title>
<path fill="none" stroke="black" d="M1827.77,-1043.73C1898.74,-1043 2094.14,-1041 2165.28,-1040.27"/>
</g>
<!-- 2067592453616 -->
<g id="node19" class="node">
<title>2067592453616</title>
<ellipse fill="none" stroke="black" cx="2605.14" cy="-1175" rx="131.71" ry="18"/>
<text text-anchor="middle" x="2605.14" y="-1169" font-family="Times New Roman,serif" font-size="15.00">Action by competent authority</text>
</g>
<!-- 2067592448864&#45;&#45;2067592453616 -->
<g id="edge10" class="edge">
<title>2067592448864&#45;&#45;2067592453616</title>
<path fill="none" stroke="black" d="M2219.61,-1124.42C2276.45,-1131.9 2414.25,-1150.02 2508.46,-1162.41"/>
</g>
<!-- 2067592453184 -->
<g id="node20" class="node">
<title>2067592453184</title>
<ellipse fill="none" stroke="black" cx="2605.14" cy="-1121" rx="153.71" ry="18"/>
<text text-anchor="middle" x="2605.14" y="-1115" font-family="Times New Roman,serif" font-size="15.00">Create termination request message</text>
</g>
<!-- 2067592448864&#45;&#45;2067592453184 -->
<g id="edge11" class="edge">
<title>2067592448864&#45;&#45;2067592453184</title>
<path fill="none" stroke="black" d="M2219.92,-1121C2266.11,-1121 2365.05,-1121 2450.96,-1121"/>
</g>
<!-- 2067592456640 -->
<g id="node22" class="node">
<title>2067592456640</title>
<ellipse fill="none" stroke="black" cx="2605.14" cy="-1067" rx="200.29" ry="18"/>
<text text-anchor="middle" x="2605.14" y="-1061" font-family="Times New Roman,serif" font-size="15.00">Permit not needed or only notification required</text>
</g>
<!-- 2067592448432&#45;&#45;2067592456640 -->
<g id="edge13" class="edge">
<title>2067592448432&#45;&#45;2067592456640</title>
<path fill="none" stroke="black" d="M2219.92,-1041.73C2264.43,-1044.66 2357.92,-1050.81 2441.53,-1056.31"/>
</g>
<!-- 2067592451888 -->
<g id="node23" class="node">
<title>2067592451888</title>
<ellipse fill="none" stroke="black" cx="2605.14" cy="-1013" rx="139.38" ry="18"/>
<text text-anchor="middle" x="2605.14" y="-1007" font-family="Times New Roman,serif" font-size="15.00">Refer to the competent authority</text>
</g>
<!-- 2067592448432&#45;&#45;2067592451888 -->
<g id="edge14" class="edge">
<title>2067592448432&#45;&#45;2067592451888</title>
<path fill="none" stroke="black" d="M2219.92,-1038.27C2271.42,-1034.88 2388.49,-1027.18 2479.96,-1021.17"/>
</g>
<!-- 2067592452320 -->
<g id="node24" class="node">
<title>2067592452320</title>
<ellipse fill="none" stroke="black" cx="2605.14" cy="-959" rx="27" ry="18"/>
<text text-anchor="middle" x="2605.14" y="-953" font-family="Times New Roman,serif" font-size="15.00">xor</text>
</g>
<!-- 2067592448432&#45;&#45;2067592452320 -->
<g id="edge24" class="edge">
<title>2067592448432&#45;&#45;2067592452320</title>
<path fill="none" stroke="black" d="M2218.99,-1034.99C2292.49,-1020.49 2505.05,-978.55 2578.67,-964.02"/>
</g>
<!-- 2067592448000 -->
<g id="node25" class="node">
<title>2067592448000</title>
<ellipse fill="none" stroke="black" cx="2990.02" cy="-1081" rx="27" ry="18"/>
<text text-anchor="middle" x="2990.02" y="-1075" font-family="Times New Roman,serif" font-size="15.00">seq</text>
</g>
<!-- 2067592452320&#45;&#45;2067592448000 -->
<g id="edge18" class="edge">
<title>2067592452320&#45;&#45;2067592448000</title>
<path fill="none" stroke="black" d="M2630.09,-966.63C2698.85,-988.54 2896.33,-1051.47 2965.08,-1073.37"/>
</g>
<!-- 2067592447568 -->
<g id="node29" class="node">
<title>2067592447568</title>
<ellipse fill="none" stroke="black" cx="2990.02" cy="-946" rx="27" ry="18"/>
<text text-anchor="middle" x="2990.02" y="-940" font-family="Times New Roman,serif" font-size="15.00">seq</text>
</g>
<!-- 2067592452320&#45;&#45;2067592447568 -->
<g id="edge23" class="edge">
<title>2067592452320&#45;&#45;2067592447568</title>
<path fill="none" stroke="black" d="M2632.45,-958.11C2702.49,-955.73 2892.82,-949.27 2962.77,-946.89"/>
</g>
<!-- 2067592460048 -->
<g id="node26" class="node">
<title>2067592460048</title>
<ellipse fill="none" stroke="black" cx="3357.5" cy="-1162" rx="142.45" ry="18"/>
<text text-anchor="middle" x="3357.5" y="-1156" font-family="Times New Roman,serif" font-size="15.00">Generate subcases completeness</text>
</g>
<!-- 2067592448000&#45;&#45;2067592460048 -->
<g id="edge15" class="edge">
<title>2067592448000&#45;&#45;2067592460048</title>
<path fill="none" stroke="black" d="M3016.14,-1086.57C3070.81,-1098.68 3202.3,-1127.82 3284.91,-1146.13"/>
</g>
<!-- 2067592459616 -->
<g id="node27" class="node">
<title>2067592459616</title>
<ellipse fill="none" stroke="black" cx="3357.5" cy="-1108" rx="82.57" ry="18"/>
<text text-anchor="middle" x="3357.5" y="-1102" font-family="Times New Roman,serif" font-size="15.00">Revise procedure</text>
</g>
<!-- 2067592448000&#45;&#45;2067592459616 -->
<g id="edge16" class="edge">
<title>2067592448000&#45;&#45;2067592459616</title>
<path fill="none" stroke="black" d="M3017.3,-1082.94C3071.32,-1086.93 3196.61,-1096.19 3278.87,-1102.26"/>
</g>
<!-- 2067592459184 -->
<g id="node28" class="node">
<title>2067592459184</title>
<ellipse fill="none" stroke="black" cx="3357.5" cy="-1054" rx="139.38" ry="18"/>
<text text-anchor="middle" x="3357.5" y="-1048" font-family="Times New Roman,serif" font-size="15.00">Resolve subcases completeness</text>
</g>
<!-- 2067592448000&#45;&#45;2067592459184 -->
<g id="edge17" class="edge">
<title>2067592448000&#45;&#45;2067592459184</title>
<path fill="none" stroke="black" d="M3017.3,-1079.06C3062.48,-1075.72 3157.52,-1068.7 3235.53,-1062.94"/>
</g>
<!-- 2067592458320 -->
<g id="node30" class="node">
<title>2067592458320</title>
<ellipse fill="none" stroke="black" cx="3357.5" cy="-1000" rx="119.42" ry="18"/>
<text text-anchor="middle" x="3357.5" y="-994" font-family="Times New Roman,serif" font-size="15.00">Update BAG administrator</text>
</g>
<!-- 2067592447568&#45;&#45;2067592458320 -->
<g id="edge19" class="edge">
<title>2067592447568&#45;&#45;2067592458320</title>
<path fill="none" stroke="black" d="M3016.72,-949.8C3068.63,-957.47 3188.07,-975.11 3270.54,-987.3"/>
</g>
<!-- 2067592457888 -->
<g id="node31" class="node">
<title>2067592457888</title>
<ellipse fill="none" stroke="black" cx="3357.5" cy="-946" rx="182.89" ry="18"/>
<text text-anchor="middle" x="3357.5" y="-940" font-family="Times New Roman,serif" font-size="15.00">Mandatory Environmental Report required</text>
</g>
<!-- 2067592447568&#45;&#45;2067592457888 -->
<g id="edge20" class="edge">
<title>2067592447568&#45;&#45;2067592457888</title>
<path fill="none" stroke="black" d="M3017.3,-946C3051.1,-946 3112.81,-946 3174.43,-946"/>
</g>
<!-- 2067592457456 -->
<g id="node32" class="node">
<title>2067592457456</title>
<ellipse fill="none" stroke="black" cx="3357.5" cy="-892" rx="129.15" ry="18"/>
<text text-anchor="middle" x="3357.5" y="-886" font-family="Times New Roman,serif" font-size="15.00">Regular procedural activities</text>
</g>
<!-- 2067592447568&#45;&#45;2067592457456 -->
<g id="edge21" class="edge">
<title>2067592447568&#45;&#45;2067592457456</title>
<path fill="none" stroke="black" d="M3016.72,-942.2C3067.9,-934.64 3184.72,-917.38 3267.03,-905.22"/>
</g>
<!-- 2067592457024 -->
<g id="node33" class="node">
<title>2067592457024</title>
<ellipse fill="none" stroke="black" cx="3357.5" cy="-838" rx="87.69" ry="18"/>
<text text-anchor="middle" x="3357.5" y="-832" font-family="Times New Roman,serif" font-size="15.00">Phased application</text>
</g>
<!-- 2067592447568&#45;&#45;2067592457024 -->
<g id="edge22" class="edge">
<title>2067592447568&#45;&#45;2067592457024</title>
<path fill="none" stroke="black" d="M3015.28,-938.83C3074.27,-921.4 3226.2,-876.5 3305.93,-852.94"/>
</g>
<!-- 2067592461776 -->
<g id="node39" class="node">
<title>2067592461776</title>
<ellipse fill="none" stroke="black" cx="2192.62" cy="-801" rx="176.23" ry="18"/>
<text text-anchor="middle" x="2192.62" y="-795" font-family="Times New Roman,serif" font-size="15.00">Log date termination request documented</text>
</g>
<!-- 2067592454912&#45;&#45;2067592461776 -->
<g id="edge31" class="edge">
<title>2067592454912&#45;&#45;2067592461776</title>
<path fill="none" stroke="black" d="M1827.77,-775.81C1872.01,-778.88 1964.59,-785.28 2045.3,-790.87"/>
</g>
<!-- 2067592461344 -->
<g id="node40" class="node">
<title>2067592461344</title>
<ellipse fill="none" stroke="black" cx="2192.62" cy="-747" rx="27" ry="18"/>
<text text-anchor="middle" x="2192.62" y="-741" font-family="Times New Roman,serif" font-size="15.00">seq</text>
</g>
<!-- 2067592454912&#45;&#45;2067592461344 -->
<g id="edge42" class="edge">
<title>2067592454912&#45;&#45;2067592461344</title>
<path fill="none" stroke="black" d="M1827.77,-772.19C1898.74,-767.27 2094.14,-753.75 2165.28,-748.82"/>
</g>
<!-- 2067592446704 -->
<g id="node41" class="node">
<title>2067592446704</title>
<ellipse fill="none" stroke="black" cx="2605.14" cy="-828" rx="179.82" ry="18"/>
<text text-anchor="middle" x="2605.14" y="-822" font-family="Times New Roman,serif" font-size="15.00">Premature termination of procedure phase</text>
</g>
<!-- 2067592461344&#45;&#45;2067592446704 -->
<g id="edge32" class="edge">
<title>2067592461344&#45;&#45;2067592446704</title>
<path fill="none" stroke="black" d="M2218.99,-752.01C2278.07,-763.66 2427,-793.05 2521.4,-811.67"/>
</g>
<!-- 2067592456592 -->
<g id="node42" class="node">
<title>2067592456592</title>
<ellipse fill="none" stroke="black" cx="2605.14" cy="-774" rx="27" ry="18"/>
<text text-anchor="middle" x="2605.14" y="-768" font-family="Times New Roman,serif" font-size="15.00">xor</text>
</g>
<!-- 2067592461344&#45;&#45;2067592456592 -->
<g id="edge37" class="edge">
<title>2067592461344&#45;&#45;2067592456592</title>
<path fill="none" stroke="black" d="M2219.92,-748.73C2293.98,-753.6 2503.67,-767.39 2577.79,-772.27"/>
</g>
<!-- 2067592456160 -->
<g id="node47" class="node">
<title>2067592456160</title>
<ellipse fill="none" stroke="black" cx="2605.14" cy="-720" rx="27" ry="18"/>
<text text-anchor="middle" x="2605.14" y="-714" font-family="Times New Roman,serif" font-size="15.00">and</text>
</g>
<!-- 2067592461344&#45;&#45;2067592456160 -->
<g id="edge40" class="edge">
<title>2067592461344&#45;&#45;2067592456160</title>
<path fill="none" stroke="black" d="M2219.92,-745.27C2293.98,-740.4 2503.67,-726.61 2577.79,-721.73"/>
</g>
<!-- 2067592454864 -->
<g id="node50" class="node">
<title>2067592454864</title>
<ellipse fill="none" stroke="black" cx="2605.14" cy="-666" rx="128.63" ry="18"/>
<text text-anchor="middle" x="2605.14" y="-660" font-family="Times New Roman,serif" font-size="15.00">Inspect publication date field</text>
</g>
<!-- 2067592461344&#45;&#45;2067592454864 -->
<g id="edge41" class="edge">
<title>2067592461344&#45;&#45;2067592454864</title>
<path fill="none" stroke="black" d="M2218.99,-741.99C2279.65,-730.03 2434.99,-699.37 2528.82,-680.86"/>
</g>
<!-- 2067592454432 -->
<g id="node43" class="node">
<title>2067592454432</title>
<ellipse fill="none" stroke="black" cx="2990.02" cy="-828" rx="148.59" ry="18"/>
<text text-anchor="middle" x="2990.02" y="-822" font-family="Times New Roman,serif" font-size="15.00">Terminate all running subcases 2b</text>
</g>
<!-- 2067592456592&#45;&#45;2067592454432 -->
<g id="edge33" class="edge">
<title>2067592456592&#45;&#45;2067592454432</title>
<path fill="none" stroke="black" d="M2631.85,-777.63C2684,-784.98 2804.58,-801.99 2891.21,-814.21"/>
</g>
<!-- 2067592454000 -->
<g id="node44" class="node">
<title>2067592454000</title>
<ellipse fill="none" stroke="black" cx="2990.02" cy="-774" rx="27" ry="18"/>
<text text-anchor="middle" x="2990.02" y="-768" font-family="Times New Roman,serif" font-size="15.00">and</text>
</g>
<!-- 2067592456592&#45;&#45;2067592454000 -->
<g id="edge36" class="edge">
<title>2067592456592&#45;&#45;2067592454000</title>
<path fill="none" stroke="black" d="M2632.45,-774C2702.49,-774 2892.82,-774 2962.77,-774"/>
</g>
<!-- 2067592451840 -->
<g id="node45" class="node">
<title>2067592451840</title>
<ellipse fill="none" stroke="black" cx="3357.5" cy="-777" rx="143.99" ry="18"/>
<text text-anchor="middle" x="3357.5" y="-771" font-family="Times New Roman,serif" font-size="15.00">Log termination request senddate</text>
</g>
<!-- 2067592454000&#45;&#45;2067592451840 -->
<g id="edge34" class="edge">
<title>2067592454000&#45;&#45;2067592451840</title>
<path fill="none" stroke="black" d="M3017.3,-774.22C3058.3,-774.55 3140.38,-775.23 3213.52,-775.83"/>
</g>
<!-- 2067592451408 -->
<g id="node46" class="node">
<title>2067592451408</title>
<ellipse fill="none" stroke="black" cx="3357.5" cy="-723" rx="110.72" ry="18"/>
<text text-anchor="middle" x="3357.5" y="-717" font-family="Times New Roman,serif" font-size="15.00">Terminate request notice</text>
</g>
<!-- 2067592454000&#45;&#45;2067592451408 -->
<g id="edge35" class="edge">
<title>2067592454000&#45;&#45;2067592451408</title>
<path fill="none" stroke="black" d="M3016.72,-770.41C3068.96,-763.12 3189.57,-746.29 3272.08,-734.78"/>
</g>
<!-- 2067592452272 -->
<g id="node48" class="node">
<title>2067592452272</title>
<ellipse fill="none" stroke="black" cx="2990.02" cy="-720" rx="97.93" ry="18"/>
<text text-anchor="middle" x="2990.02" y="-714" font-family="Times New Roman,serif" font-size="15.00">Phase case dealt with</text>
</g>
<!-- 2067592456160&#45;&#45;2067592452272 -->
<g id="edge38" class="edge">
<title>2067592456160&#45;&#45;2067592452272</title>
<path fill="none" stroke="black" d="M2632.45,-720C2685,-720 2805.27,-720 2891.6,-720"/>
</g>
<!-- 2067592452704 -->
<g id="node49" class="node">
<title>2067592452704</title>
<ellipse fill="none" stroke="black" cx="2990.02" cy="-666" rx="94.34" ry="18"/>
<text text-anchor="middle" x="2990.02" y="-660" font-family="Times New Roman,serif" font-size="15.00">Case phase archived</text>
</g>
<!-- 2067592456160&#45;&#45;2067592452704 -->
<g id="edge39" class="edge">
<title>2067592456160&#45;&#45;2067592452704</title>
<path fill="none" stroke="black" d="M2631.85,-716.37C2688.53,-708.38 2826.03,-688.99 2912.94,-676.73"/>
</g>
</g>
</svg>
