<?xml version="1.0" encoding="UTF-8" standalone="no"?>
<!DOCTYPE svg PUBLIC "-//W3C//DTD SVG 1.1//EN"
 "http://www.w3.org/Graphics/SVG/1.1/DTD/svg11.dtd">
<!-- Generated by graphviz version 11.0.0 (20240428.1522)
 -->
<!-- Title: pt Pages: 1 -->
<svg width="3531pt" height="738pt"
 viewBox="0.00 0.00 3531.06 738.00" xmlns="http://www.w3.org/2000/svg" xmlns:xlink="http://www.w3.org/1999/xlink">
<g id="graph0" class="graph" transform="scale(1 1) rotate(0) translate(4 734)">
<title>pt</title>
<polygon fill="white" stroke="none" points="-4,4 -4,-734 3527.06,-734 3527.06,4 -4,4"/>
<!-- 2067589038736 -->
<g id="node1" class="node">
<title>2067589038736</title>
<ellipse fill="none" stroke="black" cx="27" cy="-481" rx="27" ry="18"/>
<text text-anchor="middle" x="27" y="-475" font-family="Times New Roman,serif" font-size="15.00">seq</text>
</g>
<!-- 2067590955232 -->
<g id="node2" class="node">
<title>2067590955232</title>
<ellipse fill="none" stroke="black" cx="221.19" cy="-567" rx="131.19" ry="18"/>
<text text-anchor="middle" x="221.19" y="-561" font-family="Times New Roman,serif" font-size="15.00">Enter submission date request</text>
</g>
<!-- 2067589038736&#45;&#45;2067590955232 -->
<g id="edge1" class="edge">
<title>2067589038736&#45;&#45;2067590955232</title>
<path fill="none" stroke="black" d="M50.05,-490.87C81.99,-505.16 141.64,-531.85 181.14,-549.53"/>
</g>
<!-- 2067590962288 -->
<g id="node3" class="node">
<title>2067590962288</title>
<ellipse fill="none" stroke="black" cx="221.19" cy="-513" rx="27" ry="18"/>
<text text-anchor="middle" x="221.19" y="-507" font-family="Times New Roman,serif" font-size="15.00">and</text>
</g>
<!-- 2067589038736&#45;&#45;2067590962288 -->
<g id="edge53" class="edge">
<title>2067589038736&#45;&#45;2067590962288</title>
<path fill="none" stroke="black" d="M53.52,-485.25C90.28,-491.37 157.75,-502.6 194.57,-508.73"/>
</g>
<!-- 2067590968000 -->
<g id="node55" class="node">
<title>2067590968000</title>
<ellipse fill="none" stroke="black" cx="221.19" cy="-454" rx="27" ry="18"/>
<text text-anchor="middle" x="221.19" y="-448" font-family="Times New Roman,serif" font-size="15.00">xor</text>
</g>
<!-- 2067589038736&#45;&#45;2067590968000 -->
<g id="edge60" class="edge">
<title>2067589038736&#45;&#45;2067590968000</title>
<path fill="none" stroke="black" d="M53.92,-477.36C90.7,-472.19 157.65,-462.79 194.38,-457.63"/>
</g>
<!-- 2067590965792 -->
<g id="node62" class="node">
<title>2067590965792</title>
<ellipse fill="none" stroke="black" cx="221.19" cy="-288" rx="27" ry="18"/>
<text text-anchor="middle" x="221.19" y="-282" font-family="Times New Roman,serif" font-size="15.00">xor</text>
</g>
<!-- 2067589038736&#45;&#45;2067590965792 -->
<g id="edge71" class="edge">
<title>2067589038736&#45;&#45;2067590965792</title>
<path fill="none" stroke="black" d="M42.76,-466.18C78.54,-430.25 169.55,-338.85 205.38,-302.87"/>
</g>
<!-- 2067590966656 -->
<g id="node4" class="node">
<title>2067590966656</title>
<ellipse fill="none" stroke="black" cx="588.67" cy="-673" rx="45.21" ry="18"/>
<text text-anchor="middle" x="588.67" y="-667" font-family="Times New Roman,serif" font-size="15.00">xor loop</text>
</g>
<!-- 2067590962288&#45;&#45;2067590966656 -->
<g id="edge4" class="edge">
<title>2067590962288&#45;&#45;2067590966656</title>
<path fill="none" stroke="black" d="M244.51,-522.77C307.27,-550.25 485.46,-628.25 557.2,-659.66"/>
</g>
<!-- 2067590969584 -->
<g id="node7" class="node">
<title>2067590969584</title>
<ellipse fill="none" stroke="black" cx="588.67" cy="-614" rx="114.82" ry="18"/>
<text text-anchor="middle" x="588.67" y="-608" font-family="Times New Roman,serif" font-size="15.00">Step application received</text>
</g>
<!-- 2067590962288&#45;&#45;2067590969584 -->
<g id="edge5" class="edge">
<title>2067590962288&#45;&#45;2067590969584</title>
<path fill="none" stroke="black" d="M246.74,-519.78C304.28,-535.68 449.1,-575.71 530.27,-598.14"/>
</g>
<!-- 2067590960032 -->
<g id="node8" class="node">
<title>2067590960032</title>
<ellipse fill="none" stroke="black" cx="588.67" cy="-560" rx="98.44" ry="18"/>
<text text-anchor="middle" x="588.67" y="-554" font-family="Times New Roman,serif" font-size="15.00">OLO messages active</text>
</g>
<!-- 2067590962288&#45;&#45;2067590960032 -->
<g id="edge6" class="edge">
<title>2067590962288&#45;&#45;2067590960032</title>
<path fill="none" stroke="black" d="M248.18,-516.34C301.35,-523.18 424.44,-539.01 506.87,-549.61"/>
</g>
<!-- 2067590969392 -->
<g id="node9" class="node">
<title>2067590969392</title>
<ellipse fill="none" stroke="black" cx="588.67" cy="-506" rx="27" ry="18"/>
<text text-anchor="middle" x="588.67" y="-500" font-family="Times New Roman,serif" font-size="15.00">seq</text>
</g>
<!-- 2067590962288&#45;&#45;2067590969392 -->
<g id="edge52" class="edge">
<title>2067590962288&#45;&#45;2067590969392</title>
<path fill="none" stroke="black" d="M248.48,-512.5C315.91,-511.21 494.46,-507.79 561.63,-506.5"/>
</g>
<!-- 2067590971168 -->
<g id="node5" class="node">
<title>2067590971168</title>
<ellipse fill="none" stroke="black" cx="1004.78" cy="-712" rx="131.19" ry="18"/>
<text text-anchor="middle" x="1004.78" y="-706" font-family="Times New Roman,serif" font-size="15.00">Transmit confirmation receipt</text>
</g>
<!-- 2067590966656&#45;&#45;2067590971168 -->
<g id="edge2" class="edge">
<title>2067590966656&#45;&#45;2067590971168</title>
<path fill="none" stroke="black" d="M633.21,-677.1C694.88,-682.91 809.7,-693.72 895.25,-701.78"/>
</g>
<!-- 2067590966944 -->
<g id="node6" class="node">
<title>2067590966944</title>
<ellipse fill="black" stroke="black" cx="1004.78" cy="-673" rx="2.7" ry="2.7"/>
</g>
<!-- 2067590966656&#45;&#45;2067590966944 -->
<g id="edge3" class="edge">
<title>2067590966656&#45;&#45;2067590966944</title>
<path fill="none" stroke="black" d="M634.38,-673C736.02,-673 977.54,-673 1001.8,-673"/>
</g>
<!-- 2067590965888 -->
<g id="node10" class="node">
<title>2067590965888</title>
<ellipse fill="none" stroke="black" cx="1004.78" cy="-634" rx="27" ry="18"/>
<text text-anchor="middle" x="1004.78" y="-628" font-family="Times New Roman,serif" font-size="15.00">xor</text>
</g>
<!-- 2067590969392&#45;&#45;2067590965888 -->
<g id="edge13" class="edge">
<title>2067590969392&#45;&#45;2067590965888</title>
<path fill="none" stroke="black" d="M613.73,-513.44C686.92,-536.06 906.38,-603.89 979.66,-626.54"/>
</g>
<!-- 2067590956576 -->
<g id="node17" class="node">
<title>2067590956576</title>
<ellipse fill="none" stroke="black" cx="1004.78" cy="-506" rx="27" ry="18"/>
<text text-anchor="middle" x="1004.78" y="-500" font-family="Times New Roman,serif" font-size="15.00">xor</text>
</g>
<!-- 2067590969392&#45;&#45;2067590956576 -->
<g id="edge51" class="edge">
<title>2067590969392&#45;&#45;2067590956576</title>
<path fill="none" stroke="black" d="M615.89,-506C690.39,-506 902.73,-506 977.41,-506"/>
</g>
<!-- 2067590955760 -->
<g id="node11" class="node">
<title>2067590955760</title>
<ellipse fill="black" stroke="black" cx="1374.82" cy="-675" rx="2.7" ry="2.7"/>
</g>
<!-- 2067590965888&#45;&#45;2067590955760 -->
<g id="edge7" class="edge">
<title>2067590965888&#45;&#45;2067590955760</title>
<path fill="none" stroke="black" d="M1031.66,-636.88C1111.18,-645.74 1348.03,-672.13 1371.88,-674.78"/>
</g>
<!-- 2067590958352 -->
<g id="node12" class="node">
<title>2067590958352</title>
<ellipse fill="none" stroke="black" cx="1374.82" cy="-636" rx="27" ry="18"/>
<text text-anchor="middle" x="1374.82" y="-630" font-family="Times New Roman,serif" font-size="15.00">seq</text>
</g>
<!-- 2067590965888&#45;&#45;2067590958352 -->
<g id="edge12" class="edge">
<title>2067590965888&#45;&#45;2067590958352</title>
<path fill="none" stroke="black" d="M1032.25,-634.14C1100.15,-634.51 1279.95,-635.49 1347.59,-635.86"/>
</g>
<!-- 2067590961808 -->
<g id="node13" class="node">
<title>2067590961808</title>
<ellipse fill="none" stroke="black" cx="1741.27" cy="-695" rx="142.97" ry="18"/>
<text text-anchor="middle" x="1741.27" y="-689" font-family="Times New Roman,serif" font-size="15.00">Applicant plays stakeholder role</text>
</g>
<!-- 2067590958352&#45;&#45;2067590961808 -->
<g id="edge8" class="edge">
<title>2067590958352&#45;&#45;2067590961808</title>
<path fill="none" stroke="black" d="M1401.45,-640.15C1452.57,-648.42 1569.34,-667.33 1651.45,-680.62"/>
</g>
<!-- 2067590959408 -->
<g id="node14" class="node">
<title>2067590959408</title>
<ellipse fill="none" stroke="black" cx="1741.27" cy="-641" rx="27" ry="18"/>
<text text-anchor="middle" x="1741.27" y="-635" font-family="Times New Roman,serif" font-size="15.00">xor</text>
</g>
<!-- 2067590958352&#45;&#45;2067590959408 -->
<g id="edge11" class="edge">
<title>2067590958352&#45;&#45;2067590959408</title>
<path fill="none" stroke="black" d="M1402.03,-636.36C1469.11,-637.28 1646.45,-639.71 1713.81,-640.64"/>
</g>
<!-- 2067590967904 -->
<g id="node15" class="node">
<title>2067590967904</title>
<ellipse fill="black" stroke="black" cx="2101.08" cy="-660" rx="2.7" ry="2.7"/>
</g>
<!-- 2067590959408&#45;&#45;2067590967904 -->
<g id="edge9" class="edge">
<title>2067590959408&#45;&#45;2067590967904</title>
<path fill="none" stroke="black" d="M1768.59,-642.4C1846.7,-646.54 2073.36,-658.58 2097.91,-659.89"/>
</g>
<!-- 2067590967472 -->
<g id="node16" class="node">
<title>2067590967472</title>
<ellipse fill="none" stroke="black" cx="2101.08" cy="-621" rx="73.36" ry="18"/>
<text text-anchor="middle" x="2101.08" y="-615" font-family="Times New Roman,serif" font-size="15.00">Stop on request</text>
</g>
<!-- 2067590959408&#45;&#45;2067590967472 -->
<g id="edge10" class="edge">
<title>2067590959408&#45;&#45;2067590967472</title>
<path fill="none" stroke="black" d="M1768.59,-639.53C1822.89,-636.49 1949,-629.44 2029.08,-624.97"/>
</g>
<!-- 2067590957872 -->
<g id="node18" class="node">
<title>2067590957872</title>
<ellipse fill="none" stroke="black" cx="1374.82" cy="-518" rx="27" ry="18"/>
<text text-anchor="middle" x="1374.82" y="-512" font-family="Times New Roman,serif" font-size="15.00">seq</text>
</g>
<!-- 2067590956576&#45;&#45;2067590957872 -->
<g id="edge17" class="edge">
<title>2067590956576&#45;&#45;2067590957872</title>
<path fill="none" stroke="black" d="M1032.25,-506.86C1100.15,-509.08 1279.95,-514.94 1347.59,-517.14"/>
</g>
<!-- 2067590969344 -->
<g id="node22" class="node">
<title>2067590969344</title>
<ellipse fill="none" stroke="black" cx="1374.82" cy="-425" rx="27" ry="18"/>
<text text-anchor="middle" x="1374.82" y="-419" font-family="Times New Roman,serif" font-size="15.00">seq</text>
</g>
<!-- 2067590956576&#45;&#45;2067590969344 -->
<g id="edge50" class="edge">
<title>2067590956576&#45;&#45;2067590969344</title>
<path fill="none" stroke="black" d="M1030.78,-500.5C1097.93,-485.72 1281.59,-445.3 1348.78,-430.51"/>
</g>
<!-- 2067590956528 -->
<g id="node19" class="node">
<title>2067590956528</title>
<ellipse fill="none" stroke="black" cx="1741.27" cy="-587" rx="176.23" ry="18"/>
<text text-anchor="middle" x="1741.27" y="-581" font-family="Times New Roman,serif" font-size="15.00">Log date termination request documented</text>
</g>
<!-- 2067590957872&#45;&#45;2067590956528 -->
<g id="edge14" class="edge">
<title>2067590957872&#45;&#45;2067590956528</title>
<path fill="none" stroke="black" d="M1401.16,-522.8C1452.89,-532.59 1572.74,-555.28 1655.15,-570.88"/>
</g>
<!-- 2067590961664 -->
<g id="node20" class="node">
<title>2067590961664</title>
<ellipse fill="none" stroke="black" cx="1741.27" cy="-533" rx="143.99" ry="18"/>
<text text-anchor="middle" x="1741.27" y="-527" font-family="Times New Roman,serif" font-size="15.00">Log termination request senddate</text>
</g>
<!-- 2067590957872&#45;&#45;2067590961664 -->
<g id="edge15" class="edge">
<title>2067590957872&#45;&#45;2067590961664</title>
<path fill="none" stroke="black" d="M1402.03,-519.08C1444.06,-520.81 1529.37,-524.32 1603.79,-527.38"/>
</g>
<!-- 2067590956192 -->
<g id="node21" class="node">
<title>2067590956192</title>
<ellipse fill="none" stroke="black" cx="1741.27" cy="-479" rx="110.72" ry="18"/>
<text text-anchor="middle" x="1741.27" y="-473" font-family="Times New Roman,serif" font-size="15.00">Terminate request notice</text>
</g>
<!-- 2067590957872&#45;&#45;2067590956192 -->
<g id="edge16" class="edge">
<title>2067590957872&#45;&#45;2067590956192</title>
<path fill="none" stroke="black" d="M1401.74,-515.23C1452.23,-509.82 1565.99,-497.65 1647.71,-488.91"/>
</g>
<!-- 2067590958400 -->
<g id="node23" class="node">
<title>2067590958400</title>
<ellipse fill="none" stroke="black" cx="1741.27" cy="-425" rx="27" ry="18"/>
<text text-anchor="middle" x="1741.27" y="-419" font-family="Times New Roman,serif" font-size="15.00">xor</text>
</g>
<!-- 2067590969344&#45;&#45;2067590958400 -->
<g id="edge20" class="edge">
<title>2067590969344&#45;&#45;2067590958400</title>
<path fill="none" stroke="black" d="M1402.03,-425C1469.11,-425 1646.45,-425 1713.81,-425"/>
</g>
<!-- 2067590963344 -->
<g id="node26" class="node">
<title>2067590963344</title>
<ellipse fill="none" stroke="black" cx="1741.27" cy="-371" rx="27" ry="18"/>
<text text-anchor="middle" x="1741.27" y="-365" font-family="Times New Roman,serif" font-size="15.00">and</text>
</g>
<!-- 2067590969344&#45;&#45;2067590963344 -->
<g id="edge33" class="edge">
<title>2067590969344&#45;&#45;2067590963344</title>
<path fill="none" stroke="black" d="M1401.45,-421.2C1468.36,-411.29 1647.79,-384.7 1714.68,-374.79"/>
</g>
<!-- 2067590964880 -->
<g id="node39" class="node">
<title>2067590964880</title>
<ellipse fill="none" stroke="black" cx="1741.27" cy="-298" rx="27" ry="18"/>
<text text-anchor="middle" x="1741.27" y="-292" font-family="Times New Roman,serif" font-size="15.00">xor</text>
</g>
<!-- 2067590969344&#45;&#45;2067590964880 -->
<g id="edge44" class="edge">
<title>2067590969344&#45;&#45;2067590964880</title>
<path fill="none" stroke="black" d="M1399.17,-416.86C1465,-393.92 1651.53,-328.93 1717.12,-306.07"/>
</g>
<!-- 2067590963632 -->
<g id="node50" class="node">
<title>2067590963632</title>
<ellipse fill="none" stroke="black" cx="1741.27" cy="-178" rx="27" ry="18"/>
<text text-anchor="middle" x="1741.27" y="-172" font-family="Times New Roman,serif" font-size="15.00">and</text>
</g>
<!-- 2067590969344&#45;&#45;2067590963632 -->
<g id="edge49" class="edge">
<title>2067590969344&#45;&#45;2067590963632</title>
<path fill="none" stroke="black" d="M1394.64,-412.24C1457.47,-369.66 1659.44,-232.78 1721.78,-190.54"/>
</g>
<!-- 2067590955616 -->
<g id="node24" class="node">
<title>2067590955616</title>
<ellipse fill="black" stroke="black" cx="2101.08" cy="-484" rx="2.7" ry="2.7"/>
</g>
<!-- 2067590958400&#45;&#45;2067590955616 -->
<g id="edge18" class="edge">
<title>2067590958400&#45;&#45;2067590955616</title>
<path fill="none" stroke="black" d="M1768.01,-429.24C1845.56,-442.03 2073.23,-479.57 2097.9,-483.64"/>
</g>
<!-- 2067590957008 -->
<g id="node25" class="node">
<title>2067590957008</title>
<ellipse fill="none" stroke="black" cx="2101.08" cy="-445" rx="128.63" ry="18"/>
<text text-anchor="middle" x="2101.08" y="-439" font-family="Times New Roman,serif" font-size="15.00">Evaluate provisional charges</text>
</g>
<!-- 2067590958400&#45;&#45;2067590957008 -->
<g id="edge19" class="edge">
<title>2067590958400&#45;&#45;2067590957008</title>
<path fill="none" stroke="black" d="M1768.59,-426.47C1812.89,-428.95 1904.97,-434.09 1980.86,-438.34"/>
</g>
<!-- 2067590960224 -->
<g id="node27" class="node">
<title>2067590960224</title>
<ellipse fill="none" stroke="black" cx="2101.08" cy="-391" rx="147.57" ry="18"/>
<text text-anchor="middle" x="2101.08" y="-385" font-family="Times New Roman,serif" font-size="15.00">Ordinary procedure without MER</text>
</g>
<!-- 2067590963344&#45;&#45;2067590960224 -->
<g id="edge21" class="edge">
<title>2067590963344&#45;&#45;2067590960224</title>
<path fill="none" stroke="black" d="M1768.59,-372.47C1810.06,-374.79 1893.42,-379.45 1966.17,-383.51"/>
</g>
<!-- 2067590955568 -->
<g id="node28" class="node">
<title>2067590955568</title>
<ellipse fill="none" stroke="black" cx="2101.08" cy="-337" rx="27" ry="18"/>
<text text-anchor="middle" x="2101.08" y="-331" font-family="Times New Roman,serif" font-size="15.00">seq</text>
</g>
<!-- 2067590963344&#45;&#45;2067590955568 -->
<g id="edge32" class="edge">
<title>2067590963344&#45;&#45;2067590955568</title>
<path fill="none" stroke="black" d="M1768.3,-368.53C1834.39,-362.25 2008.17,-345.73 2074.16,-339.46"/>
</g>
<!-- 2067590960848 -->
<g id="node29" class="node">
<title>2067590960848</title>
<ellipse fill="none" stroke="black" cx="2426.08" cy="-433" rx="27" ry="18"/>
<text text-anchor="middle" x="2426.08" y="-427" font-family="Times New Roman,serif" font-size="15.00">xor</text>
</g>
<!-- 2067590955568&#45;&#45;2067590960848 -->
<g id="edge27" class="edge">
<title>2067590955568&#45;&#45;2067590960848</title>
<path fill="none" stroke="black" d="M2126.36,-344.22C2186.36,-362.05 2341.12,-408.05 2400.96,-425.83"/>
</g>
<!-- 2067590956096 -->
<g id="node35" class="node">
<title>2067590956096</title>
<ellipse fill="none" stroke="black" cx="2426.08" cy="-379" rx="139.38" ry="18"/>
<text text-anchor="middle" x="2426.08" y="-373" font-family="Times New Roman,serif" font-size="15.00">Refer to the competent authority</text>
</g>
<!-- 2067590955568&#45;&#45;2067590956096 -->
<g id="edge28" class="edge">
<title>2067590955568&#45;&#45;2067590956096</title>
<path fill="none" stroke="black" d="M2127.97,-340.37C2170.48,-345.89 2257.25,-357.18 2326.09,-366.13"/>
</g>
<!-- 2067590968384 -->
<g id="node36" class="node">
<title>2067590968384</title>
<ellipse fill="none" stroke="black" cx="2426.08" cy="-325" rx="27" ry="18"/>
<text text-anchor="middle" x="2426.08" y="-319" font-family="Times New Roman,serif" font-size="15.00">xor</text>
</g>
<!-- 2067590955568&#45;&#45;2067590968384 -->
<g id="edge31" class="edge">
<title>2067590955568&#45;&#45;2067590968384</title>
<path fill="none" stroke="black" d="M2128.51,-336.02C2189.23,-333.76 2338.1,-328.23 2398.74,-325.98"/>
</g>
<!-- 2067590963104 -->
<g id="node30" class="node">
<title>2067590963104</title>
<ellipse fill="black" stroke="black" cx="2722.93" cy="-452" rx="2.7" ry="2.7"/>
</g>
<!-- 2067590960848&#45;&#45;2067590963104 -->
<g id="edge22" class="edge">
<title>2067590960848&#45;&#45;2067590963104</title>
<path fill="none" stroke="black" d="M2453.25,-434.69C2521.46,-439.08 2700.81,-450.64 2720.22,-451.89"/>
</g>
<!-- 2067590964832 -->
<g id="node31" class="node">
<title>2067590964832</title>
<ellipse fill="none" stroke="black" cx="2722.93" cy="-413" rx="27" ry="18"/>
<text text-anchor="middle" x="2722.93" y="-407" font-family="Times New Roman,serif" font-size="15.00">seq</text>
</g>
<!-- 2067590960848&#45;&#45;2067590964832 -->
<g id="edge26" class="edge">
<title>2067590960848&#45;&#45;2067590964832</title>
<path fill="none" stroke="black" d="M2453.25,-431.23C2509.2,-427.43 2639.92,-418.56 2695.82,-414.77"/>
</g>
<!-- 2067590957632 -->
<g id="node32" class="node">
<title>2067590957632</title>
<ellipse fill="none" stroke="black" cx="3061.24" cy="-467" rx="182.89" ry="18"/>
<text text-anchor="middle" x="3061.24" y="-461" font-family="Times New Roman,serif" font-size="15.00">Mandatory Environmental Report required</text>
</g>
<!-- 2067590964832&#45;&#45;2067590957632 -->
<g id="edge23" class="edge">
<title>2067590964832&#45;&#45;2067590957632</title>
<path fill="none" stroke="black" d="M2749.49,-417.1C2794.4,-424.31 2889.67,-439.61 2962.96,-451.38"/>
</g>
<!-- 2067590960512 -->
<g id="node33" class="node">
<title>2067590960512</title>
<ellipse fill="none" stroke="black" cx="3061.24" cy="-413" rx="129.15" ry="18"/>
<text text-anchor="middle" x="3061.24" y="-407" font-family="Times New Roman,serif" font-size="15.00">Regular procedural activities</text>
</g>
<!-- 2067590964832&#45;&#45;2067590960512 -->
<g id="edge24" class="edge">
<title>2067590964832&#45;&#45;2067590960512</title>
<path fill="none" stroke="black" d="M2750.32,-413C2789.34,-413 2865.03,-413 2931.84,-413"/>
</g>
<!-- 2067590962384 -->
<g id="node34" class="node">
<title>2067590962384</title>
<ellipse fill="none" stroke="black" cx="3061.24" cy="-359" rx="87.69" ry="18"/>
<text text-anchor="middle" x="3061.24" y="-353" font-family="Times New Roman,serif" font-size="15.00">Phased application</text>
</g>
<!-- 2067590964832&#45;&#45;2067590962384 -->
<g id="edge25" class="edge">
<title>2067590964832&#45;&#45;2067590962384</title>
<path fill="none" stroke="black" d="M2749.49,-408.9C2800.38,-400.73 2915.93,-382.17 2990.89,-370.14"/>
</g>
<!-- 2067590969152 -->
<g id="node37" class="node">
<title>2067590969152</title>
<ellipse fill="black" stroke="black" cx="2722.93" cy="-340" rx="2.7" ry="2.7"/>
</g>
<!-- 2067590968384&#45;&#45;2067590969152 -->
<g id="edge29" class="edge">
<title>2067590968384&#45;&#45;2067590969152</title>
<path fill="none" stroke="black" d="M2453.51,-326.34C2521.92,-329.82 2700.86,-338.93 2720.22,-339.91"/>
</g>
<!-- 2067590957056 -->
<g id="node38" class="node">
<title>2067590957056</title>
<ellipse fill="none" stroke="black" cx="2722.93" cy="-301" rx="119.42" ry="18"/>
<text text-anchor="middle" x="2722.93" y="-295" font-family="Times New Roman,serif" font-size="15.00">Update BAG administrator</text>
</g>
<!-- 2067590968384&#45;&#45;2067590957056 -->
<g id="edge30" class="edge">
<title>2067590968384&#45;&#45;2067590957056</title>
<path fill="none" stroke="black" d="M2453.25,-322.87C2489.75,-319.9 2558.08,-314.34 2616.69,-309.57"/>
</g>
<!-- 2067590959264 -->
<g id="node40" class="node">
<title>2067590959264</title>
<ellipse fill="black" stroke="black" cx="2101.08" cy="-298" rx="2.7" ry="2.7"/>
</g>
<!-- 2067590964880&#45;&#45;2067590959264 -->
<g id="edge34" class="edge">
<title>2067590964880&#45;&#45;2067590959264</title>
<path fill="none" stroke="black" d="M1768.59,-298C1846.7,-298 2073.36,-298 2097.91,-298"/>
</g>
<!-- 2067590966224 -->
<g id="node41" class="node">
<title>2067590966224</title>
<ellipse fill="none" stroke="black" cx="2101.08" cy="-259" rx="27" ry="18"/>
<text text-anchor="middle" x="2101.08" y="-253" font-family="Times New Roman,serif" font-size="15.00">seq</text>
</g>
<!-- 2067590964880&#45;&#45;2067590966224 -->
<g id="edge43" class="edge">
<title>2067590964880&#45;&#45;2067590966224</title>
<path fill="none" stroke="black" d="M1768.3,-295.16C1834.39,-287.96 2008.17,-269.02 2074.16,-261.83"/>
</g>
<!-- 2067590955136 -->
<g id="node42" class="node">
<title>2067590955136</title>
<ellipse fill="none" stroke="black" cx="2426.08" cy="-271" rx="141.43" ry="18"/>
<text text-anchor="middle" x="2426.08" y="-265" font-family="Times New Roman,serif" font-size="15.00">Produce procedure confirmation</text>
</g>
<!-- 2067590966224&#45;&#45;2067590955136 -->
<g id="edge35" class="edge">
<title>2067590966224&#45;&#45;2067590955136</title>
<path fill="none" stroke="black" d="M2128.51,-259.98C2163.92,-261.3 2229.3,-263.73 2289.68,-265.97"/>
</g>
<!-- 2067590958592 -->
<g id="node43" class="node">
<title>2067590958592</title>
<ellipse fill="none" stroke="black" cx="2426.08" cy="-217" rx="27" ry="18"/>
<text text-anchor="middle" x="2426.08" y="-211" font-family="Times New Roman,serif" font-size="15.00">xor</text>
</g>
<!-- 2067590966224&#45;&#45;2067590958592 -->
<g id="edge42" class="edge">
<title>2067590966224&#45;&#45;2067590958592</title>
<path fill="none" stroke="black" d="M2127.97,-255.63C2188.44,-247.77 2338.47,-228.26 2399.07,-220.38"/>
</g>
<!-- 2067590968288 -->
<g id="node44" class="node">
<title>2067590968288</title>
<ellipse fill="black" stroke="black" cx="2722.93" cy="-236" rx="2.7" ry="2.7"/>
</g>
<!-- 2067590958592&#45;&#45;2067590968288 -->
<g id="edge36" class="edge">
<title>2067590958592&#45;&#45;2067590968288</title>
<path fill="none" stroke="black" d="M2453.25,-218.69C2521.46,-223.08 2700.81,-234.64 2720.22,-235.89"/>
</g>
<!-- 2067590960080 -->
<g id="node45" class="node">
<title>2067590960080</title>
<ellipse fill="none" stroke="black" cx="2722.93" cy="-197" rx="27" ry="18"/>
<text text-anchor="middle" x="2722.93" y="-191" font-family="Times New Roman,serif" font-size="15.00">seq</text>
</g>
<!-- 2067590958592&#45;&#45;2067590960080 -->
<g id="edge41" class="edge">
<title>2067590958592&#45;&#45;2067590960080</title>
<path fill="none" stroke="black" d="M2453.25,-215.23C2509.2,-211.43 2639.92,-202.56 2695.82,-198.77"/>
</g>
<!-- 2067590971264 -->
<g id="node46" class="node">
<title>2067590971264</title>
<ellipse fill="none" stroke="black" cx="3061.24" cy="-224" rx="51.86" ry="18"/>
<text text-anchor="middle" x="3061.24" y="-218" font-family="Times New Roman,serif" font-size="15.00">Broadcast</text>
</g>
<!-- 2067590960080&#45;&#45;2067590971264 -->
<g id="edge37" class="edge">
<title>2067590960080&#45;&#45;2067590971264</title>
<path fill="none" stroke="black" d="M2750.04,-199.1C2805.91,-203.58 2937.84,-214.17 3010.35,-219.99"/>
</g>
<!-- 2067590967808 -->
<g id="node47" class="node">
<title>2067590967808</title>
<ellipse fill="none" stroke="black" cx="3061.24" cy="-170" rx="27" ry="18"/>
<text text-anchor="middle" x="3061.24" y="-164" font-family="Times New Roman,serif" font-size="15.00">xor</text>
</g>
<!-- 2067590960080&#45;&#45;2067590967808 -->
<g id="edge40" class="edge">
<title>2067590960080&#45;&#45;2067590967808</title>
<path fill="none" stroke="black" d="M2750.04,-194.9C2812.85,-189.86 2971.82,-177.1 3034.38,-172.08"/>
</g>
<!-- 2067590963536 -->
<g id="node48" class="node">
<title>2067590963536</title>
<ellipse fill="black" stroke="black" cx="3401.59" cy="-190" rx="2.7" ry="2.7"/>
</g>
<!-- 2067590967808&#45;&#45;2067590963536 -->
<g id="edge38" class="edge">
<title>2067590967808&#45;&#45;2067590963536</title>
<path fill="none" stroke="black" d="M3088.51,-171.55C3163.66,-175.99 3375.61,-188.52 3398.57,-189.88"/>
</g>
<!-- 2067590958832 -->
<g id="node49" class="node">
<title>2067590958832</title>
<ellipse fill="none" stroke="black" cx="3401.59" cy="-151" rx="121.47" ry="18"/>
<text text-anchor="middle" x="3401.59" y="-145" font-family="Times New Roman,serif" font-size="15.00">Form publication document</text>
</g>
<!-- 2067590967808&#45;&#45;2067590958832 -->
<g id="edge39" class="edge">
<title>2067590967808&#45;&#45;2067590958832</title>
<path fill="none" stroke="black" d="M3088.51,-168.52C3130.82,-166.15 3216.5,-161.34 3287.39,-157.36"/>
</g>
<!-- 2067590963200 -->
<g id="node51" class="node">
<title>2067590963200</title>
<ellipse fill="none" stroke="black" cx="2101.08" cy="-178" rx="27" ry="18"/>
<text text-anchor="middle" x="2101.08" y="-172" font-family="Times New Roman,serif" font-size="15.00">xor</text>
</g>
<!-- 2067590963632&#45;&#45;2067590963200 -->
<g id="edge47" class="edge">
<title>2067590963632&#45;&#45;2067590963200</title>
<path fill="none" stroke="black" d="M1768.59,-178C1834.75,-178 2007.52,-178 2073.73,-178"/>
</g>
<!-- 2067590956672 -->
<g id="node54" class="node">
<title>2067590956672</title>
<ellipse fill="none" stroke="black" cx="2101.08" cy="-124" rx="129.15" ry="18"/>
<text text-anchor="middle" x="2101.08" y="-118" font-family="Times New Roman,serif" font-size="15.00">Commence WABOprocedure</text>
</g>
<!-- 2067590963632&#45;&#45;2067590956672 -->
<g id="edge48" class="edge">
<title>2067590963632&#45;&#45;2067590956672</title>
<path fill="none" stroke="black" d="M1768.01,-174.12C1818.24,-166.54 1931.46,-149.45 2011.69,-137.34"/>
</g>
<!-- 2067590969200 -->
<g id="node52" class="node">
<title>2067590969200</title>
<ellipse fill="black" stroke="black" cx="2426.08" cy="-178" rx="2.7" ry="2.7"/>
</g>
<!-- 2067590963200&#45;&#45;2067590969200 -->
<g id="edge45" class="edge">
<title>2067590963200&#45;&#45;2067590969200</title>
<path fill="none" stroke="black" d="M2128.51,-178C2201.13,-178 2399.85,-178 2422.89,-178"/>
</g>
<!-- 2067590957392 -->
<g id="node53" class="node">
<title>2067590957392</title>
<ellipse fill="none" stroke="black" cx="2426.08" cy="-139" rx="112.26" ry="18"/>
<text text-anchor="middle" x="2426.08" y="-133" font-family="Times New Roman,serif" font-size="15.00">Register publication date</text>
</g>
<!-- 2067590963200&#45;&#45;2067590957392 -->
<g id="edge46" class="edge">
<title>2067590963200&#45;&#45;2067590957392</title>
<path fill="none" stroke="black" d="M2127.97,-174.87C2172.35,-169.52 2264.97,-158.33 2335.07,-149.87"/>
</g>
<!-- 2067590961376 -->
<g id="node56" class="node">
<title>2067590961376</title>
<ellipse fill="black" stroke="black" cx="588.67" cy="-454" rx="2.7" ry="2.7"/>
</g>
<!-- 2067590968000&#45;&#45;2067590961376 -->
<g id="edge54" class="edge">
<title>2067590968000&#45;&#45;2067590961376</title>
<path fill="none" stroke="black" d="M248.48,-454C328.02,-454 562.18,-454 585.75,-454"/>
</g>
<!-- 2067590956288 -->
<g id="node57" class="node">
<title>2067590956288</title>
<ellipse fill="none" stroke="black" cx="588.67" cy="-396" rx="27" ry="18"/>
<text text-anchor="middle" x="588.67" y="-390" font-family="Times New Roman,serif" font-size="15.00">seq</text>
</g>
<!-- 2067590968000&#45;&#45;2067590956288 -->
<g id="edge59" class="edge">
<title>2067590968000&#45;&#45;2067590956288</title>
<path fill="none" stroke="black" d="M247.89,-449.92C315,-439.27 494.93,-410.72 562,-400.07"/>
</g>
<!-- 2067590955328 -->
<g id="node58" class="node">
<title>2067590955328</title>
<ellipse fill="none" stroke="black" cx="1004.78" cy="-396" rx="27" ry="18"/>
<text text-anchor="middle" x="1004.78" y="-390" font-family="Times New Roman,serif" font-size="15.00">xor</text>
</g>
<!-- 2067590956288&#45;&#45;2067590955328 -->
<g id="edge57" class="edge">
<title>2067590956288&#45;&#45;2067590955328</title>
<path fill="none" stroke="black" d="M615.89,-396C690.39,-396 902.73,-396 977.41,-396"/>
</g>
<!-- 2067590957680 -->
<g id="node61" class="node">
<title>2067590957680</title>
<ellipse fill="none" stroke="black" cx="1004.78" cy="-342" rx="157.3" ry="18"/>
<text text-anchor="middle" x="1004.78" y="-336" font-family="Times New Roman,serif" font-size="15.00">Register senddate acknowledgement</text>
</g>
<!-- 2067590956288&#45;&#45;2067590957680 -->
<g id="edge58" class="edge">
<title>2067590956288&#45;&#45;2067590957680</title>
<path fill="none" stroke="black" d="M615.58,-392.62C671.09,-385.38 804.16,-368.03 899,-355.66"/>
</g>
<!-- 2067590959840 -->
<g id="node59" class="node">
<title>2067590959840</title>
<ellipse fill="black" stroke="black" cx="1374.82" cy="-386" rx="2.7" ry="2.7"/>
</g>
<!-- 2067590955328&#45;&#45;2067590959840 -->
<g id="edge55" class="edge">
<title>2067590955328&#45;&#45;2067590959840</title>
<path fill="none" stroke="black" d="M1032.25,-395.28C1112.35,-393.1 1348.14,-386.7 1371.88,-386.05"/>
</g>
<!-- 2067590967088 -->
<g id="node60" class="node">
<title>2067590967088</title>
<ellipse fill="none" stroke="black" cx="1374.82" cy="-347" rx="154.22" ry="18"/>
<text text-anchor="middle" x="1374.82" y="-341" font-family="Times New Roman,serif" font-size="15.00">Inspect field for phased application</text>
</g>
<!-- 2067590955328&#45;&#45;2067590967088 -->
<g id="edge56" class="edge">
<title>2067590955328&#45;&#45;2067590967088</title>
<path fill="none" stroke="black" d="M1031.66,-392.55C1080.66,-386.03 1189.41,-371.55 1271.25,-360.66"/>
</g>
<!-- 2067590965696 -->
<g id="node63" class="node">
<title>2067590965696</title>
<ellipse fill="black" stroke="black" cx="588.67" cy="-327" rx="2.7" ry="2.7"/>
</g>
<!-- 2067590965792&#45;&#45;2067590965696 -->
<g id="edge61" class="edge">
<title>2067590965792&#45;&#45;2067590965696</title>
<path fill="none" stroke="black" d="M248.18,-290.77C327.44,-299.23 562.12,-324.27 585.75,-326.79"/>
</g>
<!-- 2067590962672 -->
<g id="node64" class="node">
<title>2067590962672</title>
<ellipse fill="none" stroke="black" cx="588.67" cy="-288" rx="200.29" ry="18"/>
<text text-anchor="middle" x="588.67" y="-282" font-family="Times New Roman,serif" font-size="15.00">Permit not needed or only notification required</text>
</g>
<!-- 2067590965792&#45;&#45;2067590962672 -->
<g id="edge62" class="edge">
<title>2067590965792&#45;&#45;2067590962672</title>
<path fill="none" stroke="black" d="M248.48,-288C279.09,-288 332.58,-288 388.17,-288"/>
</g>
<!-- 2067590957920 -->
<g id="node65" class="node">
<title>2067590957920</title>
<ellipse fill="none" stroke="black" cx="588.67" cy="-234" rx="27" ry="18"/>
<text text-anchor="middle" x="588.67" y="-228" font-family="Times New Roman,serif" font-size="15.00">seq</text>
</g>
<!-- 2067590965792&#45;&#45;2067590957920 -->
<g id="edge66" class="edge">
<title>2067590965792&#45;&#45;2067590957920</title>
<path fill="none" stroke="black" d="M247.89,-284.2C315,-274.29 494.93,-247.7 562,-237.79"/>
</g>
<!-- 2067590971024 -->
<g id="node69" class="node">
<title>2067590971024</title>
<ellipse fill="none" stroke="black" cx="588.67" cy="-99" rx="27" ry="18"/>
<text text-anchor="middle" x="588.67" y="-93" font-family="Times New Roman,serif" font-size="15.00">seq</text>
</g>
<!-- 2067590965792&#45;&#45;2067590971024 -->
<g id="edge70" class="edge">
<title>2067590965792&#45;&#45;2067590971024</title>
<path fill="none" stroke="black" d="M243.16,-277.16C307.62,-243.82 502.45,-143.07 566.8,-109.8"/>
</g>
<!-- 2067590970688 -->
<g id="node66" class="node">
<title>2067590970688</title>
<ellipse fill="none" stroke="black" cx="1004.78" cy="-288" rx="131.71" ry="18"/>
<text text-anchor="middle" x="1004.78" y="-282" font-family="Times New Roman,serif" font-size="15.00">Action by competent authority</text>
</g>
<!-- 2067590957920&#45;&#45;2067590970688 -->
<g id="edge63" class="edge">
<title>2067590957920&#45;&#45;2067590970688</title>
<path fill="none" stroke="black" d="M615.58,-237.38C672.86,-244.85 812.73,-263.09 907.96,-275.51"/>
</g>
<!-- 2067590962480 -->
<g id="node67" class="node">
<title>2067590962480</title>
<ellipse fill="none" stroke="black" cx="1004.78" cy="-234" rx="153.71" ry="18"/>
<text text-anchor="middle" x="1004.78" y="-228" font-family="Times New Roman,serif" font-size="15.00">Create termination request message</text>
</g>
<!-- 2067590957920&#45;&#45;2067590962480 -->
<g id="edge64" class="edge">
<title>2067590957920&#45;&#45;2067590962480</title>
<path fill="none" stroke="black" d="M615.89,-234C662.65,-234 763.72,-234 850.97,-234"/>
</g>
<!-- 2067590970880 -->
<g id="node68" class="node">
<title>2067590970880</title>
<ellipse fill="none" stroke="black" cx="1004.78" cy="-180" rx="179.82" ry="18"/>
<text text-anchor="middle" x="1004.78" y="-174" font-family="Times New Roman,serif" font-size="15.00">Premature termination of procedure phase</text>
</g>
<!-- 2067590957920&#45;&#45;2067590970880 -->
<g id="edge65" class="edge">
<title>2067590957920&#45;&#45;2067590970880</title>
<path fill="none" stroke="black" d="M615.58,-230.62C669.94,-223.53 798.68,-206.75 893.06,-194.44"/>
</g>
<!-- 2067590956240 -->
<g id="node70" class="node">
<title>2067590956240</title>
<ellipse fill="none" stroke="black" cx="1004.78" cy="-126" rx="119.42" ry="18"/>
<text text-anchor="middle" x="1004.78" y="-120" font-family="Times New Roman,serif" font-size="15.00">Phase procedure cancelled</text>
</g>
<!-- 2067590971024&#45;&#45;2067590956240 -->
<g id="edge67" class="edge">
<title>2067590971024&#45;&#45;2067590956240</title>
<path fill="none" stroke="black" d="M615.89,-100.71C670.65,-104.28 799.9,-112.71 894.19,-118.86"/>
</g>
<!-- 2067590959024 -->
<g id="node71" class="node">
<title>2067590959024</title>
<ellipse fill="none" stroke="black" cx="1004.78" cy="-72" rx="96.39" ry="18"/>
<text text-anchor="middle" x="1004.78" y="-66" font-family="Times New Roman,serif" font-size="15.00">Register the deadline</text>
</g>
<!-- 2067590971024&#45;&#45;2067590959024 -->
<g id="edge68" class="edge">
<title>2067590971024&#45;&#45;2067590959024</title>
<path fill="none" stroke="black" d="M615.89,-97.29C674.47,-93.47 818.3,-84.09 913.39,-77.89"/>
</g>
<!-- 2067590957200 -->
<g id="node72" class="node">
<title>2067590957200</title>
<ellipse fill="none" stroke="black" cx="1004.78" cy="-18" rx="84.11" ry="18"/>
<text text-anchor="middle" x="1004.78" y="-12" font-family="Times New Roman,serif" font-size="15.00">Conclude the case</text>
</g>
<!-- 2067590971024&#45;&#45;2067590957200 -->
<g id="edge69" class="edge">
<title>2067590971024&#45;&#45;2067590957200</title>
<path fill="none" stroke="black" d="M614.96,-94.06C678.96,-81.54 848.9,-48.3 941.5,-30.18"/>
</g>
</g>
</svg>
