<?xml version="1.0" encoding="UTF-8" standalone="no"?>
<!DOCTYPE svg PUBLIC "-//W3C//DTD SVG 1.1//EN"
 "http://www.w3.org/Graphics/SVG/1.1/DTD/svg11.dtd">
<!-- Generated by graphviz version 11.0.0 (20240428.1522)
 -->
<!-- Title: pt Pages: 1 -->
<svg width="3084pt" height="514pt"
 viewBox="0.00 0.00 3084.25 514.00" xmlns="http://www.w3.org/2000/svg" xmlns:xlink="http://www.w3.org/1999/xlink">
<g id="graph0" class="graph" transform="scale(1 1) rotate(0) translate(4 510)">
<title>pt</title>
<polygon fill="white" stroke="none" points="-4,4 -4,-510 3080.25,-510 3080.25,4 -4,4"/>
<!-- 2067587937872 -->
<g id="node1" class="node">
<title>2067587937872</title>
<ellipse fill="none" stroke="black" cx="27" cy="-349" rx="27" ry="18"/>
<text text-anchor="middle" x="27" y="-343" font-family="Times New Roman,serif" font-size="15.00">seq</text>
</g>
<!-- 2067587933120 -->
<g id="node2" class="node">
<title>2067587933120</title>
<ellipse fill="none" stroke="black" cx="221.19" cy="-403" rx="131.19" ry="18"/>
<text text-anchor="middle" x="221.19" y="-397" font-family="Times New Roman,serif" font-size="15.00">Enter submission date request</text>
</g>
<!-- 2067587937872&#45;&#45;2067587933120 -->
<g id="edge1" class="edge">
<title>2067587937872&#45;&#45;2067587933120</title>
<path fill="none" stroke="black" d="M52.34,-355.84C79.71,-363.53 125.14,-376.29 161.83,-386.6"/>
</g>
<!-- 2067587932256 -->
<g id="node3" class="node">
<title>2067587932256</title>
<ellipse fill="none" stroke="black" cx="221.19" cy="-349" rx="27" ry="18"/>
<text text-anchor="middle" x="221.19" y="-343" font-family="Times New Roman,serif" font-size="15.00">and</text>
</g>
<!-- 2067587937872&#45;&#45;2067587932256 -->
<g id="edge38" class="edge">
<title>2067587937872&#45;&#45;2067587932256</title>
<path fill="none" stroke="black" d="M54.32,-349C91.02,-349 157.19,-349 193.88,-349"/>
</g>
<!-- 2067588636384 -->
<g id="node40" class="node">
<title>2067588636384</title>
<ellipse fill="none" stroke="black" cx="221.19" cy="-283" rx="27" ry="18"/>
<text text-anchor="middle" x="221.19" y="-277" font-family="Times New Roman,serif" font-size="15.00">xor</text>
</g>
<!-- 2067587937872&#45;&#45;2067588636384 -->
<g id="edge48" class="edge">
<title>2067587937872&#45;&#45;2067588636384</title>
<path fill="none" stroke="black" d="M51.57,-340.91C88.55,-328.21 159.81,-303.73 196.73,-291.06"/>
</g>
<!-- 2067587930096 -->
<g id="node4" class="node">
<title>2067587930096</title>
<ellipse fill="none" stroke="black" cx="503.2" cy="-450" rx="45.21" ry="18"/>
<text text-anchor="middle" x="503.2" y="-444" font-family="Times New Roman,serif" font-size="15.00">xor loop</text>
</g>
<!-- 2067587932256&#45;&#45;2067587930096 -->
<g id="edge4" class="edge">
<title>2067587932256&#45;&#45;2067587930096</title>
<path fill="none" stroke="black" d="M245.59,-357.44C295.27,-375.36 411.46,-417.27 468.88,-437.98"/>
</g>
<!-- 2067587929232 -->
<g id="node7" class="node">
<title>2067587929232</title>
<ellipse fill="none" stroke="black" cx="503.2" cy="-396" rx="114.82" ry="18"/>
<text text-anchor="middle" x="503.2" y="-390" font-family="Times New Roman,serif" font-size="15.00">Step application received</text>
</g>
<!-- 2067587932256&#45;&#45;2067587929232 -->
<g id="edge5" class="edge">
<title>2067587932256&#45;&#45;2067587929232</title>
<path fill="none" stroke="black" d="M247.54,-353.25C286.78,-359.84 363.89,-372.78 423.02,-382.71"/>
</g>
<!-- 2067587926736 -->
<g id="node8" class="node">
<title>2067587926736</title>
<ellipse fill="none" stroke="black" cx="503.2" cy="-342" rx="27" ry="18"/>
<text text-anchor="middle" x="503.2" y="-336" font-family="Times New Roman,serif" font-size="15.00">seq</text>
</g>
<!-- 2067587932256&#45;&#45;2067587926736 -->
<g id="edge37" class="edge">
<title>2067587932256&#45;&#45;2067587926736</title>
<path fill="none" stroke="black" d="M248.54,-348.34C301.9,-347.01 422.25,-344 475.73,-342.66"/>
</g>
<!-- 2067587927984 -->
<g id="node5" class="node">
<title>2067587927984</title>
<ellipse fill="none" stroke="black" cx="902.42" cy="-485" rx="131.19" ry="18"/>
<text text-anchor="middle" x="902.42" y="-479" font-family="Times New Roman,serif" font-size="15.00">Transmit confirmation receipt</text>
</g>
<!-- 2067587930096&#45;&#45;2067587927984 -->
<g id="edge2" class="edge">
<title>2067587930096&#45;&#45;2067587927984</title>
<path fill="none" stroke="black" d="M547.85,-453.85C605.89,-458.96 710.51,-468.18 790.93,-475.27"/>
</g>
<!-- 2067587927168 -->
<g id="node6" class="node">
<title>2067587927168</title>
<ellipse fill="black" stroke="black" cx="902.42" cy="-446" rx="2.7" ry="2.7"/>
</g>
<!-- 2067587930096&#45;&#45;2067587927168 -->
<g id="edge3" class="edge">
<title>2067587930096&#45;&#45;2067587927168</title>
<path fill="none" stroke="black" d="M548.61,-449.55C646.59,-448.57 874.6,-446.27 899.24,-446.02"/>
</g>
<!-- 2067587924576 -->
<g id="node9" class="node">
<title>2067587924576</title>
<ellipse fill="none" stroke="black" cx="902.42" cy="-403" rx="27" ry="18"/>
<text text-anchor="middle" x="902.42" y="-397" font-family="Times New Roman,serif" font-size="15.00">and</text>
</g>
<!-- 2067587926736&#45;&#45;2067587924576 -->
<g id="edge31" class="edge">
<title>2067587926736&#45;&#45;2067587924576</title>
<path fill="none" stroke="black" d="M529.96,-345.96C601.82,-356.99 803.93,-388.03 875.72,-399.05"/>
</g>
<!-- 2067588629520 -->
<g id="node35" class="node">
<title>2067588629520</title>
<ellipse fill="none" stroke="black" cx="902.42" cy="-342" rx="27" ry="18"/>
<text text-anchor="middle" x="902.42" y="-336" font-family="Times New Roman,serif" font-size="15.00">xor</text>
</g>
<!-- 2067587926736&#45;&#45;2067588629520 -->
<g id="edge36" class="edge">
<title>2067587926736&#45;&#45;2067588629520</title>
<path fill="none" stroke="black" d="M530.57,-342C602.74,-342 802.9,-342 875.06,-342"/>
</g>
<!-- 2067587938640 -->
<g id="node10" class="node">
<title>2067587938640</title>
<ellipse fill="none" stroke="black" cx="1285.25" cy="-457" rx="98.44" ry="18"/>
<text text-anchor="middle" x="1285.25" y="-451" font-family="Times New Roman,serif" font-size="15.00">OLO messages active</text>
</g>
<!-- 2067587924576&#45;&#45;2067587938640 -->
<g id="edge6" class="edge">
<title>2067587924576&#45;&#45;2067587938640</title>
<path fill="none" stroke="black" d="M929.29,-406.67C985.38,-414.62 1120.03,-433.71 1206.43,-445.96"/>
</g>
<!-- 2067587937776 -->
<g id="node11" class="node">
<title>2067587937776</title>
<ellipse fill="none" stroke="black" cx="1285.25" cy="-403" rx="27" ry="18"/>
<text text-anchor="middle" x="1285.25" y="-397" font-family="Times New Roman,serif" font-size="15.00">seq</text>
</g>
<!-- 2067587924576&#45;&#45;2067587937776 -->
<g id="edge30" class="edge">
<title>2067587924576&#45;&#45;2067587937776</title>
<path fill="none" stroke="black" d="M929.89,-403C999.73,-403 1188.31,-403 1257.95,-403"/>
</g>
<!-- 2067587935616 -->
<g id="node12" class="node">
<title>2067587935616</title>
<ellipse fill="none" stroke="black" cx="1599.5" cy="-461" rx="27" ry="18"/>
<text text-anchor="middle" x="1599.5" y="-455" font-family="Times New Roman,serif" font-size="15.00">xor</text>
</g>
<!-- 2067587937776&#45;&#45;2067587935616 -->
<g id="edge17" class="edge">
<title>2067587937776&#45;&#45;2067587935616</title>
<path fill="none" stroke="black" d="M1311.8,-407.75C1370.5,-418.65 1514.42,-445.38 1573.04,-456.27"/>
</g>
<!-- 2067587934752 -->
<g id="node23" class="node">
<title>2067587934752</title>
<ellipse fill="none" stroke="black" cx="1599.5" cy="-407" rx="139.38" ry="18"/>
<text text-anchor="middle" x="1599.5" y="-401" font-family="Times New Roman,serif" font-size="15.00">Refer to the competent authority</text>
</g>
<!-- 2067587937776&#45;&#45;2067587934752 -->
<g id="edge18" class="edge">
<title>2067587937776&#45;&#45;2067587934752</title>
<path fill="none" stroke="black" d="M1312.6,-403.34C1345.61,-403.76 1404.64,-404.52 1460.53,-405.23"/>
</g>
<!-- 2067587932160 -->
<g id="node24" class="node">
<title>2067587932160</title>
<ellipse fill="none" stroke="black" cx="1599.5" cy="-353" rx="27" ry="18"/>
<text text-anchor="middle" x="1599.5" y="-347" font-family="Times New Roman,serif" font-size="15.00">and</text>
</g>
<!-- 2067587937776&#45;&#45;2067587932160 -->
<g id="edge29" class="edge">
<title>2067587937776&#45;&#45;2067587932160</title>
<path fill="none" stroke="black" d="M1311.8,-398.91C1370.5,-389.51 1514.42,-366.46 1573.04,-357.08"/>
</g>
<!-- 2067587933456 -->
<g id="node13" class="node">
<title>2067587933456</title>
<ellipse fill="black" stroke="black" cx="1962.89" cy="-500" rx="2.7" ry="2.7"/>
</g>
<!-- 2067587935616&#45;&#45;2067587933456 -->
<g id="edge7" class="edge">
<title>2067587935616&#45;&#45;2067587933456</title>
<path fill="none" stroke="black" d="M1626.49,-463.8C1705.15,-472.29 1936.68,-497.28 1959.99,-499.8"/>
</g>
<!-- 2067587932592 -->
<g id="node14" class="node">
<title>2067587932592</title>
<ellipse fill="none" stroke="black" cx="1962.89" cy="-461" rx="27" ry="18"/>
<text text-anchor="middle" x="1962.89" y="-455" font-family="Times New Roman,serif" font-size="15.00">seq</text>
</g>
<!-- 2067587935616&#45;&#45;2067587932592 -->
<g id="edge16" class="edge">
<title>2067587935616&#45;&#45;2067587932592</title>
<path fill="none" stroke="black" d="M1626.79,-461C1693.54,-461 1869.06,-461 1935.71,-461"/>
</g>
<!-- 2067587930432 -->
<g id="node15" class="node">
<title>2067587930432</title>
<ellipse fill="none" stroke="black" cx="2289.43" cy="-488" rx="142.97" ry="18"/>
<text text-anchor="middle" x="2289.43" y="-482" font-family="Times New Roman,serif" font-size="15.00">Applicant plays stakeholder role</text>
</g>
<!-- 2067587932592&#45;&#45;2067587930432 -->
<g id="edge8" class="edge">
<title>2067587932592&#45;&#45;2067587930432</title>
<path fill="none" stroke="black" d="M1990.17,-463.19C2028.88,-466.41 2103.66,-472.63 2168.65,-478.04"/>
</g>
<!-- 2067587929568 -->
<g id="node16" class="node">
<title>2067587929568</title>
<ellipse fill="none" stroke="black" cx="2289.43" cy="-434" rx="27" ry="18"/>
<text text-anchor="middle" x="2289.43" y="-428" font-family="Times New Roman,serif" font-size="15.00">and</text>
</g>
<!-- 2067587932592&#45;&#45;2067587929568 -->
<g id="edge15" class="edge">
<title>2067587932592&#45;&#45;2067587929568</title>
<path fill="none" stroke="black" d="M1990.17,-458.81C2051.14,-453.74 2201.59,-441.22 2262.35,-436.17"/>
</g>
<!-- 2067587926640 -->
<g id="node17" class="node">
<title>2067587926640</title>
<ellipse fill="none" stroke="black" cx="2625.69" cy="-461" rx="27" ry="18"/>
<text text-anchor="middle" x="2625.69" y="-455" font-family="Times New Roman,serif" font-size="15.00">xor</text>
</g>
<!-- 2067587929568&#45;&#45;2067587926640 -->
<g id="edge11" class="edge">
<title>2067587929568&#45;&#45;2067587926640</title>
<path fill="none" stroke="black" d="M2316.66,-436.12C2379.14,-441.17 2536.22,-453.85 2598.58,-458.89"/>
</g>
<!-- 2067587925776 -->
<g id="node20" class="node">
<title>2067587925776</title>
<ellipse fill="none" stroke="black" cx="2625.69" cy="-407" rx="27" ry="18"/>
<text text-anchor="middle" x="2625.69" y="-401" font-family="Times New Roman,serif" font-size="15.00">xor</text>
</g>
<!-- 2067587929568&#45;&#45;2067587925776 -->
<g id="edge14" class="edge">
<title>2067587929568&#45;&#45;2067587925776</title>
<path fill="none" stroke="black" d="M2316.66,-431.88C2379.14,-426.83 2536.22,-414.15 2598.58,-409.11"/>
</g>
<!-- 2067587924480 -->
<g id="node18" class="node">
<title>2067587924480</title>
<ellipse fill="black" stroke="black" cx="2947.62" cy="-496" rx="2.7" ry="2.7"/>
</g>
<!-- 2067587926640&#45;&#45;2067587924480 -->
<g id="edge9" class="edge">
<title>2067587926640&#45;&#45;2067587924480</title>
<path fill="none" stroke="black" d="M2652.6,-463.83C2724.6,-471.71 2923.21,-493.44 2944.72,-495.79"/>
</g>
<!-- 2067587925824 -->
<g id="node19" class="node">
<title>2067587925824</title>
<ellipse fill="none" stroke="black" cx="2947.62" cy="-457" rx="73.36" ry="18"/>
<text text-anchor="middle" x="2947.62" y="-451" font-family="Times New Roman,serif" font-size="15.00">Stop on request</text>
</g>
<!-- 2067587926640&#45;&#45;2067587925824 -->
<g id="edge10" class="edge">
<title>2067587926640&#45;&#45;2067587925824</title>
<path fill="none" stroke="black" d="M2653.14,-460.67C2701.05,-460.07 2803.71,-458.79 2873.97,-457.91"/>
</g>
<!-- 2067587937152 -->
<g id="node21" class="node">
<title>2067587937152</title>
<ellipse fill="black" stroke="black" cx="2947.62" cy="-411" rx="2.7" ry="2.7"/>
</g>
<!-- 2067587925776&#45;&#45;2067587937152 -->
<g id="edge12" class="edge">
<title>2067587925776&#45;&#45;2067587937152</title>
<path fill="none" stroke="black" d="M2653.14,-407.33C2725.6,-408.24 2923.32,-410.71 2944.73,-410.98"/>
</g>
<!-- 2067587924672 -->
<g id="node22" class="node">
<title>2067587924672</title>
<ellipse fill="none" stroke="black" cx="2947.62" cy="-372" rx="128.63" ry="18"/>
<text text-anchor="middle" x="2947.62" y="-366" font-family="Times New Roman,serif" font-size="15.00">Evaluate provisional charges</text>
</g>
<!-- 2067587925776&#45;&#45;2067587924672 -->
<g id="edge13" class="edge">
<title>2067587925776&#45;&#45;2067587924672</title>
<path fill="none" stroke="black" d="M2652.6,-404.17C2694.03,-399.63 2777.38,-390.51 2844.79,-383.14"/>
</g>
<!-- 2067587927888 -->
<g id="node25" class="node">
<title>2067587927888</title>
<ellipse fill="none" stroke="black" cx="1962.89" cy="-407" rx="141.43" ry="18"/>
<text text-anchor="middle" x="1962.89" y="-401" font-family="Times New Roman,serif" font-size="15.00">Produce procedure confirmation</text>
</g>
<!-- 2067587932160&#45;&#45;2067587927888 -->
<g id="edge19" class="edge">
<title>2067587932160&#45;&#45;2067587927888</title>
<path fill="none" stroke="black" d="M1626.2,-356.84C1676.11,-364.3 1788.35,-381.07 1869.32,-393.17"/>
</g>
<!-- 2067587926016 -->
<g id="node26" class="node">
<title>2067587926016</title>
<ellipse fill="none" stroke="black" cx="1962.89" cy="-353" rx="129.15" ry="18"/>
<text text-anchor="middle" x="1962.89" y="-347" font-family="Times New Roman,serif" font-size="15.00">Commence WABOprocedure</text>
</g>
<!-- 2067587932160&#45;&#45;2067587926016 -->
<g id="edge20" class="edge">
<title>2067587932160&#45;&#45;2067587926016</title>
<path fill="none" stroke="black" d="M1626.79,-353C1669.91,-353 1758.42,-353 1833.65,-353"/>
</g>
<!-- 2067587934512 -->
<g id="node27" class="node">
<title>2067587934512</title>
<ellipse fill="none" stroke="black" cx="1962.89" cy="-299" rx="147.57" ry="18"/>
<text text-anchor="middle" x="1962.89" y="-293" font-family="Times New Roman,serif" font-size="15.00">Ordinary procedure without MER</text>
</g>
<!-- 2067587932160&#45;&#45;2067587934512 -->
<g id="edge21" class="edge">
<title>2067587932160&#45;&#45;2067587934512</title>
<path fill="none" stroke="black" d="M1626.2,-349.16C1675.71,-341.76 1786.54,-325.2 1867.35,-313.13"/>
</g>
<!-- 2067587931344 -->
<g id="node28" class="node">
<title>2067587931344</title>
<ellipse fill="none" stroke="black" cx="1962.89" cy="-245" rx="27" ry="18"/>
<text text-anchor="middle" x="1962.89" y="-239" font-family="Times New Roman,serif" font-size="15.00">xor</text>
</g>
<!-- 2067587932160&#45;&#45;2067587931344 -->
<g id="edge28" class="edge">
<title>2067587932160&#45;&#45;2067587931344</title>
<path fill="none" stroke="black" d="M1624.78,-345.75C1690.61,-326.07 1872.01,-271.86 1937.72,-252.22"/>
</g>
<!-- 2067587925296 -->
<g id="node29" class="node">
<title>2067587925296</title>
<ellipse fill="black" stroke="black" cx="2289.43" cy="-265" rx="2.7" ry="2.7"/>
</g>
<!-- 2067587931344&#45;&#45;2067587925296 -->
<g id="edge22" class="edge">
<title>2067587931344&#45;&#45;2067587925296</title>
<path fill="none" stroke="black" d="M1990.17,-246.62C2063.21,-251.12 2264.69,-263.54 2286.5,-264.88"/>
</g>
<!-- 2067588640704 -->
<g id="node30" class="node">
<title>2067588640704</title>
<ellipse fill="none" stroke="black" cx="2289.43" cy="-226" rx="27" ry="18"/>
<text text-anchor="middle" x="2289.43" y="-220" font-family="Times New Roman,serif" font-size="15.00">seq</text>
</g>
<!-- 2067587931344&#45;&#45;2067588640704 -->
<g id="edge27" class="edge">
<title>2067587931344&#45;&#45;2067588640704</title>
<path fill="none" stroke="black" d="M1990.17,-243.46C2051.14,-239.89 2201.59,-231.08 2262.35,-227.53"/>
</g>
<!-- 2067588638016 -->
<g id="node31" class="node">
<title>2067588638016</title>
<ellipse fill="none" stroke="black" cx="2625.69" cy="-253" rx="27" ry="18"/>
<text text-anchor="middle" x="2625.69" y="-247" font-family="Times New Roman,serif" font-size="15.00">xor</text>
</g>
<!-- 2067588640704&#45;&#45;2067588638016 -->
<g id="edge25" class="edge">
<title>2067588640704&#45;&#45;2067588638016</title>
<path fill="none" stroke="black" d="M2316.66,-228.12C2379.14,-233.17 2536.22,-245.85 2598.58,-250.89"/>
</g>
<!-- 2067588630384 -->
<g id="node34" class="node">
<title>2067588630384</title>
<ellipse fill="none" stroke="black" cx="2625.69" cy="-199" rx="157.3" ry="18"/>
<text text-anchor="middle" x="2625.69" y="-193" font-family="Times New Roman,serif" font-size="15.00">Register senddate acknowledgement</text>
</g>
<!-- 2067588640704&#45;&#45;2067588630384 -->
<g id="edge26" class="edge">
<title>2067588640704&#45;&#45;2067588630384</title>
<path fill="none" stroke="black" d="M2316.66,-223.88C2355.13,-220.77 2429.47,-214.77 2495.48,-209.44"/>
</g>
<!-- 2067588642864 -->
<g id="node32" class="node">
<title>2067588642864</title>
<ellipse fill="black" stroke="black" cx="2947.62" cy="-272" rx="2.7" ry="2.7"/>
</g>
<!-- 2067588638016&#45;&#45;2067588642864 -->
<g id="edge23" class="edge">
<title>2067588638016&#45;&#45;2067588642864</title>
<path fill="none" stroke="black" d="M2652.87,-254.55C2725.1,-258.84 2923.27,-270.61 2944.73,-271.89"/>
</g>
<!-- 2067588644736 -->
<g id="node33" class="node">
<title>2067588644736</title>
<ellipse fill="none" stroke="black" cx="2947.62" cy="-233" rx="51.86" ry="18"/>
<text text-anchor="middle" x="2947.62" y="-227" font-family="Times New Roman,serif" font-size="15.00">Broadcast</text>
</g>
<!-- 2067588638016&#45;&#45;2067588644736 -->
<g id="edge24" class="edge">
<title>2067588638016&#45;&#45;2067588644736</title>
<path fill="none" stroke="black" d="M2652.87,-251.36C2706,-248.04 2827.26,-240.46 2896.22,-236.15"/>
</g>
<!-- 2067588631824 -->
<g id="node36" class="node">
<title>2067588631824</title>
<ellipse fill="black" stroke="black" cx="1285.25" cy="-342" rx="2.7" ry="2.7"/>
</g>
<!-- 2067588629520&#45;&#45;2067588631824 -->
<g id="edge32" class="edge">
<title>2067588629520&#45;&#45;2067588631824</title>
<path fill="none" stroke="black" d="M929.89,-342C1011.87,-342 1257.5,-342 1282.24,-342"/>
</g>
<!-- 2067588634560 -->
<g id="node37" class="node">
<title>2067588634560</title>
<ellipse fill="none" stroke="black" cx="1285.25" cy="-299" rx="27" ry="18"/>
<text text-anchor="middle" x="1285.25" y="-293" font-family="Times New Roman,serif" font-size="15.00">seq</text>
</g>
<!-- 2067588629520&#45;&#45;2067588634560 -->
<g id="edge35" class="edge">
<title>2067588629520&#45;&#45;2067588634560</title>
<path fill="none" stroke="black" d="M929.29,-339.08C998.77,-331.23 1188.82,-309.78 1258.34,-301.93"/>
</g>
<!-- 2067588634272 -->
<g id="node38" class="node">
<title>2067588634272</title>
<ellipse fill="none" stroke="black" cx="1599.5" cy="-299" rx="176.23" ry="18"/>
<text text-anchor="middle" x="1599.5" y="-293" font-family="Times New Roman,serif" font-size="15.00">Log date termination request documented</text>
</g>
<!-- 2067588634560&#45;&#45;2067588634272 -->
<g id="edge33" class="edge">
<title>2067588634560&#45;&#45;2067588634272</title>
<path fill="none" stroke="black" d="M1312.6,-299C1338.26,-299 1379.64,-299 1423.04,-299"/>
</g>
<!-- 2067588639600 -->
<g id="node39" class="node">
<title>2067588639600</title>
<ellipse fill="none" stroke="black" cx="1599.5" cy="-245" rx="179.82" ry="18"/>
<text text-anchor="middle" x="1599.5" y="-239" font-family="Times New Roman,serif" font-size="15.00">Premature termination of procedure phase</text>
</g>
<!-- 2067588634560&#45;&#45;2067588639600 -->
<g id="edge34" class="edge">
<title>2067588634560&#45;&#45;2067588639600</title>
<path fill="none" stroke="black" d="M1311.8,-294.58C1353.97,-287.29 1440.11,-272.39 1507.02,-260.82"/>
</g>
<!-- 2067588637440 -->
<g id="node41" class="node">
<title>2067588637440</title>
<ellipse fill="black" stroke="black" cx="503.2" cy="-290" rx="2.7" ry="2.7"/>
</g>
<!-- 2067588636384&#45;&#45;2067588637440 -->
<g id="edge39" class="edge">
<title>2067588636384&#45;&#45;2067588637440</title>
<path fill="none" stroke="black" d="M248.54,-283.66C313.88,-285.29 479.65,-289.44 500.12,-289.95"/>
</g>
<!-- 2067588631536 -->
<g id="node42" class="node">
<title>2067588631536</title>
<ellipse fill="none" stroke="black" cx="503.2" cy="-251" rx="110.72" ry="18"/>
<text text-anchor="middle" x="503.2" y="-245" font-family="Times New Roman,serif" font-size="15.00">Terminate request notice</text>
</g>
<!-- 2067588636384&#45;&#45;2067588631536 -->
<g id="edge40" class="edge">
<title>2067588636384&#45;&#45;2067588631536</title>
<path fill="none" stroke="black" d="M248.28,-280.02C285.21,-275.8 354.57,-267.87 411.47,-261.37"/>
</g>
<!-- 2067588631968 -->
<g id="node43" class="node">
<title>2067588631968</title>
<ellipse fill="none" stroke="black" cx="503.2" cy="-180" rx="27" ry="18"/>
<text text-anchor="middle" x="503.2" y="-174" font-family="Times New Roman,serif" font-size="15.00">seq</text>
</g>
<!-- 2067588636384&#45;&#45;2067588631968 -->
<g id="edge47" class="edge">
<title>2067588636384&#45;&#45;2067588631968</title>
<path fill="none" stroke="black" d="M245.11,-274.57C297.61,-255.26 426.16,-207.97 478.97,-188.55"/>
</g>
<!-- 2067588641472 -->
<g id="node44" class="node">
<title>2067588641472</title>
<ellipse fill="none" stroke="black" cx="902.42" cy="-288" rx="200.29" ry="18"/>
<text text-anchor="middle" x="902.42" y="-282" font-family="Times New Roman,serif" font-size="15.00">Permit not needed or only notification required</text>
</g>
<!-- 2067588631968&#45;&#45;2067588641472 -->
<g id="edge41" class="edge">
<title>2067588631968&#45;&#45;2067588641472</title>
<path fill="none" stroke="black" d="M528.75,-186.67C589.39,-203.16 747.82,-246.24 837.36,-270.58"/>
</g>
<!-- 2067588638688 -->
<g id="node45" class="node">
<title>2067588638688</title>
<ellipse fill="none" stroke="black" cx="902.42" cy="-234" rx="248.4" ry="18"/>
<text text-anchor="middle" x="902.42" y="-228" font-family="Times New Roman,serif" font-size="15.00">document senddate letter no permit or notification required</text>
</g>
<!-- 2067588631968&#45;&#45;2067588638688 -->
<g id="edge42" class="edge">
<title>2067588631968&#45;&#45;2067588638688</title>
<path fill="none" stroke="black" d="M529.96,-183.5C580.16,-190.33 693.92,-205.79 782.41,-217.82"/>
</g>
<!-- 2067588631872 -->
<g id="node46" class="node">
<title>2067588631872</title>
<ellipse fill="none" stroke="black" cx="902.42" cy="-180" rx="159.85" ry="18"/>
<text text-anchor="middle" x="902.42" y="-174" font-family="Times New Roman,serif" font-size="15.00">draft letter stating no permit required</text>
</g>
<!-- 2067588631968&#45;&#45;2067588631872 -->
<g id="edge43" class="edge">
<title>2067588631968&#45;&#45;2067588631872</title>
<path fill="none" stroke="black" d="M530.57,-180C573.63,-180 662.25,-180 742.06,-180"/>
</g>
<!-- 2067588638784 -->
<g id="node47" class="node">
<title>2067588638784</title>
<ellipse fill="none" stroke="black" cx="902.42" cy="-126" rx="96.39" ry="18"/>
<text text-anchor="middle" x="902.42" y="-120" font-family="Times New Roman,serif" font-size="15.00">Register the deadline</text>
</g>
<!-- 2067588631968&#45;&#45;2067588638784 -->
<g id="edge44" class="edge">
<title>2067588631968&#45;&#45;2067588638784</title>
<path fill="none" stroke="black" d="M529.96,-176.5C588.32,-168.56 732.61,-148.95 823.21,-136.63"/>
</g>
<!-- 2067588631440 -->
<g id="node48" class="node">
<title>2067588631440</title>
<ellipse fill="none" stroke="black" cx="902.42" cy="-72" rx="119.42" ry="18"/>
<text text-anchor="middle" x="902.42" y="-66" font-family="Times New Roman,serif" font-size="15.00">Phase procedure cancelled</text>
</g>
<!-- 2067588631968&#45;&#45;2067588631440 -->
<g id="edge45" class="edge">
<title>2067588631968&#45;&#45;2067588631440</title>
<path fill="none" stroke="black" d="M528.75,-173.33C590.57,-156.52 754.04,-112.07 842.53,-88.01"/>
</g>
<!-- 2067588631008 -->
<g id="node49" class="node">
<title>2067588631008</title>
<ellipse fill="none" stroke="black" cx="902.42" cy="-18" rx="84.11" ry="18"/>
<text text-anchor="middle" x="902.42" y="-12" font-family="Times New Roman,serif" font-size="15.00">Conclude the case</text>
</g>
<!-- 2067588631968&#45;&#45;2067588631008 -->
<g id="edge46" class="edge">
<title>2067588631968&#45;&#45;2067588631008</title>
<path fill="none" stroke="black" d="M526.7,-170.83C591.52,-144.39 779.35,-67.78 861.81,-34.15"/>
</g>
</g>
</svg>
