<?xml version="1.0" encoding="UTF-8" standalone="no"?>
<!DOCTYPE svg PUBLIC "-//W3C//DTD SVG 1.1//EN"
 "http://www.w3.org/Graphics/SVG/1.1/DTD/svg11.dtd">
<!-- Generated by graphviz version 11.0.0 (20240428.1522)
 -->
<!-- Title: pt Pages: 1 -->
<svg width="1140pt" height="415pt"
 viewBox="0.00 0.00 1139.88 415.00" xmlns="http://www.w3.org/2000/svg" xmlns:xlink="http://www.w3.org/1999/xlink">
<g id="graph0" class="graph" transform="scale(1 1) rotate(0) translate(4 411)">
<title>pt</title>
<polygon fill="white" stroke="none" points="-4,4 -4,-411 1135.88,-411 1135.88,4 -4,4"/>
<!-- 2067588304864 -->
<g id="node1" class="node">
<title>2067588304864</title>
<ellipse fill="none" stroke="black" cx="27" cy="-308" rx="27" ry="18"/>
<text text-anchor="middle" x="27" y="-302" font-family="Times New Roman,serif" font-size="15.00">seq</text>
</g>
<!-- 2067588317104 -->
<g id="node2" class="node">
<title>2067588317104</title>
<ellipse fill="none" stroke="black" cx="221.19" cy="-362" rx="131.19" ry="18"/>
<text text-anchor="middle" x="221.19" y="-356" font-family="Times New Roman,serif" font-size="15.00">Enter submission date request</text>
</g>
<!-- 2067588304864&#45;&#45;2067588317104 -->
<g id="edge1" class="edge">
<title>2067588304864&#45;&#45;2067588317104</title>
<path fill="none" stroke="black" d="M52.34,-314.84C79.71,-322.53 125.14,-335.29 161.83,-345.6"/>
</g>
<!-- 2067588307072 -->
<g id="node3" class="node">
<title>2067588307072</title>
<ellipse fill="none" stroke="black" cx="221.19" cy="-308" rx="98.44" ry="18"/>
<text text-anchor="middle" x="221.19" y="-302" font-family="Times New Roman,serif" font-size="15.00">OLO messages active</text>
</g>
<!-- 2067588304864&#45;&#45;2067588307072 -->
<g id="edge2" class="edge">
<title>2067588304864&#45;&#45;2067588307072</title>
<path fill="none" stroke="black" d="M54.32,-308C72.31,-308 97.38,-308 122.59,-308"/>
</g>
<!-- 2067588309136 -->
<g id="node4" class="node">
<title>2067588309136</title>
<ellipse fill="none" stroke="black" cx="221.19" cy="-254" rx="27" ry="18"/>
<text text-anchor="middle" x="221.19" y="-248" font-family="Times New Roman,serif" font-size="15.00">and</text>
</g>
<!-- 2067588304864&#45;&#45;2067588309136 -->
<g id="edge16" class="edge">
<title>2067588304864&#45;&#45;2067588309136</title>
<path fill="none" stroke="black" d="M52.34,-301.16C89.21,-290.8 158.82,-271.24 195.75,-260.87"/>
</g>
<!-- 2067588305200 -->
<g id="node5" class="node">
<title>2067588305200</title>
<ellipse fill="none" stroke="black" cx="535.96" cy="-389" rx="141.43" ry="18"/>
<text text-anchor="middle" x="535.96" y="-383" font-family="Times New Roman,serif" font-size="15.00">Produce procedure confirmation</text>
</g>
<!-- 2067588309136&#45;&#45;2067588305200 -->
<g id="edge3" class="edge">
<title>2067588309136&#45;&#45;2067588305200</title>
<path fill="none" stroke="black" d="M244.19,-263.49C296.12,-285.91 427.02,-342.41 494.04,-371.34"/>
</g>
<!-- 2067588304192 -->
<g id="node6" class="node">
<title>2067588304192</title>
<ellipse fill="none" stroke="black" cx="535.96" cy="-335" rx="139.38" ry="18"/>
<text text-anchor="middle" x="535.96" y="-329" font-family="Times New Roman,serif" font-size="15.00">Refer to the competent authority</text>
</g>
<!-- 2067588309136&#45;&#45;2067588304192 -->
<g id="edge4" class="edge">
<title>2067588309136&#45;&#45;2067588304192</title>
<path fill="none" stroke="black" d="M246.74,-260.36C294.76,-272.79 402.51,-300.7 471.8,-318.64"/>
</g>
<!-- 2067588311008 -->
<g id="node7" class="node">
<title>2067588311008</title>
<ellipse fill="none" stroke="black" cx="535.96" cy="-281" rx="129.15" ry="18"/>
<text text-anchor="middle" x="535.96" y="-275" font-family="Times New Roman,serif" font-size="15.00">Commence WABOprocedure</text>
</g>
<!-- 2067588309136&#45;&#45;2067588311008 -->
<g id="edge5" class="edge">
<title>2067588309136&#45;&#45;2067588311008</title>
<path fill="none" stroke="black" d="M248.32,-256.26C286.93,-259.59 361.51,-266.03 424.91,-271.5"/>
</g>
<!-- 2067588314752 -->
<g id="node8" class="node">
<title>2067588314752</title>
<ellipse fill="none" stroke="black" cx="535.96" cy="-227" rx="147.57" ry="18"/>
<text text-anchor="middle" x="535.96" y="-221" font-family="Times New Roman,serif" font-size="15.00">Ordinary procedure without MER</text>
</g>
<!-- 2067588309136&#45;&#45;2067588314752 -->
<g id="edge6" class="edge">
<title>2067588309136&#45;&#45;2067588314752</title>
<path fill="none" stroke="black" d="M248.32,-251.74C284.73,-248.6 353.12,-242.7 413.97,-237.44"/>
</g>
<!-- 2067588312352 -->
<g id="node9" class="node">
<title>2067588312352</title>
<ellipse fill="none" stroke="black" cx="535.96" cy="-173" rx="114.82" ry="18"/>
<text text-anchor="middle" x="535.96" y="-167" font-family="Times New Roman,serif" font-size="15.00">Step application received</text>
</g>
<!-- 2067588309136&#45;&#45;2067588312352 -->
<g id="edge7" class="edge">
<title>2067588309136&#45;&#45;2067588312352</title>
<path fill="none" stroke="black" d="M246.74,-247.64C295.41,-235.04 405.43,-206.55 474.58,-188.64"/>
</g>
<!-- 2067588309808 -->
<g id="node10" class="node">
<title>2067588309808</title>
<ellipse fill="none" stroke="black" cx="535.96" cy="-119" rx="45.21" ry="18"/>
<text text-anchor="middle" x="535.96" y="-113" font-family="Times New Roman,serif" font-size="15.00">xor loop</text>
</g>
<!-- 2067588309136&#45;&#45;2067588309808 -->
<g id="edge15" class="edge">
<title>2067588309136&#45;&#45;2067588309808</title>
<path fill="none" stroke="black" d="M244.19,-244.51C298.97,-220.86 441.63,-159.28 504.47,-132.16"/>
</g>
<!-- 2067588306352 -->
<g id="node11" class="node">
<title>2067588306352</title>
<ellipse fill="none" stroke="black" cx="764.74" cy="-165" rx="45.21" ry="18"/>
<text text-anchor="middle" x="764.74" y="-159" font-family="Times New Roman,serif" font-size="15.00">xor loop</text>
</g>
<!-- 2067588309808&#45;&#45;2067588306352 -->
<g id="edge10" class="edge">
<title>2067588309808&#45;&#45;2067588306352</title>
<path fill="none" stroke="black" d="M576.98,-127.12C618.31,-135.5 682.42,-148.5 723.74,-156.89"/>
</g>
<!-- 2067588316672 -->
<g id="node14" class="node">
<title>2067588316672</title>
<ellipse fill="none" stroke="black" cx="764.74" cy="-92" rx="27" ry="18"/>
<text text-anchor="middle" x="764.74" y="-86" font-family="Times New Roman,serif" font-size="15.00">seq</text>
</g>
<!-- 2067588309808&#45;&#45;2067588316672 -->
<g id="edge14" class="edge">
<title>2067588309808&#45;&#45;2067588316672</title>
<path fill="none" stroke="black" d="M579.88,-113.89C626.49,-108.34 699.43,-99.66 737.93,-95.07"/>
</g>
<!-- 2067588301408 -->
<g id="node12" class="node">
<title>2067588301408</title>
<ellipse fill="none" stroke="black" cx="988.91" cy="-204" rx="131.19" ry="18"/>
<text text-anchor="middle" x="988.91" y="-198" font-family="Times New Roman,serif" font-size="15.00">Transmit confirmation receipt</text>
</g>
<!-- 2067588306352&#45;&#45;2067588301408 -->
<g id="edge8" class="edge">
<title>2067588306352&#45;&#45;2067588301408</title>
<path fill="none" stroke="black" d="M806.75,-172.2C834.58,-177.08 872.34,-183.71 906.18,-189.65"/>
</g>
<!-- 2067588313744 -->
<g id="node13" class="node">
<title>2067588313744</title>
<ellipse fill="black" stroke="black" cx="988.91" cy="-165" rx="2.7" ry="2.7"/>
</g>
<!-- 2067588306352&#45;&#45;2067588313744 -->
<g id="edge9" class="edge">
<title>2067588306352&#45;&#45;2067588313744</title>
<path fill="none" stroke="black" d="M810.43,-165C870.24,-165 970.61,-165 985.93,-165"/>
</g>
<!-- 2067587990928 -->
<g id="node15" class="node">
<title>2067587990928</title>
<ellipse fill="none" stroke="black" cx="988.91" cy="-126" rx="142.97" ry="18"/>
<text text-anchor="middle" x="988.91" y="-120" font-family="Times New Roman,serif" font-size="15.00">Applicant plays stakeholder role</text>
</g>
<!-- 2067588316672&#45;&#45;2067587990928 -->
<g id="edge11" class="edge">
<title>2067588316672&#45;&#45;2067587990928</title>
<path fill="none" stroke="black" d="M791.23,-95.9C816.87,-99.82 857.96,-106.11 895.97,-111.93"/>
</g>
<!-- 2067587996976 -->
<g id="node16" class="node">
<title>2067587996976</title>
<ellipse fill="none" stroke="black" cx="988.91" cy="-72" rx="73.36" ry="18"/>
<text text-anchor="middle" x="988.91" y="-66" font-family="Times New Roman,serif" font-size="15.00">Stop on request</text>
</g>
<!-- 2067588316672&#45;&#45;2067587996976 -->
<g id="edge12" class="edge">
<title>2067588316672&#45;&#45;2067587996976</title>
<path fill="none" stroke="black" d="M791.66,-89.67C822.8,-86.86 876.24,-82.05 919.5,-78.16"/>
</g>
<!-- 2067587999280 -->
<g id="node17" class="node">
<title>2067587999280</title>
<ellipse fill="none" stroke="black" cx="988.91" cy="-18" rx="128.63" ry="18"/>
<text text-anchor="middle" x="988.91" y="-12" font-family="Times New Roman,serif" font-size="15.00">Evaluate provisional charges</text>
</g>
<!-- 2067588316672&#45;&#45;2067587999280 -->
<g id="edge13" class="edge">
<title>2067588316672&#45;&#45;2067587999280</title>
<path fill="none" stroke="black" d="M789.52,-84.08C824.55,-72.41 890.9,-50.31 937.18,-34.9"/>
</g>
</g>
</svg>
