<?xml version="1.0" encoding="UTF-8" standalone="no"?>
<!DOCTYPE svg PUBLIC "-//W3C//DTD SVG 1.1//EN"
 "http://www.w3.org/Graphics/SVG/1.1/DTD/svg11.dtd">
<!-- Generated by graphviz version 11.0.0 (20240428.1522)
 -->
<!-- Title: pt Pages: 1 -->
<svg width="2056pt" height="932pt"
 viewBox="0.00 0.00 2056.02 932.00" xmlns="http://www.w3.org/2000/svg" xmlns:xlink="http://www.w3.org/1999/xlink">
<g id="graph0" class="graph" transform="scale(1 1) rotate(0) translate(4 928)">
<title>pt</title>
<polygon fill="white" stroke="none" points="-4,4 -4,-928 2052.02,-928 2052.02,4 -4,4"/>
<!-- 2067588386496 -->
<g id="node1" class="node">
<title>2067588386496</title>
<ellipse fill="none" stroke="black" cx="27" cy="-557" rx="27" ry="18"/>
<text text-anchor="middle" x="27" y="-551" font-family="Times New Roman,serif" font-size="15.00">seq</text>
</g>
<!-- 2067588384720 -->
<g id="node2" class="node">
<title>2067588384720</title>
<ellipse fill="none" stroke="black" cx="221.19" cy="-785" rx="131.19" ry="18"/>
<text text-anchor="middle" x="221.19" y="-779" font-family="Times New Roman,serif" font-size="15.00">Enter submission date request</text>
</g>
<!-- 2067588386496&#45;&#45;2067588384720 -->
<g id="edge1" class="edge">
<title>2067588386496&#45;&#45;2067588384720</title>
<path fill="none" stroke="black" d="M41.21,-572.67C75.64,-613.52 168.01,-723.1 204.78,-766.72"/>
</g>
<!-- 2067588391488 -->
<g id="node3" class="node">
<title>2067588391488</title>
<ellipse fill="none" stroke="black" cx="221.19" cy="-731" rx="27" ry="18"/>
<text text-anchor="middle" x="221.19" y="-725" font-family="Times New Roman,serif" font-size="15.00">xor</text>
</g>
<!-- 2067588386496&#45;&#45;2067588391488 -->
<g id="edge7" class="edge">
<title>2067588386496&#45;&#45;2067588391488</title>
<path fill="none" stroke="black" d="M43.73,-571.24C79.77,-603.87 168,-683.75 204.25,-716.56"/>
</g>
<!-- 2067588383520 -->
<g id="node9" class="node">
<title>2067588383520</title>
<ellipse fill="none" stroke="black" cx="221.19" cy="-604" rx="27" ry="18"/>
<text text-anchor="middle" x="221.19" y="-598" font-family="Times New Roman,serif" font-size="15.00">and</text>
</g>
<!-- 2067588386496&#45;&#45;2067588383520 -->
<g id="edge35" class="edge">
<title>2067588386496&#45;&#45;2067588383520</title>
<path fill="none" stroke="black" d="M52.73,-563.05C89.53,-572.05 158.33,-588.87 195.25,-597.9"/>
</g>
<!-- 2067588385968 -->
<g id="node37" class="node">
<title>2067588385968</title>
<ellipse fill="none" stroke="black" cx="221.19" cy="-511" rx="27" ry="18"/>
<text text-anchor="middle" x="221.19" y="-505" font-family="Times New Roman,serif" font-size="15.00">xor</text>
</g>
<!-- 2067588386496&#45;&#45;2067588385968 -->
<g id="edge38" class="edge">
<title>2067588386496&#45;&#45;2067588385968</title>
<path fill="none" stroke="black" d="M52.73,-551.08C89.53,-542.27 158.33,-525.81 195.25,-516.97"/>
</g>
<!-- 2067588383760 -->
<g id="node40" class="node">
<title>2067588383760</title>
<ellipse fill="none" stroke="black" cx="221.19" cy="-433" rx="27" ry="18"/>
<text text-anchor="middle" x="221.19" y="-427" font-family="Times New Roman,serif" font-size="15.00">xor</text>
</g>
<!-- 2067588386496&#45;&#45;2067588383760 -->
<g id="edge41" class="edge">
<title>2067588386496&#45;&#45;2067588383760</title>
<path fill="none" stroke="black" d="M47.13,-544.66C83.97,-520.89 164.36,-469.02 201.14,-445.29"/>
</g>
<!-- 2067588398976 -->
<g id="node43" class="node">
<title>2067588398976</title>
<ellipse fill="none" stroke="black" cx="221.19" cy="-288" rx="27" ry="18"/>
<text text-anchor="middle" x="221.19" y="-282" font-family="Times New Roman,serif" font-size="15.00">xor</text>
</g>
<!-- 2067588386496&#45;&#45;2067588398976 -->
<g id="edge52" class="edge">
<title>2067588386496&#45;&#45;2067588398976</title>
<path fill="none" stroke="black" d="M39.45,-540.98C73.55,-493.25 174.22,-352.34 208.56,-304.28"/>
</g>
<!-- 2067588394128 -->
<g id="node4" class="node">
<title>2067588394128</title>
<ellipse fill="black" stroke="black" cx="588.67" cy="-837" rx="2.7" ry="2.7"/>
</g>
<!-- 2067588391488&#45;&#45;2067588394128 -->
<g id="edge2" class="edge">
<title>2067588391488&#45;&#45;2067588394128</title>
<path fill="none" stroke="black" d="M246.46,-738.04C323.94,-760.51 561.77,-829.49 585.72,-836.43"/>
</g>
<!-- 2067588387216 -->
<g id="node5" class="node">
<title>2067588387216</title>
<ellipse fill="none" stroke="black" cx="588.67" cy="-798" rx="27" ry="18"/>
<text text-anchor="middle" x="588.67" y="-792" font-family="Times New Roman,serif" font-size="15.00">seq</text>
</g>
<!-- 2067588391488&#45;&#45;2067588387216 -->
<g id="edge6" class="edge">
<title>2067588391488&#45;&#45;2067588387216</title>
<path fill="none" stroke="black" d="M247.6,-735.66C314.62,-747.94 495.61,-781.12 562.43,-793.37"/>
</g>
<!-- 2067588398880 -->
<g id="node6" class="node">
<title>2067588398880</title>
<ellipse fill="none" stroke="black" cx="1007.85" cy="-906" rx="182.89" ry="18"/>
<text text-anchor="middle" x="1007.85" y="-900" font-family="Times New Roman,serif" font-size="15.00">Mandatory Environmental Report required</text>
</g>
<!-- 2067588387216&#45;&#45;2067588398880 -->
<g id="edge3" class="edge">
<title>2067588387216&#45;&#45;2067588398880</title>
<path fill="none" stroke="black" d="M614.21,-804.35C677.18,-820.65 846.13,-864.39 940.6,-888.85"/>
</g>
<!-- 2067588383664 -->
<g id="node7" class="node">
<title>2067588383664</title>
<ellipse fill="none" stroke="black" cx="1007.85" cy="-852" rx="129.15" ry="18"/>
<text text-anchor="middle" x="1007.85" y="-846" font-family="Times New Roman,serif" font-size="15.00">Regular procedural activities</text>
</g>
<!-- 2067588387216&#45;&#45;2067588383664 -->
<g id="edge4" class="edge">
<title>2067588387216&#45;&#45;2067588383664</title>
<path fill="none" stroke="black" d="M615.46,-801.34C673.19,-808.81 815.33,-827.21 911.46,-839.65"/>
</g>
<!-- 2067588394176 -->
<g id="node8" class="node">
<title>2067588394176</title>
<ellipse fill="none" stroke="black" cx="1007.85" cy="-798" rx="87.69" ry="18"/>
<text text-anchor="middle" x="1007.85" y="-792" font-family="Times New Roman,serif" font-size="15.00">Phased application</text>
</g>
<!-- 2067588387216&#45;&#45;2067588394176 -->
<g id="edge5" class="edge">
<title>2067588387216&#45;&#45;2067588394176</title>
<path fill="none" stroke="black" d="M616.09,-798C675.91,-798 823.97,-798 919.69,-798"/>
</g>
<!-- 2067588391440 -->
<g id="node10" class="node">
<title>2067588391440</title>
<ellipse fill="none" stroke="black" cx="588.67" cy="-712" rx="45.21" ry="18"/>
<text text-anchor="middle" x="588.67" y="-706" font-family="Times New Roman,serif" font-size="15.00">xor loop</text>
</g>
<!-- 2067588383520&#45;&#45;2067588391440 -->
<g id="edge10" class="edge">
<title>2067588383520&#45;&#45;2067588391440</title>
<path fill="none" stroke="black" d="M246.46,-611.17C309.27,-629.73 477.47,-679.44 551.67,-701.36"/>
</g>
<!-- 2067588388752 -->
<g id="node13" class="node">
<title>2067588388752</title>
<ellipse fill="none" stroke="black" cx="588.67" cy="-658" rx="114.82" ry="18"/>
<text text-anchor="middle" x="588.67" y="-652" font-family="Times New Roman,serif" font-size="15.00">Step application received</text>
</g>
<!-- 2067588383520&#45;&#45;2067588388752 -->
<g id="edge11" class="edge">
<title>2067588383520&#45;&#45;2067588388752</title>
<path fill="none" stroke="black" d="M247.89,-607.8C300.21,-615.53 421.12,-633.39 503.64,-645.58"/>
</g>
<!-- 2067588396960 -->
<g id="node14" class="node">
<title>2067588396960</title>
<ellipse fill="none" stroke="black" cx="588.67" cy="-604" rx="98.44" ry="18"/>
<text text-anchor="middle" x="588.67" y="-598" font-family="Times New Roman,serif" font-size="15.00">OLO messages active</text>
</g>
<!-- 2067588383520&#45;&#45;2067588396960 -->
<g id="edge12" class="edge">
<title>2067588383520&#45;&#45;2067588396960</title>
<path fill="none" stroke="black" d="M248.48,-604C298.24,-604 408.49,-604 489.85,-604"/>
</g>
<!-- 2067588393024 -->
<g id="node15" class="node">
<title>2067588393024</title>
<ellipse fill="none" stroke="black" cx="588.67" cy="-550" rx="27" ry="18"/>
<text text-anchor="middle" x="588.67" y="-544" font-family="Times New Roman,serif" font-size="15.00">seq</text>
</g>
<!-- 2067588383520&#45;&#45;2067588393024 -->
<g id="edge34" class="edge">
<title>2067588383520&#45;&#45;2067588393024</title>
<path fill="none" stroke="black" d="M247.89,-600.2C315,-590.29 494.93,-563.7 562,-553.79"/>
</g>
<!-- 2067588398544 -->
<g id="node11" class="node">
<title>2067588398544</title>
<ellipse fill="none" stroke="black" cx="1007.85" cy="-744" rx="131.19" ry="18"/>
<text text-anchor="middle" x="1007.85" y="-738" font-family="Times New Roman,serif" font-size="15.00">Transmit confirmation receipt</text>
</g>
<!-- 2067588391440&#45;&#45;2067588398544 -->
<g id="edge8" class="edge">
<title>2067588391440&#45;&#45;2067588398544</title>
<path fill="none" stroke="black" d="M633.53,-715.36C694.41,-720.03 806.68,-728.65 892.26,-735.21"/>
</g>
<!-- 2067588390624 -->
<g id="node12" class="node">
<title>2067588390624</title>
<ellipse fill="black" stroke="black" cx="1007.85" cy="-705" rx="2.7" ry="2.7"/>
</g>
<!-- 2067588391440&#45;&#45;2067588390624 -->
<g id="edge9" class="edge">
<title>2067588391440&#45;&#45;2067588390624</title>
<path fill="none" stroke="black" d="M634.32,-711.25C736.47,-709.54 980.35,-705.44 1004.85,-705.03"/>
</g>
<!-- 2067588393456 -->
<g id="node16" class="node">
<title>2067588393456</title>
<ellipse fill="none" stroke="black" cx="1007.85" cy="-666" rx="27" ry="18"/>
<text text-anchor="middle" x="1007.85" y="-660" font-family="Times New Roman,serif" font-size="15.00">xor</text>
</g>
<!-- 2067588393024&#45;&#45;2067588393456 -->
<g id="edge18" class="edge">
<title>2067588393024&#45;&#45;2067588393456</title>
<path fill="none" stroke="black" d="M614.21,-556.82C688.18,-577.39 908.41,-638.63 982.34,-659.19"/>
</g>
<!-- 2067588386112 -->
<g id="node22" class="node">
<title>2067588386112</title>
<ellipse fill="none" stroke="black" cx="1007.85" cy="-612" rx="139.38" ry="18"/>
<text text-anchor="middle" x="1007.85" y="-606" font-family="Times New Roman,serif" font-size="15.00">Refer to the competent authority</text>
</g>
<!-- 2067588393024&#45;&#45;2067588386112 -->
<g id="edge19" class="edge">
<title>2067588393024&#45;&#45;2067588386112</title>
<path fill="none" stroke="black" d="M615.46,-553.83C673.81,-562.5 818.4,-583.99 914.55,-598.28"/>
</g>
<!-- 2067588383808 -->
<g id="node23" class="node">
<title>2067588383808</title>
<ellipse fill="none" stroke="black" cx="1007.85" cy="-558" rx="27" ry="18"/>
<text text-anchor="middle" x="1007.85" y="-552" font-family="Times New Roman,serif" font-size="15.00">xor</text>
</g>
<!-- 2067588393024&#45;&#45;2067588383808 -->
<g id="edge22" class="edge">
<title>2067588393024&#45;&#45;2067588383808</title>
<path fill="none" stroke="black" d="M616.09,-550.51C691.22,-551.95 905.56,-556.06 980.55,-557.5"/>
</g>
<!-- 2067588389424 -->
<g id="node26" class="node">
<title>2067588389424</title>
<ellipse fill="none" stroke="black" cx="1007.85" cy="-504" rx="147.57" ry="18"/>
<text text-anchor="middle" x="1007.85" y="-498" font-family="Times New Roman,serif" font-size="15.00">Ordinary procedure without MER</text>
</g>
<!-- 2067588393024&#45;&#45;2067588389424 -->
<g id="edge23" class="edge">
<title>2067588393024&#45;&#45;2067588389424</title>
<path fill="none" stroke="black" d="M615.77,-547.12C670.8,-541.05 801.5,-526.64 896.7,-516.15"/>
</g>
<!-- 2067588385152 -->
<g id="node27" class="node">
<title>2067588385152</title>
<ellipse fill="none" stroke="black" cx="1007.85" cy="-450" rx="141.43" ry="18"/>
<text text-anchor="middle" x="1007.85" y="-444" font-family="Times New Roman,serif" font-size="15.00">Produce procedure confirmation</text>
</g>
<!-- 2067588393024&#45;&#45;2067588385152 -->
<g id="edge24" class="edge">
<title>2067588393024&#45;&#45;2067588385152</title>
<path fill="none" stroke="black" d="M614.52,-544.04C677.49,-528.95 845.04,-488.79 939.55,-466.13"/>
</g>
<!-- 2067588384480 -->
<g id="node28" class="node">
<title>2067588384480</title>
<ellipse fill="none" stroke="black" cx="1007.85" cy="-396" rx="27" ry="18"/>
<text text-anchor="middle" x="1007.85" y="-390" font-family="Times New Roman,serif" font-size="15.00">xor</text>
</g>
<!-- 2067588393024&#45;&#45;2067588384480 -->
<g id="edge32" class="edge">
<title>2067588393024&#45;&#45;2067588384480</title>
<path fill="none" stroke="black" d="M613,-541.39C686.18,-514.37 910.73,-431.48 983.69,-404.55"/>
</g>
<!-- 2067588388176 -->
<g id="node36" class="node">
<title>2067588388176</title>
<ellipse fill="none" stroke="black" cx="1007.85" cy="-342" rx="129.15" ry="18"/>
<text text-anchor="middle" x="1007.85" y="-336" font-family="Times New Roman,serif" font-size="15.00">Commence WABOprocedure</text>
</g>
<!-- 2067588393024&#45;&#45;2067588388176 -->
<g id="edge33" class="edge">
<title>2067588393024&#45;&#45;2067588388176</title>
<path fill="none" stroke="black" d="M610.94,-539.4C678.26,-505.83 887.28,-401.61 971.32,-359.71"/>
</g>
<!-- 2067588389520 -->
<g id="node17" class="node">
<title>2067588389520</title>
<ellipse fill="black" stroke="black" cx="1346.16" cy="-685" rx="2.7" ry="2.7"/>
</g>
<!-- 2067588393456&#45;&#45;2067588389520 -->
<g id="edge13" class="edge">
<title>2067588393456&#45;&#45;2067588389520</title>
<path fill="none" stroke="black" d="M1035.24,-667.49C1110.18,-671.73 1320.38,-683.6 1343.15,-684.89"/>
</g>
<!-- 2067588383184 -->
<g id="node18" class="node">
<title>2067588383184</title>
<ellipse fill="none" stroke="black" cx="1346.16" cy="-646" rx="27" ry="18"/>
<text text-anchor="middle" x="1346.16" y="-640" font-family="Times New Roman,serif" font-size="15.00">seq</text>
</g>
<!-- 2067588393456&#45;&#45;2067588383184 -->
<g id="edge17" class="edge">
<title>2067588393456&#45;&#45;2067588383184</title>
<path fill="none" stroke="black" d="M1035.24,-664.43C1098.11,-660.69 1256.15,-651.29 1318.89,-647.56"/>
</g>
<!-- 2067588391056 -->
<g id="node19" class="node">
<title>2067588391056</title>
<ellipse fill="none" stroke="black" cx="1644.54" cy="-700" rx="142.97" ry="18"/>
<text text-anchor="middle" x="1644.54" y="-694" font-family="Times New Roman,serif" font-size="15.00">Applicant plays stakeholder role</text>
</g>
<!-- 2067588383184&#45;&#45;2067588391056 -->
<g id="edge14" class="edge">
<title>2067588383184&#45;&#45;2067588391056</title>
<path fill="none" stroke="black" d="M1372.68,-650.65C1414.11,-658.2 1497.71,-673.43 1561.14,-684.99"/>
</g>
<!-- 2067588394512 -->
<g id="node20" class="node">
<title>2067588394512</title>
<ellipse fill="none" stroke="black" cx="1644.54" cy="-646" rx="73.36" ry="18"/>
<text text-anchor="middle" x="1644.54" y="-640" font-family="Times New Roman,serif" font-size="15.00">Stop on request</text>
</g>
<!-- 2067588383184&#45;&#45;2067588394512 -->
<g id="edge15" class="edge">
<title>2067588383184&#45;&#45;2067588394512</title>
<path fill="none" stroke="black" d="M1373.46,-646C1417.31,-646 1506.83,-646 1570.79,-646"/>
</g>
<!-- 2067588390432 -->
<g id="node21" class="node">
<title>2067588390432</title>
<ellipse fill="none" stroke="black" cx="1644.54" cy="-592" rx="128.63" ry="18"/>
<text text-anchor="middle" x="1644.54" y="-586" font-family="Times New Roman,serif" font-size="15.00">Evaluate provisional charges</text>
</g>
<!-- 2067588383184&#45;&#45;2067588390432 -->
<g id="edge16" class="edge">
<title>2067588383184&#45;&#45;2067588390432</title>
<path fill="none" stroke="black" d="M1372.68,-641.35C1414.81,-633.67 1500.56,-618.05 1564.35,-606.43"/>
</g>
<!-- 2067588397056 -->
<g id="node24" class="node">
<title>2067588397056</title>
<ellipse fill="black" stroke="black" cx="1346.16" cy="-573" rx="2.7" ry="2.7"/>
</g>
<!-- 2067588383808&#45;&#45;2067588397056 -->
<g id="edge20" class="edge">
<title>2067588383808&#45;&#45;2067588397056</title>
<path fill="none" stroke="black" d="M1035.24,-559.18C1110.18,-562.52 1320.38,-571.9 1343.15,-572.91"/>
</g>
<!-- 2067588395904 -->
<g id="node25" class="node">
<title>2067588395904</title>
<ellipse fill="none" stroke="black" cx="1346.16" cy="-534" rx="119.42" ry="18"/>
<text text-anchor="middle" x="1346.16" y="-528" font-family="Times New Roman,serif" font-size="15.00">Update BAG administrator</text>
</g>
<!-- 2067588383808&#45;&#45;2067588395904 -->
<g id="edge21" class="edge">
<title>2067588383808&#45;&#45;2067588395904</title>
<path fill="none" stroke="black" d="M1034.96,-556.14C1077.94,-553.07 1165.94,-546.79 1237.27,-541.7"/>
</g>
<!-- 2067588390048 -->
<g id="node29" class="node">
<title>2067588390048</title>
<ellipse fill="black" stroke="black" cx="1346.16" cy="-415" rx="2.7" ry="2.7"/>
</g>
<!-- 2067588384480&#45;&#45;2067588390048 -->
<g id="edge25" class="edge">
<title>2067588384480&#45;&#45;2067588390048</title>
<path fill="none" stroke="black" d="M1035.24,-397.49C1110.18,-401.73 1320.38,-413.6 1343.15,-414.89"/>
</g>
<!-- 2067588394752 -->
<g id="node30" class="node">
<title>2067588394752</title>
<ellipse fill="none" stroke="black" cx="1346.16" cy="-376" rx="27" ry="18"/>
<text text-anchor="middle" x="1346.16" y="-370" font-family="Times New Roman,serif" font-size="15.00">seq</text>
</g>
<!-- 2067588384480&#45;&#45;2067588394752 -->
<g id="edge31" class="edge">
<title>2067588384480&#45;&#45;2067588394752</title>
<path fill="none" stroke="black" d="M1035.24,-394.43C1098.11,-390.69 1256.15,-381.29 1318.89,-377.56"/>
</g>
<!-- 2067588384432 -->
<g id="node31" class="node">
<title>2067588384432</title>
<ellipse fill="none" stroke="black" cx="1644.54" cy="-430" rx="51.86" ry="18"/>
<text text-anchor="middle" x="1644.54" y="-424" font-family="Times New Roman,serif" font-size="15.00">Broadcast</text>
</g>
<!-- 2067588394752&#45;&#45;2067588384432 -->
<g id="edge26" class="edge">
<title>2067588394752&#45;&#45;2067588384432</title>
<path fill="none" stroke="black" d="M1372.68,-380.65C1422.81,-389.78 1534.72,-410.17 1597.88,-421.68"/>
</g>
<!-- 2067588383040 -->
<g id="node32" class="node">
<title>2067588383040</title>
<ellipse fill="none" stroke="black" cx="1644.54" cy="-376" rx="121.47" ry="18"/>
<text text-anchor="middle" x="1644.54" y="-370" font-family="Times New Roman,serif" font-size="15.00">Form publication document</text>
</g>
<!-- 2067588394752&#45;&#45;2067588383040 -->
<g id="edge27" class="edge">
<title>2067588394752&#45;&#45;2067588383040</title>
<path fill="none" stroke="black" d="M1373.46,-376C1407.11,-376 1467.65,-376 1522.9,-376"/>
</g>
<!-- 2067588390816 -->
<g id="node33" class="node">
<title>2067588390816</title>
<ellipse fill="none" stroke="black" cx="1644.54" cy="-322" rx="27" ry="18"/>
<text text-anchor="middle" x="1644.54" y="-316" font-family="Times New Roman,serif" font-size="15.00">xor</text>
</g>
<!-- 2067588394752&#45;&#45;2067588390816 -->
<g id="edge30" class="edge">
<title>2067588394752&#45;&#45;2067588390816</title>
<path fill="none" stroke="black" d="M1372.68,-371.35C1428.71,-361.14 1561.91,-336.87 1617.97,-326.66"/>
</g>
<!-- 2067589683184 -->
<g id="node34" class="node">
<title>2067589683184</title>
<ellipse fill="black" stroke="black" cx="1935.76" cy="-342" rx="2.7" ry="2.7"/>
</g>
<!-- 2067588390816&#45;&#45;2067589683184 -->
<g id="edge28" class="edge">
<title>2067588390816&#45;&#45;2067589683184</title>
<path fill="none" stroke="black" d="M1671.72,-323.81C1738.46,-328.43 1911.25,-340.37 1932.59,-341.85"/>
</g>
<!-- 2067589691536 -->
<g id="node35" class="node">
<title>2067589691536</title>
<ellipse fill="none" stroke="black" cx="1935.76" cy="-303" rx="112.26" ry="18"/>
<text text-anchor="middle" x="1935.76" y="-297" font-family="Times New Roman,serif" font-size="15.00">Register publication date</text>
</g>
<!-- 2067588390816&#45;&#45;2067589691536 -->
<g id="edge29" class="edge">
<title>2067588390816&#45;&#45;2067589691536</title>
<path fill="none" stroke="black" d="M1671.72,-320.28C1707.6,-317.92 1774.11,-313.55 1831.27,-309.8"/>
</g>
<!-- 2067588385344 -->
<g id="node38" class="node">
<title>2067588385344</title>
<ellipse fill="black" stroke="black" cx="588.67" cy="-511" rx="2.7" ry="2.7"/>
</g>
<!-- 2067588385968&#45;&#45;2067588385344 -->
<g id="edge36" class="edge">
<title>2067588385968&#45;&#45;2067588385344</title>
<path fill="none" stroke="black" d="M248.48,-511C328.02,-511 562.18,-511 585.75,-511"/>
</g>
<!-- 2067588391296 -->
<g id="node39" class="node">
<title>2067588391296</title>
<ellipse fill="none" stroke="black" cx="588.67" cy="-472" rx="154.22" ry="18"/>
<text text-anchor="middle" x="588.67" y="-466" font-family="Times New Roman,serif" font-size="15.00">Inspect field for phased application</text>
</g>
<!-- 2067588385968&#45;&#45;2067588391296 -->
<g id="edge37" class="edge">
<title>2067588385968&#45;&#45;2067588391296</title>
<path fill="none" stroke="black" d="M248.18,-508.23C294.42,-503.29 393.54,-492.72 472.8,-484.26"/>
</g>
<!-- 2067588394608 -->
<g id="node41" class="node">
<title>2067588394608</title>
<ellipse fill="black" stroke="black" cx="588.67" cy="-433" rx="2.7" ry="2.7"/>
</g>
<!-- 2067588383760&#45;&#45;2067588394608 -->
<g id="edge39" class="edge">
<title>2067588383760&#45;&#45;2067588394608</title>
<path fill="none" stroke="black" d="M248.48,-433C328.02,-433 562.18,-433 585.75,-433"/>
</g>
<!-- 2067588396144 -->
<g id="node42" class="node">
<title>2067588396144</title>
<ellipse fill="none" stroke="black" cx="588.67" cy="-394" rx="157.3" ry="18"/>
<text text-anchor="middle" x="588.67" y="-388" font-family="Times New Roman,serif" font-size="15.00">Register senddate acknowledgement</text>
</g>
<!-- 2067588383760&#45;&#45;2067588396144 -->
<g id="edge40" class="edge">
<title>2067588383760&#45;&#45;2067588396144</title>
<path fill="none" stroke="black" d="M248.18,-430.23C294.17,-425.32 392.49,-414.83 471.54,-406.39"/>
</g>
<!-- 2067588392448 -->
<g id="node44" class="node">
<title>2067588392448</title>
<ellipse fill="black" stroke="black" cx="588.67" cy="-327" rx="2.7" ry="2.7"/>
</g>
<!-- 2067588398976&#45;&#45;2067588392448 -->
<g id="edge42" class="edge">
<title>2067588398976&#45;&#45;2067588392448</title>
<path fill="none" stroke="black" d="M248.18,-290.77C327.44,-299.23 562.12,-324.27 585.75,-326.79"/>
</g>
<!-- 2067588385440 -->
<g id="node45" class="node">
<title>2067588385440</title>
<ellipse fill="none" stroke="black" cx="588.67" cy="-288" rx="200.29" ry="18"/>
<text text-anchor="middle" x="588.67" y="-282" font-family="Times New Roman,serif" font-size="15.00">Permit not needed or only notification required</text>
</g>
<!-- 2067588398976&#45;&#45;2067588385440 -->
<g id="edge43" class="edge">
<title>2067588398976&#45;&#45;2067588385440</title>
<path fill="none" stroke="black" d="M248.48,-288C279.09,-288 332.58,-288 388.17,-288"/>
</g>
<!-- 2067588397200 -->
<g id="node46" class="node">
<title>2067588397200</title>
<ellipse fill="none" stroke="black" cx="588.67" cy="-234" rx="27" ry="18"/>
<text text-anchor="middle" x="588.67" y="-228" font-family="Times New Roman,serif" font-size="15.00">seq</text>
</g>
<!-- 2067588398976&#45;&#45;2067588397200 -->
<g id="edge47" class="edge">
<title>2067588398976&#45;&#45;2067588397200</title>
<path fill="none" stroke="black" d="M247.89,-284.2C315,-274.29 494.93,-247.7 562,-237.79"/>
</g>
<!-- 2067588383280 -->
<g id="node50" class="node">
<title>2067588383280</title>
<ellipse fill="none" stroke="black" cx="588.67" cy="-99" rx="27" ry="18"/>
<text text-anchor="middle" x="588.67" y="-93" font-family="Times New Roman,serif" font-size="15.00">seq</text>
</g>
<!-- 2067588398976&#45;&#45;2067588383280 -->
<g id="edge51" class="edge">
<title>2067588398976&#45;&#45;2067588383280</title>
<path fill="none" stroke="black" d="M243.16,-277.16C307.62,-243.82 502.45,-143.07 566.8,-109.8"/>
</g>
<!-- 2067588389904 -->
<g id="node47" class="node">
<title>2067588389904</title>
<ellipse fill="none" stroke="black" cx="1007.85" cy="-288" rx="131.71" ry="18"/>
<text text-anchor="middle" x="1007.85" y="-282" font-family="Times New Roman,serif" font-size="15.00">Action by competent authority</text>
</g>
<!-- 2067588397200&#45;&#45;2067588389904 -->
<g id="edge44" class="edge">
<title>2067588397200&#45;&#45;2067588389904</title>
<path fill="none" stroke="black" d="M615.46,-237.34C673.01,-244.79 814.46,-263.1 910.57,-275.54"/>
</g>
<!-- 2067589683520 -->
<g id="node48" class="node">
<title>2067589683520</title>
<ellipse fill="none" stroke="black" cx="1007.85" cy="-234" rx="153.71" ry="18"/>
<text text-anchor="middle" x="1007.85" y="-228" font-family="Times New Roman,serif" font-size="15.00">Create termination request message</text>
</g>
<!-- 2067588397200&#45;&#45;2067589683520 -->
<g id="edge45" class="edge">
<title>2067588397200&#45;&#45;2067589683520</title>
<path fill="none" stroke="black" d="M616.09,-234C663.33,-234 765.59,-234 853.65,-234"/>
</g>
<!-- 2067589685968 -->
<g id="node49" class="node">
<title>2067589685968</title>
<ellipse fill="none" stroke="black" cx="1007.85" cy="-180" rx="179.82" ry="18"/>
<text text-anchor="middle" x="1007.85" y="-174" font-family="Times New Roman,serif" font-size="15.00">Premature termination of procedure phase</text>
</g>
<!-- 2067588397200&#45;&#45;2067589685968 -->
<g id="edge46" class="edge">
<title>2067588397200&#45;&#45;2067589685968</title>
<path fill="none" stroke="black" d="M615.46,-230.66C670.08,-223.59 800.27,-206.74 895.55,-194.41"/>
</g>
<!-- 2067589685344 -->
<g id="node51" class="node">
<title>2067589685344</title>
<ellipse fill="none" stroke="black" cx="1007.85" cy="-126" rx="119.42" ry="18"/>
<text text-anchor="middle" x="1007.85" y="-120" font-family="Times New Roman,serif" font-size="15.00">Phase procedure cancelled</text>
</g>
<!-- 2067588383280&#45;&#45;2067589685344 -->
<g id="edge48" class="edge">
<title>2067588383280&#45;&#45;2067589685344</title>
<path fill="none" stroke="black" d="M615.77,-100.69C670.89,-104.26 801.92,-112.74 897.16,-118.9"/>
</g>
<!-- 2067589689232 -->
<g id="node52" class="node">
<title>2067589689232</title>
<ellipse fill="none" stroke="black" cx="1007.85" cy="-72" rx="96.39" ry="18"/>
<text text-anchor="middle" x="1007.85" y="-66" font-family="Times New Roman,serif" font-size="15.00">Register the deadline</text>
</g>
<!-- 2067588383280&#45;&#45;2067589689232 -->
<g id="edge49" class="edge">
<title>2067588383280&#45;&#45;2067589689232</title>
<path fill="none" stroke="black" d="M615.77,-97.31C674.64,-93.5 820.08,-84.09 916.05,-77.88"/>
</g>
<!-- 2067589688224 -->
<g id="node53" class="node">
<title>2067589688224</title>
<ellipse fill="none" stroke="black" cx="1007.85" cy="-18" rx="84.11" ry="18"/>
<text text-anchor="middle" x="1007.85" y="-12" font-family="Times New Roman,serif" font-size="15.00">Conclude the case</text>
</g>
<!-- 2067588383280&#45;&#45;2067589688224 -->
<g id="edge50" class="edge">
<title>2067588383280&#45;&#45;2067589688224</title>
<path fill="none" stroke="black" d="M615.14,-94.06C679.71,-81.52 851.29,-48.2 944.49,-30.11"/>
</g>
</g>
</svg>
