<?xml version="1.0" encoding="UTF-8" standalone="no"?>
<!DOCTYPE svg PUBLIC "-//W3C//DTD SVG 1.1//EN"
 "http://www.w3.org/Graphics/SVG/1.1/DTD/svg11.dtd">
<!-- Generated by graphviz version 11.0.0 (20240428.1522)
 -->
<!-- Title: pt Pages: 1 -->
<svg width="2353pt" height="986pt"
 viewBox="0.00 0.00 2352.79 986.00" xmlns="http://www.w3.org/2000/svg" xmlns:xlink="http://www.w3.org/1999/xlink">
<g id="graph0" class="graph" transform="scale(1 1) rotate(0) translate(4 982)">
<title>pt</title>
<polygon fill="white" stroke="none" points="-4,4 -4,-982 2348.79,-982 2348.79,4 -4,4"/>
<!-- 2067591404560 -->
<g id="node1" class="node">
<title>2067591404560</title>
<ellipse fill="none" stroke="black" cx="27" cy="-475" rx="27" ry="18"/>
<text text-anchor="middle" x="27" y="-469" font-family="Times New Roman,serif" font-size="15.00">seq</text>
</g>
<!-- 2067591413152 -->
<g id="node2" class="node">
<title>2067591413152</title>
<ellipse fill="none" stroke="black" cx="117" cy="-522" rx="27" ry="18"/>
<text text-anchor="middle" x="117" y="-516" font-family="Times New Roman,serif" font-size="15.00">and</text>
</g>
<!-- 2067591404560&#45;&#45;2067591413152 -->
<g id="edge68" class="edge">
<title>2067591404560&#45;&#45;2067591413152</title>
<path fill="none" stroke="black" d="M48.85,-486.14C62.88,-493.63 81.3,-503.47 95.29,-510.94"/>
</g>
<!-- 2067591175232 -->
<g id="node70" class="node">
<title>2067591175232</title>
<ellipse fill="none" stroke="black" cx="117" cy="-429" rx="27" ry="18"/>
<text text-anchor="middle" x="117" y="-423" font-family="Times New Roman,serif" font-size="15.00">xor</text>
</g>
<!-- 2067591404560&#45;&#45;2067591175232 -->
<g id="edge71" class="edge">
<title>2067591404560&#45;&#45;2067591175232</title>
<path fill="none" stroke="black" d="M48.85,-464.1C62.78,-456.82 81.03,-447.28 94.99,-439.98"/>
</g>
<!-- 2067591404944 -->
<g id="node3" class="node">
<title>2067591404944</title>
<ellipse fill="none" stroke="black" cx="311.19" cy="-630" rx="129.15" ry="18"/>
<text text-anchor="middle" x="311.19" y="-624" font-family="Times New Roman,serif" font-size="15.00">Commence WABOprocedure</text>
</g>
<!-- 2067591413152&#45;&#45;2067591404944 -->
<g id="edge1" class="edge">
<title>2067591413152&#45;&#45;2067591404944</title>
<path fill="none" stroke="black" d="M138.2,-533.35C171.65,-552.15 238.76,-589.86 278.54,-612.21"/>
</g>
<!-- 2067591411424 -->
<g id="node4" class="node">
<title>2067591411424</title>
<ellipse fill="none" stroke="black" cx="311.19" cy="-576" rx="114.82" ry="18"/>
<text text-anchor="middle" x="311.19" y="-570" font-family="Times New Roman,serif" font-size="15.00">Step application received</text>
</g>
<!-- 2067591413152&#45;&#45;2067591411424 -->
<g id="edge2" class="edge">
<title>2067591413152&#45;&#45;2067591411424</title>
<path fill="none" stroke="black" d="M142.34,-528.84C170.12,-536.64 216.48,-549.67 253.45,-560.06"/>
</g>
<!-- 2067591405376 -->
<g id="node5" class="node">
<title>2067591405376</title>
<ellipse fill="none" stroke="black" cx="311.19" cy="-522" rx="131.19" ry="18"/>
<text text-anchor="middle" x="311.19" y="-516" font-family="Times New Roman,serif" font-size="15.00">Enter submission date request</text>
</g>
<!-- 2067591413152&#45;&#45;2067591405376 -->
<g id="edge3" class="edge">
<title>2067591413152&#45;&#45;2067591405376</title>
<path fill="none" stroke="black" d="M144.32,-522C154.29,-522 166.44,-522 179.58,-522"/>
</g>
<!-- 2067591405808 -->
<g id="node6" class="node">
<title>2067591405808</title>
<ellipse fill="none" stroke="black" cx="311.19" cy="-468" rx="27" ry="18"/>
<text text-anchor="middle" x="311.19" y="-462" font-family="Times New Roman,serif" font-size="15.00">seq</text>
</g>
<!-- 2067591413152&#45;&#45;2067591405808 -->
<g id="edge67" class="edge">
<title>2067591413152&#45;&#45;2067591405808</title>
<path fill="none" stroke="black" d="M142.34,-515.16C179.21,-504.8 248.82,-485.24 285.75,-474.87"/>
</g>
<!-- 2067591404512 -->
<g id="node7" class="node">
<title>2067591404512</title>
<ellipse fill="none" stroke="black" cx="635.68" cy="-801" rx="98.44" ry="18"/>
<text text-anchor="middle" x="635.68" y="-795" font-family="Times New Roman,serif" font-size="15.00">OLO messages active</text>
</g>
<!-- 2067591405808&#45;&#45;2067591404512 -->
<g id="edge4" class="edge">
<title>2067591405808&#45;&#45;2067591404512</title>
<path fill="none" stroke="black" d="M326.89,-483.17C379.75,-537.76 560.12,-724 617.21,-782.95"/>
</g>
<!-- 2067591404080 -->
<g id="node8" class="node">
<title>2067591404080</title>
<ellipse fill="none" stroke="black" cx="635.68" cy="-747" rx="27" ry="18"/>
<text text-anchor="middle" x="635.68" y="-741" font-family="Times New Roman,serif" font-size="15.00">xor</text>
</g>
<!-- 2067591405808&#45;&#45;2067591404080 -->
<g id="edge26" class="edge">
<title>2067591405808&#45;&#45;2067591404080</title>
<path fill="none" stroke="black" d="M328.63,-482.22C383.95,-530.08 563.01,-684.99 618.28,-732.81"/>
</g>
<!-- 2067589977280 -->
<g id="node30" class="node">
<title>2067589977280</title>
<ellipse fill="none" stroke="black" cx="635.68" cy="-654" rx="27" ry="18"/>
<text text-anchor="middle" x="635.68" y="-648" font-family="Times New Roman,serif" font-size="15.00">xor</text>
</g>
<!-- 2067591405808&#45;&#45;2067589977280 -->
<g id="edge29" class="edge">
<title>2067591405808&#45;&#45;2067589977280</title>
<path fill="none" stroke="black" d="M332.37,-479.64C390.28,-513.04 556.61,-608.97 614.52,-642.37"/>
</g>
<!-- 2067589978576 -->
<g id="node33" class="node">
<title>2067589978576</title>
<ellipse fill="none" stroke="black" cx="635.68" cy="-527" rx="27" ry="18"/>
<text text-anchor="middle" x="635.68" y="-521" font-family="Times New Roman,serif" font-size="15.00">and</text>
</g>
<!-- 2067591405808&#45;&#45;2067589978576 -->
<g id="edge41" class="edge">
<title>2067591405808&#45;&#45;2067589978576</title>
<path fill="none" stroke="black" d="M337.77,-472.68C398.1,-483.72 548.77,-511.28 609.11,-522.32"/>
</g>
<!-- 2067589972960 -->
<g id="node45" class="node">
<title>2067589972960</title>
<ellipse fill="none" stroke="black" cx="635.68" cy="-468" rx="27" ry="18"/>
<text text-anchor="middle" x="635.68" y="-462" font-family="Times New Roman,serif" font-size="15.00">xor</text>
</g>
<!-- 2067591405808&#45;&#45;2067589972960 -->
<g id="edge44" class="edge">
<title>2067591405808&#45;&#45;2067589972960</title>
<path fill="none" stroke="black" d="M338.58,-468C399.21,-468 547.84,-468 608.38,-468"/>
</g>
<!-- 2067589976848 -->
<g id="node48" class="node">
<title>2067589976848</title>
<ellipse fill="none" stroke="black" cx="635.68" cy="-410" rx="27" ry="18"/>
<text text-anchor="middle" x="635.68" y="-404" font-family="Times New Roman,serif" font-size="15.00">xor</text>
</g>
<!-- 2067591405808&#45;&#45;2067589976848 -->
<g id="edge47" class="edge">
<title>2067591405808&#45;&#45;2067589976848</title>
<path fill="none" stroke="black" d="M337.77,-463.4C398.1,-452.55 548.77,-425.45 609.11,-414.6"/>
</g>
<!-- 2067589985392 -->
<g id="node51" class="node">
<title>2067589985392</title>
<ellipse fill="none" stroke="black" cx="635.68" cy="-344" rx="27" ry="18"/>
<text text-anchor="middle" x="635.68" y="-338" font-family="Times New Roman,serif" font-size="15.00">xor</text>
</g>
<!-- 2067591405808&#45;&#45;2067589985392 -->
<g id="edge50" class="edge">
<title>2067591405808&#45;&#45;2067589985392</title>
<path fill="none" stroke="black" d="M335.13,-459.18C394.41,-436.39 552.25,-375.69 611.65,-352.86"/>
</g>
<!-- 2067589985104 -->
<g id="node54" class="node">
<title>2067589985104</title>
<ellipse fill="none" stroke="black" cx="635.68" cy="-290" rx="157.3" ry="18"/>
<text text-anchor="middle" x="635.68" y="-284" font-family="Times New Roman,serif" font-size="15.00">Register senddate acknowledgement</text>
</g>
<!-- 2067591405808&#45;&#45;2067589985104 -->
<g id="edge51" class="edge">
<title>2067591405808&#45;&#45;2067589985104</title>
<path fill="none" stroke="black" d="M332.37,-456.87C386.56,-426.95 535.67,-344.65 602.06,-308"/>
</g>
<!-- 2067591170048 -->
<g id="node55" class="node">
<title>2067591170048</title>
<ellipse fill="none" stroke="black" cx="635.68" cy="-206" rx="27" ry="18"/>
<text text-anchor="middle" x="635.68" y="-200" font-family="Times New Roman,serif" font-size="15.00">xor</text>
</g>
<!-- 2067591405808&#45;&#45;2067591170048 -->
<g id="edge66" class="edge">
<title>2067591405808&#45;&#45;2067591170048</title>
<path fill="none" stroke="black" d="M329.08,-454.28C384.68,-409.11 561.66,-265.33 617.58,-219.9"/>
</g>
<!-- 2067591401440 -->
<g id="node9" class="node">
<title>2067591401440</title>
<ellipse fill="black" stroke="black" cx="1029.27" cy="-810" rx="2.7" ry="2.7"/>
</g>
<!-- 2067591404080&#45;&#45;2067591401440 -->
<g id="edge5" class="edge">
<title>2067591404080&#45;&#45;2067591401440</title>
<path fill="none" stroke="black" d="M662.38,-751.13C745.07,-764.44 1000.45,-805.52 1026.17,-809.66"/>
</g>
<!-- 2067591401008 -->
<g id="node10" class="node">
<title>2067591401008</title>
<ellipse fill="none" stroke="black" cx="1029.27" cy="-771" rx="27" ry="18"/>
<text text-anchor="middle" x="1029.27" y="-765" font-family="Times New Roman,serif" font-size="15.00">seq</text>
</g>
<!-- 2067591404080&#45;&#45;2067591401008 -->
<g id="edge25" class="edge">
<title>2067591404080&#45;&#45;2067591401008</title>
<path fill="none" stroke="black" d="M662.98,-748.61C734.32,-752.98 930.88,-765.03 1002.08,-769.4"/>
</g>
<!-- 2067591398848 -->
<g id="node11" class="node">
<title>2067591398848</title>
<ellipse fill="none" stroke="black" cx="1413.12" cy="-906" rx="142.97" ry="18"/>
<text text-anchor="middle" x="1413.12" y="-900" font-family="Times New Roman,serif" font-size="15.00">Applicant plays stakeholder role</text>
</g>
<!-- 2067591401008&#45;&#45;2067591398848 -->
<g id="edge6" class="edge">
<title>2067591401008&#45;&#45;2067591398848</title>
<path fill="none" stroke="black" d="M1053.58,-779.24C1114.62,-800.82 1280.17,-859.35 1363.22,-888.71"/>
</g>
<!-- 2067591398416 -->
<g id="node12" class="node">
<title>2067591398416</title>
<ellipse fill="none" stroke="black" cx="1413.12" cy="-852" rx="27" ry="18"/>
<text text-anchor="middle" x="1413.12" y="-846" font-family="Times New Roman,serif" font-size="15.00">xor</text>
</g>
<!-- 2067591401008&#45;&#45;2067591398416 -->
<g id="edge13" class="edge">
<title>2067591401008&#45;&#45;2067591398416</title>
<path fill="none" stroke="black" d="M1055.32,-776.31C1124.51,-790.99 1317.68,-831.97 1386.98,-846.67"/>
</g>
<!-- 2067589983520 -->
<g id="node19" class="node">
<title>2067589983520</title>
<ellipse fill="none" stroke="black" cx="1413.12" cy="-798" rx="73.36" ry="18"/>
<text text-anchor="middle" x="1413.12" y="-792" font-family="Times New Roman,serif" font-size="15.00">Stop on request</text>
</g>
<!-- 2067591401008&#45;&#45;2067589983520 -->
<g id="edge14" class="edge">
<title>2067591401008&#45;&#45;2067589983520</title>
<path fill="none" stroke="black" d="M1056.51,-772.86C1114.73,-776.97 1256.31,-786.98 1342.23,-793.06"/>
</g>
<!-- 2067589982896 -->
<g id="node20" class="node">
<title>2067589982896</title>
<ellipse fill="none" stroke="black" cx="1413.12" cy="-744" rx="27" ry="18"/>
<text text-anchor="middle" x="1413.12" y="-738" font-family="Times New Roman,serif" font-size="15.00">xor</text>
</g>
<!-- 2067591401008&#45;&#45;2067589982896 -->
<g id="edge24" class="edge">
<title>2067591401008&#45;&#45;2067589982896</title>
<path fill="none" stroke="black" d="M1056.51,-769.14C1126.36,-764.21 1316.18,-750.78 1385.95,-745.85"/>
</g>
<!-- 2067589977712 -->
<g id="node13" class="node">
<title>2067589977712</title>
<ellipse fill="black" stroke="black" cx="1772.93" cy="-891" rx="2.7" ry="2.7"/>
</g>
<!-- 2067591398416&#45;&#45;2067589977712 -->
<g id="edge7" class="edge">
<title>2067591398416&#45;&#45;2067589977712</title>
<path fill="none" stroke="black" d="M1440.15,-854.84C1517.98,-863.32 1745.15,-888.08 1769.76,-890.76"/>
</g>
<!-- 2067589981168 -->
<g id="node14" class="node">
<title>2067589981168</title>
<ellipse fill="none" stroke="black" cx="1772.93" cy="-852" rx="27" ry="18"/>
<text text-anchor="middle" x="1772.93" y="-846" font-family="Times New Roman,serif" font-size="15.00">seq</text>
</g>
<!-- 2067591398416&#45;&#45;2067589981168 -->
<g id="edge12" class="edge">
<title>2067591398416&#45;&#45;2067589981168</title>
<path fill="none" stroke="black" d="M1440.43,-852C1506.6,-852 1679.37,-852 1745.58,-852"/>
</g>
<!-- 2067589983568 -->
<g id="node15" class="node">
<title>2067589983568</title>
<ellipse fill="none" stroke="black" cx="2164.98" cy="-960" rx="143.48" ry="18"/>
<text text-anchor="middle" x="2164.98" y="-954" font-family="Times New Roman,serif" font-size="15.00">Forward procedure confirmation</text>
</g>
<!-- 2067589981168&#45;&#45;2067589983568 -->
<g id="edge8" class="edge">
<title>2067589981168&#45;&#45;2067589983568</title>
<path fill="none" stroke="black" d="M1798.33,-858.76C1858.7,-875.47 2016.49,-919.16 2103.76,-943.33"/>
</g>
<!-- 2067589985488 -->
<g id="node16" class="node">
<title>2067589985488</title>
<ellipse fill="none" stroke="black" cx="2164.98" cy="-906" rx="179.82" ry="18"/>
<text text-anchor="middle" x="2164.98" y="-900" font-family="Times New Roman,serif" font-size="15.00">Register senddate procedure confirmation</text>
</g>
<!-- 2067589981168&#45;&#45;2067589985488 -->
<g id="edge9" class="edge">
<title>2067589981168&#45;&#45;2067589985488</title>
<path fill="none" stroke="black" d="M1799.82,-855.58C1851.38,-862.72 1969.45,-879.07 2057.25,-891.22"/>
</g>
<!-- 2067589975792 -->
<g id="node17" class="node">
<title>2067589975792</title>
<ellipse fill="none" stroke="black" cx="2164.98" cy="-852" rx="98.44" ry="18"/>
<text text-anchor="middle" x="2164.98" y="-846" font-family="Times New Roman,serif" font-size="15.00">Retrieve missing data</text>
</g>
<!-- 2067589981168&#45;&#45;2067589975792 -->
<g id="edge10" class="edge">
<title>2067589981168&#45;&#45;2067589975792</title>
<path fill="none" stroke="black" d="M1800.13,-852C1853.67,-852 1978.06,-852 2066.46,-852"/>
</g>
<!-- 2067589974208 -->
<g id="node18" class="node">
<title>2067589974208</title>
<ellipse fill="none" stroke="black" cx="2164.98" cy="-798" rx="132.73" ry="18"/>
<text text-anchor="middle" x="2164.98" y="-792" font-family="Times New Roman,serif" font-size="15.00">Log date retrieve missing data</text>
</g>
<!-- 2067589981168&#45;&#45;2067589974208 -->
<g id="edge11" class="edge">
<title>2067589981168&#45;&#45;2067589974208</title>
<path fill="none" stroke="black" d="M1799.82,-848.42C1854.01,-840.91 1981.7,-823.23 2070.47,-810.94"/>
</g>
<!-- 2067589984240 -->
<g id="node21" class="node">
<title>2067589984240</title>
<ellipse fill="none" stroke="black" cx="1772.93" cy="-771" rx="176.23" ry="18"/>
<text text-anchor="middle" x="1772.93" y="-765" font-family="Times New Roman,serif" font-size="15.00">Log date termination request documented</text>
</g>
<!-- 2067589982896&#45;&#45;2067589984240 -->
<g id="edge15" class="edge">
<title>2067589982896&#45;&#45;2067589984240</title>
<path fill="none" stroke="black" d="M1440.43,-745.99C1480.3,-748.99 1558.85,-754.92 1629.48,-760.25"/>
</g>
<!-- 2067589973920 -->
<g id="node22" class="node">
<title>2067589973920</title>
<ellipse fill="none" stroke="black" cx="1772.93" cy="-717" rx="27" ry="18"/>
<text text-anchor="middle" x="1772.93" y="-711" font-family="Times New Roman,serif" font-size="15.00">seq</text>
</g>
<!-- 2067589982896&#45;&#45;2067589973920 -->
<g id="edge18" class="edge">
<title>2067589982896&#45;&#45;2067589973920</title>
<path fill="none" stroke="black" d="M1440.43,-742.01C1506.77,-737.01 1680.21,-723.92 1746.06,-718.95"/>
</g>
<!-- 2067589975312 -->
<g id="node25" class="node">
<title>2067589975312</title>
<ellipse fill="none" stroke="black" cx="1772.93" cy="-582" rx="27" ry="18"/>
<text text-anchor="middle" x="1772.93" y="-576" font-family="Times New Roman,serif" font-size="15.00">seq</text>
</g>
<!-- 2067589982896&#45;&#45;2067589975312 -->
<g id="edge23" class="edge">
<title>2067589982896&#45;&#45;2067589975312</title>
<path fill="none" stroke="black" d="M1436.24,-733.99C1500.38,-704.95 1686.01,-620.9 1749.96,-591.94"/>
</g>
<!-- 2067589972048 -->
<g id="node23" class="node">
<title>2067589972048</title>
<ellipse fill="none" stroke="black" cx="2164.98" cy="-744" rx="131.71" ry="18"/>
<text text-anchor="middle" x="2164.98" y="-738" font-family="Times New Roman,serif" font-size="15.00">Action by competent authority</text>
</g>
<!-- 2067589973920&#45;&#45;2067589972048 -->
<g id="edge16" class="edge">
<title>2067589973920&#45;&#45;2067589972048</title>
<path fill="none" stroke="black" d="M1800.13,-718.81C1849.75,-722.25 1960.19,-729.89 2046.46,-735.87"/>
</g>
<!-- 2067589982032 -->
<g id="node24" class="node">
<title>2067589982032</title>
<ellipse fill="none" stroke="black" cx="2164.98" cy="-690" rx="153.71" ry="18"/>
<text text-anchor="middle" x="2164.98" y="-684" font-family="Times New Roman,serif" font-size="15.00">Create termination request message</text>
</g>
<!-- 2067589973920&#45;&#45;2067589982032 -->
<g id="edge17" class="edge">
<title>2067589973920&#45;&#45;2067589982032</title>
<path fill="none" stroke="black" d="M1800.13,-715.19C1846.93,-711.95 1947.84,-704.96 2031.55,-699.17"/>
</g>
<!-- 2067591179792 -->
<g id="node26" class="node">
<title>2067591179792</title>
<ellipse fill="none" stroke="black" cx="2164.98" cy="-636" rx="128.63" ry="18"/>
<text text-anchor="middle" x="2164.98" y="-630" font-family="Times New Roman,serif" font-size="15.00">Evaluate provisional charges</text>
</g>
<!-- 2067589975312&#45;&#45;2067591179792 -->
<g id="edge19" class="edge">
<title>2067589975312&#45;&#45;2067591179792</title>
<path fill="none" stroke="black" d="M1799.82,-585.58C1854.27,-593.12 1982.91,-610.93 2071.73,-623.23"/>
</g>
<!-- 2067591181424 -->
<g id="node27" class="node">
<title>2067591181424</title>
<ellipse fill="none" stroke="black" cx="2164.98" cy="-582" rx="56.98" ry="18"/>
<text text-anchor="middle" x="2164.98" y="-576" font-family="Times New Roman,serif" font-size="15.00">MER noted</text>
</g>
<!-- 2067589975312&#45;&#45;2067591181424 -->
<g id="edge20" class="edge">
<title>2067589975312&#45;&#45;2067591181424</title>
<path fill="none" stroke="black" d="M1800.13,-582C1862.73,-582 2022.14,-582 2107.69,-582"/>
</g>
<!-- 2067591176768 -->
<g id="node28" class="node">
<title>2067591176768</title>
<ellipse fill="none" stroke="black" cx="2164.98" cy="-528" rx="129.15" ry="18"/>
<text text-anchor="middle" x="2164.98" y="-522" font-family="Times New Roman,serif" font-size="15.00">Regular procedural activities</text>
</g>
<!-- 2067589975312&#45;&#45;2067591176768 -->
<g id="edge21" class="edge">
<title>2067589975312&#45;&#45;2067591176768</title>
<path fill="none" stroke="black" d="M1799.82,-578.42C1854.27,-570.88 1982.91,-553.07 2071.73,-540.77"/>
</g>
<!-- 2067591173024 -->
<g id="node29" class="node">
<title>2067591173024</title>
<ellipse fill="none" stroke="black" cx="2164.98" cy="-474" rx="87.69" ry="18"/>
<text text-anchor="middle" x="2164.98" y="-468" font-family="Times New Roman,serif" font-size="15.00">Phased application</text>
</g>
<!-- 2067589975312&#45;&#45;2067591173024 -->
<g id="edge22" class="edge">
<title>2067589975312&#45;&#45;2067591173024</title>
<path fill="none" stroke="black" d="M1798.33,-575.24C1860.45,-558.04 2025.72,-512.28 2111.17,-488.62"/>
</g>
<!-- 2067589973488 -->
<g id="node31" class="node">
<title>2067589973488</title>
<ellipse fill="black" stroke="black" cx="1029.27" cy="-693" rx="2.7" ry="2.7"/>
</g>
<!-- 2067589977280&#45;&#45;2067589973488 -->
<g id="edge27" class="edge">
<title>2067589977280&#45;&#45;2067589973488</title>
<path fill="none" stroke="black" d="M662.68,-656.59C745.7,-664.86 1000.51,-690.24 1026.18,-692.79"/>
</g>
<!-- 2067589973824 -->
<g id="node32" class="node">
<title>2067589973824</title>
<ellipse fill="none" stroke="black" cx="1029.27" cy="-654" rx="200.29" ry="18"/>
<text text-anchor="middle" x="1029.27" y="-648" font-family="Times New Roman,serif" font-size="15.00">Permit not needed or only notification required</text>
</g>
<!-- 2067589977280&#45;&#45;2067589973824 -->
<g id="edge28" class="edge">
<title>2067589977280&#45;&#45;2067589973824</title>
<path fill="none" stroke="black" d="M662.98,-654C697.97,-654 763.06,-654 828.72,-654"/>
</g>
<!-- 2067591170288 -->
<g id="node34" class="node">
<title>2067591170288</title>
<ellipse fill="none" stroke="black" cx="1029.27" cy="-600" rx="45.21" ry="18"/>
<text text-anchor="middle" x="1029.27" y="-594" font-family="Times New Roman,serif" font-size="15.00">xor loop</text>
</g>
<!-- 2067589978576&#45;&#45;2067591170288 -->
<g id="edge32" class="edge">
<title>2067589978576&#45;&#45;2067591170288</title>
<path fill="none" stroke="black" d="M662.07,-531.73C728.34,-544.09 906.96,-577.39 987.68,-592.43"/>
</g>
<!-- 2067591172208 -->
<g id="node37" class="node">
<title>2067591172208</title>
<ellipse fill="none" stroke="black" cx="1029.27" cy="-527" rx="27" ry="18"/>
<text text-anchor="middle" x="1029.27" y="-521" font-family="Times New Roman,serif" font-size="15.00">seq</text>
</g>
<!-- 2067589978576&#45;&#45;2067591172208 -->
<g id="edge40" class="edge">
<title>2067589978576&#45;&#45;2067591172208</title>
<path fill="none" stroke="black" d="M662.98,-527C734.23,-527 930.41,-527 1001.82,-527"/>
</g>
<!-- 2067591169616 -->
<g id="node35" class="node">
<title>2067591169616</title>
<ellipse fill="none" stroke="black" cx="1413.12" cy="-690" rx="131.19" ry="18"/>
<text text-anchor="middle" x="1413.12" y="-684" font-family="Times New Roman,serif" font-size="15.00">Transmit confirmation receipt</text>
</g>
<!-- 2067591170288&#45;&#45;2067591169616 -->
<g id="edge30" class="edge">
<title>2067591170288&#45;&#45;2067591169616</title>
<path fill="none" stroke="black" d="M1068.98,-609.12C1133.83,-624.41 1265.15,-655.36 1345.2,-674.23"/>
</g>
<!-- 2067591171344 -->
<g id="node36" class="node">
<title>2067591171344</title>
<ellipse fill="black" stroke="black" cx="1413.12" cy="-651" rx="2.7" ry="2.7"/>
</g>
<!-- 2067591170288&#45;&#45;2067591171344 -->
<g id="edge31" class="edge">
<title>2067591170288&#45;&#45;2067591171344</title>
<path fill="none" stroke="black" d="M1072.59,-605.65C1166.58,-618.21 1386.28,-647.55 1410.03,-650.72"/>
</g>
<!-- 2067591175472 -->
<g id="node38" class="node">
<title>2067591175472</title>
<ellipse fill="none" stroke="black" cx="1413.12" cy="-612" rx="139.38" ry="18"/>
<text text-anchor="middle" x="1413.12" y="-606" font-family="Times New Roman,serif" font-size="15.00">Refer to the competent authority</text>
</g>
<!-- 2067591172208&#45;&#45;2067591175472 -->
<g id="edge33" class="edge">
<title>2067591172208&#45;&#45;2067591175472</title>
<path fill="none" stroke="black" d="M1055.32,-532.58C1112.56,-545.32 1254.67,-576.95 1341.28,-596.23"/>
</g>
<!-- 2067591176528 -->
<g id="node39" class="node">
<title>2067591176528</title>
<ellipse fill="none" stroke="black" cx="1413.12" cy="-558" rx="119.42" ry="18"/>
<text text-anchor="middle" x="1413.12" y="-552" font-family="Times New Roman,serif" font-size="15.00">Update BAG administrator</text>
</g>
<!-- 2067591172208&#45;&#45;2067591176528 -->
<g id="edge34" class="edge">
<title>2067591172208&#45;&#45;2067591176528</title>
<path fill="none" stroke="black" d="M1056.51,-529.13C1107.32,-533.26 1221.6,-542.53 1306.98,-549.46"/>
</g>
<!-- 2067591181808 -->
<g id="node40" class="node">
<title>2067591181808</title>
<ellipse fill="none" stroke="black" cx="1413.12" cy="-504" rx="147.57" ry="18"/>
<text text-anchor="middle" x="1413.12" y="-498" font-family="Times New Roman,serif" font-size="15.00">Ordinary procedure without MER</text>
</g>
<!-- 2067591172208&#45;&#45;2067591181808 -->
<g id="edge35" class="edge">
<title>2067591172208&#45;&#45;2067591181808</title>
<path fill="none" stroke="black" d="M1056.51,-525.42C1102.09,-522.67 1198.77,-516.85 1279.83,-511.97"/>
</g>
<!-- 2067591171920 -->
<g id="node41" class="node">
<title>2067591171920</title>
<ellipse fill="none" stroke="black" cx="1413.12" cy="-450" rx="141.43" ry="18"/>
<text text-anchor="middle" x="1413.12" y="-444" font-family="Times New Roman,serif" font-size="15.00">Produce procedure confirmation</text>
</g>
<!-- 2067591172208&#45;&#45;2067591171920 -->
<g id="edge36" class="edge">
<title>2067591172208&#45;&#45;2067591171920</title>
<path fill="none" stroke="black" d="M1055.62,-521.89C1111.84,-510.55 1248.85,-482.92 1335.71,-465.41"/>
</g>
<!-- 2067591181040 -->
<g id="node42" class="node">
<title>2067591181040</title>
<ellipse fill="none" stroke="black" cx="1413.12" cy="-396" rx="51.86" ry="18"/>
<text text-anchor="middle" x="1413.12" y="-390" font-family="Times New Roman,serif" font-size="15.00">Broadcast</text>
</g>
<!-- 2067591172208&#45;&#45;2067591181040 -->
<g id="edge37" class="edge">
<title>2067591172208&#45;&#45;2067591181040</title>
<path fill="none" stroke="black" d="M1053.86,-518.9C1118.26,-496.81 1297.36,-435.37 1375.2,-408.67"/>
</g>
<!-- 2067591179216 -->
<g id="node43" class="node">
<title>2067591179216</title>
<ellipse fill="none" stroke="black" cx="1413.12" cy="-342" rx="121.47" ry="18"/>
<text text-anchor="middle" x="1413.12" y="-336" font-family="Times New Roman,serif" font-size="15.00">Form publication document</text>
</g>
<!-- 2067591172208&#45;&#45;2067591179216 -->
<g id="edge38" class="edge">
<title>2067591172208&#45;&#45;2067591179216</title>
<path fill="none" stroke="black" d="M1051.89,-516.52C1114.68,-486.1 1297.53,-397.52 1375.84,-359.58"/>
</g>
<!-- 2067591183968 -->
<g id="node44" class="node">
<title>2067591183968</title>
<ellipse fill="none" stroke="black" cx="1413.12" cy="-288" rx="90.25" ry="18"/>
<text text-anchor="middle" x="1413.12" y="-282" font-family="Times New Roman,serif" font-size="15.00">Review BAG items</text>
</g>
<!-- 2067591172208&#45;&#45;2067591183968 -->
<g id="edge39" class="edge">
<title>2067591172208&#45;&#45;2067591183968</title>
<path fill="none" stroke="black" d="M1049.73,-514.82C1112.65,-475.44 1310.76,-351.44 1384.29,-305.42"/>
</g>
<!-- 2067591173936 -->
<g id="node46" class="node">
<title>2067591173936</title>
<ellipse fill="black" stroke="black" cx="1029.27" cy="-488" rx="2.7" ry="2.7"/>
</g>
<!-- 2067589972960&#45;&#45;2067591173936 -->
<g id="edge42" class="edge">
<title>2067589972960&#45;&#45;2067591173936</title>
<path fill="none" stroke="black" d="M662.98,-469.34C746.32,-473.6 1000.57,-486.59 1026.18,-487.89"/>
</g>
<!-- 2067591168176 -->
<g id="node47" class="node">
<title>2067591168176</title>
<ellipse fill="none" stroke="black" cx="1029.27" cy="-449" rx="91.27" ry="18"/>
<text text-anchor="middle" x="1029.27" y="-443" font-family="Times New Roman,serif" font-size="15.00">Accomplish request</text>
</g>
<!-- 2067589972960&#45;&#45;2067591168176 -->
<g id="edge43" class="edge">
<title>2067589972960&#45;&#45;2067591168176</title>
<path fill="none" stroke="black" d="M662.98,-466.72C718.8,-464.02 851.28,-457.59 940.39,-453.26"/>
</g>
<!-- 2067591171440 -->
<g id="node49" class="node">
<title>2067591171440</title>
<ellipse fill="black" stroke="black" cx="1029.27" cy="-410" rx="2.7" ry="2.7"/>
</g>
<!-- 2067589976848&#45;&#45;2067591171440 -->
<g id="edge45" class="edge">
<title>2067589976848&#45;&#45;2067591171440</title>
<path fill="none" stroke="black" d="M662.98,-410C746.32,-410 1000.57,-410 1026.18,-410"/>
</g>
<!-- 2067591169184 -->
<g id="node50" class="node">
<title>2067591169184</title>
<ellipse fill="none" stroke="black" cx="1029.27" cy="-371" rx="112.26" ry="18"/>
<text text-anchor="middle" x="1029.27" y="-365" font-family="Times New Roman,serif" font-size="15.00">Register publication date</text>
</g>
<!-- 2067589976848&#45;&#45;2067591169184 -->
<g id="edge46" class="edge">
<title>2067589976848&#45;&#45;2067591169184</title>
<path fill="none" stroke="black" d="M662.68,-407.41C716.74,-402.03 843.67,-389.39 932.71,-380.52"/>
</g>
<!-- 2067591174032 -->
<g id="node52" class="node">
<title>2067591174032</title>
<ellipse fill="black" stroke="black" cx="1029.27" cy="-332" rx="2.7" ry="2.7"/>
</g>
<!-- 2067589985392&#45;&#45;2067591174032 -->
<g id="edge48" class="edge">
<title>2067589985392&#45;&#45;2067591174032</title>
<path fill="none" stroke="black" d="M662.98,-343.19C746.32,-340.64 1000.57,-332.85 1026.18,-332.06"/>
</g>
<!-- 2067591172640 -->
<g id="node53" class="node">
<title>2067591172640</title>
<ellipse fill="none" stroke="black" cx="1029.27" cy="-293" rx="140.41" ry="18"/>
<text text-anchor="middle" x="1029.27" y="-287" font-family="Times New Roman,serif" font-size="15.00">Subcases completeness fulfilled</text>
</g>
<!-- 2067589985392&#45;&#45;2067591172640 -->
<g id="edge49" class="edge">
<title>2067589985392&#45;&#45;2067591172640</title>
<path fill="none" stroke="black" d="M662.68,-340.61C715.97,-333.67 840.07,-317.51 928.89,-305.94"/>
</g>
<!-- 2067591174992 -->
<g id="node56" class="node">
<title>2067591174992</title>
<ellipse fill="black" stroke="black" cx="1029.27" cy="-206" rx="2.7" ry="2.7"/>
</g>
<!-- 2067591170048&#45;&#45;2067591174992 -->
<g id="edge52" class="edge">
<title>2067591170048&#45;&#45;2067591174992</title>
<path fill="none" stroke="black" d="M662.98,-206C746.32,-206 1000.57,-206 1026.18,-206"/>
</g>
<!-- 2067591168800 -->
<g id="node57" class="node">
<title>2067591168800</title>
<ellipse fill="none" stroke="black" cx="1029.27" cy="-135" rx="27" ry="18"/>
<text text-anchor="middle" x="1029.27" y="-129" font-family="Times New Roman,serif" font-size="15.00">seq</text>
</g>
<!-- 2067591170048&#45;&#45;2067591168800 -->
<g id="edge65" class="edge">
<title>2067591170048&#45;&#45;2067591168800</title>
<path fill="none" stroke="black" d="M662.07,-201.4C732.83,-188.57 931.68,-152.51 1002.68,-139.64"/>
</g>
<!-- 2067591177584 -->
<g id="node58" class="node">
<title>2067591177584</title>
<ellipse fill="none" stroke="black" cx="1413.12" cy="-234" rx="27" ry="18"/>
<text text-anchor="middle" x="1413.12" y="-228" font-family="Times New Roman,serif" font-size="15.00">xor</text>
</g>
<!-- 2067591168800&#45;&#45;2067591177584 -->
<g id="edge55" class="edge">
<title>2067591168800&#45;&#45;2067591177584</title>
<path fill="none" stroke="black" d="M1055.03,-141.42C1124.11,-159.33 1318.41,-209.7 1387.42,-227.6"/>
</g>
<!-- 2067591176096 -->
<g id="node61" class="node">
<title>2067591176096</title>
<ellipse fill="none" stroke="black" cx="1413.12" cy="-180" rx="110.72" ry="18"/>
<text text-anchor="middle" x="1413.12" y="-174" font-family="Times New Roman,serif" font-size="15.00">Terminate request notice</text>
</g>
<!-- 2067591168800&#45;&#45;2067591176096 -->
<g id="edge56" class="edge">
<title>2067591168800&#45;&#45;2067591176096</title>
<path fill="none" stroke="black" d="M1056.21,-138.06C1109.93,-144.39 1235.53,-159.19 1322.17,-169.4"/>
</g>
<!-- 2067591177008 -->
<g id="node62" class="node">
<title>2067591177008</title>
<ellipse fill="none" stroke="black" cx="1413.12" cy="-126" rx="27" ry="18"/>
<text text-anchor="middle" x="1413.12" y="-120" font-family="Times New Roman,serif" font-size="15.00">xor</text>
</g>
<!-- 2067591168800&#45;&#45;2067591177008 -->
<g id="edge62" class="edge">
<title>2067591168800&#45;&#45;2067591177008</title>
<path fill="none" stroke="black" d="M1056.51,-134.38C1126.27,-132.74 1315.73,-128.27 1385.69,-126.62"/>
</g>
<!-- 2067591174608 -->
<g id="node68" class="node">
<title>2067591174608</title>
<ellipse fill="none" stroke="black" cx="1413.12" cy="-72" rx="119.42" ry="18"/>
<text text-anchor="middle" x="1413.12" y="-66" font-family="Times New Roman,serif" font-size="15.00">Phase procedure cancelled</text>
</g>
<!-- 2067591168800&#45;&#45;2067591174608 -->
<g id="edge63" class="edge">
<title>2067591168800&#45;&#45;2067591174608</title>
<path fill="none" stroke="black" d="M1055.91,-130.77C1111.26,-121.64 1243.92,-99.75 1330.8,-85.42"/>
</g>
<!-- 2067591180464 -->
<g id="node69" class="node">
<title>2067591180464</title>
<ellipse fill="none" stroke="black" cx="1413.12" cy="-18" rx="84.11" ry="18"/>
<text text-anchor="middle" x="1413.12" y="-12" font-family="Times New Roman,serif" font-size="15.00">Conclude the case</text>
</g>
<!-- 2067591168800&#45;&#45;2067591180464 -->
<g id="edge64" class="edge">
<title>2067591168800&#45;&#45;2067591180464</title>
<path fill="none" stroke="black" d="M1054.44,-127.59C1116.25,-108.65 1280.96,-58.19 1363.53,-32.89"/>
</g>
<!-- 2067591178400 -->
<g id="node59" class="node">
<title>2067591178400</title>
<ellipse fill="black" stroke="black" cx="1772.93" cy="-254" rx="2.7" ry="2.7"/>
</g>
<!-- 2067591177584&#45;&#45;2067591178400 -->
<g id="edge53" class="edge">
<title>2067591177584&#45;&#45;2067591178400</title>
<path fill="none" stroke="black" d="M1440.43,-235.47C1518.55,-239.84 1745.21,-252.51 1769.76,-253.88"/>
</g>
<!-- 2067591168704 -->
<g id="node60" class="node">
<title>2067591168704</title>
<ellipse fill="none" stroke="black" cx="1772.93" cy="-215" rx="143.99" ry="18"/>
<text text-anchor="middle" x="1772.93" y="-209" font-family="Times New Roman,serif" font-size="15.00">Log termination request senddate</text>
</g>
<!-- 2067591177584&#45;&#45;2067591168704 -->
<g id="edge54" class="edge">
<title>2067591177584&#45;&#45;2067591168704</title>
<path fill="none" stroke="black" d="M1440.43,-232.6C1482.23,-230.38 1566.57,-225.9 1639.71,-222.02"/>
</g>
<!-- 2067591181328 -->
<g id="node63" class="node">
<title>2067591181328</title>
<ellipse fill="none" stroke="black" cx="1772.93" cy="-144" rx="96.39" ry="18"/>
<text text-anchor="middle" x="1772.93" y="-138" font-family="Times New Roman,serif" font-size="15.00">Register the deadline</text>
</g>
<!-- 2067591177008&#45;&#45;2067591181328 -->
<g id="edge57" class="edge">
<title>2067591177008&#45;&#45;2067591181328</title>
<path fill="none" stroke="black" d="M1440.43,-127.32C1490.06,-129.82 1599.65,-135.33 1679.27,-139.34"/>
</g>
<!-- 2067591170096 -->
<g id="node64" class="node">
<title>2067591170096</title>
<ellipse fill="none" stroke="black" cx="1772.93" cy="-90" rx="27" ry="18"/>
<text text-anchor="middle" x="1772.93" y="-84" font-family="Times New Roman,serif" font-size="15.00">seq</text>
</g>
<!-- 2067591177008&#45;&#45;2067591170096 -->
<g id="edge61" class="edge">
<title>2067591177008&#45;&#45;2067591170096</title>
<path fill="none" stroke="black" d="M1440.15,-123.38C1506.24,-116.73 1680.02,-99.25 1746.01,-92.61"/>
</g>
<!-- 2067591170672 -->
<g id="node65" class="node">
<title>2067591170672</title>
<ellipse fill="none" stroke="black" cx="2164.98" cy="-144" rx="97.93" ry="18"/>
<text text-anchor="middle" x="2164.98" y="-138" font-family="Times New Roman,serif" font-size="15.00">Phase case dealt with</text>
</g>
<!-- 2067591170096&#45;&#45;2067591170672 -->
<g id="edge58" class="edge">
<title>2067591170096&#45;&#45;2067591170672</title>
<path fill="none" stroke="black" d="M1799.82,-93.58C1857.16,-101.52 1996.78,-120.85 2085.53,-133.14"/>
</g>
<!-- 2067591169376 -->
<g id="node66" class="node">
<title>2067591169376</title>
<ellipse fill="none" stroke="black" cx="2164.98" cy="-90" rx="179.82" ry="18"/>
<text text-anchor="middle" x="2164.98" y="-84" font-family="Times New Roman,serif" font-size="15.00">Premature termination of procedure phase</text>
</g>
<!-- 2067591170096&#45;&#45;2067591169376 -->
<g id="edge59" class="edge">
<title>2067591170096&#45;&#45;2067591169376</title>
<path fill="none" stroke="black" d="M1800.13,-90C1838.47,-90 1913.15,-90 1984.92,-90"/>
</g>
<!-- 2067591168752 -->
<g id="node67" class="node">
<title>2067591168752</title>
<ellipse fill="none" stroke="black" cx="2164.98" cy="-36" rx="148.59" ry="18"/>
<text text-anchor="middle" x="2164.98" y="-30" font-family="Times New Roman,serif" font-size="15.00">Terminate all running subcases 2b</text>
</g>
<!-- 2067591170096&#45;&#45;2067591168752 -->
<g id="edge60" class="edge">
<title>2067591170096&#45;&#45;2067591168752</title>
<path fill="none" stroke="black" d="M1799.82,-86.42C1852.91,-79.07 1976.52,-61.95 2064.99,-49.7"/>
</g>
<!-- 2067591175856 -->
<g id="node71" class="node">
<title>2067591175856</title>
<ellipse fill="black" stroke="black" cx="311.19" cy="-429" rx="2.7" ry="2.7"/>
</g>
<!-- 2067591175232&#45;&#45;2067591175856 -->
<g id="edge69" class="edge">
<title>2067591175232&#45;&#45;2067591175856</title>
<path fill="none" stroke="black" d="M144.32,-429C192.85,-429 292.87,-429 308.2,-429"/>
</g>
<!-- 2067591175280 -->
<g id="node72" class="node">
<title>2067591175280</title>
<ellipse fill="none" stroke="black" cx="311.19" cy="-390" rx="117.37" ry="18"/>
<text text-anchor="middle" x="311.19" y="-384" font-family="Times New Roman,serif" font-size="15.00">Step application receptive</text>
</g>
<!-- 2067591175232&#45;&#45;2067591175280 -->
<g id="edge70" class="edge">
<title>2067591175232&#45;&#45;2067591175280</title>
<path fill="none" stroke="black" d="M143.13,-423.9C167.34,-418.99 205.15,-411.32 238.67,-404.51"/>
</g>
</g>
</svg>
