<?xml version="1.0" encoding="UTF-8" standalone="no"?>
<!DOCTYPE svg PUBLIC "-//W3C//DTD SVG 1.1//EN"
 "http://www.w3.org/Graphics/SVG/1.1/DTD/svg11.dtd">
<!-- Generated by graphviz version 11.0.0 (20240428.1522)
 -->
<!-- Title: pt Pages: 1 -->
<svg width="2353pt" height="986pt"
 viewBox="0.00 0.00 2352.79 986.00" xmlns="http://www.w3.org/2000/svg" xmlns:xlink="http://www.w3.org/1999/xlink">
<g id="graph0" class="graph" transform="scale(1 1) rotate(0) translate(4 982)">
<title>pt</title>
<polygon fill="white" stroke="none" points="-4,4 -4,-982 2348.79,-982 2348.79,4 -4,4"/>
<!-- 2067590815648 -->
<g id="node1" class="node">
<title>2067590815648</title>
<ellipse fill="none" stroke="black" cx="27" cy="-510" rx="27" ry="18"/>
<text text-anchor="middle" x="27" y="-504" font-family="Times New Roman,serif" font-size="15.00">seq</text>
</g>
<!-- 2067590811952 -->
<g id="node2" class="node">
<title>2067590811952</title>
<ellipse fill="none" stroke="black" cx="117" cy="-557" rx="27" ry="18"/>
<text text-anchor="middle" x="117" y="-551" font-family="Times New Roman,serif" font-size="15.00">and</text>
</g>
<!-- 2067590815648&#45;&#45;2067590811952 -->
<g id="edge66" class="edge">
<title>2067590815648&#45;&#45;2067590811952</title>
<path fill="none" stroke="black" d="M48.85,-521.14C62.88,-528.63 81.3,-538.47 95.29,-545.94"/>
</g>
<!-- 2067590817856 -->
<g id="node68" class="node">
<title>2067590817856</title>
<ellipse fill="none" stroke="black" cx="117" cy="-464" rx="27" ry="18"/>
<text text-anchor="middle" x="117" y="-458" font-family="Times New Roman,serif" font-size="15.00">xor</text>
</g>
<!-- 2067590815648&#45;&#45;2067590817856 -->
<g id="edge69" class="edge">
<title>2067590815648&#45;&#45;2067590817856</title>
<path fill="none" stroke="black" d="M48.85,-499.1C62.78,-491.82 81.03,-482.28 94.99,-474.98"/>
</g>
<!-- 2067590818672 -->
<g id="node3" class="node">
<title>2067590818672</title>
<ellipse fill="none" stroke="black" cx="311.19" cy="-665" rx="129.15" ry="18"/>
<text text-anchor="middle" x="311.19" y="-659" font-family="Times New Roman,serif" font-size="15.00">Commence WABOprocedure</text>
</g>
<!-- 2067590811952&#45;&#45;2067590818672 -->
<g id="edge1" class="edge">
<title>2067590811952&#45;&#45;2067590818672</title>
<path fill="none" stroke="black" d="M138.2,-568.35C171.65,-587.15 238.76,-624.86 278.54,-647.21"/>
</g>
<!-- 2067590820832 -->
<g id="node4" class="node">
<title>2067590820832</title>
<ellipse fill="none" stroke="black" cx="311.19" cy="-611" rx="114.82" ry="18"/>
<text text-anchor="middle" x="311.19" y="-605" font-family="Times New Roman,serif" font-size="15.00">Step application received</text>
</g>
<!-- 2067590811952&#45;&#45;2067590820832 -->
<g id="edge2" class="edge">
<title>2067590811952&#45;&#45;2067590820832</title>
<path fill="none" stroke="black" d="M142.34,-563.84C170.12,-571.64 216.48,-584.67 253.45,-595.06"/>
</g>
<!-- 2067590811472 -->
<g id="node5" class="node">
<title>2067590811472</title>
<ellipse fill="none" stroke="black" cx="311.19" cy="-557" rx="131.19" ry="18"/>
<text text-anchor="middle" x="311.19" y="-551" font-family="Times New Roman,serif" font-size="15.00">Enter submission date request</text>
</g>
<!-- 2067590811952&#45;&#45;2067590811472 -->
<g id="edge3" class="edge">
<title>2067590811952&#45;&#45;2067590811472</title>
<path fill="none" stroke="black" d="M144.32,-557C154.29,-557 166.44,-557 179.58,-557"/>
</g>
<!-- 2067590818240 -->
<g id="node6" class="node">
<title>2067590818240</title>
<ellipse fill="none" stroke="black" cx="311.19" cy="-503" rx="27" ry="18"/>
<text text-anchor="middle" x="311.19" y="-497" font-family="Times New Roman,serif" font-size="15.00">seq</text>
</g>
<!-- 2067590811952&#45;&#45;2067590818240 -->
<g id="edge65" class="edge">
<title>2067590811952&#45;&#45;2067590818240</title>
<path fill="none" stroke="black" d="M142.34,-550.16C179.21,-539.8 248.82,-520.24 285.75,-509.87"/>
</g>
<!-- 2067590822944 -->
<g id="node7" class="node">
<title>2067590822944</title>
<ellipse fill="none" stroke="black" cx="635.68" cy="-801" rx="98.44" ry="18"/>
<text text-anchor="middle" x="635.68" y="-795" font-family="Times New Roman,serif" font-size="15.00">OLO messages active</text>
</g>
<!-- 2067590818240&#45;&#45;2067590822944 -->
<g id="edge4" class="edge">
<title>2067590818240&#45;&#45;2067590822944</title>
<path fill="none" stroke="black" d="M327.75,-517.37C381.09,-566.67 556.58,-728.83 615.33,-783.11"/>
</g>
<!-- 2067590812624 -->
<g id="node8" class="node">
<title>2067590812624</title>
<ellipse fill="none" stroke="black" cx="635.68" cy="-747" rx="27" ry="18"/>
<text text-anchor="middle" x="635.68" y="-741" font-family="Times New Roman,serif" font-size="15.00">xor</text>
</g>
<!-- 2067590818240&#45;&#45;2067590812624 -->
<g id="edge26" class="edge">
<title>2067590818240&#45;&#45;2067590812624</title>
<path fill="none" stroke="black" d="M329.99,-516.47C386.37,-559.13 560.63,-690.97 616.94,-733.58"/>
</g>
<!-- 2067590809120 -->
<g id="node30" class="node">
<title>2067590809120</title>
<ellipse fill="none" stroke="black" cx="635.68" cy="-654" rx="27" ry="18"/>
<text text-anchor="middle" x="635.68" y="-648" font-family="Times New Roman,serif" font-size="15.00">xor</text>
</g>
<!-- 2067590818240&#45;&#45;2067590809120 -->
<g id="edge29" class="edge">
<title>2067590818240&#45;&#45;2067590809120</title>
<path fill="none" stroke="black" d="M333.85,-513.14C392.6,-540.65 554.48,-616.45 613.12,-643.9"/>
</g>
<!-- 2067590809360 -->
<g id="node33" class="node">
<title>2067590809360</title>
<ellipse fill="none" stroke="black" cx="635.68" cy="-557" rx="27" ry="18"/>
<text text-anchor="middle" x="635.68" y="-551" font-family="Times New Roman,serif" font-size="15.00">and</text>
</g>
<!-- 2067590818240&#45;&#45;2067590809360 -->
<g id="edge41" class="edge">
<title>2067590818240&#45;&#45;2067590809360</title>
<path fill="none" stroke="black" d="M337.77,-507.28C398.1,-517.39 548.77,-542.61 609.11,-552.72"/>
</g>
<!-- 2067590817808 -->
<g id="node45" class="node">
<title>2067590817808</title>
<ellipse fill="none" stroke="black" cx="635.68" cy="-503" rx="27" ry="18"/>
<text text-anchor="middle" x="635.68" y="-497" font-family="Times New Roman,serif" font-size="15.00">xor</text>
</g>
<!-- 2067590818240&#45;&#45;2067590817808 -->
<g id="edge44" class="edge">
<title>2067590818240&#45;&#45;2067590817808</title>
<path fill="none" stroke="black" d="M338.58,-503C399.21,-503 547.84,-503 608.38,-503"/>
</g>
<!-- 2067590818816 -->
<g id="node48" class="node">
<title>2067590818816</title>
<ellipse fill="none" stroke="black" cx="635.68" cy="-449" rx="112.26" ry="18"/>
<text text-anchor="middle" x="635.68" y="-443" font-family="Times New Roman,serif" font-size="15.00">Register publication date</text>
</g>
<!-- 2067590818240&#45;&#45;2067590818816 -->
<g id="edge45" class="edge">
<title>2067590818240&#45;&#45;2067590818816</title>
<path fill="none" stroke="black" d="M337.77,-498.72C384.47,-490.9 485.3,-474.01 556.46,-462.1"/>
</g>
<!-- 2067590814928 -->
<g id="node49" class="node">
<title>2067590814928</title>
<ellipse fill="none" stroke="black" cx="635.68" cy="-395" rx="27" ry="18"/>
<text text-anchor="middle" x="635.68" y="-389" font-family="Times New Roman,serif" font-size="15.00">xor</text>
</g>
<!-- 2067590818240&#45;&#45;2067590814928 -->
<g id="edge48" class="edge">
<title>2067590818240&#45;&#45;2067590814928</title>
<path fill="none" stroke="black" d="M335.91,-495.06C395.54,-475.09 551.26,-422.94 610.93,-402.95"/>
</g>
<!-- 2067590817376 -->
<g id="node52" class="node">
<title>2067590817376</title>
<ellipse fill="none" stroke="black" cx="635.68" cy="-341" rx="157.3" ry="18"/>
<text text-anchor="middle" x="635.68" y="-335" font-family="Times New Roman,serif" font-size="15.00">Register senddate acknowledgement</text>
</g>
<!-- 2067590818240&#45;&#45;2067590817376 -->
<g id="edge49" class="edge">
<title>2067590818240&#45;&#45;2067590817376</title>
<path fill="none" stroke="black" d="M333.35,-492.37C387.51,-465.16 531.62,-392.77 599.01,-358.92"/>
</g>
<!-- 2067590820064 -->
<g id="node53" class="node">
<title>2067590820064</title>
<ellipse fill="none" stroke="black" cx="635.68" cy="-207" rx="27" ry="18"/>
<text text-anchor="middle" x="635.68" y="-201" font-family="Times New Roman,serif" font-size="15.00">xor</text>
</g>
<!-- 2067590818240&#45;&#45;2067590820064 -->
<g id="edge64" class="edge">
<title>2067590818240&#45;&#45;2067590820064</title>
<path fill="none" stroke="black" d="M327.75,-488.72C382.23,-438.72 564.08,-271.8 618.91,-221.48"/>
</g>
<!-- 2067590810464 -->
<g id="node9" class="node">
<title>2067590810464</title>
<ellipse fill="black" stroke="black" cx="1029.27" cy="-810" rx="2.7" ry="2.7"/>
</g>
<!-- 2067590812624&#45;&#45;2067590810464 -->
<g id="edge5" class="edge">
<title>2067590812624&#45;&#45;2067590810464</title>
<path fill="none" stroke="black" d="M662.38,-751.13C745.07,-764.44 1000.45,-805.52 1026.17,-809.66"/>
</g>
<!-- 2067590808736 -->
<g id="node10" class="node">
<title>2067590808736</title>
<ellipse fill="none" stroke="black" cx="1029.27" cy="-771" rx="27" ry="18"/>
<text text-anchor="middle" x="1029.27" y="-765" font-family="Times New Roman,serif" font-size="15.00">seq</text>
</g>
<!-- 2067590812624&#45;&#45;2067590808736 -->
<g id="edge25" class="edge">
<title>2067590812624&#45;&#45;2067590808736</title>
<path fill="none" stroke="black" d="M662.98,-748.61C734.32,-752.98 930.88,-765.03 1002.08,-769.4"/>
</g>
<!-- 2067590809264 -->
<g id="node11" class="node">
<title>2067590809264</title>
<ellipse fill="none" stroke="black" cx="1413.12" cy="-906" rx="142.97" ry="18"/>
<text text-anchor="middle" x="1413.12" y="-900" font-family="Times New Roman,serif" font-size="15.00">Applicant plays stakeholder role</text>
</g>
<!-- 2067590808736&#45;&#45;2067590809264 -->
<g id="edge6" class="edge">
<title>2067590808736&#45;&#45;2067590809264</title>
<path fill="none" stroke="black" d="M1053.58,-779.24C1114.62,-800.82 1280.17,-859.35 1363.22,-888.71"/>
</g>
<!-- 2067590817568 -->
<g id="node12" class="node">
<title>2067590817568</title>
<ellipse fill="none" stroke="black" cx="1413.12" cy="-852" rx="27" ry="18"/>
<text text-anchor="middle" x="1413.12" y="-846" font-family="Times New Roman,serif" font-size="15.00">xor</text>
</g>
<!-- 2067590808736&#45;&#45;2067590817568 -->
<g id="edge13" class="edge">
<title>2067590808736&#45;&#45;2067590817568</title>
<path fill="none" stroke="black" d="M1055.32,-776.31C1124.51,-790.99 1317.68,-831.97 1386.98,-846.67"/>
</g>
<!-- 2067590809408 -->
<g id="node19" class="node">
<title>2067590809408</title>
<ellipse fill="none" stroke="black" cx="1413.12" cy="-798" rx="73.36" ry="18"/>
<text text-anchor="middle" x="1413.12" y="-792" font-family="Times New Roman,serif" font-size="15.00">Stop on request</text>
</g>
<!-- 2067590808736&#45;&#45;2067590809408 -->
<g id="edge14" class="edge">
<title>2067590808736&#45;&#45;2067590809408</title>
<path fill="none" stroke="black" d="M1056.51,-772.86C1114.73,-776.97 1256.31,-786.98 1342.23,-793.06"/>
</g>
<!-- 2067590820400 -->
<g id="node20" class="node">
<title>2067590820400</title>
<ellipse fill="none" stroke="black" cx="1413.12" cy="-744" rx="27" ry="18"/>
<text text-anchor="middle" x="1413.12" y="-738" font-family="Times New Roman,serif" font-size="15.00">xor</text>
</g>
<!-- 2067590808736&#45;&#45;2067590820400 -->
<g id="edge24" class="edge">
<title>2067590808736&#45;&#45;2067590820400</title>
<path fill="none" stroke="black" d="M1056.51,-769.14C1126.36,-764.21 1316.18,-750.78 1385.95,-745.85"/>
</g>
<!-- 2067590817472 -->
<g id="node13" class="node">
<title>2067590817472</title>
<ellipse fill="black" stroke="black" cx="1772.93" cy="-891" rx="2.7" ry="2.7"/>
</g>
<!-- 2067590817568&#45;&#45;2067590817472 -->
<g id="edge7" class="edge">
<title>2067590817568&#45;&#45;2067590817472</title>
<path fill="none" stroke="black" d="M1440.15,-854.84C1517.98,-863.32 1745.15,-888.08 1769.76,-890.76"/>
</g>
<!-- 2067590810032 -->
<g id="node14" class="node">
<title>2067590810032</title>
<ellipse fill="none" stroke="black" cx="1772.93" cy="-852" rx="27" ry="18"/>
<text text-anchor="middle" x="1772.93" y="-846" font-family="Times New Roman,serif" font-size="15.00">seq</text>
</g>
<!-- 2067590817568&#45;&#45;2067590810032 -->
<g id="edge12" class="edge">
<title>2067590817568&#45;&#45;2067590810032</title>
<path fill="none" stroke="black" d="M1440.43,-852C1506.6,-852 1679.37,-852 1745.58,-852"/>
</g>
<!-- 2067590815600 -->
<g id="node15" class="node">
<title>2067590815600</title>
<ellipse fill="none" stroke="black" cx="2164.98" cy="-960" rx="143.48" ry="18"/>
<text text-anchor="middle" x="2164.98" y="-954" font-family="Times New Roman,serif" font-size="15.00">Forward procedure confirmation</text>
</g>
<!-- 2067590810032&#45;&#45;2067590815600 -->
<g id="edge8" class="edge">
<title>2067590810032&#45;&#45;2067590815600</title>
<path fill="none" stroke="black" d="M1798.33,-858.76C1858.7,-875.47 2016.49,-919.16 2103.76,-943.33"/>
</g>
<!-- 2067590822032 -->
<g id="node16" class="node">
<title>2067590822032</title>
<ellipse fill="none" stroke="black" cx="2164.98" cy="-906" rx="179.82" ry="18"/>
<text text-anchor="middle" x="2164.98" y="-900" font-family="Times New Roman,serif" font-size="15.00">Register senddate procedure confirmation</text>
</g>
<!-- 2067590810032&#45;&#45;2067590822032 -->
<g id="edge9" class="edge">
<title>2067590810032&#45;&#45;2067590822032</title>
<path fill="none" stroke="black" d="M1799.82,-855.58C1851.38,-862.72 1969.45,-879.07 2057.25,-891.22"/>
</g>
<!-- 2067590808160 -->
<g id="node17" class="node">
<title>2067590808160</title>
<ellipse fill="none" stroke="black" cx="2164.98" cy="-852" rx="98.44" ry="18"/>
<text text-anchor="middle" x="2164.98" y="-846" font-family="Times New Roman,serif" font-size="15.00">Retrieve missing data</text>
</g>
<!-- 2067590810032&#45;&#45;2067590808160 -->
<g id="edge10" class="edge">
<title>2067590810032&#45;&#45;2067590808160</title>
<path fill="none" stroke="black" d="M1800.13,-852C1853.67,-852 1978.06,-852 2066.46,-852"/>
</g>
<!-- 2067590821120 -->
<g id="node18" class="node">
<title>2067590821120</title>
<ellipse fill="none" stroke="black" cx="2164.98" cy="-798" rx="132.73" ry="18"/>
<text text-anchor="middle" x="2164.98" y="-792" font-family="Times New Roman,serif" font-size="15.00">Log date retrieve missing data</text>
</g>
<!-- 2067590810032&#45;&#45;2067590821120 -->
<g id="edge11" class="edge">
<title>2067590810032&#45;&#45;2067590821120</title>
<path fill="none" stroke="black" d="M1799.82,-848.42C1854.01,-840.91 1981.7,-823.23 2070.47,-810.94"/>
</g>
<!-- 2067590823184 -->
<g id="node21" class="node">
<title>2067590823184</title>
<ellipse fill="none" stroke="black" cx="1772.93" cy="-771" rx="176.23" ry="18"/>
<text text-anchor="middle" x="1772.93" y="-765" font-family="Times New Roman,serif" font-size="15.00">Log date termination request documented</text>
</g>
<!-- 2067590820400&#45;&#45;2067590823184 -->
<g id="edge15" class="edge">
<title>2067590820400&#45;&#45;2067590823184</title>
<path fill="none" stroke="black" d="M1440.43,-745.99C1480.3,-748.99 1558.85,-754.92 1629.48,-760.25"/>
</g>
<!-- 2067590812720 -->
<g id="node22" class="node">
<title>2067590812720</title>
<ellipse fill="none" stroke="black" cx="1772.93" cy="-717" rx="27" ry="18"/>
<text text-anchor="middle" x="1772.93" y="-711" font-family="Times New Roman,serif" font-size="15.00">seq</text>
</g>
<!-- 2067590820400&#45;&#45;2067590812720 -->
<g id="edge18" class="edge">
<title>2067590820400&#45;&#45;2067590812720</title>
<path fill="none" stroke="black" d="M1440.43,-742.01C1506.77,-737.01 1680.21,-723.92 1746.06,-718.95"/>
</g>
<!-- 2067590815744 -->
<g id="node25" class="node">
<title>2067590815744</title>
<ellipse fill="none" stroke="black" cx="1772.93" cy="-582" rx="27" ry="18"/>
<text text-anchor="middle" x="1772.93" y="-576" font-family="Times New Roman,serif" font-size="15.00">seq</text>
</g>
<!-- 2067590820400&#45;&#45;2067590815744 -->
<g id="edge23" class="edge">
<title>2067590820400&#45;&#45;2067590815744</title>
<path fill="none" stroke="black" d="M1436.24,-733.99C1500.38,-704.95 1686.01,-620.9 1749.96,-591.94"/>
</g>
<!-- 2067590818000 -->
<g id="node23" class="node">
<title>2067590818000</title>
<ellipse fill="none" stroke="black" cx="2164.98" cy="-744" rx="131.71" ry="18"/>
<text text-anchor="middle" x="2164.98" y="-738" font-family="Times New Roman,serif" font-size="15.00">Action by competent authority</text>
</g>
<!-- 2067590812720&#45;&#45;2067590818000 -->
<g id="edge16" class="edge">
<title>2067590812720&#45;&#45;2067590818000</title>
<path fill="none" stroke="black" d="M1800.13,-718.81C1849.75,-722.25 1960.19,-729.89 2046.46,-735.87"/>
</g>
<!-- 2067590814784 -->
<g id="node24" class="node">
<title>2067590814784</title>
<ellipse fill="none" stroke="black" cx="2164.98" cy="-690" rx="153.71" ry="18"/>
<text text-anchor="middle" x="2164.98" y="-684" font-family="Times New Roman,serif" font-size="15.00">Create termination request message</text>
</g>
<!-- 2067590812720&#45;&#45;2067590814784 -->
<g id="edge17" class="edge">
<title>2067590812720&#45;&#45;2067590814784</title>
<path fill="none" stroke="black" d="M1800.13,-715.19C1846.93,-711.95 1947.84,-704.96 2031.55,-699.17"/>
</g>
<!-- 2067590815312 -->
<g id="node26" class="node">
<title>2067590815312</title>
<ellipse fill="none" stroke="black" cx="2164.98" cy="-636" rx="128.63" ry="18"/>
<text text-anchor="middle" x="2164.98" y="-630" font-family="Times New Roman,serif" font-size="15.00">Evaluate provisional charges</text>
</g>
<!-- 2067590815744&#45;&#45;2067590815312 -->
<g id="edge19" class="edge">
<title>2067590815744&#45;&#45;2067590815312</title>
<path fill="none" stroke="black" d="M1799.82,-585.58C1854.27,-593.12 1982.91,-610.93 2071.73,-623.23"/>
</g>
<!-- 2067590816320 -->
<g id="node27" class="node">
<title>2067590816320</title>
<ellipse fill="none" stroke="black" cx="2164.98" cy="-582" rx="56.98" ry="18"/>
<text text-anchor="middle" x="2164.98" y="-576" font-family="Times New Roman,serif" font-size="15.00">MER noted</text>
</g>
<!-- 2067590815744&#45;&#45;2067590816320 -->
<g id="edge20" class="edge">
<title>2067590815744&#45;&#45;2067590816320</title>
<path fill="none" stroke="black" d="M1800.13,-582C1862.73,-582 2022.14,-582 2107.69,-582"/>
</g>
<!-- 2067590813680 -->
<g id="node28" class="node">
<title>2067590813680</title>
<ellipse fill="none" stroke="black" cx="2164.98" cy="-528" rx="129.15" ry="18"/>
<text text-anchor="middle" x="2164.98" y="-522" font-family="Times New Roman,serif" font-size="15.00">Regular procedural activities</text>
</g>
<!-- 2067590815744&#45;&#45;2067590813680 -->
<g id="edge21" class="edge">
<title>2067590815744&#45;&#45;2067590813680</title>
<path fill="none" stroke="black" d="M1799.82,-578.42C1854.27,-570.88 1982.91,-553.07 2071.73,-540.77"/>
</g>
<!-- 2067590819488 -->
<g id="node29" class="node">
<title>2067590819488</title>
<ellipse fill="none" stroke="black" cx="2164.98" cy="-474" rx="87.69" ry="18"/>
<text text-anchor="middle" x="2164.98" y="-468" font-family="Times New Roman,serif" font-size="15.00">Phased application</text>
</g>
<!-- 2067590815744&#45;&#45;2067590819488 -->
<g id="edge22" class="edge">
<title>2067590815744&#45;&#45;2067590819488</title>
<path fill="none" stroke="black" d="M1798.33,-575.24C1860.45,-558.04 2025.72,-512.28 2111.17,-488.62"/>
</g>
<!-- 2067590813296 -->
<g id="node31" class="node">
<title>2067590813296</title>
<ellipse fill="black" stroke="black" cx="1029.27" cy="-693" rx="2.7" ry="2.7"/>
</g>
<!-- 2067590809120&#45;&#45;2067590813296 -->
<g id="edge27" class="edge">
<title>2067590809120&#45;&#45;2067590813296</title>
<path fill="none" stroke="black" d="M662.68,-656.59C745.7,-664.86 1000.51,-690.24 1026.18,-692.79"/>
</g>
<!-- 2067590808064 -->
<g id="node32" class="node">
<title>2067590808064</title>
<ellipse fill="none" stroke="black" cx="1029.27" cy="-654" rx="200.29" ry="18"/>
<text text-anchor="middle" x="1029.27" y="-648" font-family="Times New Roman,serif" font-size="15.00">Permit not needed or only notification required</text>
</g>
<!-- 2067590809120&#45;&#45;2067590808064 -->
<g id="edge28" class="edge">
<title>2067590809120&#45;&#45;2067590808064</title>
<path fill="none" stroke="black" d="M662.98,-654C697.97,-654 763.06,-654 828.72,-654"/>
</g>
<!-- 2067590816176 -->
<g id="node34" class="node">
<title>2067590816176</title>
<ellipse fill="none" stroke="black" cx="1029.27" cy="-600" rx="45.21" ry="18"/>
<text text-anchor="middle" x="1029.27" y="-594" font-family="Times New Roman,serif" font-size="15.00">xor loop</text>
</g>
<!-- 2067590809360&#45;&#45;2067590816176 -->
<g id="edge32" class="edge">
<title>2067590809360&#45;&#45;2067590816176</title>
<path fill="none" stroke="black" d="M662.68,-559.85C728.79,-567.11 903.83,-586.34 985.35,-595.29"/>
</g>
<!-- 2067590811904 -->
<g id="node37" class="node">
<title>2067590811904</title>
<ellipse fill="none" stroke="black" cx="1029.27" cy="-527" rx="27" ry="18"/>
<text text-anchor="middle" x="1029.27" y="-521" font-family="Times New Roman,serif" font-size="15.00">seq</text>
</g>
<!-- 2067590809360&#45;&#45;2067590811904 -->
<g id="edge40" class="edge">
<title>2067590809360&#45;&#45;2067590811904</title>
<path fill="none" stroke="black" d="M662.98,-554.99C734.32,-549.52 930.88,-534.46 1002.08,-529.01"/>
</g>
<!-- 2067590815696 -->
<g id="node35" class="node">
<title>2067590815696</title>
<ellipse fill="none" stroke="black" cx="1413.12" cy="-690" rx="131.19" ry="18"/>
<text text-anchor="middle" x="1413.12" y="-684" font-family="Times New Roman,serif" font-size="15.00">Transmit confirmation receipt</text>
</g>
<!-- 2067590816176&#45;&#45;2067590815696 -->
<g id="edge30" class="edge">
<title>2067590816176&#45;&#45;2067590815696</title>
<path fill="none" stroke="black" d="M1068.98,-609.12C1133.83,-624.41 1265.15,-655.36 1345.2,-674.23"/>
</g>
<!-- 2067590823280 -->
<g id="node36" class="node">
<title>2067590823280</title>
<ellipse fill="black" stroke="black" cx="1413.12" cy="-651" rx="2.7" ry="2.7"/>
</g>
<!-- 2067590816176&#45;&#45;2067590823280 -->
<g id="edge31" class="edge">
<title>2067590816176&#45;&#45;2067590823280</title>
<path fill="none" stroke="black" d="M1072.59,-605.65C1166.58,-618.21 1386.28,-647.55 1410.03,-650.72"/>
</g>
<!-- 2067590808256 -->
<g id="node38" class="node">
<title>2067590808256</title>
<ellipse fill="none" stroke="black" cx="1413.12" cy="-612" rx="139.38" ry="18"/>
<text text-anchor="middle" x="1413.12" y="-606" font-family="Times New Roman,serif" font-size="15.00">Refer to the competent authority</text>
</g>
<!-- 2067590811904&#45;&#45;2067590808256 -->
<g id="edge33" class="edge">
<title>2067590811904&#45;&#45;2067590808256</title>
<path fill="none" stroke="black" d="M1055.32,-532.58C1112.56,-545.32 1254.67,-576.95 1341.28,-596.23"/>
</g>
<!-- 2067590810656 -->
<g id="node39" class="node">
<title>2067590810656</title>
<ellipse fill="none" stroke="black" cx="1413.12" cy="-558" rx="119.42" ry="18"/>
<text text-anchor="middle" x="1413.12" y="-552" font-family="Times New Roman,serif" font-size="15.00">Update BAG administrator</text>
</g>
<!-- 2067590811904&#45;&#45;2067590810656 -->
<g id="edge34" class="edge">
<title>2067590811904&#45;&#45;2067590810656</title>
<path fill="none" stroke="black" d="M1056.51,-529.13C1107.32,-533.26 1221.6,-542.53 1306.98,-549.46"/>
</g>
<!-- 2067590819536 -->
<g id="node40" class="node">
<title>2067590819536</title>
<ellipse fill="none" stroke="black" cx="1413.12" cy="-504" rx="147.57" ry="18"/>
<text text-anchor="middle" x="1413.12" y="-498" font-family="Times New Roman,serif" font-size="15.00">Ordinary procedure without MER</text>
</g>
<!-- 2067590811904&#45;&#45;2067590819536 -->
<g id="edge35" class="edge">
<title>2067590811904&#45;&#45;2067590819536</title>
<path fill="none" stroke="black" d="M1056.51,-525.42C1102.09,-522.67 1198.77,-516.85 1279.83,-511.97"/>
</g>
<!-- 2067590817664 -->
<g id="node41" class="node">
<title>2067590817664</title>
<ellipse fill="none" stroke="black" cx="1413.12" cy="-450" rx="141.43" ry="18"/>
<text text-anchor="middle" x="1413.12" y="-444" font-family="Times New Roman,serif" font-size="15.00">Produce procedure confirmation</text>
</g>
<!-- 2067590811904&#45;&#45;2067590817664 -->
<g id="edge36" class="edge">
<title>2067590811904&#45;&#45;2067590817664</title>
<path fill="none" stroke="black" d="M1055.62,-521.89C1111.84,-510.55 1248.85,-482.92 1335.71,-465.41"/>
</g>
<!-- 2067590820688 -->
<g id="node42" class="node">
<title>2067590820688</title>
<ellipse fill="none" stroke="black" cx="1413.12" cy="-396" rx="51.86" ry="18"/>
<text text-anchor="middle" x="1413.12" y="-390" font-family="Times New Roman,serif" font-size="15.00">Broadcast</text>
</g>
<!-- 2067590811904&#45;&#45;2067590820688 -->
<g id="edge37" class="edge">
<title>2067590811904&#45;&#45;2067590820688</title>
<path fill="none" stroke="black" d="M1053.86,-518.9C1118.26,-496.81 1297.36,-435.37 1375.2,-408.67"/>
</g>
<!-- 2067590818576 -->
<g id="node43" class="node">
<title>2067590818576</title>
<ellipse fill="none" stroke="black" cx="1413.12" cy="-342" rx="121.47" ry="18"/>
<text text-anchor="middle" x="1413.12" y="-336" font-family="Times New Roman,serif" font-size="15.00">Form publication document</text>
</g>
<!-- 2067590811904&#45;&#45;2067590818576 -->
<g id="edge38" class="edge">
<title>2067590811904&#45;&#45;2067590818576</title>
<path fill="none" stroke="black" d="M1051.89,-516.52C1114.68,-486.1 1297.53,-397.52 1375.84,-359.58"/>
</g>
<!-- 2067590814736 -->
<g id="node44" class="node">
<title>2067590814736</title>
<ellipse fill="none" stroke="black" cx="1413.12" cy="-288" rx="90.25" ry="18"/>
<text text-anchor="middle" x="1413.12" y="-282" font-family="Times New Roman,serif" font-size="15.00">Review BAG items</text>
</g>
<!-- 2067590811904&#45;&#45;2067590814736 -->
<g id="edge39" class="edge">
<title>2067590811904&#45;&#45;2067590814736</title>
<path fill="none" stroke="black" d="M1049.73,-514.82C1112.65,-475.44 1310.76,-351.44 1384.29,-305.42"/>
</g>
<!-- 2067590822848 -->
<g id="node46" class="node">
<title>2067590822848</title>
<ellipse fill="black" stroke="black" cx="1029.27" cy="-488" rx="2.7" ry="2.7"/>
</g>
<!-- 2067590817808&#45;&#45;2067590822848 -->
<g id="edge42" class="edge">
<title>2067590817808&#45;&#45;2067590822848</title>
<path fill="none" stroke="black" d="M662.98,-501.99C746.32,-498.8 1000.57,-489.06 1026.18,-488.08"/>
</g>
<!-- 2067590818336 -->
<g id="node47" class="node">
<title>2067590818336</title>
<ellipse fill="none" stroke="black" cx="1029.27" cy="-449" rx="91.27" ry="18"/>
<text text-anchor="middle" x="1029.27" y="-443" font-family="Times New Roman,serif" font-size="15.00">Accomplish request</text>
</g>
<!-- 2067590817808&#45;&#45;2067590818336 -->
<g id="edge43" class="edge">
<title>2067590817808&#45;&#45;2067590818336</title>
<path fill="none" stroke="black" d="M662.38,-499.46C720.57,-491.43 864.27,-471.62 953.29,-459.34"/>
</g>
<!-- 2067590813056 -->
<g id="node50" class="node">
<title>2067590813056</title>
<ellipse fill="black" stroke="black" cx="1029.27" cy="-403" rx="2.7" ry="2.7"/>
</g>
<!-- 2067590814928&#45;&#45;2067590813056 -->
<g id="edge46" class="edge">
<title>2067590814928&#45;&#45;2067590813056</title>
<path fill="none" stroke="black" d="M662.98,-395.54C746.32,-397.24 1000.57,-402.43 1026.18,-402.96"/>
</g>
<!-- 2067590818384 -->
<g id="node51" class="node">
<title>2067590818384</title>
<ellipse fill="none" stroke="black" cx="1029.27" cy="-364" rx="140.41" ry="18"/>
<text text-anchor="middle" x="1029.27" y="-358" font-family="Times New Roman,serif" font-size="15.00">Subcases completeness fulfilled</text>
</g>
<!-- 2067590814928&#45;&#45;2067590818384 -->
<g id="edge47" class="edge">
<title>2067590814928&#45;&#45;2067590818384</title>
<path fill="none" stroke="black" d="M662.98,-392.92C712.46,-389 822.15,-380.32 908.5,-373.48"/>
</g>
<!-- 2067590808112 -->
<g id="node54" class="node">
<title>2067590808112</title>
<ellipse fill="black" stroke="black" cx="1029.27" cy="-207" rx="2.7" ry="2.7"/>
</g>
<!-- 2067590820064&#45;&#45;2067590808112 -->
<g id="edge50" class="edge">
<title>2067590820064&#45;&#45;2067590808112</title>
<path fill="none" stroke="black" d="M662.98,-207C746.32,-207 1000.57,-207 1026.18,-207"/>
</g>
<!-- 2067590814880 -->
<g id="node55" class="node">
<title>2067590814880</title>
<ellipse fill="none" stroke="black" cx="1029.27" cy="-153" rx="27" ry="18"/>
<text text-anchor="middle" x="1029.27" y="-147" font-family="Times New Roman,serif" font-size="15.00">seq</text>
</g>
<!-- 2067590820064&#45;&#45;2067590814880 -->
<g id="edge63" class="edge">
<title>2067590820064&#45;&#45;2067590814880</title>
<path fill="none" stroke="black" d="M662.38,-203.46C733.33,-193.67 931.41,-166.36 1002.48,-156.56"/>
</g>
<!-- 2067590810560 -->
<g id="node56" class="node">
<title>2067590810560</title>
<ellipse fill="none" stroke="black" cx="1413.12" cy="-234" rx="27" ry="18"/>
<text text-anchor="middle" x="1413.12" y="-228" font-family="Times New Roman,serif" font-size="15.00">xor</text>
</g>
<!-- 2067590814880&#45;&#45;2067590810560 -->
<g id="edge53" class="edge">
<title>2067590814880&#45;&#45;2067590810560</title>
<path fill="none" stroke="black" d="M1055.32,-158.31C1124.51,-172.99 1317.68,-213.97 1386.98,-228.67"/>
</g>
<!-- 2067590814016 -->
<g id="node59" class="node">
<title>2067590814016</title>
<ellipse fill="none" stroke="black" cx="1413.12" cy="-180" rx="110.72" ry="18"/>
<text text-anchor="middle" x="1413.12" y="-174" font-family="Times New Roman,serif" font-size="15.00">Terminate request notice</text>
</g>
<!-- 2067590814880&#45;&#45;2067590814016 -->
<g id="edge54" class="edge">
<title>2067590814880&#45;&#45;2067590814016</title>
<path fill="none" stroke="black" d="M1056.51,-154.86C1108.07,-158.5 1225.03,-166.77 1310.79,-172.83"/>
</g>
<!-- 2067590817904 -->
<g id="node60" class="node">
<title>2067590817904</title>
<ellipse fill="none" stroke="black" cx="1413.12" cy="-126" rx="27" ry="18"/>
<text text-anchor="middle" x="1413.12" y="-120" font-family="Times New Roman,serif" font-size="15.00">xor</text>
</g>
<!-- 2067590814880&#45;&#45;2067590817904 -->
<g id="edge60" class="edge">
<title>2067590814880&#45;&#45;2067590817904</title>
<path fill="none" stroke="black" d="M1056.51,-151.14C1126.36,-146.21 1316.18,-132.78 1385.95,-127.85"/>
</g>
<!-- 2067590817760 -->
<g id="node66" class="node">
<title>2067590817760</title>
<ellipse fill="none" stroke="black" cx="1413.12" cy="-72" rx="119.42" ry="18"/>
<text text-anchor="middle" x="1413.12" y="-66" font-family="Times New Roman,serif" font-size="15.00">Phase procedure cancelled</text>
</g>
<!-- 2067590814880&#45;&#45;2067590817760 -->
<g id="edge61" class="edge">
<title>2067590814880&#45;&#45;2067590817760</title>
<path fill="none" stroke="black" d="M1055.32,-147.69C1112.73,-135.51 1255.49,-105.22 1342.03,-86.87"/>
</g>
<!-- 2067590820352 -->
<g id="node67" class="node">
<title>2067590820352</title>
<ellipse fill="none" stroke="black" cx="1413.12" cy="-18" rx="84.11" ry="18"/>
<text text-anchor="middle" x="1413.12" y="-12" font-family="Times New Roman,serif" font-size="15.00">Conclude the case</text>
</g>
<!-- 2067590814880&#45;&#45;2067590820352 -->
<g id="edge62" class="edge">
<title>2067590814880&#45;&#45;2067590820352</title>
<path fill="none" stroke="black" d="M1053.58,-144.76C1115.84,-122.75 1286.8,-62.31 1368.08,-33.57"/>
</g>
<!-- 2067590812144 -->
<g id="node57" class="node">
<title>2067590812144</title>
<ellipse fill="black" stroke="black" cx="1772.93" cy="-253" rx="2.7" ry="2.7"/>
</g>
<!-- 2067590810560&#45;&#45;2067590812144 -->
<g id="edge51" class="edge">
<title>2067590810560&#45;&#45;2067590812144</title>
<path fill="none" stroke="black" d="M1440.43,-235.4C1518.55,-239.54 1745.21,-251.58 1769.76,-252.89"/>
</g>
<!-- 2067590812912 -->
<g id="node58" class="node">
<title>2067590812912</title>
<ellipse fill="none" stroke="black" cx="1772.93" cy="-214" rx="143.99" ry="18"/>
<text text-anchor="middle" x="1772.93" y="-208" font-family="Times New Roman,serif" font-size="15.00">Log termination request senddate</text>
</g>
<!-- 2067590810560&#45;&#45;2067590812912 -->
<g id="edge52" class="edge">
<title>2067590810560&#45;&#45;2067590812912</title>
<path fill="none" stroke="black" d="M1440.43,-232.53C1482.4,-230.18 1567.22,-225.44 1640.56,-221.34"/>
</g>
<!-- 2067590820736 -->
<g id="node61" class="node">
<title>2067590820736</title>
<ellipse fill="none" stroke="black" cx="1772.93" cy="-143" rx="96.39" ry="18"/>
<text text-anchor="middle" x="1772.93" y="-137" font-family="Times New Roman,serif" font-size="15.00">Register the deadline</text>
</g>
<!-- 2067590817904&#45;&#45;2067590820736 -->
<g id="edge55" class="edge">
<title>2067590817904&#45;&#45;2067590820736</title>
<path fill="none" stroke="black" d="M1440.43,-127.25C1489.98,-129.6 1599.29,-134.8 1678.88,-138.58"/>
</g>
<!-- 2067590821936 -->
<g id="node62" class="node">
<title>2067590821936</title>
<ellipse fill="none" stroke="black" cx="1772.93" cy="-89" rx="27" ry="18"/>
<text text-anchor="middle" x="1772.93" y="-83" font-family="Times New Roman,serif" font-size="15.00">seq</text>
</g>
<!-- 2067590817904&#45;&#45;2067590821936 -->
<g id="edge59" class="edge">
<title>2067590817904&#45;&#45;2067590821936</title>
<path fill="none" stroke="black" d="M1440.15,-123.31C1506.24,-116.47 1680.02,-98.5 1746.01,-91.68"/>
</g>
<!-- 2067590807968 -->
<g id="node63" class="node">
<title>2067590807968</title>
<ellipse fill="none" stroke="black" cx="2164.98" cy="-143" rx="97.93" ry="18"/>
<text text-anchor="middle" x="2164.98" y="-137" font-family="Times New Roman,serif" font-size="15.00">Phase case dealt with</text>
</g>
<!-- 2067590821936&#45;&#45;2067590807968 -->
<g id="edge56" class="edge">
<title>2067590821936&#45;&#45;2067590807968</title>
<path fill="none" stroke="black" d="M1799.82,-92.58C1857.16,-100.52 1996.78,-119.85 2085.53,-132.14"/>
</g>
<!-- 2067587997744 -->
<g id="node64" class="node">
<title>2067587997744</title>
<ellipse fill="none" stroke="black" cx="2164.98" cy="-89" rx="179.82" ry="18"/>
<text text-anchor="middle" x="2164.98" y="-83" font-family="Times New Roman,serif" font-size="15.00">Premature termination of procedure phase</text>
</g>
<!-- 2067590821936&#45;&#45;2067587997744 -->
<g id="edge57" class="edge">
<title>2067590821936&#45;&#45;2067587997744</title>
<path fill="none" stroke="black" d="M1800.13,-89C1838.47,-89 1913.15,-89 1984.92,-89"/>
</g>
<!-- 2067587996832 -->
<g id="node65" class="node">
<title>2067587996832</title>
<ellipse fill="none" stroke="black" cx="2164.98" cy="-35" rx="148.59" ry="18"/>
<text text-anchor="middle" x="2164.98" y="-29" font-family="Times New Roman,serif" font-size="15.00">Terminate all running subcases 2b</text>
</g>
<!-- 2067590821936&#45;&#45;2067587996832 -->
<g id="edge58" class="edge">
<title>2067590821936&#45;&#45;2067587996832</title>
<path fill="none" stroke="black" d="M1799.82,-85.42C1852.91,-78.07 1976.52,-60.95 2064.99,-48.7"/>
</g>
<!-- 2067590821792 -->
<g id="node69" class="node">
<title>2067590821792</title>
<ellipse fill="black" stroke="black" cx="311.19" cy="-464" rx="2.7" ry="2.7"/>
</g>
<!-- 2067590817856&#45;&#45;2067590821792 -->
<g id="edge67" class="edge">
<title>2067590817856&#45;&#45;2067590821792</title>
<path fill="none" stroke="black" d="M144.32,-464C192.85,-464 292.87,-464 308.2,-464"/>
</g>
<!-- 2067590817136 -->
<g id="node70" class="node">
<title>2067590817136</title>
<ellipse fill="none" stroke="black" cx="311.19" cy="-425" rx="117.37" ry="18"/>
<text text-anchor="middle" x="311.19" y="-419" font-family="Times New Roman,serif" font-size="15.00">Step application receptive</text>
</g>
<!-- 2067590817856&#45;&#45;2067590817136 -->
<g id="edge68" class="edge">
<title>2067590817856&#45;&#45;2067590817136</title>
<path fill="none" stroke="black" d="M143.13,-458.9C167.34,-453.99 205.15,-446.32 238.67,-439.51"/>
</g>
</g>
</svg>
