<?xml version="1.0" encoding="UTF-8" standalone="no"?>
<!DOCTYPE svg PUBLIC "-//W3C//DTD SVG 1.1//EN"
 "http://www.w3.org/Graphics/SVG/1.1/DTD/svg11.dtd">
<!-- Generated by graphviz version 11.0.0 (20240428.1522)
 -->
<!-- Title: pt Pages: 1 -->
<svg width="1547pt" height="487pt"
 viewBox="0.00 0.00 1546.77 487.00" xmlns="http://www.w3.org/2000/svg" xmlns:xlink="http://www.w3.org/1999/xlink">
<g id="graph0" class="graph" transform="scale(1 1) rotate(0) translate(4 483)">
<title>pt</title>
<polygon fill="white" stroke="none" points="-4,4 -4,-483 1542.77,-483 1542.77,4 -4,4"/>
<!-- 2067588474848 -->
<g id="node1" class="node">
<title>2067588474848</title>
<ellipse fill="none" stroke="black" cx="27" cy="-353" rx="27" ry="18"/>
<text text-anchor="middle" x="27" y="-347" font-family="Times New Roman,serif" font-size="15.00">seq</text>
</g>
<!-- 2067588470528 -->
<g id="node2" class="node">
<title>2067588470528</title>
<ellipse fill="none" stroke="black" cx="221.19" cy="-407" rx="131.19" ry="18"/>
<text text-anchor="middle" x="221.19" y="-401" font-family="Times New Roman,serif" font-size="15.00">Enter submission date request</text>
</g>
<!-- 2067588474848&#45;&#45;2067588470528 -->
<g id="edge1" class="edge">
<title>2067588474848&#45;&#45;2067588470528</title>
<path fill="none" stroke="black" d="M52.34,-359.84C79.71,-367.53 125.14,-380.29 161.83,-390.6"/>
</g>
<!-- 2067588467840 -->
<g id="node3" class="node">
<title>2067588467840</title>
<ellipse fill="none" stroke="black" cx="221.19" cy="-353" rx="98.44" ry="18"/>
<text text-anchor="middle" x="221.19" y="-347" font-family="Times New Roman,serif" font-size="15.00">OLO messages active</text>
</g>
<!-- 2067588474848&#45;&#45;2067588467840 -->
<g id="edge2" class="edge">
<title>2067588474848&#45;&#45;2067588467840</title>
<path fill="none" stroke="black" d="M54.32,-353C72.31,-353 97.38,-353 122.59,-353"/>
</g>
<!-- 2067588464864 -->
<g id="node4" class="node">
<title>2067588464864</title>
<ellipse fill="none" stroke="black" cx="221.19" cy="-299" rx="27" ry="18"/>
<text text-anchor="middle" x="221.19" y="-293" font-family="Times New Roman,serif" font-size="15.00">and</text>
</g>
<!-- 2067588474848&#45;&#45;2067588464864 -->
<g id="edge21" class="edge">
<title>2067588474848&#45;&#45;2067588464864</title>
<path fill="none" stroke="black" d="M52.34,-346.16C89.21,-335.8 158.82,-316.24 195.75,-305.87"/>
</g>
<!-- 2067588479312 -->
<g id="node5" class="node">
<title>2067588479312</title>
<ellipse fill="none" stroke="black" cx="535.96" cy="-461" rx="141.43" ry="18"/>
<text text-anchor="middle" x="535.96" y="-455" font-family="Times New Roman,serif" font-size="15.00">Produce procedure confirmation</text>
</g>
<!-- 2067588464864&#45;&#45;2067588479312 -->
<g id="edge3" class="edge">
<title>2067588464864&#45;&#45;2067588479312</title>
<path fill="none" stroke="black" d="M243.2,-309.88C296.14,-337.3 435.41,-409.44 500.51,-443.15"/>
</g>
<!-- 2067588470096 -->
<g id="node6" class="node">
<title>2067588470096</title>
<ellipse fill="none" stroke="black" cx="535.96" cy="-407" rx="27" ry="18"/>
<text text-anchor="middle" x="535.96" y="-401" font-family="Times New Roman,serif" font-size="15.00">xor</text>
</g>
<!-- 2067588464864&#45;&#45;2067588470096 -->
<g id="edge6" class="edge">
<title>2067588464864&#45;&#45;2067588470096</title>
<path fill="none" stroke="black" d="M245.7,-307.12C303.81,-327.18 453.66,-378.93 511.6,-398.94"/>
</g>
<!-- 2067588477200 -->
<g id="node9" class="node">
<title>2067588477200</title>
<ellipse fill="none" stroke="black" cx="535.96" cy="-353" rx="139.38" ry="18"/>
<text text-anchor="middle" x="535.96" y="-347" font-family="Times New Roman,serif" font-size="15.00">Refer to the competent authority</text>
</g>
<!-- 2067588464864&#45;&#45;2067588477200 -->
<g id="edge7" class="edge">
<title>2067588464864&#45;&#45;2067588477200</title>
<path fill="none" stroke="black" d="M247.79,-303.42C291.56,-310.98 382.63,-326.7 450.54,-338.42"/>
</g>
<!-- 2067588465824 -->
<g id="node10" class="node">
<title>2067588465824</title>
<ellipse fill="none" stroke="black" cx="535.96" cy="-299" rx="129.15" ry="18"/>
<text text-anchor="middle" x="535.96" y="-293" font-family="Times New Roman,serif" font-size="15.00">Commence WABOprocedure</text>
</g>
<!-- 2067588464864&#45;&#45;2067588465824 -->
<g id="edge8" class="edge">
<title>2067588464864&#45;&#45;2067588465824</title>
<path fill="none" stroke="black" d="M248.59,-299C283.57,-299 347.71,-299 406.44,-299"/>
</g>
<!-- 2067588467408 -->
<g id="node11" class="node">
<title>2067588467408</title>
<ellipse fill="none" stroke="black" cx="535.96" cy="-245" rx="147.57" ry="18"/>
<text text-anchor="middle" x="535.96" y="-239" font-family="Times New Roman,serif" font-size="15.00">Ordinary procedure without MER</text>
</g>
<!-- 2067588464864&#45;&#45;2067588467408 -->
<g id="edge9" class="edge">
<title>2067588464864&#45;&#45;2067588467408</title>
<path fill="none" stroke="black" d="M247.79,-294.58C291.19,-287.09 381.11,-271.56 448.84,-259.87"/>
</g>
<!-- 2067588480800 -->
<g id="node12" class="node">
<title>2067588480800</title>
<ellipse fill="none" stroke="black" cx="535.96" cy="-191" rx="114.82" ry="18"/>
<text text-anchor="middle" x="535.96" y="-185" font-family="Times New Roman,serif" font-size="15.00">Step application received</text>
</g>
<!-- 2067588464864&#45;&#45;2067588480800 -->
<g id="edge10" class="edge">
<title>2067588464864&#45;&#45;2067588480800</title>
<path fill="none" stroke="black" d="M245.7,-290.88C296.7,-273.27 418.39,-231.25 486.57,-207.71"/>
</g>
<!-- 2067587856144 -->
<g id="node13" class="node">
<title>2067587856144</title>
<ellipse fill="none" stroke="black" cx="535.96" cy="-137" rx="45.21" ry="18"/>
<text text-anchor="middle" x="535.96" y="-131" font-family="Times New Roman,serif" font-size="15.00">xor loop</text>
</g>
<!-- 2067588464864&#45;&#45;2067587856144 -->
<g id="edge20" class="edge">
<title>2067588464864&#45;&#45;2067587856144</title>
<path fill="none" stroke="black" d="M243.2,-288.12C298.12,-259.67 445.98,-183.09 507.51,-151.22"/>
</g>
<!-- 2067589904816 -->
<g id="node7" class="node">
<title>2067589904816</title>
<ellipse fill="black" stroke="black" cx="876.83" cy="-426" rx="2.7" ry="2.7"/>
</g>
<!-- 2067588470096&#45;&#45;2067589904816 -->
<g id="edge4" class="edge">
<title>2067588470096&#45;&#45;2067589904816</title>
<path fill="none" stroke="black" d="M563.27,-408.48C638.53,-412.7 850.81,-424.6 873.8,-425.89"/>
</g>
<!-- 2067589905920 -->
<g id="node8" class="node">
<title>2067589905920</title>
<ellipse fill="none" stroke="black" cx="876.83" cy="-387" rx="157.3" ry="18"/>
<text text-anchor="middle" x="876.83" y="-381" font-family="Times New Roman,serif" font-size="15.00">Register senddate acknowledgement</text>
</g>
<!-- 2067588470096&#45;&#45;2067589905920 -->
<g id="edge5" class="edge">
<title>2067588470096&#45;&#45;2067589905920</title>
<path fill="none" stroke="black" d="M563.27,-405.45C600.43,-403.25 671.01,-399.09 735.7,-395.27"/>
</g>
<!-- 2067587856912 -->
<g id="node14" class="node">
<title>2067587856912</title>
<ellipse fill="none" stroke="black" cx="876.83" cy="-165" rx="45.21" ry="18"/>
<text text-anchor="middle" x="876.83" y="-159" font-family="Times New Roman,serif" font-size="15.00">xor loop</text>
</g>
<!-- 2067587856144&#45;&#45;2067587856912 -->
<g id="edge13" class="edge">
<title>2067587856144&#45;&#45;2067587856912</title>
<path fill="none" stroke="black" d="M580.57,-140.6C645.54,-145.97 767.08,-156.01 832.12,-161.39"/>
</g>
<!-- 2067587842704 -->
<g id="node17" class="node">
<title>2067587842704</title>
<ellipse fill="none" stroke="black" cx="876.83" cy="-91" rx="27" ry="18"/>
<text text-anchor="middle" x="876.83" y="-85" font-family="Times New Roman,serif" font-size="15.00">seq</text>
</g>
<!-- 2067587856144&#45;&#45;2067587842704 -->
<g id="edge19" class="edge">
<title>2067587856144&#45;&#45;2067587842704</title>
<path fill="none" stroke="black" d="M579.19,-131.27C650.34,-121.61 792,-102.38 850.08,-94.5"/>
</g>
<!-- 2067589045216 -->
<g id="node15" class="node">
<title>2067589045216</title>
<ellipse fill="none" stroke="black" cx="1213.09" cy="-204" rx="131.19" ry="18"/>
<text text-anchor="middle" x="1213.09" y="-198" font-family="Times New Roman,serif" font-size="15.00">Transmit confirmation receipt</text>
</g>
<!-- 2067587856912&#45;&#45;2067589045216 -->
<g id="edge11" class="edge">
<title>2067587856912&#45;&#45;2067589045216</title>
<path fill="none" stroke="black" d="M920.5,-169.98C968.37,-175.56 1047.67,-184.82 1111.5,-192.26"/>
</g>
<!-- 2067589050496 -->
<g id="node16" class="node">
<title>2067589050496</title>
<ellipse fill="black" stroke="black" cx="1213.09" cy="-165" rx="2.7" ry="2.7"/>
</g>
<!-- 2067587856912&#45;&#45;2067589050496 -->
<g id="edge12" class="edge">
<title>2067587856912&#45;&#45;2067589050496</title>
<path fill="none" stroke="black" d="M922.21,-165C1008.17,-165 1190.65,-165 1210.35,-165"/>
</g>
<!-- 2067589040992 -->
<g id="node18" class="node">
<title>2067589040992</title>
<ellipse fill="none" stroke="black" cx="1213.09" cy="-126" rx="142.97" ry="18"/>
<text text-anchor="middle" x="1213.09" y="-120" font-family="Times New Roman,serif" font-size="15.00">Applicant plays stakeholder role</text>
</g>
<!-- 2067587842704&#45;&#45;2067589040992 -->
<g id="edge14" class="edge">
<title>2067587842704&#45;&#45;2067589040992</title>
<path fill="none" stroke="black" d="M903.78,-93.72C945.81,-98.12 1031.15,-107.05 1101.41,-114.41"/>
</g>
<!-- 2067589681504 -->
<g id="node19" class="node">
<title>2067589681504</title>
<ellipse fill="none" stroke="black" cx="1213.09" cy="-72" rx="27" ry="18"/>
<text text-anchor="middle" x="1213.09" y="-66" font-family="Times New Roman,serif" font-size="15.00">xor</text>
</g>
<!-- 2067587842704&#45;&#45;2067589681504 -->
<g id="edge17" class="edge">
<title>2067587842704&#45;&#45;2067589681504</title>
<path fill="none" stroke="black" d="M904.05,-89.51C966.54,-85.96 1123.62,-77.03 1185.98,-73.48"/>
</g>
<!-- 2067589049488 -->
<g id="node22" class="node">
<title>2067589049488</title>
<ellipse fill="none" stroke="black" cx="1213.09" cy="-18" rx="128.63" ry="18"/>
<text text-anchor="middle" x="1213.09" y="-12" font-family="Times New Roman,serif" font-size="15.00">Evaluate provisional charges</text>
</g>
<!-- 2067587842704&#45;&#45;2067589049488 -->
<g id="edge18" class="edge">
<title>2067587842704&#45;&#45;2067589049488</title>
<path fill="none" stroke="black" d="M902.95,-85.51C953.05,-74.57 1066.99,-49.69 1141.66,-33.38"/>
</g>
<!-- 2067589691056 -->
<g id="node20" class="node">
<title>2067589691056</title>
<ellipse fill="black" stroke="black" cx="1465.41" cy="-91" rx="2.7" ry="2.7"/>
</g>
<!-- 2067589681504&#45;&#45;2067589691056 -->
<g id="edge15" class="edge">
<title>2067589681504&#45;&#45;2067589691056</title>
<path fill="none" stroke="black" d="M1240.4,-74C1300.4,-78.55 1443.62,-89.42 1462.37,-90.85"/>
</g>
<!-- 2067589678048 -->
<g id="node21" class="node">
<title>2067589678048</title>
<ellipse fill="none" stroke="black" cx="1465.41" cy="-52" rx="73.36" ry="18"/>
<text text-anchor="middle" x="1465.41" y="-46" font-family="Times New Roman,serif" font-size="15.00">Stop on request</text>
</g>
<!-- 2067589681504&#45;&#45;2067589678048 -->
<g id="edge16" class="edge">
<title>2067589681504&#45;&#45;2067589678048</title>
<path fill="none" stroke="black" d="M1240.4,-69.9C1276.8,-66.99 1343.84,-61.63 1395.12,-57.54"/>
</g>
</g>
</svg>
