<?xml version="1.0" encoding="UTF-8" standalone="no"?>
<!DOCTYPE svg PUBLIC "-//W3C//DTD SVG 1.1//EN"
 "http://www.w3.org/Graphics/SVG/1.1/DTD/svg11.dtd">
<!-- Generated by graphviz version 11.0.0 (20240428.1522)
 -->
<!-- Title: pt Pages: 1 -->
<svg width="3997pt" height="656pt"
 viewBox="0.00 0.00 3997.17 656.00" xmlns="http://www.w3.org/2000/svg" xmlns:xlink="http://www.w3.org/1999/xlink">
<g id="graph0" class="graph" transform="scale(1 1) rotate(0) translate(4 652)">
<title>pt</title>
<polygon fill="white" stroke="none" points="-4,4 -4,-652 3993.17,-652 3993.17,4 -4,4"/>
<!-- 2082705638896 -->
<g id="node1" class="node">
<title>2082705638896</title>
<ellipse fill="none" stroke="black" cx="27" cy="-192" rx="27" ry="18"/>
<text text-anchor="middle" x="27" y="-186" font-family="Times New Roman,serif" font-size="15.00">seq</text>
</g>
<!-- 2082705646048 -->
<g id="node2" class="node">
<title>2082705646048</title>
<ellipse fill="none" stroke="black" cx="117" cy="-333" rx="27" ry="18"/>
<text text-anchor="middle" x="117" y="-327" font-family="Times New Roman,serif" font-size="15.00">xor</text>
</g>
<!-- 2082705638896&#45;&#45;2082705646048 -->
<g id="edge69" class="edge">
<title>2082705638896&#45;&#45;2082705646048</title>
<path fill="none" stroke="black" d="M38.44,-208.73C55.38,-235.86 88.65,-289.17 105.57,-316.29"/>
</g>
<!-- 2082705639616 -->
<g id="node71" class="node">
<title>2082705639616</title>
<ellipse fill="none" stroke="black" cx="117" cy="-153" rx="27" ry="18"/>
<text text-anchor="middle" x="117" y="-147" font-family="Times New Roman,serif" font-size="15.00">xor</text>
</g>
<!-- 2082705638896&#45;&#45;2082705639616 -->
<g id="edge77" class="edge">
<title>2082705638896&#45;&#45;2082705639616</title>
<path fill="none" stroke="black" d="M50.21,-182.16C63.55,-176.25 80.46,-168.75 93.8,-162.84"/>
</g>
<!-- 2082705643024 -->
<g id="node3" class="node">
<title>2082705643024</title>
<ellipse fill="black" stroke="black" cx="297.89" cy="-480" rx="2.7" ry="2.7"/>
</g>
<!-- 2082705646048&#45;&#45;2082705643024 -->
<g id="edge1" class="edge">
<title>2082705646048&#45;&#45;2082705643024</title>
<path fill="none" stroke="black" d="M134.83,-346.83C176.23,-380.85 280.72,-466.72 295.21,-478.62"/>
</g>
<!-- 2082705643744 -->
<g id="node4" class="node">
<title>2082705643744</title>
<ellipse fill="none" stroke="black" cx="297.89" cy="-441" rx="27" ry="18"/>
<text text-anchor="middle" x="297.89" y="-435" font-family="Times New Roman,serif" font-size="15.00">seq</text>
</g>
<!-- 2082705646048&#45;&#45;2082705643744 -->
<g id="edge10" class="edge">
<title>2082705646048&#45;&#45;2082705643744</title>
<path fill="none" stroke="black" d="M137.83,-344.97C172.3,-365.79 242.9,-408.4 277.24,-429.14"/>
</g>
<!-- 2082705637792 -->
<g id="node13" class="node">
<title>2082705637792</title>
<ellipse fill="none" stroke="black" cx="297.89" cy="-258" rx="27" ry="18"/>
<text text-anchor="middle" x="297.89" y="-252" font-family="Times New Roman,serif" font-size="15.00">and</text>
</g>
<!-- 2082705646048&#45;&#45;2082705637792 -->
<g id="edge68" class="edge">
<title>2082705646048&#45;&#45;2082705637792</title>
<path fill="none" stroke="black" d="M140.29,-323.65C174.57,-309.28 239.86,-281.91 274.31,-267.46"/>
</g>
<!-- 2082705646384 -->
<g id="node5" class="node">
<title>2082705646384</title>
<ellipse fill="none" stroke="black" cx="624.93" cy="-630" rx="128.63" ry="18"/>
<text text-anchor="middle" x="624.93" y="-624" font-family="Times New Roman,serif" font-size="15.00">initiative competent authority</text>
</g>
<!-- 2082705643744&#45;&#45;2082705646384 -->
<g id="edge2" class="edge">
<title>2082705643744&#45;&#45;2082705646384</title>
<path fill="none" stroke="black" d="M318.73,-452.54C373.59,-484.44 527.58,-573.98 593.44,-612.27"/>
</g>
<!-- 2082705642784 -->
<g id="node6" class="node">
<title>2082705642784</title>
<ellipse fill="none" stroke="black" cx="624.93" cy="-576" rx="168.04" ry="18"/>
<text text-anchor="middle" x="624.93" y="-570" font-family="Times New Roman,serif" font-size="15.00">enter date termination request received</text>
</g>
<!-- 2082705643744&#45;&#45;2082705642784 -->
<g id="edge3" class="edge">
<title>2082705643744&#45;&#45;2082705642784</title>
<path fill="none" stroke="black" d="M321.49,-450.39C375.19,-472.69 511.16,-529.16 581.04,-558.18"/>
</g>
<!-- 2082705648064 -->
<g id="node7" class="node">
<title>2082705648064</title>
<ellipse fill="none" stroke="black" cx="624.93" cy="-522" rx="173.16" ry="18"/>
<text text-anchor="middle" x="624.93" y="-516" font-family="Times New Roman,serif" font-size="15.00">phase procedure prematurely terminated</text>
</g>
<!-- 2082705643744&#45;&#45;2082705648064 -->
<g id="edge4" class="edge">
<title>2082705643744&#45;&#45;2082705648064</title>
<path fill="none" stroke="black" d="M323.58,-447.15C372.55,-459.36 483.45,-486.99 555.92,-505.05"/>
</g>
<!-- 2082705640048 -->
<g id="node8" class="node">
<title>2082705640048</title>
<ellipse fill="none" stroke="black" cx="624.93" cy="-468" rx="143.48" ry="18"/>
<text text-anchor="middle" x="624.93" y="-462" font-family="Times New Roman,serif" font-size="15.00">create message terminate request</text>
</g>
<!-- 2082705643744&#45;&#45;2082705640048 -->
<g id="edge5" class="edge">
<title>2082705643744&#45;&#45;2082705640048</title>
<path fill="none" stroke="black" d="M324.94,-443.16C363.58,-446.37 438.54,-452.6 503.74,-458.02"/>
</g>
<!-- 2082705642832 -->
<g id="node9" class="node">
<title>2082705642832</title>
<ellipse fill="none" stroke="black" cx="624.93" cy="-414" rx="27" ry="18"/>
<text text-anchor="middle" x="624.93" y="-408" font-family="Times New Roman,serif" font-size="15.00">and</text>
</g>
<!-- 2082705643744&#45;&#45;2082705642832 -->
<g id="edge8" class="edge">
<title>2082705643744&#45;&#45;2082705642832</title>
<path fill="none" stroke="black" d="M324.94,-438.84C385.8,-433.78 536.78,-421.24 597.76,-416.17"/>
</g>
<!-- 2082705642112 -->
<g id="node12" class="node">
<title>2082705642112</title>
<ellipse fill="none" stroke="black" cx="624.93" cy="-360" rx="110.72" ry="18"/>
<text text-anchor="middle" x="624.93" y="-354" font-family="Times New Roman,serif" font-size="15.00">phase procedure aborted</text>
</g>
<!-- 2082705643744&#45;&#45;2082705642112 -->
<g id="edge9" class="edge">
<title>2082705643744&#45;&#45;2082705642112</title>
<path fill="none" stroke="black" d="M323.58,-434.85C374.11,-422.26 490.56,-393.24 562.71,-375.26"/>
</g>
<!-- 2082705646816 -->
<g id="node10" class="node">
<title>2082705646816</title>
<ellipse fill="none" stroke="black" cx="982.69" cy="-429" rx="116.35" ry="18"/>
<text text-anchor="middle" x="982.69" y="-423" font-family="Times New Roman,serif" font-size="15.00">message terminate request</text>
</g>
<!-- 2082705642832&#45;&#45;2082705646816 -->
<g id="edge6" class="edge">
<title>2082705642832&#45;&#45;2082705646816</title>
<path fill="none" stroke="black" d="M652.38,-415.12C697.87,-417.03 793.42,-421.06 869.93,-424.29"/>
</g>
<!-- 2082705642688 -->
<g id="node11" class="node">
<title>2082705642688</title>
<ellipse fill="none" stroke="black" cx="982.69" cy="-375" rx="148.59" ry="18"/>
<text text-anchor="middle" x="982.69" y="-369" font-family="Times New Roman,serif" font-size="15.00">enter senddate request termination</text>
</g>
<!-- 2082705642832&#45;&#45;2082705642688 -->
<g id="edge7" class="edge">
<title>2082705642832&#45;&#45;2082705642688</title>
<path fill="none" stroke="black" d="M652.09,-411.13C697.59,-406.15 793.75,-395.6 870.53,-387.19"/>
</g>
<!-- 2082705643696 -->
<g id="node14" class="node">
<title>2082705643696</title>
<ellipse fill="none" stroke="black" cx="624.93" cy="-306" rx="27" ry="18"/>
<text text-anchor="middle" x="624.93" y="-300" font-family="Times New Roman,serif" font-size="15.00">xor</text>
</g>
<!-- 2082705637792&#45;&#45;2082705643696 -->
<g id="edge15" class="edge">
<title>2082705637792&#45;&#45;2082705643696</title>
<path fill="none" stroke="black" d="M324.66,-261.81C385.48,-270.79 537.34,-293.21 598.15,-302.19"/>
</g>
<!-- 2082705638560 -->
<g id="node19" class="node">
<title>2082705638560</title>
<ellipse fill="none" stroke="black" cx="624.93" cy="-252" rx="119.93" ry="18"/>
<text text-anchor="middle" x="624.93" y="-246" font-family="Times New Roman,serif" font-size="15.00">phase application received</text>
</g>
<!-- 2082705637792&#45;&#45;2082705638560 -->
<g id="edge16" class="edge">
<title>2082705637792&#45;&#45;2082705638560</title>
<path fill="none" stroke="black" d="M325.21,-257.51C364.28,-256.79 440.05,-255.39 505.49,-254.19"/>
</g>
<!-- 2082705639760 -->
<g id="node20" class="node">
<title>2082705639760</title>
<ellipse fill="none" stroke="black" cx="624.93" cy="-198" rx="140.41" ry="18"/>
<text text-anchor="middle" x="624.93" y="-192" font-family="Times New Roman,serif" font-size="15.00">register submission date request</text>
</g>
<!-- 2082705637792&#45;&#45;2082705639760 -->
<g id="edge17" class="edge">
<title>2082705637792&#45;&#45;2082705639760</title>
<path fill="none" stroke="black" d="M324.39,-253.29C370.86,-244.71 471.13,-226.21 542.86,-212.97"/>
</g>
<!-- 2082705641680 -->
<g id="node21" class="node">
<title>2082705641680</title>
<ellipse fill="none" stroke="black" cx="624.93" cy="-144" rx="27" ry="18"/>
<text text-anchor="middle" x="624.93" y="-138" font-family="Times New Roman,serif" font-size="15.00">seq</text>
</g>
<!-- 2082705637792&#45;&#45;2082705641680 -->
<g id="edge67" class="edge">
<title>2082705637792&#45;&#45;2082705641680</title>
<path fill="none" stroke="black" d="M322.26,-249.8C382.24,-228.77 541.03,-173.08 600.77,-152.12"/>
</g>
<!-- 2082705650512 -->
<g id="node15" class="node">
<title>2082705650512</title>
<ellipse fill="black" stroke="black" cx="982.69" cy="-329" rx="2.7" ry="2.7"/>
</g>
<!-- 2082705643696&#45;&#45;2082705650512 -->
<g id="edge11" class="edge">
<title>2082705643696&#45;&#45;2082705650512</title>
<path fill="none" stroke="black" d="M652.09,-307.69C729.76,-312.71 955.12,-327.28 979.54,-328.86"/>
</g>
<!-- 2082705644704 -->
<g id="node16" class="node">
<title>2082705644704</title>
<ellipse fill="none" stroke="black" cx="982.69" cy="-290" rx="45.21" ry="18"/>
<text text-anchor="middle" x="982.69" y="-284" font-family="Times New Roman,serif" font-size="15.00">xor loop</text>
</g>
<!-- 2082705643696&#45;&#45;2082705644704 -->
<g id="edge14" class="edge">
<title>2082705643696&#45;&#45;2082705644704</title>
<path fill="none" stroke="black" d="M652.09,-304.82C712.51,-302.11 862.3,-295.37 937.35,-291.99"/>
</g>
<!-- 2082705638224 -->
<g id="node17" class="node">
<title>2082705638224</title>
<ellipse fill="none" stroke="black" cx="1356.83" cy="-309" rx="189.54" ry="18"/>
<text text-anchor="middle" x="1356.83" y="-303" font-family="Times New Roman,serif" font-size="15.00">registrer date of publishing received request</text>
</g>
<!-- 2082705644704&#45;&#45;2082705638224 -->
<g id="edge12" class="edge">
<title>2082705644704&#45;&#45;2082705638224</title>
<path fill="none" stroke="black" d="M1027.84,-292.25C1067.89,-294.3 1129.53,-297.45 1188.6,-300.46"/>
</g>
<!-- 2082705637696 -->
<g id="node18" class="node">
<title>2082705637696</title>
<ellipse fill="black" stroke="black" cx="1356.83" cy="-270" rx="2.7" ry="2.7"/>
</g>
<!-- 2082705644704&#45;&#45;2082705637696 -->
<g id="edge13" class="edge">
<title>2082705644704&#45;&#45;2082705637696</title>
<path fill="none" stroke="black" d="M1027.84,-287.63C1121.03,-282.62 1331.13,-271.33 1353.83,-270.11"/>
</g>
<!-- 2082705646096 -->
<g id="node22" class="node">
<title>2082705646096</title>
<ellipse fill="none" stroke="black" cx="982.69" cy="-172" rx="27" ry="18"/>
<text text-anchor="middle" x="982.69" y="-166" font-family="Times New Roman,serif" font-size="15.00">and</text>
</g>
<!-- 2082705641680&#45;&#45;2082705646096 -->
<g id="edge63" class="edge">
<title>2082705641680&#45;&#45;2082705646096</title>
<path fill="none" stroke="black" d="M652.09,-146.06C717.88,-151.24 889.66,-164.76 955.49,-169.94"/>
</g>
<!-- 2082705642352 -->
<g id="node68" class="node">
<title>2082705642352</title>
<ellipse fill="none" stroke="black" cx="982.69" cy="-118" rx="27" ry="18"/>
<text text-anchor="middle" x="982.69" y="-112" font-family="Times New Roman,serif" font-size="15.00">xor</text>
</g>
<!-- 2082705641680&#45;&#45;2082705642352 -->
<g id="edge66" class="edge">
<title>2082705641680&#45;&#45;2082705642352</title>
<path fill="none" stroke="black" d="M652.09,-142.09C717.88,-137.28 889.66,-124.73 955.49,-119.91"/>
</g>
<!-- 2082705646720 -->
<g id="node23" class="node">
<title>2082705646720</title>
<ellipse fill="none" stroke="black" cx="1356.83" cy="-222" rx="102.02" ry="18"/>
<text text-anchor="middle" x="1356.83" y="-216" font-family="Times New Roman,serif" font-size="15.00">start WABOprocedure</text>
</g>
<!-- 2082705646096&#45;&#45;2082705646720 -->
<g id="edge18" class="edge">
<title>2082705646096&#45;&#45;2082705646720</title>
<path fill="none" stroke="black" d="M1009.56,-175.48C1063.54,-182.73 1190.14,-199.74 1274.37,-211.06"/>
</g>
<!-- 2082705648016 -->
<g id="node24" class="node">
<title>2082705648016</title>
<ellipse fill="none" stroke="black" cx="1356.83" cy="-168" rx="27" ry="18"/>
<text text-anchor="middle" x="1356.83" y="-162" font-family="Times New Roman,serif" font-size="15.00">seq</text>
</g>
<!-- 2082705646096&#45;&#45;2082705648016 -->
<g id="edge62" class="edge">
<title>2082705646096&#45;&#45;2082705648016</title>
<path fill="none" stroke="black" d="M1010.16,-171.72C1078.73,-170.98 1261.59,-169.01 1329.74,-168.28"/>
</g>
<!-- 2082705647104 -->
<g id="node25" class="node">
<title>2082705647104</title>
<ellipse fill="none" stroke="black" cx="1725.84" cy="-376" rx="27" ry="18"/>
<text text-anchor="middle" x="1725.84" y="-370" font-family="Times New Roman,serif" font-size="15.00">xor</text>
</g>
<!-- 2082705648016&#45;&#45;2082705647104 -->
<g id="edge42" class="edge">
<title>2082705648016&#45;&#45;2082705647104</title>
<path fill="none" stroke="black" d="M1378.08,-179.48C1442.25,-215.85 1640.57,-328.24 1704.65,-364.56"/>
</g>
<!-- 2082705643456 -->
<g id="node49" class="node">
<title>2082705643456</title>
<ellipse fill="none" stroke="black" cx="1725.84" cy="-222" rx="45.21" ry="18"/>
<text text-anchor="middle" x="1725.84" y="-216" font-family="Times New Roman,serif" font-size="15.00">xor loop</text>
</g>
<!-- 2082705648016&#45;&#45;2082705643456 -->
<g id="edge56" class="edge">
<title>2082705648016&#45;&#45;2082705643456</title>
<path fill="none" stroke="black" d="M1383.63,-171.8C1446.21,-181 1606.47,-204.58 1682.98,-215.84"/>
</g>
<!-- 2082705644416 -->
<g id="node63" class="node">
<title>2082705644416</title>
<ellipse fill="none" stroke="black" cx="1725.84" cy="-168" rx="124.54" ry="18"/>
<text text-anchor="middle" x="1725.84" y="-162" font-family="Times New Roman,serif" font-size="15.00">registration date publication</text>
</g>
<!-- 2082705648016&#45;&#45;2082705644416 -->
<g id="edge57" class="edge">
<title>2082705648016&#45;&#45;2082705644416</title>
<path fill="none" stroke="black" d="M1384.22,-168C1429.09,-168 1522.95,-168 1600.8,-168"/>
</g>
<!-- 2082705643120 -->
<g id="node64" class="node">
<title>2082705643120</title>
<ellipse fill="none" stroke="black" cx="1725.84" cy="-114" rx="143.48" ry="18"/>
<text text-anchor="middle" x="1725.84" y="-108" font-family="Times New Roman,serif" font-size="15.00">enter senddate acknowledgement</text>
</g>
<!-- 2082705648016&#45;&#45;2082705643120 -->
<g id="edge58" class="edge">
<title>2082705648016&#45;&#45;2082705643120</title>
<path fill="none" stroke="black" d="M1383.63,-164.2C1434.13,-156.77 1548.26,-139.98 1630.64,-127.86"/>
</g>
<!-- 2082705640096 -->
<g id="node65" class="node">
<title>2082705640096</title>
<ellipse fill="none" stroke="black" cx="1725.84" cy="-60" rx="27" ry="18"/>
<text text-anchor="middle" x="1725.84" y="-54" font-family="Times New Roman,serif" font-size="15.00">xor</text>
</g>
<!-- 2082705648016&#45;&#45;2082705640096 -->
<g id="edge61" class="edge">
<title>2082705648016&#45;&#45;2082705640096</title>
<path fill="none" stroke="black" d="M1381.91,-160.91C1448.41,-141.34 1634.07,-86.71 1700.67,-67.11"/>
</g>
<!-- 2082705640672 -->
<g id="node26" class="node">
<title>2082705640672</title>
<ellipse fill="none" stroke="black" cx="2034.47" cy="-430" rx="102.02" ry="18"/>
<text text-anchor="middle" x="2034.47" y="-424" font-family="Times New Roman,serif" font-size="15.00">OLO messaging active</text>
</g>
<!-- 2082705647104&#45;&#45;2082705640672 -->
<g id="edge19" class="edge">
<title>2082705647104&#45;&#45;2082705640672</title>
<path fill="none" stroke="black" d="M1752.46,-380.51C1797.8,-388.5 1893.71,-405.39 1960.81,-417.2"/>
</g>
<!-- 2082705643360 -->
<g id="node27" class="node">
<title>2082705643360</title>
<ellipse fill="none" stroke="black" cx="2034.47" cy="-376" rx="27" ry="18"/>
<text text-anchor="middle" x="2034.47" y="-370" font-family="Times New Roman,serif" font-size="15.00">seq</text>
</g>
<!-- 2082705647104&#45;&#45;2082705643360 -->
<g id="edge41" class="edge">
<title>2082705647104&#45;&#45;2082705643360</title>
<path fill="none" stroke="black" d="M1753.25,-376C1811.21,-376 1949.01,-376 2007.01,-376"/>
</g>
<!-- 2082705637552 -->
<g id="node28" class="node">
<title>2082705637552</title>
<ellipse fill="none" stroke="black" cx="2226.61" cy="-457" rx="27" ry="18"/>
<text text-anchor="middle" x="2226.61" y="-451" font-family="Times New Roman,serif" font-size="15.00">xor</text>
</g>
<!-- 2082705643360&#45;&#45;2082705637552 -->
<g id="edge22" class="edge">
<title>2082705643360&#45;&#45;2082705637552</title>
<path fill="none" stroke="black" d="M2057.65,-385.45C2094.19,-401.02 2166.63,-431.88 2203.27,-447.48"/>
</g>
<!-- 2082705646480 -->
<g id="node31" class="node">
<title>2082705646480</title>
<ellipse fill="none" stroke="black" cx="2226.61" cy="-376" rx="27" ry="18"/>
<text text-anchor="middle" x="2226.61" y="-370" font-family="Times New Roman,serif" font-size="15.00">xor</text>
</g>
<!-- 2082705643360&#45;&#45;2082705646480 -->
<g id="edge40" class="edge">
<title>2082705643360&#45;&#45;2082705646480</title>
<path fill="none" stroke="black" d="M2061.9,-376C2098.23,-376 2163.19,-376 2199.4,-376"/>
</g>
<!-- 2082705640768 -->
<g id="node29" class="node">
<title>2082705640768</title>
<ellipse fill="black" stroke="black" cx="2455.61" cy="-496" rx="2.7" ry="2.7"/>
</g>
<!-- 2082705637552&#45;&#45;2082705640768 -->
<g id="edge20" class="edge">
<title>2082705637552&#45;&#45;2082705640768</title>
<path fill="none" stroke="black" d="M2253.21,-461.4C2308.4,-470.88 2435.04,-492.64 2452.58,-495.65"/>
</g>
<!-- 2082705643072 -->
<g id="node30" class="node">
<title>2082705643072</title>
<ellipse fill="none" stroke="black" cx="2455.61" cy="-457" rx="166" ry="18"/>
<text text-anchor="middle" x="2455.61" y="-451" font-family="Times New Roman,serif" font-size="15.00">enter senddate procedure confirmation</text>
</g>
<!-- 2082705637552&#45;&#45;2082705643072 -->
<g id="edge21" class="edge">
<title>2082705637552&#45;&#45;2082705643072</title>
<path fill="none" stroke="black" d="M2254.1,-457C2264.04,-457 2276.2,-457 2289.58,-457"/>
</g>
<!-- 2082705650416 -->
<g id="node32" class="node">
<title>2082705650416</title>
<ellipse fill="none" stroke="black" cx="2455.61" cy="-403" rx="124.03" ry="18"/>
<text text-anchor="middle" x="2455.61" y="-397" font-family="Times New Roman,serif" font-size="15.00">treat subcases completeness</text>
</g>
<!-- 2082705646480&#45;&#45;2082705650416 -->
<g id="edge23" class="edge">
<title>2082705646480&#45;&#45;2082705650416</title>
<path fill="none" stroke="black" d="M2253.65,-379.1C2279.27,-382.14 2319.98,-386.99 2358.07,-391.52"/>
</g>
<!-- 2082705642160 -->
<g id="node33" class="node">
<title>2082705642160</title>
<ellipse fill="none" stroke="black" cx="2455.61" cy="-349" rx="27" ry="18"/>
<text text-anchor="middle" x="2455.61" y="-343" font-family="Times New Roman,serif" font-size="15.00">seq</text>
</g>
<!-- 2082705646480&#45;&#45;2082705642160 -->
<g id="edge39" class="edge">
<title>2082705646480&#45;&#45;2082705642160</title>
<path fill="none" stroke="black" d="M2253.65,-372.9C2297.32,-367.71 2384.82,-357.3 2428.52,-352.1"/>
</g>
<!-- 2082705637888 -->
<g id="node34" class="node">
<title>2082705637888</title>
<ellipse fill="none" stroke="black" cx="2790.33" cy="-376" rx="27" ry="18"/>
<text text-anchor="middle" x="2790.33" y="-370" font-family="Times New Roman,serif" font-size="15.00">xor</text>
</g>
<!-- 2082705642160&#45;&#45;2082705637888 -->
<g id="edge35" class="edge">
<title>2082705642160&#45;&#45;2082705637888</title>
<path fill="none" stroke="black" d="M2482.72,-351.12C2544.91,-356.17 2701.27,-368.85 2763.35,-373.89"/>
</g>
<!-- 2082705647056 -->
<g id="node46" class="node">
<title>2082705647056</title>
<ellipse fill="none" stroke="black" cx="2790.33" cy="-322" rx="27" ry="18"/>
<text text-anchor="middle" x="2790.33" y="-316" font-family="Times New Roman,serif" font-size="15.00">xor</text>
</g>
<!-- 2082705642160&#45;&#45;2082705647056 -->
<g id="edge38" class="edge">
<title>2082705642160&#45;&#45;2082705647056</title>
<path fill="none" stroke="black" d="M2482.72,-346.88C2544.91,-341.83 2701.27,-329.15 2763.35,-324.11"/>
</g>
<!-- 2082705649024 -->
<g id="node35" class="node">
<title>2082705649024</title>
<ellipse fill="none" stroke="black" cx="3062.62" cy="-453" rx="27" ry="18"/>
<text text-anchor="middle" x="3062.62" y="-447" font-family="Times New Roman,serif" font-size="15.00">seq</text>
</g>
<!-- 2082705637888&#45;&#45;2082705649024 -->
<g id="edge30" class="edge">
<title>2082705637888&#45;&#45;2082705649024</title>
<path fill="none" stroke="black" d="M2815.8,-382.97C2867.26,-397.63 2986.17,-431.5 3037.41,-446.1"/>
</g>
<!-- 2082705650752 -->
<g id="node42" class="node">
<title>2082705650752</title>
<ellipse fill="none" stroke="black" cx="3062.62" cy="-372" rx="27" ry="18"/>
<text text-anchor="middle" x="3062.62" y="-366" font-family="Times New Roman,serif" font-size="15.00">seq</text>
</g>
<!-- 2082705637888&#45;&#45;2082705650752 -->
<g id="edge34" class="edge">
<title>2082705637888&#45;&#45;2082705650752</title>
<path fill="none" stroke="black" d="M2817.74,-375.61C2869.55,-374.84 2983.93,-373.15 3035.5,-372.39"/>
</g>
<!-- 2082705653104 -->
<g id="node36" class="node">
<title>2082705653104</title>
<ellipse fill="none" stroke="black" cx="3393.76" cy="-507" rx="27" ry="18"/>
<text text-anchor="middle" x="3393.76" y="-501" font-family="Times New Roman,serif" font-size="15.00">xor</text>
</g>
<!-- 2082705649024&#45;&#45;2082705653104 -->
<g id="edge26" class="edge">
<title>2082705649024&#45;&#45;2082705653104</title>
<path fill="none" stroke="black" d="M3089.17,-457.19C3150.49,-467.25 3305.46,-492.68 3367,-502.77"/>
</g>
<!-- 2082705641344 -->
<g id="node39" class="node">
<title>2082705641344</title>
<ellipse fill="none" stroke="black" cx="3393.76" cy="-453" rx="27" ry="18"/>
<text text-anchor="middle" x="3393.76" y="-447" font-family="Times New Roman,serif" font-size="15.00">and</text>
</g>
<!-- 2082705649024&#45;&#45;2082705641344 -->
<g id="edge29" class="edge">
<title>2082705649024&#45;&#45;2082705641344</title>
<path fill="none" stroke="black" d="M3090,-453C3151.78,-453 3305.26,-453 3366.71,-453"/>
</g>
<!-- 2082705640000 -->
<g id="node37" class="node">
<title>2082705640000</title>
<ellipse fill="black" stroke="black" cx="3805.26" cy="-546" rx="2.7" ry="2.7"/>
</g>
<!-- 2082705653104&#45;&#45;2082705640000 -->
<g id="edge24" class="edge">
<title>2082705653104&#45;&#45;2082705640000</title>
<path fill="none" stroke="black" d="M3421,-509.5C3507.14,-517.7 3777.25,-543.43 3802.38,-545.82"/>
</g>
<!-- 2082705638272 -->
<g id="node38" class="node">
<title>2082705638272</title>
<ellipse fill="none" stroke="black" cx="3805.26" cy="-507" rx="170.6" ry="18"/>
<text text-anchor="middle" x="3805.26" y="-501" font-family="Times New Roman,serif" font-size="15.00">phase forwarded to competent authority</text>
</g>
<!-- 2082705653104&#45;&#45;2082705638272 -->
<g id="edge25" class="edge">
<title>2082705653104&#45;&#45;2082705638272</title>
<path fill="none" stroke="black" d="M3421,-507C3464.03,-507 3552.95,-507 3634.32,-507"/>
</g>
<!-- 2082705645136 -->
<g id="node40" class="node">
<title>2082705645136</title>
<ellipse fill="none" stroke="black" cx="3805.26" cy="-453" rx="155.76" ry="18"/>
<text text-anchor="middle" x="3805.26" y="-447" font-family="Times New Roman,serif" font-size="15.00">enter senddate letter to stakeholders</text>
</g>
<!-- 2082705641344&#45;&#45;2082705645136 -->
<g id="edge27" class="edge">
<title>2082705641344&#45;&#45;2082705645136</title>
<path fill="none" stroke="black" d="M3421,-453C3466.72,-453 3564.26,-453 3649.49,-453"/>
</g>
<!-- 2082705639712 -->
<g id="node41" class="node">
<title>2082705639712</title>
<ellipse fill="none" stroke="black" cx="3805.26" cy="-399" rx="183.91" ry="18"/>
<text text-anchor="middle" x="3805.26" y="-393" font-family="Times New Roman,serif" font-size="15.00">enter senddate letter to competent authority</text>
</g>
<!-- 2082705641344&#45;&#45;2082705639712 -->
<g id="edge28" class="edge">
<title>2082705641344&#45;&#45;2082705639712</title>
<path fill="none" stroke="black" d="M3420.69,-449.58C3474.31,-442.51 3600.16,-425.91 3693.16,-413.65"/>
</g>
<!-- 2082705640432 -->
<g id="node43" class="node">
<title>2082705640432</title>
<ellipse fill="none" stroke="black" cx="3393.76" cy="-399" rx="191.59" ry="18"/>
<text text-anchor="middle" x="3393.76" y="-393" font-family="Times New Roman,serif" font-size="15.00">no permit needed or only notification needed</text>
</g>
<!-- 2082705650752&#45;&#45;2082705640432 -->
<g id="edge31" class="edge">
<title>2082705650752&#45;&#45;2082705640432</title>
<path fill="none" stroke="black" d="M3089.72,-374.14C3124.16,-376.97 3187.43,-382.16 3247.29,-387.07"/>
</g>
<!-- 2082705640144 -->
<g id="node44" class="node">
<title>2082705640144</title>
<ellipse fill="none" stroke="black" cx="3393.76" cy="-345" rx="107.14" ry="18"/>
<text text-anchor="middle" x="3393.76" y="-339" font-family="Times New Roman,serif" font-size="15.00">applicant is stakeholder</text>
</g>
<!-- 2082705650752&#45;&#45;2082705640144 -->
<g id="edge32" class="edge">
<title>2082705650752&#45;&#45;2082705640144</title>
<path fill="none" stroke="black" d="M3089.72,-369.86C3133.89,-366.24 3225.49,-358.72 3296.49,-352.9"/>
</g>
<!-- 2082705641104 -->
<g id="node45" class="node">
<title>2082705641104</title>
<ellipse fill="none" stroke="black" cx="3393.76" cy="-291" rx="92.3" ry="18"/>
<text text-anchor="middle" x="3393.76" y="-285" font-family="Times New Roman,serif" font-size="15.00">terminate on request</text>
</g>
<!-- 2082705650752&#45;&#45;2082705641104 -->
<g id="edge33" class="edge">
<title>2082705650752&#45;&#45;2082705641104</title>
<path fill="none" stroke="black" d="M3088.36,-365.91C3140.31,-353.13 3261.96,-323.19 3334.77,-305.27"/>
</g>
<!-- 2082705645376 -->
<g id="node47" class="node">
<title>2082705645376</title>
<ellipse fill="black" stroke="black" cx="3062.62" cy="-326" rx="2.7" ry="2.7"/>
</g>
<!-- 2082705647056&#45;&#45;2082705645376 -->
<g id="edge36" class="edge">
<title>2082705647056&#45;&#45;2082705645376</title>
<path fill="none" stroke="black" d="M2817.74,-322.39C2881.5,-323.33 3040.06,-325.68 3059.63,-325.97"/>
</g>
<!-- 2082705642016 -->
<g id="node48" class="node">
<title>2082705642016</title>
<ellipse fill="none" stroke="black" cx="3062.62" cy="-287" rx="103.56" ry="18"/>
<text text-anchor="middle" x="3062.62" y="-281" font-family="Times New Roman,serif" font-size="15.00">reception through OLO</text>
</g>
<!-- 2082705647056&#45;&#45;2082705642016 -->
<g id="edge37" class="edge">
<title>2082705647056&#45;&#45;2082705642016</title>
<path fill="none" stroke="black" d="M2817.25,-318.64C2853.98,-313.89 2922.87,-304.97 2978.16,-297.81"/>
</g>
<!-- 2082705647152 -->
<g id="node50" class="node">
<title>2082705647152</title>
<ellipse fill="none" stroke="black" cx="2034.47" cy="-222" rx="27" ry="18"/>
<text text-anchor="middle" x="2034.47" y="-216" font-family="Times New Roman,serif" font-size="15.00">seq</text>
</g>
<!-- 2082705643456&#45;&#45;2082705647152 -->
<g id="edge54" class="edge">
<title>2082705643456&#45;&#45;2082705647152</title>
<path fill="none" stroke="black" d="M1771.43,-222C1836.37,-222 1954.94,-222 2007.36,-222"/>
</g>
<!-- 2082705639424 -->
<g id="node62" class="node">
<title>2082705639424</title>
<ellipse fill="black" stroke="black" cx="2034.47" cy="-183" rx="2.7" ry="2.7"/>
</g>
<!-- 2082705643456&#45;&#45;2082705639424 -->
<g id="edge55" class="edge">
<title>2082705643456&#45;&#45;2082705639424</title>
<path fill="none" stroke="black" d="M1769.48,-216.58C1848.46,-206.53 2011.37,-185.81 2031.43,-183.26"/>
</g>
<!-- 2082705647344 -->
<g id="node51" class="node">
<title>2082705647344</title>
<ellipse fill="none" stroke="black" cx="2226.61" cy="-249" rx="27" ry="18"/>
<text text-anchor="middle" x="2226.61" y="-243" font-family="Times New Roman,serif" font-size="15.00">xor</text>
</g>
<!-- 2082705647152&#45;&#45;2082705647344 -->
<g id="edge45" class="edge">
<title>2082705647152&#45;&#45;2082705647344</title>
<path fill="none" stroke="black" d="M2061.11,-225.64C2097.4,-230.79 2163.37,-240.16 2199.77,-245.33"/>
</g>
<!-- 2082705644800 -->
<g id="node54" class="node">
<title>2082705644800</title>
<ellipse fill="none" stroke="black" cx="2226.61" cy="-195" rx="27" ry="18"/>
<text text-anchor="middle" x="2226.61" y="-189" font-family="Times New Roman,serif" font-size="15.00">xor</text>
</g>
<!-- 2082705647152&#45;&#45;2082705644800 -->
<g id="edge50" class="edge">
<title>2082705647152&#45;&#45;2082705644800</title>
<path fill="none" stroke="black" d="M2061.11,-218.36C2097.4,-213.21 2163.37,-203.84 2199.77,-198.67"/>
</g>
<!-- 2082705644464 -->
<g id="node59" class="node">
<title>2082705644464</title>
<ellipse fill="none" stroke="black" cx="2226.61" cy="-109" rx="27" ry="18"/>
<text text-anchor="middle" x="2226.61" y="-103" font-family="Times New Roman,serif" font-size="15.00">xor</text>
</g>
<!-- 2082705647152&#45;&#45;2082705644464 -->
<g id="edge53" class="edge">
<title>2082705647152&#45;&#45;2082705644464</title>
<path fill="none" stroke="black" d="M2055.46,-210.12C2091.97,-188.42 2169.07,-142.6 2205.6,-120.89"/>
</g>
<!-- 2082705652240 -->
<g id="node52" class="node">
<title>2082705652240</title>
<ellipse fill="none" stroke="black" cx="2455.61" cy="-295" rx="149.62" ry="18"/>
<text text-anchor="middle" x="2455.61" y="-289" font-family="Times New Roman,serif" font-size="15.00">forward to the competent authority</text>
</g>
<!-- 2082705647344&#45;&#45;2082705652240 -->
<g id="edge43" class="edge">
<title>2082705647344&#45;&#45;2082705652240</title>
<path fill="none" stroke="black" d="M2252.77,-254.1C2282.61,-260.15 2333.77,-270.51 2377.11,-279.3"/>
</g>
<!-- 2082705652528 -->
<g id="node53" class="node">
<title>2082705652528</title>
<ellipse fill="none" stroke="black" cx="2455.61" cy="-241" rx="139.89" ry="18"/>
<text text-anchor="middle" x="2455.61" y="-235" font-family="Times New Roman,serif" font-size="15.00">regular procedure without MER</text>
</g>
<!-- 2082705647344&#45;&#45;2082705652528 -->
<g id="edge44" class="edge">
<title>2082705647344&#45;&#45;2082705652528</title>
<path fill="none" stroke="black" d="M2253.65,-248.08C2270.77,-247.48 2294.62,-246.64 2319.93,-245.75"/>
</g>
<!-- 2082705647488 -->
<g id="node55" class="node">
<title>2082705647488</title>
<ellipse fill="black" stroke="black" cx="2455.61" cy="-202" rx="2.7" ry="2.7"/>
</g>
<!-- 2082705644800&#45;&#45;2082705647488 -->
<g id="edge46" class="edge">
<title>2082705644800&#45;&#45;2082705647488</title>
<path fill="none" stroke="black" d="M2253.65,-195.8C2309.08,-197.51 2435.14,-201.4 2452.59,-201.94"/>
</g>
<!-- 2082705638512 -->
<g id="node56" class="node">
<title>2082705638512</title>
<ellipse fill="none" stroke="black" cx="2455.61" cy="-163" rx="27" ry="18"/>
<text text-anchor="middle" x="2455.61" y="-157" font-family="Times New Roman,serif" font-size="15.00">seq</text>
</g>
<!-- 2082705644800&#45;&#45;2082705638512 -->
<g id="edge49" class="edge">
<title>2082705644800&#45;&#45;2082705638512</title>
<path fill="none" stroke="black" d="M2253.21,-191.39C2296.81,-185.25 2384.99,-172.81 2428.76,-166.64"/>
</g>
<!-- 2082705638800 -->
<g id="node57" class="node">
<title>2082705638800</title>
<ellipse fill="none" stroke="black" cx="2790.33" cy="-190" rx="132.73" ry="18"/>
<text text-anchor="middle" x="2790.33" y="-184" font-family="Times New Roman,serif" font-size="15.00">create procedure confirmation</text>
</g>
<!-- 2082705638512&#45;&#45;2082705638800 -->
<g id="edge47" class="edge">
<title>2082705638512&#45;&#45;2082705638800</title>
<path fill="none" stroke="black" d="M2482.72,-165.12C2523.85,-168.46 2606.16,-175.14 2675.16,-180.73"/>
</g>
<!-- 2082705643168 -->
<g id="node58" class="node">
<title>2082705643168</title>
<ellipse fill="none" stroke="black" cx="2790.33" cy="-136" rx="40.6" ry="18"/>
<text text-anchor="middle" x="2790.33" y="-130" font-family="Times New Roman,serif" font-size="15.00">publish</text>
</g>
<!-- 2082705638512&#45;&#45;2082705643168 -->
<g id="edge48" class="edge">
<title>2082705638512&#45;&#45;2082705643168</title>
<path fill="none" stroke="black" d="M2482.72,-160.88C2540.85,-156.16 2681.26,-144.77 2750.04,-139.19"/>
</g>
<!-- 2082705644128 -->
<g id="node60" class="node">
<title>2082705644128</title>
<ellipse fill="none" stroke="black" cx="2455.61" cy="-109" rx="124.54" ry="18"/>
<text text-anchor="middle" x="2455.61" y="-103" font-family="Times New Roman,serif" font-size="15.00">create publication document</text>
</g>
<!-- 2082705644464&#45;&#45;2082705644128 -->
<g id="edge51" class="edge">
<title>2082705644464&#45;&#45;2082705644128</title>
<path fill="none" stroke="black" d="M2254.1,-109C2273.63,-109 2301.75,-109 2330.78,-109"/>
</g>
<!-- 2082705638176 -->
<g id="node61" class="node">
<title>2082705638176</title>
<ellipse fill="none" stroke="black" cx="2455.61" cy="-55" rx="113.79" ry="18"/>
<text text-anchor="middle" x="2455.61" y="-49" font-family="Times New Roman,serif" font-size="15.00">send confirmation receipt</text>
</g>
<!-- 2082705644464&#45;&#45;2082705638176 -->
<g id="edge52" class="edge">
<title>2082705644464&#45;&#45;2082705638176</title>
<path fill="none" stroke="black" d="M2252.34,-103.12C2285.31,-95.27 2344.88,-81.1 2390.86,-70.17"/>
</g>
<!-- 2082705652768 -->
<g id="node66" class="node">
<title>2082705652768</title>
<ellipse fill="black" stroke="black" cx="2034.47" cy="-80" rx="2.7" ry="2.7"/>
</g>
<!-- 2082705640096&#45;&#45;2082705652768 -->
<g id="edge59" class="edge">
<title>2082705640096&#45;&#45;2082705652768</title>
<path fill="none" stroke="black" d="M1752.98,-61.71C1823.08,-66.28 2011.29,-78.55 2031.67,-79.88"/>
</g>
<!-- 2082705638656 -->
<g id="node67" class="node">
<title>2082705638656</title>
<ellipse fill="none" stroke="black" cx="2034.47" cy="-41" rx="129.15" ry="18"/>
<text text-anchor="middle" x="2034.47" y="-35" font-family="Times New Roman,serif" font-size="15.00">read field phased application</text>
</g>
<!-- 2082705640096&#45;&#45;2082705638656 -->
<g id="edge60" class="edge">
<title>2082705640096&#45;&#45;2082705638656</title>
<path fill="none" stroke="black" d="M1752.98,-58.38C1788.97,-56.15 1856.1,-51.99 1915.66,-48.3"/>
</g>
<!-- 2082705648400 -->
<g id="node69" class="node">
<title>2082705648400</title>
<ellipse fill="black" stroke="black" cx="1356.83" cy="-122" rx="2.7" ry="2.7"/>
</g>
<!-- 2082705642352&#45;&#45;2082705648400 -->
<g id="edge64" class="edge">
<title>2082705642352&#45;&#45;2082705648400</title>
<path fill="none" stroke="black" d="M1010.16,-118.28C1090.86,-119.15 1329.81,-121.72 1353.87,-121.98"/>
</g>
<!-- 2082705645088 -->
<g id="node70" class="node">
<title>2082705645088</title>
<ellipse fill="none" stroke="black" cx="1356.83" cy="-83" rx="63.63" ry="18"/>
<text text-anchor="middle" x="1356.83" y="-77" font-family="Times New Roman,serif" font-size="15.00">suspend term</text>
</g>
<!-- 2082705642352&#45;&#45;2082705645088 -->
<g id="edge65" class="edge">
<title>2082705642352&#45;&#45;2082705645088</title>
<path fill="none" stroke="black" d="M1009.86,-115.54C1068.84,-109.99 1213.42,-96.39 1295.79,-88.65"/>
</g>
<!-- 2082705647440 -->
<g id="node72" class="node">
<title>2082705647440</title>
<ellipse fill="black" stroke="black" cx="297.89" cy="-219" rx="2.7" ry="2.7"/>
</g>
<!-- 2082705639616&#45;&#45;2082705647440 -->
<g id="edge70" class="edge">
<title>2082705639616&#45;&#45;2082705647440</title>
<path fill="none" stroke="black" d="M141.02,-161.49C185.56,-177.93 280.44,-212.93 295,-218.3"/>
</g>
<!-- 2082705645808 -->
<g id="node73" class="node">
<title>2082705645808</title>
<ellipse fill="none" stroke="black" cx="297.89" cy="-180" rx="87.18" ry="18"/>
<text text-anchor="middle" x="297.89" y="-174" font-family="Times New Roman,serif" font-size="15.00">phased application</text>
</g>
<!-- 2082705639616&#45;&#45;2082705645808 -->
<g id="edge71" class="edge">
<title>2082705639616&#45;&#45;2082705645808</title>
<path fill="none" stroke="black" d="M143.63,-156.87C165.27,-160.13 197.31,-164.97 226.51,-169.38"/>
</g>
<!-- 2082705646000 -->
<g id="node74" class="node">
<title>2082705646000</title>
<ellipse fill="none" stroke="black" cx="297.89" cy="-126" rx="117.89" ry="18"/>
<text text-anchor="middle" x="297.89" y="-120" font-family="Times New Roman,serif" font-size="15.00">read publication date field</text>
</g>
<!-- 2082705639616&#45;&#45;2082705646000 -->
<g id="edge72" class="edge">
<title>2082705639616&#45;&#45;2082705646000</title>
<path fill="none" stroke="black" d="M143.63,-149.13C161.79,-146.39 187.28,-142.54 212.26,-138.77"/>
</g>
<!-- 2082705642496 -->
<g id="node75" class="node">
<title>2082705642496</title>
<ellipse fill="none" stroke="black" cx="297.89" cy="-72" rx="27" ry="18"/>
<text text-anchor="middle" x="297.89" y="-66" font-family="Times New Roman,serif" font-size="15.00">seq</text>
</g>
<!-- 2082705639616&#45;&#45;2082705642496 -->
<g id="edge75" class="edge">
<title>2082705639616&#45;&#45;2082705642496</title>
<path fill="none" stroke="black" d="M139.93,-143.07C174.27,-127.52 240.33,-97.61 274.77,-82.01"/>
</g>
<!-- 2082705638944 -->
<g id="node78" class="node">
<title>2082705638944</title>
<ellipse fill="none" stroke="black" cx="297.89" cy="-18" rx="52.89" ry="18"/>
<text text-anchor="middle" x="297.89" y="-12" font-family="Times New Roman,serif" font-size="15.00">close case</text>
</g>
<!-- 2082705639616&#45;&#45;2082705638944 -->
<g id="edge76" class="edge">
<title>2082705639616&#45;&#45;2082705638944</title>
<path fill="none" stroke="black" d="M135.81,-139.56C168.77,-114.69 239.2,-61.54 275,-34.51"/>
</g>
<!-- 2082705647824 -->
<g id="node76" class="node">
<title>2082705647824</title>
<ellipse fill="none" stroke="black" cx="624.93" cy="-78" rx="92.3" ry="18"/>
<text text-anchor="middle" x="624.93" y="-72" font-family="Times New Roman,serif" font-size="15.00">phase archived case</text>
</g>
<!-- 2082705642496&#45;&#45;2082705647824 -->
<g id="edge73" class="edge">
<title>2082705642496&#45;&#45;2082705647824</title>
<path fill="none" stroke="black" d="M325.21,-72.49C369.87,-73.31 462.49,-75.02 532.82,-76.32"/>
</g>
<!-- 2082705645472 -->
<g id="node77" class="node">
<title>2082705645472</title>
<ellipse fill="none" stroke="black" cx="624.93" cy="-24" rx="88.71" ry="18"/>
<text text-anchor="middle" x="624.93" y="-18" font-family="Times New Roman,serif" font-size="15.00">phase case handled</text>
</g>
<!-- 2082705642496&#45;&#45;2082705645472 -->
<g id="edge74" class="edge">
<title>2082705642496&#45;&#45;2082705645472</title>
<path fill="none" stroke="black" d="M324.66,-68.19C373.32,-61.01 480.24,-45.22 552.2,-34.59"/>
</g>
</g>
</svg>
