<?xml version="1.0" encoding="UTF-8" standalone="no"?>
<!DOCTYPE svg PUBLIC "-//W3C//DTD SVG 1.1//EN"
 "http://www.w3.org/Graphics/SVG/1.1/DTD/svg11.dtd">
<!-- Generated by graphviz version 11.0.0 (20240428.1522)
 -->
<!-- Title: pt Pages: 1 -->
<svg width="4361pt" height="975pt"
 viewBox="0.00 0.00 4360.63 975.00" xmlns="http://www.w3.org/2000/svg" xmlns:xlink="http://www.w3.org/1999/xlink">
<g id="graph0" class="graph" transform="scale(1 1) rotate(0) translate(4 971)">
<title>pt</title>
<polygon fill="white" stroke="none" points="-4,4 -4,-971 4356.63,-971 4356.63,4 -4,4"/>
<!-- 2082705451552 -->
<g id="node1" class="node">
<title>2082705451552</title>
<ellipse fill="none" stroke="black" cx="27" cy="-511" rx="27" ry="18"/>
<text text-anchor="middle" x="27" y="-505" font-family="Times New Roman,serif" font-size="15.00">seq</text>
</g>
<!-- 2082705455056 -->
<g id="node2" class="node">
<title>2082705455056</title>
<ellipse fill="none" stroke="black" cx="117" cy="-665" rx="27" ry="18"/>
<text text-anchor="middle" x="117" y="-659" font-family="Times New Roman,serif" font-size="15.00">xor</text>
</g>
<!-- 2082705451552&#45;&#45;2082705455056 -->
<g id="edge69" class="edge">
<title>2082705451552&#45;&#45;2082705455056</title>
<path fill="none" stroke="black" d="M37.59,-527.77C54.51,-557.4 89.51,-618.64 106.43,-648.25"/>
</g>
<!-- 2082705441664 -->
<g id="node71" class="node">
<title>2082705441664</title>
<ellipse fill="none" stroke="black" cx="117" cy="-472" rx="27" ry="18"/>
<text text-anchor="middle" x="117" y="-466" font-family="Times New Roman,serif" font-size="15.00">xor</text>
</g>
<!-- 2082705451552&#45;&#45;2082705441664 -->
<g id="edge77" class="edge">
<title>2082705451552&#45;&#45;2082705441664</title>
<path fill="none" stroke="black" d="M50.21,-501.16C63.55,-495.25 80.46,-487.75 93.8,-481.84"/>
</g>
<!-- 2082705454528 -->
<g id="node3" class="node">
<title>2082705454528</title>
<ellipse fill="black" stroke="black" cx="297.89" cy="-799" rx="2.7" ry="2.7"/>
</g>
<!-- 2082705455056&#45;&#45;2082705454528 -->
<g id="edge1" class="edge">
<title>2082705455056&#45;&#45;2082705454528</title>
<path fill="none" stroke="black" d="M135.81,-678.34C177.87,-709.85 280.95,-787.06 295.23,-797.76"/>
</g>
<!-- 2082705448720 -->
<g id="node4" class="node">
<title>2082705448720</title>
<ellipse fill="none" stroke="black" cx="297.89" cy="-760" rx="27" ry="18"/>
<text text-anchor="middle" x="297.89" y="-754" font-family="Times New Roman,serif" font-size="15.00">seq</text>
</g>
<!-- 2082705455056&#45;&#45;2082705448720 -->
<g id="edge10" class="edge">
<title>2082705455056&#45;&#45;2082705448720</title>
<path fill="none" stroke="black" d="M138.87,-676.08C173.34,-694.39 241.77,-730.73 276.15,-748.99"/>
</g>
<!-- 2082705454144 -->
<g id="node13" class="node">
<title>2082705454144</title>
<ellipse fill="none" stroke="black" cx="297.89" cy="-577" rx="27" ry="18"/>
<text text-anchor="middle" x="297.89" y="-571" font-family="Times New Roman,serif" font-size="15.00">and</text>
</g>
<!-- 2082705455056&#45;&#45;2082705454144 -->
<g id="edge68" class="edge">
<title>2082705455056&#45;&#45;2082705454144</title>
<path fill="none" stroke="black" d="M139.22,-654.56C173.56,-637.67 240.92,-604.53 275.41,-587.56"/>
</g>
<!-- 2082705450496 -->
<g id="node5" class="node">
<title>2082705450496</title>
<ellipse fill="none" stroke="black" cx="624.93" cy="-949" rx="128.63" ry="18"/>
<text text-anchor="middle" x="624.93" y="-943" font-family="Times New Roman,serif" font-size="15.00">initiative competent authority</text>
</g>
<!-- 2082705448720&#45;&#45;2082705450496 -->
<g id="edge2" class="edge">
<title>2082705448720&#45;&#45;2082705450496</title>
<path fill="none" stroke="black" d="M318.73,-771.54C373.59,-803.44 527.58,-892.98 593.44,-931.27"/>
</g>
<!-- 2082705453232 -->
<g id="node6" class="node">
<title>2082705453232</title>
<ellipse fill="none" stroke="black" cx="624.93" cy="-895" rx="168.04" ry="18"/>
<text text-anchor="middle" x="624.93" y="-889" font-family="Times New Roman,serif" font-size="15.00">enter date termination request received</text>
</g>
<!-- 2082705448720&#45;&#45;2082705453232 -->
<g id="edge3" class="edge">
<title>2082705448720&#45;&#45;2082705453232</title>
<path fill="none" stroke="black" d="M321.49,-769.39C375.19,-791.69 511.16,-848.16 581.04,-877.18"/>
</g>
<!-- 2082705443632 -->
<g id="node7" class="node">
<title>2082705443632</title>
<ellipse fill="none" stroke="black" cx="624.93" cy="-841" rx="173.16" ry="18"/>
<text text-anchor="middle" x="624.93" y="-835" font-family="Times New Roman,serif" font-size="15.00">phase procedure prematurely terminated</text>
</g>
<!-- 2082705448720&#45;&#45;2082705443632 -->
<g id="edge4" class="edge">
<title>2082705448720&#45;&#45;2082705443632</title>
<path fill="none" stroke="black" d="M323.58,-766.15C372.55,-778.36 483.45,-805.99 555.92,-824.05"/>
</g>
<!-- 2082705450160 -->
<g id="node8" class="node">
<title>2082705450160</title>
<ellipse fill="none" stroke="black" cx="624.93" cy="-787" rx="143.48" ry="18"/>
<text text-anchor="middle" x="624.93" y="-781" font-family="Times New Roman,serif" font-size="15.00">create message terminate request</text>
</g>
<!-- 2082705448720&#45;&#45;2082705450160 -->
<g id="edge5" class="edge">
<title>2082705448720&#45;&#45;2082705450160</title>
<path fill="none" stroke="black" d="M324.94,-762.16C363.58,-765.37 438.54,-771.6 503.74,-777.02"/>
</g>
<!-- 2082705448480 -->
<g id="node9" class="node">
<title>2082705448480</title>
<ellipse fill="none" stroke="black" cx="624.93" cy="-733" rx="27" ry="18"/>
<text text-anchor="middle" x="624.93" y="-727" font-family="Times New Roman,serif" font-size="15.00">and</text>
</g>
<!-- 2082705448720&#45;&#45;2082705448480 -->
<g id="edge8" class="edge">
<title>2082705448720&#45;&#45;2082705448480</title>
<path fill="none" stroke="black" d="M324.94,-757.84C385.8,-752.78 536.78,-740.24 597.76,-735.17"/>
</g>
<!-- 2082705456256 -->
<g id="node12" class="node">
<title>2082705456256</title>
<ellipse fill="none" stroke="black" cx="624.93" cy="-679" rx="110.72" ry="18"/>
<text text-anchor="middle" x="624.93" y="-673" font-family="Times New Roman,serif" font-size="15.00">phase procedure aborted</text>
</g>
<!-- 2082705448720&#45;&#45;2082705456256 -->
<g id="edge9" class="edge">
<title>2082705448720&#45;&#45;2082705456256</title>
<path fill="none" stroke="black" d="M323.58,-753.85C374.11,-741.26 490.56,-712.24 562.71,-694.26"/>
</g>
<!-- 2082705442480 -->
<g id="node10" class="node">
<title>2082705442480</title>
<ellipse fill="none" stroke="black" cx="982.69" cy="-760" rx="116.35" ry="18"/>
<text text-anchor="middle" x="982.69" y="-754" font-family="Times New Roman,serif" font-size="15.00">message terminate request</text>
</g>
<!-- 2082705448480&#45;&#45;2082705442480 -->
<g id="edge6" class="edge">
<title>2082705448480&#45;&#45;2082705442480</title>
<path fill="none" stroke="black" d="M652.09,-734.99C698.95,-738.54 799.56,-746.18 877.38,-752.08"/>
</g>
<!-- 2082705450064 -->
<g id="node11" class="node">
<title>2082705450064</title>
<ellipse fill="none" stroke="black" cx="982.69" cy="-706" rx="148.59" ry="18"/>
<text text-anchor="middle" x="982.69" y="-700" font-family="Times New Roman,serif" font-size="15.00">enter senddate request termination</text>
</g>
<!-- 2082705448480&#45;&#45;2082705450064 -->
<g id="edge7" class="edge">
<title>2082705448480&#45;&#45;2082705450064</title>
<path fill="none" stroke="black" d="M652.09,-731.01C694.62,-727.79 781.42,-721.2 855.27,-715.59"/>
</g>
<!-- 2082705455008 -->
<g id="node14" class="node">
<title>2082705455008</title>
<ellipse fill="none" stroke="black" cx="624.93" cy="-625" rx="27" ry="18"/>
<text text-anchor="middle" x="624.93" y="-619" font-family="Times New Roman,serif" font-size="15.00">xor</text>
</g>
<!-- 2082705454144&#45;&#45;2082705455008 -->
<g id="edge15" class="edge">
<title>2082705454144&#45;&#45;2082705455008</title>
<path fill="none" stroke="black" d="M324.66,-580.81C385.48,-589.79 537.34,-612.21 598.15,-621.19"/>
</g>
<!-- 2082705443680 -->
<g id="node19" class="node">
<title>2082705443680</title>
<ellipse fill="none" stroke="black" cx="624.93" cy="-571" rx="119.93" ry="18"/>
<text text-anchor="middle" x="624.93" y="-565" font-family="Times New Roman,serif" font-size="15.00">phase application received</text>
</g>
<!-- 2082705454144&#45;&#45;2082705443680 -->
<g id="edge16" class="edge">
<title>2082705454144&#45;&#45;2082705443680</title>
<path fill="none" stroke="black" d="M325.21,-576.51C364.28,-575.79 440.05,-574.39 505.49,-573.19"/>
</g>
<!-- 2082705441712 -->
<g id="node20" class="node">
<title>2082705441712</title>
<ellipse fill="none" stroke="black" cx="624.93" cy="-517" rx="140.41" ry="18"/>
<text text-anchor="middle" x="624.93" y="-511" font-family="Times New Roman,serif" font-size="15.00">register submission date request</text>
</g>
<!-- 2082705454144&#45;&#45;2082705441712 -->
<g id="edge17" class="edge">
<title>2082705454144&#45;&#45;2082705441712</title>
<path fill="none" stroke="black" d="M324.39,-572.29C370.86,-563.71 471.13,-545.21 542.86,-531.97"/>
</g>
<!-- 2082705455632 -->
<g id="node21" class="node">
<title>2082705455632</title>
<ellipse fill="none" stroke="black" cx="624.93" cy="-463" rx="27" ry="18"/>
<text text-anchor="middle" x="624.93" y="-457" font-family="Times New Roman,serif" font-size="15.00">seq</text>
</g>
<!-- 2082705454144&#45;&#45;2082705455632 -->
<g id="edge67" class="edge">
<title>2082705454144&#45;&#45;2082705455632</title>
<path fill="none" stroke="black" d="M322.26,-568.8C382.24,-547.77 541.03,-492.08 600.77,-471.12"/>
</g>
<!-- 2082705445456 -->
<g id="node15" class="node">
<title>2082705445456</title>
<ellipse fill="black" stroke="black" cx="982.69" cy="-632" rx="2.7" ry="2.7"/>
</g>
<!-- 2082705455008&#45;&#45;2082705445456 -->
<g id="edge11" class="edge">
<title>2082705455008&#45;&#45;2082705445456</title>
<path fill="none" stroke="black" d="M652.38,-625.52C730.32,-627.05 955.18,-631.48 979.54,-631.96"/>
</g>
<!-- 2082705449728 -->
<g id="node16" class="node">
<title>2082705449728</title>
<ellipse fill="none" stroke="black" cx="982.69" cy="-593" rx="45.21" ry="18"/>
<text text-anchor="middle" x="982.69" y="-587" font-family="Times New Roman,serif" font-size="15.00">xor loop</text>
</g>
<!-- 2082705455008&#45;&#45;2082705449728 -->
<g id="edge14" class="edge">
<title>2082705455008&#45;&#45;2082705449728</title>
<path fill="none" stroke="black" d="M652.09,-622.65C712.75,-617.19 863.49,-603.63 938.24,-596.91"/>
</g>
<!-- 2082705450784 -->
<g id="node17" class="node">
<title>2082705450784</title>
<ellipse fill="none" stroke="black" cx="1356.83" cy="-621" rx="189.54" ry="18"/>
<text text-anchor="middle" x="1356.83" y="-615" font-family="Times New Roman,serif" font-size="15.00">registrer date of publishing received request</text>
</g>
<!-- 2082705449728&#45;&#45;2082705450784 -->
<g id="edge12" class="edge">
<title>2082705449728&#45;&#45;2082705450784</title>
<path fill="none" stroke="black" d="M1027.47,-596.29C1071.47,-599.6 1141.8,-604.9 1206.1,-609.73"/>
</g>
<!-- 2082705450208 -->
<g id="node18" class="node">
<title>2082705450208</title>
<ellipse fill="black" stroke="black" cx="1356.83" cy="-582" rx="2.7" ry="2.7"/>
</g>
<!-- 2082705449728&#45;&#45;2082705450208 -->
<g id="edge13" class="edge">
<title>2082705449728&#45;&#45;2082705450208</title>
<path fill="none" stroke="black" d="M1028.21,-591.68C1121.58,-588.92 1331.19,-582.73 1353.83,-582.06"/>
</g>
<!-- 2082705453904 -->
<g id="node22" class="node">
<title>2082705453904</title>
<ellipse fill="none" stroke="black" cx="982.69" cy="-481" rx="27" ry="18"/>
<text text-anchor="middle" x="982.69" y="-475" font-family="Times New Roman,serif" font-size="15.00">and</text>
</g>
<!-- 2082705455632&#45;&#45;2082705453904 -->
<g id="edge63" class="edge">
<title>2082705455632&#45;&#45;2082705453904</title>
<path fill="none" stroke="black" d="M652.09,-464.32C717.88,-467.65 889.66,-476.34 955.49,-479.67"/>
</g>
<!-- 2082705448816 -->
<g id="node68" class="node">
<title>2082705448816</title>
<ellipse fill="none" stroke="black" cx="982.69" cy="-427" rx="27" ry="18"/>
<text text-anchor="middle" x="982.69" y="-421" font-family="Times New Roman,serif" font-size="15.00">xor</text>
</g>
<!-- 2082705455632&#45;&#45;2082705448816 -->
<g id="edge66" class="edge">
<title>2082705455632&#45;&#45;2082705448816</title>
<path fill="none" stroke="black" d="M652.09,-460.35C717.88,-453.7 889.66,-436.31 955.49,-429.65"/>
</g>
<!-- 2082705441376 -->
<g id="node23" class="node">
<title>2082705441376</title>
<ellipse fill="none" stroke="black" cx="1356.83" cy="-531" rx="102.02" ry="18"/>
<text text-anchor="middle" x="1356.83" y="-525" font-family="Times New Roman,serif" font-size="15.00">start WABOprocedure</text>
</g>
<!-- 2082705453904&#45;&#45;2082705441376 -->
<g id="edge18" class="edge">
<title>2082705453904&#45;&#45;2082705441376</title>
<path fill="none" stroke="black" d="M1009.56,-484.48C1063.54,-491.73 1190.14,-508.74 1274.37,-520.06"/>
</g>
<!-- 2082705442144 -->
<g id="node24" class="node">
<title>2082705442144</title>
<ellipse fill="none" stroke="black" cx="1356.83" cy="-477" rx="27" ry="18"/>
<text text-anchor="middle" x="1356.83" y="-471" font-family="Times New Roman,serif" font-size="15.00">seq</text>
</g>
<!-- 2082705453904&#45;&#45;2082705442144 -->
<g id="edge62" class="edge">
<title>2082705453904&#45;&#45;2082705442144</title>
<path fill="none" stroke="black" d="M1010.16,-480.72C1078.73,-479.98 1261.59,-478.01 1329.74,-477.28"/>
</g>
<!-- 2082705450544 -->
<g id="node25" class="node">
<title>2082705450544</title>
<ellipse fill="none" stroke="black" cx="1627.58" cy="-504" rx="45.21" ry="18"/>
<text text-anchor="middle" x="1627.58" y="-498" font-family="Times New Roman,serif" font-size="15.00">xor loop</text>
</g>
<!-- 2082705442144&#45;&#45;2082705450544 -->
<g id="edge58" class="edge">
<title>2082705442144&#45;&#45;2082705450544</title>
<path fill="none" stroke="black" d="M1383.59,-479.59C1429.71,-484.22 1526.79,-493.98 1583.29,-499.65"/>
</g>
<!-- 2082705452848 -->
<g id="node65" class="node">
<title>2082705452848</title>
<ellipse fill="none" stroke="black" cx="1627.58" cy="-450" rx="27" ry="18"/>
<text text-anchor="middle" x="1627.58" y="-444" font-family="Times New Roman,serif" font-size="15.00">xor</text>
</g>
<!-- 2082705442144&#45;&#45;2082705452848 -->
<g id="edge61" class="edge">
<title>2082705442144&#45;&#45;2082705452848</title>
<path fill="none" stroke="black" d="M1383.59,-474.41C1434.83,-469.26 1548.99,-457.79 1600.49,-452.62"/>
</g>
<!-- 2082705456208 -->
<g id="node26" class="node">
<title>2082705456208</title>
<ellipse fill="none" stroke="black" cx="1837.93" cy="-535" rx="27" ry="18"/>
<text text-anchor="middle" x="1837.93" y="-529" font-family="Times New Roman,serif" font-size="15.00">xor</text>
</g>
<!-- 2082705450544&#45;&#45;2082705456208 -->
<g id="edge56" class="edge">
<title>2082705450544&#45;&#45;2082705456208</title>
<path fill="none" stroke="black" d="M1670.24,-510.2C1712.28,-516.45 1775.87,-525.92 1811.12,-531.16"/>
</g>
<!-- 2082705449776 -->
<g id="node64" class="node">
<title>2082705449776</title>
<ellipse fill="black" stroke="black" cx="1837.93" cy="-496" rx="2.7" ry="2.7"/>
</g>
<!-- 2082705450544&#45;&#45;2082705449776 -->
<g id="edge57" class="edge">
<title>2082705450544&#45;&#45;2082705449776</title>
<path fill="none" stroke="black" d="M1673.02,-502.29C1728.95,-500.15 1819.58,-496.67 1834.75,-496.08"/>
</g>
<!-- 2082705446848 -->
<g id="node27" class="node">
<title>2082705446848</title>
<ellipse fill="none" stroke="black" cx="2152.7" cy="-670" rx="149.62" ry="18"/>
<text text-anchor="middle" x="2152.7" y="-664" font-family="Times New Roman,serif" font-size="15.00">forward to the competent authority</text>
</g>
<!-- 2082705456208&#45;&#45;2082705446848 -->
<g id="edge19" class="edge">
<title>2082705456208&#45;&#45;2082705446848</title>
<path fill="none" stroke="black" d="M1860.92,-544.49C1912.86,-566.91 2043.76,-623.41 2110.78,-652.34"/>
</g>
<!-- 2082705451792 -->
<g id="node28" class="node">
<title>2082705451792</title>
<ellipse fill="none" stroke="black" cx="2152.7" cy="-616" rx="92.3" ry="18"/>
<text text-anchor="middle" x="2152.7" y="-610" font-family="Times New Roman,serif" font-size="15.00">terminate on request</text>
</g>
<!-- 2082705456208&#45;&#45;2082705451792 -->
<g id="edge20" class="edge">
<title>2082705456208&#45;&#45;2082705451792</title>
<path fill="none" stroke="black" d="M1863.47,-541.36C1913.16,-554.22 2026.75,-583.64 2095.57,-601.46"/>
</g>
<!-- 2082705453088 -->
<g id="node29" class="node">
<title>2082705453088</title>
<ellipse fill="none" stroke="black" cx="2152.7" cy="-562" rx="27" ry="18"/>
<text text-anchor="middle" x="2152.7" y="-556" font-family="Times New Roman,serif" font-size="15.00">seq</text>
</g>
<!-- 2082705456208&#45;&#45;2082705453088 -->
<g id="edge23" class="edge">
<title>2082705456208&#45;&#45;2082705453088</title>
<path fill="none" stroke="black" d="M1865.06,-537.26C1923.93,-542.34 2066.41,-554.64 2125.42,-559.73"/>
</g>
<!-- 2082705454192 -->
<g id="node32" class="node">
<title>2082705454192</title>
<ellipse fill="none" stroke="black" cx="2152.7" cy="-508" rx="27" ry="18"/>
<text text-anchor="middle" x="2152.7" y="-502" font-family="Times New Roman,serif" font-size="15.00">seq</text>
</g>
<!-- 2082705456208&#45;&#45;2082705454192 -->
<g id="edge30" class="edge">
<title>2082705456208&#45;&#45;2082705454192</title>
<path fill="none" stroke="black" d="M1865.06,-532.74C1923.93,-527.66 2066.41,-515.36 2125.42,-510.27"/>
</g>
<!-- 2082705442816 -->
<g id="node39" class="node">
<title>2082705442816</title>
<ellipse fill="none" stroke="black" cx="2152.7" cy="-319" rx="27" ry="18"/>
<text text-anchor="middle" x="2152.7" y="-313" font-family="Times New Roman,serif" font-size="15.00">seq</text>
</g>
<!-- 2082705456208&#45;&#45;2082705442816 -->
<g id="edge35" class="edge">
<title>2082705456208&#45;&#45;2082705442816</title>
<path fill="none" stroke="black" d="M1857.56,-522.14C1913.19,-483.72 2077.66,-370.13 2133.17,-331.8"/>
</g>
<!-- 2082705450112 -->
<g id="node44" class="node">
<title>2082705450112</title>
<ellipse fill="none" stroke="black" cx="2152.7" cy="-157" rx="27" ry="18"/>
<text text-anchor="middle" x="2152.7" y="-151" font-family="Times New Roman,serif" font-size="15.00">seq</text>
</g>
<!-- 2082705456208&#45;&#45;2082705450112 -->
<g id="edge55" class="edge">
<title>2082705456208&#45;&#45;2082705450112</title>
<path fill="none" stroke="black" d="M1851.97,-519.24C1902.84,-457.76 2087.63,-234.43 2138.6,-172.83"/>
</g>
<!-- 2082705451888 -->
<g id="node30" class="node">
<title>2082705451888</title>
<ellipse fill="none" stroke="black" cx="2529.9" cy="-697" rx="191.59" ry="18"/>
<text text-anchor="middle" x="2529.9" y="-691" font-family="Times New Roman,serif" font-size="15.00">no permit needed or only notification needed</text>
</g>
<!-- 2082705453088&#45;&#45;2082705451888 -->
<g id="edge21" class="edge">
<title>2082705453088&#45;&#45;2082705451888</title>
<path fill="none" stroke="black" d="M2176.88,-570.34C2236.72,-591.87 2397.36,-649.67 2479.32,-679.16"/>
</g>
<!-- 2082705447760 -->
<g id="node31" class="node">
<title>2082705447760</title>
<ellipse fill="none" stroke="black" cx="2529.9" cy="-643" rx="107.14" ry="18"/>
<text text-anchor="middle" x="2529.9" y="-637" font-family="Times New Roman,serif" font-size="15.00">applicant is stakeholder</text>
</g>
<!-- 2082705453088&#45;&#45;2082705447760 -->
<g id="edge22" class="edge">
<title>2082705453088&#45;&#45;2082705447760</title>
<path fill="none" stroke="black" d="M2178.9,-567.44C2236.24,-579.82 2378.03,-610.43 2462.5,-628.67"/>
</g>
<!-- 2082705451456 -->
<g id="node33" class="node">
<title>2082705451456</title>
<ellipse fill="none" stroke="black" cx="2529.9" cy="-589" rx="166" ry="18"/>
<text text-anchor="middle" x="2529.9" y="-583" font-family="Times New Roman,serif" font-size="15.00">enter senddate procedure confirmation</text>
</g>
<!-- 2082705454192&#45;&#45;2082705451456 -->
<g id="edge24" class="edge">
<title>2082705454192&#45;&#45;2082705451456</title>
<path fill="none" stroke="black" d="M2178.9,-513.44C2234.19,-525.38 2367.98,-554.26 2453.21,-572.66"/>
</g>
<!-- 2082705456400 -->
<g id="node34" class="node">
<title>2082705456400</title>
<ellipse fill="none" stroke="black" cx="2529.9" cy="-535" rx="126.59" ry="18"/>
<text text-anchor="middle" x="2529.9" y="-529" font-family="Times New Roman,serif" font-size="15.00">send procedure confirmation</text>
</g>
<!-- 2082705454192&#45;&#45;2082705456400 -->
<g id="edge25" class="edge">
<title>2082705454192&#45;&#45;2082705456400</title>
<path fill="none" stroke="black" d="M2179.78,-509.88C2227.98,-513.35 2333.58,-520.94 2416.09,-526.88"/>
</g>
<!-- 2082705442528 -->
<g id="node35" class="node">
<title>2082705442528</title>
<ellipse fill="none" stroke="black" cx="2529.9" cy="-481" rx="27" ry="18"/>
<text text-anchor="middle" x="2529.9" y="-475" font-family="Times New Roman,serif" font-size="15.00">xor</text>
</g>
<!-- 2082705454192&#45;&#45;2082705442528 -->
<g id="edge28" class="edge">
<title>2082705454192&#45;&#45;2082705442528</title>
<path fill="none" stroke="black" d="M2179.78,-506.12C2248.58,-501.17 2434.38,-487.8 2502.99,-482.86"/>
</g>
<!-- 2082705448096 -->
<g id="node38" class="node">
<title>2082705448096</title>
<ellipse fill="none" stroke="black" cx="2529.9" cy="-427" rx="124.54" ry="18"/>
<text text-anchor="middle" x="2529.9" y="-421" font-family="Times New Roman,serif" font-size="15.00">registration date publication</text>
</g>
<!-- 2082705454192&#45;&#45;2082705448096 -->
<g id="edge29" class="edge">
<title>2082705454192&#45;&#45;2082705448096</title>
<path fill="none" stroke="black" d="M2178.9,-502.56C2235.42,-490.36 2373.99,-460.44 2458.84,-442.13"/>
</g>
<!-- 2082705810416 -->
<g id="node36" class="node">
<title>2082705810416</title>
<ellipse fill="black" stroke="black" cx="2881.52" cy="-500" rx="2.7" ry="2.7"/>
</g>
<!-- 2082705442528&#45;&#45;2082705810416 -->
<g id="edge26" class="edge">
<title>2082705442528&#45;&#45;2082705810416</title>
<path fill="none" stroke="black" d="M2557.18,-482.43C2634.04,-486.61 2854.53,-498.59 2878.41,-499.89"/>
</g>
<!-- 2082705806288 -->
<g id="node37" class="node">
<title>2082705806288</title>
<ellipse fill="none" stroke="black" cx="2881.52" cy="-461" rx="117.37" ry="18"/>
<text text-anchor="middle" x="2881.52" y="-455" font-family="Times New Roman,serif" font-size="15.00">inform BAG administrator</text>
</g>
<!-- 2082705442528&#45;&#45;2082705806288 -->
<g id="edge27" class="edge">
<title>2082705442528&#45;&#45;2082705806288</title>
<path fill="none" stroke="black" d="M2557.18,-479.5C2602.04,-476.93 2695.83,-471.56 2770.9,-467.27"/>
</g>
<!-- 2082705446080 -->
<g id="node40" class="node">
<title>2082705446080</title>
<ellipse fill="none" stroke="black" cx="2529.9" cy="-373" rx="139.89" ry="18"/>
<text text-anchor="middle" x="2529.9" y="-367" font-family="Times New Roman,serif" font-size="15.00">regular procedure without MER</text>
</g>
<!-- 2082705442816&#45;&#45;2082705446080 -->
<g id="edge31" class="edge">
<title>2082705442816&#45;&#45;2082705446080</title>
<path fill="none" stroke="black" d="M2179.49,-322.71C2231.22,-330.16 2349.97,-347.25 2434.66,-359.44"/>
</g>
<!-- 2082705453424 -->
<g id="node41" class="node">
<title>2082705453424</title>
<ellipse fill="none" stroke="black" cx="2529.9" cy="-319" rx="132.73" ry="18"/>
<text text-anchor="middle" x="2529.9" y="-313" font-family="Times New Roman,serif" font-size="15.00">create procedure confirmation</text>
</g>
<!-- 2082705442816&#45;&#45;2082705453424 -->
<g id="edge32" class="edge">
<title>2082705442816&#45;&#45;2082705453424</title>
<path fill="none" stroke="black" d="M2180.08,-319C2224.7,-319 2317.91,-319 2396.76,-319"/>
</g>
<!-- 2082705805568 -->
<g id="node42" class="node">
<title>2082705805568</title>
<ellipse fill="none" stroke="black" cx="2529.9" cy="-265" rx="40.6" ry="18"/>
<text text-anchor="middle" x="2529.9" y="-259" font-family="Times New Roman,serif" font-size="15.00">publish</text>
</g>
<!-- 2082705442816&#45;&#45;2082705805568 -->
<g id="edge33" class="edge">
<title>2082705442816&#45;&#45;2082705805568</title>
<path fill="none" stroke="black" d="M2179.49,-315.29C2244.3,-305.96 2414.29,-281.49 2490.72,-270.5"/>
</g>
<!-- 2082705809744 -->
<g id="node43" class="node">
<title>2082705809744</title>
<ellipse fill="none" stroke="black" cx="2529.9" cy="-211" rx="124.54" ry="18"/>
<text text-anchor="middle" x="2529.9" y="-205" font-family="Times New Roman,serif" font-size="15.00">create publication document</text>
</g>
<!-- 2082705442816&#45;&#45;2082705809744 -->
<g id="edge34" class="edge">
<title>2082705442816&#45;&#45;2082705809744</title>
<path fill="none" stroke="black" d="M2178.03,-312C2236.97,-295.03 2388.71,-251.35 2472.03,-227.37"/>
</g>
<!-- 2082705801824 -->
<g id="node45" class="node">
<title>2082705801824</title>
<ellipse fill="none" stroke="black" cx="2529.9" cy="-157" rx="27" ry="18"/>
<text text-anchor="middle" x="2529.9" y="-151" font-family="Times New Roman,serif" font-size="15.00">xor</text>
</g>
<!-- 2082705450112&#45;&#45;2082705801824 -->
<g id="edge53" class="edge">
<title>2082705450112&#45;&#45;2082705801824</title>
<path fill="none" stroke="black" d="M2180.08,-157C2248.97,-157 2433.69,-157 2502.55,-157"/>
</g>
<!-- 2082705809360 -->
<g id="node63" class="node">
<title>2082705809360</title>
<ellipse fill="none" stroke="black" cx="2529.9" cy="-103" rx="113.79" ry="18"/>
<text text-anchor="middle" x="2529.9" y="-97" font-family="Times New Roman,serif" font-size="15.00">send confirmation receipt</text>
</g>
<!-- 2082705450112&#45;&#45;2082705809360 -->
<g id="edge54" class="edge">
<title>2082705450112&#45;&#45;2082705809360</title>
<path fill="none" stroke="black" d="M2179.49,-153.29C2233.21,-145.56 2359.19,-127.42 2444.26,-115.18"/>
</g>
<!-- 2082705807968 -->
<g id="node46" class="node">
<title>2082705807968</title>
<ellipse fill="none" stroke="black" cx="2881.52" cy="-238" rx="124.03" ry="18"/>
<text text-anchor="middle" x="2881.52" y="-232" font-family="Times New Roman,serif" font-size="15.00">treat subcases completeness</text>
</g>
<!-- 2082705801824&#45;&#45;2082705807968 -->
<g id="edge36" class="edge">
<title>2082705801824&#45;&#45;2082705807968</title>
<path fill="none" stroke="black" d="M2555.76,-162.76C2608.96,-175.09 2735.35,-204.37 2813.84,-222.55"/>
</g>
<!-- 2082705803024 -->
<g id="node47" class="node">
<title>2082705803024</title>
<ellipse fill="none" stroke="black" cx="2881.52" cy="-184" rx="27" ry="18"/>
<text text-anchor="middle" x="2881.52" y="-178" font-family="Times New Roman,serif" font-size="15.00">seq</text>
</g>
<!-- 2082705801824&#45;&#45;2082705803024 -->
<g id="edge39" class="edge">
<title>2082705801824&#45;&#45;2082705803024</title>
<path fill="none" stroke="black" d="M2557.18,-159.03C2622.13,-164.05 2789.64,-176.98 2854.41,-181.98"/>
</g>
<!-- 2082705809648 -->
<g id="node50" class="node">
<title>2082705809648</title>
<ellipse fill="none" stroke="black" cx="2881.52" cy="-130" rx="102.02" ry="18"/>
<text text-anchor="middle" x="2881.52" y="-124" font-family="Times New Roman,serif" font-size="15.00">OLO messaging active</text>
</g>
<!-- 2082705801824&#45;&#45;2082705809648 -->
<g id="edge40" class="edge">
<title>2082705801824&#45;&#45;2082705809648</title>
<path fill="none" stroke="black" d="M2557.18,-154.97C2605.38,-151.25 2710.05,-143.16 2787.31,-137.2"/>
</g>
<!-- 2082705807920 -->
<g id="node51" class="node">
<title>2082705807920</title>
<ellipse fill="none" stroke="black" cx="2881.52" cy="-76" rx="27" ry="18"/>
<text text-anchor="middle" x="2881.52" y="-70" font-family="Times New Roman,serif" font-size="15.00">seq</text>
</g>
<!-- 2082705801824&#45;&#45;2082705807920 -->
<g id="edge52" class="edge">
<title>2082705801824&#45;&#45;2082705807920</title>
<path fill="none" stroke="black" d="M2555.76,-151.24C2620.04,-136.35 2791.16,-96.7 2855.55,-81.79"/>
</g>
<!-- 2082705809696 -->
<g id="node48" class="node">
<title>2082705809696</title>
<ellipse fill="none" stroke="black" cx="3185.02" cy="-238" rx="130.68" ry="18"/>
<text text-anchor="middle" x="3185.02" y="-232" font-family="Times New Roman,serif" font-size="15.00">create subcases completeness</text>
</g>
<!-- 2082705803024&#45;&#45;2082705809696 -->
<g id="edge37" class="edge">
<title>2082705803024&#45;&#45;2082705809696</title>
<path fill="none" stroke="black" d="M2907.96,-188.56C2950.62,-196.2 3038.3,-211.9 3103.46,-223.57"/>
</g>
<!-- 2082705808640 -->
<g id="node49" class="node">
<title>2082705808640</title>
<ellipse fill="none" stroke="black" cx="3185.02" cy="-184" rx="82.06" ry="18"/>
<text text-anchor="middle" x="3185.02" y="-178" font-family="Times New Roman,serif" font-size="15.00">procedure change</text>
</g>
<!-- 2082705803024&#45;&#45;2082705808640 -->
<g id="edge38" class="edge">
<title>2082705803024&#45;&#45;2082705808640</title>
<path fill="none" stroke="black" d="M2909.01,-184C2951.83,-184 3037.97,-184 3102.49,-184"/>
</g>
<!-- 2082705809984 -->
<g id="node52" class="node">
<title>2082705809984</title>
<ellipse fill="none" stroke="black" cx="3185.02" cy="-130" rx="27" ry="18"/>
<text text-anchor="middle" x="3185.02" y="-124" font-family="Times New Roman,serif" font-size="15.00">xor</text>
</g>
<!-- 2082705807920&#45;&#45;2082705809984 -->
<g id="edge47" class="edge">
<title>2082705807920&#45;&#45;2082705809984</title>
<path fill="none" stroke="black" d="M2907.96,-80.56C2964.89,-90.75 3101.98,-115.31 3158.75,-125.47"/>
</g>
<!-- 2082705808736 -->
<g id="node59" class="node">
<title>2082705808736</title>
<ellipse fill="none" stroke="black" cx="3185.02" cy="-76" rx="143.48" ry="18"/>
<text text-anchor="middle" x="3185.02" y="-70" font-family="Times New Roman,serif" font-size="15.00">enter senddate acknowledgement</text>
</g>
<!-- 2082705807920&#45;&#45;2082705808736 -->
<g id="edge48" class="edge">
<title>2082705807920&#45;&#45;2082705808736</title>
<path fill="none" stroke="black" d="M2909.01,-76C2939.19,-76 2990.87,-76 3041.35,-76"/>
</g>
<!-- 2082705810752 -->
<g id="node60" class="node">
<title>2082705810752</title>
<ellipse fill="none" stroke="black" cx="3185.02" cy="-22" rx="27" ry="18"/>
<text text-anchor="middle" x="3185.02" y="-16" font-family="Times New Roman,serif" font-size="15.00">xor</text>
</g>
<!-- 2082705807920&#45;&#45;2082705810752 -->
<g id="edge51" class="edge">
<title>2082705807920&#45;&#45;2082705810752</title>
<path fill="none" stroke="black" d="M2907.96,-71.44C2964.89,-61.25 3101.98,-36.69 3158.75,-26.53"/>
</g>
<!-- 2082705809024 -->
<g id="node53" class="node">
<title>2082705809024</title>
<ellipse fill="black" stroke="black" cx="3468.05" cy="-152" rx="2.7" ry="2.7"/>
</g>
<!-- 2082705809984&#45;&#45;2082705809024 -->
<g id="edge41" class="edge">
<title>2082705809984&#45;&#45;2082705809024</title>
<path fill="none" stroke="black" d="M3212.21,-132.05C3277.61,-137.17 3444.37,-150.22 3464.96,-151.84"/>
</g>
<!-- 2082705802112 -->
<g id="node54" class="node">
<title>2082705802112</title>
<ellipse fill="none" stroke="black" cx="3468.05" cy="-113" rx="27" ry="18"/>
<text text-anchor="middle" x="3468.05" y="-107" font-family="Times New Roman,serif" font-size="15.00">seq</text>
</g>
<!-- 2082705809984&#45;&#45;2082705802112 -->
<g id="edge46" class="edge">
<title>2082705809984&#45;&#45;2082705802112</title>
<path fill="none" stroke="black" d="M3212.21,-128.42C3265.76,-125.18 3387.25,-117.83 3440.83,-114.59"/>
</g>
<!-- 2082705810992 -->
<g id="node55" class="node">
<title>2082705810992</title>
<ellipse fill="none" stroke="black" cx="3778.21" cy="-140" rx="170.6" ry="18"/>
<text text-anchor="middle" x="3778.21" y="-134" font-family="Times New Roman,serif" font-size="15.00">phase forwarded to competent authority</text>
</g>
<!-- 2082705802112&#45;&#45;2082705810992 -->
<g id="edge42" class="edge">
<title>2082705802112&#45;&#45;2082705810992</title>
<path fill="none" stroke="black" d="M3495.33,-115.3C3528.73,-118.23 3588.83,-123.49 3644.97,-128.41"/>
</g>
<!-- 2082705810368 -->
<g id="node56" class="node">
<title>2082705810368</title>
<ellipse fill="none" stroke="black" cx="3778.21" cy="-86" rx="27" ry="18"/>
<text text-anchor="middle" x="3778.21" y="-80" font-family="Times New Roman,serif" font-size="15.00">and</text>
</g>
<!-- 2082705802112&#45;&#45;2082705810368 -->
<g id="edge45" class="edge">
<title>2082705802112&#45;&#45;2082705810368</title>
<path fill="none" stroke="black" d="M3495.33,-110.7C3553.55,-105.6 3692.85,-93.39 3751.01,-88.3"/>
</g>
<!-- 2082705809312 -->
<g id="node57" class="node">
<title>2082705809312</title>
<ellipse fill="none" stroke="black" cx="4168.73" cy="-113" rx="155.76" ry="18"/>
<text text-anchor="middle" x="4168.73" y="-107" font-family="Times New Roman,serif" font-size="15.00">enter senddate letter to stakeholders</text>
</g>
<!-- 2082705810368&#45;&#45;2082705809312 -->
<g id="edge43" class="edge">
<title>2082705810368&#45;&#45;2082705809312</title>
<path fill="none" stroke="black" d="M3805.31,-87.81C3851.58,-91.03 3950.98,-97.94 4033.99,-103.71"/>
</g>
<!-- 2082705812048 -->
<g id="node58" class="node">
<title>2082705812048</title>
<ellipse fill="none" stroke="black" cx="4168.73" cy="-59" rx="183.91" ry="18"/>
<text text-anchor="middle" x="4168.73" y="-53" font-family="Times New Roman,serif" font-size="15.00">enter senddate letter to competent authority</text>
</g>
<!-- 2082705810368&#45;&#45;2082705812048 -->
<g id="edge44" class="edge">
<title>2082705810368&#45;&#45;2082705812048</title>
<path fill="none" stroke="black" d="M3805.31,-84.19C3848.44,-81.19 3937.7,-74.99 4016.84,-69.49"/>
</g>
<!-- 2082705811664 -->
<g id="node61" class="node">
<title>2082705811664</title>
<ellipse fill="black" stroke="black" cx="3468.05" cy="-57" rx="2.7" ry="2.7"/>
</g>
<!-- 2082705810752&#45;&#45;2082705811664 -->
<g id="edge49" class="edge">
<title>2082705810752&#45;&#45;2082705811664</title>
<path fill="none" stroke="black" d="M3211.96,-25.23C3277.18,-33.35 3444.32,-54.17 3464.95,-56.74"/>
</g>
<!-- 2082705808592 -->
<g id="node62" class="node">
<title>2082705808592</title>
<ellipse fill="none" stroke="black" cx="3468.05" cy="-18" rx="103.56" ry="18"/>
<text text-anchor="middle" x="3468.05" y="-12" font-family="Times New Roman,serif" font-size="15.00">reception through OLO</text>
</g>
<!-- 2082705810752&#45;&#45;2082705808592 -->
<g id="edge50" class="edge">
<title>2082705810752&#45;&#45;2082705808592</title>
<path fill="none" stroke="black" d="M3212.46,-21.62C3247.1,-21.13 3309.85,-20.24 3364.38,-19.46"/>
</g>
<!-- 2082705451840 -->
<g id="node66" class="node">
<title>2082705451840</title>
<ellipse fill="black" stroke="black" cx="1837.93" cy="-458" rx="2.7" ry="2.7"/>
</g>
<!-- 2082705452848&#45;&#45;2082705451840 -->
<g id="edge59" class="edge">
<title>2082705452848&#45;&#45;2082705451840</title>
<path fill="none" stroke="black" d="M1654.96,-451.01C1707.09,-453.01 1819.57,-457.33 1835.13,-457.93"/>
</g>
<!-- 2082705445504 -->
<g id="node67" class="node">
<title>2082705445504</title>
<ellipse fill="none" stroke="black" cx="1837.93" cy="-419" rx="129.15" ry="18"/>
<text text-anchor="middle" x="1837.93" y="-413" font-family="Times New Roman,serif" font-size="15.00">read field phased application</text>
</g>
<!-- 2082705452848&#45;&#45;2082705445504 -->
<g id="edge60" class="edge">
<title>2082705452848&#45;&#45;2082705445504</title>
<path fill="none" stroke="black" d="M1654.12,-446.2C1677.6,-442.71 1713.8,-437.32 1747.81,-432.26"/>
</g>
<!-- 2082705447856 -->
<g id="node69" class="node">
<title>2082705447856</title>
<ellipse fill="black" stroke="black" cx="1356.83" cy="-431" rx="2.7" ry="2.7"/>
</g>
<!-- 2082705448816&#45;&#45;2082705447856 -->
<g id="edge64" class="edge">
<title>2082705448816&#45;&#45;2082705447856</title>
<path fill="none" stroke="black" d="M1010.16,-427.28C1090.86,-428.15 1329.81,-430.72 1353.87,-430.98"/>
</g>
<!-- 2082705455968 -->
<g id="node70" class="node">
<title>2082705455968</title>
<ellipse fill="none" stroke="black" cx="1356.83" cy="-392" rx="63.63" ry="18"/>
<text text-anchor="middle" x="1356.83" y="-386" font-family="Times New Roman,serif" font-size="15.00">suspend term</text>
</g>
<!-- 2082705448816&#45;&#45;2082705455968 -->
<g id="edge65" class="edge">
<title>2082705448816&#45;&#45;2082705455968</title>
<path fill="none" stroke="black" d="M1009.86,-424.54C1068.84,-418.99 1213.42,-405.39 1295.79,-397.65"/>
</g>
<!-- 2082705449200 -->
<g id="node72" class="node">
<title>2082705449200</title>
<ellipse fill="black" stroke="black" cx="297.89" cy="-538" rx="2.7" ry="2.7"/>
</g>
<!-- 2082705441664&#45;&#45;2082705449200 -->
<g id="edge70" class="edge">
<title>2082705441664&#45;&#45;2082705449200</title>
<path fill="none" stroke="black" d="M141.02,-480.49C185.56,-496.93 280.44,-531.93 295,-537.3"/>
</g>
<!-- 2082705456544 -->
<g id="node73" class="node">
<title>2082705456544</title>
<ellipse fill="none" stroke="black" cx="297.89" cy="-499" rx="87.18" ry="18"/>
<text text-anchor="middle" x="297.89" y="-493" font-family="Times New Roman,serif" font-size="15.00">phased application</text>
</g>
<!-- 2082705441664&#45;&#45;2082705456544 -->
<g id="edge71" class="edge">
<title>2082705441664&#45;&#45;2082705456544</title>
<path fill="none" stroke="black" d="M143.63,-475.87C165.27,-479.13 197.31,-483.97 226.51,-488.38"/>
</g>
<!-- 2082705452560 -->
<g id="node74" class="node">
<title>2082705452560</title>
<ellipse fill="none" stroke="black" cx="297.89" cy="-445" rx="117.89" ry="18"/>
<text text-anchor="middle" x="297.89" y="-439" font-family="Times New Roman,serif" font-size="15.00">read publication date field</text>
</g>
<!-- 2082705441664&#45;&#45;2082705452560 -->
<g id="edge72" class="edge">
<title>2082705441664&#45;&#45;2082705452560</title>
<path fill="none" stroke="black" d="M143.63,-468.13C161.79,-465.39 187.28,-461.54 212.26,-457.77"/>
</g>
<!-- 2082705443920 -->
<g id="node75" class="node">
<title>2082705443920</title>
<ellipse fill="none" stroke="black" cx="297.89" cy="-391" rx="27" ry="18"/>
<text text-anchor="middle" x="297.89" y="-385" font-family="Times New Roman,serif" font-size="15.00">seq</text>
</g>
<!-- 2082705441664&#45;&#45;2082705443920 -->
<g id="edge75" class="edge">
<title>2082705441664&#45;&#45;2082705443920</title>
<path fill="none" stroke="black" d="M139.93,-462.07C174.27,-446.52 240.33,-416.61 274.77,-401.01"/>
</g>
<!-- 2082705453520 -->
<g id="node78" class="node">
<title>2082705453520</title>
<ellipse fill="none" stroke="black" cx="297.89" cy="-337" rx="52.89" ry="18"/>
<text text-anchor="middle" x="297.89" y="-331" font-family="Times New Roman,serif" font-size="15.00">close case</text>
</g>
<!-- 2082705441664&#45;&#45;2082705453520 -->
<g id="edge76" class="edge">
<title>2082705441664&#45;&#45;2082705453520</title>
<path fill="none" stroke="black" d="M135.81,-458.56C168.77,-433.69 239.2,-380.54 275,-353.51"/>
</g>
<!-- 2082705448528 -->
<g id="node76" class="node">
<title>2082705448528</title>
<ellipse fill="none" stroke="black" cx="624.93" cy="-397" rx="92.3" ry="18"/>
<text text-anchor="middle" x="624.93" y="-391" font-family="Times New Roman,serif" font-size="15.00">phase archived case</text>
</g>
<!-- 2082705443920&#45;&#45;2082705448528 -->
<g id="edge73" class="edge">
<title>2082705443920&#45;&#45;2082705448528</title>
<path fill="none" stroke="black" d="M325.21,-391.49C369.87,-392.31 462.49,-394.02 532.82,-395.32"/>
</g>
<!-- 2082705446368 -->
<g id="node77" class="node">
<title>2082705446368</title>
<ellipse fill="none" stroke="black" cx="624.93" cy="-343" rx="88.71" ry="18"/>
<text text-anchor="middle" x="624.93" y="-337" font-family="Times New Roman,serif" font-size="15.00">phase case handled</text>
</g>
<!-- 2082705443920&#45;&#45;2082705446368 -->
<g id="edge74" class="edge">
<title>2082705443920&#45;&#45;2082705446368</title>
<path fill="none" stroke="black" d="M324.66,-387.19C373.32,-380.01 480.24,-364.22 552.2,-353.59"/>
</g>
</g>
</svg>
