<?xml version="1.0" encoding="UTF-8" standalone="no"?>
<!DOCTYPE svg PUBLIC "-//W3C//DTD SVG 1.1//EN"
 "http://www.w3.org/Graphics/SVG/1.1/DTD/svg11.dtd">
<!-- Generated by graphviz version 11.0.0 (20240428.1522)
 -->
<!-- Title: pt Pages: 1 -->
<svg width="4561pt" height="776pt"
 viewBox="0.00 0.00 4560.75 776.00" xmlns="http://www.w3.org/2000/svg" xmlns:xlink="http://www.w3.org/1999/xlink">
<g id="graph0" class="graph" transform="scale(1 1) rotate(0) translate(4 772)">
<title>pt</title>
<polygon fill="white" stroke="none" points="-4,4 -4,-772 4556.75,-772 4556.75,4 -4,4"/>
<!-- 2082701694096 -->
<g id="node1" class="node">
<title>2082701694096</title>
<ellipse fill="none" stroke="black" cx="27" cy="-603" rx="27" ry="18"/>
<text text-anchor="middle" x="27" y="-597" font-family="Times New Roman,serif" font-size="15.00">seq</text>
</g>
<!-- 2082701695344 -->
<g id="node2" class="node">
<title>2082701695344</title>
<ellipse fill="none" stroke="black" cx="117" cy="-669" rx="27" ry="18"/>
<text text-anchor="middle" x="117" y="-663" font-family="Times New Roman,serif" font-size="15.00">and</text>
</g>
<!-- 2082701694096&#45;&#45;2082701695344 -->
<g id="edge80" class="edge">
<title>2082701694096&#45;&#45;2082701695344</title>
<path fill="none" stroke="black" d="M45.81,-616.36C61.08,-627.81 82.96,-644.22 98.22,-655.66"/>
</g>
<!-- 2082701695296 -->
<g id="node82" class="node">
<title>2082701695296</title>
<ellipse fill="none" stroke="black" cx="117" cy="-564" rx="27" ry="18"/>
<text text-anchor="middle" x="117" y="-558" font-family="Times New Roman,serif" font-size="15.00">xor</text>
</g>
<!-- 2082701694096&#45;&#45;2082701695296 -->
<g id="edge87" class="edge">
<title>2082701694096&#45;&#45;2082701695296</title>
<path fill="none" stroke="black" d="M50.21,-593.16C63.55,-587.25 80.46,-579.75 93.8,-573.84"/>
</g>
<!-- 2082701695392 -->
<g id="node3" class="node">
<title>2082701695392</title>
<ellipse fill="none" stroke="black" cx="320.41" cy="-750" rx="119.93" ry="18"/>
<text text-anchor="middle" x="320.41" y="-744" font-family="Times New Roman,serif" font-size="15.00">phase application received</text>
</g>
<!-- 2082701695344&#45;&#45;2082701695392 -->
<g id="edge1" class="edge">
<title>2082701695344&#45;&#45;2082701695392</title>
<path fill="none" stroke="black" d="M140.71,-678.13C173.63,-691.37 235.2,-716.14 276.75,-732.85"/>
</g>
<!-- 2082701696016 -->
<g id="node4" class="node">
<title>2082701696016</title>
<ellipse fill="none" stroke="black" cx="320.41" cy="-696" rx="140.41" ry="18"/>
<text text-anchor="middle" x="320.41" y="-690" font-family="Times New Roman,serif" font-size="15.00">register submission date request</text>
</g>
<!-- 2082701695344&#45;&#45;2082701696016 -->
<g id="edge2" class="edge">
<title>2082701695344&#45;&#45;2082701696016</title>
<path fill="none" stroke="black" d="M143.92,-672.47C163.89,-675.15 192.86,-679.04 221.52,-682.88"/>
</g>
<!-- 2082701696640 -->
<g id="node5" class="node">
<title>2082701696640</title>
<ellipse fill="none" stroke="black" cx="320.41" cy="-642" rx="27" ry="18"/>
<text text-anchor="middle" x="320.41" y="-636" font-family="Times New Roman,serif" font-size="15.00">seq</text>
</g>
<!-- 2082701695344&#45;&#45;2082701696640 -->
<g id="edge79" class="edge">
<title>2082701695344&#45;&#45;2082701696640</title>
<path fill="none" stroke="black" d="M143.92,-665.53C182.59,-660.34 254.97,-650.64 293.59,-645.46"/>
</g>
<!-- 2082701697360 -->
<g id="node6" class="node">
<title>2082701697360</title>
<ellipse fill="none" stroke="black" cx="686.35" cy="-717" rx="27" ry="18"/>
<text text-anchor="middle" x="686.35" y="-711" font-family="Times New Roman,serif" font-size="15.00">xor</text>
</g>
<!-- 2082701696640&#45;&#45;2082701697360 -->
<g id="edge5" class="edge">
<title>2082701696640&#45;&#45;2082701697360</title>
<path fill="none" stroke="black" d="M346.71,-647.21C413.45,-660.97 593.67,-698.11 660.22,-711.82"/>
</g>
<!-- 2082701697888 -->
<g id="node9" class="node">
<title>2082701697888</title>
<ellipse fill="none" stroke="black" cx="686.35" cy="-642" rx="27" ry="18"/>
<text text-anchor="middle" x="686.35" y="-636" font-family="Times New Roman,serif" font-size="15.00">xor</text>
</g>
<!-- 2082701696640&#45;&#45;2082701697888 -->
<g id="edge22" class="edge">
<title>2082701696640&#45;&#45;2082701697888</title>
<path fill="none" stroke="black" d="M347.87,-642C415.1,-642 591.86,-642 658.98,-642"/>
</g>
<!-- 2082701696928 -->
<g id="node26" class="node">
<title>2082701696928</title>
<ellipse fill="none" stroke="black" cx="686.35" cy="-582" rx="27" ry="18"/>
<text text-anchor="middle" x="686.35" y="-576" font-family="Times New Roman,serif" font-size="15.00">and</text>
</g>
<!-- 2082701696640&#45;&#45;2082701696928 -->
<g id="edge78" class="edge">
<title>2082701696640&#45;&#45;2082701696928</title>
<path fill="none" stroke="black" d="M347,-637.78C413.82,-626.76 593,-597.23 659.79,-586.21"/>
</g>
<!-- 2082701696544 -->
<g id="node7" class="node">
<title>2082701696544</title>
<ellipse fill="black" stroke="black" cx="1061.51" cy="-756" rx="2.7" ry="2.7"/>
</g>
<!-- 2082701697360&#45;&#45;2082701696544 -->
<g id="edge3" class="edge">
<title>2082701697360&#45;&#45;2082701696544</title>
<path fill="none" stroke="black" d="M713.3,-719.71C793.62,-728.11 1034.3,-753.26 1058.54,-755.79"/>
</g>
<!-- 2082701698464 -->
<g id="node8" class="node">
<title>2082701698464</title>
<ellipse fill="none" stroke="black" cx="1061.51" cy="-717" rx="102.02" ry="18"/>
<text text-anchor="middle" x="1061.51" y="-711" font-family="Times New Roman,serif" font-size="15.00">OLO messaging active</text>
</g>
<!-- 2082701697360&#45;&#45;2082701698464 -->
<g id="edge4" class="edge">
<title>2082701697360&#45;&#45;2082701698464</title>
<path fill="none" stroke="black" d="M713.59,-717C763.77,-717 875.76,-717 959,-717"/>
</g>
<!-- 2082701698176 -->
<g id="node10" class="node">
<title>2082701698176</title>
<ellipse fill="black" stroke="black" cx="1061.51" cy="-678" rx="2.7" ry="2.7"/>
</g>
<!-- 2082701697888&#45;&#45;2082701698176 -->
<g id="edge6" class="edge">
<title>2082701697888&#45;&#45;2082701698176</title>
<path fill="none" stroke="black" d="M713.59,-644.53C794.22,-652.31 1034.36,-675.48 1058.54,-677.81"/>
</g>
<!-- 2082701698080 -->
<g id="node11" class="node">
<title>2082701698080</title>
<ellipse fill="none" stroke="black" cx="1061.51" cy="-639" rx="27" ry="18"/>
<text text-anchor="middle" x="1061.51" y="-633" font-family="Times New Roman,serif" font-size="15.00">seq</text>
</g>
<!-- 2082701697888&#45;&#45;2082701698080 -->
<g id="edge21" class="edge">
<title>2082701697888&#45;&#45;2082701698080</title>
<path fill="none" stroke="black" d="M713.59,-641.79C782.11,-641.24 965.82,-639.76 1034.3,-639.21"/>
</g>
<!-- 2082701699520 -->
<g id="node12" class="node">
<title>2082701699520</title>
<ellipse fill="none" stroke="black" cx="1390.61" cy="-685" rx="27" ry="18"/>
<text text-anchor="middle" x="1390.61" y="-679" font-family="Times New Roman,serif" font-size="15.00">and</text>
</g>
<!-- 2082701698080&#45;&#45;2082701699520 -->
<g id="edge11" class="edge">
<title>2082701698080&#45;&#45;2082701699520</title>
<path fill="none" stroke="black" d="M1088.45,-642.65C1149.65,-651.25 1302.46,-672.75 1363.66,-681.35"/>
</g>
<!-- 2082701697216 -->
<g id="node17" class="node">
<title>2082701697216</title>
<ellipse fill="none" stroke="black" cx="1390.61" cy="-631" rx="27" ry="18"/>
<text text-anchor="middle" x="1390.61" y="-625" font-family="Times New Roman,serif" font-size="15.00">xor</text>
</g>
<!-- 2082701698080&#45;&#45;2082701697216 -->
<g id="edge20" class="edge">
<title>2082701698080&#45;&#45;2082701697216</title>
<path fill="none" stroke="black" d="M1088.72,-638.36C1149.97,-636.86 1301.9,-633.15 1363.27,-631.64"/>
</g>
<!-- 2082701699424 -->
<g id="node13" class="node">
<title>2082701699424</title>
<ellipse fill="none" stroke="black" cx="1662.38" cy="-734" rx="27" ry="18"/>
<text text-anchor="middle" x="1662.38" y="-728" font-family="Times New Roman,serif" font-size="15.00">xor</text>
</g>
<!-- 2082701699520&#45;&#45;2082701699424 -->
<g id="edge9" class="edge">
<title>2082701699520&#45;&#45;2082701699424</title>
<path fill="none" stroke="black" d="M1416.98,-689.61C1468.4,-698.95 1584.35,-720.01 1635.87,-729.37"/>
</g>
<!-- 2082701699280 -->
<g id="node16" class="node">
<title>2082701699280</title>
<ellipse fill="none" stroke="black" cx="1662.38" cy="-680" rx="92.3" ry="18"/>
<text text-anchor="middle" x="1662.38" y="-674" font-family="Times New Roman,serif" font-size="15.00">terminate on request</text>
</g>
<!-- 2082701699520&#45;&#45;2082701699280 -->
<g id="edge10" class="edge">
<title>2082701699520&#45;&#45;2082701699280</title>
<path fill="none" stroke="black" d="M1417.96,-684.51C1452.97,-683.86 1516.59,-682.68 1570.01,-681.69"/>
</g>
<!-- 2082701699952 -->
<g id="node14" class="node">
<title>2082701699952</title>
<ellipse fill="black" stroke="black" cx="1974.58" cy="-756" rx="2.7" ry="2.7"/>
</g>
<!-- 2082701699424&#45;&#45;2082701699952 -->
<g id="edge7" class="edge">
<title>2082701699424&#45;&#45;2082701699952</title>
<path fill="none" stroke="black" d="M1689.56,-735.86C1760.26,-740.87 1951.1,-754.41 1971.76,-755.87"/>
</g>
<!-- 2082701699856 -->
<g id="node15" class="node">
<title>2082701699856</title>
<ellipse fill="none" stroke="black" cx="1974.58" cy="-717" rx="168.04" ry="18"/>
<text text-anchor="middle" x="1974.58" y="-711" font-family="Times New Roman,serif" font-size="15.00">enter date termination request received</text>
</g>
<!-- 2082701699424&#45;&#45;2082701699856 -->
<g id="edge8" class="edge">
<title>2082701699424&#45;&#45;2082701699856</title>
<path fill="none" stroke="black" d="M1689.56,-732.57C1719.87,-730.9 1772.26,-728.03 1823.86,-725.21"/>
</g>
<!-- 2082701699040 -->
<g id="node18" class="node">
<title>2082701699040</title>
<ellipse fill="black" stroke="black" cx="1662.38" cy="-635" rx="2.7" ry="2.7"/>
</g>
<!-- 2082701697216&#45;&#45;2082701699040 -->
<g id="edge12" class="edge">
<title>2082701697216&#45;&#45;2082701699040</title>
<path fill="none" stroke="black" d="M1417.96,-631.39C1481.6,-632.33 1639.86,-634.68 1659.39,-634.97"/>
</g>
<!-- 2082701698416 -->
<g id="node19" class="node">
<title>2082701698416</title>
<ellipse fill="none" stroke="black" cx="1662.38" cy="-596" rx="27" ry="18"/>
<text text-anchor="middle" x="1662.38" y="-590" font-family="Times New Roman,serif" font-size="15.00">seq</text>
</g>
<!-- 2082701697216&#45;&#45;2082701698416 -->
<g id="edge19" class="edge">
<title>2082701697216&#45;&#45;2082701698416</title>
<path fill="none" stroke="black" d="M1417.47,-627.64C1469.04,-620.95 1584.09,-606.03 1635.59,-599.35"/>
</g>
<!-- 2082701699808 -->
<g id="node20" class="node">
<title>2082701699808</title>
<ellipse fill="none" stroke="black" cx="1974.58" cy="-646" rx="27" ry="18"/>
<text text-anchor="middle" x="1974.58" y="-640" font-family="Times New Roman,serif" font-size="15.00">and</text>
</g>
<!-- 2082701698416&#45;&#45;2082701699808 -->
<g id="edge15" class="edge">
<title>2082701698416&#45;&#45;2082701699808</title>
<path fill="none" stroke="black" d="M1689.03,-600.13C1747.38,-609.54 1889.52,-632.45 1947.9,-641.86"/>
</g>
<!-- 2082701700240 -->
<g id="node23" class="node">
<title>2082701700240</title>
<ellipse fill="none" stroke="black" cx="1974.58" cy="-592" rx="27" ry="18"/>
<text text-anchor="middle" x="1974.58" y="-586" font-family="Times New Roman,serif" font-size="15.00">and</text>
</g>
<!-- 2082701698416&#45;&#45;2082701700240 -->
<g id="edge18" class="edge">
<title>2082701698416&#45;&#45;2082701700240</title>
<path fill="none" stroke="black" d="M1689.83,-595.66C1748.43,-594.9 1888.66,-593.1 1947.2,-592.34"/>
</g>
<!-- 2082701700624 -->
<g id="node21" class="node">
<title>2082701700624</title>
<ellipse fill="none" stroke="black" cx="2350.25" cy="-700" rx="116.35" ry="18"/>
<text text-anchor="middle" x="2350.25" y="-694" font-family="Times New Roman,serif" font-size="15.00">message terminate request</text>
</g>
<!-- 2082701699808&#45;&#45;2082701700624 -->
<g id="edge13" class="edge">
<title>2082701699808&#45;&#45;2082701700624</title>
<path fill="none" stroke="black" d="M2001.27,-649.71C2054.53,-657.41 2179.08,-675.41 2263.78,-687.65"/>
</g>
<!-- 2082701701008 -->
<g id="node22" class="node">
<title>2082701701008</title>
<ellipse fill="none" stroke="black" cx="2350.25" cy="-646" rx="148.59" ry="18"/>
<text text-anchor="middle" x="2350.25" y="-640" font-family="Times New Roman,serif" font-size="15.00">enter senddate request termination</text>
</g>
<!-- 2082701699808&#45;&#45;2082701701008 -->
<g id="edge14" class="edge">
<title>2082701699808&#45;&#45;2082701701008</title>
<path fill="none" stroke="black" d="M2001.86,-646C2043.22,-646 2126.52,-646 2201.18,-646"/>
</g>
<!-- 2082701700528 -->
<g id="node24" class="node">
<title>2082701700528</title>
<ellipse fill="none" stroke="black" cx="2350.25" cy="-592" rx="78.99" ry="18"/>
<text text-anchor="middle" x="2350.25" y="-586" font-family="Times New Roman,serif" font-size="15.00">register deadline</text>
</g>
<!-- 2082701700240&#45;&#45;2082701700528 -->
<g id="edge16" class="edge">
<title>2082701700240&#45;&#45;2082701700528</title>
<path fill="none" stroke="black" d="M2001.86,-592C2057.01,-592 2186.71,-592 2271.08,-592"/>
</g>
<!-- 2082701700960 -->
<g id="node25" class="node">
<title>2082701700960</title>
<ellipse fill="none" stroke="black" cx="2350.25" cy="-538" rx="110.72" ry="18"/>
<text text-anchor="middle" x="2350.25" y="-532" font-family="Times New Roman,serif" font-size="15.00">phase procedure aborted</text>
</g>
<!-- 2082701700240&#45;&#45;2082701700960 -->
<g id="edge17" class="edge">
<title>2082701700240&#45;&#45;2082701700960</title>
<path fill="none" stroke="black" d="M2001.27,-588.29C2055.02,-580.52 2181.4,-562.26 2266.13,-550.01"/>
</g>
<!-- 2082701698848 -->
<g id="node27" class="node">
<title>2082701698848</title>
<ellipse fill="none" stroke="black" cx="1061.51" cy="-585" rx="149.62" ry="18"/>
<text text-anchor="middle" x="1061.51" y="-579" font-family="Times New Roman,serif" font-size="15.00">forward to the competent authority</text>
</g>
<!-- 2082701696928&#45;&#45;2082701698848 -->
<g id="edge23" class="edge">
<title>2082701696928&#45;&#45;2082701698848</title>
<path fill="none" stroke="black" d="M713.59,-582.21C754.73,-582.54 837.41,-583.21 911.74,-583.8"/>
</g>
<!-- 2082701698512 -->
<g id="node28" class="node">
<title>2082701698512</title>
<ellipse fill="none" stroke="black" cx="1061.51" cy="-531" rx="27" ry="18"/>
<text text-anchor="middle" x="1061.51" y="-525" font-family="Times New Roman,serif" font-size="15.00">xor</text>
</g>
<!-- 2082701696928&#45;&#45;2082701698512 -->
<g id="edge26" class="edge">
<title>2082701696928&#45;&#45;2082701698512</title>
<path fill="none" stroke="black" d="M713.3,-578.45C781.72,-569.1 966.51,-543.85 1034.74,-534.52"/>
</g>
<!-- 2082701696592 -->
<g id="node31" class="node">
<title>2082701696592</title>
<ellipse fill="none" stroke="black" cx="1061.51" cy="-477" rx="27" ry="18"/>
<text text-anchor="middle" x="1061.51" y="-471" font-family="Times New Roman,serif" font-size="15.00">seq</text>
</g>
<!-- 2082701696928&#45;&#45;2082701696592 -->
<g id="edge77" class="edge">
<title>2082701696928&#45;&#45;2082701696592</title>
<path fill="none" stroke="black" d="M711.84,-575.11C779.61,-556.04 969.12,-502.72 1036.42,-483.78"/>
</g>
<!-- 2082701697840 -->
<g id="node29" class="node">
<title>2082701697840</title>
<ellipse fill="black" stroke="black" cx="1390.61" cy="-570" rx="2.7" ry="2.7"/>
</g>
<!-- 2082701698512&#45;&#45;2082701697840 -->
<g id="edge24" class="edge">
<title>2082701698512&#45;&#45;2082701697840</title>
<path fill="none" stroke="black" d="M1088.45,-534.09C1161.58,-542.81 1365.57,-567.13 1387.66,-569.77"/>
</g>
<!-- 2082701699616 -->
<g id="node30" class="node">
<title>2082701699616</title>
<ellipse fill="none" stroke="black" cx="1390.61" cy="-531" rx="143.48" ry="18"/>
<text text-anchor="middle" x="1390.61" y="-525" font-family="Times New Roman,serif" font-size="15.00">enter senddate acknowledgement</text>
</g>
<!-- 2082701698512&#45;&#45;2082701699616 -->
<g id="edge25" class="edge">
<title>2082701698512&#45;&#45;2082701699616</title>
<path fill="none" stroke="black" d="M1089,-531C1123.68,-531 1187.08,-531 1246.75,-531"/>
</g>
<!-- 2082701700288 -->
<g id="node32" class="node">
<title>2082701700288</title>
<ellipse fill="none" stroke="black" cx="1390.61" cy="-477" rx="27" ry="18"/>
<text text-anchor="middle" x="1390.61" y="-471" font-family="Times New Roman,serif" font-size="15.00">xor</text>
</g>
<!-- 2082701696592&#45;&#45;2082701700288 -->
<g id="edge33" class="edge">
<title>2082701696592&#45;&#45;2082701700288</title>
<path fill="none" stroke="black" d="M1089,-477C1150.44,-477 1302.08,-477 1363.32,-477"/>
</g>
<!-- 2082701698800 -->
<g id="node39" class="node">
<title>2082701698800</title>
<ellipse fill="none" stroke="black" cx="1390.61" cy="-411" rx="27" ry="18"/>
<text text-anchor="middle" x="1390.61" y="-405" font-family="Times New Roman,serif" font-size="15.00">and</text>
</g>
<!-- 2082701696592&#45;&#45;2082701698800 -->
<g id="edge76" class="edge">
<title>2082701696592&#45;&#45;2082701698800</title>
<path fill="none" stroke="black" d="M1087.9,-471.88C1149,-459.55 1303.61,-428.35 1364.45,-416.08"/>
</g>
<!-- 2082701699904 -->
<g id="node33" class="node">
<title>2082701699904</title>
<ellipse fill="black" stroke="black" cx="1662.38" cy="-516" rx="2.7" ry="2.7"/>
</g>
<!-- 2082701700288&#45;&#45;2082701699904 -->
<g id="edge27" class="edge">
<title>2082701700288&#45;&#45;2082701699904</title>
<path fill="none" stroke="black" d="M1417.47,-480.74C1480.77,-489.89 1639.76,-512.87 1659.38,-515.71"/>
</g>
<!-- 2082701701344 -->
<g id="node34" class="node">
<title>2082701701344</title>
<ellipse fill="none" stroke="black" cx="1662.38" cy="-477" rx="27" ry="18"/>
<text text-anchor="middle" x="1662.38" y="-471" font-family="Times New Roman,serif" font-size="15.00">seq</text>
</g>
<!-- 2082701700288&#45;&#45;2082701701344 -->
<g id="edge32" class="edge">
<title>2082701700288&#45;&#45;2082701701344</title>
<path fill="none" stroke="black" d="M1417.96,-477C1469.54,-477 1583.25,-477 1634.91,-477"/>
</g>
<!-- 2082701701584 -->
<g id="node35" class="node">
<title>2082701701584</title>
<ellipse fill="none" stroke="black" cx="1974.58" cy="-531" rx="183.91" ry="18"/>
<text text-anchor="middle" x="1974.58" y="-525" font-family="Times New Roman,serif" font-size="15.00">enter senddate letter to competent authority</text>
</g>
<!-- 2082701701344&#45;&#45;2082701701584 -->
<g id="edge28" class="edge">
<title>2082701701344&#45;&#45;2082701701584</title>
<path fill="none" stroke="black" d="M1689.03,-481.46C1730.83,-488.74 1815.64,-503.51 1881.85,-515.03"/>
</g>
<!-- 2082701701200 -->
<g id="node36" class="node">
<title>2082701701200</title>
<ellipse fill="none" stroke="black" cx="1974.58" cy="-477" rx="27" ry="18"/>
<text text-anchor="middle" x="1974.58" y="-471" font-family="Times New Roman,serif" font-size="15.00">xor</text>
</g>
<!-- 2082701701344&#45;&#45;2082701701200 -->
<g id="edge31" class="edge">
<title>2082701701344&#45;&#45;2082701701200</title>
<path fill="none" stroke="black" d="M1689.83,-477C1748.43,-477 1888.66,-477 1947.2,-477"/>
</g>
<!-- 2082701701968 -->
<g id="node37" class="node">
<title>2082701701968</title>
<ellipse fill="black" stroke="black" cx="2350.25" cy="-482" rx="2.7" ry="2.7"/>
</g>
<!-- 2082701701200&#45;&#45;2082701701968 -->
<g id="edge29" class="edge">
<title>2082701701200&#45;&#45;2082701701968</title>
<path fill="none" stroke="black" d="M2001.86,-477.35C2082.6,-478.43 2323.07,-481.65 2347.28,-481.97"/>
</g>
<!-- 2082701702352 -->
<g id="node38" class="node">
<title>2082701702352</title>
<ellipse fill="none" stroke="black" cx="2350.25" cy="-443" rx="155.76" ry="18"/>
<text text-anchor="middle" x="2350.25" y="-437" font-family="Times New Roman,serif" font-size="15.00">enter senddate letter to stakeholders</text>
</g>
<!-- 2082701701200&#45;&#45;2082701702352 -->
<g id="edge30" class="edge">
<title>2082701701200&#45;&#45;2082701702352</title>
<path fill="none" stroke="black" d="M2001.56,-474.64C2047.49,-470.46 2145.77,-461.51 2226.16,-454.2"/>
</g>
<!-- 2082701701680 -->
<g id="node40" class="node">
<title>2082701701680</title>
<ellipse fill="none" stroke="black" cx="1662.38" cy="-411" rx="27" ry="18"/>
<text text-anchor="middle" x="1662.38" y="-405" font-family="Times New Roman,serif" font-size="15.00">xor</text>
</g>
<!-- 2082701698800&#45;&#45;2082701701680 -->
<g id="edge36" class="edge">
<title>2082701698800&#45;&#45;2082701701680</title>
<path fill="none" stroke="black" d="M1417.96,-411C1469.54,-411 1583.25,-411 1634.91,-411"/>
</g>
<!-- 2082701701296 -->
<g id="node43" class="node">
<title>2082701701296</title>
<ellipse fill="none" stroke="black" cx="1662.38" cy="-345" rx="27" ry="18"/>
<text text-anchor="middle" x="1662.38" y="-339" font-family="Times New Roman,serif" font-size="15.00">seq</text>
</g>
<!-- 2082701698800&#45;&#45;2082701701296 -->
<g id="edge75" class="edge">
<title>2082701698800&#45;&#45;2082701701296</title>
<path fill="none" stroke="black" d="M1416.5,-404.91C1467.89,-392.34 1585.2,-363.64 1636.54,-351.08"/>
</g>
<!-- 2082701701920 -->
<g id="node41" class="node">
<title>2082701701920</title>
<ellipse fill="black" stroke="black" cx="1974.58" cy="-438" rx="2.7" ry="2.7"/>
</g>
<!-- 2082701701680&#45;&#45;2082701701920 -->
<g id="edge34" class="edge">
<title>2082701701680&#45;&#45;2082701701920</title>
<path fill="none" stroke="black" d="M1689.56,-413.28C1760.26,-419.43 1951.1,-436.04 1971.76,-437.84"/>
</g>
<!-- 2082701700864 -->
<g id="node42" class="node">
<title>2082701700864</title>
<ellipse fill="none" stroke="black" cx="1974.58" cy="-399" rx="166" ry="18"/>
<text text-anchor="middle" x="1974.58" y="-393" font-family="Times New Roman,serif" font-size="15.00">enter senddate procedure confirmation</text>
</g>
<!-- 2082701701680&#45;&#45;2082701700864 -->
<g id="edge35" class="edge">
<title>2082701701680&#45;&#45;2082701700864</title>
<path fill="none" stroke="black" d="M1689.83,-409.98C1718.91,-408.85 1768.09,-406.95 1817.42,-405.04"/>
</g>
<!-- 2082701701872 -->
<g id="node44" class="node">
<title>2082701701872</title>
<ellipse fill="none" stroke="black" cx="1974.58" cy="-345" rx="27" ry="18"/>
<text text-anchor="middle" x="1974.58" y="-339" font-family="Times New Roman,serif" font-size="15.00">xor</text>
</g>
<!-- 2082701701296&#45;&#45;2082701701872 -->
<g id="edge39" class="edge">
<title>2082701701296&#45;&#45;2082701701872</title>
<path fill="none" stroke="black" d="M1689.83,-345C1748.43,-345 1888.66,-345 1947.2,-345"/>
</g>
<!-- 2082701702304 -->
<g id="node47" class="node">
<title>2082701702304</title>
<ellipse fill="none" stroke="black" cx="1974.58" cy="-291" rx="27" ry="18"/>
<text text-anchor="middle" x="1974.58" y="-285" font-family="Times New Roman,serif" font-size="15.00">and</text>
</g>
<!-- 2082701701296&#45;&#45;2082701702304 -->
<g id="edge74" class="edge">
<title>2082701701296&#45;&#45;2082701702304</title>
<path fill="none" stroke="black" d="M1689.03,-340.54C1747.38,-330.38 1889.52,-305.63 1947.9,-295.47"/>
</g>
<!-- 2082701702640 -->
<g id="node45" class="node">
<title>2082701702640</title>
<ellipse fill="black" stroke="black" cx="2350.25" cy="-384" rx="2.7" ry="2.7"/>
</g>
<!-- 2082701701872&#45;&#45;2082701702640 -->
<g id="edge37" class="edge">
<title>2082701701872&#45;&#45;2082701702640</title>
<path fill="none" stroke="black" d="M2001.56,-347.71C2082,-356.11 2323.01,-381.26 2347.28,-383.79"/>
</g>
<!-- 2082701703024 -->
<g id="node46" class="node">
<title>2082701703024</title>
<ellipse fill="none" stroke="black" cx="2350.25" cy="-345" rx="103.56" ry="18"/>
<text text-anchor="middle" x="2350.25" y="-339" font-family="Times New Roman,serif" font-size="15.00">reception through OLO</text>
</g>
<!-- 2082701701872&#45;&#45;2082701703024 -->
<g id="edge38" class="edge">
<title>2082701701872&#45;&#45;2082701703024</title>
<path fill="none" stroke="black" d="M2001.86,-345C2051.86,-345 2163.14,-345 2246.36,-345"/>
</g>
<!-- 2082701702544 -->
<g id="node48" class="node">
<title>2082701702544</title>
<ellipse fill="none" stroke="black" cx="2350.25" cy="-291" rx="27" ry="18"/>
<text text-anchor="middle" x="2350.25" y="-285" font-family="Times New Roman,serif" font-size="15.00">xor</text>
</g>
<!-- 2082701702304&#45;&#45;2082701702544 -->
<g id="edge42" class="edge">
<title>2082701702304&#45;&#45;2082701702544</title>
<path fill="none" stroke="black" d="M2001.86,-291C2070.47,-291 2254.43,-291 2323.01,-291"/>
</g>
<!-- 2082701702976 -->
<g id="node51" class="node">
<title>2082701702976</title>
<ellipse fill="none" stroke="black" cx="2350.25" cy="-237" rx="27" ry="18"/>
<text text-anchor="middle" x="2350.25" y="-231" font-family="Times New Roman,serif" font-size="15.00">seq</text>
</g>
<!-- 2082701702304&#45;&#45;2082701702976 -->
<g id="edge73" class="edge">
<title>2082701702304&#45;&#45;2082701702976</title>
<path fill="none" stroke="black" d="M2001.27,-287.29C2069.53,-277.42 2254.92,-250.63 2323.39,-240.74"/>
</g>
<!-- 2082701703312 -->
<g id="node49" class="node">
<title>2082701703312</title>
<ellipse fill="black" stroke="black" cx="2666.55" cy="-330" rx="2.7" ry="2.7"/>
</g>
<!-- 2082701702544&#45;&#45;2082701703312 -->
<g id="edge40" class="edge">
<title>2082701702544&#45;&#45;2082701703312</title>
<path fill="none" stroke="black" d="M2377.24,-294.22C2448.43,-303.06 2642.67,-327.16 2663.7,-329.77"/>
</g>
<!-- 2082701703696 -->
<g id="node50" class="node">
<title>2082701703696</title>
<ellipse fill="none" stroke="black" cx="2666.55" cy="-291" rx="124.54" ry="18"/>
<text text-anchor="middle" x="2666.55" y="-285" font-family="Times New Roman,serif" font-size="15.00">registration date publication</text>
</g>
<!-- 2082701702544&#45;&#45;2082701703696 -->
<g id="edge41" class="edge">
<title>2082701702544&#45;&#45;2082701703696</title>
<path fill="none" stroke="black" d="M2377.51,-291C2413.66,-291 2481.17,-291 2541.75,-291"/>
</g>
<!-- 2082701703216 -->
<g id="node52" class="node">
<title>2082701703216</title>
<ellipse fill="none" stroke="black" cx="2666.55" cy="-237" rx="27" ry="18"/>
<text text-anchor="middle" x="2666.55" y="-231" font-family="Times New Roman,serif" font-size="15.00">and</text>
</g>
<!-- 2082701702976&#45;&#45;2082701703216 -->
<g id="edge69" class="edge">
<title>2082701702976&#45;&#45;2082701703216</title>
<path fill="none" stroke="black" d="M2377.51,-237C2436.67,-237 2579.85,-237 2639.15,-237"/>
</g>
<!-- 2082701703648 -->
<g id="node79" class="node">
<title>2082701703648</title>
<ellipse fill="none" stroke="black" cx="2666.55" cy="-183" rx="27" ry="18"/>
<text text-anchor="middle" x="2666.55" y="-177" font-family="Times New Roman,serif" font-size="15.00">xor</text>
</g>
<!-- 2082701702976&#45;&#45;2082701703648 -->
<g id="edge72" class="edge">
<title>2082701702976&#45;&#45;2082701703648</title>
<path fill="none" stroke="black" d="M2376.71,-232.63C2435.6,-222.51 2580.74,-197.57 2639.86,-187.41"/>
</g>
<!-- 2082701703984 -->
<g id="node53" class="node">
<title>2082701703984</title>
<ellipse fill="none" stroke="black" cx="2953.68" cy="-306" rx="45.21" ry="18"/>
<text text-anchor="middle" x="2953.68" y="-300" font-family="Times New Roman,serif" font-size="15.00">xor loop</text>
</g>
<!-- 2082701703216&#45;&#45;2082701703984 -->
<g id="edge45" class="edge">
<title>2082701703216&#45;&#45;2082701703984</title>
<path fill="none" stroke="black" d="M2692.36,-243C2742.22,-255.07 2854.89,-282.33 2914.32,-296.72"/>
</g>
<!-- 2082701704368 -->
<g id="node56" class="node">
<title>2082701704368</title>
<ellipse fill="none" stroke="black" cx="2953.68" cy="-233" rx="27" ry="18"/>
<text text-anchor="middle" x="2953.68" y="-227" font-family="Times New Roman,serif" font-size="15.00">seq</text>
</g>
<!-- 2082701703216&#45;&#45;2082701704368 -->
<g id="edge68" class="edge">
<title>2082701703216&#45;&#45;2082701704368</title>
<path fill="none" stroke="black" d="M2693.87,-236.63C2748.19,-235.87 2872.17,-234.13 2926.43,-233.37"/>
</g>
<!-- 2082701704704 -->
<g id="node54" class="node">
<title>2082701704704</title>
<ellipse fill="none" stroke="black" cx="3256.16" cy="-345" rx="113.79" ry="18"/>
<text text-anchor="middle" x="3256.16" y="-339" font-family="Times New Roman,serif" font-size="15.00">send confirmation receipt</text>
</g>
<!-- 2082701703984&#45;&#45;2082701704704 -->
<g id="edge43" class="edge">
<title>2082701703984&#45;&#45;2082701704704</title>
<path fill="none" stroke="black" d="M2997.1,-311.51C3041.02,-317.21 3110.92,-326.28 3166.91,-333.55"/>
</g>
<!-- 2082701704608 -->
<g id="node55" class="node">
<title>2082701704608</title>
<ellipse fill="black" stroke="black" cx="3256.16" cy="-306" rx="2.7" ry="2.7"/>
</g>
<!-- 2082701703984&#45;&#45;2082701704608 -->
<g id="edge44" class="edge">
<title>2082701703984&#45;&#45;2082701704608</title>
<path fill="none" stroke="black" d="M2999.34,-306C3077.82,-306 3233.99,-306 3253.21,-306"/>
</g>
<!-- 2082701704656 -->
<g id="node57" class="node">
<title>2082701704656</title>
<ellipse fill="none" stroke="black" cx="3256.16" cy="-267" rx="139.89" ry="18"/>
<text text-anchor="middle" x="3256.16" y="-261" font-family="Times New Roman,serif" font-size="15.00">regular procedure without MER</text>
</g>
<!-- 2082701704368&#45;&#45;2082701704656 -->
<g id="edge46" class="edge">
<title>2082701704368&#45;&#45;2082701704656</title>
<path fill="none" stroke="black" d="M2980.82,-235.96C3018.23,-240.19 3089.19,-248.22 3149.57,-255.05"/>
</g>
<!-- 2082701705040 -->
<g id="node58" class="node">
<title>2082701705040</title>
<ellipse fill="none" stroke="black" cx="3256.16" cy="-213" rx="27" ry="18"/>
<text text-anchor="middle" x="3256.16" y="-207" font-family="Times New Roman,serif" font-size="15.00">xor</text>
</g>
<!-- 2082701704368&#45;&#45;2082701705040 -->
<g id="edge64" class="edge">
<title>2082701704368&#45;&#45;2082701705040</title>
<path fill="none" stroke="black" d="M2980.82,-231.26C3037.65,-227.48 3171.9,-218.54 3228.87,-214.75"/>
</g>
<!-- 2082701704944 -->
<g id="node76" class="node">
<title>2082701704944</title>
<ellipse fill="none" stroke="black" cx="3256.16" cy="-140" rx="27" ry="18"/>
<text text-anchor="middle" x="3256.16" y="-134" font-family="Times New Roman,serif" font-size="15.00">xor</text>
</g>
<!-- 2082701704368&#45;&#45;2082701704944 -->
<g id="edge67" class="edge">
<title>2082701704368&#45;&#45;2082701704944</title>
<path fill="none" stroke="black" d="M2978.76,-225.55C3035.16,-208.09 3175.28,-164.72 3231.38,-147.36"/>
</g>
<!-- 2082701705184 -->
<g id="node59" class="node">
<title>2082701705184</title>
<ellipse fill="black" stroke="black" cx="3534.08" cy="-272" rx="2.7" ry="2.7"/>
</g>
<!-- 2082701705040&#45;&#45;2082701705184 -->
<g id="edge47" class="edge">
<title>2082701705040&#45;&#45;2082701705184</title>
<path fill="none" stroke="black" d="M3282.14,-218.34C3345.81,-231.96 3510.65,-267.2 3531.01,-271.56"/>
</g>
<!-- 2082701697552 -->
<g id="node60" class="node">
<title>2082701697552</title>
<ellipse fill="none" stroke="black" cx="3534.08" cy="-233" rx="27" ry="18"/>
<text text-anchor="middle" x="3534.08" y="-227" font-family="Times New Roman,serif" font-size="15.00">seq</text>
</g>
<!-- 2082701705040&#45;&#45;2082701697552 -->
<g id="edge56" class="edge">
<title>2082701705040&#45;&#45;2082701697552</title>
<path fill="none" stroke="black" d="M3283.12,-214.88C3335.71,-218.69 3454.29,-227.29 3506.99,-231.11"/>
</g>
<!-- 2082701697120 -->
<g id="node69" class="node">
<title>2082701697120</title>
<ellipse fill="none" stroke="black" cx="3534.08" cy="-179" rx="27" ry="18"/>
<text text-anchor="middle" x="3534.08" y="-173" font-family="Times New Roman,serif" font-size="15.00">seq</text>
</g>
<!-- 2082701705040&#45;&#45;2082701697120 -->
<g id="edge63" class="edge">
<title>2082701705040&#45;&#45;2082701697120</title>
<path fill="none" stroke="black" d="M3283.12,-209.8C3335.84,-203.3 3454.9,-188.63 3507.39,-182.17"/>
</g>
<!-- 2082701690736 -->
<g id="node61" class="node">
<title>2082701690736</title>
<ellipse fill="none" stroke="black" cx="3804.83" cy="-287" rx="27" ry="18"/>
<text text-anchor="middle" x="3804.83" y="-281" font-family="Times New Roman,serif" font-size="15.00">xor</text>
</g>
<!-- 2082701697552&#45;&#45;2082701690736 -->
<g id="edge50" class="edge">
<title>2082701697552&#45;&#45;2082701690736</title>
<path fill="none" stroke="black" d="M3560.36,-238.08C3611.58,-248.37 3727.09,-271.58 3778.41,-281.89"/>
</g>
<!-- 2082701694000 -->
<g id="node64" class="node">
<title>2082701694000</title>
<ellipse fill="none" stroke="black" cx="3804.83" cy="-233" rx="27" ry="18"/>
<text text-anchor="middle" x="3804.83" y="-227" font-family="Times New Roman,serif" font-size="15.00">xor</text>
</g>
<!-- 2082701697552&#45;&#45;2082701694000 -->
<g id="edge55" class="edge">
<title>2082701697552&#45;&#45;2082701694000</title>
<path fill="none" stroke="black" d="M3561.34,-233C3612.71,-233 3726,-233 3777.46,-233"/>
</g>
<!-- 2082701698032 -->
<g id="node62" class="node">
<title>2082701698032</title>
<ellipse fill="black" stroke="black" cx="4122.15" cy="-325" rx="2.7" ry="2.7"/>
</g>
<!-- 2082701690736&#45;&#45;2082701698032 -->
<g id="edge48" class="edge">
<title>2082701690736&#45;&#45;2082701698032</title>
<path fill="none" stroke="black" d="M3831.9,-290.14C3903.32,-298.75 4098.19,-322.23 4119.29,-324.78"/>
</g>
<!-- 2082701699136 -->
<g id="node63" class="node">
<title>2082701699136</title>
<ellipse fill="none" stroke="black" cx="4122.15" cy="-286" rx="148.59" ry="18"/>
<text text-anchor="middle" x="4122.15" y="-280" font-family="Times New Roman,serif" font-size="15.00">no permit required for application</text>
</g>
<!-- 2082701690736&#45;&#45;2082701699136 -->
<g id="edge49" class="edge">
<title>2082701690736&#45;&#45;2082701699136</title>
<path fill="none" stroke="black" d="M3832.17,-286.92C3863.77,-286.82 3919.27,-286.64 3973.23,-286.47"/>
</g>
<!-- 2082701699088 -->
<g id="node65" class="node">
<title>2082701699088</title>
<ellipse fill="black" stroke="black" cx="4122.15" cy="-246" rx="2.7" ry="2.7"/>
</g>
<!-- 2082701694000&#45;&#45;2082701699088 -->
<g id="edge51" class="edge">
<title>2082701694000&#45;&#45;2082701699088</title>
<path fill="none" stroke="black" d="M3832.17,-234.09C3903.81,-237.04 4098.24,-245.06 4119.3,-245.92"/>
</g>
<!-- 2082701697984 -->
<g id="node66" class="node">
<title>2082701697984</title>
<ellipse fill="none" stroke="black" cx="4122.15" cy="-207" rx="27" ry="18"/>
<text text-anchor="middle" x="4122.15" y="-201" font-family="Times New Roman,serif" font-size="15.00">seq</text>
</g>
<!-- 2082701694000&#45;&#45;2082701697984 -->
<g id="edge54" class="edge">
<title>2082701694000&#45;&#45;2082701697984</title>
<path fill="none" stroke="black" d="M3831.9,-230.85C3891.22,-225.96 4035.7,-214.05 4095.05,-209.15"/>
</g>
<!-- 2082701697696 -->
<g id="node67" class="node">
<title>2082701697696</title>
<ellipse fill="none" stroke="black" cx="4429.75" cy="-234" rx="64.15" ry="18"/>
<text text-anchor="middle" x="4429.75" y="-228" font-family="Times New Roman,serif" font-size="15.00">MER present</text>
</g>
<!-- 2082701697984&#45;&#45;2082701697696 -->
<g id="edge52" class="edge">
<title>2082701697984&#45;&#45;2082701697696</title>
<path fill="none" stroke="black" d="M4149.21,-209.3C4197.34,-213.56 4301.38,-222.75 4368.06,-228.64"/>
</g>
<!-- 2082701697648 -->
<g id="node68" class="node">
<title>2082701697648</title>
<ellipse fill="none" stroke="black" cx="4429.75" cy="-180" rx="123" ry="18"/>
<text text-anchor="middle" x="4429.75" y="-174" font-family="Times New Roman,serif" font-size="15.00">activities regular procedure</text>
</g>
<!-- 2082701697984&#45;&#45;2082701697648 -->
<g id="edge53" class="edge">
<title>2082701697984&#45;&#45;2082701697648</title>
<path fill="none" stroke="black" d="M4149.21,-204.7C4187.53,-201.31 4261.28,-194.8 4323.4,-189.31"/>
</g>
<!-- 2082701699184 -->
<g id="node70" class="node">
<title>2082701699184</title>
<ellipse fill="none" stroke="black" cx="3804.83" cy="-179" rx="132.73" ry="18"/>
<text text-anchor="middle" x="3804.83" y="-173" font-family="Times New Roman,serif" font-size="15.00">create procedure confirmation</text>
</g>
<!-- 2082701697120&#45;&#45;2082701699184 -->
<g id="edge57" class="edge">
<title>2082701697120&#45;&#45;2082701699184</title>
<path fill="none" stroke="black" d="M3561.34,-179C3587.55,-179 3629.89,-179 3671.91,-179"/>
</g>
<!-- 2082701689056 -->
<g id="node71" class="node">
<title>2082701689056</title>
<ellipse fill="none" stroke="black" cx="3804.83" cy="-125" rx="27" ry="18"/>
<text text-anchor="middle" x="3804.83" y="-119" font-family="Times New Roman,serif" font-size="15.00">xor</text>
</g>
<!-- 2082701697120&#45;&#45;2082701689056 -->
<g id="edge62" class="edge">
<title>2082701697120&#45;&#45;2082701689056</title>
<path fill="none" stroke="black" d="M3560.36,-173.92C3611.58,-163.63 3727.09,-140.42 3778.41,-130.11"/>
</g>
<!-- 2082701695056 -->
<g id="node72" class="node">
<title>2082701695056</title>
<ellipse fill="black" stroke="black" cx="4122.15" cy="-165" rx="2.7" ry="2.7"/>
</g>
<!-- 2082701689056&#45;&#45;2082701695056 -->
<g id="edge58" class="edge">
<title>2082701689056&#45;&#45;2082701695056</title>
<path fill="none" stroke="black" d="M3831.63,-128.27C3902.82,-137.3 4098.14,-162.08 4119.29,-164.76"/>
</g>
<!-- 2082701698368 -->
<g id="node73" class="node">
<title>2082701698368</title>
<ellipse fill="none" stroke="black" cx="4122.15" cy="-126" rx="124.54" ry="18"/>
<text text-anchor="middle" x="4122.15" y="-120" font-family="Times New Roman,serif" font-size="15.00">create publication document</text>
</g>
<!-- 2082701689056&#45;&#45;2082701698368 -->
<g id="edge59" class="edge">
<title>2082701689056&#45;&#45;2082701698368</title>
<path fill="none" stroke="black" d="M3832.17,-125.08C3868.51,-125.2 3936.44,-125.41 3997.31,-125.61"/>
</g>
<!-- 2082701696256 -->
<g id="node74" class="node">
<title>2082701696256</title>
<ellipse fill="none" stroke="black" cx="4122.15" cy="-72" rx="40.6" ry="18"/>
<text text-anchor="middle" x="4122.15" y="-66" font-family="Times New Roman,serif" font-size="15.00">publish</text>
</g>
<!-- 2082701689056&#45;&#45;2082701696256 -->
<g id="edge60" class="edge">
<title>2082701689056&#45;&#45;2082701696256</title>
<path fill="none" stroke="black" d="M3831.36,-120.71C3886.86,-111.38 4018.67,-89.22 4083.64,-78.31"/>
</g>
<!-- 2082701696832 -->
<g id="node75" class="node">
<title>2082701696832</title>
<ellipse fill="none" stroke="black" cx="4122.15" cy="-18" rx="130.68" ry="18"/>
<text text-anchor="middle" x="4122.15" y="-12" font-family="Times New Roman,serif" font-size="15.00">create subcases completeness</text>
</g>
<!-- 2082701689056&#45;&#45;2082701696832 -->
<g id="edge61" class="edge">
<title>2082701689056&#45;&#45;2082701696832</title>
<path fill="none" stroke="black" d="M3829.53,-116.96C3880.66,-99.61 4002.27,-58.34 4071.21,-34.95"/>
</g>
<!-- 2082701692032 -->
<g id="node77" class="node">
<title>2082701692032</title>
<ellipse fill="black" stroke="black" cx="3534.08" cy="-140" rx="2.7" ry="2.7"/>
</g>
<!-- 2082701704944&#45;&#45;2082701692032 -->
<g id="edge65" class="edge">
<title>2082701704944&#45;&#45;2082701692032</title>
<path fill="none" stroke="black" d="M3283.62,-140C3348.36,-140 3510.96,-140 3531.03,-140"/>
</g>
<!-- 2082701704560 -->
<g id="node78" class="node">
<title>2082701704560</title>
<ellipse fill="none" stroke="black" cx="3534.08" cy="-101" rx="102.02" ry="18"/>
<text text-anchor="middle" x="3534.08" y="-95" font-family="Times New Roman,serif" font-size="15.00">start WABOprocedure</text>
</g>
<!-- 2082701704944&#45;&#45;2082701704560 -->
<g id="edge66" class="edge">
<title>2082701704944&#45;&#45;2082701704560</title>
<path fill="none" stroke="black" d="M3282.63,-136.4C3321.05,-130.97 3395.49,-120.45 3453.27,-112.28"/>
</g>
<!-- 2082701696400 -->
<g id="node80" class="node">
<title>2082701696400</title>
<ellipse fill="black" stroke="black" cx="2953.68" cy="-187" rx="2.7" ry="2.7"/>
</g>
<!-- 2082701703648&#45;&#45;2082701696400 -->
<g id="edge70" class="edge">
<title>2082701703648&#45;&#45;2082701696400</title>
<path fill="none" stroke="black" d="M2693.87,-183.37C2760.04,-184.3 2929.61,-186.68 2950.55,-186.97"/>
</g>
<!-- 2082701703552 -->
<g id="node81" class="node">
<title>2082701703552</title>
<ellipse fill="none" stroke="black" cx="2953.68" cy="-148" rx="126.59" ry="18"/>
<text text-anchor="middle" x="2953.68" y="-142" font-family="Times New Roman,serif" font-size="15.00">send procedure confirmation</text>
</g>
<!-- 2082701703648&#45;&#45;2082701703552 -->
<g id="edge71" class="edge">
<title>2082701703648&#45;&#45;2082701703552</title>
<path fill="none" stroke="black" d="M2693.61,-179.8C2730.25,-175.3 2798.94,-166.87 2856.38,-159.82"/>
</g>
<!-- 2082701700576 -->
<g id="node83" class="node">
<title>2082701700576</title>
<ellipse fill="black" stroke="black" cx="320.41" cy="-603" rx="2.7" ry="2.7"/>
</g>
<!-- 2082701695296&#45;&#45;2082701700576 -->
<g id="edge81" class="edge">
<title>2082701695296&#45;&#45;2082701700576</title>
<path fill="none" stroke="black" d="M143.1,-568.86C192.87,-578.5 300.71,-599.38 317.26,-602.58"/>
</g>
<!-- 2082701695728 -->
<g id="node84" class="node">
<title>2082701695728</title>
<ellipse fill="none" stroke="black" cx="320.41" cy="-564" rx="87.18" ry="18"/>
<text text-anchor="middle" x="320.41" y="-558" font-family="Times New Roman,serif" font-size="15.00">phased application</text>
</g>
<!-- 2082701695296&#45;&#45;2082701695728 -->
<g id="edge82" class="edge">
<title>2082701695296&#45;&#45;2082701695728</title>
<path fill="none" stroke="black" d="M144.33,-564C166.94,-564 200.84,-564 232.8,-564"/>
</g>
<!-- 2082701696352 -->
<g id="node85" class="node">
<title>2082701696352</title>
<ellipse fill="none" stroke="black" cx="320.41" cy="-510" rx="45.21" ry="18"/>
<text text-anchor="middle" x="320.41" y="-504" font-family="Times New Roman,serif" font-size="15.00">xor loop</text>
</g>
<!-- 2082701695296&#45;&#45;2082701696352 -->
<g id="edge85" class="edge">
<title>2082701695296&#45;&#45;2082701696352</title>
<path fill="none" stroke="black" d="M142.29,-557.49C177.03,-548.17 241.19,-530.97 282.01,-520.03"/>
</g>
<!-- 2082701698752 -->
<g id="node88" class="node">
<title>2082701698752</title>
<ellipse fill="none" stroke="black" cx="320.41" cy="-456" rx="52.89" ry="18"/>
<text text-anchor="middle" x="320.41" y="-450" font-family="Times New Roman,serif" font-size="15.00">close case</text>
</g>
<!-- 2082701695296&#45;&#45;2082701698752 -->
<g id="edge86" class="edge">
<title>2082701695296&#45;&#45;2082701698752</title>
<path fill="none" stroke="black" d="M138.8,-552.85C175.08,-533.39 249.98,-493.23 291.01,-471.23"/>
</g>
<!-- 2082701698704 -->
<g id="node86" class="node">
<title>2082701698704</title>
<ellipse fill="none" stroke="black" cx="686.35" cy="-516" rx="189.54" ry="18"/>
<text text-anchor="middle" x="686.35" y="-510" font-family="Times New Roman,serif" font-size="15.00">registrer date of publishing received request</text>
</g>
<!-- 2082701696352&#45;&#45;2082701698704 -->
<g id="edge83" class="edge">
<title>2082701696352&#45;&#45;2082701698704</title>
<path fill="none" stroke="black" d="M366.03,-510.74C400.1,-511.3 449.53,-512.11 499.36,-512.93"/>
</g>
<!-- 2082701702016 -->
<g id="node87" class="node">
<title>2082701702016</title>
<ellipse fill="black" stroke="black" cx="686.35" cy="-477" rx="2.7" ry="2.7"/>
</g>
<!-- 2082701696352&#45;&#45;2082701702016 -->
<g id="edge84" class="edge">
<title>2082701696352&#45;&#45;2082701702016</title>
<path fill="none" stroke="black" d="M364.94,-506.05C456.26,-497.77 661.25,-479.19 683.4,-477.18"/>
</g>
</g>
</svg>
