<?xml version="1.0" encoding="UTF-8" standalone="no"?>
<!DOCTYPE svg PUBLIC "-//W3C//DTD SVG 1.1//EN"
 "http://www.w3.org/Graphics/SVG/1.1/DTD/svg11.dtd">
<!-- Generated by graphviz version 11.0.0 (20240428.1522)
 -->
<!-- Title: pt Pages: 1 -->
<svg width="4506pt" height="765pt"
 viewBox="0.00 0.00 4505.99 764.70" xmlns="http://www.w3.org/2000/svg" xmlns:xlink="http://www.w3.org/1999/xlink">
<g id="graph0" class="graph" transform="scale(1 1) rotate(0) translate(4 760.7)">
<title>pt</title>
<polygon fill="white" stroke="none" points="-4,4 -4,-760.7 4501.99,-760.7 4501.99,4 -4,4"/>
<!-- 2082704380304 -->
<g id="node1" class="node">
<title>2082704380304</title>
<ellipse fill="none" stroke="black" cx="27" cy="-339" rx="27" ry="18"/>
<text text-anchor="middle" x="27" y="-333" font-family="Times New Roman,serif" font-size="15.00">seq</text>
</g>
<!-- 2082704391440 -->
<g id="node2" class="node">
<title>2082704391440</title>
<ellipse fill="none" stroke="black" cx="117" cy="-405" rx="27" ry="18"/>
<text text-anchor="middle" x="117" y="-399" font-family="Times New Roman,serif" font-size="15.00">and</text>
</g>
<!-- 2082704380304&#45;&#45;2082704391440 -->
<g id="edge84" class="edge">
<title>2082704380304&#45;&#45;2082704391440</title>
<path fill="none" stroke="black" d="M45.81,-352.36C61.08,-363.81 82.96,-380.22 98.22,-391.66"/>
</g>
<!-- 2082704390096 -->
<g id="node86" class="node">
<title>2082704390096</title>
<ellipse fill="none" stroke="black" cx="117" cy="-300" rx="27" ry="18"/>
<text text-anchor="middle" x="117" y="-294" font-family="Times New Roman,serif" font-size="15.00">xor</text>
</g>
<!-- 2082704380304&#45;&#45;2082704390096 -->
<g id="edge92" class="edge">
<title>2082704380304&#45;&#45;2082704390096</title>
<path fill="none" stroke="black" d="M50.21,-329.16C63.55,-323.25 80.46,-315.75 93.8,-309.84"/>
</g>
<!-- 2082704383760 -->
<g id="node3" class="node">
<title>2082704383760</title>
<ellipse fill="none" stroke="black" cx="299.93" cy="-459" rx="119.93" ry="18"/>
<text text-anchor="middle" x="299.93" y="-453" font-family="Times New Roman,serif" font-size="15.00">phase application received</text>
</g>
<!-- 2082704391440&#45;&#45;2082704383760 -->
<g id="edge1" class="edge">
<title>2082704391440&#45;&#45;2082704383760</title>
<path fill="none" stroke="black" d="M142.03,-412.17C167.98,-419.92 210.2,-432.52 244.3,-442.7"/>
</g>
<!-- 2082704383472 -->
<g id="node4" class="node">
<title>2082704383472</title>
<ellipse fill="none" stroke="black" cx="299.93" cy="-405" rx="27" ry="18"/>
<text text-anchor="middle" x="299.93" y="-399" font-family="Times New Roman,serif" font-size="15.00">xor</text>
</g>
<!-- 2082704391440&#45;&#45;2082704383472 -->
<g id="edge83" class="edge">
<title>2082704391440&#45;&#45;2082704383472</title>
<path fill="none" stroke="black" d="M144.31,-405C178.61,-405 238.27,-405 272.59,-405"/>
</g>
<!-- 2082704380928 -->
<g id="node5" class="node">
<title>2082704380928</title>
<ellipse fill="none" stroke="black" cx="548.16" cy="-595" rx="27" ry="18"/>
<text text-anchor="middle" x="548.16" y="-589" font-family="Times New Roman,serif" font-size="15.00">seq</text>
</g>
<!-- 2082704383472&#45;&#45;2082704380928 -->
<g id="edge19" class="edge">
<title>2082704383472&#45;&#45;2082704380928</title>
<path fill="none" stroke="black" d="M318.25,-418.36C363.35,-453.16 484.09,-546.33 529.54,-581.4"/>
</g>
<!-- 2082704740848 -->
<g id="node23" class="node">
<title>2082704740848</title>
<ellipse fill="none" stroke="black" cx="548.16" cy="-366" rx="27" ry="18"/>
<text text-anchor="middle" x="548.16" y="-360" font-family="Times New Roman,serif" font-size="15.00">seq</text>
</g>
<!-- 2082704383472&#45;&#45;2082704740848 -->
<g id="edge82" class="edge">
<title>2082704383472&#45;&#45;2082704740848</title>
<path fill="none" stroke="black" d="M326.36,-400.97C373.54,-393.5 474.15,-377.56 521.51,-370.06"/>
</g>
<!-- 2082704377952 -->
<g id="node6" class="node">
<title>2082704377952</title>
<ellipse fill="none" stroke="black" cx="844.5" cy="-730" rx="27" ry="18"/>
<text text-anchor="middle" x="844.5" y="-724" font-family="Times New Roman,serif" font-size="15.00">xor</text>
</g>
<!-- 2082704380928&#45;&#45;2082704377952 -->
<g id="edge4" class="edge">
<title>2082704380928&#45;&#45;2082704377952</title>
<path fill="none" stroke="black" d="M570.81,-604.93C625.24,-629.89 767.36,-695.08 821.83,-720.06"/>
</g>
<!-- 2082704388416 -->
<g id="node9" class="node">
<title>2082704388416</title>
<ellipse fill="none" stroke="black" cx="844.5" cy="-676" rx="168.04" ry="18"/>
<text text-anchor="middle" x="844.5" y="-670" font-family="Times New Roman,serif" font-size="15.00">enter date termination request received</text>
</g>
<!-- 2082704380928&#45;&#45;2082704388416 -->
<g id="edge5" class="edge">
<title>2082704380928&#45;&#45;2082704388416</title>
<path fill="none" stroke="black" d="M573.75,-601.77C619,-614.22 716.73,-641.11 781.29,-658.88"/>
</g>
<!-- 2082704384576 -->
<g id="node10" class="node">
<title>2082704384576</title>
<ellipse fill="none" stroke="black" cx="844.5" cy="-622" rx="27" ry="18"/>
<text text-anchor="middle" x="844.5" y="-616" font-family="Times New Roman,serif" font-size="15.00">xor</text>
</g>
<!-- 2082704380928&#45;&#45;2082704384576 -->
<g id="edge12" class="edge">
<title>2082704380928&#45;&#45;2082704384576</title>
<path fill="none" stroke="black" d="M575.28,-597.4C631.14,-602.52 761.64,-614.49 817.44,-619.61"/>
</g>
<!-- 2082704378384 -->
<g id="node17" class="node">
<title>2082704378384</title>
<ellipse fill="none" stroke="black" cx="844.5" cy="-568" rx="27" ry="18"/>
<text text-anchor="middle" x="844.5" y="-562" font-family="Times New Roman,serif" font-size="15.00">and</text>
</g>
<!-- 2082704380928&#45;&#45;2082704378384 -->
<g id="edge15" class="edge">
<title>2082704380928&#45;&#45;2082704378384</title>
<path fill="none" stroke="black" d="M575.28,-592.6C631.14,-587.48 761.64,-575.51 817.44,-570.39"/>
</g>
<!-- 2082704738928 -->
<g id="node20" class="node">
<title>2082704738928</title>
<ellipse fill="none" stroke="black" cx="844.5" cy="-501" rx="27" ry="18"/>
<text text-anchor="middle" x="844.5" y="-495" font-family="Times New Roman,serif" font-size="15.00">and</text>
</g>
<!-- 2082704380928&#45;&#45;2082704738928 -->
<g id="edge18" class="edge">
<title>2082704380928&#45;&#45;2082704738928</title>
<path fill="none" stroke="black" d="M572.75,-587.47C627.87,-569.87 764.58,-526.21 819.8,-508.57"/>
</g>
<!-- 2082704736864 -->
<g id="node7" class="node">
<title>2082704736864</title>
<ellipse fill="black" stroke="black" cx="1198.17" cy="-754" rx="2.7" ry="2.7"/>
</g>
<!-- 2082704377952&#45;&#45;2082704736864 -->
<g id="edge2" class="edge">
<title>2082704377952&#45;&#45;2082704736864</title>
<path fill="none" stroke="black" d="M871.65,-731.78C948.69,-737.04 1170.96,-752.21 1195.04,-753.86"/>
</g>
<!-- 2082704742768 -->
<g id="node8" class="node">
<title>2082704742768</title>
<ellipse fill="none" stroke="black" cx="1198.17" cy="-715" rx="128.63" ry="18"/>
<text text-anchor="middle" x="1198.17" y="-709" font-family="Times New Roman,serif" font-size="15.00">initiative competent authority</text>
</g>
<!-- 2082704377952&#45;&#45;2082704742768 -->
<g id="edge3" class="edge">
<title>2082704377952&#45;&#45;2082704742768</title>
<path fill="none" stroke="black" d="M871.94,-728.87C914.58,-727.05 1001.2,-723.36 1074.32,-720.24"/>
</g>
<!-- 2082704740512 -->
<g id="node11" class="node">
<title>2082704740512</title>
<ellipse fill="black" stroke="black" cx="1198.17" cy="-675" rx="2.7" ry="2.7"/>
</g>
<!-- 2082704384576&#45;&#45;2082704740512 -->
<g id="edge6" class="edge">
<title>2082704384576&#45;&#45;2082704740512</title>
<path fill="none" stroke="black" d="M871.36,-625.9C948.13,-637.47 1170.9,-671.04 1195.04,-674.68"/>
</g>
<!-- 2082704737824 -->
<g id="node12" class="node">
<title>2082704737824</title>
<ellipse fill="none" stroke="black" cx="1198.17" cy="-636" rx="27" ry="18"/>
<text text-anchor="middle" x="1198.17" y="-630" font-family="Times New Roman,serif" font-size="15.00">seq</text>
</g>
<!-- 2082704384576&#45;&#45;2082704737824 -->
<g id="edge11" class="edge">
<title>2082704384576&#45;&#45;2082704737824</title>
<path fill="none" stroke="black" d="M871.94,-623.05C937.27,-625.65 1105.76,-632.36 1170.91,-634.95"/>
</g>
<!-- 2082703543568 -->
<g id="node13" class="node">
<title>2082703543568</title>
<ellipse fill="none" stroke="black" cx="1556.95" cy="-663" rx="173.16" ry="18"/>
<text text-anchor="middle" x="1556.95" y="-657" font-family="Times New Roman,serif" font-size="15.00">phase procedure prematurely terminated</text>
</g>
<!-- 2082704737824&#45;&#45;2082703543568 -->
<g id="edge7" class="edge">
<title>2082704737824&#45;&#45;2082703543568</title>
<path fill="none" stroke="black" d="M1225.4,-637.99C1265.39,-641.01 1344.43,-646.99 1415.19,-652.35"/>
</g>
<!-- 2082704013744 -->
<g id="node14" class="node">
<title>2082704013744</title>
<ellipse fill="none" stroke="black" cx="1556.95" cy="-609" rx="27" ry="18"/>
<text text-anchor="middle" x="1556.95" y="-603" font-family="Times New Roman,serif" font-size="15.00">xor</text>
</g>
<!-- 2082704737824&#45;&#45;2082704013744 -->
<g id="edge10" class="edge">
<title>2082704737824&#45;&#45;2082704013744</title>
<path fill="none" stroke="black" d="M1225.4,-634.01C1291.38,-629.02 1463.65,-615.98 1529.67,-610.99"/>
</g>
<!-- 2082704011632 -->
<g id="node15" class="node">
<title>2082704011632</title>
<ellipse fill="black" stroke="black" cx="1909.58" cy="-629" rx="2.7" ry="2.7"/>
</g>
<!-- 2082704013744&#45;&#45;2082704011632 -->
<g id="edge8" class="edge">
<title>2082704013744&#45;&#45;2082704011632</title>
<path fill="none" stroke="black" d="M1584.3,-610.5C1661.39,-614.9 1882.52,-627.51 1906.47,-628.88"/>
</g>
<!-- 2082704000688 -->
<g id="node16" class="node">
<title>2082704000688</title>
<ellipse fill="none" stroke="black" cx="1909.58" cy="-590" rx="143.48" ry="18"/>
<text text-anchor="middle" x="1909.58" y="-584" font-family="Times New Roman,serif" font-size="15.00">create message terminate request</text>
</g>
<!-- 2082704013744&#45;&#45;2082704000688 -->
<g id="edge9" class="edge">
<title>2082704013744&#45;&#45;2082704000688</title>
<path fill="none" stroke="black" d="M1584.3,-607.57C1625.07,-605.36 1706.14,-600.97 1777.02,-597.13"/>
</g>
<!-- 2082704736720 -->
<g id="node18" class="node">
<title>2082704736720</title>
<ellipse fill="none" stroke="black" cx="1198.17" cy="-582" rx="116.35" ry="18"/>
<text text-anchor="middle" x="1198.17" y="-576" font-family="Times New Roman,serif" font-size="15.00">message terminate request</text>
</g>
<!-- 2082704378384&#45;&#45;2082704736720 -->
<g id="edge13" class="edge">
<title>2082704378384&#45;&#45;2082704736720</title>
<path fill="none" stroke="black" d="M871.94,-569.05C916.66,-570.83 1009.73,-574.54 1084.9,-577.53"/>
</g>
<!-- 2082704736432 -->
<g id="node19" class="node">
<title>2082704736432</title>
<ellipse fill="none" stroke="black" cx="1198.17" cy="-528" rx="148.59" ry="18"/>
<text text-anchor="middle" x="1198.17" y="-522" font-family="Times New Roman,serif" font-size="15.00">enter senddate request termination</text>
</g>
<!-- 2082704378384&#45;&#45;2082704736432 -->
<g id="edge14" class="edge">
<title>2082704378384&#45;&#45;2082704736432</title>
<path fill="none" stroke="black" d="M871.36,-565.06C916.49,-559.93 1012.06,-549.05 1088.08,-540.41"/>
</g>
<!-- 2082704006400 -->
<g id="node21" class="node">
<title>2082704006400</title>
<ellipse fill="none" stroke="black" cx="1198.17" cy="-474" rx="78.99" ry="18"/>
<text text-anchor="middle" x="1198.17" y="-468" font-family="Times New Roman,serif" font-size="15.00">register deadline</text>
</g>
<!-- 2082704738928&#45;&#45;2082704006400 -->
<g id="edge16" class="edge">
<title>2082704738928&#45;&#45;2082704006400</title>
<path fill="none" stroke="black" d="M871.65,-498.99C924.18,-494.96 1044.22,-485.74 1122.92,-479.7"/>
</g>
<!-- 2082704013984 -->
<g id="node22" class="node">
<title>2082704013984</title>
<ellipse fill="none" stroke="black" cx="1198.17" cy="-420" rx="110.72" ry="18"/>
<text text-anchor="middle" x="1198.17" y="-414" font-family="Times New Roman,serif" font-size="15.00">phase procedure aborted</text>
</g>
<!-- 2082704738928&#45;&#45;2082704013984 -->
<g id="edge17" class="edge">
<title>2082704738928&#45;&#45;2082704013984</title>
<path fill="none" stroke="black" d="M870.51,-495.24C924.57,-482.79 1053.77,-453.03 1132.52,-434.89"/>
</g>
<!-- 2082704388800 -->
<g id="node24" class="node">
<title>2082704388800</title>
<ellipse fill="none" stroke="black" cx="844.5" cy="-447" rx="140.41" ry="18"/>
<text text-anchor="middle" x="844.5" y="-441" font-family="Times New Roman,serif" font-size="15.00">register submission date request</text>
</g>
<!-- 2082704740848&#45;&#45;2082704388800 -->
<g id="edge20" class="edge">
<title>2082704740848&#45;&#45;2082704388800</title>
<path fill="none" stroke="black" d="M573.75,-372.77C619.42,-385.33 718.53,-412.61 783.06,-430.37"/>
</g>
<!-- 2082704382608 -->
<g id="node25" class="node">
<title>2082704382608</title>
<ellipse fill="none" stroke="black" cx="844.5" cy="-393" rx="102.02" ry="18"/>
<text text-anchor="middle" x="844.5" y="-387" font-family="Times New Roman,serif" font-size="15.00">OLO messaging active</text>
</g>
<!-- 2082704740848&#45;&#45;2082704382608 -->
<g id="edge21" class="edge">
<title>2082704740848&#45;&#45;2082704382608</title>
<path fill="none" stroke="black" d="M575.28,-368.4C614.82,-372.02 691.75,-379.08 753.12,-384.71"/>
</g>
<!-- 2082704377760 -->
<g id="node26" class="node">
<title>2082704377760</title>
<ellipse fill="none" stroke="black" cx="844.5" cy="-339" rx="27" ry="18"/>
<text text-anchor="middle" x="844.5" y="-333" font-family="Times New Roman,serif" font-size="15.00">xor</text>
</g>
<!-- 2082704740848&#45;&#45;2082704377760 -->
<g id="edge57" class="edge">
<title>2082704740848&#45;&#45;2082704377760</title>
<path fill="none" stroke="black" d="M575.28,-363.6C631.14,-358.48 761.64,-346.51 817.44,-341.39"/>
</g>
<!-- 2082704376512 -->
<g id="node62" class="node">
<title>2082704376512</title>
<ellipse fill="none" stroke="black" cx="844.5" cy="-285" rx="27" ry="18"/>
<text text-anchor="middle" x="844.5" y="-279" font-family="Times New Roman,serif" font-size="15.00">and</text>
</g>
<!-- 2082704740848&#45;&#45;2082704376512 -->
<g id="edge80" class="edge">
<title>2082704740848&#45;&#45;2082704376512</title>
<path fill="none" stroke="black" d="M573.75,-359.23C629.3,-343.95 763.91,-306.9 819.19,-291.69"/>
</g>
<!-- 2082704015040 -->
<g id="node85" class="node">
<title>2082704015040</title>
<ellipse fill="none" stroke="black" cx="844.5" cy="-231" rx="143.48" ry="18"/>
<text text-anchor="middle" x="844.5" y="-225" font-family="Times New Roman,serif" font-size="15.00">enter senddate acknowledgement</text>
</g>
<!-- 2082704740848&#45;&#45;2082704015040 -->
<g id="edge81" class="edge">
<title>2082704740848&#45;&#45;2082704015040</title>
<path fill="none" stroke="black" d="M570.81,-356.07C620.26,-333.39 742.1,-277.51 804.82,-248.74"/>
</g>
<!-- 2082704011296 -->
<g id="node27" class="node">
<title>2082704011296</title>
<ellipse fill="black" stroke="black" cx="1198.17" cy="-378" rx="2.7" ry="2.7"/>
</g>
<!-- 2082704377760&#45;&#45;2082704011296 -->
<g id="edge22" class="edge">
<title>2082704377760&#45;&#45;2082704011296</title>
<path fill="none" stroke="black" d="M871.65,-341.9C948.69,-350.44 1170.96,-375.09 1195.04,-377.76"/>
</g>
<!-- 2082704014800 -->
<g id="node28" class="node">
<title>2082704014800</title>
<ellipse fill="none" stroke="black" cx="1198.17" cy="-339" rx="27" ry="18"/>
<text text-anchor="middle" x="1198.17" y="-333" font-family="Times New Roman,serif" font-size="15.00">seq</text>
</g>
<!-- 2082704377760&#45;&#45;2082704014800 -->
<g id="edge56" class="edge">
<title>2082704377760&#45;&#45;2082704014800</title>
<path fill="none" stroke="black" d="M871.94,-339C937.27,-339 1105.76,-339 1170.91,-339"/>
</g>
<!-- 2082704286224 -->
<g id="node29" class="node">
<title>2082704286224</title>
<ellipse fill="none" stroke="black" cx="1556.95" cy="-409" rx="27" ry="18"/>
<text text-anchor="middle" x="1556.95" y="-403" font-family="Times New Roman,serif" font-size="15.00">xor</text>
</g>
<!-- 2082704014800&#45;&#45;2082704286224 -->
<g id="edge52" class="edge">
<title>2082704014800&#45;&#45;2082704286224</title>
<path fill="none" stroke="black" d="M1224.54,-343.98C1290.29,-356.88 1465.6,-391.27 1530.94,-404.09"/>
</g>
<!-- 2082704013408 -->
<g id="node59" class="node">
<title>2082704013408</title>
<ellipse fill="none" stroke="black" cx="1556.95" cy="-339" rx="27" ry="18"/>
<text text-anchor="middle" x="1556.95" y="-333" font-family="Times New Roman,serif" font-size="15.00">xor</text>
</g>
<!-- 2082704014800&#45;&#45;2082704013408 -->
<g id="edge55" class="edge">
<title>2082704014800&#45;&#45;2082704013408</title>
<path fill="none" stroke="black" d="M1225.4,-339C1291.38,-339 1463.65,-339 1529.67,-339"/>
</g>
<!-- 2082704286944 -->
<g id="node30" class="node">
<title>2082704286944</title>
<ellipse fill="none" stroke="black" cx="1909.58" cy="-463" rx="92.3" ry="18"/>
<text text-anchor="middle" x="1909.58" y="-457" font-family="Times New Roman,serif" font-size="15.00">terminate on request</text>
</g>
<!-- 2082704286224&#45;&#45;2082704286944 -->
<g id="edge23" class="edge">
<title>2082704286224&#45;&#45;2082704286944</title>
<path fill="none" stroke="black" d="M1583.73,-412.97C1636.24,-421.06 1757.24,-439.69 1835.83,-451.8"/>
</g>
<!-- 2082704280656 -->
<g id="node31" class="node">
<title>2082704280656</title>
<ellipse fill="none" stroke="black" cx="1909.58" cy="-409" rx="27" ry="18"/>
<text text-anchor="middle" x="1909.58" y="-403" font-family="Times New Roman,serif" font-size="15.00">seq</text>
</g>
<!-- 2082704286224&#45;&#45;2082704280656 -->
<g id="edge51" class="edge">
<title>2082704286224&#45;&#45;2082704280656</title>
<path fill="none" stroke="black" d="M1584.3,-409C1649.44,-409 1817.44,-409 1882.4,-409"/>
</g>
<!-- 2082703627312 -->
<g id="node32" class="node">
<title>2082703627312</title>
<ellipse fill="none" stroke="black" cx="2213.6" cy="-534" rx="27" ry="18"/>
<text text-anchor="middle" x="2213.6" y="-528" font-family="Times New Roman,serif" font-size="15.00">xor</text>
</g>
<!-- 2082704280656&#45;&#45;2082703627312 -->
<g id="edge34" class="edge">
<title>2082704280656&#45;&#45;2082703627312</title>
<path fill="none" stroke="black" d="M1932.79,-418.19C1988.51,-441.25 2133.76,-501.37 2189.95,-524.63"/>
</g>
<!-- 2082703625296 -->
<g id="node43" class="node">
<title>2082703625296</title>
<ellipse fill="none" stroke="black" cx="2213.6" cy="-439" rx="27" ry="18"/>
<text text-anchor="middle" x="2213.6" y="-433" font-family="Times New Roman,serif" font-size="15.00">xor</text>
</g>
<!-- 2082704280656&#45;&#45;2082703625296 -->
<g id="edge47" class="edge">
<title>2082704280656&#45;&#45;2082703625296</title>
<path fill="none" stroke="black" d="M1936.6,-411.58C1993.69,-417.25 2129.41,-430.74 2186.55,-436.41"/>
</g>
<!-- 2082703635472 -->
<g id="node56" class="node">
<title>2082703635472</title>
<ellipse fill="none" stroke="black" cx="2213.6" cy="-385" rx="27" ry="18"/>
<text text-anchor="middle" x="2213.6" y="-379" font-family="Times New Roman,serif" font-size="15.00">xor</text>
</g>
<!-- 2082704280656&#45;&#45;2082703635472 -->
<g id="edge50" class="edge">
<title>2082704280656&#45;&#45;2082703635472</title>
<path fill="none" stroke="black" d="M1936.86,-406.91C1994.12,-402.36 2129.59,-391.6 2186.6,-387.07"/>
</g>
<!-- 2082703630240 -->
<g id="node33" class="node">
<title>2082703630240</title>
<ellipse fill="black" stroke="black" cx="2565.73" cy="-573" rx="2.7" ry="2.7"/>
</g>
<!-- 2082703627312&#45;&#45;2082703630240 -->
<g id="edge24" class="edge">
<title>2082703627312&#45;&#45;2082703630240</title>
<path fill="none" stroke="black" d="M2240.63,-536.9C2317.34,-545.44 2538.64,-570.09 2562.61,-572.76"/>
</g>
<!-- 2082703636816 -->
<g id="node34" class="node">
<title>2082703636816</title>
<ellipse fill="none" stroke="black" cx="2565.73" cy="-534" rx="27" ry="18"/>
<text text-anchor="middle" x="2565.73" y="-528" font-family="Times New Roman,serif" font-size="15.00">seq</text>
</g>
<!-- 2082703627312&#45;&#45;2082703636816 -->
<g id="edge33" class="edge">
<title>2082703627312&#45;&#45;2082703636816</title>
<path fill="none" stroke="black" d="M2240.92,-534C2305.96,-534 2473.72,-534 2538.58,-534"/>
</g>
<!-- 2082704459152 -->
<g id="node35" class="node">
<title>2082704459152</title>
<ellipse fill="none" stroke="black" cx="2917.85" cy="-574" rx="27" ry="18"/>
<text text-anchor="middle" x="2917.85" y="-568" font-family="Times New Roman,serif" font-size="15.00">xor</text>
</g>
<!-- 2082703636816&#45;&#45;2082704459152 -->
<g id="edge27" class="edge">
<title>2082703636816&#45;&#45;2082704459152</title>
<path fill="none" stroke="black" d="M2592.76,-536.97C2657.74,-544.4 2826.47,-563.67 2891.13,-571.06"/>
</g>
<!-- 2082704466592 -->
<g id="node38" class="node">
<title>2082704466592</title>
<ellipse fill="none" stroke="black" cx="2917.85" cy="-520" rx="27" ry="18"/>
<text text-anchor="middle" x="2917.85" y="-514" font-family="Times New Roman,serif" font-size="15.00">and</text>
</g>
<!-- 2082703636816&#45;&#45;2082704466592 -->
<g id="edge32" class="edge">
<title>2082703636816&#45;&#45;2082704466592</title>
<path fill="none" stroke="black" d="M2593.04,-532.95C2658.09,-530.35 2825.85,-523.64 2890.71,-521.05"/>
</g>
<!-- 2082704468608 -->
<g id="node36" class="node">
<title>2082704468608</title>
<ellipse fill="black" stroke="black" cx="3262.3" cy="-613" rx="2.7" ry="2.7"/>
</g>
<!-- 2082704459152&#45;&#45;2082704468608 -->
<g id="edge25" class="edge">
<title>2082704459152&#45;&#45;2082704468608</title>
<path fill="none" stroke="black" d="M2944.88,-576.96C3020.42,-585.57 3235.9,-610.11 3259.25,-612.77"/>
</g>
<!-- 2082704468032 -->
<g id="node37" class="node">
<title>2082704468032</title>
<ellipse fill="none" stroke="black" cx="3262.3" cy="-574" rx="170.6" ry="18"/>
<text text-anchor="middle" x="3262.3" y="-568" font-family="Times New Roman,serif" font-size="15.00">phase forwarded to competent authority</text>
</g>
<!-- 2082704459152&#45;&#45;2082704468032 -->
<g id="edge26" class="edge">
<title>2082704459152&#45;&#45;2082704468032</title>
<path fill="none" stroke="black" d="M2945.16,-574C2977.26,-574 3034.34,-574 3091.25,-574"/>
</g>
<!-- 2082704465296 -->
<g id="node39" class="node">
<title>2082704465296</title>
<ellipse fill="none" stroke="black" cx="3262.3" cy="-520" rx="27" ry="18"/>
<text text-anchor="middle" x="3262.3" y="-514" font-family="Times New Roman,serif" font-size="15.00">xor</text>
</g>
<!-- 2082704466592&#45;&#45;2082704465296 -->
<g id="edge30" class="edge">
<title>2082704466592&#45;&#45;2082704465296</title>
<path fill="none" stroke="black" d="M2945.16,-520C3008.9,-520 3171.08,-520 3234.91,-520"/>
</g>
<!-- 2082704465104 -->
<g id="node42" class="node">
<title>2082704465104</title>
<ellipse fill="none" stroke="black" cx="3262.3" cy="-466" rx="183.91" ry="18"/>
<text text-anchor="middle" x="3262.3" y="-460" font-family="Times New Roman,serif" font-size="15.00">enter senddate letter to competent authority</text>
</g>
<!-- 2082704466592&#45;&#45;2082704465104 -->
<g id="edge31" class="edge">
<title>2082704466592&#45;&#45;2082704465104</title>
<path fill="none" stroke="black" d="M2944.59,-515.94C2990.33,-508.73 3087.97,-493.33 3162.82,-481.53"/>
</g>
<!-- 2082704462944 -->
<g id="node40" class="node">
<title>2082704462944</title>
<ellipse fill="black" stroke="black" cx="3637.97" cy="-539" rx="2.7" ry="2.7"/>
</g>
<!-- 2082704465296&#45;&#45;2082704462944 -->
<g id="edge28" class="edge">
<title>2082704465296&#45;&#45;2082704462944</title>
<path fill="none" stroke="black" d="M3289.58,-521.34C3370.32,-525.44 3610.79,-537.67 3635,-538.9"/>
</g>
<!-- 2082704460496 -->
<g id="node41" class="node">
<title>2082704460496</title>
<ellipse fill="none" stroke="black" cx="3637.97" cy="-500" rx="155.76" ry="18"/>
<text text-anchor="middle" x="3637.97" y="-494" font-family="Times New Roman,serif" font-size="15.00">enter senddate letter to stakeholders</text>
</g>
<!-- 2082704465296&#45;&#45;2082704460496 -->
<g id="edge29" class="edge">
<title>2082704465296&#45;&#45;2082704460496</title>
<path fill="none" stroke="black" d="M3289.58,-518.59C3332.19,-516.31 3419.3,-511.65 3495.62,-507.57"/>
</g>
<!-- 2082703636144 -->
<g id="node44" class="node">
<title>2082703636144</title>
<ellipse fill="none" stroke="black" cx="2565.73" cy="-480" rx="191.59" ry="18"/>
<text text-anchor="middle" x="2565.73" y="-474" font-family="Times New Roman,serif" font-size="15.00">no permit needed or only notification needed</text>
</g>
<!-- 2082703625296&#45;&#45;2082703636144 -->
<g id="edge35" class="edge">
<title>2082703625296&#45;&#45;2082703636144</title>
<path fill="none" stroke="black" d="M2240.63,-442.05C2283.18,-447.03 2370.24,-457.22 2443.41,-465.79"/>
</g>
<!-- 2082703626544 -->
<g id="node45" class="node">
<title>2082703626544</title>
<ellipse fill="none" stroke="black" cx="2565.73" cy="-426" rx="27" ry="18"/>
<text text-anchor="middle" x="2565.73" y="-420" font-family="Times New Roman,serif" font-size="15.00">and</text>
</g>
<!-- 2082703625296&#45;&#45;2082703626544 -->
<g id="edge46" class="edge">
<title>2082703625296&#45;&#45;2082703626544</title>
<path fill="none" stroke="black" d="M2240.92,-438.02C2305.96,-435.61 2473.72,-429.38 2538.58,-426.97"/>
</g>
<!-- 2082704472976 -->
<g id="node46" class="node">
<title>2082704472976</title>
<ellipse fill="none" stroke="black" cx="2917.85" cy="-439" rx="103.56" ry="18"/>
<text text-anchor="middle" x="2917.85" y="-433" font-family="Times New Roman,serif" font-size="15.00">reception through OLO</text>
</g>
<!-- 2082703626544&#45;&#45;2082704472976 -->
<g id="edge36" class="edge">
<title>2082703626544&#45;&#45;2082704472976</title>
<path fill="none" stroke="black" d="M2593.04,-426.98C2639.8,-428.71 2739.63,-432.42 2816.16,-435.26"/>
</g>
<!-- 2082704460112 -->
<g id="node47" class="node">
<title>2082704460112</title>
<ellipse fill="none" stroke="black" cx="2917.85" cy="-385" rx="27" ry="18"/>
<text text-anchor="middle" x="2917.85" y="-379" font-family="Times New Roman,serif" font-size="15.00">seq</text>
</g>
<!-- 2082703626544&#45;&#45;2082704460112 -->
<g id="edge45" class="edge">
<title>2082703626544&#45;&#45;2082704460112</title>
<path fill="none" stroke="black" d="M2592.76,-422.95C2657.74,-415.34 2826.47,-395.58 2891.13,-388.01"/>
</g>
<!-- 2082704457856 -->
<g id="node48" class="node">
<title>2082704457856</title>
<ellipse fill="none" stroke="black" cx="3262.3" cy="-398" rx="166" ry="18"/>
<text text-anchor="middle" x="3262.3" y="-392" font-family="Times New Roman,serif" font-size="15.00">enter senddate procedure confirmation</text>
</g>
<!-- 2082704460112&#45;&#45;2082704457856 -->
<g id="edge37" class="edge">
<title>2082704460112&#45;&#45;2082704457856</title>
<path fill="none" stroke="black" d="M2945.16,-386C2979.85,-387.32 3043.69,-389.74 3104.97,-392.07"/>
</g>
<!-- 2082704465152 -->
<g id="node49" class="node">
<title>2082704465152</title>
<ellipse fill="none" stroke="black" cx="3262.3" cy="-344" rx="27" ry="18"/>
<text text-anchor="middle" x="3262.3" y="-338" font-family="Times New Roman,serif" font-size="15.00">xor</text>
</g>
<!-- 2082704460112&#45;&#45;2082704465152 -->
<g id="edge44" class="edge">
<title>2082704460112&#45;&#45;2082704465152</title>
<path fill="none" stroke="black" d="M2944.88,-381.88C3008.56,-374.26 3171.68,-354.73 3235.32,-347.11"/>
</g>
<!-- 2082704464240 -->
<g id="node50" class="node">
<title>2082704464240</title>
<ellipse fill="black" stroke="black" cx="3637.97" cy="-364" rx="2.7" ry="2.7"/>
</g>
<!-- 2082704465152&#45;&#45;2082704464240 -->
<g id="edge38" class="edge">
<title>2082704465152&#45;&#45;2082704464240</title>
<path fill="none" stroke="black" d="M3289.58,-345.41C3370.32,-349.73 3610.79,-362.6 3635,-363.89"/>
</g>
<!-- 2082704470720 -->
<g id="node51" class="node">
<title>2082704470720</title>
<ellipse fill="none" stroke="black" cx="3637.97" cy="-325" rx="45.21" ry="18"/>
<text text-anchor="middle" x="3637.97" y="-319" font-family="Times New Roman,serif" font-size="15.00">xor loop</text>
</g>
<!-- 2082704465152&#45;&#45;2082704470720 -->
<g id="edge43" class="edge">
<title>2082704465152&#45;&#45;2082704470720</title>
<path fill="none" stroke="black" d="M3289.58,-342.66C3352.87,-339.45 3514.34,-331.24 3592.82,-327.25"/>
</g>
<!-- 2082704460592 -->
<g id="node52" class="node">
<title>2082704460592</title>
<ellipse fill="none" stroke="black" cx="4019.27" cy="-352" rx="189.54" ry="18"/>
<text text-anchor="middle" x="4019.27" y="-346" font-family="Times New Roman,serif" font-size="15.00">registrer date of publishing received request</text>
</g>
<!-- 2082704470720&#45;&#45;2082704460592 -->
<g id="edge39" class="edge">
<title>2082704470720&#45;&#45;2082704460592</title>
<path fill="none" stroke="black" d="M3682.86,-328.12C3727.71,-331.32 3799.95,-336.46 3865.92,-341.15"/>
</g>
<!-- 2082704468368 -->
<g id="node53" class="node">
<title>2082704468368</title>
<ellipse fill="none" stroke="black" cx="4019.27" cy="-298" rx="27" ry="18"/>
<text text-anchor="middle" x="4019.27" y="-292" font-family="Times New Roman,serif" font-size="15.00">seq</text>
</g>
<!-- 2082704470720&#45;&#45;2082704468368 -->
<g id="edge42" class="edge">
<title>2082704470720&#45;&#45;2082704468368</title>
<path fill="none" stroke="black" d="M3682.86,-321.88C3762.42,-316.21 3928.17,-304.41 3992.23,-299.85"/>
</g>
<!-- 2082704468752 -->
<g id="node54" class="node">
<title>2082704468752</title>
<ellipse fill="none" stroke="black" cx="4371.4" cy="-325" rx="126.59" ry="18"/>
<text text-anchor="middle" x="4371.4" y="-319" font-family="Times New Roman,serif" font-size="15.00">send procedure confirmation</text>
</g>
<!-- 2082704468368&#45;&#45;2082704468752 -->
<g id="edge40" class="edge">
<title>2082704468368&#45;&#45;2082704468752</title>
<path fill="none" stroke="black" d="M4046.59,-300.03C4091.2,-303.47 4184.12,-310.63 4259.03,-316.41"/>
</g>
<!-- 2082704470384 -->
<g id="node55" class="node">
<title>2082704470384</title>
<ellipse fill="none" stroke="black" cx="4371.4" cy="-271" rx="63.63" ry="18"/>
<text text-anchor="middle" x="4371.4" y="-265" font-family="Times New Roman,serif" font-size="15.00">suspend term</text>
</g>
<!-- 2082704468368&#45;&#45;2082704470384 -->
<g id="edge41" class="edge">
<title>2082704468368&#45;&#45;2082704470384</title>
<path fill="none" stroke="black" d="M4046.59,-295.97C4102.01,-291.7 4232.01,-281.67 4309.38,-275.71"/>
</g>
<!-- 2082704469280 -->
<g id="node57" class="node">
<title>2082704469280</title>
<ellipse fill="black" stroke="black" cx="2565.73" cy="-387" rx="2.7" ry="2.7"/>
</g>
<!-- 2082703635472&#45;&#45;2082704469280 -->
<g id="edge48" class="edge">
<title>2082703635472&#45;&#45;2082704469280</title>
<path fill="none" stroke="black" d="M2240.92,-385.15C2317.89,-385.59 2538.7,-386.85 2562.62,-386.99"/>
</g>
<!-- 2082704462464 -->
<g id="node58" class="node">
<title>2082704462464</title>
<ellipse fill="none" stroke="black" cx="2565.73" cy="-348" rx="107.14" ry="18"/>
<text text-anchor="middle" x="2565.73" y="-342" font-family="Times New Roman,serif" font-size="15.00">applicant is stakeholder</text>
</g>
<!-- 2082703635472&#45;&#45;2082704462464 -->
<g id="edge49" class="edge">
<title>2082703635472&#45;&#45;2082704462464</title>
<path fill="none" stroke="black" d="M2240.63,-382.25C2289.29,-377.11 2396.12,-365.82 2473.86,-357.6"/>
</g>
<!-- 2082704286608 -->
<g id="node60" class="node">
<title>2082704286608</title>
<ellipse fill="black" stroke="black" cx="1909.58" cy="-363" rx="2.7" ry="2.7"/>
</g>
<!-- 2082704013408&#45;&#45;2082704286608 -->
<g id="edge53" class="edge">
<title>2082704013408&#45;&#45;2082704286608</title>
<path fill="none" stroke="black" d="M1584.3,-340.8C1661.39,-346.08 1882.52,-361.22 1906.47,-362.86"/>
</g>
<!-- 2082703628704 -->
<g id="node61" class="node">
<title>2082703628704</title>
<ellipse fill="none" stroke="black" cx="1909.58" cy="-324" rx="124.03" ry="18"/>
<text text-anchor="middle" x="1909.58" y="-318" font-family="Times New Roman,serif" font-size="15.00">treat subcases completeness</text>
</g>
<!-- 2082704013408&#45;&#45;2082703628704 -->
<g id="edge54" class="edge">
<title>2082704013408&#45;&#45;2082703628704</title>
<path fill="none" stroke="black" d="M1584.3,-337.87C1627.62,-336.02 1716.44,-332.22 1790.18,-329.07"/>
</g>
<!-- 2082704013024 -->
<g id="node63" class="node">
<title>2082704013024</title>
<ellipse fill="none" stroke="black" cx="1198.17" cy="-285" rx="149.62" ry="18"/>
<text text-anchor="middle" x="1198.17" y="-279" font-family="Times New Roman,serif" font-size="15.00">forward to the competent authority</text>
</g>
<!-- 2082704376512&#45;&#45;2082704013024 -->
<g id="edge58" class="edge">
<title>2082704376512&#45;&#45;2082704013024</title>
<path fill="none" stroke="black" d="M871.94,-285C909.63,-285 981.68,-285 1048.4,-285"/>
</g>
<!-- 2082704012736 -->
<g id="node64" class="node">
<title>2082704012736</title>
<ellipse fill="none" stroke="black" cx="1198.17" cy="-221" rx="45.21" ry="18"/>
<text text-anchor="middle" x="1198.17" y="-215" font-family="Times New Roman,serif" font-size="15.00">xor loop</text>
</g>
<!-- 2082704376512&#45;&#45;2082704012736 -->
<g id="edge79" class="edge">
<title>2082704376512&#45;&#45;2082704012736</title>
<path fill="none" stroke="black" d="M871.08,-280.35C931.45,-269.36 1083.26,-241.73 1156.45,-228.41"/>
</g>
<!-- 2082703623520 -->
<g id="node65" class="node">
<title>2082703623520</title>
<ellipse fill="none" stroke="black" cx="1556.95" cy="-221" rx="27" ry="18"/>
<text text-anchor="middle" x="1556.95" y="-215" font-family="Times New Roman,serif" font-size="15.00">seq</text>
</g>
<!-- 2082704012736&#45;&#45;2082703623520 -->
<g id="edge77" class="edge">
<title>2082704012736&#45;&#45;2082703623520</title>
<path fill="none" stroke="black" d="M1243.63,-221C1318.91,-221 1469.18,-221 1529.74,-221"/>
</g>
<!-- 2082704014992 -->
<g id="node84" class="node">
<title>2082704014992</title>
<ellipse fill="black" stroke="black" cx="1556.95" cy="-182" rx="2.7" ry="2.7"/>
</g>
<!-- 2082704012736&#45;&#45;2082704014992 -->
<g id="edge78" class="edge">
<title>2082704012736&#45;&#45;2082704014992</title>
<path fill="none" stroke="black" d="M1242.2,-216.3C1331.53,-206.53 1530.72,-184.76 1553.76,-182.24"/>
</g>
<!-- 2082704462848 -->
<g id="node66" class="node">
<title>2082704462848</title>
<ellipse fill="none" stroke="black" cx="1909.58" cy="-266" rx="27" ry="18"/>
<text text-anchor="middle" x="1909.58" y="-260" font-family="Times New Roman,serif" font-size="15.00">xor</text>
</g>
<!-- 2082703623520&#45;&#45;2082704462848 -->
<g id="edge64" class="edge">
<title>2082703623520&#45;&#45;2082704462848</title>
<path fill="none" stroke="black" d="M1583.73,-224.31C1648.57,-232.63 1817.88,-254.36 1882.76,-262.69"/>
</g>
<!-- 2082704463568 -->
<g id="node72" class="node">
<title>2082704463568</title>
<ellipse fill="none" stroke="black" cx="1909.58" cy="-212" rx="27" ry="18"/>
<text text-anchor="middle" x="1909.58" y="-206" font-family="Times New Roman,serif" font-size="15.00">xor</text>
</g>
<!-- 2082703623520&#45;&#45;2082704463568 -->
<g id="edge67" class="edge">
<title>2082703623520&#45;&#45;2082704463568</title>
<path fill="none" stroke="black" d="M1584.3,-220.32C1649.44,-218.65 1817.44,-214.34 1882.4,-212.67"/>
</g>
<!-- 2082704462176 -->
<g id="node75" class="node">
<title>2082704462176</title>
<ellipse fill="none" stroke="black" cx="1909.58" cy="-119" rx="27" ry="18"/>
<text text-anchor="middle" x="1909.58" y="-113" font-family="Times New Roman,serif" font-size="15.00">xor</text>
</g>
<!-- 2082703623520&#45;&#45;2082704462176 -->
<g id="edge76" class="edge">
<title>2082703623520&#45;&#45;2082704462176</title>
<path fill="none" stroke="black" d="M1582.32,-213.91C1646.62,-195.2 1820.25,-144.7 1884.37,-126.04"/>
</g>
<!-- 2082704463520 -->
<g id="node67" class="node">
<title>2082704463520</title>
<ellipse fill="black" stroke="black" cx="2213.6" cy="-305" rx="2.7" ry="2.7"/>
</g>
<!-- 2082704462848&#45;&#45;2082704463520 -->
<g id="edge59" class="edge">
<title>2082704462848&#45;&#45;2082704463520</title>
<path fill="none" stroke="black" d="M1936.6,-269.36C2005.85,-278.3 2190.81,-302.19 2210.84,-304.77"/>
</g>
<!-- 2082704465488 -->
<g id="node68" class="node">
<title>2082704465488</title>
<ellipse fill="none" stroke="black" cx="2213.6" cy="-266" rx="27" ry="18"/>
<text text-anchor="middle" x="2213.6" y="-260" font-family="Times New Roman,serif" font-size="15.00">seq</text>
</g>
<!-- 2082704462848&#45;&#45;2082704465488 -->
<g id="edge63" class="edge">
<title>2082704462848&#45;&#45;2082704465488</title>
<path fill="none" stroke="black" d="M1936.86,-266C1993.98,-266 2128.92,-266 2186.17,-266"/>
</g>
<!-- 2082704464912 -->
<g id="node69" class="node">
<title>2082704464912</title>
<ellipse fill="none" stroke="black" cx="2565.73" cy="-294" rx="139.89" ry="18"/>
<text text-anchor="middle" x="2565.73" y="-288" font-family="Times New Roman,serif" font-size="15.00">regular procedure without MER</text>
</g>
<!-- 2082704465488&#45;&#45;2082704464912 -->
<g id="edge60" class="edge">
<title>2082704465488&#45;&#45;2082704464912</title>
<path fill="none" stroke="black" d="M2240.92,-268.1C2284.02,-271.55 2372.21,-278.6 2445.68,-284.48"/>
</g>
<!-- 2082704460544 -->
<g id="node70" class="node">
<title>2082704460544</title>
<ellipse fill="none" stroke="black" cx="2565.73" cy="-240" rx="132.73" ry="18"/>
<text text-anchor="middle" x="2565.73" y="-234" font-family="Times New Roman,serif" font-size="15.00">create procedure confirmation</text>
</g>
<!-- 2082704465488&#45;&#45;2082704460544 -->
<g id="edge61" class="edge">
<title>2082704465488&#45;&#45;2082704460544</title>
<path fill="none" stroke="black" d="M2240.92,-264.05C2284.49,-260.81 2374.17,-254.15 2448.12,-248.66"/>
</g>
<!-- 2082704472928 -->
<g id="node71" class="node">
<title>2082704472928</title>
<ellipse fill="none" stroke="black" cx="2565.73" cy="-186" rx="40.6" ry="18"/>
<text text-anchor="middle" x="2565.73" y="-180" font-family="Times New Roman,serif" font-size="15.00">publish</text>
</g>
<!-- 2082704465488&#45;&#45;2082704472928 -->
<g id="edge62" class="edge">
<title>2082704465488&#45;&#45;2082704472928</title>
<path fill="none" stroke="black" d="M2239.5,-260.31C2300.59,-246.35 2458.04,-210.38 2529.06,-194.15"/>
</g>
<!-- 2082704462560 -->
<g id="node73" class="node">
<title>2082704462560</title>
<ellipse fill="none" stroke="black" cx="2213.6" cy="-212" rx="124.54" ry="18"/>
<text text-anchor="middle" x="2213.6" y="-206" font-family="Times New Roman,serif" font-size="15.00">create publication document</text>
</g>
<!-- 2082704463568&#45;&#45;2082704462560 -->
<g id="edge65" class="edge">
<title>2082704463568&#45;&#45;2082704462560</title>
<path fill="none" stroke="black" d="M1936.86,-212C1970.87,-212 2032.48,-212 2088.85,-212"/>
</g>
<!-- 2082704473072 -->
<g id="node74" class="node">
<title>2082704473072</title>
<ellipse fill="none" stroke="black" cx="2213.6" cy="-158" rx="113.79" ry="18"/>
<text text-anchor="middle" x="2213.6" y="-152" font-family="Times New Roman,serif" font-size="15.00">send confirmation receipt</text>
</g>
<!-- 2082704463568&#45;&#45;2082704473072 -->
<g id="edge66" class="edge">
<title>2082704463568&#45;&#45;2082704473072</title>
<path fill="none" stroke="black" d="M1936.07,-207.44C1979.8,-199.62 2070.75,-183.36 2136.43,-171.62"/>
</g>
<!-- 2082704473648 -->
<g id="node76" class="node">
<title>2082704473648</title>
<ellipse fill="black" stroke="black" cx="2213.6" cy="-119" rx="2.7" ry="2.7"/>
</g>
<!-- 2082704462176&#45;&#45;2082704473648 -->
<g id="edge68" class="edge">
<title>2082704462176&#45;&#45;2082704473648</title>
<path fill="none" stroke="black" d="M1936.86,-119C2006.32,-119 2190.86,-119 2210.84,-119"/>
</g>
<!-- 2082704462800 -->
<g id="node77" class="node">
<title>2082704462800</title>
<ellipse fill="none" stroke="black" cx="2213.6" cy="-80" rx="27" ry="18"/>
<text text-anchor="middle" x="2213.6" y="-74" font-family="Times New Roman,serif" font-size="15.00">and</text>
</g>
<!-- 2082704462176&#45;&#45;2082704462800 -->
<g id="edge75" class="edge">
<title>2082704462176&#45;&#45;2082704462800</title>
<path fill="none" stroke="black" d="M1936.6,-115.64C1993.83,-108.25 2130.1,-90.65 2186.97,-83.31"/>
</g>
<!-- 2082704474032 -->
<g id="node78" class="node">
<title>2082704474032</title>
<ellipse fill="none" stroke="black" cx="2565.73" cy="-107" rx="27" ry="18"/>
<text text-anchor="middle" x="2565.73" y="-101" font-family="Times New Roman,serif" font-size="15.00">xor</text>
</g>
<!-- 2082704462800&#45;&#45;2082704474032 -->
<g id="edge71" class="edge">
<title>2082704462800&#45;&#45;2082704474032</title>
<path fill="none" stroke="black" d="M2240.92,-82.03C2305.96,-87.05 2473.72,-99.98 2538.58,-104.98"/>
</g>
<!-- 2082704471104 -->
<g id="node81" class="node">
<title>2082704471104</title>
<ellipse fill="none" stroke="black" cx="2565.73" cy="-53" rx="27" ry="18"/>
<text text-anchor="middle" x="2565.73" y="-47" font-family="Times New Roman,serif" font-size="15.00">xor</text>
</g>
<!-- 2082704462800&#45;&#45;2082704471104 -->
<g id="edge74" class="edge">
<title>2082704462800&#45;&#45;2082704471104</title>
<path fill="none" stroke="black" d="M2240.92,-77.97C2305.96,-72.95 2473.72,-60.02 2538.58,-55.02"/>
</g>
<!-- 2082704461888 -->
<g id="node79" class="node">
<title>2082704461888</title>
<ellipse fill="black" stroke="black" cx="2917.85" cy="-142" rx="2.7" ry="2.7"/>
</g>
<!-- 2082704474032&#45;&#45;2082704461888 -->
<g id="edge69" class="edge">
<title>2082704474032&#45;&#45;2082704461888</title>
<path fill="none" stroke="black" d="M2592.76,-109.6C2669.46,-117.27 2890.77,-139.39 2914.74,-141.79"/>
</g>
<!-- 2082704459488 -->
<g id="node80" class="node">
<title>2082704459488</title>
<ellipse fill="none" stroke="black" cx="2917.85" cy="-103" rx="124.54" ry="18"/>
<text text-anchor="middle" x="2917.85" y="-97" font-family="Times New Roman,serif" font-size="15.00">registration date publication</text>
</g>
<!-- 2082704474032&#45;&#45;2082704459488 -->
<g id="edge70" class="edge">
<title>2082704474032&#45;&#45;2082704459488</title>
<path fill="none" stroke="black" d="M2593.04,-106.7C2635.27,-106.22 2720.77,-105.24 2793.32,-104.41"/>
</g>
<!-- 2082704470096 -->
<g id="node82" class="node">
<title>2082704470096</title>
<ellipse fill="black" stroke="black" cx="2917.85" cy="-57" rx="2.7" ry="2.7"/>
</g>
<!-- 2082704471104&#45;&#45;2082704470096 -->
<g id="edge72" class="edge">
<title>2082704471104&#45;&#45;2082704470096</title>
<path fill="none" stroke="black" d="M2593.04,-53.3C2670.02,-54.18 2890.83,-56.7 2914.75,-56.98"/>
</g>
<!-- 2082704463232 -->
<g id="node83" class="node">
<title>2082704463232</title>
<ellipse fill="none" stroke="black" cx="2917.85" cy="-18" rx="102.02" ry="18"/>
<text text-anchor="middle" x="2917.85" y="-12" font-family="Times New Roman,serif" font-size="15.00">start WABOprocedure</text>
</g>
<!-- 2082704471104&#45;&#45;2082704463232 -->
<g id="edge73" class="edge">
<title>2082704471104&#45;&#45;2082704463232</title>
<path fill="none" stroke="black" d="M2592.76,-50.4C2641.89,-45.49 2750.34,-34.65 2828.26,-26.86"/>
</g>
<!-- 2082704389424 -->
<g id="node87" class="node">
<title>2082704389424</title>
<ellipse fill="black" stroke="black" cx="299.93" cy="-366" rx="2.7" ry="2.7"/>
</g>
<!-- 2082704390096&#45;&#45;2082704389424 -->
<g id="edge85" class="edge">
<title>2082704390096&#45;&#45;2082704389424</title>
<path fill="none" stroke="black" d="M141.28,-308.49C186.33,-324.93 282.3,-359.93 297.02,-365.3"/>
</g>
<!-- 2082704379632 -->
<g id="node88" class="node">
<title>2082704379632</title>
<ellipse fill="none" stroke="black" cx="299.93" cy="-327" rx="87.18" ry="18"/>
<text text-anchor="middle" x="299.93" y="-321" font-family="Times New Roman,serif" font-size="15.00">phased application</text>
</g>
<!-- 2082704390096&#45;&#45;2082704379632 -->
<g id="edge86" class="edge">
<title>2082704390096&#45;&#45;2082704379632</title>
<path fill="none" stroke="black" d="M143.54,-303.81C165.55,-307.1 198.41,-312 228.25,-316.45"/>
</g>
<!-- 2082704752608 -->
<g id="node89" class="node">
<title>2082704752608</title>
<ellipse fill="none" stroke="black" cx="299.93" cy="-273" rx="117.89" ry="18"/>
<text text-anchor="middle" x="299.93" y="-267" font-family="Times New Roman,serif" font-size="15.00">read publication date field</text>
</g>
<!-- 2082704390096&#45;&#45;2082704752608 -->
<g id="edge87" class="edge">
<title>2082704390096&#45;&#45;2082704752608</title>
<path fill="none" stroke="black" d="M143.54,-296.19C162.15,-293.41 188.49,-289.48 214.22,-285.64"/>
</g>
<!-- 2082704751840 -->
<g id="node90" class="node">
<title>2082704751840</title>
<ellipse fill="none" stroke="black" cx="299.93" cy="-219" rx="27" ry="18"/>
<text text-anchor="middle" x="299.93" y="-213" font-family="Times New Roman,serif" font-size="15.00">seq</text>
</g>
<!-- 2082704390096&#45;&#45;2082704751840 -->
<g id="edge90" class="edge">
<title>2082704390096&#45;&#45;2082704751840</title>
<path fill="none" stroke="black" d="M140.19,-290.07C175.01,-274.48 242.09,-244.45 276.85,-228.89"/>
</g>
<!-- 2082704378720 -->
<g id="node93" class="node">
<title>2082704378720</title>
<ellipse fill="none" stroke="black" cx="299.93" cy="-165" rx="52.89" ry="18"/>
<text text-anchor="middle" x="299.93" y="-159" font-family="Times New Roman,serif" font-size="15.00">close case</text>
</g>
<!-- 2082704390096&#45;&#45;2082704378720 -->
<g id="edge91" class="edge">
<title>2082704390096&#45;&#45;2082704378720</title>
<path fill="none" stroke="black" d="M135.68,-286.81C168.85,-262.06 240.33,-208.72 276.7,-181.59"/>
</g>
<!-- 2082704009280 -->
<g id="node91" class="node">
<title>2082704009280</title>
<ellipse fill="none" stroke="black" cx="548.16" cy="-246" rx="92.3" ry="18"/>
<text text-anchor="middle" x="548.16" y="-240" font-family="Times New Roman,serif" font-size="15.00">phase archived case</text>
</g>
<!-- 2082704751840&#45;&#45;2082704009280 -->
<g id="edge88" class="edge">
<title>2082704751840&#45;&#45;2082704009280</title>
<path fill="none" stroke="black" d="M326.82,-221.84C359.79,-225.45 418.29,-231.87 466.73,-237.18"/>
</g>
<!-- 2082704278928 -->
<g id="node92" class="node">
<title>2082704278928</title>
<ellipse fill="none" stroke="black" cx="548.16" cy="-192" rx="88.71" ry="18"/>
<text text-anchor="middle" x="548.16" y="-186" font-family="Times New Roman,serif" font-size="15.00">phase case handled</text>
</g>
<!-- 2082704751840&#45;&#45;2082704278928 -->
<g id="edge89" class="edge">
<title>2082704751840&#45;&#45;2082704278928</title>
<path fill="none" stroke="black" d="M326.82,-216.16C360.34,-212.49 420.27,-205.91 469.17,-200.55"/>
</g>
</g>
</svg>
