<?xml version="1.0" encoding="UTF-8" standalone="no"?>
<!DOCTYPE svg PUBLIC "-//W3C//DTD SVG 1.1//EN"
 "http://www.w3.org/Graphics/SVG/1.1/DTD/svg11.dtd">
<!-- Generated by graphviz version 11.0.0 (20240428.1522)
 -->
<!-- Title: pt Pages: 1 -->
<svg width="3996pt" height="835pt"
 viewBox="0.00 0.00 3995.91 835.00" xmlns="http://www.w3.org/2000/svg" xmlns:xlink="http://www.w3.org/1999/xlink">
<g id="graph0" class="graph" transform="scale(1 1) rotate(0) translate(4 831)">
<title>pt</title>
<polygon fill="white" stroke="none" points="-4,4 -4,-831 3991.91,-831 3991.91,4 -4,4"/>
<!-- 2082702294384 -->
<g id="node1" class="node">
<title>2082702294384</title>
<ellipse fill="none" stroke="black" cx="27" cy="-681" rx="27" ry="18"/>
<text text-anchor="middle" x="27" y="-675" font-family="Times New Roman,serif" font-size="15.00">seq</text>
</g>
<!-- 2082702292128 -->
<g id="node2" class="node">
<title>2082702292128</title>
<ellipse fill="none" stroke="black" cx="117" cy="-735" rx="27" ry="18"/>
<text text-anchor="middle" x="117" y="-729" font-family="Times New Roman,serif" font-size="15.00">xor</text>
</g>
<!-- 2082702294384&#45;&#45;2082702292128 -->
<g id="edge60" class="edge">
<title>2082702294384&#45;&#45;2082702292128</title>
<path fill="none" stroke="black" d="M47.53,-692.98C62.11,-701.93 81.95,-714.11 96.52,-723.05"/>
</g>
<!-- 2082702284064 -->
<g id="node62" class="node">
<title>2082702284064</title>
<ellipse fill="none" stroke="black" cx="117" cy="-654" rx="27" ry="18"/>
<text text-anchor="middle" x="117" y="-648" font-family="Times New Roman,serif" font-size="15.00">xor</text>
</g>
<!-- 2082702294384&#45;&#45;2082702284064 -->
<g id="edge66" class="edge">
<title>2082702294384&#45;&#45;2082702284064</title>
<path fill="none" stroke="black" d="M52.05,-673.62C64.46,-669.81 79.57,-665.18 91.98,-661.37"/>
</g>
<!-- 2082702287136 -->
<g id="node3" class="node">
<title>2082702287136</title>
<ellipse fill="black" stroke="black" cx="267.18" cy="-774" rx="2.7" ry="2.7"/>
</g>
<!-- 2082702292128&#45;&#45;2082702287136 -->
<g id="edge1" class="edge">
<title>2082702292128&#45;&#45;2082702287136</title>
<path fill="none" stroke="black" d="M142.47,-741.44C180.61,-751.48 251.22,-770.06 264.13,-773.46"/>
</g>
<!-- 2082702281712 -->
<g id="node4" class="node">
<title>2082702281712</title>
<ellipse fill="none" stroke="black" cx="267.18" cy="-735" rx="27" ry="18"/>
<text text-anchor="middle" x="267.18" y="-729" font-family="Times New Roman,serif" font-size="15.00">and</text>
</g>
<!-- 2082702292128&#45;&#45;2082702281712 -->
<g id="edge59" class="edge">
<title>2082702292128&#45;&#45;2082702281712</title>
<path fill="none" stroke="black" d="M144.49,-735C171.46,-735 213.03,-735 239.92,-735"/>
</g>
<!-- 2082702282720 -->
<g id="node5" class="node">
<title>2082702282720</title>
<ellipse fill="none" stroke="black" cx="579.9" cy="-775" rx="119.93" ry="18"/>
<text text-anchor="middle" x="579.9" y="-769" font-family="Times New Roman,serif" font-size="15.00">phase application received</text>
</g>
<!-- 2082702281712&#45;&#45;2082702282720 -->
<g id="edge2" class="edge">
<title>2082702281712&#45;&#45;2082702282720</title>
<path fill="none" stroke="black" d="M294.14,-738.34C336.14,-743.75 420.99,-754.67 487.19,-763.19"/>
</g>
<!-- 2082702287376 -->
<g id="node6" class="node">
<title>2082702287376</title>
<ellipse fill="none" stroke="black" cx="579.9" cy="-721" rx="27" ry="18"/>
<text text-anchor="middle" x="579.9" y="-715" font-family="Times New Roman,serif" font-size="15.00">xor</text>
</g>
<!-- 2082702281712&#45;&#45;2082702287376 -->
<g id="edge58" class="edge">
<title>2082702281712&#45;&#45;2082702287376</title>
<path fill="none" stroke="black" d="M294.4,-733.82C353.07,-731.17 494.35,-724.81 552.85,-722.17"/>
</g>
<!-- 2082702287328 -->
<g id="node7" class="node">
<title>2082702287328</title>
<ellipse fill="black" stroke="black" cx="832.44" cy="-740" rx="2.7" ry="2.7"/>
</g>
<!-- 2082702287376&#45;&#45;2082702287328 -->
<g id="edge3" class="edge">
<title>2082702287376&#45;&#45;2082702287328</title>
<path fill="none" stroke="black" d="M607.23,-723C667.29,-727.55 810.62,-738.42 829.39,-739.85"/>
</g>
<!-- 2082702279120 -->
<g id="node8" class="node">
<title>2082702279120</title>
<ellipse fill="none" stroke="black" cx="832.44" cy="-701" rx="27" ry="18"/>
<text text-anchor="middle" x="832.44" y="-695" font-family="Times New Roman,serif" font-size="15.00">and</text>
</g>
<!-- 2082702287376&#45;&#45;2082702279120 -->
<g id="edge57" class="edge">
<title>2082702287376&#45;&#45;2082702279120</title>
<path fill="none" stroke="black" d="M606.76,-718.93C654.77,-715.1 757.15,-706.93 805.33,-703.08"/>
</g>
<!-- 2082702288384 -->
<g id="node9" class="node">
<title>2082702288384</title>
<ellipse fill="none" stroke="black" cx="1035.84" cy="-728" rx="140.41" ry="18"/>
<text text-anchor="middle" x="1035.84" y="-722" font-family="Times New Roman,serif" font-size="15.00">register submission date request</text>
</g>
<!-- 2082702279120&#45;&#45;2082702288384 -->
<g id="edge4" class="edge">
<title>2082702279120&#45;&#45;2082702288384</title>
<path fill="none" stroke="black" d="M859.35,-704.47C879.33,-707.15 908.29,-711.04 936.95,-714.88"/>
</g>
<!-- 2082702288144 -->
<g id="node10" class="node">
<title>2082702288144</title>
<ellipse fill="none" stroke="black" cx="1035.84" cy="-674" rx="27" ry="18"/>
<text text-anchor="middle" x="1035.84" y="-668" font-family="Times New Roman,serif" font-size="15.00">seq</text>
</g>
<!-- 2082702279120&#45;&#45;2082702288144 -->
<g id="edge56" class="edge">
<title>2082702279120&#45;&#45;2082702288144</title>
<path fill="none" stroke="black" d="M859.35,-697.53C898.03,-692.34 970.41,-682.64 1009.02,-677.46"/>
</g>
<!-- 2082702378480 -->
<g id="node11" class="node">
<title>2082702378480</title>
<ellipse fill="none" stroke="black" cx="1314.27" cy="-701" rx="102.02" ry="18"/>
<text text-anchor="middle" x="1314.27" y="-695" font-family="Times New Roman,serif" font-size="15.00">OLO messaging active</text>
</g>
<!-- 2082702288144&#45;&#45;2082702378480 -->
<g id="edge5" class="edge">
<title>2082702288144&#45;&#45;2082702378480</title>
<path fill="none" stroke="black" d="M1062.85,-676.54C1099.47,-680.12 1168.05,-686.82 1224.19,-692.3"/>
</g>
<!-- 2082702380736 -->
<g id="node12" class="node">
<title>2082702380736</title>
<ellipse fill="none" stroke="black" cx="1314.27" cy="-647" rx="27" ry="18"/>
<text text-anchor="middle" x="1314.27" y="-641" font-family="Times New Roman,serif" font-size="15.00">xor</text>
</g>
<!-- 2082702288144&#45;&#45;2082702380736 -->
<g id="edge55" class="edge">
<title>2082702288144&#45;&#45;2082702380736</title>
<path fill="none" stroke="black" d="M1062.85,-671.46C1115.53,-666.31 1234.33,-654.71 1287.13,-649.55"/>
</g>
<!-- 2082702379344 -->
<g id="node13" class="node">
<title>2082702379344</title>
<ellipse fill="none" stroke="black" cx="1479.29" cy="-701" rx="27" ry="18"/>
<text text-anchor="middle" x="1479.29" y="-695" font-family="Times New Roman,serif" font-size="15.00">seq</text>
</g>
<!-- 2082702380736&#45;&#45;2082702379344 -->
<g id="edge12" class="edge">
<title>2082702380736&#45;&#45;2082702379344</title>
<path fill="none" stroke="black" d="M1338.97,-654.85C1369.88,-665.09 1423.63,-682.9 1454.55,-693.14"/>
</g>
<!-- 2082702388704 -->
<g id="node20" class="node">
<title>2082702388704</title>
<ellipse fill="none" stroke="black" cx="1479.29" cy="-620" rx="27" ry="18"/>
<text text-anchor="middle" x="1479.29" y="-614" font-family="Times New Roman,serif" font-size="15.00">and</text>
</g>
<!-- 2082702380736&#45;&#45;2082702388704 -->
<g id="edge54" class="edge">
<title>2082702380736&#45;&#45;2082702388704</title>
<path fill="none" stroke="black" d="M1340.74,-642.78C1371.28,-637.72 1422.15,-629.3 1452.73,-624.23"/>
</g>
<!-- 2082702377856 -->
<g id="node14" class="node">
<title>2082702377856</title>
<ellipse fill="none" stroke="black" cx="1691.91" cy="-755" rx="27" ry="18"/>
<text text-anchor="middle" x="1691.91" y="-749" font-family="Times New Roman,serif" font-size="15.00">and</text>
</g>
<!-- 2082702379344&#45;&#45;2082702377856 -->
<g id="edge8" class="edge">
<title>2082702379344&#45;&#45;2082702377856</title>
<path fill="none" stroke="black" d="M1504.86,-707.3C1545.34,-717.68 1625.58,-738.25 1666.16,-748.66"/>
</g>
<!-- 2082702378576 -->
<g id="node17" class="node">
<title>2082702378576</title>
<ellipse fill="none" stroke="black" cx="1691.91" cy="-701" rx="27" ry="18"/>
<text text-anchor="middle" x="1691.91" y="-695" font-family="Times New Roman,serif" font-size="15.00">and</text>
</g>
<!-- 2082702379344&#45;&#45;2082702378576 -->
<g id="edge11" class="edge">
<title>2082702379344&#45;&#45;2082702378576</title>
<path fill="none" stroke="black" d="M1506.54,-701C1547.01,-701 1624.19,-701 1664.66,-701"/>
</g>
<!-- 2082702379584 -->
<g id="node15" class="node">
<title>2082702379584</title>
<ellipse fill="none" stroke="black" cx="2026.12" cy="-809" rx="116.35" ry="18"/>
<text text-anchor="middle" x="2026.12" y="-803" font-family="Times New Roman,serif" font-size="15.00">message terminate request</text>
</g>
<!-- 2082702377856&#45;&#45;2082702379584 -->
<g id="edge6" class="edge">
<title>2082702377856&#45;&#45;2082702379584</title>
<path fill="none" stroke="black" d="M1718.42,-759.15C1766.13,-766.9 1870.68,-783.9 1944.4,-795.88"/>
</g>
<!-- 2082702381120 -->
<g id="node16" class="node">
<title>2082702381120</title>
<ellipse fill="none" stroke="black" cx="2026.12" cy="-755" rx="148.59" ry="18"/>
<text text-anchor="middle" x="2026.12" y="-749" font-family="Times New Roman,serif" font-size="15.00">enter senddate request termination</text>
</g>
<!-- 2082702377856&#45;&#45;2082702381120 -->
<g id="edge7" class="edge">
<title>2082702377856&#45;&#45;2082702381120</title>
<path fill="none" stroke="black" d="M1719.25,-755C1753.78,-755 1817.03,-755 1877.09,-755"/>
</g>
<!-- 2082702379968 -->
<g id="node18" class="node">
<title>2082702379968</title>
<ellipse fill="none" stroke="black" cx="2026.12" cy="-701" rx="78.99" ry="18"/>
<text text-anchor="middle" x="2026.12" y="-695" font-family="Times New Roman,serif" font-size="15.00">register deadline</text>
</g>
<!-- 2082702378576&#45;&#45;2082702379968 -->
<g id="edge9" class="edge">
<title>2082702378576&#45;&#45;2082702379968</title>
<path fill="none" stroke="black" d="M1719.25,-701C1767.83,-701 1873.23,-701 1946.64,-701"/>
</g>
<!-- 2082702385968 -->
<g id="node19" class="node">
<title>2082702385968</title>
<ellipse fill="none" stroke="black" cx="2026.12" cy="-647" rx="110.72" ry="18"/>
<text text-anchor="middle" x="2026.12" y="-641" font-family="Times New Roman,serif" font-size="15.00">phase procedure aborted</text>
</g>
<!-- 2082702378576&#45;&#45;2082702385968 -->
<g id="edge10" class="edge">
<title>2082702378576&#45;&#45;2082702385968</title>
<path fill="none" stroke="black" d="M1718.42,-696.85C1766.51,-689.04 1872.34,-671.83 1946.15,-659.84"/>
</g>
<!-- 2082702391488 -->
<g id="node21" class="node">
<title>2082702391488</title>
<ellipse fill="none" stroke="black" cx="1691.91" cy="-647" rx="149.62" ry="18"/>
<text text-anchor="middle" x="1691.91" y="-641" font-family="Times New Roman,serif" font-size="15.00">forward to the competent authority</text>
</g>
<!-- 2082702388704&#45;&#45;2082702391488 -->
<g id="edge13" class="edge">
<title>2082702388704&#45;&#45;2082702391488</title>
<path fill="none" stroke="black" d="M1506.11,-623.31C1526.77,-625.96 1557.17,-629.86 1587.37,-633.73"/>
</g>
<!-- 2082702382128 -->
<g id="node22" class="node">
<title>2082702382128</title>
<ellipse fill="none" stroke="black" cx="1691.91" cy="-593" rx="143.48" ry="18"/>
<text text-anchor="middle" x="1691.91" y="-587" font-family="Times New Roman,serif" font-size="15.00">enter senddate acknowledgement</text>
</g>
<!-- 2082702388704&#45;&#45;2082702382128 -->
<g id="edge14" class="edge">
<title>2082702388704&#45;&#45;2082702382128</title>
<path fill="none" stroke="black" d="M1506.11,-616.69C1527.31,-613.97 1558.79,-609.94 1589.78,-605.96"/>
</g>
<!-- 2082702382320 -->
<g id="node23" class="node">
<title>2082702382320</title>
<ellipse fill="none" stroke="black" cx="1691.91" cy="-539" rx="27" ry="18"/>
<text text-anchor="middle" x="1691.91" y="-533" font-family="Times New Roman,serif" font-size="15.00">seq</text>
</g>
<!-- 2082702388704&#45;&#45;2082702382320 -->
<g id="edge53" class="edge">
<title>2082702388704&#45;&#45;2082702382320</title>
<path fill="none" stroke="black" d="M1503.23,-611.18C1543.74,-595.6 1627.5,-563.39 1667.99,-547.81"/>
</g>
<!-- 2082702383424 -->
<g id="node24" class="node">
<title>2082702383424</title>
<ellipse fill="none" stroke="black" cx="2026.12" cy="-593" rx="27" ry="18"/>
<text text-anchor="middle" x="2026.12" y="-587" font-family="Times New Roman,serif" font-size="15.00">xor</text>
</g>
<!-- 2082702382320&#45;&#45;2082702383424 -->
<g id="edge19" class="edge">
<title>2082702382320&#45;&#45;2082702383424</title>
<path fill="none" stroke="black" d="M1718.42,-543.15C1780.26,-553.2 1937.59,-578.77 1999.52,-588.84"/>
</g>
<!-- 2082702382800 -->
<g id="node29" class="node">
<title>2082702382800</title>
<ellipse fill="none" stroke="black" cx="2026.12" cy="-539" rx="103.56" ry="18"/>
<text text-anchor="middle" x="2026.12" y="-533" font-family="Times New Roman,serif" font-size="15.00">reception through OLO</text>
</g>
<!-- 2082702382320&#45;&#45;2082702382800 -->
<g id="edge20" class="edge">
<title>2082702382320&#45;&#45;2082702382800</title>
<path fill="none" stroke="black" d="M1719.25,-539C1762.68,-539 1851.55,-539 1922.36,-539"/>
</g>
<!-- 2082702388080 -->
<g id="node30" class="node">
<title>2082702388080</title>
<ellipse fill="none" stroke="black" cx="2026.12" cy="-485" rx="27" ry="18"/>
<text text-anchor="middle" x="2026.12" y="-479" font-family="Times New Roman,serif" font-size="15.00">and</text>
</g>
<!-- 2082702382320&#45;&#45;2082702388080 -->
<g id="edge52" class="edge">
<title>2082702382320&#45;&#45;2082702388080</title>
<path fill="none" stroke="black" d="M1718.42,-534.85C1780.26,-524.8 1937.59,-499.23 1999.52,-489.16"/>
</g>
<!-- 2082702378240 -->
<g id="node25" class="node">
<title>2082702378240</title>
<ellipse fill="black" stroke="black" cx="2237.72" cy="-628" rx="2.7" ry="2.7"/>
</g>
<!-- 2082702383424&#45;&#45;2082702378240 -->
<g id="edge15" class="edge">
<title>2082702383424&#45;&#45;2082702378240</title>
<path fill="none" stroke="black" d="M2052.82,-597.29C2104.85,-605.98 2219.08,-625.06 2234.89,-627.69"/>
</g>
<!-- 2082702385296 -->
<g id="node26" class="node">
<title>2082702385296</title>
<ellipse fill="none" stroke="black" cx="2237.72" cy="-589" rx="27" ry="18"/>
<text text-anchor="middle" x="2237.72" y="-583" font-family="Times New Roman,serif" font-size="15.00">seq</text>
</g>
<!-- 2082702383424&#45;&#45;2082702385296 -->
<g id="edge18" class="edge">
<title>2082702383424&#45;&#45;2082702385296</title>
<path fill="none" stroke="black" d="M2053.24,-592.5C2093.41,-591.73 2169.9,-590.28 2210.26,-589.5"/>
</g>
<!-- 2082701138768 -->
<g id="node27" class="node">
<title>2082701138768</title>
<ellipse fill="none" stroke="black" cx="2484.62" cy="-636" rx="183.91" ry="18"/>
<text text-anchor="middle" x="2484.62" y="-630" font-family="Times New Roman,serif" font-size="15.00">enter senddate letter to competent authority</text>
</g>
<!-- 2082702385296&#45;&#45;2082701138768 -->
<g id="edge16" class="edge">
<title>2082702385296&#45;&#45;2082701138768</title>
<path fill="none" stroke="black" d="M2264,-593.85C2295.59,-599.92 2351.27,-610.6 2398.66,-619.69"/>
</g>
<!-- 2082701139680 -->
<g id="node28" class="node">
<title>2082701139680</title>
<ellipse fill="none" stroke="black" cx="2484.62" cy="-582" rx="155.76" ry="18"/>
<text text-anchor="middle" x="2484.62" y="-576" font-family="Times New Roman,serif" font-size="15.00">enter senddate letter to stakeholders</text>
</g>
<!-- 2082702385296&#45;&#45;2082701139680 -->
<g id="edge17" class="edge">
<title>2082702385296&#45;&#45;2082701139680</title>
<path fill="none" stroke="black" d="M2264.92,-588.25C2282.26,-587.76 2306.55,-587.06 2332.68,-586.31"/>
</g>
<!-- 2082702378624 -->
<g id="node31" class="node">
<title>2082702378624</title>
<ellipse fill="none" stroke="black" cx="2237.72" cy="-489" rx="27" ry="18"/>
<text text-anchor="middle" x="2237.72" y="-483" font-family="Times New Roman,serif" font-size="15.00">xor</text>
</g>
<!-- 2082702388080&#45;&#45;2082702378624 -->
<g id="edge23" class="edge">
<title>2082702388080&#45;&#45;2082702378624</title>
<path fill="none" stroke="black" d="M2053.24,-485.5C2093.41,-486.27 2169.9,-487.72 2210.26,-488.5"/>
</g>
<!-- 2082702383328 -->
<g id="node34" class="node">
<title>2082702383328</title>
<ellipse fill="none" stroke="black" cx="2237.72" cy="-435" rx="27" ry="18"/>
<text text-anchor="middle" x="2237.72" y="-429" font-family="Times New Roman,serif" font-size="15.00">seq</text>
</g>
<!-- 2082702388080&#45;&#45;2082702383328 -->
<g id="edge51" class="edge">
<title>2082702388080&#45;&#45;2082702383328</title>
<path fill="none" stroke="black" d="M2051.99,-479.07C2092.32,-469.45 2171.56,-450.54 2211.88,-440.92"/>
</g>
<!-- 2082701703936 -->
<g id="node32" class="node">
<title>2082701703936</title>
<ellipse fill="black" stroke="black" cx="2484.62" cy="-528" rx="2.7" ry="2.7"/>
</g>
<!-- 2082702378624&#45;&#45;2082701703936 -->
<g id="edge21" class="edge">
<title>2082702378624&#45;&#45;2082701703936</title>
<path fill="none" stroke="black" d="M2264.46,-493.1C2323.17,-502.45 2463.28,-524.76 2481.63,-527.68"/>
</g>
<!-- 2082701696976 -->
<g id="node33" class="node">
<title>2082701696976</title>
<ellipse fill="none" stroke="black" cx="2484.62" cy="-489" rx="107.14" ry="18"/>
<text text-anchor="middle" x="2484.62" y="-483" font-family="Times New Roman,serif" font-size="15.00">applicant is stakeholder</text>
</g>
<!-- 2082702378624&#45;&#45;2082701696976 -->
<g id="edge22" class="edge">
<title>2082702378624&#45;&#45;2082701696976</title>
<path fill="none" stroke="black" d="M2264.92,-489C2291.89,-489 2335.67,-489 2377,-489"/>
</g>
<!-- 2082700761600 -->
<g id="node35" class="node">
<title>2082700761600</title>
<ellipse fill="none" stroke="black" cx="2484.62" cy="-435" rx="27" ry="18"/>
<text text-anchor="middle" x="2484.62" y="-429" font-family="Times New Roman,serif" font-size="15.00">xor</text>
</g>
<!-- 2082702383328&#45;&#45;2082700761600 -->
<g id="edge26" class="edge">
<title>2082702383328&#45;&#45;2082700761600</title>
<path fill="none" stroke="black" d="M2264.92,-435C2311.94,-435 2410.09,-435 2457.23,-435"/>
</g>
<!-- 2082700759488 -->
<g id="node38" class="node">
<title>2082700759488</title>
<ellipse fill="none" stroke="black" cx="2484.62" cy="-381" rx="27" ry="18"/>
<text text-anchor="middle" x="2484.62" y="-375" font-family="Times New Roman,serif" font-size="15.00">and</text>
</g>
<!-- 2082702383328&#45;&#45;2082700759488 -->
<g id="edge50" class="edge">
<title>2082702383328&#45;&#45;2082700759488</title>
<path fill="none" stroke="black" d="M2263.55,-429.53C2310.49,-419.18 2411.74,-396.85 2458.73,-386.49"/>
</g>
<!-- 2082700762896 -->
<g id="node36" class="node">
<title>2082700762896</title>
<ellipse fill="black" stroke="black" cx="2785.06" cy="-474" rx="2.7" ry="2.7"/>
</g>
<!-- 2082700761600&#45;&#45;2082700762896 -->
<g id="edge24" class="edge">
<title>2082700761600&#45;&#45;2082700762896</title>
<path fill="none" stroke="black" d="M2511.59,-438.39C2580.22,-447.36 2762.58,-471.19 2782.32,-473.77"/>
</g>
<!-- 2082700768608 -->
<g id="node37" class="node">
<title>2082700768608</title>
<ellipse fill="none" stroke="black" cx="2785.06" cy="-435" rx="80.52" ry="18"/>
<text text-anchor="middle" x="2785.06" y="-429" font-family="Times New Roman,serif" font-size="15.00">temporary permit</text>
</g>
<!-- 2082700761600&#45;&#45;2082700768608 -->
<g id="edge25" class="edge">
<title>2082700761600&#45;&#45;2082700768608</title>
<path fill="none" stroke="black" d="M2512.11,-435C2554.76,-435 2640.34,-435 2704.17,-435"/>
</g>
<!-- 2082700768272 -->
<g id="node39" class="node">
<title>2082700768272</title>
<ellipse fill="none" stroke="black" cx="2785.06" cy="-381" rx="45.21" ry="18"/>
<text text-anchor="middle" x="2785.06" y="-375" font-family="Times New Roman,serif" font-size="15.00">xor loop</text>
</g>
<!-- 2082700759488&#45;&#45;2082700768272 -->
<g id="edge29" class="edge">
<title>2082700759488&#45;&#45;2082700768272</title>
<path fill="none" stroke="black" d="M2512.11,-381C2563.32,-381 2676.42,-381 2739.44,-381"/>
</g>
<!-- 2082700765152 -->
<g id="node42" class="node">
<title>2082700765152</title>
<ellipse fill="none" stroke="black" cx="2785.06" cy="-288" rx="27" ry="18"/>
<text text-anchor="middle" x="2785.06" y="-282" font-family="Times New Roman,serif" font-size="15.00">seq</text>
</g>
<!-- 2082700759488&#45;&#45;2082700765152 -->
<g id="edge49" class="edge">
<title>2082700759488&#45;&#45;2082700765152</title>
<path fill="none" stroke="black" d="M2509.54,-373.55C2565.42,-356.13 2704.04,-312.94 2760.03,-295.49"/>
</g>
<!-- 2082700769184 -->
<g id="node40" class="node">
<title>2082700769184</title>
<ellipse fill="none" stroke="black" cx="3041.48" cy="-420" rx="113.79" ry="18"/>
<text text-anchor="middle" x="3041.48" y="-414" font-family="Times New Roman,serif" font-size="15.00">send confirmation receipt</text>
</g>
<!-- 2082700768272&#45;&#45;2082700769184 -->
<g id="edge27" class="edge">
<title>2082700768272&#45;&#45;2082700769184</title>
<path fill="none" stroke="black" d="M2827.79,-387.4C2863.03,-392.8 2914.56,-400.7 2958.08,-407.37"/>
</g>
<!-- 2082700759200 -->
<g id="node41" class="node">
<title>2082700759200</title>
<ellipse fill="black" stroke="black" cx="3041.48" cy="-381" rx="2.7" ry="2.7"/>
</g>
<!-- 2082700768272&#45;&#45;2082700759200 -->
<g id="edge28" class="edge">
<title>2082700768272&#45;&#45;2082700759200</title>
<path fill="none" stroke="black" d="M2830.67,-381C2898.5,-381 3021.55,-381 3038.52,-381"/>
</g>
<!-- 2082700761840 -->
<g id="node43" class="node">
<title>2082700761840</title>
<ellipse fill="none" stroke="black" cx="3041.48" cy="-342" rx="27" ry="18"/>
<text text-anchor="middle" x="3041.48" y="-336" font-family="Times New Roman,serif" font-size="15.00">xor</text>
</g>
<!-- 2082700765152&#45;&#45;2082700761840 -->
<g id="edge34" class="edge">
<title>2082700765152&#45;&#45;2082700761840</title>
<path fill="none" stroke="black" d="M2810.92,-293.28C2859.56,-303.6 2966.8,-326.36 3015.52,-336.7"/>
</g>
<!-- 2082700766304 -->
<g id="node48" class="node">
<title>2082700766304</title>
<ellipse fill="none" stroke="black" cx="3041.48" cy="-288" rx="139.89" ry="18"/>
<text text-anchor="middle" x="3041.48" y="-282" font-family="Times New Roman,serif" font-size="15.00">regular procedure without MER</text>
</g>
<!-- 2082700765152&#45;&#45;2082700766304 -->
<g id="edge35" class="edge">
<title>2082700765152&#45;&#45;2082700766304</title>
<path fill="none" stroke="black" d="M2812.33,-288C2834.17,-288 2867.08,-288 2901.16,-288"/>
</g>
<!-- 2082700771008 -->
<g id="node49" class="node">
<title>2082700771008</title>
<ellipse fill="none" stroke="black" cx="3041.48" cy="-234" rx="27" ry="18"/>
<text text-anchor="middle" x="3041.48" y="-228" font-family="Times New Roman,serif" font-size="15.00">xor</text>
</g>
<!-- 2082700765152&#45;&#45;2082700771008 -->
<g id="edge47" class="edge">
<title>2082700765152&#45;&#45;2082700771008</title>
<path fill="none" stroke="black" d="M2810.92,-282.72C2859.56,-272.4 2966.8,-249.64 3015.52,-239.3"/>
</g>
<!-- 2082700768896 -->
<g id="node61" class="node">
<title>2082700768896</title>
<ellipse fill="none" stroke="black" cx="3041.48" cy="-180" rx="102.02" ry="18"/>
<text text-anchor="middle" x="3041.48" y="-174" font-family="Times New Roman,serif" font-size="15.00">start WABOprocedure</text>
</g>
<!-- 2082700765152&#45;&#45;2082700768896 -->
<g id="edge48" class="edge">
<title>2082700765152&#45;&#45;2082700768896</title>
<path fill="none" stroke="black" d="M2808.19,-278.6C2851.23,-260.33 2946.72,-219.8 3000.91,-196.8"/>
</g>
<!-- 2082700760448 -->
<g id="node44" class="node">
<title>2082700760448</title>
<ellipse fill="black" stroke="black" cx="3244.37" cy="-381" rx="2.7" ry="2.7"/>
</g>
<!-- 2082700761840&#45;&#45;2082700760448 -->
<g id="edge30" class="edge">
<title>2082700761840&#45;&#45;2082700760448</title>
<path fill="none" stroke="black" d="M3067.92,-346.94C3117.76,-356.61 3224.82,-377.4 3241.24,-380.59"/>
</g>
<!-- 2082700766160 -->
<g id="node45" class="node">
<title>2082700766160</title>
<ellipse fill="none" stroke="black" cx="3244.37" cy="-342" rx="27" ry="18"/>
<text text-anchor="middle" x="3244.37" y="-336" font-family="Times New Roman,serif" font-size="15.00">seq</text>
</g>
<!-- 2082700761840&#45;&#45;2082700766160 -->
<g id="edge33" class="edge">
<title>2082700761840&#45;&#45;2082700766160</title>
<path fill="none" stroke="black" d="M3068.74,-342C3107.24,-342 3178.6,-342 3217.1,-342"/>
</g>
<!-- 2082700764528 -->
<g id="node46" class="node">
<title>2082700764528</title>
<ellipse fill="none" stroke="black" cx="3498.96" cy="-396" rx="191.59" ry="18"/>
<text text-anchor="middle" x="3498.96" y="-390" font-family="Times New Roman,serif" font-size="15.00">no permit needed or only notification needed</text>
</g>
<!-- 2082700766160&#45;&#45;2082700764528 -->
<g id="edge31" class="edge">
<title>2082700766160&#45;&#45;2082700764528</title>
<path fill="none" stroke="black" d="M3270.51,-347.38C3304.95,-354.74 3368.36,-368.29 3419.49,-379.22"/>
</g>
<!-- 2082700769568 -->
<g id="node47" class="node">
<title>2082700769568</title>
<ellipse fill="none" stroke="black" cx="3498.96" cy="-342" rx="92.3" ry="18"/>
<text text-anchor="middle" x="3498.96" y="-336" font-family="Times New Roman,serif" font-size="15.00">terminate on request</text>
</g>
<!-- 2082700766160&#45;&#45;2082700769568 -->
<g id="edge32" class="edge">
<title>2082700766160&#45;&#45;2082700769568</title>
<path fill="none" stroke="black" d="M3271.45,-342C3303.15,-342 3358.36,-342 3406.34,-342"/>
</g>
<!-- 2082700767024 -->
<g id="node50" class="node">
<title>2082700767024</title>
<ellipse fill="none" stroke="black" cx="3244.37" cy="-234" rx="27" ry="18"/>
<text text-anchor="middle" x="3244.37" y="-228" font-family="Times New Roman,serif" font-size="15.00">seq</text>
</g>
<!-- 2082700771008&#45;&#45;2082700767024 -->
<g id="edge41" class="edge">
<title>2082700771008&#45;&#45;2082700767024</title>
<path fill="none" stroke="black" d="M3068.74,-234C3107.24,-234 3178.6,-234 3217.1,-234"/>
</g>
<!-- 2082700766736 -->
<g id="node56" class="node">
<title>2082700766736</title>
<ellipse fill="none" stroke="black" cx="3244.37" cy="-126" rx="27" ry="18"/>
<text text-anchor="middle" x="3244.37" y="-120" font-family="Times New Roman,serif" font-size="15.00">seq</text>
</g>
<!-- 2082700771008&#45;&#45;2082700766736 -->
<g id="edge46" class="edge">
<title>2082700771008&#45;&#45;2082700766736</title>
<path fill="none" stroke="black" d="M3063.22,-222.85C3101.82,-202.1 3184.23,-157.79 3222.74,-137.09"/>
</g>
<!-- 2082700757712 -->
<g id="node51" class="node">
<title>2082700757712</title>
<ellipse fill="none" stroke="black" cx="3498.96" cy="-288" rx="132.73" ry="18"/>
<text text-anchor="middle" x="3498.96" y="-282" font-family="Times New Roman,serif" font-size="15.00">create procedure confirmation</text>
</g>
<!-- 2082700767024&#45;&#45;2082700757712 -->
<g id="edge36" class="edge">
<title>2082700767024&#45;&#45;2082700757712</title>
<path fill="none" stroke="black" d="M3270.51,-239.38C3306.39,-247.04 3373.69,-261.43 3425.81,-272.58"/>
</g>
<!-- 2082700767360 -->
<g id="node52" class="node">
<title>2082700767360</title>
<ellipse fill="none" stroke="black" cx="3498.96" cy="-234" rx="27" ry="18"/>
<text text-anchor="middle" x="3498.96" y="-228" font-family="Times New Roman,serif" font-size="15.00">xor</text>
</g>
<!-- 2082700767024&#45;&#45;2082700767360 -->
<g id="edge40" class="edge">
<title>2082700767024&#45;&#45;2082700767360</title>
<path fill="none" stroke="black" d="M3271.45,-234C3319.85,-234 3423.06,-234 3471.64,-234"/>
</g>
<!-- 2082700766544 -->
<g id="node53" class="node">
<title>2082700766544</title>
<ellipse fill="none" stroke="black" cx="3857.23" cy="-288" rx="124.54" ry="18"/>
<text text-anchor="middle" x="3857.23" y="-282" font-family="Times New Roman,serif" font-size="15.00">create publication document</text>
</g>
<!-- 2082700767360&#45;&#45;2082700766544 -->
<g id="edge37" class="edge">
<title>2082700767360&#45;&#45;2082700766544</title>
<path fill="none" stroke="black" d="M3525.58,-237.88C3575.92,-245.51 3689.77,-262.77 3769.75,-274.89"/>
</g>
<!-- 2082700765968 -->
<g id="node54" class="node">
<title>2082700765968</title>
<ellipse fill="none" stroke="black" cx="3857.23" cy="-234" rx="40.6" ry="18"/>
<text text-anchor="middle" x="3857.23" y="-228" font-family="Times New Roman,serif" font-size="15.00">publish</text>
</g>
<!-- 2082700767360&#45;&#45;2082700765968 -->
<g id="edge38" class="edge">
<title>2082700767360&#45;&#45;2082700765968</title>
<path fill="none" stroke="black" d="M3526.45,-234C3588.37,-234 3742.91,-234 3816.31,-234"/>
</g>
<!-- 2082700769856 -->
<g id="node55" class="node">
<title>2082700769856</title>
<ellipse fill="none" stroke="black" cx="3857.23" cy="-180" rx="130.68" ry="18"/>
<text text-anchor="middle" x="3857.23" y="-174" font-family="Times New Roman,serif" font-size="15.00">create subcases completeness</text>
</g>
<!-- 2082700767360&#45;&#45;2082700769856 -->
<g id="edge39" class="edge">
<title>2082700767360&#45;&#45;2082700769856</title>
<path fill="none" stroke="black" d="M3525.58,-230.12C3575.44,-222.56 3687.61,-205.56 3767.46,-193.46"/>
</g>
<!-- 2082700769664 -->
<g id="node57" class="node">
<title>2082700769664</title>
<ellipse fill="none" stroke="black" cx="3498.96" cy="-180" rx="148.59" ry="18"/>
<text text-anchor="middle" x="3498.96" y="-174" font-family="Times New Roman,serif" font-size="15.00">no permit required for application</text>
</g>
<!-- 2082700766736&#45;&#45;2082700769664 -->
<g id="edge42" class="edge">
<title>2082700766736&#45;&#45;2082700769664</title>
<path fill="none" stroke="black" d="M3270.51,-131.38C3305.89,-138.94 3371.82,-153.03 3423.63,-164.11"/>
</g>
<!-- 2082700768464 -->
<g id="node58" class="node">
<title>2082700768464</title>
<ellipse fill="none" stroke="black" cx="3498.96" cy="-126" rx="64.15" ry="18"/>
<text text-anchor="middle" x="3498.96" y="-120" font-family="Times New Roman,serif" font-size="15.00">MER present</text>
</g>
<!-- 2082700766736&#45;&#45;2082700768464 -->
<g id="edge43" class="edge">
<title>2082700766736&#45;&#45;2082700768464</title>
<path fill="none" stroke="black" d="M3271.45,-126C3309.58,-126 3381.72,-126 3434.37,-126"/>
</g>
<!-- 2082700759152 -->
<g id="node59" class="node">
<title>2082700759152</title>
<ellipse fill="none" stroke="black" cx="3498.96" cy="-72" rx="123" ry="18"/>
<text text-anchor="middle" x="3498.96" y="-66" font-family="Times New Roman,serif" font-size="15.00">activities regular procedure</text>
</g>
<!-- 2082700766736&#45;&#45;2082700759152 -->
<g id="edge44" class="edge">
<title>2082700766736&#45;&#45;2082700759152</title>
<path fill="none" stroke="black" d="M3270.51,-120.62C3306.76,-112.88 3375.1,-98.27 3427.44,-87.08"/>
</g>
<!-- 2082700770192 -->
<g id="node60" class="node">
<title>2082700770192</title>
<ellipse fill="none" stroke="black" cx="3498.96" cy="-18" rx="129.15" ry="18"/>
<text text-anchor="middle" x="3498.96" y="-12" font-family="Times New Roman,serif" font-size="15.00">read field phased application</text>
</g>
<!-- 2082700766736&#45;&#45;2082700770192 -->
<g id="edge45" class="edge">
<title>2082700766736&#45;&#45;2082700770192</title>
<path fill="none" stroke="black" d="M3267.79,-116.42C3310.29,-98.24 3403.14,-58.54 3457.03,-35.5"/>
</g>
<!-- 2082702291744 -->
<g id="node63" class="node">
<title>2082702291744</title>
<ellipse fill="none" stroke="black" cx="267.18" cy="-681" rx="87.18" ry="18"/>
<text text-anchor="middle" x="267.18" y="-675" font-family="Times New Roman,serif" font-size="15.00">phased application</text>
</g>
<!-- 2082702284064&#45;&#45;2082702291744 -->
<g id="edge61" class="edge">
<title>2082702284064&#45;&#45;2082702291744</title>
<path fill="none" stroke="black" d="M143.47,-658.64C159.28,-661.52 180.37,-665.36 200.6,-669.05"/>
</g>
<!-- 2082702293184 -->
<g id="node64" class="node">
<title>2082702293184</title>
<ellipse fill="none" stroke="black" cx="267.18" cy="-627" rx="45.21" ry="18"/>
<text text-anchor="middle" x="267.18" y="-621" font-family="Times New Roman,serif" font-size="15.00">xor loop</text>
</g>
<!-- 2082702284064&#45;&#45;2082702293184 -->
<g id="edge64" class="edge">
<title>2082702284064&#45;&#45;2082702293184</title>
<path fill="none" stroke="black" d="M143.47,-649.36C165.98,-645.26 199.2,-639.2 225.41,-634.43"/>
</g>
<!-- 2082702290736 -->
<g id="node67" class="node">
<title>2082702290736</title>
<ellipse fill="none" stroke="black" cx="267.18" cy="-573" rx="52.89" ry="18"/>
<text text-anchor="middle" x="267.18" y="-567" font-family="Times New Roman,serif" font-size="15.00">close case</text>
</g>
<!-- 2082702284064&#45;&#45;2082702290736 -->
<g id="edge65" class="edge">
<title>2082702284064&#45;&#45;2082702290736</title>
<path fill="none" stroke="black" d="M138.6,-642.74C164.45,-628.61 208.89,-604.32 237.9,-588.46"/>
</g>
<!-- 2082702283920 -->
<g id="node65" class="node">
<title>2082702283920</title>
<ellipse fill="none" stroke="black" cx="579.9" cy="-640" rx="189.54" ry="18"/>
<text text-anchor="middle" x="579.9" y="-634" font-family="Times New Roman,serif" font-size="15.00">registrer date of publishing received request</text>
</g>
<!-- 2082702293184&#45;&#45;2082702283920 -->
<g id="edge62" class="edge">
<title>2082702293184&#45;&#45;2082702283920</title>
<path fill="none" stroke="black" d="M312.37,-628.85C337.5,-629.9 370.78,-631.29 405.28,-632.74"/>
</g>
<!-- 2082702293376 -->
<g id="node66" class="node">
<title>2082702293376</title>
<ellipse fill="black" stroke="black" cx="579.9" cy="-601" rx="2.7" ry="2.7"/>
</g>
<!-- 2082702293184&#45;&#45;2082702293376 -->
<g id="edge63" class="edge">
<title>2082702293184&#45;&#45;2082702293376</title>
<path fill="none" stroke="black" d="M311.71,-623.36C391.88,-616.65 556.56,-602.87 576.83,-601.17"/>
</g>
</g>
</svg>
