<?xml version="1.0" encoding="UTF-8" standalone="no"?>
<!DOCTYPE svg PUBLIC "-//W3C//DTD SVG 1.1//EN"
 "http://www.w3.org/Graphics/SVG/1.1/DTD/svg11.dtd">
<!-- Generated by graphviz version 11.0.0 (20240428.1522)
 -->
<!-- Title: pt Pages: 1 -->
<svg width="2876pt" height="830pt"
 viewBox="0.00 0.00 2875.94 830.00" xmlns="http://www.w3.org/2000/svg" xmlns:xlink="http://www.w3.org/1999/xlink">
<g id="graph0" class="graph" transform="scale(1 1) rotate(0) translate(4 826)">
<title>pt</title>
<polygon fill="white" stroke="none" points="-4,4 -4,-826 2871.94,-826 2871.94,4 -4,4"/>
<!-- 2082704383472 -->
<g id="node1" class="node">
<title>2082704383472</title>
<ellipse fill="none" stroke="black" cx="27" cy="-657" rx="27" ry="18"/>
<text text-anchor="middle" x="27" y="-651" font-family="Times New Roman,serif" font-size="15.00">seq</text>
</g>
<!-- 2082704383424 -->
<g id="node2" class="node">
<title>2082704383424</title>
<ellipse fill="none" stroke="black" cx="230.41" cy="-804" rx="140.41" ry="18"/>
<text text-anchor="middle" x="230.41" y="-798" font-family="Times New Roman,serif" font-size="15.00">register submission date request</text>
</g>
<!-- 2082704383472&#45;&#45;2082704383424 -->
<g id="edge1" class="edge">
<title>2082704383472&#45;&#45;2082704383424</title>
<path fill="none" stroke="black" d="M45.87,-670.05C81.98,-696.4 163.65,-756.01 204.77,-786.02"/>
</g>
<!-- 2082704384144 -->
<g id="node3" class="node">
<title>2082704384144</title>
<ellipse fill="none" stroke="black" cx="230.41" cy="-750" rx="27" ry="18"/>
<text text-anchor="middle" x="230.41" y="-744" font-family="Times New Roman,serif" font-size="15.00">xor</text>
</g>
<!-- 2082704383472&#45;&#45;2082704384144 -->
<g id="edge4" class="edge">
<title>2082704383472&#45;&#45;2082704384144</title>
<path fill="none" stroke="black" d="M49.94,-667.13C88.68,-685.02 168.77,-722 207.5,-739.88"/>
</g>
<!-- 2082704382128 -->
<g id="node6" class="node">
<title>2082704382128</title>
<ellipse fill="none" stroke="black" cx="230.41" cy="-684" rx="27" ry="18"/>
<text text-anchor="middle" x="230.41" y="-678" font-family="Times New Roman,serif" font-size="15.00">xor</text>
</g>
<!-- 2082704383472&#45;&#45;2082704382128 -->
<g id="edge27" class="edge">
<title>2082704383472&#45;&#45;2082704382128</title>
<path fill="none" stroke="black" d="M53.92,-660.47C92.59,-665.66 164.97,-675.36 203.59,-680.54"/>
</g>
<!-- 2082704382560 -->
<g id="node29" class="node">
<title>2082704382560</title>
<ellipse fill="none" stroke="black" cx="230.41" cy="-630" rx="27" ry="18"/>
<text text-anchor="middle" x="230.41" y="-624" font-family="Times New Roman,serif" font-size="15.00">xor</text>
</g>
<!-- 2082704383472&#45;&#45;2082704382560 -->
<g id="edge34" class="edge">
<title>2082704383472&#45;&#45;2082704382560</title>
<path fill="none" stroke="black" d="M53.92,-653.53C92.59,-648.34 164.97,-638.64 203.59,-633.46"/>
</g>
<!-- 2082704381984 -->
<g id="node36" class="node">
<title>2082704381984</title>
<ellipse fill="none" stroke="black" cx="230.41" cy="-519" rx="27" ry="18"/>
<text text-anchor="middle" x="230.41" y="-513" font-family="Times New Roman,serif" font-size="15.00">and</text>
</g>
<!-- 2082704383472&#45;&#45;2082704381984 -->
<g id="edge71" class="edge">
<title>2082704383472&#45;&#45;2082704381984</title>
<path fill="none" stroke="black" d="M46.59,-644.26C84.96,-617.98 172.53,-557.97 210.86,-531.7"/>
</g>
<!-- 2082704384240 -->
<g id="node73" class="node">
<title>2082704384240</title>
<ellipse fill="none" stroke="black" cx="230.41" cy="-333" rx="27" ry="18"/>
<text text-anchor="middle" x="230.41" y="-327" font-family="Times New Roman,serif" font-size="15.00">xor</text>
</g>
<!-- 2082704383472&#45;&#45;2082704384240 -->
<g id="edge79" class="edge">
<title>2082704383472&#45;&#45;2082704384240</title>
<path fill="none" stroke="black" d="M38.26,-640.49C72.81,-584.91 184.64,-405.01 219.16,-349.48"/>
</g>
<!-- 2082704381408 -->
<g id="node4" class="node">
<title>2082704381408</title>
<ellipse fill="black" stroke="black" cx="556.43" cy="-795" rx="2.7" ry="2.7"/>
</g>
<!-- 2082704384144&#45;&#45;2082704381408 -->
<g id="edge2" class="edge">
<title>2082704384144&#45;&#45;2082704381408</title>
<path fill="none" stroke="black" d="M257.37,-753.61C330.06,-763.7 531.67,-791.7 553.51,-794.73"/>
</g>
<!-- 2082704382608 -->
<g id="node5" class="node">
<title>2082704382608</title>
<ellipse fill="none" stroke="black" cx="556.43" cy="-756" rx="102.02" ry="18"/>
<text text-anchor="middle" x="556.43" y="-750" font-family="Times New Roman,serif" font-size="15.00">OLO messaging active</text>
</g>
<!-- 2082704384144&#45;&#45;2082704382608 -->
<g id="edge3" class="edge">
<title>2082704384144&#45;&#45;2082704382608</title>
<path fill="none" stroke="black" d="M257.65,-750.49C300.06,-751.27 385.85,-752.86 454.5,-754.13"/>
</g>
<!-- 2082704382416 -->
<g id="node7" class="node">
<title>2082704382416</title>
<ellipse fill="black" stroke="black" cx="556.43" cy="-717" rx="2.7" ry="2.7"/>
</g>
<!-- 2082704382128&#45;&#45;2082704382416 -->
<g id="edge5" class="edge">
<title>2082704382128&#45;&#45;2082704382416</title>
<path fill="none" stroke="black" d="M257.37,-686.64C330.06,-694.05 531.67,-714.58 553.51,-716.8"/>
</g>
<!-- 2082704380928 -->
<g id="node8" class="node">
<title>2082704380928</title>
<ellipse fill="none" stroke="black" cx="556.43" cy="-678" rx="27" ry="18"/>
<text text-anchor="middle" x="556.43" y="-672" font-family="Times New Roman,serif" font-size="15.00">seq</text>
</g>
<!-- 2082704382128&#45;&#45;2082704380928 -->
<g id="edge26" class="edge">
<title>2082704382128&#45;&#45;2082704380928</title>
<path fill="none" stroke="black" d="M257.65,-683.51C318.36,-682.39 467.99,-679.62 528.94,-678.49"/>
</g>
<!-- 2082704383808 -->
<g id="node9" class="node">
<title>2082704383808</title>
<ellipse fill="none" stroke="black" cx="925.96" cy="-732" rx="92.3" ry="18"/>
<text text-anchor="middle" x="925.96" y="-726" font-family="Times New Roman,serif" font-size="15.00">terminate on request</text>
</g>
<!-- 2082704380928&#45;&#45;2082704383808 -->
<g id="edge6" class="edge">
<title>2082704380928&#45;&#45;2082704383808</title>
<path fill="none" stroke="black" d="M583.27,-681.8C638.17,-689.86 768.17,-708.96 851.05,-721.14"/>
</g>
<!-- 2082704382800 -->
<g id="node10" class="node">
<title>2082704382800</title>
<ellipse fill="none" stroke="black" cx="925.96" cy="-678" rx="27" ry="18"/>
<text text-anchor="middle" x="925.96" y="-672" font-family="Times New Roman,serif" font-size="15.00">xor</text>
</g>
<!-- 2082704380928&#45;&#45;2082704382800 -->
<g id="edge25" class="edge">
<title>2082704380928&#45;&#45;2082704382800</title>
<path fill="none" stroke="black" d="M583.86,-678C651.67,-678 831.22,-678 898.77,-678"/>
</g>
<!-- 2082704376560 -->
<g id="node11" class="node">
<title>2082704376560</title>
<ellipse fill="black" stroke="black" cx="1301.63" cy="-717" rx="2.7" ry="2.7"/>
</g>
<!-- 2082704382800&#45;&#45;2082704376560 -->
<g id="edge7" class="edge">
<title>2082704382800&#45;&#45;2082704376560</title>
<path fill="none" stroke="black" d="M952.94,-680.71C1033.37,-689.11 1274.38,-714.26 1298.65,-716.79"/>
</g>
<!-- 2082704378624 -->
<g id="node12" class="node">
<title>2082704378624</title>
<ellipse fill="none" stroke="black" cx="1301.63" cy="-678" rx="27" ry="18"/>
<text text-anchor="middle" x="1301.63" y="-672" font-family="Times New Roman,serif" font-size="15.00">seq</text>
</g>
<!-- 2082704382800&#45;&#45;2082704378624 -->
<g id="edge24" class="edge">
<title>2082704382800&#45;&#45;2082704378624</title>
<path fill="none" stroke="black" d="M953.23,-678C1021.84,-678 1205.81,-678 1274.38,-678"/>
</g>
<!-- 2082704376896 -->
<g id="node13" class="node">
<title>2082704376896</title>
<ellipse fill="none" stroke="black" cx="1661.43" cy="-801" rx="168.04" ry="18"/>
<text text-anchor="middle" x="1661.43" y="-795" font-family="Times New Roman,serif" font-size="15.00">enter date termination request received</text>
</g>
<!-- 2082704378624&#45;&#45;2082704376896 -->
<g id="edge8" class="edge">
<title>2082704378624&#45;&#45;2082704376896</title>
<path fill="none" stroke="black" d="M1326.11,-686.07C1383.32,-705.74 1531,-756.51 1609.55,-783.51"/>
</g>
<!-- 2082704377712 -->
<g id="node14" class="node">
<title>2082704377712</title>
<ellipse fill="none" stroke="black" cx="1661.43" cy="-747" rx="27" ry="18"/>
<text text-anchor="middle" x="1661.43" y="-741" font-family="Times New Roman,serif" font-size="15.00">xor</text>
</g>
<!-- 2082704378624&#45;&#45;2082704377712 -->
<g id="edge15" class="edge">
<title>2082704378624&#45;&#45;2082704377712</title>
<path fill="none" stroke="black" d="M1328.07,-682.91C1394.01,-695.62 1569.83,-729.53 1635.36,-742.16"/>
</g>
<!-- 2082704377760 -->
<g id="node21" class="node">
<title>2082704377760</title>
<ellipse fill="none" stroke="black" cx="1661.43" cy="-678" rx="27" ry="18"/>
<text text-anchor="middle" x="1661.43" y="-672" font-family="Times New Roman,serif" font-size="15.00">and</text>
</g>
<!-- 2082704378624&#45;&#45;2082704377760 -->
<g id="edge18" class="edge">
<title>2082704378624&#45;&#45;2082704377760</title>
<path fill="none" stroke="black" d="M1328.94,-678C1395.11,-678 1567.87,-678 1634.08,-678"/>
</g>
<!-- 2082704379728 -->
<g id="node24" class="node">
<title>2082704379728</title>
<ellipse fill="none" stroke="black" cx="1661.43" cy="-600" rx="27" ry="18"/>
<text text-anchor="middle" x="1661.43" y="-594" font-family="Times New Roman,serif" font-size="15.00">and</text>
</g>
<!-- 2082704378624&#45;&#45;2082704379728 -->
<g id="edge23" class="edge">
<title>2082704378624&#45;&#45;2082704379728</title>
<path fill="none" stroke="black" d="M1327.79,-672.52C1393.48,-658.19 1569.64,-619.79 1635.3,-605.48"/>
</g>
<!-- 2082704379632 -->
<g id="node15" class="node">
<title>2082704379632</title>
<ellipse fill="black" stroke="black" cx="2014.07" cy="-801" rx="2.7" ry="2.7"/>
</g>
<!-- 2082704377712&#45;&#45;2082704379632 -->
<g id="edge9" class="edge">
<title>2082704377712&#45;&#45;2082704379632</title>
<path fill="none" stroke="black" d="M1688.22,-750.97C1764.76,-762.76 1986.88,-796.97 2010.95,-800.67"/>
</g>
<!-- 2082704378768 -->
<g id="node16" class="node">
<title>2082704378768</title>
<ellipse fill="none" stroke="black" cx="2014.07" cy="-762" rx="27" ry="18"/>
<text text-anchor="middle" x="2014.07" y="-756" font-family="Times New Roman,serif" font-size="15.00">seq</text>
</g>
<!-- 2082704377712&#45;&#45;2082704378768 -->
<g id="edge14" class="edge">
<title>2082704377712&#45;&#45;2082704378768</title>
<path fill="none" stroke="black" d="M1688.79,-748.13C1753.93,-750.91 1921.93,-758.1 1986.89,-760.88"/>
</g>
<!-- 2082704376512 -->
<g id="node17" class="node">
<title>2082704376512</title>
<ellipse fill="none" stroke="black" cx="2371.83" cy="-789" rx="173.16" ry="18"/>
<text text-anchor="middle" x="2371.83" y="-783" font-family="Times New Roman,serif" font-size="15.00">phase procedure prematurely terminated</text>
</g>
<!-- 2082704378768&#45;&#45;2082704376512 -->
<g id="edge10" class="edge">
<title>2082704378768&#45;&#45;2082704376512</title>
<path fill="none" stroke="black" d="M2041.23,-763.99C2081.11,-767.01 2159.92,-772.99 2230.47,-778.35"/>
</g>
<!-- 2082704391872 -->
<g id="node18" class="node">
<title>2082704391872</title>
<ellipse fill="none" stroke="black" cx="2371.83" cy="-735" rx="27" ry="18"/>
<text text-anchor="middle" x="2371.83" y="-729" font-family="Times New Roman,serif" font-size="15.00">xor</text>
</g>
<!-- 2082704378768&#45;&#45;2082704391872 -->
<g id="edge13" class="edge">
<title>2082704378768&#45;&#45;2082704391872</title>
<path fill="none" stroke="black" d="M2041.23,-760.01C2107.02,-755.02 2278.8,-741.98 2344.63,-736.99"/>
</g>
<!-- 2082704379824 -->
<g id="node19" class="node">
<title>2082704379824</title>
<ellipse fill="black" stroke="black" cx="2724.47" cy="-754" rx="2.7" ry="2.7"/>
</g>
<!-- 2082704391872&#45;&#45;2082704379824 -->
<g id="edge11" class="edge">
<title>2082704391872&#45;&#45;2082704379824</title>
<path fill="none" stroke="black" d="M2399.18,-736.43C2476.27,-740.61 2697.4,-752.59 2721.35,-753.89"/>
</g>
<!-- 2082704457856 -->
<g id="node20" class="node">
<title>2082704457856</title>
<ellipse fill="none" stroke="black" cx="2724.47" cy="-715" rx="143.48" ry="18"/>
<text text-anchor="middle" x="2724.47" y="-709" font-family="Times New Roman,serif" font-size="15.00">create message terminate request</text>
</g>
<!-- 2082704391872&#45;&#45;2082704457856 -->
<g id="edge12" class="edge">
<title>2082704391872&#45;&#45;2082704457856</title>
<path fill="none" stroke="black" d="M2399.18,-733.5C2440.11,-731.16 2521.66,-726.51 2592.73,-722.46"/>
</g>
<!-- 2082704376848 -->
<g id="node22" class="node">
<title>2082704376848</title>
<ellipse fill="none" stroke="black" cx="2014.07" cy="-708" rx="116.35" ry="18"/>
<text text-anchor="middle" x="2014.07" y="-702" font-family="Times New Roman,serif" font-size="15.00">message terminate request</text>
</g>
<!-- 2082704377760&#45;&#45;2082704376848 -->
<g id="edge16" class="edge">
<title>2082704377760&#45;&#45;2082704376848</title>
<path fill="none" stroke="black" d="M1688.5,-680.23C1735,-684.21 1834.58,-692.73 1911.25,-699.29"/>
</g>
<!-- 2082704378336 -->
<g id="node23" class="node">
<title>2082704378336</title>
<ellipse fill="none" stroke="black" cx="2014.07" cy="-654" rx="148.59" ry="18"/>
<text text-anchor="middle" x="2014.07" y="-648" font-family="Times New Roman,serif" font-size="15.00">enter senddate request termination</text>
</g>
<!-- 2082704377760&#45;&#45;2082704378336 -->
<g id="edge17" class="edge">
<title>2082704377760&#45;&#45;2082704378336</title>
<path fill="none" stroke="black" d="M1688.79,-676.2C1729.96,-673.38 1812.22,-667.75 1883.58,-662.86"/>
</g>
<!-- 2082704392160 -->
<g id="node25" class="node">
<title>2082704392160</title>
<ellipse fill="none" stroke="black" cx="2014.07" cy="-600" rx="27" ry="18"/>
<text text-anchor="middle" x="2014.07" y="-594" font-family="Times New Roman,serif" font-size="15.00">xor</text>
</g>
<!-- 2082704379728&#45;&#45;2082704392160 -->
<g id="edge21" class="edge">
<title>2082704379728&#45;&#45;2082704392160</title>
<path fill="none" stroke="black" d="M1688.79,-600C1753.93,-600 1921.93,-600 1986.89,-600"/>
</g>
<!-- 2082704380064 -->
<g id="node28" class="node">
<title>2082704380064</title>
<ellipse fill="none" stroke="black" cx="2014.07" cy="-546" rx="110.72" ry="18"/>
<text text-anchor="middle" x="2014.07" y="-540" font-family="Times New Roman,serif" font-size="15.00">phase procedure aborted</text>
</g>
<!-- 2082704379728&#45;&#45;2082704380064 -->
<g id="edge22" class="edge">
<title>2082704379728&#45;&#45;2082704380064</title>
<path fill="none" stroke="black" d="M1688.22,-596.03C1738.9,-588.22 1853.43,-570.59 1932,-558.48"/>
</g>
<!-- 2082704458144 -->
<g id="node26" class="node">
<title>2082704458144</title>
<ellipse fill="black" stroke="black" cx="2371.83" cy="-624" rx="2.7" ry="2.7"/>
</g>
<!-- 2082704392160&#45;&#45;2082704458144 -->
<g id="edge19" class="edge">
<title>2082704392160&#45;&#45;2082704458144</title>
<path fill="none" stroke="black" d="M2041.23,-601.76C2118.9,-607 2344.26,-622.21 2368.68,-623.85"/>
</g>
<!-- 2082704457808 -->
<g id="node27" class="node">
<title>2082704457808</title>
<ellipse fill="none" stroke="black" cx="2371.83" cy="-585" rx="78.99" ry="18"/>
<text text-anchor="middle" x="2371.83" y="-579" font-family="Times New Roman,serif" font-size="15.00">register deadline</text>
</g>
<!-- 2082704392160&#45;&#45;2082704457808 -->
<g id="edge20" class="edge">
<title>2082704392160&#45;&#45;2082704457808</title>
<path fill="none" stroke="black" d="M2041.52,-598.88C2094.26,-596.66 2214.26,-591.6 2293.91,-588.24"/>
</g>
<!-- 2082704383184 -->
<g id="node30" class="node">
<title>2082704383184</title>
<ellipse fill="black" stroke="black" cx="556.43" cy="-639" rx="2.7" ry="2.7"/>
</g>
<!-- 2082704382560&#45;&#45;2082704383184 -->
<g id="edge28" class="edge">
<title>2082704382560&#45;&#45;2082704383184</title>
<path fill="none" stroke="black" d="M257.65,-630.73C330.27,-632.75 530.07,-638.3 553.23,-638.94"/>
</g>
<!-- 2082704384816 -->
<g id="node31" class="node">
<title>2082704384816</title>
<ellipse fill="none" stroke="black" cx="556.43" cy="-600" rx="27" ry="18"/>
<text text-anchor="middle" x="556.43" y="-594" font-family="Times New Roman,serif" font-size="15.00">seq</text>
</g>
<!-- 2082704382560&#45;&#45;2082704384816 -->
<g id="edge33" class="edge">
<title>2082704382560&#45;&#45;2082704384816</title>
<path fill="none" stroke="black" d="M257.65,-627.57C318.52,-621.93 468.73,-608.03 529.4,-602.41"/>
</g>
<!-- 2082704383760 -->
<g id="node32" class="node">
<title>2082704383760</title>
<ellipse fill="none" stroke="black" cx="925.96" cy="-612" rx="183.91" ry="18"/>
<text text-anchor="middle" x="925.96" y="-606" font-family="Times New Roman,serif" font-size="15.00">enter senddate letter to competent authority</text>
</g>
<!-- 2082704384816&#45;&#45;2082704383760 -->
<g id="edge29" class="edge">
<title>2082704384816&#45;&#45;2082704383760</title>
<path fill="none" stroke="black" d="M583.86,-600.86C619.5,-602.03 685.98,-604.2 750.86,-606.32"/>
</g>
<!-- 2082704380448 -->
<g id="node33" class="node">
<title>2082704380448</title>
<ellipse fill="none" stroke="black" cx="925.96" cy="-558" rx="27" ry="18"/>
<text text-anchor="middle" x="925.96" y="-552" font-family="Times New Roman,serif" font-size="15.00">xor</text>
</g>
<!-- 2082704384816&#45;&#45;2082704380448 -->
<g id="edge32" class="edge">
<title>2082704384816&#45;&#45;2082704380448</title>
<path fill="none" stroke="black" d="M583.57,-597.01C651.3,-589.27 831.89,-568.64 899.2,-560.94"/>
</g>
<!-- 2082704392112 -->
<g id="node34" class="node">
<title>2082704392112</title>
<ellipse fill="black" stroke="black" cx="1301.63" cy="-577" rx="2.7" ry="2.7"/>
</g>
<!-- 2082704380448&#45;&#45;2082704392112 -->
<g id="edge30" class="edge">
<title>2082704380448&#45;&#45;2082704392112</title>
<path fill="none" stroke="black" d="M953.23,-559.34C1033.97,-563.44 1274.44,-575.67 1298.66,-576.9"/>
</g>
<!-- 2082704377088 -->
<g id="node35" class="node">
<title>2082704377088</title>
<ellipse fill="none" stroke="black" cx="1301.63" cy="-538" rx="155.76" ry="18"/>
<text text-anchor="middle" x="1301.63" y="-532" font-family="Times New Roman,serif" font-size="15.00">enter senddate letter to stakeholders</text>
</g>
<!-- 2082704380448&#45;&#45;2082704377088 -->
<g id="edge31" class="edge">
<title>2082704380448&#45;&#45;2082704377088</title>
<path fill="none" stroke="black" d="M953.23,-556.59C995.85,-554.31 1082.95,-549.65 1159.27,-545.57"/>
</g>
<!-- 2082704379392 -->
<g id="node37" class="node">
<title>2082704379392</title>
<ellipse fill="none" stroke="black" cx="556.43" cy="-546" rx="149.62" ry="18"/>
<text text-anchor="middle" x="556.43" y="-540" font-family="Times New Roman,serif" font-size="15.00">forward to the competent authority</text>
</g>
<!-- 2082704381984&#45;&#45;2082704379392 -->
<g id="edge35" class="edge">
<title>2082704381984&#45;&#45;2082704379392</title>
<path fill="none" stroke="black" d="M257.65,-521.19C295.54,-524.34 368.06,-530.39 432.04,-535.72"/>
</g>
<!-- 2082704376464 -->
<g id="node38" class="node">
<title>2082704376464</title>
<ellipse fill="none" stroke="black" cx="556.43" cy="-492" rx="119.93" ry="18"/>
<text text-anchor="middle" x="556.43" y="-486" font-family="Times New Roman,serif" font-size="15.00">phase application received</text>
</g>
<!-- 2082704381984&#45;&#45;2082704376464 -->
<g id="edge36" class="edge">
<title>2082704381984&#45;&#45;2082704376464</title>
<path fill="none" stroke="black" d="M257.65,-516.81C299.23,-513.35 382.51,-506.41 450.46,-500.75"/>
</g>
<!-- 2082704380592 -->
<g id="node39" class="node">
<title>2082704380592</title>
<ellipse fill="none" stroke="black" cx="556.43" cy="-438" rx="45.21" ry="18"/>
<text text-anchor="middle" x="556.43" y="-432" font-family="Times New Roman,serif" font-size="15.00">xor loop</text>
</g>
<!-- 2082704381984&#45;&#45;2082704380592 -->
<g id="edge70" class="edge">
<title>2082704381984&#45;&#45;2082704380592</title>
<path fill="none" stroke="black" d="M256.29,-512.78C312.68,-498.68 450.47,-464.24 517.53,-447.47"/>
</g>
<!-- 2082704376800 -->
<g id="node40" class="node">
<title>2082704376800</title>
<ellipse fill="none" stroke="black" cx="925.96" cy="-438" rx="27" ry="18"/>
<text text-anchor="middle" x="925.96" y="-432" font-family="Times New Roman,serif" font-size="15.00">seq</text>
</g>
<!-- 2082704380592&#45;&#45;2082704376800 -->
<g id="edge68" class="edge">
<title>2082704380592&#45;&#45;2082704376800</title>
<path fill="none" stroke="black" d="M602.13,-438C679.61,-438 836.51,-438 898.71,-438"/>
</g>
<!-- 2082704377664 -->
<g id="node72" class="node">
<title>2082704377664</title>
<ellipse fill="black" stroke="black" cx="925.96" cy="-399" rx="2.7" ry="2.7"/>
</g>
<!-- 2082704380592&#45;&#45;2082704377664 -->
<g id="edge69" class="edge">
<title>2082704380592&#45;&#45;2082704377664</title>
<path fill="none" stroke="black" d="M600.67,-433.41C692.51,-423.67 900.5,-401.59 922.98,-399.21"/>
</g>
<!-- 2082704458576 -->
<g id="node41" class="node">
<title>2082704458576</title>
<ellipse fill="none" stroke="black" cx="1301.63" cy="-438" rx="27" ry="18"/>
<text text-anchor="middle" x="1301.63" y="-432" font-family="Times New Roman,serif" font-size="15.00">xor</text>
</g>
<!-- 2082704376800&#45;&#45;2082704458576 -->
<g id="edge55" class="edge">
<title>2082704376800&#45;&#45;2082704458576</title>
<path fill="none" stroke="black" d="M953.23,-438C1021.84,-438 1205.81,-438 1274.38,-438"/>
</g>
<!-- 2082704458480 -->
<g id="node60" class="node">
<title>2082704458480</title>
<ellipse fill="none" stroke="black" cx="1301.63" cy="-252" rx="27" ry="18"/>
<text text-anchor="middle" x="1301.63" y="-246" font-family="Times New Roman,serif" font-size="15.00">xor</text>
</g>
<!-- 2082704376800&#45;&#45;2082704458480 -->
<g id="edge67" class="edge">
<title>2082704376800&#45;&#45;2082704458480</title>
<path fill="none" stroke="black" d="M948.39,-427.33C1014.3,-394.52 1213.49,-295.37 1279.28,-262.63"/>
</g>
<!-- 2082704458816 -->
<g id="node42" class="node">
<title>2082704458816</title>
<ellipse fill="none" stroke="black" cx="1661.43" cy="-492" rx="113.79" ry="18"/>
<text text-anchor="middle" x="1661.43" y="-486" font-family="Times New Roman,serif" font-size="15.00">send confirmation receipt</text>
</g>
<!-- 2082704458576&#45;&#45;2082704458816 -->
<g id="edge37" class="edge">
<title>2082704458576&#45;&#45;2082704458816</title>
<path fill="none" stroke="black" d="M1328.36,-441.88C1379.8,-449.65 1497.26,-467.37 1577.75,-479.52"/>
</g>
<!-- 2082704458432 -->
<g id="node43" class="node">
<title>2082704458432</title>
<ellipse fill="none" stroke="black" cx="1661.43" cy="-438" rx="27" ry="18"/>
<text text-anchor="middle" x="1661.43" y="-432" font-family="Times New Roman,serif" font-size="15.00">seq</text>
</g>
<!-- 2082704458576&#45;&#45;2082704458432 -->
<g id="edge44" class="edge">
<title>2082704458576&#45;&#45;2082704458432</title>
<path fill="none" stroke="black" d="M1328.94,-438C1395.11,-438 1567.87,-438 1634.08,-438"/>
</g>
<!-- 2082704458864 -->
<g id="node50" class="node">
<title>2082704458864</title>
<ellipse fill="none" stroke="black" cx="1661.43" cy="-357" rx="27" ry="18"/>
<text text-anchor="middle" x="1661.43" y="-351" font-family="Times New Roman,serif" font-size="15.00">seq</text>
</g>
<!-- 2082704458576&#45;&#45;2082704458864 -->
<g id="edge54" class="edge">
<title>2082704458576&#45;&#45;2082704458864</title>
<path fill="none" stroke="black" d="M1327.79,-432.3C1393.48,-417.43 1569.64,-377.55 1635.3,-362.69"/>
</g>
<!-- 2082704459200 -->
<g id="node44" class="node">
<title>2082704459200</title>
<ellipse fill="none" stroke="black" cx="2014.07" cy="-492" rx="27" ry="18"/>
<text text-anchor="middle" x="2014.07" y="-486" font-family="Times New Roman,serif" font-size="15.00">xor</text>
</g>
<!-- 2082704458432&#45;&#45;2082704459200 -->
<g id="edge40" class="edge">
<title>2082704458432&#45;&#45;2082704459200</title>
<path fill="none" stroke="black" d="M1688.22,-441.97C1753.06,-451.96 1922.37,-478.03 1987.25,-488.02"/>
</g>
<!-- 2082704459584 -->
<g id="node47" class="node">
<title>2082704459584</title>
<ellipse fill="none" stroke="black" cx="2014.07" cy="-438" rx="27" ry="18"/>
<text text-anchor="middle" x="2014.07" y="-432" font-family="Times New Roman,serif" font-size="15.00">xor</text>
</g>
<!-- 2082704458432&#45;&#45;2082704459584 -->
<g id="edge43" class="edge">
<title>2082704458432&#45;&#45;2082704459584</title>
<path fill="none" stroke="black" d="M1688.79,-438C1753.93,-438 1921.93,-438 1986.89,-438"/>
</g>
<!-- 2082704459920 -->
<g id="node45" class="node">
<title>2082704459920</title>
<ellipse fill="black" stroke="black" cx="2371.83" cy="-530" rx="2.7" ry="2.7"/>
</g>
<!-- 2082704459200&#45;&#45;2082704459920 -->
<g id="edge38" class="edge">
<title>2082704459200&#45;&#45;2082704459920</title>
<path fill="none" stroke="black" d="M2041.23,-494.79C2118.9,-503.09 2344.26,-527.16 2368.68,-529.77"/>
</g>
<!-- 2082704459824 -->
<g id="node46" class="node">
<title>2082704459824</title>
<ellipse fill="none" stroke="black" cx="2371.83" cy="-491" rx="166" ry="18"/>
<text text-anchor="middle" x="2371.83" y="-485" font-family="Times New Roman,serif" font-size="15.00">enter senddate procedure confirmation</text>
</g>
<!-- 2082704459200&#45;&#45;2082704459824 -->
<g id="edge39" class="edge">
<title>2082704459200&#45;&#45;2082704459824</title>
<path fill="none" stroke="black" d="M2041.52,-491.93C2076.87,-491.83 2142.43,-491.64 2205.81,-491.46"/>
</g>
<!-- 2082704459872 -->
<g id="node48" class="node">
<title>2082704459872</title>
<ellipse fill="black" stroke="black" cx="2371.83" cy="-449" rx="2.7" ry="2.7"/>
</g>
<!-- 2082704459584&#45;&#45;2082704459872 -->
<g id="edge41" class="edge">
<title>2082704459584&#45;&#45;2082704459872</title>
<path fill="none" stroke="black" d="M2041.52,-438.82C2119.46,-441.23 2344.32,-448.18 2368.68,-448.93"/>
</g>
<!-- 2082704460256 -->
<g id="node49" class="node">
<title>2082704460256</title>
<ellipse fill="none" stroke="black" cx="2371.83" cy="-410" rx="143.48" ry="18"/>
<text text-anchor="middle" x="2371.83" y="-404" font-family="Times New Roman,serif" font-size="15.00">enter senddate acknowledgement</text>
</g>
<!-- 2082704459584&#45;&#45;2082704460256 -->
<g id="edge42" class="edge">
<title>2082704459584&#45;&#45;2082704460256</title>
<path fill="none" stroke="black" d="M2041.23,-435.94C2084.64,-432.52 2174.18,-425.48 2248.99,-419.59"/>
</g>
<!-- 2082704459440 -->
<g id="node51" class="node">
<title>2082704459440</title>
<ellipse fill="none" stroke="black" cx="2014.07" cy="-384" rx="139.89" ry="18"/>
<text text-anchor="middle" x="2014.07" y="-378" font-family="Times New Roman,serif" font-size="15.00">regular procedure without MER</text>
</g>
<!-- 2082704458864&#45;&#45;2082704459440 -->
<g id="edge45" class="edge">
<title>2082704458864&#45;&#45;2082704459440</title>
<path fill="none" stroke="black" d="M1688.5,-359.01C1731.35,-362.31 1819.27,-369.08 1892.81,-374.74"/>
</g>
<!-- 2082704458768 -->
<g id="node52" class="node">
<title>2082704458768</title>
<ellipse fill="none" stroke="black" cx="2014.07" cy="-330" rx="27" ry="18"/>
<text text-anchor="middle" x="2014.07" y="-324" font-family="Times New Roman,serif" font-size="15.00">xor</text>
</g>
<!-- 2082704458864&#45;&#45;2082704458768 -->
<g id="edge50" class="edge">
<title>2082704458864&#45;&#45;2082704458768</title>
<path fill="none" stroke="black" d="M1688.5,-354.99C1753.42,-349.99 1921.74,-337.03 1986.83,-332.02"/>
</g>
<!-- 2082704459248 -->
<g id="node57" class="node">
<title>2082704459248</title>
<ellipse fill="none" stroke="black" cx="2014.07" cy="-276" rx="27" ry="18"/>
<text text-anchor="middle" x="2014.07" y="-270" font-family="Times New Roman,serif" font-size="15.00">xor</text>
</g>
<!-- 2082704458864&#45;&#45;2082704459248 -->
<g id="edge53" class="edge">
<title>2082704458864&#45;&#45;2082704459248</title>
<path fill="none" stroke="black" d="M1687.37,-351.24C1751.83,-336.35 1923.45,-296.7 1988.03,-281.79"/>
</g>
<!-- 2082704460592 -->
<g id="node53" class="node">
<title>2082704460592</title>
<ellipse fill="black" stroke="black" cx="2371.83" cy="-369" rx="2.7" ry="2.7"/>
</g>
<!-- 2082704458768&#45;&#45;2082704460592 -->
<g id="edge46" class="edge">
<title>2082704458768&#45;&#45;2082704460592</title>
<path fill="none" stroke="black" d="M2041.23,-332.87C2118.9,-341.38 2344.26,-366.09 2368.68,-368.76"/>
</g>
<!-- 2082704460496 -->
<g id="node54" class="node">
<title>2082704460496</title>
<ellipse fill="none" stroke="black" cx="2371.83" cy="-330" rx="27" ry="18"/>
<text text-anchor="middle" x="2371.83" y="-324" font-family="Times New Roman,serif" font-size="15.00">seq</text>
</g>
<!-- 2082704458768&#45;&#45;2082704460496 -->
<g id="edge49" class="edge">
<title>2082704458768&#45;&#45;2082704460496</title>
<path fill="none" stroke="black" d="M2041.52,-330C2107.54,-330 2278.99,-330 2344.69,-330"/>
</g>
<!-- 2082704460448 -->
<g id="node55" class="node">
<title>2082704460448</title>
<ellipse fill="none" stroke="black" cx="2724.47" cy="-357" rx="132.73" ry="18"/>
<text text-anchor="middle" x="2724.47" y="-351" font-family="Times New Roman,serif" font-size="15.00">create procedure confirmation</text>
</g>
<!-- 2082704460496&#45;&#45;2082704460448 -->
<g id="edge47" class="edge">
<title>2082704460496&#45;&#45;2082704460448</title>
<path fill="none" stroke="black" d="M2398.9,-332.01C2442.7,-335.38 2533.6,-342.38 2608.08,-348.12"/>
</g>
<!-- 2082704460880 -->
<g id="node56" class="node">
<title>2082704460880</title>
<ellipse fill="none" stroke="black" cx="2724.47" cy="-303" rx="40.6" ry="18"/>
<text text-anchor="middle" x="2724.47" y="-297" font-family="Times New Roman,serif" font-size="15.00">publish</text>
</g>
<!-- 2082704460496&#45;&#45;2082704460880 -->
<g id="edge48" class="edge">
<title>2082704460496&#45;&#45;2082704460880</title>
<path fill="none" stroke="black" d="M2398.9,-327.99C2459.84,-323.3 2611.94,-311.59 2684.18,-306.03"/>
</g>
<!-- 2082704460832 -->
<g id="node58" class="node">
<title>2082704460832</title>
<ellipse fill="black" stroke="black" cx="2371.83" cy="-291" rx="2.7" ry="2.7"/>
</g>
<!-- 2082704459248&#45;&#45;2082704460832 -->
<g id="edge51" class="edge">
<title>2082704459248&#45;&#45;2082704460832</title>
<path fill="none" stroke="black" d="M2041.52,-277.12C2119.46,-280.4 2344.32,-289.88 2368.68,-290.91"/>
</g>
<!-- 2082704460928 -->
<g id="node59" class="node">
<title>2082704460928</title>
<ellipse fill="none" stroke="black" cx="2371.83" cy="-252" rx="124.54" ry="18"/>
<text text-anchor="middle" x="2371.83" y="-246" font-family="Times New Roman,serif" font-size="15.00">create publication document</text>
</g>
<!-- 2082704459248&#45;&#45;2082704460928 -->
<g id="edge52" class="edge">
<title>2082704459248&#45;&#45;2082704460928</title>
<path fill="none" stroke="black" d="M2041.23,-274.24C2086.4,-271.19 2181.53,-264.77 2258.04,-259.61"/>
</g>
<!-- 2082704460544 -->
<g id="node61" class="node">
<title>2082704460544</title>
<ellipse fill="black" stroke="black" cx="1661.43" cy="-252" rx="2.7" ry="2.7"/>
</g>
<!-- 2082704458480&#45;&#45;2082704460544 -->
<g id="edge56" class="edge">
<title>2082704458480&#45;&#45;2082704460544</title>
<path fill="none" stroke="black" d="M1328.94,-252C1407.05,-252 1633.71,-252 1658.27,-252"/>
</g>
<!-- 2082704458096 -->
<g id="node62" class="node">
<title>2082704458096</title>
<ellipse fill="none" stroke="black" cx="1661.43" cy="-155" rx="27" ry="18"/>
<text text-anchor="middle" x="1661.43" y="-149" font-family="Times New Roman,serif" font-size="15.00">seq</text>
</g>
<!-- 2082704458480&#45;&#45;2082704458096 -->
<g id="edge66" class="edge">
<title>2082704458480&#45;&#45;2082704458096</title>
<path fill="none" stroke="black" d="M1327.22,-245.33C1392.75,-227.57 1570.96,-179.25 1636.14,-161.59"/>
</g>
<!-- 2082704458192 -->
<g id="node63" class="node">
<title>2082704458192</title>
<ellipse fill="none" stroke="black" cx="2014.07" cy="-182" rx="27" ry="18"/>
<text text-anchor="middle" x="2014.07" y="-176" font-family="Times New Roman,serif" font-size="15.00">xor</text>
</g>
<!-- 2082704458096&#45;&#45;2082704458192 -->
<g id="edge59" class="edge">
<title>2082704458096&#45;&#45;2082704458192</title>
<path fill="none" stroke="black" d="M1688.5,-157.01C1753.42,-162.01 1921.74,-174.97 1986.83,-179.98"/>
</g>
<!-- 2082704460160 -->
<g id="node66" class="node">
<title>2082704460160</title>
<ellipse fill="none" stroke="black" cx="2014.07" cy="-128" rx="27" ry="18"/>
<text text-anchor="middle" x="2014.07" y="-122" font-family="Times New Roman,serif" font-size="15.00">xor</text>
</g>
<!-- 2082704458096&#45;&#45;2082704460160 -->
<g id="edge62" class="edge">
<title>2082704458096&#45;&#45;2082704460160</title>
<path fill="none" stroke="black" d="M1688.5,-152.99C1753.42,-147.99 1921.74,-135.03 1986.83,-130.02"/>
</g>
<!-- 2082704460784 -->
<g id="node69" class="node">
<title>2082704460784</title>
<ellipse fill="none" stroke="black" cx="2014.07" cy="-57" rx="27" ry="18"/>
<text text-anchor="middle" x="2014.07" y="-51" font-family="Times New Roman,serif" font-size="15.00">xor</text>
</g>
<!-- 2082704458096&#45;&#45;2082704460784 -->
<g id="edge65" class="edge">
<title>2082704458096&#45;&#45;2082704460784</title>
<path fill="none" stroke="black" d="M1686.81,-148.19C1751.11,-130.22 1924.74,-81.69 1988.85,-63.77"/>
</g>
<!-- 2082704461216 -->
<g id="node64" class="node">
<title>2082704461216</title>
<ellipse fill="black" stroke="black" cx="2371.83" cy="-213" rx="2.7" ry="2.7"/>
</g>
<!-- 2082704458192&#45;&#45;2082704461216 -->
<g id="edge57" class="edge">
<title>2082704458192&#45;&#45;2082704461216</title>
<path fill="none" stroke="black" d="M2041.23,-184.28C2118.9,-191.05 2344.26,-210.68 2368.68,-212.81"/>
</g>
<!-- 2082704461600 -->
<g id="node65" class="node">
<title>2082704461600</title>
<ellipse fill="none" stroke="black" cx="2371.83" cy="-174" rx="126.59" ry="18"/>
<text text-anchor="middle" x="2371.83" y="-168" font-family="Times New Roman,serif" font-size="15.00">send procedure confirmation</text>
</g>
<!-- 2082704458192&#45;&#45;2082704461600 -->
<g id="edge58" class="edge">
<title>2082704458192&#45;&#45;2082704461600</title>
<path fill="none" stroke="black" d="M2041.52,-181.41C2084.52,-180.44 2172.22,-178.47 2246.31,-176.8"/>
</g>
<!-- 2082704461120 -->
<g id="node67" class="node">
<title>2082704461120</title>
<ellipse fill="black" stroke="black" cx="2371.83" cy="-135" rx="2.7" ry="2.7"/>
</g>
<!-- 2082704460160&#45;&#45;2082704461120 -->
<g id="edge60" class="edge">
<title>2082704460160&#45;&#45;2082704461120</title>
<path fill="none" stroke="black" d="M2041.52,-128.52C2119.46,-130.05 2344.32,-134.48 2368.68,-134.96"/>
</g>
<!-- 2082704461552 -->
<g id="node68" class="node">
<title>2082704461552</title>
<ellipse fill="none" stroke="black" cx="2371.83" cy="-96" rx="124.54" ry="18"/>
<text text-anchor="middle" x="2371.83" y="-90" font-family="Times New Roman,serif" font-size="15.00">registration date publication</text>
</g>
<!-- 2082704460160&#45;&#45;2082704461552 -->
<g id="edge61" class="edge">
<title>2082704460160&#45;&#45;2082704461552</title>
<path fill="none" stroke="black" d="M2041.23,-125.65C2087.77,-121.46 2187.33,-112.51 2264.91,-105.53"/>
</g>
<!-- 2082704461840 -->
<g id="node70" class="node">
<title>2082704461840</title>
<ellipse fill="black" stroke="black" cx="2371.83" cy="-57" rx="2.7" ry="2.7"/>
</g>
<!-- 2082704460784&#45;&#45;2082704461840 -->
<g id="edge63" class="edge">
<title>2082704460784&#45;&#45;2082704461840</title>
<path fill="none" stroke="black" d="M2041.52,-57C2119.46,-57 2344.32,-57 2368.68,-57"/>
</g>
<!-- 2082704461456 -->
<g id="node71" class="node">
<title>2082704461456</title>
<ellipse fill="none" stroke="black" cx="2371.83" cy="-18" rx="102.02" ry="18"/>
<text text-anchor="middle" x="2371.83" y="-12" font-family="Times New Roman,serif" font-size="15.00">start WABOprocedure</text>
</g>
<!-- 2082704460784&#45;&#45;2082704461456 -->
<g id="edge64" class="edge">
<title>2082704460784&#45;&#45;2082704461456</title>
<path fill="none" stroke="black" d="M2041.23,-54.13C2091.7,-48.6 2204.53,-36.23 2284.06,-27.51"/>
</g>
<!-- 2082704391776 -->
<g id="node74" class="node">
<title>2082704391776</title>
<ellipse fill="black" stroke="black" cx="556.43" cy="-399" rx="2.7" ry="2.7"/>
</g>
<!-- 2082704384240&#45;&#45;2082704391776 -->
<g id="edge72" class="edge">
<title>2082704384240&#45;&#45;2082704391776</title>
<path fill="none" stroke="black" d="M256.56,-338.12C328.53,-352.78 531.51,-394.13 553.49,-398.61"/>
</g>
<!-- 2082704381744 -->
<g id="node75" class="node">
<title>2082704381744</title>
<ellipse fill="none" stroke="black" cx="556.43" cy="-360" rx="87.18" ry="18"/>
<text text-anchor="middle" x="556.43" y="-354" font-family="Times New Roman,serif" font-size="15.00">phased application</text>
</g>
<!-- 2082704384240&#45;&#45;2082704381744 -->
<g id="edge73" class="edge">
<title>2082704384240&#45;&#45;2082704381744</title>
<path fill="none" stroke="black" d="M257.65,-335.19C304.35,-339.08 403.67,-347.35 474.76,-353.28"/>
</g>
<!-- 2082704377616 -->
<g id="node76" class="node">
<title>2082704377616</title>
<ellipse fill="none" stroke="black" cx="556.43" cy="-306" rx="117.89" ry="18"/>
<text text-anchor="middle" x="556.43" y="-300" font-family="Times New Roman,serif" font-size="15.00">read publication date field</text>
</g>
<!-- 2082704384240&#45;&#45;2082704377616 -->
<g id="edge74" class="edge">
<title>2082704384240&#45;&#45;2082704377616</title>
<path fill="none" stroke="black" d="M257.65,-330.81C299.53,-327.32 383.72,-320.31 451.93,-314.62"/>
</g>
<!-- 2082704382464 -->
<g id="node77" class="node">
<title>2082704382464</title>
<ellipse fill="none" stroke="black" cx="556.43" cy="-252" rx="27" ry="18"/>
<text text-anchor="middle" x="556.43" y="-246" font-family="Times New Roman,serif" font-size="15.00">seq</text>
</g>
<!-- 2082704384240&#45;&#45;2082704382464 -->
<g id="edge77" class="edge">
<title>2082704384240&#45;&#45;2082704382464</title>
<path fill="none" stroke="black" d="M256.29,-326.78C316.76,-311.66 470.81,-273.15 530.9,-258.13"/>
</g>
<!-- 2082704379296 -->
<g id="node80" class="node">
<title>2082704379296</title>
<ellipse fill="none" stroke="black" cx="556.43" cy="-198" rx="52.89" ry="18"/>
<text text-anchor="middle" x="556.43" y="-192" font-family="Times New Roman,serif" font-size="15.00">close case</text>
</g>
<!-- 2082704384240&#45;&#45;2082704379296 -->
<g id="edge78" class="edge">
<title>2082704384240&#45;&#45;2082704379296</title>
<path fill="none" stroke="black" d="M253.93,-323.61C309.91,-300.29 455.54,-239.62 521.77,-212.03"/>
</g>
<!-- 2082704458912 -->
<g id="node78" class="node">
<title>2082704458912</title>
<ellipse fill="none" stroke="black" cx="925.96" cy="-279" rx="92.3" ry="18"/>
<text text-anchor="middle" x="925.96" y="-273" font-family="Times New Roman,serif" font-size="15.00">phase archived case</text>
</g>
<!-- 2082704382464&#45;&#45;2082704458912 -->
<g id="edge75" class="edge">
<title>2082704382464&#45;&#45;2082704458912</title>
<path fill="none" stroke="black" d="M583.57,-253.92C636.05,-257.78 756.28,-266.61 839.08,-272.69"/>
</g>
<!-- 2082704458240 -->
<g id="node79" class="node">
<title>2082704458240</title>
<ellipse fill="none" stroke="black" cx="925.96" cy="-225" rx="88.71" ry="18"/>
<text text-anchor="middle" x="925.96" y="-219" font-family="Times New Roman,serif" font-size="15.00">phase case handled</text>
</g>
<!-- 2082704382464&#45;&#45;2082704458240 -->
<g id="edge76" class="edge">
<title>2082704382464&#45;&#45;2082704458240</title>
<path fill="none" stroke="black" d="M583.57,-250.08C636.62,-246.18 758.92,-237.2 841.78,-231.11"/>
</g>
</g>
</svg>
