<?xml version="1.0" encoding="UTF-8" standalone="no"?>
<!DOCTYPE svg PUBLIC "-//W3C//DTD SVG 1.1//EN"
 "http://www.w3.org/Graphics/SVG/1.1/DTD/svg11.dtd">
<!-- Generated by graphviz version 11.0.0 (20240428.1522)
 -->
<!-- Title: pt Pages: 1 -->
<svg width="3826pt" height="666pt"
 viewBox="0.00 0.00 3826.30 666.00" xmlns="http://www.w3.org/2000/svg" xmlns:xlink="http://www.w3.org/1999/xlink">
<g id="graph0" class="graph" transform="scale(1 1) rotate(0) translate(4 662)">
<title>pt</title>
<polygon fill="white" stroke="none" points="-4,4 -4,-662 3822.3,-662 3822.3,4 -4,4"/>
<!-- 2082703372704 -->
<g id="node1" class="node">
<title>2082703372704</title>
<ellipse fill="none" stroke="black" cx="27" cy="-477" rx="27" ry="18"/>
<text text-anchor="middle" x="27" y="-471" font-family="Times New Roman,serif" font-size="15.00">seq</text>
</g>
<!-- 2082703373904 -->
<g id="node2" class="node">
<title>2082703373904</title>
<ellipse fill="none" stroke="black" cx="230.41" cy="-531" rx="140.41" ry="18"/>
<text text-anchor="middle" x="230.41" y="-525" font-family="Times New Roman,serif" font-size="15.00">register submission date request</text>
</g>
<!-- 2082703372704&#45;&#45;2082703373904 -->
<g id="edge1" class="edge">
<title>2082703372704&#45;&#45;2082703373904</title>
<path fill="none" stroke="black" d="M52.29,-483.51C80.75,-491.14 128.96,-504.07 167.9,-514.51"/>
</g>
<!-- 2082703367856 -->
<g id="node3" class="node">
<title>2082703367856</title>
<ellipse fill="none" stroke="black" cx="230.41" cy="-477" rx="27" ry="18"/>
<text text-anchor="middle" x="230.41" y="-471" font-family="Times New Roman,serif" font-size="15.00">and</text>
</g>
<!-- 2082703372704&#45;&#45;2082703367856 -->
<g id="edge82" class="edge">
<title>2082703372704&#45;&#45;2082703367856</title>
<path fill="none" stroke="black" d="M54.33,-477C92.93,-477 164.47,-477 203.07,-477"/>
</g>
<!-- 2082703369968 -->
<g id="node84" class="node">
<title>2082703369968</title>
<ellipse fill="none" stroke="black" cx="230.41" cy="-345" rx="27" ry="18"/>
<text text-anchor="middle" x="230.41" y="-339" font-family="Times New Roman,serif" font-size="15.00">xor</text>
</g>
<!-- 2082703372704&#45;&#45;2082703369968 -->
<g id="edge90" class="edge">
<title>2082703372704&#45;&#45;2082703369968</title>
<path fill="none" stroke="black" d="M46.95,-464.58C85.33,-439.42 171.9,-382.69 210.36,-357.48"/>
</g>
<!-- 2082703360464 -->
<g id="node4" class="node">
<title>2082703360464</title>
<ellipse fill="none" stroke="black" cx="526.75" cy="-558" rx="119.93" ry="18"/>
<text text-anchor="middle" x="526.75" y="-552" font-family="Times New Roman,serif" font-size="15.00">phase application received</text>
</g>
<!-- 2082703367856&#45;&#45;2082703360464 -->
<g id="edge2" class="edge">
<title>2082703367856&#45;&#45;2082703360464</title>
<path fill="none" stroke="black" d="M256,-483.77C302.14,-496.47 402.88,-524.19 467.34,-541.93"/>
</g>
<!-- 2082703374912 -->
<g id="node5" class="node">
<title>2082703374912</title>
<ellipse fill="none" stroke="black" cx="526.75" cy="-504" rx="27" ry="18"/>
<text text-anchor="middle" x="526.75" y="-498" font-family="Times New Roman,serif" font-size="15.00">xor</text>
</g>
<!-- 2082703367856&#45;&#45;2082703374912 -->
<g id="edge5" class="edge">
<title>2082703367856&#45;&#45;2082703374912</title>
<path fill="none" stroke="black" d="M257.53,-479.4C313.38,-484.52 443.88,-496.49 499.68,-501.61"/>
</g>
<!-- 2082703371552 -->
<g id="node8" class="node">
<title>2082703371552</title>
<ellipse fill="none" stroke="black" cx="526.75" cy="-450" rx="27" ry="18"/>
<text text-anchor="middle" x="526.75" y="-444" font-family="Times New Roman,serif" font-size="15.00">seq</text>
</g>
<!-- 2082703367856&#45;&#45;2082703371552 -->
<g id="edge81" class="edge">
<title>2082703367856&#45;&#45;2082703371552</title>
<path fill="none" stroke="black" d="M257.53,-474.6C313.38,-469.48 443.88,-457.51 499.68,-452.39"/>
</g>
<!-- 2082703370688 -->
<g id="node6" class="node">
<title>2082703370688</title>
<ellipse fill="black" stroke="black" cx="793.4" cy="-543" rx="2.7" ry="2.7"/>
</g>
<!-- 2082703374912&#45;&#45;2082703370688 -->
<g id="edge3" class="edge">
<title>2082703374912&#45;&#45;2082703370688</title>
<path fill="none" stroke="black" d="M553.6,-507.81C616.04,-517.01 771.29,-539.89 790.45,-542.71"/>
</g>
<!-- 2082703371024 -->
<g id="node7" class="node">
<title>2082703371024</title>
<ellipse fill="none" stroke="black" cx="793.4" cy="-504" rx="110.72" ry="18"/>
<text text-anchor="middle" x="793.4" y="-498" font-family="Times New Roman,serif" font-size="15.00">phase procedure aborted</text>
</g>
<!-- 2082703374912&#45;&#45;2082703371024 -->
<g id="edge4" class="edge">
<title>2082703374912&#45;&#45;2082703371024</title>
<path fill="none" stroke="black" d="M554.09,-504C584.1,-504 635.08,-504 682.21,-504"/>
</g>
<!-- 2082703365168 -->
<g id="node9" class="node">
<title>2082703365168</title>
<ellipse fill="none" stroke="black" cx="793.4" cy="-450" rx="27" ry="18"/>
<text text-anchor="middle" x="793.4" y="-444" font-family="Times New Roman,serif" font-size="15.00">xor</text>
</g>
<!-- 2082703371552&#45;&#45;2082703365168 -->
<g id="edge12" class="edge">
<title>2082703371552&#45;&#45;2082703365168</title>
<path fill="none" stroke="black" d="M554.09,-450C604.82,-450 715.52,-450 766.16,-450"/>
</g>
<!-- 2082703369872 -->
<g id="node16" class="node">
<title>2082703369872</title>
<ellipse fill="none" stroke="black" cx="793.4" cy="-396" rx="45.21" ry="18"/>
<text text-anchor="middle" x="793.4" y="-390" font-family="Times New Roman,serif" font-size="15.00">xor loop</text>
</g>
<!-- 2082703371552&#45;&#45;2082703369872 -->
<g id="edge63" class="edge">
<title>2082703371552&#45;&#45;2082703369872</title>
<path fill="none" stroke="black" d="M553.12,-444.82C599.31,-435.4 697.42,-415.38 752.59,-404.12"/>
</g>
<!-- 2082703374048 -->
<g id="node67" class="node">
<title>2082703374048</title>
<ellipse fill="none" stroke="black" cx="793.4" cy="-330" rx="27" ry="18"/>
<text text-anchor="middle" x="793.4" y="-324" font-family="Times New Roman,serif" font-size="15.00">xor</text>
</g>
<!-- 2082703371552&#45;&#45;2082703374048 -->
<g id="edge80" class="edge">
<title>2082703371552&#45;&#45;2082703374048</title>
<path fill="none" stroke="black" d="M549.85,-439.98C599.8,-417.33 720.84,-362.45 770.54,-339.91"/>
</g>
<!-- 2082703372896 -->
<g id="node10" class="node">
<title>2082703372896</title>
<ellipse fill="black" stroke="black" cx="967.12" cy="-489" rx="2.7" ry="2.7"/>
</g>
<!-- 2082703365168&#45;&#45;2082703372896 -->
<g id="edge6" class="edge">
<title>2082703365168&#45;&#45;2082703372896</title>
<path fill="none" stroke="black" d="M819.37,-455.67C862.9,-465.56 949.46,-485.22 964.02,-488.52"/>
</g>
<!-- 2082703375776 -->
<g id="node11" class="node">
<title>2082703375776</title>
<ellipse fill="none" stroke="black" cx="967.12" cy="-450" rx="27" ry="18"/>
<text text-anchor="middle" x="967.12" y="-444" font-family="Times New Roman,serif" font-size="15.00">seq</text>
</g>
<!-- 2082703365168&#45;&#45;2082703375776 -->
<g id="edge11" class="edge">
<title>2082703365168&#45;&#45;2082703375776</title>
<path fill="none" stroke="black" d="M820.86,-450C853.13,-450 907.35,-450 939.64,-450"/>
</g>
<!-- 2082703366560 -->
<g id="node12" class="node">
<title>2082703366560</title>
<ellipse fill="none" stroke="black" cx="1214.03" cy="-516" rx="183.91" ry="18"/>
<text text-anchor="middle" x="1214.03" y="-510" font-family="Times New Roman,serif" font-size="15.00">enter senddate letter to competent authority</text>
</g>
<!-- 2082703375776&#45;&#45;2082703366560 -->
<g id="edge7" class="edge">
<title>2082703375776&#45;&#45;2082703366560</title>
<path fill="none" stroke="black" d="M992.5,-456.57C1028.68,-466.32 1097.81,-484.95 1149.07,-498.76"/>
</g>
<!-- 2082703371936 -->
<g id="node13" class="node">
<title>2082703371936</title>
<ellipse fill="none" stroke="black" cx="1214.03" cy="-462" rx="27" ry="18"/>
<text text-anchor="middle" x="1214.03" y="-456" font-family="Times New Roman,serif" font-size="15.00">xor</text>
</g>
<!-- 2082703375776&#45;&#45;2082703371936 -->
<g id="edge10" class="edge">
<title>2082703375776&#45;&#45;2082703371936</title>
<path fill="none" stroke="black" d="M994.33,-451.28C1041.35,-453.59 1139.49,-458.4 1186.64,-460.71"/>
</g>
<!-- 2082703361664 -->
<g id="node14" class="node">
<title>2082703361664</title>
<ellipse fill="black" stroke="black" cx="1589.7" cy="-507" rx="2.7" ry="2.7"/>
</g>
<!-- 2082703371936&#45;&#45;2082703361664 -->
<g id="edge8" class="edge">
<title>2082703371936&#45;&#45;2082703361664</title>
<path fill="none" stroke="black" d="M1241.01,-465.13C1321.45,-474.82 1562.46,-503.84 1586.72,-506.76"/>
</g>
<!-- 2082703372032 -->
<g id="node15" class="node">
<title>2082703372032</title>
<ellipse fill="none" stroke="black" cx="1589.7" cy="-468" rx="155.76" ry="18"/>
<text text-anchor="middle" x="1589.7" y="-462" font-family="Times New Roman,serif" font-size="15.00">enter senddate letter to stakeholders</text>
</g>
<!-- 2082703371936&#45;&#45;2082703372032 -->
<g id="edge9" class="edge">
<title>2082703371936&#45;&#45;2082703372032</title>
<path fill="none" stroke="black" d="M1241.31,-462.42C1281.68,-463.07 1361.98,-464.36 1435.21,-465.54"/>
</g>
<!-- 2082703360512 -->
<g id="node17" class="node">
<title>2082703360512</title>
<ellipse fill="none" stroke="black" cx="967.12" cy="-396" rx="27" ry="18"/>
<text text-anchor="middle" x="967.12" y="-390" font-family="Times New Roman,serif" font-size="15.00">and</text>
</g>
<!-- 2082703369872&#45;&#45;2082703360512 -->
<g id="edge61" class="edge">
<title>2082703369872&#45;&#45;2082703360512</title>
<path fill="none" stroke="black" d="M839.07,-396C871.07,-396 913.07,-396 939.84,-396"/>
</g>
<!-- 2082703370352 -->
<g id="node66" class="node">
<title>2082703370352</title>
<ellipse fill="black" stroke="black" cx="967.12" cy="-357" rx="2.7" ry="2.7"/>
</g>
<!-- 2082703369872&#45;&#45;2082703370352 -->
<g id="edge62" class="edge">
<title>2082703369872&#45;&#45;2082703370352</title>
<path fill="none" stroke="black" d="M833.37,-387.15C879.28,-376.72 951.01,-360.43 964.05,-357.47"/>
</g>
<!-- 2082703369344 -->
<g id="node18" class="node">
<title>2082703369344</title>
<ellipse fill="none" stroke="black" cx="1214.03" cy="-396" rx="27" ry="18"/>
<text text-anchor="middle" x="1214.03" y="-390" font-family="Times New Roman,serif" font-size="15.00">xor</text>
</g>
<!-- 2082703360512&#45;&#45;2082703369344 -->
<g id="edge15" class="edge">
<title>2082703360512&#45;&#45;2082703369344</title>
<path fill="none" stroke="black" d="M994.33,-396C1041.35,-396 1139.49,-396 1186.64,-396"/>
</g>
<!-- 2082703363008 -->
<g id="node21" class="node">
<title>2082703363008</title>
<ellipse fill="none" stroke="black" cx="1214.03" cy="-336" rx="27" ry="18"/>
<text text-anchor="middle" x="1214.03" y="-330" font-family="Times New Roman,serif" font-size="15.00">xor</text>
</g>
<!-- 2082703360512&#45;&#45;2082703363008 -->
<g id="edge60" class="edge">
<title>2082703360512&#45;&#45;2082703363008</title>
<path fill="none" stroke="black" d="M992.95,-389.92C1039.89,-378.42 1141.14,-353.61 1188.13,-342.1"/>
</g>
<!-- 2082703365936 -->
<g id="node19" class="node">
<title>2082703365936</title>
<ellipse fill="black" stroke="black" cx="1589.7" cy="-429" rx="2.7" ry="2.7"/>
</g>
<!-- 2082703369344&#45;&#45;2082703365936 -->
<g id="edge13" class="edge">
<title>2082703369344&#45;&#45;2082703365936</title>
<path fill="none" stroke="black" d="M1241.31,-398.32C1322.04,-405.45 1562.51,-426.69 1586.73,-428.83"/>
</g>
<!-- 2082703367952 -->
<g id="node20" class="node">
<title>2082703367952</title>
<ellipse fill="none" stroke="black" cx="1589.7" cy="-390" rx="102.02" ry="18"/>
<text text-anchor="middle" x="1589.7" y="-384" font-family="Times New Roman,serif" font-size="15.00">OLO messaging active</text>
</g>
<!-- 2082703369344&#45;&#45;2082703367952 -->
<g id="edge14" class="edge">
<title>2082703369344&#45;&#45;2082703367952</title>
<path fill="none" stroke="black" d="M1241.31,-395.58C1291.73,-394.77 1404.44,-392.96 1487.88,-391.62"/>
</g>
<!-- 2082703369536 -->
<g id="node22" class="node">
<title>2082703369536</title>
<ellipse fill="none" stroke="black" cx="1589.7" cy="-336" rx="92.3" ry="18"/>
<text text-anchor="middle" x="1589.7" y="-330" font-family="Times New Roman,serif" font-size="15.00">terminate on request</text>
</g>
<!-- 2082703363008&#45;&#45;2082703369536 -->
<g id="edge16" class="edge">
<title>2082703363008&#45;&#45;2082703369536</title>
<path fill="none" stroke="black" d="M1241.31,-336C1293.64,-336 1413.07,-336 1497.23,-336"/>
</g>
<!-- 2082703374624 -->
<g id="node23" class="node">
<title>2082703374624</title>
<ellipse fill="none" stroke="black" cx="1589.7" cy="-282" rx="27" ry="18"/>
<text text-anchor="middle" x="1589.7" y="-276" font-family="Times New Roman,serif" font-size="15.00">seq</text>
</g>
<!-- 2082703363008&#45;&#45;2082703374624 -->
<g id="edge59" class="edge">
<title>2082703363008&#45;&#45;2082703374624</title>
<path fill="none" stroke="black" d="M1240.72,-332.29C1308.98,-322.42 1494.37,-295.63 1562.84,-285.74"/>
</g>
<!-- 2082703366896 -->
<g id="node24" class="node">
<title>2082703366896</title>
<ellipse fill="none" stroke="black" cx="1954.62" cy="-403" rx="27" ry="18"/>
<text text-anchor="middle" x="1954.62" y="-397" font-family="Times New Roman,serif" font-size="15.00">xor</text>
</g>
<!-- 2082703374624&#45;&#45;2082703366896 -->
<g id="edge42" class="edge">
<title>2082703374624&#45;&#45;2082703366896</title>
<path fill="none" stroke="black" d="M1614.51,-289.94C1680.43,-311.92 1864.74,-373.37 1930.2,-395.19"/>
</g>
<!-- 2082703371216 -->
<g id="node50" class="node">
<title>2082703371216</title>
<ellipse fill="none" stroke="black" cx="1954.62" cy="-270" rx="27" ry="18"/>
<text text-anchor="middle" x="1954.62" y="-264" font-family="Times New Roman,serif" font-size="15.00">xor</text>
</g>
<!-- 2082703374624&#45;&#45;2082703371216 -->
<g id="edge58" class="edge">
<title>2082703374624&#45;&#45;2082703371216</title>
<path fill="none" stroke="black" d="M1617.09,-281.13C1684.13,-278.91 1860.4,-273.08 1927.33,-270.87"/>
</g>
<!-- 2082703373952 -->
<g id="node25" class="node">
<title>2082703373952</title>
<ellipse fill="none" stroke="black" cx="2307.26" cy="-559" rx="27" ry="18"/>
<text text-anchor="middle" x="2307.26" y="-553" font-family="Times New Roman,serif" font-size="15.00">seq</text>
</g>
<!-- 2082703366896&#45;&#45;2082703373952 -->
<g id="edge28" class="edge">
<title>2082703366896&#45;&#45;2082703373952</title>
<path fill="none" stroke="black" d="M1977.82,-412.88C2041.05,-441.01 2221.56,-521.31 2284.38,-549.27"/>
</g>
<!-- 2082703361616 -->
<g id="node37" class="node">
<title>2082703361616</title>
<ellipse fill="none" stroke="black" cx="2307.26" cy="-403" rx="27" ry="18"/>
<text text-anchor="middle" x="2307.26" y="-397" font-family="Times New Roman,serif" font-size="15.00">and</text>
</g>
<!-- 2082703366896&#45;&#45;2082703361616 -->
<g id="edge41" class="edge">
<title>2082703366896&#45;&#45;2082703361616</title>
<path fill="none" stroke="black" d="M1981.98,-403C2047.12,-403 2215.12,-403 2280.08,-403"/>
</g>
<!-- 2082703373568 -->
<g id="node26" class="node">
<title>2082703373568</title>
<ellipse fill="none" stroke="black" cx="2626.63" cy="-640" rx="139.89" ry="18"/>
<text text-anchor="middle" x="2626.63" y="-634" font-family="Times New Roman,serif" font-size="15.00">regular procedure without MER</text>
</g>
<!-- 2082703373952&#45;&#45;2082703373568 -->
<g id="edge17" class="edge">
<title>2082703373952&#45;&#45;2082703373568</title>
<path fill="none" stroke="black" d="M2332.9,-565.29C2381.55,-577.7 2491.3,-605.71 2561.73,-623.69"/>
</g>
<!-- 2082703372272 -->
<g id="node27" class="node">
<title>2082703372272</title>
<ellipse fill="none" stroke="black" cx="2626.63" cy="-586" rx="27" ry="18"/>
<text text-anchor="middle" x="2626.63" y="-580" font-family="Times New Roman,serif" font-size="15.00">xor</text>
</g>
<!-- 2082703373952&#45;&#45;2082703372272 -->
<g id="edge24" class="edge">
<title>2082703373952&#45;&#45;2082703372272</title>
<path fill="none" stroke="black" d="M2334.5,-561.23C2394.21,-566.31 2539.63,-578.68 2599.36,-583.76"/>
</g>
<!-- 2082703374336 -->
<g id="node34" class="node">
<title>2082703374336</title>
<ellipse fill="none" stroke="black" cx="2626.63" cy="-532" rx="27" ry="18"/>
<text text-anchor="middle" x="2626.63" y="-526" font-family="Times New Roman,serif" font-size="15.00">xor</text>
</g>
<!-- 2082703373952&#45;&#45;2082703374336 -->
<g id="edge27" class="edge">
<title>2082703373952&#45;&#45;2082703374336</title>
<path fill="none" stroke="black" d="M2334.5,-556.77C2394.21,-551.69 2539.63,-539.32 2599.36,-534.24"/>
</g>
<!-- 2082703375872 -->
<g id="node28" class="node">
<title>2082703375872</title>
<ellipse fill="black" stroke="black" cx="2992.07" cy="-625" rx="2.7" ry="2.7"/>
</g>
<!-- 2082703372272&#45;&#45;2082703375872 -->
<g id="edge18" class="edge">
<title>2082703372272&#45;&#45;2082703375872</title>
<path fill="none" stroke="black" d="M2653.77,-588.8C2732.87,-597.29 2965.71,-622.28 2989.16,-624.8"/>
</g>
<!-- 2082703360272 -->
<g id="node29" class="node">
<title>2082703360272</title>
<ellipse fill="none" stroke="black" cx="2992.07" cy="-586" rx="27" ry="18"/>
<text text-anchor="middle" x="2992.07" y="-580" font-family="Times New Roman,serif" font-size="15.00">seq</text>
</g>
<!-- 2082703372272&#45;&#45;2082703360272 -->
<g id="edge23" class="edge">
<title>2082703372272&#45;&#45;2082703360272</title>
<path fill="none" stroke="black" d="M2654.06,-586C2721.2,-586 2897.71,-586 2964.74,-586"/>
</g>
<!-- 2082703373040 -->
<g id="node30" class="node">
<title>2082703373040</title>
<ellipse fill="none" stroke="black" cx="3350.34" cy="-613" rx="132.73" ry="18"/>
<text text-anchor="middle" x="3350.34" y="-607" font-family="Times New Roman,serif" font-size="15.00">create procedure confirmation</text>
</g>
<!-- 2082703360272&#45;&#45;2082703373040 -->
<g id="edge19" class="edge">
<title>2082703360272&#45;&#45;2082703373040</title>
<path fill="none" stroke="black" d="M3019.26,-587.99C3063.94,-591.37 3157.41,-598.45 3233.52,-604.22"/>
</g>
<!-- 2082703373616 -->
<g id="node31" class="node">
<title>2082703373616</title>
<ellipse fill="none" stroke="black" cx="3350.34" cy="-559" rx="27" ry="18"/>
<text text-anchor="middle" x="3350.34" y="-553" font-family="Times New Roman,serif" font-size="15.00">xor</text>
</g>
<!-- 2082703360272&#45;&#45;2082703373616 -->
<g id="edge22" class="edge">
<title>2082703360272&#45;&#45;2082703373616</title>
<path fill="none" stroke="black" d="M3019.26,-584.01C3085.15,-579.02 3257.17,-565.98 3323.1,-560.99"/>
</g>
<!-- 2082703542464 -->
<g id="node32" class="node">
<title>2082703542464</title>
<ellipse fill="black" stroke="black" cx="3668.68" cy="-578" rx="2.7" ry="2.7"/>
</g>
<!-- 2082703373616&#45;&#45;2082703542464 -->
<g id="edge20" class="edge">
<title>2082703373616&#45;&#45;2082703542464</title>
<path fill="none" stroke="black" d="M3377.49,-560.57C3449.14,-564.87 3644.65,-576.62 3665.82,-577.89"/>
</g>
<!-- 2082703547552 -->
<g id="node33" class="node">
<title>2082703547552</title>
<ellipse fill="none" stroke="black" cx="3668.68" cy="-539" rx="40.6" ry="18"/>
<text text-anchor="middle" x="3668.68" y="-533" font-family="Times New Roman,serif" font-size="15.00">publish</text>
</g>
<!-- 2082703373616&#45;&#45;2082703547552 -->
<g id="edge21" class="edge">
<title>2082703373616&#45;&#45;2082703547552</title>
<path fill="none" stroke="black" d="M3377.49,-557.35C3432.93,-553.84 3562.52,-545.65 3628.13,-541.5"/>
</g>
<!-- 2082703371312 -->
<g id="node35" class="node">
<title>2082703371312</title>
<ellipse fill="black" stroke="black" cx="2992.07" cy="-547" rx="2.7" ry="2.7"/>
</g>
<!-- 2082703374336&#45;&#45;2082703371312 -->
<g id="edge25" class="edge">
<title>2082703374336&#45;&#45;2082703371312</title>
<path fill="none" stroke="black" d="M2654.06,-533.09C2733.45,-536.37 2965.77,-545.96 2989.16,-546.92"/>
</g>
<!-- 2082703372608 -->
<g id="node36" class="node">
<title>2082703372608</title>
<ellipse fill="none" stroke="black" cx="2992.07" cy="-508" rx="124.54" ry="18"/>
<text text-anchor="middle" x="2992.07" y="-502" font-family="Times New Roman,serif" font-size="15.00">create publication document</text>
</g>
<!-- 2082703374336&#45;&#45;2082703372608 -->
<g id="edge26" class="edge">
<title>2082703374336&#45;&#45;2082703372608</title>
<path fill="none" stroke="black" d="M2653.77,-530.27C2700.08,-527.22 2799.06,-520.68 2877.89,-515.47"/>
</g>
<!-- 2082703368912 -->
<g id="node38" class="node">
<title>2082703368912</title>
<ellipse fill="none" stroke="black" cx="2626.63" cy="-430" rx="27" ry="18"/>
<text text-anchor="middle" x="2626.63" y="-424" font-family="Times New Roman,serif" font-size="15.00">xor</text>
</g>
<!-- 2082703361616&#45;&#45;2082703368912 -->
<g id="edge31" class="edge">
<title>2082703361616&#45;&#45;2082703368912</title>
<path fill="none" stroke="black" d="M2334.5,-405.23C2394.21,-410.31 2539.63,-422.68 2599.36,-427.76"/>
</g>
<!-- 2082703361952 -->
<g id="node41" class="node">
<title>2082703361952</title>
<ellipse fill="none" stroke="black" cx="2626.63" cy="-376" rx="27" ry="18"/>
<text text-anchor="middle" x="2626.63" y="-370" font-family="Times New Roman,serif" font-size="15.00">xor</text>
</g>
<!-- 2082703361616&#45;&#45;2082703361952 -->
<g id="edge40" class="edge">
<title>2082703361616&#45;&#45;2082703361952</title>
<path fill="none" stroke="black" d="M2334.5,-400.77C2394.21,-395.69 2539.63,-383.32 2599.36,-378.24"/>
</g>
<!-- 2082703371648 -->
<g id="node39" class="node">
<title>2082703371648</title>
<ellipse fill="black" stroke="black" cx="2992.07" cy="-469" rx="2.7" ry="2.7"/>
</g>
<!-- 2082703368912&#45;&#45;2082703371648 -->
<g id="edge29" class="edge">
<title>2082703368912&#45;&#45;2082703371648</title>
<path fill="none" stroke="black" d="M2653.77,-432.8C2732.87,-441.29 2965.71,-466.28 2989.16,-468.8"/>
</g>
<!-- 2082703370592 -->
<g id="node40" class="node">
<title>2082703370592</title>
<ellipse fill="none" stroke="black" cx="2992.07" cy="-430" rx="166" ry="18"/>
<text text-anchor="middle" x="2992.07" y="-424" font-family="Times New Roman,serif" font-size="15.00">enter senddate procedure confirmation</text>
</g>
<!-- 2082703368912&#45;&#45;2082703370592 -->
<g id="edge30" class="edge">
<title>2082703368912&#45;&#45;2082703370592</title>
<path fill="none" stroke="black" d="M2654.06,-430C2690.65,-430 2759.73,-430 2825.87,-430"/>
</g>
<!-- 2082703551104 -->
<g id="node42" class="node">
<title>2082703551104</title>
<ellipse fill="none" stroke="black" cx="2992.07" cy="-376" rx="143.48" ry="18"/>
<text text-anchor="middle" x="2992.07" y="-370" font-family="Times New Roman,serif" font-size="15.00">enter senddate acknowledgement</text>
</g>
<!-- 2082703361952&#45;&#45;2082703551104 -->
<g id="edge32" class="edge">
<title>2082703361952&#45;&#45;2082703551104</title>
<path fill="none" stroke="black" d="M2654.06,-376C2694.82,-376 2775.88,-376 2848.29,-376"/>
</g>
<!-- 2082703550672 -->
<g id="node43" class="node">
<title>2082703550672</title>
<ellipse fill="none" stroke="black" cx="2992.07" cy="-322" rx="27" ry="18"/>
<text text-anchor="middle" x="2992.07" y="-316" font-family="Times New Roman,serif" font-size="15.00">seq</text>
</g>
<!-- 2082703361952&#45;&#45;2082703550672 -->
<g id="edge39" class="edge">
<title>2082703361952&#45;&#45;2082703550672</title>
<path fill="none" stroke="black" d="M2653.48,-372.16C2720.45,-362.21 2899.04,-335.67 2965.6,-325.78"/>
</g>
<!-- 2082703541552 -->
<g id="node44" class="node">
<title>2082703541552</title>
<ellipse fill="none" stroke="black" cx="3350.34" cy="-349" rx="27" ry="18"/>
<text text-anchor="middle" x="3350.34" y="-343" font-family="Times New Roman,serif" font-size="15.00">xor</text>
</g>
<!-- 2082703550672&#45;&#45;2082703541552 -->
<g id="edge35" class="edge">
<title>2082703550672&#45;&#45;2082703541552</title>
<path fill="none" stroke="black" d="M3019.26,-323.99C3085.15,-328.98 3257.17,-342.02 3323.1,-347.01"/>
</g>
<!-- 2082703549280 -->
<g id="node47" class="node">
<title>2082703549280</title>
<ellipse fill="none" stroke="black" cx="3350.34" cy="-295" rx="27" ry="18"/>
<text text-anchor="middle" x="3350.34" y="-289" font-family="Times New Roman,serif" font-size="15.00">xor</text>
</g>
<!-- 2082703550672&#45;&#45;2082703549280 -->
<g id="edge38" class="edge">
<title>2082703550672&#45;&#45;2082703549280</title>
<path fill="none" stroke="black" d="M3019.26,-320.01C3085.15,-315.02 3257.17,-301.98 3323.1,-296.99"/>
</g>
<!-- 2082703541168 -->
<g id="node45" class="node">
<title>2082703541168</title>
<ellipse fill="black" stroke="black" cx="3668.68" cy="-388" rx="2.7" ry="2.7"/>
</g>
<!-- 2082703541552&#45;&#45;2082703541168 -->
<g id="edge33" class="edge">
<title>2082703541552&#45;&#45;2082703541168</title>
<path fill="none" stroke="black" d="M3377.22,-352.19C3448.64,-361 3644.59,-385.15 3665.81,-387.77"/>
</g>
<!-- 2082703547408 -->
<g id="node46" class="node">
<title>2082703547408</title>
<ellipse fill="none" stroke="black" cx="3668.68" cy="-349" rx="103.56" ry="18"/>
<text text-anchor="middle" x="3668.68" y="-343" font-family="Times New Roman,serif" font-size="15.00">reception through OLO</text>
</g>
<!-- 2082703541552&#45;&#45;2082703547408 -->
<g id="edge34" class="edge">
<title>2082703541552&#45;&#45;2082703547408</title>
<path fill="none" stroke="black" d="M3377.76,-349C3418.53,-349 3498.91,-349 3564.72,-349"/>
</g>
<!-- 2082703551536 -->
<g id="node48" class="node">
<title>2082703551536</title>
<ellipse fill="none" stroke="black" cx="3668.68" cy="-295" rx="149.62" ry="18"/>
<text text-anchor="middle" x="3668.68" y="-289" font-family="Times New Roman,serif" font-size="15.00">forward to the competent authority</text>
</g>
<!-- 2082703549280&#45;&#45;2082703551536 -->
<g id="edge36" class="edge">
<title>2082703549280&#45;&#45;2082703551536</title>
<path fill="none" stroke="black" d="M3377.76,-295C3409.39,-295 3464.88,-295 3518.9,-295"/>
</g>
<!-- 2082703540496 -->
<g id="node49" class="node">
<title>2082703540496</title>
<ellipse fill="none" stroke="black" cx="3668.68" cy="-241" rx="113.79" ry="18"/>
<text text-anchor="middle" x="3668.68" y="-235" font-family="Times New Roman,serif" font-size="15.00">send confirmation receipt</text>
</g>
<!-- 2082703549280&#45;&#45;2082703540496 -->
<g id="edge37" class="edge">
<title>2082703549280&#45;&#45;2082703540496</title>
<path fill="none" stroke="black" d="M3376.96,-290.63C3422.7,-282.82 3520.14,-266.19 3589.59,-254.33"/>
</g>
<!-- 2082703369200 -->
<g id="node51" class="node">
<title>2082703369200</title>
<ellipse fill="black" stroke="black" cx="2307.26" cy="-270" rx="2.7" ry="2.7"/>
</g>
<!-- 2082703371216&#45;&#45;2082703369200 -->
<g id="edge43" class="edge">
<title>2082703371216&#45;&#45;2082703369200</title>
<path fill="none" stroke="black" d="M1981.98,-270C2059.06,-270 2280.19,-270 2304.15,-270"/>
</g>
<!-- 2082703376160 -->
<g id="node52" class="node">
<title>2082703376160</title>
<ellipse fill="none" stroke="black" cx="2307.26" cy="-225" rx="27" ry="18"/>
<text text-anchor="middle" x="2307.26" y="-219" font-family="Times New Roman,serif" font-size="15.00">seq</text>
</g>
<!-- 2082703371216&#45;&#45;2082703376160 -->
<g id="edge57" class="edge">
<title>2082703371216&#45;&#45;2082703376160</title>
<path fill="none" stroke="black" d="M1981.41,-266.69C2046.25,-258.37 2215.56,-236.64 2280.44,-228.31"/>
</g>
<!-- 2082703366320 -->
<g id="node53" class="node">
<title>2082703366320</title>
<ellipse fill="none" stroke="black" cx="2626.63" cy="-252" rx="27" ry="18"/>
<text text-anchor="middle" x="2626.63" y="-246" font-family="Times New Roman,serif" font-size="15.00">xor</text>
</g>
<!-- 2082703376160&#45;&#45;2082703366320 -->
<g id="edge46" class="edge">
<title>2082703376160&#45;&#45;2082703366320</title>
<path fill="none" stroke="black" d="M2334.5,-227.23C2394.21,-232.31 2539.63,-244.68 2599.36,-249.76"/>
</g>
<!-- 2082703360848 -->
<g id="node56" class="node">
<title>2082703360848</title>
<ellipse fill="none" stroke="black" cx="2626.63" cy="-198" rx="27" ry="18"/>
<text text-anchor="middle" x="2626.63" y="-192" font-family="Times New Roman,serif" font-size="15.00">xor</text>
</g>
<!-- 2082703376160&#45;&#45;2082703360848 -->
<g id="edge49" class="edge">
<title>2082703376160&#45;&#45;2082703360848</title>
<path fill="none" stroke="black" d="M2334.5,-222.77C2394.21,-217.69 2539.63,-205.32 2599.36,-200.24"/>
</g>
<!-- 2082703555856 -->
<g id="node59" class="node">
<title>2082703555856</title>
<ellipse fill="none" stroke="black" cx="2626.63" cy="-112" rx="27" ry="18"/>
<text text-anchor="middle" x="2626.63" y="-106" font-family="Times New Roman,serif" font-size="15.00">and</text>
</g>
<!-- 2082703376160&#45;&#45;2082703555856 -->
<g id="edge56" class="edge">
<title>2082703376160&#45;&#45;2082703555856</title>
<path fill="none" stroke="black" d="M2331.6,-216.69C2390.29,-195.79 2543.53,-141.23 2602.26,-120.32"/>
</g>
<!-- 2082703542224 -->
<g id="node54" class="node">
<title>2082703542224</title>
<ellipse fill="black" stroke="black" cx="2992.07" cy="-283" rx="2.7" ry="2.7"/>
</g>
<!-- 2082703366320&#45;&#45;2082703542224 -->
<g id="edge44" class="edge">
<title>2082703366320&#45;&#45;2082703542224</title>
<path fill="none" stroke="black" d="M2653.77,-254.23C2732.87,-260.98 2965.71,-280.84 2989.16,-282.84"/>
</g>
<!-- 2082703542416 -->
<g id="node55" class="node">
<title>2082703542416</title>
<ellipse fill="none" stroke="black" cx="2992.07" cy="-244" rx="189.54" ry="18"/>
<text text-anchor="middle" x="2992.07" y="-238" font-family="Times New Roman,serif" font-size="15.00">registrer date of publishing received request</text>
</g>
<!-- 2082703366320&#45;&#45;2082703542416 -->
<g id="edge45" class="edge">
<title>2082703366320&#45;&#45;2082703542416</title>
<path fill="none" stroke="black" d="M2654.06,-251.42C2687.14,-250.69 2746.77,-249.38 2806.77,-248.06"/>
</g>
<!-- 2082703546208 -->
<g id="node57" class="node">
<title>2082703546208</title>
<ellipse fill="black" stroke="black" cx="2992.07" cy="-205" rx="2.7" ry="2.7"/>
</g>
<!-- 2082703360848&#45;&#45;2082703546208 -->
<g id="edge47" class="edge">
<title>2082703360848&#45;&#45;2082703546208</title>
<path fill="none" stroke="black" d="M2654.06,-198.51C2733.45,-200.04 2965.77,-204.51 2989.16,-204.96"/>
</g>
<!-- 2082703540832 -->
<g id="node58" class="node">
<title>2082703540832</title>
<ellipse fill="none" stroke="black" cx="2992.07" cy="-166" rx="126.59" ry="18"/>
<text text-anchor="middle" x="2992.07" y="-160" font-family="Times New Roman,serif" font-size="15.00">send procedure confirmation</text>
</g>
<!-- 2082703360848&#45;&#45;2082703540832 -->
<g id="edge48" class="edge">
<title>2082703360848&#45;&#45;2082703540832</title>
<path fill="none" stroke="black" d="M2653.77,-195.7C2701.13,-191.53 2803.62,-182.5 2883.26,-175.49"/>
</g>
<!-- 2082703546832 -->
<g id="node60" class="node">
<title>2082703546832</title>
<ellipse fill="none" stroke="black" cx="2992.07" cy="-112" rx="27" ry="18"/>
<text text-anchor="middle" x="2992.07" y="-106" font-family="Times New Roman,serif" font-size="15.00">xor</text>
</g>
<!-- 2082703555856&#45;&#45;2082703546832 -->
<g id="edge52" class="edge">
<title>2082703555856&#45;&#45;2082703546832</title>
<path fill="none" stroke="black" d="M2654.06,-112C2721.2,-112 2897.71,-112 2964.74,-112"/>
</g>
<!-- 2082703547072 -->
<g id="node63" class="node">
<title>2082703547072</title>
<ellipse fill="none" stroke="black" cx="2992.07" cy="-58" rx="27" ry="18"/>
<text text-anchor="middle" x="2992.07" y="-52" font-family="Times New Roman,serif" font-size="15.00">xor</text>
</g>
<!-- 2082703555856&#45;&#45;2082703547072 -->
<g id="edge55" class="edge">
<title>2082703555856&#45;&#45;2082703547072</title>
<path fill="none" stroke="black" d="M2653.48,-108.16C2720.45,-98.21 2899.04,-71.67 2965.6,-61.78"/>
</g>
<!-- 2082703553840 -->
<g id="node61" class="node">
<title>2082703553840</title>
<ellipse fill="black" stroke="black" cx="3350.34" cy="-147" rx="2.7" ry="2.7"/>
</g>
<!-- 2082703546832&#45;&#45;2082703553840 -->
<g id="edge50" class="edge">
<title>2082703546832&#45;&#45;2082703553840</title>
<path fill="none" stroke="black" d="M3019.26,-114.57C3097.04,-122.21 3322.73,-144.39 3347.18,-146.79"/>
</g>
<!-- 2082703550480 -->
<g id="node62" class="node">
<title>2082703550480</title>
<ellipse fill="none" stroke="black" cx="3350.34" cy="-108" rx="124.54" ry="18"/>
<text text-anchor="middle" x="3350.34" y="-102" font-family="Times New Roman,serif" font-size="15.00">registration date publication</text>
</g>
<!-- 2082703546832&#45;&#45;2082703550480 -->
<g id="edge51" class="edge">
<title>2082703546832&#45;&#45;2082703550480</title>
<path fill="none" stroke="black" d="M3019.55,-111.7C3062.85,-111.22 3151.43,-110.22 3225.89,-109.39"/>
</g>
<!-- 2082703553216 -->
<g id="node64" class="node">
<title>2082703553216</title>
<ellipse fill="black" stroke="black" cx="3350.34" cy="-62" rx="2.7" ry="2.7"/>
</g>
<!-- 2082703547072&#45;&#45;2082703553216 -->
<g id="edge53" class="edge">
<title>2082703547072&#45;&#45;2082703553216</title>
<path fill="none" stroke="black" d="M3019.55,-58.3C3097.6,-59.17 3322.79,-61.7 3347.18,-61.98"/>
</g>
<!-- 2082703549088 -->
<g id="node65" class="node">
<title>2082703549088</title>
<ellipse fill="none" stroke="black" cx="3350.34" cy="-23" rx="102.02" ry="18"/>
<text text-anchor="middle" x="3350.34" y="-17" font-family="Times New Roman,serif" font-size="15.00">start WABOprocedure</text>
</g>
<!-- 2082703547072&#45;&#45;2082703549088 -->
<g id="edge54" class="edge">
<title>2082703547072&#45;&#45;2082703549088</title>
<path fill="none" stroke="black" d="M3019.26,-55.43C3069.32,-50.51 3180.64,-39.57 3260.16,-31.76"/>
</g>
<!-- 2082703368528 -->
<g id="node68" class="node">
<title>2082703368528</title>
<ellipse fill="black" stroke="black" cx="967.12" cy="-330" rx="2.7" ry="2.7"/>
</g>
<!-- 2082703374048&#45;&#45;2082703368528 -->
<g id="edge64" class="edge">
<title>2082703374048&#45;&#45;2082703368528</title>
<path fill="none" stroke="black" d="M820.86,-330C864.89,-330 949.79,-330 964.06,-330"/>
</g>
<!-- 2082703371696 -->
<g id="node69" class="node">
<title>2082703371696</title>
<ellipse fill="none" stroke="black" cx="967.12" cy="-204" rx="27" ry="18"/>
<text text-anchor="middle" x="967.12" y="-198" font-family="Times New Roman,serif" font-size="15.00">seq</text>
</g>
<!-- 2082703374048&#45;&#45;2082703371696 -->
<g id="edge79" class="edge">
<title>2082703374048&#45;&#45;2082703371696</title>
<path fill="none" stroke="black" d="M812.45,-316.75C845.43,-292.55 915.06,-241.47 948.05,-217.26"/>
</g>
<!-- 2082703372992 -->
<g id="node70" class="node">
<title>2082703372992</title>
<ellipse fill="none" stroke="black" cx="1214.03" cy="-258" rx="168.04" ry="18"/>
<text text-anchor="middle" x="1214.03" y="-252" font-family="Times New Roman,serif" font-size="15.00">enter date termination request received</text>
</g>
<!-- 2082703371696&#45;&#45;2082703372992 -->
<g id="edge65" class="edge">
<title>2082703371696&#45;&#45;2082703372992</title>
<path fill="none" stroke="black" d="M992.95,-209.47C1026.76,-216.93 1088.74,-230.59 1138.33,-241.53"/>
</g>
<!-- 2082703367568 -->
<g id="node71" class="node">
<title>2082703367568</title>
<ellipse fill="none" stroke="black" cx="1214.03" cy="-204" rx="27" ry="18"/>
<text text-anchor="middle" x="1214.03" y="-198" font-family="Times New Roman,serif" font-size="15.00">xor</text>
</g>
<!-- 2082703371696&#45;&#45;2082703367568 -->
<g id="edge72" class="edge">
<title>2082703371696&#45;&#45;2082703367568</title>
<path fill="none" stroke="black" d="M994.33,-204C1041.35,-204 1139.49,-204 1186.64,-204"/>
</g>
<!-- 2082703370304 -->
<g id="node78" class="node">
<title>2082703370304</title>
<ellipse fill="none" stroke="black" cx="1214.03" cy="-150" rx="27" ry="18"/>
<text text-anchor="middle" x="1214.03" y="-144" font-family="Times New Roman,serif" font-size="15.00">and</text>
</g>
<!-- 2082703371696&#45;&#45;2082703370304 -->
<g id="edge75" class="edge">
<title>2082703371696&#45;&#45;2082703370304</title>
<path fill="none" stroke="black" d="M992.95,-198.53C1039.89,-188.18 1141.14,-165.85 1188.13,-155.49"/>
</g>
<!-- 2082703368192 -->
<g id="node81" class="node">
<title>2082703368192</title>
<ellipse fill="none" stroke="black" cx="1214.03" cy="-57" rx="27" ry="18"/>
<text text-anchor="middle" x="1214.03" y="-51" font-family="Times New Roman,serif" font-size="15.00">xor</text>
</g>
<!-- 2082703371696&#45;&#45;2082703368192 -->
<g id="edge78" class="edge">
<title>2082703371696&#45;&#45;2082703368192</title>
<path fill="none" stroke="black" d="M987.75,-192.22C1033.61,-164.69 1147.36,-96.42 1193.31,-68.84"/>
</g>
<!-- 2082703371888 -->
<g id="node72" class="node">
<title>2082703371888</title>
<ellipse fill="black" stroke="black" cx="1589.7" cy="-243" rx="2.7" ry="2.7"/>
</g>
<!-- 2082703367568&#45;&#45;2082703371888 -->
<g id="edge66" class="edge">
<title>2082703367568&#45;&#45;2082703371888</title>
<path fill="none" stroke="black" d="M1241.01,-206.71C1321.45,-215.11 1562.46,-240.26 1586.72,-242.79"/>
</g>
<!-- 2082703376112 -->
<g id="node73" class="node">
<title>2082703376112</title>
<ellipse fill="none" stroke="black" cx="1589.7" cy="-204" rx="27" ry="18"/>
<text text-anchor="middle" x="1589.7" y="-198" font-family="Times New Roman,serif" font-size="15.00">seq</text>
</g>
<!-- 2082703367568&#45;&#45;2082703376112 -->
<g id="edge71" class="edge">
<title>2082703367568&#45;&#45;2082703376112</title>
<path fill="none" stroke="black" d="M1241.31,-204C1309.92,-204 1493.88,-204 1562.45,-204"/>
</g>
<!-- 2082703552976 -->
<g id="node74" class="node">
<title>2082703552976</title>
<ellipse fill="none" stroke="black" cx="1954.62" cy="-209" rx="173.16" ry="18"/>
<text text-anchor="middle" x="1954.62" y="-203" font-family="Times New Roman,serif" font-size="15.00">phase procedure prematurely terminated</text>
</g>
<!-- 2082703376112&#45;&#45;2082703552976 -->
<g id="edge67" class="edge">
<title>2082703376112&#45;&#45;2082703552976</title>
<path fill="none" stroke="black" d="M1617.09,-204.36C1652.49,-204.85 1718.33,-205.76 1782.46,-206.64"/>
</g>
<!-- 2082703542992 -->
<g id="node75" class="node">
<title>2082703542992</title>
<ellipse fill="none" stroke="black" cx="1954.62" cy="-155" rx="27" ry="18"/>
<text text-anchor="middle" x="1954.62" y="-149" font-family="Times New Roman,serif" font-size="15.00">xor</text>
</g>
<!-- 2082703376112&#45;&#45;2082703542992 -->
<g id="edge70" class="edge">
<title>2082703376112&#45;&#45;2082703542992</title>
<path fill="none" stroke="black" d="M1616.51,-200.52C1683.23,-191.51 1860.86,-167.52 1927.7,-158.5"/>
</g>
<!-- 2082703553936 -->
<g id="node76" class="node">
<title>2082703553936</title>
<ellipse fill="black" stroke="black" cx="2307.26" cy="-165" rx="2.7" ry="2.7"/>
</g>
<!-- 2082703542992&#45;&#45;2082703553936 -->
<g id="edge68" class="edge">
<title>2082703542992&#45;&#45;2082703553936</title>
<path fill="none" stroke="black" d="M1981.98,-155.75C2059.06,-157.95 2280.19,-164.26 2304.15,-164.94"/>
</g>
<!-- 2082703555904 -->
<g id="node77" class="node">
<title>2082703555904</title>
<ellipse fill="none" stroke="black" cx="2307.26" cy="-126" rx="143.48" ry="18"/>
<text text-anchor="middle" x="2307.26" y="-120" font-family="Times New Roman,serif" font-size="15.00">create message terminate request</text>
</g>
<!-- 2082703542992&#45;&#45;2082703555904 -->
<g id="edge69" class="edge">
<title>2082703542992&#45;&#45;2082703555904</title>
<path fill="none" stroke="black" d="M1981.69,-152.84C2024.54,-149.3 2112.46,-142.03 2186,-135.95"/>
</g>
<!-- 2082703374000 -->
<g id="node79" class="node">
<title>2082703374000</title>
<ellipse fill="none" stroke="black" cx="1589.7" cy="-150" rx="116.35" ry="18"/>
<text text-anchor="middle" x="1589.7" y="-144" font-family="Times New Roman,serif" font-size="15.00">message terminate request</text>
</g>
<!-- 2082703370304&#45;&#45;2082703374000 -->
<g id="edge73" class="edge">
<title>2082703370304&#45;&#45;2082703374000</title>
<path fill="none" stroke="black" d="M1241.31,-150C1288.82,-150 1391.65,-150 1473.17,-150"/>
</g>
<!-- 2082703360608 -->
<g id="node80" class="node">
<title>2082703360608</title>
<ellipse fill="none" stroke="black" cx="1589.7" cy="-96" rx="148.59" ry="18"/>
<text text-anchor="middle" x="1589.7" y="-90" font-family="Times New Roman,serif" font-size="15.00">enter senddate request termination</text>
</g>
<!-- 2082703370304&#45;&#45;2082703360608 -->
<g id="edge74" class="edge">
<title>2082703370304&#45;&#45;2082703360608</title>
<path fill="none" stroke="black" d="M1240.72,-146.29C1291.75,-138.91 1408.24,-122.08 1492.41,-109.92"/>
</g>
<!-- 2082703552496 -->
<g id="node82" class="node">
<title>2082703552496</title>
<ellipse fill="black" stroke="black" cx="1589.7" cy="-57" rx="2.7" ry="2.7"/>
</g>
<!-- 2082703368192&#45;&#45;2082703552496 -->
<g id="edge76" class="edge">
<title>2082703368192&#45;&#45;2082703552496</title>
<path fill="none" stroke="black" d="M1241.31,-57C1322.04,-57 1562.51,-57 1586.73,-57"/>
</g>
<!-- 2082703551776 -->
<g id="node83" class="node">
<title>2082703551776</title>
<ellipse fill="none" stroke="black" cx="1589.7" cy="-18" rx="78.99" ry="18"/>
<text text-anchor="middle" x="1589.7" y="-12" font-family="Times New Roman,serif" font-size="15.00">register deadline</text>
</g>
<!-- 2082703368192&#45;&#45;2082703551776 -->
<g id="edge77" class="edge">
<title>2082703368192&#45;&#45;2082703551776</title>
<path fill="none" stroke="black" d="M1241.01,-54.29C1297.45,-48.4 1432.94,-34.26 1517.14,-25.47"/>
</g>
<!-- 2082703366944 -->
<g id="node85" class="node">
<title>2082703366944</title>
<ellipse fill="black" stroke="black" cx="526.75" cy="-411" rx="2.7" ry="2.7"/>
</g>
<!-- 2082703369968&#45;&#45;2082703366944 -->
<g id="edge83" class="edge">
<title>2082703369968&#45;&#45;2082703366944</title>
<path fill="none" stroke="black" d="M256.5,-350.63C323.79,-365.71 504.46,-406.23 524.02,-410.61"/>
</g>
<!-- 2082703364256 -->
<g id="node86" class="node">
<title>2082703364256</title>
<ellipse fill="none" stroke="black" cx="526.75" cy="-372" rx="87.18" ry="18"/>
<text text-anchor="middle" x="526.75" y="-366" font-family="Times New Roman,serif" font-size="15.00">phased application</text>
</g>
<!-- 2082703369968&#45;&#45;2082703364256 -->
<g id="edge84" class="edge">
<title>2082703369968&#45;&#45;2082703364256</title>
<path fill="none" stroke="black" d="M257.53,-347.4C299.45,-351.24 383.44,-358.95 446.32,-364.71"/>
</g>
<!-- 2082703374528 -->
<g id="node87" class="node">
<title>2082703374528</title>
<ellipse fill="none" stroke="black" cx="526.75" cy="-318" rx="117.89" ry="18"/>
<text text-anchor="middle" x="526.75" y="-312" font-family="Times New Roman,serif" font-size="15.00">read publication date field</text>
</g>
<!-- 2082703369968&#45;&#45;2082703374528 -->
<g id="edge85" class="edge">
<title>2082703369968&#45;&#45;2082703374528</title>
<path fill="none" stroke="black" d="M257.53,-342.6C294.74,-339.19 365.09,-332.74 424.4,-327.3"/>
</g>
<!-- 2082703364208 -->
<g id="node88" class="node">
<title>2082703364208</title>
<ellipse fill="none" stroke="black" cx="526.75" cy="-264" rx="27" ry="18"/>
<text text-anchor="middle" x="526.75" y="-258" font-family="Times New Roman,serif" font-size="15.00">seq</text>
</g>
<!-- 2082703369968&#45;&#45;2082703364208 -->
<g id="edge88" class="edge">
<title>2082703369968&#45;&#45;2082703364208</title>
<path fill="none" stroke="black" d="M256,-338.23C311.54,-322.95 446.15,-285.9 501.43,-270.69"/>
</g>
<!-- 2082703370640 -->
<g id="node91" class="node">
<title>2082703370640</title>
<ellipse fill="none" stroke="black" cx="526.75" cy="-210" rx="52.89" ry="18"/>
<text text-anchor="middle" x="526.75" y="-204" font-family="Times New Roman,serif" font-size="15.00">close case</text>
</g>
<!-- 2082703369968&#45;&#45;2082703370640 -->
<g id="edge89" class="edge">
<title>2082703369968&#45;&#45;2082703370640</title>
<path fill="none" stroke="black" d="M253.05,-335.07C304.43,-311.51 433.93,-252.11 494.11,-224.51"/>
</g>
<!-- 2082703372656 -->
<g id="node89" class="node">
<title>2082703372656</title>
<ellipse fill="none" stroke="black" cx="793.4" cy="-268" rx="92.3" ry="18"/>
<text text-anchor="middle" x="793.4" y="-262" font-family="Times New Roman,serif" font-size="15.00">phase archived case</text>
</g>
<!-- 2082703364208&#45;&#45;2082703372656 -->
<g id="edge86" class="edge">
<title>2082703364208&#45;&#45;2082703372656</title>
<path fill="none" stroke="black" d="M554.09,-264.4C588.15,-264.91 649.24,-265.84 701.04,-266.62"/>
</g>
<!-- 2082703363488 -->
<g id="node90" class="node">
<title>2082703363488</title>
<ellipse fill="none" stroke="black" cx="793.4" cy="-214" rx="88.71" ry="18"/>
<text text-anchor="middle" x="793.4" y="-208" font-family="Times New Roman,serif" font-size="15.00">phase case handled</text>
</g>
<!-- 2082703364208&#45;&#45;2082703363488 -->
<g id="edge87" class="edge">
<title>2082703364208&#45;&#45;2082703363488</title>
<path fill="none" stroke="black" d="M553.12,-259.21C592.84,-251.7 670.96,-236.94 727.14,-226.33"/>
</g>
</g>
</svg>
