<?xml version="1.0" encoding="UTF-8" standalone="no"?>
<!DOCTYPE svg PUBLIC "-//W3C//DTD SVG 1.1//EN"
 "http://www.w3.org/Graphics/SVG/1.1/DTD/svg11.dtd">
<!-- Generated by graphviz version 11.0.0 (20240428.1522)
 -->
<!-- Title: pt Pages: 1 -->
<svg width="3727pt" height="640pt"
 viewBox="0.00 0.00 3727.01 639.70" xmlns="http://www.w3.org/2000/svg" xmlns:xlink="http://www.w3.org/1999/xlink">
<g id="graph0" class="graph" transform="scale(1 1) rotate(0) translate(4 635.7)">
<title>pt</title>
<polygon fill="white" stroke="none" points="-4,4 -4,-635.7 3723.01,-635.7 3723.01,4 -4,4"/>
<!-- 2082701330048 -->
<g id="node1" class="node">
<title>2082701330048</title>
<ellipse fill="none" stroke="black" cx="27" cy="-429" rx="27" ry="18"/>
<text text-anchor="middle" x="27" y="-423" font-family="Times New Roman,serif" font-size="15.00">seq</text>
</g>
<!-- 2082699970032 -->
<g id="node2" class="node">
<title>2082699970032</title>
<ellipse fill="none" stroke="black" cx="117" cy="-495" rx="27" ry="18"/>
<text text-anchor="middle" x="117" y="-489" font-family="Times New Roman,serif" font-size="15.00">and</text>
</g>
<!-- 2082701330048&#45;&#45;2082699970032 -->
<g id="edge77" class="edge">
<title>2082701330048&#45;&#45;2082699970032</title>
<path fill="none" stroke="black" d="M45.81,-442.36C61.08,-453.81 82.96,-470.22 98.22,-481.66"/>
</g>
<!-- 2082699975120 -->
<g id="node79" class="node">
<title>2082699975120</title>
<ellipse fill="none" stroke="black" cx="117" cy="-390" rx="27" ry="18"/>
<text text-anchor="middle" x="117" y="-384" font-family="Times New Roman,serif" font-size="15.00">xor</text>
</g>
<!-- 2082701330048&#45;&#45;2082699975120 -->
<g id="edge84" class="edge">
<title>2082701330048&#45;&#45;2082699975120</title>
<path fill="none" stroke="black" d="M50.21,-419.16C63.55,-413.25 80.46,-405.75 93.8,-399.84"/>
</g>
<!-- 2082700053536 -->
<g id="node3" class="node">
<title>2082700053536</title>
<ellipse fill="none" stroke="black" cx="320.41" cy="-576" rx="119.93" ry="18"/>
<text text-anchor="middle" x="320.41" y="-570" font-family="Times New Roman,serif" font-size="15.00">phase application received</text>
</g>
<!-- 2082699970032&#45;&#45;2082700053536 -->
<g id="edge1" class="edge">
<title>2082699970032&#45;&#45;2082700053536</title>
<path fill="none" stroke="black" d="M140.71,-504.13C173.63,-517.37 235.2,-542.14 276.75,-558.85"/>
</g>
<!-- 2082700056848 -->
<g id="node4" class="node">
<title>2082700056848</title>
<ellipse fill="none" stroke="black" cx="320.41" cy="-522" rx="140.41" ry="18"/>
<text text-anchor="middle" x="320.41" y="-516" font-family="Times New Roman,serif" font-size="15.00">register submission date request</text>
</g>
<!-- 2082699970032&#45;&#45;2082700056848 -->
<g id="edge2" class="edge">
<title>2082699970032&#45;&#45;2082700056848</title>
<path fill="none" stroke="black" d="M143.92,-498.47C163.89,-501.15 192.86,-505.04 221.52,-508.88"/>
</g>
<!-- 2082700064480 -->
<g id="node5" class="node">
<title>2082700064480</title>
<ellipse fill="none" stroke="black" cx="320.41" cy="-468" rx="27" ry="18"/>
<text text-anchor="middle" x="320.41" y="-462" font-family="Times New Roman,serif" font-size="15.00">seq</text>
</g>
<!-- 2082699970032&#45;&#45;2082700064480 -->
<g id="edge76" class="edge">
<title>2082699970032&#45;&#45;2082700064480</title>
<path fill="none" stroke="black" d="M143.92,-491.53C182.59,-486.34 254.97,-476.64 293.59,-471.46"/>
</g>
<!-- 2082700064432 -->
<g id="node6" class="node">
<title>2082700064432</title>
<ellipse fill="none" stroke="black" cx="686.35" cy="-545" rx="27" ry="18"/>
<text text-anchor="middle" x="686.35" y="-539" font-family="Times New Roman,serif" font-size="15.00">xor</text>
</g>
<!-- 2082700064480&#45;&#45;2082700064432 -->
<g id="edge5" class="edge">
<title>2082700064480&#45;&#45;2082700064432</title>
<path fill="none" stroke="black" d="M346.71,-473.35C413.45,-487.47 593.67,-525.6 660.22,-539.68"/>
</g>
<!-- 2082700063184 -->
<g id="node9" class="node">
<title>2082700063184</title>
<ellipse fill="none" stroke="black" cx="686.35" cy="-468" rx="27" ry="18"/>
<text text-anchor="middle" x="686.35" y="-462" font-family="Times New Roman,serif" font-size="15.00">xor</text>
</g>
<!-- 2082700064480&#45;&#45;2082700063184 -->
<g id="edge22" class="edge">
<title>2082700064480&#45;&#45;2082700063184</title>
<path fill="none" stroke="black" d="M347.87,-468C415.1,-468 591.86,-468 658.98,-468"/>
</g>
<!-- 2082700514448 -->
<g id="node26" class="node">
<title>2082700514448</title>
<ellipse fill="none" stroke="black" cx="686.35" cy="-405" rx="27" ry="18"/>
<text text-anchor="middle" x="686.35" y="-399" font-family="Times New Roman,serif" font-size="15.00">and</text>
</g>
<!-- 2082700064480&#45;&#45;2082700514448 -->
<g id="edge75" class="edge">
<title>2082700064480&#45;&#45;2082700514448</title>
<path fill="none" stroke="black" d="M347,-463.57C413.82,-452 593,-420.99 659.79,-409.43"/>
</g>
<!-- 2082700510656 -->
<g id="node7" class="node">
<title>2082700510656</title>
<ellipse fill="black" stroke="black" cx="1061.51" cy="-584" rx="2.7" ry="2.7"/>
</g>
<!-- 2082700064432&#45;&#45;2082700510656 -->
<g id="edge3" class="edge">
<title>2082700064432&#45;&#45;2082700510656</title>
<path fill="none" stroke="black" d="M713.3,-547.71C793.62,-556.11 1034.3,-581.26 1058.54,-583.79"/>
</g>
<!-- 2082700524816 -->
<g id="node8" class="node">
<title>2082700524816</title>
<ellipse fill="none" stroke="black" cx="1061.51" cy="-545" rx="102.02" ry="18"/>
<text text-anchor="middle" x="1061.51" y="-539" font-family="Times New Roman,serif" font-size="15.00">OLO messaging active</text>
</g>
<!-- 2082700064432&#45;&#45;2082700524816 -->
<g id="edge4" class="edge">
<title>2082700064432&#45;&#45;2082700524816</title>
<path fill="none" stroke="black" d="M713.59,-545C763.77,-545 875.76,-545 959,-545"/>
</g>
<!-- 2082701694720 -->
<g id="node10" class="node">
<title>2082701694720</title>
<ellipse fill="black" stroke="black" cx="1061.51" cy="-506" rx="2.7" ry="2.7"/>
</g>
<!-- 2082700063184&#45;&#45;2082701694720 -->
<g id="edge6" class="edge">
<title>2082700063184&#45;&#45;2082701694720</title>
<path fill="none" stroke="black" d="M713.3,-470.64C793.62,-478.82 1034.3,-503.33 1058.54,-505.8"/>
</g>
<!-- 2082701704272 -->
<g id="node11" class="node">
<title>2082701704272</title>
<ellipse fill="none" stroke="black" cx="1061.51" cy="-467" rx="27" ry="18"/>
<text text-anchor="middle" x="1061.51" y="-461" font-family="Times New Roman,serif" font-size="15.00">seq</text>
</g>
<!-- 2082700063184&#45;&#45;2082701704272 -->
<g id="edge21" class="edge">
<title>2082700063184&#45;&#45;2082701704272</title>
<path fill="none" stroke="black" d="M713.59,-467.93C782.11,-467.75 965.82,-467.25 1034.3,-467.07"/>
</g>
<!-- 2082701440448 -->
<g id="node12" class="node">
<title>2082701440448</title>
<ellipse fill="none" stroke="black" cx="1349.15" cy="-542" rx="27" ry="18"/>
<text text-anchor="middle" x="1349.15" y="-536" font-family="Times New Roman,serif" font-size="15.00">and</text>
</g>
<!-- 2082701704272&#45;&#45;2082701440448 -->
<g id="edge11" class="edge">
<title>2082701704272&#45;&#45;2082701440448</title>
<path fill="none" stroke="black" d="M1086.86,-473.39C1140.69,-487.53 1269.3,-521.3 1323.45,-535.52"/>
</g>
<!-- 2082701430320 -->
<g id="node17" class="node">
<title>2082701430320</title>
<ellipse fill="none" stroke="black" cx="1349.15" cy="-467" rx="27" ry="18"/>
<text text-anchor="middle" x="1349.15" y="-461" font-family="Times New Roman,serif" font-size="15.00">xor</text>
</g>
<!-- 2082701704272&#45;&#45;2082701430320 -->
<g id="edge20" class="edge">
<title>2082701704272&#45;&#45;2082701430320</title>
<path fill="none" stroke="black" d="M1088.87,-467C1143.29,-467 1267.49,-467 1321.85,-467"/>
</g>
<!-- 2082701438624 -->
<g id="node13" class="node">
<title>2082701438624</title>
<ellipse fill="none" stroke="black" cx="1617.85" cy="-596" rx="27" ry="18"/>
<text text-anchor="middle" x="1617.85" y="-590" font-family="Times New Roman,serif" font-size="15.00">xor</text>
</g>
<!-- 2082701440448&#45;&#45;2082701438624 -->
<g id="edge9" class="edge">
<title>2082701440448&#45;&#45;2082701438624</title>
<path fill="none" stroke="black" d="M1375.24,-547.08C1426.07,-557.37 1540.69,-580.58 1591.63,-590.89"/>
</g>
<!-- 2082701440400 -->
<g id="node16" class="node">
<title>2082701440400</title>
<ellipse fill="none" stroke="black" cx="1617.85" cy="-542" rx="92.3" ry="18"/>
<text text-anchor="middle" x="1617.85" y="-536" font-family="Times New Roman,serif" font-size="15.00">terminate on request</text>
</g>
<!-- 2082701440448&#45;&#45;2082701440400 -->
<g id="edge10" class="edge">
<title>2082701440448&#45;&#45;2082701440400</title>
<path fill="none" stroke="black" d="M1376.21,-542C1410.55,-542 1472.76,-542 1525.32,-542"/>
</g>
<!-- 2082701432000 -->
<g id="node14" class="node">
<title>2082701432000</title>
<ellipse fill="black" stroke="black" cx="1952.58" cy="-629" rx="2.7" ry="2.7"/>
</g>
<!-- 2082701438624&#45;&#45;2082701432000 -->
<g id="edge7" class="edge">
<title>2082701438624&#45;&#45;2082701432000</title>
<path fill="none" stroke="black" d="M1644.96,-598.59C1719.11,-605.94 1927.07,-626.57 1949.59,-628.8"/>
</g>
<!-- 2082701429504 -->
<g id="node15" class="node">
<title>2082701429504</title>
<ellipse fill="none" stroke="black" cx="1952.58" cy="-590" rx="168.04" ry="18"/>
<text text-anchor="middle" x="1952.58" y="-584" font-family="Times New Roman,serif" font-size="15.00">enter date termination request received</text>
</g>
<!-- 2082701438624&#45;&#45;2082701429504 -->
<g id="edge8" class="edge">
<title>2082701438624&#45;&#45;2082701429504</title>
<path fill="none" stroke="black" d="M1645.24,-595.52C1676.59,-594.96 1731.59,-593.97 1786.42,-592.98"/>
</g>
<!-- 2082701434640 -->
<g id="node18" class="node">
<title>2082701434640</title>
<ellipse fill="black" stroke="black" cx="1617.85" cy="-503" rx="2.7" ry="2.7"/>
</g>
<!-- 2082701430320&#45;&#45;2082701434640 -->
<g id="edge12" class="edge">
<title>2082701430320&#45;&#45;2082701434640</title>
<path fill="none" stroke="black" d="M1375.72,-470.45C1438.3,-478.9 1595.47,-500.11 1614.88,-502.73"/>
</g>
<!-- 2082701430608 -->
<g id="node19" class="node">
<title>2082701430608</title>
<ellipse fill="none" stroke="black" cx="1617.85" cy="-464" rx="27" ry="18"/>
<text text-anchor="middle" x="1617.85" y="-458" font-family="Times New Roman,serif" font-size="15.00">seq</text>
</g>
<!-- 2082701430320&#45;&#45;2082701430608 -->
<g id="edge19" class="edge">
<title>2082701430320&#45;&#45;2082701430608</title>
<path fill="none" stroke="black" d="M1376.21,-466.71C1427.19,-466.13 1539.61,-464.87 1590.69,-464.29"/>
</g>
<!-- 2082701429984 -->
<g id="node20" class="node">
<title>2082701429984</title>
<ellipse fill="none" stroke="black" cx="1952.58" cy="-524" rx="27" ry="18"/>
<text text-anchor="middle" x="1952.58" y="-518" font-family="Times New Roman,serif" font-size="15.00">and</text>
</g>
<!-- 2082701430608&#45;&#45;2082701429984 -->
<g id="edge15" class="edge">
<title>2082701430608&#45;&#45;2082701429984</title>
<path fill="none" stroke="black" d="M1644.41,-468.61C1706.49,-479.8 1864.68,-508.33 1926.39,-519.46"/>
</g>
<!-- 2082701442176 -->
<g id="node23" class="node">
<title>2082701442176</title>
<ellipse fill="none" stroke="black" cx="1952.58" cy="-464" rx="27" ry="18"/>
<text text-anchor="middle" x="1952.58" y="-458" font-family="Times New Roman,serif" font-size="15.00">and</text>
</g>
<!-- 2082701430608&#45;&#45;2082701442176 -->
<g id="edge18" class="edge">
<title>2082701430608&#45;&#45;2082701442176</title>
<path fill="none" stroke="black" d="M1645.24,-464C1707.49,-464 1862.93,-464 1925.19,-464"/>
</g>
<!-- 2082701427200 -->
<g id="node21" class="node">
<title>2082701427200</title>
<ellipse fill="none" stroke="black" cx="2305.21" cy="-578" rx="116.35" ry="18"/>
<text text-anchor="middle" x="2305.21" y="-572" font-family="Times New Roman,serif" font-size="15.00">message terminate request</text>
</g>
<!-- 2082701429984&#45;&#45;2082701427200 -->
<g id="edge13" class="edge">
<title>2082701429984&#45;&#45;2082701427200</title>
<path fill="none" stroke="black" d="M1979.36,-527.97C2029.65,-535.72 2142.79,-553.14 2221.3,-565.23"/>
</g>
<!-- 2082701431568 -->
<g id="node22" class="node">
<title>2082701431568</title>
<ellipse fill="none" stroke="black" cx="2305.21" cy="-524" rx="148.59" ry="18"/>
<text text-anchor="middle" x="2305.21" y="-518" font-family="Times New Roman,serif" font-size="15.00">enter senddate request termination</text>
</g>
<!-- 2082701429984&#45;&#45;2082701431568 -->
<g id="edge14" class="edge">
<title>2082701429984&#45;&#45;2082701431568</title>
<path fill="none" stroke="black" d="M1979.93,-524C2017.6,-524 2089.66,-524 2156.3,-524"/>
</g>
<!-- 2082701430656 -->
<g id="node24" class="node">
<title>2082701430656</title>
<ellipse fill="none" stroke="black" cx="2305.21" cy="-470" rx="78.99" ry="18"/>
<text text-anchor="middle" x="2305.21" y="-464" font-family="Times New Roman,serif" font-size="15.00">register deadline</text>
</g>
<!-- 2082701442176&#45;&#45;2082701430656 -->
<g id="edge16" class="edge">
<title>2082701442176&#45;&#45;2082701430656</title>
<path fill="none" stroke="black" d="M1979.93,-464.45C2031.53,-465.33 2147.69,-467.32 2226.03,-468.66"/>
</g>
<!-- 2082701431952 -->
<g id="node25" class="node">
<title>2082701431952</title>
<ellipse fill="none" stroke="black" cx="2305.21" cy="-416" rx="110.72" ry="18"/>
<text text-anchor="middle" x="2305.21" y="-410" font-family="Times New Roman,serif" font-size="15.00">phase procedure aborted</text>
</g>
<!-- 2082701442176&#45;&#45;2082701431952 -->
<g id="edge17" class="edge">
<title>2082701442176&#45;&#45;2082701431952</title>
<path fill="none" stroke="black" d="M1979.36,-460.47C2029.18,-453.65 2140.66,-438.39 2219.07,-427.66"/>
</g>
<!-- 2082700054592 -->
<g id="node27" class="node">
<title>2082700054592</title>
<ellipse fill="none" stroke="black" cx="1061.51" cy="-407" rx="149.62" ry="18"/>
<text text-anchor="middle" x="1061.51" y="-401" font-family="Times New Roman,serif" font-size="15.00">forward to the competent authority</text>
</g>
<!-- 2082700514448&#45;&#45;2082700054592 -->
<g id="edge23" class="edge">
<title>2082700514448&#45;&#45;2082700054592</title>
<path fill="none" stroke="black" d="M713.59,-405.14C754.73,-405.36 837.41,-405.8 911.74,-406.2"/>
</g>
<!-- 2082700057376 -->
<g id="node28" class="node">
<title>2082700057376</title>
<ellipse fill="none" stroke="black" cx="1061.51" cy="-353" rx="27" ry="18"/>
<text text-anchor="middle" x="1061.51" y="-347" font-family="Times New Roman,serif" font-size="15.00">xor</text>
</g>
<!-- 2082700514448&#45;&#45;2082700057376 -->
<g id="edge26" class="edge">
<title>2082700514448&#45;&#45;2082700057376</title>
<path fill="none" stroke="black" d="M713.3,-401.38C781.72,-391.85 966.51,-366.1 1034.74,-356.59"/>
</g>
<!-- 2082701696976 -->
<g id="node31" class="node">
<title>2082701696976</title>
<ellipse fill="none" stroke="black" cx="1061.51" cy="-279" rx="27" ry="18"/>
<text text-anchor="middle" x="1061.51" y="-273" font-family="Times New Roman,serif" font-size="15.00">seq</text>
</g>
<!-- 2082700514448&#45;&#45;2082701696976 -->
<g id="edge74" class="edge">
<title>2082700514448&#45;&#45;2082701696976</title>
<path fill="none" stroke="black" d="M710.98,-397.02C778.11,-374.36 969.45,-309.75 1036.75,-287.02"/>
</g>
<!-- 2082701442368 -->
<g id="node29" class="node">
<title>2082701442368</title>
<ellipse fill="black" stroke="black" cx="1349.15" cy="-374" rx="2.7" ry="2.7"/>
</g>
<!-- 2082700057376&#45;&#45;2082701442368 -->
<g id="edge24" class="edge">
<title>2082700057376&#45;&#45;2082701442368</title>
<path fill="none" stroke="black" d="M1088.62,-354.92C1154.72,-359.78 1324.98,-372.3 1346.01,-373.84"/>
</g>
<!-- 2082701430944 -->
<g id="node30" class="node">
<title>2082701430944</title>
<ellipse fill="none" stroke="black" cx="1349.15" cy="-335" rx="102.02" ry="18"/>
<text text-anchor="middle" x="1349.15" y="-329" font-family="Times New Roman,serif" font-size="15.00">start WABOprocedure</text>
</g>
<!-- 2082700057376&#45;&#45;2082701430944 -->
<g id="edge25" class="edge">
<title>2082700057376&#45;&#45;2082701430944</title>
<path fill="none" stroke="black" d="M1088.87,-351.34C1125.81,-349.01 1194.93,-344.66 1252.51,-341.03"/>
</g>
<!-- 2082701440208 -->
<g id="node32" class="node">
<title>2082701440208</title>
<ellipse fill="none" stroke="black" cx="1349.15" cy="-279" rx="27" ry="18"/>
<text text-anchor="middle" x="1349.15" y="-273" font-family="Times New Roman,serif" font-size="15.00">and</text>
</g>
<!-- 2082701696976&#45;&#45;2082701440208 -->
<g id="edge70" class="edge">
<title>2082701696976&#45;&#45;2082701440208</title>
<path fill="none" stroke="black" d="M1088.87,-279C1143.29,-279 1267.49,-279 1321.85,-279"/>
</g>
<!-- 2082701442128 -->
<g id="node76" class="node">
<title>2082701442128</title>
<ellipse fill="none" stroke="black" cx="1349.15" cy="-221" rx="27" ry="18"/>
<text text-anchor="middle" x="1349.15" y="-215" font-family="Times New Roman,serif" font-size="15.00">xor</text>
</g>
<!-- 2082701696976&#45;&#45;2082701442128 -->
<g id="edge73" class="edge">
<title>2082701696976&#45;&#45;2082701442128</title>
<path fill="none" stroke="black" d="M1087.86,-273.85C1142.06,-262.85 1268.7,-237.13 1322.86,-226.14"/>
</g>
<!-- 2082701434976 -->
<g id="node33" class="node">
<title>2082701434976</title>
<ellipse fill="none" stroke="black" cx="1617.85" cy="-336" rx="45.21" ry="18"/>
<text text-anchor="middle" x="1617.85" y="-330" font-family="Times New Roman,serif" font-size="15.00">xor loop</text>
</g>
<!-- 2082701440208&#45;&#45;2082701434976 -->
<g id="edge29" class="edge">
<title>2082701440208&#45;&#45;2082701434976</title>
<path fill="none" stroke="black" d="M1375.24,-284.36C1421.79,-294.31 1521.85,-315.7 1577.49,-327.59"/>
</g>
<!-- 2082701427584 -->
<g id="node36" class="node">
<title>2082701427584</title>
<ellipse fill="none" stroke="black" cx="1617.85" cy="-260" rx="27" ry="18"/>
<text text-anchor="middle" x="1617.85" y="-254" font-family="Times New Roman,serif" font-size="15.00">seq</text>
</g>
<!-- 2082701440208&#45;&#45;2082701427584 -->
<g id="edge69" class="edge">
<title>2082701440208&#45;&#45;2082701427584</title>
<path fill="none" stroke="black" d="M1376.21,-277.14C1427.19,-273.51 1539.61,-265.5 1590.69,-261.86"/>
</g>
<!-- 2082701441120 -->
<g id="node34" class="node">
<title>2082701441120</title>
<ellipse fill="none" stroke="black" cx="1952.58" cy="-375" rx="113.79" ry="18"/>
<text text-anchor="middle" x="1952.58" y="-369" font-family="Times New Roman,serif" font-size="15.00">send confirmation receipt</text>
</g>
<!-- 2082701434976&#45;&#45;2082701441120 -->
<g id="edge27" class="edge">
<title>2082701434976&#45;&#45;2082701441120</title>
<path fill="none" stroke="black" d="M1661.67,-341.02C1711.51,-346.86 1795.26,-356.68 1859.96,-364.26"/>
</g>
<!-- 2082701441504 -->
<g id="node35" class="node">
<title>2082701441504</title>
<ellipse fill="black" stroke="black" cx="1952.58" cy="-336" rx="2.7" ry="2.7"/>
</g>
<!-- 2082701434976&#45;&#45;2082701441504 -->
<g id="edge28" class="edge">
<title>2082701434976&#45;&#45;2082701441504</title>
<path fill="none" stroke="black" d="M1663.38,-336C1749.08,-336 1930.29,-336 1949.85,-336"/>
</g>
<!-- 2082701435216 -->
<g id="node37" class="node">
<title>2082701435216</title>
<ellipse fill="none" stroke="black" cx="1952.58" cy="-297" rx="27" ry="18"/>
<text text-anchor="middle" x="1952.58" y="-291" font-family="Times New Roman,serif" font-size="15.00">and</text>
</g>
<!-- 2082701427584&#45;&#45;2082701435216 -->
<g id="edge53" class="edge">
<title>2082701427584&#45;&#45;2082701435216</title>
<path fill="none" stroke="black" d="M1644.96,-262.9C1707.16,-269.82 1863.51,-287.21 1925.59,-294.11"/>
</g>
<!-- 2082701441072 -->
<g id="node61" class="node">
<title>2082701441072</title>
<ellipse fill="none" stroke="black" cx="1952.58" cy="-243" rx="27" ry="18"/>
<text text-anchor="middle" x="1952.58" y="-237" font-family="Times New Roman,serif" font-size="15.00">xor</text>
</g>
<!-- 2082701427584&#45;&#45;2082701441072 -->
<g id="edge60" class="edge">
<title>2082701427584&#45;&#45;2082701441072</title>
<path fill="none" stroke="black" d="M1645.24,-258.65C1707.49,-255.47 1862.93,-247.53 1925.19,-244.35"/>
</g>
<!-- 2082701432528 -->
<g id="node68" class="node">
<title>2082701432528</title>
<ellipse fill="none" stroke="black" cx="1952.58" cy="-173" rx="27" ry="18"/>
<text text-anchor="middle" x="1952.58" y="-167" font-family="Times New Roman,serif" font-size="15.00">xor</text>
</g>
<!-- 2082701427584&#45;&#45;2082701432528 -->
<g id="edge63" class="edge">
<title>2082701427584&#45;&#45;2082701432528</title>
<path fill="none" stroke="black" d="M1643.59,-253.53C1705.34,-237.39 1865.69,-195.46 1927.13,-179.39"/>
</g>
<!-- 2082701438960 -->
<g id="node71" class="node">
<title>2082701438960</title>
<ellipse fill="none" stroke="black" cx="1952.58" cy="-95" rx="27" ry="18"/>
<text text-anchor="middle" x="1952.58" y="-89" font-family="Times New Roman,serif" font-size="15.00">xor</text>
</g>
<!-- 2082701427584&#45;&#45;2082701438960 -->
<g id="edge68" class="edge">
<title>2082701427584&#45;&#45;2082701438960</title>
<path fill="none" stroke="black" d="M1640.17,-249.43C1700.27,-219.63 1870.55,-135.18 1930.43,-105.48"/>
</g>
<!-- 2082701431232 -->
<g id="node38" class="node">
<title>2082701431232</title>
<ellipse fill="none" stroke="black" cx="2305.21" cy="-362" rx="27" ry="18"/>
<text text-anchor="middle" x="2305.21" y="-356" font-family="Times New Roman,serif" font-size="15.00">xor</text>
</g>
<!-- 2082701435216&#45;&#45;2082701431232 -->
<g id="edge32" class="edge">
<title>2082701435216&#45;&#45;2082701431232</title>
<path fill="none" stroke="black" d="M1979.08,-301.73C2043.85,-313.73 2214.14,-345.3 2278.81,-357.29"/>
</g>
<!-- 2082701430224 -->
<g id="node41" class="node">
<title>2082701430224</title>
<ellipse fill="none" stroke="black" cx="2305.21" cy="-297" rx="27" ry="18"/>
<text text-anchor="middle" x="2305.21" y="-291" font-family="Times New Roman,serif" font-size="15.00">seq</text>
</g>
<!-- 2082701435216&#45;&#45;2082701430224 -->
<g id="edge52" class="edge">
<title>2082701435216&#45;&#45;2082701430224</title>
<path fill="none" stroke="black" d="M1979.93,-297C2045.07,-297 2213.07,-297 2278.03,-297"/>
</g>
<!-- 2082701438720 -->
<g id="node39" class="node">
<title>2082701438720</title>
<ellipse fill="black" stroke="black" cx="2633.29" cy="-409" rx="2.7" ry="2.7"/>
</g>
<!-- 2082701431232&#45;&#45;2082701438720 -->
<g id="edge30" class="edge">
<title>2082701431232&#45;&#45;2082701438720</title>
<path fill="none" stroke="black" d="M2332.07,-365.73C2404.98,-376.24 2608.32,-405.55 2630.35,-408.72"/>
</g>
<!-- 2082701440064 -->
<g id="node40" class="node">
<title>2082701440064</title>
<ellipse fill="none" stroke="black" cx="2633.29" cy="-370" rx="143.48" ry="18"/>
<text text-anchor="middle" x="2633.29" y="-364" font-family="Times New Roman,serif" font-size="15.00">enter senddate acknowledgement</text>
</g>
<!-- 2082701431232&#45;&#45;2082701440064 -->
<g id="edge31" class="edge">
<title>2082701431232&#45;&#45;2082701440064</title>
<path fill="none" stroke="black" d="M2332.62,-362.65C2367.57,-363.51 2431.79,-365.08 2491.83,-366.55"/>
</g>
<!-- 2082701429888 -->
<g id="node42" class="node">
<title>2082701429888</title>
<ellipse fill="none" stroke="black" cx="2633.29" cy="-316" rx="27" ry="18"/>
<text text-anchor="middle" x="2633.29" y="-310" font-family="Times New Roman,serif" font-size="15.00">and</text>
</g>
<!-- 2082701430224&#45;&#45;2082701429888 -->
<g id="edge44" class="edge">
<title>2082701430224&#45;&#45;2082701429888</title>
<path fill="none" stroke="black" d="M2332.35,-298.52C2393.4,-302.08 2544.85,-310.91 2606.03,-314.47"/>
</g>
<!-- 2082701429936 -->
<g id="node54" class="node">
<title>2082701429936</title>
<ellipse fill="none" stroke="black" cx="2633.29" cy="-262" rx="27" ry="18"/>
<text text-anchor="middle" x="2633.29" y="-256" font-family="Times New Roman,serif" font-size="15.00">xor</text>
</g>
<!-- 2082701430224&#45;&#45;2082701429936 -->
<g id="edge51" class="edge">
<title>2082701430224&#45;&#45;2082701429936</title>
<path fill="none" stroke="black" d="M2332.35,-294.19C2393.55,-287.63 2545.6,-271.3 2606.48,-264.77"/>
</g>
<!-- 2082701431856 -->
<g id="node43" class="node">
<title>2082701431856</title>
<ellipse fill="none" stroke="black" cx="2937.3" cy="-441" rx="27" ry="18"/>
<text text-anchor="middle" x="2937.3" y="-435" font-family="Times New Roman,serif" font-size="15.00">xor</text>
</g>
<!-- 2082701429888&#45;&#45;2082701431856 -->
<g id="edge35" class="edge">
<title>2082701429888&#45;&#45;2082701431856</title>
<path fill="none" stroke="black" d="M2656.49,-325.19C2712.21,-348.25 2857.47,-408.37 2913.65,-431.63"/>
</g>
<!-- 2082701432240 -->
<g id="node46" class="node">
<title>2082701432240</title>
<ellipse fill="none" stroke="black" cx="2937.3" cy="-322" rx="27" ry="18"/>
<text text-anchor="middle" x="2937.3" y="-316" font-family="Times New Roman,serif" font-size="15.00">seq</text>
</g>
<!-- 2082701429888&#45;&#45;2082701432240 -->
<g id="edge43" class="edge">
<title>2082701429888&#45;&#45;2082701432240</title>
<path fill="none" stroke="black" d="M2660.56,-316.52C2717.68,-317.66 2852.62,-320.34 2909.88,-321.47"/>
</g>
<!-- 2082701435696 -->
<g id="node44" class="node">
<title>2082701435696</title>
<ellipse fill="black" stroke="black" cx="3263.84" cy="-480" rx="2.7" ry="2.7"/>
</g>
<!-- 2082701431856&#45;&#45;2082701435696 -->
<g id="edge33" class="edge">
<title>2082701431856&#45;&#45;2082701435696</title>
<path fill="none" stroke="black" d="M2964.31,-444.13C3037.11,-452.87 3239.04,-477.14 3260.91,-479.77"/>
</g>
<!-- 2082701435264 -->
<g id="node45" class="node">
<title>2082701435264</title>
<ellipse fill="none" stroke="black" cx="3263.84" cy="-441" rx="166" ry="18"/>
<text text-anchor="middle" x="3263.84" y="-435" font-family="Times New Roman,serif" font-size="15.00">enter senddate procedure confirmation</text>
</g>
<!-- 2082701431856&#45;&#45;2082701435264 -->
<g id="edge34" class="edge">
<title>2082701431856&#45;&#45;2082701435264</title>
<path fill="none" stroke="black" d="M2964.59,-441C2994.47,-441 3045.84,-441 3097.61,-441"/>
</g>
<!-- 2082701434928 -->
<g id="node47" class="node">
<title>2082701434928</title>
<ellipse fill="none" stroke="black" cx="3263.84" cy="-387" rx="27" ry="18"/>
<text text-anchor="middle" x="3263.84" y="-381" font-family="Times New Roman,serif" font-size="15.00">xor</text>
</g>
<!-- 2082701432240&#45;&#45;2082701434928 -->
<g id="edge38" class="edge">
<title>2082701432240&#45;&#45;2082701434928</title>
<path fill="none" stroke="black" d="M2963.5,-327.05C3023.96,-339.16 3176.76,-369.76 3237.44,-381.91"/>
</g>
<!-- 2082701442512 -->
<g id="node50" class="node">
<title>2082701442512</title>
<ellipse fill="none" stroke="black" cx="3263.84" cy="-333" rx="139.89" ry="18"/>
<text text-anchor="middle" x="3263.84" y="-327" font-family="Times New Roman,serif" font-size="15.00">regular procedure without MER</text>
</g>
<!-- 2082701432240&#45;&#45;2082701442512 -->
<g id="edge39" class="edge">
<title>2082701432240&#45;&#45;2082701442512</title>
<path fill="none" stroke="black" d="M2964.59,-322.89C3000.35,-324.1 3066.91,-326.36 3128.09,-328.43"/>
</g>
<!-- 2082701436608 -->
<g id="node51" class="node">
<title>2082701436608</title>
<ellipse fill="none" stroke="black" cx="3263.84" cy="-279" rx="27" ry="18"/>
<text text-anchor="middle" x="3263.84" y="-273" font-family="Times New Roman,serif" font-size="15.00">xor</text>
</g>
<!-- 2082701432240&#45;&#45;2082701436608 -->
<g id="edge42" class="edge">
<title>2082701432240&#45;&#45;2082701436608</title>
<path fill="none" stroke="black" d="M2964.31,-318.55C3025.23,-310.48 3176.56,-290.43 3237.16,-282.4"/>
</g>
<!-- 2082701427920 -->
<g id="node48" class="node">
<title>2082701427920</title>
<ellipse fill="black" stroke="black" cx="3592.42" cy="-399" rx="2.7" ry="2.7"/>
</g>
<!-- 2082701434928&#45;&#45;2082701427920 -->
<g id="edge36" class="edge">
<title>2082701434928&#45;&#45;2082701427920</title>
<path fill="none" stroke="black" d="M3291.29,-387.97C3364.79,-390.67 3567.53,-398.12 3589.49,-398.93"/>
</g>
<!-- 2082701432336 -->
<g id="node49" class="node">
<title>2082701432336</title>
<ellipse fill="none" stroke="black" cx="3592.42" cy="-360" rx="103.56" ry="18"/>
<text text-anchor="middle" x="3592.42" y="-354" font-family="Times New Roman,serif" font-size="15.00">reception through OLO</text>
</g>
<!-- 2082701434928&#45;&#45;2082701432336 -->
<g id="edge37" class="edge">
<title>2082701434928&#45;&#45;2082701432336</title>
<path fill="none" stroke="black" d="M3291.01,-384.84C3335.36,-381.17 3427.33,-373.57 3497.9,-367.73"/>
</g>
<!-- 2082701435360 -->
<g id="node52" class="node">
<title>2082701435360</title>
<ellipse fill="black" stroke="black" cx="3592.42" cy="-306" rx="2.7" ry="2.7"/>
</g>
<!-- 2082701436608&#45;&#45;2082701435360 -->
<g id="edge40" class="edge">
<title>2082701436608&#45;&#45;2082701435360</title>
<path fill="none" stroke="black" d="M3291.01,-281.16C3364.27,-287.22 3567.48,-304.02 3589.48,-305.84"/>
</g>
<!-- 2082701433008 -->
<g id="node53" class="node">
<title>2082701433008</title>
<ellipse fill="none" stroke="black" cx="3592.42" cy="-267" rx="126.59" ry="18"/>
<text text-anchor="middle" x="3592.42" y="-261" font-family="Times New Roman,serif" font-size="15.00">send procedure confirmation</text>
</g>
<!-- 2082701436608&#45;&#45;2082701433008 -->
<g id="edge41" class="edge">
<title>2082701436608&#45;&#45;2082701433008</title>
<path fill="none" stroke="black" d="M3291.29,-278.03C3329.94,-276.61 3404.32,-273.87 3469.36,-271.49"/>
</g>
<!-- 2082701441744 -->
<g id="node55" class="node">
<title>2082701441744</title>
<ellipse fill="black" stroke="black" cx="2937.3" cy="-276" rx="2.7" ry="2.7"/>
</g>
<!-- 2082701429936&#45;&#45;2082701441744 -->
<g id="edge45" class="edge">
<title>2082701429936&#45;&#45;2082701441744</title>
<path fill="none" stroke="black" d="M2660.56,-263.22C2730.02,-266.44 2914.57,-274.99 2934.54,-275.92"/>
</g>
<!-- 2082701440832 -->
<g id="node56" class="node">
<title>2082701440832</title>
<ellipse fill="none" stroke="black" cx="2937.3" cy="-237" rx="27" ry="18"/>
<text text-anchor="middle" x="2937.3" y="-231" font-family="Times New Roman,serif" font-size="15.00">seq</text>
</g>
<!-- 2082701429936&#45;&#45;2082701440832 -->
<g id="edge50" class="edge">
<title>2082701429936&#45;&#45;2082701440832</title>
<path fill="none" stroke="black" d="M2660.56,-259.83C2717.82,-255.09 2853.3,-243.87 2910.31,-239.15"/>
</g>
<!-- 2082701430896 -->
<g id="node57" class="node">
<title>2082701430896</title>
<ellipse fill="none" stroke="black" cx="3263.84" cy="-225" rx="132.73" ry="18"/>
<text text-anchor="middle" x="3263.84" y="-219" font-family="Times New Roman,serif" font-size="15.00">create procedure confirmation</text>
</g>
<!-- 2082701440832&#45;&#45;2082701430896 -->
<g id="edge46" class="edge">
<title>2082701440832&#45;&#45;2082701430896</title>
<path fill="none" stroke="black" d="M2964.59,-236.03C3001.71,-234.66 3072.01,-232.06 3135.04,-229.73"/>
</g>
<!-- 2082701437184 -->
<g id="node58" class="node">
<title>2082701437184</title>
<ellipse fill="none" stroke="black" cx="3263.84" cy="-171" rx="27" ry="18"/>
<text text-anchor="middle" x="3263.84" y="-165" font-family="Times New Roman,serif" font-size="15.00">xor</text>
</g>
<!-- 2082701440832&#45;&#45;2082701437184 -->
<g id="edge49" class="edge">
<title>2082701440832&#45;&#45;2082701437184</title>
<path fill="none" stroke="black" d="M2963.5,-231.88C3023.96,-219.58 3176.76,-188.51 3237.44,-176.17"/>
</g>
<!-- 2082701434304 -->
<g id="node59" class="node">
<title>2082701434304</title>
<ellipse fill="black" stroke="black" cx="3592.42" cy="-191" rx="2.7" ry="2.7"/>
</g>
<!-- 2082701437184&#45;&#45;2082701434304 -->
<g id="edge47" class="edge">
<title>2082701437184&#45;&#45;2082701434304</title>
<path fill="none" stroke="black" d="M3291.01,-172.6C3364.27,-177.09 3567.48,-189.53 3589.48,-190.88"/>
</g>
<!-- 2082701434352 -->
<g id="node60" class="node">
<title>2082701434352</title>
<ellipse fill="none" stroke="black" cx="3592.42" cy="-152" rx="40.6" ry="18"/>
<text text-anchor="middle" x="3592.42" y="-146" font-family="Times New Roman,serif" font-size="15.00">publish</text>
</g>
<!-- 2082701437184&#45;&#45;2082701434352 -->
<g id="edge48" class="edge">
<title>2082701437184&#45;&#45;2082701434352</title>
<path fill="none" stroke="black" d="M3291.01,-169.48C3348.08,-166.16 3483.98,-158.25 3551.68,-154.31"/>
</g>
<!-- 2082701442800 -->
<g id="node62" class="node">
<title>2082701442800</title>
<ellipse fill="black" stroke="black" cx="2305.21" cy="-251" rx="2.7" ry="2.7"/>
</g>
<!-- 2082701441072&#45;&#45;2082701442800 -->
<g id="edge54" class="edge">
<title>2082701441072&#45;&#45;2082701442800</title>
<path fill="none" stroke="black" d="M1979.93,-243.6C2057.02,-245.36 2278.15,-250.41 2302.1,-250.95"/>
</g>
<!-- 2082701438096 -->
<g id="node63" class="node">
<title>2082701438096</title>
<ellipse fill="none" stroke="black" cx="2305.21" cy="-212" rx="27" ry="18"/>
<text text-anchor="middle" x="2305.21" y="-206" font-family="Times New Roman,serif" font-size="15.00">seq</text>
</g>
<!-- 2082701441072&#45;&#45;2082701438096 -->
<g id="edge59" class="edge">
<title>2082701441072&#45;&#45;2082701438096</title>
<path fill="none" stroke="black" d="M1979.64,-240.7C2044.56,-234.96 2212.88,-220.08 2277.97,-214.32"/>
</g>
<!-- 2082701426912 -->
<g id="node64" class="node">
<title>2082701426912</title>
<ellipse fill="none" stroke="black" cx="2633.29" cy="-204" rx="27" ry="18"/>
<text text-anchor="middle" x="2633.29" y="-198" font-family="Times New Roman,serif" font-size="15.00">xor</text>
</g>
<!-- 2082701438096&#45;&#45;2082701426912 -->
<g id="edge57" class="edge">
<title>2082701438096&#45;&#45;2082701426912</title>
<path fill="none" stroke="black" d="M2332.62,-211.35C2393.87,-209.85 2545.04,-206.14 2606.09,-204.64"/>
</g>
<!-- 2082701436272 -->
<g id="node67" class="node">
<title>2082701436272</title>
<ellipse fill="none" stroke="black" cx="2633.29" cy="-150" rx="124.54" ry="18"/>
<text text-anchor="middle" x="2633.29" y="-144" font-family="Times New Roman,serif" font-size="15.00">registration date publication</text>
</g>
<!-- 2082701438096&#45;&#45;2082701436272 -->
<g id="edge58" class="edge">
<title>2082701438096&#45;&#45;2082701436272</title>
<path fill="none" stroke="black" d="M2331.53,-207.19C2379.11,-198.14 2483.61,-178.27 2555.96,-164.51"/>
</g>
<!-- 2082701434880 -->
<g id="node65" class="node">
<title>2082701434880</title>
<ellipse fill="black" stroke="black" cx="2937.3" cy="-198" rx="2.7" ry="2.7"/>
</g>
<!-- 2082701426912&#45;&#45;2082701434880 -->
<g id="edge55" class="edge">
<title>2082701426912&#45;&#45;2082701434880</title>
<path fill="none" stroke="black" d="M2660.56,-203.48C2730.02,-202.1 2914.57,-198.43 2934.54,-198.03"/>
</g>
<!-- 2082701441696 -->
<g id="node66" class="node">
<title>2082701441696</title>
<ellipse fill="none" stroke="black" cx="2937.3" cy="-159" rx="124.54" ry="18"/>
<text text-anchor="middle" x="2937.3" y="-153" font-family="Times New Roman,serif" font-size="15.00">create publication document</text>
</g>
<!-- 2082701426912&#45;&#45;2082701441696 -->
<g id="edge56" class="edge">
<title>2082701426912&#45;&#45;2082701441696</title>
<path fill="none" stroke="black" d="M2660.04,-200.16C2701.4,-194 2784.54,-181.61 2848.86,-172.03"/>
</g>
<!-- 2082701427536 -->
<g id="node69" class="node">
<title>2082701427536</title>
<ellipse fill="black" stroke="black" cx="2305.21" cy="-173" rx="2.7" ry="2.7"/>
</g>
<!-- 2082701432528&#45;&#45;2082701427536 -->
<g id="edge61" class="edge">
<title>2082701432528&#45;&#45;2082701427536</title>
<path fill="none" stroke="black" d="M1979.93,-173C2057.02,-173 2278.15,-173 2302.1,-173"/>
</g>
<!-- 2082701428160 -->
<g id="node70" class="node">
<title>2082701428160</title>
<ellipse fill="none" stroke="black" cx="2305.21" cy="-134" rx="148.59" ry="18"/>
<text text-anchor="middle" x="2305.21" y="-128" font-family="Times New Roman,serif" font-size="15.00">no permit required for application</text>
</g>
<!-- 2082701432528&#45;&#45;2082701428160 -->
<g id="edge62" class="edge">
<title>2082701432528&#45;&#45;2082701428160</title>
<path fill="none" stroke="black" d="M1979.64,-170.1C2024.48,-165.11 2118.65,-154.64 2194.06,-146.25"/>
</g>
<!-- 2082701429840 -->
<g id="node72" class="node">
<title>2082701429840</title>
<ellipse fill="black" stroke="black" cx="2305.21" cy="-95" rx="2.7" ry="2.7"/>
</g>
<!-- 2082701438960&#45;&#45;2082701429840 -->
<g id="edge64" class="edge">
<title>2082701438960&#45;&#45;2082701429840</title>
<path fill="none" stroke="black" d="M1979.93,-95C2057.02,-95 2278.15,-95 2302.1,-95"/>
</g>
<!-- 2082701442416 -->
<g id="node73" class="node">
<title>2082701442416</title>
<ellipse fill="none" stroke="black" cx="2305.21" cy="-56" rx="27" ry="18"/>
<text text-anchor="middle" x="2305.21" y="-50" font-family="Times New Roman,serif" font-size="15.00">seq</text>
</g>
<!-- 2082701438960&#45;&#45;2082701442416 -->
<g id="edge67" class="edge">
<title>2082701438960&#45;&#45;2082701442416</title>
<path fill="none" stroke="black" d="M1979.64,-92.1C2044.72,-84.86 2213.7,-66.07 2278.45,-58.87"/>
</g>
<!-- 2082701440496 -->
<g id="node74" class="node">
<title>2082701440496</title>
<ellipse fill="none" stroke="black" cx="2633.29" cy="-72" rx="64.15" ry="18"/>
<text text-anchor="middle" x="2633.29" y="-66" font-family="Times New Roman,serif" font-size="15.00">MER present</text>
</g>
<!-- 2082701442416&#45;&#45;2082701440496 -->
<g id="edge65" class="edge">
<title>2082701442416&#45;&#45;2082701440496</title>
<path fill="none" stroke="black" d="M2332.62,-57.3C2383.87,-59.81 2498.05,-65.41 2569.74,-68.93"/>
</g>
<!-- 2082701427824 -->
<g id="node75" class="node">
<title>2082701427824</title>
<ellipse fill="none" stroke="black" cx="2633.29" cy="-18" rx="123" ry="18"/>
<text text-anchor="middle" x="2633.29" y="-12" font-family="Times New Roman,serif" font-size="15.00">activities regular procedure</text>
</g>
<!-- 2082701442416&#45;&#45;2082701427824 -->
<g id="edge66" class="edge">
<title>2082701442416&#45;&#45;2082701427824</title>
<path fill="none" stroke="black" d="M2332.07,-52.99C2375.53,-47.92 2465.33,-37.46 2535.45,-29.28"/>
</g>
<!-- 2082701436032 -->
<g id="node77" class="node">
<title>2082701436032</title>
<ellipse fill="black" stroke="black" cx="1617.85" cy="-221" rx="2.7" ry="2.7"/>
</g>
<!-- 2082701442128&#45;&#45;2082701436032 -->
<g id="edge71" class="edge">
<title>2082701442128&#45;&#45;2082701436032</title>
<path fill="none" stroke="black" d="M1376.21,-221C1439.12,-221 1595.57,-221 1614.89,-221"/>
</g>
<!-- 2082701428256 -->
<g id="node78" class="node">
<title>2082701428256</title>
<ellipse fill="none" stroke="black" cx="1617.85" cy="-182" rx="130.68" ry="18"/>
<text text-anchor="middle" x="1617.85" y="-176" font-family="Times New Roman,serif" font-size="15.00">create subcases completeness</text>
</g>
<!-- 2082701442128&#45;&#45;2082701428256 -->
<g id="edge72" class="edge">
<title>2082701442128&#45;&#45;2082701428256</title>
<path fill="none" stroke="black" d="M1375.72,-217.26C1410.21,-212.22 1473.41,-202.97 1526.46,-195.22"/>
</g>
<!-- 2082700063760 -->
<g id="node80" class="node">
<title>2082700063760</title>
<ellipse fill="black" stroke="black" cx="320.41" cy="-429" rx="2.7" ry="2.7"/>
</g>
<!-- 2082699975120&#45;&#45;2082700063760 -->
<g id="edge78" class="edge">
<title>2082699975120&#45;&#45;2082700063760</title>
<path fill="none" stroke="black" d="M143.1,-394.86C192.87,-404.5 300.71,-425.38 317.26,-428.58"/>
</g>
<!-- 2082700061168 -->
<g id="node81" class="node">
<title>2082700061168</title>
<ellipse fill="none" stroke="black" cx="320.41" cy="-390" rx="87.18" ry="18"/>
<text text-anchor="middle" x="320.41" y="-384" font-family="Times New Roman,serif" font-size="15.00">phased application</text>
</g>
<!-- 2082699975120&#45;&#45;2082700061168 -->
<g id="edge79" class="edge">
<title>2082699975120&#45;&#45;2082700061168</title>
<path fill="none" stroke="black" d="M144.33,-390C166.94,-390 200.84,-390 232.8,-390"/>
</g>
<!-- 2082700061024 -->
<g id="node82" class="node">
<title>2082700061024</title>
<ellipse fill="none" stroke="black" cx="320.41" cy="-336" rx="45.21" ry="18"/>
<text text-anchor="middle" x="320.41" y="-330" font-family="Times New Roman,serif" font-size="15.00">xor loop</text>
</g>
<!-- 2082699975120&#45;&#45;2082700061024 -->
<g id="edge82" class="edge">
<title>2082699975120&#45;&#45;2082700061024</title>
<path fill="none" stroke="black" d="M142.29,-383.49C177.03,-374.17 241.19,-356.97 282.01,-346.03"/>
</g>
<!-- 2082700053776 -->
<g id="node85" class="node">
<title>2082700053776</title>
<ellipse fill="none" stroke="black" cx="320.41" cy="-282" rx="52.89" ry="18"/>
<text text-anchor="middle" x="320.41" y="-276" font-family="Times New Roman,serif" font-size="15.00">close case</text>
</g>
<!-- 2082699975120&#45;&#45;2082700053776 -->
<g id="edge83" class="edge">
<title>2082699975120&#45;&#45;2082700053776</title>
<path fill="none" stroke="black" d="M138.8,-378.85C175.08,-359.39 249.98,-319.23 291.01,-297.23"/>
</g>
<!-- 2082701440736 -->
<g id="node83" class="node">
<title>2082701440736</title>
<ellipse fill="none" stroke="black" cx="686.35" cy="-339" rx="189.54" ry="18"/>
<text text-anchor="middle" x="686.35" y="-333" font-family="Times New Roman,serif" font-size="15.00">registrer date of publishing received request</text>
</g>
<!-- 2082700061024&#45;&#45;2082701440736 -->
<g id="edge80" class="edge">
<title>2082700061024&#45;&#45;2082701440736</title>
<path fill="none" stroke="black" d="M366.03,-336.37C399.63,-336.64 448.16,-337.04 497.28,-337.45"/>
</g>
<!-- 2082701439440 -->
<g id="node84" class="node">
<title>2082701439440</title>
<ellipse fill="black" stroke="black" cx="686.35" cy="-300" rx="2.7" ry="2.7"/>
</g>
<!-- 2082700061024&#45;&#45;2082701439440 -->
<g id="edge81" class="edge">
<title>2082700061024&#45;&#45;2082701439440</title>
<path fill="none" stroke="black" d="M364.58,-331.73C455.72,-322.71 661.19,-302.39 683.4,-300.19"/>
</g>
</g>
</svg>
