<?xml version="1.0" encoding="UTF-8" standalone="no"?>
<!DOCTYPE svg PUBLIC "-//W3C//DTD SVG 1.1//EN"
 "http://www.w3.org/Graphics/SVG/1.1/DTD/svg11.dtd">
<!-- Generated by graphviz version 11.0.0 (20240428.1522)
 -->
<!-- Title: pt Pages: 1 -->
<svg width="3255pt" height="1167pt"
 viewBox="0.00 0.00 3255.20 1167.00" xmlns="http://www.w3.org/2000/svg" xmlns:xlink="http://www.w3.org/1999/xlink">
<g id="graph0" class="graph" transform="scale(1 1) rotate(0) translate(4 1163)">
<title>pt</title>
<polygon fill="white" stroke="none" points="-4,4 -4,-1163 3251.2,-1163 3251.2,4 -4,4"/>
<!-- 2082700948688 -->
<g id="node1" class="node">
<title>2082700948688</title>
<ellipse fill="none" stroke="black" cx="27" cy="-1006" rx="27" ry="18"/>
<text text-anchor="middle" x="27" y="-1000" font-family="Times New Roman,serif" font-size="15.00">seq</text>
</g>
<!-- 2082700949408 -->
<g id="node2" class="node">
<title>2082700949408</title>
<ellipse fill="none" stroke="black" cx="243.2" cy="-1141" rx="125.05" ry="18"/>
<text text-anchor="middle" x="243.2" y="-1135" font-family="Times New Roman,serif" font-size="15.00">Log submission date request</text>
</g>
<!-- 2082700948688&#45;&#45;2082700949408 -->
<g id="edge1" class="edge">
<title>2082700948688&#45;&#45;2082700949408</title>
<path fill="none" stroke="black" d="M47.39,-1018.22C85.39,-1042.17 169.8,-1095.37 213.99,-1123.22"/>
</g>
<!-- 2082700936880 -->
<g id="node3" class="node">
<title>2082700936880</title>
<ellipse fill="none" stroke="black" cx="243.2" cy="-1087" rx="121.47" ry="18"/>
<text text-anchor="middle" x="243.2" y="-1081" font-family="Times New Roman,serif" font-size="15.00">OLO communication active</text>
</g>
<!-- 2082700948688&#45;&#45;2082700936880 -->
<g id="edge2" class="edge">
<title>2082700948688&#45;&#45;2082700936880</title>
<path fill="none" stroke="black" d="M50.92,-1014.67C85.68,-1027.81 152.37,-1053.03 197.09,-1069.94"/>
</g>
<!-- 2082700945280 -->
<g id="node4" class="node">
<title>2082700945280</title>
<ellipse fill="none" stroke="black" cx="243.2" cy="-1033" rx="27" ry="18"/>
<text text-anchor="middle" x="243.2" y="-1027" font-family="Times New Roman,serif" font-size="15.00">xor</text>
</g>
<!-- 2082700948688&#45;&#45;2082700945280 -->
<g id="edge5" class="edge">
<title>2082700948688&#45;&#45;2082700945280</title>
<path fill="none" stroke="black" d="M53.84,-1009.26C95.01,-1014.45 175.04,-1024.53 216.27,-1029.73"/>
</g>
<!-- 2082700938128 -->
<g id="node7" class="node">
<title>2082700938128</title>
<ellipse fill="none" stroke="black" cx="243.2" cy="-979" rx="27" ry="18"/>
<text text-anchor="middle" x="243.2" y="-973" font-family="Times New Roman,serif" font-size="15.00">xor</text>
</g>
<!-- 2082700948688&#45;&#45;2082700938128 -->
<g id="edge38" class="edge">
<title>2082700948688&#45;&#45;2082700938128</title>
<path fill="none" stroke="black" d="M53.84,-1002.74C95.01,-997.55 175.04,-987.47 216.27,-982.27"/>
</g>
<!-- 2082702170864 -->
<g id="node40" class="node">
<title>2082702170864</title>
<ellipse fill="none" stroke="black" cx="243.2" cy="-925" rx="153.2" ry="18"/>
<text text-anchor="middle" x="243.2" y="-919" font-family="Times New Roman,serif" font-size="15.00">Record senddate acknowledgement</text>
</g>
<!-- 2082700948688&#45;&#45;2082702170864 -->
<g id="edge39" class="edge">
<title>2082700948688&#45;&#45;2082702170864</title>
<path fill="none" stroke="black" d="M50.92,-997.33C85.35,-984.31 151.13,-959.44 195.83,-942.54"/>
</g>
<!-- 2082702166784 -->
<g id="node41" class="node">
<title>2082702166784</title>
<ellipse fill="none" stroke="black" cx="243.2" cy="-712" rx="27" ry="18"/>
<text text-anchor="middle" x="243.2" y="-706" font-family="Times New Roman,serif" font-size="15.00">xor</text>
</g>
<!-- 2082700948688&#45;&#45;2082702166784 -->
<g id="edge71" class="edge">
<title>2082700948688&#45;&#45;2082702166784</title>
<path fill="none" stroke="black" d="M39.82,-989.77C77.27,-938.37 193.02,-779.51 230.42,-728.18"/>
</g>
<!-- 2082700942976 -->
<g id="node5" class="node">
<title>2082700942976</title>
<ellipse fill="black" stroke="black" cx="557.45" cy="-1072" rx="2.7" ry="2.7"/>
</g>
<!-- 2082700945280&#45;&#45;2082700942976 -->
<g id="edge3" class="edge">
<title>2082700945280&#45;&#45;2082700942976</title>
<path fill="none" stroke="black" d="M270.02,-1036.22C340.74,-1045.06 533.72,-1069.16 554.61,-1071.77"/>
</g>
<!-- 2082700949696 -->
<g id="node6" class="node">
<title>2082700949696</title>
<ellipse fill="none" stroke="black" cx="557.45" cy="-1033" rx="125.05" ry="18"/>
<text text-anchor="middle" x="557.45" y="-1027" font-family="Times New Roman,serif" font-size="15.00">Submit application via OLO</text>
</g>
<!-- 2082700945280&#45;&#45;2082700949696 -->
<g id="edge4" class="edge">
<title>2082700945280&#45;&#45;2082700949696</title>
<path fill="none" stroke="black" d="M270.55,-1033C306.28,-1033 372.5,-1033 432.21,-1033"/>
</g>
<!-- 2082700950032 -->
<g id="node8" class="node">
<title>2082700950032</title>
<ellipse fill="black" stroke="black" cx="557.45" cy="-994" rx="2.7" ry="2.7"/>
</g>
<!-- 2082700938128&#45;&#45;2082700950032 -->
<g id="edge6" class="edge">
<title>2082700938128&#45;&#45;2082700950032</title>
<path fill="none" stroke="black" d="M270.55,-980.27C341.72,-983.68 533.82,-992.91 554.62,-993.91"/>
</g>
<!-- 2082700947920 -->
<g id="node9" class="node">
<title>2082700947920</title>
<ellipse fill="none" stroke="black" cx="557.45" cy="-955" rx="27" ry="18"/>
<text text-anchor="middle" x="557.45" y="-949" font-family="Times New Roman,serif" font-size="15.00">seq</text>
</g>
<!-- 2082700938128&#45;&#45;2082700947920 -->
<g id="edge37" class="edge">
<title>2082700938128&#45;&#45;2082700947920</title>
<path fill="none" stroke="black" d="M270.29,-977C329.06,-972.48 471.31,-961.54 530.22,-957.02"/>
</g>
<!-- 2082700940672 -->
<g id="node10" class="node">
<title>2082700940672</title>
<ellipse fill="none" stroke="black" cx="918.79" cy="-1036" rx="27" ry="18"/>
<text text-anchor="middle" x="918.79" y="-1030" font-family="Times New Roman,serif" font-size="15.00">xor</text>
</g>
<!-- 2082700947920&#45;&#45;2082700940672 -->
<g id="edge13" class="edge">
<title>2082700947920&#45;&#45;2082700940672</title>
<path fill="none" stroke="black" d="M583.44,-960.63C649.33,-975.48 827.27,-1015.6 892.98,-1030.41"/>
</g>
<!-- 2082702169040 -->
<g id="node17" class="node">
<title>2082702169040</title>
<ellipse fill="none" stroke="black" cx="918.79" cy="-955" rx="45.21" ry="18"/>
<text text-anchor="middle" x="918.79" y="-949" font-family="Times New Roman,serif" font-size="15.00">xor loop</text>
</g>
<!-- 2082700947920&#45;&#45;2082702169040 -->
<g id="edge36" class="edge">
<title>2082700947920&#45;&#45;2082702169040</title>
<path fill="none" stroke="black" d="M584.88,-955C645.98,-955 797.6,-955 873.31,-955"/>
</g>
<!-- 2082700938944 -->
<g id="node11" class="node">
<title>2082700938944</title>
<ellipse fill="black" stroke="black" cx="1354.86" cy="-1102" rx="2.7" ry="2.7"/>
</g>
<!-- 2082700940672&#45;&#45;2082700938944 -->
<g id="edge7" class="edge">
<title>2082700940672&#45;&#45;2082700938944</title>
<path fill="none" stroke="black" d="M945.65,-1039.93C1034.71,-1053.47 1324.83,-1097.59 1351.84,-1101.69"/>
</g>
<!-- 2082700946480 -->
<g id="node12" class="node">
<title>2082700946480</title>
<ellipse fill="none" stroke="black" cx="1354.86" cy="-1063" rx="27" ry="18"/>
<text text-anchor="middle" x="1354.86" y="-1057" font-family="Times New Roman,serif" font-size="15.00">seq</text>
</g>
<!-- 2082700940672&#45;&#45;2082700946480 -->
<g id="edge11" class="edge">
<title>2082700940672&#45;&#45;2082700946480</title>
<path fill="none" stroke="black" d="M945.97,-1037.63C1023.32,-1042.44 1250.26,-1056.56 1327.65,-1061.37"/>
</g>
<!-- 2082702169232 -->
<g id="node16" class="node">
<title>2082702169232</title>
<ellipse fill="none" stroke="black" cx="1354.86" cy="-1009" rx="199.78" ry="18"/>
<text text-anchor="middle" x="1354.86" y="-1003" font-family="Times New Roman,serif" font-size="15.00">No permit required or only notification needed</text>
</g>
<!-- 2082700940672&#45;&#45;2082702169232 -->
<g id="edge12" class="edge">
<title>2082700940672&#45;&#45;2082702169232</title>
<path fill="none" stroke="black" d="M945.97,-1034.37C993.49,-1031.42 1097.46,-1024.95 1188.54,-1019.28"/>
</g>
<!-- 2082700938752 -->
<g id="node13" class="node">
<title>2082700938752</title>
<ellipse fill="none" stroke="black" cx="1807.81" cy="-1117" rx="116.86" ry="18"/>
<text text-anchor="middle" x="1807.81" y="-1111" font-family="Times New Roman,serif" font-size="15.00">Applicant is a stakeholder</text>
</g>
<!-- 2082700946480&#45;&#45;2082700938752 -->
<g id="edge8" class="edge">
<title>2082700946480&#45;&#45;2082700938752</title>
<path fill="none" stroke="black" d="M1381.72,-1066.1C1444.89,-1073.66 1609.49,-1093.37 1714.35,-1105.93"/>
</g>
<!-- 2082701433872 -->
<g id="node14" class="node">
<title>2082701433872</title>
<ellipse fill="none" stroke="black" cx="1807.81" cy="-1063" rx="70.8" ry="18"/>
<text text-anchor="middle" x="1807.81" y="-1057" font-family="Times New Roman,serif" font-size="15.00">End on request</text>
</g>
<!-- 2082700946480&#45;&#45;2082701433872 -->
<g id="edge9" class="edge">
<title>2082700946480&#45;&#45;2082701433872</title>
<path fill="none" stroke="black" d="M1382.05,-1063C1450.19,-1063 1634.77,-1063 1736.74,-1063"/>
</g>
<!-- 2082702178352 -->
<g id="node15" class="node">
<title>2082702178352</title>
<ellipse fill="none" stroke="black" cx="1807.81" cy="-1009" rx="129.15" ry="18"/>
<text text-anchor="middle" x="1807.81" y="-1003" font-family="Times New Roman,serif" font-size="15.00">Compute provisional charges</text>
</g>
<!-- 2082700946480&#45;&#45;2082702178352 -->
<g id="edge10" class="edge">
<title>2082700946480&#45;&#45;2082702178352</title>
<path fill="none" stroke="black" d="M1381.72,-1059.9C1443.67,-1052.48 1603.18,-1033.38 1708.22,-1020.81"/>
</g>
<!-- 2082702167552 -->
<g id="node18" class="node">
<title>2082702167552</title>
<ellipse fill="none" stroke="black" cx="1354.86" cy="-955" rx="27" ry="18"/>
<text text-anchor="middle" x="1354.86" y="-949" font-family="Times New Roman,serif" font-size="15.00">seq</text>
</g>
<!-- 2082702169040&#45;&#45;2082702167552 -->
<g id="edge34" class="edge">
<title>2082702169040&#45;&#45;2082702167552</title>
<path fill="none" stroke="black" d="M964.21,-955C1054.09,-955 1255.14,-955 1327.38,-955"/>
</g>
<!-- 2082702169472 -->
<g id="node39" class="node">
<title>2082702169472</title>
<ellipse fill="black" stroke="black" cx="1354.86" cy="-916" rx="2.7" ry="2.7"/>
</g>
<!-- 2082702169040&#45;&#45;2082702169472 -->
<g id="edge35" class="edge">
<title>2082702169040&#45;&#45;2082702169472</title>
<path fill="none" stroke="black" d="M963.4,-951.08C1067.88,-941.69 1325.82,-918.52 1351.75,-916.19"/>
</g>
<!-- 2082702174992 -->
<g id="node19" class="node">
<title>2082702174992</title>
<ellipse fill="none" stroke="black" cx="1807.81" cy="-955" rx="27" ry="18"/>
<text text-anchor="middle" x="1807.81" y="-949" font-family="Times New Roman,serif" font-size="15.00">xor</text>
</g>
<!-- 2082702167552&#45;&#45;2082702174992 -->
<g id="edge20" class="edge">
<title>2082702167552&#45;&#45;2082702174992</title>
<path fill="none" stroke="black" d="M1382.05,-955C1461.75,-955 1700.74,-955 1780.54,-955"/>
</g>
<!-- 2082702168416 -->
<g id="node26" class="node">
<title>2082702168416</title>
<ellipse fill="none" stroke="black" cx="1807.81" cy="-901" rx="27" ry="18"/>
<text text-anchor="middle" x="1807.81" y="-895" font-family="Times New Roman,serif" font-size="15.00">xor</text>
</g>
<!-- 2082702167552&#45;&#45;2082702168416 -->
<g id="edge33" class="edge">
<title>2082702167552&#45;&#45;2082702168416</title>
<path fill="none" stroke="black" d="M1381.72,-951.9C1461.17,-942.39 1701.09,-913.66 1780.77,-904.12"/>
</g>
<!-- 2082705095952 -->
<g id="node20" class="node">
<title>2082705095952</title>
<ellipse fill="black" stroke="black" cx="2192.18" cy="-994" rx="2.7" ry="2.7"/>
</g>
<!-- 2082702174992&#45;&#45;2082705095952 -->
<g id="edge14" class="edge">
<title>2082702174992&#45;&#45;2082705095952</title>
<path fill="none" stroke="black" d="M1834.79,-957.65C1916.48,-965.98 2164.2,-991.25 2189.15,-993.79"/>
</g>
<!-- 2082705086640 -->
<g id="node21" class="node">
<title>2082705086640</title>
<ellipse fill="none" stroke="black" cx="2192.18" cy="-955" rx="27" ry="18"/>
<text text-anchor="middle" x="2192.18" y="-949" font-family="Times New Roman,serif" font-size="15.00">seq</text>
</g>
<!-- 2082702174992&#45;&#45;2082705086640 -->
<g id="edge19" class="edge">
<title>2082702174992&#45;&#45;2082705086640</title>
<path fill="none" stroke="black" d="M1835.09,-955C1904.94,-955 2094.65,-955 2164.71,-955"/>
</g>
<!-- 2082705094992 -->
<g id="node22" class="node">
<title>2082705094992</title>
<ellipse fill="none" stroke="black" cx="2506.43" cy="-1009" rx="136.82" ry="18"/>
<text text-anchor="middle" x="2506.43" y="-1003" font-family="Times New Roman,serif" font-size="15.00">Send to the competent authority</text>
</g>
<!-- 2082705086640&#45;&#45;2082705094992 -->
<g id="edge15" class="edge">
<title>2082705086640&#45;&#45;2082705094992</title>
<path fill="none" stroke="black" d="M2218.73,-959.42C2262.5,-966.99 2353.65,-982.75 2421.49,-994.48"/>
</g>
<!-- 2082705095280 -->
<g id="node23" class="node">
<title>2082705095280</title>
<ellipse fill="none" stroke="black" cx="2506.43" cy="-955" rx="27" ry="18"/>
<text text-anchor="middle" x="2506.43" y="-949" font-family="Times New Roman,serif" font-size="15.00">xor</text>
</g>
<!-- 2082705086640&#45;&#45;2082705095280 -->
<g id="edge18" class="edge">
<title>2082705086640&#45;&#45;2082705095280</title>
<path fill="none" stroke="black" d="M2219.53,-955C2278.49,-955 2420.47,-955 2479.26,-955"/>
</g>
<!-- 2082705082608 -->
<g id="node24" class="node">
<title>2082705082608</title>
<ellipse fill="black" stroke="black" cx="2805.84" cy="-967" rx="2.7" ry="2.7"/>
</g>
<!-- 2082705095280&#45;&#45;2082705082608 -->
<g id="edge16" class="edge">
<title>2082705095280&#45;&#45;2082705082608</title>
<path fill="none" stroke="black" d="M2533.83,-956.06C2602.63,-958.84 2783.54,-966.14 2803.12,-966.93"/>
</g>
<!-- 2082705092880 -->
<g id="node25" class="node">
<title>2082705092880</title>
<ellipse fill="none" stroke="black" cx="2805.84" cy="-928" rx="116.35" ry="18"/>
<text text-anchor="middle" x="2805.84" y="-922" font-family="Times New Roman,serif" font-size="15.00">Notify BAG administrator</text>
</g>
<!-- 2082705095280&#45;&#45;2082705092880 -->
<g id="edge17" class="edge">
<title>2082705095280&#45;&#45;2082705092880</title>
<path fill="none" stroke="black" d="M2533.57,-952.63C2571.48,-949.19 2643.83,-942.62 2704.28,-937.13"/>
</g>
<!-- 2082705087360 -->
<g id="node27" class="node">
<title>2082705087360</title>
<ellipse fill="none" stroke="black" cx="2192.18" cy="-901" rx="131.19" ry="18"/>
<text text-anchor="middle" x="2192.18" y="-895" font-family="Times New Roman,serif" font-size="15.00">Dispatch confirmation receipt</text>
</g>
<!-- 2082702168416&#45;&#45;2082705087360 -->
<g id="edge21" class="edge">
<title>2082702168416&#45;&#45;2082705087360</title>
<path fill="none" stroke="black" d="M1835.09,-901C1881.07,-901 1978.97,-901 2060.51,-901"/>
</g>
<!-- 2082705090480 -->
<g id="node28" class="node">
<title>2082705090480</title>
<ellipse fill="none" stroke="black" cx="2192.18" cy="-847" rx="27" ry="18"/>
<text text-anchor="middle" x="2192.18" y="-841" font-family="Times New Roman,serif" font-size="15.00">seq</text>
</g>
<!-- 2082702168416&#45;&#45;2082705090480 -->
<g id="edge32" class="edge">
<title>2082702168416&#45;&#45;2082705090480</title>
<path fill="none" stroke="black" d="M1834.49,-897.37C1904.07,-887.55 2095.62,-860.5 2165.36,-850.65"/>
</g>
<!-- 2082705093504 -->
<g id="node29" class="node">
<title>2082705093504</title>
<ellipse fill="none" stroke="black" cx="2506.43" cy="-901" rx="147.06" ry="18"/>
<text text-anchor="middle" x="2506.43" y="-895" font-family="Times New Roman,serif" font-size="15.00">Standard procedure without MER</text>
</g>
<!-- 2082705090480&#45;&#45;2082705093504 -->
<g id="edge22" class="edge">
<title>2082705090480&#45;&#45;2082705093504</title>
<path fill="none" stroke="black" d="M2218.73,-851.42C2262.07,-858.91 2351.84,-874.44 2419.45,-886.13"/>
</g>
<!-- 2082705083952 -->
<g id="node30" class="node">
<title>2082705083952</title>
<ellipse fill="none" stroke="black" cx="2506.43" cy="-847" rx="27" ry="18"/>
<text text-anchor="middle" x="2506.43" y="-841" font-family="Times New Roman,serif" font-size="15.00">xor</text>
</g>
<!-- 2082705090480&#45;&#45;2082705083952 -->
<g id="edge27" class="edge">
<title>2082705090480&#45;&#45;2082705083952</title>
<path fill="none" stroke="black" d="M2219.53,-847C2278.49,-847 2420.47,-847 2479.26,-847"/>
</g>
<!-- 2082705091440 -->
<g id="node35" class="node">
<title>2082705091440</title>
<ellipse fill="none" stroke="black" cx="2506.43" cy="-793" rx="118.91" ry="18"/>
<text text-anchor="middle" x="2506.43" y="-787" font-family="Times New Roman,serif" font-size="15.00">Stage application received</text>
</g>
<!-- 2082705090480&#45;&#45;2082705091440 -->
<g id="edge28" class="edge">
<title>2082705090480&#45;&#45;2082705091440</title>
<path fill="none" stroke="black" d="M2218.73,-842.58C2263.6,-834.82 2358.23,-818.46 2426.53,-806.65"/>
</g>
<!-- 2082705090432 -->
<g id="node36" class="node">
<title>2082705090432</title>
<ellipse fill="none" stroke="black" cx="2506.43" cy="-739" rx="27" ry="18"/>
<text text-anchor="middle" x="2506.43" y="-733" font-family="Times New Roman,serif" font-size="15.00">xor</text>
</g>
<!-- 2082705090480&#45;&#45;2082705090432 -->
<g id="edge31" class="edge">
<title>2082705090480&#45;&#45;2082705090432</title>
<path fill="none" stroke="black" d="M2216.65,-838.88C2274.66,-818.82 2424.27,-767.07 2482.12,-747.06"/>
</g>
<!-- 2082705084336 -->
<g id="node31" class="node">
<title>2082705084336</title>
<ellipse fill="black" stroke="black" cx="2805.84" cy="-874" rx="2.7" ry="2.7"/>
</g>
<!-- 2082705083952&#45;&#45;2082705084336 -->
<g id="edge23" class="edge">
<title>2082705083952&#45;&#45;2082705084336</title>
<path fill="none" stroke="black" d="M2533.57,-849.37C2602.17,-855.6 2783.49,-872.06 2803.11,-873.84"/>
</g>
<!-- 2082705094128 -->
<g id="node32" class="node">
<title>2082705094128</title>
<ellipse fill="none" stroke="black" cx="2805.84" cy="-835" rx="27" ry="18"/>
<text text-anchor="middle" x="2805.84" y="-829" font-family="Times New Roman,serif" font-size="15.00">seq</text>
</g>
<!-- 2082705083952&#45;&#45;2082705094128 -->
<g id="edge26" class="edge">
<title>2082705083952&#45;&#45;2082705094128</title>
<path fill="none" stroke="black" d="M2533.83,-845.94C2590.27,-843.66 2722.12,-838.34 2778.51,-836.06"/>
</g>
<!-- 2082705085920 -->
<g id="node33" class="node">
<title>2082705085920</title>
<ellipse fill="none" stroke="black" cx="3102.7" cy="-862" rx="144.5" ry="18"/>
<text text-anchor="middle" x="3102.7" y="-856" font-family="Times New Roman,serif" font-size="15.00">Generate procedure confirmation</text>
</g>
<!-- 2082705094128&#45;&#45;2082705085920 -->
<g id="edge24" class="edge">
<title>2082705094128&#45;&#45;2082705085920</title>
<path fill="none" stroke="black" d="M2833.01,-837.4C2867.12,-840.52 2929.01,-846.19 2984.8,-851.3"/>
</g>
<!-- 2082705086160 -->
<g id="node34" class="node">
<title>2082705086160</title>
<ellipse fill="none" stroke="black" cx="3102.7" cy="-808" rx="43.16" ry="18"/>
<text text-anchor="middle" x="3102.7" y="-802" font-family="Times New Roman,serif" font-size="15.00">Release</text>
</g>
<!-- 2082705094128&#45;&#45;2082705086160 -->
<g id="edge25" class="edge">
<title>2082705094128&#45;&#45;2082705086160</title>
<path fill="none" stroke="black" d="M2833.01,-832.6C2884.31,-827.91 2998.47,-817.45 3060.18,-811.8"/>
</g>
<!-- 2082705080400 -->
<g id="node37" class="node">
<title>2082705080400</title>
<ellipse fill="black" stroke="black" cx="2805.84" cy="-759" rx="2.7" ry="2.7"/>
</g>
<!-- 2082705090432&#45;&#45;2082705080400 -->
<g id="edge29" class="edge">
<title>2082705090432&#45;&#45;2082705080400</title>
<path fill="none" stroke="black" d="M2533.57,-740.76C2602.17,-745.37 2783.49,-757.56 2803.11,-758.88"/>
</g>
<!-- 2082705080496 -->
<g id="node38" class="node">
<title>2082705080496</title>
<ellipse fill="none" stroke="black" cx="2805.84" cy="-720" rx="108.16" ry="18"/>
<text text-anchor="middle" x="2805.84" y="-714" font-family="Times New Roman,serif" font-size="15.00">Begin WABOprocedure</text>
</g>
<!-- 2082705090432&#45;&#45;2082705080496 -->
<g id="edge30" class="edge">
<title>2082705090432&#45;&#45;2082705080496</title>
<path fill="none" stroke="black" d="M2533.57,-737.33C2571.48,-734.91 2643.83,-730.29 2704.28,-726.42"/>
</g>
<!-- 2082702167216 -->
<g id="node42" class="node">
<title>2082702167216</title>
<ellipse fill="black" stroke="black" cx="557.45" cy="-805" rx="2.7" ry="2.7"/>
</g>
<!-- 2082702166784&#45;&#45;2082702167216 -->
<g id="edge40" class="edge">
<title>2082702166784&#45;&#45;2082702167216</title>
<path fill="none" stroke="black" d="M268.44,-719.22C337.8,-739.88 533.4,-798.13 554.59,-804.44"/>
</g>
<!-- 2082702165008 -->
<g id="node43" class="node">
<title>2082702165008</title>
<ellipse fill="none" stroke="black" cx="557.45" cy="-766" rx="27" ry="18"/>
<text text-anchor="middle" x="557.45" y="-760" font-family="Times New Roman,serif" font-size="15.00">seq</text>
</g>
<!-- 2082702166784&#45;&#45;2082702165008 -->
<g id="edge45" class="edge">
<title>2082702166784&#45;&#45;2082702165008</title>
<path fill="none" stroke="black" d="M269.75,-716.42C328.45,-726.57 472.37,-751.46 530.99,-761.6"/>
</g>
<!-- 2082702172304 -->
<g id="node48" class="node">
<title>2082702172304</title>
<ellipse fill="none" stroke="black" cx="557.45" cy="-658" rx="27" ry="18"/>
<text text-anchor="middle" x="557.45" y="-652" font-family="Times New Roman,serif" font-size="15.00">seq</text>
</g>
<!-- 2082702166784&#45;&#45;2082702172304 -->
<g id="edge49" class="edge">
<title>2082702166784&#45;&#45;2082702172304</title>
<path fill="none" stroke="black" d="M269.75,-707.58C328.45,-697.43 472.37,-672.54 530.99,-662.4"/>
</g>
<!-- 2082702175136 -->
<g id="node52" class="node">
<title>2082702175136</title>
<ellipse fill="none" stroke="black" cx="557.45" cy="-523" rx="27" ry="18"/>
<text text-anchor="middle" x="557.45" y="-517" font-family="Times New Roman,serif" font-size="15.00">seq</text>
</g>
<!-- 2082702166784&#45;&#45;2082702175136 -->
<g id="edge52" class="edge">
<title>2082702166784&#45;&#45;2082702175136</title>
<path fill="none" stroke="black" d="M263.73,-700.18C319.81,-666.24 480.86,-568.75 536.93,-534.82"/>
</g>
<!-- 2082702164432 -->
<g id="node55" class="node">
<title>2082702164432</title>
<ellipse fill="none" stroke="black" cx="557.45" cy="-253" rx="27" ry="18"/>
<text text-anchor="middle" x="557.45" y="-247" font-family="Times New Roman,serif" font-size="15.00">seq</text>
</g>
<!-- 2082702166784&#45;&#45;2082702164432 -->
<g id="edge70" class="edge">
<title>2082702166784&#45;&#45;2082702164432</title>
<path fill="none" stroke="black" d="M255.31,-695.66C303.88,-624.28 497.18,-340.14 545.47,-269.14"/>
</g>
<!-- 2082705083424 -->
<g id="node44" class="node">
<title>2082705083424</title>
<ellipse fill="none" stroke="black" cx="918.79" cy="-901" rx="174.7" ry="18"/>
<text text-anchor="middle" x="918.79" y="-895" font-family="Times New Roman,serif" font-size="15.00">send confirmation to competent authority</text>
</g>
<!-- 2082702165008&#45;&#45;2082705083424 -->
<g id="edge41" class="edge">
<title>2082702165008&#45;&#45;2082705083424</title>
<path fill="none" stroke="black" d="M581.48,-774.65C639.49,-796.44 792.57,-853.95 870.61,-883.27"/>
</g>
<!-- 2082705088752 -->
<g id="node45" class="node">
<title>2082705088752</title>
<ellipse fill="none" stroke="black" cx="918.79" cy="-847" rx="156.27" ry="18"/>
<text text-anchor="middle" x="918.79" y="-841" font-family="Times New Roman,serif" font-size="15.00">message change competent authority</text>
</g>
<!-- 2082702165008&#45;&#45;2082705088752 -->
<g id="edge42" class="edge">
<title>2082702165008&#45;&#45;2082705088752</title>
<path fill="none" stroke="black" d="M583.44,-771.63C636.91,-783.69 764.2,-812.38 845.39,-830.68"/>
</g>
<!-- 2082705088512 -->
<g id="node46" class="node">
<title>2082705088512</title>
<ellipse fill="none" stroke="black" cx="918.79" cy="-793" rx="200.29" ry="18"/>
<text text-anchor="middle" x="918.79" y="-787" font-family="Times New Roman,serif" font-size="15.00">submit request towards the competent authority</text>
</g>
<!-- 2082702165008&#45;&#45;2082705088512 -->
<g id="edge43" class="edge">
<title>2082702165008&#45;&#45;2082705088512</title>
<path fill="none" stroke="black" d="M584.59,-767.96C622.38,-770.8 695.23,-776.28 763.19,-781.38"/>
</g>
<!-- 2082705080832 -->
<g id="node47" class="node">
<title>2082705080832</title>
<ellipse fill="none" stroke="black" cx="918.79" cy="-739" rx="176.23" ry="18"/>
<text text-anchor="middle" x="918.79" y="-733" font-family="Times New Roman,serif" font-size="15.00">log the senddate for letter to the authority</text>
</g>
<!-- 2082702165008&#45;&#45;2082705080832 -->
<g id="edge44" class="edge">
<title>2082702165008&#45;&#45;2082705080832</title>
<path fill="none" stroke="black" d="M584.59,-764.04C624.56,-761.03 703.75,-755.08 774.9,-749.74"/>
</g>
<!-- 2082705088608 -->
<g id="node49" class="node">
<title>2082705088608</title>
<ellipse fill="none" stroke="black" cx="918.79" cy="-685" rx="69.78" ry="18"/>
<text text-anchor="middle" x="918.79" y="-679" font-family="Times New Roman,serif" font-size="15.00">MER included</text>
</g>
<!-- 2082702172304&#45;&#45;2082705088608 -->
<g id="edge46" class="edge">
<title>2082702172304&#45;&#45;2082705088608</title>
<path fill="none" stroke="black" d="M584.59,-659.96C640.06,-664.13 771.08,-673.98 851.31,-680"/>
</g>
<!-- 2082705080592 -->
<g id="node50" class="node">
<title>2082705080592</title>
<ellipse fill="none" stroke="black" cx="918.79" cy="-631" rx="126.08" ry="18"/>
<text text-anchor="middle" x="918.79" y="-625" font-family="Times New Roman,serif" font-size="15.00">Regular procedure activities</text>
</g>
<!-- 2082702172304&#45;&#45;2082705080592 -->
<g id="edge47" class="edge">
<title>2082702172304&#45;&#45;2082705080592</title>
<path fill="none" stroke="black" d="M584.59,-656.04C630.53,-652.58 728.3,-645.24 806.11,-639.39"/>
</g>
<!-- 2082705085104 -->
<g id="node51" class="node">
<title>2082705085104</title>
<ellipse fill="none" stroke="black" cx="918.79" cy="-577" rx="87.69" ry="18"/>
<text text-anchor="middle" x="918.79" y="-571" font-family="Times New Roman,serif" font-size="15.00">Phased application</text>
</g>
<!-- 2082702172304&#45;&#45;2082705085104 -->
<g id="edge48" class="edge">
<title>2082702172304&#45;&#45;2082705085104</title>
<path fill="none" stroke="black" d="M583.44,-652.37C639.86,-639.65 778.44,-608.41 858.36,-590.4"/>
</g>
<!-- 2082705089328 -->
<g id="node53" class="node">
<title>2082705089328</title>
<ellipse fill="none" stroke="black" cx="918.79" cy="-523" rx="143.99" ry="18"/>
<text text-anchor="middle" x="918.79" y="-517" font-family="Times New Roman,serif" font-size="15.00">Dispatch procedure confirmation</text>
</g>
<!-- 2082702175136&#45;&#45;2082705089328 -->
<g id="edge50" class="edge">
<title>2082702175136&#45;&#45;2082705089328</title>
<path fill="none" stroke="black" d="M584.88,-523C624.91,-523 703.8,-523 774.73,-523"/>
</g>
<!-- 2082705094512 -->
<g id="node54" class="node">
<title>2082705094512</title>
<ellipse fill="none" stroke="black" cx="918.79" cy="-469" rx="175.72" ry="18"/>
<text text-anchor="middle" x="918.79" y="-463" font-family="Times New Roman,serif" font-size="15.00">Record senddate procedure confirmation</text>
</g>
<!-- 2082702175136&#45;&#45;2082705094512 -->
<g id="edge51" class="edge">
<title>2082702175136&#45;&#45;2082705094512</title>
<path fill="none" stroke="black" d="M584.3,-519.12C632.33,-511.9 737.71,-496.06 817.25,-484.11"/>
</g>
<!-- 2082705083088 -->
<g id="node56" class="node">
<title>2082705083088</title>
<ellipse fill="none" stroke="black" cx="918.79" cy="-415" rx="27" ry="18"/>
<text text-anchor="middle" x="918.79" y="-409" font-family="Times New Roman,serif" font-size="15.00">xor</text>
</g>
<!-- 2082702164432&#45;&#45;2082705083088 -->
<g id="edge60" class="edge">
<title>2082702164432&#45;&#45;2082705083088</title>
<path fill="none" stroke="black" d="M580.39,-262.89C644.54,-291.81 831.32,-376.02 895.69,-405.03"/>
</g>
<!-- 2082705090336 -->
<g id="node64" class="node">
<title>2082705090336</title>
<ellipse fill="none" stroke="black" cx="918.79" cy="-361" rx="173.67" ry="18"/>
<text text-anchor="middle" x="918.79" y="-355" font-family="Times New Roman,serif" font-size="15.00">Prematurely terminated phase procedure</text>
</g>
<!-- 2082702164432&#45;&#45;2082705090336 -->
<g id="edge61" class="edge">
<title>2082702164432&#45;&#45;2082705090336</title>
<path fill="none" stroke="black" d="M582.59,-260.25C638.85,-277.16 779.97,-319.58 860.01,-343.63"/>
</g>
<!-- 2082705087888 -->
<g id="node65" class="node">
<title>2082705087888</title>
<ellipse fill="none" stroke="black" cx="918.79" cy="-307" rx="163.44" ry="18"/>
<text text-anchor="middle" x="918.79" y="-301" font-family="Times New Roman,serif" font-size="15.00">Log date termination request received</text>
</g>
<!-- 2082702164432&#45;&#45;2082705087888 -->
<g id="edge62" class="edge">
<title>2082702164432&#45;&#45;2082705087888</title>
<path fill="none" stroke="black" d="M584.3,-256.88C632.9,-264.19 740.19,-280.31 820.03,-292.31"/>
</g>
<!-- 2082705092736 -->
<g id="node66" class="node">
<title>2082705092736</title>
<ellipse fill="none" stroke="black" cx="918.79" cy="-253" rx="158.32" ry="18"/>
<text text-anchor="middle" x="918.79" y="-247" font-family="Times New Roman,serif" font-size="15.00">Record senddate termination request</text>
</g>
<!-- 2082702164432&#45;&#45;2082705092736 -->
<g id="edge63" class="edge">
<title>2082702164432&#45;&#45;2082705092736</title>
<path fill="none" stroke="black" d="M584.88,-253C622.16,-253 693.12,-253 759.99,-253"/>
</g>
<!-- 2082705083376 -->
<g id="node67" class="node">
<title>2082705083376</title>
<ellipse fill="none" stroke="black" cx="918.79" cy="-199" rx="119.93" ry="18"/>
<text text-anchor="middle" x="918.79" y="-193" font-family="Times New Roman,serif" font-size="15.00">Terminate request message</text>
</g>
<!-- 2082702164432&#45;&#45;2082705083376 -->
<g id="edge64" class="edge">
<title>2082702164432&#45;&#45;2082705083376</title>
<path fill="none" stroke="black" d="M584.3,-249.12C635.47,-241.43 751.73,-223.96 832.48,-211.82"/>
</g>
<!-- 2082705092592 -->
<g id="node68" class="node">
<title>2082705092592</title>
<ellipse fill="none" stroke="black" cx="918.79" cy="-145" rx="63.63" ry="18"/>
<text text-anchor="middle" x="918.79" y="-139" font-family="Times New Roman,serif" font-size="15.00">Log deadline</text>
</g>
<!-- 2082702164432&#45;&#45;2082705092592 -->
<g id="edge65" class="edge">
<title>2082702164432&#45;&#45;2082705092592</title>
<path fill="none" stroke="black" d="M582.59,-245.75C642.31,-227.8 797.66,-181.11 874.06,-158.14"/>
</g>
<!-- 2082705094560 -->
<g id="node69" class="node">
<title>2082705094560</title>
<ellipse fill="none" stroke="black" cx="918.79" cy="-91" rx="119.42" ry="18"/>
<text text-anchor="middle" x="918.79" y="-85" font-family="Times New Roman,serif" font-size="15.00">Phase procedure cancelled</text>
</g>
<!-- 2082702164432&#45;&#45;2082705094560 -->
<g id="edge66" class="edge">
<title>2082702164432&#45;&#45;2082705094560</title>
<path fill="none" stroke="black" d="M580.39,-243.11C639.74,-216.35 804.06,-142.28 879.29,-108.36"/>
</g>
<!-- 2082705090144 -->
<g id="node70" class="node">
<title>2082705090144</title>
<ellipse fill="none" stroke="black" cx="918.79" cy="-37" rx="27" ry="18"/>
<text text-anchor="middle" x="918.79" y="-31" font-family="Times New Roman,serif" font-size="15.00">xor</text>
</g>
<!-- 2082702164432&#45;&#45;2082705090144 -->
<g id="edge69" class="edge">
<title>2082702164432&#45;&#45;2082705090144</title>
<path fill="none" stroke="black" d="M578.29,-241.08C641.11,-203.31 835.28,-86.6 898.02,-48.88"/>
</g>
<!-- 2082705082128 -->
<g id="node57" class="node">
<title>2082705082128</title>
<ellipse fill="none" stroke="black" cx="1354.86" cy="-442" rx="27" ry="18"/>
<text text-anchor="middle" x="1354.86" y="-436" font-family="Times New Roman,serif" font-size="15.00">seq</text>
</g>
<!-- 2082705083088&#45;&#45;2082705082128 -->
<g id="edge56" class="edge">
<title>2082705083088&#45;&#45;2082705082128</title>
<path fill="none" stroke="black" d="M945.97,-416.63C1023.32,-421.44 1250.26,-435.56 1327.65,-440.37"/>
</g>
<!-- 2082705091104 -->
<g id="node61" class="node">
<title>2082705091104</title>
<ellipse fill="none" stroke="black" cx="1354.86" cy="-361" rx="27" ry="18"/>
<text text-anchor="middle" x="1354.86" y="-355" font-family="Times New Roman,serif" font-size="15.00">seq</text>
</g>
<!-- 2082705083088&#45;&#45;2082705091104 -->
<g id="edge59" class="edge">
<title>2082705083088&#45;&#45;2082705091104</title>
<path fill="none" stroke="black" d="M945.65,-411.78C1022.76,-402.19 1250.57,-373.85 1327.87,-364.23"/>
</g>
<!-- 2082705081792 -->
<g id="node58" class="node">
<title>2082705081792</title>
<ellipse fill="none" stroke="black" cx="1807.81" cy="-523" rx="130.68" ry="18"/>
<text text-anchor="middle" x="1807.81" y="-517" font-family="Times New Roman,serif" font-size="15.00">Competent authority initiative</text>
</g>
<!-- 2082705082128&#45;&#45;2082705081792 -->
<g id="edge53" class="edge">
<title>2082705082128&#45;&#45;2082705081792</title>
<path fill="none" stroke="black" d="M1381.39,-446.59C1446.79,-458.33 1622.46,-489.89 1726.47,-508.57"/>
</g>
<!-- 2082705093072 -->
<g id="node59" class="node">
<title>2082705093072</title>
<ellipse fill="none" stroke="black" cx="1807.81" cy="-469" rx="145.52" ry="18"/>
<text text-anchor="middle" x="1807.81" y="-463" font-family="Times New Roman,serif" font-size="15.00">Create terminate request message</text>
</g>
<!-- 2082705082128&#45;&#45;2082705093072 -->
<g id="edge54" class="edge">
<title>2082705082128&#45;&#45;2082705093072</title>
<path fill="none" stroke="black" d="M1382.05,-443.57C1438.12,-446.93 1573,-455 1675.84,-461.16"/>
</g>
<!-- 2082705086064 -->
<g id="node60" class="node">
<title>2082705086064</title>
<ellipse fill="none" stroke="black" cx="1807.81" cy="-415" rx="125.05" ry="18"/>
<text text-anchor="middle" x="1807.81" y="-409" font-family="Times New Roman,serif" font-size="15.00">Check publication date field</text>
</g>
<!-- 2082705082128&#45;&#45;2082705086064 -->
<g id="edge55" class="edge">
<title>2082705082128&#45;&#45;2082705086064</title>
<path fill="none" stroke="black" d="M1382.05,-440.43C1440.98,-436.9 1586.99,-428.16 1691.35,-421.91"/>
</g>
<!-- 2082705093408 -->
<g id="node62" class="node">
<title>2082705093408</title>
<ellipse fill="none" stroke="black" cx="1807.81" cy="-361" rx="205.41" ry="18"/>
<text text-anchor="middle" x="1807.81" y="-355" font-family="Times New Roman,serif" font-size="15.00">draft letter for no permit or notification required</text>
</g>
<!-- 2082705091104&#45;&#45;2082705093408 -->
<g id="edge57" class="edge">
<title>2082705091104&#45;&#45;2082705093408</title>
<path fill="none" stroke="black" d="M1382.05,-361C1425.38,-361 1515.78,-361 1602.1,-361"/>
</g>
<!-- 2082705090720 -->
<g id="node63" class="node">
<title>2082705090720</title>
<ellipse fill="none" stroke="black" cx="1807.81" cy="-307" rx="217.18" ry="18"/>
<text text-anchor="middle" x="1807.81" y="-301" font-family="Times New Roman,serif" font-size="15.00">log senddate letter no permit or notification needed</text>
</g>
<!-- 2082705091104&#45;&#45;2082705090720 -->
<g id="edge58" class="edge">
<title>2082705091104&#45;&#45;2082705090720</title>
<path fill="none" stroke="black" d="M1381.72,-357.9C1438.57,-351.1 1577.58,-334.45 1681.26,-322.03"/>
</g>
<!-- 2082705084432 -->
<g id="node71" class="node">
<title>2082705084432</title>
<ellipse fill="black" stroke="black" cx="1354.86" cy="-57" rx="2.7" ry="2.7"/>
</g>
<!-- 2082705090144&#45;&#45;2082705084432 -->
<g id="edge67" class="edge">
<title>2082705090144&#45;&#45;2082705084432</title>
<path fill="none" stroke="black" d="M945.97,-38.21C1035.41,-42.33 1324.9,-55.67 1351.84,-56.91"/>
</g>
<!-- 2082705080544 -->
<g id="node72" class="node">
<title>2082705080544</title>
<ellipse fill="none" stroke="black" cx="1354.86" cy="-18" rx="69.26" ry="18"/>
<text text-anchor="middle" x="1354.86" y="-12" font-family="Times New Roman,serif" font-size="15.00">Close the case</text>
</g>
<!-- 2082705090144&#45;&#45;2082705080544 -->
<g id="edge68" class="edge">
<title>2082705090144&#45;&#45;2082705080544</title>
<path fill="none" stroke="black" d="M945.97,-35.85C1012.23,-32.95 1188.26,-25.25 1286.02,-20.97"/>
</g>
</g>
</svg>
