<?xml version="1.0" encoding="UTF-8" standalone="no"?>
<!DOCTYPE svg PUBLIC "-//W3C//DTD SVG 1.1//EN"
 "http://www.w3.org/Graphics/SVG/1.1/DTD/svg11.dtd">
<!-- Generated by graphviz version 11.0.0 (20240428.1522)
 -->
<!-- Title: pt Pages: 1 -->
<svg width="3754pt" height="552pt"
 viewBox="0.00 0.00 3753.62 552.00" xmlns="http://www.w3.org/2000/svg" xmlns:xlink="http://www.w3.org/1999/xlink">
<g id="graph0" class="graph" transform="scale(1 1) rotate(0) translate(4 548)">
<title>pt</title>
<polygon fill="white" stroke="none" points="-4,4 -4,-548 3749.62,-548 3749.62,4 -4,4"/>
<!-- 2082701261232 -->
<g id="node1" class="node">
<title>2082701261232</title>
<ellipse fill="none" stroke="black" cx="27" cy="-445" rx="27" ry="18"/>
<text text-anchor="middle" x="27" y="-439" font-family="Times New Roman,serif" font-size="15.00">seq</text>
</g>
<!-- 2082701797344 -->
<g id="node2" class="node">
<title>2082701797344</title>
<ellipse fill="none" stroke="black" cx="215.05" cy="-499" rx="125.05" ry="18"/>
<text text-anchor="middle" x="215.05" y="-493" font-family="Times New Roman,serif" font-size="15.00">Log submission date request</text>
</g>
<!-- 2082701261232&#45;&#45;2082701797344 -->
<g id="edge1" class="edge">
<title>2082701261232&#45;&#45;2082701797344</title>
<path fill="none" stroke="black" d="M52.32,-452.06C78.92,-459.78 122.44,-472.41 157.64,-482.63"/>
</g>
<!-- 2082701794128 -->
<g id="node3" class="node">
<title>2082701794128</title>
<ellipse fill="none" stroke="black" cx="215.05" cy="-445" rx="27" ry="18"/>
<text text-anchor="middle" x="215.05" y="-439" font-family="Times New Roman,serif" font-size="15.00">and</text>
</g>
<!-- 2082701261232&#45;&#45;2082701794128 -->
<g id="edge62" class="edge">
<title>2082701261232&#45;&#45;2082701794128</title>
<path fill="none" stroke="black" d="M54.26,-445C89.62,-445 152.18,-445 187.62,-445"/>
</g>
<!-- 2082701791392 -->
<g id="node64" class="node">
<title>2082701791392</title>
<ellipse fill="none" stroke="black" cx="215.05" cy="-310" rx="27" ry="18"/>
<text text-anchor="middle" x="215.05" y="-304" font-family="Times New Roman,serif" font-size="15.00">xor</text>
</g>
<!-- 2082701261232&#45;&#45;2082701791392 -->
<g id="edge75" class="edge">
<title>2082701261232&#45;&#45;2082701791392</title>
<path fill="none" stroke="black" d="M46.18,-431.81C81.84,-405.93 160.58,-348.8 196.07,-323.04"/>
</g>
<!-- 2082701798400 -->
<g id="node4" class="node">
<title>2082701798400</title>
<ellipse fill="none" stroke="black" cx="495.01" cy="-526" rx="118.91" ry="18"/>
<text text-anchor="middle" x="495.01" y="-520" font-family="Times New Roman,serif" font-size="15.00">Stage application received</text>
</g>
<!-- 2082701794128&#45;&#45;2082701798400 -->
<g id="edge2" class="edge">
<title>2082701794128&#45;&#45;2082701798400</title>
<path fill="none" stroke="black" d="M240.23,-452.05C284.08,-464.83 377.77,-492.13 438.23,-509.74"/>
</g>
<!-- 2082701792928 -->
<g id="node5" class="node">
<title>2082701792928</title>
<ellipse fill="none" stroke="black" cx="495.01" cy="-472" rx="27" ry="18"/>
<text text-anchor="middle" x="495.01" y="-466" font-family="Times New Roman,serif" font-size="15.00">xor</text>
</g>
<!-- 2082701794128&#45;&#45;2082701792928 -->
<g id="edge5" class="edge">
<title>2082701794128&#45;&#45;2082701792928</title>
<path fill="none" stroke="black" d="M242.2,-447.54C295.31,-452.7 415.25,-464.35 468.14,-469.49"/>
</g>
<!-- 2082701802912 -->
<g id="node8" class="node">
<title>2082701802912</title>
<ellipse fill="none" stroke="black" cx="495.01" cy="-418" rx="27" ry="18"/>
<text text-anchor="middle" x="495.01" y="-412" font-family="Times New Roman,serif" font-size="15.00">seq</text>
</g>
<!-- 2082701794128&#45;&#45;2082701802912 -->
<g id="edge61" class="edge">
<title>2082701794128&#45;&#45;2082701802912</title>
<path fill="none" stroke="black" d="M242.2,-442.46C295.31,-437.3 415.25,-425.65 468.14,-420.51"/>
</g>
<!-- 2082701794032 -->
<g id="node6" class="node">
<title>2082701794032</title>
<ellipse fill="black" stroke="black" cx="813.36" cy="-511" rx="2.7" ry="2.7"/>
</g>
<!-- 2082701792928&#45;&#45;2082701794032 -->
<g id="edge3" class="edge">
<title>2082701792928&#45;&#45;2082701794032</title>
<path fill="none" stroke="black" d="M521.9,-475.19C593.32,-484 789.27,-508.15 810.49,-510.77"/>
</g>
<!-- 2082701797440 -->
<g id="node7" class="node">
<title>2082701797440</title>
<ellipse fill="none" stroke="black" cx="813.36" cy="-472" rx="163.44" ry="18"/>
<text text-anchor="middle" x="813.36" y="-466" font-family="Times New Roman,serif" font-size="15.00">Log date termination request received</text>
</g>
<!-- 2082701792928&#45;&#45;2082701797440 -->
<g id="edge4" class="edge">
<title>2082701792928&#45;&#45;2082701797440</title>
<path fill="none" stroke="black" d="M522.44,-472C551.32,-472 600.1,-472 649.49,-472"/>
</g>
<!-- 2082701799168 -->
<g id="node9" class="node">
<title>2082701799168</title>
<ellipse fill="none" stroke="black" cx="813.36" cy="-418" rx="27" ry="18"/>
<text text-anchor="middle" x="813.36" y="-412" font-family="Times New Roman,serif" font-size="15.00">and</text>
</g>
<!-- 2082701802912&#45;&#45;2082701799168 -->
<g id="edge57" class="edge">
<title>2082701802912&#45;&#45;2082701799168</title>
<path fill="none" stroke="black" d="M522.44,-418C582.14,-418 726.82,-418 786.23,-418"/>
</g>
<!-- 2082701797152 -->
<g id="node61" class="node">
<title>2082701797152</title>
<ellipse fill="none" stroke="black" cx="813.36" cy="-364" rx="27" ry="18"/>
<text text-anchor="middle" x="813.36" y="-358" font-family="Times New Roman,serif" font-size="15.00">xor</text>
</g>
<!-- 2082701802912&#45;&#45;2082701797152 -->
<g id="edge60" class="edge">
<title>2082701802912&#45;&#45;2082701797152</title>
<path fill="none" stroke="black" d="M521.63,-413.63C581.06,-403.48 727.72,-378.45 786.94,-368.34"/>
</g>
<!-- 2082701797872 -->
<g id="node10" class="node">
<title>2082701797872</title>
<ellipse fill="none" stroke="black" cx="1188.52" cy="-468" rx="27" ry="18"/>
<text text-anchor="middle" x="1188.52" y="-462" font-family="Times New Roman,serif" font-size="15.00">xor</text>
</g>
<!-- 2082701799168&#45;&#45;2082701797872 -->
<g id="edge8" class="edge">
<title>2082701799168&#45;&#45;2082701797872</title>
<path fill="none" stroke="black" d="M840.3,-421.48C908.73,-430.64 1093.52,-455.4 1161.75,-464.55"/>
</g>
<!-- 2082701801184 -->
<g id="node13" class="node">
<title>2082701801184</title>
<ellipse fill="none" stroke="black" cx="1188.52" cy="-414" rx="27" ry="18"/>
<text text-anchor="middle" x="1188.52" y="-408" font-family="Times New Roman,serif" font-size="15.00">seq</text>
</g>
<!-- 2082701799168&#45;&#45;2082701801184 -->
<g id="edge56" class="edge">
<title>2082701799168&#45;&#45;2082701801184</title>
<path fill="none" stroke="black" d="M840.6,-417.72C909.12,-416.98 1092.83,-415.02 1161.31,-414.28"/>
</g>
<!-- 2082701792784 -->
<g id="node11" class="node">
<title>2082701792784</title>
<ellipse fill="black" stroke="black" cx="1463.87" cy="-507" rx="2.7" ry="2.7"/>
</g>
<!-- 2082701797872&#45;&#45;2082701792784 -->
<g id="edge6" class="edge">
<title>2082701797872&#45;&#45;2082701792784</title>
<path fill="none" stroke="black" d="M1215.24,-471.67C1279.03,-480.77 1440.86,-503.86 1460.84,-506.71"/>
</g>
<!-- 2082701787936 -->
<g id="node12" class="node">
<title>2082701787936</title>
<ellipse fill="none" stroke="black" cx="1463.87" cy="-468" rx="63.63" ry="18"/>
<text text-anchor="middle" x="1463.87" y="-462" font-family="Times New Roman,serif" font-size="15.00">Log deadline</text>
</g>
<!-- 2082701797872&#45;&#45;2082701787936 -->
<g id="edge7" class="edge">
<title>2082701797872&#45;&#45;2082701787936</title>
<path fill="none" stroke="black" d="M1215.73,-468C1257.82,-468 1341.67,-468 1399.96,-468"/>
</g>
<!-- 2082701788368 -->
<g id="node14" class="node">
<title>2082701788368</title>
<ellipse fill="none" stroke="black" cx="1463.87" cy="-414" rx="27" ry="18"/>
<text text-anchor="middle" x="1463.87" y="-408" font-family="Times New Roman,serif" font-size="15.00">xor</text>
</g>
<!-- 2082701801184&#45;&#45;2082701788368 -->
<g id="edge38" class="edge">
<title>2082701801184&#45;&#45;2082701788368</title>
<path fill="none" stroke="black" d="M1215.73,-414C1267.98,-414 1384.56,-414 1436.74,-414"/>
</g>
<!-- 2082701798160 -->
<g id="node44" class="node">
<title>2082701798160</title>
<ellipse fill="none" stroke="black" cx="1463.87" cy="-333" rx="27" ry="18"/>
<text text-anchor="middle" x="1463.87" y="-327" font-family="Times New Roman,serif" font-size="15.00">xor</text>
</g>
<!-- 2082701801184&#45;&#45;2082701798160 -->
<g id="edge55" class="edge">
<title>2082701801184&#45;&#45;2082701798160</title>
<path fill="none" stroke="black" d="M1213.78,-406.81C1265.65,-391.44 1386.85,-355.53 1438.67,-340.17"/>
</g>
<!-- 2082701801568 -->
<g id="node15" class="node">
<title>2082701801568</title>
<ellipse fill="black" stroke="black" cx="1590.51" cy="-453" rx="2.7" ry="2.7"/>
</g>
<!-- 2082701788368&#45;&#45;2082701801568 -->
<g id="edge9" class="edge">
<title>2082701788368&#45;&#45;2082701801568</title>
<path fill="none" stroke="black" d="M1488.91,-421.52C1521.44,-431.7 1576.72,-449 1587.61,-452.41"/>
</g>
<!-- 2082701799792 -->
<g id="node16" class="node">
<title>2082701799792</title>
<ellipse fill="none" stroke="black" cx="1590.51" cy="-414" rx="27" ry="18"/>
<text text-anchor="middle" x="1590.51" y="-408" font-family="Times New Roman,serif" font-size="15.00">seq</text>
</g>
<!-- 2082701788368&#45;&#45;2082701799792 -->
<g id="edge37" class="edge">
<title>2082701788368&#45;&#45;2082701799792</title>
<path fill="none" stroke="black" d="M1491.31,-414C1512.46,-414 1541.98,-414 1563.12,-414"/>
</g>
<!-- 2082701791440 -->
<g id="node17" class="node">
<title>2082701791440</title>
<ellipse fill="none" stroke="black" cx="1774.98" cy="-495" rx="121.47" ry="18"/>
<text text-anchor="middle" x="1774.98" y="-489" font-family="Times New Roman,serif" font-size="15.00">OLO communication active</text>
</g>
<!-- 2082701799792&#45;&#45;2082701791440 -->
<g id="edge10" class="edge">
<title>2082701799792&#45;&#45;2082701791440</title>
<path fill="none" stroke="black" d="M1613.52,-423.77C1643.57,-437.11 1697.92,-461.24 1734.96,-477.68"/>
</g>
<!-- 2082701793456 -->
<g id="node18" class="node">
<title>2082701793456</title>
<ellipse fill="none" stroke="black" cx="1774.98" cy="-441" rx="27" ry="18"/>
<text text-anchor="middle" x="1774.98" y="-435" font-family="Times New Roman,serif" font-size="15.00">xor</text>
</g>
<!-- 2082701799792&#45;&#45;2082701793456 -->
<g id="edge33" class="edge">
<title>2082701799792&#45;&#45;2082701793456</title>
<path fill="none" stroke="black" d="M1617.27,-417.81C1652.04,-422.96 1713.64,-432.07 1748.35,-437.21"/>
</g>
<!-- 2082701790048 -->
<g id="node41" class="node">
<title>2082701790048</title>
<ellipse fill="none" stroke="black" cx="1774.98" cy="-387" rx="27" ry="18"/>
<text text-anchor="middle" x="1774.98" y="-381" font-family="Times New Roman,serif" font-size="15.00">xor</text>
</g>
<!-- 2082701799792&#45;&#45;2082701790048 -->
<g id="edge36" class="edge">
<title>2082701799792&#45;&#45;2082701790048</title>
<path fill="none" stroke="black" d="M1617.27,-410.19C1652.04,-405.04 1713.64,-395.93 1748.35,-390.79"/>
</g>
<!-- 2082701798544 -->
<g id="node19" class="node">
<title>2082701798544</title>
<ellipse fill="black" stroke="black" cx="2085.65" cy="-480" rx="2.7" ry="2.7"/>
</g>
<!-- 2082701793456&#45;&#45;2082701798544 -->
<g id="edge11" class="edge">
<title>2082701793456&#45;&#45;2082701798544</title>
<path fill="none" stroke="black" d="M1802.03,-444.29C1872.38,-453.18 2062.28,-477.17 2082.84,-479.77"/>
</g>
<!-- 2082701796192 -->
<g id="node20" class="node">
<title>2082701796192</title>
<ellipse fill="none" stroke="black" cx="2085.65" cy="-441" rx="27" ry="18"/>
<text text-anchor="middle" x="2085.65" y="-435" font-family="Times New Roman,serif" font-size="15.00">seq</text>
</g>
<!-- 2082701793456&#45;&#45;2082701796192 -->
<g id="edge32" class="edge">
<title>2082701793456&#45;&#45;2082701796192</title>
<path fill="none" stroke="black" d="M1802.3,-441C1860.61,-441 2000.14,-441 2058.4,-441"/>
</g>
<!-- 2082701790960 -->
<g id="node21" class="node">
<title>2082701790960</title>
<ellipse fill="none" stroke="black" cx="2475.14" cy="-489" rx="27" ry="18"/>
<text text-anchor="middle" x="2475.14" y="-483" font-family="Times New Roman,serif" font-size="15.00">xor</text>
</g>
<!-- 2082701796192&#45;&#45;2082701790960 -->
<g id="edge14" class="edge">
<title>2082701796192&#45;&#45;2082701790960</title>
<path fill="none" stroke="black" d="M2112.68,-444.22C2183.26,-452.97 2377.77,-477.06 2448.23,-485.79"/>
</g>
<!-- 2082701793120 -->
<g id="node24" class="node">
<title>2082701793120</title>
<ellipse fill="none" stroke="black" cx="2475.14" cy="-435" rx="27" ry="18"/>
<text text-anchor="middle" x="2475.14" y="-429" font-family="Times New Roman,serif" font-size="15.00">and</text>
</g>
<!-- 2082701796192&#45;&#45;2082701793120 -->
<g id="edge31" class="edge">
<title>2082701796192&#45;&#45;2082701793120</title>
<path fill="none" stroke="black" d="M2112.98,-440.59C2183.67,-439.5 2377.04,-436.5 2447.77,-435.41"/>
</g>
<!-- 2082701795088 -->
<g id="node22" class="node">
<title>2082701795088</title>
<ellipse fill="black" stroke="black" cx="2928.6" cy="-528" rx="2.7" ry="2.7"/>
</g>
<!-- 2082701790960&#45;&#45;2082701795088 -->
<g id="edge12" class="edge">
<title>2082701790960&#45;&#45;2082701795088</title>
<path fill="none" stroke="black" d="M2502.36,-491.27C2594.2,-499.2 2897.28,-525.38 2925.49,-527.82"/>
</g>
<!-- 2082701793408 -->
<g id="node23" class="node">
<title>2082701793408</title>
<ellipse fill="none" stroke="black" cx="2928.6" cy="-489" rx="158.32" ry="18"/>
<text text-anchor="middle" x="2928.6" y="-483" font-family="Times New Roman,serif" font-size="15.00">Record senddate termination request</text>
</g>
<!-- 2082701790960&#45;&#45;2082701793408 -->
<g id="edge13" class="edge">
<title>2082701790960&#45;&#45;2082701793408</title>
<path fill="none" stroke="black" d="M2502.36,-489C2553.79,-489 2671.44,-489 2769.99,-489"/>
</g>
<!-- 2082701794080 -->
<g id="node25" class="node">
<title>2082701794080</title>
<ellipse fill="none" stroke="black" cx="2928.6" cy="-435" rx="45.21" ry="18"/>
<text text-anchor="middle" x="2928.6" y="-429" font-family="Times New Roman,serif" font-size="15.00">xor loop</text>
</g>
<!-- 2082701793120&#45;&#45;2082701794080 -->
<g id="edge17" class="edge">
<title>2082701793120&#45;&#45;2082701794080</title>
<path fill="none" stroke="black" d="M2502.36,-435C2576.79,-435 2789.97,-435 2883.13,-435"/>
</g>
<!-- 2082701793312 -->
<g id="node28" class="node">
<title>2082701793312</title>
<ellipse fill="none" stroke="black" cx="2928.6" cy="-234" rx="27" ry="18"/>
<text text-anchor="middle" x="2928.6" y="-228" font-family="Times New Roman,serif" font-size="15.00">seq</text>
</g>
<!-- 2082701793120&#45;&#45;2082701793312 -->
<g id="edge30" class="edge">
<title>2082701793120&#45;&#45;2082701793312</title>
<path fill="none" stroke="black" d="M2498.22,-425.17C2574.87,-391.04 2828.98,-277.91 2905.56,-243.81"/>
</g>
<!-- 2082701792160 -->
<g id="node26" class="node">
<title>2082701792160</title>
<ellipse fill="none" stroke="black" cx="3328.84" cy="-474" rx="131.19" ry="18"/>
<text text-anchor="middle" x="3328.84" y="-468" font-family="Times New Roman,serif" font-size="15.00">Dispatch confirmation receipt</text>
</g>
<!-- 2082701794080&#45;&#45;2082701792160 -->
<g id="edge15" class="edge">
<title>2082701794080&#45;&#45;2082701792160</title>
<path fill="none" stroke="black" d="M2972.98,-439.25C3031.94,-445.02 3139.35,-455.54 3220.61,-463.5"/>
</g>
<!-- 2082701787408 -->
<g id="node27" class="node">
<title>2082701787408</title>
<ellipse fill="black" stroke="black" cx="3328.84" cy="-435" rx="2.7" ry="2.7"/>
</g>
<!-- 2082701794080&#45;&#45;2082701787408 -->
<g id="edge16" class="edge">
<title>2082701794080&#45;&#45;2082701787408</title>
<path fill="none" stroke="black" d="M2974.13,-435C3072.36,-435 3300.95,-435 3325.66,-435"/>
</g>
<!-- 2082701789808 -->
<g id="node29" class="node">
<title>2082701789808</title>
<ellipse fill="none" stroke="black" cx="3328.84" cy="-396" rx="27" ry="18"/>
<text text-anchor="middle" x="3328.84" y="-390" font-family="Times New Roman,serif" font-size="15.00">and</text>
</g>
<!-- 2082701793312&#45;&#45;2082701789808 -->
<g id="edge20" class="edge">
<title>2082701793312&#45;&#45;2082701789808</title>
<path fill="none" stroke="black" d="M2952.15,-243.17C3022.25,-271.69 3235.78,-358.55 3305.53,-386.93"/>
</g>
<!-- 2082701798880 -->
<g id="node32" class="node">
<title>2082701798880</title>
<ellipse fill="none" stroke="black" cx="3328.84" cy="-342" rx="129.15" ry="18"/>
<text text-anchor="middle" x="3328.84" y="-336" font-family="Times New Roman,serif" font-size="15.00">Compute provisional charges</text>
</g>
<!-- 2082701793312&#45;&#45;2082701798880 -->
<g id="edge21" class="edge">
<title>2082701793312&#45;&#45;2082701798880</title>
<path fill="none" stroke="black" d="M2954.21,-240.67C3015.94,-257.41 3178.74,-301.57 3267.7,-325.69"/>
</g>
<!-- 2082701790672 -->
<g id="node33" class="node">
<title>2082701790672</title>
<ellipse fill="none" stroke="black" cx="3328.84" cy="-288" rx="136.82" ry="18"/>
<text text-anchor="middle" x="3328.84" y="-282" font-family="Times New Roman,serif" font-size="15.00">Send to the competent authority</text>
</g>
<!-- 2082701793312&#45;&#45;2082701790672 -->
<g id="edge22" class="edge">
<title>2082701793312&#45;&#45;2082701790672</title>
<path fill="none" stroke="black" d="M2955.43,-237.5C3010.24,-244.93 3140.62,-262.61 3231.56,-274.95"/>
</g>
<!-- 2082701799696 -->
<g id="node34" class="node">
<title>2082701799696</title>
<ellipse fill="none" stroke="black" cx="3328.84" cy="-234" rx="27" ry="18"/>
<text text-anchor="middle" x="3328.84" y="-228" font-family="Times New Roman,serif" font-size="15.00">xor</text>
</g>
<!-- 2082701793312&#45;&#45;2082701799696 -->
<g id="edge25" class="edge">
<title>2082701793312&#45;&#45;2082701799696</title>
<path fill="none" stroke="black" d="M2956.04,-234C3028.39,-234 3229.07,-234 3301.41,-234"/>
</g>
<!-- 2082701798304 -->
<g id="node37" class="node">
<title>2082701798304</title>
<ellipse fill="none" stroke="black" cx="3328.84" cy="-180" rx="147.06" ry="18"/>
<text text-anchor="middle" x="3328.84" y="-174" font-family="Times New Roman,serif" font-size="15.00">Standard procedure without MER</text>
</g>
<!-- 2082701793312&#45;&#45;2082701798304 -->
<g id="edge26" class="edge">
<title>2082701793312&#45;&#45;2082701798304</title>
<path fill="none" stroke="black" d="M2955.43,-230.5C3009.63,-223.15 3137.76,-205.77 3228.55,-193.46"/>
</g>
<!-- 2082701795568 -->
<g id="node38" class="node">
<title>2082701795568</title>
<ellipse fill="none" stroke="black" cx="3328.84" cy="-126" rx="144.5" ry="18"/>
<text text-anchor="middle" x="3328.84" y="-120" font-family="Times New Roman,serif" font-size="15.00">Generate procedure confirmation</text>
</g>
<!-- 2082701793312&#45;&#45;2082701795568 -->
<g id="edge27" class="edge">
<title>2082701793312&#45;&#45;2082701795568</title>
<path fill="none" stroke="black" d="M2954.21,-227.33C3015.69,-210.65 3177.4,-166.8 3266.6,-142.61"/>
</g>
<!-- 2082701802720 -->
<g id="node39" class="node">
<title>2082701802720</title>
<ellipse fill="none" stroke="black" cx="3328.84" cy="-72" rx="43.16" ry="18"/>
<text text-anchor="middle" x="3328.84" y="-66" font-family="Times New Roman,serif" font-size="15.00">Release</text>
</g>
<!-- 2082701793312&#45;&#45;2082701802720 -->
<g id="edge28" class="edge">
<title>2082701793312&#45;&#45;2082701802720</title>
<path fill="none" stroke="black" d="M2952.15,-224.83C3019.62,-197.38 3219.94,-115.89 3297.08,-84.51"/>
</g>
<!-- 2082701789712 -->
<g id="node40" class="node">
<title>2082701789712</title>
<ellipse fill="none" stroke="black" cx="3328.84" cy="-18" rx="108.16" ry="18"/>
<text text-anchor="middle" x="3328.84" y="-12" font-family="Times New Roman,serif" font-size="15.00">Begin WABOprocedure</text>
</g>
<!-- 2082701793312&#45;&#45;2082701789712 -->
<g id="edge29" class="edge">
<title>2082701793312&#45;&#45;2082701789712</title>
<path fill="none" stroke="black" d="M2950.18,-222.84C3015.16,-187.6 3216.4,-78.45 3295.47,-35.56"/>
</g>
<!-- 2082701803152 -->
<g id="node30" class="node">
<title>2082701803152</title>
<ellipse fill="none" stroke="black" cx="3628.76" cy="-423" rx="116.86" ry="18"/>
<text text-anchor="middle" x="3628.76" y="-417" font-family="Times New Roman,serif" font-size="15.00">Applicant is a stakeholder</text>
</g>
<!-- 2082701789808&#45;&#45;2082701803152 -->
<g id="edge18" class="edge">
<title>2082701789808&#45;&#45;2082701803152</title>
<path fill="none" stroke="black" d="M3356.02,-398.37C3394,-401.81 3466.47,-408.38 3527.02,-413.87"/>
</g>
<!-- 2082701802672 -->
<g id="node31" class="node">
<title>2082701802672</title>
<ellipse fill="none" stroke="black" cx="3628.76" cy="-369" rx="70.8" ry="18"/>
<text text-anchor="middle" x="3628.76" y="-363" font-family="Times New Roman,serif" font-size="15.00">End on request</text>
</g>
<!-- 2082701789808&#45;&#45;2082701802672 -->
<g id="edge19" class="edge">
<title>2082701789808&#45;&#45;2082701802672</title>
<path fill="none" stroke="black" d="M3356.02,-393.63C3401.6,-389.5 3496.84,-380.87 3561.55,-375"/>
</g>
<!-- 2082701800464 -->
<g id="node35" class="node">
<title>2082701800464</title>
<ellipse fill="black" stroke="black" cx="3628.76" cy="-254" rx="2.7" ry="2.7"/>
</g>
<!-- 2082701799696&#45;&#45;2082701800464 -->
<g id="edge23" class="edge">
<title>2082701799696&#45;&#45;2082701800464</title>
<path fill="none" stroke="black" d="M3356.02,-235.76C3424.74,-240.37 3606.37,-252.56 3626.03,-253.88"/>
</g>
<!-- 2082701801904 -->
<g id="node36" class="node">
<title>2082701801904</title>
<ellipse fill="none" stroke="black" cx="3628.76" cy="-215" rx="116.35" ry="18"/>
<text text-anchor="middle" x="3628.76" y="-209" font-family="Times New Roman,serif" font-size="15.00">Notify BAG administrator</text>
</g>
<!-- 2082701799696&#45;&#45;2082701801904 -->
<g id="edge24" class="edge">
<title>2082701799696&#45;&#45;2082701801904</title>
<path fill="none" stroke="black" d="M3356.02,-232.33C3392.65,-229.99 3461.37,-225.61 3520.53,-221.84"/>
</g>
<!-- 2082701787360 -->
<g id="node42" class="node">
<title>2082701787360</title>
<ellipse fill="black" stroke="black" cx="2085.65" cy="-402" rx="2.7" ry="2.7"/>
</g>
<!-- 2082701790048&#45;&#45;2082701787360 -->
<g id="edge34" class="edge">
<title>2082701790048&#45;&#45;2082701787360</title>
<path fill="none" stroke="black" d="M1802.3,-388.28C1872.86,-391.71 2062.33,-400.92 2082.84,-401.91"/>
</g>
<!-- 2082701799744 -->
<g id="node43" class="node">
<title>2082701799744</title>
<ellipse fill="none" stroke="black" cx="2085.65" cy="-363" rx="153.2" ry="18"/>
<text text-anchor="middle" x="2085.65" y="-357" font-family="Times New Roman,serif" font-size="15.00">Record senddate acknowledgement</text>
</g>
<!-- 2082701790048&#45;&#45;2082701799744 -->
<g id="edge35" class="edge">
<title>2082701790048&#45;&#45;2082701799744</title>
<path fill="none" stroke="black" d="M1802.3,-384.95C1836.63,-382.28 1899.11,-377.43 1956.59,-372.96"/>
</g>
<!-- 2082701800992 -->
<g id="node45" class="node">
<title>2082701800992</title>
<ellipse fill="black" stroke="black" cx="1590.51" cy="-333" rx="2.7" ry="2.7"/>
</g>
<!-- 2082701798160&#45;&#45;2082701800992 -->
<g id="edge39" class="edge">
<title>2082701798160&#45;&#45;2082701800992</title>
<path fill="none" stroke="black" d="M1491.31,-333C1523.89,-333 1576.33,-333 1587.41,-333"/>
</g>
<!-- 2082701791104 -->
<g id="node46" class="node">
<title>2082701791104</title>
<ellipse fill="none" stroke="black" cx="1590.51" cy="-281" rx="27" ry="18"/>
<text text-anchor="middle" x="1590.51" y="-275" font-family="Times New Roman,serif" font-size="15.00">seq</text>
</g>
<!-- 2082701798160&#45;&#45;2082701791104 -->
<g id="edge54" class="edge">
<title>2082701798160&#45;&#45;2082701791104</title>
<path fill="none" stroke="black" d="M1487.45,-323.58C1510.03,-314.16 1544.58,-299.75 1567.11,-290.35"/>
</g>
<!-- 2082701793552 -->
<g id="node47" class="node">
<title>2082701793552</title>
<ellipse fill="none" stroke="black" cx="1774.98" cy="-281" rx="27" ry="18"/>
<text text-anchor="middle" x="1774.98" y="-275" font-family="Times New Roman,serif" font-size="15.00">xor</text>
</g>
<!-- 2082701791104&#45;&#45;2082701793552 -->
<g id="edge52" class="edge">
<title>2082701791104&#45;&#45;2082701793552</title>
<path fill="none" stroke="black" d="M1617.65,-281C1652.24,-281 1712.88,-281 1747.59,-281"/>
</g>
<!-- 2082701794992 -->
<g id="node60" class="node">
<title>2082701794992</title>
<ellipse fill="none" stroke="black" cx="1774.98" cy="-227" rx="119.42" ry="18"/>
<text text-anchor="middle" x="1774.98" y="-221" font-family="Times New Roman,serif" font-size="15.00">Phase procedure cancelled</text>
</g>
<!-- 2082701791104&#45;&#45;2082701794992 -->
<g id="edge53" class="edge">
<title>2082701791104&#45;&#45;2082701794992</title>
<path fill="none" stroke="black" d="M1615.74,-273.83C1641.91,-266.08 1684.49,-253.48 1718.89,-243.3"/>
</g>
<!-- 2082701787840 -->
<g id="node48" class="node">
<title>2082701787840</title>
<ellipse fill="none" stroke="black" cx="2085.65" cy="-309" rx="27" ry="18"/>
<text text-anchor="middle" x="2085.65" y="-303" font-family="Times New Roman,serif" font-size="15.00">seq</text>
</g>
<!-- 2082701793552&#45;&#45;2082701787840 -->
<g id="edge42" class="edge">
<title>2082701793552&#45;&#45;2082701787840</title>
<path fill="none" stroke="black" d="M1802.03,-283.36C1860.31,-288.65 2000.66,-301.38 2058.78,-306.65"/>
</g>
<!-- 2082701794896 -->
<g id="node51" class="node">
<title>2082701794896</title>
<ellipse fill="none" stroke="black" cx="2085.65" cy="-240" rx="27" ry="18"/>
<text text-anchor="middle" x="2085.65" y="-234" font-family="Times New Roman,serif" font-size="15.00">seq</text>
</g>
<!-- 2082701793552&#45;&#45;2082701794896 -->
<g id="edge46" class="edge">
<title>2082701793552&#45;&#45;2082701794896</title>
<path fill="none" stroke="black" d="M1801.76,-277.57C1859.87,-269.86 2000.48,-251.18 2058.72,-243.44"/>
</g>
<!-- 2082701790768 -->
<g id="node55" class="node">
<title>2082701790768</title>
<ellipse fill="none" stroke="black" cx="2085.65" cy="-99" rx="27" ry="18"/>
<text text-anchor="middle" x="2085.65" y="-93" font-family="Times New Roman,serif" font-size="15.00">seq</text>
</g>
<!-- 2082701793552&#45;&#45;2082701790768 -->
<g id="edge51" class="edge">
<title>2082701793552&#45;&#45;2082701790768</title>
<path fill="none" stroke="black" d="M1795.76,-269.34C1851.38,-236.54 2008.73,-143.76 2064.64,-110.8"/>
</g>
<!-- 2082701791920 -->
<g id="node49" class="node">
<title>2082701791920</title>
<ellipse fill="none" stroke="black" cx="2475.14" cy="-369" rx="200.29" ry="18"/>
<text text-anchor="middle" x="2475.14" y="-363" font-family="Times New Roman,serif" font-size="15.00">submit request towards the competent authority</text>
</g>
<!-- 2082701787840&#45;&#45;2082701791920 -->
<g id="edge40" class="edge">
<title>2082701787840&#45;&#45;2082701791920</title>
<path fill="none" stroke="black" d="M2112.37,-312.98C2164.35,-321.03 2284.38,-339.62 2371.98,-353.18"/>
</g>
<!-- 2082701802144 -->
<g id="node50" class="node">
<title>2082701802144</title>
<ellipse fill="none" stroke="black" cx="2475.14" cy="-315" rx="133.75" ry="18"/>
<text text-anchor="middle" x="2475.14" y="-309" font-family="Times New Roman,serif" font-size="15.00">send transcript to stakeholders</text>
</g>
<!-- 2082701787840&#45;&#45;2082701802144 -->
<g id="edge41" class="edge">
<title>2082701787840&#45;&#45;2082701802144</title>
<path fill="none" stroke="black" d="M2112.98,-309.41C2159.48,-310.13 2259.07,-311.67 2341.92,-312.95"/>
</g>
<!-- 2082701787312 -->
<g id="node52" class="node">
<title>2082701787312</title>
<ellipse fill="none" stroke="black" cx="2475.14" cy="-261" rx="130.68" ry="18"/>
<text text-anchor="middle" x="2475.14" y="-255" font-family="Times New Roman,serif" font-size="15.00">Competent authority initiative</text>
</g>
<!-- 2082701794896&#45;&#45;2082701787312 -->
<g id="edge43" class="edge">
<title>2082701794896&#45;&#45;2082701787312</title>
<path fill="none" stroke="black" d="M2112.98,-241.43C2161.52,-244.06 2267.93,-249.82 2352.74,-254.42"/>
</g>
<!-- 2082701801520 -->
<g id="node53" class="node">
<title>2082701801520</title>
<ellipse fill="none" stroke="black" cx="2475.14" cy="-207" rx="145.52" ry="18"/>
<text text-anchor="middle" x="2475.14" y="-201" font-family="Times New Roman,serif" font-size="15.00">Create terminate request message</text>
</g>
<!-- 2082701794896&#45;&#45;2082701801520 -->
<g id="edge44" class="edge">
<title>2082701794896&#45;&#45;2082701801520</title>
<path fill="none" stroke="black" d="M2112.68,-237.78C2161.29,-233.64 2268.68,-224.5 2353.84,-217.24"/>
</g>
<!-- 2082701795424 -->
<g id="node54" class="node">
<title>2082701795424</title>
<ellipse fill="none" stroke="black" cx="2475.14" cy="-153" rx="125.05" ry="18"/>
<text text-anchor="middle" x="2475.14" y="-147" font-family="Times New Roman,serif" font-size="15.00">Check publication date field</text>
</g>
<!-- 2082701794896&#45;&#45;2082701795424 -->
<g id="edge45" class="edge">
<title>2082701794896&#45;&#45;2082701795424</title>
<path fill="none" stroke="black" d="M2111.77,-234.36C2170.47,-221.18 2318.25,-188 2405.89,-168.32"/>
</g>
<!-- 2082701799600 -->
<g id="node56" class="node">
<title>2082701799600</title>
<ellipse fill="none" stroke="black" cx="2475.14" cy="-99" rx="140.41" ry="18"/>
<text text-anchor="middle" x="2475.14" y="-93" font-family="Times New Roman,serif" font-size="15.00">phase demands only notification</text>
</g>
<!-- 2082701790768&#45;&#45;2082701799600 -->
<g id="edge47" class="edge">
<title>2082701790768&#45;&#45;2082701799600</title>
<path fill="none" stroke="black" d="M2112.98,-99C2158.12,-99 2253.28,-99 2334.59,-99"/>
</g>
<!-- 2082701800128 -->
<g id="node57" class="node">
<title>2082701800128</title>
<ellipse fill="none" stroke="black" cx="2475.14" cy="-45" rx="27" ry="18"/>
<text text-anchor="middle" x="2475.14" y="-39" font-family="Times New Roman,serif" font-size="15.00">and</text>
</g>
<!-- 2082701790768&#45;&#45;2082701800128 -->
<g id="edge50" class="edge">
<title>2082701790768&#45;&#45;2082701800128</title>
<path fill="none" stroke="black" d="M2112.37,-95.42C2182.77,-85.6 2378.03,-58.39 2448.42,-48.58"/>
</g>
<!-- 2082701791008 -->
<g id="node58" class="node">
<title>2082701791008</title>
<ellipse fill="none" stroke="black" cx="2928.6" cy="-72" rx="217.18" ry="18"/>
<text text-anchor="middle" x="2928.6" y="-66" font-family="Times New Roman,serif" font-size="15.00">log senddate letter no permit or notification needed</text>
</g>
<!-- 2082701800128&#45;&#45;2082701791008 -->
<g id="edge48" class="edge">
<title>2082701800128&#45;&#45;2082701791008</title>
<path fill="none" stroke="black" d="M2502.36,-46.57C2550.4,-49.44 2656.23,-55.77 2750.29,-61.4"/>
</g>
<!-- 2082701800080 -->
<g id="node59" class="node">
<title>2082701800080</title>
<ellipse fill="none" stroke="black" cx="2928.6" cy="-18" rx="205.41" ry="18"/>
<text text-anchor="middle" x="2928.6" y="-12" font-family="Times New Roman,serif" font-size="15.00">draft letter for no permit or notification required</text>
</g>
<!-- 2082701800128&#45;&#45;2082701800080 -->
<g id="edge49" class="edge">
<title>2082701800128&#45;&#45;2082701800080</title>
<path fill="none" stroke="black" d="M2502.36,-43.43C2551.53,-40.49 2661.23,-33.93 2756.9,-28.21"/>
</g>
<!-- 2082701803296 -->
<g id="node62" class="node">
<title>2082701803296</title>
<ellipse fill="black" stroke="black" cx="1188.52" cy="-368" rx="2.7" ry="2.7"/>
</g>
<!-- 2082701797152&#45;&#45;2082701803296 -->
<g id="edge58" class="edge">
<title>2082701797152&#45;&#45;2082701803296</title>
<path fill="none" stroke="black" d="M840.6,-364.28C921.23,-365.15 1161.37,-367.72 1185.55,-367.98"/>
</g>
<!-- 2082701801760 -->
<g id="node63" class="node">
<title>2082701801760</title>
<ellipse fill="none" stroke="black" cx="1188.52" cy="-329" rx="173.67" ry="18"/>
<text text-anchor="middle" x="1188.52" y="-323" font-family="Times New Roman,serif" font-size="15.00">Prematurely terminated phase procedure</text>
</g>
<!-- 2082701797152&#45;&#45;2082701801760 -->
<g id="edge59" class="edge">
<title>2082701797152&#45;&#45;2082701801760</title>
<path fill="none" stroke="black" d="M840.6,-361.54C885.31,-357.35 979.07,-348.55 1057.86,-341.16"/>
</g>
<!-- 2082701798592 -->
<g id="node65" class="node">
<title>2082701798592</title>
<ellipse fill="black" stroke="black" cx="495.01" cy="-349" rx="2.7" ry="2.7"/>
</g>
<!-- 2082701791392&#45;&#45;2082701798592 -->
<g id="edge63" class="edge">
<title>2082701791392&#45;&#45;2082701798592</title>
<path fill="none" stroke="black" d="M241.95,-313.63C306.64,-322.71 471.58,-345.85 491.94,-348.71"/>
</g>
<!-- 2082701793792 -->
<g id="node66" class="node">
<title>2082701793792</title>
<ellipse fill="none" stroke="black" cx="495.01" cy="-310" rx="69.26" ry="18"/>
<text text-anchor="middle" x="495.01" y="-304" font-family="Times New Roman,serif" font-size="15.00">Close the case</text>
</g>
<!-- 2082701791392&#45;&#45;2082701793792 -->
<g id="edge64" class="edge">
<title>2082701791392&#45;&#45;2082701793792</title>
<path fill="none" stroke="black" d="M242.45,-310C284.06,-310 366.21,-310 425.33,-310"/>
</g>
<!-- 2082701794944 -->
<g id="node67" class="node">
<title>2082701794944</title>
<ellipse fill="none" stroke="black" cx="495.01" cy="-256" rx="27" ry="18"/>
<text text-anchor="middle" x="495.01" y="-250" font-family="Times New Roman,serif" font-size="15.00">seq</text>
</g>
<!-- 2082701791392&#45;&#45;2082701794944 -->
<g id="edge68" class="edge">
<title>2082701791392&#45;&#45;2082701794944</title>
<path fill="none" stroke="black" d="M241.21,-305.11C294,-294.86 415.8,-271.19 468.71,-260.92"/>
</g>
<!-- 2082701788032 -->
<g id="node71" class="node">
<title>2082701788032</title>
<ellipse fill="none" stroke="black" cx="495.01" cy="-121" rx="27" ry="18"/>
<text text-anchor="middle" x="495.01" y="-115" font-family="Times New Roman,serif" font-size="15.00">seq</text>
</g>
<!-- 2082701791392&#45;&#45;2082701788032 -->
<g id="edge74" class="edge">
<title>2082701791392&#45;&#45;2082701788032</title>
<path fill="none" stroke="black" d="M234.72,-297.31C285.36,-262.88 424.88,-168 475.43,-133.64"/>
</g>
<!-- 2082701788560 -->
<g id="node68" class="node">
<title>2082701788560</title>
<ellipse fill="none" stroke="black" cx="813.36" cy="-310" rx="69.78" ry="18"/>
<text text-anchor="middle" x="813.36" y="-304" font-family="Times New Roman,serif" font-size="15.00">MER included</text>
</g>
<!-- 2082701794944&#45;&#45;2082701788560 -->
<g id="edge65" class="edge">
<title>2082701794944&#45;&#45;2082701788560</title>
<path fill="none" stroke="black" d="M521.63,-260.37C571.94,-268.96 684.76,-288.22 754.13,-300.06"/>
</g>
<!-- 2082701800368 -->
<g id="node69" class="node">
<title>2082701800368</title>
<ellipse fill="none" stroke="black" cx="813.36" cy="-256" rx="126.08" ry="18"/>
<text text-anchor="middle" x="813.36" y="-250" font-family="Times New Roman,serif" font-size="15.00">Regular procedure activities</text>
</g>
<!-- 2082701794944&#45;&#45;2082701800368 -->
<g id="edge66" class="edge">
<title>2082701794944&#45;&#45;2082701800368</title>
<path fill="none" stroke="black" d="M522.44,-256C558.67,-256 626.22,-256 687,-256"/>
</g>
<!-- 2082701792208 -->
<g id="node70" class="node">
<title>2082701792208</title>
<ellipse fill="none" stroke="black" cx="813.36" cy="-202" rx="87.69" ry="18"/>
<text text-anchor="middle" x="813.36" y="-196" font-family="Times New Roman,serif" font-size="15.00">Phased application</text>
</g>
<!-- 2082701794944&#45;&#45;2082701792208 -->
<g id="edge67" class="edge">
<title>2082701794944&#45;&#45;2082701792208</title>
<path fill="none" stroke="black" d="M521.63,-251.63C569.73,-243.42 674.98,-225.45 744.76,-213.54"/>
</g>
<!-- 2082701796384 -->
<g id="node72" class="node">
<title>2082701796384</title>
<ellipse fill="none" stroke="black" cx="813.36" cy="-148" rx="27" ry="18"/>
<text text-anchor="middle" x="813.36" y="-142" font-family="Times New Roman,serif" font-size="15.00">and</text>
</g>
<!-- 2082701788032&#45;&#45;2082701796384 -->
<g id="edge71" class="edge">
<title>2082701788032&#45;&#45;2082701796384</title>
<path fill="none" stroke="black" d="M522.17,-123.23C581.68,-128.31 726.63,-140.68 786.17,-145.76"/>
</g>
<!-- 2082701802768 -->
<g id="node75" class="node">
<title>2082701802768</title>
<ellipse fill="none" stroke="black" cx="813.36" cy="-94" rx="117.89" ry="18"/>
<text text-anchor="middle" x="813.36" y="-88" font-family="Times New Roman,serif" font-size="15.00">Extend procedure duration</text>
</g>
<!-- 2082701788032&#45;&#45;2082701802768 -->
<g id="edge72" class="edge">
<title>2082701788032&#45;&#45;2082701802768</title>
<path fill="none" stroke="black" d="M522.17,-118.77C562.88,-115.29 643.57,-108.41 709.56,-102.77"/>
</g>
<!-- 2082701792448 -->
<g id="node76" class="node">
<title>2082701792448</title>
<ellipse fill="none" stroke="black" cx="813.36" cy="-40" rx="93.83" ry="18"/>
<text text-anchor="middle" x="813.36" y="-34" font-family="Times New Roman,serif" font-size="15.00">Log date publication</text>
</g>
<!-- 2082701788032&#45;&#45;2082701792448 -->
<g id="edge73" class="edge">
<title>2082701788032&#45;&#45;2082701792448</title>
<path fill="none" stroke="black" d="M520.84,-114.64C571.09,-101.78 685.98,-72.36 755.59,-54.54"/>
</g>
<!-- 2082701793024 -->
<g id="node73" class="node">
<title>2082701793024</title>
<ellipse fill="none" stroke="black" cx="1188.52" cy="-175" rx="175.72" ry="18"/>
<text text-anchor="middle" x="1188.52" y="-169" font-family="Times New Roman,serif" font-size="15.00">Record senddate procedure confirmation</text>
</g>
<!-- 2082701796384&#45;&#45;2082701793024 -->
<g id="edge69" class="edge">
<title>2082701796384&#45;&#45;2082701793024</title>
<path fill="none" stroke="black" d="M840.6,-149.9C882.57,-152.94 967.77,-159.1 1043.23,-164.56"/>
</g>
<!-- 2082701797584 -->
<g id="node74" class="node">
<title>2082701797584</title>
<ellipse fill="none" stroke="black" cx="1188.52" cy="-121" rx="143.99" ry="18"/>
<text text-anchor="middle" x="1188.52" y="-115" font-family="Times New Roman,serif" font-size="15.00">Dispatch procedure confirmation</text>
</g>
<!-- 2082701796384&#45;&#45;2082701797584 -->
<g id="edge70" class="edge">
<title>2082701796384&#45;&#45;2082701797584</title>
<path fill="none" stroke="black" d="M840.6,-146.1C886.22,-142.8 982.92,-135.8 1062.66,-130.03"/>
</g>
</g>
</svg>
