<?xml version="1.0" encoding="UTF-8" standalone="no"?>
<!DOCTYPE svg PUBLIC "-//W3C//DTD SVG 1.1//EN"
 "http://www.w3.org/Graphics/SVG/1.1/DTD/svg11.dtd">
<!-- Generated by graphviz version 11.0.0 (20240428.1522)
 -->
<!-- Title: pt Pages: 1 -->
<svg width="1905pt" height="1627pt"
 viewBox="0.00 0.00 1904.96 1627.00" xmlns="http://www.w3.org/2000/svg" xmlns:xlink="http://www.w3.org/1999/xlink">
<g id="graph0" class="graph" transform="scale(1 1) rotate(0) translate(4 1623)">
<title>pt</title>
<polygon fill="white" stroke="none" points="-4,4 -4,-1623 1900.96,-1623 1900.96,4 -4,4"/>
<!-- 2082704285648 -->
<g id="node1" class="node">
<title>2082704285648</title>
<ellipse fill="none" stroke="black" cx="27" cy="-515" rx="27" ry="18"/>
<text text-anchor="middle" x="27" y="-509" font-family="Times New Roman,serif" font-size="15.00">seq</text>
</g>
<!-- 2082704293760 -->
<g id="node2" class="node">
<title>2082704293760</title>
<ellipse fill="none" stroke="black" cx="117" cy="-775" rx="27" ry="18"/>
<text text-anchor="middle" x="117" y="-769" font-family="Times New Roman,serif" font-size="15.00">xor</text>
</g>
<!-- 2082704285648&#45;&#45;2082704293760 -->
<g id="edge62" class="edge">
<title>2082704285648&#45;&#45;2082704293760</title>
<path fill="none" stroke="black" d="M34.05,-532.87C50.16,-580.48 94,-709.99 110.03,-757.35"/>
</g>
<!-- 2082704281136 -->
<g id="node64" class="node">
<title>2082704281136</title>
<ellipse fill="none" stroke="black" cx="117" cy="-280" rx="27" ry="18"/>
<text text-anchor="middle" x="117" y="-274" font-family="Times New Roman,serif" font-size="15.00">xor</text>
</g>
<!-- 2082704285648&#45;&#45;2082704281136 -->
<g id="edge76" class="edge">
<title>2082704285648&#45;&#45;2082704281136</title>
<path fill="none" stroke="black" d="M34.61,-497.34C50.96,-453.68 93.13,-341.08 109.43,-297.55"/>
</g>
<!-- 2082704289152 -->
<g id="node3" class="node">
<title>2082704289152</title>
<ellipse fill="black" stroke="black" cx="225.21" cy="-814" rx="2.7" ry="2.7"/>
</g>
<!-- 2082704293760&#45;&#45;2082704289152 -->
<g id="edge1" class="edge">
<title>2082704293760&#45;&#45;2082704289152</title>
<path fill="none" stroke="black" d="M141.31,-783.56C169.15,-793.78 213.16,-809.94 222.45,-813.35"/>
</g>
<!-- 2082704289008 -->
<g id="node4" class="node">
<title>2082704289008</title>
<ellipse fill="none" stroke="black" cx="225.21" cy="-775" rx="27" ry="18"/>
<text text-anchor="middle" x="225.21" y="-769" font-family="Times New Roman,serif" font-size="15.00">seq</text>
</g>
<!-- 2082704293760&#45;&#45;2082704289008 -->
<g id="edge61" class="edge">
<title>2082704293760&#45;&#45;2082704289008</title>
<path fill="none" stroke="black" d="M144.25,-775C160.59,-775 181.54,-775 197.89,-775"/>
</g>
<!-- 2082704278256 -->
<g id="node5" class="node">
<title>2082704278256</title>
<ellipse fill="none" stroke="black" cx="477.02" cy="-1373" rx="125.05" ry="18"/>
<text text-anchor="middle" x="477.02" y="-1367" font-family="Times New Roman,serif" font-size="15.00">Log submission date request</text>
</g>
<!-- 2082704289008&#45;&#45;2082704278256 -->
<g id="edge2" class="edge">
<title>2082704289008&#45;&#45;2082704278256</title>
<path fill="none" stroke="black" d="M233.55,-792.57C269.98,-879.77 431.06,-1265.37 468.31,-1354.55"/>
</g>
<!-- 2082704293808 -->
<g id="node6" class="node">
<title>2082704293808</title>
<ellipse fill="none" stroke="black" cx="477.02" cy="-1319" rx="27" ry="18"/>
<text text-anchor="middle" x="477.02" y="-1313" font-family="Times New Roman,serif" font-size="15.00">xor</text>
</g>
<!-- 2082704289008&#45;&#45;2082704293808 -->
<g id="edge5" class="edge">
<title>2082704289008&#45;&#45;2082704293808</title>
<path fill="none" stroke="black" d="M234.1,-792.18C271.46,-873.54 430.37,-1219.59 468.01,-1301.54"/>
</g>
<!-- 2082704283200 -->
<g id="node9" class="node">
<title>2082704283200</title>
<ellipse fill="none" stroke="black" cx="477.02" cy="-1163" rx="121.47" ry="18"/>
<text text-anchor="middle" x="477.02" y="-1157" font-family="Times New Roman,serif" font-size="15.00">OLO communication active</text>
</g>
<!-- 2082704289008&#45;&#45;2082704283200 -->
<g id="edge6" class="edge">
<title>2082704289008&#45;&#45;2082704283200</title>
<path fill="none" stroke="black" d="M236.94,-791.67C277.57,-854.77 421.74,-1078.69 464.18,-1144.61"/>
</g>
<!-- 2082704285504 -->
<g id="node10" class="node">
<title>2082704285504</title>
<ellipse fill="none" stroke="black" cx="477.02" cy="-1109" rx="27" ry="18"/>
<text text-anchor="middle" x="477.02" y="-1103" font-family="Times New Roman,serif" font-size="15.00">xor</text>
</g>
<!-- 2082704289008&#45;&#45;2082704285504 -->
<g id="edge17" class="edge">
<title>2082704289008&#45;&#45;2082704285504</title>
<path fill="none" stroke="black" d="M238.26,-791.11C280.56,-847.66 421.98,-1036.75 464.09,-1093.05"/>
</g>
<!-- 2082704279984 -->
<g id="node21" class="node">
<title>2082704279984</title>
<ellipse fill="none" stroke="black" cx="477.02" cy="-1018" rx="27" ry="18"/>
<text text-anchor="middle" x="477.02" y="-1012" font-family="Times New Roman,serif" font-size="15.00">xor</text>
</g>
<!-- 2082704289008&#45;&#45;2082704279984 -->
<g id="edge27" class="edge">
<title>2082704289008&#45;&#45;2082704279984</title>
<path fill="none" stroke="black" d="M241.46,-789.83C286.16,-833.32 416.52,-960.12 460.97,-1003.36"/>
</g>
<!-- 2082704287712 -->
<g id="node31" class="node">
<title>2082704287712</title>
<ellipse fill="none" stroke="black" cx="477.02" cy="-964" rx="27" ry="18"/>
<text text-anchor="middle" x="477.02" y="-958" font-family="Times New Roman,serif" font-size="15.00">and</text>
</g>
<!-- 2082704289008&#45;&#45;2082704287712 -->
<g id="edge36" class="edge">
<title>2082704289008&#45;&#45;2082704287712</title>
<path fill="none" stroke="black" d="M243.78,-788.29C289.64,-822.99 412.63,-916.04 458.48,-950.72"/>
</g>
<!-- 2082704281664 -->
<g id="node40" class="node">
<title>2082704281664</title>
<ellipse fill="none" stroke="black" cx="477.02" cy="-910" rx="147.06" ry="18"/>
<text text-anchor="middle" x="477.02" y="-904" font-family="Times New Roman,serif" font-size="15.00">Standard procedure without MER</text>
</g>
<!-- 2082704289008&#45;&#45;2082704281664 -->
<g id="edge37" class="edge">
<title>2082704289008&#45;&#45;2082704281664</title>
<path fill="none" stroke="black" d="M246.65,-786.05C289.77,-809.35 390.35,-863.7 442.83,-892.06"/>
</g>
<!-- 2082704289056 -->
<g id="node41" class="node">
<title>2082704289056</title>
<ellipse fill="none" stroke="black" cx="477.02" cy="-856" rx="27" ry="18"/>
<text text-anchor="middle" x="477.02" y="-850" font-family="Times New Roman,serif" font-size="15.00">xor</text>
</g>
<!-- 2082704289008&#45;&#45;2082704289056 -->
<g id="edge40" class="edge">
<title>2082704289008&#45;&#45;2082704289056</title>
<path fill="none" stroke="black" d="M250.16,-782.77C297.91,-798.25 404.45,-832.79 452.14,-848.26"/>
</g>
<!-- 2082704278880 -->
<g id="node44" class="node">
<title>2082704278880</title>
<ellipse fill="none" stroke="black" cx="477.02" cy="-802" rx="143.99" ry="18"/>
<text text-anchor="middle" x="477.02" y="-796" font-family="Times New Roman,serif" font-size="15.00">Dispatch procedure confirmation</text>
</g>
<!-- 2082704289008&#45;&#45;2082704278880 -->
<g id="edge41" class="edge">
<title>2082704289008&#45;&#45;2082704278880</title>
<path fill="none" stroke="black" d="M252,-777.79C279.24,-780.73 324.03,-785.57 366.43,-790.16"/>
</g>
<!-- 2082704287040 -->
<g id="node45" class="node">
<title>2082704287040</title>
<ellipse fill="none" stroke="black" cx="477.02" cy="-748" rx="27" ry="18"/>
<text text-anchor="middle" x="477.02" y="-742" font-family="Times New Roman,serif" font-size="15.00">xor</text>
</g>
<!-- 2082704289008&#45;&#45;2082704287040 -->
<g id="edge44" class="edge">
<title>2082704289008&#45;&#45;2082704287040</title>
<path fill="none" stroke="black" d="M252,-772.21C299.87,-767.04 401.95,-756.01 449.99,-750.81"/>
</g>
<!-- 2082704280368 -->
<g id="node48" class="node">
<title>2082704280368</title>
<ellipse fill="none" stroke="black" cx="477.02" cy="-694" rx="70.8" ry="18"/>
<text text-anchor="middle" x="477.02" y="-688" font-family="Times New Roman,serif" font-size="15.00">End on request</text>
</g>
<!-- 2082704289008&#45;&#45;2082704280368 -->
<g id="edge45" class="edge">
<title>2082704289008&#45;&#45;2082704280368</title>
<path fill="none" stroke="black" d="M250.16,-767.23C292.05,-753.65 379.18,-725.4 432.14,-708.23"/>
</g>
<!-- 2082704282288 -->
<g id="node49" class="node">
<title>2082704282288</title>
<ellipse fill="none" stroke="black" cx="477.02" cy="-640" rx="163.44" ry="18"/>
<text text-anchor="middle" x="477.02" y="-634" font-family="Times New Roman,serif" font-size="15.00">Log date termination request received</text>
</g>
<!-- 2082704289008&#45;&#45;2082704282288 -->
<g id="edge46" class="edge">
<title>2082704289008&#45;&#45;2082704282288</title>
<path fill="none" stroke="black" d="M246.65,-763.95C289.77,-740.65 390.35,-686.3 442.83,-657.94"/>
</g>
<!-- 2082704293616 -->
<g id="node50" class="node">
<title>2082704293616</title>
<ellipse fill="none" stroke="black" cx="477.02" cy="-586" rx="27" ry="18"/>
<text text-anchor="middle" x="477.02" y="-580" font-family="Times New Roman,serif" font-size="15.00">and</text>
</g>
<!-- 2082704289008&#45;&#45;2082704293616 -->
<g id="edge49" class="edge">
<title>2082704289008&#45;&#45;2082704293616</title>
<path fill="none" stroke="black" d="M243.78,-761.71C289.64,-727.01 412.63,-633.96 458.48,-599.28"/>
</g>
<!-- 2082704278544 -->
<g id="node53" class="node">
<title>2082704278544</title>
<ellipse fill="none" stroke="black" cx="477.02" cy="-532" rx="27" ry="18"/>
<text text-anchor="middle" x="477.02" y="-526" font-family="Times New Roman,serif" font-size="15.00">xor</text>
</g>
<!-- 2082704289008&#45;&#45;2082704278544 -->
<g id="edge52" class="edge">
<title>2082704289008&#45;&#45;2082704278544</title>
<path fill="none" stroke="black" d="M241.46,-760.17C286.16,-716.68 416.52,-589.88 460.97,-546.64"/>
</g>
<!-- 2082704291024 -->
<g id="node56" class="node">
<title>2082704291024</title>
<ellipse fill="none" stroke="black" cx="477.02" cy="-478" rx="27" ry="18"/>
<text text-anchor="middle" x="477.02" y="-472" font-family="Times New Roman,serif" font-size="15.00">xor</text>
</g>
<!-- 2082704289008&#45;&#45;2082704291024 -->
<g id="edge56" class="edge">
<title>2082704289008&#45;&#45;2082704291024</title>
<path fill="none" stroke="black" d="M239.29,-759.45C282.36,-708.25 419.45,-545.25 462.77,-493.75"/>
</g>
<!-- 2082704284736 -->
<g id="node60" class="node">
<title>2082704284736</title>
<ellipse fill="none" stroke="black" cx="477.02" cy="-424" rx="119.42" ry="18"/>
<text text-anchor="middle" x="477.02" y="-418" font-family="Times New Roman,serif" font-size="15.00">Phase procedure cancelled</text>
</g>
<!-- 2082704289008&#45;&#45;2082704284736 -->
<g id="edge57" class="edge">
<title>2082704289008&#45;&#45;2082704284736</title>
<path fill="none" stroke="black" d="M237.59,-759.01C278.73,-701.2 419.57,-503.32 463.1,-442.16"/>
</g>
<!-- 2082704279648 -->
<g id="node61" class="node">
<title>2082704279648</title>
<ellipse fill="none" stroke="black" cx="477.02" cy="-366" rx="27" ry="18"/>
<text text-anchor="middle" x="477.02" y="-360" font-family="Times New Roman,serif" font-size="15.00">xor</text>
</g>
<!-- 2082704289008&#45;&#45;2082704279648 -->
<g id="edge60" class="edge">
<title>2082704289008&#45;&#45;2082704279648</title>
<path fill="none" stroke="black" d="M236.47,-758.2C276.96,-691.91 425.42,-448.85 465.82,-382.71"/>
</g>
<!-- 2082704277872 -->
<g id="node7" class="node">
<title>2082704277872</title>
<ellipse fill="black" stroke="black" cx="900.8" cy="-1421" rx="2.7" ry="2.7"/>
</g>
<!-- 2082704293808&#45;&#45;2082704277872 -->
<g id="edge3" class="edge">
<title>2082704293808&#45;&#45;2082704277872</title>
<path fill="none" stroke="black" d="M502.83,-1325C589,-1345.84 871.54,-1414.16 897.84,-1420.52"/>
</g>
<!-- 2082704282336 -->
<g id="node8" class="node">
<title>2082704282336</title>
<ellipse fill="none" stroke="black" cx="900.8" cy="-1382" rx="217.18" ry="18"/>
<text text-anchor="middle" x="900.8" y="-1376" font-family="Times New Roman,serif" font-size="15.00">log senddate letter no permit or notification needed</text>
</g>
<!-- 2082704293808&#45;&#45;2082704282336 -->
<g id="edge4" class="edge">
<title>2082704293808&#45;&#45;2082704282336</title>
<path fill="none" stroke="black" d="M503.77,-1322.85C559.84,-1331.22 695.73,-1351.52 792.66,-1366"/>
</g>
<!-- 2082704289200 -->
<g id="node11" class="node">
<title>2082704289200</title>
<ellipse fill="black" stroke="black" cx="900.8" cy="-1343" rx="2.7" ry="2.7"/>
</g>
<!-- 2082704285504&#45;&#45;2082704289200 -->
<g id="edge7" class="edge">
<title>2082704285504&#45;&#45;2082704289200</title>
<path fill="none" stroke="black" d="M498.37,-1120.29C579,-1165.02 872.97,-1328.12 898.09,-1342.05"/>
</g>
<!-- 2082704278784 -->
<g id="node12" class="node">
<title>2082704278784</title>
<ellipse fill="none" stroke="black" cx="900.8" cy="-1304" rx="27" ry="18"/>
<text text-anchor="middle" x="900.8" y="-1298" font-family="Times New Roman,serif" font-size="15.00">seq</text>
</g>
<!-- 2082704285504&#45;&#45;2082704278784 -->
<g id="edge16" class="edge">
<title>2082704285504&#45;&#45;2082704278784</title>
<path fill="none" stroke="black" d="M499.81,-1119.07C572.35,-1152.61 805.17,-1260.25 877.89,-1293.87"/>
</g>
<!-- 2082704286368 -->
<g id="node13" class="node">
<title>2082704286368</title>
<ellipse fill="none" stroke="black" cx="1354.27" cy="-1601" rx="99.46" ry="18"/>
<text text-anchor="middle" x="1354.27" y="-1595" font-family="Times New Roman,serif" font-size="15.00">draft forwarding copy</text>
</g>
<!-- 2082704278784&#45;&#45;2082704286368 -->
<g id="edge8" class="edge">
<title>2082704278784&#45;&#45;2082704286368</title>
<path fill="none" stroke="black" d="M920.91,-1316.57C992.32,-1363.55 1243.65,-1528.89 1326.53,-1583.41"/>
</g>
<!-- 2082704289872 -->
<g id="node14" class="node">
<title>2082704289872</title>
<ellipse fill="none" stroke="black" cx="1354.27" cy="-1547" rx="174.7" ry="18"/>
<text text-anchor="middle" x="1354.27" y="-1541" font-family="Times New Roman,serif" font-size="15.00">send confirmation to competent authority</text>
</g>
<!-- 2082704278784&#45;&#45;2082704289872 -->
<g id="edge9" class="edge">
<title>2082704278784&#45;&#45;2082704289872</title>
<path fill="none" stroke="black" d="M922.37,-1315.07C993.79,-1353.51 1231.44,-1481.43 1319.8,-1528.99"/>
</g>
<!-- 2082704279744 -->
<g id="node15" class="node">
<title>2082704279744</title>
<ellipse fill="none" stroke="black" cx="1354.27" cy="-1493" rx="160.88" ry="18"/>
<text text-anchor="middle" x="1354.27" y="-1487" font-family="Times New Roman,serif" font-size="15.00">forward phase to competent authority</text>
</g>
<!-- 2082704278784&#45;&#45;2082704279744 -->
<g id="edge10" class="edge">
<title>2082704278784&#45;&#45;2082704279744</title>
<path fill="none" stroke="black" d="M924.19,-1313.37C995.36,-1343.17 1217.21,-1436.04 1310.87,-1475.25"/>
</g>
<!-- 2082704290448 -->
<g id="node16" class="node">
<title>2082704290448</title>
<ellipse fill="none" stroke="black" cx="1354.27" cy="-1439" rx="92.81" ry="18"/>
<text text-anchor="middle" x="1354.27" y="-1433" font-family="Times New Roman,serif" font-size="15.00">Phase archived case</text>
</g>
<!-- 2082704278784&#45;&#45;2082704290448 -->
<g id="edge11" class="edge">
<title>2082704278784&#45;&#45;2082704290448</title>
<path fill="none" stroke="black" d="M926.07,-1311.26C997.05,-1332.48 1205.29,-1394.75 1302.36,-1423.78"/>
</g>
<!-- 2082704291984 -->
<g id="node17" class="node">
<title>2082704291984</title>
<ellipse fill="none" stroke="black" cx="1354.27" cy="-1385" rx="92.81" ry="18"/>
<text text-anchor="middle" x="1354.27" y="-1379" font-family="Times New Roman,serif" font-size="15.00">Phase case managed</text>
</g>
<!-- 2082704278784&#45;&#45;2082704291984 -->
<g id="edge12" class="edge">
<title>2082704278784&#45;&#45;2082704291984</title>
<path fill="none" stroke="black" d="M927.37,-1308.59C995.45,-1320.8 1182.91,-1354.44 1284.94,-1372.74"/>
</g>
<!-- 2082704280800 -->
<g id="node18" class="node">
<title>2082704280800</title>
<ellipse fill="none" stroke="black" cx="1354.27" cy="-1331" rx="126.08" ry="18"/>
<text text-anchor="middle" x="1354.27" y="-1325" font-family="Times New Roman,serif" font-size="15.00">Stop all running subcases 2b</text>
</g>
<!-- 2082704278784&#45;&#45;2082704280800 -->
<g id="edge13" class="edge">
<title>2082704278784&#45;&#45;2082704280800</title>
<path fill="none" stroke="black" d="M928.03,-1305.57C986.93,-1309.09 1132.74,-1317.81 1237.18,-1324.06"/>
</g>
<!-- 2082704283344 -->
<g id="node19" class="node">
<title>2082704283344</title>
<ellipse fill="none" stroke="black" cx="1354.27" cy="-1277" rx="200.29" ry="18"/>
<text text-anchor="middle" x="1354.27" y="-1271" font-family="Times New Roman,serif" font-size="15.00">submit request towards the competent authority</text>
</g>
<!-- 2082704278784&#45;&#45;2082704283344 -->
<g id="edge14" class="edge">
<title>2082704278784&#45;&#45;2082704283344</title>
<path fill="none" stroke="black" d="M928.03,-1302.43C977.71,-1299.46 1089.21,-1292.79 1185.58,-1287.03"/>
</g>
<!-- 2082704288768 -->
<g id="node20" class="node">
<title>2082704288768</title>
<ellipse fill="none" stroke="black" cx="1354.27" cy="-1223" rx="176.23" ry="18"/>
<text text-anchor="middle" x="1354.27" y="-1217" font-family="Times New Roman,serif" font-size="15.00">log the senddate for letter to the authority</text>
</g>
<!-- 2082704278784&#45;&#45;2082704288768 -->
<g id="edge15" class="edge">
<title>2082704278784&#45;&#45;2082704288768</title>
<path fill="none" stroke="black" d="M927.37,-1299.41C991.16,-1287.97 1159.76,-1257.72 1264.69,-1238.89"/>
</g>
<!-- 2082704282912 -->
<g id="node22" class="node">
<title>2082704282912</title>
<ellipse fill="black" stroke="black" cx="900.8" cy="-1046" rx="2.7" ry="2.7"/>
</g>
<!-- 2082704279984&#45;&#45;2082704282912 -->
<g id="edge18" class="edge">
<title>2082704279984&#45;&#45;2082704282912</title>
<path fill="none" stroke="black" d="M504.09,-1019.73C591.74,-1025.55 871.79,-1044.14 897.85,-1045.87"/>
</g>
<!-- 2082704286464 -->
<g id="node23" class="node">
<title>2082704286464</title>
<ellipse fill="none" stroke="black" cx="900.8" cy="-1007" rx="27" ry="18"/>
<text text-anchor="middle" x="900.8" y="-1001" font-family="Times New Roman,serif" font-size="15.00">seq</text>
</g>
<!-- 2082704279984&#45;&#45;2082704286464 -->
<g id="edge26" class="edge">
<title>2082704279984&#45;&#45;2082704286464</title>
<path fill="none" stroke="black" d="M504.41,-1017.31C580.15,-1015.34 797.69,-1009.66 873.43,-1007.69"/>
</g>
<!-- 2082704282816 -->
<g id="node24" class="node">
<title>2082704282816</title>
<ellipse fill="none" stroke="black" cx="1354.27" cy="-1169" rx="182.89" ry="18"/>
<text text-anchor="middle" x="1354.27" y="-1163" font-family="Times New Roman,serif" font-size="15.00">Mandatory Environmental Report required</text>
</g>
<!-- 2082704286464&#45;&#45;2082704282816 -->
<g id="edge19" class="edge">
<title>2082704286464&#45;&#45;2082704282816</title>
<path fill="none" stroke="black" d="M925.12,-1015.37C995.54,-1040.64 1207.1,-1116.55 1303.92,-1151.29"/>
</g>
<!-- 2082704278688 -->
<g id="node25" class="node">
<title>2082704278688</title>
<ellipse fill="none" stroke="black" cx="1354.27" cy="-1115" rx="126.08" ry="18"/>
<text text-anchor="middle" x="1354.27" y="-1109" font-family="Times New Roman,serif" font-size="15.00">Regular procedure activities</text>
</g>
<!-- 2082704286464&#45;&#45;2082704278688 -->
<g id="edge20" class="edge">
<title>2082704286464&#45;&#45;2082704278688</title>
<path fill="none" stroke="black" d="M926.72,-1012.96C994.84,-1029.26 1185.86,-1074.95 1287.58,-1099.29"/>
</g>
<!-- 2082704286896 -->
<g id="node26" class="node">
<title>2082704286896</title>
<ellipse fill="none" stroke="black" cx="1354.27" cy="-1061" rx="87.69" ry="18"/>
<text text-anchor="middle" x="1354.27" y="-1055" font-family="Times New Roman,serif" font-size="15.00">Phased application</text>
</g>
<!-- 2082704286464&#45;&#45;2082704286896 -->
<g id="edge21" class="edge">
<title>2082704286464&#45;&#45;2082704286896</title>
<path fill="none" stroke="black" d="M927.7,-1010.1C994.49,-1018.09 1174.59,-1039.63 1277.83,-1051.98"/>
</g>
<!-- 2082704293184 -->
<g id="node27" class="node">
<title>2082704293184</title>
<ellipse fill="none" stroke="black" cx="1354.27" cy="-1007" rx="144.5" ry="18"/>
<text text-anchor="middle" x="1354.27" y="-1001" font-family="Times New Roman,serif" font-size="15.00">Generate procedure confirmation</text>
</g>
<!-- 2082704286464&#45;&#45;2082704293184 -->
<g id="edge22" class="edge">
<title>2082704286464&#45;&#45;2082704293184</title>
<path fill="none" stroke="black" d="M928.03,-1007C981.85,-1007 1108.23,-1007 1209.31,-1007"/>
</g>
<!-- 2082704288432 -->
<g id="node28" class="node">
<title>2082704288432</title>
<ellipse fill="none" stroke="black" cx="1354.27" cy="-953" rx="43.16" ry="18"/>
<text text-anchor="middle" x="1354.27" y="-947" font-family="Times New Roman,serif" font-size="15.00">Release</text>
</g>
<!-- 2082704286464&#45;&#45;2082704288432 -->
<g id="edge23" class="edge">
<title>2082704286464&#45;&#45;2082704288432</title>
<path fill="none" stroke="black" d="M927.7,-1003.9C1002.74,-994.93 1220.78,-968.85 1312.19,-957.91"/>
</g>
<!-- 2082704289728 -->
<g id="node29" class="node">
<title>2082704289728</title>
<ellipse fill="none" stroke="black" cx="1354.27" cy="-899" rx="136.31" ry="18"/>
<text text-anchor="middle" x="1354.27" y="-893" font-family="Times New Roman,serif" font-size="15.00">Check field phased application</text>
</g>
<!-- 2082704286464&#45;&#45;2082704289728 -->
<g id="edge24" class="edge">
<title>2082704286464&#45;&#45;2082704289728</title>
<path fill="none" stroke="black" d="M926.72,-1001.04C994.56,-984.81 1184.3,-939.42 1286.33,-915.01"/>
</g>
<!-- 2082704291360 -->
<g id="node30" class="node">
<title>2082704291360</title>
<ellipse fill="none" stroke="black" cx="1354.27" cy="-845" rx="108.16" ry="18"/>
<text text-anchor="middle" x="1354.27" y="-839" font-family="Times New Roman,serif" font-size="15.00">Begin WABOprocedure</text>
</g>
<!-- 2082704286464&#45;&#45;2082704291360 -->
<g id="edge25" class="edge">
<title>2082704286464&#45;&#45;2082704291360</title>
<path fill="none" stroke="black" d="M925.12,-998.63C996.36,-973.07 1212,-895.69 1307.22,-861.52"/>
</g>
<!-- 2082704277632 -->
<g id="node32" class="node">
<title>2082704277632</title>
<ellipse fill="none" stroke="black" cx="900.8" cy="-943" rx="45.21" ry="18"/>
<text text-anchor="middle" x="900.8" y="-937" font-family="Times New Roman,serif" font-size="15.00">xor loop</text>
</g>
<!-- 2082704287712&#45;&#45;2082704277632 -->
<g id="edge30" class="edge">
<title>2082704287712&#45;&#45;2082704277632</title>
<path fill="none" stroke="black" d="M504.41,-962.69C574.83,-959.18 767.83,-949.57 855.47,-945.21"/>
</g>
<!-- 2082704280080 -->
<g id="node35" class="node">
<title>2082704280080</title>
<ellipse fill="none" stroke="black" cx="900.8" cy="-889" rx="27" ry="18"/>
<text text-anchor="middle" x="900.8" y="-883" font-family="Times New Roman,serif" font-size="15.00">seq</text>
</g>
<!-- 2082704287712&#45;&#45;2082704280080 -->
<g id="edge35" class="edge">
<title>2082704287712&#45;&#45;2082704280080</title>
<path fill="none" stroke="black" d="M503.46,-959.48C578.62,-946.11 799.13,-906.9 874.33,-893.53"/>
</g>
<!-- 2082704293376 -->
<g id="node33" class="node">
<title>2082704293376</title>
<ellipse fill="none" stroke="black" cx="1354.27" cy="-791" rx="131.19" ry="18"/>
<text text-anchor="middle" x="1354.27" y="-785" font-family="Times New Roman,serif" font-size="15.00">Dispatch confirmation receipt</text>
</g>
<!-- 2082704277632&#45;&#45;2082704293376 -->
<g id="edge28" class="edge">
<title>2082704277632&#45;&#45;2082704293376</title>
<path fill="none" stroke="black" d="M936.11,-931.45C1015.12,-904.85 1210.27,-839.15 1302.9,-807.96"/>
</g>
<!-- 2082704285024 -->
<g id="node34" class="node">
<title>2082704285024</title>
<ellipse fill="black" stroke="black" cx="1354.27" cy="-752" rx="2.7" ry="2.7"/>
</g>
<!-- 2082704277632&#45;&#45;2082704285024 -->
<g id="edge29" class="edge">
<title>2082704277632&#45;&#45;2082704285024</title>
<path fill="none" stroke="black" d="M932.83,-929.87C1030.05,-888.74 1323.89,-764.43 1351.22,-752.86"/>
</g>
<!-- 2082704277584 -->
<g id="node36" class="node">
<title>2082704277584</title>
<ellipse fill="none" stroke="black" cx="1354.27" cy="-713" rx="27" ry="18"/>
<text text-anchor="middle" x="1354.27" y="-707" font-family="Times New Roman,serif" font-size="15.00">and</text>
</g>
<!-- 2082704280080&#45;&#45;2082704277584 -->
<g id="edge33" class="edge">
<title>2082704280080&#45;&#45;2082704277584</title>
<path fill="none" stroke="black" d="M924.81,-880.03C1002.26,-849.84 1252.93,-752.12 1330.3,-721.95"/>
</g>
<!-- 2082704283392 -->
<g id="node39" class="node">
<title>2082704283392</title>
<ellipse fill="none" stroke="black" cx="1354.27" cy="-659" rx="136.82" ry="18"/>
<text text-anchor="middle" x="1354.27" y="-653" font-family="Times New Roman,serif" font-size="15.00">Send to the competent authority</text>
</g>
<!-- 2082704280080&#45;&#45;2082704283392 -->
<g id="edge34" class="edge">
<title>2082704280080&#45;&#45;2082704283392</title>
<path fill="none" stroke="black" d="M922.97,-878.22C994.71,-841.67 1229.08,-722.27 1318.33,-676.8"/>
</g>
<!-- 2082704285072 -->
<g id="node37" class="node">
<title>2082704285072</title>
<ellipse fill="none" stroke="black" cx="1743.76" cy="-740" rx="118.91" ry="18"/>
<text text-anchor="middle" x="1743.76" y="-734" font-family="Times New Roman,serif" font-size="15.00">Stage application received</text>
</g>
<!-- 2082704277584&#45;&#45;2082704285072 -->
<g id="edge31" class="edge">
<title>2082704277584&#45;&#45;2082704285072</title>
<path fill="none" stroke="black" d="M1381.6,-714.83C1432.78,-718.4 1548.29,-726.45 1634.99,-732.49"/>
</g>
<!-- 2082704292128 -->
<g id="node38" class="node">
<title>2082704292128</title>
<ellipse fill="none" stroke="black" cx="1743.76" cy="-686" rx="153.2" ry="18"/>
<text text-anchor="middle" x="1743.76" y="-680" font-family="Times New Roman,serif" font-size="15.00">Record senddate acknowledgement</text>
</g>
<!-- 2082704277584&#45;&#45;2082704292128 -->
<g id="edge32" class="edge">
<title>2082704277584&#45;&#45;2082704292128</title>
<path fill="none" stroke="black" d="M1381.6,-711.17C1428.1,-707.93 1527.69,-700.99 1610.54,-695.21"/>
</g>
<!-- 2082704281424 -->
<g id="node42" class="node">
<title>2082704281424</title>
<ellipse fill="black" stroke="black" cx="900.8" cy="-850" rx="2.7" ry="2.7"/>
</g>
<!-- 2082704289056&#45;&#45;2082704281424 -->
<g id="edge38" class="edge">
<title>2082704289056&#45;&#45;2082704281424</title>
<path fill="none" stroke="black" d="M504.41,-855.62C592.42,-854.37 871.85,-850.4 897.86,-850.03"/>
</g>
<!-- 2082704288384 -->
<g id="node43" class="node">
<title>2082704288384</title>
<ellipse fill="none" stroke="black" cx="900.8" cy="-811" rx="175.72" ry="18"/>
<text text-anchor="middle" x="900.8" y="-805" font-family="Times New Roman,serif" font-size="15.00">Record senddate procedure confirmation</text>
</g>
<!-- 2082704289056&#45;&#45;2082704288384 -->
<g id="edge39" class="edge">
<title>2082704289056&#45;&#45;2082704288384</title>
<path fill="none" stroke="black" d="M504.09,-853.22C557.34,-847.54 681.62,-834.28 776.81,-824.12"/>
</g>
<!-- 2082704281184 -->
<g id="node46" class="node">
<title>2082704281184</title>
<ellipse fill="black" stroke="black" cx="900.8" cy="-767" rx="2.7" ry="2.7"/>
</g>
<!-- 2082704287040&#45;&#45;2082704281184 -->
<g id="edge42" class="edge">
<title>2082704287040&#45;&#45;2082704281184</title>
<path fill="none" stroke="black" d="M504.41,-749.19C592.42,-753.15 871.85,-765.74 897.86,-766.91"/>
</g>
<!-- 2082704279264 -->
<g id="node47" class="node">
<title>2082704279264</title>
<ellipse fill="none" stroke="black" cx="900.8" cy="-728" rx="80.52" ry="18"/>
<text text-anchor="middle" x="900.8" y="-722" font-family="Times New Roman,serif" font-size="15.00">Suspend duration</text>
</g>
<!-- 2082704287040&#45;&#45;2082704279264 -->
<g id="edge43" class="edge">
<title>2082704287040&#45;&#45;2082704279264</title>
<path fill="none" stroke="black" d="M504.41,-746.75C566.81,-743.79 725.44,-736.27 821.74,-731.7"/>
</g>
<!-- 2082704284400 -->
<g id="node51" class="node">
<title>2082704284400</title>
<ellipse fill="none" stroke="black" cx="900.8" cy="-664" rx="158.32" ry="18"/>
<text text-anchor="middle" x="900.8" y="-658" font-family="Times New Roman,serif" font-size="15.00">Record senddate termination request</text>
</g>
<!-- 2082704293616&#45;&#45;2082704284400 -->
<g id="edge47" class="edge">
<title>2082704293616&#45;&#45;2082704284400</title>
<path fill="none" stroke="black" d="M503.46,-590.7C563.92,-601.89 718.47,-630.47 815.74,-648.45"/>
</g>
<!-- 2082704286704 -->
<g id="node52" class="node">
<title>2082704286704</title>
<ellipse fill="none" stroke="black" cx="900.8" cy="-610" rx="119.93" ry="18"/>
<text text-anchor="middle" x="900.8" y="-604" font-family="Times New Roman,serif" font-size="15.00">Terminate request message</text>
</g>
<!-- 2082704293616&#45;&#45;2082704286704 -->
<g id="edge48" class="edge">
<title>2082704293616&#45;&#45;2082704286704</title>
<path fill="none" stroke="black" d="M504.41,-587.5C559.95,-590.66 691.76,-598.16 787.97,-603.64"/>
</g>
<!-- 2082704280896 -->
<g id="node54" class="node">
<title>2082704280896</title>
<ellipse fill="black" stroke="black" cx="900.8" cy="-571" rx="2.7" ry="2.7"/>
</g>
<!-- 2082704278544&#45;&#45;2082704280896 -->
<g id="edge50" class="edge">
<title>2082704278544&#45;&#45;2082704280896</title>
<path fill="none" stroke="black" d="M504.09,-534.41C591.74,-542.51 871.79,-568.41 897.85,-570.82"/>
</g>
<!-- 2082704287088 -->
<g id="node55" class="node">
<title>2082704287088</title>
<ellipse fill="none" stroke="black" cx="900.8" cy="-532" rx="63.63" ry="18"/>
<text text-anchor="middle" x="900.8" y="-526" font-family="Times New Roman,serif" font-size="15.00">Log deadline</text>
</g>
<!-- 2082704278544&#45;&#45;2082704287088 -->
<g id="edge51" class="edge">
<title>2082704278544&#45;&#45;2082704287088</title>
<path fill="none" stroke="black" d="M504.41,-532C570.23,-532 743.15,-532 837.02,-532"/>
</g>
<!-- 2082704277968 -->
<g id="node57" class="node">
<title>2082704277968</title>
<ellipse fill="black" stroke="black" cx="900.8" cy="-493" rx="2.7" ry="2.7"/>
</g>
<!-- 2082704291024&#45;&#45;2082704277968 -->
<g id="edge53" class="edge">
<title>2082704291024&#45;&#45;2082704277968</title>
<path fill="none" stroke="black" d="M504.41,-478.94C592.42,-482.07 871.85,-492.01 897.86,-492.93"/>
</g>
<!-- 2082704285408 -->
<g id="node58" class="node">
<title>2082704285408</title>
<ellipse fill="none" stroke="black" cx="900.8" cy="-454" rx="133.75" ry="18"/>
<text text-anchor="middle" x="900.8" y="-448" font-family="Times New Roman,serif" font-size="15.00">send transcript to stakeholders</text>
</g>
<!-- 2082704291024&#45;&#45;2082704285408 -->
<g id="edge54" class="edge">
<title>2082704291024&#45;&#45;2082704285408</title>
<path fill="none" stroke="black" d="M504.41,-476.5C557.88,-473.46 682.02,-466.39 777.05,-460.98"/>
</g>
<!-- 2082704283776 -->
<g id="node59" class="node">
<title>2082704283776</title>
<ellipse fill="none" stroke="black" cx="900.8" cy="-400" rx="205.41" ry="18"/>
<text text-anchor="middle" x="900.8" y="-394" font-family="Times New Roman,serif" font-size="15.00">draft letter for no permit or notification required</text>
</g>
<!-- 2082704291024&#45;&#45;2082704283776 -->
<g id="edge55" class="edge">
<title>2082704291024&#45;&#45;2082704283776</title>
<path fill="none" stroke="black" d="M503.46,-473.3C562.77,-462.33 712.58,-434.62 810.09,-416.59"/>
</g>
<!-- 2082704284544 -->
<g id="node62" class="node">
<title>2082704284544</title>
<ellipse fill="black" stroke="black" cx="900.8" cy="-361" rx="2.7" ry="2.7"/>
</g>
<!-- 2082704279648&#45;&#45;2082704284544 -->
<g id="edge58" class="edge">
<title>2082704279648&#45;&#45;2082704284544</title>
<path fill="none" stroke="black" d="M504.41,-365.69C592.42,-364.64 871.85,-361.33 897.86,-361.02"/>
</g>
<!-- 2082704281616 -->
<g id="node63" class="node">
<title>2082704281616</title>
<ellipse fill="none" stroke="black" cx="900.8" cy="-322" rx="69.26" ry="18"/>
<text text-anchor="middle" x="900.8" y="-316" font-family="Times New Roman,serif" font-size="15.00">Close the case</text>
</g>
<!-- 2082704279648&#45;&#45;2082704281616 -->
<g id="edge59" class="edge">
<title>2082704279648&#45;&#45;2082704281616</title>
<path fill="none" stroke="black" d="M504.09,-363.28C569.46,-356.46 741.89,-338.47 836.11,-328.64"/>
</g>
<!-- 2082704288048 -->
<g id="node65" class="node">
<title>2082704288048</title>
<ellipse fill="black" stroke="black" cx="225.21" cy="-319" rx="2.7" ry="2.7"/>
</g>
<!-- 2082704281136&#45;&#45;2082704288048 -->
<g id="edge63" class="edge">
<title>2082704281136&#45;&#45;2082704288048</title>
<path fill="none" stroke="black" d="M141.31,-288.56C169.15,-298.78 213.16,-314.94 222.45,-318.35"/>
</g>
<!-- 2082704291600 -->
<g id="node66" class="node">
<title>2082704291600</title>
<ellipse fill="none" stroke="black" cx="225.21" cy="-280" rx="45.21" ry="18"/>
<text text-anchor="middle" x="225.21" y="-274" font-family="Times New Roman,serif" font-size="15.00">xor loop</text>
</g>
<!-- 2082704281136&#45;&#45;2082704291600 -->
<g id="edge66" class="edge">
<title>2082704281136&#45;&#45;2082704291600</title>
<path fill="none" stroke="black" d="M144.25,-280C154.94,-280 167.6,-280 179.66,-280"/>
</g>
<!-- 2082704282048 -->
<g id="node69" class="node">
<title>2082704282048</title>
<ellipse fill="none" stroke="black" cx="225.21" cy="-226" rx="27" ry="18"/>
<text text-anchor="middle" x="225.21" y="-220" font-family="Times New Roman,serif" font-size="15.00">seq</text>
</g>
<!-- 2082704281136&#45;&#45;2082704282048 -->
<g id="edge71" class="edge">
<title>2082704281136&#45;&#45;2082704282048</title>
<path fill="none" stroke="black" d="M139.24,-269.2C157.76,-259.78 184.5,-246.19 203.01,-236.78"/>
</g>
<!-- 2082704290352 -->
<g id="node74" class="node">
<title>2082704290352</title>
<ellipse fill="none" stroke="black" cx="225.21" cy="-99" rx="27" ry="18"/>
<text text-anchor="middle" x="225.21" y="-93" font-family="Times New Roman,serif" font-size="15.00">seq</text>
</g>
<!-- 2082704281136&#45;&#45;2082704290352 -->
<g id="edge75" class="edge">
<title>2082704281136&#45;&#45;2082704290352</title>
<path fill="none" stroke="black" d="M127.8,-263.3C147.98,-228.9 193.98,-150.51 214.28,-115.93"/>
</g>
<!-- 2082704281376 -->
<g id="node67" class="node">
<title>2082704281376</title>
<ellipse fill="none" stroke="black" cx="477.02" cy="-312" rx="170.6" ry="18"/>
<text text-anchor="middle" x="477.02" y="-306" font-family="Times New Roman,serif" font-size="15.00">Log date of publishing received request</text>
</g>
<!-- 2082704291600&#45;&#45;2082704281376 -->
<g id="edge64" class="edge">
<title>2082704291600&#45;&#45;2082704281376</title>
<path fill="none" stroke="black" d="M268.87,-285.46C295.77,-288.91 331.82,-293.53 366.31,-297.95"/>
</g>
<!-- 2082704282096 -->
<g id="node68" class="node">
<title>2082704282096</title>
<ellipse fill="black" stroke="black" cx="477.02" cy="-273" rx="2.7" ry="2.7"/>
</g>
<!-- 2082704291600&#45;&#45;2082704282096 -->
<g id="edge65" class="edge">
<title>2082704291600&#45;&#45;2082704282096</title>
<path fill="none" stroke="black" d="M270.58,-278.76C337.32,-276.89 457.53,-273.52 474.11,-273.05"/>
</g>
<!-- 2082704289488 -->
<g id="node70" class="node">
<title>2082704289488</title>
<ellipse fill="none" stroke="black" cx="477.02" cy="-234" rx="27" ry="18"/>
<text text-anchor="middle" x="477.02" y="-228" font-family="Times New Roman,serif" font-size="15.00">xor</text>
</g>
<!-- 2082704282048&#45;&#45;2082704289488 -->
<g id="edge69" class="edge">
<title>2082704282048&#45;&#45;2082704289488</title>
<path fill="none" stroke="black" d="M252.47,-226.84C300.45,-228.38 401.74,-231.62 449.74,-233.16"/>
</g>
<!-- 2082704291264 -->
<g id="node73" class="node">
<title>2082704291264</title>
<ellipse fill="none" stroke="black" cx="477.02" cy="-180" rx="93.83" ry="18"/>
<text text-anchor="middle" x="477.02" y="-174" font-family="Times New Roman,serif" font-size="15.00">Log date publication</text>
</g>
<!-- 2082704282048&#45;&#45;2082704291264 -->
<g id="edge70" class="edge">
<title>2082704282048&#45;&#45;2082704291264</title>
<path fill="none" stroke="black" d="M251.54,-221.34C287.88,-214.64 356.15,-202.07 407.89,-192.55"/>
</g>
<!-- 2082704279072 -->
<g id="node71" class="node">
<title>2082704279072</title>
<ellipse fill="black" stroke="black" cx="900.8" cy="-253" rx="2.7" ry="2.7"/>
</g>
<!-- 2082704289488&#45;&#45;2082704279072 -->
<g id="edge67" class="edge">
<title>2082704289488&#45;&#45;2082704279072</title>
<path fill="none" stroke="black" d="M504.41,-235.19C592.42,-239.15 871.85,-251.74 897.86,-252.91"/>
</g>
<!-- 2082704291312 -->
<g id="node72" class="node">
<title>2082704291312</title>
<ellipse fill="none" stroke="black" cx="900.8" cy="-214" rx="117.89" ry="18"/>
<text text-anchor="middle" x="900.8" y="-208" font-family="Times New Roman,serif" font-size="15.00">Extend procedure duration</text>
</g>
<!-- 2082704289488&#45;&#45;2082704291312 -->
<g id="edge68" class="edge">
<title>2082704289488&#45;&#45;2082704291312</title>
<path fill="none" stroke="black" d="M504.41,-232.75C559.86,-230.12 691.33,-223.89 787.5,-219.33"/>
</g>
<!-- 2082704286080 -->
<g id="node75" class="node">
<title>2082704286080</title>
<ellipse fill="none" stroke="black" cx="477.02" cy="-126" rx="81.55" ry="18"/>
<text text-anchor="middle" x="477.02" y="-120" font-family="Times New Roman,serif" font-size="15.00">Complete request</text>
</g>
<!-- 2082704290352&#45;&#45;2082704286080 -->
<g id="edge72" class="edge">
<title>2082704290352&#45;&#45;2082704286080</title>
<path fill="none" stroke="black" d="M252,-101.79C287.34,-105.61 352.23,-112.62 403.11,-118.12"/>
</g>
<!-- 2082704293040 -->
<g id="node76" class="node">
<title>2082704293040</title>
<ellipse fill="none" stroke="black" cx="477.02" cy="-72" rx="117.89" ry="18"/>
<text text-anchor="middle" x="477.02" y="-66" font-family="Times New Roman,serif" font-size="15.00">Dispatch letter in progress</text>
</g>
<!-- 2082704290352&#45;&#45;2082704293040 -->
<g id="edge73" class="edge">
<title>2082704290352&#45;&#45;2082704293040</title>
<path fill="none" stroke="black" d="M252,-96.21C282.05,-92.97 333.44,-87.41 379.43,-82.44"/>
</g>
<!-- 2082704285696 -->
<g id="node77" class="node">
<title>2082704285696</title>
<ellipse fill="none" stroke="black" cx="477.02" cy="-18" rx="121.47" ry="18"/>
<text text-anchor="middle" x="477.02" y="-12" font-family="Times New Roman,serif" font-size="15.00">Stage application receptive</text>
</g>
<!-- 2082704290352&#45;&#45;2082704285696 -->
<g id="edge74" class="edge">
<title>2082704290352&#45;&#45;2082704285696</title>
<path fill="none" stroke="black" d="M250.16,-91.23C290.22,-78.25 371.65,-51.84 425,-34.54"/>
</g>
</g>
</svg>
