<?xml version="1.0" encoding="UTF-8" standalone="no"?>
<!DOCTYPE svg PUBLIC "-//W3C//DTD SVG 1.1//EN"
 "http://www.w3.org/Graphics/SVG/1.1/DTD/svg11.dtd">
<!-- Generated by graphviz version 11.0.0 (20240428.1522)
 -->
<!-- Title: pt Pages: 1 -->
<svg width="2747pt" height="628pt"
 viewBox="0.00 0.00 2747.48 628.00" xmlns="http://www.w3.org/2000/svg" xmlns:xlink="http://www.w3.org/1999/xlink">
<g id="graph0" class="graph" transform="scale(1 1) rotate(0) translate(4 624)">
<title>pt</title>
<polygon fill="white" stroke="none" points="-4,4 -4,-624 2743.48,-624 2743.48,4 -4,4"/>
<!-- 2082700349648 -->
<g id="node1" class="node">
<title>2082700349648</title>
<ellipse fill="none" stroke="black" cx="27" cy="-456" rx="27" ry="18"/>
<text text-anchor="middle" x="27" y="-450" font-family="Times New Roman,serif" font-size="15.00">seq</text>
</g>
<!-- 2082700248224 -->
<g id="node2" class="node">
<title>2082700248224</title>
<ellipse fill="none" stroke="black" cx="215.05" cy="-537" rx="125.05" ry="18"/>
<text text-anchor="middle" x="215.05" y="-531" font-family="Times New Roman,serif" font-size="15.00">Log submission date request</text>
</g>
<!-- 2082700349648&#45;&#45;2082700248224 -->
<g id="edge1" class="edge">
<title>2082700349648&#45;&#45;2082700248224</title>
<path fill="none" stroke="black" d="M50.07,-465.61C80.59,-478.89 136.17,-503.1 174.09,-519.6"/>
</g>
<!-- 2082700261856 -->
<g id="node3" class="node">
<title>2082700261856</title>
<ellipse fill="none" stroke="black" cx="215.05" cy="-483" rx="27" ry="18"/>
<text text-anchor="middle" x="215.05" y="-477" font-family="Times New Roman,serif" font-size="15.00">xor</text>
</g>
<!-- 2082700349648&#45;&#45;2082700261856 -->
<g id="edge6" class="edge">
<title>2082700349648&#45;&#45;2082700261856</title>
<path fill="none" stroke="black" d="M53.87,-459.75C89.42,-464.91 152.97,-474.14 188.4,-479.28"/>
</g>
<!-- 2082700255664 -->
<g id="node8" class="node">
<title>2082700255664</title>
<ellipse fill="none" stroke="black" cx="215.05" cy="-429" rx="27" ry="18"/>
<text text-anchor="middle" x="215.05" y="-423" font-family="Times New Roman,serif" font-size="15.00">and</text>
</g>
<!-- 2082700349648&#45;&#45;2082700255664 -->
<g id="edge40" class="edge">
<title>2082700349648&#45;&#45;2082700255664</title>
<path fill="none" stroke="black" d="M53.87,-452.25C89.42,-447.09 152.97,-437.86 188.4,-432.72"/>
</g>
<!-- 2082700249664 -->
<g id="node42" class="node">
<title>2082700249664</title>
<ellipse fill="none" stroke="black" cx="215.05" cy="-297" rx="27" ry="18"/>
<text text-anchor="middle" x="215.05" y="-291" font-family="Times New Roman,serif" font-size="15.00">xor</text>
</g>
<!-- 2082700349648&#45;&#45;2082700249664 -->
<g id="edge56" class="edge">
<title>2082700349648&#45;&#45;2082700249664</title>
<path fill="none" stroke="black" d="M44.51,-441.89C79.82,-411.72 162.3,-341.22 197.58,-311.08"/>
</g>
<!-- 2082700262816 -->
<g id="node4" class="node">
<title>2082700262816</title>
<ellipse fill="none" stroke="black" cx="497.57" cy="-537" rx="27" ry="18"/>
<text text-anchor="middle" x="497.57" y="-531" font-family="Times New Roman,serif" font-size="15.00">seq</text>
</g>
<!-- 2082700261856&#45;&#45;2082700262816 -->
<g id="edge4" class="edge">
<title>2082700261856&#45;&#45;2082700262816</title>
<path fill="none" stroke="black" d="M241.44,-487.89C294.85,-498.17 418.26,-521.93 471.44,-532.16"/>
</g>
<!-- 2082700259408 -->
<g id="node7" class="node">
<title>2082700259408</title>
<ellipse fill="none" stroke="black" cx="497.57" cy="-483" rx="121.47" ry="18"/>
<text text-anchor="middle" x="497.57" y="-477" font-family="Times New Roman,serif" font-size="15.00">OLO communication active</text>
</g>
<!-- 2082700261856&#45;&#45;2082700259408 -->
<g id="edge5" class="edge">
<title>2082700261856&#45;&#45;2082700259408</title>
<path fill="none" stroke="black" d="M242.44,-483C273.2,-483 326.16,-483 375.8,-483"/>
</g>
<!-- 2082700262144 -->
<g id="node5" class="node">
<title>2082700262144</title>
<ellipse fill="none" stroke="black" cx="818.48" cy="-564" rx="163.44" ry="18"/>
<text text-anchor="middle" x="818.48" y="-558" font-family="Times New Roman,serif" font-size="15.00">Log date termination request received</text>
</g>
<!-- 2082700262816&#45;&#45;2082700262144 -->
<g id="edge2" class="edge">
<title>2082700262816&#45;&#45;2082700262144</title>
<path fill="none" stroke="black" d="M524.67,-539.21C560.3,-542.23 626.66,-547.84 687.22,-552.97"/>
</g>
<!-- 2082700256384 -->
<g id="node6" class="node">
<title>2082700256384</title>
<ellipse fill="none" stroke="black" cx="818.48" cy="-510" rx="158.32" ry="18"/>
<text text-anchor="middle" x="818.48" y="-504" font-family="Times New Roman,serif" font-size="15.00">Record senddate termination request</text>
</g>
<!-- 2082700262816&#45;&#45;2082700256384 -->
<g id="edge3" class="edge">
<title>2082700262816&#45;&#45;2082700256384</title>
<path fill="none" stroke="black" d="M524.67,-534.79C560.82,-531.73 628.61,-525.99 689.87,-520.8"/>
</g>
<!-- 2082700253744 -->
<g id="node9" class="node">
<title>2082700253744</title>
<ellipse fill="none" stroke="black" cx="497.57" cy="-429" rx="118.91" ry="18"/>
<text text-anchor="middle" x="497.57" y="-423" font-family="Times New Roman,serif" font-size="15.00">Stage application received</text>
</g>
<!-- 2082700255664&#45;&#45;2082700253744 -->
<g id="edge7" class="edge">
<title>2082700255664&#45;&#45;2082700253744</title>
<path fill="none" stroke="black" d="M242.44,-429C273.74,-429 328.04,-429 378.44,-429"/>
</g>
<!-- 2082700263248 -->
<g id="node10" class="node">
<title>2082700263248</title>
<ellipse fill="none" stroke="black" cx="497.57" cy="-375" rx="45.21" ry="18"/>
<text text-anchor="middle" x="497.57" y="-369" font-family="Times New Roman,serif" font-size="15.00">xor loop</text>
</g>
<!-- 2082700255664&#45;&#45;2082700263248 -->
<g id="edge39" class="edge">
<title>2082700255664&#45;&#45;2082700263248</title>
<path fill="none" stroke="black" d="M241.44,-424.11C290.26,-414.71 397.59,-394.05 456.28,-382.76"/>
</g>
<!-- 2082700255568 -->
<g id="node11" class="node">
<title>2082700255568</title>
<ellipse fill="none" stroke="black" cx="818.48" cy="-413" rx="27" ry="18"/>
<text text-anchor="middle" x="818.48" y="-407" font-family="Times New Roman,serif" font-size="15.00">seq</text>
</g>
<!-- 2082700263248&#45;&#45;2082700255568 -->
<g id="edge37" class="edge">
<title>2082700263248&#45;&#45;2082700255568</title>
<path fill="none" stroke="black" d="M541.25,-380.09C608.46,-388.09 736.95,-403.4 791.72,-409.93"/>
</g>
<!-- 2082700255328 -->
<g id="node41" class="node">
<title>2082700255328</title>
<ellipse fill="black" stroke="black" cx="818.48" cy="-374" rx="2.7" ry="2.7"/>
</g>
<!-- 2082700263248&#45;&#45;2082700255328 -->
<g id="edge38" class="edge">
<title>2082700263248&#45;&#45;2082700255328</title>
<path fill="none" stroke="black" d="M543.25,-374.86C625.53,-374.6 794.56,-374.07 815.36,-374.01"/>
</g>
<!-- 2082705290304 -->
<g id="node12" class="node">
<title>2082705290304</title>
<ellipse fill="none" stroke="black" cx="1193.64" cy="-575" rx="27" ry="18"/>
<text text-anchor="middle" x="1193.64" y="-569" font-family="Times New Roman,serif" font-size="15.00">xor</text>
</g>
<!-- 2082700255568&#45;&#45;2082705290304 -->
<g id="edge14" class="edge">
<title>2082700255568&#45;&#45;2082705290304</title>
<path fill="none" stroke="black" d="M841.7,-422.65C908.07,-451.46 1104.31,-536.65 1170.53,-565.4"/>
</g>
<!-- 2082705281232 -->
<g id="node19" class="node">
<title>2082705281232</title>
<ellipse fill="none" stroke="black" cx="1193.64" cy="-521" rx="45.21" ry="18"/>
<text text-anchor="middle" x="1193.64" y="-515" font-family="Times New Roman,serif" font-size="15.00">xor loop</text>
</g>
<!-- 2082700255568&#45;&#45;2082705281232 -->
<g id="edge17" class="edge">
<title>2082700255568&#45;&#45;2082705281232</title>
<path fill="none" stroke="black" d="M843.68,-420C907.47,-438.47 1080.53,-488.55 1156.29,-510.48"/>
</g>
<!-- 2082705280416 -->
<g id="node22" class="node">
<title>2082705280416</title>
<ellipse fill="none" stroke="black" cx="1193.64" cy="-467" rx="153.2" ry="18"/>
<text text-anchor="middle" x="1193.64" y="-461" font-family="Times New Roman,serif" font-size="15.00">Record senddate acknowledgement</text>
</g>
<!-- 2082700255568&#45;&#45;2082705280416 -->
<g id="edge18" class="edge">
<title>2082700255568&#45;&#45;2082705280416</title>
<path fill="none" stroke="black" d="M845.13,-416.71C895.76,-424.04 1010.92,-440.7 1094.84,-452.85"/>
</g>
<!-- 2082705288912 -->
<g id="node23" class="node">
<title>2082705288912</title>
<ellipse fill="none" stroke="black" cx="1193.64" cy="-413" rx="136.82" ry="18"/>
<text text-anchor="middle" x="1193.64" y="-407" font-family="Times New Roman,serif" font-size="15.00">Send to the competent authority</text>
</g>
<!-- 2082700255568&#45;&#45;2082705288912 -->
<g id="edge19" class="edge">
<title>2082700255568&#45;&#45;2082705288912</title>
<path fill="none" stroke="black" d="M845.72,-413C889.18,-413 979.01,-413 1056.36,-413"/>
</g>
<!-- 2082705283056 -->
<g id="node24" class="node">
<title>2082705283056</title>
<ellipse fill="none" stroke="black" cx="1193.64" cy="-359" rx="27" ry="18"/>
<text text-anchor="middle" x="1193.64" y="-353" font-family="Times New Roman,serif" font-size="15.00">xor</text>
</g>
<!-- 2082700255568&#45;&#45;2082705283056 -->
<g id="edge22" class="edge">
<title>2082700255568&#45;&#45;2082705283056</title>
<path fill="none" stroke="black" d="M845.13,-409.29C913.3,-399.42 1098.43,-372.63 1166.81,-362.74"/>
</g>
<!-- 2082705289728 -->
<g id="node27" class="node">
<title>2082705289728</title>
<ellipse fill="none" stroke="black" cx="1193.64" cy="-305" rx="27" ry="18"/>
<text text-anchor="middle" x="1193.64" y="-299" font-family="Times New Roman,serif" font-size="15.00">xor</text>
</g>
<!-- 2082700255568&#45;&#45;2082705289728 -->
<g id="edge33" class="edge">
<title>2082700255568&#45;&#45;2082705289728</title>
<path fill="none" stroke="black" d="M843.68,-406C911.18,-386.46 1101.05,-331.51 1168.5,-311.99"/>
</g>
<!-- 2082705291312 -->
<g id="node38" class="node">
<title>2082705291312</title>
<ellipse fill="none" stroke="black" cx="1193.64" cy="-242" rx="27" ry="18"/>
<text text-anchor="middle" x="1193.64" y="-236" font-family="Times New Roman,serif" font-size="15.00">xor</text>
</g>
<!-- 2082700255568&#45;&#45;2082705291312 -->
<g id="edge36" class="edge">
<title>2082700255568&#45;&#45;2082705291312</title>
<path fill="none" stroke="black" d="M841.43,-402.94C907.67,-372.59 1105.05,-282.13 1170.95,-251.94"/>
</g>
<!-- 2082705292176 -->
<g id="node13" class="node">
<title>2082705292176</title>
<ellipse fill="black" stroke="black" cx="1536.55" cy="-614" rx="2.7" ry="2.7"/>
</g>
<!-- 2082705290304&#45;&#45;2082705292176 -->
<g id="edge8" class="edge">
<title>2082705290304&#45;&#45;2082705292176</title>
<path fill="none" stroke="black" d="M1220.54,-577.96C1295.75,-586.57 1510.27,-611.11 1533.5,-613.77"/>
</g>
<!-- 2082705291984 -->
<g id="node14" class="node">
<title>2082705291984</title>
<ellipse fill="none" stroke="black" cx="1536.55" cy="-575" rx="27" ry="18"/>
<text text-anchor="middle" x="1536.55" y="-569" font-family="Times New Roman,serif" font-size="15.00">seq</text>
</g>
<!-- 2082705290304&#45;&#45;2082705291984 -->
<g id="edge13" class="edge">
<title>2082705290304&#45;&#45;2082705291984</title>
<path fill="none" stroke="black" d="M1221.1,-575C1284.78,-575 1445.92,-575 1509.34,-575"/>
</g>
<!-- 2082705286416 -->
<g id="node15" class="node">
<title>2082705286416</title>
<ellipse fill="none" stroke="black" cx="1850.8" cy="-602" rx="70.8" ry="18"/>
<text text-anchor="middle" x="1850.8" y="-596" font-family="Times New Roman,serif" font-size="15.00">End on request</text>
</g>
<!-- 2082705291984&#45;&#45;2082705286416 -->
<g id="edge9" class="edge">
<title>2082705291984&#45;&#45;2082705286416</title>
<path fill="none" stroke="black" d="M1563.64,-577.26C1611.49,-581.39 1714.69,-590.32 1783.18,-596.24"/>
</g>
<!-- 2082705291648 -->
<g id="node16" class="node">
<title>2082705291648</title>
<ellipse fill="none" stroke="black" cx="1850.8" cy="-548" rx="27" ry="18"/>
<text text-anchor="middle" x="1850.8" y="-542" font-family="Times New Roman,serif" font-size="15.00">xor</text>
</g>
<!-- 2082705291984&#45;&#45;2082705291648 -->
<g id="edge12" class="edge">
<title>2082705291984&#45;&#45;2082705291648</title>
<path fill="none" stroke="black" d="M1563.64,-572.74C1622.41,-567.66 1764.66,-555.36 1823.57,-550.27"/>
</g>
<!-- 2082705287952 -->
<g id="node17" class="node">
<title>2082705287952</title>
<ellipse fill="black" stroke="black" cx="2163.01" cy="-568" rx="2.7" ry="2.7"/>
</g>
<!-- 2082705291648&#45;&#45;2082705287952 -->
<g id="edge10" class="edge">
<title>2082705291648&#45;&#45;2082705287952</title>
<path fill="none" stroke="black" d="M1877.99,-549.69C1948.68,-554.25 2139.53,-566.55 2160.19,-567.88"/>
</g>
<!-- 2082705278592 -->
<g id="node18" class="node">
<title>2082705278592</title>
<ellipse fill="none" stroke="black" cx="2163.01" cy="-529" rx="129.15" ry="18"/>
<text text-anchor="middle" x="2163.01" y="-523" font-family="Times New Roman,serif" font-size="15.00">Compute provisional charges</text>
</g>
<!-- 2082705291648&#45;&#45;2082705278592 -->
<g id="edge11" class="edge">
<title>2082705291648&#45;&#45;2082705278592</title>
<path fill="none" stroke="black" d="M1877.99,-546.4C1914.58,-544.16 1983.35,-539.94 2044.06,-536.22"/>
</g>
<!-- 2082705288192 -->
<g id="node20" class="node">
<title>2082705288192</title>
<ellipse fill="none" stroke="black" cx="1536.55" cy="-521" rx="131.19" ry="18"/>
<text text-anchor="middle" x="1536.55" y="-515" font-family="Times New Roman,serif" font-size="15.00">Dispatch confirmation receipt</text>
</g>
<!-- 2082705281232&#45;&#45;2082705288192 -->
<g id="edge15" class="edge">
<title>2082705281232&#45;&#45;2082705288192</title>
<path fill="none" stroke="black" d="M1239.21,-521C1281.26,-521 1346.41,-521 1404.93,-521"/>
</g>
<!-- 2082705284592 -->
<g id="node21" class="node">
<title>2082705284592</title>
<ellipse fill="black" stroke="black" cx="1536.55" cy="-482" rx="2.7" ry="2.7"/>
</g>
<!-- 2082705281232&#45;&#45;2082705284592 -->
<g id="edge16" class="edge">
<title>2082705281232&#45;&#45;2082705284592</title>
<path fill="none" stroke="black" d="M1237.47,-516.1C1324.02,-506.2 1513.31,-484.54 1533.75,-482.21"/>
</g>
<!-- 2082705292992 -->
<g id="node25" class="node">
<title>2082705292992</title>
<ellipse fill="black" stroke="black" cx="1536.55" cy="-398" rx="2.7" ry="2.7"/>
</g>
<!-- 2082705283056&#45;&#45;2082705292992 -->
<g id="edge20" class="edge">
<title>2082705283056&#45;&#45;2082705292992</title>
<path fill="none" stroke="black" d="M1220.54,-361.96C1295.75,-370.57 1510.27,-395.11 1533.5,-397.77"/>
</g>
<!-- 2082705292800 -->
<g id="node26" class="node">
<title>2082705292800</title>
<ellipse fill="none" stroke="black" cx="1536.55" cy="-359" rx="116.35" ry="18"/>
<text text-anchor="middle" x="1536.55" y="-353" font-family="Times New Roman,serif" font-size="15.00">Notify BAG administrator</text>
</g>
<!-- 2082705283056&#45;&#45;2082705292800 -->
<g id="edge21" class="edge">
<title>2082705283056&#45;&#45;2082705292800</title>
<path fill="none" stroke="black" d="M1221.1,-359C1263.42,-359 1348.8,-359 1419.92,-359"/>
</g>
<!-- 2082705277968 -->
<g id="node28" class="node">
<title>2082705277968</title>
<ellipse fill="black" stroke="black" cx="1536.55" cy="-320" rx="2.7" ry="2.7"/>
</g>
<!-- 2082705289728&#45;&#45;2082705277968 -->
<g id="edge23" class="edge">
<title>2082705289728&#45;&#45;2082705277968</title>
<path fill="none" stroke="black" d="M1220.82,-306.15C1296.29,-309.47 1510.32,-318.89 1533.51,-319.91"/>
</g>
<!-- 2082705293280 -->
<g id="node29" class="node">
<title>2082705293280</title>
<ellipse fill="none" stroke="black" cx="1536.55" cy="-281" rx="27" ry="18"/>
<text text-anchor="middle" x="1536.55" y="-275" font-family="Times New Roman,serif" font-size="15.00">seq</text>
</g>
<!-- 2082705289728&#45;&#45;2082705293280 -->
<g id="edge32" class="edge">
<title>2082705289728&#45;&#45;2082705293280</title>
<path fill="none" stroke="black" d="M1220.82,-303.16C1284.28,-298.69 1445.73,-287.32 1509.28,-282.85"/>
</g>
<!-- 2082705282960 -->
<g id="node30" class="node">
<title>2082705282960</title>
<ellipse fill="none" stroke="black" cx="1850.8" cy="-308" rx="147.06" ry="18"/>
<text text-anchor="middle" x="1850.8" y="-302" font-family="Times New Roman,serif" font-size="15.00">Standard procedure without MER</text>
</g>
<!-- 2082705293280&#45;&#45;2082705282960 -->
<g id="edge24" class="edge">
<title>2082705293280&#45;&#45;2082705282960</title>
<path fill="none" stroke="black" d="M1563.64,-283.26C1600.06,-286.41 1668.54,-292.33 1729.38,-297.59"/>
</g>
<!-- 2082705290400 -->
<g id="node31" class="node">
<title>2082705290400</title>
<ellipse fill="none" stroke="black" cx="1850.8" cy="-254" rx="27" ry="18"/>
<text text-anchor="middle" x="1850.8" y="-248" font-family="Times New Roman,serif" font-size="15.00">and</text>
</g>
<!-- 2082705293280&#45;&#45;2082705290400 -->
<g id="edge31" class="edge">
<title>2082705293280&#45;&#45;2082705290400</title>
<path fill="none" stroke="black" d="M1563.64,-278.74C1622.41,-273.66 1764.66,-261.36 1823.57,-256.27"/>
</g>
<!-- 2082700359872 -->
<g id="node32" class="node">
<title>2082700359872</title>
<ellipse fill="none" stroke="black" cx="2163.01" cy="-281" rx="108.16" ry="18"/>
<text text-anchor="middle" x="2163.01" y="-275" font-family="Times New Roman,serif" font-size="15.00">Begin WABOprocedure</text>
</g>
<!-- 2082705290400&#45;&#45;2082700359872 -->
<g id="edge25" class="edge">
<title>2082705290400&#45;&#45;2082700359872</title>
<path fill="none" stroke="black" d="M1877.99,-256.28C1919.1,-259.86 2000.86,-266.97 2066.15,-272.66"/>
</g>
<!-- 2082700352144 -->
<g id="node33" class="node">
<title>2082700352144</title>
<ellipse fill="none" stroke="black" cx="2163.01" cy="-227" rx="27" ry="18"/>
<text text-anchor="middle" x="2163.01" y="-221" font-family="Times New Roman,serif" font-size="15.00">seq</text>
</g>
<!-- 2082705290400&#45;&#45;2082700352144 -->
<g id="edge30" class="edge">
<title>2082705290400&#45;&#45;2082700352144</title>
<path fill="none" stroke="black" d="M1877.99,-251.72C1936.56,-246.62 2077.61,-234.35 2136.01,-229.26"/>
</g>
<!-- 2082700354064 -->
<g id="node34" class="node">
<title>2082700354064</title>
<ellipse fill="none" stroke="black" cx="2472.66" cy="-254" rx="144.5" ry="18"/>
<text text-anchor="middle" x="2472.66" y="-248" font-family="Times New Roman,serif" font-size="15.00">Generate procedure confirmation</text>
</g>
<!-- 2082700352144&#45;&#45;2082700354064 -->
<g id="edge26" class="edge">
<title>2082700352144&#45;&#45;2082700354064</title>
<path fill="none" stroke="black" d="M2190.24,-229.3C2226.28,-232.46 2293.43,-238.36 2353.1,-243.59"/>
</g>
<!-- 2082700359392 -->
<g id="node35" class="node">
<title>2082700359392</title>
<ellipse fill="none" stroke="black" cx="2472.66" cy="-200" rx="27" ry="18"/>
<text text-anchor="middle" x="2472.66" y="-194" font-family="Times New Roman,serif" font-size="15.00">xor</text>
</g>
<!-- 2082700352144&#45;&#45;2082700359392 -->
<g id="edge29" class="edge">
<title>2082700352144&#45;&#45;2082700359392</title>
<path fill="none" stroke="black" d="M2190.24,-224.7C2248.36,-219.6 2387.43,-207.39 2445.49,-202.3"/>
</g>
<!-- 2082700349456 -->
<g id="node36" class="node">
<title>2082700349456</title>
<ellipse fill="black" stroke="black" cx="2696.32" cy="-220" rx="2.7" ry="2.7"/>
</g>
<!-- 2082700359392&#45;&#45;2082700349456 -->
<g id="edge27" class="edge">
<title>2082700359392&#45;&#45;2082700349456</title>
<path fill="none" stroke="black" d="M2499.52,-202.33C2553.88,-207.24 2676.4,-218.29 2693.36,-219.82"/>
</g>
<!-- 2082700353488 -->
<g id="node37" class="node">
<title>2082700353488</title>
<ellipse fill="none" stroke="black" cx="2696.32" cy="-181" rx="43.16" ry="18"/>
<text text-anchor="middle" x="2696.32" y="-175" font-family="Times New Roman,serif" font-size="15.00">Release</text>
</g>
<!-- 2082700359392&#45;&#45;2082700353488 -->
<g id="edge28" class="edge">
<title>2082700359392&#45;&#45;2082700353488</title>
<path fill="none" stroke="black" d="M2499.52,-197.78C2537.43,-194.53 2608.51,-188.44 2653.79,-184.56"/>
</g>
<!-- 2082705286608 -->
<g id="node39" class="node">
<title>2082705286608</title>
<ellipse fill="black" stroke="black" cx="1536.55" cy="-242" rx="2.7" ry="2.7"/>
</g>
<!-- 2082705291312&#45;&#45;2082705286608 -->
<g id="edge34" class="edge">
<title>2082705291312&#45;&#45;2082705286608</title>
<path fill="none" stroke="black" d="M1221.1,-242C1296.82,-242 1510.38,-242 1533.51,-242"/>
</g>
<!-- 2082705277824 -->
<g id="node40" class="node">
<title>2082705277824</title>
<ellipse fill="none" stroke="black" cx="1536.55" cy="-203" rx="116.86" ry="18"/>
<text text-anchor="middle" x="1536.55" y="-197" font-family="Times New Roman,serif" font-size="15.00">Applicant is a stakeholder</text>
</g>
<!-- 2082705291312&#45;&#45;2082705277824 -->
<g id="edge35" class="edge">
<title>2082705291312&#45;&#45;2082705277824</title>
<path fill="none" stroke="black" d="M1220.54,-239.04C1267,-233.72 1366.63,-222.32 1441.48,-213.76"/>
</g>
<!-- 2082705291888 -->
<g id="node43" class="node">
<title>2082705291888</title>
<ellipse fill="black" stroke="black" cx="497.57" cy="-336" rx="2.7" ry="2.7"/>
</g>
<!-- 2082700249664&#45;&#45;2082705291888 -->
<g id="edge41" class="edge">
<title>2082700249664&#45;&#45;2082705291888</title>
<path fill="none" stroke="black" d="M241.94,-300.6C307.04,-309.65 473.88,-332.84 494.48,-335.71"/>
</g>
<!-- 2082705279888 -->
<g id="node44" class="node">
<title>2082705279888</title>
<ellipse fill="none" stroke="black" cx="497.57" cy="-297" rx="69.26" ry="18"/>
<text text-anchor="middle" x="497.57" y="-291" font-family="Times New Roman,serif" font-size="15.00">Close the case</text>
</g>
<!-- 2082700249664&#45;&#45;2082705279888 -->
<g id="edge42" class="edge">
<title>2082700249664&#45;&#45;2082705279888</title>
<path fill="none" stroke="black" d="M242.44,-297C284.52,-297 368.15,-297 427.99,-297"/>
</g>
<!-- 2082705288000 -->
<g id="node45" class="node">
<title>2082705288000</title>
<ellipse fill="none" stroke="black" cx="497.57" cy="-243" rx="27" ry="18"/>
<text text-anchor="middle" x="497.57" y="-237" font-family="Times New Roman,serif" font-size="15.00">seq</text>
</g>
<!-- 2082700249664&#45;&#45;2082705288000 -->
<g id="edge46" class="edge">
<title>2082700249664&#45;&#45;2082705288000</title>
<path fill="none" stroke="black" d="M241.44,-292.11C294.85,-281.83 418.26,-258.07 471.44,-247.84"/>
</g>
<!-- 2082705285456 -->
<g id="node49" class="node">
<title>2082705285456</title>
<ellipse fill="none" stroke="black" cx="497.57" cy="-137" rx="27" ry="18"/>
<text text-anchor="middle" x="497.57" y="-131" font-family="Times New Roman,serif" font-size="15.00">seq</text>
</g>
<!-- 2082700249664&#45;&#45;2082705285456 -->
<g id="edge55" class="edge">
<title>2082700249664&#45;&#45;2082705285456</title>
<path fill="none" stroke="black" d="M236.23,-285.49C287.86,-256.04 424.36,-178.19 476.2,-148.62"/>
</g>
<!-- 2082705285504 -->
<g id="node46" class="node">
<title>2082705285504</title>
<ellipse fill="none" stroke="black" cx="818.48" cy="-299" rx="69.78" ry="18"/>
<text text-anchor="middle" x="818.48" y="-293" font-family="Times New Roman,serif" font-size="15.00">MER included</text>
</g>
<!-- 2082705288000&#45;&#45;2082705285504 -->
<g id="edge43" class="edge">
<title>2082705288000&#45;&#45;2082705285504</title>
<path fill="none" stroke="black" d="M524.13,-247.49C574.98,-256.42 689.92,-276.6 759.88,-288.89"/>
</g>
<!-- 2082700361648 -->
<g id="node47" class="node">
<title>2082700361648</title>
<ellipse fill="none" stroke="black" cx="818.48" cy="-245" rx="126.08" ry="18"/>
<text text-anchor="middle" x="818.48" y="-239" font-family="Times New Roman,serif" font-size="15.00">Regular procedure activities</text>
</g>
<!-- 2082705288000&#45;&#45;2082700361648 -->
<g id="edge44" class="edge">
<title>2082705288000&#45;&#45;2082700361648</title>
<path fill="none" stroke="black" d="M524.94,-243.17C561.65,-243.4 630.62,-243.83 692.37,-244.22"/>
</g>
<!-- 2082700351808 -->
<g id="node48" class="node">
<title>2082700351808</title>
<ellipse fill="none" stroke="black" cx="818.48" cy="-191" rx="87.69" ry="18"/>
<text text-anchor="middle" x="818.48" y="-185" font-family="Times New Roman,serif" font-size="15.00">Phased application</text>
</g>
<!-- 2082705288000&#45;&#45;2082700351808 -->
<g id="edge45" class="edge">
<title>2082705288000&#45;&#45;2082700351808</title>
<path fill="none" stroke="black" d="M524.13,-238.83C572.31,-230.98 678.07,-213.73 748.54,-202.24"/>
</g>
<!-- 2082700354448 -->
<g id="node50" class="node">
<title>2082700354448</title>
<ellipse fill="none" stroke="black" cx="818.48" cy="-137" rx="27" ry="18"/>
<text text-anchor="middle" x="818.48" y="-131" font-family="Times New Roman,serif" font-size="15.00">and</text>
</g>
<!-- 2082705285456&#45;&#45;2082700354448 -->
<g id="edge49" class="edge">
<title>2082705285456&#45;&#45;2082700354448</title>
<path fill="none" stroke="black" d="M524.94,-137C584.93,-137 731.06,-137 791.08,-137"/>
</g>
<!-- 2082700351568 -->
<g id="node53" class="node">
<title>2082700351568</title>
<ellipse fill="none" stroke="black" cx="818.48" cy="-83" rx="27" ry="18"/>
<text text-anchor="middle" x="818.48" y="-77" font-family="Times New Roman,serif" font-size="15.00">xor</text>
</g>
<!-- 2082705285456&#45;&#45;2082700351568 -->
<g id="edge54" class="edge">
<title>2082705285456&#45;&#45;2082700351568</title>
<path fill="none" stroke="black" d="M524.13,-132.67C583.84,-122.56 731.97,-97.48 791.8,-87.35"/>
</g>
<!-- 2082700347632 -->
<g id="node51" class="node">
<title>2082700347632</title>
<ellipse fill="none" stroke="black" cx="1193.64" cy="-184" rx="175.72" ry="18"/>
<text text-anchor="middle" x="1193.64" y="-178" font-family="Times New Roman,serif" font-size="15.00">Record senddate procedure confirmation</text>
</g>
<!-- 2082700354448&#45;&#45;2082700347632 -->
<g id="edge47" class="edge">
<title>2082700354448&#45;&#45;2082700347632</title>
<path fill="none" stroke="black" d="M845.42,-140.27C893.35,-146.3 998.38,-159.53 1080.45,-169.87"/>
</g>
<!-- 2082700348976 -->
<g id="node52" class="node">
<title>2082700348976</title>
<ellipse fill="none" stroke="black" cx="1193.64" cy="-130" rx="143.99" ry="18"/>
<text text-anchor="middle" x="1193.64" y="-124" font-family="Times New Roman,serif" font-size="15.00">Dispatch procedure confirmation</text>
</g>
<!-- 2082700354448&#45;&#45;2082700348976 -->
<g id="edge48" class="edge">
<title>2082700354448&#45;&#45;2082700348976</title>
<path fill="none" stroke="black" d="M845.72,-136.51C888.19,-135.71 974.92,-134.08 1051.03,-132.66"/>
</g>
<!-- 2082700360304 -->
<g id="node54" class="node">
<title>2082700360304</title>
<ellipse fill="black" stroke="black" cx="1193.64" cy="-84" rx="2.7" ry="2.7"/>
</g>
<!-- 2082700351568&#45;&#45;2082700360304 -->
<g id="edge50" class="edge">
<title>2082700351568&#45;&#45;2082700360304</title>
<path fill="none" stroke="black" d="M845.72,-83.07C926.34,-83.29 1166.49,-83.93 1190.67,-83.99"/>
</g>
<!-- 2082700354304 -->
<g id="node55" class="node">
<title>2082700354304</title>
<ellipse fill="none" stroke="black" cx="1193.64" cy="-45" rx="27" ry="18"/>
<text text-anchor="middle" x="1193.64" y="-39" font-family="Times New Roman,serif" font-size="15.00">seq</text>
</g>
<!-- 2082700351568&#45;&#45;2082700354304 -->
<g id="edge53" class="edge">
<title>2082700351568&#45;&#45;2082700354304</title>
<path fill="none" stroke="black" d="M845.42,-80.36C913.85,-73.39 1098.63,-54.57 1166.87,-47.62"/>
</g>
<!-- 2082700350080 -->
<g id="node56" class="node">
<title>2082700350080</title>
<ellipse fill="none" stroke="black" cx="1536.55" cy="-72" rx="117.89" ry="18"/>
<text text-anchor="middle" x="1536.55" y="-66" font-family="Times New Roman,serif" font-size="15.00">Extend procedure duration</text>
</g>
<!-- 2082700354304&#45;&#45;2082700350080 -->
<g id="edge51" class="edge">
<title>2082700354304&#45;&#45;2082700350080</title>
<path fill="none" stroke="black" d="M1220.82,-47.07C1265.26,-50.59 1357.74,-57.92 1431.02,-63.72"/>
</g>
<!-- 2082700353392 -->
<g id="node57" class="node">
<title>2082700353392</title>
<ellipse fill="none" stroke="black" cx="1536.55" cy="-18" rx="93.83" ry="18"/>
<text text-anchor="middle" x="1536.55" y="-12" font-family="Times New Roman,serif" font-size="15.00">Log date publication</text>
</g>
<!-- 2082700354304&#45;&#45;2082700353392 -->
<g id="edge52" class="edge">
<title>2082700354304&#45;&#45;2082700353392</title>
<path fill="none" stroke="black" d="M1220.82,-42.93C1269,-39.11 1373.66,-30.82 1449.08,-24.85"/>
</g>
</g>
</svg>
