<?xml version="1.0" encoding="UTF-8" standalone="no"?>
<!DOCTYPE svg PUBLIC "-//W3C//DTD SVG 1.1//EN"
 "http://www.w3.org/Graphics/SVG/1.1/DTD/svg11.dtd">
<!-- Generated by graphviz version 11.0.0 (20240428.1522)
 -->
<!-- Title: pt Pages: 1 -->
<svg width="3076pt" height="1167pt"
 viewBox="0.00 0.00 3076.49 1167.00" xmlns="http://www.w3.org/2000/svg" xmlns:xlink="http://www.w3.org/1999/xlink">
<g id="graph0" class="graph" transform="scale(1 1) rotate(0) translate(4 1163)">
<title>pt</title>
<polygon fill="white" stroke="none" points="-4,4 -4,-1163 3072.49,-1163 3072.49,4 -4,4"/>
<!-- 2082701689920 -->
<g id="node1" class="node">
<title>2082701689920</title>
<ellipse fill="none" stroke="black" cx="27" cy="-1006" rx="27" ry="18"/>
<text text-anchor="middle" x="27" y="-1000" font-family="Times New Roman,serif" font-size="15.00">seq</text>
</g>
<!-- 2082701691168 -->
<g id="node2" class="node">
<title>2082701691168</title>
<ellipse fill="none" stroke="black" cx="243.2" cy="-1141" rx="125.05" ry="18"/>
<text text-anchor="middle" x="243.2" y="-1135" font-family="Times New Roman,serif" font-size="15.00">Log submission date request</text>
</g>
<!-- 2082701689920&#45;&#45;2082701691168 -->
<g id="edge1" class="edge">
<title>2082701689920&#45;&#45;2082701691168</title>
<path fill="none" stroke="black" d="M47.39,-1018.22C85.39,-1042.17 169.8,-1095.37 213.99,-1123.22"/>
</g>
<!-- 2082701693040 -->
<g id="node3" class="node">
<title>2082701693040</title>
<ellipse fill="none" stroke="black" cx="243.2" cy="-1087" rx="121.47" ry="18"/>
<text text-anchor="middle" x="243.2" y="-1081" font-family="Times New Roman,serif" font-size="15.00">OLO communication active</text>
</g>
<!-- 2082701689920&#45;&#45;2082701693040 -->
<g id="edge2" class="edge">
<title>2082701689920&#45;&#45;2082701693040</title>
<path fill="none" stroke="black" d="M50.92,-1014.67C85.68,-1027.81 152.37,-1053.03 197.09,-1069.94"/>
</g>
<!-- 2082701689296 -->
<g id="node4" class="node">
<title>2082701689296</title>
<ellipse fill="none" stroke="black" cx="243.2" cy="-1033" rx="27" ry="18"/>
<text text-anchor="middle" x="243.2" y="-1027" font-family="Times New Roman,serif" font-size="15.00">xor</text>
</g>
<!-- 2082701689920&#45;&#45;2082701689296 -->
<g id="edge5" class="edge">
<title>2082701689920&#45;&#45;2082701689296</title>
<path fill="none" stroke="black" d="M53.84,-1009.26C95.01,-1014.45 175.04,-1024.53 216.27,-1029.73"/>
</g>
<!-- 2082701690928 -->
<g id="node7" class="node">
<title>2082701690928</title>
<ellipse fill="none" stroke="black" cx="243.2" cy="-979" rx="27" ry="18"/>
<text text-anchor="middle" x="243.2" y="-973" font-family="Times New Roman,serif" font-size="15.00">xor</text>
</g>
<!-- 2082701689920&#45;&#45;2082701690928 -->
<g id="edge34" class="edge">
<title>2082701689920&#45;&#45;2082701690928</title>
<path fill="none" stroke="black" d="M53.84,-1002.74C95.01,-997.55 175.04,-987.47 216.27,-982.27"/>
</g>
<!-- 2082705282192 -->
<g id="node36" class="node">
<title>2082705282192</title>
<ellipse fill="none" stroke="black" cx="243.2" cy="-925" rx="153.2" ry="18"/>
<text text-anchor="middle" x="243.2" y="-919" font-family="Times New Roman,serif" font-size="15.00">Record senddate acknowledgement</text>
</g>
<!-- 2082701689920&#45;&#45;2082705282192 -->
<g id="edge35" class="edge">
<title>2082701689920&#45;&#45;2082705282192</title>
<path fill="none" stroke="black" d="M50.92,-997.33C85.35,-984.31 151.13,-959.44 195.83,-942.54"/>
</g>
<!-- 2082705289632 -->
<g id="node37" class="node">
<title>2082705289632</title>
<ellipse fill="none" stroke="black" cx="243.2" cy="-712" rx="27" ry="18"/>
<text text-anchor="middle" x="243.2" y="-706" font-family="Times New Roman,serif" font-size="15.00">xor</text>
</g>
<!-- 2082701689920&#45;&#45;2082705289632 -->
<g id="edge67" class="edge">
<title>2082701689920&#45;&#45;2082705289632</title>
<path fill="none" stroke="black" d="M39.82,-989.77C77.27,-938.37 193.02,-779.51 230.42,-728.18"/>
</g>
<!-- 2082701698176 -->
<g id="node5" class="node">
<title>2082701698176</title>
<ellipse fill="black" stroke="black" cx="557.45" cy="-1072" rx="2.7" ry="2.7"/>
</g>
<!-- 2082701689296&#45;&#45;2082701698176 -->
<g id="edge3" class="edge">
<title>2082701689296&#45;&#45;2082701698176</title>
<path fill="none" stroke="black" d="M270.02,-1036.22C340.74,-1045.06 533.72,-1069.16 554.61,-1071.77"/>
</g>
<!-- 2082701693232 -->
<g id="node6" class="node">
<title>2082701693232</title>
<ellipse fill="none" stroke="black" cx="557.45" cy="-1033" rx="125.05" ry="18"/>
<text text-anchor="middle" x="557.45" y="-1027" font-family="Times New Roman,serif" font-size="15.00">Submit application via OLO</text>
</g>
<!-- 2082701689296&#45;&#45;2082701693232 -->
<g id="edge4" class="edge">
<title>2082701689296&#45;&#45;2082701693232</title>
<path fill="none" stroke="black" d="M270.55,-1033C306.28,-1033 372.5,-1033 432.21,-1033"/>
</g>
<!-- 2082701704800 -->
<g id="node8" class="node">
<title>2082701704800</title>
<ellipse fill="black" stroke="black" cx="557.45" cy="-994" rx="2.7" ry="2.7"/>
</g>
<!-- 2082701690928&#45;&#45;2082701704800 -->
<g id="edge6" class="edge">
<title>2082701690928&#45;&#45;2082701704800</title>
<path fill="none" stroke="black" d="M270.55,-980.27C341.72,-983.68 533.82,-992.91 554.62,-993.91"/>
</g>
<!-- 2082701698896 -->
<g id="node9" class="node">
<title>2082701698896</title>
<ellipse fill="none" stroke="black" cx="557.45" cy="-955" rx="27" ry="18"/>
<text text-anchor="middle" x="557.45" y="-949" font-family="Times New Roman,serif" font-size="15.00">seq</text>
</g>
<!-- 2082701690928&#45;&#45;2082701698896 -->
<g id="edge33" class="edge">
<title>2082701690928&#45;&#45;2082701698896</title>
<path fill="none" stroke="black" d="M270.29,-977C329.06,-972.48 471.31,-961.54 530.22,-957.02"/>
</g>
<!-- 2082701701152 -->
<g id="node10" class="node">
<title>2082701701152</title>
<ellipse fill="none" stroke="black" cx="918.79" cy="-1036" rx="27" ry="18"/>
<text text-anchor="middle" x="918.79" y="-1030" font-family="Times New Roman,serif" font-size="15.00">xor</text>
</g>
<!-- 2082701698896&#45;&#45;2082701701152 -->
<g id="edge13" class="edge">
<title>2082701698896&#45;&#45;2082701701152</title>
<path fill="none" stroke="black" d="M583.44,-960.63C649.33,-975.48 827.27,-1015.6 892.98,-1030.41"/>
</g>
<!-- 2082701690400 -->
<g id="node17" class="node">
<title>2082701690400</title>
<ellipse fill="none" stroke="black" cx="918.79" cy="-955" rx="45.21" ry="18"/>
<text text-anchor="middle" x="918.79" y="-949" font-family="Times New Roman,serif" font-size="15.00">xor loop</text>
</g>
<!-- 2082701698896&#45;&#45;2082701690400 -->
<g id="edge32" class="edge">
<title>2082701698896&#45;&#45;2082701690400</title>
<path fill="none" stroke="black" d="M584.88,-955C645.98,-955 797.6,-955 873.31,-955"/>
</g>
<!-- 2082701688912 -->
<g id="node11" class="node">
<title>2082701688912</title>
<ellipse fill="black" stroke="black" cx="1354.86" cy="-1102" rx="2.7" ry="2.7"/>
</g>
<!-- 2082701701152&#45;&#45;2082701688912 -->
<g id="edge7" class="edge">
<title>2082701701152&#45;&#45;2082701688912</title>
<path fill="none" stroke="black" d="M945.65,-1039.93C1034.71,-1053.47 1324.83,-1097.59 1351.84,-1101.69"/>
</g>
<!-- 2082701696448 -->
<g id="node12" class="node">
<title>2082701696448</title>
<ellipse fill="none" stroke="black" cx="1354.86" cy="-1063" rx="27" ry="18"/>
<text text-anchor="middle" x="1354.86" y="-1057" font-family="Times New Roman,serif" font-size="15.00">seq</text>
</g>
<!-- 2082701701152&#45;&#45;2082701696448 -->
<g id="edge11" class="edge">
<title>2082701701152&#45;&#45;2082701696448</title>
<path fill="none" stroke="black" d="M945.97,-1037.63C1023.32,-1042.44 1250.26,-1056.56 1327.65,-1061.37"/>
</g>
<!-- 2082701697792 -->
<g id="node16" class="node">
<title>2082701697792</title>
<ellipse fill="none" stroke="black" cx="1354.86" cy="-1009" rx="199.78" ry="18"/>
<text text-anchor="middle" x="1354.86" y="-1003" font-family="Times New Roman,serif" font-size="15.00">No permit required or only notification needed</text>
</g>
<!-- 2082701701152&#45;&#45;2082701697792 -->
<g id="edge12" class="edge">
<title>2082701701152&#45;&#45;2082701697792</title>
<path fill="none" stroke="black" d="M945.97,-1034.37C993.49,-1031.42 1097.46,-1024.95 1188.54,-1019.28"/>
</g>
<!-- 2082701694768 -->
<g id="node13" class="node">
<title>2082701694768</title>
<ellipse fill="none" stroke="black" cx="1807.81" cy="-1117" rx="116.86" ry="18"/>
<text text-anchor="middle" x="1807.81" y="-1111" font-family="Times New Roman,serif" font-size="15.00">Applicant is a stakeholder</text>
</g>
<!-- 2082701696448&#45;&#45;2082701694768 -->
<g id="edge8" class="edge">
<title>2082701696448&#45;&#45;2082701694768</title>
<path fill="none" stroke="black" d="M1381.72,-1066.1C1444.89,-1073.66 1609.49,-1093.37 1714.35,-1105.93"/>
</g>
<!-- 2082701700960 -->
<g id="node14" class="node">
<title>2082701700960</title>
<ellipse fill="none" stroke="black" cx="1807.81" cy="-1063" rx="70.8" ry="18"/>
<text text-anchor="middle" x="1807.81" y="-1057" font-family="Times New Roman,serif" font-size="15.00">End on request</text>
</g>
<!-- 2082701696448&#45;&#45;2082701700960 -->
<g id="edge9" class="edge">
<title>2082701696448&#45;&#45;2082701700960</title>
<path fill="none" stroke="black" d="M1382.05,-1063C1450.19,-1063 1634.77,-1063 1736.74,-1063"/>
</g>
<!-- 2082701692656 -->
<g id="node15" class="node">
<title>2082701692656</title>
<ellipse fill="none" stroke="black" cx="1807.81" cy="-1009" rx="129.15" ry="18"/>
<text text-anchor="middle" x="1807.81" y="-1003" font-family="Times New Roman,serif" font-size="15.00">Compute provisional charges</text>
</g>
<!-- 2082701696448&#45;&#45;2082701692656 -->
<g id="edge10" class="edge">
<title>2082701696448&#45;&#45;2082701692656</title>
<path fill="none" stroke="black" d="M1381.72,-1059.9C1443.67,-1052.48 1603.18,-1033.38 1708.22,-1020.81"/>
</g>
<!-- 2082701696928 -->
<g id="node18" class="node">
<title>2082701696928</title>
<ellipse fill="none" stroke="black" cx="1354.86" cy="-955" rx="27" ry="18"/>
<text text-anchor="middle" x="1354.86" y="-949" font-family="Times New Roman,serif" font-size="15.00">seq</text>
</g>
<!-- 2082701690400&#45;&#45;2082701696928 -->
<g id="edge30" class="edge">
<title>2082701690400&#45;&#45;2082701696928</title>
<path fill="none" stroke="black" d="M964.21,-955C1054.09,-955 1255.14,-955 1327.38,-955"/>
</g>
<!-- 2082705286704 -->
<g id="node35" class="node">
<title>2082705286704</title>
<ellipse fill="black" stroke="black" cx="1354.86" cy="-916" rx="2.7" ry="2.7"/>
</g>
<!-- 2082701690400&#45;&#45;2082705286704 -->
<g id="edge31" class="edge">
<title>2082701690400&#45;&#45;2082705286704</title>
<path fill="none" stroke="black" d="M963.4,-951.08C1067.88,-941.69 1325.82,-918.52 1351.75,-916.19"/>
</g>
<!-- 2082701700768 -->
<g id="node19" class="node">
<title>2082701700768</title>
<ellipse fill="none" stroke="black" cx="1807.81" cy="-955" rx="27" ry="18"/>
<text text-anchor="middle" x="1807.81" y="-949" font-family="Times New Roman,serif" font-size="15.00">xor</text>
</g>
<!-- 2082701696928&#45;&#45;2082701700768 -->
<g id="edge18" class="edge">
<title>2082701696928&#45;&#45;2082701700768</title>
<path fill="none" stroke="black" d="M1382.05,-955C1461.75,-955 1700.74,-955 1780.54,-955"/>
</g>
<!-- 2082701692896 -->
<g id="node24" class="node">
<title>2082701692896</title>
<ellipse fill="none" stroke="black" cx="1807.81" cy="-901" rx="27" ry="18"/>
<text text-anchor="middle" x="1807.81" y="-895" font-family="Times New Roman,serif" font-size="15.00">xor</text>
</g>
<!-- 2082701696928&#45;&#45;2082701692896 -->
<g id="edge29" class="edge">
<title>2082701696928&#45;&#45;2082701692896</title>
<path fill="none" stroke="black" d="M1381.72,-951.9C1461.17,-942.39 1701.09,-913.66 1780.77,-904.12"/>
</g>
<!-- 2082701691504 -->
<g id="node20" class="node">
<title>2082701691504</title>
<ellipse fill="black" stroke="black" cx="2192.18" cy="-994" rx="2.7" ry="2.7"/>
</g>
<!-- 2082701700768&#45;&#45;2082701691504 -->
<g id="edge14" class="edge">
<title>2082701700768&#45;&#45;2082701691504</title>
<path fill="none" stroke="black" d="M1834.79,-957.65C1916.48,-965.98 2164.2,-991.25 2189.15,-993.79"/>
</g>
<!-- 2082701698272 -->
<g id="node21" class="node">
<title>2082701698272</title>
<ellipse fill="none" stroke="black" cx="2192.18" cy="-955" rx="27" ry="18"/>
<text text-anchor="middle" x="2192.18" y="-949" font-family="Times New Roman,serif" font-size="15.00">seq</text>
</g>
<!-- 2082701700768&#45;&#45;2082701698272 -->
<g id="edge17" class="edge">
<title>2082701700768&#45;&#45;2082701698272</title>
<path fill="none" stroke="black" d="M1835.09,-955C1904.94,-955 2094.65,-955 2164.71,-955"/>
</g>
<!-- 2082701697024 -->
<g id="node22" class="node">
<title>2082701697024</title>
<ellipse fill="none" stroke="black" cx="2506.43" cy="-1009" rx="136.82" ry="18"/>
<text text-anchor="middle" x="2506.43" y="-1003" font-family="Times New Roman,serif" font-size="15.00">Send to the competent authority</text>
</g>
<!-- 2082701698272&#45;&#45;2082701697024 -->
<g id="edge15" class="edge">
<title>2082701698272&#45;&#45;2082701697024</title>
<path fill="none" stroke="black" d="M2218.73,-959.42C2262.5,-966.99 2353.65,-982.75 2421.49,-994.48"/>
</g>
<!-- 2082701700480 -->
<g id="node23" class="node">
<title>2082701700480</title>
<ellipse fill="none" stroke="black" cx="2506.43" cy="-955" rx="116.35" ry="18"/>
<text text-anchor="middle" x="2506.43" y="-949" font-family="Times New Roman,serif" font-size="15.00">Notify BAG administrator</text>
</g>
<!-- 2082701698272&#45;&#45;2082701700480 -->
<g id="edge16" class="edge">
<title>2082701698272&#45;&#45;2082701700480</title>
<path fill="none" stroke="black" d="M2219.53,-955C2256.95,-955 2327.81,-955 2389.62,-955"/>
</g>
<!-- 2082701688960 -->
<g id="node25" class="node">
<title>2082701688960</title>
<ellipse fill="none" stroke="black" cx="2192.18" cy="-901" rx="131.19" ry="18"/>
<text text-anchor="middle" x="2192.18" y="-895" font-family="Times New Roman,serif" font-size="15.00">Dispatch confirmation receipt</text>
</g>
<!-- 2082701692896&#45;&#45;2082701688960 -->
<g id="edge19" class="edge">
<title>2082701692896&#45;&#45;2082701688960</title>
<path fill="none" stroke="black" d="M1835.09,-901C1881.07,-901 1978.97,-901 2060.51,-901"/>
</g>
<!-- 2082701691600 -->
<g id="node26" class="node">
<title>2082701691600</title>
<ellipse fill="none" stroke="black" cx="2192.18" cy="-847" rx="27" ry="18"/>
<text text-anchor="middle" x="2192.18" y="-841" font-family="Times New Roman,serif" font-size="15.00">seq</text>
</g>
<!-- 2082701692896&#45;&#45;2082701691600 -->
<g id="edge28" class="edge">
<title>2082701692896&#45;&#45;2082701691600</title>
<path fill="none" stroke="black" d="M1834.49,-897.37C1904.07,-887.55 2095.62,-860.5 2165.36,-850.65"/>
</g>
<!-- 2082701704656 -->
<g id="node27" class="node">
<title>2082701704656</title>
<ellipse fill="none" stroke="black" cx="2506.43" cy="-901" rx="147.06" ry="18"/>
<text text-anchor="middle" x="2506.43" y="-895" font-family="Times New Roman,serif" font-size="15.00">Standard procedure without MER</text>
</g>
<!-- 2082701691600&#45;&#45;2082701704656 -->
<g id="edge20" class="edge">
<title>2082701691600&#45;&#45;2082701704656</title>
<path fill="none" stroke="black" d="M2218.73,-851.42C2262.07,-858.91 2351.84,-874.44 2419.45,-886.13"/>
</g>
<!-- 2082701700624 -->
<g id="node28" class="node">
<title>2082701700624</title>
<ellipse fill="none" stroke="black" cx="2506.43" cy="-847" rx="27" ry="18"/>
<text text-anchor="middle" x="2506.43" y="-841" font-family="Times New Roman,serif" font-size="15.00">xor</text>
</g>
<!-- 2082701691600&#45;&#45;2082701700624 -->
<g id="edge25" class="edge">
<title>2082701691600&#45;&#45;2082701700624</title>
<path fill="none" stroke="black" d="M2219.53,-847C2278.49,-847 2420.47,-847 2479.26,-847"/>
</g>
<!-- 2082705291216 -->
<g id="node33" class="node">
<title>2082705291216</title>
<ellipse fill="none" stroke="black" cx="2506.43" cy="-793" rx="118.91" ry="18"/>
<text text-anchor="middle" x="2506.43" y="-787" font-family="Times New Roman,serif" font-size="15.00">Stage application received</text>
</g>
<!-- 2082701691600&#45;&#45;2082705291216 -->
<g id="edge26" class="edge">
<title>2082701691600&#45;&#45;2082705291216</title>
<path fill="none" stroke="black" d="M2218.73,-842.58C2263.6,-834.82 2358.23,-818.46 2426.53,-806.65"/>
</g>
<!-- 2082705277968 -->
<g id="node34" class="node">
<title>2082705277968</title>
<ellipse fill="none" stroke="black" cx="2506.43" cy="-739" rx="108.16" ry="18"/>
<text text-anchor="middle" x="2506.43" y="-733" font-family="Times New Roman,serif" font-size="15.00">Begin WABOprocedure</text>
</g>
<!-- 2082701691600&#45;&#45;2082705277968 -->
<g id="edge27" class="edge">
<title>2082701691600&#45;&#45;2082705277968</title>
<path fill="none" stroke="black" d="M2216.65,-838.88C2267.71,-821.22 2389.74,-779.02 2457.69,-755.51"/>
</g>
<!-- 2082701690304 -->
<g id="node29" class="node">
<title>2082701690304</title>
<ellipse fill="black" stroke="black" cx="2716.49" cy="-866" rx="2.7" ry="2.7"/>
</g>
<!-- 2082701700624&#45;&#45;2082701690304 -->
<g id="edge21" class="edge">
<title>2082701700624&#45;&#45;2082701690304</title>
<path fill="none" stroke="black" d="M2533.36,-849.37C2585.22,-854.1 2698.07,-864.41 2713.69,-865.84"/>
</g>
<!-- 2082701703312 -->
<g id="node30" class="node">
<title>2082701703312</title>
<ellipse fill="none" stroke="black" cx="2716.49" cy="-827" rx="27" ry="18"/>
<text text-anchor="middle" x="2716.49" y="-821" font-family="Times New Roman,serif" font-size="15.00">seq</text>
</g>
<!-- 2082701700624&#45;&#45;2082701703312 -->
<g id="edge24" class="edge">
<title>2082701700624&#45;&#45;2082701703312</title>
<path fill="none" stroke="black" d="M2533.36,-844.51C2573.34,-840.66 2649.59,-833.34 2689.56,-829.49"/>
</g>
<!-- 2082701695824 -->
<g id="node31" class="node">
<title>2082701695824</title>
<ellipse fill="none" stroke="black" cx="2923.99" cy="-854" rx="144.5" ry="18"/>
<text text-anchor="middle" x="2923.99" y="-848" font-family="Times New Roman,serif" font-size="15.00">Generate procedure confirmation</text>
</g>
<!-- 2082701703312&#45;&#45;2082701695824 -->
<g id="edge22" class="edge">
<title>2082701703312&#45;&#45;2082701695824</title>
<path fill="none" stroke="black" d="M2743.1,-830.36C2763.44,-833.04 2793.27,-836.96 2822.82,-840.84"/>
</g>
<!-- 2082701700288 -->
<g id="node32" class="node">
<title>2082701700288</title>
<ellipse fill="none" stroke="black" cx="2923.99" cy="-800" rx="43.16" ry="18"/>
<text text-anchor="middle" x="2923.99" y="-794" font-family="Times New Roman,serif" font-size="15.00">Release</text>
</g>
<!-- 2082701703312&#45;&#45;2082701700288 -->
<g id="edge23" class="edge">
<title>2082701703312&#45;&#45;2082701700288</title>
<path fill="none" stroke="black" d="M2743.1,-823.64C2778.07,-819.04 2841.13,-810.76 2882.53,-805.32"/>
</g>
<!-- 2082705280608 -->
<g id="node38" class="node">
<title>2082705280608</title>
<ellipse fill="black" stroke="black" cx="557.45" cy="-805" rx="2.7" ry="2.7"/>
</g>
<!-- 2082705289632&#45;&#45;2082705280608 -->
<g id="edge36" class="edge">
<title>2082705289632&#45;&#45;2082705280608</title>
<path fill="none" stroke="black" d="M268.44,-719.22C337.8,-739.88 533.4,-798.13 554.59,-804.44"/>
</g>
<!-- 2082705289056 -->
<g id="node39" class="node">
<title>2082705289056</title>
<ellipse fill="none" stroke="black" cx="557.45" cy="-766" rx="27" ry="18"/>
<text text-anchor="middle" x="557.45" y="-760" font-family="Times New Roman,serif" font-size="15.00">seq</text>
</g>
<!-- 2082705289632&#45;&#45;2082705289056 -->
<g id="edge41" class="edge">
<title>2082705289632&#45;&#45;2082705289056</title>
<path fill="none" stroke="black" d="M269.75,-716.42C328.45,-726.57 472.37,-751.46 530.99,-761.6"/>
</g>
<!-- 2082705281232 -->
<g id="node44" class="node">
<title>2082705281232</title>
<ellipse fill="none" stroke="black" cx="557.45" cy="-658" rx="27" ry="18"/>
<text text-anchor="middle" x="557.45" y="-652" font-family="Times New Roman,serif" font-size="15.00">seq</text>
</g>
<!-- 2082705289632&#45;&#45;2082705281232 -->
<g id="edge45" class="edge">
<title>2082705289632&#45;&#45;2082705281232</title>
<path fill="none" stroke="black" d="M269.75,-707.58C328.45,-697.43 472.37,-672.54 530.99,-662.4"/>
</g>
<!-- 2082705292416 -->
<g id="node48" class="node">
<title>2082705292416</title>
<ellipse fill="none" stroke="black" cx="557.45" cy="-523" rx="27" ry="18"/>
<text text-anchor="middle" x="557.45" y="-517" font-family="Times New Roman,serif" font-size="15.00">seq</text>
</g>
<!-- 2082705289632&#45;&#45;2082705292416 -->
<g id="edge48" class="edge">
<title>2082705289632&#45;&#45;2082705292416</title>
<path fill="none" stroke="black" d="M263.73,-700.18C319.81,-666.24 480.86,-568.75 536.93,-534.82"/>
</g>
<!-- 2082705285936 -->
<g id="node51" class="node">
<title>2082705285936</title>
<ellipse fill="none" stroke="black" cx="557.45" cy="-253" rx="27" ry="18"/>
<text text-anchor="middle" x="557.45" y="-247" font-family="Times New Roman,serif" font-size="15.00">seq</text>
</g>
<!-- 2082705289632&#45;&#45;2082705285936 -->
<g id="edge66" class="edge">
<title>2082705289632&#45;&#45;2082705285936</title>
<path fill="none" stroke="black" d="M255.31,-695.66C303.88,-624.28 497.18,-340.14 545.47,-269.14"/>
</g>
<!-- 2082705083136 -->
<g id="node40" class="node">
<title>2082705083136</title>
<ellipse fill="none" stroke="black" cx="918.79" cy="-901" rx="174.7" ry="18"/>
<text text-anchor="middle" x="918.79" y="-895" font-family="Times New Roman,serif" font-size="15.00">send confirmation to competent authority</text>
</g>
<!-- 2082705289056&#45;&#45;2082705083136 -->
<g id="edge37" class="edge">
<title>2082705289056&#45;&#45;2082705083136</title>
<path fill="none" stroke="black" d="M581.48,-774.65C639.49,-796.44 792.57,-853.95 870.61,-883.27"/>
</g>
<!-- 2082705093792 -->
<g id="node41" class="node">
<title>2082705093792</title>
<ellipse fill="none" stroke="black" cx="918.79" cy="-847" rx="156.27" ry="18"/>
<text text-anchor="middle" x="918.79" y="-841" font-family="Times New Roman,serif" font-size="15.00">message change competent authority</text>
</g>
<!-- 2082705289056&#45;&#45;2082705093792 -->
<g id="edge38" class="edge">
<title>2082705289056&#45;&#45;2082705093792</title>
<path fill="none" stroke="black" d="M583.44,-771.63C636.91,-783.69 764.2,-812.38 845.39,-830.68"/>
</g>
<!-- 2082705080976 -->
<g id="node42" class="node">
<title>2082705080976</title>
<ellipse fill="none" stroke="black" cx="918.79" cy="-793" rx="200.29" ry="18"/>
<text text-anchor="middle" x="918.79" y="-787" font-family="Times New Roman,serif" font-size="15.00">submit request towards the competent authority</text>
</g>
<!-- 2082705289056&#45;&#45;2082705080976 -->
<g id="edge39" class="edge">
<title>2082705289056&#45;&#45;2082705080976</title>
<path fill="none" stroke="black" d="M584.59,-767.96C622.38,-770.8 695.23,-776.28 763.19,-781.38"/>
</g>
<!-- 2082705084576 -->
<g id="node43" class="node">
<title>2082705084576</title>
<ellipse fill="none" stroke="black" cx="918.79" cy="-739" rx="176.23" ry="18"/>
<text text-anchor="middle" x="918.79" y="-733" font-family="Times New Roman,serif" font-size="15.00">log the senddate for letter to the authority</text>
</g>
<!-- 2082705289056&#45;&#45;2082705084576 -->
<g id="edge40" class="edge">
<title>2082705289056&#45;&#45;2082705084576</title>
<path fill="none" stroke="black" d="M584.59,-764.04C624.56,-761.03 703.75,-755.08 774.9,-749.74"/>
</g>
<!-- 2082705084480 -->
<g id="node45" class="node">
<title>2082705084480</title>
<ellipse fill="none" stroke="black" cx="918.79" cy="-685" rx="69.78" ry="18"/>
<text text-anchor="middle" x="918.79" y="-679" font-family="Times New Roman,serif" font-size="15.00">MER included</text>
</g>
<!-- 2082705281232&#45;&#45;2082705084480 -->
<g id="edge42" class="edge">
<title>2082705281232&#45;&#45;2082705084480</title>
<path fill="none" stroke="black" d="M584.59,-659.96C640.06,-664.13 771.08,-673.98 851.31,-680"/>
</g>
<!-- 2082705085872 -->
<g id="node46" class="node">
<title>2082705085872</title>
<ellipse fill="none" stroke="black" cx="918.79" cy="-631" rx="126.08" ry="18"/>
<text text-anchor="middle" x="918.79" y="-625" font-family="Times New Roman,serif" font-size="15.00">Regular procedure activities</text>
</g>
<!-- 2082705281232&#45;&#45;2082705085872 -->
<g id="edge43" class="edge">
<title>2082705281232&#45;&#45;2082705085872</title>
<path fill="none" stroke="black" d="M584.59,-656.04C630.53,-652.58 728.3,-645.24 806.11,-639.39"/>
</g>
<!-- 2082705088368 -->
<g id="node47" class="node">
<title>2082705088368</title>
<ellipse fill="none" stroke="black" cx="918.79" cy="-577" rx="87.69" ry="18"/>
<text text-anchor="middle" x="918.79" y="-571" font-family="Times New Roman,serif" font-size="15.00">Phased application</text>
</g>
<!-- 2082705281232&#45;&#45;2082705088368 -->
<g id="edge44" class="edge">
<title>2082705281232&#45;&#45;2082705088368</title>
<path fill="none" stroke="black" d="M583.44,-652.37C639.86,-639.65 778.44,-608.41 858.36,-590.4"/>
</g>
<!-- 2082705083232 -->
<g id="node49" class="node">
<title>2082705083232</title>
<ellipse fill="none" stroke="black" cx="918.79" cy="-523" rx="143.99" ry="18"/>
<text text-anchor="middle" x="918.79" y="-517" font-family="Times New Roman,serif" font-size="15.00">Dispatch procedure confirmation</text>
</g>
<!-- 2082705292416&#45;&#45;2082705083232 -->
<g id="edge46" class="edge">
<title>2082705292416&#45;&#45;2082705083232</title>
<path fill="none" stroke="black" d="M584.88,-523C624.91,-523 703.8,-523 774.73,-523"/>
</g>
<!-- 2082705088896 -->
<g id="node50" class="node">
<title>2082705088896</title>
<ellipse fill="none" stroke="black" cx="918.79" cy="-469" rx="175.72" ry="18"/>
<text text-anchor="middle" x="918.79" y="-463" font-family="Times New Roman,serif" font-size="15.00">Record senddate procedure confirmation</text>
</g>
<!-- 2082705292416&#45;&#45;2082705088896 -->
<g id="edge47" class="edge">
<title>2082705292416&#45;&#45;2082705088896</title>
<path fill="none" stroke="black" d="M584.3,-519.12C632.33,-511.9 737.71,-496.06 817.25,-484.11"/>
</g>
<!-- 2082705091200 -->
<g id="node52" class="node">
<title>2082705091200</title>
<ellipse fill="none" stroke="black" cx="918.79" cy="-415" rx="27" ry="18"/>
<text text-anchor="middle" x="918.79" y="-409" font-family="Times New Roman,serif" font-size="15.00">xor</text>
</g>
<!-- 2082705285936&#45;&#45;2082705091200 -->
<g id="edge56" class="edge">
<title>2082705285936&#45;&#45;2082705091200</title>
<path fill="none" stroke="black" d="M580.39,-262.89C644.54,-291.81 831.32,-376.02 895.69,-405.03"/>
</g>
<!-- 2082705095232 -->
<g id="node60" class="node">
<title>2082705095232</title>
<ellipse fill="none" stroke="black" cx="918.79" cy="-361" rx="173.67" ry="18"/>
<text text-anchor="middle" x="918.79" y="-355" font-family="Times New Roman,serif" font-size="15.00">Prematurely terminated phase procedure</text>
</g>
<!-- 2082705285936&#45;&#45;2082705095232 -->
<g id="edge57" class="edge">
<title>2082705285936&#45;&#45;2082705095232</title>
<path fill="none" stroke="black" d="M582.59,-260.25C638.85,-277.16 779.97,-319.58 860.01,-343.63"/>
</g>
<!-- 2082705080640 -->
<g id="node61" class="node">
<title>2082705080640</title>
<ellipse fill="none" stroke="black" cx="918.79" cy="-307" rx="163.44" ry="18"/>
<text text-anchor="middle" x="918.79" y="-301" font-family="Times New Roman,serif" font-size="15.00">Log date termination request received</text>
</g>
<!-- 2082705285936&#45;&#45;2082705080640 -->
<g id="edge58" class="edge">
<title>2082705285936&#45;&#45;2082705080640</title>
<path fill="none" stroke="black" d="M584.3,-256.88C632.9,-264.19 740.19,-280.31 820.03,-292.31"/>
</g>
<!-- 2082705081696 -->
<g id="node62" class="node">
<title>2082705081696</title>
<ellipse fill="none" stroke="black" cx="918.79" cy="-253" rx="158.32" ry="18"/>
<text text-anchor="middle" x="918.79" y="-247" font-family="Times New Roman,serif" font-size="15.00">Record senddate termination request</text>
</g>
<!-- 2082705285936&#45;&#45;2082705081696 -->
<g id="edge59" class="edge">
<title>2082705285936&#45;&#45;2082705081696</title>
<path fill="none" stroke="black" d="M584.88,-253C622.16,-253 693.12,-253 759.99,-253"/>
</g>
<!-- 2082705086112 -->
<g id="node63" class="node">
<title>2082705086112</title>
<ellipse fill="none" stroke="black" cx="918.79" cy="-199" rx="119.93" ry="18"/>
<text text-anchor="middle" x="918.79" y="-193" font-family="Times New Roman,serif" font-size="15.00">Terminate request message</text>
</g>
<!-- 2082705285936&#45;&#45;2082705086112 -->
<g id="edge60" class="edge">
<title>2082705285936&#45;&#45;2082705086112</title>
<path fill="none" stroke="black" d="M584.3,-249.12C635.47,-241.43 751.73,-223.96 832.48,-211.82"/>
</g>
<!-- 2082705091824 -->
<g id="node64" class="node">
<title>2082705091824</title>
<ellipse fill="none" stroke="black" cx="918.79" cy="-145" rx="63.63" ry="18"/>
<text text-anchor="middle" x="918.79" y="-139" font-family="Times New Roman,serif" font-size="15.00">Log deadline</text>
</g>
<!-- 2082705285936&#45;&#45;2082705091824 -->
<g id="edge61" class="edge">
<title>2082705285936&#45;&#45;2082705091824</title>
<path fill="none" stroke="black" d="M582.59,-245.75C642.31,-227.8 797.66,-181.11 874.06,-158.14"/>
</g>
<!-- 2082705095088 -->
<g id="node65" class="node">
<title>2082705095088</title>
<ellipse fill="none" stroke="black" cx="918.79" cy="-91" rx="119.42" ry="18"/>
<text text-anchor="middle" x="918.79" y="-85" font-family="Times New Roman,serif" font-size="15.00">Phase procedure cancelled</text>
</g>
<!-- 2082705285936&#45;&#45;2082705095088 -->
<g id="edge62" class="edge">
<title>2082705285936&#45;&#45;2082705095088</title>
<path fill="none" stroke="black" d="M580.39,-243.11C639.74,-216.35 804.06,-142.28 879.29,-108.36"/>
</g>
<!-- 2082705085440 -->
<g id="node66" class="node">
<title>2082705085440</title>
<ellipse fill="none" stroke="black" cx="918.79" cy="-37" rx="27" ry="18"/>
<text text-anchor="middle" x="918.79" y="-31" font-family="Times New Roman,serif" font-size="15.00">xor</text>
</g>
<!-- 2082705285936&#45;&#45;2082705085440 -->
<g id="edge65" class="edge">
<title>2082705285936&#45;&#45;2082705085440</title>
<path fill="none" stroke="black" d="M578.29,-241.08C641.11,-203.31 835.28,-86.6 898.02,-48.88"/>
</g>
<!-- 2082705081888 -->
<g id="node53" class="node">
<title>2082705081888</title>
<ellipse fill="none" stroke="black" cx="1354.86" cy="-442" rx="27" ry="18"/>
<text text-anchor="middle" x="1354.86" y="-436" font-family="Times New Roman,serif" font-size="15.00">seq</text>
</g>
<!-- 2082705091200&#45;&#45;2082705081888 -->
<g id="edge52" class="edge">
<title>2082705091200&#45;&#45;2082705081888</title>
<path fill="none" stroke="black" d="M945.97,-416.63C1023.32,-421.44 1250.26,-435.56 1327.65,-440.37"/>
</g>
<!-- 2082705087696 -->
<g id="node57" class="node">
<title>2082705087696</title>
<ellipse fill="none" stroke="black" cx="1354.86" cy="-361" rx="27" ry="18"/>
<text text-anchor="middle" x="1354.86" y="-355" font-family="Times New Roman,serif" font-size="15.00">seq</text>
</g>
<!-- 2082705091200&#45;&#45;2082705087696 -->
<g id="edge55" class="edge">
<title>2082705091200&#45;&#45;2082705087696</title>
<path fill="none" stroke="black" d="M945.65,-411.78C1022.76,-402.19 1250.57,-373.85 1327.87,-364.23"/>
</g>
<!-- 2082705083952 -->
<g id="node54" class="node">
<title>2082705083952</title>
<ellipse fill="none" stroke="black" cx="1807.81" cy="-523" rx="130.68" ry="18"/>
<text text-anchor="middle" x="1807.81" y="-517" font-family="Times New Roman,serif" font-size="15.00">Competent authority initiative</text>
</g>
<!-- 2082705081888&#45;&#45;2082705083952 -->
<g id="edge49" class="edge">
<title>2082705081888&#45;&#45;2082705083952</title>
<path fill="none" stroke="black" d="M1381.39,-446.59C1446.79,-458.33 1622.46,-489.89 1726.47,-508.57"/>
</g>
<!-- 2082705083808 -->
<g id="node55" class="node">
<title>2082705083808</title>
<ellipse fill="none" stroke="black" cx="1807.81" cy="-469" rx="145.52" ry="18"/>
<text text-anchor="middle" x="1807.81" y="-463" font-family="Times New Roman,serif" font-size="15.00">Create terminate request message</text>
</g>
<!-- 2082705081888&#45;&#45;2082705083808 -->
<g id="edge50" class="edge">
<title>2082705081888&#45;&#45;2082705083808</title>
<path fill="none" stroke="black" d="M1382.05,-443.57C1438.12,-446.93 1573,-455 1675.84,-461.16"/>
</g>
<!-- 2082705086544 -->
<g id="node56" class="node">
<title>2082705086544</title>
<ellipse fill="none" stroke="black" cx="1807.81" cy="-415" rx="125.05" ry="18"/>
<text text-anchor="middle" x="1807.81" y="-409" font-family="Times New Roman,serif" font-size="15.00">Check publication date field</text>
</g>
<!-- 2082705081888&#45;&#45;2082705086544 -->
<g id="edge51" class="edge">
<title>2082705081888&#45;&#45;2082705086544</title>
<path fill="none" stroke="black" d="M1382.05,-440.43C1440.98,-436.9 1586.99,-428.16 1691.35,-421.91"/>
</g>
<!-- 2082705082080 -->
<g id="node58" class="node">
<title>2082705082080</title>
<ellipse fill="none" stroke="black" cx="1807.81" cy="-361" rx="205.41" ry="18"/>
<text text-anchor="middle" x="1807.81" y="-355" font-family="Times New Roman,serif" font-size="15.00">draft letter for no permit or notification required</text>
</g>
<!-- 2082705087696&#45;&#45;2082705082080 -->
<g id="edge53" class="edge">
<title>2082705087696&#45;&#45;2082705082080</title>
<path fill="none" stroke="black" d="M1382.05,-361C1425.38,-361 1515.78,-361 1602.1,-361"/>
</g>
<!-- 2082705084864 -->
<g id="node59" class="node">
<title>2082705084864</title>
<ellipse fill="none" stroke="black" cx="1807.81" cy="-307" rx="217.18" ry="18"/>
<text text-anchor="middle" x="1807.81" y="-301" font-family="Times New Roman,serif" font-size="15.00">log senddate letter no permit or notification needed</text>
</g>
<!-- 2082705087696&#45;&#45;2082705084864 -->
<g id="edge54" class="edge">
<title>2082705087696&#45;&#45;2082705084864</title>
<path fill="none" stroke="black" d="M1381.72,-357.9C1438.57,-351.1 1577.58,-334.45 1681.26,-322.03"/>
</g>
<!-- 2082705096672 -->
<g id="node67" class="node">
<title>2082705096672</title>
<ellipse fill="black" stroke="black" cx="1354.86" cy="-57" rx="2.7" ry="2.7"/>
</g>
<!-- 2082705085440&#45;&#45;2082705096672 -->
<g id="edge63" class="edge">
<title>2082705085440&#45;&#45;2082705096672</title>
<path fill="none" stroke="black" d="M945.97,-38.21C1035.41,-42.33 1324.9,-55.67 1351.84,-56.91"/>
</g>
<!-- 2082705095376 -->
<g id="node68" class="node">
<title>2082705095376</title>
<ellipse fill="none" stroke="black" cx="1354.86" cy="-18" rx="69.26" ry="18"/>
<text text-anchor="middle" x="1354.86" y="-12" font-family="Times New Roman,serif" font-size="15.00">Close the case</text>
</g>
<!-- 2082705085440&#45;&#45;2082705095376 -->
<g id="edge64" class="edge">
<title>2082705085440&#45;&#45;2082705095376</title>
<path fill="none" stroke="black" d="M945.97,-35.85C1012.23,-32.95 1188.26,-25.25 1286.02,-20.97"/>
</g>
</g>
</svg>
