<?xml version="1.0" encoding="UTF-8" standalone="no"?>
<!DOCTYPE svg PUBLIC "-//W3C//DTD SVG 1.1//EN"
 "http://www.w3.org/Graphics/SVG/1.1/DTD/svg11.dtd">
<!-- Generated by graphviz version 11.0.0 (20240428.1522)
 -->
<!-- Title: pt Pages: 1 -->
<svg width="3991pt" height="649pt"
 viewBox="0.00 0.00 3991.19 649.00" xmlns="http://www.w3.org/2000/svg" xmlns:xlink="http://www.w3.org/1999/xlink">
<g id="graph0" class="graph" transform="scale(1 1) rotate(0) translate(4 645)">
<title>pt</title>
<polygon fill="white" stroke="none" points="-4,4 -4,-645 3987.19,-645 3987.19,4 -4,4"/>
<!-- 2082701437376 -->
<g id="node1" class="node">
<title>2082701437376</title>
<ellipse fill="none" stroke="black" cx="27" cy="-431" rx="27" ry="18"/>
<text text-anchor="middle" x="27" y="-425" font-family="Times New Roman,serif" font-size="15.00">seq</text>
</g>
<!-- 2082701435312 -->
<g id="node2" class="node">
<title>2082701435312</title>
<ellipse fill="none" stroke="black" cx="215.05" cy="-485" rx="125.05" ry="18"/>
<text text-anchor="middle" x="215.05" y="-479" font-family="Times New Roman,serif" font-size="15.00">Log submission date request</text>
</g>
<!-- 2082701437376&#45;&#45;2082701435312 -->
<g id="edge1" class="edge">
<title>2082701437376&#45;&#45;2082701435312</title>
<path fill="none" stroke="black" d="M52.32,-438.06C78.92,-445.78 122.44,-458.41 157.64,-468.63"/>
</g>
<!-- 2082701435888 -->
<g id="node3" class="node">
<title>2082701435888</title>
<ellipse fill="none" stroke="black" cx="215.05" cy="-431" rx="27" ry="18"/>
<text text-anchor="middle" x="215.05" y="-425" font-family="Times New Roman,serif" font-size="15.00">and</text>
</g>
<!-- 2082701437376&#45;&#45;2082701435888 -->
<g id="edge64" class="edge">
<title>2082701437376&#45;&#45;2082701435888</title>
<path fill="none" stroke="black" d="M54.26,-431C89.62,-431 152.18,-431 187.62,-431"/>
</g>
<!-- 2082701432336 -->
<g id="node66" class="node">
<title>2082701432336</title>
<ellipse fill="none" stroke="black" cx="215.05" cy="-296" rx="27" ry="18"/>
<text text-anchor="middle" x="215.05" y="-290" font-family="Times New Roman,serif" font-size="15.00">xor</text>
</g>
<!-- 2082701437376&#45;&#45;2082701432336 -->
<g id="edge80" class="edge">
<title>2082701437376&#45;&#45;2082701432336</title>
<path fill="none" stroke="black" d="M46.18,-417.81C81.84,-391.93 160.58,-334.8 196.07,-309.04"/>
</g>
<!-- 2082701432864 -->
<g id="node4" class="node">
<title>2082701432864</title>
<ellipse fill="none" stroke="black" cx="495.01" cy="-512" rx="118.91" ry="18"/>
<text text-anchor="middle" x="495.01" y="-506" font-family="Times New Roman,serif" font-size="15.00">Stage application received</text>
</g>
<!-- 2082701435888&#45;&#45;2082701432864 -->
<g id="edge2" class="edge">
<title>2082701435888&#45;&#45;2082701432864</title>
<path fill="none" stroke="black" d="M240.23,-438.05C284.08,-450.83 377.77,-478.13 438.23,-495.74"/>
</g>
<!-- 2082701440880 -->
<g id="node5" class="node">
<title>2082701440880</title>
<ellipse fill="none" stroke="black" cx="495.01" cy="-458" rx="27" ry="18"/>
<text text-anchor="middle" x="495.01" y="-452" font-family="Times New Roman,serif" font-size="15.00">xor</text>
</g>
<!-- 2082701435888&#45;&#45;2082701440880 -->
<g id="edge5" class="edge">
<title>2082701435888&#45;&#45;2082701440880</title>
<path fill="none" stroke="black" d="M242.2,-433.54C295.31,-438.7 415.25,-450.35 468.14,-455.49"/>
</g>
<!-- 2082701429888 -->
<g id="node8" class="node">
<title>2082701429888</title>
<ellipse fill="none" stroke="black" cx="495.01" cy="-404" rx="27" ry="18"/>
<text text-anchor="middle" x="495.01" y="-398" font-family="Times New Roman,serif" font-size="15.00">seq</text>
</g>
<!-- 2082701435888&#45;&#45;2082701429888 -->
<g id="edge63" class="edge">
<title>2082701435888&#45;&#45;2082701429888</title>
<path fill="none" stroke="black" d="M242.2,-428.46C295.31,-423.3 415.25,-411.65 468.14,-406.51"/>
</g>
<!-- 2082701427152 -->
<g id="node6" class="node">
<title>2082701427152</title>
<ellipse fill="black" stroke="black" cx="813.36" cy="-497" rx="2.7" ry="2.7"/>
</g>
<!-- 2082701440880&#45;&#45;2082701427152 -->
<g id="edge3" class="edge">
<title>2082701440880&#45;&#45;2082701427152</title>
<path fill="none" stroke="black" d="M521.9,-461.19C593.32,-470 789.27,-494.15 810.49,-496.77"/>
</g>
<!-- 2082701441792 -->
<g id="node7" class="node">
<title>2082701441792</title>
<ellipse fill="none" stroke="black" cx="813.36" cy="-458" rx="163.44" ry="18"/>
<text text-anchor="middle" x="813.36" y="-452" font-family="Times New Roman,serif" font-size="15.00">Log date termination request received</text>
</g>
<!-- 2082701440880&#45;&#45;2082701441792 -->
<g id="edge4" class="edge">
<title>2082701440880&#45;&#45;2082701441792</title>
<path fill="none" stroke="black" d="M522.44,-458C551.32,-458 600.1,-458 649.49,-458"/>
</g>
<!-- 2082701431712 -->
<g id="node9" class="node">
<title>2082701431712</title>
<ellipse fill="none" stroke="black" cx="813.36" cy="-404" rx="27" ry="18"/>
<text text-anchor="middle" x="813.36" y="-398" font-family="Times New Roman,serif" font-size="15.00">and</text>
</g>
<!-- 2082701429888&#45;&#45;2082701431712 -->
<g id="edge59" class="edge">
<title>2082701429888&#45;&#45;2082701431712</title>
<path fill="none" stroke="black" d="M522.44,-404C582.14,-404 726.82,-404 786.23,-404"/>
</g>
<!-- 2082701432720 -->
<g id="node63" class="node">
<title>2082701432720</title>
<ellipse fill="none" stroke="black" cx="813.36" cy="-350" rx="27" ry="18"/>
<text text-anchor="middle" x="813.36" y="-344" font-family="Times New Roman,serif" font-size="15.00">xor</text>
</g>
<!-- 2082701429888&#45;&#45;2082701432720 -->
<g id="edge62" class="edge">
<title>2082701429888&#45;&#45;2082701432720</title>
<path fill="none" stroke="black" d="M521.63,-399.63C581.06,-389.48 727.72,-364.45 786.94,-354.34"/>
</g>
<!-- 2082701441456 -->
<g id="node10" class="node">
<title>2082701441456</title>
<ellipse fill="none" stroke="black" cx="1188.52" cy="-454" rx="27" ry="18"/>
<text text-anchor="middle" x="1188.52" y="-448" font-family="Times New Roman,serif" font-size="15.00">xor</text>
</g>
<!-- 2082701431712&#45;&#45;2082701441456 -->
<g id="edge8" class="edge">
<title>2082701431712&#45;&#45;2082701441456</title>
<path fill="none" stroke="black" d="M840.3,-407.48C908.73,-416.64 1093.52,-441.4 1161.75,-450.55"/>
</g>
<!-- 2082701436080 -->
<g id="node13" class="node">
<title>2082701436080</title>
<ellipse fill="none" stroke="black" cx="1188.52" cy="-400" rx="27" ry="18"/>
<text text-anchor="middle" x="1188.52" y="-394" font-family="Times New Roman,serif" font-size="15.00">seq</text>
</g>
<!-- 2082701431712&#45;&#45;2082701436080 -->
<g id="edge58" class="edge">
<title>2082701431712&#45;&#45;2082701436080</title>
<path fill="none" stroke="black" d="M840.6,-403.72C909.12,-402.98 1092.83,-401.02 1161.31,-400.28"/>
</g>
<!-- 2082701434928 -->
<g id="node11" class="node">
<title>2082701434928</title>
<ellipse fill="black" stroke="black" cx="1518.13" cy="-493" rx="2.7" ry="2.7"/>
</g>
<!-- 2082701441456&#45;&#45;2082701434928 -->
<g id="edge6" class="edge">
<title>2082701441456&#45;&#45;2082701434928</title>
<path fill="none" stroke="black" d="M1215.5,-457.09C1288.75,-465.81 1493.05,-490.13 1515.18,-492.77"/>
</g>
<!-- 2082701442512 -->
<g id="node12" class="node">
<title>2082701442512</title>
<ellipse fill="none" stroke="black" cx="1518.13" cy="-454" rx="63.63" ry="18"/>
<text text-anchor="middle" x="1518.13" y="-448" font-family="Times New Roman,serif" font-size="15.00">Log deadline</text>
</g>
<!-- 2082701441456&#45;&#45;2082701442512 -->
<g id="edge7" class="edge">
<title>2082701441456&#45;&#45;2082701442512</title>
<path fill="none" stroke="black" d="M1215.77,-454C1267.1,-454 1381.99,-454 1454.15,-454"/>
</g>
<!-- 2082701430848 -->
<g id="node14" class="node">
<title>2082701430848</title>
<ellipse fill="none" stroke="black" cx="1518.13" cy="-400" rx="27" ry="18"/>
<text text-anchor="middle" x="1518.13" y="-394" font-family="Times New Roman,serif" font-size="15.00">and</text>
</g>
<!-- 2082701436080&#45;&#45;2082701430848 -->
<g id="edge44" class="edge">
<title>2082701436080&#45;&#45;2082701430848</title>
<path fill="none" stroke="black" d="M1215.77,-400C1277.12,-400 1429.28,-400 1490.75,-400"/>
</g>
<!-- 2082701437136 -->
<g id="node50" class="node">
<title>2082701437136</title>
<ellipse fill="none" stroke="black" cx="1518.13" cy="-341" rx="27" ry="18"/>
<text text-anchor="middle" x="1518.13" y="-335" font-family="Times New Roman,serif" font-size="15.00">xor</text>
</g>
<!-- 2082701436080&#45;&#45;2082701437136 -->
<g id="edge57" class="edge">
<title>2082701436080&#45;&#45;2082701437136</title>
<path fill="none" stroke="black" d="M1214.95,-395.42C1276.14,-384.4 1430.99,-356.51 1491.93,-345.54"/>
</g>
<!-- 2082701442656 -->
<g id="node15" class="node">
<title>2082701442656</title>
<ellipse fill="none" stroke="black" cx="1825.21" cy="-454" rx="153.2" ry="18"/>
<text text-anchor="middle" x="1825.21" y="-448" font-family="Times New Roman,serif" font-size="15.00">Record senddate acknowledgement</text>
</g>
<!-- 2082701430848&#45;&#45;2082701442656 -->
<g id="edge9" class="edge">
<title>2082701430848&#45;&#45;2082701442656</title>
<path fill="none" stroke="black" d="M1544.61,-404.51C1586.72,-411.96 1672.66,-427.18 1738.21,-438.78"/>
</g>
<!-- 2082701440208 -->
<g id="node16" class="node">
<title>2082701440208</title>
<ellipse fill="none" stroke="black" cx="1825.21" cy="-400" rx="27" ry="18"/>
<text text-anchor="middle" x="1825.21" y="-394" font-family="Times New Roman,serif" font-size="15.00">seq</text>
</g>
<!-- 2082701430848&#45;&#45;2082701440208 -->
<g id="edge43" class="edge">
<title>2082701430848&#45;&#45;2082701440208</title>
<path fill="none" stroke="black" d="M1545.4,-400C1603.07,-400 1740.18,-400 1797.89,-400"/>
</g>
<!-- 2082701428400 -->
<g id="node17" class="node">
<title>2082701428400</title>
<ellipse fill="none" stroke="black" cx="2135.88" cy="-481" rx="121.47" ry="18"/>
<text text-anchor="middle" x="2135.88" y="-475" font-family="Times New Roman,serif" font-size="15.00">OLO communication active</text>
</g>
<!-- 2082701440208&#45;&#45;2082701428400 -->
<g id="edge10" class="edge">
<title>2082701440208&#45;&#45;2082701428400</title>
<path fill="none" stroke="black" d="M1850.95,-406.49C1899.02,-419.11 2006.28,-447.25 2074.34,-465.11"/>
</g>
<!-- 2082701427728 -->
<g id="node18" class="node">
<title>2082701427728</title>
<ellipse fill="none" stroke="black" cx="2135.88" cy="-427" rx="27" ry="18"/>
<text text-anchor="middle" x="2135.88" y="-421" font-family="Times New Roman,serif" font-size="15.00">and</text>
</g>
<!-- 2082701440208&#45;&#45;2082701427728 -->
<g id="edge39" class="edge">
<title>2082701440208&#45;&#45;2082701427728</title>
<path fill="none" stroke="black" d="M1852.27,-402.28C1910.55,-407.38 2050.9,-419.65 2109.01,-424.74"/>
</g>
<!-- 2082701436176 -->
<g id="node47" class="node">
<title>2082701436176</title>
<ellipse fill="none" stroke="black" cx="2135.88" cy="-373" rx="27" ry="18"/>
<text text-anchor="middle" x="2135.88" y="-367" font-family="Times New Roman,serif" font-size="15.00">xor</text>
</g>
<!-- 2082701440208&#45;&#45;2082701436176 -->
<g id="edge42" class="edge">
<title>2082701440208&#45;&#45;2082701436176</title>
<path fill="none" stroke="black" d="M1852.27,-397.72C1910.55,-392.62 2050.9,-380.35 2109.01,-375.26"/>
</g>
<!-- 2082701436896 -->
<g id="node19" class="node">
<title>2082701436896</title>
<ellipse fill="none" stroke="black" cx="2388.21" cy="-584" rx="45.21" ry="18"/>
<text text-anchor="middle" x="2388.21" y="-578" font-family="Times New Roman,serif" font-size="15.00">xor loop</text>
</g>
<!-- 2082701427728&#45;&#45;2082701436896 -->
<g id="edge13" class="edge">
<title>2082701427728&#45;&#45;2082701436896</title>
<path fill="none" stroke="black" d="M2156.11,-439.06C2201.1,-467.28 2313.18,-537.57 2362.85,-568.72"/>
</g>
<!-- 2082701427392 -->
<g id="node22" class="node">
<title>2082701427392</title>
<ellipse fill="none" stroke="black" cx="2388.21" cy="-427" rx="27" ry="18"/>
<text text-anchor="middle" x="2388.21" y="-421" font-family="Times New Roman,serif" font-size="15.00">seq</text>
</g>
<!-- 2082701427728&#45;&#45;2082701427392 -->
<g id="edge38" class="edge">
<title>2082701427728&#45;&#45;2082701427392</title>
<path fill="none" stroke="black" d="M2163.2,-427C2211.28,-427 2312.78,-427 2360.87,-427"/>
</g>
<!-- 2082701433824 -->
<g id="node20" class="node">
<title>2082701433824</title>
<ellipse fill="none" stroke="black" cx="2666.12" cy="-623" rx="131.19" ry="18"/>
<text text-anchor="middle" x="2666.12" y="-617" font-family="Times New Roman,serif" font-size="15.00">Dispatch confirmation receipt</text>
</g>
<!-- 2082701436896&#45;&#45;2082701433824 -->
<g id="edge11" class="edge">
<title>2082701436896&#45;&#45;2082701433824</title>
<path fill="none" stroke="black" d="M2431.41,-589.97C2468.93,-595.27 2525.08,-603.21 2572.94,-609.97"/>
</g>
<!-- 2082701435696 -->
<g id="node21" class="node">
<title>2082701435696</title>
<ellipse fill="black" stroke="black" cx="2666.12" cy="-584" rx="2.7" ry="2.7"/>
</g>
<!-- 2082701436896&#45;&#45;2082701435696 -->
<g id="edge12" class="edge">
<title>2082701436896&#45;&#45;2082701435696</title>
<path fill="none" stroke="black" d="M2433.85,-584C2506.45,-584 2643.95,-584 2662.93,-584"/>
</g>
<!-- 2082701430032 -->
<g id="node23" class="node">
<title>2082701430032</title>
<ellipse fill="none" stroke="black" cx="2666.12" cy="-545" rx="27" ry="18"/>
<text text-anchor="middle" x="2666.12" y="-539" font-family="Times New Roman,serif" font-size="15.00">xor</text>
</g>
<!-- 2082701427392&#45;&#45;2082701430032 -->
<g id="edge16" class="edge">
<title>2082701427392&#45;&#45;2082701430032</title>
<path fill="none" stroke="black" d="M2411.32,-436.46C2462.98,-458.55 2591.14,-513.36 2642.91,-535.5"/>
</g>
<!-- 2082701437520 -->
<g id="node26" class="node">
<title>2082701437520</title>
<ellipse fill="none" stroke="black" cx="2666.12" cy="-491" rx="27" ry="18"/>
<text text-anchor="middle" x="2666.12" y="-485" font-family="Times New Roman,serif" font-size="15.00">xor</text>
</g>
<!-- 2082701427392&#45;&#45;2082701437520 -->
<g id="edge23" class="edge">
<title>2082701427392&#45;&#45;2082701437520</title>
<path fill="none" stroke="black" d="M2414.18,-432.79C2466.71,-444.98 2588.1,-473.13 2640.41,-485.27"/>
</g>
<!-- 2082701428688 -->
<g id="node33" class="node">
<title>2082701428688</title>
<ellipse fill="none" stroke="black" cx="2666.12" cy="-437" rx="136.82" ry="18"/>
<text text-anchor="middle" x="2666.12" y="-431" font-family="Times New Roman,serif" font-size="15.00">Send to the competent authority</text>
</g>
<!-- 2082701427392&#45;&#45;2082701428688 -->
<g id="edge24" class="edge">
<title>2082701427392&#45;&#45;2082701428688</title>
<path fill="none" stroke="black" d="M2415.66,-427.96C2443.38,-428.96 2489.04,-430.62 2533.76,-432.24"/>
</g>
<!-- 2082701430080 -->
<g id="node34" class="node">
<title>2082701430080</title>
<ellipse fill="none" stroke="black" cx="2666.12" cy="-383" rx="27" ry="18"/>
<text text-anchor="middle" x="2666.12" y="-377" font-family="Times New Roman,serif" font-size="15.00">xor</text>
</g>
<!-- 2082701427392&#45;&#45;2082701430080 -->
<g id="edge27" class="edge">
<title>2082701427392&#45;&#45;2082701430080</title>
<path fill="none" stroke="black" d="M2414.67,-422.94C2467.1,-414.58 2586.6,-395.52 2639.32,-387.11"/>
</g>
<!-- 2082701432768 -->
<g id="node37" class="node">
<title>2082701432768</title>
<ellipse fill="none" stroke="black" cx="2666.12" cy="-329" rx="147.06" ry="18"/>
<text text-anchor="middle" x="2666.12" y="-323" font-family="Times New Roman,serif" font-size="15.00">Standard procedure without MER</text>
</g>
<!-- 2082701427392&#45;&#45;2082701432768 -->
<g id="edge28" class="edge">
<title>2082701427392&#45;&#45;2082701432768</title>
<path fill="none" stroke="black" d="M2412.73,-418.64C2457.63,-402.7 2556.37,-367.63 2616.18,-346.39"/>
</g>
<!-- 2082701430656 -->
<g id="node38" class="node">
<title>2082701430656</title>
<ellipse fill="none" stroke="black" cx="2666.12" cy="-275" rx="27" ry="18"/>
<text text-anchor="middle" x="2666.12" y="-269" font-family="Times New Roman,serif" font-size="15.00">xor</text>
</g>
<!-- 2082701427392&#45;&#45;2082701430656 -->
<g id="edge37" class="edge">
<title>2082701427392&#45;&#45;2082701430656</title>
<path fill="none" stroke="black" d="M2409.5,-415.82C2460.52,-387.71 2593.75,-314.32 2644.81,-286.19"/>
</g>
<!-- 2082701432384 -->
<g id="node24" class="node">
<title>2082701432384</title>
<ellipse fill="black" stroke="black" cx="3066.36" cy="-578" rx="2.7" ry="2.7"/>
</g>
<!-- 2082701430032&#45;&#45;2082701432384 -->
<g id="edge14" class="edge">
<title>2082701430032&#45;&#45;2082701432384</title>
<path fill="none" stroke="black" d="M2693.25,-547.17C2777.35,-554.13 3037.07,-575.66 3063.23,-577.82"/>
</g>
<!-- 2082701435408 -->
<g id="node25" class="node">
<title>2082701435408</title>
<ellipse fill="none" stroke="black" cx="3066.36" cy="-539" rx="116.86" ry="18"/>
<text text-anchor="middle" x="3066.36" y="-533" font-family="Times New Roman,serif" font-size="15.00">Applicant is a stakeholder</text>
</g>
<!-- 2082701430032&#45;&#45;2082701435408 -->
<g id="edge15" class="edge">
<title>2082701430032&#45;&#45;2082701435408</title>
<path fill="none" stroke="black" d="M2693.56,-544.6C2744.9,-543.83 2860.82,-542.08 2949.68,-540.74"/>
</g>
<!-- 2082701436704 -->
<g id="node27" class="node">
<title>2082701436704</title>
<ellipse fill="black" stroke="black" cx="3066.36" cy="-495" rx="2.7" ry="2.7"/>
</g>
<!-- 2082701437520&#45;&#45;2082701436704 -->
<g id="edge17" class="edge">
<title>2082701437520&#45;&#45;2082701436704</title>
<path fill="none" stroke="black" d="M2693.56,-491.27C2777.99,-492.11 3037.13,-494.72 3063.23,-494.98"/>
</g>
<!-- 2082701440592 -->
<g id="node28" class="node">
<title>2082701440592</title>
<ellipse fill="none" stroke="black" cx="3066.36" cy="-456" rx="27" ry="18"/>
<text text-anchor="middle" x="3066.36" y="-450" font-family="Times New Roman,serif" font-size="15.00">seq</text>
</g>
<!-- 2082701437520&#45;&#45;2082701440592 -->
<g id="edge22" class="edge">
<title>2082701437520&#45;&#45;2082701440592</title>
<path fill="none" stroke="black" d="M2693.25,-488.7C2765.41,-482.36 2966.86,-464.66 3039.13,-458.3"/>
</g>
<!-- 2082701429024 -->
<g id="node29" class="node">
<title>2082701429024</title>
<ellipse fill="none" stroke="black" cx="3427.7" cy="-483" rx="70.8" ry="18"/>
<text text-anchor="middle" x="3427.7" y="-477" font-family="Times New Roman,serif" font-size="15.00">End on request</text>
</g>
<!-- 2082701440592&#45;&#45;2082701429024 -->
<g id="edge18" class="edge">
<title>2082701440592&#45;&#45;2082701429024</title>
<path fill="none" stroke="black" d="M3093.49,-457.96C3148.73,-462.11 3278.84,-471.89 3359.16,-477.93"/>
</g>
<!-- 2082701436512 -->
<g id="node30" class="node">
<title>2082701436512</title>
<ellipse fill="none" stroke="black" cx="3427.7" cy="-429" rx="27" ry="18"/>
<text text-anchor="middle" x="3427.7" y="-423" font-family="Times New Roman,serif" font-size="15.00">xor</text>
</g>
<!-- 2082701440592&#45;&#45;2082701436512 -->
<g id="edge21" class="edge">
<title>2082701440592&#45;&#45;2082701436512</title>
<path fill="none" stroke="black" d="M3093.49,-454.04C3159.87,-449.05 3334.39,-435.94 3400.67,-430.96"/>
</g>
<!-- 2082701438912 -->
<g id="node31" class="node">
<title>2082701438912</title>
<ellipse fill="black" stroke="black" cx="3716.36" cy="-449" rx="2.7" ry="2.7"/>
</g>
<!-- 2082701436512&#45;&#45;2082701438912 -->
<g id="edge19" class="edge">
<title>2082701436512&#45;&#45;2082701438912</title>
<path fill="none" stroke="black" d="M3454.9,-430.83C3521.24,-435.46 3692.11,-447.38 3713.21,-448.85"/>
</g>
<!-- 2082701435120 -->
<g id="node32" class="node">
<title>2082701435120</title>
<ellipse fill="none" stroke="black" cx="3716.36" cy="-410" rx="129.15" ry="18"/>
<text text-anchor="middle" x="3716.36" y="-404" font-family="Times New Roman,serif" font-size="15.00">Compute provisional charges</text>
</g>
<!-- 2082701436512&#45;&#45;2082701435120 -->
<g id="edge20" class="edge">
<title>2082701436512&#45;&#45;2082701435120</title>
<path fill="none" stroke="black" d="M3454.9,-427.26C3487.59,-425.1 3545.65,-421.25 3598.67,-417.73"/>
</g>
<!-- 2082701440304 -->
<g id="node35" class="node">
<title>2082701440304</title>
<ellipse fill="black" stroke="black" cx="3066.36" cy="-405" rx="2.7" ry="2.7"/>
</g>
<!-- 2082701430080&#45;&#45;2082701440304 -->
<g id="edge25" class="edge">
<title>2082701430080&#45;&#45;2082701440304</title>
<path fill="none" stroke="black" d="M2693.25,-384.44C2777.35,-389.09 3037.07,-403.44 3063.23,-404.88"/>
</g>
<!-- 2082701430704 -->
<g id="node36" class="node">
<title>2082701430704</title>
<ellipse fill="none" stroke="black" cx="3066.36" cy="-366" rx="116.35" ry="18"/>
<text text-anchor="middle" x="3066.36" y="-360" font-family="Times New Roman,serif" font-size="15.00">Notify BAG administrator</text>
</g>
<!-- 2082701430080&#45;&#45;2082701430704 -->
<g id="edge26" class="edge">
<title>2082701430080&#45;&#45;2082701430704</title>
<path fill="none" stroke="black" d="M2693.56,-381.87C2745.68,-379.65 2864.37,-374.58 2953.72,-370.77"/>
</g>
<!-- 2082701441408 -->
<g id="node39" class="node">
<title>2082701441408</title>
<ellipse fill="black" stroke="black" cx="3066.36" cy="-314" rx="2.7" ry="2.7"/>
</g>
<!-- 2082701430656&#45;&#45;2082701441408 -->
<g id="edge29" class="edge">
<title>2082701430656&#45;&#45;2082701441408</title>
<path fill="none" stroke="black" d="M2693.25,-277.56C2777.35,-285.79 3037.07,-311.23 3063.23,-313.79"/>
</g>
<!-- 2082701440832 -->
<g id="node40" class="node">
<title>2082701440832</title>
<ellipse fill="none" stroke="black" cx="3066.36" cy="-275" rx="27" ry="18"/>
<text text-anchor="middle" x="3066.36" y="-269" font-family="Times New Roman,serif" font-size="15.00">and</text>
</g>
<!-- 2082701430656&#45;&#45;2082701440832 -->
<g id="edge36" class="edge">
<title>2082701430656&#45;&#45;2082701440832</title>
<path fill="none" stroke="black" d="M2693.56,-275C2765.92,-275 2966.59,-275 3038.93,-275"/>
</g>
<!-- 2082705095040 -->
<g id="node41" class="node">
<title>2082705095040</title>
<ellipse fill="none" stroke="black" cx="3427.7" cy="-302" rx="108.16" ry="18"/>
<text text-anchor="middle" x="3427.7" y="-296" font-family="Times New Roman,serif" font-size="15.00">Begin WABOprocedure</text>
</g>
<!-- 2082701440832&#45;&#45;2082705095040 -->
<g id="edge30" class="edge">
<title>2082701440832&#45;&#45;2082705095040</title>
<path fill="none" stroke="black" d="M3093.49,-276.96C3142.11,-280.62 3248.72,-288.63 3328.34,-294.61"/>
</g>
<!-- 2082705095712 -->
<g id="node42" class="node">
<title>2082705095712</title>
<ellipse fill="none" stroke="black" cx="3427.7" cy="-248" rx="27" ry="18"/>
<text text-anchor="middle" x="3427.7" y="-242" font-family="Times New Roman,serif" font-size="15.00">seq</text>
</g>
<!-- 2082701440832&#45;&#45;2082705095712 -->
<g id="edge35" class="edge">
<title>2082701440832&#45;&#45;2082705095712</title>
<path fill="none" stroke="black" d="M3093.49,-273.04C3159.87,-268.05 3334.39,-254.94 3400.67,-249.96"/>
</g>
<!-- 2082705095808 -->
<g id="node43" class="node">
<title>2082705095808</title>
<ellipse fill="none" stroke="black" cx="3716.36" cy="-275" rx="144.5" ry="18"/>
<text text-anchor="middle" x="3716.36" y="-269" font-family="Times New Roman,serif" font-size="15.00">Generate procedure confirmation</text>
</g>
<!-- 2082705095712&#45;&#45;2082705095808 -->
<g id="edge31" class="edge">
<title>2082705095712&#45;&#45;2082705095808</title>
<path fill="none" stroke="black" d="M3454.9,-250.47C3487.79,-253.57 3546.39,-259.08 3599.68,-264.1"/>
</g>
<!-- 2082705086016 -->
<g id="node44" class="node">
<title>2082705086016</title>
<ellipse fill="none" stroke="black" cx="3716.36" cy="-221" rx="27" ry="18"/>
<text text-anchor="middle" x="3716.36" y="-215" font-family="Times New Roman,serif" font-size="15.00">xor</text>
</g>
<!-- 2082705095712&#45;&#45;2082705086016 -->
<g id="edge34" class="edge">
<title>2082705095712&#45;&#45;2082705086016</title>
<path fill="none" stroke="black" d="M3454.9,-245.53C3509.49,-240.39 3634.88,-228.58 3689.33,-223.45"/>
</g>
<!-- 2082705087312 -->
<g id="node45" class="node">
<title>2082705087312</title>
<ellipse fill="black" stroke="black" cx="3940.03" cy="-241" rx="2.7" ry="2.7"/>
</g>
<!-- 2082705086016&#45;&#45;2082705087312 -->
<g id="edge32" class="edge">
<title>2082705086016&#45;&#45;2082705087312</title>
<path fill="none" stroke="black" d="M3743.22,-223.33C3797.58,-228.24 3920.1,-239.29 3937.06,-240.82"/>
</g>
<!-- 2082705090624 -->
<g id="node46" class="node">
<title>2082705090624</title>
<ellipse fill="none" stroke="black" cx="3940.03" cy="-202" rx="43.16" ry="18"/>
<text text-anchor="middle" x="3940.03" y="-196" font-family="Times New Roman,serif" font-size="15.00">Release</text>
</g>
<!-- 2082705086016&#45;&#45;2082705090624 -->
<g id="edge33" class="edge">
<title>2082705086016&#45;&#45;2082705090624</title>
<path fill="none" stroke="black" d="M3743.22,-218.78C3781.14,-215.53 3852.21,-209.44 3897.5,-205.56"/>
</g>
<!-- 2082701442416 -->
<g id="node48" class="node">
<title>2082701442416</title>
<ellipse fill="black" stroke="black" cx="2388.21" cy="-381" rx="2.7" ry="2.7"/>
</g>
<!-- 2082701436176&#45;&#45;2082701442416 -->
<g id="edge40" class="edge">
<title>2082701436176&#45;&#45;2082701442416</title>
<path fill="none" stroke="black" d="M2163.2,-373.84C2223.2,-375.76 2366.41,-380.34 2385.17,-380.93"/>
</g>
<!-- 2082701436128 -->
<g id="node49" class="node">
<title>2082701436128</title>
<ellipse fill="none" stroke="black" cx="2388.21" cy="-342" rx="94.86" ry="18"/>
<text text-anchor="middle" x="2388.21" y="-336" font-family="Times New Roman,serif" font-size="15.00">Inspect BAG objects</text>
</g>
<!-- 2082701436176&#45;&#45;2082701436128 -->
<g id="edge41" class="edge">
<title>2082701436176&#45;&#45;2082701436128</title>
<path fill="none" stroke="black" d="M2162.73,-369.8C2196.65,-365.6 2257.71,-358.04 2307.6,-351.86"/>
</g>
<!-- 2082701442320 -->
<g id="node51" class="node">
<title>2082701442320</title>
<ellipse fill="black" stroke="black" cx="1825.21" cy="-341" rx="2.7" ry="2.7"/>
</g>
<!-- 2082701437136&#45;&#45;2082701442320 -->
<g id="edge45" class="edge">
<title>2082701437136&#45;&#45;2082701442320</title>
<path fill="none" stroke="black" d="M1545.4,-341C1615.36,-341 1802.2,-341 1822.43,-341"/>
</g>
<!-- 2082701430464 -->
<g id="node52" class="node">
<title>2082701430464</title>
<ellipse fill="none" stroke="black" cx="1825.21" cy="-283" rx="27" ry="18"/>
<text text-anchor="middle" x="1825.21" y="-277" font-family="Times New Roman,serif" font-size="15.00">seq</text>
</g>
<!-- 2082701437136&#45;&#45;2082701430464 -->
<g id="edge56" class="edge">
<title>2082701437136&#45;&#45;2082701430464</title>
<path fill="none" stroke="black" d="M1544.61,-336.15C1602.18,-325.21 1741.72,-298.68 1799.01,-287.79"/>
</g>
<!-- 2082705082656 -->
<g id="node53" class="node">
<title>2082705082656</title>
<ellipse fill="none" stroke="black" cx="2135.88" cy="-283" rx="27" ry="18"/>
<text text-anchor="middle" x="2135.88" y="-277" font-family="Times New Roman,serif" font-size="15.00">xor</text>
</g>
<!-- 2082701430464&#45;&#45;2082705082656 -->
<g id="edge54" class="edge">
<title>2082701430464&#45;&#45;2082705082656</title>
<path fill="none" stroke="black" d="M1852.53,-283C1910.85,-283 2050.38,-283 2108.63,-283"/>
</g>
<!-- 2082705086736 -->
<g id="node62" class="node">
<title>2082705086736</title>
<ellipse fill="none" stroke="black" cx="2135.88" cy="-229" rx="119.42" ry="18"/>
<text text-anchor="middle" x="2135.88" y="-223" font-family="Times New Roman,serif" font-size="15.00">Phase procedure cancelled</text>
</g>
<!-- 2082701430464&#45;&#45;2082705086736 -->
<g id="edge55" class="edge">
<title>2082701430464&#45;&#45;2082705086736</title>
<path fill="none" stroke="black" d="M1851.74,-278.54C1896.01,-270.79 1988.74,-254.57 2056.05,-242.79"/>
</g>
<!-- 2082705082608 -->
<g id="node54" class="node">
<title>2082705082608</title>
<ellipse fill="black" stroke="black" cx="2388.21" cy="-283" rx="2.7" ry="2.7"/>
</g>
<!-- 2082705082656&#45;&#45;2082705082608 -->
<g id="edge46" class="edge">
<title>2082705082656&#45;&#45;2082705082608</title>
<path fill="none" stroke="black" d="M2163.2,-283C2223.2,-283 2366.41,-283 2385.17,-283"/>
</g>
<!-- 2082705087600 -->
<g id="node55" class="node">
<title>2082705087600</title>
<ellipse fill="none" stroke="black" cx="2388.21" cy="-202" rx="27" ry="18"/>
<text text-anchor="middle" x="2388.21" y="-196" font-family="Times New Roman,serif" font-size="15.00">seq</text>
</g>
<!-- 2082705082656&#45;&#45;2082705087600 -->
<g id="edge53" class="edge">
<title>2082705082656&#45;&#45;2082705087600</title>
<path fill="none" stroke="black" d="M2160.43,-275.38C2208.14,-259.94 2315.73,-225.13 2363.54,-209.66"/>
</g>
<!-- 2082705081744 -->
<g id="node56" class="node">
<title>2082705081744</title>
<ellipse fill="none" stroke="black" cx="2666.12" cy="-202" rx="27" ry="18"/>
<text text-anchor="middle" x="2666.12" y="-196" font-family="Times New Roman,serif" font-size="15.00">xor</text>
</g>
<!-- 2082705087600&#45;&#45;2082705081744 -->
<g id="edge49" class="edge">
<title>2082705087600&#45;&#45;2082705081744</title>
<path fill="none" stroke="black" d="M2415.66,-202C2468.4,-202 2586.07,-202 2638.75,-202"/>
</g>
<!-- 2082705094464 -->
<g id="node59" class="node">
<title>2082705094464</title>
<ellipse fill="none" stroke="black" cx="2666.12" cy="-143" rx="27" ry="18"/>
<text text-anchor="middle" x="2666.12" y="-137" font-family="Times New Roman,serif" font-size="15.00">and</text>
</g>
<!-- 2082705087600&#45;&#45;2082705094464 -->
<g id="edge52" class="edge">
<title>2082705087600&#45;&#45;2082705094464</title>
<path fill="none" stroke="black" d="M2414.18,-196.66C2466.58,-185.46 2587.49,-159.6 2640.01,-148.37"/>
</g>
<!-- 2082705095376 -->
<g id="node57" class="node">
<title>2082705095376</title>
<ellipse fill="black" stroke="black" cx="3066.36" cy="-236" rx="2.7" ry="2.7"/>
</g>
<!-- 2082705081744&#45;&#45;2082705095376 -->
<g id="edge47" class="edge">
<title>2082705081744&#45;&#45;2082705095376</title>
<path fill="none" stroke="black" d="M2693.25,-204.23C2777.35,-211.41 3037.07,-233.58 3063.23,-235.82"/>
</g>
<!-- 2082705096336 -->
<g id="node58" class="node">
<title>2082705096336</title>
<ellipse fill="none" stroke="black" cx="3066.36" cy="-197" rx="140.41" ry="18"/>
<text text-anchor="middle" x="3066.36" y="-191" font-family="Times New Roman,serif" font-size="15.00">phase demands only notification</text>
</g>
<!-- 2082705081744&#45;&#45;2082705096336 -->
<g id="edge48" class="edge">
<title>2082705081744&#45;&#45;2082705096336</title>
<path fill="none" stroke="black" d="M2693.56,-201.67C2740.47,-201.08 2841.29,-199.81 2926.13,-198.75"/>
</g>
<!-- 2082705093792 -->
<g id="node60" class="node">
<title>2082705093792</title>
<ellipse fill="none" stroke="black" cx="3066.36" cy="-143" rx="217.18" ry="18"/>
<text text-anchor="middle" x="3066.36" y="-137" font-family="Times New Roman,serif" font-size="15.00">log senddate letter no permit or notification needed</text>
</g>
<!-- 2082705094464&#45;&#45;2082705093792 -->
<g id="edge50" class="edge">
<title>2082705094464&#45;&#45;2082705093792</title>
<path fill="none" stroke="black" d="M2693.56,-143C2726.65,-143 2786.59,-143 2848.82,-143"/>
</g>
<!-- 2082705080400 -->
<g id="node61" class="node">
<title>2082705080400</title>
<ellipse fill="none" stroke="black" cx="3066.36" cy="-89" rx="205.41" ry="18"/>
<text text-anchor="middle" x="3066.36" y="-83" font-family="Times New Roman,serif" font-size="15.00">draft letter for no permit or notification required</text>
</g>
<!-- 2082705094464&#45;&#45;2082705080400 -->
<g id="edge51" class="edge">
<title>2082705094464&#45;&#45;2082705080400</title>
<path fill="none" stroke="black" d="M2692.95,-139.5C2744.39,-132.52 2862.44,-116.52 2951.94,-104.38"/>
</g>
<!-- 2082701434496 -->
<g id="node64" class="node">
<title>2082701434496</title>
<ellipse fill="black" stroke="black" cx="1188.52" cy="-354" rx="2.7" ry="2.7"/>
</g>
<!-- 2082701432720&#45;&#45;2082701434496 -->
<g id="edge60" class="edge">
<title>2082701432720&#45;&#45;2082701434496</title>
<path fill="none" stroke="black" d="M840.6,-350.28C921.23,-351.15 1161.37,-353.72 1185.55,-353.98"/>
</g>
<!-- 2082701428304 -->
<g id="node65" class="node">
<title>2082701428304</title>
<ellipse fill="none" stroke="black" cx="1188.52" cy="-315" rx="173.67" ry="18"/>
<text text-anchor="middle" x="1188.52" y="-309" font-family="Times New Roman,serif" font-size="15.00">Prematurely terminated phase procedure</text>
</g>
<!-- 2082701432720&#45;&#45;2082701428304 -->
<g id="edge61" class="edge">
<title>2082701432720&#45;&#45;2082701428304</title>
<path fill="none" stroke="black" d="M840.6,-347.54C885.31,-343.35 979.07,-334.55 1057.86,-327.16"/>
</g>
<!-- 2082701441360 -->
<g id="node67" class="node">
<title>2082701441360</title>
<ellipse fill="black" stroke="black" cx="495.01" cy="-335" rx="2.7" ry="2.7"/>
</g>
<!-- 2082701432336&#45;&#45;2082701441360 -->
<g id="edge65" class="edge">
<title>2082701432336&#45;&#45;2082701441360</title>
<path fill="none" stroke="black" d="M241.95,-299.63C306.64,-308.71 471.58,-331.85 491.94,-334.71"/>
</g>
<!-- 2082701440784 -->
<g id="node68" class="node">
<title>2082701440784</title>
<ellipse fill="none" stroke="black" cx="495.01" cy="-296" rx="69.26" ry="18"/>
<text text-anchor="middle" x="495.01" y="-290" font-family="Times New Roman,serif" font-size="15.00">Close the case</text>
</g>
<!-- 2082701432336&#45;&#45;2082701440784 -->
<g id="edge66" class="edge">
<title>2082701432336&#45;&#45;2082701440784</title>
<path fill="none" stroke="black" d="M242.45,-296C284.06,-296 366.21,-296 425.33,-296"/>
</g>
<!-- 2082701433344 -->
<g id="node69" class="node">
<title>2082701433344</title>
<ellipse fill="none" stroke="black" cx="495.01" cy="-242" rx="27" ry="18"/>
<text text-anchor="middle" x="495.01" y="-236" font-family="Times New Roman,serif" font-size="15.00">seq</text>
</g>
<!-- 2082701432336&#45;&#45;2082701433344 -->
<g id="edge70" class="edge">
<title>2082701432336&#45;&#45;2082701433344</title>
<path fill="none" stroke="black" d="M241.21,-291.11C294,-280.86 415.8,-257.19 468.71,-246.92"/>
</g>
<!-- 2082705088512 -->
<g id="node73" class="node">
<title>2082705088512</title>
<ellipse fill="none" stroke="black" cx="495.01" cy="-134" rx="27" ry="18"/>
<text text-anchor="middle" x="495.01" y="-128" font-family="Times New Roman,serif" font-size="15.00">seq</text>
</g>
<!-- 2082701432336&#45;&#45;2082705088512 -->
<g id="edge79" class="edge">
<title>2082701432336&#45;&#45;2082705088512</title>
<path fill="none" stroke="black" d="M236.04,-284.35C287.2,-254.53 422.46,-175.7 473.83,-145.76"/>
</g>
<!-- 2082705080976 -->
<g id="node70" class="node">
<title>2082705080976</title>
<ellipse fill="none" stroke="black" cx="813.36" cy="-296" rx="69.78" ry="18"/>
<text text-anchor="middle" x="813.36" y="-290" font-family="Times New Roman,serif" font-size="15.00">MER included</text>
</g>
<!-- 2082701433344&#45;&#45;2082705080976 -->
<g id="edge67" class="edge">
<title>2082701433344&#45;&#45;2082705080976</title>
<path fill="none" stroke="black" d="M521.63,-246.37C571.94,-254.96 684.76,-274.22 754.13,-286.06"/>
</g>
<!-- 2082705096048 -->
<g id="node71" class="node">
<title>2082705096048</title>
<ellipse fill="none" stroke="black" cx="813.36" cy="-242" rx="126.08" ry="18"/>
<text text-anchor="middle" x="813.36" y="-236" font-family="Times New Roman,serif" font-size="15.00">Regular procedure activities</text>
</g>
<!-- 2082701433344&#45;&#45;2082705096048 -->
<g id="edge68" class="edge">
<title>2082701433344&#45;&#45;2082705096048</title>
<path fill="none" stroke="black" d="M522.44,-242C558.67,-242 626.22,-242 687,-242"/>
</g>
<!-- 2082705085440 -->
<g id="node72" class="node">
<title>2082705085440</title>
<ellipse fill="none" stroke="black" cx="813.36" cy="-188" rx="87.69" ry="18"/>
<text text-anchor="middle" x="813.36" y="-182" font-family="Times New Roman,serif" font-size="15.00">Phased application</text>
</g>
<!-- 2082701433344&#45;&#45;2082705085440 -->
<g id="edge69" class="edge">
<title>2082701433344&#45;&#45;2082705085440</title>
<path fill="none" stroke="black" d="M521.63,-237.63C569.73,-229.42 674.98,-211.45 744.76,-199.54"/>
</g>
<!-- 2082705084912 -->
<g id="node74" class="node">
<title>2082705084912</title>
<ellipse fill="none" stroke="black" cx="813.36" cy="-134" rx="27" ry="18"/>
<text text-anchor="middle" x="813.36" y="-128" font-family="Times New Roman,serif" font-size="15.00">and</text>
</g>
<!-- 2082705088512&#45;&#45;2082705084912 -->
<g id="edge73" class="edge">
<title>2082705088512&#45;&#45;2082705084912</title>
<path fill="none" stroke="black" d="M522.44,-134C582.14,-134 726.82,-134 786.23,-134"/>
</g>
<!-- 2082705091200 -->
<g id="node77" class="node">
<title>2082705091200</title>
<ellipse fill="none" stroke="black" cx="813.36" cy="-80" rx="27" ry="18"/>
<text text-anchor="middle" x="813.36" y="-74" font-family="Times New Roman,serif" font-size="15.00">xor</text>
</g>
<!-- 2082705088512&#45;&#45;2082705091200 -->
<g id="edge78" class="edge">
<title>2082705088512&#45;&#45;2082705091200</title>
<path fill="none" stroke="black" d="M521.63,-129.63C581.06,-119.48 727.72,-94.45 786.94,-84.34"/>
</g>
<!-- 2082705084576 -->
<g id="node75" class="node">
<title>2082705084576</title>
<ellipse fill="none" stroke="black" cx="1188.52" cy="-184" rx="175.72" ry="18"/>
<text text-anchor="middle" x="1188.52" y="-178" font-family="Times New Roman,serif" font-size="15.00">Record senddate procedure confirmation</text>
</g>
<!-- 2082705084912&#45;&#45;2082705084576 -->
<g id="edge71" class="edge">
<title>2082705084912&#45;&#45;2082705084576</title>
<path fill="none" stroke="black" d="M840.3,-137.48C889.06,-144.01 996.9,-158.46 1079.55,-169.53"/>
</g>
<!-- 2082705085008 -->
<g id="node76" class="node">
<title>2082705085008</title>
<ellipse fill="none" stroke="black" cx="1188.52" cy="-130" rx="143.99" ry="18"/>
<text text-anchor="middle" x="1188.52" y="-124" font-family="Times New Roman,serif" font-size="15.00">Dispatch procedure confirmation</text>
</g>
<!-- 2082705084912&#45;&#45;2082705085008 -->
<g id="edge72" class="edge">
<title>2082705084912&#45;&#45;2082705085008</title>
<path fill="none" stroke="black" d="M840.6,-133.72C882.82,-133.27 968.78,-132.34 1044.57,-131.53"/>
</g>
<!-- 2082705087024 -->
<g id="node78" class="node">
<title>2082705087024</title>
<ellipse fill="black" stroke="black" cx="1188.52" cy="-84" rx="2.7" ry="2.7"/>
</g>
<!-- 2082705091200&#45;&#45;2082705087024 -->
<g id="edge74" class="edge">
<title>2082705091200&#45;&#45;2082705087024</title>
<path fill="none" stroke="black" d="M840.6,-80.28C921.23,-81.15 1161.37,-83.72 1185.55,-83.98"/>
</g>
<!-- 2082705081936 -->
<g id="node79" class="node">
<title>2082705081936</title>
<ellipse fill="none" stroke="black" cx="1188.52" cy="-45" rx="27" ry="18"/>
<text text-anchor="middle" x="1188.52" y="-39" font-family="Times New Roman,serif" font-size="15.00">seq</text>
</g>
<!-- 2082705091200&#45;&#45;2082705081936 -->
<g id="edge77" class="edge">
<title>2082705091200&#45;&#45;2082705081936</title>
<path fill="none" stroke="black" d="M840.6,-77.54C909.12,-71.11 1092.83,-53.88 1161.31,-47.46"/>
</g>
<!-- 2082705087264 -->
<g id="node80" class="node">
<title>2082705087264</title>
<ellipse fill="none" stroke="black" cx="1518.13" cy="-72" rx="117.89" ry="18"/>
<text text-anchor="middle" x="1518.13" y="-66" font-family="Times New Roman,serif" font-size="15.00">Extend procedure duration</text>
</g>
<!-- 2082705081936&#45;&#45;2082705087264 -->
<g id="edge75" class="edge">
<title>2082705081936&#45;&#45;2082705087264</title>
<path fill="none" stroke="black" d="M1215.77,-47.16C1258.21,-50.66 1344.12,-57.74 1413.39,-63.45"/>
</g>
<!-- 2082705085680 -->
<g id="node81" class="node">
<title>2082705085680</title>
<ellipse fill="none" stroke="black" cx="1518.13" cy="-18" rx="93.83" ry="18"/>
<text text-anchor="middle" x="1518.13" y="-12" font-family="Times New Roman,serif" font-size="15.00">Log date publication</text>
</g>
<!-- 2082705081936&#45;&#45;2082705085680 -->
<g id="edge76" class="edge">
<title>2082705081936&#45;&#45;2082705085680</title>
<path fill="none" stroke="black" d="M1215.77,-42.84C1261.93,-39.03 1359.52,-30.99 1431.19,-25.08"/>
</g>
</g>
</svg>
