<?xml version="1.0" encoding="UTF-8" standalone="no"?>
<!DOCTYPE svg PUBLIC "-//W3C//DTD SVG 1.1//EN"
 "http://www.w3.org/Graphics/SVG/1.1/DTD/svg11.dtd">
<!-- Generated by graphviz version 11.0.0 (20240428.1522)
 -->
<!-- Title: pt Pages: 1 -->
<svg width="1969pt" height="570pt"
 viewBox="0.00 0.00 1968.77 570.00" xmlns="http://www.w3.org/2000/svg" xmlns:xlink="http://www.w3.org/1999/xlink">
<g id="graph0" class="graph" transform="scale(1 1) rotate(0) translate(4 566)">
<title>pt</title>
<polygon fill="white" stroke="none" points="-4,4 -4,-566 1964.77,-566 1964.77,4 -4,4"/>
<!-- 2082706080592 -->
<g id="node1" class="node">
<title>2082706080592</title>
<ellipse fill="none" stroke="black" cx="27" cy="-275" rx="27" ry="18"/>
<text text-anchor="middle" x="27" y="-269" font-family="Times New Roman,serif" font-size="15.00">seq</text>
</g>
<!-- 2082704916016 -->
<g id="node2" class="node">
<title>2082704916016</title>
<ellipse fill="none" stroke="black" cx="117" cy="-369" rx="27" ry="18"/>
<text text-anchor="middle" x="117" y="-363" font-family="Times New Roman,serif" font-size="15.00">xor</text>
</g>
<!-- 2082706080592&#45;&#45;2082704916016 -->
<g id="edge22" class="edge">
<title>2082706080592&#45;&#45;2082704916016</title>
<path fill="none" stroke="black" d="M42.14,-290.1C58.56,-307.64 85.49,-336.41 101.9,-353.93"/>
</g>
<!-- 2082704904400 -->
<g id="node24" class="node">
<title>2082704904400</title>
<ellipse fill="none" stroke="black" cx="117" cy="-194" rx="27" ry="18"/>
<text text-anchor="middle" x="117" y="-188" font-family="Times New Roman,serif" font-size="15.00">xor</text>
</g>
<!-- 2082706080592&#45;&#45;2082704904400 -->
<g id="edge36" class="edge">
<title>2082706080592&#45;&#45;2082704904400</title>
<path fill="none" stroke="black" d="M43.73,-260.52C59.75,-245.78 84.44,-223.05 100.4,-208.36"/>
</g>
<!-- 2082704904832 -->
<g id="node3" class="node">
<title>2082704904832</title>
<ellipse fill="black" stroke="black" cx="207" cy="-408" rx="2.7" ry="2.7"/>
</g>
<!-- 2082704916016&#45;&#45;2082704904832 -->
<g id="edge1" class="edge">
<title>2082704916016&#45;&#45;2082704904832</title>
<path fill="none" stroke="black" d="M140.21,-378.84C163.02,-388.95 196.28,-403.69 204.24,-407.22"/>
</g>
<!-- 2082704901328 -->
<g id="node4" class="node">
<title>2082704901328</title>
<ellipse fill="none" stroke="black" cx="207" cy="-369" rx="27" ry="18"/>
<text text-anchor="middle" x="207" y="-363" font-family="Times New Roman,serif" font-size="15.00">seq</text>
</g>
<!-- 2082704916016&#45;&#45;2082704901328 -->
<g id="edge21" class="edge">
<title>2082704916016&#45;&#45;2082704901328</title>
<path fill="none" stroke="black" d="M144.4,-369C155.54,-369 168.48,-369 179.62,-369"/>
</g>
<!-- 2082704912656 -->
<g id="node5" class="node">
<title>2082704912656</title>
<ellipse fill="none" stroke="black" cx="459.03" cy="-504" rx="139.38" ry="18"/>
<text text-anchor="middle" x="459.03" y="-498" font-family="Times New Roman,serif" font-size="15.00">Record submission date request</text>
</g>
<!-- 2082704901328&#45;&#45;2082704912656 -->
<g id="edge2" class="edge">
<title>2082704901328&#45;&#45;2082704912656</title>
<path fill="none" stroke="black" d="M228.46,-380.05C271.73,-403.41 372.83,-458 425.23,-486.29"/>
</g>
<!-- 2082704906560 -->
<g id="node6" class="node">
<title>2082704906560</title>
<ellipse fill="none" stroke="black" cx="459.03" cy="-450" rx="109.19" ry="18"/>
<text text-anchor="middle" x="459.03" y="-444" font-family="Times New Roman,serif" font-size="15.00">OLO messaging ongoing</text>
</g>
<!-- 2082704901328&#45;&#45;2082704906560 -->
<g id="edge3" class="edge">
<title>2082704901328&#45;&#45;2082704906560</title>
<path fill="none" stroke="black" d="M231.52,-376.62C271.64,-389.62 354.14,-416.34 407.72,-433.7"/>
</g>
<!-- 2082704900512 -->
<g id="node7" class="node">
<title>2082704900512</title>
<ellipse fill="none" stroke="black" cx="459.03" cy="-396" rx="27" ry="18"/>
<text text-anchor="middle" x="459.03" y="-390" font-family="Times New Roman,serif" font-size="15.00">xor</text>
</g>
<!-- 2082704901328&#45;&#45;2082704900512 -->
<g id="edge16" class="edge">
<title>2082704901328&#45;&#45;2082704900512</title>
<path fill="none" stroke="black" d="M233.82,-371.79C281.73,-376.96 383.89,-387.99 431.98,-393.19"/>
</g>
<!-- 2082704910016 -->
<g id="node20" class="node">
<title>2082704910016</title>
<ellipse fill="none" stroke="black" cx="459.03" cy="-342" rx="45.21" ry="18"/>
<text text-anchor="middle" x="459.03" y="-336" font-family="Times New Roman,serif" font-size="15.00">xor loop</text>
</g>
<!-- 2082704901328&#45;&#45;2082704910016 -->
<g id="edge19" class="edge">
<title>2082704901328&#45;&#45;2082704910016</title>
<path fill="none" stroke="black" d="M233.82,-366.21C276.61,-361.59 362.69,-352.3 414.86,-346.66"/>
</g>
<!-- 2082704910832 -->
<g id="node23" class="node">
<title>2082704910832</title>
<ellipse fill="none" stroke="black" cx="459.03" cy="-288" rx="138.87" ry="18"/>
<text text-anchor="middle" x="459.03" y="-282" font-family="Times New Roman,serif" font-size="15.00">Log senddate acknowledgement</text>
</g>
<!-- 2082704901328&#45;&#45;2082704910832 -->
<g id="edge20" class="edge">
<title>2082704901328&#45;&#45;2082704910832</title>
<path fill="none" stroke="black" d="M231.52,-361.38C271.15,-348.54 352.14,-322.3 405.76,-304.93"/>
</g>
<!-- 2082704911984 -->
<g id="node8" class="node">
<title>2082704911984</title>
<ellipse fill="black" stroke="black" cx="799.89" cy="-435" rx="2.7" ry="2.7"/>
</g>
<!-- 2082704900512&#45;&#45;2082704911984 -->
<g id="edge4" class="edge">
<title>2082704900512&#45;&#45;2082704911984</title>
<path fill="none" stroke="black" d="M486.06,-399C561.07,-407.63 773.82,-432.11 796.86,-434.77"/>
</g>
<!-- 2082704903872 -->
<g id="node9" class="node">
<title>2082704903872</title>
<ellipse fill="none" stroke="black" cx="799.89" cy="-396" rx="27" ry="18"/>
<text text-anchor="middle" x="799.89" y="-390" font-family="Times New Roman,serif" font-size="15.00">seq</text>
</g>
<!-- 2082704900512&#45;&#45;2082704903872 -->
<g id="edge15" class="edge">
<title>2082704900512&#45;&#45;2082704903872</title>
<path fill="none" stroke="black" d="M486.34,-396C549.63,-396 709.8,-396 772.84,-396"/>
</g>
<!-- 2082704904448 -->
<g id="node10" class="node">
<title>2082704904448</title>
<ellipse fill="none" stroke="black" cx="1188.36" cy="-450" rx="27" ry="18"/>
<text text-anchor="middle" x="1188.36" y="-444" font-family="Times New Roman,serif" font-size="15.00">xor</text>
</g>
<!-- 2082704903872&#45;&#45;2082704904448 -->
<g id="edge12" class="edge">
<title>2082704903872&#45;&#45;2082704904448</title>
<path fill="none" stroke="black" d="M826.85,-399.63C897.26,-409.46 1091.24,-436.57 1161.52,-446.39"/>
</g>
<!-- 2082704907280 -->
<g id="node18" class="node">
<title>2082704907280</title>
<ellipse fill="none" stroke="black" cx="1188.36" cy="-396" rx="98.95" ry="18"/>
<text text-anchor="middle" x="1188.36" y="-390" font-family="Times New Roman,serif" font-size="15.00">Applicant is involved</text>
</g>
<!-- 2082704903872&#45;&#45;2082704907280 -->
<g id="edge13" class="edge">
<title>2082704903872&#45;&#45;2082704907280</title>
<path fill="none" stroke="black" d="M827.15,-396C880.07,-396 1001.93,-396 1089.25,-396"/>
</g>
<!-- 2082704910400 -->
<g id="node19" class="node">
<title>2082704910400</title>
<ellipse fill="none" stroke="black" cx="1188.36" cy="-342" rx="124.03" ry="18"/>
<text text-anchor="middle" x="1188.36" y="-336" font-family="Times New Roman,serif" font-size="15.00">Period application received</text>
</g>
<!-- 2082704903872&#45;&#45;2082704910400 -->
<g id="edge14" class="edge">
<title>2082704903872&#45;&#45;2082704910400</title>
<path fill="none" stroke="black" d="M826.85,-392.37C881.26,-384.77 1009.49,-366.85 1097.37,-354.57"/>
</g>
<!-- 2082704902528 -->
<g id="node11" class="node">
<title>2082704902528</title>
<ellipse fill="none" stroke="black" cx="1487.99" cy="-490" rx="27" ry="18"/>
<text text-anchor="middle" x="1487.99" y="-484" font-family="Times New Roman,serif" font-size="15.00">seq</text>
</g>
<!-- 2082704904448&#45;&#45;2082704902528 -->
<g id="edge7" class="edge">
<title>2082704904448&#45;&#45;2082704902528</title>
<path fill="none" stroke="black" d="M1215.25,-453.48C1271.68,-461.06 1405.19,-479.01 1461.37,-486.56"/>
</g>
<!-- 2082704915248 -->
<g id="node14" class="node">
<title>2082704915248</title>
<ellipse fill="none" stroke="black" cx="1487.99" cy="-409" rx="27" ry="18"/>
<text text-anchor="middle" x="1487.99" y="-403" font-family="Times New Roman,serif" font-size="15.00">seq</text>
</g>
<!-- 2082704904448&#45;&#45;2082704915248 -->
<g id="edge11" class="edge">
<title>2082704904448&#45;&#45;2082704915248</title>
<path fill="none" stroke="black" d="M1215.25,-446.43C1271.68,-438.66 1405.19,-420.27 1461.37,-412.53"/>
</g>
<!-- 2082704905456 -->
<g id="node12" class="node">
<title>2082704905456</title>
<ellipse fill="none" stroke="black" cx="1755.88" cy="-544" rx="136.31" ry="18"/>
<text text-anchor="middle" x="1755.88" y="-538" font-family="Times New Roman,serif" font-size="15.00">Reception through OLO system</text>
</g>
<!-- 2082704902528&#45;&#45;2082704905456 -->
<g id="edge5" class="edge">
<title>2082704902528&#45;&#45;2082704905456</title>
<path fill="none" stroke="black" d="M1514,-495.08C1551.49,-502.69 1623.79,-517.38 1679.44,-528.68"/>
</g>
<!-- 2082704907040 -->
<g id="node13" class="node">
<title>2082704907040</title>
<ellipse fill="none" stroke="black" cx="1755.88" cy="-490" rx="128.12" ry="18"/>
<text text-anchor="middle" x="1755.88" y="-484" font-family="Times New Roman,serif" font-size="15.00">Send procedure confirmation</text>
</g>
<!-- 2082704902528&#45;&#45;2082704907040 -->
<g id="edge6" class="edge">
<title>2082704902528&#45;&#45;2082704907040</title>
<path fill="none" stroke="black" d="M1515.45,-490C1542.05,-490 1585.06,-490 1627.34,-490"/>
</g>
<!-- 2082704916256 -->
<g id="node15" class="node">
<title>2082704916256</title>
<ellipse fill="none" stroke="black" cx="1755.88" cy="-436" rx="173.67" ry="18"/>
<text text-anchor="middle" x="1755.88" y="-430" font-family="Times New Roman,serif" font-size="15.00">Procedure phase terminated prematurely</text>
</g>
<!-- 2082704915248&#45;&#45;2082704916256 -->
<g id="edge8" class="edge">
<title>2082704915248&#45;&#45;2082704916256</title>
<path fill="none" stroke="black" d="M1514.97,-411.64C1542.01,-414.38 1586.41,-418.89 1629.7,-423.29"/>
</g>
<!-- 2082704906608 -->
<g id="node16" class="node">
<title>2082704906608</title>
<ellipse fill="none" stroke="black" cx="1755.88" cy="-382" rx="188.52" ry="18"/>
<text text-anchor="middle" x="1755.88" y="-376" font-family="Times New Roman,serif" font-size="15.00">Document date termination request received</text>
</g>
<!-- 2082704915248&#45;&#45;2082704906608 -->
<g id="edge9" class="edge">
<title>2082704915248&#45;&#45;2082704906608</title>
<path fill="none" stroke="black" d="M1514.97,-406.36C1540.9,-403.73 1582.79,-399.47 1624.36,-395.25"/>
</g>
<!-- 2082704901904 -->
<g id="node17" class="node">
<title>2082704901904</title>
<ellipse fill="none" stroke="black" cx="1755.88" cy="-328" rx="204.89" ry="18"/>
<text text-anchor="middle" x="1755.88" y="-322" font-family="Times New Roman,serif" font-size="15.00">No permit necessary or only notification needed</text>
</g>
<!-- 2082704915248&#45;&#45;2082704901904 -->
<g id="edge10" class="edge">
<title>2082704915248&#45;&#45;2082704901904</title>
<path fill="none" stroke="black" d="M1513.05,-401.67C1554.28,-389.11 1639.52,-363.14 1696.96,-345.64"/>
</g>
<!-- 2082704909632 -->
<g id="node21" class="node">
<title>2082704909632</title>
<ellipse fill="none" stroke="black" cx="799.89" cy="-342" rx="115.84" ry="18"/>
<text text-anchor="middle" x="799.89" y="-336" font-family="Times New Roman,serif" font-size="15.00">Issue confirmation receipt</text>
</g>
<!-- 2082704910016&#45;&#45;2082704909632 -->
<g id="edge17" class="edge">
<title>2082704910016&#45;&#45;2082704909632</title>
<path fill="none" stroke="black" d="M504.68,-342C550.06,-342 622.23,-342 683.74,-342"/>
</g>
<!-- 2082704908912 -->
<g id="node22" class="node">
<title>2082704908912</title>
<ellipse fill="black" stroke="black" cx="799.89" cy="-303" rx="2.7" ry="2.7"/>
</g>
<!-- 2082704910016&#45;&#45;2082704908912 -->
<g id="edge18" class="edge">
<title>2082704910016&#45;&#45;2082704908912</title>
<path fill="none" stroke="black" d="M502.95,-337.06C589.14,-327.14 776.84,-305.54 797.11,-303.21"/>
</g>
<!-- 2082704900272 -->
<g id="node25" class="node">
<title>2082704900272</title>
<ellipse fill="none" stroke="black" cx="207" cy="-194" rx="27" ry="18"/>
<text text-anchor="middle" x="207" y="-188" font-family="Times New Roman,serif" font-size="15.00">seq</text>
</g>
<!-- 2082704904400&#45;&#45;2082704900272 -->
<g id="edge25" class="edge">
<title>2082704904400&#45;&#45;2082704900272</title>
<path fill="none" stroke="black" d="M144.4,-194C155.54,-194 168.48,-194 179.62,-194"/>
</g>
<!-- 2082704910784 -->
<g id="node28" class="node">
<title>2082704910784</title>
<ellipse fill="none" stroke="black" cx="207" cy="-113" rx="27" ry="18"/>
<text text-anchor="middle" x="207" y="-107" font-family="Times New Roman,serif" font-size="15.00">seq</text>
</g>
<!-- 2082704904400&#45;&#45;2082704910784 -->
<g id="edge35" class="edge">
<title>2082704904400&#45;&#45;2082704910784</title>
<path fill="none" stroke="black" d="M133.73,-179.52C149.75,-164.78 174.44,-142.05 190.4,-127.36"/>
</g>
<!-- 2082704900992 -->
<g id="node26" class="node">
<title>2082704900992</title>
<ellipse fill="none" stroke="black" cx="459.03" cy="-234" rx="54.93" ry="18"/>
<text text-anchor="middle" x="459.03" y="-228" font-family="Times New Roman,serif" font-size="15.00">Pause term</text>
</g>
<!-- 2082704900272&#45;&#45;2082704900992 -->
<g id="edge23" class="edge">
<title>2082704900272&#45;&#45;2082704900992</title>
<path fill="none" stroke="black" d="M233.35,-198.06C274.44,-204.63 356.31,-217.73 409.05,-226.16"/>
</g>
<!-- 2082704914624 -->
<g id="node27" class="node">
<title>2082704914624</title>
<ellipse fill="none" stroke="black" cx="459.03" cy="-180" rx="189.03" ry="18"/>
<text text-anchor="middle" x="459.03" y="-174" font-family="Times New Roman,serif" font-size="15.00">Register date of publishing received request</text>
</g>
<!-- 2082704900272&#45;&#45;2082704914624 -->
<g id="edge24" class="edge">
<title>2082704900272&#45;&#45;2082704914624</title>
<path fill="none" stroke="black" d="M234.28,-192.53C249.96,-191.65 271.31,-190.45 294.64,-189.15"/>
</g>
<!-- 2082704909920 -->
<g id="node29" class="node">
<title>2082704909920</title>
<ellipse fill="none" stroke="black" cx="459.03" cy="-126" rx="27" ry="18"/>
<text text-anchor="middle" x="459.03" y="-120" font-family="Times New Roman,serif" font-size="15.00">xor</text>
</g>
<!-- 2082704910784&#45;&#45;2082704909920 -->
<g id="edge32" class="edge">
<title>2082704910784&#45;&#45;2082704909920</title>
<path fill="none" stroke="black" d="M234.28,-114.37C282.3,-116.86 383.68,-122.13 431.72,-124.63"/>
</g>
<!-- 2082704910544 -->
<g id="node36" class="node">
<title>2082704910544</title>
<ellipse fill="none" stroke="black" cx="459.03" cy="-72" rx="123" ry="18"/>
<text text-anchor="middle" x="459.03" y="-66" font-family="Times New Roman,serif" font-size="15.00">Phase procedure terminated</text>
</g>
<!-- 2082704910784&#45;&#45;2082704910544 -->
<g id="edge33" class="edge">
<title>2082704910784&#45;&#45;2082704910544</title>
<path fill="none" stroke="black" d="M233.35,-108.84C266.44,-103.42 325.95,-93.66 375.42,-85.55"/>
</g>
<!-- 2082704905216 -->
<g id="node37" class="node">
<title>2082704905216</title>
<ellipse fill="none" stroke="black" cx="459.03" cy="-18" rx="65.17" ry="18"/>
<text text-anchor="middle" x="459.03" y="-12" font-family="Times New Roman,serif" font-size="15.00">Close the file</text>
</g>
<!-- 2082704910784&#45;&#45;2082704905216 -->
<g id="edge34" class="edge">
<title>2082704910784&#45;&#45;2082704905216</title>
<path fill="none" stroke="black" d="M231.07,-104.23C274.11,-87.88 367.02,-52.58 419.65,-32.58"/>
</g>
<!-- 2082704911936 -->
<g id="node30" class="node">
<title>2082704911936</title>
<ellipse fill="none" stroke="black" cx="799.89" cy="-153" rx="27" ry="18"/>
<text text-anchor="middle" x="799.89" y="-147" font-family="Times New Roman,serif" font-size="15.00">seq</text>
</g>
<!-- 2082704909920&#45;&#45;2082704911936 -->
<g id="edge28" class="edge">
<title>2082704909920&#45;&#45;2082704911936</title>
<path fill="none" stroke="black" d="M486.34,-128.1C549.63,-133.14 709.8,-145.9 772.84,-150.92"/>
</g>
<!-- 2082704902720 -->
<g id="node33" class="node">
<title>2082704902720</title>
<ellipse fill="none" stroke="black" cx="799.89" cy="-99" rx="27" ry="18"/>
<text text-anchor="middle" x="799.89" y="-93" font-family="Times New Roman,serif" font-size="15.00">seq</text>
</g>
<!-- 2082704909920&#45;&#45;2082704902720 -->
<g id="edge31" class="edge">
<title>2082704909920&#45;&#45;2082704902720</title>
<path fill="none" stroke="black" d="M486.34,-123.9C549.63,-118.86 709.8,-106.1 772.84,-101.08"/>
</g>
<!-- 2082704388128 -->
<g id="node31" class="node">
<title>2082704388128</title>
<ellipse fill="none" stroke="black" cx="1188.36" cy="-207" rx="158.32" ry="18"/>
<text text-anchor="middle" x="1188.36" y="-201" font-family="Times New Roman,serif" font-size="15.00">Log senddate for termination request</text>
</g>
<!-- 2082704911936&#45;&#45;2082704388128 -->
<g id="edge26" class="edge">
<title>2082704911936&#45;&#45;2082704388128</title>
<path fill="none" stroke="black" d="M826.85,-156.63C878.98,-163.91 998.85,-180.66 1086.1,-192.85"/>
</g>
<!-- 2082704386352 -->
<g id="node32" class="node">
<title>2082704386352</title>
<ellipse fill="none" stroke="black" cx="1188.36" cy="-153" rx="128.12" ry="18"/>
<text text-anchor="middle" x="1188.36" y="-147" font-family="Times New Roman,serif" font-size="15.00">Message to terminate request</text>
</g>
<!-- 2082704911936&#45;&#45;2082704386352 -->
<g id="edge27" class="edge">
<title>2082704911936&#45;&#45;2082704386352</title>
<path fill="none" stroke="black" d="M827.15,-153C874.38,-153 976.52,-153 1060.01,-153"/>
</g>
<!-- 2082704377328 -->
<g id="node34" class="node">
<title>2082704377328</title>
<ellipse fill="none" stroke="black" cx="1188.36" cy="-99" rx="236.63" ry="18"/>
<text text-anchor="middle" x="1188.36" y="-93" font-family="Times New Roman,serif" font-size="15.00">record senddate letter no permit or notification required</text>
</g>
<!-- 2082704902720&#45;&#45;2082704377328 -->
<g id="edge29" class="edge">
<title>2082704902720&#45;&#45;2082704377328</title>
<path fill="none" stroke="black" d="M827.15,-99C854.76,-99 901.13,-99 951.57,-99"/>
</g>
<!-- 2082704382464 -->
<g id="node35" class="node">
<title>2082704382464</title>
<ellipse fill="none" stroke="black" cx="1188.36" cy="-45" rx="88.71" ry="18"/>
<text text-anchor="middle" x="1188.36" y="-39" font-family="Times New Roman,serif" font-size="15.00">Document deadline</text>
</g>
<!-- 2082704902720&#45;&#45;2082704382464 -->
<g id="edge30" class="edge">
<title>2082704902720&#45;&#45;2082704382464</title>
<path fill="none" stroke="black" d="M826.85,-95.37C884.9,-87.26 1026.97,-67.41 1114.43,-55.19"/>
</g>
</g>
</svg>
