<?xml version="1.0" encoding="UTF-8" standalone="no"?>
<!DOCTYPE svg PUBLIC "-//W3C//DTD SVG 1.1//EN"
 "http://www.w3.org/Graphics/SVG/1.1/DTD/svg11.dtd">
<!-- Generated by graphviz version 11.0.0 (20240428.1522)
 -->
<!-- Title: pt Pages: 1 -->
<svg width="5587pt" height="993pt"
 viewBox="0.00 0.00 5586.78 993.00" xmlns="http://www.w3.org/2000/svg" xmlns:xlink="http://www.w3.org/1999/xlink">
<g id="graph0" class="graph" transform="scale(1 1) rotate(0) translate(4 989)">
<title>pt</title>
<polygon fill="white" stroke="none" points="-4,4 -4,-989 5582.78,-989 5582.78,4 -4,4"/>
<!-- 2082706570272 -->
<g id="node1" class="node">
<title>2082706570272</title>
<ellipse fill="none" stroke="black" cx="27" cy="-404" rx="27" ry="18"/>
<text text-anchor="middle" x="27" y="-398" font-family="Times New Roman,serif" font-size="15.00">seq</text>
</g>
<!-- 2082706557696 -->
<g id="node2" class="node">
<title>2082706557696</title>
<ellipse fill="none" stroke="black" cx="229.38" cy="-458" rx="139.38" ry="18"/>
<text text-anchor="middle" x="229.38" y="-452" font-family="Times New Roman,serif" font-size="15.00">Record submission date request</text>
</g>
<!-- 2082706570272&#45;&#45;2082706557696 -->
<g id="edge1" class="edge">
<title>2082706570272&#45;&#45;2082706557696</title>
<path fill="none" stroke="black" d="M52.57,-410.62C80.89,-418.25 128.49,-431.08 167.02,-441.46"/>
</g>
<!-- 2082706561680 -->
<g id="node3" class="node">
<title>2082706561680</title>
<ellipse fill="none" stroke="black" cx="229.38" cy="-404" rx="27" ry="18"/>
<text text-anchor="middle" x="229.38" y="-398" font-family="Times New Roman,serif" font-size="15.00">xor</text>
</g>
<!-- 2082706570272&#45;&#45;2082706561680 -->
<g id="edge79" class="edge">
<title>2082706570272&#45;&#45;2082706561680</title>
<path fill="none" stroke="black" d="M54.2,-404C92.6,-404 163.77,-404 202.18,-404"/>
</g>
<!-- 2082706559232 -->
<g id="node81" class="node">
<title>2082706559232</title>
<ellipse fill="none" stroke="black" cx="229.38" cy="-296" rx="27" ry="18"/>
<text text-anchor="middle" x="229.38" y="-290" font-family="Times New Roman,serif" font-size="15.00">xor</text>
</g>
<!-- 2082706570272&#45;&#45;2082706559232 -->
<g id="edge87" class="edge">
<title>2082706570272&#45;&#45;2082706559232</title>
<path fill="none" stroke="black" d="M48.69,-392.85C87.19,-372.1 169.39,-327.79 207.81,-307.09"/>
</g>
<!-- 2082706568832 -->
<g id="node4" class="node">
<title>2082706568832</title>
<ellipse fill="black" stroke="black" cx="563.08" cy="-443" rx="2.7" ry="2.7"/>
</g>
<!-- 2082706561680&#45;&#45;2082706568832 -->
<g id="edge2" class="edge">
<title>2082706561680&#45;&#45;2082706568832</title>
<path fill="none" stroke="black" d="M256.41,-407.06C330.33,-415.75 537.65,-440.13 560.1,-442.77"/>
</g>
<!-- 2082706555056 -->
<g id="node5" class="node">
<title>2082706555056</title>
<ellipse fill="none" stroke="black" cx="563.08" cy="-404" rx="27" ry="18"/>
<text text-anchor="middle" x="563.08" y="-398" font-family="Times New Roman,serif" font-size="15.00">and</text>
</g>
<!-- 2082706561680&#45;&#45;2082706555056 -->
<g id="edge78" class="edge">
<title>2082706561680&#45;&#45;2082706555056</title>
<path fill="none" stroke="black" d="M256.69,-404C318.75,-404 473.71,-404 535.78,-404"/>
</g>
<!-- 2082706568448 -->
<g id="node6" class="node">
<title>2082706568448</title>
<ellipse fill="none" stroke="black" cx="930.05" cy="-458" rx="45.21" ry="18"/>
<text text-anchor="middle" x="930.05" y="-452" font-family="Times New Roman,serif" font-size="15.00">xor loop</text>
</g>
<!-- 2082706555056&#45;&#45;2082706568448 -->
<g id="edge5" class="edge">
<title>2082706555056&#45;&#45;2082706568448</title>
<path fill="none" stroke="black" d="M589.75,-407.8C651.89,-416.99 810.93,-440.52 887.12,-451.8"/>
</g>
<!-- 2082706561344 -->
<g id="node9" class="node">
<title>2082706561344</title>
<ellipse fill="none" stroke="black" cx="930.05" cy="-404" rx="124.03" ry="18"/>
<text text-anchor="middle" x="930.05" y="-398" font-family="Times New Roman,serif" font-size="15.00">Period application received</text>
</g>
<!-- 2082706555056&#45;&#45;2082706561344 -->
<g id="edge6" class="edge">
<title>2082706555056&#45;&#45;2082706561344</title>
<path fill="none" stroke="black" d="M590.33,-404C634.95,-404 728.29,-404 805.71,-404"/>
</g>
<!-- 2082706555344 -->
<g id="node10" class="node">
<title>2082706555344</title>
<ellipse fill="none" stroke="black" cx="930.05" cy="-350" rx="27" ry="18"/>
<text text-anchor="middle" x="930.05" y="-344" font-family="Times New Roman,serif" font-size="15.00">seq</text>
</g>
<!-- 2082706555056&#45;&#45;2082706555344 -->
<g id="edge77" class="edge">
<title>2082706555056&#45;&#45;2082706555344</title>
<path fill="none" stroke="black" d="M589.75,-400.2C656.76,-390.29 836.44,-363.7 903.42,-353.79"/>
</g>
<!-- 2082706564800 -->
<g id="node7" class="node">
<title>2082706564800</title>
<ellipse fill="none" stroke="black" cx="1300.09" cy="-477" rx="161.39" ry="18"/>
<text text-anchor="middle" x="1300.09" y="-471" font-family="Times New Roman,serif" font-size="15.00">Log senddate procedure confirmation</text>
</g>
<!-- 2082706568448&#45;&#45;2082706564800 -->
<g id="edge3" class="edge">
<title>2082706568448&#45;&#45;2082706564800</title>
<path fill="none" stroke="black" d="M975.08,-460.27C1018.97,-462.54 1088.81,-466.14 1152.43,-469.43"/>
</g>
<!-- 2082706567344 -->
<g id="node8" class="node">
<title>2082706567344</title>
<ellipse fill="black" stroke="black" cx="1300.09" cy="-438" rx="2.7" ry="2.7"/>
</g>
<!-- 2082706568448&#45;&#45;2082706567344 -->
<g id="edge4" class="edge">
<title>2082706568448&#45;&#45;2082706567344</title>
<path fill="none" stroke="black" d="M975.08,-455.61C1067.43,-450.59 1274.72,-439.32 1297.12,-438.11"/>
</g>
<!-- 2082706559136 -->
<g id="node11" class="node">
<title>2082706559136</title>
<ellipse fill="none" stroke="black" cx="1300.09" cy="-384" rx="109.19" ry="18"/>
<text text-anchor="middle" x="1300.09" y="-378" font-family="Times New Roman,serif" font-size="15.00">OLO messaging ongoing</text>
</g>
<!-- 2082706555344&#45;&#45;2082706559136 -->
<g id="edge7" class="edge">
<title>2082706555344&#45;&#45;2082706559136</title>
<path fill="none" stroke="black" d="M957.23,-352.42C1007.89,-357.1 1121.62,-367.6 1204.02,-375.22"/>
</g>
<!-- 2082706561104 -->
<g id="node12" class="node">
<title>2082706561104</title>
<ellipse fill="none" stroke="black" cx="1300.09" cy="-330" rx="27" ry="18"/>
<text text-anchor="middle" x="1300.09" y="-324" font-family="Times New Roman,serif" font-size="15.00">and</text>
</g>
<!-- 2082706555344&#45;&#45;2082706561104 -->
<g id="edge76" class="edge">
<title>2082706555344&#45;&#45;2082706561104</title>
<path fill="none" stroke="black" d="M957.23,-348.58C1024.89,-344.9 1205.02,-335.11 1272.81,-331.43"/>
</g>
<!-- 2082706555440 -->
<g id="node13" class="node">
<title>2082706555440</title>
<ellipse fill="none" stroke="black" cx="1636.35" cy="-357" rx="138.87" ry="18"/>
<text text-anchor="middle" x="1636.35" y="-351" font-family="Times New Roman,serif" font-size="15.00">Log senddate acknowledgement</text>
</g>
<!-- 2082706561104&#45;&#45;2082706555440 -->
<g id="edge8" class="edge">
<title>2082706561104&#45;&#45;2082706555440</title>
<path fill="none" stroke="black" d="M1327.32,-332.12C1367.95,-335.4 1448.58,-341.91 1517.15,-347.45"/>
</g>
<!-- 2082706568592 -->
<g id="node14" class="node">
<title>2082706568592</title>
<ellipse fill="none" stroke="black" cx="1636.35" cy="-303" rx="27" ry="18"/>
<text text-anchor="middle" x="1636.35" y="-297" font-family="Times New Roman,serif" font-size="15.00">seq</text>
</g>
<!-- 2082706561104&#45;&#45;2082706568592 -->
<g id="edge75" class="edge">
<title>2082706561104&#45;&#45;2082706568592</title>
<path fill="none" stroke="black" d="M1327.32,-327.88C1389.81,-322.83 1546.89,-310.15 1609.25,-305.11"/>
</g>
<!-- 2082706568976 -->
<g id="node15" class="node">
<title>2082706568976</title>
<ellipse fill="none" stroke="black" cx="1947.54" cy="-330" rx="136.31" ry="18"/>
<text text-anchor="middle" x="1947.54" y="-324" font-family="Times New Roman,serif" font-size="15.00">Reception through OLO system</text>
</g>
<!-- 2082706568592&#45;&#45;2082706568976 -->
<g id="edge9" class="edge">
<title>2082706568592&#45;&#45;2082706568976</title>
<path fill="none" stroke="black" d="M1663.45,-305.28C1700.65,-308.53 1771.21,-314.69 1832.58,-320.05"/>
</g>
<!-- 2082706564320 -->
<g id="node16" class="node">
<title>2082706564320</title>
<ellipse fill="none" stroke="black" cx="1947.54" cy="-276" rx="27" ry="18"/>
<text text-anchor="middle" x="1947.54" y="-270" font-family="Times New Roman,serif" font-size="15.00">and</text>
</g>
<!-- 2082706568592&#45;&#45;2082706564320 -->
<g id="edge74" class="edge">
<title>2082706568592&#45;&#45;2082706564320</title>
<path fill="none" stroke="black" d="M1663.45,-300.72C1721.83,-295.62 1862.41,-283.35 1920.62,-278.26"/>
</g>
<!-- 2082706566384 -->
<g id="node17" class="node">
<title>2082706566384</title>
<ellipse fill="none" stroke="black" cx="2242.85" cy="-303" rx="123" ry="18"/>
<text text-anchor="middle" x="2242.85" y="-297" font-family="Times New Roman,serif" font-size="15.00">Phase procedure terminated</text>
</g>
<!-- 2082706564320&#45;&#45;2082706566384 -->
<g id="edge10" class="edge">
<title>2082706564320&#45;&#45;2082706566384</title>
<path fill="none" stroke="black" d="M1974.57,-278.4C2010.95,-281.75 2079.11,-288.02 2137.5,-293.39"/>
</g>
<!-- 2082706571232 -->
<g id="node18" class="node">
<title>2082706571232</title>
<ellipse fill="none" stroke="black" cx="2242.85" cy="-249" rx="27" ry="18"/>
<text text-anchor="middle" x="2242.85" y="-243" font-family="Times New Roman,serif" font-size="15.00">seq</text>
</g>
<!-- 2082706564320&#45;&#45;2082706571232 -->
<g id="edge73" class="edge">
<title>2082706564320&#45;&#45;2082706571232</title>
<path fill="none" stroke="black" d="M1974.57,-273.6C2030.23,-268.48 2160.27,-256.51 2215.88,-251.39"/>
</g>
<!-- 2082706558944 -->
<g id="node19" class="node">
<title>2082706558944</title>
<ellipse fill="none" stroke="black" cx="2428.86" cy="-276" rx="27" ry="18"/>
<text text-anchor="middle" x="2428.86" y="-270" font-family="Times New Roman,serif" font-size="15.00">and</text>
</g>
<!-- 2082706571232&#45;&#45;2082706558944 -->
<g id="edge64" class="edge">
<title>2082706571232&#45;&#45;2082706558944</title>
<path fill="none" stroke="black" d="M2269.44,-252.75C2304.49,-257.9 2367.1,-267.08 2402.19,-272.23"/>
</g>
<!-- 2082706562304 -->
<g id="node73" class="node">
<title>2082706562304</title>
<ellipse fill="none" stroke="black" cx="2428.86" cy="-222" rx="27" ry="18"/>
<text text-anchor="middle" x="2428.86" y="-216" font-family="Times New Roman,serif" font-size="15.00">xor</text>
</g>
<!-- 2082706571232&#45;&#45;2082706562304 -->
<g id="edge72" class="edge">
<title>2082706571232&#45;&#45;2082706562304</title>
<path fill="none" stroke="black" d="M2269.44,-245.25C2304.49,-240.1 2367.1,-230.92 2402.19,-225.77"/>
</g>
<!-- 2082706567296 -->
<g id="node20" class="node">
<title>2082706567296</title>
<ellipse fill="none" stroke="black" cx="2680.37" cy="-326" rx="188.52" ry="18"/>
<text text-anchor="middle" x="2680.37" y="-320" font-family="Times New Roman,serif" font-size="15.00">Document date termination request received</text>
</g>
<!-- 2082706558944&#45;&#45;2082706567296 -->
<g id="edge11" class="edge">
<title>2082706558944&#45;&#45;2082706567296</title>
<path fill="none" stroke="black" d="M2455.16,-281.07C2488.11,-287.67 2547.34,-299.54 2596.65,-309.42"/>
</g>
<!-- 2082706557360 -->
<g id="node21" class="node">
<title>2082706557360</title>
<ellipse fill="none" stroke="black" cx="2680.37" cy="-272" rx="27" ry="18"/>
<text text-anchor="middle" x="2680.37" y="-266" font-family="Times New Roman,serif" font-size="15.00">seq</text>
</g>
<!-- 2082706558944&#45;&#45;2082706557360 -->
<g id="edge63" class="edge">
<title>2082706558944&#45;&#45;2082706557360</title>
<path fill="none" stroke="black" d="M2456.09,-275.58C2504.01,-274.81 2605.18,-273.19 2653.12,-272.42"/>
</g>
<!-- 2082701332064 -->
<g id="node22" class="node">
<title>2082701332064</title>
<ellipse fill="none" stroke="black" cx="3060.14" cy="-326" rx="27" ry="18"/>
<text text-anchor="middle" x="3060.14" y="-320" font-family="Times New Roman,serif" font-size="15.00">and</text>
</g>
<!-- 2082706557360&#45;&#45;2082701332064 -->
<g id="edge59" class="edge">
<title>2082706557360&#45;&#45;2082701332064</title>
<path fill="none" stroke="black" d="M2707.04,-275.67C2775.96,-285.52 2964.48,-312.47 3033.43,-322.33"/>
</g>
<!-- 2082701338064 -->
<g id="node70" class="node">
<title>2082701338064</title>
<ellipse fill="none" stroke="black" cx="3060.14" cy="-272" rx="27" ry="18"/>
<text text-anchor="middle" x="3060.14" y="-266" font-family="Times New Roman,serif" font-size="15.00">xor</text>
</g>
<!-- 2082706557360&#45;&#45;2082701338064 -->
<g id="edge62" class="edge">
<title>2082706557360&#45;&#45;2082701338064</title>
<path fill="none" stroke="black" d="M2707.64,-272C2776.82,-272 2963.52,-272 3032.8,-272"/>
</g>
<!-- 2082701332448 -->
<g id="node23" class="node">
<title>2082701332448</title>
<ellipse fill="none" stroke="black" cx="3425.06" cy="-379" rx="88.71" ry="18"/>
<text text-anchor="middle" x="3425.06" y="-373" font-family="Times New Roman,serif" font-size="15.00">Document deadline</text>
</g>
<!-- 2082701332064&#45;&#45;2082701332448 -->
<g id="edge12" class="edge">
<title>2082701332064&#45;&#45;2082701332448</title>
<path fill="none" stroke="black" d="M3086.95,-329.77C3141.52,-337.74 3270.3,-356.55 3351.96,-368.47"/>
</g>
<!-- 2082701337296 -->
<g id="node24" class="node">
<title>2082701337296</title>
<ellipse fill="none" stroke="black" cx="3425.06" cy="-325" rx="27" ry="18"/>
<text text-anchor="middle" x="3425.06" y="-319" font-family="Times New Roman,serif" font-size="15.00">seq</text>
</g>
<!-- 2082701332064&#45;&#45;2082701337296 -->
<g id="edge58" class="edge">
<title>2082701332064&#45;&#45;2082701337296</title>
<path fill="none" stroke="black" d="M3087.53,-325.93C3154.57,-325.74 3330.83,-325.26 3397.77,-325.07"/>
</g>
<!-- 2082701334128 -->
<g id="node25" class="node">
<title>2082701334128</title>
<ellipse fill="none" stroke="black" cx="3661.73" cy="-396" rx="27" ry="18"/>
<text text-anchor="middle" x="3661.73" y="-390" font-family="Times New Roman,serif" font-size="15.00">xor</text>
</g>
<!-- 2082701337296&#45;&#45;2082701334128 -->
<g id="edge50" class="edge">
<title>2082701337296&#45;&#45;2082701334128</title>
<path fill="none" stroke="black" d="M3450.29,-332.33C3495.38,-345.97 3591.65,-375.1 3636.63,-388.71"/>
</g>
<!-- 2082701334368 -->
<g id="node63" class="node">
<title>2082701334368</title>
<ellipse fill="none" stroke="black" cx="3661.73" cy="-226" rx="27" ry="18"/>
<text text-anchor="middle" x="3661.73" y="-220" font-family="Times New Roman,serif" font-size="15.00">xor</text>
</g>
<!-- 2082701337296&#45;&#45;2082701334368 -->
<g id="edge57" class="edge">
<title>2082701337296&#45;&#45;2082701334368</title>
<path fill="none" stroke="black" d="M3448.56,-315.51C3493.42,-296.58 3593.5,-254.36 3638.3,-235.46"/>
</g>
<!-- 2082701336432 -->
<g id="node26" class="node">
<title>2082701336432</title>
<ellipse fill="black" stroke="black" cx="3751.73" cy="-435" rx="2.7" ry="2.7"/>
</g>
<!-- 2082701334128&#45;&#45;2082701336432 -->
<g id="edge13" class="edge">
<title>2082701334128&#45;&#45;2082701336432</title>
<path fill="none" stroke="black" d="M3684.94,-405.84C3707.75,-415.95 3741.02,-430.69 3748.98,-434.22"/>
</g>
<!-- 2082701344592 -->
<g id="node27" class="node">
<title>2082701344592</title>
<ellipse fill="none" stroke="black" cx="3751.73" cy="-396" rx="27" ry="18"/>
<text text-anchor="middle" x="3751.73" y="-390" font-family="Times New Roman,serif" font-size="15.00">seq</text>
</g>
<!-- 2082701334128&#45;&#45;2082701344592 -->
<g id="edge49" class="edge">
<title>2082701334128&#45;&#45;2082701344592</title>
<path fill="none" stroke="black" d="M3689.14,-396C3700.27,-396 3713.21,-396 3724.35,-396"/>
</g>
<!-- 2082701340896 -->
<g id="node28" class="node">
<title>2082701340896</title>
<ellipse fill="none" stroke="black" cx="3961.28" cy="-739" rx="27" ry="18"/>
<text text-anchor="middle" x="3961.28" y="-733" font-family="Times New Roman,serif" font-size="15.00">xor</text>
</g>
<!-- 2082701344592&#45;&#45;2082701340896 -->
<g id="edge33" class="edge">
<title>2082701344592&#45;&#45;2082701340896</title>
<path fill="none" stroke="black" d="M3762.74,-412.54C3797.81,-470.49 3914.84,-663.91 3950.13,-722.22"/>
</g>
<!-- 2082701340176 -->
<g id="node48" class="node">
<title>2082701340176</title>
<ellipse fill="none" stroke="black" cx="3961.28" cy="-639" rx="27" ry="18"/>
<text text-anchor="middle" x="3961.28" y="-633" font-family="Times New Roman,serif" font-size="15.00">xor</text>
</g>
<!-- 2082701344592&#45;&#45;2082701340176 -->
<g id="edge37" class="edge">
<title>2082701344592&#45;&#45;2082701340176</title>
<path fill="none" stroke="black" d="M3766.03,-411.57C3803.52,-455.46 3909.74,-579.83 3947.09,-623.56"/>
</g>
<!-- 2082701340032 -->
<g id="node52" class="node">
<title>2082701340032</title>
<ellipse fill="none" stroke="black" cx="3961.28" cy="-585" rx="142.45" ry="18"/>
<text text-anchor="middle" x="3961.28" y="-579" font-family="Times New Roman,serif" font-size="15.00">Direct to the competent authority</text>
</g>
<!-- 2082701344592&#45;&#45;2082701340032 -->
<g id="edge38" class="edge">
<title>2082701344592&#45;&#45;2082701340032</title>
<path fill="none" stroke="black" d="M3768.67,-410.52C3806.07,-444.57 3899.38,-529.54 3940.4,-566.9"/>
</g>
<!-- 2082701334512 -->
<g id="node53" class="node">
<title>2082701334512</title>
<ellipse fill="none" stroke="black" cx="3961.28" cy="-531" rx="141.94" ry="18"/>
<text text-anchor="middle" x="3961.28" y="-525" font-family="Times New Roman,serif" font-size="15.00">Normal procedure without MER</text>
</g>
<!-- 2082701344592&#45;&#45;2082701334512 -->
<g id="edge39" class="edge">
<title>2082701344592&#45;&#45;2082701334512</title>
<path fill="none" stroke="black" d="M3771.89,-408.46C3808.82,-432.48 3889.98,-485.28 3932.72,-513.07"/>
</g>
<!-- 2082701333456 -->
<g id="node54" class="node">
<title>2082701333456</title>
<ellipse fill="none" stroke="black" cx="3961.28" cy="-477" rx="134.78" ry="18"/>
<text text-anchor="middle" x="3961.28" y="-471" font-family="Times New Roman,serif" font-size="15.00">Create procedure confirmation</text>
</g>
<!-- 2082701344592&#45;&#45;2082701333456 -->
<g id="edge40" class="edge">
<title>2082701344592&#45;&#45;2082701333456</title>
<path fill="none" stroke="black" d="M3775.74,-404.98C3809.41,-418.12 3872.76,-442.84 3915.73,-459.61"/>
</g>
<!-- 2082701344016 -->
<g id="node55" class="node">
<title>2082701344016</title>
<ellipse fill="none" stroke="black" cx="3961.28" cy="-423" rx="27" ry="18"/>
<text text-anchor="middle" x="3961.28" y="-417" font-family="Times New Roman,serif" font-size="15.00">xor</text>
</g>
<!-- 2082701344592&#45;&#45;2082701344016 -->
<g id="edge43" class="edge">
<title>2082701344592&#45;&#45;2082701344016</title>
<path fill="none" stroke="black" d="M3778.6,-399.36C3818.48,-404.55 3894.54,-414.45 3934.42,-419.64"/>
</g>
<!-- 2082701338208 -->
<g id="node58" class="node">
<title>2082701338208</title>
<ellipse fill="none" stroke="black" cx="3961.28" cy="-369" rx="137.85" ry="18"/>
<text text-anchor="middle" x="3961.28" y="-363" font-family="Times New Roman,serif" font-size="15.00">Process subcases completeness</text>
</g>
<!-- 2082701344592&#45;&#45;2082701338208 -->
<g id="edge44" class="edge">
<title>2082701344592&#45;&#45;2082701338208</title>
<path fill="none" stroke="black" d="M3778.6,-392.64C3799.79,-389.88 3831.19,-385.79 3861.95,-381.79"/>
</g>
<!-- 2082701329136 -->
<g id="node59" class="node">
<title>2082701329136</title>
<ellipse fill="none" stroke="black" cx="3961.28" cy="-315" rx="127.1" ry="18"/>
<text text-anchor="middle" x="3961.28" y="-309" font-family="Times New Roman,serif" font-size="15.00">Subcases completeness done</text>
</g>
<!-- 2082701344592&#45;&#45;2082701329136 -->
<g id="edge45" class="edge">
<title>2082701344592&#45;&#45;2082701329136</title>
<path fill="none" stroke="black" d="M3775.74,-387.02C3809.51,-373.84 3873.15,-349 3916.14,-332.23"/>
</g>
<!-- 2082701341424 -->
<g id="node60" class="node">
<title>2082701341424</title>
<ellipse fill="none" stroke="black" cx="3961.28" cy="-261" rx="83.08" ry="18"/>
<text text-anchor="middle" x="3961.28" y="-255" font-family="Times New Roman,serif" font-size="15.00">Update procedure</text>
</g>
<!-- 2082701344592&#45;&#45;2082701341424 -->
<g id="edge46" class="edge">
<title>2082701344592&#45;&#45;2082701341424</title>
<path fill="none" stroke="black" d="M3771.89,-383.54C3809.12,-359.32 3891.31,-305.86 3933.76,-278.25"/>
</g>
<!-- 2082701340512 -->
<g id="node61" class="node">
<title>2082701340512</title>
<ellipse fill="none" stroke="black" cx="3961.28" cy="-207" rx="68.24" ry="18"/>
<text text-anchor="middle" x="3961.28" y="-201" font-family="Times New Roman,serif" font-size="15.00">Fulfill request</text>
</g>
<!-- 2082701344592&#45;&#45;2082701340512 -->
<g id="edge47" class="edge">
<title>2082701344592&#45;&#45;2082701340512</title>
<path fill="none" stroke="black" d="M3768.67,-381.48C3806.26,-347.25 3900.33,-261.6 3941.02,-224.54"/>
</g>
<!-- 2082701343872 -->
<g id="node62" class="node">
<title>2082701343872</title>
<ellipse fill="none" stroke="black" cx="3961.28" cy="-153" rx="146.55" ry="18"/>
<text text-anchor="middle" x="3961.28" y="-147" font-family="Times New Roman,serif" font-size="15.00">Period for supplying missing data</text>
</g>
<!-- 2082701344592&#45;&#45;2082701343872 -->
<g id="edge48" class="edge">
<title>2082701344592&#45;&#45;2082701343872</title>
<path fill="none" stroke="black" d="M3766.03,-380.43C3802.71,-337.48 3905.21,-217.48 3944.59,-171.37"/>
</g>
<!-- 2082701335376 -->
<g id="node29" class="node">
<title>2082701335376</title>
<ellipse fill="none" stroke="black" cx="4380.45" cy="-913" rx="27" ry="18"/>
<text text-anchor="middle" x="4380.45" y="-907" font-family="Times New Roman,serif" font-size="15.00">and</text>
</g>
<!-- 2082701340896&#45;&#45;2082701335376 -->
<g id="edge16" class="edge">
<title>2082701340896&#45;&#45;2082701335376</title>
<path fill="none" stroke="black" d="M3984.71,-748.35C4057.14,-778.57 4284.32,-873.32 4356.91,-903.6"/>
</g>
<!-- 2082701343200 -->
<g id="node32" class="node">
<title>2082701343200</title>
<ellipse fill="none" stroke="black" cx="4380.45" cy="-782" rx="27" ry="18"/>
<text text-anchor="middle" x="4380.45" y="-776" font-family="Times New Roman,serif" font-size="15.00">seq</text>
</g>
<!-- 2082701340896&#45;&#45;2082701343200 -->
<g id="edge24" class="edge">
<title>2082701340896&#45;&#45;2082701343200</title>
<path fill="none" stroke="black" d="M3988.38,-741.69C4063.3,-749.41 4278.46,-771.59 4353.37,-779.31"/>
</g>
<!-- 2082701341376 -->
<g id="node40" class="node">
<title>2082701341376</title>
<ellipse fill="none" stroke="black" cx="4380.45" cy="-697" rx="27" ry="18"/>
<text text-anchor="middle" x="4380.45" y="-691" font-family="Times New Roman,serif" font-size="15.00">seq</text>
</g>
<!-- 2082701340896&#45;&#45;2082701341376 -->
<g id="edge32" class="edge">
<title>2082701340896&#45;&#45;2082701341376</title>
<path fill="none" stroke="black" d="M3988.38,-736.37C4063.3,-728.83 4278.46,-707.17 4353.37,-699.63"/>
</g>
<!-- 2082701343536 -->
<g id="node30" class="node">
<title>2082701343536</title>
<ellipse fill="none" stroke="black" cx="4831.36" cy="-967" rx="178.28" ry="18"/>
<text text-anchor="middle" x="4831.36" y="-961" font-family="Times New Roman,serif" font-size="15.00">Record senddate for confirmation request</text>
</g>
<!-- 2082701335376&#45;&#45;2082701343536 -->
<g id="edge14" class="edge">
<title>2082701335376&#45;&#45;2082701343536</title>
<path fill="none" stroke="black" d="M4407.53,-916.14C4466.01,-923.17 4610.62,-940.57 4714.43,-953.05"/>
</g>
<!-- 2082701336480 -->
<g id="node31" class="node">
<title>2082701336480</title>
<ellipse fill="none" stroke="black" cx="4831.36" cy="-913" rx="130.68" ry="18"/>
<text text-anchor="middle" x="4831.36" y="-907" font-family="Times New Roman,serif" font-size="15.00">Log termination decision date</text>
</g>
<!-- 2082701335376&#45;&#45;2082701336480 -->
<g id="edge15" class="edge">
<title>2082701335376&#45;&#45;2082701336480</title>
<path fill="none" stroke="black" d="M4407.86,-913C4463.91,-913 4598.03,-913 4700.24,-913"/>
</g>
<!-- 2082701343440 -->
<g id="node33" class="node">
<title>2082701343440</title>
<ellipse fill="none" stroke="black" cx="4831.36" cy="-859" rx="27" ry="18"/>
<text text-anchor="middle" x="4831.36" y="-853" font-family="Times New Roman,serif" font-size="15.00">xor</text>
</g>
<!-- 2082701343200&#45;&#45;2082701343440 -->
<g id="edge19" class="edge">
<title>2082701343200&#45;&#45;2082701343440</title>
<path fill="none" stroke="black" d="M4406.88,-786.36C4485.7,-799.88 4725.46,-841.01 4804.66,-854.59"/>
</g>
<!-- 2082701341904 -->
<g id="node36" class="node">
<title>2082701341904</title>
<ellipse fill="none" stroke="black" cx="4831.36" cy="-805" rx="98.95" ry="18"/>
<text text-anchor="middle" x="4831.36" y="-799" font-family="Times New Roman,serif" font-size="15.00">Applicant is involved</text>
</g>
<!-- 2082701343200&#45;&#45;2082701341904 -->
<g id="edge20" class="edge">
<title>2082701343200&#45;&#45;2082701341904</title>
<path fill="none" stroke="black" d="M4407.86,-783.35C4470.63,-786.57 4631.3,-794.8 4735.43,-800.14"/>
</g>
<!-- 2082701338880 -->
<g id="node37" class="node">
<title>2082701338880</title>
<ellipse fill="none" stroke="black" cx="4831.36" cy="-751" rx="45.21" ry="18"/>
<text text-anchor="middle" x="4831.36" y="-745" font-family="Times New Roman,serif" font-size="15.00">xor loop</text>
</g>
<!-- 2082701343200&#45;&#45;2082701338880 -->
<g id="edge23" class="edge">
<title>2082701343200&#45;&#45;2082701338880</title>
<path fill="none" stroke="black" d="M4407.53,-780.2C4481.63,-775.08 4694.05,-760.41 4786.49,-754.03"/>
</g>
<!-- 2082701333360 -->
<g id="node34" class="node">
<title>2082701333360</title>
<ellipse fill="black" stroke="black" cx="5176.83" cy="-890" rx="2.7" ry="2.7"/>
</g>
<!-- 2082701343440&#45;&#45;2082701333360 -->
<g id="edge17" class="edge">
<title>2082701343440&#45;&#45;2082701333360</title>
<path fill="none" stroke="black" d="M4858.46,-861.36C4934.23,-868.19 5150.36,-887.7 5173.77,-889.81"/>
</g>
<!-- 2082701328800 -->
<g id="node35" class="node">
<title>2082701328800</title>
<ellipse fill="none" stroke="black" cx="5176.83" cy="-851" rx="50.84" ry="18"/>
<text text-anchor="middle" x="5176.83" y="-845" font-family="Times New Roman,serif" font-size="15.00">Announce</text>
</g>
<!-- 2082701343440&#45;&#45;2082701328800 -->
<g id="edge18" class="edge">
<title>2082701343440&#45;&#45;2082701328800</title>
<path fill="none" stroke="black" d="M4858.74,-858.39C4915.84,-857.06 5051.69,-853.89 5125.69,-852.17"/>
</g>
<!-- 2082701335136 -->
<g id="node38" class="node">
<title>2082701335136</title>
<ellipse fill="none" stroke="black" cx="5176.83" cy="-786" rx="115.84" ry="18"/>
<text text-anchor="middle" x="5176.83" y="-780" font-family="Times New Roman,serif" font-size="15.00">Issue confirmation receipt</text>
</g>
<!-- 2082701338880&#45;&#45;2082701335136 -->
<g id="edge21" class="edge">
<title>2082701338880&#45;&#45;2082701335136</title>
<path fill="none" stroke="black" d="M4875.51,-755.4C4926.23,-760.57 5011.96,-769.3 5078.87,-776.12"/>
</g>
<!-- 2082701330960 -->
<g id="node39" class="node">
<title>2082701330960</title>
<ellipse fill="black" stroke="black" cx="5176.83" cy="-747" rx="2.7" ry="2.7"/>
</g>
<!-- 2082701338880&#45;&#45;2082701330960 -->
<g id="edge22" class="edge">
<title>2082701338880&#45;&#45;2082701330960</title>
<path fill="none" stroke="black" d="M4876.91,-750.48C4964.76,-749.46 5153.64,-747.26 5174.04,-747.02"/>
</g>
<!-- 2082701336768 -->
<g id="node41" class="node">
<title>2082701336768</title>
<ellipse fill="none" stroke="black" cx="4831.36" cy="-697" rx="27" ry="18"/>
<text text-anchor="middle" x="4831.36" y="-691" font-family="Times New Roman,serif" font-size="15.00">xor</text>
</g>
<!-- 2082701341376&#45;&#45;2082701336768 -->
<g id="edge29" class="edge">
<title>2082701341376&#45;&#45;2082701336768</title>
<path fill="none" stroke="black" d="M4407.86,-697C4487.45,-697 4724.44,-697 4803.99,-697"/>
</g>
<!-- 2082701340752 -->
<g id="node46" class="node">
<title>2082701340752</title>
<ellipse fill="none" stroke="black" cx="4831.36" cy="-643" rx="139.89" ry="18"/>
<text text-anchor="middle" x="4831.36" y="-637" font-family="Times New Roman,serif" font-size="15.00">Activities for regular procedure</text>
</g>
<!-- 2082701341376&#45;&#45;2082701340752 -->
<g id="edge30" class="edge">
<title>2082701341376&#45;&#45;2082701340752</title>
<path fill="none" stroke="black" d="M4407.53,-693.86C4468.53,-686.53 4623.27,-667.91 4727.65,-655.36"/>
</g>
<!-- 2082701342768 -->
<g id="node47" class="node">
<title>2082701342768</title>
<ellipse fill="none" stroke="black" cx="4831.36" cy="-589" rx="87.69" ry="18"/>
<text text-anchor="middle" x="4831.36" y="-583" font-family="Times New Roman,serif" font-size="15.00">Phased application</text>
</g>
<!-- 2082701341376&#45;&#45;2082701342768 -->
<g id="edge31" class="edge">
<title>2082701341376&#45;&#45;2082701342768</title>
<path fill="none" stroke="black" d="M4406.23,-691.04C4475.8,-674.3 4674.3,-626.55 4773.08,-602.78"/>
</g>
<!-- 2082701330240 -->
<g id="node42" class="node">
<title>2082701330240</title>
<ellipse fill="none" stroke="black" cx="5176.83" cy="-701" rx="131.19" ry="18"/>
<text text-anchor="middle" x="5176.83" y="-695" font-family="Times New Roman,serif" font-size="15.00">Environmental Report needed</text>
</g>
<!-- 2082701336768&#45;&#45;2082701330240 -->
<g id="edge25" class="edge">
<title>2082701336768&#45;&#45;2082701330240</title>
<path fill="none" stroke="black" d="M4858.74,-697.31C4898.64,-697.77 4976.99,-698.68 5045.82,-699.49"/>
</g>
<!-- 2082701342624 -->
<g id="node43" class="node">
<title>2082701342624</title>
<ellipse fill="none" stroke="black" cx="5176.83" cy="-647" rx="27" ry="18"/>
<text text-anchor="middle" x="5176.83" y="-641" font-family="Times New Roman,serif" font-size="15.00">seq</text>
</g>
<!-- 2082701336768&#45;&#45;2082701342624 -->
<g id="edge28" class="edge">
<title>2082701336768&#45;&#45;2082701342624</title>
<path fill="none" stroke="black" d="M4858.18,-693.24C4921.99,-683.95 5086.56,-660 5150.19,-650.73"/>
</g>
<!-- 2082701335328 -->
<g id="node44" class="node">
<title>2082701335328</title>
<ellipse fill="none" stroke="black" cx="5461.4" cy="-674" rx="117.37" ry="18"/>
<text text-anchor="middle" x="5461.4" y="-668" font-family="Times New Roman,serif" font-size="15.00">Inform BAG administrator</text>
</g>
<!-- 2082701342624&#45;&#45;2082701335328 -->
<g id="edge26" class="edge">
<title>2082701342624&#45;&#45;2082701335328</title>
<path fill="none" stroke="black" d="M5203.91,-649.49C5239.36,-652.88 5304.77,-659.13 5360.65,-664.47"/>
</g>
<!-- 2082701332784 -->
<g id="node45" class="node">
<title>2082701332784</title>
<ellipse fill="none" stroke="black" cx="5461.4" cy="-620" rx="61.08" ry="18"/>
<text text-anchor="middle" x="5461.4" y="-614" font-family="Times New Roman,serif" font-size="15.00">MER shown</text>
</g>
<!-- 2082701342624&#45;&#45;2082701332784 -->
<g id="edge27" class="edge">
<title>2082701342624&#45;&#45;2082701332784</title>
<path fill="none" stroke="black" d="M5203.91,-644.51C5248.86,-640.21 5341.95,-631.32 5402.75,-625.51"/>
</g>
<!-- 2082701339936 -->
<g id="node49" class="node">
<title>2082701339936</title>
<ellipse fill="black" stroke="black" cx="4380.45" cy="-658" rx="2.7" ry="2.7"/>
</g>
<!-- 2082701340176&#45;&#45;2082701339936 -->
<g id="edge34" class="edge">
<title>2082701340176&#45;&#45;2082701339936</title>
<path fill="none" stroke="black" d="M3988.69,-640.2C4076.1,-644.18 4351.87,-656.74 4377.54,-657.91"/>
</g>
<!-- 2082701339456 -->
<g id="node50" class="node">
<title>2082701339456</title>
<ellipse fill="none" stroke="black" cx="4380.45" cy="-619" rx="189.03" ry="18"/>
<text text-anchor="middle" x="4380.45" y="-613" font-family="Times New Roman,serif" font-size="15.00">Register date of publishing received request</text>
</g>
<!-- 2082701340176&#45;&#45;2082701339456 -->
<g id="edge35" class="edge">
<title>2082701340176&#45;&#45;2082701339456</title>
<path fill="none" stroke="black" d="M3988.69,-637.73C4033.11,-635.6 4126.18,-631.14 4210.35,-627.11"/>
</g>
<!-- 2082701341328 -->
<g id="node51" class="node">
<title>2082701341328</title>
<ellipse fill="none" stroke="black" cx="4380.45" cy="-565" rx="103.04" ry="18"/>
<text text-anchor="middle" x="4380.45" y="-559" font-family="Times New Roman,serif" font-size="15.00">grant temporary permit</text>
</g>
<!-- 2082701340176&#45;&#45;2082701341328 -->
<g id="edge36" class="edge">
<title>2082701340176&#45;&#45;2082701341328</title>
<path fill="none" stroke="black" d="M3987.75,-634.48C4050.02,-623.44 4211.81,-594.74 4306.85,-577.88"/>
</g>
<!-- 2082701341184 -->
<g id="node56" class="node">
<title>2082701341184</title>
<ellipse fill="none" stroke="black" cx="4380.45" cy="-450" rx="132.73" ry="18"/>
<text text-anchor="middle" x="4380.45" y="-444" font-family="Times New Roman,serif" font-size="15.00">Create subcases completeness</text>
</g>
<!-- 2082701344016&#45;&#45;2082701341184 -->
<g id="edge41" class="edge">
<title>2082701344016&#45;&#45;2082701341184</title>
<path fill="none" stroke="black" d="M3988.38,-424.69C4041.62,-428.14 4165.71,-436.17 4259.94,-442.26"/>
</g>
<!-- 2082701342240 -->
<g id="node57" class="node">
<title>2082701342240</title>
<ellipse fill="none" stroke="black" cx="4380.45" cy="-396" rx="128.12" ry="18"/>
<text text-anchor="middle" x="4380.45" y="-390" font-family="Times New Roman,serif" font-size="15.00">Send procedure confirmation</text>
</g>
<!-- 2082701344016&#45;&#45;2082701342240 -->
<g id="edge42" class="edge">
<title>2082701344016&#45;&#45;2082701342240</title>
<path fill="none" stroke="black" d="M3988.38,-421.31C4042.25,-417.82 4168.63,-409.64 4263.24,-403.52"/>
</g>
<!-- 2082701343152 -->
<g id="node64" class="node">
<title>2082701343152</title>
<ellipse fill="black" stroke="black" cx="3751.73" cy="-226" rx="2.7" ry="2.7"/>
</g>
<!-- 2082701334368&#45;&#45;2082701343152 -->
<g id="edge51" class="edge">
<title>2082701334368&#45;&#45;2082701343152</title>
<path fill="none" stroke="black" d="M3689.14,-226C3711.41,-226 3740.89,-226 3748.74,-226"/>
</g>
<!-- 2082701331872 -->
<g id="node65" class="node">
<title>2082701331872</title>
<ellipse fill="none" stroke="black" cx="3751.73" cy="-99" rx="27" ry="18"/>
<text text-anchor="middle" x="3751.73" y="-93" font-family="Times New Roman,serif" font-size="15.00">seq</text>
</g>
<!-- 2082701334368&#45;&#45;2082701331872 -->
<g id="edge56" class="edge">
<title>2082701334368&#45;&#45;2082701331872</title>
<path fill="none" stroke="black" d="M3674.06,-209.66C3690.95,-185.27 3722.58,-139.63 3739.45,-115.28"/>
</g>
<!-- 2082701344544 -->
<g id="node66" class="node">
<title>2082701344544</title>
<ellipse fill="none" stroke="black" cx="3961.28" cy="-99" rx="128.12" ry="18"/>
<text text-anchor="middle" x="3961.28" y="-93" font-family="Times New Roman,serif" font-size="15.00">phase needs notification only</text>
</g>
<!-- 2082701331872&#45;&#45;2082701344544 -->
<g id="edge52" class="edge">
<title>2082701331872&#45;&#45;2082701344544</title>
<path fill="none" stroke="black" d="M3779.02,-99C3793.42,-99 3812.44,-99 3832.74,-99"/>
</g>
<!-- 2082701328896 -->
<g id="node67" class="node">
<title>2082701328896</title>
<ellipse fill="none" stroke="black" cx="3961.28" cy="-45" rx="27" ry="18"/>
<text text-anchor="middle" x="3961.28" y="-39" font-family="Times New Roman,serif" font-size="15.00">and</text>
</g>
<!-- 2082701331872&#45;&#45;2082701328896 -->
<g id="edge55" class="edge">
<title>2082701331872&#45;&#45;2082701328896</title>
<path fill="none" stroke="black" d="M3777.36,-92.59C3817.3,-82.2 3895.77,-61.79 3935.69,-51.4"/>
</g>
<!-- 2082701334800 -->
<g id="node68" class="node">
<title>2082701334800</title>
<ellipse fill="none" stroke="black" cx="4380.45" cy="-72" rx="236.63" ry="18"/>
<text text-anchor="middle" x="4380.45" y="-66" font-family="Times New Roman,serif" font-size="15.00">record senddate letter no permit or notification required</text>
</g>
<!-- 2082701328896&#45;&#45;2082701334800 -->
<g id="edge53" class="edge">
<title>2082701328896&#45;&#45;2082701334800</title>
<path fill="none" stroke="black" d="M3988.38,-46.69C4030.47,-49.41 4116.85,-55 4197.75,-60.24"/>
</g>
<!-- 2082701333072 -->
<g id="node69" class="node">
<title>2082701333072</title>
<ellipse fill="none" stroke="black" cx="4380.45" cy="-18" rx="154.22" ry="18"/>
<text text-anchor="middle" x="4380.45" y="-12" font-family="Times New Roman,serif" font-size="15.00">draft no permit or notification letter</text>
</g>
<!-- 2082701328896&#45;&#45;2082701333072 -->
<g id="edge54" class="edge">
<title>2082701328896&#45;&#45;2082701333072</title>
<path fill="none" stroke="black" d="M3988.38,-43.31C4038.77,-40.05 4152.61,-32.68 4244.54,-26.73"/>
</g>
<!-- 2082701328944 -->
<g id="node71" class="node">
<title>2082701328944</title>
<ellipse fill="black" stroke="black" cx="3425.06" cy="-284" rx="2.7" ry="2.7"/>
</g>
<!-- 2082701338064&#45;&#45;2082701328944 -->
<g id="edge60" class="edge">
<title>2082701338064&#45;&#45;2082701328944</title>
<path fill="none" stroke="black" d="M3087.53,-272.87C3166.8,-275.49 3398.8,-283.16 3422.16,-283.94"/>
</g>
<!-- 2082701336144 -->
<g id="node72" class="node">
<title>2082701336144</title>
<ellipse fill="none" stroke="black" cx="3425.06" cy="-245" rx="118.91" ry="18"/>
<text text-anchor="middle" x="3425.06" y="-239" font-family="Times New Roman,serif" font-size="15.00">Competent authority action</text>
</g>
<!-- 2082701338064&#45;&#45;2082701336144 -->
<g id="edge61" class="edge">
<title>2082701338064&#45;&#45;2082701336144</title>
<path fill="none" stroke="black" d="M3087.24,-270.06C3134.78,-266.52 3237.93,-258.85 3317.63,-252.92"/>
</g>
<!-- 2082706564512 -->
<g id="node74" class="node">
<title>2082706564512</title>
<ellipse fill="black" stroke="black" cx="2680.37" cy="-226" rx="2.7" ry="2.7"/>
</g>
<!-- 2082706562304&#45;&#45;2082706564512 -->
<g id="edge65" class="edge">
<title>2082706562304&#45;&#45;2082706564512</title>
<path fill="none" stroke="black" d="M2456.09,-222.42C2515.9,-223.38 2658.65,-225.67 2677.34,-225.97"/>
</g>
<!-- 2082706564032 -->
<g id="node75" class="node">
<title>2082706564032</title>
<ellipse fill="none" stroke="black" cx="2680.37" cy="-187" rx="27" ry="18"/>
<text text-anchor="middle" x="2680.37" y="-181" font-family="Times New Roman,serif" font-size="15.00">and</text>
</g>
<!-- 2082706562304&#45;&#45;2082706564032 -->
<g id="edge71" class="edge">
<title>2082706562304&#45;&#45;2082706564032</title>
<path fill="none" stroke="black" d="M2455.62,-218.39C2503.56,-211.66 2605.92,-197.3 2653.75,-190.59"/>
</g>
<!-- 2082701336720 -->
<g id="node76" class="node">
<title>2082701336720</title>
<ellipse fill="none" stroke="black" cx="3060.14" cy="-188" rx="155.25" ry="18"/>
<text text-anchor="middle" x="3060.14" y="-182" font-family="Times New Roman,serif" font-size="15.00">Generate terminate request message</text>
</g>
<!-- 2082706564032&#45;&#45;2082701336720 -->
<g id="edge66" class="edge">
<title>2082706564032&#45;&#45;2082701336720</title>
<path fill="none" stroke="black" d="M2707.64,-187.07C2748.46,-187.18 2830.21,-187.39 2904.6,-187.59"/>
</g>
<!-- 2082701334464 -->
<g id="node77" class="node">
<title>2082701334464</title>
<ellipse fill="none" stroke="black" cx="3060.14" cy="-134" rx="27" ry="18"/>
<text text-anchor="middle" x="3060.14" y="-128" font-family="Times New Roman,serif" font-size="15.00">seq</text>
</g>
<!-- 2082706564032&#45;&#45;2082701334464 -->
<g id="edge70" class="edge">
<title>2082706564032&#45;&#45;2082701334464</title>
<path fill="none" stroke="black" d="M2707.04,-183.4C2775.87,-173.74 2964.02,-147.34 3033.18,-137.64"/>
</g>
<!-- 2082701344448 -->
<g id="node78" class="node">
<title>2082701344448</title>
<ellipse fill="none" stroke="black" cx="3425.06" cy="-188" rx="128.12" ry="18"/>
<text text-anchor="middle" x="3425.06" y="-182" font-family="Times New Roman,serif" font-size="15.00">Message to terminate request</text>
</g>
<!-- 2082701334464&#45;&#45;2082701344448 -->
<g id="edge67" class="edge">
<title>2082701334464&#45;&#45;2082701344448</title>
<path fill="none" stroke="black" d="M3086.95,-137.84C3137.96,-145.43 3253.8,-162.67 3335.4,-174.81"/>
</g>
<!-- 2082701334320 -->
<g id="node79" class="node">
<title>2082701334320</title>
<ellipse fill="none" stroke="black" cx="3425.06" cy="-134" rx="121.98" ry="18"/>
<text text-anchor="middle" x="3425.06" y="-128" font-family="Times New Roman,serif" font-size="15.00">View publication date field</text>
</g>
<!-- 2082701334464&#45;&#45;2082701334320 -->
<g id="edge68" class="edge">
<title>2082701334464&#45;&#45;2082701334320</title>
<path fill="none" stroke="black" d="M3087.53,-134C3132.31,-134 3225.8,-134 3302.91,-134"/>
</g>
<!-- 2082701341520 -->
<g id="node80" class="node">
<title>2082701341520</title>
<ellipse fill="none" stroke="black" cx="3425.06" cy="-80" rx="173.67" ry="18"/>
<text text-anchor="middle" x="3425.06" y="-74" font-family="Times New Roman,serif" font-size="15.00">Procedure phase terminated prematurely</text>
</g>
<!-- 2082701334464&#45;&#45;2082701341520 -->
<g id="edge69" class="edge">
<title>2082701334464&#45;&#45;2082701341520</title>
<path fill="none" stroke="black" d="M3086.95,-130.16C3135.53,-122.93 3242.92,-106.95 3323.52,-94.96"/>
</g>
<!-- 2082706564368 -->
<g id="node82" class="node">
<title>2082706564368</title>
<ellipse fill="none" stroke="black" cx="563.08" cy="-350" rx="54.93" ry="18"/>
<text text-anchor="middle" x="563.08" y="-344" font-family="Times New Roman,serif" font-size="15.00">Pause term</text>
</g>
<!-- 2082706559232&#45;&#45;2082706564368 -->
<g id="edge80" class="edge">
<title>2082706559232&#45;&#45;2082706564368</title>
<path fill="none" stroke="black" d="M256.13,-300.19C311.31,-309.18 441.72,-330.41 513.18,-342.04"/>
</g>
<!-- 2082706570608 -->
<g id="node83" class="node">
<title>2082706570608</title>
<ellipse fill="none" stroke="black" cx="563.08" cy="-296" rx="65.17" ry="18"/>
<text text-anchor="middle" x="563.08" y="-290" font-family="Times New Roman,serif" font-size="15.00">Close the file</text>
</g>
<!-- 2082706559232&#45;&#45;2082706570608 -->
<g id="edge81" class="edge">
<title>2082706559232&#45;&#45;2082706570608</title>
<path fill="none" stroke="black" d="M256.69,-296C308.33,-296 424.3,-296 497.54,-296"/>
</g>
<!-- 2082706569408 -->
<g id="node84" class="node">
<title>2082706569408</title>
<ellipse fill="none" stroke="black" cx="563.08" cy="-242" rx="158.32" ry="18"/>
<text text-anchor="middle" x="563.08" y="-236" font-family="Times New Roman,serif" font-size="15.00">Log senddate for termination request</text>
</g>
<!-- 2082706559232&#45;&#45;2082706569408 -->
<g id="edge82" class="edge">
<title>2082706559232&#45;&#45;2082706569408</title>
<path fill="none" stroke="black" d="M256.13,-291.81C301.49,-284.42 397.7,-268.76 470.19,-256.96"/>
</g>
<!-- 2082706559280 -->
<g id="node85" class="node">
<title>2082706559280</title>
<ellipse fill="none" stroke="black" cx="563.08" cy="-188" rx="27" ry="18"/>
<text text-anchor="middle" x="563.08" y="-182" font-family="Times New Roman,serif" font-size="15.00">seq</text>
</g>
<!-- 2082706559232&#45;&#45;2082706559280 -->
<g id="edge86" class="edge">
<title>2082706559232&#45;&#45;2082706559280</title>
<path fill="none" stroke="black" d="M254.24,-288.23C315.44,-268.31 477.48,-215.55 538.45,-195.7"/>
</g>
<!-- 2082706563408 -->
<g id="node86" class="node">
<title>2082706563408</title>
<ellipse fill="none" stroke="black" cx="930.05" cy="-242" rx="123" ry="18"/>
<text text-anchor="middle" x="930.05" y="-236" font-family="Times New Roman,serif" font-size="15.00">Gain additional information</text>
</g>
<!-- 2082706559280&#45;&#45;2082706563408 -->
<g id="edge83" class="edge">
<title>2082706559280&#45;&#45;2082706563408</title>
<path fill="none" stroke="black" d="M589.75,-191.8C641.35,-199.43 759.74,-216.95 842.05,-229.13"/>
</g>
<!-- 2082706564560 -->
<g id="node87" class="node">
<title>2082706564560</title>
<ellipse fill="none" stroke="black" cx="930.05" cy="-188" rx="134.78" ry="18"/>
<text text-anchor="middle" x="930.05" y="-182" font-family="Times New Roman,serif" font-size="15.00">Remain indefinitely suspended</text>
</g>
<!-- 2082706559280&#45;&#45;2082706564560 -->
<g id="edge84" class="edge">
<title>2082706559280&#45;&#45;2082706564560</title>
<path fill="none" stroke="black" d="M590.33,-188C632.91,-188 719.84,-188 794.98,-188"/>
</g>
<!-- 2082706563984 -->
<g id="node88" class="node">
<title>2082706563984</title>
<ellipse fill="none" stroke="black" cx="930.05" cy="-134" rx="172.65" ry="18"/>
<text text-anchor="middle" x="930.05" y="-128" font-family="Times New Roman,serif" font-size="15.00">Creating permanent suspension decision</text>
</g>
<!-- 2082706559280&#45;&#45;2082706563984 -->
<g id="edge85" class="edge">
<title>2082706559280&#45;&#45;2082706563984</title>
<path fill="none" stroke="black" d="M589.75,-184.2C638.51,-176.99 746.91,-160.95 828.15,-148.93"/>
</g>
</g>
</svg>
