<?xml version="1.0" encoding="UTF-8" standalone="no"?>
<!DOCTYPE svg PUBLIC "-//W3C//DTD SVG 1.1//EN"
 "http://www.w3.org/Graphics/SVG/1.1/DTD/svg11.dtd">
<!-- Generated by graphviz version 11.0.0 (20240428.1522)
 -->
<!-- Title: pt Pages: 1 -->
<svg width="3620pt" height="938pt"
 viewBox="0.00 0.00 3619.61 937.70" xmlns="http://www.w3.org/2000/svg" xmlns:xlink="http://www.w3.org/1999/xlink">
<g id="graph0" class="graph" transform="scale(1 1) rotate(0) translate(4 933.7)">
<title>pt</title>
<polygon fill="white" stroke="none" points="-4,4 -4,-933.7 3615.61,-933.7 3615.61,4 -4,4"/>
<!-- 2082706924864 -->
<g id="node1" class="node">
<title>2082706924864</title>
<ellipse fill="none" stroke="black" cx="27" cy="-729" rx="27" ry="18"/>
<text text-anchor="middle" x="27" y="-723" font-family="Times New Roman,serif" font-size="15.00">seq</text>
</g>
<!-- 2082706921888 -->
<g id="node2" class="node">
<title>2082706921888</title>
<ellipse fill="none" stroke="black" cx="229.38" cy="-843" rx="139.38" ry="18"/>
<text text-anchor="middle" x="229.38" y="-837" font-family="Times New Roman,serif" font-size="15.00">Record submission date request</text>
</g>
<!-- 2082706924864&#45;&#45;2082706921888 -->
<g id="edge1" class="edge">
<title>2082706924864&#45;&#45;2082706921888</title>
<path fill="none" stroke="black" d="M48.32,-740.56C83.34,-760.48 155.32,-801.43 196.88,-825.08"/>
</g>
<!-- 2082706923904 -->
<g id="node3" class="node">
<title>2082706923904</title>
<ellipse fill="none" stroke="black" cx="229.38" cy="-789" rx="27" ry="18"/>
<text text-anchor="middle" x="229.38" y="-783" font-family="Times New Roman,serif" font-size="15.00">and</text>
</g>
<!-- 2082706924864&#45;&#45;2082706923904 -->
<g id="edge34" class="edge">
<title>2082706924864&#45;&#45;2082706923904</title>
<path fill="none" stroke="black" d="M52.17,-736.24C90.69,-747.77 165.56,-770.19 204.13,-781.74"/>
</g>
<!-- 2082706929952 -->
<g id="node36" class="node">
<title>2082706929952</title>
<ellipse fill="none" stroke="black" cx="229.38" cy="-729" rx="27" ry="18"/>
<text text-anchor="middle" x="229.38" y="-723" font-family="Times New Roman,serif" font-size="15.00">xor</text>
</g>
<!-- 2082706924864&#45;&#45;2082706929952 -->
<g id="edge37" class="edge">
<title>2082706924864&#45;&#45;2082706929952</title>
<path fill="none" stroke="black" d="M54.2,-729C92.6,-729 163.77,-729 202.18,-729"/>
</g>
<!-- 2082706916320 -->
<g id="node39" class="node">
<title>2082706916320</title>
<ellipse fill="none" stroke="black" cx="229.38" cy="-663" rx="27" ry="18"/>
<text text-anchor="middle" x="229.38" y="-657" font-family="Times New Roman,serif" font-size="15.00">and</text>
</g>
<!-- 2082706924864&#45;&#45;2082706916320 -->
<g id="edge55" class="edge">
<title>2082706924864&#45;&#45;2082706916320</title>
<path fill="none" stroke="black" d="M51.77,-721.17C90.34,-708.47 166.09,-683.52 204.64,-670.82"/>
</g>
<!-- 2082707022928 -->
<g id="node57" class="node">
<title>2082707022928</title>
<ellipse fill="none" stroke="black" cx="229.38" cy="-474" rx="27" ry="18"/>
<text text-anchor="middle" x="229.38" y="-468" font-family="Times New Roman,serif" font-size="15.00">xor</text>
</g>
<!-- 2082706924864&#45;&#45;2082707022928 -->
<g id="edge87" class="edge">
<title>2082706924864&#45;&#45;2082707022928</title>
<path fill="none" stroke="black" d="M40.53,-713.05C76.52,-667.25 179.87,-535.73 215.85,-489.95"/>
</g>
<!-- 2082707026144 -->
<g id="node4" class="node">
<title>2082707026144</title>
<ellipse fill="none" stroke="black" cx="558.99" cy="-849" rx="138.87" ry="18"/>
<text text-anchor="middle" x="558.99" y="-843" font-family="Times New Roman,serif" font-size="15.00">Log senddate acknowledgement</text>
</g>
<!-- 2082706923904&#45;&#45;2082707026144 -->
<g id="edge2" class="edge">
<title>2082706923904&#45;&#45;2082707026144</title>
<path fill="none" stroke="black" d="M255.82,-793.66C302.65,-802.23 404.34,-820.86 476.81,-834.13"/>
</g>
<!-- 2082707028064 -->
<g id="node5" class="node">
<title>2082707028064</title>
<ellipse fill="none" stroke="black" cx="558.99" cy="-795" rx="27" ry="18"/>
<text text-anchor="middle" x="558.99" y="-789" font-family="Times New Roman,serif" font-size="15.00">seq</text>
</g>
<!-- 2082706923904&#45;&#45;2082707028064 -->
<g id="edge33" class="edge">
<title>2082706923904&#45;&#45;2082707028064</title>
<path fill="none" stroke="black" d="M256.64,-789.48C317.98,-790.6 470.14,-793.39 531.61,-794.52"/>
</g>
<!-- 2082707027536 -->
<g id="node6" class="node">
<title>2082707027536</title>
<ellipse fill="none" stroke="black" cx="908.56" cy="-849" rx="27" ry="18"/>
<text text-anchor="middle" x="908.56" y="-843" font-family="Times New Roman,serif" font-size="15.00">xor</text>
</g>
<!-- 2082707028064&#45;&#45;2082707027536 -->
<g id="edge9" class="edge">
<title>2082707028064&#45;&#45;2082707027536</title>
<path fill="none" stroke="black" d="M585.83,-799.01C650.33,-809.04 817.84,-835.06 882.02,-845.03"/>
</g>
<!-- 2082707021008 -->
<g id="node13" class="node">
<title>2082707021008</title>
<ellipse fill="none" stroke="black" cx="908.56" cy="-795" rx="27" ry="18"/>
<text text-anchor="middle" x="908.56" y="-789" font-family="Times New Roman,serif" font-size="15.00">and</text>
</g>
<!-- 2082707028064&#45;&#45;2082707021008 -->
<g id="edge32" class="edge">
<title>2082707028064&#45;&#45;2082707021008</title>
<path fill="none" stroke="black" d="M586.4,-795C651.03,-795 816.6,-795 881.19,-795"/>
</g>
<!-- 2082707019568 -->
<g id="node7" class="node">
<title>2082707019568</title>
<ellipse fill="black" stroke="black" cx="1241.75" cy="-888" rx="2.7" ry="2.7"/>
</g>
<!-- 2082707027536&#45;&#45;2082707019568 -->
<g id="edge3" class="edge">
<title>2082707027536&#45;&#45;2082707019568</title>
<path fill="none" stroke="black" d="M935.55,-852.06C1009.35,-860.75 1216.35,-885.13 1238.77,-887.77"/>
</g>
<!-- 2082707016112 -->
<g id="node8" class="node">
<title>2082707016112</title>
<ellipse fill="none" stroke="black" cx="1241.75" cy="-849" rx="27" ry="18"/>
<text text-anchor="middle" x="1241.75" y="-843" font-family="Times New Roman,serif" font-size="15.00">seq</text>
</g>
<!-- 2082707027536&#45;&#45;2082707016112 -->
<g id="edge8" class="edge">
<title>2082707027536&#45;&#45;2082707016112</title>
<path fill="none" stroke="black" d="M935.82,-849C997.79,-849 1152.51,-849 1214.48,-849"/>
</g>
<!-- 2082707014624 -->
<g id="node9" class="node">
<title>2082707014624</title>
<ellipse fill="none" stroke="black" cx="1555.49" cy="-903" rx="27" ry="18"/>
<text text-anchor="middle" x="1555.49" y="-897" font-family="Times New Roman,serif" font-size="15.00">xor</text>
</g>
<!-- 2082707016112&#45;&#45;2082707014624 -->
<g id="edge6" class="edge">
<title>2082707016112&#45;&#45;2082707014624</title>
<path fill="none" stroke="black" d="M1268.26,-853.42C1326.86,-863.57 1470.54,-888.46 1529.06,-898.6"/>
</g>
<!-- 2082707028640 -->
<g id="node12" class="node">
<title>2082707028640</title>
<ellipse fill="none" stroke="black" cx="1555.49" cy="-849" rx="109.19" ry="18"/>
<text text-anchor="middle" x="1555.49" y="-843" font-family="Times New Roman,serif" font-size="15.00">OLO messaging ongoing</text>
</g>
<!-- 2082707016112&#45;&#45;2082707028640 -->
<g id="edge7" class="edge">
<title>2082707016112&#45;&#45;2082707028640</title>
<path fill="none" stroke="black" d="M1269.06,-849C1307.88,-849 1382.77,-849 1446.1,-849"/>
</g>
<!-- 2082707029792 -->
<g id="node10" class="node">
<title>2082707029792</title>
<ellipse fill="black" stroke="black" cx="1892.77" cy="-927" rx="2.7" ry="2.7"/>
</g>
<!-- 2082707014624&#45;&#45;2082707029792 -->
<g id="edge4" class="edge">
<title>2082707014624&#45;&#45;2082707029792</title>
<path fill="none" stroke="black" d="M1582.8,-904.88C1657.52,-910.23 1867.08,-925.23 1889.77,-926.86"/>
</g>
<!-- 2082707027728 -->
<g id="node11" class="node">
<title>2082707027728</title>
<ellipse fill="none" stroke="black" cx="1892.77" cy="-888" rx="161.39" ry="18"/>
<text text-anchor="middle" x="1892.77" y="-882" font-family="Times New Roman,serif" font-size="15.00">Log senddate procedure confirmation</text>
</g>
<!-- 2082707014624&#45;&#45;2082707027728 -->
<g id="edge5" class="edge">
<title>2082707014624&#45;&#45;2082707027728</title>
<path fill="none" stroke="black" d="M1582.8,-901.82C1617.53,-900.27 1681.41,-897.41 1742.1,-894.7"/>
</g>
<!-- 2082707025568 -->
<g id="node14" class="node">
<title>2082707025568</title>
<ellipse fill="none" stroke="black" cx="1241.75" cy="-795" rx="124.03" ry="18"/>
<text text-anchor="middle" x="1241.75" y="-789" font-family="Times New Roman,serif" font-size="15.00">Period application received</text>
</g>
<!-- 2082707021008&#45;&#45;2082707025568 -->
<g id="edge10" class="edge">
<title>2082707021008&#45;&#45;2082707025568</title>
<path fill="none" stroke="black" d="M935.82,-795C974.91,-795 1050.92,-795 1117.27,-795"/>
</g>
<!-- 2082707023024 -->
<g id="node15" class="node">
<title>2082707023024</title>
<ellipse fill="none" stroke="black" cx="1241.75" cy="-741" rx="27" ry="18"/>
<text text-anchor="middle" x="1241.75" y="-735" font-family="Times New Roman,serif" font-size="15.00">seq</text>
</g>
<!-- 2082707021008&#45;&#45;2082707023024 -->
<g id="edge31" class="edge">
<title>2082707021008&#45;&#45;2082707023024</title>
<path fill="none" stroke="black" d="M935.27,-790.81C997.13,-780.72 1153.67,-755.2 1215.28,-745.15"/>
</g>
<!-- 2082707024752 -->
<g id="node16" class="node">
<title>2082707024752</title>
<ellipse fill="none" stroke="black" cx="1555.49" cy="-795" rx="27" ry="18"/>
<text text-anchor="middle" x="1555.49" y="-789" font-family="Times New Roman,serif" font-size="15.00">xor</text>
</g>
<!-- 2082707023024&#45;&#45;2082707024752 -->
<g id="edge13" class="edge">
<title>2082707023024&#45;&#45;2082707024752</title>
<path fill="none" stroke="black" d="M1268.26,-745.42C1326.86,-755.57 1470.54,-780.46 1529.06,-790.6"/>
</g>
<!-- 2082707027200 -->
<g id="node19" class="node">
<title>2082707027200</title>
<ellipse fill="none" stroke="black" cx="1555.49" cy="-741" rx="27" ry="18"/>
<text text-anchor="middle" x="1555.49" y="-735" font-family="Times New Roman,serif" font-size="15.00">and</text>
</g>
<!-- 2082707023024&#45;&#45;2082707027200 -->
<g id="edge30" class="edge">
<title>2082707023024&#45;&#45;2082707027200</title>
<path fill="none" stroke="black" d="M1269.06,-741C1327.92,-741 1469.67,-741 1528.36,-741"/>
</g>
<!-- 2082707029600 -->
<g id="node17" class="node">
<title>2082707029600</title>
<ellipse fill="black" stroke="black" cx="1892.77" cy="-834" rx="2.7" ry="2.7"/>
</g>
<!-- 2082707024752&#45;&#45;2082707029600 -->
<g id="edge11" class="edge">
<title>2082707024752&#45;&#45;2082707029600</title>
<path fill="none" stroke="black" d="M1582.52,-798.03C1656.99,-806.69 1867.02,-831.12 1889.77,-833.77"/>
</g>
<!-- 2082707024176 -->
<g id="node18" class="node">
<title>2082707024176</title>
<ellipse fill="none" stroke="black" cx="1892.77" cy="-795" rx="136.31" ry="18"/>
<text text-anchor="middle" x="1892.77" y="-789" font-family="Times New Roman,serif" font-size="15.00">Reception through OLO system</text>
</g>
<!-- 2082707024752&#45;&#45;2082707024176 -->
<g id="edge12" class="edge">
<title>2082707024752&#45;&#45;2082707024176</title>
<path fill="none" stroke="black" d="M1582.8,-795C1620.23,-795 1691.52,-795 1756.19,-795"/>
</g>
<!-- 2082707029072 -->
<g id="node20" class="node">
<title>2082707029072</title>
<ellipse fill="none" stroke="black" cx="1892.77" cy="-741" rx="45.21" ry="18"/>
<text text-anchor="middle" x="1892.77" y="-735" font-family="Times New Roman,serif" font-size="15.00">xor loop</text>
</g>
<!-- 2082707027200&#45;&#45;2082707029072 -->
<g id="edge16" class="edge">
<title>2082707027200&#45;&#45;2082707029072</title>
<path fill="none" stroke="black" d="M1582.8,-741C1639.99,-741 1776.21,-741 1847.13,-741"/>
</g>
<!-- 2082707016832 -->
<g id="node23" class="node">
<title>2082707016832</title>
<ellipse fill="none" stroke="black" cx="1892.77" cy="-687" rx="27" ry="18"/>
<text text-anchor="middle" x="1892.77" y="-681" font-family="Times New Roman,serif" font-size="15.00">xor</text>
</g>
<!-- 2082707027200&#45;&#45;2082707016832 -->
<g id="edge29" class="edge">
<title>2082707027200&#45;&#45;2082707016832</title>
<path fill="none" stroke="black" d="M1582.24,-736.85C1644.8,-726.78 1804.21,-701.1 1866.39,-691.09"/>
</g>
<!-- 2082707024896 -->
<g id="node21" class="node">
<title>2082707024896</title>
<ellipse fill="none" stroke="black" cx="2279.19" cy="-780" rx="115.84" ry="18"/>
<text text-anchor="middle" x="2279.19" y="-774" font-family="Times New Roman,serif" font-size="15.00">Issue confirmation receipt</text>
</g>
<!-- 2082707029072&#45;&#45;2082707024896 -->
<g id="edge14" class="edge">
<title>2082707029072&#45;&#45;2082707024896</title>
<path fill="none" stroke="black" d="M1937.12,-745.4C1995.93,-751.36 2102.65,-762.19 2181.1,-770.15"/>
</g>
<!-- 2082707028016 -->
<g id="node22" class="node">
<title>2082707028016</title>
<ellipse fill="black" stroke="black" cx="2279.19" cy="-741" rx="2.7" ry="2.7"/>
</g>
<!-- 2082707029072&#45;&#45;2082707028016 -->
<g id="edge15" class="edge">
<title>2082707029072&#45;&#45;2082707028016</title>
<path fill="none" stroke="black" d="M1938.25,-741C2033.9,-741 2252.49,-741 2276.11,-741"/>
</g>
<!-- 2082707026192 -->
<g id="node24" class="node">
<title>2082707026192</title>
<ellipse fill="black" stroke="black" cx="2279.19" cy="-718" rx="2.7" ry="2.7"/>
</g>
<!-- 2082707016832&#45;&#45;2082707026192 -->
<g id="edge17" class="edge">
<title>2082707016832&#45;&#45;2082707026192</title>
<path fill="none" stroke="black" d="M1919.89,-689.11C2002.02,-695.73 2251.07,-715.81 2276.15,-717.84"/>
</g>
<!-- 2082707021632 -->
<g id="node25" class="node">
<title>2082707021632</title>
<ellipse fill="none" stroke="black" cx="2279.19" cy="-679" rx="27" ry="18"/>
<text text-anchor="middle" x="2279.19" y="-673" font-family="Times New Roman,serif" font-size="15.00">seq</text>
</g>
<!-- 2082707016832&#45;&#45;2082707021632 -->
<g id="edge28" class="edge">
<title>2082707016832&#45;&#45;2082707021632</title>
<path fill="none" stroke="black" d="M1920.2,-686.45C1990.51,-684.99 2181.61,-681.01 2251.84,-679.55"/>
</g>
<!-- 2082707023408 -->
<g id="node26" class="node">
<title>2082707023408</title>
<ellipse fill="none" stroke="black" cx="2654.86" cy="-729" rx="27" ry="18"/>
<text text-anchor="middle" x="2654.86" y="-723" font-family="Times New Roman,serif" font-size="15.00">and</text>
</g>
<!-- 2082707021632&#45;&#45;2082707023408 -->
<g id="edge24" class="edge">
<title>2082707021632&#45;&#45;2082707023408</title>
<path fill="none" stroke="black" d="M2306.17,-682.48C2374.69,-691.64 2559.73,-716.4 2628.05,-725.55"/>
</g>
<!-- 2082707027248 -->
<g id="node33" class="node">
<title>2082707027248</title>
<ellipse fill="none" stroke="black" cx="2654.86" cy="-675" rx="27" ry="18"/>
<text text-anchor="middle" x="2654.86" y="-669" font-family="Times New Roman,serif" font-size="15.00">xor</text>
</g>
<!-- 2082707021632&#45;&#45;2082707027248 -->
<g id="edge27" class="edge">
<title>2082707021632&#45;&#45;2082707027248</title>
<path fill="none" stroke="black" d="M2306.47,-678.72C2375.08,-677.98 2559.04,-676.02 2627.61,-675.28"/>
</g>
<!-- 2082707022400 -->
<g id="node27" class="node">
<title>2082707022400</title>
<ellipse fill="none" stroke="black" cx="2940.45" cy="-779" rx="27" ry="18"/>
<text text-anchor="middle" x="2940.45" y="-773" font-family="Times New Roman,serif" font-size="15.00">xor</text>
</g>
<!-- 2082707023408&#45;&#45;2082707022400 -->
<g id="edge22" class="edge">
<title>2082707023408&#45;&#45;2082707022400</title>
<path fill="none" stroke="black" d="M2681.28,-733.48C2735.11,-742.97 2860.11,-765.01 2913.99,-774.51"/>
</g>
<!-- 2082707025952 -->
<g id="node32" class="node">
<title>2082707025952</title>
<ellipse fill="none" stroke="black" cx="2940.45" cy="-725" rx="98.95" ry="18"/>
<text text-anchor="middle" x="2940.45" y="-719" font-family="Times New Roman,serif" font-size="15.00">Applicant is involved</text>
</g>
<!-- 2082707023408&#45;&#45;2082707025952 -->
<g id="edge23" class="edge">
<title>2082707023408&#45;&#45;2082707025952</title>
<path fill="none" stroke="black" d="M2682.29,-728.63C2718.38,-728.12 2785.06,-727.18 2841.48,-726.38"/>
</g>
<!-- 2082707014960 -->
<g id="node28" class="node">
<title>2082707014960</title>
<ellipse fill="black" stroke="black" cx="3120.61" cy="-798" rx="2.7" ry="2.7"/>
</g>
<!-- 2082707022400&#45;&#45;2082707014960 -->
<g id="edge18" class="edge">
<title>2082707022400&#45;&#45;2082707014960</title>
<path fill="none" stroke="black" d="M2967.36,-781.76C3012.52,-786.58 3102.33,-796.16 3117.43,-797.77"/>
</g>
<!-- 2082707020672 -->
<g id="node29" class="node">
<title>2082707020672</title>
<ellipse fill="none" stroke="black" cx="3120.61" cy="-759" rx="45.21" ry="18"/>
<text text-anchor="middle" x="3120.61" y="-753" font-family="Times New Roman,serif" font-size="15.00">xor loop</text>
</g>
<!-- 2082707022400&#45;&#45;2082707020672 -->
<g id="edge21" class="edge">
<title>2082707022400&#45;&#45;2082707020672</title>
<path fill="none" stroke="black" d="M2967.36,-776.09C2996.02,-772.87 3042.66,-767.64 3076.78,-763.81"/>
</g>
<!-- 2082707029744 -->
<g id="node30" class="node">
<title>2082707029744</title>
<ellipse fill="none" stroke="black" cx="3406.72" cy="-779" rx="204.89" ry="18"/>
<text text-anchor="middle" x="3406.72" y="-773" font-family="Times New Roman,serif" font-size="15.00">No permit necessary or only notification needed</text>
</g>
<!-- 2082707020672&#45;&#45;2082707029744 -->
<g id="edge19" class="edge">
<title>2082707020672&#45;&#45;2082707029744</title>
<path fill="none" stroke="black" d="M3165.38,-762.08C3187.33,-763.63 3215.41,-765.6 3244.59,-767.66"/>
</g>
<!-- 2082707017888 -->
<g id="node31" class="node">
<title>2082707017888</title>
<ellipse fill="black" stroke="black" cx="3406.72" cy="-740" rx="2.7" ry="2.7"/>
</g>
<!-- 2082707020672&#45;&#45;2082707017888 -->
<g id="edge20" class="edge">
<title>2082707020672&#45;&#45;2082707017888</title>
<path fill="none" stroke="black" d="M3165.69,-756.05C3240.19,-751.07 3384.79,-741.4 3403.67,-740.14"/>
</g>
<!-- 2082707016160 -->
<g id="node34" class="node">
<title>2082707016160</title>
<ellipse fill="black" stroke="black" cx="2940.45" cy="-679" rx="2.7" ry="2.7"/>
</g>
<!-- 2082707027248&#45;&#45;2082707016160 -->
<g id="edge25" class="edge">
<title>2082707027248&#45;&#45;2082707016160</title>
<path fill="none" stroke="black" d="M2682.29,-675.37C2748.29,-676.3 2916.56,-678.68 2937.34,-678.97"/>
</g>
<!-- 2082707021776 -->
<g id="node35" class="node">
<title>2082707021776</title>
<ellipse fill="none" stroke="black" cx="2940.45" cy="-640" rx="95.88" ry="18"/>
<text text-anchor="middle" x="2940.45" y="-634" font-family="Times New Roman,serif" font-size="15.00">Terminate on request</text>
</g>
<!-- 2082707027248&#45;&#45;2082707021776 -->
<g id="edge26" class="edge">
<title>2082707027248&#45;&#45;2082707021776</title>
<path fill="none" stroke="black" d="M2681.78,-671.8C2721.57,-666.89 2799.37,-657.29 2859.11,-649.92"/>
</g>
<!-- 2082707020528 -->
<g id="node37" class="node">
<title>2082707020528</title>
<ellipse fill="black" stroke="black" cx="558.99" cy="-756" rx="2.7" ry="2.7"/>
</g>
<!-- 2082706929952&#45;&#45;2082707020528 -->
<g id="edge35" class="edge">
<title>2082706929952&#45;&#45;2082707020528</title>
<path fill="none" stroke="black" d="M256.64,-731.16C330.13,-737.22 533.97,-754.02 556.04,-755.84"/>
</g>
<!-- 2082707020960 -->
<g id="node38" class="node">
<title>2082707020960</title>
<ellipse fill="none" stroke="black" cx="558.99" cy="-717" rx="154.22" ry="18"/>
<text text-anchor="middle" x="558.99" y="-711" font-family="Times New Roman,serif" font-size="15.00">draft no permit or notification letter</text>
</g>
<!-- 2082706929952&#45;&#45;2082707020960 -->
<g id="edge36" class="edge">
<title>2082706929952&#45;&#45;2082707020960</title>
<path fill="none" stroke="black" d="M256.64,-728.04C290.57,-726.8 352.3,-724.53 411.1,-722.38"/>
</g>
<!-- 2082707028352 -->
<g id="node40" class="node">
<title>2082707028352</title>
<ellipse fill="none" stroke="black" cx="558.99" cy="-663" rx="142.45" ry="18"/>
<text text-anchor="middle" x="558.99" y="-657" font-family="Times New Roman,serif" font-size="15.00">Direct to the competent authority</text>
</g>
<!-- 2082706916320&#45;&#45;2082707028352 -->
<g id="edge38" class="edge">
<title>2082706916320&#45;&#45;2082707028352</title>
<path fill="none" stroke="black" d="M256.64,-663C291.56,-663 355.92,-663 416.22,-663"/>
</g>
<!-- 2082707017984 -->
<g id="node41" class="node">
<title>2082707017984</title>
<ellipse fill="none" stroke="black" cx="558.99" cy="-609" rx="27" ry="18"/>
<text text-anchor="middle" x="558.99" y="-603" font-family="Times New Roman,serif" font-size="15.00">seq</text>
</g>
<!-- 2082706916320&#45;&#45;2082707017984 -->
<g id="edge54" class="edge">
<title>2082706916320&#45;&#45;2082707017984</title>
<path fill="none" stroke="black" d="M256.09,-658.76C317.33,-648.67 471.28,-623.29 532.4,-613.22"/>
</g>
<!-- 2082707019808 -->
<g id="node42" class="node">
<title>2082707019808</title>
<ellipse fill="none" stroke="black" cx="908.56" cy="-663" rx="141.94" ry="18"/>
<text text-anchor="middle" x="908.56" y="-657" font-family="Times New Roman,serif" font-size="15.00">Normal procedure without MER</text>
</g>
<!-- 2082707017984&#45;&#45;2082707019808 -->
<g id="edge39" class="edge">
<title>2082707017984&#45;&#45;2082707019808</title>
<path fill="none" stroke="black" d="M585.83,-613.01C634.05,-620.51 739.83,-636.94 816.98,-648.93"/>
</g>
<!-- 2082707024560 -->
<g id="node43" class="node">
<title>2082707024560</title>
<ellipse fill="none" stroke="black" cx="908.56" cy="-609" rx="27" ry="18"/>
<text text-anchor="middle" x="908.56" y="-603" font-family="Times New Roman,serif" font-size="15.00">xor</text>
</g>
<!-- 2082707017984&#45;&#45;2082707024560 -->
<g id="edge53" class="edge">
<title>2082707017984&#45;&#45;2082707024560</title>
<path fill="none" stroke="black" d="M586.4,-609C651.03,-609 816.6,-609 881.19,-609"/>
</g>
<!-- 2082707018080 -->
<g id="node44" class="node">
<title>2082707018080</title>
<ellipse fill="black" stroke="black" cx="1241.75" cy="-609" rx="2.7" ry="2.7"/>
</g>
<!-- 2082707024560&#45;&#45;2082707018080 -->
<g id="edge40" class="edge">
<title>2082707024560&#45;&#45;2082707018080</title>
<path fill="none" stroke="black" d="M935.82,-609C1009.87,-609 1216.41,-609 1238.78,-609"/>
</g>
<!-- 2082707028592 -->
<g id="node45" class="node">
<title>2082707028592</title>
<ellipse fill="none" stroke="black" cx="1241.75" cy="-570" rx="27" ry="18"/>
<text text-anchor="middle" x="1241.75" y="-564" font-family="Times New Roman,serif" font-size="15.00">seq</text>
</g>
<!-- 2082707024560&#45;&#45;2082707028592 -->
<g id="edge52" class="edge">
<title>2082707024560&#45;&#45;2082707028592</title>
<path fill="none" stroke="black" d="M935.55,-605.94C997.46,-598.65 1153.09,-580.32 1214.88,-573.05"/>
</g>
<!-- 2082707018608 -->
<g id="node46" class="node">
<title>2082707018608</title>
<ellipse fill="none" stroke="black" cx="1555.49" cy="-624" rx="27" ry="18"/>
<text text-anchor="middle" x="1555.49" y="-618" font-family="Times New Roman,serif" font-size="15.00">xor</text>
</g>
<!-- 2082707028592&#45;&#45;2082707018608 -->
<g id="edge47" class="edge">
<title>2082707028592&#45;&#45;2082707018608</title>
<path fill="none" stroke="black" d="M1268.26,-574.42C1326.86,-584.57 1470.54,-609.46 1529.06,-619.6"/>
</g>
<!-- 2082707014144 -->
<g id="node53" class="node">
<title>2082707014144</title>
<ellipse fill="none" stroke="black" cx="1555.49" cy="-570" rx="139.89" ry="18"/>
<text text-anchor="middle" x="1555.49" y="-564" font-family="Times New Roman,serif" font-size="15.00">Activities for regular procedure</text>
</g>
<!-- 2082707028592&#45;&#45;2082707014144 -->
<g id="edge48" class="edge">
<title>2082707028592&#45;&#45;2082707014144</title>
<path fill="none" stroke="black" d="M1269.06,-570C1301.72,-570 1359.9,-570 1415.25,-570"/>
</g>
<!-- 2082707017264 -->
<g id="node54" class="node">
<title>2082707017264</title>
<ellipse fill="none" stroke="black" cx="1555.49" cy="-516" rx="27" ry="18"/>
<text text-anchor="middle" x="1555.49" y="-510" font-family="Times New Roman,serif" font-size="15.00">xor</text>
</g>
<!-- 2082707028592&#45;&#45;2082707017264 -->
<g id="edge51" class="edge">
<title>2082707028592&#45;&#45;2082707017264</title>
<path fill="none" stroke="black" d="M1268.26,-565.58C1326.86,-555.43 1470.54,-530.54 1529.06,-520.4"/>
</g>
<!-- 2082707014192 -->
<g id="node47" class="node">
<title>2082707014192</title>
<ellipse fill="none" stroke="black" cx="1892.77" cy="-624" rx="27" ry="18"/>
<text text-anchor="middle" x="1892.77" y="-618" font-family="Times New Roman,serif" font-size="15.00">seq</text>
</g>
<!-- 2082707018608&#45;&#45;2082707014192 -->
<g id="edge45" class="edge">
<title>2082707018608&#45;&#45;2082707014192</title>
<path fill="none" stroke="black" d="M1582.8,-624C1645.47,-624 1803.03,-624 1865.59,-624"/>
</g>
<!-- 2082707018560 -->
<g id="node52" class="node">
<title>2082707018560</title>
<ellipse fill="none" stroke="black" cx="1892.77" cy="-570" rx="131.19" ry="18"/>
<text text-anchor="middle" x="1892.77" y="-564" font-family="Times New Roman,serif" font-size="15.00">Environmental Report needed</text>
</g>
<!-- 2082707018608&#45;&#45;2082707018560 -->
<g id="edge46" class="edge">
<title>2082707018608&#45;&#45;2082707018560</title>
<path fill="none" stroke="black" d="M1582.24,-619.85C1629.39,-612.26 1731.56,-595.8 1805.65,-583.87"/>
</g>
<!-- 2082707022160 -->
<g id="node48" class="node">
<title>2082707022160</title>
<ellipse fill="none" stroke="black" cx="2279.19" cy="-624" rx="27" ry="18"/>
<text text-anchor="middle" x="2279.19" y="-618" font-family="Times New Roman,serif" font-size="15.00">xor</text>
</g>
<!-- 2082707014192&#45;&#45;2082707022160 -->
<g id="edge43" class="edge">
<title>2082707014192&#45;&#45;2082707022160</title>
<path fill="none" stroke="black" d="M1920.2,-624C1990.51,-624 2181.61,-624 2251.84,-624"/>
</g>
<!-- 2082707018848 -->
<g id="node51" class="node">
<title>2082707018848</title>
<ellipse fill="none" stroke="black" cx="2279.19" cy="-570" rx="61.08" ry="18"/>
<text text-anchor="middle" x="2279.19" y="-564" font-family="Times New Roman,serif" font-size="15.00">MER shown</text>
</g>
<!-- 2082707014192&#45;&#45;2082707018848 -->
<g id="edge44" class="edge">
<title>2082707014192&#45;&#45;2082707018848</title>
<path fill="none" stroke="black" d="M1919.59,-620.37C1981.46,-611.68 2139.26,-589.52 2223.41,-577.7"/>
</g>
<!-- 2082707020048 -->
<g id="node49" class="node">
<title>2082707020048</title>
<ellipse fill="black" stroke="black" cx="2654.86" cy="-628" rx="2.7" ry="2.7"/>
</g>
<!-- 2082707022160&#45;&#45;2082707020048 -->
<g id="edge41" class="edge">
<title>2082707022160&#45;&#45;2082707020048</title>
<path fill="none" stroke="black" d="M2306.47,-624.28C2387.2,-625.15 2627.67,-627.72 2651.89,-627.98"/>
</g>
<!-- 2082707014672 -->
<g id="node50" class="node">
<title>2082707014672</title>
<ellipse fill="none" stroke="black" cx="2654.86" cy="-589" rx="150.64" ry="18"/>
<text text-anchor="middle" x="2654.86" y="-583" font-family="Times New Roman,serif" font-size="15.00">No permit required for submission</text>
</g>
<!-- 2082707022160&#45;&#45;2082707014672 -->
<g id="edge42" class="edge">
<title>2082707022160&#45;&#45;2082707014672</title>
<path fill="none" stroke="black" d="M2306.17,-621.57C2352.84,-617.19 2453.58,-607.76 2534.66,-600.16"/>
</g>
<!-- 2082707014768 -->
<g id="node55" class="node">
<title>2082707014768</title>
<ellipse fill="black" stroke="black" cx="1892.77" cy="-524" rx="2.7" ry="2.7"/>
</g>
<!-- 2082707017264&#45;&#45;2082707014768 -->
<g id="edge49" class="edge">
<title>2082707017264&#45;&#45;2082707014768</title>
<path fill="none" stroke="black" d="M1582.8,-516.63C1657.52,-518.41 1867.08,-523.41 1889.77,-523.95"/>
</g>
<!-- 2082707025520 -->
<g id="node56" class="node">
<title>2082707025520</title>
<ellipse fill="none" stroke="black" cx="1892.77" cy="-485" rx="87.69" ry="18"/>
<text text-anchor="middle" x="1892.77" y="-479" font-family="Times New Roman,serif" font-size="15.00">Phased application</text>
</g>
<!-- 2082707017264&#45;&#45;2082707025520 -->
<g id="edge50" class="edge">
<title>2082707017264&#45;&#45;2082707025520</title>
<path fill="none" stroke="black" d="M1582.52,-513.59C1631.22,-509.09 1737.88,-499.23 1812.24,-492.35"/>
</g>
<!-- 2082707017216 -->
<g id="node58" class="node">
<title>2082707017216</title>
<ellipse fill="none" stroke="black" cx="558.99" cy="-474" rx="27" ry="18"/>
<text text-anchor="middle" x="558.99" y="-468" font-family="Times New Roman,serif" font-size="15.00">seq</text>
</g>
<!-- 2082707022928&#45;&#45;2082707017216 -->
<g id="edge60" class="edge">
<title>2082707022928&#45;&#45;2082707017216</title>
<path fill="none" stroke="black" d="M256.64,-474C317.98,-474 470.14,-474 531.61,-474"/>
</g>
<!-- 2082707015920 -->
<g id="node63" class="node">
<title>2082707015920</title>
<ellipse fill="none" stroke="black" cx="558.99" cy="-339" rx="27" ry="18"/>
<text text-anchor="middle" x="558.99" y="-333" font-family="Times New Roman,serif" font-size="15.00">seq</text>
</g>
<!-- 2082707022928&#45;&#45;2082707015920 -->
<g id="edge86" class="edge">
<title>2082707022928&#45;&#45;2082707015920</title>
<path fill="none" stroke="black" d="M252.9,-464.72C312.75,-440.06 475.29,-373.08 535.31,-348.34"/>
</g>
<!-- 2082707029360 -->
<g id="node59" class="node">
<title>2082707029360</title>
<ellipse fill="none" stroke="black" cx="908.56" cy="-555" rx="153.2" ry="18"/>
<text text-anchor="middle" x="908.56" y="-549" font-family="Times New Roman,serif" font-size="15.00">Decision date before final decision</text>
</g>
<!-- 2082707017216&#45;&#45;2082707029360 -->
<g id="edge56" class="edge">
<title>2082707017216&#45;&#45;2082707029360</title>
<path fill="none" stroke="black" d="M584.99,-479.83C637.13,-491.98 759.13,-520.41 837.25,-538.62"/>
</g>
<!-- 2082707019664 -->
<g id="node60" class="node">
<title>2082707019664</title>
<ellipse fill="none" stroke="black" cx="908.56" cy="-501" rx="159.34" ry="18"/>
<text text-anchor="middle" x="908.56" y="-495" font-family="Times New Roman,serif" font-size="15.00">generate no permit required decision</text>
</g>
<!-- 2082707017216&#45;&#45;2082707019664 -->
<g id="edge57" class="edge">
<title>2082707017216&#45;&#45;2082707019664</title>
<path fill="none" stroke="black" d="M586.11,-476.03C626.29,-479.15 705.95,-485.34 775.91,-490.77"/>
</g>
<!-- 2082707017024 -->
<g id="node61" class="node">
<title>2082707017024</title>
<ellipse fill="none" stroke="black" cx="908.56" cy="-447" rx="110.21" ry="18"/>
<text text-anchor="middle" x="908.56" y="-441" font-family="Times New Roman,serif" font-size="15.00">Establish decision status</text>
</g>
<!-- 2082707017216&#45;&#45;2082707017024 -->
<g id="edge58" class="edge">
<title>2082707017216&#45;&#45;2082707017024</title>
<path fill="none" stroke="black" d="M586.11,-471.97C632.61,-468.36 731.96,-460.64 807.99,-454.73"/>
</g>
<!-- 2082707014240 -->
<g id="node62" class="node">
<title>2082707014240</title>
<ellipse fill="none" stroke="black" cx="908.56" cy="-393" rx="155.25" ry="18"/>
<text text-anchor="middle" x="908.56" y="-387" font-family="Times New Roman,serif" font-size="15.00">create no permit necessary decision</text>
</g>
<!-- 2082707017216&#45;&#45;2082707014240 -->
<g id="edge59" class="edge">
<title>2082707017216&#45;&#45;2082707014240</title>
<path fill="none" stroke="black" d="M584.99,-468.17C637.13,-456.02 759.13,-427.59 837.25,-409.38"/>
</g>
<!-- 2082707020192 -->
<g id="node64" class="node">
<title>2082707020192</title>
<ellipse fill="none" stroke="black" cx="908.56" cy="-339" rx="27" ry="18"/>
<text text-anchor="middle" x="908.56" y="-333" font-family="Times New Roman,serif" font-size="15.00">xor</text>
</g>
<!-- 2082707015920&#45;&#45;2082707020192 -->
<g id="edge72" class="edge">
<title>2082707015920&#45;&#45;2082707020192</title>
<path fill="none" stroke="black" d="M586.4,-339C651.03,-339 816.6,-339 881.19,-339"/>
</g>
<!-- 2082707018272 -->
<g id="node76" class="node">
<title>2082707018272</title>
<ellipse fill="none" stroke="black" cx="908.56" cy="-234" rx="27" ry="18"/>
<text text-anchor="middle" x="908.56" y="-228" font-family="Times New Roman,serif" font-size="15.00">xor</text>
</g>
<!-- 2082707015920&#45;&#45;2082707018272 -->
<g id="edge85" class="edge">
<title>2082707015920&#45;&#45;2082707018272</title>
<path fill="none" stroke="black" d="M584.15,-331.7C647.89,-312.45 820,-260.45 883.55,-241.25"/>
</g>
<!-- 2082707028976 -->
<g id="node65" class="node">
<title>2082707028976</title>
<ellipse fill="black" stroke="black" cx="1241.75" cy="-378" rx="2.7" ry="2.7"/>
</g>
<!-- 2082707020192&#45;&#45;2082707028976 -->
<g id="edge61" class="edge">
<title>2082707020192&#45;&#45;2082707028976</title>
<path fill="none" stroke="black" d="M935.55,-342.06C1009.35,-350.75 1216.35,-375.13 1238.77,-377.77"/>
</g>
<!-- 2082707015104 -->
<g id="node66" class="node">
<title>2082707015104</title>
<ellipse fill="none" stroke="black" cx="1241.75" cy="-339" rx="27" ry="18"/>
<text text-anchor="middle" x="1241.75" y="-333" font-family="Times New Roman,serif" font-size="15.00">and</text>
</g>
<!-- 2082707020192&#45;&#45;2082707015104 -->
<g id="edge71" class="edge">
<title>2082707020192&#45;&#45;2082707015104</title>
<path fill="none" stroke="black" d="M935.82,-339C997.79,-339 1152.51,-339 1214.48,-339"/>
</g>
<!-- 2082707024416 -->
<g id="node67" class="node">
<title>2082707024416</title>
<ellipse fill="none" stroke="black" cx="1555.49" cy="-366" rx="103.56" ry="18"/>
<text text-anchor="middle" x="1555.49" y="-360" font-family="Times New Roman,serif" font-size="15.00">Start WABOprocedure</text>
</g>
<!-- 2082707015104&#45;&#45;2082707024416 -->
<g id="edge62" class="edge">
<title>2082707015104&#45;&#45;2082707024416</title>
<path fill="none" stroke="black" d="M1268.79,-341.26C1310.79,-344.89 1395.47,-352.23 1461.79,-357.97"/>
</g>
<!-- 2082707018128 -->
<g id="node68" class="node">
<title>2082707018128</title>
<ellipse fill="none" stroke="black" cx="1555.49" cy="-312" rx="27" ry="18"/>
<text text-anchor="middle" x="1555.49" y="-306" font-family="Times New Roman,serif" font-size="15.00">xor</text>
</g>
<!-- 2082707015104&#45;&#45;2082707018128 -->
<g id="edge70" class="edge">
<title>2082707015104&#45;&#45;2082707018128</title>
<path fill="none" stroke="black" d="M1268.79,-336.74C1327.47,-331.66 1469.48,-319.36 1528.3,-314.27"/>
</g>
<!-- 2082707021248 -->
<g id="node69" class="node">
<title>2082707021248</title>
<ellipse fill="black" stroke="black" cx="1892.77" cy="-332" rx="2.7" ry="2.7"/>
</g>
<!-- 2082707018128&#45;&#45;2082707021248 -->
<g id="edge63" class="edge">
<title>2082707018128&#45;&#45;2082707021248</title>
<path fill="none" stroke="black" d="M1582.8,-313.57C1657.52,-318.03 1867.08,-330.53 1889.77,-331.88"/>
</g>
<!-- 2082707029984 -->
<g id="node70" class="node">
<title>2082707029984</title>
<ellipse fill="none" stroke="black" cx="1892.77" cy="-293" rx="27" ry="18"/>
<text text-anchor="middle" x="1892.77" y="-287" font-family="Times New Roman,serif" font-size="15.00">seq</text>
</g>
<!-- 2082707018128&#45;&#45;2082707029984 -->
<g id="edge69" class="edge">
<title>2082707018128&#45;&#45;2082707029984</title>
<path fill="none" stroke="black" d="M1582.8,-310.51C1645.47,-306.96 1803.03,-298.03 1865.59,-294.48"/>
</g>
<!-- 2082707019280 -->
<g id="node71" class="node">
<title>2082707019280</title>
<ellipse fill="none" stroke="black" cx="2279.19" cy="-320" rx="134.78" ry="18"/>
<text text-anchor="middle" x="2279.19" y="-314" font-family="Times New Roman,serif" font-size="15.00">Create procedure confirmation</text>
</g>
<!-- 2082707029984&#45;&#45;2082707019280 -->
<g id="edge64" class="edge">
<title>2082707029984&#45;&#45;2082707019280</title>
<path fill="none" stroke="black" d="M1919.89,-294.83C1968.31,-298.24 2074.73,-305.71 2159.08,-311.63"/>
</g>
<!-- 2082707023840 -->
<g id="node72" class="node">
<title>2082707023840</title>
<ellipse fill="none" stroke="black" cx="2279.19" cy="-266" rx="27" ry="18"/>
<text text-anchor="middle" x="2279.19" y="-260" font-family="Times New Roman,serif" font-size="15.00">xor</text>
</g>
<!-- 2082707029984&#45;&#45;2082707023840 -->
<g id="edge68" class="edge">
<title>2082707029984&#45;&#45;2082707023840</title>
<path fill="none" stroke="black" d="M1919.89,-291.17C1990.02,-286.24 2181.86,-272.77 2252.03,-267.84"/>
</g>
<!-- 2082707025616 -->
<g id="node73" class="node">
<title>2082707025616</title>
<ellipse fill="black" stroke="black" cx="2654.86" cy="-305" rx="2.7" ry="2.7"/>
</g>
<!-- 2082707023840&#45;&#45;2082707025616 -->
<g id="edge65" class="edge">
<title>2082707023840&#45;&#45;2082707025616</title>
<path fill="none" stroke="black" d="M2306.17,-268.71C2386.61,-277.11 2627.61,-302.26 2651.88,-304.79"/>
</g>
<!-- 2082707018320 -->
<g id="node74" class="node">
<title>2082707018320</title>
<ellipse fill="none" stroke="black" cx="2654.86" cy="-266" rx="132.73" ry="18"/>
<text text-anchor="middle" x="2654.86" y="-260" font-family="Times New Roman,serif" font-size="15.00">Create subcases completeness</text>
</g>
<!-- 2082707023840&#45;&#45;2082707018320 -->
<g id="edge66" class="edge">
<title>2082707023840&#45;&#45;2082707018320</title>
<path fill="none" stroke="black" d="M2306.47,-266C2350.82,-266 2443.39,-266 2521.82,-266"/>
</g>
<!-- 2082707020768 -->
<g id="node75" class="node">
<title>2082707020768</title>
<ellipse fill="none" stroke="black" cx="2654.86" cy="-212" rx="50.84" ry="18"/>
<text text-anchor="middle" x="2654.86" y="-206" font-family="Times New Roman,serif" font-size="15.00">Announce</text>
</g>
<!-- 2082707023840&#45;&#45;2082707020768 -->
<g id="edge67" class="edge">
<title>2082707023840&#45;&#45;2082707020768</title>
<path fill="none" stroke="black" d="M2305.87,-262.29C2368.12,-253.29 2527.75,-230.22 2607.32,-218.73"/>
</g>
<!-- 2082707015008 -->
<g id="node77" class="node">
<title>2082707015008</title>
<ellipse fill="black" stroke="black" cx="1241.75" cy="-300" rx="2.7" ry="2.7"/>
</g>
<!-- 2082707018272&#45;&#45;2082707015008 -->
<g id="edge73" class="edge">
<title>2082707018272&#45;&#45;2082707015008</title>
<path fill="none" stroke="black" d="M935,-239.07C1008.31,-253.68 1216.24,-295.12 1238.76,-299.6"/>
</g>
<!-- 2082707016976 -->
<g id="node78" class="node">
<title>2082707016976</title>
<ellipse fill="none" stroke="black" cx="1241.75" cy="-261" rx="133.24" ry="18"/>
<text text-anchor="middle" x="1241.75" y="-255" font-family="Times New Roman,serif" font-size="15.00">View field phased application</text>
</g>
<!-- 2082707018272&#45;&#45;2082707016976 -->
<g id="edge74" class="edge">
<title>2082707018272&#45;&#45;2082707016976</title>
<path fill="none" stroke="black" d="M935.82,-236.14C976.75,-239.48 1058.14,-246.11 1126.55,-251.69"/>
</g>
<!-- 2082707029120 -->
<g id="node79" class="node">
<title>2082707029120</title>
<ellipse fill="none" stroke="black" cx="1241.75" cy="-207" rx="137.85" ry="18"/>
<text text-anchor="middle" x="1241.75" y="-201" font-family="Times New Roman,serif" font-size="15.00">Process subcases completeness</text>
</g>
<!-- 2082707018272&#45;&#45;2082707029120 -->
<g id="edge75" class="edge">
<title>2082707018272&#45;&#45;2082707029120</title>
<path fill="none" stroke="black" d="M935.82,-231.86C976.14,-228.57 1055.72,-222.08 1123.47,-216.56"/>
</g>
<!-- 2082707016544 -->
<g id="node80" class="node">
<title>2082707016544</title>
<ellipse fill="none" stroke="black" cx="1241.75" cy="-153" rx="83.08" ry="18"/>
<text text-anchor="middle" x="1241.75" y="-147" font-family="Times New Roman,serif" font-size="15.00">Update procedure</text>
</g>
<!-- 2082707018272&#45;&#45;2082707016544 -->
<g id="edge76" class="edge">
<title>2082707018272&#45;&#45;2082707016544</title>
<path fill="none" stroke="black" d="M934.45,-227.91C987.4,-214.96 1112.32,-184.41 1185.22,-166.58"/>
</g>
<!-- 2082707016352 -->
<g id="node81" class="node">
<title>2082707016352</title>
<ellipse fill="none" stroke="black" cx="1241.75" cy="-99" rx="27" ry="18"/>
<text text-anchor="middle" x="1241.75" y="-93" font-family="Times New Roman,serif" font-size="15.00">seq</text>
</g>
<!-- 2082707018272&#45;&#45;2082707016352 -->
<g id="edge84" class="edge">
<title>2082707018272&#45;&#45;2082707016352</title>
<path fill="none" stroke="black" d="M932.32,-224.72C992.97,-200 1157.93,-132.76 1218.26,-108.17"/>
</g>
<!-- 2082707027008 -->
<g id="node82" class="node">
<title>2082707027008</title>
<ellipse fill="none" stroke="black" cx="1555.49" cy="-126" rx="128.12" ry="18"/>
<text text-anchor="middle" x="1555.49" y="-120" font-family="Times New Roman,serif" font-size="15.00">Send procedure confirmation</text>
</g>
<!-- 2082707016352&#45;&#45;2082707027008 -->
<g id="edge77" class="edge">
<title>2082707016352&#45;&#45;2082707027008</title>
<path fill="none" stroke="black" d="M1268.79,-101.26C1307.35,-104.6 1381.89,-111.05 1445.16,-116.53"/>
</g>
<!-- 2082707023312 -->
<g id="node83" class="node">
<title>2082707023312</title>
<ellipse fill="none" stroke="black" cx="1555.49" cy="-72" rx="27" ry="18"/>
<text text-anchor="middle" x="1555.49" y="-66" font-family="Times New Roman,serif" font-size="15.00">xor</text>
</g>
<!-- 2082707016352&#45;&#45;2082707023312 -->
<g id="edge83" class="edge">
<title>2082707016352&#45;&#45;2082707023312</title>
<path fill="none" stroke="black" d="M1268.79,-96.74C1327.47,-91.66 1469.48,-79.36 1528.3,-74.27"/>
</g>
<!-- 2082707017408 -->
<g id="node84" class="node">
<title>2082707017408</title>
<ellipse fill="black" stroke="black" cx="1892.77" cy="-111" rx="2.7" ry="2.7"/>
</g>
<!-- 2082707023312&#45;&#45;2082707017408 -->
<g id="edge78" class="edge">
<title>2082707023312&#45;&#45;2082707017408</title>
<path fill="none" stroke="black" d="M1582.52,-75.03C1656.99,-83.69 1867.02,-108.12 1889.77,-110.77"/>
</g>
<!-- 2082707018752 -->
<g id="node85" class="node">
<title>2082707018752</title>
<ellipse fill="none" stroke="black" cx="1892.77" cy="-72" rx="27" ry="18"/>
<text text-anchor="middle" x="1892.77" y="-66" font-family="Times New Roman,serif" font-size="15.00">seq</text>
</g>
<!-- 2082707023312&#45;&#45;2082707018752 -->
<g id="edge81" class="edge">
<title>2082707023312&#45;&#45;2082707018752</title>
<path fill="none" stroke="black" d="M1582.8,-72C1645.47,-72 1803.03,-72 1865.59,-72"/>
</g>
<!-- 2082707028256 -->
<g id="node88" class="node">
<title>2082707028256</title>
<ellipse fill="none" stroke="black" cx="1892.77" cy="-18" rx="112.77" ry="18"/>
<text text-anchor="middle" x="1892.77" y="-12" font-family="Times New Roman,serif" font-size="15.00">Create publication report</text>
</g>
<!-- 2082707023312&#45;&#45;2082707028256 -->
<g id="edge82" class="edge">
<title>2082707023312&#45;&#45;2082707028256</title>
<path fill="none" stroke="black" d="M1582.24,-67.85C1630.7,-60.05 1737.25,-42.89 1811.72,-30.89"/>
</g>
<!-- 2082707020816 -->
<g id="node86" class="node">
<title>2082707020816</title>
<ellipse fill="none" stroke="black" cx="2279.19" cy="-99" rx="54.93" ry="18"/>
<text text-anchor="middle" x="2279.19" y="-93" font-family="Times New Roman,serif" font-size="15.00">Pause term</text>
</g>
<!-- 2082707018752&#45;&#45;2082707020816 -->
<g id="edge79" class="edge">
<title>2082707018752&#45;&#45;2082707020816</title>
<path fill="none" stroke="black" d="M1919.89,-73.83C1982.42,-78.23 2141.69,-89.41 2225.23,-95.28"/>
</g>
<!-- 2082707027584 -->
<g id="node87" class="node">
<title>2082707027584</title>
<ellipse fill="none" stroke="black" cx="2279.19" cy="-45" rx="189.03" ry="18"/>
<text text-anchor="middle" x="2279.19" y="-39" font-family="Times New Roman,serif" font-size="15.00">Register date of publishing received request</text>
</g>
<!-- 2082707018752&#45;&#45;2082707027584 -->
<g id="edge80" class="edge">
<title>2082707018752&#45;&#45;2082707027584</title>
<path fill="none" stroke="black" d="M1919.89,-70.17C1962.06,-67.2 2048.21,-61.15 2125.47,-55.73"/>
</g>
</g>
</svg>
