<?xml version="1.0" encoding="UTF-8" standalone="no"?>
<!DOCTYPE svg PUBLIC "-//W3C//DTD SVG 1.1//EN"
 "http://www.w3.org/Graphics/SVG/1.1/DTD/svg11.dtd">
<!-- Generated by graphviz version 11.0.0 (20240428.1522)
 -->
<!-- Title: pt Pages: 1 -->
<svg width="2461pt" height="993pt"
 viewBox="0.00 0.00 2460.86 993.00" xmlns="http://www.w3.org/2000/svg" xmlns:xlink="http://www.w3.org/1999/xlink">
<g id="graph0" class="graph" transform="scale(1 1) rotate(0) translate(4 989)">
<title>pt</title>
<polygon fill="white" stroke="none" points="-4,4 -4,-989 2456.86,-989 2456.86,4 -4,4"/>
<!-- 2082707126416 -->
<g id="node1" class="node">
<title>2082707126416</title>
<ellipse fill="none" stroke="black" cx="27" cy="-751" rx="27" ry="18"/>
<text text-anchor="middle" x="27" y="-745" font-family="Times New Roman,serif" font-size="15.00">seq</text>
</g>
<!-- 2082707126992 -->
<g id="node2" class="node">
<title>2082707126992</title>
<ellipse fill="none" stroke="black" cx="232.45" cy="-967" rx="139.38" ry="18"/>
<text text-anchor="middle" x="232.45" y="-961" font-family="Times New Roman,serif" font-size="15.00">Record submission date request</text>
</g>
<!-- 2082707126416&#45;&#45;2082707126992 -->
<g id="edge1" class="edge">
<title>2082707126416&#45;&#45;2082707126992</title>
<path fill="none" stroke="black" d="M42.31,-766.19C78.76,-804.89 175.01,-907.08 214.34,-948.83"/>
</g>
<!-- 2082707112592 -->
<g id="node3" class="node">
<title>2082707112592</title>
<ellipse fill="none" stroke="black" cx="232.45" cy="-913" rx="27" ry="18"/>
<text text-anchor="middle" x="232.45" y="-907" font-family="Times New Roman,serif" font-size="15.00">xor</text>
</g>
<!-- 2082707126416&#45;&#45;2082707112592 -->
<g id="edge4" class="edge">
<title>2082707126416&#45;&#45;2082707112592</title>
<path fill="none" stroke="black" d="M45,-764.53C83.29,-795.03 175.98,-868.83 214.36,-899.39"/>
</g>
<!-- 2082707117728 -->
<g id="node6" class="node">
<title>2082707117728</title>
<ellipse fill="none" stroke="black" cx="232.45" cy="-832" rx="109.19" ry="18"/>
<text text-anchor="middle" x="232.45" y="-826" font-family="Times New Roman,serif" font-size="15.00">OLO messaging ongoing</text>
</g>
<!-- 2082707126416&#45;&#45;2082707117728 -->
<g id="edge5" class="edge">
<title>2082707126416&#45;&#45;2082707117728</title>
<path fill="none" stroke="black" d="M50.55,-759.98C83.86,-773.24 146.83,-798.31 188.97,-815.09"/>
</g>
<!-- 2082707117296 -->
<g id="node7" class="node">
<title>2082707117296</title>
<ellipse fill="none" stroke="black" cx="232.45" cy="-778" rx="27" ry="18"/>
<text text-anchor="middle" x="232.45" y="-772" font-family="Times New Roman,serif" font-size="15.00">and</text>
</g>
<!-- 2082707126416&#45;&#45;2082707117296 -->
<g id="edge18" class="edge">
<title>2082707126416&#45;&#45;2082707117296</title>
<path fill="none" stroke="black" d="M53.77,-754.42C92.8,-759.6 166.48,-769.38 205.57,-774.57"/>
</g>
<!-- 2082707124544 -->
<g id="node20" class="node">
<title>2082707124544</title>
<ellipse fill="none" stroke="black" cx="232.45" cy="-724" rx="27" ry="18"/>
<text text-anchor="middle" x="232.45" y="-718" font-family="Times New Roman,serif" font-size="15.00">xor</text>
</g>
<!-- 2082707126416&#45;&#45;2082707124544 -->
<g id="edge29" class="edge">
<title>2082707126416&#45;&#45;2082707124544</title>
<path fill="none" stroke="black" d="M53.77,-747.58C92.8,-742.4 166.48,-732.62 205.57,-727.43"/>
</g>
<!-- 2082707114224 -->
<g id="node31" class="node">
<title>2082707114224</title>
<ellipse fill="none" stroke="black" cx="232.45" cy="-670" rx="142.45" ry="18"/>
<text text-anchor="middle" x="232.45" y="-664" font-family="Times New Roman,serif" font-size="15.00">Direct to the competent authority</text>
</g>
<!-- 2082707126416&#45;&#45;2082707114224 -->
<g id="edge30" class="edge">
<title>2082707126416&#45;&#45;2082707114224</title>
<path fill="none" stroke="black" d="M50.55,-742.02C83.45,-728.92 145.27,-704.31 187.39,-687.54"/>
</g>
<!-- 2082707123152 -->
<g id="node32" class="node">
<title>2082707123152</title>
<ellipse fill="none" stroke="black" cx="232.45" cy="-600" rx="27" ry="18"/>
<text text-anchor="middle" x="232.45" y="-594" font-family="Times New Roman,serif" font-size="15.00">xor</text>
</g>
<!-- 2082707126416&#45;&#45;2082707123152 -->
<g id="edge33" class="edge">
<title>2082707126416&#45;&#45;2082707123152</title>
<path fill="none" stroke="black" d="M45.7,-737.86C84.18,-709.31 175.08,-641.84 213.65,-613.21"/>
</g>
<!-- 2082707118400 -->
<g id="node35" class="node">
<title>2082707118400</title>
<ellipse fill="none" stroke="black" cx="232.45" cy="-450" rx="27" ry="18"/>
<text text-anchor="middle" x="232.45" y="-444" font-family="Times New Roman,serif" font-size="15.00">xor</text>
</g>
<!-- 2082707126416&#45;&#45;2082707118400 -->
<g id="edge60" class="edge">
<title>2082707126416&#45;&#45;2082707118400</title>
<path fill="none" stroke="black" d="M38.94,-734.82C74.26,-682.55 185.06,-518.64 220.46,-466.26"/>
</g>
<!-- 2082707114656 -->
<g id="node4" class="node">
<title>2082707114656</title>
<ellipse fill="black" stroke="black" cx="572.3" cy="-972" rx="2.7" ry="2.7"/>
</g>
<!-- 2082707112592&#45;&#45;2082707114656 -->
<g id="edge2" class="edge">
<title>2082707112592&#45;&#45;2082707114656</title>
<path fill="none" stroke="black" d="M259.12,-917.48C333.65,-930.5 546.24,-967.62 569.27,-971.65"/>
</g>
<!-- 2082707123344 -->
<g id="node5" class="node">
<title>2082707123344</title>
<ellipse fill="none" stroke="black" cx="572.3" cy="-933" rx="161.39" ry="18"/>
<text text-anchor="middle" x="572.3" y="-927" font-family="Times New Roman,serif" font-size="15.00">Log senddate procedure confirmation</text>
</g>
<!-- 2082707112592&#45;&#45;2082707123344 -->
<g id="edge3" class="edge">
<title>2082707112592&#45;&#45;2082707123344</title>
<path fill="none" stroke="black" d="M259.68,-914.55C296.12,-916.71 364.75,-920.77 428.35,-924.54"/>
</g>
<!-- 2082707123488 -->
<g id="node8" class="node">
<title>2082707123488</title>
<ellipse fill="none" stroke="black" cx="572.3" cy="-879" rx="138.87" ry="18"/>
<text text-anchor="middle" x="572.3" y="-873" font-family="Times New Roman,serif" font-size="15.00">Log senddate acknowledgement</text>
</g>
<!-- 2082707117296&#45;&#45;2082707123488 -->
<g id="edge6" class="edge">
<title>2082707117296&#45;&#45;2082707123488</title>
<path fill="none" stroke="black" d="M257.48,-785.18C310.77,-801.11 440.07,-839.77 515.01,-862.17"/>
</g>
<!-- 2082707120896 -->
<g id="node9" class="node">
<title>2082707120896</title>
<ellipse fill="none" stroke="black" cx="572.3" cy="-825" rx="124.03" ry="18"/>
<text text-anchor="middle" x="572.3" y="-819" font-family="Times New Roman,serif" font-size="15.00">Period application received</text>
</g>
<!-- 2082707117296&#45;&#45;2082707120896 -->
<g id="edge7" class="edge">
<title>2082707117296&#45;&#45;2082707120896</title>
<path fill="none" stroke="black" d="M259.4,-781.61C306.22,-788.12 406.86,-802.12 481.22,-812.47"/>
</g>
<!-- 2082707125216 -->
<g id="node10" class="node">
<title>2082707125216</title>
<ellipse fill="none" stroke="black" cx="572.3" cy="-771" rx="27" ry="18"/>
<text text-anchor="middle" x="572.3" y="-765" font-family="Times New Roman,serif" font-size="15.00">seq</text>
</g>
<!-- 2082707117296&#45;&#45;2082707125216 -->
<g id="edge17" class="edge">
<title>2082707117296&#45;&#45;2082707125216</title>
<path fill="none" stroke="black" d="M259.68,-777.46C322.63,-776.15 481.69,-772.86 544.85,-771.55"/>
</g>
<!-- 2082707128240 -->
<g id="node11" class="node">
<title>2082707128240</title>
<ellipse fill="none" stroke="black" cx="929.03" cy="-903" rx="27" ry="18"/>
<text text-anchor="middle" x="929.03" y="-897" font-family="Times New Roman,serif" font-size="15.00">xor</text>
</g>
<!-- 2082707125216&#45;&#45;2082707128240 -->
<g id="edge10" class="edge">
<title>2082707125216&#45;&#45;2082707128240</title>
<path fill="none" stroke="black" d="M596.57,-779.66C661,-803.64 841.15,-870.67 905.13,-894.48"/>
</g>
<!-- 2082707120704 -->
<g id="node14" class="node">
<title>2082707120704</title>
<ellipse fill="none" stroke="black" cx="929.03" cy="-825" rx="27" ry="18"/>
<text text-anchor="middle" x="929.03" y="-819" font-family="Times New Roman,serif" font-size="15.00">xor</text>
</g>
<!-- 2082707125216&#45;&#45;2082707120704 -->
<g id="edge13" class="edge">
<title>2082707125216&#45;&#45;2082707120704</title>
<path fill="none" stroke="black" d="M599.09,-774.93C664.62,-784.9 836.91,-811.13 902.33,-821.09"/>
</g>
<!-- 2082707124112 -->
<g id="node17" class="node">
<title>2082707124112</title>
<ellipse fill="none" stroke="black" cx="929.03" cy="-771" rx="45.21" ry="18"/>
<text text-anchor="middle" x="929.03" y="-765" font-family="Times New Roman,serif" font-size="15.00">xor loop</text>
</g>
<!-- 2082707125216&#45;&#45;2082707124112 -->
<g id="edge16" class="edge">
<title>2082707125216&#45;&#45;2082707124112</title>
<path fill="none" stroke="black" d="M599.67,-771C660.04,-771 808.83,-771 883.61,-771"/>
</g>
<!-- 2082707125984 -->
<g id="node12" class="node">
<title>2082707125984</title>
<ellipse fill="black" stroke="black" cx="1262.22" cy="-942" rx="2.7" ry="2.7"/>
</g>
<!-- 2082707128240&#45;&#45;2082707125984 -->
<g id="edge8" class="edge">
<title>2082707128240&#45;&#45;2082707125984</title>
<path fill="none" stroke="black" d="M956.02,-906.06C1029.82,-914.75 1236.82,-939.13 1259.24,-941.77"/>
</g>
<!-- 2082707123200 -->
<g id="node13" class="node">
<title>2082707123200</title>
<ellipse fill="none" stroke="black" cx="1262.22" cy="-903" rx="136.31" ry="18"/>
<text text-anchor="middle" x="1262.22" y="-897" font-family="Times New Roman,serif" font-size="15.00">Reception through OLO system</text>
</g>
<!-- 2082707128240&#45;&#45;2082707123200 -->
<g id="edge9" class="edge">
<title>2082707128240&#45;&#45;2082707123200</title>
<path fill="none" stroke="black" d="M956.29,-903C993.01,-903 1062.31,-903 1125.57,-903"/>
</g>
<!-- 2082707120128 -->
<g id="node15" class="node">
<title>2082707120128</title>
<ellipse fill="black" stroke="black" cx="1262.22" cy="-864" rx="2.7" ry="2.7"/>
</g>
<!-- 2082707120704&#45;&#45;2082707120128 -->
<g id="edge11" class="edge">
<title>2082707120704&#45;&#45;2082707120128</title>
<path fill="none" stroke="black" d="M956.02,-828.06C1029.82,-836.75 1236.82,-861.13 1259.24,-863.77"/>
</g>
<!-- 2082707124736 -->
<g id="node16" class="node">
<title>2082707124736</title>
<ellipse fill="none" stroke="black" cx="1262.22" cy="-825" rx="98.95" ry="18"/>
<text text-anchor="middle" x="1262.22" y="-819" font-family="Times New Roman,serif" font-size="15.00">Applicant is involved</text>
</g>
<!-- 2082707120704&#45;&#45;2082707124736 -->
<g id="edge12" class="edge">
<title>2082707120704&#45;&#45;2082707124736</title>
<path fill="none" stroke="black" d="M956.29,-825C1000.43,-825 1091.65,-825 1162.87,-825"/>
</g>
<!-- 2082707116144 -->
<g id="node18" class="node">
<title>2082707116144</title>
<ellipse fill="none" stroke="black" cx="1262.22" cy="-771" rx="115.84" ry="18"/>
<text text-anchor="middle" x="1262.22" y="-765" font-family="Times New Roman,serif" font-size="15.00">Issue confirmation receipt</text>
</g>
<!-- 2082707124112&#45;&#45;2082707116144 -->
<g id="edge14" class="edge">
<title>2082707124112&#45;&#45;2082707116144</title>
<path fill="none" stroke="black" d="M974.7,-771C1018.48,-771 1087.08,-771 1146.17,-771"/>
</g>
<!-- 2082707118208 -->
<g id="node19" class="node">
<title>2082707118208</title>
<ellipse fill="black" stroke="black" cx="1262.22" cy="-732" rx="2.7" ry="2.7"/>
</g>
<!-- 2082707124112&#45;&#45;2082707118208 -->
<g id="edge15" class="edge">
<title>2082707124112&#45;&#45;2082707118208</title>
<path fill="none" stroke="black" d="M972.99,-765.94C1057.7,-755.97 1239.82,-734.52 1259.49,-732.2"/>
</g>
<!-- 2082707115808 -->
<g id="node21" class="node">
<title>2082707115808</title>
<ellipse fill="black" stroke="black" cx="572.3" cy="-732" rx="2.7" ry="2.7"/>
</g>
<!-- 2082707124544&#45;&#45;2082707115808 -->
<g id="edge19" class="edge">
<title>2082707124544&#45;&#45;2082707115808</title>
<path fill="none" stroke="black" d="M259.68,-724.62C334.72,-726.4 546.35,-731.41 569.28,-731.95"/>
</g>
<!-- 2082707120656 -->
<g id="node22" class="node">
<title>2082707120656</title>
<ellipse fill="none" stroke="black" cx="572.3" cy="-693" rx="154.22" ry="18"/>
<text text-anchor="middle" x="572.3" y="-687" font-family="Times New Roman,serif" font-size="15.00">draft no permit or notification letter</text>
</g>
<!-- 2082707124544&#45;&#45;2082707120656 -->
<g id="edge20" class="edge">
<title>2082707124544&#45;&#45;2082707120656</title>
<path fill="none" stroke="black" d="M259.68,-721.59C300.15,-717.88 380.33,-710.52 449.23,-704.2"/>
</g>
<!-- 2082707122864 -->
<g id="node23" class="node">
<title>2082707122864</title>
<ellipse fill="none" stroke="black" cx="572.3" cy="-639" rx="27" ry="18"/>
<text text-anchor="middle" x="572.3" y="-633" font-family="Times New Roman,serif" font-size="15.00">seq</text>
</g>
<!-- 2082707124544&#45;&#45;2082707122864 -->
<g id="edge28" class="edge">
<title>2082707124544&#45;&#45;2082707122864</title>
<path fill="none" stroke="black" d="M258.3,-717.75C320.93,-701.99 484.7,-660.79 546.87,-645.14"/>
</g>
<!-- 2082707114272 -->
<g id="node24" class="node">
<title>2082707114272</title>
<ellipse fill="none" stroke="black" cx="929.03" cy="-693" rx="27" ry="18"/>
<text text-anchor="middle" x="929.03" y="-687" font-family="Times New Roman,serif" font-size="15.00">xor</text>
</g>
<!-- 2082707122864&#45;&#45;2082707114272 -->
<g id="edge25" class="edge">
<title>2082707122864&#45;&#45;2082707114272</title>
<path fill="none" stroke="black" d="M599.09,-642.93C664.62,-652.9 836.91,-679.13 902.33,-689.09"/>
</g>
<!-- 2082707125456 -->
<g id="node29" class="node">
<title>2082707125456</title>
<ellipse fill="none" stroke="black" cx="929.03" cy="-639" rx="139.89" ry="18"/>
<text text-anchor="middle" x="929.03" y="-633" font-family="Times New Roman,serif" font-size="15.00">Activities for regular procedure</text>
</g>
<!-- 2082707122864&#45;&#45;2082707125456 -->
<g id="edge26" class="edge">
<title>2082707122864&#45;&#45;2082707125456</title>
<path fill="none" stroke="black" d="M599.67,-639C639.65,-639 718.41,-639 788.77,-639"/>
</g>
<!-- 2082707112352 -->
<g id="node30" class="node">
<title>2082707112352</title>
<ellipse fill="none" stroke="black" cx="929.03" cy="-585" rx="87.69" ry="18"/>
<text text-anchor="middle" x="929.03" y="-579" font-family="Times New Roman,serif" font-size="15.00">Phased application</text>
</g>
<!-- 2082707122864&#45;&#45;2082707112352 -->
<g id="edge27" class="edge">
<title>2082707122864&#45;&#45;2082707112352</title>
<path fill="none" stroke="black" d="M599.09,-635.07C652.74,-626.91 777.96,-607.85 857.49,-595.74"/>
</g>
<!-- 2082707118496 -->
<g id="node25" class="node">
<title>2082707118496</title>
<ellipse fill="none" stroke="black" cx="1262.22" cy="-693" rx="27" ry="18"/>
<text text-anchor="middle" x="1262.22" y="-687" font-family="Times New Roman,serif" font-size="15.00">seq</text>
</g>
<!-- 2082707114272&#45;&#45;2082707118496 -->
<g id="edge23" class="edge">
<title>2082707114272&#45;&#45;2082707118496</title>
<path fill="none" stroke="black" d="M956.29,-693C1018.26,-693 1172.99,-693 1234.95,-693"/>
</g>
<!-- 2082707122048 -->
<g id="node28" class="node">
<title>2082707122048</title>
<ellipse fill="none" stroke="black" cx="1262.22" cy="-639" rx="131.19" ry="18"/>
<text text-anchor="middle" x="1262.22" y="-633" font-family="Times New Roman,serif" font-size="15.00">Environmental Report needed</text>
</g>
<!-- 2082707114272&#45;&#45;2082707122048 -->
<g id="edge24" class="edge">
<title>2082707114272&#45;&#45;2082707122048</title>
<path fill="none" stroke="black" d="M955.74,-688.81C1002.4,-681.2 1102.93,-664.81 1175.96,-652.9"/>
</g>
<!-- 2082707121952 -->
<g id="node26" class="node">
<title>2082707121952</title>
<ellipse fill="none" stroke="black" cx="1586.71" cy="-720" rx="150.64" ry="18"/>
<text text-anchor="middle" x="1586.71" y="-714" font-family="Times New Roman,serif" font-size="15.00">No permit required for submission</text>
</g>
<!-- 2082707118496&#45;&#45;2082707121952 -->
<g id="edge21" class="edge">
<title>2082707118496&#45;&#45;2082707121952</title>
<path fill="none" stroke="black" d="M1289.34,-695.19C1326.82,-698.33 1398.36,-704.31 1461.76,-709.62"/>
</g>
<!-- 2082707119168 -->
<g id="node27" class="node">
<title>2082707119168</title>
<ellipse fill="none" stroke="black" cx="1586.71" cy="-666" rx="61.08" ry="18"/>
<text text-anchor="middle" x="1586.71" y="-660" font-family="Times New Roman,serif" font-size="15.00">MER shown</text>
</g>
<!-- 2082707118496&#45;&#45;2082707119168 -->
<g id="edge22" class="edge">
<title>2082707118496&#45;&#45;2082707119168</title>
<path fill="none" stroke="black" d="M1289.34,-690.81C1340.92,-686.49 1456.97,-676.78 1527.58,-670.87"/>
</g>
<!-- 2082707118448 -->
<g id="node33" class="node">
<title>2082707118448</title>
<ellipse fill="black" stroke="black" cx="572.3" cy="-600" rx="2.7" ry="2.7"/>
</g>
<!-- 2082707123152&#45;&#45;2082707118448 -->
<g id="edge31" class="edge">
<title>2082707123152&#45;&#45;2082707118448</title>
<path fill="none" stroke="black" d="M259.68,-600C334.72,-600 546.35,-600 569.28,-600"/>
</g>
<!-- 2082707123056 -->
<g id="node34" class="node">
<title>2082707123056</title>
<ellipse fill="none" stroke="black" cx="572.3" cy="-561" rx="141.94" ry="18"/>
<text text-anchor="middle" x="572.3" y="-555" font-family="Times New Roman,serif" font-size="15.00">Normal procedure without MER</text>
</g>
<!-- 2082707123152&#45;&#45;2082707123056 -->
<g id="edge32" class="edge">
<title>2082707123152&#45;&#45;2082707123056</title>
<path fill="none" stroke="black" d="M259.4,-597C302.97,-591.97 393.17,-581.56 465.4,-573.22"/>
</g>
<!-- 2082707112832 -->
<g id="node36" class="node">
<title>2082707112832</title>
<ellipse fill="none" stroke="black" cx="572.3" cy="-450" rx="27" ry="18"/>
<text text-anchor="middle" x="572.3" y="-444" font-family="Times New Roman,serif" font-size="15.00">seq</text>
</g>
<!-- 2082707118400&#45;&#45;2082707112832 -->
<g id="edge38" class="edge">
<title>2082707118400&#45;&#45;2082707112832</title>
<path fill="none" stroke="black" d="M259.68,-450C322.63,-450 481.69,-450 544.85,-450"/>
</g>
<!-- 2082707115376 -->
<g id="node41" class="node">
<title>2082707115376</title>
<ellipse fill="none" stroke="black" cx="572.3" cy="-288" rx="27" ry="18"/>
<text text-anchor="middle" x="572.3" y="-282" font-family="Times New Roman,serif" font-size="15.00">seq</text>
</g>
<!-- 2082707118400&#45;&#45;2082707115376 -->
<g id="edge59" class="edge">
<title>2082707118400&#45;&#45;2082707115376</title>
<path fill="none" stroke="black" d="M255.1,-439.62C316.12,-410.36 489.03,-327.45 549.83,-298.29"/>
</g>
<!-- 2082707122336 -->
<g id="node37" class="node">
<title>2082707122336</title>
<ellipse fill="none" stroke="black" cx="929.03" cy="-531" rx="153.2" ry="18"/>
<text text-anchor="middle" x="929.03" y="-525" font-family="Times New Roman,serif" font-size="15.00">Decision date before final decision</text>
</g>
<!-- 2082707112832&#45;&#45;2082707122336 -->
<g id="edge34" class="edge">
<title>2082707112832&#45;&#45;2082707122336</title>
<path fill="none" stroke="black" d="M598.24,-455.7C651.23,-467.8 776.7,-496.44 856.7,-514.71"/>
</g>
<!-- 2082707117248 -->
<g id="node38" class="node">
<title>2082707117248</title>
<ellipse fill="none" stroke="black" cx="929.03" cy="-477" rx="159.34" ry="18"/>
<text text-anchor="middle" x="929.03" y="-471" font-family="Times New Roman,serif" font-size="15.00">generate no permit required decision</text>
</g>
<!-- 2082707112832&#45;&#45;2082707117248 -->
<g id="edge35" class="edge">
<title>2082707112832&#45;&#45;2082707117248</title>
<path fill="none" stroke="black" d="M599.38,-451.99C640.5,-455.12 723.15,-461.41 795.27,-466.9"/>
</g>
<!-- 2082707117680 -->
<g id="node39" class="node">
<title>2082707117680</title>
<ellipse fill="none" stroke="black" cx="929.03" cy="-423" rx="110.21" ry="18"/>
<text text-anchor="middle" x="929.03" y="-417" font-family="Times New Roman,serif" font-size="15.00">Establish decision status</text>
</g>
<!-- 2082707112832&#45;&#45;2082707117680 -->
<g id="edge36" class="edge">
<title>2082707112832&#45;&#45;2082707117680</title>
<path fill="none" stroke="black" d="M599.38,-448.01C646.98,-444.39 750.23,-436.53 828.38,-430.58"/>
</g>
<!-- 2082707121856 -->
<g id="node40" class="node">
<title>2082707121856</title>
<ellipse fill="none" stroke="black" cx="929.03" cy="-369" rx="155.25" ry="18"/>
<text text-anchor="middle" x="929.03" y="-363" font-family="Times New Roman,serif" font-size="15.00">create no permit necessary decision</text>
</g>
<!-- 2082707112832&#45;&#45;2082707121856 -->
<g id="edge37" class="edge">
<title>2082707112832&#45;&#45;2082707121856</title>
<path fill="none" stroke="black" d="M598.24,-444.3C651.23,-432.2 776.7,-403.56 856.7,-385.29"/>
</g>
<!-- 2082707123536 -->
<g id="node42" class="node">
<title>2082707123536</title>
<ellipse fill="none" stroke="black" cx="929.03" cy="-315" rx="27" ry="18"/>
<text text-anchor="middle" x="929.03" y="-309" font-family="Times New Roman,serif" font-size="15.00">xor</text>
</g>
<!-- 2082707115376&#45;&#45;2082707123536 -->
<g id="edge45" class="edge">
<title>2082707115376&#45;&#45;2082707123536</title>
<path fill="none" stroke="black" d="M599.38,-289.99C664.98,-294.98 836.27,-308.02 901.91,-313.01"/>
</g>
<!-- 2082707122192 -->
<g id="node49" class="node">
<title>2082707122192</title>
<ellipse fill="none" stroke="black" cx="929.03" cy="-261" rx="103.56" ry="18"/>
<text text-anchor="middle" x="929.03" y="-255" font-family="Times New Roman,serif" font-size="15.00">Start WABOprocedure</text>
</g>
<!-- 2082707115376&#45;&#45;2082707122192 -->
<g id="edge46" class="edge">
<title>2082707115376&#45;&#45;2082707122192</title>
<path fill="none" stroke="black" d="M599.38,-286.01C648.02,-282.31 754.76,-274.19 833.46,-268.2"/>
</g>
<!-- 2082707121664 -->
<g id="node50" class="node">
<title>2082707121664</title>
<ellipse fill="none" stroke="black" cx="929.03" cy="-207" rx="27" ry="18"/>
<text text-anchor="middle" x="929.03" y="-201" font-family="Times New Roman,serif" font-size="15.00">xor</text>
</g>
<!-- 2082707115376&#45;&#45;2082707121664 -->
<g id="edge58" class="edge">
<title>2082707115376&#45;&#45;2082707121664</title>
<path fill="none" stroke="black" d="M598.24,-282.3C663.37,-267.43 838.01,-227.55 903.11,-212.69"/>
</g>
<!-- 2082707113936 -->
<g id="node43" class="node">
<title>2082707113936</title>
<ellipse fill="black" stroke="black" cx="1262.22" cy="-354" rx="2.7" ry="2.7"/>
</g>
<!-- 2082707123536&#45;&#45;2082707113936 -->
<g id="edge39" class="edge">
<title>2082707123536&#45;&#45;2082707113936</title>
<path fill="none" stroke="black" d="M956.02,-318.06C1029.82,-326.75 1236.82,-351.13 1259.24,-353.77"/>
</g>
<!-- 2082707120320 -->
<g id="node44" class="node">
<title>2082707120320</title>
<ellipse fill="none" stroke="black" cx="1262.22" cy="-315" rx="27" ry="18"/>
<text text-anchor="middle" x="1262.22" y="-309" font-family="Times New Roman,serif" font-size="15.00">seq</text>
</g>
<!-- 2082707123536&#45;&#45;2082707120320 -->
<g id="edge44" class="edge">
<title>2082707123536&#45;&#45;2082707120320</title>
<path fill="none" stroke="black" d="M956.29,-315C1018.26,-315 1172.99,-315 1234.95,-315"/>
</g>
<!-- 2082707125120 -->
<g id="node45" class="node">
<title>2082707125120</title>
<ellipse fill="none" stroke="black" cx="1586.71" cy="-342" rx="134.78" ry="18"/>
<text text-anchor="middle" x="1586.71" y="-336" font-family="Times New Roman,serif" font-size="15.00">Create procedure confirmation</text>
</g>
<!-- 2082707120320&#45;&#45;2082707125120 -->
<g id="edge40" class="edge">
<title>2082707120320&#45;&#45;2082707125120</title>
<path fill="none" stroke="black" d="M1289.34,-317.19C1328.7,-320.48 1405.6,-326.92 1471.21,-332.41"/>
</g>
<!-- 2082707121424 -->
<g id="node46" class="node">
<title>2082707121424</title>
<ellipse fill="none" stroke="black" cx="1586.71" cy="-288" rx="27" ry="18"/>
<text text-anchor="middle" x="1586.71" y="-282" font-family="Times New Roman,serif" font-size="15.00">xor</text>
</g>
<!-- 2082707120320&#45;&#45;2082707121424 -->
<g id="edge43" class="edge">
<title>2082707120320&#45;&#45;2082707121424</title>
<path fill="none" stroke="black" d="M1289.34,-312.81C1349.92,-307.74 1499.42,-295.22 1559.8,-290.17"/>
</g>
<!-- 2082707122432 -->
<g id="node47" class="node">
<title>2082707122432</title>
<ellipse fill="none" stroke="black" cx="1906.08" cy="-315" rx="132.73" ry="18"/>
<text text-anchor="middle" x="1906.08" y="-309" font-family="Times New Roman,serif" font-size="15.00">Create subcases completeness</text>
</g>
<!-- 2082707121424&#45;&#45;2082707122432 -->
<g id="edge41" class="edge">
<title>2082707121424&#45;&#45;2082707122432</title>
<path fill="none" stroke="black" d="M1613.95,-290.23C1652.86,-293.54 1728.18,-299.95 1792.46,-305.42"/>
</g>
<!-- 2082707118016 -->
<g id="node48" class="node">
<title>2082707118016</title>
<ellipse fill="none" stroke="black" cx="1906.08" cy="-261" rx="50.84" ry="18"/>
<text text-anchor="middle" x="1906.08" y="-255" font-family="Times New Roman,serif" font-size="15.00">Announce</text>
</g>
<!-- 2082707121424&#45;&#45;2082707118016 -->
<g id="edge42" class="edge">
<title>2082707121424&#45;&#45;2082707118016</title>
<path fill="none" stroke="black" d="M1613.95,-285.77C1667.12,-281.24 1788.27,-270.94 1856.34,-265.15"/>
</g>
<!-- 2082707112976 -->
<g id="node51" class="node">
<title>2082707112976</title>
<ellipse fill="none" stroke="black" cx="1262.22" cy="-261" rx="133.24" ry="18"/>
<text text-anchor="middle" x="1262.22" y="-255" font-family="Times New Roman,serif" font-size="15.00">View field phased application</text>
</g>
<!-- 2082707121664&#45;&#45;2082707112976 -->
<g id="edge47" class="edge">
<title>2082707121664&#45;&#45;2082707112976</title>
<path fill="none" stroke="black" d="M955.74,-211.19C1002.25,-218.78 1102.28,-235.09 1175.24,-246.98"/>
</g>
<!-- 2082707119552 -->
<g id="node52" class="node">
<title>2082707119552</title>
<ellipse fill="none" stroke="black" cx="1262.22" cy="-207" rx="137.85" ry="18"/>
<text text-anchor="middle" x="1262.22" y="-201" font-family="Times New Roman,serif" font-size="15.00">Process subcases completeness</text>
</g>
<!-- 2082707121664&#45;&#45;2082707119552 -->
<g id="edge48" class="edge">
<title>2082707121664&#45;&#45;2082707119552</title>
<path fill="none" stroke="black" d="M956.29,-207C992.71,-207 1061.16,-207 1123.99,-207"/>
</g>
<!-- 2082707122288 -->
<g id="node53" class="node">
<title>2082707122288</title>
<ellipse fill="none" stroke="black" cx="1262.22" cy="-153" rx="83.08" ry="18"/>
<text text-anchor="middle" x="1262.22" y="-147" font-family="Times New Roman,serif" font-size="15.00">Update procedure</text>
</g>
<!-- 2082707121664&#45;&#45;2082707122288 -->
<g id="edge49" class="edge">
<title>2082707121664&#45;&#45;2082707122288</title>
<path fill="none" stroke="black" d="M955.74,-202.81C1006.58,-194.52 1121.38,-175.8 1194.86,-163.82"/>
</g>
<!-- 2082707114704 -->
<g id="node54" class="node">
<title>2082707114704</title>
<ellipse fill="none" stroke="black" cx="1262.22" cy="-99" rx="27" ry="18"/>
<text text-anchor="middle" x="1262.22" y="-93" font-family="Times New Roman,serif" font-size="15.00">seq</text>
</g>
<!-- 2082707121664&#45;&#45;2082707114704 -->
<g id="edge57" class="edge">
<title>2082707121664&#45;&#45;2082707114704</title>
<path fill="none" stroke="black" d="M953.85,-199.23C1014.96,-179.31 1176.75,-126.55 1237.62,-106.7"/>
</g>
<!-- 2082707113744 -->
<g id="node55" class="node">
<title>2082707113744</title>
<ellipse fill="none" stroke="black" cx="1586.71" cy="-126" rx="128.12" ry="18"/>
<text text-anchor="middle" x="1586.71" y="-120" font-family="Times New Roman,serif" font-size="15.00">Send procedure confirmation</text>
</g>
<!-- 2082707114704&#45;&#45;2082707113744 -->
<g id="edge50" class="edge">
<title>2082707114704&#45;&#45;2082707113744</title>
<path fill="none" stroke="black" d="M1289.34,-101.19C1329.52,-104.55 1408.84,-111.19 1475.31,-116.76"/>
</g>
<!-- 2082707302416 -->
<g id="node56" class="node">
<title>2082707302416</title>
<ellipse fill="none" stroke="black" cx="1586.71" cy="-72" rx="27" ry="18"/>
<text text-anchor="middle" x="1586.71" y="-66" font-family="Times New Roman,serif" font-size="15.00">xor</text>
</g>
<!-- 2082707114704&#45;&#45;2082707302416 -->
<g id="edge56" class="edge">
<title>2082707114704&#45;&#45;2082707302416</title>
<path fill="none" stroke="black" d="M1289.34,-96.81C1349.92,-91.74 1499.42,-79.22 1559.8,-74.17"/>
</g>
<!-- 2082707308224 -->
<g id="node57" class="node">
<title>2082707308224</title>
<ellipse fill="black" stroke="black" cx="1906.08" cy="-111" rx="2.7" ry="2.7"/>
</g>
<!-- 2082707302416&#45;&#45;2082707308224 -->
<g id="edge51" class="edge">
<title>2082707302416&#45;&#45;2082707308224</title>
<path fill="none" stroke="black" d="M1613.68,-75.19C1685.33,-84 1881.92,-108.15 1903.2,-110.77"/>
</g>
<!-- 2082707296272 -->
<g id="node58" class="node">
<title>2082707296272</title>
<ellipse fill="none" stroke="black" cx="1906.08" cy="-72" rx="27" ry="18"/>
<text text-anchor="middle" x="1906.08" y="-66" font-family="Times New Roman,serif" font-size="15.00">seq</text>
</g>
<!-- 2082707302416&#45;&#45;2082707296272 -->
<g id="edge54" class="edge">
<title>2082707302416&#45;&#45;2082707296272</title>
<path fill="none" stroke="black" d="M1613.95,-72C1673.65,-72 1819.08,-72 1878.81,-72"/>
</g>
<!-- 2082707293488 -->
<g id="node61" class="node">
<title>2082707293488</title>
<ellipse fill="none" stroke="black" cx="1906.08" cy="-18" rx="112.77" ry="18"/>
<text text-anchor="middle" x="1906.08" y="-12" font-family="Times New Roman,serif" font-size="15.00">Create publication report</text>
</g>
<!-- 2082707302416&#45;&#45;2082707293488 -->
<g id="edge55" class="edge">
<title>2082707302416&#45;&#45;2082707293488</title>
<path fill="none" stroke="black" d="M1613.41,-67.63C1659.45,-59.79 1757.69,-43.08 1827.41,-31.22"/>
</g>
<!-- 2082707293536 -->
<g id="node59" class="node">
<title>2082707293536</title>
<ellipse fill="none" stroke="black" cx="2263.84" cy="-99" rx="54.93" ry="18"/>
<text text-anchor="middle" x="2263.84" y="-93" font-family="Times New Roman,serif" font-size="15.00">Pause term</text>
</g>
<!-- 2082707296272&#45;&#45;2082707293536 -->
<g id="edge52" class="edge">
<title>2082707296272&#45;&#45;2082707293536</title>
<path fill="none" stroke="black" d="M1933.24,-73.99C1991.41,-78.4 2132.43,-89.1 2209.82,-94.98"/>
</g>
<!-- 2082707295120 -->
<g id="node60" class="node">
<title>2082707295120</title>
<ellipse fill="none" stroke="black" cx="2263.84" cy="-45" rx="189.03" ry="18"/>
<text text-anchor="middle" x="2263.84" y="-39" font-family="Times New Roman,serif" font-size="15.00">Register date of publishing received request</text>
</g>
<!-- 2082707296272&#45;&#45;2082707295120 -->
<g id="edge53" class="edge">
<title>2082707296272&#45;&#45;2082707295120</title>
<path fill="none" stroke="black" d="M1933.24,-70.01C1971.51,-67.11 2045.65,-61.48 2113.93,-56.3"/>
</g>
</g>
</svg>
