<?xml version="1.0" encoding="UTF-8" standalone="no"?>
<!DOCTYPE svg PUBLIC "-//W3C//DTD SVG 1.1//EN"
 "http://www.w3.org/Graphics/SVG/1.1/DTD/svg11.dtd">
<!-- Generated by graphviz version 11.0.0 (20240428.1522)
 -->
<!-- Title: pt Pages: 1 -->
<svg width="6730pt" height="638pt"
 viewBox="0.00 0.00 6730.09 638.00" xmlns="http://www.w3.org/2000/svg" xmlns:xlink="http://www.w3.org/1999/xlink">
<g id="graph0" class="graph" transform="scale(1 1) rotate(0) translate(4 634)">
<title>pt</title>
<polygon fill="white" stroke="none" points="-4,4 -4,-634 6726.09,-634 6726.09,4 -4,4"/>
<!-- 2082704391104 -->
<g id="node1" class="node">
<title>2082704391104</title>
<ellipse fill="none" stroke="black" cx="27" cy="-386" rx="27" ry="18"/>
<text text-anchor="middle" x="27" y="-380" font-family="Times New Roman,serif" font-size="15.00">seq</text>
</g>
<!-- 2082704391680 -->
<g id="node2" class="node">
<title>2082704391680</title>
<ellipse fill="none" stroke="black" cx="229.38" cy="-440" rx="139.38" ry="18"/>
<text text-anchor="middle" x="229.38" y="-434" font-family="Times New Roman,serif" font-size="15.00">Record submission date request</text>
</g>
<!-- 2082704391104&#45;&#45;2082704391680 -->
<g id="edge1" class="edge">
<title>2082704391104&#45;&#45;2082704391680</title>
<path fill="none" stroke="black" d="M52.57,-392.62C80.89,-400.25 128.49,-413.08 167.02,-423.46"/>
</g>
<!-- 2082704380160 -->
<g id="node3" class="node">
<title>2082704380160</title>
<ellipse fill="none" stroke="black" cx="229.38" cy="-386" rx="27" ry="18"/>
<text text-anchor="middle" x="229.38" y="-380" font-family="Times New Roman,serif" font-size="15.00">xor</text>
</g>
<!-- 2082704391104&#45;&#45;2082704380160 -->
<g id="edge87" class="edge">
<title>2082704391104&#45;&#45;2082704380160</title>
<path fill="none" stroke="black" d="M54.2,-386C92.6,-386 163.77,-386 202.18,-386"/>
</g>
<!-- 2082704392064 -->
<g id="node89" class="node">
<title>2082704392064</title>
<ellipse fill="none" stroke="black" cx="229.38" cy="-278" rx="27" ry="18"/>
<text text-anchor="middle" x="229.38" y="-272" font-family="Times New Roman,serif" font-size="15.00">xor</text>
</g>
<!-- 2082704391104&#45;&#45;2082704392064 -->
<g id="edge95" class="edge">
<title>2082704391104&#45;&#45;2082704392064</title>
<path fill="none" stroke="black" d="M48.69,-374.85C87.19,-354.1 169.39,-309.79 207.81,-289.09"/>
</g>
<!-- 2082704377568 -->
<g id="node4" class="node">
<title>2082704377568</title>
<ellipse fill="black" stroke="black" cx="563.08" cy="-425" rx="2.7" ry="2.7"/>
</g>
<!-- 2082704380160&#45;&#45;2082704377568 -->
<g id="edge2" class="edge">
<title>2082704380160&#45;&#45;2082704377568</title>
<path fill="none" stroke="black" d="M256.41,-389.06C330.33,-397.75 537.65,-422.13 560.1,-424.77"/>
</g>
<!-- 2082704382032 -->
<g id="node5" class="node">
<title>2082704382032</title>
<ellipse fill="none" stroke="black" cx="563.08" cy="-386" rx="27" ry="18"/>
<text text-anchor="middle" x="563.08" y="-380" font-family="Times New Roman,serif" font-size="15.00">and</text>
</g>
<!-- 2082704380160&#45;&#45;2082704382032 -->
<g id="edge86" class="edge">
<title>2082704380160&#45;&#45;2082704382032</title>
<path fill="none" stroke="black" d="M256.69,-386C318.75,-386 473.71,-386 535.78,-386"/>
</g>
<!-- 2082704380400 -->
<g id="node6" class="node">
<title>2082704380400</title>
<ellipse fill="none" stroke="black" cx="930.05" cy="-440" rx="45.21" ry="18"/>
<text text-anchor="middle" x="930.05" y="-434" font-family="Times New Roman,serif" font-size="15.00">xor loop</text>
</g>
<!-- 2082704382032&#45;&#45;2082704380400 -->
<g id="edge5" class="edge">
<title>2082704382032&#45;&#45;2082704380400</title>
<path fill="none" stroke="black" d="M589.75,-389.8C651.89,-398.99 810.93,-422.52 887.12,-433.8"/>
</g>
<!-- 2082704380448 -->
<g id="node9" class="node">
<title>2082704380448</title>
<ellipse fill="none" stroke="black" cx="930.05" cy="-386" rx="124.03" ry="18"/>
<text text-anchor="middle" x="930.05" y="-380" font-family="Times New Roman,serif" font-size="15.00">Period application received</text>
</g>
<!-- 2082704382032&#45;&#45;2082704380448 -->
<g id="edge6" class="edge">
<title>2082704382032&#45;&#45;2082704380448</title>
<path fill="none" stroke="black" d="M590.33,-386C634.95,-386 728.29,-386 805.71,-386"/>
</g>
<!-- 2082704386784 -->
<g id="node10" class="node">
<title>2082704386784</title>
<ellipse fill="none" stroke="black" cx="930.05" cy="-332" rx="27" ry="18"/>
<text text-anchor="middle" x="930.05" y="-326" font-family="Times New Roman,serif" font-size="15.00">seq</text>
</g>
<!-- 2082704382032&#45;&#45;2082704386784 -->
<g id="edge85" class="edge">
<title>2082704382032&#45;&#45;2082704386784</title>
<path fill="none" stroke="black" d="M589.75,-382.2C656.76,-372.29 836.44,-345.7 903.42,-335.79"/>
</g>
<!-- 2082704391824 -->
<g id="node7" class="node">
<title>2082704391824</title>
<ellipse fill="none" stroke="black" cx="1300.09" cy="-459" rx="161.39" ry="18"/>
<text text-anchor="middle" x="1300.09" y="-453" font-family="Times New Roman,serif" font-size="15.00">Log senddate procedure confirmation</text>
</g>
<!-- 2082704380400&#45;&#45;2082704391824 -->
<g id="edge3" class="edge">
<title>2082704380400&#45;&#45;2082704391824</title>
<path fill="none" stroke="black" d="M975.08,-442.27C1018.97,-444.54 1088.81,-448.14 1152.43,-451.43"/>
</g>
<!-- 2082704377424 -->
<g id="node8" class="node">
<title>2082704377424</title>
<ellipse fill="black" stroke="black" cx="1300.09" cy="-420" rx="2.7" ry="2.7"/>
</g>
<!-- 2082704380400&#45;&#45;2082704377424 -->
<g id="edge4" class="edge">
<title>2082704380400&#45;&#45;2082704377424</title>
<path fill="none" stroke="black" d="M975.08,-437.61C1067.43,-432.59 1274.72,-421.32 1297.12,-420.11"/>
</g>
<!-- 2082704387216 -->
<g id="node11" class="node">
<title>2082704387216</title>
<ellipse fill="none" stroke="black" cx="1300.09" cy="-366" rx="109.19" ry="18"/>
<text text-anchor="middle" x="1300.09" y="-360" font-family="Times New Roman,serif" font-size="15.00">OLO messaging ongoing</text>
</g>
<!-- 2082704386784&#45;&#45;2082704387216 -->
<g id="edge7" class="edge">
<title>2082704386784&#45;&#45;2082704387216</title>
<path fill="none" stroke="black" d="M957.23,-334.42C1007.89,-339.1 1121.62,-349.6 1204.02,-357.22"/>
</g>
<!-- 2082704382224 -->
<g id="node12" class="node">
<title>2082704382224</title>
<ellipse fill="none" stroke="black" cx="1300.09" cy="-312" rx="27" ry="18"/>
<text text-anchor="middle" x="1300.09" y="-306" font-family="Times New Roman,serif" font-size="15.00">and</text>
</g>
<!-- 2082704386784&#45;&#45;2082704382224 -->
<g id="edge84" class="edge">
<title>2082704386784&#45;&#45;2082704382224</title>
<path fill="none" stroke="black" d="M957.23,-330.58C1024.89,-326.9 1205.02,-317.11 1272.81,-313.43"/>
</g>
<!-- 2082704387456 -->
<g id="node13" class="node">
<title>2082704387456</title>
<ellipse fill="none" stroke="black" cx="1636.35" cy="-339" rx="138.87" ry="18"/>
<text text-anchor="middle" x="1636.35" y="-333" font-family="Times New Roman,serif" font-size="15.00">Log senddate acknowledgement</text>
</g>
<!-- 2082704382224&#45;&#45;2082704387456 -->
<g id="edge8" class="edge">
<title>2082704382224&#45;&#45;2082704387456</title>
<path fill="none" stroke="black" d="M1327.32,-314.12C1367.95,-317.4 1448.58,-323.91 1517.15,-329.45"/>
</g>
<!-- 2082704386352 -->
<g id="node14" class="node">
<title>2082704386352</title>
<ellipse fill="none" stroke="black" cx="1636.35" cy="-285" rx="27" ry="18"/>
<text text-anchor="middle" x="1636.35" y="-279" font-family="Times New Roman,serif" font-size="15.00">seq</text>
</g>
<!-- 2082704382224&#45;&#45;2082704386352 -->
<g id="edge83" class="edge">
<title>2082704382224&#45;&#45;2082704386352</title>
<path fill="none" stroke="black" d="M1327.32,-309.88C1389.81,-304.83 1546.89,-292.15 1609.25,-287.11"/>
</g>
<!-- 2082704379824 -->
<g id="node15" class="node">
<title>2082704379824</title>
<ellipse fill="none" stroke="black" cx="1947.54" cy="-312" rx="136.31" ry="18"/>
<text text-anchor="middle" x="1947.54" y="-306" font-family="Times New Roman,serif" font-size="15.00">Reception through OLO system</text>
</g>
<!-- 2082704386352&#45;&#45;2082704379824 -->
<g id="edge9" class="edge">
<title>2082704386352&#45;&#45;2082704379824</title>
<path fill="none" stroke="black" d="M1663.45,-287.28C1700.65,-290.53 1771.21,-296.69 1832.58,-302.05"/>
</g>
<!-- 2082704377040 -->
<g id="node16" class="node">
<title>2082704377040</title>
<ellipse fill="none" stroke="black" cx="1947.54" cy="-258" rx="27" ry="18"/>
<text text-anchor="middle" x="1947.54" y="-252" font-family="Times New Roman,serif" font-size="15.00">and</text>
</g>
<!-- 2082704386352&#45;&#45;2082704377040 -->
<g id="edge82" class="edge">
<title>2082704386352&#45;&#45;2082704377040</title>
<path fill="none" stroke="black" d="M1663.45,-282.72C1721.83,-277.62 1862.41,-265.35 1920.62,-260.26"/>
</g>
<!-- 2082704379296 -->
<g id="node17" class="node">
<title>2082704379296</title>
<ellipse fill="none" stroke="black" cx="2242.85" cy="-285" rx="123" ry="18"/>
<text text-anchor="middle" x="2242.85" y="-279" font-family="Times New Roman,serif" font-size="15.00">Phase procedure terminated</text>
</g>
<!-- 2082704377040&#45;&#45;2082704379296 -->
<g id="edge10" class="edge">
<title>2082704377040&#45;&#45;2082704379296</title>
<path fill="none" stroke="black" d="M1974.57,-260.4C2010.95,-263.75 2079.11,-270.02 2137.5,-275.39"/>
</g>
<!-- 2082704382800 -->
<g id="node18" class="node">
<title>2082704382800</title>
<ellipse fill="none" stroke="black" cx="2242.85" cy="-231" rx="27" ry="18"/>
<text text-anchor="middle" x="2242.85" y="-225" font-family="Times New Roman,serif" font-size="15.00">seq</text>
</g>
<!-- 2082704377040&#45;&#45;2082704382800 -->
<g id="edge81" class="edge">
<title>2082704377040&#45;&#45;2082704382800</title>
<path fill="none" stroke="black" d="M1974.57,-255.6C2030.23,-250.48 2160.27,-238.51 2215.88,-233.39"/>
</g>
<!-- 2082704379248 -->
<g id="node19" class="node">
<title>2082704379248</title>
<ellipse fill="none" stroke="black" cx="2428.86" cy="-258" rx="27" ry="18"/>
<text text-anchor="middle" x="2428.86" y="-252" font-family="Times New Roman,serif" font-size="15.00">and</text>
</g>
<!-- 2082704382800&#45;&#45;2082704379248 -->
<g id="edge72" class="edge">
<title>2082704382800&#45;&#45;2082704379248</title>
<path fill="none" stroke="black" d="M2269.44,-234.75C2304.49,-239.9 2367.1,-249.08 2402.19,-254.23"/>
</g>
<!-- 2082704382368 -->
<g id="node81" class="node">
<title>2082704382368</title>
<ellipse fill="none" stroke="black" cx="2428.86" cy="-204" rx="27" ry="18"/>
<text text-anchor="middle" x="2428.86" y="-198" font-family="Times New Roman,serif" font-size="15.00">xor</text>
</g>
<!-- 2082704382800&#45;&#45;2082704382368 -->
<g id="edge80" class="edge">
<title>2082704382800&#45;&#45;2082704382368</title>
<path fill="none" stroke="black" d="M2269.44,-227.25C2304.49,-222.1 2367.1,-212.92 2402.19,-207.77"/>
</g>
<!-- 2082704390528 -->
<g id="node20" class="node">
<title>2082704390528</title>
<ellipse fill="none" stroke="black" cx="2680.37" cy="-308" rx="188.52" ry="18"/>
<text text-anchor="middle" x="2680.37" y="-302" font-family="Times New Roman,serif" font-size="15.00">Document date termination request received</text>
</g>
<!-- 2082704379248&#45;&#45;2082704390528 -->
<g id="edge11" class="edge">
<title>2082704379248&#45;&#45;2082704390528</title>
<path fill="none" stroke="black" d="M2455.16,-263.07C2488.11,-269.67 2547.34,-281.54 2596.65,-291.42"/>
</g>
<!-- 2082704383472 -->
<g id="node21" class="node">
<title>2082704383472</title>
<ellipse fill="none" stroke="black" cx="2680.37" cy="-254" rx="27" ry="18"/>
<text text-anchor="middle" x="2680.37" y="-248" font-family="Times New Roman,serif" font-size="15.00">seq</text>
</g>
<!-- 2082704379248&#45;&#45;2082704383472 -->
<g id="edge71" class="edge">
<title>2082704379248&#45;&#45;2082704383472</title>
<path fill="none" stroke="black" d="M2456.09,-257.58C2504.01,-256.81 2605.18,-255.19 2653.12,-254.42"/>
</g>
<!-- 2082704384960 -->
<g id="node22" class="node">
<title>2082704384960</title>
<ellipse fill="none" stroke="black" cx="3060.14" cy="-308" rx="27" ry="18"/>
<text text-anchor="middle" x="3060.14" y="-302" font-family="Times New Roman,serif" font-size="15.00">and</text>
</g>
<!-- 2082704383472&#45;&#45;2082704384960 -->
<g id="edge67" class="edge">
<title>2082704383472&#45;&#45;2082704384960</title>
<path fill="none" stroke="black" d="M2707.04,-257.67C2775.96,-267.52 2964.48,-294.47 3033.43,-304.33"/>
</g>
<!-- 2082704387408 -->
<g id="node78" class="node">
<title>2082704387408</title>
<ellipse fill="none" stroke="black" cx="3060.14" cy="-254" rx="27" ry="18"/>
<text text-anchor="middle" x="3060.14" y="-248" font-family="Times New Roman,serif" font-size="15.00">xor</text>
</g>
<!-- 2082704383472&#45;&#45;2082704387408 -->
<g id="edge70" class="edge">
<title>2082704383472&#45;&#45;2082704387408</title>
<path fill="none" stroke="black" d="M2707.64,-254C2776.82,-254 2963.52,-254 3032.8,-254"/>
</g>
<!-- 2082704391152 -->
<g id="node23" class="node">
<title>2082704391152</title>
<ellipse fill="none" stroke="black" cx="3425.06" cy="-361" rx="88.71" ry="18"/>
<text text-anchor="middle" x="3425.06" y="-355" font-family="Times New Roman,serif" font-size="15.00">Document deadline</text>
</g>
<!-- 2082704384960&#45;&#45;2082704391152 -->
<g id="edge12" class="edge">
<title>2082704384960&#45;&#45;2082704391152</title>
<path fill="none" stroke="black" d="M3086.95,-311.77C3141.52,-319.74 3270.3,-338.55 3351.96,-350.47"/>
</g>
<!-- 2082704384768 -->
<g id="node24" class="node">
<title>2082704384768</title>
<ellipse fill="none" stroke="black" cx="3425.06" cy="-307" rx="27" ry="18"/>
<text text-anchor="middle" x="3425.06" y="-301" font-family="Times New Roman,serif" font-size="15.00">seq</text>
</g>
<!-- 2082704384960&#45;&#45;2082704384768 -->
<g id="edge66" class="edge">
<title>2082704384960&#45;&#45;2082704384768</title>
<path fill="none" stroke="black" d="M3087.53,-307.93C3154.57,-307.74 3330.83,-307.26 3397.77,-307.07"/>
</g>
<!-- 2082704379536 -->
<g id="node25" class="node">
<title>2082704379536</title>
<ellipse fill="none" stroke="black" cx="3661.73" cy="-338" rx="27" ry="18"/>
<text text-anchor="middle" x="3661.73" y="-332" font-family="Times New Roman,serif" font-size="15.00">xor</text>
</g>
<!-- 2082704384768&#45;&#45;2082704379536 -->
<g id="edge58" class="edge">
<title>2082704384768&#45;&#45;2082704379536</title>
<path fill="none" stroke="black" d="M3452.07,-310.44C3497.3,-316.41 3589.9,-328.64 3634.96,-334.6"/>
</g>
<!-- 2082704389232 -->
<g id="node71" class="node">
<title>2082704389232</title>
<ellipse fill="none" stroke="black" cx="3661.73" cy="-249" rx="27" ry="18"/>
<text text-anchor="middle" x="3661.73" y="-243" font-family="Times New Roman,serif" font-size="15.00">xor</text>
</g>
<!-- 2082704384768&#45;&#45;2082704389232 -->
<g id="edge65" class="edge">
<title>2082704384768&#45;&#45;2082704389232</title>
<path fill="none" stroke="black" d="M3450.73,-300.9C3495.8,-289.76 3590.95,-266.25 3636.04,-255.1"/>
</g>
<!-- 2082704378432 -->
<g id="node26" class="node">
<title>2082704378432</title>
<ellipse fill="black" stroke="black" cx="3751.73" cy="-377" rx="2.7" ry="2.7"/>
</g>
<!-- 2082704379536&#45;&#45;2082704378432 -->
<g id="edge13" class="edge">
<title>2082704379536&#45;&#45;2082704378432</title>
<path fill="none" stroke="black" d="M3684.94,-347.84C3707.75,-357.95 3741.02,-372.69 3748.98,-376.22"/>
</g>
<!-- 2082704376608 -->
<g id="node27" class="node">
<title>2082704376608</title>
<ellipse fill="none" stroke="black" cx="3751.73" cy="-338" rx="27" ry="18"/>
<text text-anchor="middle" x="3751.73" y="-332" font-family="Times New Roman,serif" font-size="15.00">seq</text>
</g>
<!-- 2082704379536&#45;&#45;2082704376608 -->
<g id="edge57" class="edge">
<title>2082704379536&#45;&#45;2082704376608</title>
<path fill="none" stroke="black" d="M3689.14,-338C3700.27,-338 3713.21,-338 3724.35,-338"/>
</g>
<!-- 2082704387120 -->
<g id="node28" class="node">
<title>2082704387120</title>
<ellipse fill="none" stroke="black" cx="3961.28" cy="-473" rx="27" ry="18"/>
<text text-anchor="middle" x="3961.28" y="-467" font-family="Times New Roman,serif" font-size="15.00">and</text>
</g>
<!-- 2082704376608&#45;&#45;2082704387120 -->
<g id="edge50" class="edge">
<title>2082704376608&#45;&#45;2082704387120</title>
<path fill="none" stroke="black" d="M3771.89,-350.46C3811.43,-376.18 3901.67,-434.88 3941.17,-460.57"/>
</g>
<!-- 2082704382608 -->
<g id="node65" class="node">
<title>2082704382608</title>
<ellipse fill="none" stroke="black" cx="3961.28" cy="-419" rx="83.08" ry="18"/>
<text text-anchor="middle" x="3961.28" y="-413" font-family="Times New Roman,serif" font-size="15.00">Update procedure</text>
</g>
<!-- 2082704376608&#45;&#45;2082704382608 -->
<g id="edge51" class="edge">
<title>2082704376608&#45;&#45;2082704382608</title>
<path fill="none" stroke="black" d="M3775.74,-346.98C3810.36,-360.49 3876.36,-386.25 3919.32,-403.02"/>
</g>
<!-- 2082704385920 -->
<g id="node66" class="node">
<title>2082704385920</title>
<ellipse fill="none" stroke="black" cx="3961.28" cy="-365" rx="27" ry="18"/>
<text text-anchor="middle" x="3961.28" y="-359" font-family="Times New Roman,serif" font-size="15.00">xor</text>
</g>
<!-- 2082704376608&#45;&#45;2082704385920 -->
<g id="edge54" class="edge">
<title>2082704376608&#45;&#45;2082704385920</title>
<path fill="none" stroke="black" d="M3778.6,-341.36C3818.48,-346.55 3894.54,-356.45 3934.42,-361.64"/>
</g>
<!-- 2082704389136 -->
<g id="node69" class="node">
<title>2082704389136</title>
<ellipse fill="none" stroke="black" cx="3961.28" cy="-311" rx="68.24" ry="18"/>
<text text-anchor="middle" x="3961.28" y="-305" font-family="Times New Roman,serif" font-size="15.00">Fulfill request</text>
</g>
<!-- 2082704376608&#45;&#45;2082704389136 -->
<g id="edge55" class="edge">
<title>2082704376608&#45;&#45;2082704389136</title>
<path fill="none" stroke="black" d="M3778.6,-334.64C3808.7,-330.72 3859.41,-324.12 3899.62,-318.89"/>
</g>
<!-- 2082701330384 -->
<g id="node70" class="node">
<title>2082701330384</title>
<ellipse fill="none" stroke="black" cx="3961.28" cy="-257" rx="146.55" ry="18"/>
<text text-anchor="middle" x="3961.28" y="-251" font-family="Times New Roman,serif" font-size="15.00">Period for supplying missing data</text>
</g>
<!-- 2082704376608&#45;&#45;2082701330384 -->
<g id="edge56" class="edge">
<title>2082704376608&#45;&#45;2082701330384</title>
<path fill="none" stroke="black" d="M3775.74,-329.02C3809.3,-315.92 3872.36,-291.31 3915.33,-274.54"/>
</g>
<!-- 2082704380208 -->
<g id="node29" class="node">
<title>2082704380208</title>
<ellipse fill="none" stroke="black" cx="4380.45" cy="-500" rx="98.95" ry="18"/>
<text text-anchor="middle" x="4380.45" y="-494" font-family="Times New Roman,serif" font-size="15.00">Applicant is involved</text>
</g>
<!-- 2082704387120&#45;&#45;2082704380208 -->
<g id="edge14" class="edge">
<title>2082704387120&#45;&#45;2082704380208</title>
<path fill="none" stroke="black" d="M3988.38,-474.69C4046.8,-478.47 4190.49,-487.77 4286.46,-493.98"/>
</g>
<!-- 2082704388704 -->
<g id="node30" class="node">
<title>2082704388704</title>
<ellipse fill="none" stroke="black" cx="4380.45" cy="-446" rx="27" ry="18"/>
<text text-anchor="middle" x="4380.45" y="-440" font-family="Times New Roman,serif" font-size="15.00">seq</text>
</g>
<!-- 2082704387120&#45;&#45;2082704388704 -->
<g id="edge49" class="edge">
<title>2082704387120&#45;&#45;2082704388704</title>
<path fill="none" stroke="black" d="M3988.38,-471.31C4063.21,-466.47 4277.95,-452.57 4353.1,-447.71"/>
</g>
<!-- 2082704383136 -->
<g id="node31" class="node">
<title>2082704383136</title>
<ellipse fill="none" stroke="black" cx="4790.93" cy="-527" rx="27" ry="18"/>
<text text-anchor="middle" x="4790.93" y="-521" font-family="Times New Roman,serif" font-size="15.00">xor</text>
</g>
<!-- 2082704388704&#45;&#45;2082704383136 -->
<g id="edge45" class="edge">
<title>2082704388704&#45;&#45;2082704383136</title>
<path fill="none" stroke="black" d="M4406.7,-451.01C4479.84,-465.51 4691.33,-507.45 4764.59,-521.98"/>
</g>
<!-- 2082704387168 -->
<g id="node62" class="node">
<title>2082704387168</title>
<ellipse fill="none" stroke="black" cx="4790.93" cy="-473" rx="137.85" ry="18"/>
<text text-anchor="middle" x="4790.93" y="-467" font-family="Times New Roman,serif" font-size="15.00">Process subcases completeness</text>
</g>
<!-- 2082704388704&#45;&#45;2082704387168 -->
<g id="edge46" class="edge">
<title>2082704388704&#45;&#45;2082704387168</title>
<path fill="none" stroke="black" d="M4407.63,-447.73C4458.96,-451.12 4575.76,-458.84 4666.84,-464.86"/>
</g>
<!-- 2082704389760 -->
<g id="node63" class="node">
<title>2082704389760</title>
<ellipse fill="none" stroke="black" cx="4790.93" cy="-419" rx="127.1" ry="18"/>
<text text-anchor="middle" x="4790.93" y="-413" font-family="Times New Roman,serif" font-size="15.00">Subcases completeness done</text>
</g>
<!-- 2082704388704&#45;&#45;2082704389760 -->
<g id="edge47" class="edge">
<title>2082704388704&#45;&#45;2082704389760</title>
<path fill="none" stroke="black" d="M4407.63,-444.27C4460.45,-440.78 4582.63,-432.7 4674.74,-426.61"/>
</g>
<!-- 2082704390288 -->
<g id="node64" class="node">
<title>2082704390288</title>
<ellipse fill="none" stroke="black" cx="4790.93" cy="-365" rx="98.95" ry="18"/>
<text text-anchor="middle" x="4790.93" y="-359" font-family="Times New Roman,serif" font-size="15.00">WAW permit element</text>
</g>
<!-- 2082704388704&#45;&#45;2082704390288 -->
<g id="edge48" class="edge">
<title>2082704388704&#45;&#45;2082704390288</title>
<path fill="none" stroke="black" d="M4406.7,-440.99C4468.71,-428.7 4630.16,-396.68 4722.51,-378.37"/>
</g>
<!-- 2082704384336 -->
<g id="node32" class="node">
<title>2082704384336</title>
<ellipse fill="black" stroke="black" cx="5009.98" cy="-566" rx="2.7" ry="2.7"/>
</g>
<!-- 2082704383136&#45;&#45;2082704384336 -->
<g id="edge15" class="edge">
<title>2082704383136&#45;&#45;2082704384336</title>
<path fill="none" stroke="black" d="M4817.25,-531.55C4870.48,-541.11 4990.46,-562.67 5007.06,-565.65"/>
</g>
<!-- 2082704378192 -->
<g id="node33" class="node">
<title>2082704378192</title>
<ellipse fill="none" stroke="black" cx="5009.98" cy="-527" rx="45.21" ry="18"/>
<text text-anchor="middle" x="5009.98" y="-521" font-family="Times New Roman,serif" font-size="15.00">xor loop</text>
</g>
<!-- 2082704383136&#45;&#45;2082704378192 -->
<g id="edge18" class="edge">
<title>2082704383136&#45;&#45;2082704378192</title>
<path fill="none" stroke="black" d="M4818.11,-527C4854.42,-527 4920.55,-527 4964.64,-527"/>
</g>
<!-- 2082704385248 -->
<g id="node36" class="node">
<title>2082704385248</title>
<ellipse fill="none" stroke="black" cx="5009.98" cy="-473" rx="27" ry="18"/>
<text text-anchor="middle" x="5009.98" y="-467" font-family="Times New Roman,serif" font-size="15.00">seq</text>
</g>
<!-- 2082704383136&#45;&#45;2082704385248 -->
<g id="edge44" class="edge">
<title>2082704383136&#45;&#45;2082704385248</title>
<path fill="none" stroke="black" d="M4816.83,-520.81C4858.7,-510.39 4942.7,-489.49 4984.38,-479.12"/>
</g>
<!-- 2082704388176 -->
<g id="node34" class="node">
<title>2082704388176</title>
<ellipse fill="none" stroke="black" cx="5207.03" cy="-562" rx="115.84" ry="18"/>
<text text-anchor="middle" x="5207.03" y="-556" font-family="Times New Roman,serif" font-size="15.00">Issue confirmation receipt</text>
</g>
<!-- 2082704378192&#45;&#45;2082704388176 -->
<g id="edge16" class="edge">
<title>2082704378192&#45;&#45;2082704388176</title>
<path fill="none" stroke="black" d="M5051.87,-534.34C5074.33,-538.37 5102.91,-543.5 5129.35,-548.24"/>
</g>
<!-- 2082704380592 -->
<g id="node35" class="node">
<title>2082704380592</title>
<ellipse fill="black" stroke="black" cx="5207.03" cy="-523" rx="2.7" ry="2.7"/>
</g>
<!-- 2082704378192&#45;&#45;2082704380592 -->
<g id="edge17" class="edge">
<title>2082704378192&#45;&#45;2082704380592</title>
<path fill="none" stroke="black" d="M5055.24,-526.09C5107.85,-525.01 5190.27,-523.32 5204.05,-523.04"/>
</g>
<!-- 2082704377952 -->
<g id="node37" class="node">
<title>2082704377952</title>
<ellipse fill="none" stroke="black" cx="5207.03" cy="-477" rx="27" ry="18"/>
<text text-anchor="middle" x="5207.03" y="-471" font-family="Times New Roman,serif" font-size="15.00">xor</text>
</g>
<!-- 2082704385248&#45;&#45;2082704377952 -->
<g id="edge22" class="edge">
<title>2082704385248&#45;&#45;2082704377952</title>
<path fill="none" stroke="black" d="M5037.29,-473.54C5074.62,-474.31 5142.56,-475.7 5179.83,-476.46"/>
</g>
<!-- 2082704382320 -->
<g id="node41" class="node">
<title>2082704382320</title>
<ellipse fill="none" stroke="black" cx="5207.03" cy="-396" rx="27" ry="18"/>
<text text-anchor="middle" x="5207.03" y="-390" font-family="Times New Roman,serif" font-size="15.00">and</text>
</g>
<!-- 2082704385248&#45;&#45;2082704382320 -->
<g id="edge43" class="edge">
<title>2082704385248&#45;&#45;2082704382320</title>
<path fill="none" stroke="black" d="M5033.74,-464.02C5071.22,-449.22 5145.53,-419.88 5183.12,-405.05"/>
</g>
<!-- 2082704392160 -->
<g id="node38" class="node">
<title>2082704392160</title>
<ellipse fill="black" stroke="black" cx="5514.63" cy="-543" rx="2.7" ry="2.7"/>
</g>
<!-- 2082704377952&#45;&#45;2082704392160 -->
<g id="edge19" class="edge">
<title>2082704377952&#45;&#45;2082704392160</title>
<path fill="none" stroke="black" d="M5233.3,-482.46C5302.52,-497.41 5491.38,-538.19 5511.83,-542.61"/>
</g>
<!-- 2082704384192 -->
<g id="node39" class="node">
<title>2082704384192</title>
<ellipse fill="none" stroke="black" cx="5514.63" cy="-504" rx="112.26" ry="18"/>
<text text-anchor="middle" x="5514.63" y="-498" font-family="Times New Roman,serif" font-size="15.00">Register date publication</text>
</g>
<!-- 2082704377952&#45;&#45;2082704384192 -->
<g id="edge20" class="edge">
<title>2082704377952&#45;&#45;2082704384192</title>
<path fill="none" stroke="black" d="M5234.09,-479.3C5273.85,-482.82 5351.76,-489.7 5415.25,-495.31"/>
</g>
<!-- 2082704379344 -->
<g id="node40" class="node">
<title>2082704379344</title>
<ellipse fill="none" stroke="black" cx="5514.63" cy="-450" rx="155.76" ry="18"/>
<text text-anchor="middle" x="5514.63" y="-444" font-family="Times New Roman,serif" font-size="15.00">Create letter to request missing data</text>
</g>
<!-- 2082704377952&#45;&#45;2082704379344 -->
<g id="edge21" class="edge">
<title>2082704377952&#45;&#45;2082704379344</title>
<path fill="none" stroke="black" d="M5234.09,-474.7C5268.59,-471.65 5331.79,-466.07 5389.38,-460.98"/>
</g>
<!-- 2082704379200 -->
<g id="node42" class="node">
<title>2082704379200</title>
<ellipse fill="none" stroke="black" cx="5514.63" cy="-396" rx="141.94" ry="18"/>
<text text-anchor="middle" x="5514.63" y="-390" font-family="Times New Roman,serif" font-size="15.00">Normal procedure without MER</text>
</g>
<!-- 2082704382320&#45;&#45;2082704379200 -->
<g id="edge23" class="edge">
<title>2082704382320&#45;&#45;2082704379200</title>
<path fill="none" stroke="black" d="M5234.35,-396C5265.55,-396 5319.96,-396 5372.52,-396"/>
</g>
<!-- 2082704384432 -->
<g id="node43" class="node">
<title>2082704384432</title>
<ellipse fill="none" stroke="black" cx="5514.63" cy="-342" rx="27" ry="18"/>
<text text-anchor="middle" x="5514.63" y="-336" font-family="Times New Roman,serif" font-size="15.00">seq</text>
</g>
<!-- 2082704382320&#45;&#45;2082704384432 -->
<g id="edge42" class="edge">
<title>2082704382320&#45;&#45;2082704384432</title>
<path fill="none" stroke="black" d="M5233.56,-391.49C5291.23,-381.3 5431,-356.6 5488.39,-346.46"/>
</g>
<!-- 2082701338016 -->
<g id="node44" class="node">
<title>2082701338016</title>
<ellipse fill="none" stroke="black" cx="5837.59" cy="-369" rx="131.19" ry="18"/>
<text text-anchor="middle" x="5837.59" y="-363" font-family="Times New Roman,serif" font-size="15.00">Environmental Report needed</text>
</g>
<!-- 2082704384432&#45;&#45;2082701338016 -->
<g id="edge24" class="edge">
<title>2082704384432&#45;&#45;2082701338016</title>
<path fill="none" stroke="black" d="M5541.9,-344.21C5581.57,-347.55 5659.12,-354.07 5724.71,-359.59"/>
</g>
<!-- 2082701333072 -->
<g id="node45" class="node">
<title>2082701333072</title>
<ellipse fill="none" stroke="black" cx="5837.59" cy="-315" rx="27" ry="18"/>
<text text-anchor="middle" x="5837.59" y="-309" font-family="Times New Roman,serif" font-size="15.00">xor</text>
</g>
<!-- 2082704384432&#45;&#45;2082701333072 -->
<g id="edge41" class="edge">
<title>2082704384432&#45;&#45;2082701333072</title>
<path fill="none" stroke="black" d="M5541.9,-339.79C5602.23,-334.71 5750.16,-322.27 5810.41,-317.2"/>
</g>
<!-- 2082701341856 -->
<g id="node46" class="node">
<title>2082701341856</title>
<ellipse fill="none" stroke="black" cx="6031.78" cy="-450" rx="27" ry="18"/>
<text text-anchor="middle" x="6031.78" y="-444" font-family="Times New Roman,serif" font-size="15.00">seq</text>
</g>
<!-- 2082701333072&#45;&#45;2082701341856 -->
<g id="edge31" class="edge">
<title>2082701333072&#45;&#45;2082701341856</title>
<path fill="none" stroke="black" d="M5857.01,-327.94C5893.75,-353.75 5975.72,-411.32 6012.41,-437.09"/>
</g>
<!-- 2082701338640 -->
<g id="node53" class="node">
<title>2082701338640</title>
<ellipse fill="none" stroke="black" cx="6031.78" cy="-180" rx="27" ry="18"/>
<text text-anchor="middle" x="6031.78" y="-174" font-family="Times New Roman,serif" font-size="15.00">seq</text>
</g>
<!-- 2082701333072&#45;&#45;2082701338640 -->
<g id="edge40" class="edge">
<title>2082701333072&#45;&#45;2082701338640</title>
<path fill="none" stroke="black" d="M5857.01,-302.06C5893.75,-276.25 5975.72,-218.68 6012.41,-192.91"/>
</g>
<!-- 2082701332064 -->
<g id="node47" class="node">
<title>2082701332064</title>
<ellipse fill="none" stroke="black" cx="6273.06" cy="-612" rx="61.08" ry="18"/>
<text text-anchor="middle" x="6273.06" y="-606" font-family="Times New Roman,serif" font-size="15.00">MER shown</text>
</g>
<!-- 2082701341856&#45;&#45;2082701332064 -->
<g id="edge25" class="edge">
<title>2082701341856&#45;&#45;2082701332064</title>
<path fill="none" stroke="black" d="M6051.56,-462.71C6094.41,-491.73 6199.43,-562.83 6247.42,-595.32"/>
</g>
<!-- 2082701341904 -->
<g id="node48" class="node">
<title>2082701341904</title>
<ellipse fill="none" stroke="black" cx="6273.06" cy="-558" rx="139.89" ry="18"/>
<text text-anchor="middle" x="6273.06" y="-552" font-family="Times New Roman,serif" font-size="15.00">Activities for regular procedure</text>
</g>
<!-- 2082701341856&#45;&#45;2082701341904 -->
<g id="edge26" class="edge">
<title>2082701341856&#45;&#45;2082701341904</title>
<path fill="none" stroke="black" d="M6054.86,-459.97C6095.47,-478.3 6182.48,-517.57 6233.18,-540.45"/>
</g>
<!-- 2082701338064 -->
<g id="node49" class="node">
<title>2082701338064</title>
<ellipse fill="none" stroke="black" cx="6273.06" cy="-504" rx="87.69" ry="18"/>
<text text-anchor="middle" x="6273.06" y="-498" font-family="Times New Roman,serif" font-size="15.00">Phased application</text>
</g>
<!-- 2082701341856&#45;&#45;2082701338064 -->
<g id="edge27" class="edge">
<title>2082701341856&#45;&#45;2082701338064</title>
<path fill="none" stroke="black" d="M6057.93,-455.68C6094.41,-463.91 6163.06,-479.4 6212.82,-490.63"/>
</g>
<!-- 2082701341376 -->
<g id="node50" class="node">
<title>2082701341376</title>
<ellipse fill="none" stroke="black" cx="6273.06" cy="-450" rx="134.78" ry="18"/>
<text text-anchor="middle" x="6273.06" y="-444" font-family="Times New Roman,serif" font-size="15.00">Create procedure confirmation</text>
</g>
<!-- 2082701341856&#45;&#45;2082701341376 -->
<g id="edge28" class="edge">
<title>2082701341856&#45;&#45;2082701341376</title>
<path fill="none" stroke="black" d="M6058.84,-450C6078.71,-450 6107.72,-450 6137.99,-450"/>
</g>
<!-- 2082701332880 -->
<g id="node51" class="node">
<title>2082701332880</title>
<ellipse fill="none" stroke="black" cx="6273.06" cy="-396" rx="50.84" ry="18"/>
<text text-anchor="middle" x="6273.06" y="-390" font-family="Times New Roman,serif" font-size="15.00">Announce</text>
</g>
<!-- 2082701341856&#45;&#45;2082701332880 -->
<g id="edge29" class="edge">
<title>2082701341856&#45;&#45;2082701332880</title>
<path fill="none" stroke="black" d="M6057.93,-444.32C6098.73,-435.12 6179.77,-416.83 6229.61,-405.58"/>
</g>
<!-- 2082701331872 -->
<g id="node52" class="node">
<title>2082701331872</title>
<ellipse fill="none" stroke="black" cx="6273.06" cy="-342" rx="132.73" ry="18"/>
<text text-anchor="middle" x="6273.06" y="-336" font-family="Times New Roman,serif" font-size="15.00">Create subcases completeness</text>
</g>
<!-- 2082701341856&#45;&#45;2082701331872 -->
<g id="edge30" class="edge">
<title>2082701341856&#45;&#45;2082701331872</title>
<path fill="none" stroke="black" d="M6054.86,-440.03C6095.47,-421.7 6182.48,-382.43 6233.18,-359.55"/>
</g>
<!-- 2082701335616 -->
<g id="node54" class="node">
<title>2082701335616</title>
<ellipse fill="none" stroke="black" cx="6273.06" cy="-288" rx="130.68" ry="18"/>
<text text-anchor="middle" x="6273.06" y="-282" font-family="Times New Roman,serif" font-size="15.00">Log termination decision date</text>
</g>
<!-- 2082701338640&#45;&#45;2082701335616 -->
<g id="edge32" class="edge">
<title>2082701338640&#45;&#45;2082701335616</title>
<path fill="none" stroke="black" d="M6054.86,-189.97C6095.47,-208.3 6182.48,-247.57 6233.18,-270.45"/>
</g>
<!-- 2082701331296 -->
<g id="node55" class="node">
<title>2082701331296</title>
<ellipse fill="none" stroke="black" cx="6273.06" cy="-234" rx="174.19" ry="18"/>
<text text-anchor="middle" x="6273.06" y="-228" font-family="Times New Roman,serif" font-size="15.00">cease activities after request termination</text>
</g>
<!-- 2082701338640&#45;&#45;2082701331296 -->
<g id="edge33" class="edge">
<title>2082701338640&#45;&#45;2082701331296</title>
<path fill="none" stroke="black" d="M6057.93,-185.68C6090.93,-193.12 6150.25,-206.51 6198.1,-217.31"/>
</g>
<!-- 2082701341712 -->
<g id="node56" class="node">
<title>2082701341712</title>
<ellipse fill="none" stroke="black" cx="6273.06" cy="-180" rx="178.28" ry="18"/>
<text text-anchor="middle" x="6273.06" y="-174" font-family="Times New Roman,serif" font-size="15.00">Record senddate for confirmation request</text>
</g>
<!-- 2082701338640&#45;&#45;2082701341712 -->
<g id="edge34" class="edge">
<title>2082701338640&#45;&#45;2082701341712</title>
<path fill="none" stroke="black" d="M6058.84,-180C6068.77,-180 6080.99,-180 6094.51,-180"/>
</g>
<!-- 2082701330672 -->
<g id="node57" class="node">
<title>2082701330672</title>
<ellipse fill="none" stroke="black" cx="6273.06" cy="-126" rx="142.45" ry="18"/>
<text text-anchor="middle" x="6273.06" y="-120" font-family="Times New Roman,serif" font-size="15.00">Direct to the competent authority</text>
</g>
<!-- 2082701338640&#45;&#45;2082701330672 -->
<g id="edge35" class="edge">
<title>2082701338640&#45;&#45;2082701330672</title>
<path fill="none" stroke="black" d="M6057.93,-174.32C6091.65,-166.71 6152.86,-152.9 6201.22,-141.99"/>
</g>
<!-- 2082701331248 -->
<g id="node58" class="node">
<title>2082701331248</title>
<ellipse fill="none" stroke="black" cx="6273.06" cy="-72" rx="27" ry="18"/>
<text text-anchor="middle" x="6273.06" y="-66" font-family="Times New Roman,serif" font-size="15.00">xor</text>
</g>
<!-- 2082701338640&#45;&#45;2082701331248 -->
<g id="edge38" class="edge">
<title>2082701338640&#45;&#45;2082701331248</title>
<path fill="none" stroke="black" d="M6054.86,-170.03C6100.45,-149.46 6204.49,-102.5 6250.03,-81.94"/>
</g>
<!-- 2082701335184 -->
<g id="node61" class="node">
<title>2082701335184</title>
<ellipse fill="none" stroke="black" cx="6273.06" cy="-18" rx="128.12" ry="18"/>
<text text-anchor="middle" x="6273.06" y="-12" font-family="Times New Roman,serif" font-size="15.00">Send procedure confirmation</text>
</g>
<!-- 2082701338640&#45;&#45;2082701335184 -->
<g id="edge39" class="edge">
<title>2082701338640&#45;&#45;2082701335184</title>
<path fill="none" stroke="black" d="M6051.56,-167.29C6093.86,-138.65 6196.74,-68.99 6245.54,-35.96"/>
</g>
<!-- 2082701329232 -->
<g id="node59" class="node">
<title>2082701329232</title>
<ellipse fill="none" stroke="black" cx="6604.71" cy="-99" rx="117.37" ry="18"/>
<text text-anchor="middle" x="6604.71" y="-93" font-family="Times New Roman,serif" font-size="15.00">Inform BAG administrator</text>
</g>
<!-- 2082701331248&#45;&#45;2082701329232 -->
<g id="edge36" class="edge">
<title>2082701331248&#45;&#45;2082701329232</title>
<path fill="none" stroke="black" d="M6300.2,-74.14C6342.99,-77.65 6430.24,-84.79 6500.25,-90.53"/>
</g>
<!-- 2082701337920 -->
<g id="node60" class="node">
<title>2082701337920</title>
<ellipse fill="none" stroke="black" cx="6604.71" cy="-45" rx="103.04" ry="18"/>
<text text-anchor="middle" x="6604.71" y="-39" font-family="Times New Roman,serif" font-size="15.00">grant temporary permit</text>
</g>
<!-- 2082701331248&#45;&#45;2082701337920 -->
<g id="edge37" class="edge">
<title>2082701331248&#45;&#45;2082701337920</title>
<path fill="none" stroke="black" d="M6300.2,-69.86C6345.13,-66.18 6439.04,-58.49 6510.58,-52.63"/>
</g>
<!-- 2082704378000 -->
<g id="node67" class="node">
<title>2082704378000</title>
<ellipse fill="black" stroke="black" cx="4380.45" cy="-384" rx="2.7" ry="2.7"/>
</g>
<!-- 2082704385920&#45;&#45;2082704378000 -->
<g id="edge52" class="edge">
<title>2082704385920&#45;&#45;2082704378000</title>
<path fill="none" stroke="black" d="M3988.69,-366.2C4076.1,-370.18 4351.87,-382.74 4377.54,-383.91"/>
</g>
<!-- 2082701337824 -->
<g id="node68" class="node">
<title>2082701337824</title>
<ellipse fill="none" stroke="black" cx="4380.45" cy="-345" rx="124.54" ry="18"/>
<text text-anchor="middle" x="4380.45" y="-339" font-family="Times New Roman,serif" font-size="15.00">multiple components chosen</text>
</g>
<!-- 2082704385920&#45;&#45;2082701337824 -->
<g id="edge53" class="edge">
<title>2082704385920&#45;&#45;2082701337824</title>
<path fill="none" stroke="black" d="M3988.69,-363.73C4042.43,-361.16 4167.35,-355.17 4261.59,-350.65"/>
</g>
<!-- 2082701342912 -->
<g id="node72" class="node">
<title>2082701342912</title>
<ellipse fill="black" stroke="black" cx="3751.73" cy="-249" rx="2.7" ry="2.7"/>
</g>
<!-- 2082704389232&#45;&#45;2082701342912 -->
<g id="edge59" class="edge">
<title>2082704389232&#45;&#45;2082701342912</title>
<path fill="none" stroke="black" d="M3689.14,-249C3711.41,-249 3740.89,-249 3748.74,-249"/>
</g>
<!-- 2082701333744 -->
<g id="node73" class="node">
<title>2082701333744</title>
<ellipse fill="none" stroke="black" cx="3751.73" cy="-203" rx="27" ry="18"/>
<text text-anchor="middle" x="3751.73" y="-197" font-family="Times New Roman,serif" font-size="15.00">seq</text>
</g>
<!-- 2082704389232&#45;&#45;2082701333744 -->
<g id="edge64" class="edge">
<title>2082704389232&#45;&#45;2082701333744</title>
<path fill="none" stroke="black" d="M3683.59,-238.1C3697.51,-230.82 3715.76,-221.28 3729.72,-213.98"/>
</g>
<!-- 2082701328992 -->
<g id="node74" class="node">
<title>2082701328992</title>
<ellipse fill="none" stroke="black" cx="3961.28" cy="-203" rx="128.12" ry="18"/>
<text text-anchor="middle" x="3961.28" y="-197" font-family="Times New Roman,serif" font-size="15.00">phase needs notification only</text>
</g>
<!-- 2082701333744&#45;&#45;2082701328992 -->
<g id="edge60" class="edge">
<title>2082701333744&#45;&#45;2082701328992</title>
<path fill="none" stroke="black" d="M3779.02,-203C3793.42,-203 3812.44,-203 3832.74,-203"/>
</g>
<!-- 2082701332208 -->
<g id="node75" class="node">
<title>2082701332208</title>
<ellipse fill="none" stroke="black" cx="3961.28" cy="-149" rx="27" ry="18"/>
<text text-anchor="middle" x="3961.28" y="-143" font-family="Times New Roman,serif" font-size="15.00">and</text>
</g>
<!-- 2082701333744&#45;&#45;2082701332208 -->
<g id="edge63" class="edge">
<title>2082701333744&#45;&#45;2082701332208</title>
<path fill="none" stroke="black" d="M3777.36,-196.59C3817.3,-186.2 3895.77,-165.79 3935.69,-155.4"/>
</g>
<!-- 2082701344256 -->
<g id="node76" class="node">
<title>2082701344256</title>
<ellipse fill="none" stroke="black" cx="4380.45" cy="-176" rx="236.63" ry="18"/>
<text text-anchor="middle" x="4380.45" y="-170" font-family="Times New Roman,serif" font-size="15.00">record senddate letter no permit or notification required</text>
</g>
<!-- 2082701332208&#45;&#45;2082701344256 -->
<g id="edge61" class="edge">
<title>2082701332208&#45;&#45;2082701344256</title>
<path fill="none" stroke="black" d="M3988.38,-150.69C4030.47,-153.41 4116.85,-159 4197.75,-164.24"/>
</g>
<!-- 2082701336384 -->
<g id="node77" class="node">
<title>2082701336384</title>
<ellipse fill="none" stroke="black" cx="4380.45" cy="-122" rx="154.22" ry="18"/>
<text text-anchor="middle" x="4380.45" y="-116" font-family="Times New Roman,serif" font-size="15.00">draft no permit or notification letter</text>
</g>
<!-- 2082701332208&#45;&#45;2082701336384 -->
<g id="edge62" class="edge">
<title>2082701332208&#45;&#45;2082701336384</title>
<path fill="none" stroke="black" d="M3988.38,-147.31C4038.77,-144.05 4152.61,-136.68 4244.54,-130.73"/>
</g>
<!-- 2082704388800 -->
<g id="node79" class="node">
<title>2082704388800</title>
<ellipse fill="black" stroke="black" cx="3425.06" cy="-266" rx="2.7" ry="2.7"/>
</g>
<!-- 2082704387408&#45;&#45;2082704388800 -->
<g id="edge68" class="edge">
<title>2082704387408&#45;&#45;2082704388800</title>
<path fill="none" stroke="black" d="M3087.53,-254.87C3166.8,-257.49 3398.8,-265.16 3422.16,-265.94"/>
</g>
<!-- 2082704379584 -->
<g id="node80" class="node">
<title>2082704379584</title>
<ellipse fill="none" stroke="black" cx="3425.06" cy="-227" rx="118.91" ry="18"/>
<text text-anchor="middle" x="3425.06" y="-221" font-family="Times New Roman,serif" font-size="15.00">Competent authority action</text>
</g>
<!-- 2082704387408&#45;&#45;2082704379584 -->
<g id="edge69" class="edge">
<title>2082704387408&#45;&#45;2082704379584</title>
<path fill="none" stroke="black" d="M3087.24,-252.06C3134.78,-248.52 3237.93,-240.85 3317.63,-234.92"/>
</g>
<!-- 2082704388416 -->
<g id="node82" class="node">
<title>2082704388416</title>
<ellipse fill="black" stroke="black" cx="2680.37" cy="-208" rx="2.7" ry="2.7"/>
</g>
<!-- 2082704382368&#45;&#45;2082704388416 -->
<g id="edge73" class="edge">
<title>2082704382368&#45;&#45;2082704388416</title>
<path fill="none" stroke="black" d="M2456.09,-204.42C2515.9,-205.38 2658.65,-207.67 2677.34,-207.97"/>
</g>
<!-- 2082704377904 -->
<g id="node83" class="node">
<title>2082704377904</title>
<ellipse fill="none" stroke="black" cx="2680.37" cy="-169" rx="27" ry="18"/>
<text text-anchor="middle" x="2680.37" y="-163" font-family="Times New Roman,serif" font-size="15.00">and</text>
</g>
<!-- 2082704382368&#45;&#45;2082704377904 -->
<g id="edge79" class="edge">
<title>2082704382368&#45;&#45;2082704377904</title>
<path fill="none" stroke="black" d="M2455.62,-200.39C2503.56,-193.66 2605.92,-179.3 2653.75,-172.59"/>
</g>
<!-- 2082701340656 -->
<g id="node84" class="node">
<title>2082701340656</title>
<ellipse fill="none" stroke="black" cx="3060.14" cy="-170" rx="155.25" ry="18"/>
<text text-anchor="middle" x="3060.14" y="-164" font-family="Times New Roman,serif" font-size="15.00">Generate terminate request message</text>
</g>
<!-- 2082704377904&#45;&#45;2082701340656 -->
<g id="edge74" class="edge">
<title>2082704377904&#45;&#45;2082701340656</title>
<path fill="none" stroke="black" d="M2707.64,-169.07C2748.46,-169.18 2830.21,-169.39 2904.6,-169.59"/>
</g>
<!-- 2082701329520 -->
<g id="node85" class="node">
<title>2082701329520</title>
<ellipse fill="none" stroke="black" cx="3060.14" cy="-116" rx="27" ry="18"/>
<text text-anchor="middle" x="3060.14" y="-110" font-family="Times New Roman,serif" font-size="15.00">seq</text>
</g>
<!-- 2082704377904&#45;&#45;2082701329520 -->
<g id="edge78" class="edge">
<title>2082704377904&#45;&#45;2082701329520</title>
<path fill="none" stroke="black" d="M2707.04,-165.4C2775.87,-155.74 2964.02,-129.34 3033.18,-119.64"/>
</g>
<!-- 2082701342144 -->
<g id="node86" class="node">
<title>2082701342144</title>
<ellipse fill="none" stroke="black" cx="3425.06" cy="-170" rx="128.12" ry="18"/>
<text text-anchor="middle" x="3425.06" y="-164" font-family="Times New Roman,serif" font-size="15.00">Message to terminate request</text>
</g>
<!-- 2082701329520&#45;&#45;2082701342144 -->
<g id="edge75" class="edge">
<title>2082701329520&#45;&#45;2082701342144</title>
<path fill="none" stroke="black" d="M3086.95,-119.84C3137.96,-127.43 3253.8,-144.67 3335.4,-156.81"/>
</g>
<!-- 2082701336192 -->
<g id="node87" class="node">
<title>2082701336192</title>
<ellipse fill="none" stroke="black" cx="3425.06" cy="-116" rx="121.98" ry="18"/>
<text text-anchor="middle" x="3425.06" y="-110" font-family="Times New Roman,serif" font-size="15.00">View publication date field</text>
</g>
<!-- 2082701329520&#45;&#45;2082701336192 -->
<g id="edge76" class="edge">
<title>2082701329520&#45;&#45;2082701336192</title>
<path fill="none" stroke="black" d="M3087.53,-116C3132.31,-116 3225.8,-116 3302.91,-116"/>
</g>
<!-- 2082701334128 -->
<g id="node88" class="node">
<title>2082701334128</title>
<ellipse fill="none" stroke="black" cx="3425.06" cy="-62" rx="173.67" ry="18"/>
<text text-anchor="middle" x="3425.06" y="-56" font-family="Times New Roman,serif" font-size="15.00">Procedure phase terminated prematurely</text>
</g>
<!-- 2082701329520&#45;&#45;2082701334128 -->
<g id="edge77" class="edge">
<title>2082701329520&#45;&#45;2082701334128</title>
<path fill="none" stroke="black" d="M3086.95,-112.16C3135.53,-104.93 3242.92,-88.95 3323.52,-76.96"/>
</g>
<!-- 2082704383040 -->
<g id="node90" class="node">
<title>2082704383040</title>
<ellipse fill="none" stroke="black" cx="563.08" cy="-332" rx="54.93" ry="18"/>
<text text-anchor="middle" x="563.08" y="-326" font-family="Times New Roman,serif" font-size="15.00">Pause term</text>
</g>
<!-- 2082704392064&#45;&#45;2082704383040 -->
<g id="edge88" class="edge">
<title>2082704392064&#45;&#45;2082704383040</title>
<path fill="none" stroke="black" d="M256.13,-282.19C311.31,-291.18 441.72,-312.41 513.18,-324.04"/>
</g>
<!-- 2082704387984 -->
<g id="node91" class="node">
<title>2082704387984</title>
<ellipse fill="none" stroke="black" cx="563.08" cy="-278" rx="65.17" ry="18"/>
<text text-anchor="middle" x="563.08" y="-272" font-family="Times New Roman,serif" font-size="15.00">Close the file</text>
</g>
<!-- 2082704392064&#45;&#45;2082704387984 -->
<g id="edge89" class="edge">
<title>2082704392064&#45;&#45;2082704387984</title>
<path fill="none" stroke="black" d="M256.69,-278C308.33,-278 424.3,-278 497.54,-278"/>
</g>
<!-- 2082704385872 -->
<g id="node92" class="node">
<title>2082704385872</title>
<ellipse fill="none" stroke="black" cx="563.08" cy="-224" rx="158.32" ry="18"/>
<text text-anchor="middle" x="563.08" y="-218" font-family="Times New Roman,serif" font-size="15.00">Log senddate for termination request</text>
</g>
<!-- 2082704392064&#45;&#45;2082704385872 -->
<g id="edge90" class="edge">
<title>2082704392064&#45;&#45;2082704385872</title>
<path fill="none" stroke="black" d="M256.13,-273.81C301.49,-266.42 397.7,-250.76 470.19,-238.96"/>
</g>
<!-- 2082704376128 -->
<g id="node93" class="node">
<title>2082704376128</title>
<ellipse fill="none" stroke="black" cx="563.08" cy="-170" rx="27" ry="18"/>
<text text-anchor="middle" x="563.08" y="-164" font-family="Times New Roman,serif" font-size="15.00">seq</text>
</g>
<!-- 2082704392064&#45;&#45;2082704376128 -->
<g id="edge94" class="edge">
<title>2082704392064&#45;&#45;2082704376128</title>
<path fill="none" stroke="black" d="M254.24,-270.23C315.44,-250.31 477.48,-197.55 538.45,-177.7"/>
</g>
<!-- 2082704384528 -->
<g id="node94" class="node">
<title>2082704384528</title>
<ellipse fill="none" stroke="black" cx="930.05" cy="-224" rx="123" ry="18"/>
<text text-anchor="middle" x="930.05" y="-218" font-family="Times New Roman,serif" font-size="15.00">Gain additional information</text>
</g>
<!-- 2082704376128&#45;&#45;2082704384528 -->
<g id="edge91" class="edge">
<title>2082704376128&#45;&#45;2082704384528</title>
<path fill="none" stroke="black" d="M589.75,-173.8C641.35,-181.43 759.74,-198.95 842.05,-211.13"/>
</g>
<!-- 2082704385824 -->
<g id="node95" class="node">
<title>2082704385824</title>
<ellipse fill="none" stroke="black" cx="930.05" cy="-170" rx="134.78" ry="18"/>
<text text-anchor="middle" x="930.05" y="-164" font-family="Times New Roman,serif" font-size="15.00">Remain indefinitely suspended</text>
</g>
<!-- 2082704376128&#45;&#45;2082704385824 -->
<g id="edge92" class="edge">
<title>2082704376128&#45;&#45;2082704385824</title>
<path fill="none" stroke="black" d="M590.33,-170C632.91,-170 719.84,-170 794.98,-170"/>
</g>
<!-- 2082704382896 -->
<g id="node96" class="node">
<title>2082704382896</title>
<ellipse fill="none" stroke="black" cx="930.05" cy="-116" rx="172.65" ry="18"/>
<text text-anchor="middle" x="930.05" y="-110" font-family="Times New Roman,serif" font-size="15.00">Creating permanent suspension decision</text>
</g>
<!-- 2082704376128&#45;&#45;2082704382896 -->
<g id="edge93" class="edge">
<title>2082704376128&#45;&#45;2082704382896</title>
<path fill="none" stroke="black" d="M589.75,-166.2C638.51,-158.99 746.91,-142.95 828.15,-130.93"/>
</g>
</g>
</svg>
