<?xml version="1.0" encoding="UTF-8" standalone="no"?>
<!DOCTYPE svg PUBLIC "-//W3C//DTD SVG 1.1//EN"
 "http://www.w3.org/Graphics/SVG/1.1/DTD/svg11.dtd">
<!-- Generated by graphviz version 11.0.0 (20240428.1522)
 -->
<!-- Title: pt Pages: 1 -->
<svg width="5189pt" height="535pt"
 viewBox="0.00 0.00 5189.34 535.00" xmlns="http://www.w3.org/2000/svg" xmlns:xlink="http://www.w3.org/1999/xlink">
<g id="graph0" class="graph" transform="scale(1 1) rotate(0) translate(4 531)">
<title>pt</title>
<polygon fill="white" stroke="none" points="-4,4 -4,-531 5185.34,-531 5185.34,4 -4,4"/>
<!-- 2082700133200 -->
<g id="node1" class="node">
<title>2082700133200</title>
<ellipse fill="none" stroke="black" cx="27" cy="-401" rx="27" ry="18"/>
<text text-anchor="middle" x="27" y="-395" font-family="Times New Roman,serif" font-size="15.00">seq</text>
</g>
<!-- 2082700133776 -->
<g id="node2" class="node">
<title>2082700133776</title>
<ellipse fill="none" stroke="black" cx="229.38" cy="-509" rx="139.38" ry="18"/>
<text text-anchor="middle" x="229.38" y="-503" font-family="Times New Roman,serif" font-size="15.00">Record submission date request</text>
</g>
<!-- 2082700133200&#45;&#45;2082700133776 -->
<g id="edge1" class="edge">
<title>2082700133200&#45;&#45;2082700133776</title>
<path fill="none" stroke="black" d="M48.69,-412.15C83.39,-430.85 153.59,-468.69 195.24,-491.13"/>
</g>
<!-- 2082700139584 -->
<g id="node3" class="node">
<title>2082700139584</title>
<ellipse fill="none" stroke="black" cx="229.38" cy="-455" rx="27" ry="18"/>
<text text-anchor="middle" x="229.38" y="-449" font-family="Times New Roman,serif" font-size="15.00">xor</text>
</g>
<!-- 2082700133200&#45;&#45;2082700139584 -->
<g id="edge4" class="edge">
<title>2082700133200&#45;&#45;2082700139584</title>
<path fill="none" stroke="black" d="M52.57,-407.62C91.13,-418.01 165.43,-438.04 203.92,-448.41"/>
</g>
<!-- 2082700147312 -->
<g id="node6" class="node">
<title>2082700147312</title>
<ellipse fill="none" stroke="black" cx="229.38" cy="-374" rx="27" ry="18"/>
<text text-anchor="middle" x="229.38" y="-368" font-family="Times New Roman,serif" font-size="15.00">and</text>
</g>
<!-- 2082700133200&#45;&#45;2082700147312 -->
<g id="edge71" class="edge">
<title>2082700133200&#45;&#45;2082700147312</title>
<path fill="none" stroke="black" d="M53.79,-397.53C92.26,-392.34 164.28,-382.64 202.7,-377.46"/>
</g>
<!-- 2082700137232 -->
<g id="node73" class="node">
<title>2082700137232</title>
<ellipse fill="none" stroke="black" cx="229.38" cy="-234" rx="27" ry="18"/>
<text text-anchor="middle" x="229.38" y="-228" font-family="Times New Roman,serif" font-size="15.00">xor</text>
</g>
<!-- 2082700133200&#45;&#45;2082700137232 -->
<g id="edge88" class="edge">
<title>2082700133200&#45;&#45;2082700137232</title>
<path fill="none" stroke="black" d="M44.74,-387.05C82.46,-355.61 173.74,-279.54 211.55,-248.03"/>
</g>
<!-- 2082700144192 -->
<g id="node4" class="node">
<title>2082700144192</title>
<ellipse fill="black" stroke="black" cx="528.79" cy="-508" rx="2.7" ry="2.7"/>
</g>
<!-- 2082700139584&#45;&#45;2082700144192 -->
<g id="edge2" class="edge">
<title>2082700139584&#45;&#45;2082700144192</title>
<path fill="none" stroke="black" d="M256,-459.56C324.19,-471.72 506.34,-504.18 526.06,-507.69"/>
</g>
<!-- 2082700147792 -->
<g id="node5" class="node">
<title>2082700147792</title>
<ellipse fill="none" stroke="black" cx="528.79" cy="-469" rx="109.19" ry="18"/>
<text text-anchor="middle" x="528.79" y="-463" font-family="Times New Roman,serif" font-size="15.00">OLO messaging ongoing</text>
</g>
<!-- 2082700139584&#45;&#45;2082700147792 -->
<g id="edge3" class="edge">
<title>2082700139584&#45;&#45;2082700147792</title>
<path fill="none" stroke="black" d="M256.78,-456.24C293.95,-457.99 363.85,-461.28 423.35,-464.08"/>
</g>
<!-- 2082700145776 -->
<g id="node7" class="node">
<title>2082700145776</title>
<ellipse fill="none" stroke="black" cx="528.79" cy="-415" rx="27" ry="18"/>
<text text-anchor="middle" x="528.79" y="-409" font-family="Times New Roman,serif" font-size="15.00">xor</text>
</g>
<!-- 2082700147312&#45;&#45;2082700145776 -->
<g id="edge7" class="edge">
<title>2082700147312&#45;&#45;2082700145776</title>
<path fill="none" stroke="black" d="M256.26,-377.57C312.64,-385.34 446.05,-403.73 502.19,-411.47"/>
</g>
<!-- 2082700138864 -->
<g id="node10" class="node">
<title>2082700138864</title>
<ellipse fill="none" stroke="black" cx="528.79" cy="-361" rx="124.03" ry="18"/>
<text text-anchor="middle" x="528.79" y="-355" font-family="Times New Roman,serif" font-size="15.00">Period application received</text>
</g>
<!-- 2082700147312&#45;&#45;2082700138864 -->
<g id="edge8" class="edge">
<title>2082700147312&#45;&#45;2082700138864</title>
<path fill="none" stroke="black" d="M256.78,-372.85C291.11,-371.35 353.35,-368.63 409.53,-366.17"/>
</g>
<!-- 2082700140112 -->
<g id="node11" class="node">
<title>2082700140112</title>
<ellipse fill="none" stroke="black" cx="528.79" cy="-307" rx="27" ry="18"/>
<text text-anchor="middle" x="528.79" y="-301" font-family="Times New Roman,serif" font-size="15.00">seq</text>
</g>
<!-- 2082700147312&#45;&#45;2082700140112 -->
<g id="edge70" class="edge">
<title>2082700147312&#45;&#45;2082700140112</title>
<path fill="none" stroke="black" d="M255.48,-368.35C311.64,-355.69 446.87,-325.23 502.86,-312.62"/>
</g>
<!-- 2082700146448 -->
<g id="node8" class="node">
<title>2082700146448</title>
<ellipse fill="black" stroke="black" cx="877.85" cy="-454" rx="2.7" ry="2.7"/>
</g>
<!-- 2082700145776&#45;&#45;2082700146448 -->
<g id="edge5" class="edge">
<title>2082700145776&#45;&#45;2082700146448</title>
<path fill="none" stroke="black" d="M555.88,-417.93C632.18,-426.51 851.05,-451.1 874.76,-453.77"/>
</g>
<!-- 2082700142992 -->
<g id="node9" class="node">
<title>2082700142992</title>
<ellipse fill="none" stroke="black" cx="877.85" cy="-415" rx="98.95" ry="18"/>
<text text-anchor="middle" x="877.85" y="-409" font-family="Times New Roman,serif" font-size="15.00">Applicant is involved</text>
</g>
<!-- 2082700145776&#45;&#45;2082700142992 -->
<g id="edge6" class="edge">
<title>2082700145776&#45;&#45;2082700142992</title>
<path fill="none" stroke="black" d="M556.16,-415C602.99,-415 702.85,-415 778.78,-415"/>
</g>
<!-- 2082704470096 -->
<g id="node12" class="node">
<title>2082704470096</title>
<ellipse fill="none" stroke="black" cx="877.85" cy="-361" rx="27" ry="18"/>
<text text-anchor="middle" x="877.85" y="-355" font-family="Times New Roman,serif" font-size="15.00">and</text>
</g>
<!-- 2082700140112&#45;&#45;2082704470096 -->
<g id="edge66" class="edge">
<title>2082700140112&#45;&#45;2082704470096</title>
<path fill="none" stroke="black" d="M555.6,-311.01C620,-321.04 787.26,-347.06 851.35,-357.03"/>
</g>
<!-- 2082704458432 -->
<g id="node70" class="node">
<title>2082704458432</title>
<ellipse fill="none" stroke="black" cx="877.85" cy="-307" rx="27" ry="18"/>
<text text-anchor="middle" x="877.85" y="-301" font-family="Times New Roman,serif" font-size="15.00">xor</text>
</g>
<!-- 2082700140112&#45;&#45;2082704458432 -->
<g id="edge69" class="edge">
<title>2082700140112&#45;&#45;2082704458432</title>
<path fill="none" stroke="black" d="M556.16,-307C620.7,-307 786.02,-307 850.52,-307"/>
</g>
<!-- 2082704462944 -->
<g id="node13" class="node">
<title>2082704462944</title>
<ellipse fill="none" stroke="black" cx="1231" cy="-411" rx="27" ry="18"/>
<text text-anchor="middle" x="1231" y="-405" font-family="Times New Roman,serif" font-size="15.00">xor</text>
</g>
<!-- 2082704470096&#45;&#45;2082704462944 -->
<g id="edge11" class="edge">
<title>2082704470096&#45;&#45;2082704462944</title>
<path fill="none" stroke="black" d="M904.67,-364.68C969.61,-373.92 1139.16,-398.07 1204.14,-407.32"/>
</g>
<!-- 2082704464912 -->
<g id="node16" class="node">
<title>2082704464912</title>
<ellipse fill="none" stroke="black" cx="1231" cy="-357" rx="27" ry="18"/>
<text text-anchor="middle" x="1231" y="-351" font-family="Times New Roman,serif" font-size="15.00">seq</text>
</g>
<!-- 2082704470096&#45;&#45;2082704464912 -->
<g id="edge65" class="edge">
<title>2082704470096&#45;&#45;2082704464912</title>
<path fill="none" stroke="black" d="M905.24,-360.7C970.48,-359.96 1138.73,-358.04 1203.78,-357.3"/>
</g>
<!-- 2082704461360 -->
<g id="node14" class="node">
<title>2082704461360</title>
<ellipse fill="black" stroke="black" cx="1631.75" cy="-450" rx="2.7" ry="2.7"/>
</g>
<!-- 2082704462944&#45;&#45;2082704461360 -->
<g id="edge9" class="edge">
<title>2082704462944&#45;&#45;2082704461360</title>
<path fill="none" stroke="black" d="M1258.16,-413.56C1342.37,-421.79 1602.42,-447.23 1628.61,-449.79"/>
</g>
<!-- 2082704468176 -->
<g id="node15" class="node">
<title>2082704468176</title>
<ellipse fill="none" stroke="black" cx="1631.75" cy="-411" rx="188.52" ry="18"/>
<text text-anchor="middle" x="1631.75" y="-405" font-family="Times New Roman,serif" font-size="15.00">Document date termination request received</text>
</g>
<!-- 2082704462944&#45;&#45;2082704468176 -->
<g id="edge10" class="edge">
<title>2082704462944&#45;&#45;2082704468176</title>
<path fill="none" stroke="black" d="M1258.47,-411C1296.74,-411 1370.85,-411 1442.94,-411"/>
</g>
<!-- 2082704460832 -->
<g id="node17" class="node">
<title>2082704460832</title>
<ellipse fill="none" stroke="black" cx="1631.75" cy="-357" rx="27" ry="18"/>
<text text-anchor="middle" x="1631.75" y="-351" font-family="Times New Roman,serif" font-size="15.00">and</text>
</g>
<!-- 2082704464912&#45;&#45;2082704460832 -->
<g id="edge61" class="edge">
<title>2082704464912&#45;&#45;2082704460832</title>
<path fill="none" stroke="black" d="M1258.47,-357C1330.92,-357 1531.85,-357 1604.29,-357"/>
</g>
<!-- 2082704458768 -->
<g id="node67" class="node">
<title>2082704458768</title>
<ellipse fill="none" stroke="black" cx="1631.75" cy="-303" rx="27" ry="18"/>
<text text-anchor="middle" x="1631.75" y="-297" font-family="Times New Roman,serif" font-size="15.00">xor</text>
</g>
<!-- 2082704464912&#45;&#45;2082704458768 -->
<g id="edge64" class="edge">
<title>2082704464912&#45;&#45;2082704458768</title>
<path fill="none" stroke="black" d="M1257.86,-353.5C1329.99,-343.73 1532.88,-316.25 1604.95,-306.49"/>
</g>
<!-- 2082704461504 -->
<g id="node18" class="node">
<title>2082704461504</title>
<ellipse fill="none" stroke="black" cx="2078.05" cy="-407" rx="27" ry="18"/>
<text text-anchor="middle" x="2078.05" y="-401" font-family="Times New Roman,serif" font-size="15.00">xor</text>
</g>
<!-- 2082704460832&#45;&#45;2082704461504 -->
<g id="edge14" class="edge">
<title>2082704460832&#45;&#45;2082704461504</title>
<path fill="none" stroke="black" d="M1658.88,-359.94C1737.66,-368.81 1972.21,-395.2 2050.95,-404.06"/>
</g>
<!-- 2082704471920 -->
<g id="node21" class="node">
<title>2082704471920</title>
<ellipse fill="none" stroke="black" cx="2078.05" cy="-353" rx="27" ry="18"/>
<text text-anchor="middle" x="2078.05" y="-347" font-family="Times New Roman,serif" font-size="15.00">seq</text>
</g>
<!-- 2082704460832&#45;&#45;2082704471920 -->
<g id="edge60" class="edge">
<title>2082704460832&#45;&#45;2082704471920</title>
<path fill="none" stroke="black" d="M1659.21,-356.76C1738.23,-356.05 1971.88,-353.95 2050.72,-353.24"/>
</g>
<!-- 2082704461168 -->
<g id="node19" class="node">
<title>2082704461168</title>
<ellipse fill="black" stroke="black" cx="2426.59" cy="-446" rx="2.7" ry="2.7"/>
</g>
<!-- 2082704461504&#45;&#45;2082704461168 -->
<g id="edge12" class="edge">
<title>2082704461504&#45;&#45;2082704461168</title>
<path fill="none" stroke="black" d="M2105.09,-409.93C2181.28,-418.51 2399.83,-443.1 2423.5,-445.77"/>
</g>
<!-- 2082704473360 -->
<g id="node20" class="node">
<title>2082704473360</title>
<ellipse fill="none" stroke="black" cx="2426.59" cy="-407" rx="138.87" ry="18"/>
<text text-anchor="middle" x="2426.59" y="-401" font-family="Times New Roman,serif" font-size="15.00">Log senddate acknowledgement</text>
</g>
<!-- 2082704461504&#45;&#45;2082704473360 -->
<g id="edge13" class="edge">
<title>2082704461504&#45;&#45;2082704473360</title>
<path fill="none" stroke="black" d="M2105.38,-407C2144.24,-407 2219.67,-407 2287.57,-407"/>
</g>
<!-- 2082704458384 -->
<g id="node22" class="node">
<title>2082704458384</title>
<ellipse fill="none" stroke="black" cx="2426.59" cy="-353" rx="27" ry="18"/>
<text text-anchor="middle" x="2426.59" y="-347" font-family="Times New Roman,serif" font-size="15.00">xor</text>
</g>
<!-- 2082704471920&#45;&#45;2082704458384 -->
<g id="edge17" class="edge">
<title>2082704471920&#45;&#45;2082704458384</title>
<path fill="none" stroke="black" d="M2105.38,-353C2169.82,-353 2334.9,-353 2399.3,-353"/>
</g>
<!-- 2082704463808 -->
<g id="node25" class="node">
<title>2082704463808</title>
<ellipse fill="none" stroke="black" cx="2426.59" cy="-299" rx="27" ry="18"/>
<text text-anchor="middle" x="2426.59" y="-293" font-family="Times New Roman,serif" font-size="15.00">and</text>
</g>
<!-- 2082704471920&#45;&#45;2082704463808 -->
<g id="edge59" class="edge">
<title>2082704471920&#45;&#45;2082704463808</title>
<path fill="none" stroke="black" d="M2104.81,-348.99C2169.12,-338.96 2336.14,-312.94 2400.13,-302.97"/>
</g>
<!-- 2082704472784 -->
<g id="node23" class="node">
<title>2082704472784</title>
<ellipse fill="black" stroke="black" cx="2737.77" cy="-392" rx="2.7" ry="2.7"/>
</g>
<!-- 2082704458384&#45;&#45;2082704472784 -->
<g id="edge15" class="edge">
<title>2082704458384&#45;&#45;2082704472784</title>
<path fill="none" stroke="black" d="M2453.42,-356.26C2523.67,-365.12 2714.31,-389.17 2734.95,-391.77"/>
</g>
<!-- 2082704468608 -->
<g id="node24" class="node">
<title>2082704468608</title>
<ellipse fill="none" stroke="black" cx="2737.77" cy="-353" rx="136.31" ry="18"/>
<text text-anchor="middle" x="2737.77" y="-347" font-family="Times New Roman,serif" font-size="15.00">Reception through OLO system</text>
</g>
<!-- 2082704458384&#45;&#45;2082704468608 -->
<g id="edge16" class="edge">
<title>2082704458384&#45;&#45;2082704468608</title>
<path fill="none" stroke="black" d="M2453.95,-353C2486.88,-353 2545.67,-353 2601.14,-353"/>
</g>
<!-- 2082704469568 -->
<g id="node26" class="node">
<title>2082704469568</title>
<ellipse fill="none" stroke="black" cx="2737.77" cy="-299" rx="27" ry="18"/>
<text text-anchor="middle" x="2737.77" y="-293" font-family="Times New Roman,serif" font-size="15.00">xor</text>
</g>
<!-- 2082704463808&#45;&#45;2082704469568 -->
<g id="edge20" class="edge">
<title>2082704463808&#45;&#45;2082704469568</title>
<path fill="none" stroke="black" d="M2453.95,-299C2512.37,-299 2652.13,-299 2710.48,-299"/>
</g>
<!-- 2082704461456 -->
<g id="node29" class="node">
<title>2082704461456</title>
<ellipse fill="none" stroke="black" cx="2737.77" cy="-245" rx="27" ry="18"/>
<text text-anchor="middle" x="2737.77" y="-239" font-family="Times New Roman,serif" font-size="15.00">seq</text>
</g>
<!-- 2082704463808&#45;&#45;2082704461456 -->
<g id="edge58" class="edge">
<title>2082704463808&#45;&#45;2082704461456</title>
<path fill="none" stroke="black" d="M2453.16,-294.54C2511.32,-284.38 2652.99,-259.63 2711.18,-249.47"/>
</g>
<!-- 2082704473696 -->
<g id="node27" class="node">
<title>2082704473696</title>
<ellipse fill="black" stroke="black" cx="3044.86" cy="-338" rx="2.7" ry="2.7"/>
</g>
<!-- 2082704469568&#45;&#45;2082704473696 -->
<g id="edge18" class="edge">
<title>2082704469568&#45;&#45;2082704473696</title>
<path fill="none" stroke="black" d="M2764.79,-302.33C2834.53,-311.24 3021.8,-335.18 3042.07,-337.77"/>
</g>
<!-- 2082704466880 -->
<g id="node28" class="node">
<title>2082704466880</title>
<ellipse fill="none" stroke="black" cx="3044.86" cy="-299" rx="134.78" ry="18"/>
<text text-anchor="middle" x="3044.86" y="-293" font-family="Times New Roman,serif" font-size="15.00">Create procedure confirmation</text>
</g>
<!-- 2082704469568&#45;&#45;2082704466880 -->
<g id="edge19" class="edge">
<title>2082704469568&#45;&#45;2082704466880</title>
<path fill="none" stroke="black" d="M2765.05,-299C2797.57,-299 2855.35,-299 2909.91,-299"/>
</g>
<!-- 2082704467312 -->
<g id="node30" class="node">
<title>2082704467312</title>
<ellipse fill="none" stroke="black" cx="3044.86" cy="-245" rx="27" ry="18"/>
<text text-anchor="middle" x="3044.86" y="-239" font-family="Times New Roman,serif" font-size="15.00">and</text>
</g>
<!-- 2082704461456&#45;&#45;2082704467312 -->
<g id="edge50" class="edge">
<title>2082704461456&#45;&#45;2082704467312</title>
<path fill="none" stroke="black" d="M2765.05,-245C2822.72,-245 2959.83,-245 3017.54,-245"/>
</g>
<!-- 2082704469088 -->
<g id="node60" class="node">
<title>2082704469088</title>
<ellipse fill="none" stroke="black" cx="3044.86" cy="-191" rx="27" ry="18"/>
<text text-anchor="middle" x="3044.86" y="-185" font-family="Times New Roman,serif" font-size="15.00">xor</text>
</g>
<!-- 2082704461456&#45;&#45;2082704469088 -->
<g id="edge57" class="edge">
<title>2082704461456&#45;&#45;2082704469088</title>
<path fill="none" stroke="black" d="M2764.26,-240.49C2821.69,-230.32 2960.67,-205.72 3018.23,-195.54"/>
</g>
<!-- 2082704469616 -->
<g id="node31" class="node">
<title>2082704469616</title>
<ellipse fill="none" stroke="black" cx="3260.85" cy="-295" rx="45.21" ry="18"/>
<text text-anchor="middle" x="3260.85" y="-289" font-family="Times New Roman,serif" font-size="15.00">xor loop</text>
</g>
<!-- 2082704467312&#45;&#45;2082704469616 -->
<g id="edge23" class="edge">
<title>2082704467312&#45;&#45;2082704469616</title>
<path fill="none" stroke="black" d="M3070.83,-250.83C3107.87,-259.49 3177.7,-275.81 3221.33,-286"/>
</g>
<!-- 2082704469040 -->
<g id="node34" class="node">
<title>2082704469040</title>
<ellipse fill="none" stroke="black" cx="3260.85" cy="-241" rx="27" ry="18"/>
<text text-anchor="middle" x="3260.85" y="-235" font-family="Times New Roman,serif" font-size="15.00">xor</text>
</g>
<!-- 2082704467312&#45;&#45;2082704469040 -->
<g id="edge49" class="edge">
<title>2082704467312&#45;&#45;2082704469040</title>
<path fill="none" stroke="black" d="M3072.1,-244.51C3113.17,-243.74 3192.19,-242.26 3233.39,-241.49"/>
</g>
<!-- 2082704460160 -->
<g id="node32" class="node">
<title>2082704460160</title>
<ellipse fill="none" stroke="black" cx="3457.9" cy="-331" rx="115.84" ry="18"/>
<text text-anchor="middle" x="3457.9" y="-325" font-family="Times New Roman,serif" font-size="15.00">Issue confirmation receipt</text>
</g>
<!-- 2082704469616&#45;&#45;2082704460160 -->
<g id="edge21" class="edge">
<title>2082704469616&#45;&#45;2082704460160</title>
<path fill="none" stroke="black" d="M3302.26,-302.46C3325.14,-306.68 3354.48,-312.1 3381.45,-317.08"/>
</g>
<!-- 2082706384816 -->
<g id="node33" class="node">
<title>2082706384816</title>
<ellipse fill="black" stroke="black" cx="3457.9" cy="-292" rx="2.7" ry="2.7"/>
</g>
<!-- 2082704469616&#45;&#45;2082706384816 -->
<g id="edge22" class="edge">
<title>2082704469616&#45;&#45;2082706384816</title>
<path fill="none" stroke="black" d="M3306.11,-294.32C3358.71,-293.51 3441.13,-292.24 3454.91,-292.03"/>
</g>
<!-- 2082706374976 -->
<g id="node35" class="node">
<title>2082706374976</title>
<ellipse fill="black" stroke="black" cx="3457.9" cy="-263" rx="2.7" ry="2.7"/>
</g>
<!-- 2082704469040&#45;&#45;2082706374976 -->
<g id="edge24" class="edge">
<title>2082704469040&#45;&#45;2082706374976</title>
<path fill="none" stroke="black" d="M3287.75,-243.92C3336.66,-249.44 3439.14,-261 3454.86,-262.77"/>
</g>
<!-- 2082706390528 -->
<g id="node36" class="node">
<title>2082706390528</title>
<ellipse fill="none" stroke="black" cx="3457.9" cy="-224" rx="27" ry="18"/>
<text text-anchor="middle" x="3457.9" y="-218" font-family="Times New Roman,serif" font-size="15.00">seq</text>
</g>
<!-- 2082704469040&#45;&#45;2082706390528 -->
<g id="edge48" class="edge">
<title>2082704469040&#45;&#45;2082706390528</title>
<path fill="none" stroke="black" d="M3287.75,-238.74C3325.05,-235.49 3393.52,-229.52 3430.89,-226.27"/>
</g>
<!-- 2082706375312 -->
<g id="node37" class="node">
<title>2082706375312</title>
<ellipse fill="none" stroke="black" cx="3660.58" cy="-288" rx="27" ry="18"/>
<text text-anchor="middle" x="3660.58" y="-282" font-family="Times New Roman,serif" font-size="15.00">xor</text>
</g>
<!-- 2082706390528&#45;&#45;2082706375312 -->
<g id="edge38" class="edge">
<title>2082706390528&#45;&#45;2082706375312</title>
<path fill="none" stroke="black" d="M3482.7,-231.59C3521.33,-243.91 3597.2,-268.11 3635.8,-280.42"/>
</g>
<!-- 2082706382944 -->
<g id="node51" class="node">
<title>2082706382944</title>
<ellipse fill="none" stroke="black" cx="3660.58" cy="-214" rx="27" ry="18"/>
<text text-anchor="middle" x="3660.58" y="-208" font-family="Times New Roman,serif" font-size="15.00">xor</text>
</g>
<!-- 2082706390528&#45;&#45;2082706382944 -->
<g id="edge47" class="edge">
<title>2082706390528&#45;&#45;2082706382944</title>
<path fill="none" stroke="black" d="M3485.13,-222.69C3523.59,-220.78 3594.87,-217.22 3633.33,-215.31"/>
</g>
<!-- 2082706379200 -->
<g id="node38" class="node">
<title>2082706379200</title>
<ellipse fill="black" stroke="black" cx="3908.8" cy="-346" rx="2.7" ry="2.7"/>
</g>
<!-- 2082706375312&#45;&#45;2082706379200 -->
<g id="edge25" class="edge">
<title>2082706375312&#45;&#45;2082706379200</title>
<path fill="none" stroke="black" d="M3686.54,-293.88C3744.98,-307.65 3887.16,-341.14 3905.78,-345.52"/>
</g>
<!-- 2082706386736 -->
<g id="node39" class="node">
<title>2082706386736</title>
<ellipse fill="none" stroke="black" cx="3908.8" cy="-307" rx="161.39" ry="18"/>
<text text-anchor="middle" x="3908.8" y="-301" font-family="Times New Roman,serif" font-size="15.00">Log senddate procedure confirmation</text>
</g>
<!-- 2082706375312&#45;&#45;2082706386736 -->
<g id="edge26" class="edge">
<title>2082706375312&#45;&#45;2082706386736</title>
<path fill="none" stroke="black" d="M3687.46,-290C3708.95,-291.66 3741.28,-294.15 3774.6,-296.72"/>
</g>
<!-- 2082706384096 -->
<g id="node40" class="node">
<title>2082706384096</title>
<ellipse fill="none" stroke="black" cx="3908.8" cy="-253" rx="27" ry="18"/>
<text text-anchor="middle" x="3908.8" y="-247" font-family="Times New Roman,serif" font-size="15.00">seq</text>
</g>
<!-- 2082706375312&#45;&#45;2082706384096 -->
<g id="edge37" class="edge">
<title>2082706375312&#45;&#45;2082706384096</title>
<path fill="none" stroke="black" d="M3687.46,-284.32C3734.75,-277.6 3834.59,-263.41 3881.9,-256.68"/>
</g>
<!-- 2082706387264 -->
<g id="node41" class="node">
<title>2082706387264</title>
<ellipse fill="none" stroke="black" cx="4248.65" cy="-301" rx="27" ry="18"/>
<text text-anchor="middle" x="4248.65" y="-295" font-family="Times New Roman,serif" font-size="15.00">and</text>
</g>
<!-- 2082706384096&#45;&#45;2082706387264 -->
<g id="edge33" class="edge">
<title>2082706384096&#45;&#45;2082706387264</title>
<path fill="none" stroke="black" d="M3935.48,-256.65C3998.3,-265.57 4159.23,-288.44 4222.02,-297.36"/>
</g>
<!-- 2082706377952 -->
<g id="node48" class="node">
<title>2082706377952</title>
<ellipse fill="none" stroke="black" cx="4248.65" cy="-247" rx="27" ry="18"/>
<text text-anchor="middle" x="4248.65" y="-241" font-family="Times New Roman,serif" font-size="15.00">xor</text>
</g>
<!-- 2082706384096&#45;&#45;2082706377952 -->
<g id="edge36" class="edge">
<title>2082706384096&#45;&#45;2082706377952</title>
<path fill="none" stroke="black" d="M3936.03,-252.53C3998.98,-251.42 4158.04,-248.59 4221.2,-247.47"/>
</g>
<!-- 2082706390048 -->
<g id="node42" class="node">
<title>2082706390048</title>
<ellipse fill="none" stroke="black" cx="4581.33" cy="-351" rx="27" ry="18"/>
<text text-anchor="middle" x="4581.33" y="-345" font-family="Times New Roman,serif" font-size="15.00">xor</text>
</g>
<!-- 2082706387264&#45;&#45;2082706390048 -->
<g id="edge29" class="edge">
<title>2082706387264&#45;&#45;2082706390048</title>
<path fill="none" stroke="black" d="M4275.32,-304.88C4337.08,-314.22 4493.39,-337.85 4554.9,-347.16"/>
</g>
<!-- 2082706385008 -->
<g id="node45" class="node">
<title>2082706385008</title>
<ellipse fill="none" stroke="black" cx="4581.33" cy="-297" rx="27" ry="18"/>
<text text-anchor="middle" x="4581.33" y="-291" font-family="Times New Roman,serif" font-size="15.00">xor</text>
</g>
<!-- 2082706387264&#45;&#45;2082706385008 -->
<g id="edge32" class="edge">
<title>2082706387264&#45;&#45;2082706385008</title>
<path fill="none" stroke="black" d="M4275.87,-300.68C4337.74,-299.93 4492.23,-298.07 4554.1,-297.32"/>
</g>
<!-- 2082706375792 -->
<g id="node43" class="node">
<title>2082706375792</title>
<ellipse fill="black" stroke="black" cx="4976.45" cy="-386" rx="2.7" ry="2.7"/>
</g>
<!-- 2082706390048&#45;&#45;2082706375792 -->
<g id="edge27" class="edge">
<title>2082706390048&#45;&#45;2082706375792</title>
<path fill="none" stroke="black" d="M4608.42,-353.32C4691.77,-360.74 4947.58,-383.52 4973.35,-385.81"/>
</g>
<!-- 2082706375408 -->
<g id="node44" class="node">
<title>2082706375408</title>
<ellipse fill="none" stroke="black" cx="4976.45" cy="-347" rx="204.89" ry="18"/>
<text text-anchor="middle" x="4976.45" y="-341" font-family="Times New Roman,serif" font-size="15.00">No permit necessary or only notification needed</text>
</g>
<!-- 2082706390048&#45;&#45;2082706375408 -->
<g id="edge28" class="edge">
<title>2082706390048&#45;&#45;2082706375408</title>
<path fill="none" stroke="black" d="M4608.73,-350.73C4643.42,-350.38 4707.6,-349.73 4772.69,-349.06"/>
</g>
<!-- 2082706375120 -->
<g id="node46" class="node">
<title>2082706375120</title>
<ellipse fill="black" stroke="black" cx="4976.45" cy="-301" rx="2.7" ry="2.7"/>
</g>
<!-- 2082706385008&#45;&#45;2082706375120 -->
<g id="edge30" class="edge">
<title>2082706385008&#45;&#45;2082706375120</title>
<path fill="none" stroke="black" d="M4608.73,-297.27C4692.4,-298.12 4947.64,-300.72 4973.35,-300.98"/>
</g>
<!-- 2082706380976 -->
<g id="node47" class="node">
<title>2082706380976</title>
<ellipse fill="none" stroke="black" cx="4976.45" cy="-262" rx="95.88" ry="18"/>
<text text-anchor="middle" x="4976.45" y="-256" font-family="Times New Roman,serif" font-size="15.00">Terminate on request</text>
</g>
<!-- 2082706385008&#45;&#45;2082706380976 -->
<g id="edge31" class="edge">
<title>2082706385008&#45;&#45;2082706380976</title>
<path fill="none" stroke="black" d="M4608.42,-294.68C4664.67,-289.67 4799.48,-277.67 4889.11,-269.69"/>
</g>
<!-- 2082706390336 -->
<g id="node49" class="node">
<title>2082706390336</title>
<ellipse fill="black" stroke="black" cx="4581.33" cy="-251" rx="2.7" ry="2.7"/>
</g>
<!-- 2082706377952&#45;&#45;2082706390336 -->
<g id="edge34" class="edge">
<title>2082706377952&#45;&#45;2082706390336</title>
<path fill="none" stroke="black" d="M4275.87,-247.32C4349.81,-248.21 4556.02,-250.71 4578.36,-250.98"/>
</g>
<!-- 2082706383088 -->
<g id="node50" class="node">
<title>2082706383088</title>
<ellipse fill="none" stroke="black" cx="4581.33" cy="-212" rx="154.22" ry="18"/>
<text text-anchor="middle" x="4581.33" y="-206" font-family="Times New Roman,serif" font-size="15.00">draft no permit or notification letter</text>
</g>
<!-- 2082706377952&#45;&#45;2082706383088 -->
<g id="edge35" class="edge">
<title>2082706377952&#45;&#45;2082706383088</title>
<path fill="none" stroke="black" d="M4275.6,-244.25C4316.17,-239.96 4397.07,-231.4 4465.32,-224.17"/>
</g>
<!-- 2082706386352 -->
<g id="node52" class="node">
<title>2082706386352</title>
<ellipse fill="black" stroke="black" cx="3908.8" cy="-214" rx="2.7" ry="2.7"/>
</g>
<!-- 2082706382944&#45;&#45;2082706386352 -->
<g id="edge39" class="edge">
<title>2082706382944&#45;&#45;2082706386352</title>
<path fill="none" stroke="black" d="M3687.93,-214C3747.23,-214 3887.45,-214 3905.81,-214"/>
</g>
<!-- 2082706385584 -->
<g id="node53" class="node">
<title>2082706385584</title>
<ellipse fill="none" stroke="black" cx="3908.8" cy="-175" rx="27" ry="18"/>
<text text-anchor="middle" x="3908.8" y="-169" font-family="Times New Roman,serif" font-size="15.00">and</text>
</g>
<!-- 2082706382944&#45;&#45;2082706385584 -->
<g id="edge46" class="edge">
<title>2082706382944&#45;&#45;2082706385584</title>
<path fill="none" stroke="black" d="M3687,-209.97C3734.18,-202.5 3834.79,-186.56 3882.15,-179.06"/>
</g>
<!-- 2082706387072 -->
<g id="node54" class="node">
<title>2082706387072</title>
<ellipse fill="none" stroke="black" cx="4248.65" cy="-181" rx="142.45" ry="18"/>
<text text-anchor="middle" x="4248.65" y="-175" font-family="Times New Roman,serif" font-size="15.00">Direct to the competent authority</text>
</g>
<!-- 2082706385584&#45;&#45;2082706387072 -->
<g id="edge40" class="edge">
<title>2082706385584&#45;&#45;2082706387072</title>
<path fill="none" stroke="black" d="M3936.03,-175.47C3972.93,-176.12 4042.86,-177.36 4107.14,-178.5"/>
</g>
<!-- 2082706381840 -->
<g id="node55" class="node">
<title>2082706381840</title>
<ellipse fill="none" stroke="black" cx="4248.65" cy="-127" rx="27" ry="18"/>
<text text-anchor="middle" x="4248.65" y="-121" font-family="Times New Roman,serif" font-size="15.00">seq</text>
</g>
<!-- 2082706385584&#45;&#45;2082706381840 -->
<g id="edge45" class="edge">
<title>2082706385584&#45;&#45;2082706381840</title>
<path fill="none" stroke="black" d="M3935.48,-171.35C3998.3,-162.43 4159.23,-139.56 4222.02,-130.64"/>
</g>
<!-- 2082706379632 -->
<g id="node56" class="node">
<title>2082706379632</title>
<ellipse fill="none" stroke="black" cx="4581.33" cy="-137" rx="27" ry="18"/>
<text text-anchor="middle" x="4581.33" y="-131" font-family="Times New Roman,serif" font-size="15.00">xor</text>
</g>
<!-- 2082706381840&#45;&#45;2082706379632 -->
<g id="edge43" class="edge">
<title>2082706381840&#45;&#45;2082706379632</title>
<path fill="none" stroke="black" d="M4275.87,-127.79C4337.74,-129.66 4492.23,-134.34 4554.1,-136.21"/>
</g>
<!-- 2082706388992 -->
<g id="node59" class="node">
<title>2082706388992</title>
<ellipse fill="none" stroke="black" cx="4581.33" cy="-83" rx="141.94" ry="18"/>
<text text-anchor="middle" x="4581.33" y="-77" font-family="Times New Roman,serif" font-size="15.00">Normal procedure without MER</text>
</g>
<!-- 2082706381840&#45;&#45;2082706388992 -->
<g id="edge44" class="edge">
<title>2082706381840&#45;&#45;2082706388992</title>
<path fill="none" stroke="black" d="M4275.6,-123.55C4319.45,-117.71 4410.38,-105.61 4481.56,-96.14"/>
</g>
<!-- 2082706380928 -->
<g id="node57" class="node">
<title>2082706380928</title>
<ellipse fill="black" stroke="black" cx="4976.45" cy="-156" rx="2.7" ry="2.7"/>
</g>
<!-- 2082706379632&#45;&#45;2082706380928 -->
<g id="edge41" class="edge">
<title>2082706379632&#45;&#45;2082706380928</title>
<path fill="none" stroke="black" d="M4608.73,-138.28C4692.4,-142.32 4947.64,-154.66 4973.35,-155.9"/>
</g>
<!-- 2082706390000 -->
<g id="node58" class="node">
<title>2082706390000</title>
<ellipse fill="none" stroke="black" cx="4976.45" cy="-117" rx="117.37" ry="18"/>
<text text-anchor="middle" x="4976.45" y="-111" font-family="Times New Roman,serif" font-size="15.00">Inform BAG administrator</text>
</g>
<!-- 2082706379632&#45;&#45;2082706390000 -->
<g id="edge42" class="edge">
<title>2082706379632&#45;&#45;2082706390000</title>
<path fill="none" stroke="black" d="M4608.73,-135.66C4660.2,-133.04 4776.62,-127.12 4864.58,-122.64"/>
</g>
<!-- 2082706383664 -->
<g id="node61" class="node">
<title>2082706383664</title>
<ellipse fill="black" stroke="black" cx="3260.85" cy="-195" rx="2.7" ry="2.7"/>
</g>
<!-- 2082704469088&#45;&#45;2082706383664 -->
<g id="edge51" class="edge">
<title>2082704469088&#45;&#45;2082706383664</title>
<path fill="none" stroke="black" d="M3072.1,-191.49C3125.22,-192.48 3241.84,-194.66 3257.98,-194.97"/>
</g>
<!-- 2082706384720 -->
<g id="node62" class="node">
<title>2082706384720</title>
<ellipse fill="none" stroke="black" cx="3260.85" cy="-156" rx="27" ry="18"/>
<text text-anchor="middle" x="3260.85" y="-150" font-family="Times New Roman,serif" font-size="15.00">seq</text>
</g>
<!-- 2082704469088&#45;&#45;2082706384720 -->
<g id="edge56" class="edge">
<title>2082704469088&#45;&#45;2082706384720</title>
<path fill="none" stroke="black" d="M3071.25,-186.85C3112.32,-180.13 3192.9,-166.95 3234.16,-160.2"/>
</g>
<!-- 2082706377184 -->
<g id="node63" class="node">
<title>2082706377184</title>
<ellipse fill="none" stroke="black" cx="3457.9" cy="-159" rx="27" ry="18"/>
<text text-anchor="middle" x="3457.9" y="-153" font-family="Times New Roman,serif" font-size="15.00">xor</text>
</g>
<!-- 2082706384720&#45;&#45;2082706377184 -->
<g id="edge54" class="edge">
<title>2082706384720&#45;&#45;2082706377184</title>
<path fill="none" stroke="black" d="M3288.15,-156.4C3325.48,-156.98 3393.42,-158.02 3430.7,-158.6"/>
</g>
<!-- 2082706386064 -->
<g id="node66" class="node">
<title>2082706386064</title>
<ellipse fill="none" stroke="black" cx="3457.9" cy="-105" rx="103.56" ry="18"/>
<text text-anchor="middle" x="3457.9" y="-99" font-family="Times New Roman,serif" font-size="15.00">Start WABOprocedure</text>
</g>
<!-- 2082706384720&#45;&#45;2082706386064 -->
<g id="edge55" class="edge">
<title>2082706384720&#45;&#45;2082706386064</title>
<path fill="none" stroke="black" d="M3286.55,-149.54C3314.64,-142.2 3361.45,-129.96 3398.9,-120.16"/>
</g>
<!-- 2082706383856 -->
<g id="node64" class="node">
<title>2082706383856</title>
<ellipse fill="black" stroke="black" cx="3660.58" cy="-168" rx="2.7" ry="2.7"/>
</g>
<!-- 2082706377184&#45;&#45;2082706383856 -->
<g id="edge52" class="edge">
<title>2082706377184&#45;&#45;2082706383856</title>
<path fill="none" stroke="black" d="M3485.13,-160.18C3535.28,-162.43 3641.22,-167.18 3657.47,-167.91"/>
</g>
<!-- 2082706377904 -->
<g id="node65" class="node">
<title>2082706377904</title>
<ellipse fill="none" stroke="black" cx="3660.58" cy="-129" rx="50.84" ry="18"/>
<text text-anchor="middle" x="3660.58" y="-123" font-family="Times New Roman,serif" font-size="15.00">Announce</text>
</g>
<!-- 2082706377184&#45;&#45;2082706377904 -->
<g id="edge53" class="edge">
<title>2082706377184&#45;&#45;2082706377904</title>
<path fill="none" stroke="black" d="M3484.72,-155.14C3517.11,-150.3 3573.24,-141.91 3613.17,-135.94"/>
</g>
<!-- 2082704460976 -->
<g id="node68" class="node">
<title>2082704460976</title>
<ellipse fill="black" stroke="black" cx="2078.05" cy="-307" rx="2.7" ry="2.7"/>
</g>
<!-- 2082704458768&#45;&#45;2082704460976 -->
<g id="edge62" class="edge">
<title>2082704458768&#45;&#45;2082704460976</title>
<path fill="none" stroke="black" d="M1659.21,-303.24C1750.38,-304.06 2047.34,-306.73 2074.98,-306.98"/>
</g>
<!-- 2082704473648 -->
<g id="node69" class="node">
<title>2082704473648</title>
<ellipse fill="none" stroke="black" cx="2078.05" cy="-268" rx="173.67" ry="18"/>
<text text-anchor="middle" x="2078.05" y="-262" font-family="Times New Roman,serif" font-size="15.00">Procedure phase terminated prematurely</text>
</g>
<!-- 2082704458768&#45;&#45;2082704473648 -->
<g id="edge63" class="edge">
<title>2082704458768&#45;&#45;2082704473648</title>
<path fill="none" stroke="black" d="M1658.88,-300.94C1712.5,-296.72 1838.29,-286.81 1937.98,-278.95"/>
</g>
<!-- 2082704471056 -->
<g id="node71" class="node">
<title>2082704471056</title>
<ellipse fill="black" stroke="black" cx="1231" cy="-311" rx="2.7" ry="2.7"/>
</g>
<!-- 2082704458432&#45;&#45;2082704471056 -->
<g id="edge67" class="edge">
<title>2082704458432&#45;&#45;2082704471056</title>
<path fill="none" stroke="black" d="M905.24,-307.3C982.44,-308.18 1203.89,-310.7 1227.88,-310.98"/>
</g>
<!-- 2082704470912 -->
<g id="node72" class="node">
<title>2082704470912</title>
<ellipse fill="none" stroke="black" cx="1231" cy="-272" rx="128.12" ry="18"/>
<text text-anchor="middle" x="1231" y="-266" font-family="Times New Roman,serif" font-size="15.00">Send procedure confirmation</text>
</g>
<!-- 2082704458432&#45;&#45;2082704470912 -->
<g id="edge68" class="edge">
<title>2082704458432&#45;&#45;2082704470912</title>
<path fill="none" stroke="black" d="M904.96,-304.4C950.97,-299.81 1048.87,-290.05 1125.27,-282.44"/>
</g>
<!-- 2082704468992 -->
<g id="node74" class="node">
<title>2082704468992</title>
<ellipse fill="black" stroke="black" cx="528.79" cy="-253" rx="2.7" ry="2.7"/>
</g>
<!-- 2082700137232&#45;&#45;2082704468992 -->
<g id="edge72" class="edge">
<title>2082700137232&#45;&#45;2082704468992</title>
<path fill="none" stroke="black" d="M256.51,-235.67C325.12,-240.05 506.44,-251.64 526.06,-252.89"/>
</g>
<!-- 2082704473072 -->
<g id="node75" class="node">
<title>2082704473072</title>
<ellipse fill="none" stroke="black" cx="528.79" cy="-214" rx="27" ry="18"/>
<text text-anchor="middle" x="528.79" y="-208" font-family="Times New Roman,serif" font-size="15.00">seq</text>
</g>
<!-- 2082700137232&#45;&#45;2082704473072 -->
<g id="edge75" class="edge">
<title>2082700137232&#45;&#45;2082704473072</title>
<path fill="none" stroke="black" d="M256.51,-232.24C312.93,-228.45 445.56,-219.53 501.83,-215.75"/>
</g>
<!-- 2082704469232 -->
<g id="node78" class="node">
<title>2082704469232</title>
<ellipse fill="none" stroke="black" cx="528.79" cy="-118" rx="27" ry="18"/>
<text text-anchor="middle" x="528.79" y="-112" font-family="Times New Roman,serif" font-size="15.00">seq</text>
</g>
<!-- 2082700137232&#45;&#45;2082704469232 -->
<g id="edge87" class="edge">
<title>2082700137232&#45;&#45;2082704469232</title>
<path fill="none" stroke="black" d="M253.23,-225.09C308.59,-203.5 449.43,-148.56 504.87,-126.94"/>
</g>
<!-- 2082704459872 -->
<g id="node76" class="node">
<title>2082704459872</title>
<ellipse fill="none" stroke="black" cx="877.85" cy="-253" rx="54.93" ry="18"/>
<text text-anchor="middle" x="877.85" y="-247" font-family="Times New Roman,serif" font-size="15.00">Pause term</text>
</g>
<!-- 2082704473072&#45;&#45;2082704459872 -->
<g id="edge73" class="edge">
<title>2082704473072&#45;&#45;2082704459872</title>
<path fill="none" stroke="black" d="M555.88,-216.93C613.02,-223.35 750.14,-238.76 825.35,-247.21"/>
</g>
<!-- 2082706389664 -->
<g id="node77" class="node">
<title>2082706389664</title>
<ellipse fill="none" stroke="black" cx="877.85" cy="-199" rx="189.03" ry="18"/>
<text text-anchor="middle" x="877.85" y="-193" font-family="Times New Roman,serif" font-size="15.00">Register date of publishing received request</text>
</g>
<!-- 2082704473072&#45;&#45;2082706389664 -->
<g id="edge74" class="edge">
<title>2082704473072&#45;&#45;2082706389664</title>
<path fill="none" stroke="black" d="M556.16,-212.86C588.67,-211.46 646.74,-208.95 704.62,-206.44"/>
</g>
<!-- 2082706376272 -->
<g id="node79" class="node">
<title>2082706376272</title>
<ellipse fill="none" stroke="black" cx="877.85" cy="-145" rx="27" ry="18"/>
<text text-anchor="middle" x="877.85" y="-139" font-family="Times New Roman,serif" font-size="15.00">xor</text>
</g>
<!-- 2082704469232&#45;&#45;2082706376272 -->
<g id="edge82" class="edge">
<title>2082704469232&#45;&#45;2082706376272</title>
<path fill="none" stroke="black" d="M555.88,-120.03C620.35,-125.05 786.64,-137.98 850.93,-142.98"/>
</g>
<!-- 2082706378576 -->
<g id="node86" class="node">
<title>2082706378576</title>
<ellipse fill="none" stroke="black" cx="877.85" cy="-91" rx="123" ry="18"/>
<text text-anchor="middle" x="877.85" y="-85" font-family="Times New Roman,serif" font-size="15.00">Phase procedure terminated</text>
</g>
<!-- 2082704469232&#45;&#45;2082706378576 -->
<g id="edge83" class="edge">
<title>2082704469232&#45;&#45;2082706378576</title>
<path fill="none" stroke="black" d="M555.88,-115.97C600.41,-112.51 693.52,-105.26 768.04,-99.47"/>
</g>
<!-- 2082706385632 -->
<g id="node87" class="node">
<title>2082706385632</title>
<ellipse fill="none" stroke="black" cx="877.85" cy="-37" rx="27" ry="18"/>
<text text-anchor="middle" x="877.85" y="-31" font-family="Times New Roman,serif" font-size="15.00">xor</text>
</g>
<!-- 2082704469232&#45;&#45;2082706385632 -->
<g id="edge86" class="edge">
<title>2082704469232&#45;&#45;2082706385632</title>
<path fill="none" stroke="black" d="M554.75,-112.17C618.79,-97.23 788.33,-57.66 852.12,-42.77"/>
</g>
<!-- 2082706382800 -->
<g id="node80" class="node">
<title>2082706382800</title>
<ellipse fill="none" stroke="black" cx="1231" cy="-175" rx="27" ry="18"/>
<text text-anchor="middle" x="1231" y="-169" font-family="Times New Roman,serif" font-size="15.00">seq</text>
</g>
<!-- 2082706376272&#45;&#45;2082706382800 -->
<g id="edge78" class="edge">
<title>2082706376272&#45;&#45;2082706382800</title>
<path fill="none" stroke="black" d="M904.96,-147.23C969.96,-152.78 1138.53,-167.19 1203.72,-172.75"/>
</g>
<!-- 2082706381168 -->
<g id="node83" class="node">
<title>2082706381168</title>
<ellipse fill="none" stroke="black" cx="1231" cy="-121" rx="27" ry="18"/>
<text text-anchor="middle" x="1231" y="-115" font-family="Times New Roman,serif" font-size="15.00">seq</text>
</g>
<!-- 2082706376272&#45;&#45;2082706381168 -->
<g id="edge81" class="edge">
<title>2082706376272&#45;&#45;2082706381168</title>
<path fill="none" stroke="black" d="M904.96,-143.22C969.96,-138.77 1138.53,-127.25 1203.72,-122.8"/>
</g>
<!-- 2082706380304 -->
<g id="node81" class="node">
<title>2082706380304</title>
<ellipse fill="none" stroke="black" cx="1631.75" cy="-229" rx="158.32" ry="18"/>
<text text-anchor="middle" x="1631.75" y="-223" font-family="Times New Roman,serif" font-size="15.00">Log senddate for termination request</text>
</g>
<!-- 2082706382800&#45;&#45;2082706380304 -->
<g id="edge76" class="edge">
<title>2082706382800&#45;&#45;2082706380304</title>
<path fill="none" stroke="black" d="M1257.86,-178.5C1311.44,-185.76 1437.17,-202.79 1527.84,-215.06"/>
</g>
<!-- 2082706374832 -->
<g id="node82" class="node">
<title>2082706374832</title>
<ellipse fill="none" stroke="black" cx="1631.75" cy="-175" rx="128.12" ry="18"/>
<text text-anchor="middle" x="1631.75" y="-169" font-family="Times New Roman,serif" font-size="15.00">Message to terminate request</text>
</g>
<!-- 2082706382800&#45;&#45;2082706374832 -->
<g id="edge77" class="edge">
<title>2082706382800&#45;&#45;2082706374832</title>
<path fill="none" stroke="black" d="M1258.47,-175C1307.7,-175 1416.24,-175 1503.49,-175"/>
</g>
<!-- 2082706385680 -->
<g id="node84" class="node">
<title>2082706385680</title>
<ellipse fill="none" stroke="black" cx="1631.75" cy="-121" rx="236.63" ry="18"/>
<text text-anchor="middle" x="1631.75" y="-115" font-family="Times New Roman,serif" font-size="15.00">record senddate letter no permit or notification required</text>
</g>
<!-- 2082706381168&#45;&#45;2082706385680 -->
<g id="edge79" class="edge">
<title>2082706381168&#45;&#45;2082706385680</title>
<path fill="none" stroke="black" d="M1258.47,-121C1288.22,-121 1339.62,-121 1394.89,-121"/>
</g>
<!-- 2082706376752 -->
<g id="node85" class="node">
<title>2082706376752</title>
<ellipse fill="none" stroke="black" cx="1631.75" cy="-67" rx="88.71" ry="18"/>
<text text-anchor="middle" x="1631.75" y="-61" font-family="Times New Roman,serif" font-size="15.00">Document deadline</text>
</g>
<!-- 2082706381168&#45;&#45;2082706376752 -->
<g id="edge80" class="edge">
<title>2082706381168&#45;&#45;2082706376752</title>
<path fill="none" stroke="black" d="M1257.86,-117.5C1317.48,-109.42 1466.44,-89.25 1557.01,-76.99"/>
</g>
<!-- 2082706376128 -->
<g id="node88" class="node">
<title>2082706376128</title>
<ellipse fill="black" stroke="black" cx="1231" cy="-57" rx="2.7" ry="2.7"/>
</g>
<!-- 2082706385632&#45;&#45;2082706376128 -->
<g id="edge84" class="edge">
<title>2082706385632&#45;&#45;2082706376128</title>
<path fill="none" stroke="black" d="M905.24,-38.5C982.44,-42.9 1203.89,-55.51 1227.88,-56.88"/>
</g>
<!-- 2082706388416 -->
<g id="node89" class="node">
<title>2082706388416</title>
<ellipse fill="none" stroke="black" cx="1231" cy="-18" rx="65.17" ry="18"/>
<text text-anchor="middle" x="1231" y="-12" font-family="Times New Roman,serif" font-size="15.00">Close the file</text>
</g>
<!-- 2082706385632&#45;&#45;2082706388416 -->
<g id="edge85" class="edge">
<title>2082706385632&#45;&#45;2082706388416</title>
<path fill="none" stroke="black" d="M905.24,-35.57C960.35,-32.59 1088.97,-25.63 1166.79,-21.42"/>
</g>
</g>
</svg>
