<?xml version="1.0" encoding="UTF-8" standalone="no"?>
<!DOCTYPE svg PUBLIC "-//W3C//DTD SVG 1.1//EN"
 "http://www.w3.org/Graphics/SVG/1.1/DTD/svg11.dtd">
<!-- Generated by graphviz version 11.0.0 (20240428.1522)
 -->
<!-- Title: pt Pages: 1 -->
<svg width="3025pt" height="940pt"
 viewBox="0.00 0.00 3025.16 939.70" xmlns="http://www.w3.org/2000/svg" xmlns:xlink="http://www.w3.org/1999/xlink">
<g id="graph0" class="graph" transform="scale(1 1) rotate(0) translate(4 935.7)">
<title>pt</title>
<polygon fill="white" stroke="none" points="-4,4 -4,-935.7 3021.16,-935.7 3021.16,4 -4,4"/>
<!-- 2082706280848 -->
<g id="node1" class="node">
<title>2082706280848</title>
<ellipse fill="none" stroke="black" cx="27" cy="-617" rx="27" ry="18"/>
<text text-anchor="middle" x="27" y="-611" font-family="Times New Roman,serif" font-size="15.00">seq</text>
</g>
<!-- 2082706288432 -->
<g id="node2" class="node">
<title>2082706288432</title>
<ellipse fill="none" stroke="black" cx="117" cy="-731" rx="27" ry="18"/>
<text text-anchor="middle" x="117" y="-725" font-family="Times New Roman,serif" font-size="15.00">and</text>
</g>
<!-- 2082706280848&#45;&#45;2082706288432 -->
<g id="edge54" class="edge">
<title>2082706280848&#45;&#45;2082706288432</title>
<path fill="none" stroke="black" d="M40.24,-632.85C56.95,-654.51 86.77,-693.14 103.58,-714.92"/>
</g>
<!-- 2082706285696 -->
<g id="node56" class="node">
<title>2082706285696</title>
<ellipse fill="none" stroke="black" cx="117" cy="-490" rx="27" ry="18"/>
<text text-anchor="middle" x="117" y="-484" font-family="Times New Roman,serif" font-size="15.00">xor</text>
</g>
<!-- 2082706280848&#45;&#45;2082706285696 -->
<g id="edge78" class="edge">
<title>2082706280848&#45;&#45;2082706285696</title>
<path fill="none" stroke="black" d="M39.32,-600.66C56.22,-576.27 87.85,-530.63 104.72,-506.28"/>
</g>
<!-- 2082706291360 -->
<g id="node3" class="node">
<title>2082706291360</title>
<ellipse fill="none" stroke="black" cx="311.19" cy="-812" rx="131.19" ry="18"/>
<text text-anchor="middle" x="311.19" y="-806" font-family="Times New Roman,serif" font-size="15.00">Phase of application received</text>
</g>
<!-- 2082706288432&#45;&#45;2082706291360 -->
<g id="edge1" class="edge">
<title>2082706288432&#45;&#45;2082706291360</title>
<path fill="none" stroke="black" d="M140.42,-740.45C171.81,-753.68 229.41,-777.95 268.73,-794.53"/>
</g>
<!-- 2082706289008 -->
<g id="node4" class="node">
<title>2082706289008</title>
<ellipse fill="none" stroke="black" cx="311.19" cy="-758" rx="129.66" ry="18"/>
<text text-anchor="middle" x="311.19" y="-752" font-family="Times New Roman,serif" font-size="15.00">Input submission date request</text>
</g>
<!-- 2082706288432&#45;&#45;2082706289008 -->
<g id="edge2" class="edge">
<title>2082706288432&#45;&#45;2082706289008</title>
<path fill="none" stroke="black" d="M143.92,-734.64C163.29,-737.36 191.01,-741.26 218.29,-745.09"/>
</g>
<!-- 2082706284304 -->
<g id="node5" class="node">
<title>2082706284304</title>
<ellipse fill="none" stroke="black" cx="311.19" cy="-704" rx="27" ry="18"/>
<text text-anchor="middle" x="311.19" y="-698" font-family="Times New Roman,serif" font-size="15.00">seq</text>
</g>
<!-- 2082706288432&#45;&#45;2082706284304 -->
<g id="edge53" class="edge">
<title>2082706288432&#45;&#45;2082706284304</title>
<path fill="none" stroke="black" d="M143.92,-727.36C180.7,-722.19 247.65,-712.79 284.38,-707.63"/>
</g>
<!-- 2082706290160 -->
<g id="node6" class="node">
<title>2082706290160</title>
<ellipse fill="none" stroke="black" cx="644.38" cy="-890" rx="27" ry="18"/>
<text text-anchor="middle" x="644.38" y="-884" font-family="Times New Roman,serif" font-size="15.00">xor</text>
</g>
<!-- 2082706284304&#45;&#45;2082706290160 -->
<g id="edge5" class="edge">
<title>2082706284304&#45;&#45;2082706290160</title>
<path fill="none" stroke="black" d="M332.41,-715.36C391.54,-748.56 563.68,-845.24 623.01,-878.56"/>
</g>
<!-- 2082706280560 -->
<g id="node9" class="node">
<title>2082706280560</title>
<ellipse fill="none" stroke="black" cx="644.38" cy="-782" rx="27" ry="18"/>
<text text-anchor="middle" x="644.38" y="-776" font-family="Times New Roman,serif" font-size="15.00">and</text>
</g>
<!-- 2082706284304&#45;&#45;2082706280560 -->
<g id="edge12" class="edge">
<title>2082706284304&#45;&#45;2082706280560</title>
<path fill="none" stroke="black" d="M337.09,-709.86C398.61,-724.35 557.3,-761.73 618.65,-776.18"/>
</g>
<!-- 2082706284064 -->
<g id="node16" class="node">
<title>2082706284064</title>
<ellipse fill="none" stroke="black" cx="644.38" cy="-704" rx="27" ry="18"/>
<text text-anchor="middle" x="644.38" y="-698" font-family="Times New Roman,serif" font-size="15.00">xor</text>
</g>
<!-- 2082706284304&#45;&#45;2082706284064 -->
<g id="edge19" class="edge">
<title>2082706284304&#45;&#45;2082706284064</title>
<path fill="none" stroke="black" d="M338.46,-704C400.42,-704 555.15,-704 617.12,-704"/>
</g>
<!-- 2082706283008 -->
<g id="node23" class="node">
<title>2082706283008</title>
<ellipse fill="none" stroke="black" cx="644.38" cy="-558" rx="45.21" ry="18"/>
<text text-anchor="middle" x="644.38" y="-552" font-family="Times New Roman,serif" font-size="15.00">xor loop</text>
</g>
<!-- 2082706284304&#45;&#45;2082706283008 -->
<g id="edge52" class="edge">
<title>2082706284304&#45;&#45;2082706283008</title>
<path fill="none" stroke="black" d="M334.44,-694.19C392.31,-668.68 547.61,-600.22 613.34,-571.25"/>
</g>
<!-- 2082706282528 -->
<g id="node7" class="node">
<title>2082706282528</title>
<ellipse fill="black" stroke="black" cx="967.85" cy="-929" rx="2.7" ry="2.7"/>
</g>
<!-- 2082706290160&#45;&#45;2082706282528 -->
<g id="edge3" class="edge">
<title>2082706290160&#45;&#45;2082706282528</title>
<path fill="none" stroke="black" d="M671.42,-893.16C743.76,-901.94 943.33,-926.15 964.94,-928.77"/>
</g>
<!-- 2082706290304 -->
<g id="node8" class="node">
<title>2082706290304</title>
<ellipse fill="none" stroke="black" cx="967.85" cy="-890" rx="93.32" ry="18"/>
<text text-anchor="middle" x="967.85" y="-884" font-family="Times New Roman,serif" font-size="15.00">OLO messaging live</text>
</g>
<!-- 2082706290160&#45;&#45;2082706290304 -->
<g id="edge4" class="edge">
<title>2082706290160&#45;&#45;2082706290304</title>
<path fill="none" stroke="black" d="M671.69,-890C715.4,-890 805.01,-890 874.09,-890"/>
</g>
<!-- 2082706288336 -->
<g id="node10" class="node">
<title>2082706288336</title>
<ellipse fill="none" stroke="black" cx="967.85" cy="-836" rx="45.21" ry="18"/>
<text text-anchor="middle" x="967.85" y="-830" font-family="Times New Roman,serif" font-size="15.00">xor loop</text>
</g>
<!-- 2082706280560&#45;&#45;2082706288336 -->
<g id="edge8" class="edge">
<title>2082706280560&#45;&#45;2082706288336</title>
<path fill="none" stroke="black" d="M670.88,-786.28C726.27,-795.59 858.04,-817.72 925.5,-829.05"/>
</g>
<!-- 2082706276528 -->
<g id="node13" class="node">
<title>2082706276528</title>
<ellipse fill="none" stroke="black" cx="967.85" cy="-782" rx="27" ry="18"/>
<text text-anchor="middle" x="967.85" y="-776" font-family="Times New Roman,serif" font-size="15.00">xor</text>
</g>
<!-- 2082706280560&#45;&#45;2082706276528 -->
<g id="edge11" class="edge">
<title>2082706280560&#45;&#45;2082706276528</title>
<path fill="none" stroke="black" d="M671.69,-782C732.12,-782 880.28,-782 940.63,-782"/>
</g>
<!-- 2082706281376 -->
<g id="node11" class="node">
<title>2082706281376</title>
<ellipse fill="none" stroke="black" cx="1342.5" cy="-875" rx="127.61" ry="18"/>
<text text-anchor="middle" x="1342.5" y="-869" font-family="Times New Roman,serif" font-size="15.00">Provide confirmation receipt</text>
</g>
<!-- 2082706288336&#45;&#45;2082706281376 -->
<g id="edge6" class="edge">
<title>2082706288336&#45;&#45;2082706281376</title>
<path fill="none" stroke="black" d="M1011.96,-840.51C1067.04,-846.28 1164.17,-856.44 1238.76,-864.25"/>
</g>
<!-- 2082706555440 -->
<g id="node12" class="node">
<title>2082706555440</title>
<ellipse fill="black" stroke="black" cx="1342.5" cy="-836" rx="2.7" ry="2.7"/>
</g>
<!-- 2082706288336&#45;&#45;2082706555440 -->
<g id="edge7" class="edge">
<title>2082706288336&#45;&#45;2082706555440</title>
<path fill="none" stroke="black" d="M1013.43,-836C1106.93,-836 1316.82,-836 1339.5,-836"/>
</g>
<!-- 2082706557312 -->
<g id="node14" class="node">
<title>2082706557312</title>
<ellipse fill="black" stroke="black" cx="1342.5" cy="-813" rx="2.7" ry="2.7"/>
</g>
<!-- 2082706276528&#45;&#45;2082706557312 -->
<g id="edge9" class="edge">
<title>2082706276528&#45;&#45;2082706557312</title>
<path fill="none" stroke="black" d="M995.05,-784.18C1075.57,-790.88 1315.38,-810.83 1339.53,-812.84"/>
</g>
<!-- 2082706560624 -->
<g id="node15" class="node">
<title>2082706560624</title>
<ellipse fill="none" stroke="black" cx="1342.5" cy="-774" rx="147.06" ry="18"/>
<text text-anchor="middle" x="1342.5" y="-768" font-family="Times New Roman,serif" font-size="15.00">Applicant considered stakeholder</text>
</g>
<!-- 2082706276528&#45;&#45;2082706560624 -->
<g id="edge10" class="edge">
<title>2082706276528&#45;&#45;2082706560624</title>
<path fill="none" stroke="black" d="M995.05,-781.44C1036.97,-780.54 1122.05,-778.71 1197.41,-777.09"/>
</g>
<!-- 2082706277968 -->
<g id="node17" class="node">
<title>2082706277968</title>
<ellipse fill="black" stroke="black" cx="967.85" cy="-743" rx="2.7" ry="2.7"/>
</g>
<!-- 2082706284064&#45;&#45;2082706277968 -->
<g id="edge13" class="edge">
<title>2082706284064&#45;&#45;2082706277968</title>
<path fill="none" stroke="black" d="M671.42,-707.16C743.76,-715.94 943.33,-740.15 964.94,-742.77"/>
</g>
<!-- 2082706283440 -->
<g id="node18" class="node">
<title>2082706283440</title>
<ellipse fill="none" stroke="black" cx="967.85" cy="-704" rx="121.47" ry="18"/>
<text text-anchor="middle" x="967.85" y="-698" font-family="Times New Roman,serif" font-size="15.00">Assess provisional charges</text>
</g>
<!-- 2082706284064&#45;&#45;2082706283440 -->
<g id="edge14" class="edge">
<title>2082706284064&#45;&#45;2082706283440</title>
<path fill="none" stroke="black" d="M671.69,-704C709.7,-704 782.43,-704 846.18,-704"/>
</g>
<!-- 2082706561392 -->
<g id="node19" class="node">
<title>2082706561392</title>
<ellipse fill="none" stroke="black" cx="967.85" cy="-650" rx="27" ry="18"/>
<text text-anchor="middle" x="967.85" y="-644" font-family="Times New Roman,serif" font-size="15.00">seq</text>
</g>
<!-- 2082706284064&#45;&#45;2082706561392 -->
<g id="edge18" class="edge">
<title>2082706284064&#45;&#45;2082706561392</title>
<path fill="none" stroke="black" d="M670.88,-699.72C731.02,-689.61 881.21,-664.39 941.35,-654.28"/>
</g>
<!-- 2082706562064 -->
<g id="node20" class="node">
<title>2082706562064</title>
<ellipse fill="none" stroke="black" cx="1342.5" cy="-720" rx="136.82" ry="18"/>
<text text-anchor="middle" x="1342.5" y="-714" font-family="Times New Roman,serif" font-size="15.00">Environmental Report required</text>
</g>
<!-- 2082706561392&#45;&#45;2082706562064 -->
<g id="edge15" class="edge">
<title>2082706561392&#45;&#45;2082706562064</title>
<path fill="none" stroke="black" d="M994.17,-654.76C1048.31,-664.93 1177.28,-689.15 1261.91,-705.05"/>
</g>
<!-- 2082706566432 -->
<g id="node21" class="node">
<title>2082706566432</title>
<ellipse fill="none" stroke="black" cx="1342.5" cy="-666" rx="125.56" ry="18"/>
<text text-anchor="middle" x="1342.5" y="-660" font-family="Times New Roman,serif" font-size="15.00">Routine procedure activities</text>
</g>
<!-- 2082706561392&#45;&#45;2082706566432 -->
<g id="edge16" class="edge">
<title>2082706561392&#45;&#45;2082706566432</title>
<path fill="none" stroke="black" d="M995.05,-651.13C1041.52,-653.12 1141.06,-657.39 1221.57,-660.85"/>
</g>
<!-- 2082706563168 -->
<g id="node22" class="node">
<title>2082706563168</title>
<ellipse fill="none" stroke="black" cx="1342.5" cy="-612" rx="87.69" ry="18"/>
<text text-anchor="middle" x="1342.5" y="-606" font-family="Times New Roman,serif" font-size="15.00">Phased application</text>
</g>
<!-- 2082706561392&#45;&#45;2082706563168 -->
<g id="edge17" class="edge">
<title>2082706561392&#45;&#45;2082706563168</title>
<path fill="none" stroke="black" d="M995.05,-647.33C1049.97,-641.73 1179.01,-628.57 1263.16,-619.99"/>
</g>
<!-- 2082706570608 -->
<g id="node24" class="node">
<title>2082706570608</title>
<ellipse fill="none" stroke="black" cx="967.85" cy="-558" rx="27" ry="18"/>
<text text-anchor="middle" x="967.85" y="-552" font-family="Times New Roman,serif" font-size="15.00">xor</text>
</g>
<!-- 2082706283008&#45;&#45;2082706570608 -->
<g id="edge50" class="edge">
<title>2082706283008&#45;&#45;2082706570608</title>
<path fill="none" stroke="black" d="M690.08,-558C758.05,-558 885.31,-558 940.35,-558"/>
</g>
<!-- 2082706289200 -->
<g id="node55" class="node">
<title>2082706289200</title>
<ellipse fill="black" stroke="black" cx="967.85" cy="-519" rx="2.7" ry="2.7"/>
</g>
<!-- 2082706283008&#45;&#45;2082706289200 -->
<g id="edge51" class="edge">
<title>2082706283008&#45;&#45;2082706289200</title>
<path fill="none" stroke="black" d="M688.07,-552.82C770.05,-542.88 943.34,-521.85 964.68,-519.26"/>
</g>
<!-- 2082706566912 -->
<g id="node25" class="node">
<title>2082706566912</title>
<ellipse fill="none" stroke="black" cx="1342.5" cy="-558" rx="79.5" ry="18"/>
<text text-anchor="middle" x="1342.5" y="-552" font-family="Times New Roman,serif" font-size="15.00">Cease on request</text>
</g>
<!-- 2082706570608&#45;&#45;2082706566912 -->
<g id="edge20" class="edge">
<title>2082706570608&#45;&#45;2082706566912</title>
<path fill="none" stroke="black" d="M995.05,-558C1049.89,-558 1178.62,-558 1262.78,-558"/>
</g>
<!-- 2082706558512 -->
<g id="node26" class="node">
<title>2082706558512</title>
<ellipse fill="none" stroke="black" cx="1342.5" cy="-504" rx="27" ry="18"/>
<text text-anchor="middle" x="1342.5" y="-498" font-family="Times New Roman,serif" font-size="15.00">seq</text>
</g>
<!-- 2082706570608&#45;&#45;2082706558512 -->
<g id="edge49" class="edge">
<title>2082706570608&#45;&#45;2082706558512</title>
<path fill="none" stroke="black" d="M994.76,-554.25C1063.09,-544.34 1247.62,-517.6 1315.76,-507.73"/>
</g>
<!-- 2082706561632 -->
<g id="node27" class="node">
<title>2082706561632</title>
<ellipse fill="none" stroke="black" cx="1622.67" cy="-562" rx="27" ry="18"/>
<text text-anchor="middle" x="1622.67" y="-556" font-family="Times New Roman,serif" font-size="15.00">xor</text>
</g>
<!-- 2082706558512&#45;&#45;2082706561632 -->
<g id="edge42" class="edge">
<title>2082706558512&#45;&#45;2082706561632</title>
<path fill="none" stroke="black" d="M1368.67,-509.25C1421.5,-520.26 1543.4,-545.68 1596.35,-556.72"/>
</g>
<!-- 2082706569504 -->
<g id="node49" class="node">
<title>2082706569504</title>
<ellipse fill="none" stroke="black" cx="1622.67" cy="-504" rx="27" ry="18"/>
<text text-anchor="middle" x="1622.67" y="-498" font-family="Times New Roman,serif" font-size="15.00">xor</text>
</g>
<!-- 2082706558512&#45;&#45;2082706569504 -->
<g id="edge45" class="edge">
<title>2082706558512&#45;&#45;2082706569504</title>
<path fill="none" stroke="black" d="M1369.92,-504C1423.08,-504 1542.41,-504 1595.43,-504"/>
</g>
<!-- 2082706563744 -->
<g id="node52" class="node">
<title>2082706563744</title>
<ellipse fill="none" stroke="black" cx="1622.67" cy="-445" rx="27" ry="18"/>
<text text-anchor="middle" x="1622.67" y="-439" font-family="Times New Roman,serif" font-size="15.00">xor</text>
</g>
<!-- 2082706558512&#45;&#45;2082706563744 -->
<g id="edge48" class="edge">
<title>2082706558512&#45;&#45;2082706563744</title>
<path fill="none" stroke="black" d="M1368.67,-498.66C1421.63,-487.43 1544.02,-461.47 1596.75,-450.29"/>
</g>
<!-- 2082706559712 -->
<g id="node28" class="node">
<title>2082706559712</title>
<ellipse fill="black" stroke="black" cx="1829.66" cy="-601" rx="2.7" ry="2.7"/>
</g>
<!-- 2082706561632&#45;&#45;2082706559712 -->
<g id="edge21" class="edge">
<title>2082706561632&#45;&#45;2082706559712</title>
<path fill="none" stroke="black" d="M1648.81,-566.78C1699.7,-576.46 1811.41,-597.72 1826.87,-600.66"/>
</g>
<!-- 2082706566720 -->
<g id="node29" class="node">
<title>2082706566720</title>
<ellipse fill="none" stroke="black" cx="1829.66" cy="-562" rx="27" ry="18"/>
<text text-anchor="middle" x="1829.66" y="-556" font-family="Times New Roman,serif" font-size="15.00">seq</text>
</g>
<!-- 2082706561632&#45;&#45;2082706566720 -->
<g id="edge41" class="edge">
<title>2082706561632&#45;&#45;2082706566720</title>
<path fill="none" stroke="black" d="M1650.05,-562C1689.41,-562 1763.08,-562 1802.38,-562"/>
</g>
<!-- 2082706565904 -->
<g id="node30" class="node">
<title>2082706565904</title>
<ellipse fill="none" stroke="black" cx="2036.65" cy="-620" rx="27" ry="18"/>
<text text-anchor="middle" x="2036.65" y="-614" font-family="Times New Roman,serif" font-size="15.00">xor</text>
</g>
<!-- 2082706566720&#45;&#45;2082706565904 -->
<g id="edge31" class="edge">
<title>2082706566720&#45;&#45;2082706565904</title>
<path fill="none" stroke="black" d="M1854.98,-568.88C1894.43,-580.04 1971.93,-601.97 2011.36,-613.13"/>
</g>
<!-- 2082706566816 -->
<g id="node40" class="node">
<title>2082706566816</title>
<ellipse fill="none" stroke="black" cx="2036.65" cy="-562" rx="27" ry="18"/>
<text text-anchor="middle" x="2036.65" y="-556" font-family="Times New Roman,serif" font-size="15.00">xor</text>
</g>
<!-- 2082706566720&#45;&#45;2082706566816 -->
<g id="edge34" class="edge">
<title>2082706566720&#45;&#45;2082706566816</title>
<path fill="none" stroke="black" d="M1857.04,-562C1896.4,-562 1970.07,-562 2009.37,-562"/>
</g>
<!-- 2082706568304 -->
<g id="node43" class="node">
<title>2082706568304</title>
<ellipse fill="none" stroke="black" cx="2036.65" cy="-502" rx="27" ry="18"/>
<text text-anchor="middle" x="2036.65" y="-496" font-family="Times New Roman,serif" font-size="15.00">xor</text>
</g>
<!-- 2082706566720&#45;&#45;2082706568304 -->
<g id="edge40" class="edge">
<title>2082706566720&#45;&#45;2082706568304</title>
<path fill="none" stroke="black" d="M1854.98,-554.88C1894.43,-543.33 1971.93,-520.65 2011.36,-509.11"/>
</g>
<!-- 2082706564800 -->
<g id="node31" class="node">
<title>2082706564800</title>
<ellipse fill="black" stroke="black" cx="2228.8" cy="-659" rx="2.7" ry="2.7"/>
</g>
<!-- 2082706565904&#45;&#45;2082706564800 -->
<g id="edge22" class="edge">
<title>2082706565904&#45;&#45;2082706564800</title>
<path fill="none" stroke="black" d="M2062.9,-625.18C2110.58,-634.96 2210.49,-655.45 2225.81,-658.59"/>
</g>
<!-- 2082706565568 -->
<g id="node32" class="node">
<title>2082706565568</title>
<ellipse fill="none" stroke="black" cx="2228.8" cy="-620" rx="27" ry="18"/>
<text text-anchor="middle" x="2228.8" y="-614" font-family="Times New Roman,serif" font-size="15.00">seq</text>
</g>
<!-- 2082706565904&#45;&#45;2082706565568 -->
<g id="edge30" class="edge">
<title>2082706565904&#45;&#45;2082706565568</title>
<path fill="none" stroke="black" d="M2064.09,-620C2100.42,-620 2165.37,-620 2201.58,-620"/>
</g>
<!-- 2082706567056 -->
<g id="node33" class="node">
<title>2082706567056</title>
<ellipse fill="none" stroke="black" cx="2545.1" cy="-675" rx="151.15" ry="18"/>
<text text-anchor="middle" x="2545.1" y="-669" font-family="Times New Roman,serif" font-size="15.00">Transfer to the competent authority</text>
</g>
<!-- 2082706565568&#45;&#45;2082706567056 -->
<g id="edge23" class="edge">
<title>2082706565568&#45;&#45;2082706567056</title>
<path fill="none" stroke="black" d="M2255.25,-624.45C2298.8,-632.08 2389.51,-647.95 2457.72,-659.88"/>
</g>
<!-- 2082706566192 -->
<g id="node34" class="node">
<title>2082706566192</title>
<ellipse fill="none" stroke="black" cx="2545.1" cy="-621" rx="27" ry="18"/>
<text text-anchor="middle" x="2545.1" y="-615" font-family="Times New Roman,serif" font-size="15.00">xor</text>
</g>
<!-- 2082706565568&#45;&#45;2082706566192 -->
<g id="edge26" class="edge">
<title>2082706565568&#45;&#45;2082706566192</title>
<path fill="none" stroke="black" d="M2256.05,-620.08C2315.21,-620.27 2458.39,-620.73 2517.69,-620.92"/>
</g>
<!-- 2082706566624 -->
<g id="node37" class="node">
<title>2082706566624</title>
<ellipse fill="none" stroke="black" cx="2545.1" cy="-567" rx="27" ry="18"/>
<text text-anchor="middle" x="2545.1" y="-561" font-family="Times New Roman,serif" font-size="15.00">xor</text>
</g>
<!-- 2082706565568&#45;&#45;2082706566624 -->
<g id="edge29" class="edge">
<title>2082706565568&#45;&#45;2082706566624</title>
<path fill="none" stroke="black" d="M2255.52,-615.66C2314.6,-605.7 2459.46,-581.27 2518.46,-571.32"/>
</g>
<!-- 2082706560096 -->
<g id="node35" class="node">
<title>2082706560096</title>
<ellipse fill="black" stroke="black" cx="2874.7" cy="-656" rx="2.7" ry="2.7"/>
</g>
<!-- 2082706566192&#45;&#45;2082706560096 -->
<g id="edge24" class="edge">
<title>2082706566192&#45;&#45;2082706560096</title>
<path fill="none" stroke="black" d="M2572.08,-623.78C2645.33,-631.6 2849.63,-653.43 2871.75,-655.79"/>
</g>
<!-- 2082706566336 -->
<g id="node36" class="node">
<title>2082706566336</title>
<ellipse fill="none" stroke="black" cx="2874.7" cy="-617" rx="111.74" ry="18"/>
<text text-anchor="middle" x="2874.7" y="-611" font-family="Times New Roman,serif" font-size="15.00">Alert BAG administrator</text>
</g>
<!-- 2082706566192&#45;&#45;2082706566336 -->
<g id="edge25" class="edge">
<title>2082706566192&#45;&#45;2082706566336</title>
<path fill="none" stroke="black" d="M2572.35,-620.68C2613.35,-620.18 2694.91,-619.18 2762.85,-618.35"/>
</g>
<!-- 2082706557936 -->
<g id="node38" class="node">
<title>2082706557936</title>
<ellipse fill="black" stroke="black" cx="2874.7" cy="-571" rx="2.7" ry="2.7"/>
</g>
<!-- 2082706566624&#45;&#45;2082706557936 -->
<g id="edge27" class="edge">
<title>2082706566624&#45;&#45;2082706557936</title>
<path fill="none" stroke="black" d="M2572.35,-567.32C2645.84,-568.22 2849.68,-570.71 2871.76,-570.98"/>
</g>
<!-- 2082706556112 -->
<g id="node39" class="node">
<title>2082706556112</title>
<ellipse fill="none" stroke="black" cx="2874.7" cy="-532" rx="142.45" ry="18"/>
<text text-anchor="middle" x="2874.7" y="-526" font-family="Times New Roman,serif" font-size="15.00">Routine procedure without MER</text>
</g>
<!-- 2082706566624&#45;&#45;2082706556112 -->
<g id="edge28" class="edge">
<title>2082706566624&#45;&#45;2082706556112</title>
<path fill="none" stroke="black" d="M2572.08,-564.22C2613.24,-559.83 2695.8,-551.01 2764.15,-543.7"/>
</g>
<!-- 2082706570416 -->
<g id="node41" class="node">
<title>2082706570416</title>
<ellipse fill="black" stroke="black" cx="2228.8" cy="-581" rx="2.7" ry="2.7"/>
</g>
<!-- 2082706566816&#45;&#45;2082706570416 -->
<g id="edge32" class="edge">
<title>2082706566816&#45;&#45;2082706570416</title>
<path fill="none" stroke="black" d="M2063.69,-564.6C2111.7,-569.4 2210.66,-579.29 2225.83,-580.8"/>
</g>
<!-- 2082706562928 -->
<g id="node42" class="node">
<title>2082706562928</title>
<ellipse fill="none" stroke="black" cx="2228.8" cy="-542" rx="129.15" ry="18"/>
<text text-anchor="middle" x="2228.8" y="-536" font-family="Times New Roman,serif" font-size="15.00">Draft procedure confirmation</text>
</g>
<!-- 2082706566816&#45;&#45;2082706562928 -->
<g id="edge33" class="edge">
<title>2082706566816&#45;&#45;2082706562928</title>
<path fill="none" stroke="black" d="M2063.69,-559.26C2079.86,-557.56 2101.82,-555.25 2124.4,-552.88"/>
</g>
<!-- 2082706559376 -->
<g id="node44" class="node">
<title>2082706559376</title>
<ellipse fill="black" stroke="black" cx="2228.8" cy="-502" rx="2.7" ry="2.7"/>
</g>
<!-- 2082706568304&#45;&#45;2082706559376 -->
<g id="edge35" class="edge">
<title>2082706568304&#45;&#45;2082706559376</title>
<path fill="none" stroke="black" d="M2064.09,-502C2112.25,-502 2210.74,-502 2225.84,-502"/>
</g>
<!-- 2082706560000 -->
<g id="node45" class="node">
<title>2082706560000</title>
<ellipse fill="none" stroke="black" cx="2228.8" cy="-462" rx="27" ry="18"/>
<text text-anchor="middle" x="2228.8" y="-456" font-family="Times New Roman,serif" font-size="15.00">seq</text>
</g>
<!-- 2082706568304&#45;&#45;2082706560000 -->
<g id="edge39" class="edge">
<title>2082706568304&#45;&#45;2082706560000</title>
<path fill="none" stroke="black" d="M2062.9,-496.69C2099.37,-489.02 2166.39,-474.92 2202.74,-467.27"/>
</g>
<!-- 2082706561056 -->
<g id="node46" class="node">
<title>2082706561056</title>
<ellipse fill="none" stroke="black" cx="2545.1" cy="-513" rx="51.35" ry="18"/>
<text text-anchor="middle" x="2545.1" y="-507" font-family="Times New Roman,serif" font-size="15.00">Distribute</text>
</g>
<!-- 2082706560000&#45;&#45;2082706561056 -->
<g id="edge36" class="edge">
<title>2082706560000&#45;&#45;2082706561056</title>
<path fill="none" stroke="black" d="M2255.52,-466.17C2308.59,-474.79 2430.87,-494.63 2497.97,-505.52"/>
</g>
<!-- 2082706559616 -->
<g id="node47" class="node">
<title>2082706559616</title>
<ellipse fill="none" stroke="black" cx="2545.1" cy="-459" rx="127.61" ry="18"/>
<text text-anchor="middle" x="2545.1" y="-453" font-family="Times New Roman,serif" font-size="15.00">Form subcases completeness</text>
</g>
<!-- 2082706560000&#45;&#45;2082706559616 -->
<g id="edge37" class="edge">
<title>2082706560000&#45;&#45;2082706559616</title>
<path fill="none" stroke="black" d="M2256.05,-461.75C2291.61,-461.41 2357.51,-460.78 2417.31,-460.21"/>
</g>
<!-- 2082706563408 -->
<g id="node48" class="node">
<title>2082706563408</title>
<ellipse fill="none" stroke="black" cx="2545.1" cy="-405" rx="83.08" ry="18"/>
<text text-anchor="middle" x="2545.1" y="-399" font-family="Times New Roman,serif" font-size="15.00">Amend procedure</text>
</g>
<!-- 2082706560000&#45;&#45;2082706563408 -->
<g id="edge38" class="edge">
<title>2082706560000&#45;&#45;2082706563408</title>
<path fill="none" stroke="black" d="M2255.25,-457.38C2303.77,-448.58 2410.82,-429.17 2480.09,-416.61"/>
</g>
<!-- 2082706560672 -->
<g id="node50" class="node">
<title>2082706560672</title>
<ellipse fill="black" stroke="black" cx="1829.66" cy="-523" rx="2.7" ry="2.7"/>
</g>
<!-- 2082706569504&#45;&#45;2082706560672 -->
<g id="edge43" class="edge">
<title>2082706569504&#45;&#45;2082706560672</title>
<path fill="none" stroke="black" d="M1649.63,-506.41C1700.48,-511.12 1809.73,-521.24 1826.48,-522.8"/>
</g>
<!-- 2082706569408 -->
<g id="node51" class="node">
<title>2082706569408</title>
<ellipse fill="none" stroke="black" cx="1829.66" cy="-484" rx="143.99" ry="18"/>
<text text-anchor="middle" x="1829.66" y="-478" font-family="Times New Roman,serif" font-size="15.00">Transmit procedure confirmation</text>
</g>
<!-- 2082706569504&#45;&#45;2082706569408 -->
<g id="edge44" class="edge">
<title>2082706569504&#45;&#45;2082706569408</title>
<path fill="none" stroke="black" d="M1649.63,-501.47C1666.66,-499.81 1690.22,-497.51 1714.67,-495.12"/>
</g>
<!-- 2082706565280 -->
<g id="node53" class="node">
<title>2082706565280</title>
<ellipse fill="black" stroke="black" cx="1829.66" cy="-445" rx="2.7" ry="2.7"/>
</g>
<!-- 2082706563744&#45;&#45;2082706565280 -->
<g id="edge46" class="edge">
<title>2082706563744&#45;&#45;2082706565280</title>
<path fill="none" stroke="black" d="M1650.05,-445C1701.09,-445 1809.82,-445 1826.5,-445"/>
</g>
<!-- 2082706562736 -->
<g id="node54" class="node">
<title>2082706562736</title>
<ellipse fill="none" stroke="black" cx="1829.66" cy="-406" rx="112.77" ry="18"/>
<text text-anchor="middle" x="1829.66" y="-400" font-family="Times New Roman,serif" font-size="15.00">Initiate WABOprocedure</text>
</g>
<!-- 2082706563744&#45;&#45;2082706562736 -->
<g id="edge47" class="edge">
<title>2082706563744&#45;&#45;2082706562736</title>
<path fill="none" stroke="black" d="M1648.81,-440.22C1675.32,-435.17 1718.35,-426.99 1755.67,-419.89"/>
</g>
<!-- 2082706287232 -->
<g id="node57" class="node">
<title>2082706287232</title>
<ellipse fill="none" stroke="black" cx="311.19" cy="-517" rx="61.08" ry="18"/>
<text text-anchor="middle" x="311.19" y="-511" font-family="Times New Roman,serif" font-size="15.00">case closure</text>
</g>
<!-- 2082706285696&#45;&#45;2082706287232 -->
<g id="edge55" class="edge">
<title>2082706285696&#45;&#45;2082706287232</title>
<path fill="none" stroke="black" d="M143.92,-493.64C172.4,-497.64 218.98,-504.19 255.6,-509.33"/>
</g>
<!-- 2082706291936 -->
<g id="node58" class="node">
<title>2082706291936</title>
<ellipse fill="none" stroke="black" cx="311.19" cy="-463" rx="27" ry="18"/>
<text text-anchor="middle" x="311.19" y="-457" font-family="Times New Roman,serif" font-size="15.00">seq</text>
</g>
<!-- 2082706285696&#45;&#45;2082706291936 -->
<g id="edge60" class="edge">
<title>2082706285696&#45;&#45;2082706291936</title>
<path fill="none" stroke="black" d="M143.92,-486.36C180.7,-481.19 247.65,-471.79 284.38,-466.63"/>
</g>
<!-- 2082706286176 -->
<g id="node63" class="node">
<title>2082706286176</title>
<ellipse fill="none" stroke="black" cx="311.19" cy="-269" rx="27" ry="18"/>
<text text-anchor="middle" x="311.19" y="-263" font-family="Times New Roman,serif" font-size="15.00">seq</text>
</g>
<!-- 2082706285696&#45;&#45;2082706286176 -->
<g id="edge77" class="edge">
<title>2082706285696&#45;&#45;2082706286176</title>
<path fill="none" stroke="black" d="M131.51,-474.46C166.8,-433.88 261.42,-325.08 296.69,-284.52"/>
</g>
<!-- 2082706569072 -->
<g id="node59" class="node">
<title>2082706569072</title>
<ellipse fill="none" stroke="black" cx="644.38" cy="-490" rx="166" ry="18"/>
<text text-anchor="middle" x="644.38" y="-484" font-family="Times New Roman,serif" font-size="15.00">Input senddate procedure confirmation</text>
</g>
<!-- 2082706291936&#45;&#45;2082706569072 -->
<g id="edge56" class="edge">
<title>2082706291936&#45;&#45;2082706569072</title>
<path fill="none" stroke="black" d="M338.46,-465.14C375.64,-468.17 446.21,-473.93 510.1,-479.13"/>
</g>
<!-- 2082706556784 -->
<g id="node60" class="node">
<title>2082706556784</title>
<ellipse fill="none" stroke="black" cx="644.38" cy="-436" rx="27" ry="18"/>
<text text-anchor="middle" x="644.38" y="-430" font-family="Times New Roman,serif" font-size="15.00">xor</text>
</g>
<!-- 2082706291936&#45;&#45;2082706556784 -->
<g id="edge59" class="edge">
<title>2082706291936&#45;&#45;2082706556784</title>
<path fill="none" stroke="black" d="M338.46,-460.86C400.42,-455.81 555.15,-443.19 617.12,-438.14"/>
</g>
<!-- 2082706557888 -->
<g id="node61" class="node">
<title>2082706557888</title>
<ellipse fill="black" stroke="black" cx="967.85" cy="-462" rx="2.7" ry="2.7"/>
</g>
<!-- 2082706556784&#45;&#45;2082706557888 -->
<g id="edge57" class="edge">
<title>2082706556784&#45;&#45;2082706557888</title>
<path fill="none" stroke="black" d="M671.69,-438.13C744.27,-444 943.39,-460.1 964.95,-461.85"/>
</g>
<!-- 2082706564320 -->
<g id="node62" class="node">
<title>2082706564320</title>
<ellipse fill="none" stroke="black" cx="967.85" cy="-423" rx="118.91" ry="18"/>
<text text-anchor="middle" x="967.85" y="-417" font-family="Times New Roman,serif" font-size="15.00">Document date publication</text>
</g>
<!-- 2082706556784&#45;&#45;2082706564320 -->
<g id="edge58" class="edge">
<title>2082706556784&#45;&#45;2082706564320</title>
<path fill="none" stroke="black" d="M671.69,-434.94C710.98,-433.35 787.35,-430.26 852.56,-427.62"/>
</g>
<!-- 2082706568064 -->
<g id="node64" class="node">
<title>2082706568064</title>
<ellipse fill="none" stroke="black" cx="644.38" cy="-296" rx="27" ry="18"/>
<text text-anchor="middle" x="644.38" y="-290" font-family="Times New Roman,serif" font-size="15.00">xor</text>
</g>
<!-- 2082706286176&#45;&#45;2082706568064 -->
<g id="edge72" class="edge">
<title>2082706286176&#45;&#45;2082706568064</title>
<path fill="none" stroke="black" d="M338.46,-271.14C400.42,-276.19 555.15,-288.81 617.12,-293.86"/>
</g>
<!-- 2082706566528 -->
<g id="node76" class="node">
<title>2082706566528</title>
<ellipse fill="none" stroke="black" cx="644.38" cy="-242" rx="111.23" ry="18"/>
<text text-anchor="middle" x="644.38" y="-236" font-family="Times New Roman,serif" font-size="15.00">Phase procedure aborted</text>
</g>
<!-- 2082706286176&#45;&#45;2082706566528 -->
<g id="edge73" class="edge">
<title>2082706286176&#45;&#45;2082706566528</title>
<path fill="none" stroke="black" d="M338.46,-266.86C382.44,-263.27 473.18,-255.88 544.29,-250.08"/>
</g>
<!-- 2082706560144 -->
<g id="node77" class="node">
<title>2082706560144</title>
<ellipse fill="none" stroke="black" cx="644.38" cy="-141" rx="27" ry="18"/>
<text text-anchor="middle" x="644.38" y="-135" font-family="Times New Roman,serif" font-size="15.00">xor</text>
</g>
<!-- 2082706286176&#45;&#45;2082706560144 -->
<g id="edge76" class="edge">
<title>2082706286176&#45;&#45;2082706560144</title>
<path fill="none" stroke="black" d="M335.22,-260.1C395.95,-236.63 559.95,-173.24 620.51,-149.84"/>
</g>
<!-- 2082706556304 -->
<g id="node65" class="node">
<title>2082706556304</title>
<ellipse fill="none" stroke="black" cx="967.85" cy="-342" rx="27" ry="18"/>
<text text-anchor="middle" x="967.85" y="-336" font-family="Times New Roman,serif" font-size="15.00">and</text>
</g>
<!-- 2082706568064&#45;&#45;2082706556304 -->
<g id="edge65" class="edge">
<title>2082706568064&#45;&#45;2082706556304</title>
<path fill="none" stroke="black" d="M671.15,-299.69C731.34,-308.3 880.65,-329.67 940.96,-338.3"/>
</g>
<!-- 2082706557600 -->
<g id="node70" class="node">
<title>2082706557600</title>
<ellipse fill="none" stroke="black" cx="967.85" cy="-180" rx="27" ry="18"/>
<text text-anchor="middle" x="967.85" y="-174" font-family="Times New Roman,serif" font-size="15.00">seq</text>
</g>
<!-- 2082706568064&#45;&#45;2082706557600 -->
<g id="edge71" class="edge">
<title>2082706568064&#45;&#45;2082706557600</title>
<path fill="none" stroke="black" d="M668.76,-287.56C728.14,-266.14 884.27,-209.8 943.56,-188.4"/>
</g>
<!-- 2082706563552 -->
<g id="node66" class="node">
<title>2082706563552</title>
<ellipse fill="none" stroke="black" cx="1342.5" cy="-450" rx="191.08" ry="18"/>
<text text-anchor="middle" x="1342.5" y="-444" font-family="Times New Roman,serif" font-size="15.00">No permit needed or just notification needed</text>
</g>
<!-- 2082706556304&#45;&#45;2082706563552 -->
<g id="edge61" class="edge">
<title>2082706556304&#45;&#45;2082706563552</title>
<path fill="none" stroke="black" d="M993.01,-349C1050.67,-365.71 1197.71,-408.33 1281.2,-432.53"/>
</g>
<!-- 2082706555344 -->
<g id="node67" class="node">
<title>2082706555344</title>
<ellipse fill="none" stroke="black" cx="1342.5" cy="-396" rx="173.67" ry="18"/>
<text text-anchor="middle" x="1342.5" y="-390" font-family="Times New Roman,serif" font-size="15.00">draft letter indicating no permit required</text>
</g>
<!-- 2082706556304&#45;&#45;2082706555344 -->
<g id="edge62" class="edge">
<title>2082706556304&#45;&#45;2082706555344</title>
<path fill="none" stroke="black" d="M994.76,-345.75C1044.52,-352.97 1155.91,-369.11 1239.09,-381.16"/>
</g>
<!-- 2082706569120 -->
<g id="node68" class="node">
<title>2082706569120</title>
<ellipse fill="none" stroke="black" cx="1342.5" cy="-342" rx="81.04" ry="18"/>
<text text-anchor="middle" x="1342.5" y="-336" font-family="Times New Roman,serif" font-size="15.00">Register due date</text>
</g>
<!-- 2082706556304&#45;&#45;2082706569120 -->
<g id="edge63" class="edge">
<title>2082706556304&#45;&#45;2082706569120</title>
<path fill="none" stroke="black" d="M995.05,-342C1049.56,-342 1177.06,-342 1261.25,-342"/>
</g>
<!-- 2082706568880 -->
<g id="node69" class="node">
<title>2082706568880</title>
<ellipse fill="none" stroke="black" cx="1342.5" cy="-288" rx="217.18" ry="18"/>
<text text-anchor="middle" x="1342.5" y="-282" font-family="Times New Roman,serif" font-size="15.00">log senddate letter no permit or notification needed</text>
</g>
<!-- 2082706556304&#45;&#45;2082706568880 -->
<g id="edge64" class="edge">
<title>2082706556304&#45;&#45;2082706568880</title>
<path fill="none" stroke="black" d="M994.76,-338.25C1043.12,-331.24 1149.68,-315.8 1231.99,-303.87"/>
</g>
<!-- 2082706569792 -->
<g id="node71" class="node">
<title>2082706569792</title>
<ellipse fill="none" stroke="black" cx="1342.5" cy="-234" rx="152.69" ry="18"/>
<text text-anchor="middle" x="1342.5" y="-228" font-family="Times New Roman,serif" font-size="15.00">send request to competent authority</text>
</g>
<!-- 2082706557600&#45;&#45;2082706569792 -->
<g id="edge66" class="edge">
<title>2082706557600&#45;&#45;2082706569792</title>
<path fill="none" stroke="black" d="M994.76,-183.75C1045.51,-191.11 1160.37,-207.75 1244.03,-219.88"/>
</g>
<!-- 2082706567824 -->
<g id="node72" class="node">
<title>2082706567824</title>
<ellipse fill="none" stroke="black" cx="1342.5" cy="-180" rx="180.33" ry="18"/>
<text text-anchor="middle" x="1342.5" y="-174" font-family="Times New Roman,serif" font-size="15.00">note the senddate for letter to the authority</text>
</g>
<!-- 2082706557600&#45;&#45;2082706567824 -->
<g id="edge67" class="edge">
<title>2082706557600&#45;&#45;2082706567824</title>
<path fill="none" stroke="black" d="M995.05,-180C1030.51,-180 1096.85,-180 1162.06,-180"/>
</g>
<!-- 2082706556592 -->
<g id="node73" class="node">
<title>2082706556592</title>
<ellipse fill="none" stroke="black" cx="1342.5" cy="-126" rx="133.75" ry="18"/>
<text text-anchor="middle" x="1342.5" y="-120" font-family="Times New Roman,serif" font-size="15.00">send transcript to stakeholders</text>
</g>
<!-- 2082706557600&#45;&#45;2082706556592 -->
<g id="edge68" class="edge">
<title>2082706557600&#45;&#45;2082706556592</title>
<path fill="none" stroke="black" d="M994.76,-176.25C1046.67,-168.72 1165.63,-151.48 1249.69,-139.3"/>
</g>
<!-- 2082706564560 -->
<g id="node74" class="node">
<title>2082706564560</title>
<ellipse fill="none" stroke="black" cx="1342.5" cy="-72" rx="167.02" ry="18"/>
<text text-anchor="middle" x="1342.5" y="-66" font-family="Times New Roman,serif" font-size="15.00">note senddate for letter to stakeholders</text>
</g>
<!-- 2082706557600&#45;&#45;2082706564560 -->
<g id="edge69" class="edge">
<title>2082706557600&#45;&#45;2082706564560</title>
<path fill="none" stroke="black" d="M993.01,-173C1050.91,-156.22 1198.95,-113.31 1282.25,-89.17"/>
</g>
<!-- 2082706556016 -->
<g id="node75" class="node">
<title>2082706556016</title>
<ellipse fill="none" stroke="black" cx="1342.5" cy="-18" rx="146.55" ry="18"/>
<text text-anchor="middle" x="1342.5" y="-12" font-family="Times New Roman,serif" font-size="15.00">send phase to competent authority</text>
</g>
<!-- 2082706557600&#45;&#45;2082706556016 -->
<g id="edge70" class="edge">
<title>2082706557600&#45;&#45;2082706556016</title>
<path fill="none" stroke="black" d="M991.04,-170.35C1051.92,-143.89 1222.19,-69.87 1300.79,-35.7"/>
</g>
<!-- 2082706560576 -->
<g id="node78" class="node">
<title>2082706560576</title>
<ellipse fill="black" stroke="black" cx="967.85" cy="-141" rx="2.7" ry="2.7"/>
</g>
<!-- 2082706560144&#45;&#45;2082706560576 -->
<g id="edge74" class="edge">
<title>2082706560144&#45;&#45;2082706560576</title>
<path fill="none" stroke="black" d="M671.69,-141C744.27,-141 943.39,-141 964.95,-141"/>
</g>
<!-- 2082706557216 -->
<g id="node79" class="node">
<title>2082706557216</title>
<ellipse fill="none" stroke="black" cx="967.85" cy="-102" rx="69.78" ry="18"/>
<text text-anchor="middle" x="967.85" y="-96" font-family="Times New Roman,serif" font-size="15.00">Conclude case</text>
</g>
<!-- 2082706560144&#45;&#45;2082706557216 -->
<g id="edge75" class="edge">
<title>2082706560144&#45;&#45;2082706557216</title>
<path fill="none" stroke="black" d="M671.42,-137.84C721.64,-131.75 833.18,-118.22 903.92,-109.63"/>
</g>
</g>
</svg>
