<?xml version="1.0" encoding="UTF-8" standalone="no"?>
<!DOCTYPE svg PUBLIC "-//W3C//DTD SVG 1.1//EN"
 "http://www.w3.org/Graphics/SVG/1.1/DTD/svg11.dtd">
<!-- Generated by graphviz version 11.0.0 (20240428.1522)
 -->
<!-- Title: pt Pages: 1 -->
<svg width="2539pt" height="1001pt"
 viewBox="0.00 0.00 2538.58 1001.00" xmlns="http://www.w3.org/2000/svg" xmlns:xlink="http://www.w3.org/1999/xlink">
<g id="graph0" class="graph" transform="scale(1 1) rotate(0) translate(4 997)">
<title>pt</title>
<polygon fill="white" stroke="none" points="-4,4 -4,-997 2534.58,-997 2534.58,4 -4,4"/>
<!-- 2082704911840 -->
<g id="node1" class="node">
<title>2082704911840</title>
<ellipse fill="none" stroke="black" cx="27" cy="-759" rx="27" ry="18"/>
<text text-anchor="middle" x="27" y="-753" font-family="Times New Roman,serif" font-size="15.00">seq</text>
</g>
<!-- 2082704914000 -->
<g id="node2" class="node">
<title>2082704914000</title>
<ellipse fill="none" stroke="black" cx="117" cy="-813" rx="27" ry="18"/>
<text text-anchor="middle" x="117" y="-807" font-family="Times New Roman,serif" font-size="15.00">and</text>
</g>
<!-- 2082704911840&#45;&#45;2082704914000 -->
<g id="edge36" class="edge">
<title>2082704911840&#45;&#45;2082704914000</title>
<path fill="none" stroke="black" d="M47.53,-770.98C62.11,-779.93 81.95,-792.11 96.52,-801.05"/>
</g>
<!-- 2082704909536 -->
<g id="node38" class="node">
<title>2082704909536</title>
<ellipse fill="none" stroke="black" cx="117" cy="-732" rx="27" ry="18"/>
<text text-anchor="middle" x="117" y="-726" font-family="Times New Roman,serif" font-size="15.00">xor</text>
</g>
<!-- 2082704911840&#45;&#45;2082704909536 -->
<g id="edge67" class="edge">
<title>2082704911840&#45;&#45;2082704909536</title>
<path fill="none" stroke="black" d="M52.05,-751.62C64.46,-747.81 79.57,-743.18 91.98,-739.37"/>
</g>
<!-- 2082704902336 -->
<g id="node3" class="node">
<title>2082704902336</title>
<ellipse fill="none" stroke="black" cx="346" cy="-867" rx="129.66" ry="18"/>
<text text-anchor="middle" x="346" y="-861" font-family="Times New Roman,serif" font-size="15.00">Input submission date request</text>
</g>
<!-- 2082704914000&#45;&#45;2082704902336 -->
<g id="edge1" class="edge">
<title>2082704914000&#45;&#45;2082704902336</title>
<path fill="none" stroke="black" d="M142.72,-818.88C175.13,-826.59 233.2,-840.4 278.83,-851.26"/>
</g>
<!-- 2082704904112 -->
<g id="node4" class="node">
<title>2082704904112</title>
<ellipse fill="none" stroke="black" cx="346" cy="-813" rx="27" ry="18"/>
<text text-anchor="middle" x="346" y="-807" font-family="Times New Roman,serif" font-size="15.00">seq</text>
</g>
<!-- 2082704914000&#45;&#45;2082704904112 -->
<g id="edge35" class="edge">
<title>2082704914000&#45;&#45;2082704904112</title>
<path fill="none" stroke="black" d="M144.48,-813C188.22,-813 275.05,-813 318.68,-813"/>
</g>
<!-- 2082704914768 -->
<g id="node5" class="node">
<title>2082704914768</title>
<ellipse fill="none" stroke="black" cx="675.6" cy="-921" rx="93.32" ry="18"/>
<text text-anchor="middle" x="675.6" y="-915" font-family="Times New Roman,serif" font-size="15.00">OLO messaging live</text>
</g>
<!-- 2082704904112&#45;&#45;2082704914768 -->
<g id="edge2" class="edge">
<title>2082704904112&#45;&#45;2082704914768</title>
<path fill="none" stroke="black" d="M370.82,-820.85C424.49,-838.55 555.71,-881.8 626.86,-905.26"/>
</g>
<!-- 2082704912464 -->
<g id="node6" class="node">
<title>2082704912464</title>
<ellipse fill="none" stroke="black" cx="675.6" cy="-867" rx="127.61" ry="18"/>
<text text-anchor="middle" x="675.6" y="-861" font-family="Times New Roman,serif" font-size="15.00">Provide confirmation receipt</text>
</g>
<!-- 2082704904112&#45;&#45;2082704912464 -->
<g id="edge3" class="edge">
<title>2082704904112&#45;&#45;2082704912464</title>
<path fill="none" stroke="black" d="M372.7,-817.24C419.09,-824.88 518.65,-841.29 590.79,-853.18"/>
</g>
<!-- 2082704900944 -->
<g id="node7" class="node">
<title>2082704900944</title>
<ellipse fill="none" stroke="black" cx="675.6" cy="-813" rx="27" ry="18"/>
<text text-anchor="middle" x="675.6" y="-807" font-family="Times New Roman,serif" font-size="15.00">xor</text>
</g>
<!-- 2082704904112&#45;&#45;2082704900944 -->
<g id="edge14" class="edge">
<title>2082704904112&#45;&#45;2082704900944</title>
<path fill="none" stroke="black" d="M373.25,-813C434.59,-813 586.76,-813 648.22,-813"/>
</g>
<!-- 2082704907424 -->
<g id="node18" class="node">
<title>2082704907424</title>
<ellipse fill="none" stroke="black" cx="675.6" cy="-732" rx="27" ry="18"/>
<text text-anchor="middle" x="675.6" y="-726" font-family="Times New Roman,serif" font-size="15.00">and</text>
</g>
<!-- 2082704904112&#45;&#45;2082704907424 -->
<g id="edge34" class="edge">
<title>2082704904112&#45;&#45;2082704907424</title>
<path fill="none" stroke="black" d="M371.89,-806.85C432.81,-791.78 588.87,-753.2 649.75,-738.15"/>
</g>
<!-- 2082704901856 -->
<g id="node8" class="node">
<title>2082704901856</title>
<ellipse fill="black" stroke="black" cx="970.41" cy="-933" rx="2.7" ry="2.7"/>
</g>
<!-- 2082704900944&#45;&#45;2082704901856 -->
<g id="edge4" class="edge">
<title>2082704900944&#45;&#45;2082704901856</title>
<path fill="none" stroke="black" d="M699.09,-822.22C763.91,-848.78 947.74,-924.12 967.65,-932.28"/>
</g>
<!-- 2082704912272 -->
<g id="node9" class="node">
<title>2082704912272</title>
<ellipse fill="none" stroke="black" cx="970.41" cy="-894" rx="27" ry="18"/>
<text text-anchor="middle" x="970.41" y="-888" font-family="Times New Roman,serif" font-size="15.00">seq</text>
</g>
<!-- 2082704900944&#45;&#45;2082704912272 -->
<g id="edge9" class="edge">
<title>2082704900944&#45;&#45;2082704912272</title>
<path fill="none" stroke="black" d="M701.06,-819.77C756.32,-835.05 890.23,-872.1 945.22,-887.31"/>
</g>
<!-- 2082704904928 -->
<g id="node14" class="node">
<title>2082704904928</title>
<ellipse fill="none" stroke="black" cx="970.41" cy="-813" rx="27" ry="18"/>
<text text-anchor="middle" x="970.41" y="-807" font-family="Times New Roman,serif" font-size="15.00">seq</text>
</g>
<!-- 2082704900944&#45;&#45;2082704904928 -->
<g id="edge13" class="edge">
<title>2082704900944&#45;&#45;2082704904928</title>
<path fill="none" stroke="black" d="M702.85,-813C758.43,-813 887.49,-813 943.12,-813"/>
</g>
<!-- 2082704906992 -->
<g id="node10" class="node">
<title>2082704906992</title>
<ellipse fill="none" stroke="black" cx="1317.93" cy="-975" rx="147.06" ry="18"/>
<text text-anchor="middle" x="1317.93" y="-969" font-family="Times New Roman,serif" font-size="15.00">Applicant considered stakeholder</text>
</g>
<!-- 2082704912272&#45;&#45;2082704906992 -->
<g id="edge5" class="edge">
<title>2082704912272&#45;&#45;2082704906992</title>
<path fill="none" stroke="black" d="M996.26,-899.83C1048.25,-912.01 1170.1,-940.58 1247.73,-958.78"/>
</g>
<!-- 2082704908720 -->
<g id="node11" class="node">
<title>2082704908720</title>
<ellipse fill="none" stroke="black" cx="1317.93" cy="-921" rx="27" ry="18"/>
<text text-anchor="middle" x="1317.93" y="-915" font-family="Times New Roman,serif" font-size="15.00">xor</text>
</g>
<!-- 2082704912272&#45;&#45;2082704908720 -->
<g id="edge8" class="edge">
<title>2082704912272&#45;&#45;2082704908720</title>
<path fill="none" stroke="black" d="M997.66,-896.05C1061.92,-901.07 1226.5,-913.93 1290.71,-918.95"/>
</g>
<!-- 2082704910736 -->
<g id="node12" class="node">
<title>2082704910736</title>
<ellipse fill="black" stroke="black" cx="1676.71" cy="-940" rx="2.7" ry="2.7"/>
</g>
<!-- 2082704908720&#45;&#45;2082704910736 -->
<g id="edge6" class="edge">
<title>2082704908720&#45;&#45;2082704910736</title>
<path fill="none" stroke="black" d="M1345.16,-922.4C1423.05,-926.54 1649.06,-938.58 1673.55,-939.89"/>
</g>
<!-- 2082704912128 -->
<g id="node13" class="node">
<title>2082704912128</title>
<ellipse fill="none" stroke="black" cx="1676.71" cy="-901" rx="121.47" ry="18"/>
<text text-anchor="middle" x="1676.71" y="-895" font-family="Times New Roman,serif" font-size="15.00">Assess provisional charges</text>
</g>
<!-- 2082704908720&#45;&#45;2082704912128 -->
<g id="edge7" class="edge">
<title>2082704908720&#45;&#45;2082704912128</title>
<path fill="none" stroke="black" d="M1345.16,-919.53C1390.38,-916.99 1485.53,-911.66 1562.18,-907.36"/>
</g>
<!-- 2082704907088 -->
<g id="node15" class="node">
<title>2082704907088</title>
<ellipse fill="none" stroke="black" cx="1317.93" cy="-867" rx="136.82" ry="18"/>
<text text-anchor="middle" x="1317.93" y="-861" font-family="Times New Roman,serif" font-size="15.00">Environmental Report required</text>
</g>
<!-- 2082704904928&#45;&#45;2082704907088 -->
<g id="edge10" class="edge">
<title>2082704904928&#45;&#45;2082704907088</title>
<path fill="none" stroke="black" d="M997.1,-817.01C1045.27,-824.54 1151.22,-841.1 1228.01,-853.1"/>
</g>
<!-- 2082704913520 -->
<g id="node16" class="node">
<title>2082704913520</title>
<ellipse fill="none" stroke="black" cx="1317.93" cy="-813" rx="125.56" ry="18"/>
<text text-anchor="middle" x="1317.93" y="-807" font-family="Times New Roman,serif" font-size="15.00">Routine procedure activities</text>
</g>
<!-- 2082704904928&#45;&#45;2082704913520 -->
<g id="edge11" class="edge">
<title>2082704904928&#45;&#45;2082704913520</title>
<path fill="none" stroke="black" d="M997.66,-813C1038.84,-813 1121.24,-813 1192.01,-813"/>
</g>
<!-- 2082704907856 -->
<g id="node17" class="node">
<title>2082704907856</title>
<ellipse fill="none" stroke="black" cx="1317.93" cy="-759" rx="87.69" ry="18"/>
<text text-anchor="middle" x="1317.93" y="-753" font-family="Times New Roman,serif" font-size="15.00">Phased application</text>
</g>
<!-- 2082704904928&#45;&#45;2082704907856 -->
<g id="edge12" class="edge">
<title>2082704904928&#45;&#45;2082704907856</title>
<path fill="none" stroke="black" d="M997.1,-808.99C1049.41,-800.81 1169.88,-781.98 1247.12,-769.91"/>
</g>
<!-- 2082704907520 -->
<g id="node19" class="node">
<title>2082704907520</title>
<ellipse fill="none" stroke="black" cx="970.41" cy="-732" rx="131.19" ry="18"/>
<text text-anchor="middle" x="970.41" y="-726" font-family="Times New Roman,serif" font-size="15.00">Phase of application received</text>
</g>
<!-- 2082704907424&#45;&#45;2082704907520 -->
<g id="edge15" class="edge">
<title>2082704907424&#45;&#45;2082704907520</title>
<path fill="none" stroke="black" d="M702.85,-732C733.87,-732 787.77,-732 839.03,-732"/>
</g>
<!-- 2082704903968 -->
<g id="node20" class="node">
<title>2082704903968</title>
<ellipse fill="none" stroke="black" cx="970.41" cy="-651" rx="27" ry="18"/>
<text text-anchor="middle" x="970.41" y="-645" font-family="Times New Roman,serif" font-size="15.00">seq</text>
</g>
<!-- 2082704907424&#45;&#45;2082704903968 -->
<g id="edge33" class="edge">
<title>2082704907424&#45;&#45;2082704903968</title>
<path fill="none" stroke="black" d="M701.06,-725.23C756.32,-709.95 890.23,-672.9 945.22,-657.69"/>
</g>
<!-- 2082704905024 -->
<g id="node21" class="node">
<title>2082704905024</title>
<ellipse fill="none" stroke="black" cx="1317.93" cy="-705" rx="151.15" ry="18"/>
<text text-anchor="middle" x="1317.93" y="-699" font-family="Times New Roman,serif" font-size="15.00">Transfer to the competent authority</text>
</g>
<!-- 2082704903968&#45;&#45;2082704905024 -->
<g id="edge16" class="edge">
<title>2082704903968&#45;&#45;2082704905024</title>
<path fill="none" stroke="black" d="M997.1,-655.01C1044.48,-662.42 1147.8,-678.57 1224.25,-690.51"/>
</g>
<!-- 2082704909776 -->
<g id="node22" class="node">
<title>2082704909776</title>
<ellipse fill="none" stroke="black" cx="1317.93" cy="-651" rx="27" ry="18"/>
<text text-anchor="middle" x="1317.93" y="-645" font-family="Times New Roman,serif" font-size="15.00">xor</text>
</g>
<!-- 2082704903968&#45;&#45;2082704909776 -->
<g id="edge19" class="edge">
<title>2082704903968&#45;&#45;2082704909776</title>
<path fill="none" stroke="black" d="M997.66,-651C1061.92,-651 1226.5,-651 1290.71,-651"/>
</g>
<!-- 2082704907616 -->
<g id="node25" class="node">
<title>2082704907616</title>
<ellipse fill="none" stroke="black" cx="1317.93" cy="-597" rx="27" ry="18"/>
<text text-anchor="middle" x="1317.93" y="-591" font-family="Times New Roman,serif" font-size="15.00">xor</text>
</g>
<!-- 2082704903968&#45;&#45;2082704907616 -->
<g id="edge29" class="edge">
<title>2082704903968&#45;&#45;2082704907616</title>
<path fill="none" stroke="black" d="M997.1,-646.99C1061.22,-636.96 1227.74,-610.94 1291.54,-600.97"/>
</g>
<!-- 2082704913280 -->
<g id="node35" class="node">
<title>2082704913280</title>
<ellipse fill="none" stroke="black" cx="1317.93" cy="-539" rx="27" ry="18"/>
<text text-anchor="middle" x="1317.93" y="-533" font-family="Times New Roman,serif" font-size="15.00">xor</text>
</g>
<!-- 2082704903968&#45;&#45;2082704913280 -->
<g id="edge32" class="edge">
<title>2082704903968&#45;&#45;2082704913280</title>
<path fill="none" stroke="black" d="M995.16,-643.3C1058.28,-622.84 1229.7,-567.27 1293.01,-546.75"/>
</g>
<!-- 2082704903152 -->
<g id="node23" class="node">
<title>2082704903152</title>
<ellipse fill="black" stroke="black" cx="1676.71" cy="-692" rx="2.7" ry="2.7"/>
</g>
<!-- 2082704909776&#45;&#45;2082704903152 -->
<g id="edge17" class="edge">
<title>2082704909776&#45;&#45;2082704903152</title>
<path fill="none" stroke="black" d="M1344.87,-653.98C1422.49,-662.9 1649,-688.93 1673.55,-691.75"/>
</g>
<!-- 2082704900224 -->
<g id="node24" class="node">
<title>2082704900224</title>
<ellipse fill="none" stroke="black" cx="1676.71" cy="-653" rx="142.45" ry="18"/>
<text text-anchor="middle" x="1676.71" y="-647" font-family="Times New Roman,serif" font-size="15.00">Routine procedure without MER</text>
</g>
<!-- 2082704909776&#45;&#45;2082704900224 -->
<g id="edge18" class="edge">
<title>2082704909776&#45;&#45;2082704900224</title>
<path fill="none" stroke="black" d="M1345.16,-651.15C1384.99,-651.37 1463.55,-651.81 1534.1,-652.21"/>
</g>
<!-- 2082704915776 -->
<g id="node26" class="node">
<title>2082704915776</title>
<ellipse fill="black" stroke="black" cx="1676.71" cy="-614" rx="2.7" ry="2.7"/>
</g>
<!-- 2082704907616&#45;&#45;2082704915776 -->
<g id="edge20" class="edge">
<title>2082704907616&#45;&#45;2082704915776</title>
<path fill="none" stroke="black" d="M1345.16,-598.25C1423.05,-601.96 1649.06,-612.73 1673.55,-613.9"/>
</g>
<!-- 2082704916208 -->
<g id="node27" class="node">
<title>2082704916208</title>
<ellipse fill="none" stroke="black" cx="1676.71" cy="-575" rx="27" ry="18"/>
<text text-anchor="middle" x="1676.71" y="-569" font-family="Times New Roman,serif" font-size="15.00">and</text>
</g>
<!-- 2082704907616&#45;&#45;2082704916208 -->
<g id="edge28" class="edge">
<title>2082704907616&#45;&#45;2082704916208</title>
<path fill="none" stroke="black" d="M1345.16,-595.38C1411.14,-591.31 1583.41,-580.69 1649.44,-576.62"/>
</g>
<!-- 2082704903200 -->
<g id="node28" class="node">
<title>2082704903200</title>
<ellipse fill="none" stroke="black" cx="2024.74" cy="-622" rx="112.77" ry="18"/>
<text text-anchor="middle" x="2024.74" y="-616" font-family="Times New Roman,serif" font-size="15.00">Initiate WABOprocedure</text>
</g>
<!-- 2082704916208&#45;&#45;2082704903200 -->
<g id="edge21" class="edge">
<title>2082704916208&#45;&#45;2082704903200</title>
<path fill="none" stroke="black" d="M1703.43,-578.49C1752.22,-585.12 1860.21,-599.79 1937.3,-610.26"/>
</g>
<!-- 2082704916064 -->
<g id="node29" class="node">
<title>2082704916064</title>
<ellipse fill="none" stroke="black" cx="2024.74" cy="-568" rx="27" ry="18"/>
<text text-anchor="middle" x="2024.74" y="-562" font-family="Times New Roman,serif" font-size="15.00">seq</text>
</g>
<!-- 2082704916208&#45;&#45;2082704916064 -->
<g id="edge27" class="edge">
<title>2082704916208&#45;&#45;2082704916064</title>
<path fill="none" stroke="black" d="M1704,-574.47C1768.35,-573.17 1933.18,-569.83 1997.49,-568.53"/>
</g>
<!-- 2082704911024 -->
<g id="node30" class="node">
<title>2082704911024</title>
<ellipse fill="none" stroke="black" cx="2380.45" cy="-676" rx="129.15" ry="18"/>
<text text-anchor="middle" x="2380.45" y="-670" font-family="Times New Roman,serif" font-size="15.00">Draft procedure confirmation</text>
</g>
<!-- 2082704916064&#45;&#45;2082704911024 -->
<g id="edge22" class="edge">
<title>2082704916064&#45;&#45;2082704911024</title>
<path fill="none" stroke="black" d="M2049.77,-575.34C2105.91,-592.48 2246.78,-635.49 2324.99,-659.37"/>
</g>
<!-- 2082704901424 -->
<g id="node31" class="node">
<title>2082704901424</title>
<ellipse fill="none" stroke="black" cx="2380.45" cy="-622" rx="51.35" ry="18"/>
<text text-anchor="middle" x="2380.45" y="-616" font-family="Times New Roman,serif" font-size="15.00">Distribute</text>
</g>
<!-- 2082704916064&#45;&#45;2082704901424 -->
<g id="edge23" class="edge">
<title>2082704916064&#45;&#45;2082704901424</title>
<path fill="none" stroke="black" d="M2051.46,-571.93C2110.68,-580.97 2257.34,-603.36 2332.86,-614.89"/>
</g>
<!-- 2082704913712 -->
<g id="node32" class="node">
<title>2082704913712</title>
<ellipse fill="none" stroke="black" cx="2380.45" cy="-568" rx="127.61" ry="18"/>
<text text-anchor="middle" x="2380.45" y="-562" font-family="Times New Roman,serif" font-size="15.00">Form subcases completeness</text>
</g>
<!-- 2082704916064&#45;&#45;2082704913712 -->
<g id="edge24" class="edge">
<title>2082704916064&#45;&#45;2082704913712</title>
<path fill="none" stroke="black" d="M2052.04,-568C2094.23,-568 2179.71,-568 2252.75,-568"/>
</g>
<!-- 2082704909392 -->
<g id="node33" class="node">
<title>2082704909392</title>
<ellipse fill="none" stroke="black" cx="2380.45" cy="-514" rx="83.08" ry="18"/>
<text text-anchor="middle" x="2380.45" y="-508" font-family="Times New Roman,serif" font-size="15.00">Amend procedure</text>
</g>
<!-- 2082704916064&#45;&#45;2082704909392 -->
<g id="edge25" class="edge">
<title>2082704916064&#45;&#45;2082704909392</title>
<path fill="none" stroke="black" d="M2051.46,-564.07C2105.52,-555.82 2232.41,-536.45 2311.58,-524.36"/>
</g>
<!-- 2082704901952 -->
<g id="node34" class="node">
<title>2082704901952</title>
<ellipse fill="none" stroke="black" cx="2380.45" cy="-460" rx="143.99" ry="18"/>
<text text-anchor="middle" x="2380.45" y="-454" font-family="Times New Roman,serif" font-size="15.00">Transmit procedure confirmation</text>
</g>
<!-- 2082704916064&#45;&#45;2082704901952 -->
<g id="edge26" class="edge">
<title>2082704916064&#45;&#45;2082704901952</title>
<path fill="none" stroke="black" d="M2049.77,-560.66C2105.67,-543.59 2245.61,-500.87 2324.01,-476.93"/>
</g>
<!-- 2082704908672 -->
<g id="node36" class="node">
<title>2082704908672</title>
<ellipse fill="black" stroke="black" cx="1676.71" cy="-536" rx="2.7" ry="2.7"/>
</g>
<!-- 2082704913280&#45;&#45;2082704908672 -->
<g id="edge30" class="edge">
<title>2082704913280&#45;&#45;2082704908672</title>
<path fill="none" stroke="black" d="M1345.16,-538.78C1423.05,-538.12 1649.06,-536.22 1673.55,-536.02"/>
</g>
<!-- 2082704914240 -->
<g id="node37" class="node">
<title>2082704914240</title>
<ellipse fill="none" stroke="black" cx="1676.71" cy="-497" rx="111.74" ry="18"/>
<text text-anchor="middle" x="1676.71" y="-491" font-family="Times New Roman,serif" font-size="15.00">Alert BAG administrator</text>
</g>
<!-- 2082704913280&#45;&#45;2082704914240 -->
<g id="edge31" class="edge">
<title>2082704913280&#45;&#45;2082704914240</title>
<path fill="none" stroke="black" d="M1344.87,-535.95C1394.58,-530.09 1505.38,-517.05 1585.07,-507.67"/>
</g>
<!-- 2082704915824 -->
<g id="node39" class="node">
<title>2082704915824</title>
<ellipse fill="none" stroke="black" cx="346" cy="-746" rx="166" ry="18"/>
<text text-anchor="middle" x="346" y="-740" font-family="Times New Roman,serif" font-size="15.00">Input senddate procedure confirmation</text>
</g>
<!-- 2082704909536&#45;&#45;2082704915824 -->
<g id="edge37" class="edge">
<title>2082704909536&#45;&#45;2082704915824</title>
<path fill="none" stroke="black" d="M144.04,-733.61C158.89,-734.52 178.8,-735.75 200.34,-737.08"/>
</g>
<!-- 2082704912752 -->
<g id="node40" class="node">
<title>2082704912752</title>
<ellipse fill="none" stroke="black" cx="346" cy="-692" rx="61.08" ry="18"/>
<text text-anchor="middle" x="346" y="-686" font-family="Times New Roman,serif" font-size="15.00">case closure</text>
</g>
<!-- 2082704909536&#45;&#45;2082704912752 -->
<g id="edge38" class="edge">
<title>2082704909536&#45;&#45;2082704912752</title>
<path fill="none" stroke="black" d="M143.6,-727.49C179.66,-721.13 246.22,-709.41 292.92,-701.18"/>
</g>
<!-- 2082704916160 -->
<g id="node41" class="node">
<title>2082704916160</title>
<ellipse fill="none" stroke="black" cx="346" cy="-327" rx="27" ry="18"/>
<text text-anchor="middle" x="346" y="-321" font-family="Times New Roman,serif" font-size="15.00">seq</text>
</g>
<!-- 2082704909536&#45;&#45;2082704916160 -->
<g id="edge66" class="edge">
<title>2082704909536&#45;&#45;2082704916160</title>
<path fill="none" stroke="black" d="M127.46,-715.11C164.38,-649.24 298.5,-409.96 335.49,-343.96"/>
</g>
<!-- 2082704915968 -->
<g id="node42" class="node">
<title>2082704915968</title>
<ellipse fill="none" stroke="black" cx="675.6" cy="-327" rx="27" ry="18"/>
<text text-anchor="middle" x="675.6" y="-321" font-family="Times New Roman,serif" font-size="15.00">xor</text>
</g>
<!-- 2082704916160&#45;&#45;2082704915968 -->
<g id="edge54" class="edge">
<title>2082704916160&#45;&#45;2082704915968</title>
<path fill="none" stroke="black" d="M373.25,-327C434.59,-327 586.76,-327 648.22,-327"/>
</g>
<!-- 2082704914960 -->
<g id="node58" class="node">
<title>2082704914960</title>
<ellipse fill="none" stroke="black" cx="675.6" cy="-227" rx="27" ry="18"/>
<text text-anchor="middle" x="675.6" y="-221" font-family="Times New Roman,serif" font-size="15.00">xor</text>
</g>
<!-- 2082704916160&#45;&#45;2082704914960 -->
<g id="edge65" class="edge">
<title>2082704916160&#45;&#45;2082704914960</title>
<path fill="none" stroke="black" d="M371.09,-319.65C431.67,-301.15 589.86,-252.87 650.48,-234.36"/>
</g>
<!-- 2082704902816 -->
<g id="node43" class="node">
<title>2082704902816</title>
<ellipse fill="none" stroke="black" cx="970.41" cy="-431" rx="27" ry="18"/>
<text text-anchor="middle" x="970.41" y="-425" font-family="Times New Roman,serif" font-size="15.00">seq</text>
</g>
<!-- 2082704915968&#45;&#45;2082704902816 -->
<g id="edge47" class="edge">
<title>2082704915968&#45;&#45;2082704902816</title>
<path fill="none" stroke="black" d="M700.07,-335.33C755.03,-354.86 891.57,-403.35 946.24,-422.77"/>
</g>
<!-- 2082704902768 -->
<g id="node52" class="node">
<title>2082704902768</title>
<ellipse fill="none" stroke="black" cx="970.41" cy="-296" rx="27" ry="18"/>
<text text-anchor="middle" x="970.41" y="-290" font-family="Times New Roman,serif" font-size="15.00">seq</text>
</g>
<!-- 2082704915968&#45;&#45;2082704902768 -->
<g id="edge53" class="edge">
<title>2082704915968&#45;&#45;2082704902768</title>
<path fill="none" stroke="black" d="M702.59,-324.25C758.15,-318.37 887.97,-304.62 943.48,-298.74"/>
</g>
<!-- 2082696235104 -->
<g id="node44" class="node">
<title>2082696235104</title>
<ellipse fill="none" stroke="black" cx="1317.93" cy="-485" rx="79.5" ry="18"/>
<text text-anchor="middle" x="1317.93" y="-479" font-family="Times New Roman,serif" font-size="15.00">Cease on request</text>
</g>
<!-- 2082704902816&#45;&#45;2082696235104 -->
<g id="edge39" class="edge">
<title>2082704902816&#45;&#45;2082696235104</title>
<path fill="none" stroke="black" d="M997.1,-435.01C1050.43,-443.35 1174.59,-462.75 1251.58,-474.79"/>
</g>
<!-- 2082696247776 -->
<g id="node45" class="node">
<title>2082696247776</title>
<ellipse fill="none" stroke="black" cx="1317.93" cy="-431" rx="27" ry="18"/>
<text text-anchor="middle" x="1317.93" y="-425" font-family="Times New Roman,serif" font-size="15.00">xor</text>
</g>
<!-- 2082704902816&#45;&#45;2082696247776 -->
<g id="edge46" class="edge">
<title>2082704902816&#45;&#45;2082696247776</title>
<path fill="none" stroke="black" d="M997.66,-431C1061.92,-431 1226.5,-431 1290.71,-431"/>
</g>
<!-- 2082704823728 -->
<g id="node46" class="node">
<title>2082704823728</title>
<ellipse fill="black" stroke="black" cx="1676.71" cy="-455" rx="2.7" ry="2.7"/>
</g>
<!-- 2082696247776&#45;&#45;2082704823728 -->
<g id="edge40" class="edge">
<title>2082696247776&#45;&#45;2082704823728</title>
<path fill="none" stroke="black" d="M1345.16,-432.76C1423.05,-438 1649.06,-453.21 1673.55,-454.85"/>
</g>
<!-- 2082704819408 -->
<g id="node47" class="node">
<title>2082704819408</title>
<ellipse fill="none" stroke="black" cx="1676.71" cy="-416" rx="27" ry="18"/>
<text text-anchor="middle" x="1676.71" y="-410" font-family="Times New Roman,serif" font-size="15.00">seq</text>
</g>
<!-- 2082696247776&#45;&#45;2082704819408 -->
<g id="edge45" class="edge">
<title>2082696247776&#45;&#45;2082704819408</title>
<path fill="none" stroke="black" d="M1345.16,-429.9C1411.14,-427.12 1583.41,-419.88 1649.44,-417.1"/>
</g>
<!-- 2082704824112 -->
<g id="node48" class="node">
<title>2082704824112</title>
<ellipse fill="none" stroke="black" cx="2024.74" cy="-429" rx="169.58" ry="18"/>
<text text-anchor="middle" x="2024.74" y="-423" font-family="Times New Roman,serif" font-size="15.00">Enter date termination request received</text>
</g>
<!-- 2082704819408&#45;&#45;2082704824112 -->
<g id="edge41" class="edge">
<title>2082704819408&#45;&#45;2082704824112</title>
<path fill="none" stroke="black" d="M1704,-416.99C1738.7,-418.29 1802.61,-420.69 1864.23,-423.01"/>
</g>
<!-- 2082704830160 -->
<g id="node49" class="node">
<title>2082704830160</title>
<ellipse fill="none" stroke="black" cx="2024.74" cy="-375" rx="27" ry="18"/>
<text text-anchor="middle" x="2024.74" y="-369" font-family="Times New Roman,serif" font-size="15.00">and</text>
</g>
<!-- 2082704819408&#45;&#45;2082704830160 -->
<g id="edge44" class="edge">
<title>2082704819408&#45;&#45;2082704830160</title>
<path fill="none" stroke="black" d="M1703.72,-412.92C1768,-405.3 1933.8,-385.66 1997.9,-378.06"/>
</g>
<!-- 2082704827280 -->
<g id="node50" class="node">
<title>2082704827280</title>
<ellipse fill="none" stroke="black" cx="2380.45" cy="-381" rx="150.13" ry="18"/>
<text text-anchor="middle" x="2380.45" y="-375" font-family="Times New Roman,serif" font-size="15.00">Enter senddate termination request</text>
</g>
<!-- 2082704830160&#45;&#45;2082704827280 -->
<g id="edge42" class="edge">
<title>2082704830160&#45;&#45;2082704827280</title>
<path fill="none" stroke="black" d="M2052.04,-375.45C2090.14,-376.09 2163.57,-377.34 2231.25,-378.49"/>
</g>
<!-- 2082704820656 -->
<g id="node51" class="node">
<title>2082704820656</title>
<ellipse fill="none" stroke="black" cx="2380.45" cy="-327" rx="132.22" ry="18"/>
<text text-anchor="middle" x="2380.45" y="-321" font-family="Times New Roman,serif" font-size="15.00">Terminate request notification</text>
</g>
<!-- 2082704830160&#45;&#45;2082704820656 -->
<g id="edge43" class="edge">
<title>2082704830160&#45;&#45;2082704820656</title>
<path fill="none" stroke="black" d="M2051.46,-371.51C2099.79,-364.95 2206.36,-350.49 2284.97,-339.82"/>
</g>
<!-- 2082704823200 -->
<g id="node53" class="node">
<title>2082704823200</title>
<ellipse fill="none" stroke="black" cx="1317.93" cy="-377" rx="152.69" ry="18"/>
<text text-anchor="middle" x="1317.93" y="-371" font-family="Times New Roman,serif" font-size="15.00">send request to competent authority</text>
</g>
<!-- 2082704902768&#45;&#45;2082704823200 -->
<g id="edge48" class="edge">
<title>2082704902768&#45;&#45;2082704823200</title>
<path fill="none" stroke="black" d="M996.26,-301.83C1048.09,-313.98 1169.38,-342.41 1247.04,-360.62"/>
</g>
<!-- 2082704822192 -->
<g id="node54" class="node">
<title>2082704822192</title>
<ellipse fill="none" stroke="black" cx="1317.93" cy="-323" rx="180.33" ry="18"/>
<text text-anchor="middle" x="1317.93" y="-317" font-family="Times New Roman,serif" font-size="15.00">note the senddate for letter to the authority</text>
</g>
<!-- 2082704902768&#45;&#45;2082704822192 -->
<g id="edge49" class="edge">
<title>2082704902768&#45;&#45;2082704822192</title>
<path fill="none" stroke="black" d="M997.66,-298.05C1035.38,-301 1107.67,-306.65 1173.94,-311.83"/>
</g>
<!-- 2082704833808 -->
<g id="node55" class="node">
<title>2082704833808</title>
<ellipse fill="none" stroke="black" cx="1317.93" cy="-269" rx="133.75" ry="18"/>
<text text-anchor="middle" x="1317.93" y="-263" font-family="Times New Roman,serif" font-size="15.00">send transcript to stakeholders</text>
</g>
<!-- 2082704902768&#45;&#45;2082704833808 -->
<g id="edge50" class="edge">
<title>2082704902768&#45;&#45;2082704833808</title>
<path fill="none" stroke="black" d="M997.66,-293.95C1040.66,-290.59 1128.57,-283.72 1201.28,-278.04"/>
</g>
<!-- 2082704824640 -->
<g id="node56" class="node">
<title>2082704824640</title>
<ellipse fill="none" stroke="black" cx="1317.93" cy="-215" rx="167.02" ry="18"/>
<text text-anchor="middle" x="1317.93" y="-209" font-family="Times New Roman,serif" font-size="15.00">note senddate for letter to stakeholders</text>
</g>
<!-- 2082704902768&#45;&#45;2082704824640 -->
<g id="edge51" class="edge">
<title>2082704902768&#45;&#45;2082704824640</title>
<path fill="none" stroke="black" d="M996.26,-290.17C1047.86,-278.08 1168.29,-249.84 1245.99,-231.63"/>
</g>
<!-- 2082704831984 -->
<g id="node57" class="node">
<title>2082704831984</title>
<ellipse fill="none" stroke="black" cx="1317.93" cy="-161" rx="146.55" ry="18"/>
<text text-anchor="middle" x="1317.93" y="-155" font-family="Times New Roman,serif" font-size="15.00">send phase to competent authority</text>
</g>
<!-- 2082704902768&#45;&#45;2082704831984 -->
<g id="edge52" class="edge">
<title>2082704902768&#45;&#45;2082704831984</title>
<path fill="none" stroke="black" d="M994.35,-287.04C1050.87,-264.95 1197.64,-207.61 1272.14,-178.5"/>
</g>
<!-- 2082704823392 -->
<g id="node59" class="node">
<title>2082704823392</title>
<ellipse fill="black" stroke="black" cx="970.41" cy="-227" rx="2.7" ry="2.7"/>
</g>
<!-- 2082704914960&#45;&#45;2082704823392 -->
<g id="edge55" class="edge">
<title>2082704914960&#45;&#45;2082704823392</title>
<path fill="none" stroke="black" d="M702.85,-227C770.78,-227 948.48,-227 967.71,-227"/>
</g>
<!-- 2082704818496 -->
<g id="node60" class="node">
<title>2082704818496</title>
<ellipse fill="none" stroke="black" cx="970.41" cy="-107" rx="27" ry="18"/>
<text text-anchor="middle" x="970.41" y="-101" font-family="Times New Roman,serif" font-size="15.00">seq</text>
</g>
<!-- 2082704914960&#45;&#45;2082704818496 -->
<g id="edge64" class="edge">
<title>2082704914960&#45;&#45;2082704818496</title>
<path fill="none" stroke="black" d="M699.09,-217.78C753.6,-195.45 892.26,-138.62 946.84,-116.25"/>
</g>
<!-- 2082704830352 -->
<g id="node61" class="node">
<title>2082704830352</title>
<ellipse fill="none" stroke="black" cx="1317.93" cy="-107" rx="27" ry="18"/>
<text text-anchor="middle" x="1317.93" y="-101" font-family="Times New Roman,serif" font-size="15.00">and</text>
</g>
<!-- 2082704818496&#45;&#45;2082704830352 -->
<g id="edge60" class="edge">
<title>2082704818496&#45;&#45;2082704830352</title>
<path fill="none" stroke="black" d="M997.66,-107C1061.92,-107 1226.5,-107 1290.71,-107"/>
</g>
<!-- 2082704828528 -->
<g id="node66" class="node">
<title>2082704828528</title>
<ellipse fill="none" stroke="black" cx="1317.93" cy="-53" rx="27" ry="18"/>
<text text-anchor="middle" x="1317.93" y="-47" font-family="Times New Roman,serif" font-size="15.00">xor</text>
</g>
<!-- 2082704818496&#45;&#45;2082704828528 -->
<g id="edge63" class="edge">
<title>2082704818496&#45;&#45;2082704828528</title>
<path fill="none" stroke="black" d="M997.1,-102.99C1061.22,-92.96 1227.74,-66.94 1291.54,-56.97"/>
</g>
<!-- 2082704824544 -->
<g id="node62" class="node">
<title>2082704824544</title>
<ellipse fill="none" stroke="black" cx="1676.71" cy="-157" rx="27" ry="18"/>
<text text-anchor="middle" x="1676.71" y="-151" font-family="Times New Roman,serif" font-size="15.00">xor</text>
</g>
<!-- 2082704830352&#45;&#45;2082704824544 -->
<g id="edge58" class="edge">
<title>2082704830352&#45;&#45;2082704824544</title>
<path fill="none" stroke="black" d="M1344.87,-110.64C1410.78,-119.87 1584.06,-144.16 1649.86,-153.38"/>
</g>
<!-- 2082704831072 -->
<g id="node65" class="node">
<title>2082704831072</title>
<ellipse fill="none" stroke="black" cx="1676.71" cy="-103" rx="111.23" ry="18"/>
<text text-anchor="middle" x="1676.71" y="-97" font-family="Times New Roman,serif" font-size="15.00">Phase procedure aborted</text>
</g>
<!-- 2082704830352&#45;&#45;2082704831072 -->
<g id="edge59" class="edge">
<title>2082704830352&#45;&#45;2082704831072</title>
<path fill="none" stroke="black" d="M1345.16,-106.71C1391.03,-106.19 1488.25,-105.1 1565.45,-104.24"/>
</g>
<!-- 2082704824976 -->
<g id="node63" class="node">
<title>2082704824976</title>
<ellipse fill="black" stroke="black" cx="2024.74" cy="-176" rx="2.7" ry="2.7"/>
</g>
<!-- 2082704824544&#45;&#45;2082704824976 -->
<g id="edge56" class="edge">
<title>2082704824544&#45;&#45;2082704824976</title>
<path fill="none" stroke="black" d="M1704,-158.44C1780.34,-162.64 1998.08,-174.59 2021.66,-175.89"/>
</g>
<!-- 2082704825312 -->
<g id="node64" class="node">
<title>2082704825312</title>
<ellipse fill="none" stroke="black" cx="2024.74" cy="-137" rx="81.04" ry="18"/>
<text text-anchor="middle" x="2024.74" y="-131" font-family="Times New Roman,serif" font-size="15.00">Register due date</text>
</g>
<!-- 2082704824544&#45;&#45;2082704825312 -->
<g id="edge57" class="edge">
<title>2082704824544&#45;&#45;2082704825312</title>
<path fill="none" stroke="black" d="M1704,-155.48C1754.94,-152.54 1868.86,-145.95 1946.02,-141.49"/>
</g>
<!-- 2082704832464 -->
<g id="node67" class="node">
<title>2082704832464</title>
<ellipse fill="black" stroke="black" cx="1676.71" cy="-57" rx="2.7" ry="2.7"/>
</g>
<!-- 2082704828528&#45;&#45;2082704832464 -->
<g id="edge61" class="edge">
<title>2082704828528&#45;&#45;2082704832464</title>
<path fill="none" stroke="black" d="M1345.16,-53.29C1423.05,-54.17 1649.06,-56.7 1673.55,-56.98"/>
</g>
<!-- 2082704823440 -->
<g id="node68" class="node">
<title>2082704823440</title>
<ellipse fill="none" stroke="black" cx="1676.71" cy="-18" rx="69.78" ry="18"/>
<text text-anchor="middle" x="1676.71" y="-12" font-family="Times New Roman,serif" font-size="15.00">Conclude case</text>
</g>
<!-- 2082704828528&#45;&#45;2082704823440 -->
<g id="edge62" class="edge">
<title>2082704828528&#45;&#45;2082704823440</title>
<path fill="none" stroke="black" d="M1344.87,-50.45C1400.2,-45.03 1531.18,-32.18 1610.74,-24.37"/>
</g>
</g>
</svg>
