<?xml version="1.0" encoding="UTF-8" standalone="no"?>
<!DOCTYPE svg PUBLIC "-//W3C//DTD SVG 1.1//EN"
 "http://www.w3.org/Graphics/SVG/1.1/DTD/svg11.dtd">
<!-- Generated by graphviz version 11.0.0 (20240428.1522)
 -->
<!-- Title: pt Pages: 1 -->
<svg width="1818pt" height="978pt"
 viewBox="0.00 0.00 1818.03 978.00" xmlns="http://www.w3.org/2000/svg" xmlns:xlink="http://www.w3.org/1999/xlink">
<g id="graph0" class="graph" transform="scale(1 1) rotate(0) translate(4 974)">
<title>pt</title>
<polygon fill="white" stroke="none" points="-4,4 -4,-974 1814.03,-974 1814.03,4 -4,4"/>
<!-- 2082700714608 -->
<g id="node1" class="node">
<title>2082700714608</title>
<ellipse fill="none" stroke="black" cx="27" cy="-654" rx="27" ry="18"/>
<text text-anchor="middle" x="27" y="-648" font-family="Times New Roman,serif" font-size="15.00">seq</text>
</g>
<!-- 2082700722144 -->
<g id="node2" class="node">
<title>2082700722144</title>
<ellipse fill="none" stroke="black" cx="219.66" cy="-735" rx="129.66" ry="18"/>
<text text-anchor="middle" x="219.66" y="-729" font-family="Times New Roman,serif" font-size="15.00">Input submission date request</text>
</g>
<!-- 2082700714608&#45;&#45;2082700722144 -->
<g id="edge1" class="edge">
<title>2082700714608&#45;&#45;2082700722144</title>
<path fill="none" stroke="black" d="M50.24,-663.45C81.38,-676.68 138.52,-700.95 177.53,-717.53"/>
</g>
<!-- 2082700717680 -->
<g id="node3" class="node">
<title>2082700717680</title>
<ellipse fill="none" stroke="black" cx="219.66" cy="-681" rx="93.32" ry="18"/>
<text text-anchor="middle" x="219.66" y="-675" font-family="Times New Roman,serif" font-size="15.00">OLO messaging live</text>
</g>
<!-- 2082700714608&#45;&#45;2082700717680 -->
<g id="edge2" class="edge">
<title>2082700714608&#45;&#45;2082700717680</title>
<path fill="none" stroke="black" d="M53.71,-657.64C76.68,-660.89 111.51,-665.83 143.26,-670.32"/>
</g>
<!-- 2082706563168 -->
<g id="node4" class="node">
<title>2082706563168</title>
<ellipse fill="none" stroke="black" cx="219.66" cy="-627" rx="27" ry="18"/>
<text text-anchor="middle" x="219.66" y="-621" font-family="Times New Roman,serif" font-size="15.00">and</text>
</g>
<!-- 2082700714608&#45;&#45;2082706563168 -->
<g id="edge30" class="edge">
<title>2082700714608&#45;&#45;2082706563168</title>
<path fill="none" stroke="black" d="M53.71,-650.36C90.1,-645.21 156.25,-635.84 192.74,-630.67"/>
</g>
<!-- 2082700712400 -->
<g id="node32" class="node">
<title>2082700712400</title>
<ellipse fill="none" stroke="black" cx="219.66" cy="-411" rx="27" ry="18"/>
<text text-anchor="middle" x="219.66" y="-405" font-family="Times New Roman,serif" font-size="15.00">xor</text>
</g>
<!-- 2082700714608&#45;&#45;2082700712400 -->
<g id="edge54" class="edge">
<title>2082700714608&#45;&#45;2082700712400</title>
<path fill="none" stroke="black" d="M40.51,-638.06C75.06,-594.03 171.5,-471.1 206.1,-427"/>
</g>
<!-- 2082706565280 -->
<g id="node5" class="node">
<title>2082706565280</title>
<ellipse fill="none" stroke="black" cx="516.51" cy="-681" rx="131.19" ry="18"/>
<text text-anchor="middle" x="516.51" y="-675" font-family="Times New Roman,serif" font-size="15.00">Phase of application received</text>
</g>
<!-- 2082706563168&#45;&#45;2082706565280 -->
<g id="edge3" class="edge">
<title>2082706563168&#45;&#45;2082706565280</title>
<path fill="none" stroke="black" d="M246.05,-631.65C287.75,-639.29 372.41,-654.79 435.77,-666.4"/>
</g>
<!-- 2082706560672 -->
<g id="node6" class="node">
<title>2082706560672</title>
<ellipse fill="none" stroke="black" cx="516.51" cy="-627" rx="27" ry="18"/>
<text text-anchor="middle" x="516.51" y="-621" font-family="Times New Roman,serif" font-size="15.00">seq</text>
</g>
<!-- 2082706563168&#45;&#45;2082706560672 -->
<g id="edge29" class="edge">
<title>2082706563168&#45;&#45;2082706560672</title>
<path fill="none" stroke="black" d="M247.08,-627C303.06,-627 433.02,-627 489.04,-627"/>
</g>
<!-- 2082706555488 -->
<g id="node7" class="node">
<title>2082706555488</title>
<ellipse fill="none" stroke="black" cx="849.7" cy="-867" rx="27" ry="18"/>
<text text-anchor="middle" x="849.7" y="-861" font-family="Times New Roman,serif" font-size="15.00">and</text>
</g>
<!-- 2082706560672&#45;&#45;2082706555488 -->
<g id="edge10" class="edge">
<title>2082706560672&#45;&#45;2082706555488</title>
<path fill="none" stroke="black" d="M535.32,-639.9C592.82,-681.58 773.17,-812.27 830.81,-854.03"/>
</g>
<!-- 2082706569120 -->
<g id="node14" class="node">
<title>2082706569120</title>
<ellipse fill="none" stroke="black" cx="849.7" cy="-789" rx="27" ry="18"/>
<text text-anchor="middle" x="849.7" y="-783" font-family="Times New Roman,serif" font-size="15.00">xor</text>
</g>
<!-- 2082706560672&#45;&#45;2082706569120 -->
<g id="edge14" class="edge">
<title>2082706560672&#45;&#45;2082706569120</title>
<path fill="none" stroke="black" d="M538.98,-637.5C598.9,-666.81 767.42,-749.24 827.27,-778.52"/>
</g>
<!-- 2082706566624 -->
<g id="node18" class="node">
<title>2082706566624</title>
<ellipse fill="none" stroke="black" cx="849.7" cy="-735" rx="151.15" ry="18"/>
<text text-anchor="middle" x="849.7" y="-729" font-family="Times New Roman,serif" font-size="15.00">Transfer to the competent authority</text>
</g>
<!-- 2082706560672&#45;&#45;2082706566624 -->
<g id="edge15" class="edge">
<title>2082706560672&#45;&#45;2082706566624</title>
<path fill="none" stroke="black" d="M541.33,-634.77C594.28,-652.03 722.82,-693.95 795.8,-717.75"/>
</g>
<!-- 2082706556112 -->
<g id="node19" class="node">
<title>2082706556112</title>
<ellipse fill="none" stroke="black" cx="849.7" cy="-681" rx="27" ry="18"/>
<text text-anchor="middle" x="849.7" y="-675" font-family="Times New Roman,serif" font-size="15.00">and</text>
</g>
<!-- 2082706560672&#45;&#45;2082706556112 -->
<g id="edge20" class="edge">
<title>2082706560672&#45;&#45;2082706556112</title>
<path fill="none" stroke="black" d="M543.22,-631.19C605.08,-641.28 761.62,-666.8 823.23,-676.85"/>
</g>
<!-- 2082706569504 -->
<g id="node24" class="node">
<title>2082706569504</title>
<ellipse fill="none" stroke="black" cx="849.7" cy="-627" rx="51.35" ry="18"/>
<text text-anchor="middle" x="849.7" y="-621" font-family="Times New Roman,serif" font-size="15.00">Distribute</text>
</g>
<!-- 2082706560672&#45;&#45;2082706569504 -->
<g id="edge21" class="edge">
<title>2082706560672&#45;&#45;2082706569504</title>
<path fill="none" stroke="black" d="M543.77,-627C598.7,-627 726.51,-627 798,-627"/>
</g>
<!-- 2082706560000 -->
<g id="node25" class="node">
<title>2082706560000</title>
<ellipse fill="none" stroke="black" cx="849.7" cy="-573" rx="127.61" ry="18"/>
<text text-anchor="middle" x="849.7" y="-567" font-family="Times New Roman,serif" font-size="15.00">Form subcases completeness</text>
</g>
<!-- 2082706560672&#45;&#45;2082706560000 -->
<g id="edge22" class="edge">
<title>2082706560672&#45;&#45;2082706560000</title>
<path fill="none" stroke="black" d="M543.22,-622.81C590.11,-615.16 691.4,-598.65 764.51,-586.73"/>
</g>
<!-- 2082706563744 -->
<g id="node26" class="node">
<title>2082706563744</title>
<ellipse fill="none" stroke="black" cx="849.7" cy="-519" rx="83.08" ry="18"/>
<text text-anchor="middle" x="849.7" y="-513" font-family="Times New Roman,serif" font-size="15.00">Amend procedure</text>
</g>
<!-- 2082706560672&#45;&#45;2082706563744 -->
<g id="edge23" class="edge">
<title>2082706560672&#45;&#45;2082706563744</title>
<path fill="none" stroke="black" d="M541.33,-619.23C595.83,-601.46 730.45,-557.56 802.1,-534.2"/>
</g>
<!-- 2082706566816 -->
<g id="node27" class="node">
<title>2082706566816</title>
<ellipse fill="none" stroke="black" cx="849.7" cy="-465" rx="27" ry="18"/>
<text text-anchor="middle" x="849.7" y="-459" font-family="Times New Roman,serif" font-size="15.00">and</text>
</g>
<!-- 2082706560672&#45;&#45;2082706566816 -->
<g id="edge28" class="edge">
<title>2082706560672&#45;&#45;2082706566816</title>
<path fill="none" stroke="black" d="M538.98,-616.5C598.9,-587.19 767.42,-504.76 827.27,-475.48"/>
</g>
<!-- 2082706556736 -->
<g id="node8" class="node">
<title>2082706556736</title>
<ellipse fill="none" stroke="black" cx="1195.68" cy="-921" rx="45.21" ry="18"/>
<text text-anchor="middle" x="1195.68" y="-915" font-family="Times New Roman,serif" font-size="15.00">xor loop</text>
</g>
<!-- 2082706555488&#45;&#45;2082706556736 -->
<g id="edge6" class="edge">
<title>2082706555488&#45;&#45;2082706556736</title>
<path fill="none" stroke="black" d="M876.27,-871.01C935.21,-880.27 1081.02,-903.16 1153.05,-914.46"/>
</g>
<!-- 2082706559616 -->
<g id="node11" class="node">
<title>2082706559616</title>
<ellipse fill="none" stroke="black" cx="1195.68" cy="-867" rx="27" ry="18"/>
<text text-anchor="middle" x="1195.68" y="-861" font-family="Times New Roman,serif" font-size="15.00">xor</text>
</g>
<!-- 2082706555488&#45;&#45;2082706559616 -->
<g id="edge9" class="edge">
<title>2082706555488&#45;&#45;2082706559616</title>
<path fill="none" stroke="black" d="M877.12,-867C941.31,-867 1104.85,-867 1168.64,-867"/>
</g>
<!-- 2082706560624 -->
<g id="node9" class="node">
<title>2082706560624</title>
<ellipse fill="none" stroke="black" cx="1592.85" cy="-952" rx="127.61" ry="18"/>
<text text-anchor="middle" x="1592.85" y="-946" font-family="Times New Roman,serif" font-size="15.00">Provide confirmation receipt</text>
</g>
<!-- 2082706556736&#45;&#45;2082706560624 -->
<g id="edge4" class="edge">
<title>2082706556736&#45;&#45;2082706560624</title>
<path fill="none" stroke="black" d="M1240.48,-924.44C1297.86,-928.94 1400.5,-936.99 1480.08,-943.23"/>
</g>
<!-- 2082706566912 -->
<g id="node10" class="node">
<title>2082706566912</title>
<ellipse fill="black" stroke="black" cx="1592.85" cy="-913" rx="2.7" ry="2.7"/>
</g>
<!-- 2082706556736&#45;&#45;2082706566912 -->
<g id="edge5" class="edge">
<title>2082706556736&#45;&#45;2082706566912</title>
<path fill="none" stroke="black" d="M1241.25,-920.1C1338.94,-918.12 1565.24,-913.54 1589.7,-913.04"/>
</g>
<!-- 2082706567056 -->
<g id="node12" class="node">
<title>2082706567056</title>
<ellipse fill="black" stroke="black" cx="1592.85" cy="-875" rx="2.7" ry="2.7"/>
</g>
<!-- 2082706559616&#45;&#45;2082706567056 -->
<g id="edge7" class="edge">
<title>2082706559616&#45;&#45;2082706567056</title>
<path fill="none" stroke="black" d="M1222.92,-867.53C1306.7,-869.23 1563.84,-874.43 1589.74,-874.96"/>
</g>
<!-- 2082706559712 -->
<g id="node13" class="node">
<title>2082706559712</title>
<ellipse fill="none" stroke="black" cx="1592.85" cy="-836" rx="147.06" ry="18"/>
<text text-anchor="middle" x="1592.85" y="-830" font-family="Times New Roman,serif" font-size="15.00">Applicant considered stakeholder</text>
</g>
<!-- 2082706559616&#45;&#45;2082706559712 -->
<g id="edge8" class="edge">
<title>2082706559616&#45;&#45;2082706559712</title>
<path fill="none" stroke="black" d="M1222.92,-864.94C1272.05,-861.09 1380.79,-852.56 1467.57,-845.75"/>
</g>
<!-- 2082706561392 -->
<g id="node15" class="node">
<title>2082706561392</title>
<ellipse fill="black" stroke="black" cx="1195.68" cy="-828" rx="2.7" ry="2.7"/>
</g>
<!-- 2082706569120&#45;&#45;2082706561392 -->
<g id="edge11" class="edge">
<title>2082706569120&#45;&#45;2082706561392</title>
<path fill="none" stroke="black" d="M876.84,-791.96C952.72,-800.57 1169.17,-825.11 1192.62,-827.77"/>
</g>
<!-- 2082706559376 -->
<g id="node16" class="node">
<title>2082706559376</title>
<ellipse fill="none" stroke="black" cx="1195.68" cy="-789" rx="79.5" ry="18"/>
<text text-anchor="middle" x="1195.68" y="-783" font-family="Times New Roman,serif" font-size="15.00">Cease on request</text>
</g>
<!-- 2082706569120&#45;&#45;2082706559376 -->
<g id="edge12" class="edge">
<title>2082706569120&#45;&#45;2082706559376</title>
<path fill="none" stroke="black" d="M877.12,-789C927.54,-789 1039.27,-789 1115.8,-789"/>
</g>
<!-- 2082706564272 -->
<g id="node17" class="node">
<title>2082706564272</title>
<ellipse fill="none" stroke="black" cx="1195.68" cy="-735" rx="121.47" ry="18"/>
<text text-anchor="middle" x="1195.68" y="-729" font-family="Times New Roman,serif" font-size="15.00">Assess provisional charges</text>
</g>
<!-- 2082706569120&#45;&#45;2082706564272 -->
<g id="edge13" class="edge">
<title>2082706569120&#45;&#45;2082706564272</title>
<path fill="none" stroke="black" d="M876.27,-784.99C925.16,-777.31 1033.85,-760.25 1110.59,-748.2"/>
</g>
<!-- 2082706569408 -->
<g id="node20" class="node">
<title>2082706569408</title>
<ellipse fill="none" stroke="black" cx="1195.68" cy="-681" rx="27" ry="18"/>
<text text-anchor="middle" x="1195.68" y="-675" font-family="Times New Roman,serif" font-size="15.00">xor</text>
</g>
<!-- 2082706556112&#45;&#45;2082706569408 -->
<g id="edge18" class="edge">
<title>2082706556112&#45;&#45;2082706569408</title>
<path fill="none" stroke="black" d="M877.12,-681C941.31,-681 1104.85,-681 1168.64,-681"/>
</g>
<!-- 2082706558368 -->
<g id="node23" class="node">
<title>2082706558368</title>
<ellipse fill="none" stroke="black" cx="1195.68" cy="-627" rx="142.45" ry="18"/>
<text text-anchor="middle" x="1195.68" y="-621" font-family="Times New Roman,serif" font-size="15.00">Routine procedure without MER</text>
</g>
<!-- 2082706556112&#45;&#45;2082706558368 -->
<g id="edge19" class="edge">
<title>2082706556112&#45;&#45;2082706558368</title>
<path fill="none" stroke="black" d="M876.27,-676.99C923.84,-669.52 1028.01,-653.17 1104.29,-641.19"/>
</g>
<!-- 2082706564320 -->
<g id="node21" class="node">
<title>2082706564320</title>
<ellipse fill="black" stroke="black" cx="1592.85" cy="-701" rx="2.7" ry="2.7"/>
</g>
<!-- 2082706569408&#45;&#45;2082706564320 -->
<g id="edge16" class="edge">
<title>2082706569408&#45;&#45;2082706564320</title>
<path fill="none" stroke="black" d="M1222.92,-682.33C1306.7,-686.57 1563.84,-699.58 1589.74,-700.89"/>
</g>
<!-- 2082706559904 -->
<g id="node22" class="node">
<title>2082706559904</title>
<ellipse fill="none" stroke="black" cx="1592.85" cy="-662" rx="129.15" ry="18"/>
<text text-anchor="middle" x="1592.85" y="-656" font-family="Times New Roman,serif" font-size="15.00">Draft procedure confirmation</text>
</g>
<!-- 2082706569408&#45;&#45;2082706559904 -->
<g id="edge17" class="edge">
<title>2082706569408&#45;&#45;2082706559904</title>
<path fill="none" stroke="black" d="M1222.92,-679.74C1272.56,-677.35 1383.09,-672.04 1470.3,-667.84"/>
</g>
<!-- 2082706560288 -->
<g id="node28" class="node">
<title>2082706560288</title>
<ellipse fill="none" stroke="black" cx="1195.68" cy="-504" rx="27" ry="18"/>
<text text-anchor="middle" x="1195.68" y="-498" font-family="Times New Roman,serif" font-size="15.00">xor</text>
</g>
<!-- 2082706566816&#45;&#45;2082706560288 -->
<g id="edge26" class="edge">
<title>2082706566816&#45;&#45;2082706560288</title>
<path fill="none" stroke="black" d="M876.84,-467.96C940.8,-475.22 1104.66,-493.79 1168.59,-501.04"/>
</g>
<!-- 2082706566432 -->
<g id="node31" class="node">
<title>2082706566432</title>
<ellipse fill="none" stroke="black" cx="1195.68" cy="-450" rx="143.99" ry="18"/>
<text text-anchor="middle" x="1195.68" y="-444" font-family="Times New Roman,serif" font-size="15.00">Transmit procedure confirmation</text>
</g>
<!-- 2082706566816&#45;&#45;2082706566432 -->
<g id="edge27" class="edge">
<title>2082706566816&#45;&#45;2082706566432</title>
<path fill="none" stroke="black" d="M877.12,-463.85C916.06,-462.15 991.56,-458.86 1059.17,-455.91"/>
</g>
<!-- 2082706560096 -->
<g id="node29" class="node">
<title>2082706560096</title>
<ellipse fill="black" stroke="black" cx="1592.85" cy="-543" rx="2.7" ry="2.7"/>
</g>
<!-- 2082706560288&#45;&#45;2082706560096 -->
<g id="edge24" class="edge">
<title>2082706560288&#45;&#45;2082706560096</title>
<path fill="none" stroke="black" d="M1222.61,-506.56C1306.06,-514.79 1563.78,-540.23 1589.74,-542.79"/>
</g>
<!-- 2082706557504 -->
<g id="node30" class="node">
<title>2082706557504</title>
<ellipse fill="none" stroke="black" cx="1592.85" cy="-504" rx="112.77" ry="18"/>
<text text-anchor="middle" x="1592.85" y="-498" font-family="Times New Roman,serif" font-size="15.00">Initiate WABOprocedure</text>
</g>
<!-- 2082706560288&#45;&#45;2082706557504 -->
<g id="edge25" class="edge">
<title>2082706560288&#45;&#45;2082706557504</title>
<path fill="none" stroke="black" d="M1222.92,-504C1274.37,-504 1391.23,-504 1479.74,-504"/>
</g>
<!-- 2082706556784 -->
<g id="node33" class="node">
<title>2082706556784</title>
<ellipse fill="none" stroke="black" cx="516.51" cy="-438" rx="61.08" ry="18"/>
<text text-anchor="middle" x="516.51" y="-432" font-family="Times New Roman,serif" font-size="15.00">case closure</text>
</g>
<!-- 2082700712400&#45;&#45;2082706556784 -->
<g id="edge31" class="edge">
<title>2082700712400&#45;&#45;2082706556784</title>
<path fill="none" stroke="black" d="M246.82,-413.4C293.9,-417.71 393.89,-426.86 457.73,-432.71"/>
</g>
<!-- 2082706556592 -->
<g id="node34" class="node">
<title>2082706556592</title>
<ellipse fill="none" stroke="black" cx="516.51" cy="-384" rx="27" ry="18"/>
<text text-anchor="middle" x="516.51" y="-378" font-family="Times New Roman,serif" font-size="15.00">seq</text>
</g>
<!-- 2082700712400&#45;&#45;2082706556592 -->
<g id="edge36" class="edge">
<title>2082700712400&#45;&#45;2082706556592</title>
<path fill="none" stroke="black" d="M246.82,-408.6C302.78,-403.48 433.5,-391.51 489.4,-386.39"/>
</g>
<!-- 2082706567824 -->
<g id="node39" class="node">
<title>2082706567824</title>
<ellipse fill="none" stroke="black" cx="516.51" cy="-257" rx="27" ry="18"/>
<text text-anchor="middle" x="516.51" y="-251" font-family="Times New Roman,serif" font-size="15.00">seq</text>
</g>
<!-- 2082700712400&#45;&#45;2082706567824 -->
<g id="edge53" class="edge">
<title>2082700712400&#45;&#45;2082706567824</title>
<path fill="none" stroke="black" d="M241.39,-400.17C295.53,-371.9 440.69,-296.08 494.8,-267.82"/>
</g>
<!-- 2082706563552 -->
<g id="node35" class="node">
<title>2082706563552</title>
<ellipse fill="none" stroke="black" cx="849.7" cy="-411" rx="166" ry="18"/>
<text text-anchor="middle" x="849.7" y="-405" font-family="Times New Roman,serif" font-size="15.00">Input senddate procedure confirmation</text>
</g>
<!-- 2082706556592&#45;&#45;2082706563552 -->
<g id="edge32" class="edge">
<title>2082706556592&#45;&#45;2082706563552</title>
<path fill="none" stroke="black" d="M543.77,-386.14C580.95,-389.17 651.53,-394.93 715.42,-400.13"/>
</g>
<!-- 2082706563408 -->
<g id="node36" class="node">
<title>2082706563408</title>
<ellipse fill="none" stroke="black" cx="849.7" cy="-357" rx="27" ry="18"/>
<text text-anchor="middle" x="849.7" y="-351" font-family="Times New Roman,serif" font-size="15.00">xor</text>
</g>
<!-- 2082706556592&#45;&#45;2082706563408 -->
<g id="edge35" class="edge">
<title>2082706556592&#45;&#45;2082706563408</title>
<path fill="none" stroke="black" d="M543.77,-381.86C605.74,-376.81 760.47,-364.19 822.43,-359.14"/>
</g>
<!-- 2082706570464 -->
<g id="node37" class="node">
<title>2082706570464</title>
<ellipse fill="black" stroke="black" cx="1195.68" cy="-396" rx="2.7" ry="2.7"/>
</g>
<!-- 2082706563408&#45;&#45;2082706570464 -->
<g id="edge33" class="edge">
<title>2082706563408&#45;&#45;2082706570464</title>
<path fill="none" stroke="black" d="M876.84,-359.96C952.72,-368.57 1169.17,-393.11 1192.62,-395.77"/>
</g>
<!-- 2082706570128 -->
<g id="node38" class="node">
<title>2082706570128</title>
<ellipse fill="none" stroke="black" cx="1195.68" cy="-357" rx="118.91" ry="18"/>
<text text-anchor="middle" x="1195.68" y="-351" font-family="Times New Roman,serif" font-size="15.00">Document date publication</text>
</g>
<!-- 2082706563408&#45;&#45;2082706570128 -->
<g id="edge34" class="edge">
<title>2082706563408&#45;&#45;2082706570128</title>
<path fill="none" stroke="black" d="M877.12,-357C919.44,-357 1004.95,-357 1076.58,-357"/>
</g>
<!-- 2082706566288 -->
<g id="node40" class="node">
<title>2082706566288</title>
<ellipse fill="none" stroke="black" cx="849.7" cy="-284" rx="27" ry="18"/>
<text text-anchor="middle" x="849.7" y="-278" font-family="Times New Roman,serif" font-size="15.00">xor</text>
</g>
<!-- 2082706567824&#45;&#45;2082706566288 -->
<g id="edge48" class="edge">
<title>2082706567824&#45;&#45;2082706566288</title>
<path fill="none" stroke="black" d="M543.77,-259.14C605.74,-264.19 760.47,-276.81 822.43,-281.86"/>
</g>
<!-- 2082706564800 -->
<g id="node52" class="node">
<title>2082706564800</title>
<ellipse fill="none" stroke="black" cx="849.7" cy="-230" rx="111.23" ry="18"/>
<text text-anchor="middle" x="849.7" y="-224" font-family="Times New Roman,serif" font-size="15.00">Phase procedure aborted</text>
</g>
<!-- 2082706567824&#45;&#45;2082706564800 -->
<g id="edge49" class="edge">
<title>2082706567824&#45;&#45;2082706564800</title>
<path fill="none" stroke="black" d="M543.77,-254.86C587.76,-251.27 678.49,-243.88 749.61,-238.08"/>
</g>
<!-- 2082706563312 -->
<g id="node53" class="node">
<title>2082706563312</title>
<ellipse fill="none" stroke="black" cx="849.7" cy="-141" rx="27" ry="18"/>
<text text-anchor="middle" x="849.7" y="-135" font-family="Times New Roman,serif" font-size="15.00">xor</text>
</g>
<!-- 2082706567824&#45;&#45;2082706563312 -->
<g id="edge52" class="edge">
<title>2082706567824&#45;&#45;2082706563312</title>
<path fill="none" stroke="black" d="M541.06,-248.75C602.1,-227.37 764.84,-170.37 825.49,-149.13"/>
</g>
<!-- 2082706557312 -->
<g id="node41" class="node">
<title>2082706557312</title>
<ellipse fill="none" stroke="black" cx="1195.68" cy="-303" rx="27" ry="18"/>
<text text-anchor="middle" x="1195.68" y="-297" font-family="Times New Roman,serif" font-size="15.00">and</text>
</g>
<!-- 2082706566288&#45;&#45;2082706557312 -->
<g id="edge41" class="edge">
<title>2082706566288&#45;&#45;2082706557312</title>
<path fill="none" stroke="black" d="M876.84,-285.44C940.8,-288.98 1104.66,-298.03 1168.59,-301.56"/>
</g>
<!-- 2082706567776 -->
<g id="node46" class="node">
<title>2082706567776</title>
<ellipse fill="none" stroke="black" cx="1195.68" cy="-180" rx="27" ry="18"/>
<text text-anchor="middle" x="1195.68" y="-174" font-family="Times New Roman,serif" font-size="15.00">seq</text>
</g>
<!-- 2082706566288&#45;&#45;2082706567776 -->
<g id="edge47" class="edge">
<title>2082706566288&#45;&#45;2082706567776</title>
<path fill="none" stroke="black" d="M874.89,-276.69C938.05,-257.59 1107.39,-206.39 1170.52,-187.3"/>
</g>
<!-- 2082706561200 -->
<g id="node42" class="node">
<title>2082706561200</title>
<ellipse fill="none" stroke="black" cx="1592.85" cy="-450" rx="191.08" ry="18"/>
<text text-anchor="middle" x="1592.85" y="-444" font-family="Times New Roman,serif" font-size="15.00">No permit needed or just notification needed</text>
</g>
<!-- 2082706557312&#45;&#45;2082706561200 -->
<g id="edge37" class="edge">
<title>2082706557312&#45;&#45;2082706561200</title>
<path fill="none" stroke="black" d="M1219.93,-311.65C1283.04,-335.13 1458.59,-400.43 1543.98,-432.19"/>
</g>
<!-- 2082706566336 -->
<g id="node43" class="node">
<title>2082706566336</title>
<ellipse fill="none" stroke="black" cx="1592.85" cy="-396" rx="173.67" ry="18"/>
<text text-anchor="middle" x="1592.85" y="-390" font-family="Times New Roman,serif" font-size="15.00">draft letter indicating no permit required</text>
</g>
<!-- 2082706557312&#45;&#45;2082706566336 -->
<g id="edge38" class="edge">
<title>2082706557312&#45;&#45;2082706566336</title>
<path fill="none" stroke="black" d="M1221.7,-308.89C1280.75,-322.78 1430.53,-358.03 1520.42,-379.19"/>
</g>
<!-- 2082706570416 -->
<g id="node44" class="node">
<title>2082706570416</title>
<ellipse fill="none" stroke="black" cx="1592.85" cy="-342" rx="81.04" ry="18"/>
<text text-anchor="middle" x="1592.85" y="-336" font-family="Times New Roman,serif" font-size="15.00">Register due date</text>
</g>
<!-- 2082706557312&#45;&#45;2082706570416 -->
<g id="edge39" class="edge">
<title>2082706557312&#45;&#45;2082706570416</title>
<path fill="none" stroke="black" d="M1222.61,-305.56C1281.77,-311.4 1428.48,-325.88 1518.15,-334.73"/>
</g>
<!-- 2082706555632 -->
<g id="node45" class="node">
<title>2082706555632</title>
<ellipse fill="none" stroke="black" cx="1592.85" cy="-288" rx="217.18" ry="18"/>
<text text-anchor="middle" x="1592.85" y="-282" font-family="Times New Roman,serif" font-size="15.00">log senddate letter no permit or notification needed</text>
</g>
<!-- 2082706557312&#45;&#45;2082706555632 -->
<g id="edge40" class="edge">
<title>2082706557312&#45;&#45;2082706555632</title>
<path fill="none" stroke="black" d="M1222.92,-302C1258.77,-300.64 1326.38,-298.08 1394.03,-295.51"/>
</g>
<!-- 2082706568064 -->
<g id="node47" class="node">
<title>2082706568064</title>
<ellipse fill="none" stroke="black" cx="1592.85" cy="-234" rx="152.69" ry="18"/>
<text text-anchor="middle" x="1592.85" y="-228" font-family="Times New Roman,serif" font-size="15.00">send request to competent authority</text>
</g>
<!-- 2082706567776&#45;&#45;2082706568064 -->
<g id="edge42" class="edge">
<title>2082706567776&#45;&#45;2082706568064</title>
<path fill="none" stroke="black" d="M1222.61,-183.54C1276.1,-190.85 1401.18,-207.94 1490.93,-220.21"/>
</g>
<!-- 2082706566768 -->
<g id="node48" class="node">
<title>2082706566768</title>
<ellipse fill="none" stroke="black" cx="1592.85" cy="-180" rx="180.33" ry="18"/>
<text text-anchor="middle" x="1592.85" y="-174" font-family="Times New Roman,serif" font-size="15.00">note the senddate for letter to the authority</text>
</g>
<!-- 2082706567776&#45;&#45;2082706566768 -->
<g id="edge43" class="edge">
<title>2082706567776&#45;&#45;2082706566768</title>
<path fill="none" stroke="black" d="M1222.92,-180C1261.96,-180 1338.66,-180 1412.06,-180"/>
</g>
<!-- 2082706560432 -->
<g id="node49" class="node">
<title>2082706560432</title>
<ellipse fill="none" stroke="black" cx="1592.85" cy="-126" rx="133.75" ry="18"/>
<text text-anchor="middle" x="1592.85" y="-120" font-family="Times New Roman,serif" font-size="15.00">send transcript to stakeholders</text>
</g>
<!-- 2082706567776&#45;&#45;2082706560432 -->
<g id="edge44" class="edge">
<title>2082706567776&#45;&#45;2082706560432</title>
<path fill="none" stroke="black" d="M1222.61,-176.46C1277.39,-168.97 1407.24,-151.23 1497.36,-138.91"/>
</g>
<!-- 2082706558944 -->
<g id="node50" class="node">
<title>2082706558944</title>
<ellipse fill="none" stroke="black" cx="1592.85" cy="-72" rx="167.02" ry="18"/>
<text text-anchor="middle" x="1592.85" y="-66" font-family="Times New Roman,serif" font-size="15.00">note senddate for letter to stakeholders</text>
</g>
<!-- 2082706567776&#45;&#45;2082706558944 -->
<g id="edge45" class="edge">
<title>2082706567776&#45;&#45;2082706558944</title>
<path fill="none" stroke="black" d="M1221.11,-173.33C1281.68,-156.77 1440.36,-113.4 1529.24,-89.11"/>
</g>
<!-- 2082706567200 -->
<g id="node51" class="node">
<title>2082706567200</title>
<ellipse fill="none" stroke="black" cx="1592.85" cy="-18" rx="146.55" ry="18"/>
<text text-anchor="middle" x="1592.85" y="-12" font-family="Times New Roman,serif" font-size="15.00">send phase to competent authority</text>
</g>
<!-- 2082706567776&#45;&#45;2082706567200 -->
<g id="edge46" class="edge">
<title>2082706567776&#45;&#45;2082706567200</title>
<path fill="none" stroke="black" d="M1219.35,-170.71C1283.23,-144.52 1465.49,-69.8 1549.05,-35.54"/>
</g>
<!-- 2082706555440 -->
<g id="node54" class="node">
<title>2082706555440</title>
<ellipse fill="black" stroke="black" cx="1195.68" cy="-141" rx="2.7" ry="2.7"/>
</g>
<!-- 2082706563312&#45;&#45;2082706555440 -->
<g id="edge50" class="edge">
<title>2082706563312&#45;&#45;2082706555440</title>
<path fill="none" stroke="black" d="M877.12,-141C953.26,-141 1169.23,-141 1192.62,-141"/>
</g>
<!-- 2082706566528 -->
<g id="node55" class="node">
<title>2082706566528</title>
<ellipse fill="none" stroke="black" cx="1195.68" cy="-102" rx="69.78" ry="18"/>
<text text-anchor="middle" x="1195.68" y="-96" font-family="Times New Roman,serif" font-size="15.00">Conclude case</text>
</g>
<!-- 2082706563312&#45;&#45;2082706566528 -->
<g id="edge51" class="edge">
<title>2082706563312&#45;&#45;2082706566528</title>
<path fill="none" stroke="black" d="M876.84,-138.04C930.61,-131.94 1054.99,-117.84 1131.23,-109.19"/>
</g>
</g>
</svg>
