<?xml version="1.0" encoding="UTF-8" standalone="no"?>
<!DOCTYPE svg PUBLIC "-//W3C//DTD SVG 1.1//EN"
 "http://www.w3.org/Graphics/SVG/1.1/DTD/svg11.dtd">
<!-- Generated by graphviz version 11.0.0 (20240428.1522)
 -->
<!-- Title: pt Pages: 1 -->
<svg width="3605pt" height="629pt"
 viewBox="0.00 0.00 3604.69 628.70" xmlns="http://www.w3.org/2000/svg" xmlns:xlink="http://www.w3.org/1999/xlink">
<g id="graph0" class="graph" transform="scale(1 1) rotate(0) translate(4 624.7)">
<title>pt</title>
<polygon fill="white" stroke="none" points="-4,4 -4,-624.7 3600.69,-624.7 3600.69,4 -4,4"/>
<!-- 2082700718016 -->
<g id="node1" class="node">
<title>2082700718016</title>
<ellipse fill="none" stroke="black" cx="27" cy="-453" rx="27" ry="18"/>
<text text-anchor="middle" x="27" y="-447" font-family="Times New Roman,serif" font-size="15.00">seq</text>
</g>
<!-- 2082700709904 -->
<g id="node2" class="node">
<title>2082700709904</title>
<ellipse fill="none" stroke="black" cx="219.66" cy="-534" rx="129.66" ry="18"/>
<text text-anchor="middle" x="219.66" y="-528" font-family="Times New Roman,serif" font-size="15.00">Input submission date request</text>
</g>
<!-- 2082700718016&#45;&#45;2082700709904 -->
<g id="edge1" class="edge">
<title>2082700718016&#45;&#45;2082700709904</title>
<path fill="none" stroke="black" d="M50.24,-462.45C81.38,-475.68 138.52,-499.95 177.53,-516.53"/>
</g>
<!-- 2082700709424 -->
<g id="node3" class="node">
<title>2082700709424</title>
<ellipse fill="none" stroke="black" cx="219.66" cy="-480" rx="27" ry="18"/>
<text text-anchor="middle" x="219.66" y="-474" font-family="Times New Roman,serif" font-size="15.00">xor</text>
</g>
<!-- 2082700718016&#45;&#45;2082700709424 -->
<g id="edge4" class="edge">
<title>2082700718016&#45;&#45;2082700709424</title>
<path fill="none" stroke="black" d="M53.71,-456.64C90.1,-461.79 156.25,-471.16 192.74,-476.33"/>
</g>
<!-- 2082700711056 -->
<g id="node6" class="node">
<title>2082700711056</title>
<ellipse fill="none" stroke="black" cx="219.66" cy="-426" rx="27" ry="18"/>
<text text-anchor="middle" x="219.66" y="-420" font-family="Times New Roman,serif" font-size="15.00">and</text>
</g>
<!-- 2082700718016&#45;&#45;2082700711056 -->
<g id="edge60" class="edge">
<title>2082700718016&#45;&#45;2082700711056</title>
<path fill="none" stroke="black" d="M53.71,-449.36C90.1,-444.21 156.25,-434.84 192.74,-429.67"/>
</g>
<!-- 2082700717632 -->
<g id="node62" class="node">
<title>2082700717632</title>
<ellipse fill="none" stroke="black" cx="219.66" cy="-275" rx="27" ry="18"/>
<text text-anchor="middle" x="219.66" y="-269" font-family="Times New Roman,serif" font-size="15.00">xor</text>
</g>
<!-- 2082700718016&#45;&#45;2082700717632 -->
<g id="edge77" class="edge">
<title>2082700718016&#45;&#45;2082700717632</title>
<path fill="none" stroke="black" d="M43.6,-438.43C79.44,-404.97 167.32,-322.93 203.11,-289.52"/>
</g>
<!-- 2082700710720 -->
<g id="node4" class="node">
<title>2082700710720</title>
<ellipse fill="black" stroke="black" cx="540.56" cy="-519" rx="2.7" ry="2.7"/>
</g>
<!-- 2082700709424&#45;&#45;2082700710720 -->
<g id="edge2" class="edge">
<title>2082700709424&#45;&#45;2082700710720</title>
<path fill="none" stroke="black" d="M246.49,-483.16C318.25,-491.94 516.24,-516.15 537.67,-518.77"/>
</g>
<!-- 2082700708080 -->
<g id="node5" class="node">
<title>2082700708080</title>
<ellipse fill="none" stroke="black" cx="540.56" cy="-480" rx="93.32" ry="18"/>
<text text-anchor="middle" x="540.56" y="-474" font-family="Times New Roman,serif" font-size="15.00">OLO messaging live</text>
</g>
<!-- 2082700709424&#45;&#45;2082700708080 -->
<g id="edge3" class="edge">
<title>2082700709424&#45;&#45;2082700708080</title>
<path fill="none" stroke="black" d="M247.03,-480C290.38,-480 378.71,-480 447.03,-480"/>
</g>
<!-- 2082700710480 -->
<g id="node7" class="node">
<title>2082700710480</title>
<ellipse fill="none" stroke="black" cx="540.56" cy="-426" rx="131.19" ry="18"/>
<text text-anchor="middle" x="540.56" y="-420" font-family="Times New Roman,serif" font-size="15.00">Phase of application received</text>
</g>
<!-- 2082700711056&#45;&#45;2082700710480 -->
<g id="edge5" class="edge">
<title>2082700711056&#45;&#45;2082700710480</title>
<path fill="none" stroke="black" d="M247.03,-426C282.69,-426 348.81,-426 409.17,-426"/>
</g>
<!-- 2082700717392 -->
<g id="node8" class="node">
<title>2082700717392</title>
<ellipse fill="none" stroke="black" cx="540.56" cy="-372" rx="27" ry="18"/>
<text text-anchor="middle" x="540.56" y="-366" font-family="Times New Roman,serif" font-size="15.00">seq</text>
</g>
<!-- 2082700711056&#45;&#45;2082700717392 -->
<g id="edge59" class="edge">
<title>2082700711056&#45;&#45;2082700717392</title>
<path fill="none" stroke="black" d="M246.22,-421.67C305.93,-411.56 454.05,-386.48 513.88,-376.35"/>
</g>
<!-- 2082705455968 -->
<g id="node9" class="node">
<title>2082705455968</title>
<ellipse fill="none" stroke="black" cx="905.49" cy="-495" rx="27" ry="18"/>
<text text-anchor="middle" x="905.49" y="-489" font-family="Times New Roman,serif" font-size="15.00">and</text>
</g>
<!-- 2082700717392&#45;&#45;2082705455968 -->
<g id="edge44" class="edge">
<title>2082700717392&#45;&#45;2082705455968</title>
<path fill="none" stroke="black" d="M565.1,-379.98C630.75,-402.23 815.42,-464.81 881.01,-487.04"/>
</g>
<!-- 2082705446656 -->
<g id="node48" class="node">
<title>2082705446656</title>
<ellipse fill="none" stroke="black" cx="905.49" cy="-409" rx="27" ry="18"/>
<text text-anchor="middle" x="905.49" y="-403" font-family="Times New Roman,serif" font-size="15.00">xor</text>
</g>
<!-- 2082700717392&#45;&#45;2082705446656 -->
<g id="edge55" class="edge">
<title>2082700717392&#45;&#45;2082705446656</title>
<path fill="none" stroke="black" d="M567.67,-374.66C634.63,-381.49 811.92,-399.56 878.62,-406.36"/>
</g>
<!-- 2082705451360 -->
<g id="node59" class="node">
<title>2082705451360</title>
<ellipse fill="none" stroke="black" cx="905.49" cy="-355" rx="27" ry="18"/>
<text text-anchor="middle" x="905.49" y="-349" font-family="Times New Roman,serif" font-size="15.00">xor</text>
</g>
<!-- 2082700717392&#45;&#45;2082705451360 -->
<g id="edge58" class="edge">
<title>2082700717392&#45;&#45;2082705451360</title>
<path fill="none" stroke="black" d="M567.96,-370.76C635,-367.62 811.26,-359.37 878.19,-356.23"/>
</g>
<!-- 2082705454864 -->
<g id="node10" class="node">
<title>2082705454864</title>
<ellipse fill="none" stroke="black" cx="1281.16" cy="-564" rx="27" ry="18"/>
<text text-anchor="middle" x="1281.16" y="-558" font-family="Times New Roman,serif" font-size="15.00">xor</text>
</g>
<!-- 2082705455968&#45;&#45;2082705454864 -->
<g id="edge8" class="edge">
<title>2082705455968&#45;&#45;2082705454864</title>
<path fill="none" stroke="black" d="M931.88,-499.69C1000.05,-512.28 1186.52,-546.71 1254.73,-559.31"/>
</g>
<!-- 2082705444400 -->
<g id="node13" class="node">
<title>2082705444400</title>
<ellipse fill="none" stroke="black" cx="1281.16" cy="-495" rx="27" ry="18"/>
<text text-anchor="middle" x="1281.16" y="-489" font-family="Times New Roman,serif" font-size="15.00">seq</text>
</g>
<!-- 2082705455968&#45;&#45;2082705444400 -->
<g id="edge43" class="edge">
<title>2082705455968&#45;&#45;2082705444400</title>
<path fill="none" stroke="black" d="M932.76,-495C1001.37,-495 1185.33,-495 1253.91,-495"/>
</g>
<!-- 2082705455536 -->
<g id="node11" class="node">
<title>2082705455536</title>
<ellipse fill="black" stroke="black" cx="1625.61" cy="-603" rx="2.7" ry="2.7"/>
</g>
<!-- 2082705454864&#45;&#45;2082705455536 -->
<g id="edge6" class="edge">
<title>2082705454864&#45;&#45;2082705455536</title>
<path fill="none" stroke="black" d="M1308.18,-566.96C1383.72,-575.57 1599.21,-600.11 1622.55,-602.77"/>
</g>
<!-- 2082705452608 -->
<g id="node12" class="node">
<title>2082705452608</title>
<ellipse fill="none" stroke="black" cx="1625.61" cy="-564" rx="79.5" ry="18"/>
<text text-anchor="middle" x="1625.61" y="-558" font-family="Times New Roman,serif" font-size="15.00">Cease on request</text>
</g>
<!-- 2082705454864&#45;&#45;2082705452608 -->
<g id="edge7" class="edge">
<title>2082705454864&#45;&#45;2082705452608</title>
<path fill="none" stroke="black" d="M1308.46,-564C1358.58,-564 1469.54,-564 1545.72,-564"/>
</g>
<!-- 2082705441760 -->
<g id="node14" class="node">
<title>2082705441760</title>
<ellipse fill="none" stroke="black" cx="1625.61" cy="-510" rx="27" ry="18"/>
<text text-anchor="middle" x="1625.61" y="-504" font-family="Times New Roman,serif" font-size="15.00">and</text>
</g>
<!-- 2082705444400&#45;&#45;2082705441760 -->
<g id="edge37" class="edge">
<title>2082705444400&#45;&#45;2082705441760</title>
<path fill="none" stroke="black" d="M1308.46,-496.15C1372.2,-498.94 1534.38,-506.05 1598.21,-508.84"/>
</g>
<!-- 2082705449440 -->
<g id="node43" class="node">
<title>2082705449440</title>
<ellipse fill="none" stroke="black" cx="1625.61" cy="-456" rx="27" ry="18"/>
<text text-anchor="middle" x="1625.61" y="-450" font-family="Times New Roman,serif" font-size="15.00">xor</text>
</g>
<!-- 2082705444400&#45;&#45;2082705449440 -->
<g id="edge42" class="edge">
<title>2082705444400&#45;&#45;2082705449440</title>
<path fill="none" stroke="black" d="M1308.18,-492.04C1371.86,-484.78 1534.98,-466.21 1598.63,-458.96"/>
</g>
<!-- 2082705443728 -->
<g id="node15" class="node">
<title>2082705443728</title>
<ellipse fill="none" stroke="black" cx="1831.06" cy="-579" rx="27" ry="18"/>
<text text-anchor="middle" x="1831.06" y="-573" font-family="Times New Roman,serif" font-size="15.00">xor</text>
</g>
<!-- 2082705441760&#45;&#45;2082705443728 -->
<g id="edge11" class="edge">
<title>2082705441760&#45;&#45;2082705443728</title>
<path fill="none" stroke="black" d="M1650.34,-518.05C1689.55,-531.35 1767.37,-557.74 1806.47,-571"/>
</g>
<!-- 2082705443440 -->
<g id="node18" class="node">
<title>2082705443440</title>
<ellipse fill="none" stroke="black" cx="1831.06" cy="-510" rx="27" ry="18"/>
<text text-anchor="middle" x="1831.06" y="-504" font-family="Times New Roman,serif" font-size="15.00">seq</text>
</g>
<!-- 2082705441760&#45;&#45;2082705443440 -->
<g id="edge36" class="edge">
<title>2082705441760&#45;&#45;2082705443440</title>
<path fill="none" stroke="black" d="M1652.79,-510C1691.75,-510 1764.57,-510 1803.66,-510"/>
</g>
<!-- 2082705454624 -->
<g id="node16" class="node">
<title>2082705454624</title>
<ellipse fill="black" stroke="black" cx="2063.64" cy="-618" rx="2.7" ry="2.7"/>
</g>
<!-- 2082705443728&#45;&#45;2082705454624 -->
<g id="edge9" class="edge">
<title>2082705443728&#45;&#45;2082705454624</title>
<path fill="none" stroke="black" d="M1857.62,-583.32C1913.43,-592.76 2042.67,-614.62 2060.57,-617.65"/>
</g>
<!-- 2082705454240 -->
<g id="node17" class="node">
<title>2082705454240</title>
<ellipse fill="none" stroke="black" cx="2063.64" cy="-579" rx="147.06" ry="18"/>
<text text-anchor="middle" x="2063.64" y="-573" font-family="Times New Roman,serif" font-size="15.00">Applicant considered stakeholder</text>
</g>
<!-- 2082705443728&#45;&#45;2082705454240 -->
<g id="edge10" class="edge">
<title>2082705443728&#45;&#45;2082705454240</title>
<path fill="none" stroke="black" d="M1858.51,-579C1873.71,-579 1894.14,-579 1916.21,-579"/>
</g>
<!-- 2082705442336 -->
<g id="node19" class="node">
<title>2082705442336</title>
<ellipse fill="none" stroke="black" cx="2063.64" cy="-525" rx="45.21" ry="18"/>
<text text-anchor="middle" x="2063.64" y="-519" font-family="Times New Roman,serif" font-size="15.00">xor loop</text>
</g>
<!-- 2082705443440&#45;&#45;2082705442336 -->
<g id="edge16" class="edge">
<title>2082705443440&#45;&#45;2082705442336</title>
<path fill="none" stroke="black" d="M1858.06,-511.69C1897.05,-514.23 1971.13,-519.05 2018.63,-522.14"/>
</g>
<!-- 2082705445216 -->
<g id="node24" class="node">
<title>2082705445216</title>
<ellipse fill="none" stroke="black" cx="2063.64" cy="-471" rx="27" ry="18"/>
<text text-anchor="middle" x="2063.64" y="-465" font-family="Times New Roman,serif" font-size="15.00">xor</text>
</g>
<!-- 2082705443440&#45;&#45;2082705445216 -->
<g id="edge35" class="edge">
<title>2082705443440&#45;&#45;2082705445216</title>
<path fill="none" stroke="black" d="M1857.62,-505.68C1901.94,-498.18 1992.57,-482.85 2036.97,-475.34"/>
</g>
<!-- 2082705451600 -->
<g id="node20" class="node">
<title>2082705451600</title>
<ellipse fill="none" stroke="black" cx="2412.69" cy="-575" rx="45.21" ry="18"/>
<text text-anchor="middle" x="2412.69" y="-569" font-family="Times New Roman,serif" font-size="15.00">xor loop</text>
</g>
<!-- 2082705442336&#45;&#45;2082705451600 -->
<g id="edge14" class="edge">
<title>2082705442336&#45;&#45;2082705451600</title>
<path fill="none" stroke="black" d="M2106.5,-531.03C2173.21,-540.64 2302.88,-559.32 2369.68,-568.95"/>
</g>
<!-- 2082705443488 -->
<g id="node23" class="node">
<title>2082705443488</title>
<ellipse fill="none" stroke="black" cx="2412.69" cy="-521" rx="143.48" ry="18"/>
<text text-anchor="middle" x="2412.69" y="-515" font-family="Times New Roman,serif" font-size="15.00">Input senddate acknowledgement</text>
</g>
<!-- 2082705442336&#45;&#45;2082705443488 -->
<g id="edge15" class="edge">
<title>2082705442336&#45;&#45;2082705443488</title>
<path fill="none" stroke="black" d="M2109.3,-524.49C2149.94,-524.02 2212.19,-523.3 2269.67,-522.64"/>
</g>
<!-- 2082705447664 -->
<g id="node21" class="node">
<title>2082705447664</title>
<ellipse fill="none" stroke="black" cx="2719.78" cy="-594" rx="127.61" ry="18"/>
<text text-anchor="middle" x="2719.78" y="-588" font-family="Times New Roman,serif" font-size="15.00">Provide confirmation receipt</text>
</g>
<!-- 2082705451600&#45;&#45;2082705447664 -->
<g id="edge12" class="edge">
<title>2082705451600&#45;&#45;2082705447664</title>
<path fill="none" stroke="black" d="M2457.73,-577.74C2495.52,-580.1 2551.73,-583.6 2602.32,-586.75"/>
</g>
<!-- 2082705448288 -->
<g id="node22" class="node">
<title>2082705448288</title>
<ellipse fill="black" stroke="black" cx="2719.78" cy="-555" rx="2.7" ry="2.7"/>
</g>
<!-- 2082705451600&#45;&#45;2082705448288 -->
<g id="edge13" class="edge">
<title>2082705451600&#45;&#45;2082705448288</title>
<path fill="none" stroke="black" d="M2457.73,-572.11C2536.94,-566.92 2697.07,-556.42 2716.78,-555.13"/>
</g>
<!-- 2082705456304 -->
<g id="node25" class="node">
<title>2082705456304</title>
<ellipse fill="black" stroke="black" cx="2412.69" cy="-475" rx="2.7" ry="2.7"/>
</g>
<!-- 2082705445216&#45;&#45;2082705456304 -->
<g id="edge17" class="edge">
<title>2082705445216&#45;&#45;2082705456304</title>
<path fill="none" stroke="black" d="M2091.01,-471.3C2167.57,-472.19 2385.95,-474.7 2409.61,-474.98"/>
</g>
<!-- 2082705456400 -->
<g id="node26" class="node">
<title>2082705456400</title>
<ellipse fill="none" stroke="black" cx="2412.69" cy="-436" rx="27" ry="18"/>
<text text-anchor="middle" x="2412.69" y="-430" font-family="Times New Roman,serif" font-size="15.00">seq</text>
</g>
<!-- 2082705445216&#45;&#45;2082705456400 -->
<g id="edge34" class="edge">
<title>2082705445216&#45;&#45;2082705456400</title>
<path fill="none" stroke="black" d="M2090.72,-468.37C2155.2,-461.87 2321.48,-445.1 2385.78,-438.61"/>
</g>
<!-- 2082705448768 -->
<g id="node27" class="node">
<title>2082705448768</title>
<ellipse fill="none" stroke="black" cx="2719.78" cy="-476" rx="27" ry="18"/>
<text text-anchor="middle" x="2719.78" y="-470" font-family="Times New Roman,serif" font-size="15.00">xor</text>
</g>
<!-- 2082705456400&#45;&#45;2082705448768 -->
<g id="edge23" class="edge">
<title>2082705456400&#45;&#45;2082705448768</title>
<path fill="none" stroke="black" d="M2439.71,-439.41C2497.35,-446.97 2635.26,-465.05 2692.84,-472.6"/>
</g>
<!-- 2082705446560 -->
<g id="node33" class="node">
<title>2082705446560</title>
<ellipse fill="none" stroke="black" cx="2719.78" cy="-351" rx="27" ry="18"/>
<text text-anchor="middle" x="2719.78" y="-345" font-family="Times New Roman,serif" font-size="15.00">and</text>
</g>
<!-- 2082705456400&#45;&#45;2082705446560 -->
<g id="edge33" class="edge">
<title>2082705456400&#45;&#45;2082705446560</title>
<path fill="none" stroke="black" d="M2438.15,-429.19C2495.41,-413.23 2637.68,-373.6 2694.64,-357.73"/>
</g>
<!-- 2082705451984 -->
<g id="node28" class="node">
<title>2082705451984</title>
<ellipse fill="black" stroke="black" cx="3004.86" cy="-542" rx="2.7" ry="2.7"/>
</g>
<!-- 2082705448768&#45;&#45;2082705451984 -->
<g id="edge18" class="edge">
<title>2082705448768&#45;&#45;2082705451984</title>
<path fill="none" stroke="black" d="M2745.41,-481.74C2809.98,-496.8 2980.64,-536.58 3001.72,-541.5"/>
</g>
<!-- 2082705443056 -->
<g id="node29" class="node">
<title>2082705443056</title>
<ellipse fill="none" stroke="black" cx="3004.86" cy="-503" rx="121.47" ry="18"/>
<text text-anchor="middle" x="3004.86" y="-497" font-family="Times New Roman,serif" font-size="15.00">Assess provisional charges</text>
</g>
<!-- 2082705448768&#45;&#45;2082705443056 -->
<g id="edge19" class="edge">
<title>2082705448768&#45;&#45;2082705443056</title>
<path fill="none" stroke="black" d="M2746.91,-478.49C2781.88,-481.83 2845.93,-487.94 2901.34,-493.22"/>
</g>
<!-- 2082705445552 -->
<g id="node30" class="node">
<title>2082705445552</title>
<ellipse fill="none" stroke="black" cx="3004.86" cy="-449" rx="27" ry="18"/>
<text text-anchor="middle" x="3004.86" y="-443" font-family="Times New Roman,serif" font-size="15.00">seq</text>
</g>
<!-- 2082705448768&#45;&#45;2082705445552 -->
<g id="edge22" class="edge">
<title>2082705448768&#45;&#45;2082705445552</title>
<path fill="none" stroke="black" d="M2746.91,-473.51C2800.83,-468.36 2923.93,-456.62 2977.8,-451.49"/>
</g>
<!-- 2082705449008 -->
<g id="node31" class="node">
<title>2082705449008</title>
<ellipse fill="none" stroke="black" cx="3379.51" cy="-503" rx="217.18" ry="18"/>
<text text-anchor="middle" x="3379.51" y="-497" font-family="Times New Roman,serif" font-size="15.00">log senddate letter no permit or notification needed</text>
</g>
<!-- 2082705445552&#45;&#45;2082705449008 -->
<g id="edge20" class="edge">
<title>2082705445552&#45;&#45;2082705449008</title>
<path fill="none" stroke="black" d="M3031.77,-452.75C3080.13,-459.76 3186.69,-475.2 3269.01,-487.13"/>
</g>
<!-- 2082705444592 -->
<g id="node32" class="node">
<title>2082705444592</title>
<ellipse fill="none" stroke="black" cx="3379.51" cy="-449" rx="81.04" ry="18"/>
<text text-anchor="middle" x="3379.51" y="-443" font-family="Times New Roman,serif" font-size="15.00">Register due date</text>
</g>
<!-- 2082705445552&#45;&#45;2082705444592 -->
<g id="edge21" class="edge">
<title>2082705445552&#45;&#45;2082705444592</title>
<path fill="none" stroke="black" d="M3032.07,-449C3086.57,-449 3214.08,-449 3298.26,-449"/>
</g>
<!-- 2082705453472 -->
<g id="node34" class="node">
<title>2082705453472</title>
<ellipse fill="none" stroke="black" cx="3004.86" cy="-378" rx="27" ry="18"/>
<text text-anchor="middle" x="3004.86" y="-372" font-family="Times New Roman,serif" font-size="15.00">xor</text>
</g>
<!-- 2082705446560&#45;&#45;2082705453472 -->
<g id="edge26" class="edge">
<title>2082705446560&#45;&#45;2082705453472</title>
<path fill="none" stroke="black" d="M2746.91,-353.49C2800.83,-358.64 2923.93,-370.38 2977.8,-375.51"/>
</g>
<!-- 2082705444928 -->
<g id="node37" class="node">
<title>2082705444928</title>
<ellipse fill="none" stroke="black" cx="3004.86" cy="-324" rx="27" ry="18"/>
<text text-anchor="middle" x="3004.86" y="-318" font-family="Times New Roman,serif" font-size="15.00">xor</text>
</g>
<!-- 2082705446560&#45;&#45;2082705444928 -->
<g id="edge29" class="edge">
<title>2082705446560&#45;&#45;2082705444928</title>
<path fill="none" stroke="black" d="M2746.91,-348.51C2800.83,-343.36 2923.93,-331.62 2977.8,-326.49"/>
</g>
<!-- 2082705456784 -->
<g id="node40" class="node">
<title>2082705456784</title>
<ellipse fill="none" stroke="black" cx="3004.86" cy="-254" rx="27" ry="18"/>
<text text-anchor="middle" x="3004.86" y="-248" font-family="Times New Roman,serif" font-size="15.00">xor</text>
</g>
<!-- 2082705446560&#45;&#45;2082705456784 -->
<g id="edge32" class="edge">
<title>2082705446560&#45;&#45;2082705456784</title>
<path fill="none" stroke="black" d="M2744.43,-342.9C2797.85,-324.59 2927.32,-280.23 2980.48,-262.01"/>
</g>
<!-- 2082705450256 -->
<g id="node35" class="node">
<title>2082705450256</title>
<ellipse fill="black" stroke="black" cx="3379.51" cy="-410" rx="2.7" ry="2.7"/>
</g>
<!-- 2082705453472&#45;&#45;2082705450256 -->
<g id="edge24" class="edge">
<title>2082705453472&#45;&#45;2082705450256</title>
<path fill="none" stroke="black" d="M3032.07,-380.25C3112.58,-387.16 3352.39,-407.76 3376.54,-409.83"/>
</g>
<!-- 2082705455728 -->
<g id="node36" class="node">
<title>2082705455728</title>
<ellipse fill="none" stroke="black" cx="3379.51" cy="-371" rx="111.74" ry="18"/>
<text text-anchor="middle" x="3379.51" y="-365" font-family="Times New Roman,serif" font-size="15.00">Alert BAG administrator</text>
</g>
<!-- 2082705453472&#45;&#45;2082705455728 -->
<g id="edge25" class="edge">
<title>2082705453472&#45;&#45;2082705455728</title>
<path fill="none" stroke="black" d="M3032.07,-377.51C3080.44,-376.6 3186.32,-374.61 3268.38,-373.07"/>
</g>
<!-- 2082705445408 -->
<g id="node38" class="node">
<title>2082705445408</title>
<ellipse fill="black" stroke="black" cx="3379.51" cy="-332" rx="2.7" ry="2.7"/>
</g>
<!-- 2082705444928&#45;&#45;2082705445408 -->
<g id="edge27" class="edge">
<title>2082705444928&#45;&#45;2082705445408</title>
<path fill="none" stroke="black" d="M3032.07,-324.56C3112.58,-326.29 3352.39,-331.44 3376.54,-331.96"/>
</g>
<!-- 2082705450880 -->
<g id="node39" class="node">
<title>2082705450880</title>
<ellipse fill="none" stroke="black" cx="3379.51" cy="-293" rx="191.08" ry="18"/>
<text text-anchor="middle" x="3379.51" y="-287" font-family="Times New Roman,serif" font-size="15.00">No permit needed or just notification needed</text>
</g>
<!-- 2082705444928&#45;&#45;2082705450880 -->
<g id="edge28" class="edge">
<title>2082705444928&#45;&#45;2082705450880</title>
<path fill="none" stroke="black" d="M3032.07,-321.82C3073.9,-318.34 3158.73,-311.28 3233.97,-305.02"/>
</g>
<!-- 2082705446512 -->
<g id="node41" class="node">
<title>2082705446512</title>
<ellipse fill="black" stroke="black" cx="3379.51" cy="-254" rx="2.7" ry="2.7"/>
</g>
<!-- 2082705456784&#45;&#45;2082705446512 -->
<g id="edge30" class="edge">
<title>2082705456784&#45;&#45;2082705446512</title>
<path fill="none" stroke="black" d="M3032.07,-254C3112.58,-254 3352.39,-254 3376.54,-254"/>
</g>
<!-- 2082705452704 -->
<g id="node42" class="node">
<title>2082705452704</title>
<ellipse fill="none" stroke="black" cx="3379.51" cy="-215" rx="151.15" ry="18"/>
<text text-anchor="middle" x="3379.51" y="-209" font-family="Times New Roman,serif" font-size="15.00">Transfer to the competent authority</text>
</g>
<!-- 2082705456784&#45;&#45;2082705452704 -->
<g id="edge31" class="edge">
<title>2082705456784&#45;&#45;2082705452704</title>
<path fill="none" stroke="black" d="M3031.77,-251.29C3079.22,-246.32 3182.71,-235.49 3264.35,-226.95"/>
</g>
<!-- 2082705444496 -->
<g id="node44" class="node">
<title>2082705444496</title>
<ellipse fill="black" stroke="black" cx="1831.06" cy="-456" rx="2.7" ry="2.7"/>
</g>
<!-- 2082705449440&#45;&#45;2082705444496 -->
<g id="edge38" class="edge">
<title>2082705449440&#45;&#45;2082705444496</title>
<path fill="none" stroke="black" d="M1652.79,-456C1703.44,-456 1811.36,-456 1827.91,-456"/>
</g>
<!-- 2082705445456 -->
<g id="node45" class="node">
<title>2082705445456</title>
<ellipse fill="none" stroke="black" cx="1831.06" cy="-417" rx="27" ry="18"/>
<text text-anchor="middle" x="1831.06" y="-411" font-family="Times New Roman,serif" font-size="15.00">and</text>
</g>
<!-- 2082705449440&#45;&#45;2082705445456 -->
<g id="edge41" class="edge">
<title>2082705449440&#45;&#45;2082705445456</title>
<path fill="none" stroke="black" d="M1651.96,-451.14C1691.06,-443.65 1765.61,-429.35 1804.7,-421.86"/>
</g>
<!-- 2082705450928 -->
<g id="node46" class="node">
<title>2082705450928</title>
<ellipse fill="none" stroke="black" cx="2063.64" cy="-417" rx="132.22" ry="18"/>
<text text-anchor="middle" x="2063.64" y="-411" font-family="Times New Roman,serif" font-size="15.00">Terminate request notification</text>
</g>
<!-- 2082705445456&#45;&#45;2082705450928 -->
<g id="edge39" class="edge">
<title>2082705445456&#45;&#45;2082705450928</title>
<path fill="none" stroke="black" d="M1858.51,-417C1877.08,-417 1903.46,-417 1931.11,-417"/>
</g>
<!-- 2082705448384 -->
<g id="node47" class="node">
<title>2082705448384</title>
<ellipse fill="none" stroke="black" cx="2063.64" cy="-363" rx="169.58" ry="18"/>
<text text-anchor="middle" x="2063.64" y="-357" font-family="Times New Roman,serif" font-size="15.00">Enter date termination request received</text>
</g>
<!-- 2082705445456&#45;&#45;2082705448384 -->
<g id="edge40" class="edge">
<title>2082705445456&#45;&#45;2082705448384</title>
<path fill="none" stroke="black" d="M1856.74,-411.22C1888.63,-403.75 1945.51,-390.43 1991.41,-379.68"/>
</g>
<!-- 2082705454336 -->
<g id="node49" class="node">
<title>2082705454336</title>
<ellipse fill="black" stroke="black" cx="1281.16" cy="-441" rx="2.7" ry="2.7"/>
</g>
<!-- 2082705446656&#45;&#45;2082705454336 -->
<g id="edge45" class="edge">
<title>2082705446656&#45;&#45;2082705454336</title>
<path fill="none" stroke="black" d="M932.76,-411.25C1013.5,-418.16 1253.97,-438.76 1278.18,-440.83"/>
</g>
<!-- 2082705448336 -->
<g id="node50" class="node">
<title>2082705448336</title>
<ellipse fill="none" stroke="black" cx="1281.16" cy="-402" rx="27" ry="18"/>
<text text-anchor="middle" x="1281.16" y="-396" font-family="Times New Roman,serif" font-size="15.00">seq</text>
</g>
<!-- 2082705446656&#45;&#45;2082705448336 -->
<g id="edge54" class="edge">
<title>2082705446656&#45;&#45;2082705448336</title>
<path fill="none" stroke="black" d="M932.76,-408.51C1001.37,-407.22 1185.33,-403.78 1253.91,-402.49"/>
</g>
<!-- 2082705453280 -->
<g id="node51" class="node">
<title>2082705453280</title>
<ellipse fill="none" stroke="black" cx="1625.61" cy="-402" rx="142.45" ry="18"/>
<text text-anchor="middle" x="1625.61" y="-396" font-family="Times New Roman,serif" font-size="15.00">Routine procedure without MER</text>
</g>
<!-- 2082705448336&#45;&#45;2082705453280 -->
<g id="edge46" class="edge">
<title>2082705448336&#45;&#45;2082705453280</title>
<path fill="none" stroke="black" d="M1308.46,-402C1345.89,-402 1417.27,-402 1482.74,-402"/>
</g>
<!-- 2082705448240 -->
<g id="node52" class="node">
<title>2082705448240</title>
<ellipse fill="none" stroke="black" cx="1625.61" cy="-348" rx="27" ry="18"/>
<text text-anchor="middle" x="1625.61" y="-342" font-family="Times New Roman,serif" font-size="15.00">xor</text>
</g>
<!-- 2082705448336&#45;&#45;2082705448240 -->
<g id="edge53" class="edge">
<title>2082705448336&#45;&#45;2082705448240</title>
<path fill="none" stroke="black" d="M1307.9,-397.94C1371.52,-387.91 1535.59,-362.04 1599.04,-352.03"/>
</g>
<!-- 2082705445840 -->
<g id="node53" class="node">
<title>2082705445840</title>
<ellipse fill="black" stroke="black" cx="1831.06" cy="-348" rx="2.7" ry="2.7"/>
</g>
<!-- 2082705448240&#45;&#45;2082705445840 -->
<g id="edge47" class="edge">
<title>2082705448240&#45;&#45;2082705445840</title>
<path fill="none" stroke="black" d="M1652.79,-348C1703.44,-348 1811.36,-348 1827.91,-348"/>
</g>
<!-- 2082705442096 -->
<g id="node54" class="node">
<title>2082705442096</title>
<ellipse fill="none" stroke="black" cx="1831.06" cy="-309" rx="27" ry="18"/>
<text text-anchor="middle" x="1831.06" y="-303" font-family="Times New Roman,serif" font-size="15.00">seq</text>
</g>
<!-- 2082705448240&#45;&#45;2082705442096 -->
<g id="edge52" class="edge">
<title>2082705448240&#45;&#45;2082705442096</title>
<path fill="none" stroke="black" d="M1651.96,-343.14C1691.06,-335.65 1765.61,-321.35 1804.7,-313.86"/>
</g>
<!-- 2082705442048 -->
<g id="node55" class="node">
<title>2082705442048</title>
<ellipse fill="none" stroke="black" cx="2063.64" cy="-309" rx="27" ry="18"/>
<text text-anchor="middle" x="2063.64" y="-303" font-family="Times New Roman,serif" font-size="15.00">xor</text>
</g>
<!-- 2082705442096&#45;&#45;2082705442048 -->
<g id="edge50" class="edge">
<title>2082705442096&#45;&#45;2082705442048</title>
<path fill="none" stroke="black" d="M1858.51,-309C1902.87,-309 1991.75,-309 2036.14,-309"/>
</g>
<!-- 2082705454384 -->
<g id="node58" class="node">
<title>2082705454384</title>
<ellipse fill="none" stroke="black" cx="2063.64" cy="-255" rx="112.77" ry="18"/>
<text text-anchor="middle" x="2063.64" y="-249" font-family="Times New Roman,serif" font-size="15.00">Initiate WABOprocedure</text>
</g>
<!-- 2082705442096&#45;&#45;2082705454384 -->
<g id="edge51" class="edge">
<title>2082705442096&#45;&#45;2082705454384</title>
<path fill="none" stroke="black" d="M1856.74,-303.22C1890.31,-295.36 1951.59,-281.01 1998.59,-270"/>
</g>
<!-- 2082705449152 -->
<g id="node56" class="node">
<title>2082705449152</title>
<ellipse fill="black" stroke="black" cx="2412.69" cy="-328" rx="2.7" ry="2.7"/>
</g>
<!-- 2082705442048&#45;&#45;2082705449152 -->
<g id="edge48" class="edge">
<title>2082705442048&#45;&#45;2082705449152</title>
<path fill="none" stroke="black" d="M2091.01,-310.44C2167.57,-314.64 2385.95,-326.59 2409.61,-327.89"/>
</g>
<!-- 2082705446320 -->
<g id="node57" class="node">
<title>2082705446320</title>
<ellipse fill="none" stroke="black" cx="2412.69" cy="-289" rx="129.15" ry="18"/>
<text text-anchor="middle" x="2412.69" y="-283" font-family="Times New Roman,serif" font-size="15.00">Draft procedure confirmation</text>
</g>
<!-- 2082705442048&#45;&#45;2082705446320 -->
<g id="edge49" class="edge">
<title>2082705442048&#45;&#45;2082705446320</title>
<path fill="none" stroke="black" d="M2091.01,-307.48C2133.64,-305.02 2220.24,-300.03 2292.71,-295.86"/>
</g>
<!-- 2082705457120 -->
<g id="node60" class="node">
<title>2082705457120</title>
<ellipse fill="black" stroke="black" cx="1281.16" cy="-363" rx="2.7" ry="2.7"/>
</g>
<!-- 2082705451360&#45;&#45;2082705457120 -->
<g id="edge56" class="edge">
<title>2082705451360&#45;&#45;2082705457120</title>
<path fill="none" stroke="black" d="M932.76,-355.56C1013.5,-357.29 1253.97,-362.44 1278.18,-362.96"/>
</g>
<!-- 2082705444544 -->
<g id="node61" class="node">
<title>2082705444544</title>
<ellipse fill="none" stroke="black" cx="1281.16" cy="-324" rx="61.08" ry="18"/>
<text text-anchor="middle" x="1281.16" y="-318" font-family="Times New Roman,serif" font-size="15.00">case closure</text>
</g>
<!-- 2082705451360&#45;&#45;2082705444544 -->
<g id="edge57" class="edge">
<title>2082705451360&#45;&#45;2082705444544</title>
<path fill="none" stroke="black" d="M932.76,-352.82C992.48,-347.87 1139.61,-335.66 1221.95,-328.83"/>
</g>
<!-- 2082705456688 -->
<g id="node63" class="node">
<title>2082705456688</title>
<ellipse fill="black" stroke="black" cx="540.56" cy="-314" rx="2.7" ry="2.7"/>
</g>
<!-- 2082700717632&#45;&#45;2082705456688 -->
<g id="edge61" class="edge">
<title>2082700717632&#45;&#45;2082705456688</title>
<path fill="none" stroke="black" d="M246.49,-278.16C318.25,-286.94 516.24,-311.15 537.67,-313.77"/>
</g>
<!-- 2082705450832 -->
<g id="node64" class="node">
<title>2082705450832</title>
<ellipse fill="none" stroke="black" cx="540.56" cy="-275" rx="155.25" ry="18"/>
<text text-anchor="middle" x="540.56" y="-269" font-family="Times New Roman,serif" font-size="15.00">Phase procedure ended prematurely</text>
</g>
<!-- 2082700717632&#45;&#45;2082705450832 -->
<g id="edge62" class="edge">
<title>2082700717632&#45;&#45;2082705450832</title>
<path fill="none" stroke="black" d="M247.03,-275C277.99,-275 331.91,-275 385.08,-275"/>
</g>
<!-- 2082705450688 -->
<g id="node65" class="node">
<title>2082705450688</title>
<ellipse fill="none" stroke="black" cx="540.56" cy="-221" rx="27" ry="18"/>
<text text-anchor="middle" x="540.56" y="-215" font-family="Times New Roman,serif" font-size="15.00">seq</text>
</g>
<!-- 2082700717632&#45;&#45;2082705450688 -->
<g id="edge69" class="edge">
<title>2082700717632&#45;&#45;2082705450688</title>
<path fill="none" stroke="black" d="M246.22,-270.67C305.93,-260.56 454.05,-235.48 513.88,-225.35"/>
</g>
<!-- 2082705443872 -->
<g id="node72" class="node">
<title>2082705443872</title>
<ellipse fill="none" stroke="black" cx="540.56" cy="-123" rx="27" ry="18"/>
<text text-anchor="middle" x="540.56" y="-117" font-family="Times New Roman,serif" font-size="15.00">seq</text>
</g>
<!-- 2082700717632&#45;&#45;2082705443872 -->
<g id="edge76" class="edge">
<title>2082700717632&#45;&#45;2082705443872</title>
<path fill="none" stroke="black" d="M242.33,-264.67C300.51,-236.94 459.65,-161.09 517.87,-133.34"/>
</g>
<!-- 2082705443296 -->
<g id="node66" class="node">
<title>2082705443296</title>
<ellipse fill="none" stroke="black" cx="905.49" cy="-231" rx="27" ry="18"/>
<text text-anchor="middle" x="905.49" y="-225" font-family="Times New Roman,serif" font-size="15.00">and</text>
</g>
<!-- 2082705450688&#45;&#45;2082705443296 -->
<g id="edge65" class="edge">
<title>2082705450688&#45;&#45;2082705443296</title>
<path fill="none" stroke="black" d="M567.96,-221.73C635,-223.57 811.26,-228.43 878.19,-230.28"/>
</g>
<!-- 2082705455488 -->
<g id="node69" class="node">
<title>2082705455488</title>
<ellipse fill="none" stroke="black" cx="905.49" cy="-177" rx="27" ry="18"/>
<text text-anchor="middle" x="905.49" y="-171" font-family="Times New Roman,serif" font-size="15.00">xor</text>
</g>
<!-- 2082705450688&#45;&#45;2082705455488 -->
<g id="edge68" class="edge">
<title>2082705450688&#45;&#45;2082705455488</title>
<path fill="none" stroke="black" d="M567.37,-217.87C634.09,-209.78 811.72,-188.25 878.57,-180.14"/>
</g>
<!-- 2082705448672 -->
<g id="node67" class="node">
<title>2082705448672</title>
<ellipse fill="none" stroke="black" cx="1281.16" cy="-270" rx="143.99" ry="18"/>
<text text-anchor="middle" x="1281.16" y="-264" font-family="Times New Roman,serif" font-size="15.00">Transmit procedure confirmation</text>
</g>
<!-- 2082705443296&#45;&#45;2082705448672 -->
<g id="edge63" class="edge">
<title>2082705443296&#45;&#45;2082705448672</title>
<path fill="none" stroke="black" d="M932.47,-233.71C980.71,-238.75 1086.72,-249.81 1169.09,-258.41"/>
</g>
<!-- 2082705448000 -->
<g id="node68" class="node">
<title>2082705448000</title>
<ellipse fill="none" stroke="black" cx="1281.16" cy="-216" rx="166" ry="18"/>
<text text-anchor="middle" x="1281.16" y="-210" font-family="Times New Roman,serif" font-size="15.00">Input senddate procedure confirmation</text>
</g>
<!-- 2082705443296&#45;&#45;2082705448000 -->
<g id="edge64" class="edge">
<title>2082705443296&#45;&#45;2082705448000</title>
<path fill="none" stroke="black" d="M932.76,-229.95C972.8,-228.34 1052.11,-225.15 1124.86,-222.23"/>
</g>
<!-- 2082705444016 -->
<g id="node70" class="node">
<title>2082705444016</title>
<ellipse fill="black" stroke="black" cx="1281.16" cy="-177" rx="2.7" ry="2.7"/>
</g>
<!-- 2082705455488&#45;&#45;2082705444016 -->
<g id="edge66" class="edge">
<title>2082705455488&#45;&#45;2082705444016</title>
<path fill="none" stroke="black" d="M932.76,-177C1013.5,-177 1253.97,-177 1278.18,-177"/>
</g>
<!-- 2082705452272 -->
<g id="node71" class="node">
<title>2082705452272</title>
<ellipse fill="none" stroke="black" cx="1281.16" cy="-138" rx="118.91" ry="18"/>
<text text-anchor="middle" x="1281.16" y="-132" font-family="Times New Roman,serif" font-size="15.00">Document date publication</text>
</g>
<!-- 2082705455488&#45;&#45;2082705452272 -->
<g id="edge67" class="edge">
<title>2082705455488&#45;&#45;2082705452272</title>
<path fill="none" stroke="black" d="M932.47,-174.29C983.28,-168.99 1098.16,-157 1182.01,-148.24"/>
</g>
<!-- 2082705448912 -->
<g id="node73" class="node">
<title>2082705448912</title>
<ellipse fill="none" stroke="black" cx="905.49" cy="-123" rx="173.67" ry="18"/>
<text text-anchor="middle" x="905.49" y="-117" font-family="Times New Roman,serif" font-size="15.00">draft letter indicating no permit required</text>
</g>
<!-- 2082705443872&#45;&#45;2082705448912 -->
<g id="edge70" class="edge">
<title>2082705443872&#45;&#45;2082705448912</title>
<path fill="none" stroke="black" d="M567.96,-123C603.03,-123 667.99,-123 731.55,-123"/>
</g>
<!-- 2082705443968 -->
<g id="node74" class="node">
<title>2082705443968</title>
<ellipse fill="none" stroke="black" cx="905.49" cy="-69" rx="27" ry="18"/>
<text text-anchor="middle" x="905.49" y="-63" font-family="Times New Roman,serif" font-size="15.00">xor</text>
</g>
<!-- 2082705443872&#45;&#45;2082705443968 -->
<g id="edge75" class="edge">
<title>2082705443872&#45;&#45;2082705443968</title>
<path fill="none" stroke="black" d="M567.37,-119.16C634.25,-109.21 812.59,-82.67 879.05,-72.78"/>
</g>
<!-- 2082705457024 -->
<g id="node75" class="node">
<title>2082705457024</title>
<ellipse fill="black" stroke="black" cx="1281.16" cy="-84" rx="2.7" ry="2.7"/>
</g>
<!-- 2082705443968&#45;&#45;2082705457024 -->
<g id="edge71" class="edge">
<title>2082705443968&#45;&#45;2082705457024</title>
<path fill="none" stroke="black" d="M932.76,-70.05C1013.5,-73.3 1253.97,-82.95 1278.18,-83.92"/>
</g>
<!-- 2082705444256 -->
<g id="node76" class="node">
<title>2082705444256</title>
<ellipse fill="none" stroke="black" cx="1281.16" cy="-45" rx="27" ry="18"/>
<text text-anchor="middle" x="1281.16" y="-39" font-family="Times New Roman,serif" font-size="15.00">seq</text>
</g>
<!-- 2082705443968&#45;&#45;2082705444256 -->
<g id="edge74" class="edge">
<title>2082705443968&#45;&#45;2082705444256</title>
<path fill="none" stroke="black" d="M932.76,-67.31C1001.37,-62.91 1185.33,-51.09 1253.91,-46.69"/>
</g>
<!-- 2082705445072 -->
<g id="node77" class="node">
<title>2082705445072</title>
<ellipse fill="none" stroke="black" cx="1625.61" cy="-72" rx="111.23" ry="18"/>
<text text-anchor="middle" x="1625.61" y="-66" font-family="Times New Roman,serif" font-size="15.00">Phase procedure aborted</text>
</g>
<!-- 2082705444256&#45;&#45;2082705445072 -->
<g id="edge72" class="edge">
<title>2082705444256&#45;&#45;2082705445072</title>
<path fill="none" stroke="black" d="M1308.46,-47.07C1354.11,-50.67 1450.26,-58.25 1524.61,-64.12"/>
</g>
<!-- 2082705445648 -->
<g id="node78" class="node">
<title>2082705445648</title>
<ellipse fill="none" stroke="black" cx="1625.61" cy="-18" rx="69.78" ry="18"/>
<text text-anchor="middle" x="1625.61" y="-12" font-family="Times New Roman,serif" font-size="15.00">Conclude case</text>
</g>
<!-- 2082705444256&#45;&#45;2082705445648 -->
<g id="edge73" class="edge">
<title>2082705444256&#45;&#45;2082705445648</title>
<path fill="none" stroke="black" d="M1308.46,-42.93C1361.4,-38.75 1482.22,-29.23 1558.23,-23.23"/>
</g>
</g>
</svg>
