<?xml version="1.0" encoding="UTF-8" standalone="no"?>
<!DOCTYPE svg PUBLIC "-//W3C//DTD SVG 1.1//EN"
 "http://www.w3.org/Graphics/SVG/1.1/DTD/svg11.dtd">
<!-- Generated by graphviz version 11.0.0 (20240428.1522)
 -->
<!-- Title: pt Pages: 1 -->
<svg width="3992pt" height="650pt"
 viewBox="0.00 0.00 3992.13 649.70" xmlns="http://www.w3.org/2000/svg" xmlns:xlink="http://www.w3.org/1999/xlink">
<g id="graph0" class="graph" transform="scale(1 1) rotate(0) translate(4 645.7)">
<title>pt</title>
<polygon fill="white" stroke="none" points="-4,4 -4,-645.7 3988.13,-645.7 3988.13,4 -4,4"/>
<!-- 2082705365600 -->
<g id="node1" class="node">
<title>2082705365600</title>
<ellipse fill="none" stroke="black" cx="27" cy="-360" rx="27" ry="18"/>
<text text-anchor="middle" x="27" y="-354" font-family="Times New Roman,serif" font-size="15.00">seq</text>
</g>
<!-- 2082704912896 -->
<g id="node2" class="node">
<title>2082704912896</title>
<ellipse fill="none" stroke="black" cx="221.19" cy="-437" rx="131.19" ry="18"/>
<text text-anchor="middle" x="221.19" y="-431" font-family="Times New Roman,serif" font-size="15.00">Enter submission date request</text>
</g>
<!-- 2082705365600&#45;&#45;2082704912896 -->
<g id="edge1" class="edge">
<title>2082705365600&#45;&#45;2082704912896</title>
<path fill="none" stroke="black" d="M50.8,-369.14C81.83,-381.56 137.94,-404.05 177.05,-419.71"/>
</g>
<!-- 2082704903824 -->
<g id="node3" class="node">
<title>2082704903824</title>
<ellipse fill="none" stroke="black" cx="221.19" cy="-383" rx="27" ry="18"/>
<text text-anchor="middle" x="221.19" y="-377" font-family="Times New Roman,serif" font-size="15.00">and</text>
</g>
<!-- 2082705365600&#45;&#45;2082704903824 -->
<g id="edge59" class="edge">
<title>2082705365600&#45;&#45;2082704903824</title>
<path fill="none" stroke="black" d="M53.92,-363.1C90.7,-367.5 157.65,-375.52 194.38,-379.91"/>
</g>
<!-- 2082704910544 -->
<g id="node61" class="node">
<title>2082704910544</title>
<ellipse fill="none" stroke="black" cx="221.19" cy="-309" rx="27" ry="18"/>
<text text-anchor="middle" x="221.19" y="-303" font-family="Times New Roman,serif" font-size="15.00">xor</text>
</g>
<!-- 2082705365600&#45;&#45;2082704910544 -->
<g id="edge66" class="edge">
<title>2082705365600&#45;&#45;2082704910544</title>
<path fill="none" stroke="black" d="M52.34,-353.54C89.21,-343.76 158.82,-325.29 195.75,-315.49"/>
</g>
<!-- 2082704900992 -->
<g id="node68" class="node">
<title>2082704900992</title>
<ellipse fill="none" stroke="black" cx="221.19" cy="-186" rx="27" ry="18"/>
<text text-anchor="middle" x="221.19" y="-180" font-family="Times New Roman,serif" font-size="15.00">xor</text>
</g>
<!-- 2082705365600&#45;&#45;2082704900992 -->
<g id="edge79" class="edge">
<title>2082705365600&#45;&#45;2082704900992</title>
<path fill="none" stroke="black" d="M43.73,-345.76C79.77,-313.13 168,-233.25 204.25,-200.44"/>
</g>
<!-- 2082704900368 -->
<g id="node4" class="node">
<title>2082704900368</title>
<ellipse fill="none" stroke="black" cx="503.2" cy="-546" rx="45.21" ry="18"/>
<text text-anchor="middle" x="503.2" y="-540" font-family="Times New Roman,serif" font-size="15.00">xor loop</text>
</g>
<!-- 2082704903824&#45;&#45;2082704900368 -->
<g id="edge4" class="edge">
<title>2082704903824&#45;&#45;2082704900368</title>
<path fill="none" stroke="black" d="M242.33,-394.72C292.24,-423.78 421.59,-499.07 476.71,-531.16"/>
</g>
<!-- 2082704901280 -->
<g id="node7" class="node">
<title>2082704901280</title>
<ellipse fill="none" stroke="black" cx="503.2" cy="-437" rx="114.82" ry="18"/>
<text text-anchor="middle" x="503.2" y="-431" font-family="Times New Roman,serif" font-size="15.00">Step application received</text>
</g>
<!-- 2082704903824&#45;&#45;2082704901280 -->
<g id="edge5" class="edge">
<title>2082704903824&#45;&#45;2082704901280</title>
<path fill="none" stroke="black" d="M247.54,-387.89C288.12,-395.71 369.22,-411.35 429.04,-422.89"/>
</g>
<!-- 2082704909200 -->
<g id="node8" class="node">
<title>2082704909200</title>
<ellipse fill="none" stroke="black" cx="503.2" cy="-383" rx="27" ry="18"/>
<text text-anchor="middle" x="503.2" y="-377" font-family="Times New Roman,serif" font-size="15.00">seq</text>
</g>
<!-- 2082704903824&#45;&#45;2082704909200 -->
<g id="edge58" class="edge">
<title>2082704903824&#45;&#45;2082704909200</title>
<path fill="none" stroke="black" d="M248.54,-383C301.9,-383 422.25,-383 475.73,-383"/>
</g>
<!-- 2082704906896 -->
<g id="node5" class="node">
<title>2082704906896</title>
<ellipse fill="none" stroke="black" cx="811.31" cy="-585" rx="131.19" ry="18"/>
<text text-anchor="middle" x="811.31" y="-579" font-family="Times New Roman,serif" font-size="15.00">Transmit confirmation receipt</text>
</g>
<!-- 2082704900368&#45;&#45;2082704906896 -->
<g id="edge2" class="edge">
<title>2082704900368&#45;&#45;2082704906896</title>
<path fill="none" stroke="black" d="M546.77,-551.42C589.73,-556.9 657.55,-565.54 713.64,-572.68"/>
</g>
<!-- 2082704912512 -->
<g id="node6" class="node">
<title>2082704912512</title>
<ellipse fill="black" stroke="black" cx="811.31" cy="-546" rx="2.7" ry="2.7"/>
</g>
<!-- 2082704900368&#45;&#45;2082704912512 -->
<g id="edge3" class="edge">
<title>2082704900368&#45;&#45;2082704912512</title>
<path fill="none" stroke="black" d="M548.71,-546C628.31,-546 788.58,-546 808.31,-546"/>
</g>
<!-- 2082704906080 -->
<g id="node9" class="node">
<title>2082704906080</title>
<ellipse fill="none" stroke="black" cx="811.31" cy="-507" rx="27" ry="18"/>
<text text-anchor="middle" x="811.31" y="-501" font-family="Times New Roman,serif" font-size="15.00">and</text>
</g>
<!-- 2082704909200&#45;&#45;2082704906080 -->
<g id="edge43" class="edge">
<title>2082704909200&#45;&#45;2082704906080</title>
<path fill="none" stroke="black" d="M526.71,-392.12C583.32,-415.05 731.13,-474.92 787.77,-497.87"/>
</g>
<!-- 2082704901904 -->
<g id="node47" class="node">
<title>2082704901904</title>
<ellipse fill="none" stroke="black" cx="811.31" cy="-441" rx="27" ry="18"/>
<text text-anchor="middle" x="811.31" y="-435" font-family="Times New Roman,serif" font-size="15.00">xor</text>
</g>
<!-- 2082704909200&#45;&#45;2082704901904 -->
<g id="edge46" class="edge">
<title>2082704909200&#45;&#45;2082704901904</title>
<path fill="none" stroke="black" d="M529.51,-387.8C587.1,-398.71 727.36,-425.28 784.97,-436.2"/>
</g>
<!-- 2082704905504 -->
<g id="node50" class="node">
<title>2082704905504</title>
<ellipse fill="none" stroke="black" cx="811.31" cy="-383" rx="27" ry="18"/>
<text text-anchor="middle" x="811.31" y="-377" font-family="Times New Roman,serif" font-size="15.00">xor</text>
</g>
<!-- 2082704909200&#45;&#45;2082704905504 -->
<g id="edge49" class="edge">
<title>2082704909200&#45;&#45;2082704905504</title>
<path fill="none" stroke="black" d="M530.57,-383C588.43,-383 726,-383 783.9,-383"/>
</g>
<!-- 2082704911936 -->
<g id="node53" class="node">
<title>2082704911936</title>
<ellipse fill="none" stroke="black" cx="811.31" cy="-324" rx="27" ry="18"/>
<text text-anchor="middle" x="811.31" y="-318" font-family="Times New Roman,serif" font-size="15.00">xor</text>
</g>
<!-- 2082704909200&#45;&#45;2082704911936 -->
<g id="edge57" class="edge">
<title>2082704909200&#45;&#45;2082704911936</title>
<path fill="none" stroke="black" d="M529.51,-378.12C587.1,-367.02 727.36,-339.99 784.97,-328.88"/>
</g>
<!-- 2082704909440 -->
<g id="node10" class="node">
<title>2082704909440</title>
<ellipse fill="none" stroke="black" cx="1158.83" cy="-573" rx="98.44" ry="18"/>
<text text-anchor="middle" x="1158.83" y="-567" font-family="Times New Roman,serif" font-size="15.00">OLO messages active</text>
</g>
<!-- 2082704906080&#45;&#45;2082704909440 -->
<g id="edge6" class="edge">
<title>2082704906080&#45;&#45;2082704909440</title>
<path fill="none" stroke="black" d="M837.72,-511.85C890.16,-521.87 1011.94,-545.13 1089.27,-559.9"/>
</g>
<!-- 2082704910112 -->
<g id="node11" class="node">
<title>2082704910112</title>
<ellipse fill="none" stroke="black" cx="1158.83" cy="-519" rx="27" ry="18"/>
<text text-anchor="middle" x="1158.83" y="-513" font-family="Times New Roman,serif" font-size="15.00">seq</text>
</g>
<!-- 2082704906080&#45;&#45;2082704910112 -->
<g id="edge42" class="edge">
<title>2082704906080&#45;&#45;2082704910112</title>
<path fill="none" stroke="black" d="M838.57,-507.91C902.82,-510.14 1067.41,-515.86 1131.62,-518.09"/>
</g>
<!-- 2082704900560 -->
<g id="node12" class="node">
<title>2082704900560</title>
<ellipse fill="none" stroke="black" cx="1597.46" cy="-546" rx="27" ry="18"/>
<text text-anchor="middle" x="1597.46" y="-540" font-family="Times New Roman,serif" font-size="15.00">xor</text>
</g>
<!-- 2082704910112&#45;&#45;2082704900560 -->
<g id="edge17" class="edge">
<title>2082704910112&#45;&#45;2082704900560</title>
<path fill="none" stroke="black" d="M1186.16,-520.63C1263.97,-525.44 1492.24,-539.56 1570.09,-544.37"/>
</g>
<!-- 2082704913760 -->
<g id="node23" class="node">
<title>2082704913760</title>
<ellipse fill="none" stroke="black" cx="1597.46" cy="-492" rx="27" ry="18"/>
<text text-anchor="middle" x="1597.46" y="-486" font-family="Times New Roman,serif" font-size="15.00">xor</text>
</g>
<!-- 2082704910112&#45;&#45;2082704913760 -->
<g id="edge41" class="edge">
<title>2082704910112&#45;&#45;2082704913760</title>
<path fill="none" stroke="black" d="M1186.16,-517.37C1263.97,-512.56 1492.24,-498.44 1570.09,-493.63"/>
</g>
<!-- 2082704909632 -->
<g id="node13" class="node">
<title>2082704909632</title>
<ellipse fill="black" stroke="black" cx="2061.67" cy="-585" rx="2.7" ry="2.7"/>
</g>
<!-- 2082704900560&#45;&#45;2082704909632 -->
<g id="edge7" class="edge">
<title>2082704900560&#45;&#45;2082704909632</title>
<path fill="none" stroke="black" d="M1624.63,-548.21C1717.83,-556.07 2029.49,-582.37 2058.5,-584.82"/>
</g>
<!-- 2082704915344 -->
<g id="node14" class="node">
<title>2082704915344</title>
<ellipse fill="none" stroke="black" cx="2061.67" cy="-546" rx="27" ry="18"/>
<text text-anchor="middle" x="2061.67" y="-540" font-family="Times New Roman,serif" font-size="15.00">seq</text>
</g>
<!-- 2082704900560&#45;&#45;2082704915344 -->
<g id="edge16" class="edge">
<title>2082704900560&#45;&#45;2082704915344</title>
<path fill="none" stroke="black" d="M1624.63,-546C1705.8,-546 1952.66,-546 2034.21,-546"/>
</g>
<!-- 2082704904160 -->
<g id="node15" class="node">
<title>2082704904160</title>
<ellipse fill="none" stroke="black" cx="2420.45" cy="-600" rx="142.97" ry="18"/>
<text text-anchor="middle" x="2420.45" y="-594" font-family="Times New Roman,serif" font-size="15.00">Applicant plays stakeholder role</text>
</g>
<!-- 2082704915344&#45;&#45;2082704904160 -->
<g id="edge8" class="edge">
<title>2082704915344&#45;&#45;2082704904160</title>
<path fill="none" stroke="black" d="M2088.33,-549.88C2137.54,-557.33 2247.37,-573.95 2327.08,-586.02"/>
</g>
<!-- 2082704906944 -->
<g id="node16" class="node">
<title>2082704906944</title>
<ellipse fill="none" stroke="black" cx="2420.45" cy="-546" rx="27" ry="18"/>
<text text-anchor="middle" x="2420.45" y="-540" font-family="Times New Roman,serif" font-size="15.00">and</text>
</g>
<!-- 2082704915344&#45;&#45;2082704906944 -->
<g id="edge15" class="edge">
<title>2082704915344&#45;&#45;2082704906944</title>
<path fill="none" stroke="black" d="M2088.9,-546C2154.88,-546 2327.16,-546 2393.18,-546"/>
</g>
<!-- 2082704913952 -->
<g id="node17" class="node">
<title>2082704913952</title>
<ellipse fill="none" stroke="black" cx="2746.99" cy="-600" rx="27" ry="18"/>
<text text-anchor="middle" x="2746.99" y="-594" font-family="Times New Roman,serif" font-size="15.00">xor</text>
</g>
<!-- 2082704906944&#45;&#45;2082704913952 -->
<g id="edge11" class="edge">
<title>2082704906944&#45;&#45;2082704913952</title>
<path fill="none" stroke="black" d="M2447.19,-550.28C2507.91,-560.39 2659.53,-585.61 2720.25,-595.72"/>
</g>
<!-- 2082704907904 -->
<g id="node20" class="node">
<title>2082704907904</title>
<ellipse fill="none" stroke="black" cx="2746.99" cy="-546" rx="27" ry="18"/>
<text text-anchor="middle" x="2746.99" y="-540" font-family="Times New Roman,serif" font-size="15.00">xor</text>
</g>
<!-- 2082704906944&#45;&#45;2082704907904 -->
<g id="edge14" class="edge">
<title>2082704906944&#45;&#45;2082704907904</title>
<path fill="none" stroke="black" d="M2447.73,-546C2508.7,-546 2659.15,-546 2719.91,-546"/>
</g>
<!-- 2082704908384 -->
<g id="node18" class="node">
<title>2082704908384</title>
<ellipse fill="black" stroke="black" cx="3071.99" cy="-639" rx="2.7" ry="2.7"/>
</g>
<!-- 2082704913952&#45;&#45;2082704908384 -->
<g id="edge9" class="edge">
<title>2082704913952&#45;&#45;2082704908384</title>
<path fill="none" stroke="black" d="M2773.87,-603.13C2846.33,-611.87 3047.3,-636.14 3069.07,-638.77"/>
</g>
<!-- 2082704910304 -->
<g id="node19" class="node">
<title>2082704910304</title>
<ellipse fill="none" stroke="black" cx="3071.99" cy="-600" rx="73.36" ry="18"/>
<text text-anchor="middle" x="3071.99" y="-594" font-family="Times New Roman,serif" font-size="15.00">Stop on request</text>
</g>
<!-- 2082704913952&#45;&#45;2082704910304 -->
<g id="edge10" class="edge">
<title>2082704913952&#45;&#45;2082704910304</title>
<path fill="none" stroke="black" d="M2774.42,-600C2822.78,-600 2927.08,-600 2998.16,-600"/>
</g>
<!-- 2082704905936 -->
<g id="node21" class="node">
<title>2082704905936</title>
<ellipse fill="black" stroke="black" cx="3071.99" cy="-561" rx="2.7" ry="2.7"/>
</g>
<!-- 2082704907904&#45;&#45;2082704905936 -->
<g id="edge12" class="edge">
<title>2082704907904&#45;&#45;2082704905936</title>
<path fill="none" stroke="black" d="M2774.42,-547.23C2847.04,-550.6 3045.76,-559.83 3068.8,-560.9"/>
</g>
<!-- 2082706380496 -->
<g id="node22" class="node">
<title>2082706380496</title>
<ellipse fill="none" stroke="black" cx="3071.99" cy="-522" rx="128.63" ry="18"/>
<text text-anchor="middle" x="3071.99" y="-516" font-family="Times New Roman,serif" font-size="15.00">Evaluate provisional charges</text>
</g>
<!-- 2082704907904&#45;&#45;2082706380496 -->
<g id="edge13" class="edge">
<title>2082704907904&#45;&#45;2082706380496</title>
<path fill="none" stroke="black" d="M2774.15,-544.06C2813.79,-541.11 2891.48,-535.34 2957.43,-530.44"/>
</g>
<!-- 2082704910496 -->
<g id="node24" class="node">
<title>2082704910496</title>
<ellipse fill="black" stroke="black" cx="2061.67" cy="-492" rx="2.7" ry="2.7"/>
</g>
<!-- 2082704913760&#45;&#45;2082704910496 -->
<g id="edge18" class="edge">
<title>2082704913760&#45;&#45;2082704910496</title>
<path fill="none" stroke="black" d="M1624.63,-492C1717.83,-492 2029.49,-492 2058.5,-492"/>
</g>
<!-- 2082704900656 -->
<g id="node25" class="node">
<title>2082704900656</title>
<ellipse fill="none" stroke="black" cx="2061.67" cy="-453" rx="27" ry="18"/>
<text text-anchor="middle" x="2061.67" y="-447" font-family="Times New Roman,serif" font-size="15.00">seq</text>
</g>
<!-- 2082704913760&#45;&#45;2082704900656 -->
<g id="edge40" class="edge">
<title>2082704913760&#45;&#45;2082704900656</title>
<path fill="none" stroke="black" d="M1624.63,-489.79C1705.89,-482.94 1953.24,-462.06 2034.5,-455.21"/>
</g>
<!-- 2082704904736 -->
<g id="node26" class="node">
<title>2082704904736</title>
<ellipse fill="none" stroke="black" cx="2420.45" cy="-453" rx="27" ry="18"/>
<text text-anchor="middle" x="2420.45" y="-447" font-family="Times New Roman,serif" font-size="15.00">and</text>
</g>
<!-- 2082704900656&#45;&#45;2082704904736 -->
<g id="edge28" class="edge">
<title>2082704900656&#45;&#45;2082704904736</title>
<path fill="none" stroke="black" d="M2088.9,-453C2154.88,-453 2327.16,-453 2393.18,-453"/>
</g>
<!-- 2082704913568 -->
<g id="node36" class="node">
<title>2082704913568</title>
<ellipse fill="none" stroke="black" cx="2420.45" cy="-399" rx="27" ry="18"/>
<text text-anchor="middle" x="2420.45" y="-393" font-family="Times New Roman,serif" font-size="15.00">xor</text>
</g>
<!-- 2082704900656&#45;&#45;2082704913568 -->
<g id="edge39" class="edge">
<title>2082704900656&#45;&#45;2082704913568</title>
<path fill="none" stroke="black" d="M2088.33,-449.12C2154.16,-439.15 2328.45,-412.77 2394.02,-402.85"/>
</g>
<!-- 2082706383616 -->
<g id="node27" class="node">
<title>2082706383616</title>
<ellipse fill="none" stroke="black" cx="2746.99" cy="-492" rx="147.57" ry="18"/>
<text text-anchor="middle" x="2746.99" y="-486" font-family="Times New Roman,serif" font-size="15.00">Ordinary procedure without MER</text>
</g>
<!-- 2082704904736&#45;&#45;2082706383616 -->
<g id="edge19" class="edge">
<title>2082704904736&#45;&#45;2082706383616</title>
<path fill="none" stroke="black" d="M2447.46,-456.13C2488.82,-461.1 2571.87,-471.08 2639.9,-479.25"/>
</g>
<!-- 2082706376800 -->
<g id="node28" class="node">
<title>2082706376800</title>
<ellipse fill="none" stroke="black" cx="2746.99" cy="-438" rx="27" ry="18"/>
<text text-anchor="middle" x="2746.99" y="-432" font-family="Times New Roman,serif" font-size="15.00">seq</text>
</g>
<!-- 2082704904736&#45;&#45;2082706376800 -->
<g id="edge27" class="edge">
<title>2082704904736&#45;&#45;2082706376800</title>
<path fill="none" stroke="black" d="M2447.73,-451.79C2508.7,-448.97 2659.15,-442.01 2719.91,-439.21"/>
</g>
<!-- 2082706374784 -->
<g id="node29" class="node">
<title>2082706374784</title>
<ellipse fill="none" stroke="black" cx="3071.99" cy="-468" rx="27" ry="18"/>
<text text-anchor="middle" x="3071.99" y="-462" font-family="Times New Roman,serif" font-size="15.00">xor</text>
</g>
<!-- 2082706376800&#45;&#45;2082706374784 -->
<g id="edge25" class="edge">
<title>2082706376800&#45;&#45;2082706374784</title>
<path fill="none" stroke="black" d="M2774.15,-440.43C2834.82,-446.07 2984.56,-459.97 3045.03,-465.59"/>
</g>
<!-- 2082706386880 -->
<g id="node35" class="node">
<title>2082706386880</title>
<ellipse fill="none" stroke="black" cx="3071.99" cy="-414" rx="139.38" ry="18"/>
<text text-anchor="middle" x="3071.99" y="-408" font-family="Times New Roman,serif" font-size="15.00">Refer to the competent authority</text>
</g>
<!-- 2082706376800&#45;&#45;2082706386880 -->
<g id="edge26" class="edge">
<title>2082706376800&#45;&#45;2082706386880</title>
<path fill="none" stroke="black" d="M2774.15,-436.06C2812.29,-433.22 2885.65,-427.77 2949.89,-423"/>
</g>
<!-- 2082706383904 -->
<g id="node30" class="node">
<title>2082706383904</title>
<ellipse fill="black" stroke="black" cx="3276.42" cy="-486" rx="2.7" ry="2.7"/>
</g>
<!-- 2082706374784&#45;&#45;2082706383904 -->
<g id="edge20" class="edge">
<title>2082706374784&#45;&#45;2082706383904</title>
<path fill="none" stroke="black" d="M3099.04,-470.32C3149.44,-474.8 3256.81,-484.35 3273.28,-485.81"/>
</g>
<!-- 2082706389040 -->
<g id="node31" class="node">
<title>2082706389040</title>
<ellipse fill="none" stroke="black" cx="3276.42" cy="-447" rx="27" ry="18"/>
<text text-anchor="middle" x="3276.42" y="-441" font-family="Times New Roman,serif" font-size="15.00">seq</text>
</g>
<!-- 2082706374784&#45;&#45;2082706389040 -->
<g id="edge24" class="edge">
<title>2082706374784&#45;&#45;2082706389040</title>
<path fill="none" stroke="black" d="M3099.04,-465.3C3137.91,-461.27 3210.66,-453.72 3249.47,-449.69"/>
</g>
<!-- 2082707746800 -->
<g id="node32" class="node">
<title>2082707746800</title>
<ellipse fill="none" stroke="black" cx="3522.3" cy="-501" rx="182.89" ry="18"/>
<text text-anchor="middle" x="3522.3" y="-495" font-family="Times New Roman,serif" font-size="15.00">Mandatory Environmental Report required</text>
</g>
<!-- 2082706389040&#45;&#45;2082707746800 -->
<g id="edge21" class="edge">
<title>2082706389040&#45;&#45;2082707746800</title>
<path fill="none" stroke="black" d="M3302.6,-452.58C3336.07,-459.99 3396.68,-473.41 3445.62,-484.24"/>
</g>
<!-- 2082707750160 -->
<g id="node33" class="node">
<title>2082707750160</title>
<ellipse fill="none" stroke="black" cx="3522.3" cy="-447" rx="129.15" ry="18"/>
<text text-anchor="middle" x="3522.3" y="-441" font-family="Times New Roman,serif" font-size="15.00">Regular procedural activities</text>
</g>
<!-- 2082706389040&#45;&#45;2082707750160 -->
<g id="edge22" class="edge">
<title>2082706389040&#45;&#45;2082707750160</title>
<path fill="none" stroke="black" d="M3303.52,-447C3325.51,-447 3358.75,-447 3392.68,-447"/>
</g>
<!-- 2082707736624 -->
<g id="node34" class="node">
<title>2082707736624</title>
<ellipse fill="none" stroke="black" cx="3522.3" cy="-393" rx="87.69" ry="18"/>
<text text-anchor="middle" x="3522.3" y="-387" font-family="Times New Roman,serif" font-size="15.00">Phased application</text>
</g>
<!-- 2082706389040&#45;&#45;2082707736624 -->
<g id="edge23" class="edge">
<title>2082706389040&#45;&#45;2082707736624</title>
<path fill="none" stroke="black" d="M3302.6,-441.42C3339.72,-433.21 3410.22,-417.59 3461.17,-406.32"/>
</g>
<!-- 2082706383760 -->
<g id="node37" class="node">
<title>2082706383760</title>
<ellipse fill="black" stroke="black" cx="2746.99" cy="-399" rx="2.7" ry="2.7"/>
</g>
<!-- 2082704913568&#45;&#45;2082706383760 -->
<g id="edge29" class="edge">
<title>2082704913568&#45;&#45;2082706383760</title>
<path fill="none" stroke="black" d="M2447.73,-399C2520.77,-399 2722.25,-399 2744.06,-399"/>
</g>
<!-- 2082706383232 -->
<g id="node38" class="node">
<title>2082706383232</title>
<ellipse fill="none" stroke="black" cx="2746.99" cy="-360" rx="27" ry="18"/>
<text text-anchor="middle" x="2746.99" y="-354" font-family="Times New Roman,serif" font-size="15.00">seq</text>
</g>
<!-- 2082704913568&#45;&#45;2082706383232 -->
<g id="edge38" class="edge">
<title>2082704913568&#45;&#45;2082706383232</title>
<path fill="none" stroke="black" d="M2447.46,-395.87C2508.38,-388.55 2659.71,-370.37 2720.3,-363.09"/>
</g>
<!-- 2082706382704 -->
<g id="node39" class="node">
<title>2082706382704</title>
<ellipse fill="none" stroke="black" cx="3071.99" cy="-360" rx="141.43" ry="18"/>
<text text-anchor="middle" x="3071.99" y="-354" font-family="Times New Roman,serif" font-size="15.00">Produce procedure confirmation</text>
</g>
<!-- 2082706383232&#45;&#45;2082706382704 -->
<g id="edge30" class="edge">
<title>2082706383232&#45;&#45;2082706382704</title>
<path fill="none" stroke="black" d="M2774.42,-360C2808.77,-360 2871.34,-360 2930.18,-360"/>
</g>
<!-- 2082706377184 -->
<g id="node40" class="node">
<title>2082706377184</title>
<ellipse fill="none" stroke="black" cx="3071.99" cy="-306" rx="27" ry="18"/>
<text text-anchor="middle" x="3071.99" y="-300" font-family="Times New Roman,serif" font-size="15.00">xor</text>
</g>
<!-- 2082706383232&#45;&#45;2082706377184 -->
<g id="edge37" class="edge">
<title>2082706383232&#45;&#45;2082706377184</title>
<path fill="none" stroke="black" d="M2773.6,-355.72C2834.03,-345.61 2984.94,-320.39 3045.37,-310.28"/>
</g>
<!-- 2082707741712 -->
<g id="node41" class="node">
<title>2082707741712</title>
<ellipse fill="black" stroke="black" cx="3276.42" cy="-326" rx="2.7" ry="2.7"/>
</g>
<!-- 2082706377184&#45;&#45;2082707741712 -->
<g id="edge31" class="edge">
<title>2082706377184&#45;&#45;2082707741712</title>
<path fill="none" stroke="black" d="M3099.04,-308.57C3149.44,-313.55 3256.81,-324.16 3273.28,-325.79"/>
</g>
<!-- 2082707745360 -->
<g id="node42" class="node">
<title>2082707745360</title>
<ellipse fill="none" stroke="black" cx="3276.42" cy="-287" rx="27" ry="18"/>
<text text-anchor="middle" x="3276.42" y="-281" font-family="Times New Roman,serif" font-size="15.00">seq</text>
</g>
<!-- 2082706377184&#45;&#45;2082707745360 -->
<g id="edge36" class="edge">
<title>2082706377184&#45;&#45;2082707745360</title>
<path fill="none" stroke="black" d="M3099.04,-303.55C3137.91,-299.91 3210.66,-293.08 3249.47,-289.44"/>
</g>
<!-- 2082707745888 -->
<g id="node43" class="node">
<title>2082707745888</title>
<ellipse fill="none" stroke="black" cx="3522.3" cy="-322" rx="51.86" ry="18"/>
<text text-anchor="middle" x="3522.3" y="-316" font-family="Times New Roman,serif" font-size="15.00">Broadcast</text>
</g>
<!-- 2082707745360&#45;&#45;2082707745888 -->
<g id="edge32" class="edge">
<title>2082707745360&#45;&#45;2082707745888</title>
<path fill="none" stroke="black" d="M3303.06,-290.68C3343.54,-296.49 3422.89,-307.88 3473.94,-315.2"/>
</g>
<!-- 2082707745744 -->
<g id="node44" class="node">
<title>2082707745744</title>
<ellipse fill="none" stroke="black" cx="3522.3" cy="-268" rx="27" ry="18"/>
<text text-anchor="middle" x="3522.3" y="-262" font-family="Times New Roman,serif" font-size="15.00">xor</text>
</g>
<!-- 2082707745360&#45;&#45;2082707745744 -->
<g id="edge35" class="edge">
<title>2082707745360&#45;&#45;2082707745744</title>
<path fill="none" stroke="black" d="M3303.52,-284.97C3350.34,-281.32 3448.07,-273.71 3495.02,-270.05"/>
</g>
<!-- 2082707743680 -->
<g id="node45" class="node">
<title>2082707743680</title>
<ellipse fill="black" stroke="black" cx="3862.66" cy="-288" rx="2.7" ry="2.7"/>
</g>
<!-- 2082707745744&#45;&#45;2082707743680 -->
<g id="edge33" class="edge">
<title>2082707745744&#45;&#45;2082707743680</title>
<path fill="none" stroke="black" d="M3549.57,-269.55C3624.72,-273.99 3836.68,-286.52 3859.63,-287.88"/>
</g>
<!-- 2082707747184 -->
<g id="node46" class="node">
<title>2082707747184</title>
<ellipse fill="none" stroke="black" cx="3862.66" cy="-249" rx="121.47" ry="18"/>
<text text-anchor="middle" x="3862.66" y="-243" font-family="Times New Roman,serif" font-size="15.00">Form publication document</text>
</g>
<!-- 2082707745744&#45;&#45;2082707747184 -->
<g id="edge34" class="edge">
<title>2082707745744&#45;&#45;2082707747184</title>
<path fill="none" stroke="black" d="M3549.57,-266.52C3591.88,-264.15 3677.56,-259.34 3748.45,-255.36"/>
</g>
<!-- 2082704910592 -->
<g id="node48" class="node">
<title>2082704910592</title>
<ellipse fill="black" stroke="black" cx="1158.83" cy="-480" rx="2.7" ry="2.7"/>
</g>
<!-- 2082704901904&#45;&#45;2082704910592 -->
<g id="edge44" class="edge">
<title>2082704901904&#45;&#45;2082704910592</title>
<path fill="none" stroke="black" d="M838.28,-443.93C914.24,-452.51 1132.15,-477.1 1155.75,-479.77"/>
</g>
<!-- 2082704910064 -->
<g id="node49" class="node">
<title>2082704910064</title>
<ellipse fill="none" stroke="black" cx="1158.83" cy="-441" rx="112.26" ry="18"/>
<text text-anchor="middle" x="1158.83" y="-435" font-family="Times New Roman,serif" font-size="15.00">Register publication date</text>
</g>
<!-- 2082704901904&#45;&#45;2082704910064 -->
<g id="edge45" class="edge">
<title>2082704901904&#45;&#45;2082704910064</title>
<path fill="none" stroke="black" d="M838.57,-441C882.35,-441 972.71,-441 1046.16,-441"/>
</g>
<!-- 2082704913616 -->
<g id="node51" class="node">
<title>2082704913616</title>
<ellipse fill="black" stroke="black" cx="1158.83" cy="-402" rx="2.7" ry="2.7"/>
</g>
<!-- 2082704905504&#45;&#45;2082704913616 -->
<g id="edge47" class="edge">
<title>2082704905504&#45;&#45;2082704913616</title>
<path fill="none" stroke="black" d="M838.57,-384.44C914.79,-388.64 1132.21,-400.59 1155.76,-401.89"/>
</g>
<!-- 2082704905888 -->
<g id="node52" class="node">
<title>2082704905888</title>
<ellipse fill="none" stroke="black" cx="1158.83" cy="-363" rx="129.15" ry="18"/>
<text text-anchor="middle" x="1158.83" y="-357" font-family="Times New Roman,serif" font-size="15.00">Commence WABOprocedure</text>
</g>
<!-- 2082704905504&#45;&#45;2082704905888 -->
<g id="edge48" class="edge">
<title>2082704905504&#45;&#45;2082704905888</title>
<path fill="none" stroke="black" d="M838.57,-381.48C880.85,-379.03 966.59,-374.07 1038.58,-369.9"/>
</g>
<!-- 2082704913136 -->
<g id="node54" class="node">
<title>2082704913136</title>
<ellipse fill="black" stroke="black" cx="1158.83" cy="-324" rx="2.7" ry="2.7"/>
</g>
<!-- 2082704911936&#45;&#45;2082704913136 -->
<g id="edge50" class="edge">
<title>2082704911936&#45;&#45;2082704913136</title>
<path fill="none" stroke="black" d="M838.57,-324C914.79,-324 1132.21,-324 1155.76,-324"/>
</g>
<!-- 2082704909104 -->
<g id="node55" class="node">
<title>2082704909104</title>
<ellipse fill="none" stroke="black" cx="1158.83" cy="-285" rx="27" ry="18"/>
<text text-anchor="middle" x="1158.83" y="-279" font-family="Times New Roman,serif" font-size="15.00">seq</text>
</g>
<!-- 2082704911936&#45;&#45;2082704909104 -->
<g id="edge56" class="edge">
<title>2082704911936&#45;&#45;2082704909104</title>
<path fill="none" stroke="black" d="M838.28,-321.07C902.47,-313.82 1068.02,-295.14 1132.03,-287.91"/>
</g>
<!-- 2082704911168 -->
<g id="node56" class="node">
<title>2082704911168</title>
<ellipse fill="none" stroke="black" cx="1597.46" cy="-341" rx="176.23" ry="18"/>
<text text-anchor="middle" x="1597.46" y="-335" font-family="Times New Roman,serif" font-size="15.00">Log date termination request documented</text>
</g>
<!-- 2082704909104&#45;&#45;2082704911168 -->
<g id="edge51" class="edge">
<title>2082704909104&#45;&#45;2082704911168</title>
<path fill="none" stroke="black" d="M1185.84,-288.34C1243.49,-295.73 1384.86,-313.86 1485.59,-326.78"/>
</g>
<!-- 2082704911072 -->
<g id="node57" class="node">
<title>2082704911072</title>
<ellipse fill="none" stroke="black" cx="1597.46" cy="-287" rx="27" ry="18"/>
<text text-anchor="middle" x="1597.46" y="-281" font-family="Times New Roman,serif" font-size="15.00">xor</text>
</g>
<!-- 2082704909104&#45;&#45;2082704911072 -->
<g id="edge54" class="edge">
<title>2082704909104&#45;&#45;2082704911072</title>
<path fill="none" stroke="black" d="M1186.16,-285.12C1263.97,-285.48 1492.24,-286.52 1570.09,-286.88"/>
</g>
<!-- 2082704902816 -->
<g id="node60" class="node">
<title>2082704902816</title>
<ellipse fill="none" stroke="black" cx="1597.46" cy="-233" rx="110.72" ry="18"/>
<text text-anchor="middle" x="1597.46" y="-227" font-family="Times New Roman,serif" font-size="15.00">Terminate request notice</text>
</g>
<!-- 2082704909104&#45;&#45;2082704902816 -->
<g id="edge55" class="edge">
<title>2082704909104&#45;&#45;2082704902816</title>
<path fill="none" stroke="black" d="M1185.84,-281.9C1247.71,-274.53 1406.03,-255.68 1507.02,-243.65"/>
</g>
<!-- 2082706389952 -->
<g id="node58" class="node">
<title>2082706389952</title>
<ellipse fill="none" stroke="black" cx="2061.67" cy="-314" rx="143.99" ry="18"/>
<text text-anchor="middle" x="2061.67" y="-308" font-family="Times New Roman,serif" font-size="15.00">Log termination request senddate</text>
</g>
<!-- 2082704911072&#45;&#45;2082706389952 -->
<g id="edge52" class="edge">
<title>2082704911072&#45;&#45;2082706389952</title>
<path fill="none" stroke="black" d="M1624.63,-288.53C1682.35,-291.9 1823.88,-300.17 1930.15,-306.38"/>
</g>
<!-- 2082706376416 -->
<g id="node59" class="node">
<title>2082706376416</title>
<ellipse fill="none" stroke="black" cx="2061.67" cy="-260" rx="179.82" ry="18"/>
<text text-anchor="middle" x="2061.67" y="-254" font-family="Times New Roman,serif" font-size="15.00">Premature termination of procedure phase</text>
</g>
<!-- 2082704911072&#45;&#45;2082706376416 -->
<g id="edge53" class="edge">
<title>2082704911072&#45;&#45;2082706376416</title>
<path fill="none" stroke="black" d="M1624.63,-285.47C1677.87,-282.36 1802.38,-275.09 1904.78,-269.11"/>
</g>
<!-- 2082704910880 -->
<g id="node62" class="node">
<title>2082704910880</title>
<ellipse fill="black" stroke="black" cx="503.2" cy="-309" rx="2.7" ry="2.7"/>
</g>
<!-- 2082704910544&#45;&#45;2082704910880 -->
<g id="edge60" class="edge">
<title>2082704910544&#45;&#45;2082704910880</title>
<path fill="none" stroke="black" d="M248.54,-309C313.88,-309 479.65,-309 500.12,-309"/>
</g>
<!-- 2082704906512 -->
<g id="node63" class="node">
<title>2082704906512</title>
<ellipse fill="none" stroke="black" cx="503.2" cy="-246" rx="27" ry="18"/>
<text text-anchor="middle" x="503.2" y="-240" font-family="Times New Roman,serif" font-size="15.00">seq</text>
</g>
<!-- 2082704910544&#45;&#45;2082704906512 -->
<g id="edge65" class="edge">
<title>2082704910544&#45;&#45;2082704906512</title>
<path fill="none" stroke="black" d="M247.04,-303.41C300.18,-291.45 424.32,-263.52 477.41,-251.58"/>
</g>
<!-- 2082704906608 -->
<g id="node64" class="node">
<title>2082704906608</title>
<ellipse fill="none" stroke="black" cx="811.31" cy="-246" rx="27" ry="18"/>
<text text-anchor="middle" x="811.31" y="-240" font-family="Times New Roman,serif" font-size="15.00">xor</text>
</g>
<!-- 2082704906512&#45;&#45;2082704906608 -->
<g id="edge63" class="edge">
<title>2082704906512&#45;&#45;2082704906608</title>
<path fill="none" stroke="black" d="M530.57,-246C588.43,-246 726,-246 783.9,-246"/>
</g>
<!-- 2082704902432 -->
<g id="node67" class="node">
<title>2082704902432</title>
<ellipse fill="none" stroke="black" cx="811.31" cy="-192" rx="157.3" ry="18"/>
<text text-anchor="middle" x="811.31" y="-186" font-family="Times New Roman,serif" font-size="15.00">Register senddate acknowledgement</text>
</g>
<!-- 2082704906512&#45;&#45;2082704902432 -->
<g id="edge64" class="edge">
<title>2082704906512&#45;&#45;2082704902432</title>
<path fill="none" stroke="black" d="M529.77,-241.49C571.88,-234.06 657.67,-218.93 723.35,-207.34"/>
</g>
<!-- 2082706383184 -->
<g id="node65" class="node">
<title>2082706383184</title>
<ellipse fill="black" stroke="black" cx="1158.83" cy="-246" rx="2.7" ry="2.7"/>
</g>
<!-- 2082704906608&#45;&#45;2082706383184 -->
<g id="edge61" class="edge">
<title>2082704906608&#45;&#45;2082706383184</title>
<path fill="none" stroke="black" d="M838.57,-246C914.79,-246 1132.21,-246 1155.76,-246"/>
</g>
<!-- 2082706388704 -->
<g id="node66" class="node">
<title>2082706388704</title>
<ellipse fill="none" stroke="black" cx="1158.83" cy="-207" rx="154.22" ry="18"/>
<text text-anchor="middle" x="1158.83" y="-201" font-family="Times New Roman,serif" font-size="15.00">Inspect field for phased application</text>
</g>
<!-- 2082704906608&#45;&#45;2082706388704 -->
<g id="edge62" class="edge">
<title>2082704906608&#45;&#45;2082706388704</title>
<path fill="none" stroke="black" d="M838.28,-243.07C881.91,-238.14 972.37,-227.93 1045.94,-219.63"/>
</g>
<!-- 2082704907808 -->
<g id="node69" class="node">
<title>2082704907808</title>
<ellipse fill="black" stroke="black" cx="503.2" cy="-186" rx="2.7" ry="2.7"/>
</g>
<!-- 2082704900992&#45;&#45;2082704907808 -->
<g id="edge67" class="edge">
<title>2082704900992&#45;&#45;2082704907808</title>
<path fill="none" stroke="black" d="M248.54,-186C313.88,-186 479.65,-186 500.12,-186"/>
</g>
<!-- 2082704913664 -->
<g id="node70" class="node">
<title>2082704913664</title>
<ellipse fill="none" stroke="black" cx="503.2" cy="-99" rx="27" ry="18"/>
<text text-anchor="middle" x="503.2" y="-93" font-family="Times New Roman,serif" font-size="15.00">seq</text>
</g>
<!-- 2082704900992&#45;&#45;2082704913664 -->
<g id="edge78" class="edge">
<title>2082704900992&#45;&#45;2082704913664</title>
<path fill="none" stroke="black" d="M246.07,-178.58C298.97,-162.15 425.54,-122.82 478.39,-106.4"/>
</g>
<!-- 2082706390960 -->
<g id="node71" class="node">
<title>2082706390960</title>
<ellipse fill="none" stroke="black" cx="811.31" cy="-126" rx="27" ry="18"/>
<text text-anchor="middle" x="811.31" y="-120" font-family="Times New Roman,serif" font-size="15.00">xor</text>
</g>
<!-- 2082704913664&#45;&#45;2082706390960 -->
<g id="edge73" class="edge">
<title>2082704913664&#45;&#45;2082706390960</title>
<path fill="none" stroke="black" d="M530.3,-101.3C588.13,-106.4 726.51,-118.61 784.28,-123.7"/>
</g>
<!-- 2082706382128 -->
<g id="node77" class="node">
<title>2082706382128</title>
<ellipse fill="none" stroke="black" cx="811.31" cy="-72" rx="27" ry="18"/>
<text text-anchor="middle" x="811.31" y="-66" font-family="Times New Roman,serif" font-size="15.00">and</text>
</g>
<!-- 2082704913664&#45;&#45;2082706382128 -->
<g id="edge76" class="edge">
<title>2082704913664&#45;&#45;2082706382128</title>
<path fill="none" stroke="black" d="M530.3,-96.7C588.13,-91.6 726.51,-79.39 784.28,-74.3"/>
</g>
<!-- 2082704912704 -->
<g id="node80" class="node">
<title>2082704912704</title>
<ellipse fill="none" stroke="black" cx="811.31" cy="-18" rx="84.11" ry="18"/>
<text text-anchor="middle" x="811.31" y="-12" font-family="Times New Roman,serif" font-size="15.00">Conclude the case</text>
</g>
<!-- 2082704913664&#45;&#45;2082704912704 -->
<g id="edge77" class="edge">
<title>2082704913664&#45;&#45;2082704912704</title>
<path fill="none" stroke="black" d="M528.74,-92.51C578.04,-79.46 690.12,-49.8 757.06,-32.09"/>
</g>
<!-- 2082707745936 -->
<g id="node72" class="node">
<title>2082707745936</title>
<ellipse fill="black" stroke="black" cx="1158.83" cy="-165" rx="2.7" ry="2.7"/>
</g>
<!-- 2082706390960&#45;&#45;2082707745936 -->
<g id="edge68" class="edge">
<title>2082706390960&#45;&#45;2082707745936</title>
<path fill="none" stroke="black" d="M838.28,-128.93C914.24,-137.51 1132.15,-162.1 1155.75,-164.77"/>
</g>
<!-- 2082707745168 -->
<g id="node73" class="node">
<title>2082707745168</title>
<ellipse fill="none" stroke="black" cx="1158.83" cy="-126" rx="27" ry="18"/>
<text text-anchor="middle" x="1158.83" y="-120" font-family="Times New Roman,serif" font-size="15.00">seq</text>
</g>
<!-- 2082706390960&#45;&#45;2082707745168 -->
<g id="edge72" class="edge">
<title>2082706390960&#45;&#45;2082707745168</title>
<path fill="none" stroke="black" d="M838.57,-126C902.82,-126 1067.41,-126 1131.62,-126"/>
</g>
<!-- 2082707748960 -->
<g id="node74" class="node">
<title>2082707748960</title>
<ellipse fill="none" stroke="black" cx="1597.46" cy="-179" rx="200.29" ry="18"/>
<text text-anchor="middle" x="1597.46" y="-173" font-family="Times New Roman,serif" font-size="15.00">Permit not needed or only notification required</text>
</g>
<!-- 2082707745168&#45;&#45;2082707748960 -->
<g id="edge69" class="edge">
<title>2082707745168&#45;&#45;2082707748960</title>
<path fill="none" stroke="black" d="M1185.84,-129.16C1241.65,-135.93 1375.94,-152.23 1475.85,-164.36"/>
</g>
<!-- 2082707747664 -->
<g id="node75" class="node">
<title>2082707747664</title>
<ellipse fill="none" stroke="black" cx="1597.46" cy="-125" rx="248.4" ry="18"/>
<text text-anchor="middle" x="1597.46" y="-119" font-family="Times New Roman,serif" font-size="15.00">document senddate letter no permit or notification required</text>
</g>
<!-- 2082707745168&#45;&#45;2082707747664 -->
<g id="edge70" class="edge">
<title>2082707745168&#45;&#45;2082707747664</title>
<path fill="none" stroke="black" d="M1186.16,-125.94C1220.09,-125.86 1282.62,-125.72 1348.81,-125.57"/>
</g>
<!-- 2082707741616 -->
<g id="node76" class="node">
<title>2082707741616</title>
<ellipse fill="none" stroke="black" cx="1597.46" cy="-71" rx="159.85" ry="18"/>
<text text-anchor="middle" x="1597.46" y="-65" font-family="Times New Roman,serif" font-size="15.00">draft letter stating no permit required</text>
</g>
<!-- 2082707745168&#45;&#45;2082707741616 -->
<g id="edge71" class="edge">
<title>2082707745168&#45;&#45;2082707741616</title>
<path fill="none" stroke="black" d="M1185.84,-122.72C1244.13,-115.38 1388.03,-97.26 1488.94,-84.54"/>
</g>
<!-- 2082707741040 -->
<g id="node78" class="node">
<title>2082707741040</title>
<ellipse fill="none" stroke="black" cx="1158.83" cy="-72" rx="119.42" ry="18"/>
<text text-anchor="middle" x="1158.83" y="-66" font-family="Times New Roman,serif" font-size="15.00">Phase procedure cancelled</text>
</g>
<!-- 2082706382128&#45;&#45;2082707741040 -->
<g id="edge74" class="edge">
<title>2082706382128&#45;&#45;2082707741040</title>
<path fill="none" stroke="black" d="M838.57,-72C880.93,-72 966.91,-72 1038.98,-72"/>
</g>
<!-- 2082707743632 -->
<g id="node79" class="node">
<title>2082707743632</title>
<ellipse fill="none" stroke="black" cx="1158.83" cy="-18" rx="96.39" ry="18"/>
<text text-anchor="middle" x="1158.83" y="-12" font-family="Times New Roman,serif" font-size="15.00">Register the deadline</text>
</g>
<!-- 2082706382128&#45;&#45;2082707743632 -->
<g id="edge75" class="edge">
<title>2082706382128&#45;&#45;2082707743632</title>
<path fill="none" stroke="black" d="M838,-67.99C889.3,-59.97 1006.13,-41.71 1083.48,-29.62"/>
</g>
</g>
</svg>
