<?xml version="1.0" encoding="UTF-8" standalone="no"?>
<!DOCTYPE svg PUBLIC "-//W3C//DTD SVG 1.1//EN"
 "http://www.w3.org/Graphics/SVG/1.1/DTD/svg11.dtd">
<!-- Generated by graphviz version 11.0.0 (20240428.1522)
 -->
<!-- Title: pt Pages: 1 -->
<svg width="2352pt" height="603pt"
 viewBox="0.00 0.00 2352.36 603.00" xmlns="http://www.w3.org/2000/svg" xmlns:xlink="http://www.w3.org/1999/xlink">
<g id="graph0" class="graph" transform="scale(1 1) rotate(0) translate(4 599)">
<title>pt</title>
<polygon fill="white" stroke="none" points="-4,4 -4,-599 2348.36,-599 2348.36,4 -4,4"/>
<!-- 2082704906128 -->
<g id="node1" class="node">
<title>2082704906128</title>
<ellipse fill="none" stroke="black" cx="27" cy="-364" rx="27" ry="18"/>
<text text-anchor="middle" x="27" y="-358" font-family="Times New Roman,serif" font-size="15.00">seq</text>
</g>
<!-- 2082704901328 -->
<g id="node2" class="node">
<title>2082704901328</title>
<ellipse fill="none" stroke="black" cx="221.19" cy="-418" rx="131.19" ry="18"/>
<text text-anchor="middle" x="221.19" y="-412" font-family="Times New Roman,serif" font-size="15.00">Enter submission date request</text>
</g>
<!-- 2082704906128&#45;&#45;2082704901328 -->
<g id="edge1" class="edge">
<title>2082704906128&#45;&#45;2082704901328</title>
<path fill="none" stroke="black" d="M52.34,-370.84C79.71,-378.53 125.14,-391.29 161.83,-401.6"/>
</g>
<!-- 2082704915296 -->
<g id="node3" class="node">
<title>2082704915296</title>
<ellipse fill="none" stroke="black" cx="221.19" cy="-364" rx="27" ry="18"/>
<text text-anchor="middle" x="221.19" y="-358" font-family="Times New Roman,serif" font-size="15.00">and</text>
</g>
<!-- 2082704906128&#45;&#45;2082704915296 -->
<g id="edge20" class="edge">
<title>2082704906128&#45;&#45;2082704915296</title>
<path fill="none" stroke="black" d="M54.32,-364C91.02,-364 157.19,-364 193.88,-364"/>
</g>
<!-- 2082704913664 -->
<g id="node22" class="node">
<title>2082704913664</title>
<ellipse fill="none" stroke="black" cx="221.19" cy="-283" rx="27" ry="18"/>
<text text-anchor="middle" x="221.19" y="-277" font-family="Times New Roman,serif" font-size="15.00">xor</text>
</g>
<!-- 2082704906128&#45;&#45;2082704913664 -->
<g id="edge35" class="edge">
<title>2082704906128&#45;&#45;2082704913664</title>
<path fill="none" stroke="black" d="M50.42,-354.55C87.36,-338.98 160.58,-308.12 197.62,-292.52"/>
</g>
<!-- 2082704906512 -->
<g id="node4" class="node">
<title>2082704906512</title>
<ellipse fill="none" stroke="black" cx="503.2" cy="-418" rx="114.82" ry="18"/>
<text text-anchor="middle" x="503.2" y="-412" font-family="Times New Roman,serif" font-size="15.00">Step application received</text>
</g>
<!-- 2082704915296&#45;&#45;2082704906512 -->
<g id="edge2" class="edge">
<title>2082704915296&#45;&#45;2082704906512</title>
<path fill="none" stroke="black" d="M247.54,-368.89C288.12,-376.71 369.22,-392.35 429.04,-403.89"/>
</g>
<!-- 2082704906176 -->
<g id="node5" class="node">
<title>2082704906176</title>
<ellipse fill="none" stroke="black" cx="503.2" cy="-364" rx="27" ry="18"/>
<text text-anchor="middle" x="503.2" y="-358" font-family="Times New Roman,serif" font-size="15.00">seq</text>
</g>
<!-- 2082704915296&#45;&#45;2082704906176 -->
<g id="edge19" class="edge">
<title>2082704915296&#45;&#45;2082704906176</title>
<path fill="none" stroke="black" d="M248.54,-364C301.9,-364 422.25,-364 475.73,-364"/>
</g>
<!-- 2082704909968 -->
<g id="node6" class="node">
<title>2082704909968</title>
<ellipse fill="none" stroke="black" cx="811.31" cy="-418" rx="98.44" ry="18"/>
<text text-anchor="middle" x="811.31" y="-412" font-family="Times New Roman,serif" font-size="15.00">OLO messages active</text>
</g>
<!-- 2082704906176&#45;&#45;2082704909968 -->
<g id="edge3" class="edge">
<title>2082704906176&#45;&#45;2082704909968</title>
<path fill="none" stroke="black" d="M529.77,-368.51C575.33,-376.55 672.01,-393.6 739.05,-405.43"/>
</g>
<!-- 2082704901280 -->
<g id="node7" class="node">
<title>2082704901280</title>
<ellipse fill="none" stroke="black" cx="811.31" cy="-364" rx="27" ry="18"/>
<text text-anchor="middle" x="811.31" y="-358" font-family="Times New Roman,serif" font-size="15.00">and</text>
</g>
<!-- 2082704906176&#45;&#45;2082704901280 -->
<g id="edge18" class="edge">
<title>2082704906176&#45;&#45;2082704901280</title>
<path fill="none" stroke="black" d="M530.57,-364C588.43,-364 726,-364 783.9,-364"/>
</g>
<!-- 2082704912416 -->
<g id="node8" class="node">
<title>2082704912416</title>
<ellipse fill="none" stroke="black" cx="1170.09" cy="-538" rx="45.21" ry="18"/>
<text text-anchor="middle" x="1170.09" y="-532" font-family="Times New Roman,serif" font-size="15.00">xor loop</text>
</g>
<!-- 2082704901280&#45;&#45;2082704912416 -->
<g id="edge6" class="edge">
<title>2082704901280&#45;&#45;2082704912416</title>
<path fill="none" stroke="black" d="M833.83,-374.49C895.22,-404.43 1071.26,-490.29 1140.57,-524.09"/>
</g>
<!-- 2082704914480 -->
<g id="node11" class="node">
<title>2082704914480</title>
<ellipse fill="none" stroke="black" cx="1170.09" cy="-364" rx="27" ry="18"/>
<text text-anchor="middle" x="1170.09" y="-358" font-family="Times New Roman,serif" font-size="15.00">seq</text>
</g>
<!-- 2082704901280&#45;&#45;2082704914480 -->
<g id="edge17" class="edge">
<title>2082704901280&#45;&#45;2082704914480</title>
<path fill="none" stroke="black" d="M838.55,-364C904.53,-364 1076.8,-364 1142.82,-364"/>
</g>
<!-- 2082704906080 -->
<g id="node9" class="node">
<title>2082704906080</title>
<ellipse fill="none" stroke="black" cx="1619.98" cy="-577" rx="131.19" ry="18"/>
<text text-anchor="middle" x="1619.98" y="-571" font-family="Times New Roman,serif" font-size="15.00">Transmit confirmation receipt</text>
</g>
<!-- 2082704912416&#45;&#45;2082704906080 -->
<g id="edge4" class="edge">
<title>2082704912416&#45;&#45;2082704906080</title>
<path fill="none" stroke="black" d="M1214.45,-541.77C1281.62,-547.62 1413,-559.06 1507.84,-567.32"/>
</g>
<!-- 2082704904400 -->
<g id="node10" class="node">
<title>2082704904400</title>
<ellipse fill="black" stroke="black" cx="1619.98" cy="-538" rx="2.7" ry="2.7"/>
</g>
<!-- 2082704912416&#45;&#45;2082704904400 -->
<g id="edge5" class="edge">
<title>2082704912416&#45;&#45;2082704904400</title>
<path fill="none" stroke="black" d="M1215.68,-538C1323.21,-538 1589.98,-538 1616.79,-538"/>
</g>
<!-- 2082704907664 -->
<g id="node12" class="node">
<title>2082704907664</title>
<ellipse fill="none" stroke="black" cx="1619.98" cy="-499" rx="142.97" ry="18"/>
<text text-anchor="middle" x="1619.98" y="-493" font-family="Times New Roman,serif" font-size="15.00">Applicant plays stakeholder role</text>
</g>
<!-- 2082704914480&#45;&#45;2082704907664 -->
<g id="edge7" class="edge">
<title>2082704914480&#45;&#45;2082704907664</title>
<path fill="none" stroke="black" d="M1195.17,-371.26C1264.22,-392.07 1464.22,-452.35 1562.76,-482.06"/>
</g>
<!-- 2082704903968 -->
<g id="node13" class="node">
<title>2082704903968</title>
<ellipse fill="none" stroke="black" cx="1619.98" cy="-445" rx="27" ry="18"/>
<text text-anchor="middle" x="1619.98" y="-439" font-family="Times New Roman,serif" font-size="15.00">and</text>
</g>
<!-- 2082704914480&#45;&#45;2082704903968 -->
<g id="edge12" class="edge">
<title>2082704914480&#45;&#45;2082704903968</title>
<path fill="none" stroke="black" d="M1196.46,-368.59C1275.2,-382.83 1514.88,-426.17 1593.61,-440.41"/>
</g>
<!-- 2082704907184 -->
<g id="node18" class="node">
<title>2082704907184</title>
<ellipse fill="none" stroke="black" cx="1619.98" cy="-391" rx="139.38" ry="18"/>
<text text-anchor="middle" x="1619.98" y="-385" font-family="Times New Roman,serif" font-size="15.00">Refer to the competent authority</text>
</g>
<!-- 2082704914480&#45;&#45;2082704907184 -->
<g id="edge13" class="edge">
<title>2082704914480&#45;&#45;2082704907184</title>
<path fill="none" stroke="black" d="M1197.44,-365.59C1254.02,-369 1390.33,-377.22 1492.73,-383.39"/>
</g>
<!-- 2082704904256 -->
<g id="node19" class="node">
<title>2082704904256</title>
<ellipse fill="none" stroke="black" cx="1619.98" cy="-337" rx="147.57" ry="18"/>
<text text-anchor="middle" x="1619.98" y="-331" font-family="Times New Roman,serif" font-size="15.00">Ordinary procedure without MER</text>
</g>
<!-- 2082704914480&#45;&#45;2082704904256 -->
<g id="edge14" class="edge">
<title>2082704914480&#45;&#45;2082704904256</title>
<path fill="none" stroke="black" d="M1197.44,-362.41C1252.9,-359.07 1384.94,-351.11 1486.58,-344.98"/>
</g>
<!-- 2082704910016 -->
<g id="node20" class="node">
<title>2082704910016</title>
<ellipse fill="none" stroke="black" cx="1619.98" cy="-283" rx="141.43" ry="18"/>
<text text-anchor="middle" x="1619.98" y="-277" font-family="Times New Roman,serif" font-size="15.00">Produce procedure confirmation</text>
</g>
<!-- 2082704914480&#45;&#45;2082704910016 -->
<g id="edge15" class="edge">
<title>2082704914480&#45;&#45;2082704910016</title>
<path fill="none" stroke="black" d="M1196.46,-359.41C1260.86,-347.77 1432.91,-316.65 1536.52,-297.91"/>
</g>
<!-- 2082704913616 -->
<g id="node21" class="node">
<title>2082704913616</title>
<ellipse fill="none" stroke="black" cx="1619.98" cy="-229" rx="51.86" ry="18"/>
<text text-anchor="middle" x="1619.98" y="-223" font-family="Times New Roman,serif" font-size="15.00">Broadcast</text>
</g>
<!-- 2082704914480&#45;&#45;2082704913616 -->
<g id="edge16" class="edge">
<title>2082704914480&#45;&#45;2082704913616</title>
<path fill="none" stroke="black" d="M1195.17,-356.74C1268.49,-334.64 1489.46,-268.04 1579.82,-240.8"/>
</g>
<!-- 2082704915632 -->
<g id="node14" class="node">
<title>2082704915632</title>
<ellipse fill="none" stroke="black" cx="1977.73" cy="-472" rx="73.36" ry="18"/>
<text text-anchor="middle" x="1977.73" y="-466" font-family="Times New Roman,serif" font-size="15.00">Stop on request</text>
</g>
<!-- 2082704903968&#45;&#45;2082704915632 -->
<g id="edge8" class="edge">
<title>2082704903968&#45;&#45;2082704915632</title>
<path fill="none" stroke="black" d="M1647.14,-446.99C1701.37,-451.1 1827.64,-460.68 1907.2,-466.72"/>
</g>
<!-- 2082704909872 -->
<g id="node15" class="node">
<title>2082704909872</title>
<ellipse fill="none" stroke="black" cx="1977.73" cy="-418" rx="27" ry="18"/>
<text text-anchor="middle" x="1977.73" y="-412" font-family="Times New Roman,serif" font-size="15.00">xor</text>
</g>
<!-- 2082704903968&#45;&#45;2082704909872 -->
<g id="edge11" class="edge">
<title>2082704903968&#45;&#45;2082704909872</title>
<path fill="none" stroke="black" d="M1647.14,-443.01C1712.93,-438.02 1884.7,-424.98 1950.54,-419.99"/>
</g>
<!-- 2082704914192 -->
<g id="node16" class="node">
<title>2082704914192</title>
<ellipse fill="black" stroke="black" cx="2215.73" cy="-438" rx="2.7" ry="2.7"/>
</g>
<!-- 2082704909872&#45;&#45;2082704914192 -->
<g id="edge9" class="edge">
<title>2082704909872&#45;&#45;2082704914192</title>
<path fill="none" stroke="black" d="M2004.89,-420.22C2062.01,-425.06 2194.29,-436.27 2212.61,-437.82"/>
</g>
<!-- 2082704902672 -->
<g id="node17" class="node">
<title>2082704902672</title>
<ellipse fill="none" stroke="black" cx="2215.73" cy="-399" rx="128.63" ry="18"/>
<text text-anchor="middle" x="2215.73" y="-393" font-family="Times New Roman,serif" font-size="15.00">Evaluate provisional charges</text>
</g>
<!-- 2082704909872&#45;&#45;2082704902672 -->
<g id="edge10" class="edge">
<title>2082704909872&#45;&#45;2082704902672</title>
<path fill="none" stroke="black" d="M2004.89,-415.89C2028.95,-413.96 2066.35,-410.95 2102.94,-408"/>
</g>
<!-- 2082704910784 -->
<g id="node23" class="node">
<title>2082704910784</title>
<ellipse fill="none" stroke="black" cx="503.2" cy="-297" rx="110.72" ry="18"/>
<text text-anchor="middle" x="503.2" y="-291" font-family="Times New Roman,serif" font-size="15.00">Terminate request notice</text>
</g>
<!-- 2082704913664&#45;&#45;2082704910784 -->
<g id="edge21" class="edge">
<title>2082704913664&#45;&#45;2082704910784</title>
<path fill="none" stroke="black" d="M248.54,-284.32C282.37,-286.01 343.11,-289.05 396.68,-291.72"/>
</g>
<!-- 2082704914288 -->
<g id="node24" class="node">
<title>2082704914288</title>
<ellipse fill="none" stroke="black" cx="503.2" cy="-243" rx="27" ry="18"/>
<text text-anchor="middle" x="503.2" y="-237" font-family="Times New Roman,serif" font-size="15.00">seq</text>
</g>
<!-- 2082704913664&#45;&#45;2082704914288 -->
<g id="edge24" class="edge">
<title>2082704913664&#45;&#45;2082704914288</title>
<path fill="none" stroke="black" d="M248.03,-279.31C301.38,-271.69 423.13,-254.3 476.42,-246.68"/>
</g>
<!-- 2082704907904 -->
<g id="node27" class="node">
<title>2082704907904</title>
<ellipse fill="none" stroke="black" cx="503.2" cy="-126" rx="27" ry="18"/>
<text text-anchor="middle" x="503.2" y="-120" font-family="Times New Roman,serif" font-size="15.00">seq</text>
</g>
<!-- 2082704913664&#45;&#45;2082704907904 -->
<g id="edge34" class="edge">
<title>2082704913664&#45;&#45;2082704907904</title>
<path fill="none" stroke="black" d="M242.33,-271.71C293.87,-242.81 430.12,-166.42 481.87,-137.4"/>
</g>
<!-- 2082704913952 -->
<g id="node25" class="node">
<title>2082704913952</title>
<ellipse fill="none" stroke="black" cx="811.31" cy="-295" rx="129.15" ry="18"/>
<text text-anchor="middle" x="811.31" y="-289" font-family="Times New Roman,serif" font-size="15.00">Commence WABOprocedure</text>
</g>
<!-- 2082704914288&#45;&#45;2082704913952 -->
<g id="edge22" class="edge">
<title>2082704914288&#45;&#45;2082704913952</title>
<path fill="none" stroke="black" d="M529.77,-247.34C572.74,-254.64 661.2,-269.67 727.36,-280.91"/>
</g>
<!-- 2082704911312 -->
<g id="node26" class="node">
<title>2082704911312</title>
<ellipse fill="none" stroke="black" cx="811.31" cy="-241" rx="157.3" ry="18"/>
<text text-anchor="middle" x="811.31" y="-235" font-family="Times New Roman,serif" font-size="15.00">Register senddate acknowledgement</text>
</g>
<!-- 2082704914288&#45;&#45;2082704911312 -->
<g id="edge23" class="edge">
<title>2082704914288&#45;&#45;2082704911312</title>
<path fill="none" stroke="black" d="M530.57,-242.83C558.85,-242.64 606.16,-242.33 653.91,-242.02"/>
</g>
<!-- 2082704910832 -->
<g id="node28" class="node">
<title>2082704910832</title>
<ellipse fill="none" stroke="black" cx="811.31" cy="-180" rx="27" ry="18"/>
<text text-anchor="middle" x="811.31" y="-174" font-family="Times New Roman,serif" font-size="15.00">xor</text>
</g>
<!-- 2082704907904&#45;&#45;2082704910832 -->
<g id="edge30" class="edge">
<title>2082704907904&#45;&#45;2082704910832</title>
<path fill="none" stroke="black" d="M529.77,-130.51C587.54,-140.7 727.54,-165.4 785.03,-175.54"/>
</g>
<!-- 2082704912272 -->
<g id="node34" class="node">
<title>2082704912272</title>
<ellipse fill="none" stroke="black" cx="811.31" cy="-126" rx="96.39" ry="18"/>
<text text-anchor="middle" x="811.31" y="-120" font-family="Times New Roman,serif" font-size="15.00">Register the deadline</text>
</g>
<!-- 2082704907904&#45;&#45;2082704912272 -->
<g id="edge31" class="edge">
<title>2082704907904&#45;&#45;2082704912272</title>
<path fill="none" stroke="black" d="M530.57,-126C571.1,-126 650.75,-126 714.72,-126"/>
</g>
<!-- 2082704905984 -->
<g id="node35" class="node">
<title>2082704905984</title>
<ellipse fill="none" stroke="black" cx="811.31" cy="-72" rx="119.42" ry="18"/>
<text text-anchor="middle" x="811.31" y="-66" font-family="Times New Roman,serif" font-size="15.00">Phase procedure cancelled</text>
</g>
<!-- 2082704907904&#45;&#45;2082704905984 -->
<g id="edge32" class="edge">
<title>2082704907904&#45;&#45;2082704905984</title>
<path fill="none" stroke="black" d="M529.77,-121.49C573.74,-113.73 665.36,-97.57 731.97,-85.82"/>
</g>
<!-- 2082704903680 -->
<g id="node36" class="node">
<title>2082704903680</title>
<ellipse fill="none" stroke="black" cx="811.31" cy="-18" rx="84.11" ry="18"/>
<text text-anchor="middle" x="811.31" y="-12" font-family="Times New Roman,serif" font-size="15.00">Conclude the case</text>
</g>
<!-- 2082704907904&#45;&#45;2082704903680 -->
<g id="edge33" class="edge">
<title>2082704907904&#45;&#45;2082704903680</title>
<path fill="none" stroke="black" d="M527.71,-117.7C578.74,-99.7 700.34,-56.8 766.17,-33.57"/>
</g>
<!-- 2082704908912 -->
<g id="node29" class="node">
<title>2082704908912</title>
<ellipse fill="none" stroke="black" cx="1170.09" cy="-180" rx="165.48" ry="18"/>
<text text-anchor="middle" x="1170.09" y="-174" font-family="Times New Roman,serif" font-size="15.00">No permit required for the application</text>
</g>
<!-- 2082704910832&#45;&#45;2082704908912 -->
<g id="edge25" class="edge">
<title>2082704910832&#45;&#45;2082704908912</title>
<path fill="none" stroke="black" d="M838.55,-180C874.03,-180 940.26,-180 1004.17,-180"/>
</g>
<!-- 2082704906656 -->
<g id="node30" class="node">
<title>2082704906656</title>
<ellipse fill="none" stroke="black" cx="1170.09" cy="-124" rx="27" ry="18"/>
<text text-anchor="middle" x="1170.09" y="-118" font-family="Times New Roman,serif" font-size="15.00">seq</text>
</g>
<!-- 2082704910832&#45;&#45;2082704906656 -->
<g id="edge29" class="edge">
<title>2082704910832&#45;&#45;2082704906656</title>
<path fill="none" stroke="black" d="M837.97,-175.97C903.8,-165.64 1078.1,-138.28 1143.67,-127.99"/>
</g>
<!-- 2082704911408 -->
<g id="node31" class="node">
<title>2082704911408</title>
<ellipse fill="none" stroke="black" cx="1619.98" cy="-175" rx="200.29" ry="18"/>
<text text-anchor="middle" x="1619.98" y="-169" font-family="Times New Roman,serif" font-size="15.00">Permit not needed or only notification required</text>
</g>
<!-- 2082704906656&#45;&#45;2082704911408 -->
<g id="edge26" class="edge">
<title>2082704906656&#45;&#45;2082704911408</title>
<path fill="none" stroke="black" d="M1197.11,-126.96C1253.59,-133.39 1390.59,-148.99 1493.25,-160.68"/>
</g>
<!-- 2082704902912 -->
<g id="node32" class="node">
<title>2082704902912</title>
<ellipse fill="none" stroke="black" cx="1619.98" cy="-121" rx="248.4" ry="18"/>
<text text-anchor="middle" x="1619.98" y="-115" font-family="Times New Roman,serif" font-size="15.00">document senddate letter no permit or notification required</text>
</g>
<!-- 2082704906656&#45;&#45;2082704902912 -->
<g id="edge27" class="edge">
<title>2082704906656&#45;&#45;2082704902912</title>
<path fill="none" stroke="black" d="M1197.44,-123.82C1233.3,-123.58 1301.19,-123.13 1372.17,-122.65"/>
</g>
<!-- 2082704910304 -->
<g id="node33" class="node">
<title>2082704910304</title>
<ellipse fill="none" stroke="black" cx="1619.98" cy="-67" rx="159.85" ry="18"/>
<text text-anchor="middle" x="1619.98" y="-61" font-family="Times New Roman,serif" font-size="15.00">draft letter stating no permit required</text>
</g>
<!-- 2082704906656&#45;&#45;2082704910304 -->
<g id="edge28" class="edge">
<title>2082704906656&#45;&#45;2082704910304</title>
<path fill="none" stroke="black" d="M1197.11,-120.69C1257.13,-113.05 1408.12,-93.84 1512.16,-80.59"/>
</g>
</g>
</svg>
