<?xml version="1.0" encoding="UTF-8" standalone="no"?>
<!DOCTYPE svg PUBLIC "-//W3C//DTD SVG 1.1//EN"
 "http://www.w3.org/Graphics/SVG/1.1/DTD/svg11.dtd">
<!-- Generated by graphviz version 11.0.0 (20240428.1522)
 -->
<!-- Title: pt Pages: 1 -->
<svg width="3006pt" height="627pt"
 viewBox="0.00 0.00 3006.46 627.00" xmlns="http://www.w3.org/2000/svg" xmlns:xlink="http://www.w3.org/1999/xlink">
<g id="graph0" class="graph" transform="scale(1 1) rotate(0) translate(4 623)">
<title>pt</title>
<polygon fill="white" stroke="none" points="-4,4 -4,-623 3002.46,-623 3002.46,4 -4,4"/>
<!-- 2082705364928 -->
<g id="node1" class="node">
<title>2082705364928</title>
<ellipse fill="none" stroke="black" cx="27" cy="-311" rx="27" ry="18"/>
<text text-anchor="middle" x="27" y="-305" font-family="Times New Roman,serif" font-size="15.00">seq</text>
</g>
<!-- 2082706383904 -->
<g id="node2" class="node">
<title>2082706383904</title>
<ellipse fill="none" stroke="black" cx="221.19" cy="-473" rx="131.19" ry="18"/>
<text text-anchor="middle" x="221.19" y="-467" font-family="Times New Roman,serif" font-size="15.00">Enter submission date request</text>
</g>
<!-- 2082705364928&#45;&#45;2082706383904 -->
<g id="edge1" class="edge">
<title>2082705364928&#45;&#45;2082706383904</title>
<path fill="none" stroke="black" d="M44.72,-325.09C79.61,-354.5 160.11,-422.36 198.75,-454.92"/>
</g>
<!-- 2082706383760 -->
<g id="node3" class="node">
<title>2082706383760</title>
<ellipse fill="none" stroke="black" cx="221.19" cy="-419" rx="27" ry="18"/>
<text text-anchor="middle" x="221.19" y="-413" font-family="Times New Roman,serif" font-size="15.00">xor</text>
</g>
<!-- 2082705364928&#45;&#45;2082706383760 -->
<g id="edge7" class="edge">
<title>2082705364928&#45;&#45;2082706383760</title>
<path fill="none" stroke="black" d="M48.2,-322.35C85.12,-343.1 163.05,-386.89 199.97,-407.64"/>
</g>
<!-- 2082706388704 -->
<g id="node9" class="node">
<title>2082706388704</title>
<ellipse fill="none" stroke="black" cx="221.19" cy="-338" rx="27" ry="18"/>
<text text-anchor="middle" x="221.19" y="-332" font-family="Times New Roman,serif" font-size="15.00">and</text>
</g>
<!-- 2082705364928&#45;&#45;2082706388704 -->
<g id="edge43" class="edge">
<title>2082705364928&#45;&#45;2082706388704</title>
<path fill="none" stroke="black" d="M53.92,-314.64C90.7,-319.81 157.65,-329.21 194.38,-334.37"/>
</g>
<!-- 2082706383184 -->
<g id="node45" class="node">
<title>2082706383184</title>
<ellipse fill="none" stroke="black" cx="221.19" cy="-284" rx="27" ry="18"/>
<text text-anchor="middle" x="221.19" y="-278" font-family="Times New Roman,serif" font-size="15.00">xor</text>
</g>
<!-- 2082705364928&#45;&#45;2082706383184 -->
<g id="edge46" class="edge">
<title>2082705364928&#45;&#45;2082706383184</title>
<path fill="none" stroke="black" d="M53.92,-307.36C90.7,-302.19 157.65,-292.79 194.38,-287.63"/>
</g>
<!-- 2082706382704 -->
<g id="node48" class="node">
<title>2082706382704</title>
<ellipse fill="none" stroke="black" cx="221.19" cy="-214" rx="27" ry="18"/>
<text text-anchor="middle" x="221.19" y="-208" font-family="Times New Roman,serif" font-size="15.00">xor</text>
</g>
<!-- 2082705364928&#45;&#45;2082706382704 -->
<g id="edge49" class="edge">
<title>2082705364928&#45;&#45;2082706382704</title>
<path fill="none" stroke="black" d="M49.3,-300.25C86.34,-281.55 162.19,-243.28 199.09,-224.65"/>
</g>
<!-- 2082706389040 -->
<g id="node51" class="node">
<title>2082706389040</title>
<ellipse fill="none" stroke="black" cx="221.19" cy="-132" rx="27" ry="18"/>
<text text-anchor="middle" x="221.19" y="-126" font-family="Times New Roman,serif" font-size="15.00">xor</text>
</g>
<!-- 2082705364928&#45;&#45;2082706389040 -->
<g id="edge62" class="edge">
<title>2082705364928&#45;&#45;2082706389040</title>
<path fill="none" stroke="black" d="M43.73,-296.35C79.86,-262.7 168.44,-180.2 204.52,-146.6"/>
</g>
<!-- 2082706376416 -->
<g id="node4" class="node">
<title>2082706376416</title>
<ellipse fill="black" stroke="black" cx="545.68" cy="-478" rx="2.7" ry="2.7"/>
</g>
<!-- 2082706383760&#45;&#45;2082706376416 -->
<g id="edge2" class="edge">
<title>2082706383760&#45;&#45;2082706376416</title>
<path fill="none" stroke="black" d="M247.77,-423.68C319.87,-436.87 520.98,-473.66 542.76,-477.65"/>
</g>
<!-- 2082706383616 -->
<g id="node5" class="node">
<title>2082706383616</title>
<ellipse fill="none" stroke="black" cx="545.68" cy="-439" rx="27" ry="18"/>
<text text-anchor="middle" x="545.68" y="-433" font-family="Times New Roman,serif" font-size="15.00">seq</text>
</g>
<!-- 2082706383760&#45;&#45;2082706383616 -->
<g id="edge6" class="edge">
<title>2082706383760&#45;&#45;2082706383616</title>
<path fill="none" stroke="black" d="M248.58,-420.64C309.21,-424.4 457.84,-433.61 518.38,-437.37"/>
</g>
<!-- 2082706376800 -->
<g id="node6" class="node">
<title>2082706376800</title>
<ellipse fill="none" stroke="black" cx="921.86" cy="-495" rx="182.89" ry="18"/>
<text text-anchor="middle" x="921.86" y="-489" font-family="Times New Roman,serif" font-size="15.00">Mandatory Environmental Report required</text>
</g>
<!-- 2082706383616&#45;&#45;2082706376800 -->
<g id="edge3" class="edge">
<title>2082706383616&#45;&#45;2082706376800</title>
<path fill="none" stroke="black" d="M572.4,-442.85C622.43,-450.34 735.29,-467.23 819.08,-479.77"/>
</g>
<!-- 2082708957152 -->
<g id="node7" class="node">
<title>2082708957152</title>
<ellipse fill="none" stroke="black" cx="921.86" cy="-441" rx="129.15" ry="18"/>
<text text-anchor="middle" x="921.86" y="-435" font-family="Times New Roman,serif" font-size="15.00">Regular procedural activities</text>
</g>
<!-- 2082706383616&#45;&#45;2082708957152 -->
<g id="edge4" class="edge">
<title>2082706383616&#45;&#45;2082708957152</title>
<path fill="none" stroke="black" d="M572.99,-439.14C618.16,-439.38 713.24,-439.89 792.6,-440.31"/>
</g>
<!-- 2082708955232 -->
<g id="node8" class="node">
<title>2082708955232</title>
<ellipse fill="none" stroke="black" cx="921.86" cy="-387" rx="87.69" ry="18"/>
<text text-anchor="middle" x="921.86" y="-381" font-family="Times New Roman,serif" font-size="15.00">Phased application</text>
</g>
<!-- 2082706383616&#45;&#45;2082708955232 -->
<g id="edge5" class="edge">
<title>2082706383616&#45;&#45;2082708955232</title>
<path fill="none" stroke="black" d="M572.4,-435.43C628.54,-427.62 763.78,-408.83 848.32,-397.08"/>
</g>
<!-- 2082706380496 -->
<g id="node10" class="node">
<title>2082706380496</title>
<ellipse fill="none" stroke="black" cx="545.68" cy="-385" rx="114.82" ry="18"/>
<text text-anchor="middle" x="545.68" y="-379" font-family="Times New Roman,serif" font-size="15.00">Step application received</text>
</g>
<!-- 2082706388704&#45;&#45;2082706380496 -->
<g id="edge8" class="edge">
<title>2082706388704&#45;&#45;2082706380496</title>
<path fill="none" stroke="black" d="M248.04,-341.77C293.48,-348.39 389.54,-362.39 460.08,-372.67"/>
</g>
<!-- 2082706374784 -->
<g id="node11" class="node">
<title>2082706374784</title>
<ellipse fill="none" stroke="black" cx="545.68" cy="-331" rx="45.21" ry="18"/>
<text text-anchor="middle" x="545.68" y="-325" font-family="Times New Roman,serif" font-size="15.00">xor loop</text>
</g>
<!-- 2082706388704&#45;&#45;2082706374784 -->
<g id="edge42" class="edge">
<title>2082706388704&#45;&#45;2082706374784</title>
<path fill="none" stroke="black" d="M248.58,-337.43C303.79,-336.23 431.99,-333.45 500.17,-331.97"/>
</g>
<!-- 2082708682848 -->
<g id="node12" class="node">
<title>2082708682848</title>
<ellipse fill="none" stroke="black" cx="921.86" cy="-333" rx="27" ry="18"/>
<text text-anchor="middle" x="921.86" y="-327" font-family="Times New Roman,serif" font-size="15.00">seq</text>
</g>
<!-- 2082706374784&#45;&#45;2082708682848 -->
<g id="edge40" class="edge">
<title>2082706374784&#45;&#45;2082708682848</title>
<path fill="none" stroke="black" d="M591.08,-331.24C669.67,-331.66 830.99,-332.52 894.42,-332.86"/>
</g>
<!-- 2082708956048 -->
<g id="node44" class="node">
<title>2082708956048</title>
<ellipse fill="black" stroke="black" cx="921.86" cy="-294" rx="2.7" ry="2.7"/>
</g>
<!-- 2082706374784&#45;&#45;2082708956048 -->
<g id="edge41" class="edge">
<title>2082706374784&#45;&#45;2082708956048</title>
<path fill="none" stroke="black" d="M589.97,-326.72C683.08,-317.51 895.85,-296.47 918.84,-294.2"/>
</g>
<!-- 2082708677232 -->
<g id="node13" class="node">
<title>2082708677232</title>
<ellipse fill="none" stroke="black" cx="1260.17" cy="-547" rx="27" ry="18"/>
<text text-anchor="middle" x="1260.17" y="-541" font-family="Times New Roman,serif" font-size="15.00">xor</text>
</g>
<!-- 2082708682848&#45;&#45;2082708677232 -->
<g id="edge17" class="edge">
<title>2082708682848&#45;&#45;2082708677232</title>
<path fill="none" stroke="black" d="M941.91,-345.12C1000.96,-382.7 1180.58,-496.99 1239.92,-534.75"/>
</g>
<!-- 2082708668592 -->
<g id="node22" class="node">
<title>2082708668592</title>
<ellipse fill="none" stroke="black" cx="1260.17" cy="-439" rx="27" ry="18"/>
<text text-anchor="middle" x="1260.17" y="-433" font-family="Times New Roman,serif" font-size="15.00">xor</text>
</g>
<!-- 2082708682848&#45;&#45;2082708668592 -->
<g id="edge30" class="edge">
<title>2082708682848&#45;&#45;2082708668592</title>
<path fill="none" stroke="black" d="M946.78,-340.54C1008.61,-360.03 1173.21,-411.91 1235.15,-431.43"/>
</g>
<!-- 2082708676128 -->
<g id="node35" class="node">
<title>2082708676128</title>
<ellipse fill="none" stroke="black" cx="1260.17" cy="-361" rx="27" ry="18"/>
<text text-anchor="middle" x="1260.17" y="-355" font-family="Times New Roman,serif" font-size="15.00">xor</text>
</g>
<!-- 2082708682848&#45;&#45;2082708676128 -->
<g id="edge33" class="edge">
<title>2082708682848&#45;&#45;2082708676128</title>
<path fill="none" stroke="black" d="M948.97,-335.17C1011.79,-340.4 1170.75,-353.64 1233.31,-358.85"/>
</g>
<!-- 2082708677088 -->
<g id="node38" class="node">
<title>2082708677088</title>
<ellipse fill="none" stroke="black" cx="1260.17" cy="-307" rx="45.21" ry="18"/>
<text text-anchor="middle" x="1260.17" y="-301" font-family="Times New Roman,serif" font-size="15.00">xor loop</text>
</g>
<!-- 2082708682848&#45;&#45;2082708677088 -->
<g id="edge36" class="edge">
<title>2082708682848&#45;&#45;2082708677088</title>
<path fill="none" stroke="black" d="M948.97,-330.98C1006.46,-326.54 1144.49,-315.87 1215.44,-310.38"/>
</g>
<!-- 2082708671376 -->
<g id="node41" class="node">
<title>2082708671376</title>
<ellipse fill="none" stroke="black" cx="1260.17" cy="-245" rx="27" ry="18"/>
<text text-anchor="middle" x="1260.17" y="-239" font-family="Times New Roman,serif" font-size="15.00">xor</text>
</g>
<!-- 2082708682848&#45;&#45;2082708671376 -->
<g id="edge39" class="edge">
<title>2082708682848&#45;&#45;2082708671376</title>
<path fill="none" stroke="black" d="M947.59,-326.53C1009.94,-310.22 1172.97,-267.56 1234.86,-251.36"/>
</g>
<!-- 2082708684720 -->
<g id="node14" class="node">
<title>2082708684720</title>
<ellipse fill="black" stroke="black" cx="1663.99" cy="-586" rx="2.7" ry="2.7"/>
</g>
<!-- 2082708677232&#45;&#45;2082708684720 -->
<g id="edge9" class="edge">
<title>2082708677232&#45;&#45;2082708684720</title>
<path fill="none" stroke="black" d="M1287.23,-549.53C1371.75,-557.73 1634.38,-583.22 1660.84,-585.79"/>
</g>
<!-- 2082708682272 -->
<g id="node15" class="node">
<title>2082708682272</title>
<ellipse fill="none" stroke="black" cx="1663.99" cy="-547" rx="27" ry="18"/>
<text text-anchor="middle" x="1663.99" y="-541" font-family="Times New Roman,serif" font-size="15.00">seq</text>
</g>
<!-- 2082708677232&#45;&#45;2082708682272 -->
<g id="edge16" class="edge">
<title>2082708677232&#45;&#45;2082708682272</title>
<path fill="none" stroke="black" d="M1287.54,-547C1360.34,-547 1563.61,-547 1636.53,-547"/>
</g>
<!-- 2082705451024 -->
<g id="node16" class="node">
<title>2082705451024</title>
<ellipse fill="none" stroke="black" cx="2095.96" cy="-601" rx="142.97" ry="18"/>
<text text-anchor="middle" x="2095.96" y="-595" font-family="Times New Roman,serif" font-size="15.00">Applicant plays stakeholder role</text>
</g>
<!-- 2082708682272&#45;&#45;2082705451024 -->
<g id="edge10" class="edge">
<title>2082708682272&#45;&#45;2082705451024</title>
<path fill="none" stroke="black" d="M1690.92,-550.26C1749.29,-557.59 1893.67,-575.72 1993.02,-588.2"/>
</g>
<!-- 2082705444448 -->
<g id="node17" class="node">
<title>2082705444448</title>
<ellipse fill="none" stroke="black" cx="2095.96" cy="-547" rx="27" ry="18"/>
<text text-anchor="middle" x="2095.96" y="-541" font-family="Times New Roman,serif" font-size="15.00">and</text>
</g>
<!-- 2082708682272&#45;&#45;2082705444448 -->
<g id="edge15" class="edge">
<title>2082708682272&#45;&#45;2082705444448</title>
<path fill="none" stroke="black" d="M1691.24,-547C1768,-547 1991.49,-547 2068.51,-547"/>
</g>
<!-- 2082705450448 -->
<g id="node18" class="node">
<title>2082705450448</title>
<ellipse fill="none" stroke="black" cx="2352.89" cy="-574" rx="73.36" ry="18"/>
<text text-anchor="middle" x="2352.89" y="-568" font-family="Times New Roman,serif" font-size="15.00">Stop on request</text>
</g>
<!-- 2082705444448&#45;&#45;2082705450448 -->
<g id="edge11" class="edge">
<title>2082705444448&#45;&#45;2082705450448</title>
<path fill="none" stroke="black" d="M2122.81,-549.74C2160.47,-553.73 2231.71,-561.27 2284.79,-566.89"/>
</g>
<!-- 2082705449440 -->
<g id="node19" class="node">
<title>2082705449440</title>
<ellipse fill="none" stroke="black" cx="2352.89" cy="-520" rx="27" ry="18"/>
<text text-anchor="middle" x="2352.89" y="-514" font-family="Times New Roman,serif" font-size="15.00">xor</text>
</g>
<!-- 2082705444448&#45;&#45;2082705449440 -->
<g id="edge14" class="edge">
<title>2082705444448&#45;&#45;2082705449440</title>
<path fill="none" stroke="black" d="M2122.81,-544.26C2171.67,-539.09 2277.06,-527.93 2325.98,-522.74"/>
</g>
<!-- 2082705449920 -->
<g id="node20" class="node">
<title>2082705449920</title>
<ellipse fill="black" stroke="black" cx="2590.88" cy="-540" rx="2.7" ry="2.7"/>
</g>
<!-- 2082705449440&#45;&#45;2082705449920 -->
<g id="edge12" class="edge">
<title>2082705449440&#45;&#45;2082705449920</title>
<path fill="none" stroke="black" d="M2380.05,-522.22C2437.17,-527.06 2569.45,-538.27 2587.77,-539.82"/>
</g>
<!-- 2082705453904 -->
<g id="node21" class="node">
<title>2082705453904</title>
<ellipse fill="none" stroke="black" cx="2590.88" cy="-501" rx="128.63" ry="18"/>
<text text-anchor="middle" x="2590.88" y="-495" font-family="Times New Roman,serif" font-size="15.00">Evaluate provisional charges</text>
</g>
<!-- 2082705449440&#45;&#45;2082705453904 -->
<g id="edge13" class="edge">
<title>2082705449440&#45;&#45;2082705453904</title>
<path fill="none" stroke="black" d="M2380.05,-517.89C2404.11,-515.96 2441.51,-512.95 2478.1,-510"/>
</g>
<!-- 2082708679152 -->
<g id="node23" class="node">
<title>2082708679152</title>
<ellipse fill="black" stroke="black" cx="1663.99" cy="-478" rx="2.7" ry="2.7"/>
</g>
<!-- 2082708668592&#45;&#45;2082708679152 -->
<g id="edge18" class="edge">
<title>2082708668592&#45;&#45;2082708679152</title>
<path fill="none" stroke="black" d="M1287.23,-441.53C1371.75,-449.73 1634.38,-475.22 1660.84,-477.79"/>
</g>
<!-- 2082708680832 -->
<g id="node24" class="node">
<title>2082708680832</title>
<ellipse fill="none" stroke="black" cx="1663.99" cy="-439" rx="27" ry="18"/>
<text text-anchor="middle" x="1663.99" y="-433" font-family="Times New Roman,serif" font-size="15.00">seq</text>
</g>
<!-- 2082708668592&#45;&#45;2082708680832 -->
<g id="edge29" class="edge">
<title>2082708668592&#45;&#45;2082708680832</title>
<path fill="none" stroke="black" d="M1287.54,-439C1360.34,-439 1563.61,-439 1636.53,-439"/>
</g>
<!-- 2082705442816 -->
<g id="node25" class="node">
<title>2082705442816</title>
<ellipse fill="none" stroke="black" cx="2095.96" cy="-493" rx="139.38" ry="18"/>
<text text-anchor="middle" x="2095.96" y="-487" font-family="Times New Roman,serif" font-size="15.00">Refer to the competent authority</text>
</g>
<!-- 2082708680832&#45;&#45;2082705442816 -->
<g id="edge19" class="edge">
<title>2082708680832&#45;&#45;2082705442816</title>
<path fill="none" stroke="black" d="M1690.92,-442.26C1749.56,-449.62 1895.02,-467.89 1994.41,-480.37"/>
</g>
<!-- 2082705454912 -->
<g id="node26" class="node">
<title>2082705454912</title>
<ellipse fill="none" stroke="black" cx="2095.96" cy="-439" rx="147.57" ry="18"/>
<text text-anchor="middle" x="2095.96" y="-433" font-family="Times New Roman,serif" font-size="15.00">Ordinary procedure without MER</text>
</g>
<!-- 2082708680832&#45;&#45;2082705454912 -->
<g id="edge20" class="edge">
<title>2082708680832&#45;&#45;2082705454912</title>
<path fill="none" stroke="black" d="M1691.24,-439C1741.43,-439 1854.33,-439 1948.02,-439"/>
</g>
<!-- 2082705448672 -->
<g id="node27" class="node">
<title>2082705448672</title>
<ellipse fill="none" stroke="black" cx="2095.96" cy="-385" rx="141.43" ry="18"/>
<text text-anchor="middle" x="2095.96" y="-379" font-family="Times New Roman,serif" font-size="15.00">Produce procedure confirmation</text>
</g>
<!-- 2082708680832&#45;&#45;2082705448672 -->
<g id="edge21" class="edge">
<title>2082708680832&#45;&#45;2082705448672</title>
<path fill="none" stroke="black" d="M1690.92,-435.74C1749.38,-428.4 1894.12,-410.22 1993.49,-397.74"/>
</g>
<!-- 2082705455104 -->
<g id="node28" class="node">
<title>2082705455104</title>
<ellipse fill="none" stroke="black" cx="2095.96" cy="-331" rx="27" ry="18"/>
<text text-anchor="middle" x="2095.96" y="-325" font-family="Times New Roman,serif" font-size="15.00">xor</text>
</g>
<!-- 2082708680832&#45;&#45;2082705455104 -->
<g id="edge28" class="edge">
<title>2082708680832&#45;&#45;2082705455104</title>
<path fill="none" stroke="black" d="M1689.65,-432.81C1765.4,-413.78 1994.16,-356.32 2070.13,-337.24"/>
</g>
<!-- 2082705451504 -->
<g id="node29" class="node">
<title>2082705451504</title>
<ellipse fill="black" stroke="black" cx="2352.89" cy="-351" rx="2.7" ry="2.7"/>
</g>
<!-- 2082705455104&#45;&#45;2082705451504 -->
<g id="edge22" class="edge">
<title>2082705455104&#45;&#45;2082705451504</title>
<path fill="none" stroke="black" d="M2123.28,-333.07C2184.09,-337.84 2330.61,-349.33 2349.81,-350.84"/>
</g>
<!-- 2082705447472 -->
<g id="node30" class="node">
<title>2082705447472</title>
<ellipse fill="none" stroke="black" cx="2352.89" cy="-312" rx="27" ry="18"/>
<text text-anchor="middle" x="2352.89" y="-306" font-family="Times New Roman,serif" font-size="15.00">seq</text>
</g>
<!-- 2082705455104&#45;&#45;2082705447472 -->
<g id="edge27" class="edge">
<title>2082705455104&#45;&#45;2082705447472</title>
<path fill="none" stroke="black" d="M2123.28,-329.04C2172.26,-325.39 2276.84,-317.59 2325.71,-313.95"/>
</g>
<!-- 2082705448816 -->
<g id="node31" class="node">
<title>2082705448816</title>
<ellipse fill="none" stroke="black" cx="2590.88" cy="-339" rx="51.86" ry="18"/>
<text text-anchor="middle" x="2590.88" y="-333" font-family="Times New Roman,serif" font-size="15.00">Broadcast</text>
</g>
<!-- 2082705447472&#45;&#45;2082705448816 -->
<g id="edge23" class="edge">
<title>2082705447472&#45;&#45;2082705448816</title>
<path fill="none" stroke="black" d="M2379.6,-314.94C2418.3,-319.37 2492.23,-327.83 2541.3,-333.44"/>
</g>
<!-- 2082705445888 -->
<g id="node32" class="node">
<title>2082705445888</title>
<ellipse fill="none" stroke="black" cx="2590.88" cy="-285" rx="27" ry="18"/>
<text text-anchor="middle" x="2590.88" y="-279" font-family="Times New Roman,serif" font-size="15.00">xor</text>
</g>
<!-- 2082705447472&#45;&#45;2082705445888 -->
<g id="edge26" class="edge">
<title>2082705447472&#45;&#45;2082705445888</title>
<path fill="none" stroke="black" d="M2379.6,-309.06C2424.87,-303.88 2518.35,-293.18 2563.85,-287.98"/>
</g>
<!-- 2082705446416 -->
<g id="node33" class="node">
<title>2082705446416</title>
<ellipse fill="black" stroke="black" cx="2876.99" cy="-305" rx="2.7" ry="2.7"/>
</g>
<!-- 2082705445888&#45;&#45;2082705446416 -->
<g id="edge24" class="edge">
<title>2082705445888&#45;&#45;2082705446416</title>
<path fill="none" stroke="black" d="M2618.1,-286.85C2684.04,-291.49 2853,-303.38 2873.86,-304.85"/>
</g>
<!-- 2082700595312 -->
<g id="node34" class="node">
<title>2082700595312</title>
<ellipse fill="none" stroke="black" cx="2876.99" cy="-266" rx="121.47" ry="18"/>
<text text-anchor="middle" x="2876.99" y="-260" font-family="Times New Roman,serif" font-size="15.00">Form publication document</text>
</g>
<!-- 2082705445888&#45;&#45;2082700595312 -->
<g id="edge25" class="edge">
<title>2082705445888&#45;&#45;2082700595312</title>
<path fill="none" stroke="black" d="M2618.1,-283.25C2651.62,-281.01 2711.76,-276.98 2765.54,-273.39"/>
</g>
<!-- 2082705440896 -->
<g id="node36" class="node">
<title>2082705440896</title>
<ellipse fill="black" stroke="black" cx="1663.99" cy="-400" rx="2.7" ry="2.7"/>
</g>
<!-- 2082708676128&#45;&#45;2082705440896 -->
<g id="edge31" class="edge">
<title>2082708676128&#45;&#45;2082705440896</title>
<path fill="none" stroke="black" d="M1287.23,-363.53C1371.75,-371.73 1634.38,-397.22 1660.84,-399.79"/>
</g>
<!-- 2082705444304 -->
<g id="node37" class="node">
<title>2082705444304</title>
<ellipse fill="none" stroke="black" cx="1663.99" cy="-361" rx="98.44" ry="18"/>
<text text-anchor="middle" x="1663.99" y="-355" font-family="Times New Roman,serif" font-size="15.00">OLO messages active</text>
</g>
<!-- 2082708676128&#45;&#45;2082705444304 -->
<g id="edge32" class="edge">
<title>2082708676128&#45;&#45;2082705444304</title>
<path fill="none" stroke="black" d="M1287.54,-361C1342.88,-361 1473.62,-361 1565.18,-361"/>
</g>
<!-- 2082705448576 -->
<g id="node39" class="node">
<title>2082705448576</title>
<ellipse fill="none" stroke="black" cx="1663.99" cy="-307" rx="131.19" ry="18"/>
<text text-anchor="middle" x="1663.99" y="-301" font-family="Times New Roman,serif" font-size="15.00">Transmit confirmation receipt</text>
</g>
<!-- 2082708677088&#45;&#45;2082705448576 -->
<g id="edge34" class="edge">
<title>2082708677088&#45;&#45;2082705448576</title>
<path fill="none" stroke="black" d="M1305.71,-307C1360.06,-307 1454.37,-307 1532.45,-307"/>
</g>
<!-- 2082705441760 -->
<g id="node40" class="node">
<title>2082705441760</title>
<ellipse fill="black" stroke="black" cx="1663.99" cy="-268" rx="2.7" ry="2.7"/>
</g>
<!-- 2082708677088&#45;&#45;2082705441760 -->
<g id="edge35" class="edge">
<title>2082708677088&#45;&#45;2082705441760</title>
<path fill="none" stroke="black" d="M1304.56,-302.79C1403.18,-293.22 1637.53,-270.47 1661.08,-268.19"/>
</g>
<!-- 2082705454096 -->
<g id="node42" class="node">
<title>2082705454096</title>
<ellipse fill="black" stroke="black" cx="1663.99" cy="-245" rx="2.7" ry="2.7"/>
</g>
<!-- 2082708671376&#45;&#45;2082705454096 -->
<g id="edge37" class="edge">
<title>2082708671376&#45;&#45;2082705454096</title>
<path fill="none" stroke="black" d="M1287.54,-245C1372.39,-245 1634.45,-245 1660.84,-245"/>
</g>
<!-- 2082705446512 -->
<g id="node43" class="node">
<title>2082705446512</title>
<ellipse fill="none" stroke="black" cx="1663.99" cy="-206" rx="129.15" ry="18"/>
<text text-anchor="middle" x="1663.99" y="-200" font-family="Times New Roman,serif" font-size="15.00">Commence WABOprocedure</text>
</g>
<!-- 2082708671376&#45;&#45;2082705446512 -->
<g id="edge38" class="edge">
<title>2082708671376&#45;&#45;2082705446512</title>
<path fill="none" stroke="black" d="M1287.23,-242.47C1340.7,-237.28 1465.49,-225.17 1556.63,-216.32"/>
</g>
<!-- 2082706377184 -->
<g id="node46" class="node">
<title>2082706377184</title>
<ellipse fill="black" stroke="black" cx="545.68" cy="-292" rx="2.7" ry="2.7"/>
</g>
<!-- 2082706383184&#45;&#45;2082706377184 -->
<g id="edge44" class="edge">
<title>2082706383184&#45;&#45;2082706377184</title>
<path fill="none" stroke="black" d="M248.58,-284.65C321.39,-286.46 521.15,-291.42 542.78,-291.95"/>
</g>
<!-- 2082706382128 -->
<g id="node47" class="node">
<title>2082706382128</title>
<ellipse fill="none" stroke="black" cx="545.68" cy="-253" rx="154.22" ry="18"/>
<text text-anchor="middle" x="545.68" y="-247" font-family="Times New Roman,serif" font-size="15.00">Inspect field for phased application</text>
</g>
<!-- 2082706383184&#45;&#45;2082706382128 -->
<g id="edge45" class="edge">
<title>2082706383184&#45;&#45;2082706382128</title>
<path fill="none" stroke="black" d="M248.31,-281.49C286.62,-277.81 360.5,-270.7 424.91,-264.51"/>
</g>
<!-- 2082708681072 -->
<g id="node49" class="node">
<title>2082708681072</title>
<ellipse fill="black" stroke="black" cx="545.68" cy="-214" rx="2.7" ry="2.7"/>
</g>
<!-- 2082706382704&#45;&#45;2082708681072 -->
<g id="edge47" class="edge">
<title>2082706382704&#45;&#45;2082708681072</title>
<path fill="none" stroke="black" d="M248.58,-214C321.39,-214 521.15,-214 542.78,-214"/>
</g>
<!-- 2082708672576 -->
<g id="node50" class="node">
<title>2082708672576</title>
<ellipse fill="none" stroke="black" cx="545.68" cy="-175" rx="157.3" ry="18"/>
<text text-anchor="middle" x="545.68" y="-169" font-family="Times New Roman,serif" font-size="15.00">Register senddate acknowledgement</text>
</g>
<!-- 2082706382704&#45;&#45;2082708672576 -->
<g id="edge48" class="edge">
<title>2082706382704&#45;&#45;2082708672576</title>
<path fill="none" stroke="black" d="M248.04,-210.87C288.39,-205.99 368.68,-196.28 435.56,-188.2"/>
</g>
<!-- 2082708680688 -->
<g id="node52" class="node">
<title>2082708680688</title>
<ellipse fill="black" stroke="black" cx="545.68" cy="-132" rx="2.7" ry="2.7"/>
</g>
<!-- 2082706389040&#45;&#45;2082708680688 -->
<g id="edge50" class="edge">
<title>2082706389040&#45;&#45;2082708680688</title>
<path fill="none" stroke="black" d="M248.58,-132C321.39,-132 521.15,-132 542.78,-132"/>
</g>
<!-- 2082705450256 -->
<g id="node53" class="node">
<title>2082705450256</title>
<ellipse fill="none" stroke="black" cx="545.68" cy="-86" rx="27" ry="18"/>
<text text-anchor="middle" x="545.68" y="-80" font-family="Times New Roman,serif" font-size="15.00">seq</text>
</g>
<!-- 2082706389040&#45;&#45;2082705450256 -->
<g id="edge61" class="edge">
<title>2082706389040&#45;&#45;2082705450256</title>
<path fill="none" stroke="black" d="M248.04,-128.31C308.57,-119.68 458.95,-98.23 519.16,-89.64"/>
</g>
<!-- 2082705440992 -->
<g id="node54" class="node">
<title>2082705440992</title>
<ellipse fill="none" stroke="black" cx="921.86" cy="-126" rx="27" ry="18"/>
<text text-anchor="middle" x="921.86" y="-120" font-family="Times New Roman,serif" font-size="15.00">xor</text>
</g>
<!-- 2082705450256&#45;&#45;2082705440992 -->
<g id="edge56" class="edge">
<title>2082705450256&#45;&#45;2082705440992</title>
<path fill="none" stroke="black" d="M572.7,-88.78C641.31,-96.12 826.6,-115.92 895.02,-123.24"/>
</g>
<!-- 2082705362816 -->
<g id="node60" class="node">
<title>2082705362816</title>
<ellipse fill="none" stroke="black" cx="921.86" cy="-72" rx="27" ry="18"/>
<text text-anchor="middle" x="921.86" y="-66" font-family="Times New Roman,serif" font-size="15.00">and</text>
</g>
<!-- 2082705450256&#45;&#45;2082705362816 -->
<g id="edge59" class="edge">
<title>2082705450256&#45;&#45;2082705362816</title>
<path fill="none" stroke="black" d="M572.99,-85.02C641.7,-82.45 825.91,-75.55 894.58,-72.98"/>
</g>
<!-- 2082705368384 -->
<g id="node63" class="node">
<title>2082705368384</title>
<ellipse fill="none" stroke="black" cx="921.86" cy="-18" rx="84.11" ry="18"/>
<text text-anchor="middle" x="921.86" y="-12" font-family="Times New Roman,serif" font-size="15.00">Conclude the case</text>
</g>
<!-- 2082705450256&#45;&#45;2082705368384 -->
<g id="edge60" class="edge">
<title>2082705450256&#45;&#45;2082705368384</title>
<path fill="none" stroke="black" d="M572.11,-81.38C629.93,-70.87 772.73,-44.92 856.58,-29.68"/>
</g>
<!-- 2082706390960 -->
<g id="node55" class="node">
<title>2082706390960</title>
<ellipse fill="black" stroke="black" cx="1260.17" cy="-165" rx="2.7" ry="2.7"/>
</g>
<!-- 2082705440992&#45;&#45;2082706390960 -->
<g id="edge51" class="edge">
<title>2082705440992&#45;&#45;2082706390960</title>
<path fill="none" stroke="black" d="M948.97,-129.03C1023.67,-137.69 1234.34,-162.12 1257.16,-164.77"/>
</g>
<!-- 2082705360512 -->
<g id="node56" class="node">
<title>2082705360512</title>
<ellipse fill="none" stroke="black" cx="1260.17" cy="-126" rx="27" ry="18"/>
<text text-anchor="middle" x="1260.17" y="-120" font-family="Times New Roman,serif" font-size="15.00">seq</text>
</g>
<!-- 2082705440992&#45;&#45;2082705360512 -->
<g id="edge55" class="edge">
<title>2082705440992&#45;&#45;2082705360512</title>
<path fill="none" stroke="black" d="M949.25,-126C1012.12,-126 1170.16,-126 1232.91,-126"/>
</g>
<!-- 2082705363584 -->
<g id="node57" class="node">
<title>2082705363584</title>
<ellipse fill="none" stroke="black" cx="1663.99" cy="-152" rx="200.29" ry="18"/>
<text text-anchor="middle" x="1663.99" y="-146" font-family="Times New Roman,serif" font-size="15.00">Permit not needed or only notification required</text>
</g>
<!-- 2082705360512&#45;&#45;2082705363584 -->
<g id="edge52" class="edge">
<title>2082705360512&#45;&#45;2082705363584</title>
<path fill="none" stroke="black" d="M1287.54,-127.71C1330.58,-130.49 1419.2,-136.23 1499.54,-141.42"/>
</g>
<!-- 2082705360368 -->
<g id="node58" class="node">
<title>2082705360368</title>
<ellipse fill="none" stroke="black" cx="1663.99" cy="-98" rx="248.4" ry="18"/>
<text text-anchor="middle" x="1663.99" y="-92" font-family="Times New Roman,serif" font-size="15.00">document senddate letter no permit or notification required</text>
</g>
<!-- 2082705360512&#45;&#45;2082705360368 -->
<g id="edge53" class="edge">
<title>2082705360512&#45;&#45;2082705360368</title>
<path fill="none" stroke="black" d="M1287.23,-124.18C1327.05,-121.41 1406.42,-115.88 1482,-110.61"/>
</g>
<!-- 2082705365888 -->
<g id="node59" class="node">
<title>2082705365888</title>
<ellipse fill="none" stroke="black" cx="1663.99" cy="-44" rx="159.85" ry="18"/>
<text text-anchor="middle" x="1663.99" y="-38" font-family="Times New Roman,serif" font-size="15.00">draft letter stating no permit required</text>
</g>
<!-- 2082705360512&#45;&#45;2082705365888 -->
<g id="edge54" class="edge">
<title>2082705360512&#45;&#45;2082705365888</title>
<path fill="none" stroke="black" d="M1286.31,-120.87C1344.9,-108.91 1492.53,-78.79 1584.61,-60"/>
</g>
<!-- 2082705364880 -->
<g id="node61" class="node">
<title>2082705364880</title>
<ellipse fill="none" stroke="black" cx="1260.17" cy="-72" rx="119.42" ry="18"/>
<text text-anchor="middle" x="1260.17" y="-66" font-family="Times New Roman,serif" font-size="15.00">Phase procedure cancelled</text>
</g>
<!-- 2082705362816&#45;&#45;2082705364880 -->
<g id="edge57" class="edge">
<title>2082705362816&#45;&#45;2082705364880</title>
<path fill="none" stroke="black" d="M949.25,-72C990.21,-72 1071.56,-72 1140.64,-72"/>
</g>
<!-- 2082705368000 -->
<g id="node62" class="node">
<title>2082705368000</title>
<ellipse fill="none" stroke="black" cx="1260.17" cy="-18" rx="96.39" ry="18"/>
<text text-anchor="middle" x="1260.17" y="-12" font-family="Times New Roman,serif" font-size="15.00">Register the deadline</text>
</g>
<!-- 2082705362816&#45;&#45;2082705368000 -->
<g id="edge58" class="edge">
<title>2082705362816&#45;&#45;2082705368000</title>
<path fill="none" stroke="black" d="M948.42,-67.9C998.39,-59.87 1110.71,-41.84 1185.72,-29.79"/>
</g>
</g>
</svg>
