<?xml version="1.0" encoding="UTF-8" standalone="no"?>
<!DOCTYPE svg PUBLIC "-//W3C//DTD SVG 1.1//EN"
 "http://www.w3.org/Graphics/SVG/1.1/DTD/svg11.dtd">
<!-- Generated by graphviz version 11.0.0 (20240428.1522)
 -->
<!-- Title: pt Pages: 1 -->
<svg width="3760pt" height="494pt"
 viewBox="0.00 0.00 3759.77 494.00" xmlns="http://www.w3.org/2000/svg" xmlns:xlink="http://www.w3.org/1999/xlink">
<g id="graph0" class="graph" transform="scale(1 1) rotate(0) translate(4 490)">
<title>pt</title>
<polygon fill="white" stroke="none" points="-4,4 -4,-490 3755.77,-490 3755.77,4 -4,4"/>
<!-- 2082701062320 -->
<g id="node1" class="node">
<title>2082701062320</title>
<ellipse fill="none" stroke="black" cx="27" cy="-286" rx="27" ry="18"/>
<text text-anchor="middle" x="27" y="-280" font-family="Times New Roman,serif" font-size="15.00">seq</text>
</g>
<!-- 2082701058288 -->
<g id="node2" class="node">
<title>2082701058288</title>
<ellipse fill="none" stroke="black" cx="221.19" cy="-448" rx="131.19" ry="18"/>
<text text-anchor="middle" x="221.19" y="-442" font-family="Times New Roman,serif" font-size="15.00">Enter submission date request</text>
</g>
<!-- 2082701062320&#45;&#45;2082701058288 -->
<g id="edge1" class="edge">
<title>2082701062320&#45;&#45;2082701058288</title>
<path fill="none" stroke="black" d="M44.72,-300.09C79.61,-329.5 160.11,-397.36 198.75,-429.92"/>
</g>
<!-- 2082701056032 -->
<g id="node3" class="node">
<title>2082701056032</title>
<ellipse fill="none" stroke="black" cx="221.19" cy="-394" rx="27" ry="18"/>
<text text-anchor="middle" x="221.19" y="-388" font-family="Times New Roman,serif" font-size="15.00">xor</text>
</g>
<!-- 2082701062320&#45;&#45;2082701056032 -->
<g id="edge7" class="edge">
<title>2082701062320&#45;&#45;2082701056032</title>
<path fill="none" stroke="black" d="M48.2,-297.35C85.12,-318.1 163.05,-361.89 199.97,-382.64"/>
</g>
<!-- 2082701051232 -->
<g id="node9" class="node">
<title>2082701051232</title>
<ellipse fill="none" stroke="black" cx="221.19" cy="-313" rx="27" ry="18"/>
<text text-anchor="middle" x="221.19" y="-307" font-family="Times New Roman,serif" font-size="15.00">and</text>
</g>
<!-- 2082701062320&#45;&#45;2082701051232 -->
<g id="edge47" class="edge">
<title>2082701062320&#45;&#45;2082701051232</title>
<path fill="none" stroke="black" d="M53.92,-289.64C90.7,-294.81 157.65,-304.21 194.38,-309.37"/>
</g>
<!-- 2082701050800 -->
<g id="node49" class="node">
<title>2082701050800</title>
<ellipse fill="none" stroke="black" cx="221.19" cy="-259" rx="27" ry="18"/>
<text text-anchor="middle" x="221.19" y="-253" font-family="Times New Roman,serif" font-size="15.00">xor</text>
</g>
<!-- 2082701062320&#45;&#45;2082701050800 -->
<g id="edge50" class="edge">
<title>2082701062320&#45;&#45;2082701050800</title>
<path fill="none" stroke="black" d="M53.92,-282.36C90.7,-277.19 157.65,-267.79 194.38,-262.63"/>
</g>
<!-- 2082701055552 -->
<g id="node52" class="node">
<title>2082701055552</title>
<ellipse fill="none" stroke="black" cx="221.19" cy="-189" rx="27" ry="18"/>
<text text-anchor="middle" x="221.19" y="-183" font-family="Times New Roman,serif" font-size="15.00">xor</text>
</g>
<!-- 2082701062320&#45;&#45;2082701055552 -->
<g id="edge53" class="edge">
<title>2082701062320&#45;&#45;2082701055552</title>
<path fill="none" stroke="black" d="M49.3,-275.25C86.34,-256.55 162.19,-218.28 199.09,-199.65"/>
</g>
<!-- 2082701062272 -->
<g id="node55" class="node">
<title>2082701062272</title>
<ellipse fill="none" stroke="black" cx="221.19" cy="-111" rx="27" ry="18"/>
<text text-anchor="middle" x="221.19" y="-105" font-family="Times New Roman,serif" font-size="15.00">xor</text>
</g>
<!-- 2082701062320&#45;&#45;2082701062272 -->
<g id="edge66" class="edge">
<title>2082701062320&#45;&#45;2082701062272</title>
<path fill="none" stroke="black" d="M43.73,-271.68C79.77,-238.86 168,-158.52 204.25,-125.52"/>
</g>
<!-- 2082701065584 -->
<g id="node4" class="node">
<title>2082701065584</title>
<ellipse fill="black" stroke="black" cx="545.68" cy="-453" rx="2.7" ry="2.7"/>
</g>
<!-- 2082701056032&#45;&#45;2082701065584 -->
<g id="edge2" class="edge">
<title>2082701056032&#45;&#45;2082701065584</title>
<path fill="none" stroke="black" d="M247.77,-398.68C319.87,-411.87 520.98,-448.66 542.76,-452.65"/>
</g>
<!-- 2082701064720 -->
<g id="node5" class="node">
<title>2082701064720</title>
<ellipse fill="none" stroke="black" cx="545.68" cy="-414" rx="27" ry="18"/>
<text text-anchor="middle" x="545.68" y="-408" font-family="Times New Roman,serif" font-size="15.00">seq</text>
</g>
<!-- 2082701056032&#45;&#45;2082701064720 -->
<g id="edge6" class="edge">
<title>2082701056032&#45;&#45;2082701064720</title>
<path fill="none" stroke="black" d="M248.58,-395.64C309.21,-399.4 457.84,-408.61 518.38,-412.37"/>
</g>
<!-- 2082701050320 -->
<g id="node6" class="node">
<title>2082701050320</title>
<ellipse fill="none" stroke="black" cx="921.86" cy="-468" rx="182.89" ry="18"/>
<text text-anchor="middle" x="921.86" y="-462" font-family="Times New Roman,serif" font-size="15.00">Mandatory Environmental Report required</text>
</g>
<!-- 2082701064720&#45;&#45;2082701050320 -->
<g id="edge3" class="edge">
<title>2082701064720&#45;&#45;2082701050320</title>
<path fill="none" stroke="black" d="M572.4,-417.71C621.85,-424.85 732.69,-440.84 816.17,-452.89"/>
</g>
<!-- 2082701058480 -->
<g id="node7" class="node">
<title>2082701058480</title>
<ellipse fill="none" stroke="black" cx="921.86" cy="-414" rx="129.15" ry="18"/>
<text text-anchor="middle" x="921.86" y="-408" font-family="Times New Roman,serif" font-size="15.00">Regular procedural activities</text>
</g>
<!-- 2082701064720&#45;&#45;2082701058480 -->
<g id="edge4" class="edge">
<title>2082701064720&#45;&#45;2082701058480</title>
<path fill="none" stroke="black" d="M572.99,-414C618.16,-414 713.24,-414 792.6,-414"/>
</g>
<!-- 2082701054448 -->
<g id="node8" class="node">
<title>2082701054448</title>
<ellipse fill="none" stroke="black" cx="921.86" cy="-360" rx="87.69" ry="18"/>
<text text-anchor="middle" x="921.86" y="-354" font-family="Times New Roman,serif" font-size="15.00">Phased application</text>
</g>
<!-- 2082701064720&#45;&#45;2082701054448 -->
<g id="edge5" class="edge">
<title>2082701064720&#45;&#45;2082701054448</title>
<path fill="none" stroke="black" d="M572.4,-410.29C628.71,-402.16 764.58,-382.55 849.06,-370.36"/>
</g>
<!-- 2082701063616 -->
<g id="node10" class="node">
<title>2082701063616</title>
<ellipse fill="none" stroke="black" cx="545.68" cy="-360" rx="114.82" ry="18"/>
<text text-anchor="middle" x="545.68" y="-354" font-family="Times New Roman,serif" font-size="15.00">Step application received</text>
</g>
<!-- 2082701051232&#45;&#45;2082701063616 -->
<g id="edge8" class="edge">
<title>2082701051232&#45;&#45;2082701063616</title>
<path fill="none" stroke="black" d="M248.04,-316.77C293.48,-323.39 389.54,-337.39 460.08,-347.67"/>
</g>
<!-- 2082701065776 -->
<g id="node11" class="node">
<title>2082701065776</title>
<ellipse fill="none" stroke="black" cx="545.68" cy="-306" rx="45.21" ry="18"/>
<text text-anchor="middle" x="545.68" y="-300" font-family="Times New Roman,serif" font-size="15.00">xor loop</text>
</g>
<!-- 2082701051232&#45;&#45;2082701065776 -->
<g id="edge46" class="edge">
<title>2082701051232&#45;&#45;2082701065776</title>
<path fill="none" stroke="black" d="M248.58,-312.43C303.79,-311.23 431.99,-308.45 500.17,-306.97"/>
</g>
<!-- 2082701050704 -->
<g id="node12" class="node">
<title>2082701050704</title>
<ellipse fill="none" stroke="black" cx="921.86" cy="-306" rx="27" ry="18"/>
<text text-anchor="middle" x="921.86" y="-300" font-family="Times New Roman,serif" font-size="15.00">seq</text>
</g>
<!-- 2082701065776&#45;&#45;2082701050704 -->
<g id="edge44" class="edge">
<title>2082701065776&#45;&#45;2082701050704</title>
<path fill="none" stroke="black" d="M591.08,-306C669.67,-306 830.99,-306 894.42,-306"/>
</g>
<!-- 2082701059152 -->
<g id="node48" class="node">
<title>2082701059152</title>
<ellipse fill="black" stroke="black" cx="921.86" cy="-267" rx="2.7" ry="2.7"/>
</g>
<!-- 2082701065776&#45;&#45;2082701059152 -->
<g id="edge45" class="edge">
<title>2082701065776&#45;&#45;2082701059152</title>
<path fill="none" stroke="black" d="M589.97,-301.49C683.08,-291.78 895.85,-269.61 918.84,-267.21"/>
</g>
<!-- 2082701065680 -->
<g id="node13" class="node">
<title>2082701065680</title>
<ellipse fill="none" stroke="black" cx="1260.17" cy="-340" rx="45.21" ry="18"/>
<text text-anchor="middle" x="1260.17" y="-334" font-family="Times New Roman,serif" font-size="15.00">xor loop</text>
</g>
<!-- 2082701050704&#45;&#45;2082701065680 -->
<g id="edge40" class="edge">
<title>2082701050704&#45;&#45;2082701065680</title>
<path fill="none" stroke="black" d="M948.97,-308.64C1006.62,-314.47 1145.23,-328.48 1216.01,-335.64"/>
</g>
<!-- 2082701051328 -->
<g id="node45" class="node">
<title>2082701051328</title>
<ellipse fill="none" stroke="black" cx="1260.17" cy="-286" rx="27" ry="18"/>
<text text-anchor="middle" x="1260.17" y="-280" font-family="Times New Roman,serif" font-size="15.00">xor</text>
</g>
<!-- 2082701050704&#45;&#45;2082701051328 -->
<g id="edge43" class="edge">
<title>2082701050704&#45;&#45;2082701051328</title>
<path fill="none" stroke="black" d="M949.25,-304.43C1012.12,-300.69 1170.16,-291.29 1232.91,-287.56"/>
</g>
<!-- 2082701060112 -->
<g id="node14" class="node">
<title>2082701060112</title>
<ellipse fill="none" stroke="black" cx="1663.99" cy="-371" rx="27" ry="18"/>
<text text-anchor="middle" x="1663.99" y="-365" font-family="Times New Roman,serif" font-size="15.00">xor</text>
</g>
<!-- 2082701065680&#45;&#45;2082701060112 -->
<g id="edge38" class="edge">
<title>2082701065680&#45;&#45;2082701060112</title>
<path fill="none" stroke="black" d="M1304.94,-343.38C1388.74,-349.84 1569.52,-363.79 1636.94,-368.99"/>
</g>
<!-- 2082701057760 -->
<g id="node44" class="node">
<title>2082701057760</title>
<ellipse fill="black" stroke="black" cx="1663.99" cy="-332" rx="2.7" ry="2.7"/>
</g>
<!-- 2082701065680&#45;&#45;2082701057760 -->
<g id="edge39" class="edge">
<title>2082701065680&#45;&#45;2082701057760</title>
<path fill="none" stroke="black" d="M1305.71,-339.11C1405.02,-337.14 1637.71,-332.5 1661.09,-332.04"/>
</g>
<!-- 2082701062032 -->
<g id="node15" class="node">
<title>2082701062032</title>
<ellipse fill="none" stroke="black" cx="2046.83" cy="-398" rx="98.44" ry="18"/>
<text text-anchor="middle" x="2046.83" y="-392" font-family="Times New Roman,serif" font-size="15.00">OLO messages active</text>
</g>
<!-- 2082701060112&#45;&#45;2082701062032 -->
<g id="edge9" class="edge">
<title>2082701060112&#45;&#45;2082701062032</title>
<path fill="none" stroke="black" d="M1691.17,-372.86C1744.52,-376.64 1868.09,-385.4 1954.27,-391.51"/>
</g>
<!-- 2082701059296 -->
<g id="node16" class="node">
<title>2082701059296</title>
<ellipse fill="none" stroke="black" cx="2046.83" cy="-344" rx="27" ry="18"/>
<text text-anchor="middle" x="2046.83" y="-338" font-family="Times New Roman,serif" font-size="15.00">seq</text>
</g>
<!-- 2082701060112&#45;&#45;2082701059296 -->
<g id="edge37" class="edge">
<title>2082701060112&#45;&#45;2082701059296</title>
<path fill="none" stroke="black" d="M1691.17,-369.14C1760.82,-364.21 1950.14,-350.78 2019.72,-345.85"/>
</g>
<!-- 2082701065968 -->
<g id="node17" class="node">
<title>2082701065968</title>
<ellipse fill="none" stroke="black" cx="2312.46" cy="-425" rx="131.19" ry="18"/>
<text text-anchor="middle" x="2312.46" y="-419" font-family="Times New Roman,serif" font-size="15.00">Transmit confirmation receipt</text>
</g>
<!-- 2082701059296&#45;&#45;2082701065968 -->
<g id="edge10" class="edge">
<title>2082701059296&#45;&#45;2082701065968</title>
<path fill="none" stroke="black" d="M2071.69,-351.33C2113.26,-364.1 2199.97,-390.75 2256.92,-408.24"/>
</g>
<!-- 2082701054256 -->
<g id="node18" class="node">
<title>2082701054256</title>
<ellipse fill="none" stroke="black" cx="2312.46" cy="-371" rx="27" ry="18"/>
<text text-anchor="middle" x="2312.46" y="-365" font-family="Times New Roman,serif" font-size="15.00">xor</text>
</g>
<!-- 2082701059296&#45;&#45;2082701054256 -->
<g id="edge21" class="edge">
<title>2082701059296&#45;&#45;2082701054256</title>
<path fill="none" stroke="black" d="M2073.59,-346.64C2123.99,-351.8 2235.11,-363.18 2285.6,-368.35"/>
</g>
<!-- 2082701062560 -->
<g id="node29" class="node">
<title>2082701062560</title>
<ellipse fill="none" stroke="black" cx="2312.46" cy="-317" rx="27" ry="18"/>
<text text-anchor="middle" x="2312.46" y="-311" font-family="Times New Roman,serif" font-size="15.00">xor</text>
</g>
<!-- 2082701059296&#45;&#45;2082701062560 -->
<g id="edge24" class="edge">
<title>2082701059296&#45;&#45;2082701062560</title>
<path fill="none" stroke="black" d="M2073.59,-341.36C2123.99,-336.2 2235.11,-324.82 2285.6,-319.65"/>
</g>
<!-- 2082701063328 -->
<g id="node32" class="node">
<title>2082701063328</title>
<ellipse fill="none" stroke="black" cx="2312.46" cy="-254" rx="27" ry="18"/>
<text text-anchor="middle" x="2312.46" y="-248" font-family="Times New Roman,serif" font-size="15.00">xor</text>
</g>
<!-- 2082701059296&#45;&#45;2082701063328 -->
<g id="edge36" class="edge">
<title>2082701059296&#45;&#45;2082701063328</title>
<path fill="none" stroke="black" d="M2071.22,-336.01C2121.13,-318.98 2237.55,-279.23 2287.74,-262.1"/>
</g>
<!-- 2082701056800 -->
<g id="node19" class="node">
<title>2082701056800</title>
<ellipse fill="black" stroke="black" cx="2619.03" cy="-410" rx="2.7" ry="2.7"/>
</g>
<!-- 2082701054256&#45;&#45;2082701056800 -->
<g id="edge11" class="edge">
<title>2082701054256&#45;&#45;2082701056800</title>
<path fill="none" stroke="black" d="M2339.43,-374.33C2409.05,-383.24 2596.01,-407.18 2616.25,-409.77"/>
</g>
<!-- 2082701063664 -->
<g id="node20" class="node">
<title>2082701063664</title>
<ellipse fill="none" stroke="black" cx="2619.03" cy="-371" rx="27" ry="18"/>
<text text-anchor="middle" x="2619.03" y="-365" font-family="Times New Roman,serif" font-size="15.00">seq</text>
</g>
<!-- 2082701054256&#45;&#45;2082701063664 -->
<g id="edge20" class="edge">
<title>2082701054256&#45;&#45;2082701063664</title>
<path fill="none" stroke="black" d="M2339.95,-371C2397.7,-371 2534.32,-371 2591.82,-371"/>
</g>
<!-- 2082701059056 -->
<g id="node21" class="node">
<title>2082701059056</title>
<ellipse fill="none" stroke="black" cx="2941.99" cy="-401" rx="142.97" ry="18"/>
<text text-anchor="middle" x="2941.99" y="-395" font-family="Times New Roman,serif" font-size="15.00">Applicant plays stakeholder role</text>
</g>
<!-- 2082701063664&#45;&#45;2082701059056 -->
<g id="edge12" class="edge">
<title>2082701063664&#45;&#45;2082701059056</title>
<path fill="none" stroke="black" d="M2646.03,-373.43C2684.9,-377.06 2760.57,-384.14 2825.54,-390.21"/>
</g>
<!-- 2082701061312 -->
<g id="node22" class="node">
<title>2082701061312</title>
<ellipse fill="none" stroke="black" cx="2941.99" cy="-347" rx="27" ry="18"/>
<text text-anchor="middle" x="2941.99" y="-341" font-family="Times New Roman,serif" font-size="15.00">and</text>
</g>
<!-- 2082701063664&#45;&#45;2082701061312 -->
<g id="edge19" class="edge">
<title>2082701063664&#45;&#45;2082701061312</title>
<path fill="none" stroke="black" d="M2646.3,-369.04C2706.63,-364.52 2854.56,-353.46 2914.81,-348.96"/>
</g>
<!-- 2082701053920 -->
<g id="node23" class="node">
<title>2082701053920</title>
<ellipse fill="none" stroke="black" cx="3152.56" cy="-374" rx="27" ry="18"/>
<text text-anchor="middle" x="3152.56" y="-368" font-family="Times New Roman,serif" font-size="15.00">xor</text>
</g>
<!-- 2082701061312&#45;&#45;2082701053920 -->
<g id="edge15" class="edge">
<title>2082701061312&#45;&#45;2082701053920</title>
<path fill="none" stroke="black" d="M2968.98,-350.36C3009.06,-355.55 3085.49,-365.45 3125.57,-370.64"/>
</g>
<!-- 2082701062176 -->
<g id="node26" class="node">
<title>2082701062176</title>
<ellipse fill="none" stroke="black" cx="3152.56" cy="-320" rx="27" ry="18"/>
<text text-anchor="middle" x="3152.56" y="-314" font-family="Times New Roman,serif" font-size="15.00">xor</text>
</g>
<!-- 2082701061312&#45;&#45;2082701062176 -->
<g id="edge18" class="edge">
<title>2082701061312&#45;&#45;2082701062176</title>
<path fill="none" stroke="black" d="M2968.98,-343.64C3009.06,-338.45 3085.49,-328.55 3125.57,-323.36"/>
</g>
<!-- 2082701060304 -->
<g id="node24" class="node">
<title>2082701060304</title>
<ellipse fill="black" stroke="black" cx="3344.19" cy="-409" rx="2.7" ry="2.7"/>
</g>
<!-- 2082701053920&#45;&#45;2082701060304 -->
<g id="edge13" class="edge">
<title>2082701053920&#45;&#45;2082701060304</title>
<path fill="none" stroke="black" d="M3179.13,-378.72C3226.85,-387.53 3326.02,-405.83 3341.22,-408.64"/>
</g>
<!-- 2082701062848 -->
<g id="node25" class="node">
<title>2082701062848</title>
<ellipse fill="none" stroke="black" cx="3344.19" cy="-370" rx="73.36" ry="18"/>
<text text-anchor="middle" x="3344.19" y="-364" font-family="Times New Roman,serif" font-size="15.00">Stop on request</text>
</g>
<!-- 2082701053920&#45;&#45;2082701062848 -->
<g id="edge14" class="edge">
<title>2082701053920&#45;&#45;2082701062848</title>
<path fill="none" stroke="black" d="M3179.93,-373.44C3203.44,-372.95 3238.97,-372.2 3270.88,-371.53"/>
</g>
<!-- 2082701060976 -->
<g id="node27" class="node">
<title>2082701060976</title>
<ellipse fill="black" stroke="black" cx="3344.19" cy="-324" rx="2.7" ry="2.7"/>
</g>
<!-- 2082701062176&#45;&#45;2082701060976 -->
<g id="edge16" class="edge">
<title>2082701062176&#45;&#45;2082701060976</title>
<path fill="none" stroke="black" d="M3179.93,-320.56C3227.96,-321.57 3326.19,-323.64 3341.24,-323.96"/>
</g>
<!-- 2082701061600 -->
<g id="node28" class="node">
<title>2082701061600</title>
<ellipse fill="none" stroke="black" cx="3344.19" cy="-285" rx="128.63" ry="18"/>
<text text-anchor="middle" x="3344.19" y="-279" font-family="Times New Roman,serif" font-size="15.00">Evaluate provisional charges</text>
</g>
<!-- 2082701062176&#45;&#45;2082701061600 -->
<g id="edge17" class="edge">
<title>2082701062176&#45;&#45;2082701061600</title>
<path fill="none" stroke="black" d="M3179.13,-315.28C3201.07,-311.23 3233.88,-305.17 3264.41,-299.54"/>
</g>
<!-- 2082701065824 -->
<g id="node30" class="node">
<title>2082701065824</title>
<ellipse fill="black" stroke="black" cx="2619.03" cy="-332" rx="2.7" ry="2.7"/>
</g>
<!-- 2082701062560&#45;&#45;2082701065824 -->
<g id="edge22" class="edge">
<title>2082701062560&#45;&#45;2082701065824</title>
<path fill="none" stroke="black" d="M2339.69,-318.29C2409.53,-321.73 2596.06,-330.92 2616.25,-331.91"/>
</g>
<!-- 2082701059728 -->
<g id="node31" class="node">
<title>2082701059728</title>
<ellipse fill="none" stroke="black" cx="2619.03" cy="-293" rx="139.38" ry="18"/>
<text text-anchor="middle" x="2619.03" y="-287" font-family="Times New Roman,serif" font-size="15.00">Refer to the competent authority</text>
</g>
<!-- 2082701062560&#45;&#45;2082701059728 -->
<g id="edge23" class="edge">
<title>2082701062560&#45;&#45;2082701059728</title>
<path fill="none" stroke="black" d="M2339.69,-314.93C2375.04,-312.15 2440.3,-307.01 2498.74,-302.4"/>
</g>
<!-- 2082701061504 -->
<g id="node33" class="node">
<title>2082701061504</title>
<ellipse fill="black" stroke="black" cx="2619.03" cy="-254" rx="2.7" ry="2.7"/>
</g>
<!-- 2082701063328&#45;&#45;2082701061504 -->
<g id="edge25" class="edge">
<title>2082701063328&#45;&#45;2082701061504</title>
<path fill="none" stroke="black" d="M2339.95,-254C2410,-254 2596.11,-254 2616.26,-254"/>
</g>
<!-- 2082701051136 -->
<g id="node34" class="node">
<title>2082701051136</title>
<ellipse fill="none" stroke="black" cx="2619.03" cy="-215" rx="27" ry="18"/>
<text text-anchor="middle" x="2619.03" y="-209" font-family="Times New Roman,serif" font-size="15.00">seq</text>
</g>
<!-- 2082701063328&#45;&#45;2082701051136 -->
<g id="edge35" class="edge">
<title>2082701063328&#45;&#45;2082701051136</title>
<path fill="none" stroke="black" d="M2339.43,-250.67C2396.97,-243.31 2534.65,-225.68 2592.13,-218.32"/>
</g>
<!-- 2082701060880 -->
<g id="node35" class="node">
<title>2082701060880</title>
<ellipse fill="none" stroke="black" cx="2941.99" cy="-269" rx="147.57" ry="18"/>
<text text-anchor="middle" x="2941.99" y="-263" font-family="Times New Roman,serif" font-size="15.00">Ordinary procedure without MER</text>
</g>
<!-- 2082701051136&#45;&#45;2082701060880 -->
<g id="edge26" class="edge">
<title>2082701051136&#45;&#45;2082701060880</title>
<path fill="none" stroke="black" d="M2645.76,-219.33C2690.23,-226.81 2783.45,-242.49 2853.31,-254.25"/>
</g>
<!-- 2082701056416 -->
<g id="node36" class="node">
<title>2082701056416</title>
<ellipse fill="none" stroke="black" cx="2941.99" cy="-215" rx="141.43" ry="18"/>
<text text-anchor="middle" x="2941.99" y="-209" font-family="Times New Roman,serif" font-size="15.00">Produce procedure confirmation</text>
</g>
<!-- 2082701051136&#45;&#45;2082701056416 -->
<g id="edge27" class="edge">
<title>2082701051136&#45;&#45;2082701056416</title>
<path fill="none" stroke="black" d="M2646.3,-215C2680.28,-215 2742.06,-215 2800.3,-215"/>
</g>
<!-- 2082701056560 -->
<g id="node37" class="node">
<title>2082701056560</title>
<ellipse fill="none" stroke="black" cx="2941.99" cy="-161" rx="27" ry="18"/>
<text text-anchor="middle" x="2941.99" y="-155" font-family="Times New Roman,serif" font-size="15.00">xor</text>
</g>
<!-- 2082701051136&#45;&#45;2082701056560 -->
<g id="edge34" class="edge">
<title>2082701051136&#45;&#45;2082701056560</title>
<path fill="none" stroke="black" d="M2645.76,-210.67C2706,-200.54 2855.67,-175.36 2915.59,-165.27"/>
</g>
<!-- 2082701063808 -->
<g id="node38" class="node">
<title>2082701063808</title>
<ellipse fill="black" stroke="black" cx="3152.56" cy="-181" rx="2.7" ry="2.7"/>
</g>
<!-- 2082701056560&#45;&#45;2082701063808 -->
<g id="edge28" class="edge">
<title>2082701056560&#45;&#45;2082701063808</title>
<path fill="none" stroke="black" d="M2968.98,-163.49C3020.96,-168.48 3134.1,-179.33 3149.75,-180.83"/>
</g>
<!-- 2082701055600 -->
<g id="node39" class="node">
<title>2082701055600</title>
<ellipse fill="none" stroke="black" cx="3152.56" cy="-142" rx="27" ry="18"/>
<text text-anchor="middle" x="3152.56" y="-136" font-family="Times New Roman,serif" font-size="15.00">seq</text>
</g>
<!-- 2082701056560&#45;&#45;2082701055600 -->
<g id="edge33" class="edge">
<title>2082701056560&#45;&#45;2082701055600</title>
<path fill="none" stroke="black" d="M2968.98,-158.63C3009.06,-154.98 3085.49,-148.02 3125.57,-144.37"/>
</g>
<!-- 2082701053008 -->
<g id="node40" class="node">
<title>2082701053008</title>
<ellipse fill="none" stroke="black" cx="3344.19" cy="-169" rx="51.86" ry="18"/>
<text text-anchor="middle" x="3344.19" y="-163" font-family="Times New Roman,serif" font-size="15.00">Broadcast</text>
</g>
<!-- 2082701055600&#45;&#45;2082701053008 -->
<g id="edge29" class="edge">
<title>2082701055600&#45;&#45;2082701053008</title>
<path fill="none" stroke="black" d="M3179.13,-145.64C3208.96,-149.89 3258.88,-157 3295.84,-162.26"/>
</g>
<!-- 2082703291840 -->
<g id="node41" class="node">
<title>2082703291840</title>
<ellipse fill="none" stroke="black" cx="3344.19" cy="-115" rx="27" ry="18"/>
<text text-anchor="middle" x="3344.19" y="-109" font-family="Times New Roman,serif" font-size="15.00">xor</text>
</g>
<!-- 2082701055600&#45;&#45;2082703291840 -->
<g id="edge32" class="edge">
<title>2082701055600&#45;&#45;2082703291840</title>
<path fill="none" stroke="black" d="M3179.13,-138.36C3215.33,-133.21 3281.12,-123.84 3317.42,-118.67"/>
</g>
<!-- 2082703278544 -->
<g id="node42" class="node">
<title>2082703278544</title>
<ellipse fill="black" stroke="black" cx="3630.3" cy="-135" rx="2.7" ry="2.7"/>
</g>
<!-- 2082703291840&#45;&#45;2082703278544 -->
<g id="edge30" class="edge">
<title>2082703291840&#45;&#45;2082703278544</title>
<path fill="none" stroke="black" d="M3371.41,-116.85C3437.35,-121.49 3606.31,-133.38 3627.17,-134.85"/>
</g>
<!-- 2082703281472 -->
<g id="node43" class="node">
<title>2082703281472</title>
<ellipse fill="none" stroke="black" cx="3630.3" cy="-96" rx="121.47" ry="18"/>
<text text-anchor="middle" x="3630.3" y="-90" font-family="Times New Roman,serif" font-size="15.00">Form publication document</text>
</g>
<!-- 2082703291840&#45;&#45;2082703281472 -->
<g id="edge31" class="edge">
<title>2082703291840&#45;&#45;2082703281472</title>
<path fill="none" stroke="black" d="M3371.41,-113.25C3404.93,-111.01 3465.07,-106.98 3518.85,-103.39"/>
</g>
<!-- 2082701050032 -->
<g id="node46" class="node">
<title>2082701050032</title>
<ellipse fill="black" stroke="black" cx="1663.99" cy="-294" rx="2.7" ry="2.7"/>
</g>
<!-- 2082701051328&#45;&#45;2082701050032 -->
<g id="edge41" class="edge">
<title>2082701051328&#45;&#45;2082701050032</title>
<path fill="none" stroke="black" d="M1287.54,-286.52C1372.39,-288.21 1634.45,-293.43 1660.84,-293.96"/>
</g>
<!-- 2082701061168 -->
<g id="node47" class="node">
<title>2082701061168</title>
<ellipse fill="none" stroke="black" cx="1663.99" cy="-255" rx="129.15" ry="18"/>
<text text-anchor="middle" x="1663.99" y="-249" font-family="Times New Roman,serif" font-size="15.00">Commence WABOprocedure</text>
</g>
<!-- 2082701051328&#45;&#45;2082701061168 -->
<g id="edge42" class="edge">
<title>2082701051328&#45;&#45;2082701061168</title>
<path fill="none" stroke="black" d="M1287.23,-283.99C1339.4,-279.96 1459.44,-270.7 1549.91,-263.72"/>
</g>
<!-- 2082701052864 -->
<g id="node50" class="node">
<title>2082701052864</title>
<ellipse fill="black" stroke="black" cx="545.68" cy="-267" rx="2.7" ry="2.7"/>
</g>
<!-- 2082701050800&#45;&#45;2082701052864 -->
<g id="edge48" class="edge">
<title>2082701050800&#45;&#45;2082701052864</title>
<path fill="none" stroke="black" d="M248.58,-259.65C321.39,-261.46 521.15,-266.42 542.78,-266.95"/>
</g>
<!-- 2082701064768 -->
<g id="node51" class="node">
<title>2082701064768</title>
<ellipse fill="none" stroke="black" cx="545.68" cy="-228" rx="154.22" ry="18"/>
<text text-anchor="middle" x="545.68" y="-222" font-family="Times New Roman,serif" font-size="15.00">Inspect field for phased application</text>
</g>
<!-- 2082701050800&#45;&#45;2082701064768 -->
<g id="edge49" class="edge">
<title>2082701050800&#45;&#45;2082701064768</title>
<path fill="none" stroke="black" d="M248.31,-256.49C286.62,-252.81 360.5,-245.7 424.91,-239.51"/>
</g>
<!-- 2082701065488 -->
<g id="node53" class="node">
<title>2082701065488</title>
<ellipse fill="black" stroke="black" cx="545.68" cy="-189" rx="2.7" ry="2.7"/>
</g>
<!-- 2082701055552&#45;&#45;2082701065488 -->
<g id="edge51" class="edge">
<title>2082701055552&#45;&#45;2082701065488</title>
<path fill="none" stroke="black" d="M248.58,-189C321.39,-189 521.15,-189 542.78,-189"/>
</g>
<!-- 2082701052912 -->
<g id="node54" class="node">
<title>2082701052912</title>
<ellipse fill="none" stroke="black" cx="545.68" cy="-150" rx="157.3" ry="18"/>
<text text-anchor="middle" x="545.68" y="-144" font-family="Times New Roman,serif" font-size="15.00">Register senddate acknowledgement</text>
</g>
<!-- 2082701055552&#45;&#45;2082701052912 -->
<g id="edge52" class="edge">
<title>2082701055552&#45;&#45;2082701052912</title>
<path fill="none" stroke="black" d="M248.04,-185.87C288.39,-180.99 368.68,-171.28 435.56,-163.2"/>
</g>
<!-- 2082701064912 -->
<g id="node56" class="node">
<title>2082701064912</title>
<ellipse fill="black" stroke="black" cx="545.68" cy="-111" rx="2.7" ry="2.7"/>
</g>
<!-- 2082701062272&#45;&#45;2082701064912 -->
<g id="edge54" class="edge">
<title>2082701062272&#45;&#45;2082701064912</title>
<path fill="none" stroke="black" d="M248.58,-111C321.39,-111 521.15,-111 542.78,-111"/>
</g>
<!-- 2082701054160 -->
<g id="node57" class="node">
<title>2082701054160</title>
<ellipse fill="none" stroke="black" cx="545.68" cy="-72" rx="27" ry="18"/>
<text text-anchor="middle" x="545.68" y="-66" font-family="Times New Roman,serif" font-size="15.00">seq</text>
</g>
<!-- 2082701062272&#45;&#45;2082701054160 -->
<g id="edge65" class="edge">
<title>2082701062272&#45;&#45;2082701054160</title>
<path fill="none" stroke="black" d="M248.04,-107.87C308.42,-100.57 458.21,-82.46 518.71,-75.14"/>
</g>
<!-- 2082701059200 -->
<g id="node58" class="node">
<title>2082701059200</title>
<ellipse fill="none" stroke="black" cx="921.86" cy="-126" rx="27" ry="18"/>
<text text-anchor="middle" x="921.86" y="-120" font-family="Times New Roman,serif" font-size="15.00">xor</text>
</g>
<!-- 2082701054160&#45;&#45;2082701059200 -->
<g id="edge60" class="edge">
<title>2082701054160&#45;&#45;2082701059200</title>
<path fill="none" stroke="black" d="M572.4,-75.71C640.76,-85.58 826.4,-112.37 894.97,-122.26"/>
</g>
<!-- 2082701060688 -->
<g id="node64" class="node">
<title>2082701060688</title>
<ellipse fill="none" stroke="black" cx="921.86" cy="-72" rx="27" ry="18"/>
<text text-anchor="middle" x="921.86" y="-66" font-family="Times New Roman,serif" font-size="15.00">and</text>
</g>
<!-- 2082701054160&#45;&#45;2082701060688 -->
<g id="edge63" class="edge">
<title>2082701054160&#45;&#45;2082701060688</title>
<path fill="none" stroke="black" d="M572.99,-72C641.7,-72 825.91,-72 894.58,-72"/>
</g>
<!-- 2082701058960 -->
<g id="node67" class="node">
<title>2082701058960</title>
<ellipse fill="none" stroke="black" cx="921.86" cy="-18" rx="84.11" ry="18"/>
<text text-anchor="middle" x="921.86" y="-12" font-family="Times New Roman,serif" font-size="15.00">Conclude the case</text>
</g>
<!-- 2082701054160&#45;&#45;2082701058960 -->
<g id="edge64" class="edge">
<title>2082701054160&#45;&#45;2082701058960</title>
<path fill="none" stroke="black" d="M572.4,-68.29C629.2,-60.09 766.98,-40.21 851.28,-28.04"/>
</g>
<!-- 2082701053824 -->
<g id="node59" class="node">
<title>2082701053824</title>
<ellipse fill="black" stroke="black" cx="1260.17" cy="-165" rx="2.7" ry="2.7"/>
</g>
<!-- 2082701059200&#45;&#45;2082701053824 -->
<g id="edge55" class="edge">
<title>2082701059200&#45;&#45;2082701053824</title>
<path fill="none" stroke="black" d="M948.97,-129.03C1023.67,-137.69 1234.34,-162.12 1257.16,-164.77"/>
</g>
<!-- 2082701052480 -->
<g id="node60" class="node">
<title>2082701052480</title>
<ellipse fill="none" stroke="black" cx="1260.17" cy="-126" rx="27" ry="18"/>
<text text-anchor="middle" x="1260.17" y="-120" font-family="Times New Roman,serif" font-size="15.00">seq</text>
</g>
<!-- 2082701059200&#45;&#45;2082701052480 -->
<g id="edge59" class="edge">
<title>2082701059200&#45;&#45;2082701052480</title>
<path fill="none" stroke="black" d="M949.25,-126C1012.12,-126 1170.16,-126 1232.91,-126"/>
</g>
<!-- 2082701059680 -->
<g id="node61" class="node">
<title>2082701059680</title>
<ellipse fill="none" stroke="black" cx="1663.99" cy="-180" rx="200.29" ry="18"/>
<text text-anchor="middle" x="1663.99" y="-174" font-family="Times New Roman,serif" font-size="15.00">Permit not needed or only notification required</text>
</g>
<!-- 2082701052480&#45;&#45;2082701059680 -->
<g id="edge56" class="edge">
<title>2082701052480&#45;&#45;2082701059680</title>
<path fill="none" stroke="black" d="M1286.92,-129.46C1338.97,-136.46 1459.47,-152.65 1550.14,-164.83"/>
</g>
<!-- 2082701058624 -->
<g id="node62" class="node">
<title>2082701058624</title>
<ellipse fill="none" stroke="black" cx="1663.99" cy="-126" rx="248.4" ry="18"/>
<text text-anchor="middle" x="1663.99" y="-120" font-family="Times New Roman,serif" font-size="15.00">document senddate letter no permit or notification required</text>
</g>
<!-- 2082701052480&#45;&#45;2082701058624 -->
<g id="edge57" class="edge">
<title>2082701052480&#45;&#45;2082701058624</title>
<path fill="none" stroke="black" d="M1287.54,-126C1315.65,-126 1363.2,-126 1415.2,-126"/>
</g>
<!-- 2082701065056 -->
<g id="node63" class="node">
<title>2082701065056</title>
<ellipse fill="none" stroke="black" cx="1663.99" cy="-72" rx="159.85" ry="18"/>
<text text-anchor="middle" x="1663.99" y="-66" font-family="Times New Roman,serif" font-size="15.00">draft letter stating no permit required</text>
</g>
<!-- 2082701052480&#45;&#45;2082701065056 -->
<g id="edge58" class="edge">
<title>2082701052480&#45;&#45;2082701065056</title>
<path fill="none" stroke="black" d="M1286.92,-122.54C1340.7,-115.31 1467.56,-98.26 1559.09,-85.96"/>
</g>
<!-- 2082701063376 -->
<g id="node65" class="node">
<title>2082701063376</title>
<ellipse fill="none" stroke="black" cx="1260.17" cy="-72" rx="119.42" ry="18"/>
<text text-anchor="middle" x="1260.17" y="-66" font-family="Times New Roman,serif" font-size="15.00">Phase procedure cancelled</text>
</g>
<!-- 2082701060688&#45;&#45;2082701063376 -->
<g id="edge61" class="edge">
<title>2082701060688&#45;&#45;2082701063376</title>
<path fill="none" stroke="black" d="M949.25,-72C990.21,-72 1071.56,-72 1140.64,-72"/>
</g>
<!-- 2082701050848 -->
<g id="node66" class="node">
<title>2082701050848</title>
<ellipse fill="none" stroke="black" cx="1260.17" cy="-18" rx="96.39" ry="18"/>
<text text-anchor="middle" x="1260.17" y="-12" font-family="Times New Roman,serif" font-size="15.00">Register the deadline</text>
</g>
<!-- 2082701060688&#45;&#45;2082701050848 -->
<g id="edge62" class="edge">
<title>2082701060688&#45;&#45;2082701050848</title>
<path fill="none" stroke="black" d="M948.42,-67.9C998.39,-59.87 1110.71,-41.84 1185.72,-29.79"/>
</g>
</g>
</svg>
