<?xml version="1.0" encoding="UTF-8" standalone="no"?>
<!DOCTYPE svg PUBLIC "-//W3C//DTD SVG 1.1//EN"
 "http://www.w3.org/Graphics/SVG/1.1/DTD/svg11.dtd">
<!-- Generated by graphviz version 11.0.0 (20240428.1522)
 -->
<!-- Title: pt Pages: 1 -->
<svg width="1805pt" height="554pt"
 viewBox="0.00 0.00 1804.56 554.00" xmlns="http://www.w3.org/2000/svg" xmlns:xlink="http://www.w3.org/1999/xlink">
<g id="graph0" class="graph" transform="scale(1 1) rotate(0) translate(4 550)">
<title>pt</title>
<polygon fill="white" stroke="none" points="-4,4 -4,-550 1800.56,-550 1800.56,4 -4,4"/>
<!-- 2787274207648 -->
<g id="node1" class="node">
<title>2787274207648</title>
<ellipse fill="none" stroke="black" cx="27" cy="-300" rx="27" ry="18"/>
<text text-anchor="middle" x="27" y="-294" font-family="Times New Roman,serif" font-size="15.00">seq</text>
</g>
<!-- 2787274203328 -->
<g id="node2" class="node">
<title>2787274203328</title>
<ellipse fill="none" stroke="black" cx="221.19" cy="-354" rx="131.19" ry="18"/>
<text text-anchor="middle" x="221.19" y="-348" font-family="Times New Roman,serif" font-size="15.00">Enter submission date request</text>
</g>
<!-- 2787274207648&#45;&#45;2787274203328 -->
<g id="edge1" class="edge">
<title>2787274207648&#45;&#45;2787274203328</title>
<path fill="none" stroke="black" d="M52.34,-306.84C79.71,-314.53 125.14,-327.29 161.83,-337.6"/>
</g>
<!-- 2787274202848 -->
<g id="node3" class="node">
<title>2787274202848</title>
<ellipse fill="none" stroke="black" cx="221.19" cy="-300" rx="27" ry="18"/>
<text text-anchor="middle" x="221.19" y="-294" font-family="Times New Roman,serif" font-size="15.00">xor</text>
</g>
<!-- 2787274207648&#45;&#45;2787274202848 -->
<g id="edge32" class="edge">
<title>2787274207648&#45;&#45;2787274202848</title>
<path fill="none" stroke="black" d="M54.32,-300C91.02,-300 157.19,-300 193.88,-300"/>
</g>
<!-- 2787274208080 -->
<g id="node34" class="node">
<title>2787274208080</title>
<ellipse fill="none" stroke="black" cx="221.19" cy="-242" rx="27" ry="18"/>
<text text-anchor="middle" x="221.19" y="-236" font-family="Times New Roman,serif" font-size="15.00">xor</text>
</g>
<!-- 2787274207648&#45;&#45;2787274208080 -->
<g id="edge38" class="edge">
<title>2787274207648&#45;&#45;2787274208080</title>
<path fill="none" stroke="black" d="M51.95,-292.77C88.78,-281.66 158.93,-260.49 195.94,-249.32"/>
</g>
<!-- 2787274198768 -->
<g id="node4" class="node">
<title>2787274198768</title>
<ellipse fill="black" stroke="black" cx="415.39" cy="-339" rx="2.7" ry="2.7"/>
</g>
<!-- 2787274202848&#45;&#45;2787274198768 -->
<g id="edge2" class="edge">
<title>2787274202848&#45;&#45;2787274198768</title>
<path fill="none" stroke="black" d="M247.32,-305.1C295.35,-314.84 396.81,-335.43 412.37,-338.59"/>
</g>
<!-- 2787274209856 -->
<g id="node5" class="node">
<title>2787274209856</title>
<ellipse fill="none" stroke="black" cx="415.39" cy="-300" rx="27" ry="18"/>
<text text-anchor="middle" x="415.39" y="-294" font-family="Times New Roman,serif" font-size="15.00">seq</text>
</g>
<!-- 2787274202848&#45;&#45;2787274209856 -->
<g id="edge31" class="edge">
<title>2787274202848&#45;&#45;2787274209856</title>
<path fill="none" stroke="black" d="M248.51,-300C285.22,-300 351.38,-300 388.08,-300"/>
</g>
<!-- 2787274491472 -->
<g id="node6" class="node">
<title>2787274491472</title>
<ellipse fill="none" stroke="black" cx="597.81" cy="-447" rx="27" ry="18"/>
<text text-anchor="middle" x="597.81" y="-441" font-family="Times New Roman,serif" font-size="15.00">xor</text>
</g>
<!-- 2787274209856&#45;&#45;2787274491472 -->
<g id="edge8" class="edge">
<title>2787274209856&#45;&#45;2787274491472</title>
<path fill="none" stroke="black" d="M433.36,-313.83C467.75,-341.85 545.29,-405.02 579.75,-433.1"/>
</g>
<!-- 2787274497232 -->
<g id="node12" class="node">
<title>2787274497232</title>
<ellipse fill="none" stroke="black" cx="597.81" cy="-300" rx="27" ry="18"/>
<text text-anchor="middle" x="597.81" y="-294" font-family="Times New Roman,serif" font-size="15.00">and</text>
</g>
<!-- 2787274209856&#45;&#45;2787274497232 -->
<g id="edge30" class="edge">
<title>2787274209856&#45;&#45;2787274497232</title>
<path fill="none" stroke="black" d="M442.62,-300C476.83,-300 536.32,-300 570.54,-300"/>
</g>
<!-- 2787274502224 -->
<g id="node7" class="node">
<title>2787274502224</title>
<ellipse fill="black" stroke="black" cx="868.05" cy="-486" rx="2.7" ry="2.7"/>
</g>
<!-- 2787274491472&#45;&#45;2787274502224 -->
<g id="edge3" class="edge">
<title>2787274491472&#45;&#45;2787274502224</title>
<path fill="none" stroke="black" d="M624.53,-450.74C687.47,-459.89 845.55,-482.87 865.06,-485.71"/>
</g>
<!-- 2787274504624 -->
<g id="node8" class="node">
<title>2787274504624</title>
<ellipse fill="none" stroke="black" cx="868.05" cy="-447" rx="27" ry="18"/>
<text text-anchor="middle" x="868.05" y="-441" font-family="Times New Roman,serif" font-size="15.00">seq</text>
</g>
<!-- 2787274491472&#45;&#45;2787274504624 -->
<g id="edge7" class="edge">
<title>2787274491472&#45;&#45;2787274504624</title>
<path fill="none" stroke="black" d="M625.02,-447C676.3,-447 789.37,-447 840.73,-447"/>
</g>
<!-- 2787274495312 -->
<g id="node9" class="node">
<title>2787274495312</title>
<ellipse fill="none" stroke="black" cx="1201.75" cy="-528" rx="182.89" ry="18"/>
<text text-anchor="middle" x="1201.75" y="-522" font-family="Times New Roman,serif" font-size="15.00">Mandatory Environmental Report required</text>
</g>
<!-- 2787274504624&#45;&#45;2787274495312 -->
<g id="edge4" class="edge">
<title>2787274504624&#45;&#45;2787274495312</title>
<path fill="none" stroke="black" d="M893.98,-453.09C943.77,-465.25 1057.11,-492.92 1131.2,-511.02"/>
</g>
<!-- 2787274499680 -->
<g id="node10" class="node">
<title>2787274499680</title>
<ellipse fill="none" stroke="black" cx="1201.75" cy="-474" rx="129.15" ry="18"/>
<text text-anchor="middle" x="1201.75" y="-468" font-family="Times New Roman,serif" font-size="15.00">Regular procedural activities</text>
</g>
<!-- 2787274504624&#45;&#45;2787274499680 -->
<g id="edge5" class="edge">
<title>2787274504624&#45;&#45;2787274499680</title>
<path fill="none" stroke="black" d="M895.35,-449.14C936.88,-452.52 1020,-459.29 1089.06,-464.91"/>
</g>
<!-- 2787274504384 -->
<g id="node11" class="node">
<title>2787274504384</title>
<ellipse fill="none" stroke="black" cx="1201.75" cy="-420" rx="87.69" ry="18"/>
<text text-anchor="middle" x="1201.75" y="-414" font-family="Times New Roman,serif" font-size="15.00">Phased application</text>
</g>
<!-- 2787274504624&#45;&#45;2787274504384 -->
<g id="edge6" class="edge">
<title>2787274504624&#45;&#45;2787274504384</title>
<path fill="none" stroke="black" d="M895.35,-444.86C943.24,-440.96 1046.44,-432.56 1119.59,-426.61"/>
</g>
<!-- 2787274493392 -->
<g id="node13" class="node">
<title>2787274493392</title>
<ellipse fill="none" stroke="black" cx="868.05" cy="-354" rx="45.21" ry="18"/>
<text text-anchor="middle" x="868.05" y="-348" font-family="Times New Roman,serif" font-size="15.00">xor loop</text>
</g>
<!-- 2787274497232&#45;&#45;2787274493392 -->
<g id="edge11" class="edge">
<title>2787274497232&#45;&#45;2787274493392</title>
<path fill="none" stroke="black" d="M624.04,-305.08C670.73,-314.48 770.94,-334.65 826.99,-345.94"/>
</g>
<!-- 2787274495936 -->
<g id="node16" class="node">
<title>2787274495936</title>
<ellipse fill="none" stroke="black" cx="868.05" cy="-300" rx="114.82" ry="18"/>
<text text-anchor="middle" x="868.05" y="-294" font-family="Times New Roman,serif" font-size="15.00">Step application received</text>
</g>
<!-- 2787274497232&#45;&#45;2787274495936 -->
<g id="edge12" class="edge">
<title>2787274497232&#45;&#45;2787274495936</title>
<path fill="none" stroke="black" d="M625.02,-300C654.81,-300 705.46,-300 752.75,-300"/>
</g>
<!-- 2787274503952 -->
<g id="node17" class="node">
<title>2787274503952</title>
<ellipse fill="none" stroke="black" cx="868.05" cy="-246" rx="98.44" ry="18"/>
<text text-anchor="middle" x="868.05" y="-240" font-family="Times New Roman,serif" font-size="15.00">OLO messages active</text>
</g>
<!-- 2787274497232&#45;&#45;2787274503952 -->
<g id="edge13" class="edge">
<title>2787274497232&#45;&#45;2787274503952</title>
<path fill="none" stroke="black" d="M624.04,-294.92C664.02,-286.87 743.21,-270.93 800.35,-259.43"/>
</g>
<!-- 2787274492672 -->
<g id="node18" class="node">
<title>2787274492672</title>
<ellipse fill="none" stroke="black" cx="868.05" cy="-180" rx="27" ry="18"/>
<text text-anchor="middle" x="868.05" y="-174" font-family="Times New Roman,serif" font-size="15.00">seq</text>
</g>
<!-- 2787274497232&#45;&#45;2787274492672 -->
<g id="edge29" class="edge">
<title>2787274497232&#45;&#45;2787274492672</title>
<path fill="none" stroke="black" d="M620.76,-290.18C671.18,-267.62 794.81,-212.31 845.17,-189.79"/>
</g>
<!-- 2787274493872 -->
<g id="node14" class="node">
<title>2787274493872</title>
<ellipse fill="none" stroke="black" cx="1201.75" cy="-366" rx="131.19" ry="18"/>
<text text-anchor="middle" x="1201.75" y="-360" font-family="Times New Roman,serif" font-size="15.00">Transmit confirmation receipt</text>
</g>
<!-- 2787274493392&#45;&#45;2787274493872 -->
<g id="edge9" class="edge">
<title>2787274493392&#45;&#45;2787274493872</title>
<path fill="none" stroke="black" d="M913.44,-355.61C954.57,-357.09 1017.77,-359.38 1074.43,-361.43"/>
</g>
<!-- 2787274502896 -->
<g id="node15" class="node">
<title>2787274502896</title>
<ellipse fill="black" stroke="black" cx="1201.75" cy="-327" rx="2.7" ry="2.7"/>
</g>
<!-- 2787274493392&#45;&#45;2787274502896 -->
<g id="edge10" class="edge">
<title>2787274493392&#45;&#45;2787274502896</title>
<path fill="none" stroke="black" d="M912.75,-350.44C997.9,-343.51 1179.42,-328.74 1199.02,-327.14"/>
</g>
<!-- 2787274494256 -->
<g id="node19" class="node">
<title>2787274494256</title>
<ellipse fill="none" stroke="black" cx="1201.75" cy="-288" rx="27" ry="18"/>
<text text-anchor="middle" x="1201.75" y="-282" font-family="Times New Roman,serif" font-size="15.00">xor</text>
</g>
<!-- 2787274492672&#45;&#45;2787274494256 -->
<g id="edge19" class="edge">
<title>2787274492672&#45;&#45;2787274494256</title>
<path fill="none" stroke="black" d="M892.9,-187.77C954.1,-207.69 1116.15,-260.45 1177.11,-280.3"/>
</g>
<!-- 2787274499872 -->
<g id="node25" class="node">
<title>2787274499872</title>
<ellipse fill="none" stroke="black" cx="1201.75" cy="-234" rx="139.38" ry="18"/>
<text text-anchor="middle" x="1201.75" y="-228" font-family="Times New Roman,serif" font-size="15.00">Refer to the competent authority</text>
</g>
<!-- 2787274492672&#45;&#45;2787274499872 -->
<g id="edge20" class="edge">
<title>2787274492672&#45;&#45;2787274499872</title>
<path fill="none" stroke="black" d="M894.8,-184.19C941.07,-191.73 1040.26,-207.87 1113.2,-219.75"/>
</g>
<!-- 2787274505104 -->
<g id="node26" class="node">
<title>2787274505104</title>
<ellipse fill="none" stroke="black" cx="1201.75" cy="-180" rx="147.57" ry="18"/>
<text text-anchor="middle" x="1201.75" y="-174" font-family="Times New Roman,serif" font-size="15.00">Ordinary procedure without MER</text>
</g>
<!-- 2787274492672&#45;&#45;2787274505104 -->
<g id="edge21" class="edge">
<title>2787274492672&#45;&#45;2787274505104</title>
<path fill="none" stroke="black" d="M895.35,-180C929.98,-180 993.54,-180 1053.75,-180"/>
</g>
<!-- 2787274506016 -->
<g id="node27" class="node">
<title>2787274506016</title>
<ellipse fill="none" stroke="black" cx="1201.75" cy="-126" rx="141.43" ry="18"/>
<text text-anchor="middle" x="1201.75" y="-120" font-family="Times New Roman,serif" font-size="15.00">Produce procedure confirmation</text>
</g>
<!-- 2787274492672&#45;&#45;2787274506016 -->
<g id="edge22" class="edge">
<title>2787274492672&#45;&#45;2787274506016</title>
<path fill="none" stroke="black" d="M894.8,-175.81C940.92,-168.3 1039.6,-152.23 1112.48,-140.37"/>
</g>
<!-- 2787274499296 -->
<g id="node28" class="node">
<title>2787274499296</title>
<ellipse fill="none" stroke="black" cx="1201.75" cy="-72" rx="27" ry="18"/>
<text text-anchor="middle" x="1201.75" y="-66" font-family="Times New Roman,serif" font-size="15.00">xor</text>
</g>
<!-- 2787274492672&#45;&#45;2787274499296 -->
<g id="edge27" class="edge">
<title>2787274492672&#45;&#45;2787274499296</title>
<path fill="none" stroke="black" d="M892.9,-172.23C954.1,-152.31 1116.15,-99.55 1177.11,-79.7"/>
</g>
<!-- 2787274494784 -->
<g id="node33" class="node">
<title>2787274494784</title>
<ellipse fill="none" stroke="black" cx="1201.75" cy="-18" rx="129.15" ry="18"/>
<text text-anchor="middle" x="1201.75" y="-12" font-family="Times New Roman,serif" font-size="15.00">Commence WABOprocedure</text>
</g>
<!-- 2787274492672&#45;&#45;2787274494784 -->
<g id="edge28" class="edge">
<title>2787274492672&#45;&#45;2787274494784</title>
<path fill="none" stroke="black" d="M890.55,-169.5C946.18,-142.33 1095.29,-69.51 1164.51,-35.7"/>
</g>
<!-- 2787274491088 -->
<g id="node20" class="node">
<title>2787274491088</title>
<ellipse fill="black" stroke="black" cx="1447.63" cy="-307" rx="2.7" ry="2.7"/>
</g>
<!-- 2787274494256&#45;&#45;2787274491088 -->
<g id="edge14" class="edge">
<title>2787274494256&#45;&#45;2787274491088</title>
<path fill="none" stroke="black" d="M1228.85,-290.03C1287.59,-294.61 1426.47,-305.43 1444.66,-306.85"/>
</g>
<!-- 2787274501744 -->
<g id="node21" class="node">
<title>2787274501744</title>
<ellipse fill="none" stroke="black" cx="1447.63" cy="-268" rx="27" ry="18"/>
<text text-anchor="middle" x="1447.63" y="-262" font-family="Times New Roman,serif" font-size="15.00">seq</text>
</g>
<!-- 2787274494256&#45;&#45;2787274501744 -->
<g id="edge18" class="edge">
<title>2787274494256&#45;&#45;2787274501744</title>
<path fill="none" stroke="black" d="M1228.85,-285.86C1275.67,-282.02 1373.4,-274.01 1420.35,-270.16"/>
</g>
<!-- 2787274503856 -->
<g id="node22" class="node">
<title>2787274503856</title>
<ellipse fill="none" stroke="black" cx="1653.6" cy="-322" rx="142.97" ry="18"/>
<text text-anchor="middle" x="1653.6" y="-316" font-family="Times New Roman,serif" font-size="15.00">Applicant plays stakeholder role</text>
</g>
<!-- 2787274501744&#45;&#45;2787274503856 -->
<g id="edge15" class="edge">
<title>2787274501744&#45;&#45;2787274503856</title>
<path fill="none" stroke="black" d="M1473.24,-274.51C1502.06,-282.14 1550.88,-295.07 1590.31,-305.51"/>
</g>
<!-- 2787274495504 -->
<g id="node23" class="node">
<title>2787274495504</title>
<ellipse fill="none" stroke="black" cx="1653.6" cy="-268" rx="73.36" ry="18"/>
<text text-anchor="middle" x="1653.6" y="-262" font-family="Times New Roman,serif" font-size="15.00">Stop on request</text>
</g>
<!-- 2787274501744&#45;&#45;2787274495504 -->
<g id="edge16" class="edge">
<title>2787274501744&#45;&#45;2787274495504</title>
<path fill="none" stroke="black" d="M1474.88,-268C1501.35,-268 1543.41,-268 1579.97,-268"/>
</g>
<!-- 2787274505680 -->
<g id="node24" class="node">
<title>2787274505680</title>
<ellipse fill="none" stroke="black" cx="1653.6" cy="-214" rx="128.63" ry="18"/>
<text text-anchor="middle" x="1653.6" y="-208" font-family="Times New Roman,serif" font-size="15.00">Evaluate provisional charges</text>
</g>
<!-- 2787274501744&#45;&#45;2787274505680 -->
<g id="edge17" class="edge">
<title>2787274501744&#45;&#45;2787274505680</title>
<path fill="none" stroke="black" d="M1473.24,-261.49C1502.37,-253.77 1551.96,-240.65 1591.61,-230.15"/>
</g>
<!-- 2787274497424 -->
<g id="node29" class="node">
<title>2787274497424</title>
<ellipse fill="black" stroke="black" cx="1447.63" cy="-91" rx="2.7" ry="2.7"/>
</g>
<!-- 2787274499296&#45;&#45;2787274497424 -->
<g id="edge23" class="edge">
<title>2787274499296&#45;&#45;2787274497424</title>
<path fill="none" stroke="black" d="M1228.85,-74.03C1287.59,-78.61 1426.47,-89.43 1444.66,-90.85"/>
</g>
<!-- 2787274501984 -->
<g id="node30" class="node">
<title>2787274501984</title>
<ellipse fill="none" stroke="black" cx="1447.63" cy="-52" rx="27" ry="18"/>
<text text-anchor="middle" x="1447.63" y="-46" font-family="Times New Roman,serif" font-size="15.00">seq</text>
</g>
<!-- 2787274499296&#45;&#45;2787274501984 -->
<g id="edge26" class="edge">
<title>2787274499296&#45;&#45;2787274501984</title>
<path fill="none" stroke="black" d="M1228.85,-69.86C1275.67,-66.02 1373.4,-58.01 1420.35,-54.16"/>
</g>
<!-- 2787274496032 -->
<g id="node31" class="node">
<title>2787274496032</title>
<ellipse fill="none" stroke="black" cx="1653.6" cy="-79" rx="51.86" ry="18"/>
<text text-anchor="middle" x="1653.6" y="-73" font-family="Times New Roman,serif" font-size="15.00">Broadcast</text>
</g>
<!-- 2787274501984&#45;&#45;2787274496032 -->
<g id="edge24" class="edge">
<title>2787274501984&#45;&#45;2787274496032</title>
<path fill="none" stroke="black" d="M1474.47,-55.42C1507.16,-59.75 1564.12,-67.29 1604.82,-72.68"/>
</g>
<!-- 2787274499584 -->
<g id="node32" class="node">
<title>2787274499584</title>
<ellipse fill="none" stroke="black" cx="1653.6" cy="-25" rx="121.47" ry="18"/>
<text text-anchor="middle" x="1653.6" y="-19" font-family="Times New Roman,serif" font-size="15.00">Form publication document</text>
</g>
<!-- 2787274501984&#45;&#45;2787274499584 -->
<g id="edge25" class="edge">
<title>2787274501984&#45;&#45;2787274499584</title>
<path fill="none" stroke="black" d="M1474.47,-48.58C1496.55,-45.66 1529.7,-41.27 1561.43,-37.07"/>
</g>
<!-- 2787274204000 -->
<g id="node35" class="node">
<title>2787274204000</title>
<ellipse fill="black" stroke="black" cx="415.39" cy="-242" rx="2.7" ry="2.7"/>
</g>
<!-- 2787274208080&#45;&#45;2787274204000 -->
<g id="edge33" class="edge">
<title>2787274208080&#45;&#45;2787274204000</title>
<path fill="none" stroke="black" d="M248.51,-242C297.04,-242 397.06,-242 412.4,-242"/>
</g>
<!-- 2787274200784 -->
<g id="node36" class="node">
<title>2787274200784</title>
<ellipse fill="none" stroke="black" cx="415.39" cy="-199" rx="27" ry="18"/>
<text text-anchor="middle" x="415.39" y="-193" font-family="Times New Roman,serif" font-size="15.00">seq</text>
</g>
<!-- 2787274208080&#45;&#45;2787274200784 -->
<g id="edge37" class="edge">
<title>2787274208080&#45;&#45;2787274200784</title>
<path fill="none" stroke="black" d="M247.32,-236.38C284.15,-228.14 352.42,-212.86 389.25,-204.62"/>
</g>
<!-- 2787274503808 -->
<g id="node37" class="node">
<title>2787274503808</title>
<ellipse fill="none" stroke="black" cx="597.81" cy="-246" rx="119.42" ry="18"/>
<text text-anchor="middle" x="597.81" y="-240" font-family="Times New Roman,serif" font-size="15.00">Phase procedure cancelled</text>
</g>
<!-- 2787274200784&#45;&#45;2787274503808 -->
<g id="edge34" class="edge">
<title>2787274200784&#45;&#45;2787274503808</title>
<path fill="none" stroke="black" d="M441.1,-205.44C465.51,-211.8 503.82,-221.78 536.33,-230.24"/>
</g>
<!-- 2787274502848 -->
<g id="node38" class="node">
<title>2787274502848</title>
<ellipse fill="none" stroke="black" cx="597.81" cy="-192" rx="96.39" ry="18"/>
<text text-anchor="middle" x="597.81" y="-186" font-family="Times New Roman,serif" font-size="15.00">Register the deadline</text>
</g>
<!-- 2787274200784&#45;&#45;2787274502848 -->
<g id="edge35" class="edge">
<title>2787274200784&#45;&#45;2787274502848</title>
<path fill="none" stroke="black" d="M442.62,-197.98C458.85,-197.35 480.76,-196.5 502.96,-195.64"/>
</g>
<!-- 2787274503664 -->
<g id="node39" class="node">
<title>2787274503664</title>
<ellipse fill="none" stroke="black" cx="597.81" cy="-138" rx="84.11" ry="18"/>
<text text-anchor="middle" x="597.81" y="-132" font-family="Times New Roman,serif" font-size="15.00">Conclude the case</text>
</g>
<!-- 2787274200784&#45;&#45;2787274503664 -->
<g id="edge36" class="edge">
<title>2787274200784&#45;&#45;2787274503664</title>
<path fill="none" stroke="black" d="M439.97,-191.03C468.15,-181.5 515.92,-165.35 551.36,-153.37"/>
</g>
</g>
</svg>
