<?xml version="1.0" encoding="UTF-8" standalone="no"?>
<!DOCTYPE svg PUBLIC "-//W3C//DTD SVG 1.1//EN"
 "http://www.w3.org/Graphics/SVG/1.1/DTD/svg11.dtd">
<!-- Generated by graphviz version 11.0.0 (20240428.1522)
 -->
<!-- Title: pt Pages: 1 -->
<svg width="1686pt" height="793pt"
 viewBox="0.00 0.00 1685.90 793.00" xmlns="http://www.w3.org/2000/svg" xmlns:xlink="http://www.w3.org/1999/xlink">
<g id="graph0" class="graph" transform="scale(1 1) rotate(0) translate(4 789)">
<title>pt</title>
<polygon fill="white" stroke="none" points="-4,4 -4,-789 1681.9,-789 1681.9,4 -4,4"/>
<!-- 2787274201072 -->
<g id="node1" class="node">
<title>2787274201072</title>
<ellipse fill="none" stroke="black" cx="27" cy="-443" rx="27" ry="18"/>
<text text-anchor="middle" x="27" y="-437" font-family="Times New Roman,serif" font-size="15.00">seq</text>
</g>
<!-- 2787274208128 -->
<g id="node2" class="node">
<title>2787274208128</title>
<ellipse fill="none" stroke="black" cx="221.19" cy="-497" rx="131.19" ry="18"/>
<text text-anchor="middle" x="221.19" y="-491" font-family="Times New Roman,serif" font-size="15.00">Enter submission date request</text>
</g>
<!-- 2787274201072&#45;&#45;2787274208128 -->
<g id="edge1" class="edge">
<title>2787274201072&#45;&#45;2787274208128</title>
<path fill="none" stroke="black" d="M52.34,-449.84C79.71,-457.53 125.14,-470.29 161.83,-480.6"/>
</g>
<!-- 2787274195696 -->
<g id="node3" class="node">
<title>2787274195696</title>
<ellipse fill="none" stroke="black" cx="221.19" cy="-443" rx="27" ry="18"/>
<text text-anchor="middle" x="221.19" y="-437" font-family="Times New Roman,serif" font-size="15.00">xor</text>
</g>
<!-- 2787274201072&#45;&#45;2787274195696 -->
<g id="edge31" class="edge">
<title>2787274201072&#45;&#45;2787274195696</title>
<path fill="none" stroke="black" d="M54.32,-443C91.02,-443 157.19,-443 193.88,-443"/>
</g>
<!-- 2787274200928 -->
<g id="node33" class="node">
<title>2787274200928</title>
<ellipse fill="none" stroke="black" cx="221.19" cy="-300" rx="27" ry="18"/>
<text text-anchor="middle" x="221.19" y="-294" font-family="Times New Roman,serif" font-size="15.00">xor</text>
</g>
<!-- 2787274201072&#45;&#45;2787274200928 -->
<g id="edge37" class="edge">
<title>2787274201072&#45;&#45;2787274200928</title>
<path fill="none" stroke="black" d="M45.74,-429.8C82.26,-402.63 165.5,-340.7 202.22,-313.37"/>
</g>
<!-- 2787274203712 -->
<g id="node4" class="node">
<title>2787274203712</title>
<ellipse fill="black" stroke="black" cx="415.39" cy="-482" rx="2.7" ry="2.7"/>
</g>
<!-- 2787274195696&#45;&#45;2787274203712 -->
<g id="edge2" class="edge">
<title>2787274195696&#45;&#45;2787274203712</title>
<path fill="none" stroke="black" d="M247.32,-448.1C295.35,-457.84 396.81,-478.43 412.37,-481.59"/>
</g>
<!-- 2787274209040 -->
<g id="node5" class="node">
<title>2787274209040</title>
<ellipse fill="none" stroke="black" cx="415.39" cy="-443" rx="27" ry="18"/>
<text text-anchor="middle" x="415.39" y="-437" font-family="Times New Roman,serif" font-size="15.00">seq</text>
</g>
<!-- 2787274195696&#45;&#45;2787274209040 -->
<g id="edge30" class="edge">
<title>2787274195696&#45;&#45;2787274209040</title>
<path fill="none" stroke="black" d="M248.51,-443C285.22,-443 351.38,-443 388.08,-443"/>
</g>
<!-- 2787274200112 -->
<g id="node6" class="node">
<title>2787274200112</title>
<ellipse fill="none" stroke="black" cx="654.62" cy="-659" rx="27" ry="18"/>
<text text-anchor="middle" x="654.62" y="-653" font-family="Times New Roman,serif" font-size="15.00">xor</text>
</g>
<!-- 2787274209040&#45;&#45;2787274200112 -->
<g id="edge10" class="edge">
<title>2787274209040&#45;&#45;2787274200112</title>
<path fill="none" stroke="black" d="M432.32,-457.51C475.54,-496.86 594.62,-605.28 637.76,-644.56"/>
</g>
<!-- 2787274207504 -->
<g id="node14" class="node">
<title>2787274207504</title>
<ellipse fill="none" stroke="black" cx="654.62" cy="-605" rx="98.44" ry="18"/>
<text text-anchor="middle" x="654.62" y="-599" font-family="Times New Roman,serif" font-size="15.00">OLO messages active</text>
</g>
<!-- 2787274209040&#45;&#45;2787274207504 -->
<g id="edge11" class="edge">
<title>2787274209040&#45;&#45;2787274207504</title>
<path fill="none" stroke="black" d="M435,-455.71C477.06,-484.43 579.48,-554.37 627.7,-587.3"/>
</g>
<!-- 2787274197568 -->
<g id="node15" class="node">
<title>2787274197568</title>
<ellipse fill="none" stroke="black" cx="654.62" cy="-551" rx="112.26" ry="18"/>
<text text-anchor="middle" x="654.62" y="-545" font-family="Times New Roman,serif" font-size="15.00">Register publication date</text>
</g>
<!-- 2787274209040&#45;&#45;2787274197568 -->
<g id="edge12" class="edge">
<title>2787274209040&#45;&#45;2787274197568</title>
<path fill="none" stroke="black" d="M438.28,-452.97C478.77,-471.4 565.79,-511.02 615.93,-533.84"/>
</g>
<!-- 2787274209856 -->
<g id="node16" class="node">
<title>2787274209856</title>
<ellipse fill="none" stroke="black" cx="654.62" cy="-497" rx="114.82" ry="18"/>
<text text-anchor="middle" x="654.62" y="-491" font-family="Times New Roman,serif" font-size="15.00">Step application received</text>
</g>
<!-- 2787274209040&#45;&#45;2787274209856 -->
<g id="edge13" class="edge">
<title>2787274209040&#45;&#45;2787274209856</title>
<path fill="none" stroke="black" d="M441.33,-448.68C475.77,-456.52 539.13,-470.94 587.7,-482"/>
</g>
<!-- 2787274204672 -->
<g id="node17" class="node">
<title>2787274204672</title>
<ellipse fill="none" stroke="black" cx="654.62" cy="-443" rx="176.23" ry="18"/>
<text text-anchor="middle" x="654.62" y="-437" font-family="Times New Roman,serif" font-size="15.00">Log date termination request documented</text>
</g>
<!-- 2787274209040&#45;&#45;2787274204672 -->
<g id="edge14" class="edge">
<title>2787274209040&#45;&#45;2787274204672</title>
<path fill="none" stroke="black" d="M442.68,-443C452.57,-443 464.71,-443 478.11,-443"/>
</g>
<!-- 2787274196752 -->
<g id="node18" class="node">
<title>2787274196752</title>
<ellipse fill="none" stroke="black" cx="654.62" cy="-389" rx="143.99" ry="18"/>
<text text-anchor="middle" x="654.62" y="-383" font-family="Times New Roman,serif" font-size="15.00">Log termination request senddate</text>
</g>
<!-- 2787274209040&#45;&#45;2787274196752 -->
<g id="edge15" class="edge">
<title>2787274209040&#45;&#45;2787274196752</title>
<path fill="none" stroke="black" d="M441.33,-437.32C474.7,-429.73 535.22,-415.95 583.13,-405.05"/>
</g>
<!-- 2787274203040 -->
<g id="node19" class="node">
<title>2787274203040</title>
<ellipse fill="none" stroke="black" cx="654.62" cy="-335" rx="110.72" ry="18"/>
<text text-anchor="middle" x="654.62" y="-329" font-family="Times New Roman,serif" font-size="15.00">Terminate request notice</text>
</g>
<!-- 2787274209040&#45;&#45;2787274203040 -->
<g id="edge16" class="edge">
<title>2787274209040&#45;&#45;2787274203040</title>
<path fill="none" stroke="black" d="M438.28,-433.03C478.77,-414.6 565.79,-374.98 615.93,-352.16"/>
</g>
<!-- 2787274204000 -->
<g id="node20" class="node">
<title>2787274204000</title>
<ellipse fill="none" stroke="black" cx="654.62" cy="-281" rx="27" ry="18"/>
<text text-anchor="middle" x="654.62" y="-275" font-family="Times New Roman,serif" font-size="15.00">and</text>
</g>
<!-- 2787274209040&#45;&#45;2787274204000 -->
<g id="edge29" class="edge">
<title>2787274209040&#45;&#45;2787274204000</title>
<path fill="none" stroke="black" d="M435,-430.29C479.35,-400 590.83,-323.88 635.09,-293.65"/>
</g>
<!-- 2787274200736 -->
<g id="node7" class="node">
<title>2787274200736</title>
<ellipse fill="none" stroke="black" cx="912.06" cy="-713" rx="27" ry="18"/>
<text text-anchor="middle" x="912.06" y="-707" font-family="Times New Roman,serif" font-size="15.00">seq</text>
</g>
<!-- 2787274200112&#45;&#45;2787274200736 -->
<g id="edge5" class="edge">
<title>2787274200112&#45;&#45;2787274200736</title>
<path fill="none" stroke="black" d="M680.58,-664.28C729.41,-674.6 837.09,-697.36 886,-707.7"/>
</g>
<!-- 2787274198336 -->
<g id="node10" class="node">
<title>2787274198336</title>
<ellipse fill="none" stroke="black" cx="912.06" cy="-632" rx="27" ry="18"/>
<text text-anchor="middle" x="912.06" y="-626" font-family="Times New Roman,serif" font-size="15.00">seq</text>
</g>
<!-- 2787274200112&#45;&#45;2787274198336 -->
<g id="edge9" class="edge">
<title>2787274200112&#45;&#45;2787274198336</title>
<path fill="none" stroke="black" d="M681.52,-656.26C730.48,-651.09 836.08,-639.93 885.09,-634.74"/>
</g>
<!-- 2787274208416 -->
<g id="node8" class="node">
<title>2787274208416</title>
<ellipse fill="none" stroke="black" cx="1176.16" cy="-767" rx="51.86" ry="18"/>
<text text-anchor="middle" x="1176.16" y="-761" font-family="Times New Roman,serif" font-size="15.00">Broadcast</text>
</g>
<!-- 2787274200736&#45;&#45;2787274208416 -->
<g id="edge3" class="edge">
<title>2787274200736&#45;&#45;2787274208416</title>
<path fill="none" stroke="black" d="M938.19,-718.18C982.65,-727.34 1075.69,-746.51 1131.04,-757.91"/>
</g>
<!-- 2787274206784 -->
<g id="node9" class="node">
<title>2787274206784</title>
<ellipse fill="none" stroke="black" cx="1176.16" cy="-713" rx="121.47" ry="18"/>
<text text-anchor="middle" x="1176.16" y="-707" font-family="Times New Roman,serif" font-size="15.00">Form publication document</text>
</g>
<!-- 2787274200736&#45;&#45;2787274206784 -->
<g id="edge4" class="edge">
<title>2787274200736&#45;&#45;2787274206784</title>
<path fill="none" stroke="black" d="M939.15,-713C966.41,-713 1011.14,-713 1054.38,-713"/>
</g>
<!-- 2787274208704 -->
<g id="node11" class="node">
<title>2787274208704</title>
<ellipse fill="none" stroke="black" cx="1176.16" cy="-659" rx="182.89" ry="18"/>
<text text-anchor="middle" x="1176.16" y="-653" font-family="Times New Roman,serif" font-size="15.00">Mandatory Environmental Report required</text>
</g>
<!-- 2787274198336&#45;&#45;2787274208704 -->
<g id="edge6" class="edge">
<title>2787274198336&#45;&#45;2787274208704</title>
<path fill="none" stroke="black" d="M939.15,-634.69C964.98,-637.35 1006.52,-641.63 1047.59,-645.86"/>
</g>
<!-- 2787274209760 -->
<g id="node12" class="node">
<title>2787274209760</title>
<ellipse fill="none" stroke="black" cx="1176.16" cy="-605" rx="129.15" ry="18"/>
<text text-anchor="middle" x="1176.16" y="-599" font-family="Times New Roman,serif" font-size="15.00">Regular procedural activities</text>
</g>
<!-- 2787274198336&#45;&#45;2787274209760 -->
<g id="edge7" class="edge">
<title>2787274198336&#45;&#45;2787274209760</title>
<path fill="none" stroke="black" d="M939.15,-629.31C969.9,-626.14 1022.91,-620.68 1070.9,-615.74"/>
</g>
<!-- 2787274205632 -->
<g id="node13" class="node">
<title>2787274205632</title>
<ellipse fill="none" stroke="black" cx="1176.16" cy="-551" rx="87.69" ry="18"/>
<text text-anchor="middle" x="1176.16" y="-545" font-family="Times New Roman,serif" font-size="15.00">Phased application</text>
</g>
<!-- 2787274198336&#45;&#45;2787274205632 -->
<g id="edge8" class="edge">
<title>2787274198336&#45;&#45;2787274205632</title>
<path fill="none" stroke="black" d="M936.78,-624.67C979.37,-611.51 1069.62,-583.62 1126.03,-566.18"/>
</g>
<!-- 2787274199824 -->
<g id="node21" class="node">
<title>2787274199824</title>
<ellipse fill="none" stroke="black" cx="912.06" cy="-354" rx="45.21" ry="18"/>
<text text-anchor="middle" x="912.06" y="-348" font-family="Times New Roman,serif" font-size="15.00">xor loop</text>
</g>
<!-- 2787274204000&#45;&#45;2787274199824 -->
<g id="edge19" class="edge">
<title>2787274204000&#45;&#45;2787274199824</title>
<path fill="none" stroke="black" d="M679.65,-287.87C724.61,-300.72 821.68,-328.46 874.69,-343.61"/>
</g>
<!-- 2787274209616 -->
<g id="node24" class="node">
<title>2787274209616</title>
<ellipse fill="none" stroke="black" cx="912.06" cy="-207" rx="27" ry="18"/>
<text text-anchor="middle" x="912.06" y="-201" font-family="Times New Roman,serif" font-size="15.00">seq</text>
</g>
<!-- 2787274204000&#45;&#45;2787274209616 -->
<g id="edge28" class="edge">
<title>2787274204000&#45;&#45;2787274209616</title>
<path fill="none" stroke="black" d="M679.65,-274.04C728.34,-259.93 838.12,-228.13 886.91,-214"/>
</g>
<!-- 2787274200352 -->
<g id="node22" class="node">
<title>2787274200352</title>
<ellipse fill="none" stroke="black" cx="1176.16" cy="-393" rx="131.19" ry="18"/>
<text text-anchor="middle" x="1176.16" y="-387" font-family="Times New Roman,serif" font-size="15.00">Transmit confirmation receipt</text>
</g>
<!-- 2787274199824&#45;&#45;2787274200352 -->
<g id="edge17" class="edge">
<title>2787274199824&#45;&#45;2787274200352</title>
<path fill="none" stroke="black" d="M954.88,-360.22C989.93,-365.44 1041.19,-373.07 1085.45,-379.65"/>
</g>
<!-- 2787274202608 -->
<g id="node23" class="node">
<title>2787274202608</title>
<ellipse fill="black" stroke="black" cx="1176.16" cy="-354" rx="2.7" ry="2.7"/>
</g>
<!-- 2787274199824&#45;&#45;2787274202608 -->
<g id="edge18" class="edge">
<title>2787274199824&#45;&#45;2787274202608</title>
<path fill="none" stroke="black" d="M957.52,-354C1027.04,-354 1155.4,-354 1173.11,-354"/>
</g>
<!-- 2787274201216 -->
<g id="node25" class="node">
<title>2787274201216</title>
<ellipse fill="none" stroke="black" cx="1176.16" cy="-315" rx="142.97" ry="18"/>
<text text-anchor="middle" x="1176.16" y="-309" font-family="Times New Roman,serif" font-size="15.00">Applicant plays stakeholder role</text>
</g>
<!-- 2787274209616&#45;&#45;2787274201216 -->
<g id="edge20" class="edge">
<title>2787274209616&#45;&#45;2787274201216</title>
<path fill="none" stroke="black" d="M935.41,-216.21C979.11,-234.21 1076.51,-274.35 1132.8,-297.54"/>
</g>
<!-- 2787274200400 -->
<g id="node26" class="node">
<title>2787274200400</title>
<ellipse fill="none" stroke="black" cx="1176.16" cy="-261" rx="73.36" ry="18"/>
<text text-anchor="middle" x="1176.16" y="-255" font-family="Times New Roman,serif" font-size="15.00">Stop on request</text>
</g>
<!-- 2787274209616&#45;&#45;2787274200400 -->
<g id="edge21" class="edge">
<title>2787274209616&#45;&#45;2787274200400</title>
<path fill="none" stroke="black" d="M938.19,-212.18C979.51,-220.69 1062.8,-237.85 1118.78,-249.39"/>
</g>
<!-- 2787274197280 -->
<g id="node27" class="node">
<title>2787274197280</title>
<ellipse fill="none" stroke="black" cx="1176.16" cy="-207" rx="128.63" ry="18"/>
<text text-anchor="middle" x="1176.16" y="-201" font-family="Times New Roman,serif" font-size="15.00">Evaluate provisional charges</text>
</g>
<!-- 2787274209616&#45;&#45;2787274197280 -->
<g id="edge22" class="edge">
<title>2787274209616&#45;&#45;2787274197280</title>
<path fill="none" stroke="black" d="M939.15,-207C964.92,-207 1006.31,-207 1047.28,-207"/>
</g>
<!-- 2787274201936 -->
<g id="node28" class="node">
<title>2787274201936</title>
<ellipse fill="none" stroke="black" cx="1176.16" cy="-153" rx="139.38" ry="18"/>
<text text-anchor="middle" x="1176.16" y="-147" font-family="Times New Roman,serif" font-size="15.00">Refer to the competent authority</text>
</g>
<!-- 2787274209616&#45;&#45;2787274201936 -->
<g id="edge23" class="edge">
<title>2787274209616&#45;&#45;2787274201936</title>
<path fill="none" stroke="black" d="M938.19,-201.82C975.09,-194.22 1045.46,-179.72 1099.96,-168.49"/>
</g>
<!-- 2787272998304 -->
<g id="node29" class="node">
<title>2787272998304</title>
<ellipse fill="none" stroke="black" cx="1176.16" cy="-99" rx="147.57" ry="18"/>
<text text-anchor="middle" x="1176.16" y="-93" font-family="Times New Roman,serif" font-size="15.00">Ordinary procedure without MER</text>
</g>
<!-- 2787274209616&#45;&#45;2787272998304 -->
<g id="edge24" class="edge">
<title>2787274209616&#45;&#45;2787272998304</title>
<path fill="none" stroke="black" d="M935.41,-197.79C978.98,-179.84 1075.96,-139.88 1132.32,-116.65"/>
</g>
<!-- 2787272988752 -->
<g id="node30" class="node">
<title>2787272988752</title>
<ellipse fill="none" stroke="black" cx="1176.16" cy="-45" rx="27" ry="18"/>
<text text-anchor="middle" x="1176.16" y="-39" font-family="Times New Roman,serif" font-size="15.00">and</text>
</g>
<!-- 2787274209616&#45;&#45;2787272988752 -->
<g id="edge27" class="edge">
<title>2787274209616&#45;&#45;2787272988752</title>
<path fill="none" stroke="black" d="M932.76,-194.82C981.45,-164.73 1107.03,-87.11 1155.59,-57.1"/>
</g>
<!-- 2787272994512 -->
<g id="node31" class="node">
<title>2787272994512</title>
<ellipse fill="none" stroke="black" cx="1536.47" cy="-72" rx="141.43" ry="18"/>
<text text-anchor="middle" x="1536.47" y="-66" font-family="Times New Roman,serif" font-size="15.00">Produce procedure confirmation</text>
</g>
<!-- 2787272988752&#45;&#45;2787272994512 -->
<g id="edge25" class="edge">
<title>2787272988752&#45;&#45;2787272994512</title>
<path fill="none" stroke="black" d="M1203.22,-46.96C1246.94,-50.26 1337.72,-57.1 1413.36,-62.8"/>
</g>
<!-- 2787272995712 -->
<g id="node32" class="node">
<title>2787272995712</title>
<ellipse fill="none" stroke="black" cx="1536.47" cy="-18" rx="129.15" ry="18"/>
<text text-anchor="middle" x="1536.47" y="-12" font-family="Times New Roman,serif" font-size="15.00">Commence WABOprocedure</text>
</g>
<!-- 2787272988752&#45;&#45;2787272995712 -->
<g id="edge26" class="edge">
<title>2787272988752&#45;&#45;2787272995712</title>
<path fill="none" stroke="black" d="M1203.22,-43.04C1248.55,-39.62 1344.47,-32.39 1421.65,-26.58"/>
</g>
<!-- 2787274206208 -->
<g id="node34" class="node">
<title>2787274206208</title>
<ellipse fill="black" stroke="black" cx="415.39" cy="-300" rx="2.7" ry="2.7"/>
</g>
<!-- 2787274200928&#45;&#45;2787274206208 -->
<g id="edge32" class="edge">
<title>2787274200928&#45;&#45;2787274206208</title>
<path fill="none" stroke="black" d="M248.51,-300C297.04,-300 397.06,-300 412.4,-300"/>
</g>
<!-- 2787274199968 -->
<g id="node35" class="node">
<title>2787274199968</title>
<ellipse fill="none" stroke="black" cx="415.39" cy="-200" rx="27" ry="18"/>
<text text-anchor="middle" x="415.39" y="-194" font-family="Times New Roman,serif" font-size="15.00">seq</text>
</g>
<!-- 2787274200928&#45;&#45;2787274199968 -->
<g id="edge36" class="edge">
<title>2787274200928&#45;&#45;2787274199968</title>
<path fill="none" stroke="black" d="M243.13,-289.11C280.1,-269.87 356.53,-230.1 393.48,-210.88"/>
</g>
<!-- 2787274207216 -->
<g id="node36" class="node">
<title>2787274207216</title>
<ellipse fill="none" stroke="black" cx="654.62" cy="-227" rx="119.42" ry="18"/>
<text text-anchor="middle" x="654.62" y="-221" font-family="Times New Roman,serif" font-size="15.00">Phase procedure cancelled</text>
</g>
<!-- 2787274199968&#45;&#45;2787274207216 -->
<g id="edge33" class="edge">
<title>2787274199968&#45;&#45;2787274207216</title>
<path fill="none" stroke="black" d="M442.23,-202.94C470.03,-206.1 515.9,-211.33 557.83,-216.1"/>
</g>
<!-- 2787274195168 -->
<g id="node37" class="node">
<title>2787274195168</title>
<ellipse fill="none" stroke="black" cx="654.62" cy="-173" rx="96.39" ry="18"/>
<text text-anchor="middle" x="654.62" y="-167" font-family="Times New Roman,serif" font-size="15.00">Register the deadline</text>
</g>
<!-- 2787274199968&#45;&#45;2787274195168 -->
<g id="edge34" class="edge">
<title>2787274199968&#45;&#45;2787274195168</title>
<path fill="none" stroke="black" d="M442.23,-197.06C473.03,-193.55 526.02,-187.52 571.24,-182.38"/>
</g>
<!-- 2787274196032 -->
<g id="node38" class="node">
<title>2787274196032</title>
<ellipse fill="none" stroke="black" cx="654.62" cy="-119" rx="84.11" ry="18"/>
<text text-anchor="middle" x="654.62" y="-113" font-family="Times New Roman,serif" font-size="15.00">Conclude the case</text>
</g>
<!-- 2787274199968&#45;&#45;2787274196032 -->
<g id="edge35" class="edge">
<title>2787274199968&#45;&#45;2787274196032</title>
<path fill="none" stroke="black" d="M440,-191.94C479.15,-178.57 558.12,-151.61 608.31,-134.47"/>
</g>
</g>
</svg>
