<?xml version="1.0" encoding="UTF-8" standalone="no"?>
<!DOCTYPE svg PUBLIC "-//W3C//DTD SVG 1.1//EN"
 "http://www.w3.org/Graphics/SVG/1.1/DTD/svg11.dtd">
<!-- Generated by graphviz version 11.0.0 (20240428.1522)
 -->
<!-- Title: pt Pages: 1 -->
<svg width="2084pt" height="566pt"
 viewBox="0.00 0.00 2083.50 566.00" xmlns="http://www.w3.org/2000/svg" xmlns:xlink="http://www.w3.org/1999/xlink">
<g id="graph0" class="graph" transform="scale(1 1) rotate(0) translate(4 562)">
<title>pt</title>
<polygon fill="white" stroke="none" points="-4,4 -4,-562 2079.5,-562 2079.5,4 -4,4"/>
<!-- 2787274201072 -->
<g id="node1" class="node">
<title>2787274201072</title>
<ellipse fill="none" stroke="black" cx="27" cy="-312" rx="27" ry="18"/>
<text text-anchor="middle" x="27" y="-306" font-family="Times New Roman,serif" font-size="15.00">seq</text>
</g>
<!-- 2787274204528 -->
<g id="node2" class="node">
<title>2787274204528</title>
<ellipse fill="none" stroke="black" cx="221.19" cy="-366" rx="131.19" ry="18"/>
<text text-anchor="middle" x="221.19" y="-360" font-family="Times New Roman,serif" font-size="15.00">Enter submission date request</text>
</g>
<!-- 2787274201072&#45;&#45;2787274204528 -->
<g id="edge1" class="edge">
<title>2787274201072&#45;&#45;2787274204528</title>
<path fill="none" stroke="black" d="M52.34,-318.84C79.71,-326.53 125.14,-339.29 161.83,-349.6"/>
</g>
<!-- 2787274205632 -->
<g id="node3" class="node">
<title>2787274205632</title>
<ellipse fill="none" stroke="black" cx="221.19" cy="-312" rx="27" ry="18"/>
<text text-anchor="middle" x="221.19" y="-306" font-family="Times New Roman,serif" font-size="15.00">xor</text>
</g>
<!-- 2787274201072&#45;&#45;2787274205632 -->
<g id="edge34" class="edge">
<title>2787274201072&#45;&#45;2787274205632</title>
<path fill="none" stroke="black" d="M54.32,-312C91.02,-312 157.19,-312 193.88,-312"/>
</g>
<!-- 2787274200928 -->
<g id="node36" class="node">
<title>2787274200928</title>
<ellipse fill="none" stroke="black" cx="221.19" cy="-254" rx="27" ry="18"/>
<text text-anchor="middle" x="221.19" y="-248" font-family="Times New Roman,serif" font-size="15.00">xor</text>
</g>
<!-- 2787274201072&#45;&#45;2787274200928 -->
<g id="edge40" class="edge">
<title>2787274201072&#45;&#45;2787274200928</title>
<path fill="none" stroke="black" d="M51.95,-304.77C88.78,-293.66 158.93,-272.49 195.94,-261.32"/>
</g>
<!-- 2787274791184 -->
<g id="node4" class="node">
<title>2787274791184</title>
<ellipse fill="black" stroke="black" cx="415.39" cy="-351" rx="2.7" ry="2.7"/>
</g>
<!-- 2787274205632&#45;&#45;2787274791184 -->
<g id="edge2" class="edge">
<title>2787274205632&#45;&#45;2787274791184</title>
<path fill="none" stroke="black" d="M247.32,-317.1C295.35,-326.84 396.81,-347.43 412.37,-350.59"/>
</g>
<!-- 2787274793056 -->
<g id="node5" class="node">
<title>2787274793056</title>
<ellipse fill="none" stroke="black" cx="415.39" cy="-312" rx="27" ry="18"/>
<text text-anchor="middle" x="415.39" y="-306" font-family="Times New Roman,serif" font-size="15.00">seq</text>
</g>
<!-- 2787274205632&#45;&#45;2787274793056 -->
<g id="edge33" class="edge">
<title>2787274205632&#45;&#45;2787274793056</title>
<path fill="none" stroke="black" d="M248.51,-312C285.22,-312 351.38,-312 388.08,-312"/>
</g>
<!-- 2787274797904 -->
<g id="node6" class="node">
<title>2787274797904</title>
<ellipse fill="none" stroke="black" cx="597.81" cy="-459" rx="27" ry="18"/>
<text text-anchor="middle" x="597.81" y="-453" font-family="Times New Roman,serif" font-size="15.00">xor</text>
</g>
<!-- 2787274793056&#45;&#45;2787274797904 -->
<g id="edge8" class="edge">
<title>2787274793056&#45;&#45;2787274797904</title>
<path fill="none" stroke="black" d="M433.36,-325.83C467.75,-353.85 545.29,-417.02 579.75,-445.1"/>
</g>
<!-- 2787274788544 -->
<g id="node12" class="node">
<title>2787274788544</title>
<ellipse fill="none" stroke="black" cx="597.81" cy="-312" rx="27" ry="18"/>
<text text-anchor="middle" x="597.81" y="-306" font-family="Times New Roman,serif" font-size="15.00">and</text>
</g>
<!-- 2787274793056&#45;&#45;2787274788544 -->
<g id="edge32" class="edge">
<title>2787274793056&#45;&#45;2787274788544</title>
<path fill="none" stroke="black" d="M442.62,-312C476.83,-312 536.32,-312 570.54,-312"/>
</g>
<!-- 2787274793776 -->
<g id="node7" class="node">
<title>2787274793776</title>
<ellipse fill="black" stroke="black" cx="868.05" cy="-498" rx="2.7" ry="2.7"/>
</g>
<!-- 2787274797904&#45;&#45;2787274793776 -->
<g id="edge3" class="edge">
<title>2787274797904&#45;&#45;2787274793776</title>
<path fill="none" stroke="black" d="M624.53,-462.74C687.47,-471.89 845.55,-494.87 865.06,-497.71"/>
</g>
<!-- 2787274787728 -->
<g id="node8" class="node">
<title>2787274787728</title>
<ellipse fill="none" stroke="black" cx="868.05" cy="-459" rx="27" ry="18"/>
<text text-anchor="middle" x="868.05" y="-453" font-family="Times New Roman,serif" font-size="15.00">seq</text>
</g>
<!-- 2787274797904&#45;&#45;2787274787728 -->
<g id="edge7" class="edge">
<title>2787274797904&#45;&#45;2787274787728</title>
<path fill="none" stroke="black" d="M625.02,-459C676.3,-459 789.37,-459 840.73,-459"/>
</g>
<!-- 2787274800688 -->
<g id="node9" class="node">
<title>2787274800688</title>
<ellipse fill="none" stroke="black" cx="1201.75" cy="-540" rx="182.89" ry="18"/>
<text text-anchor="middle" x="1201.75" y="-534" font-family="Times New Roman,serif" font-size="15.00">Mandatory Environmental Report required</text>
</g>
<!-- 2787274787728&#45;&#45;2787274800688 -->
<g id="edge4" class="edge">
<title>2787274787728&#45;&#45;2787274800688</title>
<path fill="none" stroke="black" d="M893.98,-465.09C943.77,-477.25 1057.11,-504.92 1131.2,-523.02"/>
</g>
<!-- 2787274800400 -->
<g id="node10" class="node">
<title>2787274800400</title>
<ellipse fill="none" stroke="black" cx="1201.75" cy="-486" rx="129.15" ry="18"/>
<text text-anchor="middle" x="1201.75" y="-480" font-family="Times New Roman,serif" font-size="15.00">Regular procedural activities</text>
</g>
<!-- 2787274787728&#45;&#45;2787274800400 -->
<g id="edge5" class="edge">
<title>2787274787728&#45;&#45;2787274800400</title>
<path fill="none" stroke="black" d="M895.35,-461.14C936.88,-464.52 1020,-471.29 1089.06,-476.91"/>
</g>
<!-- 2787274798816 -->
<g id="node11" class="node">
<title>2787274798816</title>
<ellipse fill="none" stroke="black" cx="1201.75" cy="-432" rx="87.69" ry="18"/>
<text text-anchor="middle" x="1201.75" y="-426" font-family="Times New Roman,serif" font-size="15.00">Phased application</text>
</g>
<!-- 2787274787728&#45;&#45;2787274798816 -->
<g id="edge6" class="edge">
<title>2787274787728&#45;&#45;2787274798816</title>
<path fill="none" stroke="black" d="M895.35,-456.86C943.24,-452.96 1046.44,-444.56 1119.59,-438.61"/>
</g>
<!-- 2787274786096 -->
<g id="node13" class="node">
<title>2787274786096</title>
<ellipse fill="none" stroke="black" cx="868.05" cy="-366" rx="45.21" ry="18"/>
<text text-anchor="middle" x="868.05" y="-360" font-family="Times New Roman,serif" font-size="15.00">xor loop</text>
</g>
<!-- 2787274788544&#45;&#45;2787274786096 -->
<g id="edge11" class="edge">
<title>2787274788544&#45;&#45;2787274786096</title>
<path fill="none" stroke="black" d="M624.04,-317.08C670.73,-326.48 770.94,-346.65 826.99,-357.94"/>
</g>
<!-- 2787274788688 -->
<g id="node16" class="node">
<title>2787274788688</title>
<ellipse fill="none" stroke="black" cx="868.05" cy="-312" rx="114.82" ry="18"/>
<text text-anchor="middle" x="868.05" y="-306" font-family="Times New Roman,serif" font-size="15.00">Step application received</text>
</g>
<!-- 2787274788544&#45;&#45;2787274788688 -->
<g id="edge12" class="edge">
<title>2787274788544&#45;&#45;2787274788688</title>
<path fill="none" stroke="black" d="M625.02,-312C654.81,-312 705.46,-312 752.75,-312"/>
</g>
<!-- 2787274789648 -->
<g id="node17" class="node">
<title>2787274789648</title>
<ellipse fill="none" stroke="black" cx="868.05" cy="-258" rx="98.44" ry="18"/>
<text text-anchor="middle" x="868.05" y="-252" font-family="Times New Roman,serif" font-size="15.00">OLO messages active</text>
</g>
<!-- 2787274788544&#45;&#45;2787274789648 -->
<g id="edge13" class="edge">
<title>2787274788544&#45;&#45;2787274789648</title>
<path fill="none" stroke="black" d="M624.04,-306.92C664.02,-298.87 743.21,-282.93 800.35,-271.43"/>
</g>
<!-- 2787274785712 -->
<g id="node18" class="node">
<title>2787274785712</title>
<ellipse fill="none" stroke="black" cx="868.05" cy="-192" rx="27" ry="18"/>
<text text-anchor="middle" x="868.05" y="-186" font-family="Times New Roman,serif" font-size="15.00">seq</text>
</g>
<!-- 2787274788544&#45;&#45;2787274785712 -->
<g id="edge31" class="edge">
<title>2787274788544&#45;&#45;2787274785712</title>
<path fill="none" stroke="black" d="M620.76,-302.18C671.18,-279.62 794.81,-224.31 845.17,-201.79"/>
</g>
<!-- 2787274785568 -->
<g id="node14" class="node">
<title>2787274785568</title>
<ellipse fill="none" stroke="black" cx="1201.75" cy="-378" rx="131.19" ry="18"/>
<text text-anchor="middle" x="1201.75" y="-372" font-family="Times New Roman,serif" font-size="15.00">Transmit confirmation receipt</text>
</g>
<!-- 2787274786096&#45;&#45;2787274785568 -->
<g id="edge9" class="edge">
<title>2787274786096&#45;&#45;2787274785568</title>
<path fill="none" stroke="black" d="M913.44,-367.61C954.57,-369.09 1017.77,-371.38 1074.43,-373.43"/>
</g>
<!-- 2787274791952 -->
<g id="node15" class="node">
<title>2787274791952</title>
<ellipse fill="black" stroke="black" cx="1201.75" cy="-339" rx="2.7" ry="2.7"/>
</g>
<!-- 2787274786096&#45;&#45;2787274791952 -->
<g id="edge10" class="edge">
<title>2787274786096&#45;&#45;2787274791952</title>
<path fill="none" stroke="black" d="M912.75,-362.44C997.9,-355.51 1179.42,-340.74 1199.02,-339.14"/>
</g>
<!-- 2787274798960 -->
<g id="node19" class="node">
<title>2787274798960</title>
<ellipse fill="none" stroke="black" cx="1201.75" cy="-300" rx="27" ry="18"/>
<text text-anchor="middle" x="1201.75" y="-294" font-family="Times New Roman,serif" font-size="15.00">xor</text>
</g>
<!-- 2787274785712&#45;&#45;2787274798960 -->
<g id="edge19" class="edge">
<title>2787274785712&#45;&#45;2787274798960</title>
<path fill="none" stroke="black" d="M892.9,-199.77C954.1,-219.69 1116.15,-272.45 1177.11,-292.3"/>
</g>
<!-- 2787274799920 -->
<g id="node25" class="node">
<title>2787274799920</title>
<ellipse fill="none" stroke="black" cx="1201.75" cy="-246" rx="139.38" ry="18"/>
<text text-anchor="middle" x="1201.75" y="-240" font-family="Times New Roman,serif" font-size="15.00">Refer to the competent authority</text>
</g>
<!-- 2787274785712&#45;&#45;2787274799920 -->
<g id="edge20" class="edge">
<title>2787274785712&#45;&#45;2787274799920</title>
<path fill="none" stroke="black" d="M894.8,-196.19C941.07,-203.73 1040.26,-219.87 1113.2,-231.75"/>
</g>
<!-- 2787274794976 -->
<g id="node26" class="node">
<title>2787274794976</title>
<ellipse fill="none" stroke="black" cx="1201.75" cy="-192" rx="147.57" ry="18"/>
<text text-anchor="middle" x="1201.75" y="-186" font-family="Times New Roman,serif" font-size="15.00">Ordinary procedure without MER</text>
</g>
<!-- 2787274785712&#45;&#45;2787274794976 -->
<g id="edge21" class="edge">
<title>2787274785712&#45;&#45;2787274794976</title>
<path fill="none" stroke="black" d="M895.35,-192C929.98,-192 993.54,-192 1053.75,-192"/>
</g>
<!-- 2787274786864 -->
<g id="node27" class="node">
<title>2787274786864</title>
<ellipse fill="none" stroke="black" cx="1201.75" cy="-138" rx="141.43" ry="18"/>
<text text-anchor="middle" x="1201.75" y="-132" font-family="Times New Roman,serif" font-size="15.00">Produce procedure confirmation</text>
</g>
<!-- 2787274785712&#45;&#45;2787274786864 -->
<g id="edge22" class="edge">
<title>2787274785712&#45;&#45;2787274786864</title>
<path fill="none" stroke="black" d="M894.8,-187.81C940.92,-180.3 1039.6,-164.23 1112.48,-152.37"/>
</g>
<!-- 2787274787104 -->
<g id="node28" class="node">
<title>2787274787104</title>
<ellipse fill="none" stroke="black" cx="1201.75" cy="-84" rx="27" ry="18"/>
<text text-anchor="middle" x="1201.75" y="-78" font-family="Times New Roman,serif" font-size="15.00">xor</text>
</g>
<!-- 2787274785712&#45;&#45;2787274787104 -->
<g id="edge29" class="edge">
<title>2787274785712&#45;&#45;2787274787104</title>
<path fill="none" stroke="black" d="M892.9,-184.23C954.1,-164.31 1116.15,-111.55 1177.11,-91.7"/>
</g>
<!-- 2787274791760 -->
<g id="node35" class="node">
<title>2787274791760</title>
<ellipse fill="none" stroke="black" cx="1201.75" cy="-30" rx="129.15" ry="18"/>
<text text-anchor="middle" x="1201.75" y="-24" font-family="Times New Roman,serif" font-size="15.00">Commence WABOprocedure</text>
</g>
<!-- 2787274785712&#45;&#45;2787274791760 -->
<g id="edge30" class="edge">
<title>2787274785712&#45;&#45;2787274791760</title>
<path fill="none" stroke="black" d="M890.55,-181.5C946.18,-154.33 1095.29,-81.51 1164.51,-47.7"/>
</g>
<!-- 2787274788976 -->
<g id="node20" class="node">
<title>2787274788976</title>
<ellipse fill="black" stroke="black" cx="1447.63" cy="-319" rx="2.7" ry="2.7"/>
</g>
<!-- 2787274798960&#45;&#45;2787274788976 -->
<g id="edge14" class="edge">
<title>2787274798960&#45;&#45;2787274788976</title>
<path fill="none" stroke="black" d="M1228.85,-302.03C1287.59,-306.61 1426.47,-317.43 1444.66,-318.85"/>
</g>
<!-- 2787274794832 -->
<g id="node21" class="node">
<title>2787274794832</title>
<ellipse fill="none" stroke="black" cx="1447.63" cy="-280" rx="27" ry="18"/>
<text text-anchor="middle" x="1447.63" y="-274" font-family="Times New Roman,serif" font-size="15.00">seq</text>
</g>
<!-- 2787274798960&#45;&#45;2787274794832 -->
<g id="edge18" class="edge">
<title>2787274798960&#45;&#45;2787274794832</title>
<path fill="none" stroke="black" d="M1228.85,-297.86C1275.67,-294.02 1373.4,-286.01 1420.35,-282.16"/>
</g>
<!-- 2787274791520 -->
<g id="node22" class="node">
<title>2787274791520</title>
<ellipse fill="none" stroke="black" cx="1653.6" cy="-334" rx="142.97" ry="18"/>
<text text-anchor="middle" x="1653.6" y="-328" font-family="Times New Roman,serif" font-size="15.00">Applicant plays stakeholder role</text>
</g>
<!-- 2787274794832&#45;&#45;2787274791520 -->
<g id="edge15" class="edge">
<title>2787274794832&#45;&#45;2787274791520</title>
<path fill="none" stroke="black" d="M1473.24,-286.51C1502.06,-294.14 1550.88,-307.07 1590.31,-317.51"/>
</g>
<!-- 2787274790848 -->
<g id="node23" class="node">
<title>2787274790848</title>
<ellipse fill="none" stroke="black" cx="1653.6" cy="-280" rx="73.36" ry="18"/>
<text text-anchor="middle" x="1653.6" y="-274" font-family="Times New Roman,serif" font-size="15.00">Stop on request</text>
</g>
<!-- 2787274794832&#45;&#45;2787274790848 -->
<g id="edge16" class="edge">
<title>2787274794832&#45;&#45;2787274790848</title>
<path fill="none" stroke="black" d="M1474.88,-280C1501.35,-280 1543.41,-280 1579.97,-280"/>
</g>
<!-- 2787274798864 -->
<g id="node24" class="node">
<title>2787274798864</title>
<ellipse fill="none" stroke="black" cx="1653.6" cy="-226" rx="128.63" ry="18"/>
<text text-anchor="middle" x="1653.6" y="-220" font-family="Times New Roman,serif" font-size="15.00">Evaluate provisional charges</text>
</g>
<!-- 2787274794832&#45;&#45;2787274798864 -->
<g id="edge17" class="edge">
<title>2787274794832&#45;&#45;2787274798864</title>
<path fill="none" stroke="black" d="M1473.24,-273.49C1502.37,-265.77 1551.96,-252.65 1591.61,-242.15"/>
</g>
<!-- 2787274799776 -->
<g id="node29" class="node">
<title>2787274799776</title>
<ellipse fill="black" stroke="black" cx="1447.63" cy="-103" rx="2.7" ry="2.7"/>
</g>
<!-- 2787274787104&#45;&#45;2787274799776 -->
<g id="edge23" class="edge">
<title>2787274787104&#45;&#45;2787274799776</title>
<path fill="none" stroke="black" d="M1228.85,-86.03C1287.59,-90.61 1426.47,-101.43 1444.66,-102.85"/>
</g>
<!-- 2787275065536 -->
<g id="node30" class="node">
<title>2787275065536</title>
<ellipse fill="none" stroke="black" cx="1447.63" cy="-64" rx="27" ry="18"/>
<text text-anchor="middle" x="1447.63" y="-58" font-family="Times New Roman,serif" font-size="15.00">seq</text>
</g>
<!-- 2787274787104&#45;&#45;2787275065536 -->
<g id="edge28" class="edge">
<title>2787274787104&#45;&#45;2787275065536</title>
<path fill="none" stroke="black" d="M1228.85,-81.86C1275.67,-78.02 1373.4,-70.01 1420.35,-66.16"/>
</g>
<!-- 2787275075904 -->
<g id="node31" class="node">
<title>2787275075904</title>
<ellipse fill="none" stroke="black" cx="1653.6" cy="-91" rx="51.86" ry="18"/>
<text text-anchor="middle" x="1653.6" y="-85" font-family="Times New Roman,serif" font-size="15.00">Broadcast</text>
</g>
<!-- 2787275065536&#45;&#45;2787275075904 -->
<g id="edge24" class="edge">
<title>2787275065536&#45;&#45;2787275075904</title>
<path fill="none" stroke="black" d="M1474.47,-67.42C1507.16,-71.75 1564.12,-79.29 1604.82,-84.68"/>
</g>
<!-- 2787275069280 -->
<g id="node32" class="node">
<title>2787275069280</title>
<ellipse fill="none" stroke="black" cx="1653.6" cy="-37" rx="27" ry="18"/>
<text text-anchor="middle" x="1653.6" y="-31" font-family="Times New Roman,serif" font-size="15.00">xor</text>
</g>
<!-- 2787275065536&#45;&#45;2787275069280 -->
<g id="edge27" class="edge">
<title>2787275065536&#45;&#45;2787275069280</title>
<path fill="none" stroke="black" d="M1474.47,-60.58C1513.59,-55.4 1587.46,-45.62 1626.66,-40.43"/>
</g>
<!-- 2787275075568 -->
<g id="node33" class="node">
<title>2787275075568</title>
<ellipse fill="black" stroke="black" cx="1954.03" cy="-57" rx="2.7" ry="2.7"/>
</g>
<!-- 2787275069280&#45;&#45;2787275075568 -->
<g id="edge25" class="edge">
<title>2787275069280&#45;&#45;2787275075568</title>
<path fill="none" stroke="black" d="M1680.82,-38.76C1749.66,-43.37 1931.6,-55.56 1951.3,-56.88"/>
</g>
<!-- 2787275077968 -->
<g id="node34" class="node">
<title>2787275077968</title>
<ellipse fill="none" stroke="black" cx="1954.03" cy="-18" rx="121.47" ry="18"/>
<text text-anchor="middle" x="1954.03" y="-12" font-family="Times New Roman,serif" font-size="15.00">Form publication document</text>
</g>
<!-- 2787275069280&#45;&#45;2787275077968 -->
<g id="edge26" class="edge">
<title>2787275069280&#45;&#45;2787275077968</title>
<path fill="none" stroke="black" d="M1680.82,-35.33C1716.66,-33.05 1783.17,-28.81 1841.47,-25.1"/>
</g>
<!-- 2787274790560 -->
<g id="node37" class="node">
<title>2787274790560</title>
<ellipse fill="black" stroke="black" cx="415.39" cy="-254" rx="2.7" ry="2.7"/>
</g>
<!-- 2787274200928&#45;&#45;2787274790560 -->
<g id="edge35" class="edge">
<title>2787274200928&#45;&#45;2787274790560</title>
<path fill="none" stroke="black" d="M248.51,-254C297.04,-254 397.06,-254 412.4,-254"/>
</g>
<!-- 2787274787200 -->
<g id="node38" class="node">
<title>2787274787200</title>
<ellipse fill="none" stroke="black" cx="415.39" cy="-211" rx="27" ry="18"/>
<text text-anchor="middle" x="415.39" y="-205" font-family="Times New Roman,serif" font-size="15.00">seq</text>
</g>
<!-- 2787274200928&#45;&#45;2787274787200 -->
<g id="edge39" class="edge">
<title>2787274200928&#45;&#45;2787274787200</title>
<path fill="none" stroke="black" d="M247.32,-248.38C284.15,-240.14 352.42,-224.86 389.25,-216.62"/>
</g>
<!-- 2787274788256 -->
<g id="node39" class="node">
<title>2787274788256</title>
<ellipse fill="none" stroke="black" cx="597.81" cy="-258" rx="119.42" ry="18"/>
<text text-anchor="middle" x="597.81" y="-252" font-family="Times New Roman,serif" font-size="15.00">Phase procedure cancelled</text>
</g>
<!-- 2787274787200&#45;&#45;2787274788256 -->
<g id="edge36" class="edge">
<title>2787274787200&#45;&#45;2787274788256</title>
<path fill="none" stroke="black" d="M441.1,-217.44C465.51,-223.8 503.82,-233.78 536.33,-242.24"/>
</g>
<!-- 2787274789360 -->
<g id="node40" class="node">
<title>2787274789360</title>
<ellipse fill="none" stroke="black" cx="597.81" cy="-204" rx="96.39" ry="18"/>
<text text-anchor="middle" x="597.81" y="-198" font-family="Times New Roman,serif" font-size="15.00">Register the deadline</text>
</g>
<!-- 2787274787200&#45;&#45;2787274789360 -->
<g id="edge37" class="edge">
<title>2787274787200&#45;&#45;2787274789360</title>
<path fill="none" stroke="black" d="M442.62,-209.98C458.85,-209.35 480.76,-208.5 502.96,-207.64"/>
</g>
<!-- 2787274797424 -->
<g id="node41" class="node">
<title>2787274797424</title>
<ellipse fill="none" stroke="black" cx="597.81" cy="-150" rx="84.11" ry="18"/>
<text text-anchor="middle" x="597.81" y="-144" font-family="Times New Roman,serif" font-size="15.00">Conclude the case</text>
</g>
<!-- 2787274787200&#45;&#45;2787274797424 -->
<g id="edge38" class="edge">
<title>2787274787200&#45;&#45;2787274797424</title>
<path fill="none" stroke="black" d="M439.97,-203.03C468.15,-193.5 515.92,-177.35 551.36,-165.37"/>
</g>
</g>
</svg>
