<?xml version="1.0" encoding="UTF-8" standalone="no"?>
<!DOCTYPE svg PUBLIC "-//W3C//DTD SVG 1.1//EN"
 "http://www.w3.org/Graphics/SVG/1.1/DTD/svg11.dtd">
<!-- Generated by graphviz version 11.0.0 (20240428.1522)
 -->
<!-- Title: pt Pages: 1 -->
<svg width="2152pt" height="1035pt"
 viewBox="0.00 0.00 2152.16 1035.00" xmlns="http://www.w3.org/2000/svg" xmlns:xlink="http://www.w3.org/1999/xlink">
<g id="graph0" class="graph" transform="scale(1 1) rotate(0) translate(4 1031)">
<title>pt</title>
<polygon fill="white" stroke="none" points="-4,4 -4,-1031 2148.16,-1031 2148.16,4 -4,4"/>
<!-- 2561234062464 -->
<g id="node1" class="node">
<title>2561234062464</title>
<ellipse fill="none" stroke="black" cx="27" cy="-523" rx="27" ry="18"/>
<text text-anchor="middle" x="27" y="-517" font-family="Times New Roman,serif" font-size="15.00">seq</text>
</g>
<!-- 2561234072784 -->
<g id="node2" class="node">
<title>2561234072784</title>
<ellipse fill="none" stroke="black" cx="269.82" cy="-1009" rx="131.19" ry="18"/>
<text text-anchor="middle" x="269.82" y="-1003" font-family="Times New Roman,serif" font-size="15.00">Enter submission date request</text>
</g>
<!-- 2561234062464&#45;&#45;2561234072784 -->
<g id="edge1" class="edge">
<title>2561234062464&#45;&#45;2561234072784</title>
<path fill="none" stroke="black" d="M36.57,-540.3C73.81,-615.46 221.44,-913.38 259.71,-990.63"/>
</g>
<!-- 2561234074944 -->
<g id="node3" class="node">
<title>2561234074944</title>
<ellipse fill="none" stroke="black" cx="269.82" cy="-955" rx="98.44" ry="18"/>
<text text-anchor="middle" x="269.82" y="-949" font-family="Times New Roman,serif" font-size="15.00">OLO messages active</text>
</g>
<!-- 2561234062464&#45;&#45;2561234074944 -->
<g id="edge2" class="edge">
<title>2561234062464&#45;&#45;2561234074944</title>
<path fill="none" stroke="black" d="M37.44,-539.93C75.7,-608.57 219.08,-865.78 258.65,-936.76"/>
</g>
<!-- 2561234067744 -->
<g id="node4" class="node">
<title>2561234067744</title>
<ellipse fill="none" stroke="black" cx="269.82" cy="-901" rx="142.97" ry="18"/>
<text text-anchor="middle" x="269.82" y="-895" font-family="Times New Roman,serif" font-size="15.00">Applicant plays stakeholder role</text>
</g>
<!-- 2561234062464&#45;&#45;2561234067744 -->
<g id="edge3" class="edge">
<title>2561234062464&#45;&#45;2561234067744</title>
<path fill="none" stroke="black" d="M38.66,-539.73C78.16,-601.74 216.07,-818.2 257.17,-882.72"/>
</g>
<!-- 2561234061600 -->
<g id="node5" class="node">
<title>2561234061600</title>
<ellipse fill="none" stroke="black" cx="269.82" cy="-847" rx="157.3" ry="18"/>
<text text-anchor="middle" x="269.82" y="-841" font-family="Times New Roman,serif" font-size="15.00">Register senddate acknowledgement</text>
</g>
<!-- 2561234062464&#45;&#45;2561234061600 -->
<g id="edge4" class="edge">
<title>2561234062464&#45;&#45;2561234061600</title>
<path fill="none" stroke="black" d="M39.94,-539.07C80.47,-593.59 212.59,-771.35 255.34,-828.87"/>
</g>
<!-- 2561234070912 -->
<g id="node6" class="node">
<title>2561234070912</title>
<ellipse fill="none" stroke="black" cx="269.82" cy="-793" rx="143.48" ry="18"/>
<text text-anchor="middle" x="269.82" y="-787" font-family="Times New Roman,serif" font-size="15.00">Forward procedure confirmation</text>
</g>
<!-- 2561234062464&#45;&#45;2561234070912 -->
<g id="edge5" class="edge">
<title>2561234062464&#45;&#45;2561234070912</title>
<path fill="none" stroke="black" d="M41.64,-538.29C83.13,-584.81 207.73,-724.51 252.54,-774.75"/>
</g>
<!-- 2561234063088 -->
<g id="node7" class="node">
<title>2561234063088</title>
<ellipse fill="none" stroke="black" cx="269.82" cy="-739" rx="179.82" ry="18"/>
<text text-anchor="middle" x="269.82" y="-733" font-family="Times New Roman,serif" font-size="15.00">Register senddate procedure confirmation</text>
</g>
<!-- 2561234062464&#45;&#45;2561234063088 -->
<g id="edge6" class="edge">
<title>2561234062464&#45;&#45;2561234063088</title>
<path fill="none" stroke="black" d="M43.8,-537.17C86.07,-575.09 201.73,-678.83 248.65,-720.91"/>
</g>
<!-- 2561233491664 -->
<g id="node8" class="node">
<title>2561233491664</title>
<ellipse fill="none" stroke="black" cx="269.82" cy="-685" rx="98.44" ry="18"/>
<text text-anchor="middle" x="269.82" y="-679" font-family="Times New Roman,serif" font-size="15.00">Retrieve missing data</text>
</g>
<!-- 2561234062464&#45;&#45;2561233491664 -->
<g id="edge7" class="edge">
<title>2561234062464&#45;&#45;2561233491664</title>
<path fill="none" stroke="black" d="M46.9,-535.71C89.58,-564.43 193.55,-634.37 242.51,-667.3"/>
</g>
<!-- 2561233492864 -->
<g id="node9" class="node">
<title>2561233492864</title>
<ellipse fill="none" stroke="black" cx="269.82" cy="-631" rx="132.73" ry="18"/>
<text text-anchor="middle" x="269.82" y="-625" font-family="Times New Roman,serif" font-size="15.00">Log date retrieve missing data</text>
</g>
<!-- 2561234062464&#45;&#45;2561233492864 -->
<g id="edge8" class="edge">
<title>2561234062464&#45;&#45;2561233492864</title>
<path fill="none" stroke="black" d="M49.8,-532.77C90.43,-551 178.29,-590.4 229.52,-613.38"/>
</g>
<!-- 2561233490608 -->
<g id="node10" class="node">
<title>2561233490608</title>
<ellipse fill="none" stroke="black" cx="269.82" cy="-577" rx="73.36" ry="18"/>
<text text-anchor="middle" x="269.82" y="-571" font-family="Times New Roman,serif" font-size="15.00">Stop on request</text>
</g>
<!-- 2561234062464&#45;&#45;2561233490608 -->
<g id="edge9" class="edge">
<title>2561234062464&#45;&#45;2561233490608</title>
<path fill="none" stroke="black" d="M52.86,-528.58C90.84,-537.09 164.2,-553.54 214.8,-564.89"/>
</g>
<!-- 2561233493872 -->
<g id="node11" class="node">
<title>2561233493872</title>
<ellipse fill="none" stroke="black" cx="269.82" cy="-523" rx="27" ry="18"/>
<text text-anchor="middle" x="269.82" y="-517" font-family="Times New Roman,serif" font-size="15.00">xor</text>
</g>
<!-- 2561234062464&#45;&#45;2561233493872 -->
<g id="edge30" class="edge">
<title>2561234062464&#45;&#45;2561233493872</title>
<path fill="none" stroke="black" d="M54.23,-523C100.55,-523 196.32,-523 242.62,-523"/>
</g>
<!-- 2561233486288 -->
<g id="node32" class="node">
<title>2561233486288</title>
<ellipse fill="none" stroke="black" cx="269.82" cy="-469" rx="139.38" ry="18"/>
<text text-anchor="middle" x="269.82" y="-463" font-family="Times New Roman,serif" font-size="15.00">Refer to the competent authority</text>
</g>
<!-- 2561234062464&#45;&#45;2561233486288 -->
<g id="edge31" class="edge">
<title>2561234062464&#45;&#45;2561233486288</title>
<path fill="none" stroke="black" d="M52.86,-517.42C86.87,-509.8 149.26,-495.81 198.27,-484.82"/>
</g>
<!-- 2561233489408 -->
<g id="node33" class="node">
<title>2561233489408</title>
<ellipse fill="none" stroke="black" cx="269.82" cy="-415" rx="147.57" ry="18"/>
<text text-anchor="middle" x="269.82" y="-409" font-family="Times New Roman,serif" font-size="15.00">Ordinary procedure without MER</text>
</g>
<!-- 2561234062464&#45;&#45;2561233489408 -->
<g id="edge32" class="edge">
<title>2561234062464&#45;&#45;2561233489408</title>
<path fill="none" stroke="black" d="M49.8,-513.23C90.43,-495 178.29,-455.6 229.52,-432.62"/>
</g>
<!-- 2561233496080 -->
<g id="node34" class="node">
<title>2561233496080</title>
<ellipse fill="none" stroke="black" cx="269.82" cy="-361" rx="141.43" ry="18"/>
<text text-anchor="middle" x="269.82" y="-355" font-family="Times New Roman,serif" font-size="15.00">Produce procedure confirmation</text>
</g>
<!-- 2561234062464&#45;&#45;2561233496080 -->
<g id="edge33" class="edge">
<title>2561234062464&#45;&#45;2561233496080</title>
<path fill="none" stroke="black" d="M46.9,-510.29C89.47,-481.65 193.01,-411.99 242.12,-378.96"/>
</g>
<!-- 2561233499728 -->
<g id="node35" class="node">
<title>2561233499728</title>
<ellipse fill="none" stroke="black" cx="269.82" cy="-307" rx="51.86" ry="18"/>
<text text-anchor="middle" x="269.82" y="-301" font-family="Times New Roman,serif" font-size="15.00">Broadcast</text>
</g>
<!-- 2561234062464&#45;&#45;2561233499728 -->
<g id="edge34" class="edge">
<title>2561234062464&#45;&#45;2561233499728</title>
<path fill="none" stroke="black" d="M43.8,-508.83C86.49,-470.53 204.03,-365.11 250.02,-323.86"/>
</g>
<!-- 2561233486336 -->
<g id="node36" class="node">
<title>2561233486336</title>
<ellipse fill="none" stroke="black" cx="269.82" cy="-253" rx="114.82" ry="18"/>
<text text-anchor="middle" x="269.82" y="-247" font-family="Times New Roman,serif" font-size="15.00">Step application received</text>
</g>
<!-- 2561234062464&#45;&#45;2561233486336 -->
<g id="edge35" class="edge">
<title>2561234062464&#45;&#45;2561233486336</title>
<path fill="none" stroke="black" d="M41.64,-507.71C83.13,-461.19 207.73,-321.49 252.54,-271.25"/>
</g>
<!-- 2561233493344 -->
<g id="node37" class="node">
<title>2561233493344</title>
<ellipse fill="none" stroke="black" cx="269.82" cy="-199" rx="131.19" ry="18"/>
<text text-anchor="middle" x="269.82" y="-193" font-family="Times New Roman,serif" font-size="15.00">Transmit confirmation receipt</text>
</g>
<!-- 2561234062464&#45;&#45;2561233493344 -->
<g id="edge36" class="edge">
<title>2561234062464&#45;&#45;2561233493344</title>
<path fill="none" stroke="black" d="M39.94,-506.93C80.47,-452.41 212.59,-274.65 255.34,-217.13"/>
</g>
<!-- 2561233489360 -->
<g id="node38" class="node">
<title>2561233489360</title>
<ellipse fill="none" stroke="black" cx="269.82" cy="-145" rx="27" ry="18"/>
<text text-anchor="middle" x="269.82" y="-139" font-family="Times New Roman,serif" font-size="15.00">xor</text>
</g>
<!-- 2561234062464&#45;&#45;2561233489360 -->
<g id="edge39" class="edge">
<title>2561234062464&#45;&#45;2561233489360</title>
<path fill="none" stroke="black" d="M38.66,-506.27C78.53,-443.69 218.62,-223.79 258.28,-161.54"/>
</g>
<!-- 2561233500736 -->
<g id="node41" class="node">
<title>2561233500736</title>
<ellipse fill="none" stroke="black" cx="269.82" cy="-91" rx="129.15" ry="18"/>
<text text-anchor="middle" x="269.82" y="-85" font-family="Times New Roman,serif" font-size="15.00">Commence WABOprocedure</text>
</g>
<!-- 2561234062464&#45;&#45;2561233500736 -->
<g id="edge40" class="edge">
<title>2561234062464&#45;&#45;2561233500736</title>
<path fill="none" stroke="black" d="M37.44,-506.07C75.7,-437.43 219.08,-180.22 258.65,-109.24"/>
</g>
<!-- 2561233486000 -->
<g id="node42" class="node">
<title>2561233486000</title>
<ellipse fill="none" stroke="black" cx="269.82" cy="-37" rx="27" ry="18"/>
<text text-anchor="middle" x="269.82" y="-31" font-family="Times New Roman,serif" font-size="15.00">xor</text>
</g>
<!-- 2561234062464&#45;&#45;2561233486000 -->
<g id="edge43" class="edge">
<title>2561234062464&#45;&#45;2561233486000</title>
<path fill="none" stroke="black" d="M36.57,-505.7C74.02,-430.12 223.1,-129.26 260.35,-54.09"/>
</g>
<!-- 2561233495600 -->
<g id="node12" class="node">
<title>2561233495600</title>
<ellipse fill="none" stroke="black" cx="626.04" cy="-550" rx="128.63" ry="18"/>
<text text-anchor="middle" x="626.04" y="-544" font-family="Times New Roman,serif" font-size="15.00">Evaluate provisional charges</text>
</g>
<!-- 2561233493872&#45;&#45;2561233495600 -->
<g id="edge10" class="edge">
<title>2561233493872&#45;&#45;2561233495600</title>
<path fill="none" stroke="black" d="M297.15,-525.01C342.12,-528.44 436.23,-535.61 512.14,-541.39"/>
</g>
<!-- 2561233498624 -->
<g id="node13" class="node">
<title>2561233498624</title>
<ellipse fill="none" stroke="black" cx="626.04" cy="-496" rx="27" ry="18"/>
<text text-anchor="middle" x="626.04" y="-490" font-family="Times New Roman,serif" font-size="15.00">seq</text>
</g>
<!-- 2561233493872&#45;&#45;2561233498624 -->
<g id="edge29" class="edge">
<title>2561233493872&#45;&#45;2561233498624</title>
<path fill="none" stroke="black" d="M297.15,-520.99C362.89,-515.98 533.6,-502.97 599.01,-497.98"/>
</g>
<!-- 2561233490512 -->
<g id="node14" class="node">
<title>2561233490512</title>
<ellipse fill="none" stroke="black" cx="829.44" cy="-536" rx="27" ry="18"/>
<text text-anchor="middle" x="829.44" y="-530" font-family="Times New Roman,serif" font-size="15.00">xor</text>
</g>
<!-- 2561233498624&#45;&#45;2561233490512 -->
<g id="edge15" class="edge">
<title>2561233498624&#45;&#45;2561233490512</title>
<path fill="none" stroke="black" d="M652.14,-500.99C690.73,-508.65 764.24,-523.25 803.03,-530.95"/>
</g>
<!-- 2561233493776 -->
<g id="node19" class="node">
<title>2561233493776</title>
<ellipse fill="none" stroke="black" cx="829.44" cy="-455" rx="27" ry="18"/>
<text text-anchor="middle" x="829.44" y="-449" font-family="Times New Roman,serif" font-size="15.00">and</text>
</g>
<!-- 2561233498624&#45;&#45;2561233493776 -->
<g id="edge28" class="edge">
<title>2561233498624&#45;&#45;2561233493776</title>
<path fill="none" stroke="black" d="M652.14,-490.89C690.84,-483.01 764.64,-467.99 803.34,-460.11"/>
</g>
<!-- 2561233501840 -->
<g id="node15" class="node">
<title>2561233501840</title>
<ellipse fill="none" stroke="black" cx="1068.68" cy="-590" rx="176.23" ry="18"/>
<text text-anchor="middle" x="1068.68" y="-584" font-family="Times New Roman,serif" font-size="15.00">Log date termination request documented</text>
</g>
<!-- 2561233490512&#45;&#45;2561233501840 -->
<g id="edge11" class="edge">
<title>2561233490512&#45;&#45;2561233501840</title>
<path fill="none" stroke="black" d="M855.38,-541.68C888.04,-549.11 946.7,-562.46 994.09,-573.25"/>
</g>
<!-- 2561233490704 -->
<g id="node16" class="node">
<title>2561233490704</title>
<ellipse fill="none" stroke="black" cx="1068.68" cy="-536" rx="27" ry="18"/>
<text text-anchor="middle" x="1068.68" y="-530" font-family="Times New Roman,serif" font-size="15.00">seq</text>
</g>
<!-- 2561233490512&#45;&#45;2561233490704 -->
<g id="edge14" class="edge">
<title>2561233490512&#45;&#45;2561233490704</title>
<path fill="none" stroke="black" d="M856.74,-536C902.34,-536 995.58,-536 1041.26,-536"/>
</g>
<!-- 2561233493824 -->
<g id="node17" class="node">
<title>2561233493824</title>
<ellipse fill="none" stroke="black" cx="1460.72" cy="-590" rx="131.71" ry="18"/>
<text text-anchor="middle" x="1460.72" y="-584" font-family="Times New Roman,serif" font-size="15.00">Action by competent authority</text>
</g>
<!-- 2561233490704&#45;&#45;2561233493824 -->
<g id="edge12" class="edge">
<title>2561233490704&#45;&#45;2561233493824</title>
<path fill="none" stroke="black" d="M1095.57,-539.58C1149.85,-547.1 1277.85,-564.82 1366.64,-577.11"/>
</g>
<!-- 2561233488208 -->
<g id="node18" class="node">
<title>2561233488208</title>
<ellipse fill="none" stroke="black" cx="1460.72" cy="-536" rx="153.71" ry="18"/>
<text text-anchor="middle" x="1460.72" y="-530" font-family="Times New Roman,serif" font-size="15.00">Create termination request message</text>
</g>
<!-- 2561233490704&#45;&#45;2561233488208 -->
<g id="edge13" class="edge">
<title>2561233490704&#45;&#45;2561233488208</title>
<path fill="none" stroke="black" d="M1095.87,-536C1138.92,-536 1227.73,-536 1306.83,-536"/>
</g>
<!-- 2561233495792 -->
<g id="node20" class="node">
<title>2561233495792</title>
<ellipse fill="none" stroke="black" cx="1068.68" cy="-482" rx="143.99" ry="18"/>
<text text-anchor="middle" x="1068.68" y="-476" font-family="Times New Roman,serif" font-size="15.00">Log termination request senddate</text>
</g>
<!-- 2561233493776&#45;&#45;2561233495792 -->
<g id="edge16" class="edge">
<title>2561233493776&#45;&#45;2561233495792</title>
<path fill="none" stroke="black" d="M856.28,-457.94C881.56,-460.82 921.79,-465.4 960.39,-469.79"/>
</g>
<!-- 2561233490176 -->
<g id="node21" class="node">
<title>2561233490176</title>
<ellipse fill="none" stroke="black" cx="1068.68" cy="-428" rx="84.11" ry="18"/>
<text text-anchor="middle" x="1068.68" y="-422" font-family="Times New Roman,serif" font-size="15.00">Conclude the case</text>
</g>
<!-- 2561233493776&#45;&#45;2561233490176 -->
<g id="edge17" class="edge">
<title>2561233493776&#45;&#45;2561233490176</title>
<path fill="none" stroke="black" d="M856.28,-452.06C889.01,-448.33 946.78,-441.76 993.66,-436.42"/>
</g>
<!-- 2561233496560 -->
<g id="node22" class="node">
<title>2561233496560</title>
<ellipse fill="none" stroke="black" cx="1068.68" cy="-374" rx="27" ry="18"/>
<text text-anchor="middle" x="1068.68" y="-368" font-family="Times New Roman,serif" font-size="15.00">seq</text>
</g>
<!-- 2561233493776&#45;&#45;2561233496560 -->
<g id="edge27" class="edge">
<title>2561233493776&#45;&#45;2561233496560</title>
<path fill="none" stroke="black" d="M854.06,-446.94C899.53,-431.41 998.76,-397.53 1044.16,-382.03"/>
</g>
<!-- 2561233496608 -->
<g id="node23" class="node">
<title>2561233496608</title>
<ellipse fill="none" stroke="black" cx="1460.72" cy="-482" rx="110.72" ry="18"/>
<text text-anchor="middle" x="1460.72" y="-476" font-family="Times New Roman,serif" font-size="15.00">Terminate request notice</text>
</g>
<!-- 2561233496560&#45;&#45;2561233496608 -->
<g id="edge18" class="edge">
<title>2561233496560&#45;&#45;2561233496608</title>
<path fill="none" stroke="black" d="M1094.07,-380.76C1155.2,-397.68 1316.17,-442.25 1402.73,-466.22"/>
</g>
<!-- 2561233494208 -->
<g id="node24" class="node">
<title>2561233494208</title>
<ellipse fill="none" stroke="black" cx="1460.72" cy="-428" rx="97.93" ry="18"/>
<text text-anchor="middle" x="1460.72" y="-422" font-family="Times New Roman,serif" font-size="15.00">Phase case dealt with</text>
</g>
<!-- 2561233496560&#45;&#45;2561233494208 -->
<g id="edge19" class="edge">
<title>2561233496560&#45;&#45;2561233494208</title>
<path fill="none" stroke="black" d="M1095.57,-377.58C1152.91,-385.52 1292.53,-404.85 1381.27,-417.14"/>
</g>
<!-- 2561233489936 -->
<g id="node25" class="node">
<title>2561233489936</title>
<ellipse fill="none" stroke="black" cx="1460.72" cy="-374" rx="179.82" ry="18"/>
<text text-anchor="middle" x="1460.72" y="-368" font-family="Times New Roman,serif" font-size="15.00">Premature termination of procedure phase</text>
</g>
<!-- 2561233496560&#45;&#45;2561233489936 -->
<g id="edge20" class="edge">
<title>2561233496560&#45;&#45;2561233489936</title>
<path fill="none" stroke="black" d="M1095.87,-374C1134.22,-374 1208.89,-374 1280.66,-374"/>
</g>
<!-- 2561233490272 -->
<g id="node26" class="node">
<title>2561233490272</title>
<ellipse fill="none" stroke="black" cx="1460.72" cy="-320" rx="148.59" ry="18"/>
<text text-anchor="middle" x="1460.72" y="-314" font-family="Times New Roman,serif" font-size="15.00">Terminate all running subcases 2b</text>
</g>
<!-- 2561233496560&#45;&#45;2561233490272 -->
<g id="edge21" class="edge">
<title>2561233496560&#45;&#45;2561233490272</title>
<path fill="none" stroke="black" d="M1095.57,-370.42C1148.66,-363.07 1272.27,-345.95 1360.74,-333.7"/>
</g>
<!-- 2561233496368 -->
<g id="node27" class="node">
<title>2561233496368</title>
<ellipse fill="none" stroke="black" cx="1460.72" cy="-266" rx="27" ry="18"/>
<text text-anchor="middle" x="1460.72" y="-260" font-family="Times New Roman,serif" font-size="15.00">and</text>
</g>
<!-- 2561233496560&#45;&#45;2561233496368 -->
<g id="edge26" class="edge">
<title>2561233496560&#45;&#45;2561233496368</title>
<path fill="none" stroke="black" d="M1094.07,-367.24C1164.12,-347.85 1365.3,-292.15 1435.33,-272.75"/>
</g>
<!-- 2561233489120 -->
<g id="node28" class="node">
<title>2561233489120</title>
<ellipse fill="none" stroke="black" cx="1795.96" cy="-293" rx="119.42" ry="18"/>
<text text-anchor="middle" x="1795.96" y="-287" font-family="Times New Roman,serif" font-size="15.00">Phase procedure cancelled</text>
</g>
<!-- 2561233496368&#45;&#45;2561233489120 -->
<g id="edge22" class="edge">
<title>2561233496368&#45;&#45;2561233489120</title>
<path fill="none" stroke="black" d="M1487.87,-268.12C1530.91,-271.61 1618.96,-278.74 1689.79,-284.48"/>
</g>
<!-- 2561233488256 -->
<g id="node29" class="node">
<title>2561233488256</title>
<ellipse fill="none" stroke="black" cx="1795.96" cy="-239" rx="27" ry="18"/>
<text text-anchor="middle" x="1795.96" y="-233" font-family="Times New Roman,serif" font-size="15.00">seq</text>
</g>
<!-- 2561233496368&#45;&#45;2561233488256 -->
<g id="edge25" class="edge">
<title>2561233496368&#45;&#45;2561233488256</title>
<path fill="none" stroke="black" d="M1487.87,-263.88C1550.17,-258.83 1706.76,-246.15 1768.93,-241.11"/>
</g>
<!-- 2561233495456 -->
<g id="node30" class="node">
<title>2561233495456</title>
<ellipse fill="none" stroke="black" cx="2047.77" cy="-266" rx="94.34" ry="18"/>
<text text-anchor="middle" x="2047.77" y="-260" font-family="Times New Roman,serif" font-size="15.00">Case phase archived</text>
</g>
<!-- 2561233488256&#45;&#45;2561233495456 -->
<g id="edge23" class="edge">
<title>2561233488256&#45;&#45;2561233495456</title>
<path fill="none" stroke="black" d="M1822.75,-241.79C1856.04,-245.39 1915.53,-251.82 1964.84,-257.14"/>
</g>
<!-- 2561233492768 -->
<g id="node31" class="node">
<title>2561233492768</title>
<ellipse fill="none" stroke="black" cx="2047.77" cy="-212" rx="96.39" ry="18"/>
<text text-anchor="middle" x="2047.77" y="-206" font-family="Times New Roman,serif" font-size="15.00">Register the deadline</text>
</g>
<!-- 2561233488256&#45;&#45;2561233492768 -->
<g id="edge24" class="edge">
<title>2561233488256&#45;&#45;2561233492768</title>
<path fill="none" stroke="black" d="M1822.75,-236.21C1855.73,-232.65 1914.42,-226.31 1963.45,-221.01"/>
</g>
<!-- 2561233498240 -->
<g id="node39" class="node">
<title>2561233498240</title>
<ellipse fill="black" stroke="black" cx="626.04" cy="-165" rx="2.7" ry="2.7"/>
</g>
<!-- 2561233489360&#45;&#45;2561233498240 -->
<g id="edge37" class="edge">
<title>2561233489360&#45;&#45;2561233498240</title>
<path fill="none" stroke="black" d="M297.15,-146.49C374.75,-150.87 598.64,-163.51 622.9,-164.88"/>
</g>
<!-- 2561233496032 -->
<g id="node40" class="node">
<title>2561233496032</title>
<ellipse fill="none" stroke="black" cx="626.04" cy="-126" rx="140.41" ry="18"/>
<text text-anchor="middle" x="626.04" y="-120" font-family="Times New Roman,serif" font-size="15.00">Subcases completeness fulfilled</text>
</g>
<!-- 2561233489360&#45;&#45;2561233496032 -->
<g id="edge38" class="edge">
<title>2561233489360&#45;&#45;2561233496032</title>
<path fill="none" stroke="black" d="M297.15,-143.59C338.92,-141.35 423.06,-136.83 495.65,-132.94"/>
</g>
<!-- 2561233492144 -->
<g id="node43" class="node">
<title>2561233492144</title>
<ellipse fill="black" stroke="black" cx="626.04" cy="-57" rx="2.7" ry="2.7"/>
</g>
<!-- 2561233486000&#45;&#45;2561233492144 -->
<g id="edge41" class="edge">
<title>2561233486000&#45;&#45;2561233492144</title>
<path fill="none" stroke="black" d="M297.15,-38.49C374.75,-42.87 598.64,-55.51 622.9,-56.88"/>
</g>
<!-- 2561233490224 -->
<g id="node44" class="node">
<title>2561233490224</title>
<ellipse fill="none" stroke="black" cx="626.04" cy="-18" rx="117.37" ry="18"/>
<text text-anchor="middle" x="626.04" y="-12" font-family="Times New Roman,serif" font-size="15.00">Step application receptive</text>
</g>
<!-- 2561233486000&#45;&#45;2561233490224 -->
<g id="edge42" class="edge">
<title>2561233486000&#45;&#45;2561233490224</title>
<path fill="none" stroke="black" d="M297.15,-35.59C342.61,-33.15 438.25,-28.02 514.57,-23.93"/>
</g>
</g>
</svg>
