<?xml version="1.0" encoding="UTF-8" standalone="no"?>
<!DOCTYPE svg PUBLIC "-//W3C//DTD SVG 1.1//EN"
 "http://www.w3.org/Graphics/SVG/1.1/DTD/svg11.dtd">
<!-- Generated by graphviz version 8.0.5 (20230430.1635)
 -->
<!-- Title: pt Pages: 1 -->
<svg width="1636pt" height="827pt"
 viewBox="0.00 0.00 1636.32 827.00" xmlns="http://www.w3.org/2000/svg" xmlns:xlink="http://www.w3.org/1999/xlink">
<g id="graph0" class="graph" transform="scale(1 1) rotate(0) translate(4 823)">
<title>pt</title>
<polygon fill="white" stroke="none" points="-4,4 -4,-823 1632.32,-823 1632.32,4 -4,4"/>
<!-- 6621131280 -->
<g id="node1" class="node">
<title>6621131280</title>
<ellipse fill="none" stroke="black" cx="27" cy="-639" rx="27" ry="18"/>
<text text-anchor="middle" x="27" y="-633.38" font-family="Times,serif" font-size="15.00">seq</text>
</g>
<!-- 6621118736 -->
<g id="node2" class="node">
<title>6621118736</title>
<ellipse fill="none" stroke="black" cx="253.8" cy="-801" rx="149.06" ry="18"/>
<text text-anchor="middle" x="253.8" y="-795.38" font-family="Times,serif" font-size="15.00">register submission date request</text>
</g>
<!-- 6621131280&#45;&#45;6621118736 -->
<g id="edge1" class="edge">
<title>6621131280&#45;&#45;6621118736</title>
<path fill="none" stroke="black" d="M46.02,-651.98C85.92,-680.74 181.83,-749.86 227.63,-782.86"/>
</g>
<!-- 6621126224 -->
<g id="node3" class="node">
<title>6621126224</title>
<ellipse fill="none" stroke="black" cx="253.8" cy="-747" rx="27" ry="18"/>
<text text-anchor="middle" x="253.8" y="-741.38" font-family="Times,serif" font-size="15.00">xor</text>
</g>
<!-- 6621131280&#45;&#45;6621126224 -->
<g id="edge4" class="edge">
<title>6621131280&#45;&#45;6621126224</title>
<path fill="none" stroke="black" d="M49.55,-649.36C92.52,-670 188.39,-716.06 231.31,-736.68"/>
</g>
<!-- 6621121296 -->
<g id="node6" class="node">
<title>6621121296</title>
<ellipse fill="none" stroke="black" cx="253.8" cy="-693" rx="108.55" ry="18"/>
<text text-anchor="middle" x="253.8" y="-687.38" font-family="Times,serif" font-size="15.00">OLO messaging active</text>
</g>
<!-- 6621131280&#45;&#45;6621121296 -->
<g id="edge5" class="edge">
<title>6621131280&#45;&#45;6621121296</title>
<path fill="none" stroke="black" d="M52.92,-644.99C85.84,-652.89 144.97,-667.1 190.4,-678.01"/>
</g>
<!-- 6621129872 -->
<g id="node7" class="node">
<title>6621129872</title>
<ellipse fill="none" stroke="black" cx="253.8" cy="-639" rx="163.8" ry="18"/>
<text text-anchor="middle" x="253.8" y="-633.38" font-family="Times,serif" font-size="15.00">application submitted through OLO</text>
</g>
<!-- 6621131280&#45;&#45;6621129872 -->
<g id="edge6" class="edge">
<title>6621131280&#45;&#45;6621129872</title>
<path fill="none" stroke="black" d="M54.23,-639C64.19,-639 76.4,-639 89.84,-639"/>
</g>
<!-- 6621118928 -->
<g id="node8" class="node">
<title>6621118928</title>
<ellipse fill="none" stroke="black" cx="253.8" cy="-585" rx="27" ry="18"/>
<text text-anchor="middle" x="253.8" y="-579.38" font-family="Times,serif" font-size="15.00">and</text>
</g>
<!-- 6621131280&#45;&#45;6621118928 -->
<g id="edge18" class="edge">
<title>6621131280&#45;&#45;6621118928</title>
<path fill="none" stroke="black" d="M52.92,-633.01C96.24,-622.61 184.95,-601.3 228.11,-590.93"/>
</g>
<!-- 6623249104 -->
<g id="node20" class="node">
<title>6623249104</title>
<ellipse fill="none" stroke="black" cx="253.8" cy="-531" rx="152.75" ry="18"/>
<text text-anchor="middle" x="253.8" y="-525.38" font-family="Times,serif" font-size="15.00">enter senddate acknowledgement</text>
</g>
<!-- 6621131280&#45;&#45;6623249104 -->
<g id="edge19" class="edge">
<title>6621131280&#45;&#45;6623249104</title>
<path fill="none" stroke="black" d="M49.55,-628.64C87.91,-610.22 168.41,-571.54 215.78,-548.79"/>
</g>
<!-- 6623255312 -->
<g id="node21" class="node">
<title>6623255312</title>
<ellipse fill="none" stroke="black" cx="253.8" cy="-423" rx="27" ry="18"/>
<text text-anchor="middle" x="253.8" y="-417.38" font-family="Times,serif" font-size="15.00">xor</text>
</g>
<!-- 6621131280&#45;&#45;6623255312 -->
<g id="edge32" class="edge">
<title>6621131280&#45;&#45;6623255312</title>
<path fill="none" stroke="black" d="M43.1,-624.49C83.95,-585.24 196.35,-477.24 237.47,-437.73"/>
</g>
<!-- 6621127376 -->
<g id="node4" class="node">
<title>6621127376</title>
<ellipse fill="black" stroke="black" cx="657.37" cy="-786" rx="2.7" ry="2.7"/>
</g>
<!-- 6621126224&#45;&#45;6621127376 -->
<g id="edge2" class="edge">
<title>6621126224&#45;&#45;6621127376</title>
<path fill="none" stroke="black" d="M280.83,-749.53C365.3,-757.73 627.78,-783.22 654.22,-785.79"/>
</g>
<!-- 6621127120 -->
<g id="node5" class="node">
<title>6621127120</title>
<ellipse fill="none" stroke="black" cx="657.37" cy="-747" rx="203.78" ry="18"/>
<text text-anchor="middle" x="657.37" y="-741.38" font-family="Times,serif" font-size="15.00">no permit needed or only notification needed</text>
</g>
<!-- 6621126224&#45;&#45;6621127120 -->
<g id="edge3" class="edge">
<title>6621126224&#45;&#45;6621127120</title>
<path fill="none" stroke="black" d="M281.14,-747C317.18,-747 385.18,-747 453.51,-747"/>
</g>
<!-- 6621126416 -->
<g id="node9" class="node">
<title>6621126416</title>
<ellipse fill="none" stroke="black" cx="657.37" cy="-666" rx="160.64" ry="18"/>
<text text-anchor="middle" x="657.37" y="-660.38" font-family="Times,serif" font-size="15.00">forward to the competent authority</text>
</g>
<!-- 6621118928&#45;&#45;6621126416 -->
<g id="edge7" class="edge">
<title>6621118928&#45;&#45;6621126416</title>
<path fill="none" stroke="black" d="M279.92,-590.07C338.3,-601.84 485.15,-631.46 577.23,-650.04"/>
</g>
<!-- 6621134096 -->
<g id="node10" class="node">
<title>6621134096</title>
<ellipse fill="none" stroke="black" cx="657.37" cy="-612" rx="124.86" ry="18"/>
<text text-anchor="middle" x="657.37" y="-606.38" font-family="Times,serif" font-size="15.00">phase application received</text>
</g>
<!-- 6621118928&#45;&#45;6621134096 -->
<g id="edge8" class="edge">
<title>6621118928&#45;&#45;6621134096</title>
<path fill="none" stroke="black" d="M281.14,-586.77C333.4,-590.29 452.92,-598.32 543.12,-604.39"/>
</g>
<!-- 6621128272 -->
<g id="node11" class="node">
<title>6621128272</title>
<ellipse fill="none" stroke="black" cx="657.37" cy="-558" rx="47" ry="18"/>
<text text-anchor="middle" x="657.37" y="-552.38" font-family="Times,serif" font-size="15.00">xor loop</text>
</g>
<!-- 6621118928&#45;&#45;6621128272 -->
<g id="edge17" class="edge">
<title>6621118928&#45;&#45;6621128272</title>
<path fill="none" stroke="black" d="M281.14,-583.23C348.24,-578.72 526.17,-566.75 610.64,-561.08"/>
</g>
<!-- 6621123600 -->
<g id="node12" class="node">
<title>6621123600</title>
<ellipse fill="none" stroke="black" cx="1097.25" cy="-651" rx="47" ry="18"/>
<text text-anchor="middle" x="1097.25" y="-645.38" font-family="Times,serif" font-size="15.00">xor loop</text>
</g>
<!-- 6621128272&#45;&#45;6621123600 -->
<g id="edge11" class="edge">
<title>6621128272&#45;&#45;6621123600</title>
<path fill="none" stroke="black" d="M699.17,-566.67C782.61,-584.39 971.91,-624.59 1055.39,-642.32"/>
</g>
<!-- 6621129360 -->
<g id="node15" class="node">
<title>6621129360</title>
<ellipse fill="none" stroke="black" cx="1097.25" cy="-558" rx="27" ry="18"/>
<text text-anchor="middle" x="1097.25" y="-552.38" font-family="Times,serif" font-size="15.00">seq</text>
</g>
<!-- 6621128272&#45;&#45;6621129360 -->
<g id="edge16" class="edge">
<title>6621128272&#45;&#45;6621129360</title>
<path fill="none" stroke="black" d="M704.82,-558C796.38,-558 997.56,-558 1069.78,-558"/>
</g>
<!-- 6621129552 -->
<g id="node13" class="node">
<title>6621129552</title>
<ellipse fill="none" stroke="black" cx="1480.83" cy="-690" rx="121.18" ry="18"/>
<text text-anchor="middle" x="1480.83" y="-684.38" font-family="Times,serif" font-size="15.00">send confirmation receipt</text>
</g>
<!-- 6621123600&#45;&#45;6621129552 -->
<g id="edge9" class="edge">
<title>6621123600&#45;&#45;6621129552</title>
<path fill="none" stroke="black" d="M1143.14,-655.59C1200.96,-661.5 1303.13,-671.94 1379.8,-679.78"/>
</g>
<!-- 6621130896 -->
<g id="node14" class="node">
<title>6621130896</title>
<ellipse fill="black" stroke="black" cx="1480.83" cy="-651" rx="2.7" ry="2.7"/>
</g>
<!-- 6621123600&#45;&#45;6621130896 -->
<g id="edge10" class="edge">
<title>6621123600&#45;&#45;6621130896</title>
<path fill="none" stroke="black" d="M1144.66,-651C1240.79,-651 1454.69,-651 1477.8,-651"/>
</g>
<!-- 6623256848 -->
<g id="node16" class="node">
<title>6623256848</title>
<ellipse fill="none" stroke="black" cx="1480.83" cy="-612" rx="125.39" ry="18"/>
<text text-anchor="middle" x="1480.83" y="-606.38" font-family="Times,serif" font-size="15.00">inform BAG administrator</text>
</g>
<!-- 6621129360&#45;&#45;6623256848 -->
<g id="edge12" class="edge">
<title>6621129360&#45;&#45;6623256848</title>
<path fill="none" stroke="black" d="M1124.18,-561.67C1177.85,-569.27 1303.36,-587.03 1389.94,-599.28"/>
</g>
<!-- 6623256592 -->
<g id="node17" class="node">
<title>6623256592</title>
<ellipse fill="none" stroke="black" cx="1480.83" cy="-558" rx="147.49" ry="18"/>
<text text-anchor="middle" x="1480.83" y="-552.38" font-family="Times,serif" font-size="15.00">regular procedure without MER</text>
</g>
<!-- 6621129360&#45;&#45;6623256592 -->
<g id="edge13" class="edge">
<title>6621129360&#45;&#45;6623256592</title>
<path fill="none" stroke="black" d="M1124.48,-558C1167.33,-558 1255.38,-558 1333.11,-558"/>
</g>
<!-- 6623262800 -->
<g id="node18" class="node">
<title>6623262800</title>
<ellipse fill="none" stroke="black" cx="1480.83" cy="-504" rx="140.65" ry="18"/>
<text text-anchor="middle" x="1480.83" y="-498.38" font-family="Times,serif" font-size="15.00">create procedure confirmation</text>
</g>
<!-- 6621129360&#45;&#45;6623262800 -->
<g id="edge14" class="edge">
<title>6621129360&#45;&#45;6623262800</title>
<path fill="none" stroke="black" d="M1124.18,-554.33C1176.76,-546.89 1298.29,-529.69 1384.62,-517.47"/>
</g>
<!-- 6623253328 -->
<g id="node19" class="node">
<title>6623253328</title>
<ellipse fill="none" stroke="black" cx="1480.83" cy="-450" rx="42.79" ry="18"/>
<text text-anchor="middle" x="1480.83" y="-444.38" font-family="Times,serif" font-size="15.00">publish</text>
</g>
<!-- 6621129360&#45;&#45;6623253328 -->
<g id="edge15" class="edge">
<title>6621129360&#45;&#45;6623253328</title>
<path fill="none" stroke="black" d="M1122.7,-551.08C1188.25,-532.53 1368.11,-481.62 1444.63,-459.96"/>
</g>
<!-- 6623263056 -->
<g id="node22" class="node">
<title>6623263056</title>
<ellipse fill="none" stroke="black" cx="657.37" cy="-423" rx="27" ry="18"/>
<text text-anchor="middle" x="657.37" y="-417.38" font-family="Times,serif" font-size="15.00">seq</text>
</g>
<!-- 6623255312&#45;&#45;6623263056 -->
<g id="edge24" class="edge">
<title>6623255312&#45;&#45;6623263056</title>
<path fill="none" stroke="black" d="M281.14,-423C353.91,-423 557.05,-423 629.93,-423"/>
</g>
<!-- 6623264208 -->
<g id="node27" class="node">
<title>6623264208</title>
<ellipse fill="none" stroke="black" cx="657.37" cy="-180" rx="27" ry="18"/>
<text text-anchor="middle" x="657.37" y="-174.38" font-family="Times,serif" font-size="15.00">seq</text>
</g>
<!-- 6623255312&#45;&#45;6623264208 -->
<g id="edge31" class="edge">
<title>6623255312&#45;&#45;6623264208</title>
<path fill="none" stroke="black" d="M274.44,-411.12C342.62,-369.86 568.64,-233.09 636.77,-191.86"/>
</g>
<!-- 6623248848 -->
<g id="node23" class="node">
<title>6623248848</title>
<ellipse fill="none" stroke="black" cx="1097.25" cy="-504" rx="200.1" ry="18"/>
<text text-anchor="middle" x="1097.25" y="-498.38" font-family="Times,serif" font-size="15.00">send send confirmation competent authority</text>
</g>
<!-- 6623263056&#45;&#45;6623248848 -->
<g id="edge20" class="edge">
<title>6623263056&#45;&#45;6623248848</title>
<path fill="none" stroke="black" d="M683.81,-427.71C745.5,-439.12 905.48,-468.71 1007.1,-487.51"/>
</g>
<!-- 6623260304 -->
<g id="node24" class="node">
<title>6623260304</title>
<ellipse fill="none" stroke="black" cx="1097.25" cy="-450" rx="169.06" ry="18"/>
<text text-anchor="middle" x="1097.25" y="-444.38" font-family="Times,serif" font-size="15.00">message change competent authority</text>
</g>
<!-- 6623263056&#45;&#45;6623260304 -->
<g id="edge21" class="edge">
<title>6623263056&#45;&#45;6623260304</title>
<path fill="none" stroke="black" d="M684.45,-424.61C735.73,-427.77 853.06,-435 949.42,-440.95"/>
</g>
<!-- 6623263952 -->
<g id="node25" class="node">
<title>6623263952</title>
<ellipse fill="none" stroke="black" cx="1097.25" cy="-396" rx="142.23" ry="18"/>
<text text-anchor="middle" x="1097.25" y="-390.38" font-family="Times,serif" font-size="15.00">request to competent authority</text>
</g>
<!-- 6623263056&#45;&#45;6623263952 -->
<g id="edge22" class="edge">
<title>6623263056&#45;&#45;6623263952</title>
<path fill="none" stroke="black" d="M684.45,-421.39C739.13,-418.02 868.94,-410.02 968.32,-403.89"/>
</g>
<!-- 6623257616 -->
<g id="node26" class="node">
<title>6623257616</title>
<ellipse fill="none" stroke="black" cx="1097.25" cy="-342" rx="197.99" ry="18"/>
<text text-anchor="middle" x="1097.25" y="-336.38" font-family="Times,serif" font-size="15.00">enter senddate letter to competent authority</text>
</g>
<!-- 6623263056&#45;&#45;6623257616 -->
<g id="edge23" class="edge">
<title>6623263056&#45;&#45;6623257616</title>
<path fill="none" stroke="black" d="M683.81,-418.29C745.59,-406.87 905.96,-377.2 1007.55,-358.41"/>
</g>
<!-- 6623044688 -->
<g id="node28" class="node">
<title>6623044688</title>
<ellipse fill="none" stroke="black" cx="1097.25" cy="-288" rx="178.53" ry="18"/>
<text text-anchor="middle" x="1097.25" y="-282.38" font-family="Times,serif" font-size="15.00">enter date termination request received</text>
</g>
<!-- 6623264208&#45;&#45;6623044688 -->
<g id="edge25" class="edge">
<title>6623264208&#45;&#45;6623044688</title>
<path fill="none" stroke="black" d="M683.17,-186.12C748.66,-202.27 928.04,-246.51 1027.52,-271.05"/>
</g>
<!-- 6623049232 -->
<g id="node29" class="node">
<title>6623049232</title>
<ellipse fill="none" stroke="black" cx="1097.25" cy="-234" rx="159.06" ry="18"/>
<text text-anchor="middle" x="1097.25" y="-228.38" font-family="Times,serif" font-size="15.00">enter senddate request termination</text>
</g>
<!-- 6623264208&#45;&#45;6623049232 -->
<g id="edge26" class="edge">
<title>6623264208&#45;&#45;6623049232</title>
<path fill="none" stroke="black" d="M684.45,-183.22C742.72,-190.4 886.31,-208.11 987.47,-220.59"/>
</g>
<!-- 6623041168 -->
<g id="node30" class="node">
<title>6623041168</title>
<ellipse fill="none" stroke="black" cx="1097.25" cy="-180" rx="124.86" ry="18"/>
<text text-anchor="middle" x="1097.25" y="-174.38" font-family="Times,serif" font-size="15.00">message terminate request</text>
</g>
<!-- 6623264208&#45;&#45;6623041168 -->
<g id="edge27" class="edge">
<title>6623264208&#45;&#45;6623041168</title>
<path fill="none" stroke="black" d="M684.78,-180C740.34,-180 872.42,-180 972.06,-180"/>
</g>
<!-- 6623186384 -->
<g id="node31" class="node">
<title>6623186384</title>
<ellipse fill="none" stroke="black" cx="1097.25" cy="-126" rx="82.77" ry="18"/>
<text text-anchor="middle" x="1097.25" y="-120.38" font-family="Times,serif" font-size="15.00">register deadline</text>
</g>
<!-- 6623264208&#45;&#45;6623186384 -->
<g id="edge28" class="edge">
<title>6623264208&#45;&#45;6623186384</title>
<path fill="none" stroke="black" d="M684.45,-176.78C750.27,-168.67 924.94,-147.13 1024.37,-134.86"/>
</g>
<!-- 6623189072 -->
<g id="node32" class="node">
<title>6623189072</title>
<ellipse fill="none" stroke="black" cx="1097.25" cy="-72" rx="115.39" ry="18"/>
<text text-anchor="middle" x="1097.25" y="-66.38" font-family="Times,serif" font-size="15.00">phase procedure aborted</text>
</g>
<!-- 6623264208&#45;&#45;6623189072 -->
<g id="edge29" class="edge">
<title>6623264208&#45;&#45;6623189072</title>
<path fill="none" stroke="black" d="M683.17,-173.88C750.02,-157.4 935.52,-111.64 1033.6,-87.45"/>
</g>
<!-- 6623196432 -->
<g id="node33" class="node">
<title>6623196432</title>
<ellipse fill="none" stroke="black" cx="1097.25" cy="-18" rx="54.36" ry="18"/>
<text text-anchor="middle" x="1097.25" y="-12.38" font-family="Times,serif" font-size="15.00">close case</text>
</g>
<!-- 6623264208&#45;&#45;6623196432 -->
<g id="edge30" class="edge">
<title>6623264208&#45;&#45;6623196432</title>
<path fill="none" stroke="black" d="M681.6,-171.4C753.48,-144.81 972.59,-63.75 1059.84,-31.47"/>
</g>
</g>
</svg>
