<?xml version="1.0" encoding="UTF-8" standalone="no"?>
<!DOCTYPE svg PUBLIC "-//W3C//DTD SVG 1.1//EN"
 "http://www.w3.org/Graphics/SVG/1.1/DTD/svg11.dtd">
<!-- Generated by graphviz version 8.0.5 (20230430.1635)
 -->
<!-- Title: pt Pages: 1 -->
<svg width="2054pt" height="1136pt"
 viewBox="0.00 0.00 2054.13 1136.00" xmlns="http://www.w3.org/2000/svg" xmlns:xlink="http://www.w3.org/1999/xlink">
<g id="graph0" class="graph" transform="scale(1 1) rotate(0) translate(4 1132)">
<title>pt</title>
<polygon fill="white" stroke="none" points="-4,4 -4,-1132 2050.13,-1132 2050.13,4 -4,4"/>
<!-- 6624544080 -->
<g id="node1" class="node">
<title>6624544080</title>
<ellipse fill="none" stroke="black" cx="27" cy="-658" rx="27" ry="18"/>
<text text-anchor="middle" x="27" y="-652.38" font-family="Times,serif" font-size="15.00">seq</text>
</g>
<!-- 5452480336 -->
<g id="node2" class="node">
<title>5452480336</title>
<ellipse fill="none" stroke="black" cx="117" cy="-855" rx="27" ry="18"/>
<text text-anchor="middle" x="117" y="-849.38" font-family="Times,serif" font-size="15.00">and</text>
</g>
<!-- 6624544080&#45;&#45;5452480336 -->
<g id="edge23" class="edge">
<title>6624544080&#45;&#45;5452480336</title>
<path fill="none" stroke="black" d="M35.81,-675.48C52.51,-712.87 91.52,-800.21 108.21,-837.56"/>
</g>
<!-- 5452479312 -->
<g id="node25" class="node">
<title>5452479312</title>
<ellipse fill="none" stroke="black" cx="117" cy="-685" rx="27" ry="18"/>
<text text-anchor="middle" x="117" y="-679.38" font-family="Times,serif" font-size="15.00">xor</text>
</g>
<!-- 6624544080&#45;&#45;5452479312 -->
<g id="edge30" class="edge">
<title>6624544080&#45;&#45;5452479312</title>
<path fill="none" stroke="black" d="M52.05,-665.38C64.46,-669.19 79.57,-673.82 91.98,-677.63"/>
</g>
<!-- 6620973648 -->
<g id="node32" class="node">
<title>6620973648</title>
<ellipse fill="none" stroke="black" cx="117" cy="-631" rx="27" ry="18"/>
<text text-anchor="middle" x="117" y="-625.38" font-family="Times,serif" font-size="15.00">xor</text>
</g>
<!-- 6624544080&#45;&#45;6620973648 -->
<g id="edge33" class="edge">
<title>6624544080&#45;&#45;6620973648</title>
<path fill="none" stroke="black" d="M52.05,-650.62C64.46,-646.81 79.57,-642.18 91.98,-638.37"/>
</g>
<!-- 6623190096 -->
<g id="node35" class="node">
<title>6623190096</title>
<ellipse fill="none" stroke="black" cx="117" cy="-506" rx="27" ry="18"/>
<text text-anchor="middle" x="117" y="-500.38" font-family="Times,serif" font-size="15.00">xor</text>
</g>
<!-- 6624544080&#45;&#45;6623190096 -->
<g id="edge64" class="edge">
<title>6624544080&#45;&#45;6623190096</title>
<path fill="none" stroke="black" d="M37.75,-641.15C54.67,-611.94 89.26,-552.19 106.2,-522.92"/>
</g>
<!-- 5452467856 -->
<g id="node3" class="node">
<title>5452467856</title>
<ellipse fill="none" stroke="black" cx="340.64" cy="-990" rx="160.64" ry="18"/>
<text text-anchor="middle" x="340.64" y="-984.38" font-family="Times,serif" font-size="15.00">forward to the competent authority</text>
</g>
<!-- 5452480336&#45;&#45;5452467856 -->
<g id="edge1" class="edge">
<title>5452480336&#45;&#45;5452467856</title>
<path fill="none" stroke="black" d="M137.67,-866.98C176.66,-890.73 263.94,-943.89 309.95,-971.92"/>
</g>
<!-- 5452467088 -->
<g id="node4" class="node">
<title>5452467088</title>
<ellipse fill="none" stroke="black" cx="340.64" cy="-936" rx="124.86" ry="18"/>
<text text-anchor="middle" x="340.64" y="-930.38" font-family="Times,serif" font-size="15.00">phase application received</text>
</g>
<!-- 5452480336&#45;&#45;5452467088 -->
<g id="edge2" class="edge">
<title>5452480336&#45;&#45;5452467088</title>
<path fill="none" stroke="black" d="M141.3,-863.52C177.2,-876.63 246.74,-902.05 293.19,-919.02"/>
</g>
<!-- 6624302800 -->
<g id="node5" class="node">
<title>6624302800</title>
<ellipse fill="none" stroke="black" cx="340.64" cy="-882" rx="149.06" ry="18"/>
<text text-anchor="middle" x="340.64" y="-876.38" font-family="Times,serif" font-size="15.00">register submission date request</text>
</g>
<!-- 5452480336&#45;&#45;6624302800 -->
<g id="edge3" class="edge">
<title>5452480336&#45;&#45;6624302800</title>
<path fill="none" stroke="black" d="M143.86,-858.15C166.3,-860.88 200.35,-865.03 233.8,-869.11"/>
</g>
<!-- 6624305808 -->
<g id="node6" class="node">
<title>6624305808</title>
<ellipse fill="none" stroke="black" cx="340.64" cy="-828" rx="147.49" ry="18"/>
<text text-anchor="middle" x="340.64" y="-822.38" font-family="Times,serif" font-size="15.00">regular procedure without MER</text>
</g>
<!-- 5452480336&#45;&#45;6624305808 -->
<g id="edge4" class="edge">
<title>5452480336&#45;&#45;6624305808</title>
<path fill="none" stroke="black" d="M143.86,-851.85C166.41,-849.1 200.7,-844.93 234.31,-840.83"/>
</g>
<!-- 6624297872 -->
<g id="node7" class="node">
<title>6624297872</title>
<ellipse fill="none" stroke="black" cx="340.64" cy="-774" rx="27" ry="18"/>
<text text-anchor="middle" x="340.64" y="-768.38" font-family="Times,serif" font-size="15.00">seq</text>
</g>
<!-- 5452480336&#45;&#45;6624297872 -->
<g id="edge22" class="edge">
<title>5452480336&#45;&#45;6624297872</title>
<path fill="none" stroke="black" d="M141.3,-846.48C183.87,-830.93 273.74,-798.09 316.32,-782.52"/>
</g>
<!-- 6620974928 -->
<g id="node8" class="node">
<title>6620974928</title>
<ellipse fill="none" stroke="black" cx="671.61" cy="-921" rx="27" ry="18"/>
<text text-anchor="middle" x="671.61" y="-915.38" font-family="Times,serif" font-size="15.00">xor</text>
</g>
<!-- 6624297872&#45;&#45;6620974928 -->
<g id="edge14" class="edge">
<title>6624297872&#45;&#45;6620974928</title>
<path fill="none" stroke="black" d="M363.73,-783.87C423.66,-810.65 588.79,-884.44 648.61,-911.17"/>
</g>
<!-- 6620976336 -->
<g id="node18" class="node">
<title>6620976336</title>
<ellipse fill="none" stroke="black" cx="671.61" cy="-774" rx="27" ry="18"/>
<text text-anchor="middle" x="671.61" y="-768.38" font-family="Times,serif" font-size="15.00">and</text>
</g>
<!-- 6624297872&#45;&#45;6620976336 -->
<g id="edge21" class="edge">
<title>6624297872&#45;&#45;6620976336</title>
<path fill="none" stroke="black" d="M368,-774C429.6,-774 582.4,-774 644.12,-774"/>
</g>
<!-- 6620971344 -->
<g id="node9" class="node">
<title>6620971344</title>
<ellipse fill="black" stroke="black" cx="1018.37" cy="-960" rx="2.7" ry="2.7"/>
</g>
<!-- 6620974928&#45;&#45;6620971344 -->
<g id="edge5" class="edge">
<title>6620974928&#45;&#45;6620971344</title>
<path fill="none" stroke="black" d="M698.52,-923.93C774.32,-932.51 991.74,-957.1 1015.29,-959.77"/>
</g>
<!-- 6620984848 -->
<g id="node10" class="node">
<title>6620984848</title>
<ellipse fill="none" stroke="black" cx="1018.37" cy="-921" rx="27" ry="18"/>
<text text-anchor="middle" x="1018.37" y="-915.38" font-family="Times,serif" font-size="15.00">seq</text>
</g>
<!-- 6620974928&#45;&#45;6620984848 -->
<g id="edge13" class="edge">
<title>6620974928&#45;&#45;6620984848</title>
<path fill="none" stroke="black" d="M699.09,-921C763.42,-921 927.33,-921 991.27,-921"/>
</g>
<!-- 6620975824 -->
<g id="node11" class="node">
<title>6620975824</title>
<ellipse fill="none" stroke="black" cx="1461.4" cy="-1110" rx="72.25" ry="18"/>
<text text-anchor="middle" x="1461.4" y="-1104.38" font-family="Times,serif" font-size="15.00">MER required</text>
</g>
<!-- 6620984848&#45;&#45;6620975824 -->
<g id="edge6" class="edge">
<title>6620984848&#45;&#45;6620975824</title>
<path fill="none" stroke="black" d="M1041.84,-930.63C1113.29,-961.25 1335.63,-1056.53 1423.82,-1094.33"/>
</g>
<!-- 6620981968 -->
<g id="node12" class="node">
<title>6620981968</title>
<ellipse fill="none" stroke="black" cx="1461.4" cy="-1056" rx="129.07" ry="18"/>
<text text-anchor="middle" x="1461.4" y="-1050.38" font-family="Times,serif" font-size="15.00">activities regular procedure</text>
</g>
<!-- 6620984848&#45;&#45;6620981968 -->
<g id="edge7" class="edge">
<title>6620984848&#45;&#45;6620981968</title>
<path fill="none" stroke="black" d="M1043.39,-928.35C1111.88,-949.32 1309.35,-1009.76 1405.92,-1039.32"/>
</g>
<!-- 6620981776 -->
<g id="node13" class="node">
<title>6620981776</title>
<ellipse fill="none" stroke="black" cx="1461.4" cy="-1002" rx="91.19" ry="18"/>
<text text-anchor="middle" x="1461.4" y="-996.38" font-family="Times,serif" font-size="15.00">phased application</text>
</g>
<!-- 6620984848&#45;&#45;6620981776 -->
<g id="edge8" class="edge">
<title>6620984848&#45;&#45;6620981776</title>
<path fill="none" stroke="black" d="M1044.66,-925.65C1111.38,-937.9 1293.81,-971.4 1393.38,-989.69"/>
</g>
<!-- 6620974480 -->
<g id="node14" class="node">
<title>6620974480</title>
<ellipse fill="none" stroke="black" cx="1461.4" cy="-948" rx="140.65" ry="18"/>
<text text-anchor="middle" x="1461.4" y="-942.38" font-family="Times,serif" font-size="15.00">create procedure confirmation</text>
</g>
<!-- 6620984848&#45;&#45;6620974480 -->
<g id="edge9" class="edge">
<title>6620984848&#45;&#45;6620974480</title>
<path fill="none" stroke="black" d="M1045.63,-922.61C1101.08,-926 1233.22,-934.09 1333.57,-940.24"/>
</g>
<!-- 6620981328 -->
<g id="node15" class="node">
<title>6620981328</title>
<ellipse fill="none" stroke="black" cx="1461.4" cy="-894" rx="42.79" ry="18"/>
<text text-anchor="middle" x="1461.4" y="-888.38" font-family="Times,serif" font-size="15.00">publish</text>
</g>
<!-- 6620984848&#45;&#45;6620981328 -->
<g id="edge10" class="edge">
<title>6620984848&#45;&#45;6620981328</title>
<path fill="none" stroke="black" d="M1045.63,-919.39C1119.44,-914.87 1329.13,-902.04 1418.85,-896.54"/>
</g>
<!-- 6620976912 -->
<g id="node16" class="node">
<title>6620976912</title>
<ellipse fill="none" stroke="black" cx="1461.4" cy="-840" rx="134.86" ry="18"/>
<text text-anchor="middle" x="1461.4" y="-834.38" font-family="Times,serif" font-size="15.00">read field phased application</text>
</g>
<!-- 6620984848&#45;&#45;6620976912 -->
<g id="edge11" class="edge">
<title>6620984848&#45;&#45;6620976912</title>
<path fill="none" stroke="black" d="M1044.66,-916.35C1108.54,-904.62 1278.5,-873.41 1380.24,-854.72"/>
</g>
<!-- 6620980944 -->
<g id="node17" class="node">
<title>6620980944</title>
<ellipse fill="none" stroke="black" cx="1461.4" cy="-786" rx="105.92" ry="18"/>
<text text-anchor="middle" x="1461.4" y="-780.38" font-family="Times,serif" font-size="15.00">start WABOprocedure</text>
</g>
<!-- 6620984848&#45;&#45;6620980944 -->
<g id="edge12" class="edge">
<title>6620984848&#45;&#45;6620980944</title>
<path fill="none" stroke="black" d="M1043.39,-913.65C1112.42,-892.52 1312.47,-831.28 1408.19,-801.98"/>
</g>
<!-- 6620979344 -->
<g id="node19" class="node">
<title>6620979344</title>
<ellipse fill="none" stroke="black" cx="1018.37" cy="-786" rx="152.75" ry="18"/>
<text text-anchor="middle" x="1018.37" y="-780.38" font-family="Times,serif" font-size="15.00">enter senddate acknowledgement</text>
</g>
<!-- 6620976336&#45;&#45;6620979344 -->
<g id="edge15" class="edge">
<title>6620976336&#45;&#45;6620979344</title>
<path fill="none" stroke="black" d="M698.81,-774.91C735.81,-776.2 806.17,-778.65 871.37,-780.92"/>
</g>
<!-- 6620978384 -->
<g id="node20" class="node">
<title>6620978384</title>
<ellipse fill="none" stroke="black" cx="1018.37" cy="-732" rx="27" ry="18"/>
<text text-anchor="middle" x="1018.37" y="-726.38" font-family="Times,serif" font-size="15.00">seq</text>
</g>
<!-- 6620976336&#45;&#45;6620978384 -->
<g id="edge20" class="edge">
<title>6620976336&#45;&#45;6620978384</title>
<path fill="none" stroke="black" d="M698.52,-770.84C762.57,-763.04 927.76,-742.92 991.62,-735.14"/>
</g>
<!-- 6620981584 -->
<g id="node21" class="node">
<title>6620981584</title>
<ellipse fill="none" stroke="black" cx="1461.4" cy="-732" rx="108.55" ry="18"/>
<text text-anchor="middle" x="1461.4" y="-726.38" font-family="Times,serif" font-size="15.00">OLO messaging active</text>
</g>
<!-- 6620978384&#45;&#45;6620981584 -->
<g id="edge16" class="edge">
<title>6620978384&#45;&#45;6620981584</title>
<path fill="none" stroke="black" d="M1045.63,-732C1104.7,-732 1250.78,-732 1352.76,-732"/>
</g>
<!-- 6620985168 -->
<g id="node22" class="node">
<title>6620985168</title>
<ellipse fill="none" stroke="black" cx="1461.4" cy="-678" rx="47" ry="18"/>
<text text-anchor="middle" x="1461.4" y="-672.38" font-family="Times,serif" font-size="15.00">xor loop</text>
</g>
<!-- 6620978384&#45;&#45;6620985168 -->
<g id="edge19" class="edge">
<title>6620978384&#45;&#45;6620985168</title>
<path fill="none" stroke="black" d="M1045.31,-728.82C1118.06,-719.92 1324.65,-694.62 1416.01,-683.43"/>
</g>
<!-- 6620983248 -->
<g id="node23" class="node">
<title>6620983248</title>
<ellipse fill="none" stroke="black" cx="1887.07" cy="-697" rx="121.18" ry="18"/>
<text text-anchor="middle" x="1887.07" y="-691.38" font-family="Times,serif" font-size="15.00">send confirmation receipt</text>
</g>
<!-- 6620985168&#45;&#45;6620983248 -->
<g id="edge17" class="edge">
<title>6620985168&#45;&#45;6620983248</title>
<path fill="none" stroke="black" d="M1508.55,-680.07C1570.96,-682.87 1684.38,-687.95 1770.66,-691.82"/>
</g>
<!-- 6620978448 -->
<g id="node24" class="node">
<title>6620978448</title>
<ellipse fill="black" stroke="black" cx="1887.07" cy="-658" rx="2.7" ry="2.7"/>
</g>
<!-- 6620985168&#45;&#45;6620978448 -->
<g id="edge18" class="edge">
<title>6620985168&#45;&#45;6620978448</title>
<path fill="none" stroke="black" d="M1508.55,-675.82C1612.78,-670.9 1859.29,-659.26 1884.06,-658.1"/>
</g>
<!-- 6620980496 -->
<g id="node26" class="node">
<title>6620980496</title>
<ellipse fill="black" stroke="black" cx="340.64" cy="-720" rx="2.7" ry="2.7"/>
</g>
<!-- 5452479312&#45;&#45;6620980496 -->
<g id="edge24" class="edge">
<title>5452479312&#45;&#45;6620980496</title>
<path fill="none" stroke="black" d="M143.42,-689.01C197.55,-697.56 320.63,-717 337.67,-719.69"/>
</g>
<!-- 6620972432 -->
<g id="node27" class="node">
<title>6620972432</title>
<ellipse fill="none" stroke="black" cx="340.64" cy="-681" rx="27" ry="18"/>
<text text-anchor="middle" x="340.64" y="-675.38" font-family="Times,serif" font-size="15.00">and</text>
</g>
<!-- 5452479312&#45;&#45;6620972432 -->
<g id="edge29" class="edge">
<title>5452479312&#45;&#45;6620972432</title>
<path fill="none" stroke="black" d="M144.3,-684.53C186.95,-683.76 270.74,-682.24 313.38,-681.47"/>
</g>
<!-- 6620975440 -->
<g id="node28" class="node">
<title>6620975440</title>
<ellipse fill="none" stroke="black" cx="671.61" cy="-714" rx="134.33" ry="18"/>
<text text-anchor="middle" x="671.61" y="-708.38" font-family="Times,serif" font-size="15.00">send procedure confirmation</text>
</g>
<!-- 6620972432&#45;&#45;6620975440 -->
<g id="edge25" class="edge">
<title>6620972432&#45;&#45;6620975440</title>
<path fill="none" stroke="black" d="M367.73,-683.62C409.44,-687.8 493.49,-696.23 562.49,-703.15"/>
</g>
<!-- 6620986768 -->
<g id="node29" class="node">
<title>6620986768</title>
<ellipse fill="none" stroke="black" cx="671.61" cy="-660" rx="27" ry="18"/>
<text text-anchor="middle" x="671.61" y="-654.38" font-family="Times,serif" font-size="15.00">xor</text>
</g>
<!-- 6620972432&#45;&#45;6620986768 -->
<g id="edge28" class="edge">
<title>6620972432&#45;&#45;6620986768</title>
<path fill="none" stroke="black" d="M368,-679.32C429.75,-675.38 583.16,-665.58 644.58,-661.66"/>
</g>
<!-- 6625025872 -->
<g id="node30" class="node">
<title>6625025872</title>
<ellipse fill="black" stroke="black" cx="1018.37" cy="-693" rx="2.7" ry="2.7"/>
</g>
<!-- 6620986768&#45;&#45;6625025872 -->
<g id="edge26" class="edge">
<title>6620986768&#45;&#45;6625025872</title>
<path fill="none" stroke="black" d="M698.81,-662.51C774.86,-669.79 991.8,-690.55 1015.3,-692.8"/>
</g>
<!-- 6625019152 -->
<g id="node31" class="node">
<title>6625019152</title>
<ellipse fill="none" stroke="black" cx="1018.37" cy="-654" rx="176.42" ry="18"/>
<text text-anchor="middle" x="1018.37" y="-648.38" font-family="Times,serif" font-size="15.00">enter senddate procedure confirmation</text>
</g>
<!-- 6620986768&#45;&#45;6625019152 -->
<g id="edge27" class="edge">
<title>6620986768&#45;&#45;6625019152</title>
<path fill="none" stroke="black" d="M699.09,-659.54C731.02,-658.98 787.48,-658 844.07,-657.02"/>
</g>
<!-- 6623192400 -->
<g id="node33" class="node">
<title>6623192400</title>
<ellipse fill="black" stroke="black" cx="340.64" cy="-635" rx="2.7" ry="2.7"/>
</g>
<!-- 6620973648&#45;&#45;6623192400 -->
<g id="edge31" class="edge">
<title>6620973648&#45;&#45;6623192400</title>
<path fill="none" stroke="black" d="M144.3,-631.47C198.88,-632.46 320.81,-634.66 337.69,-634.96"/>
</g>
<!-- 6623191312 -->
<g id="node34" class="node">
<title>6623191312</title>
<ellipse fill="none" stroke="black" cx="340.64" cy="-596" rx="99.08" ry="18"/>
<text text-anchor="middle" x="340.64" y="-590.38" font-family="Times,serif" font-size="15.00">terminate on request</text>
</g>
<!-- 6620973648&#45;&#45;6623191312 -->
<g id="edge32" class="edge">
<title>6620973648&#45;&#45;6623191312</title>
<path fill="none" stroke="black" d="M143.42,-626.99C172.87,-622.33 222.74,-614.46 264.83,-607.81"/>
</g>
<!-- 6623195792 -->
<g id="node36" class="node">
<title>6623195792</title>
<ellipse fill="none" stroke="black" cx="340.64" cy="-506" rx="27" ry="18"/>
<text text-anchor="middle" x="340.64" y="-500.38" font-family="Times,serif" font-size="15.00">seq</text>
</g>
<!-- 6623190096&#45;&#45;6623195792 -->
<g id="edge49" class="edge">
<title>6623190096&#45;&#45;6623195792</title>
<path fill="none" stroke="black" d="M144.3,-506C186.95,-506 270.74,-506 313.38,-506"/>
</g>
<!-- 6620549776 -->
<g id="node52" class="node">
<title>6620549776</title>
<ellipse fill="none" stroke="black" cx="340.64" cy="-99" rx="27" ry="18"/>
<text text-anchor="middle" x="340.64" y="-93.38" font-family="Times,serif" font-size="15.00">seq</text>
</g>
<!-- 6623190096&#45;&#45;6620549776 -->
<g id="edge63" class="edge">
<title>6623190096&#45;&#45;6620549776</title>
<path fill="none" stroke="black" d="M127.24,-489.03C163.29,-422.83 294.24,-182.37 330.36,-116.04"/>
</g>
<!-- 6620551952 -->
<g id="node37" class="node">
<title>6620551952</title>
<ellipse fill="none" stroke="black" cx="671.61" cy="-546" rx="27" ry="18"/>
<text text-anchor="middle" x="671.61" y="-540.38" font-family="Times,serif" font-size="15.00">and</text>
</g>
<!-- 6623195792&#45;&#45;6620551952 -->
<g id="edge38" class="edge">
<title>6623195792&#45;&#45;6620551952</title>
<path fill="none" stroke="black" d="M367.73,-509.17C429.28,-516.66 582.97,-535.34 644.52,-542.83"/>
</g>
<!-- 6620546640 -->
<g id="node42" class="node">
<title>6620546640</title>
<ellipse fill="none" stroke="black" cx="671.61" cy="-471" rx="27" ry="18"/>
<text text-anchor="middle" x="671.61" y="-465.38" font-family="Times,serif" font-size="15.00">xor</text>
</g>
<!-- 6623195792&#45;&#45;6620546640 -->
<g id="edge48" class="edge">
<title>6623195792&#45;&#45;6620546640</title>
<path fill="none" stroke="black" d="M367.73,-503.22C429.28,-496.68 582.97,-480.32 644.52,-473.78"/>
</g>
<!-- 6620546448 -->
<g id="node38" class="node">
<title>6620546448</title>
<ellipse fill="none" stroke="black" cx="1018.37" cy="-600" rx="156.43" ry="18"/>
<text text-anchor="middle" x="1018.37" y="-594.38" font-family="Times,serif" font-size="15.00">subcases completeness completed</text>
</g>
<!-- 6620551952&#45;&#45;6620546448 -->
<g id="edge34" class="edge">
<title>6620551952&#45;&#45;6620546448</title>
<path fill="none" stroke="black" d="M698.24,-550.01C745.21,-557.37 847.25,-573.35 923.38,-585.28"/>
</g>
<!-- 6620555856 -->
<g id="node39" class="node">
<title>6620555856</title>
<ellipse fill="none" stroke="black" cx="1018.37" cy="-546" rx="27" ry="18"/>
<text text-anchor="middle" x="1018.37" y="-540.38" font-family="Times,serif" font-size="15.00">seq</text>
</g>
<!-- 6620551952&#45;&#45;6620555856 -->
<g id="edge37" class="edge">
<title>6620551952&#45;&#45;6620555856</title>
<path fill="none" stroke="black" d="M699.09,-546C763.42,-546 927.33,-546 991.27,-546"/>
</g>
<!-- 6620549840 -->
<g id="node40" class="node">
<title>6620549840</title>
<ellipse fill="none" stroke="black" cx="1461.4" cy="-612" rx="131.18" ry="18"/>
<text text-anchor="middle" x="1461.4" y="-606.38" font-family="Times,serif" font-size="15.00">treat subcases completeness</text>
</g>
<!-- 6620555856&#45;&#45;6620549840 -->
<g id="edge35" class="edge">
<title>6620555856&#45;&#45;6620549840</title>
<path fill="none" stroke="black" d="M1044.98,-549.83C1107.22,-559.15 1268.74,-583.32 1371.06,-598.63"/>
</g>
<!-- 6620550800 -->
<g id="node41" class="node">
<title>6620550800</title>
<ellipse fill="none" stroke="black" cx="1461.4" cy="-558" rx="86.46" ry="18"/>
<text text-anchor="middle" x="1461.4" y="-552.38" font-family="Times,serif" font-size="15.00">procedure change</text>
</g>
<!-- 6620555856&#45;&#45;6620550800 -->
<g id="edge36" class="edge">
<title>6620555856&#45;&#45;6620550800</title>
<path fill="none" stroke="black" d="M1045.63,-546.71C1109.24,-548.45 1273.77,-552.92 1375.45,-555.69"/>
</g>
<!-- 6620555984 -->
<g id="node43" class="node">
<title>6620555984</title>
<ellipse fill="none" stroke="black" cx="1018.37" cy="-471" rx="27" ry="18"/>
<text text-anchor="middle" x="1018.37" y="-465.38" font-family="Times,serif" font-size="15.00">seq</text>
</g>
<!-- 6620546640&#45;&#45;6620555984 -->
<g id="edge43" class="edge">
<title>6620546640&#45;&#45;6620555984</title>
<path fill="none" stroke="black" d="M699.09,-471C763.42,-471 927.33,-471 991.27,-471"/>
</g>
<!-- 6620550672 -->
<g id="node48" class="node">
<title>6620550672</title>
<ellipse fill="none" stroke="black" cx="1018.37" cy="-369" rx="27" ry="18"/>
<text text-anchor="middle" x="1018.37" y="-363.38" font-family="Times,serif" font-size="15.00">seq</text>
</g>
<!-- 6620546640&#45;&#45;6620550672 -->
<g id="edge47" class="edge">
<title>6620546640&#45;&#45;6620550672</title>
<path fill="none" stroke="black" d="M696.85,-463.83C760.15,-445.1 929.88,-394.88 993.15,-376.16"/>
</g>
<!-- 6620558288 -->
<g id="node44" class="node">
<title>6620558288</title>
<ellipse fill="none" stroke="black" cx="1461.4" cy="-504" rx="27" ry="18"/>
<text text-anchor="middle" x="1461.4" y="-498.38" font-family="Times,serif" font-size="15.00">xor</text>
</g>
<!-- 6620555984&#45;&#45;6620558288 -->
<g id="edge41" class="edge">
<title>6620555984&#45;&#45;6620558288</title>
<path fill="none" stroke="black" d="M1045.63,-472.97C1124.08,-478.83 1356.01,-496.19 1434.27,-502.04"/>
</g>
<!-- 6620547536 -->
<g id="node47" class="node">
<title>6620547536</title>
<ellipse fill="none" stroke="black" cx="1461.4" cy="-450" rx="132.23" ry="18"/>
<text text-anchor="middle" x="1461.4" y="-444.38" font-family="Times,serif" font-size="15.00">registration date publication</text>
</g>
<!-- 6620555984&#45;&#45;6620547536 -->
<g id="edge42" class="edge">
<title>6620555984&#45;&#45;6620547536</title>
<path fill="none" stroke="black" d="M1045.63,-469.75C1101.5,-467.09 1235.21,-460.72 1335.83,-455.93"/>
</g>
<!-- 6620551504 -->
<g id="node45" class="node">
<title>6620551504</title>
<ellipse fill="black" stroke="black" cx="1887.07" cy="-523" rx="2.7" ry="2.7"/>
</g>
<!-- 6620558288&#45;&#45;6620551504 -->
<g id="edge39" class="edge">
<title>6620558288&#45;&#45;6620551504</title>
<path fill="none" stroke="black" d="M1488.58,-505.17C1576.62,-509.12 1857.94,-521.74 1884.11,-522.91"/>
</g>
<!-- 6620561296 -->
<g id="node46" class="node">
<title>6620561296</title>
<ellipse fill="none" stroke="black" cx="1887.07" cy="-484" rx="68.04" ry="18"/>
<text text-anchor="middle" x="1887.07" y="-478.38" font-family="Times,serif" font-size="15.00">suspend term</text>
</g>
<!-- 6620558288&#45;&#45;6620561296 -->
<g id="edge40" class="edge">
<title>6620558288&#45;&#45;6620561296</title>
<path fill="none" stroke="black" d="M1488.58,-502.76C1553.71,-499.69 1724.6,-491.62 1819.74,-487.13"/>
</g>
<!-- 6620554832 -->
<g id="node49" class="node">
<title>6620554832</title>
<ellipse fill="none" stroke="black" cx="1461.4" cy="-396" rx="84.35" ry="18"/>
<text text-anchor="middle" x="1461.4" y="-390.38" font-family="Times,serif" font-size="15.00">request complete</text>
</g>
<!-- 6620550672&#45;&#45;6620554832 -->
<g id="edge44" class="edge">
<title>6620550672&#45;&#45;6620554832</title>
<path fill="none" stroke="black" d="M1045.63,-370.61C1110.17,-374.56 1278.59,-384.87 1379.86,-391.07"/>
</g>
<!-- 6620545488 -->
<g id="node50" class="node">
<title>6620545488</title>
<ellipse fill="none" stroke="black" cx="1461.4" cy="-342" rx="105.92" ry="18"/>
<text text-anchor="middle" x="1461.4" y="-336.38" font-family="Times,serif" font-size="15.00">send letter in progress</text>
</g>
<!-- 6620550672&#45;&#45;6620545488 -->
<g id="edge45" class="edge">
<title>6620550672&#45;&#45;6620545488</title>
<path fill="none" stroke="black" d="M1045.63,-367.39C1106.37,-363.67 1259.11,-354.32 1361.3,-348.07"/>
</g>
<!-- 6620561168 -->
<g id="node51" class="node">
<title>6620561168</title>
<ellipse fill="none" stroke="black" cx="1461.4" cy="-288" rx="128.02" ry="18"/>
<text text-anchor="middle" x="1461.4" y="-282.38" font-family="Times,serif" font-size="15.00">phase application receptive</text>
</g>
<!-- 6620550672&#45;&#45;6620561168 -->
<g id="edge46" class="edge">
<title>6620550672&#45;&#45;6620561168</title>
<path fill="none" stroke="black" d="M1044.66,-364.35C1108.82,-352.57 1279.96,-321.14 1381.55,-302.48"/>
</g>
<!-- 6620549456 -->
<g id="node53" class="node">
<title>6620549456</title>
<ellipse fill="none" stroke="black" cx="671.61" cy="-126" rx="27" ry="18"/>
<text text-anchor="middle" x="671.61" y="-120.38" font-family="Times,serif" font-size="15.00">xor</text>
</g>
<!-- 6620549776&#45;&#45;6620549456 -->
<g id="edge58" class="edge">
<title>6620549776&#45;&#45;6620549456</title>
<path fill="none" stroke="black" d="M367.73,-101.14C429.28,-106.19 582.97,-118.81 644.52,-123.86"/>
</g>
<!-- 6620546832 -->
<g id="node62" class="node">
<title>6620546832</title>
<ellipse fill="none" stroke="black" cx="671.61" cy="-72" rx="27" ry="18"/>
<text text-anchor="middle" x="671.61" y="-66.38" font-family="Times,serif" font-size="15.00">and</text>
</g>
<!-- 6620549776&#45;&#45;6620546832 -->
<g id="edge61" class="edge">
<title>6620549776&#45;&#45;6620546832</title>
<path fill="none" stroke="black" d="M367.73,-96.86C429.28,-91.81 582.97,-79.19 644.52,-74.14"/>
</g>
<!-- 5453435536 -->
<g id="node65" class="node">
<title>5453435536</title>
<ellipse fill="none" stroke="black" cx="671.61" cy="-18" rx="54.36" ry="18"/>
<text text-anchor="middle" x="671.61" y="-12.38" font-family="Times,serif" font-size="15.00">close case</text>
</g>
<!-- 6620549776&#45;&#45;5453435536 -->
<g id="edge62" class="edge">
<title>6620549776&#45;&#45;5453435536</title>
<path fill="none" stroke="black" d="M366.37,-92.91C421.88,-79.24 557.01,-45.97 626.99,-28.74"/>
</g>
<!-- 6620555472 -->
<g id="node54" class="node">
<title>6620555472</title>
<ellipse fill="none" stroke="black" cx="1018.37" cy="-180" rx="27" ry="18"/>
<text text-anchor="middle" x="1018.37" y="-174.38" font-family="Times,serif" font-size="15.00">seq</text>
</g>
<!-- 6620549456&#45;&#45;6620555472 -->
<g id="edge52" class="edge">
<title>6620549456&#45;&#45;6620555472</title>
<path fill="none" stroke="black" d="M698.24,-130.01C762.07,-140.01 927.56,-165.93 991.57,-175.96"/>
</g>
<!-- 6620554960 -->
<g id="node57" class="node">
<title>6620554960</title>
<ellipse fill="none" stroke="black" cx="1018.37" cy="-126" rx="27" ry="18"/>
<text text-anchor="middle" x="1018.37" y="-120.38" font-family="Times,serif" font-size="15.00">seq</text>
</g>
<!-- 6620549456&#45;&#45;6620554960 -->
<g id="edge57" class="edge">
<title>6620549456&#45;&#45;6620554960</title>
<path fill="none" stroke="black" d="M699.09,-126C763.42,-126 927.33,-126 991.27,-126"/>
</g>
<!-- 6620553360 -->
<g id="node55" class="node">
<title>6620553360</title>
<ellipse fill="none" stroke="black" cx="1461.4" cy="-234" rx="148.01" ry="18"/>
<text text-anchor="middle" x="1461.4" y="-228.38" font-family="Times,serif" font-size="15.00">phase only notification required</text>
</g>
<!-- 6620555472&#45;&#45;6620553360 -->
<g id="edge50" class="edge">
<title>6620555472&#45;&#45;6620553360</title>
<path fill="none" stroke="black" d="M1045.31,-183.18C1104.67,-190.44 1253.15,-208.62 1355.42,-221.15"/>
</g>
<!-- 6620554768 -->
<g id="node56" class="node">
<title>6620554768</title>
<ellipse fill="none" stroke="black" cx="1461.4" cy="-180" rx="230.61" ry="18"/>
<text text-anchor="middle" x="1461.4" y="-174.38" font-family="Times,serif" font-size="15.00">create letter no permit or only notification required</text>
</g>
<!-- 6620555472&#45;&#45;6620554768 -->
<g id="edge51" class="edge">
<title>6620555472&#45;&#45;6620554768</title>
<path fill="none" stroke="black" d="M1045.63,-180C1083.23,-180 1156.09,-180 1230.39,-180"/>
</g>
<!-- 5453443664 -->
<g id="node58" class="node">
<title>5453443664</title>
<ellipse fill="none" stroke="black" cx="1461.4" cy="-126" rx="178.53" ry="18"/>
<text text-anchor="middle" x="1461.4" y="-120.38" font-family="Times,serif" font-size="15.00">enter date termination request received</text>
</g>
<!-- 6620554960&#45;&#45;5453443664 -->
<g id="edge53" class="edge">
<title>6620554960&#45;&#45;5453443664</title>
<path fill="none" stroke="black" d="M1045.63,-126C1092.04,-126 1192.17,-126 1282.42,-126"/>
</g>
<!-- 5453433808 -->
<g id="node59" class="node">
<title>5453433808</title>
<ellipse fill="none" stroke="black" cx="1461.4" cy="-72" rx="27" ry="18"/>
<text text-anchor="middle" x="1461.4" y="-66.38" font-family="Times,serif" font-size="15.00">and</text>
</g>
<!-- 6620554960&#45;&#45;5453433808 -->
<g id="edge56" class="edge">
<title>6620554960&#45;&#45;5453433808</title>
<path fill="none" stroke="black" d="M1045.31,-122.82C1123.51,-113.25 1356.34,-84.74 1434.49,-75.17"/>
</g>
<!-- 5453446096 -->
<g id="node60" class="node">
<title>5453446096</title>
<ellipse fill="none" stroke="black" cx="1887.07" cy="-99" rx="124.86" ry="18"/>
<text text-anchor="middle" x="1887.07" y="-93.38" font-family="Times,serif" font-size="15.00">message terminate request</text>
</g>
<!-- 5453433808&#45;&#45;5453446096 -->
<g id="edge54" class="edge">
<title>5453433808&#45;&#45;5453446096</title>
<path fill="none" stroke="black" d="M1488.58,-73.67C1543.88,-77.19 1675.42,-85.58 1772.1,-91.74"/>
</g>
<!-- 5453432976 -->
<g id="node61" class="node">
<title>5453432976</title>
<ellipse fill="none" stroke="black" cx="1887.07" cy="-45" rx="159.06" ry="18"/>
<text text-anchor="middle" x="1887.07" y="-39.38" font-family="Times,serif" font-size="15.00">enter senddate request termination</text>
</g>
<!-- 5453433808&#45;&#45;5453432976 -->
<g id="edge55" class="edge">
<title>5453433808&#45;&#45;5453432976</title>
<path fill="none" stroke="black" d="M1488.58,-70.33C1539.28,-67.1 1654.06,-59.79 1747.31,-53.84"/>
</g>
<!-- 5453431376 -->
<g id="node63" class="node">
<title>5453431376</title>
<ellipse fill="none" stroke="black" cx="1018.37" cy="-72" rx="82.77" ry="18"/>
<text text-anchor="middle" x="1018.37" y="-66.38" font-family="Times,serif" font-size="15.00">register deadline</text>
</g>
<!-- 6620546832&#45;&#45;5453431376 -->
<g id="edge59" class="edge">
<title>6620546832&#45;&#45;5453431376</title>
<path fill="none" stroke="black" d="M699.09,-72C748.99,-72 858.82,-72 935.42,-72"/>
</g>
<!-- 5453434000 -->
<g id="node64" class="node">
<title>5453434000</title>
<ellipse fill="none" stroke="black" cx="1018.37" cy="-18" rx="115.39" ry="18"/>
<text text-anchor="middle" x="1018.37" y="-12.38" font-family="Times,serif" font-size="15.00">phase procedure aborted</text>
</g>
<!-- 6620546832&#45;&#45;5453434000 -->
<g id="edge60" class="edge">
<title>6620546832&#45;&#45;5453434000</title>
<path fill="none" stroke="black" d="M698.24,-67.99C747.71,-60.24 858.25,-42.92 935.28,-30.86"/>
</g>
</g>
</svg>
