<?xml version="1.0" encoding="UTF-8" standalone="no"?>
<!DOCTYPE svg PUBLIC "-//W3C//DTD SVG 1.1//EN"
 "http://www.w3.org/Graphics/SVG/1.1/DTD/svg11.dtd">
<!-- Generated by graphviz version 8.0.5 (20230430.1635)
 -->
<!-- Title: pt Pages: 1 -->
<svg width="2616pt" height="1309pt"
 viewBox="0.00 0.00 2615.56 1309.00" xmlns="http://www.w3.org/2000/svg" xmlns:xlink="http://www.w3.org/1999/xlink">
<g id="graph0" class="graph" transform="scale(1 1) rotate(0) translate(4 1305)">
<title>pt</title>
<polygon fill="white" stroke="none" points="-4,4 -4,-1305 2611.56,-1305 2611.56,4 -4,4"/>
<!-- 6623056976 -->
<g id="node1" class="node">
<title>6623056976</title>
<ellipse fill="none" stroke="black" cx="27" cy="-689" rx="27" ry="18"/>
<text text-anchor="middle" x="27" y="-683.38" font-family="Times,serif" font-size="15.00">seq</text>
</g>
<!-- 6622757968 -->
<g id="node2" class="node">
<title>6622757968</title>
<ellipse fill="none" stroke="black" cx="246.43" cy="-1040" rx="149.06" ry="18"/>
<text text-anchor="middle" x="246.43" y="-1034.38" font-family="Times,serif" font-size="15.00">register submission date request</text>
</g>
<!-- 6623056976&#45;&#45;6622757968 -->
<g id="edge1" class="edge">
<title>6623056976&#45;&#45;6622757968</title>
<path fill="none" stroke="black" d="M38.2,-705.46C74.38,-763.87 196.5,-961.01 234.23,-1021.92"/>
</g>
<!-- 6623674512 -->
<g id="node3" class="node">
<title>6623674512</title>
<ellipse fill="none" stroke="black" cx="246.43" cy="-986" rx="108.55" ry="18"/>
<text text-anchor="middle" x="246.43" y="-980.38" font-family="Times,serif" font-size="15.00">OLO messaging active</text>
</g>
<!-- 6623056976&#45;&#45;6623674512 -->
<g id="edge2" class="edge">
<title>6623056976&#45;&#45;6623674512</title>
<path fill="none" stroke="black" d="M39.69,-704.97C76.91,-755.81 192.54,-913.76 232.04,-967.72"/>
</g>
<!-- 6621431504 -->
<g id="node4" class="node">
<title>6621431504</title>
<ellipse fill="none" stroke="black" cx="246.43" cy="-932" rx="27" ry="18"/>
<text text-anchor="middle" x="246.43" y="-926.38" font-family="Times,serif" font-size="15.00">and</text>
</g>
<!-- 6623056976&#45;&#45;6621431504 -->
<g id="edge28" class="edge">
<title>6623056976&#45;&#45;6621431504</title>
<path fill="none" stroke="black" d="M41.6,-704.2C80.56,-747.74 192.26,-872.58 231.55,-916.49"/>
</g>
<!-- 6621442064 -->
<g id="node30" class="node">
<title>6621442064</title>
<ellipse fill="none" stroke="black" cx="246.43" cy="-878" rx="27" ry="18"/>
<text text-anchor="middle" x="246.43" y="-872.38" font-family="Times,serif" font-size="15.00">xor</text>
</g>
<!-- 6623056976&#45;&#45;6621442064 -->
<g id="edge35" class="edge">
<title>6623056976&#45;&#45;6621442064</title>
<path fill="none" stroke="black" d="M44.34,-703.21C84.74,-738.32 188.91,-828.87 229.19,-863.89"/>
</g>
<!-- 6622809808 -->
<g id="node37" class="node">
<title>6622809808</title>
<ellipse fill="none" stroke="black" cx="246.43" cy="-824" rx="95.93" ry="18"/>
<text text-anchor="middle" x="246.43" y="-818.38" font-family="Times,serif" font-size="15.00">phase archived case</text>
</g>
<!-- 6623056976&#45;&#45;6622809808 -->
<g id="edge36" class="edge">
<title>6623056976&#45;&#45;6622809808</title>
<path fill="none" stroke="black" d="M47.3,-700.98C85.85,-724.92 172.57,-778.76 217.4,-806.6"/>
</g>
<!-- 6621133264 -->
<g id="node38" class="node">
<title>6621133264</title>
<ellipse fill="none" stroke="black" cx="246.43" cy="-770" rx="92.77" ry="18"/>
<text text-anchor="middle" x="246.43" y="-764.38" font-family="Times,serif" font-size="15.00">phase case handled</text>
</g>
<!-- 6623056976&#45;&#45;6621133264 -->
<g id="edge37" class="edge">
<title>6623056976&#45;&#45;6621133264</title>
<path fill="none" stroke="black" d="M51.27,-697.67C87.2,-711.05 156.78,-736.97 202.15,-753.88"/>
</g>
<!-- 6621130960 -->
<g id="node39" class="node">
<title>6621130960</title>
<ellipse fill="none" stroke="black" cx="246.43" cy="-716" rx="115.39" ry="18"/>
<text text-anchor="middle" x="246.43" y="-710.38" font-family="Times,serif" font-size="15.00">phase procedure aborted</text>
</g>
<!-- 6623056976&#45;&#45;6621130960 -->
<g id="edge38" class="edge">
<title>6623056976&#45;&#45;6621130960</title>
<path fill="none" stroke="black" d="M53.8,-692.2C78.77,-695.3 118.11,-700.19 154.67,-704.73"/>
</g>
<!-- 6621121680 -->
<g id="node40" class="node">
<title>6621121680</title>
<ellipse fill="none" stroke="black" cx="246.43" cy="-662" rx="131.7" ry="18"/>
<text text-anchor="middle" x="246.43" y="-656.38" font-family="Times,serif" font-size="15.00">stop all running subcases 2b</text>
</g>
<!-- 6623056976&#45;&#45;6621121680 -->
<g id="edge39" class="edge">
<title>6623056976&#45;&#45;6621121680</title>
<path fill="none" stroke="black" d="M53.8,-685.8C77.08,-682.91 112.86,-678.46 147.23,-674.19"/>
</g>
<!-- 6621125584 -->
<g id="node41" class="node">
<title>6621125584</title>
<ellipse fill="none" stroke="black" cx="246.43" cy="-608" rx="54.36" ry="18"/>
<text text-anchor="middle" x="246.43" y="-602.38" font-family="Times,serif" font-size="15.00">close case</text>
</g>
<!-- 6623056976&#45;&#45;6621125584 -->
<g id="edge40" class="edge">
<title>6623056976&#45;&#45;6621125584</title>
<path fill="none" stroke="black" d="M51.27,-680.33C89.17,-666.21 164.52,-638.14 209.39,-621.43"/>
</g>
<!-- 6625464912 -->
<g id="node42" class="node">
<title>6625464912</title>
<ellipse fill="none" stroke="black" cx="246.43" cy="-554" rx="97.51" ry="18"/>
<text text-anchor="middle" x="246.43" y="-548.38" font-family="Times,serif" font-size="15.00">WAW permit aspect</text>
</g>
<!-- 6623056976&#45;&#45;6625464912 -->
<g id="edge41" class="edge">
<title>6623056976&#45;&#45;6625464912</title>
<path fill="none" stroke="black" d="M47.3,-677.02C85.75,-653.14 172.1,-599.53 217.04,-571.63"/>
</g>
<!-- 6621124688 -->
<g id="node43" class="node">
<title>6621124688</title>
<ellipse fill="none" stroke="black" cx="246.43" cy="-500" rx="156.43" ry="18"/>
<text text-anchor="middle" x="246.43" y="-494.38" font-family="Times,serif" font-size="15.00">subcases completeness completed</text>
</g>
<!-- 6623056976&#45;&#45;6621124688 -->
<g id="edge42" class="edge">
<title>6623056976&#45;&#45;6621124688</title>
<path fill="none" stroke="black" d="M44.34,-674.79C83.25,-640.97 181.36,-555.69 224.51,-518.18"/>
</g>
<!-- 6621129232 -->
<g id="node44" class="node">
<title>6621129232</title>
<ellipse fill="none" stroke="black" cx="246.43" cy="-446" rx="131.18" ry="18"/>
<text text-anchor="middle" x="246.43" y="-440.38" font-family="Times,serif" font-size="15.00">treat subcases completeness</text>
</g>
<!-- 6623056976&#45;&#45;6621129232 -->
<g id="edge43" class="edge">
<title>6623056976&#45;&#45;6621129232</title>
<path fill="none" stroke="black" d="M41.6,-673.8C79.81,-631.09 188.02,-510.16 229.22,-464.11"/>
</g>
<!-- 6621122576 -->
<g id="node45" class="node">
<title>6621122576</title>
<ellipse fill="none" stroke="black" cx="246.43" cy="-392" rx="86.46" ry="18"/>
<text text-anchor="middle" x="246.43" y="-386.38" font-family="Times,serif" font-size="15.00">procedure change</text>
</g>
<!-- 6623056976&#45;&#45;6621122576 -->
<g id="edge44" class="edge">
<title>6623056976&#45;&#45;6621122576</title>
<path fill="none" stroke="black" d="M39.69,-673.03C77,-622.07 193.09,-463.49 232.32,-409.9"/>
</g>
<!-- 6621131216 -->
<g id="node46" class="node">
<title>6621131216</title>
<ellipse fill="none" stroke="black" cx="246.43" cy="-338" rx="27" ry="18"/>
<text text-anchor="middle" x="246.43" y="-332.38" font-family="Times,serif" font-size="15.00">xor</text>
</g>
<!-- 6623056976&#45;&#45;6621131216 -->
<g id="edge61" class="edge">
<title>6623056976&#45;&#45;6621131216</title>
<path fill="none" stroke="black" d="M38.2,-672.54C74.72,-613.58 198.77,-413.32 235.26,-354.42"/>
</g>
<!-- 6620980624 -->
<g id="node5" class="node">
<title>6620980624</title>
<ellipse fill="none" stroke="black" cx="563.72" cy="-986" rx="124.86" ry="18"/>
<text text-anchor="middle" x="563.72" y="-980.38" font-family="Times,serif" font-size="15.00">phase application received</text>
</g>
<!-- 6621431504&#45;&#45;6620980624 -->
<g id="edge3" class="edge">
<title>6621431504&#45;&#45;6620980624</title>
<path fill="none" stroke="black" d="M272.96,-936.37C317.83,-944.06 412.56,-960.28 481.54,-972.1"/>
</g>
<!-- 6620985168 -->
<g id="node6" class="node">
<title>6620985168</title>
<ellipse fill="none" stroke="black" cx="563.72" cy="-932" rx="27" ry="18"/>
<text text-anchor="middle" x="563.72" y="-926.38" font-family="Times,serif" font-size="15.00">seq</text>
</g>
<!-- 6621431504&#45;&#45;6620985168 -->
<g id="edge27" class="edge">
<title>6621431504&#45;&#45;6620985168</title>
<path fill="none" stroke="black" d="M273.77,-932C333.12,-932 476.75,-932 536.24,-932"/>
</g>
<!-- 6621126032 -->
<g id="node7" class="node">
<title>6621126032</title>
<ellipse fill="none" stroke="black" cx="924.68" cy="-986" rx="152.75" ry="18"/>
<text text-anchor="middle" x="924.68" y="-980.38" font-family="Times,serif" font-size="15.00">enter senddate acknowledgement</text>
</g>
<!-- 6620985168&#45;&#45;6621126032 -->
<g id="edge4" class="edge">
<title>6620985168&#45;&#45;6621126032</title>
<path fill="none" stroke="black" d="M590.54,-935.88C639.57,-943.26 748.41,-959.63 828.39,-971.67"/>
</g>
<!-- 6621131472 -->
<g id="node8" class="node">
<title>6621131472</title>
<ellipse fill="none" stroke="black" cx="924.68" cy="-932" rx="27" ry="18"/>
<text text-anchor="middle" x="924.68" y="-926.38" font-family="Times,serif" font-size="15.00">and</text>
</g>
<!-- 6620985168&#45;&#45;6621131472 -->
<g id="edge26" class="edge">
<title>6620985168&#45;&#45;6621131472</title>
<path fill="none" stroke="black" d="M591.12,-932C657.5,-932 830.83,-932 897.25,-932"/>
</g>
<!-- 6621121872 -->
<g id="node9" class="node">
<title>6621121872</title>
<ellipse fill="none" stroke="black" cx="1339.31" cy="-959" rx="178.53" ry="18"/>
<text text-anchor="middle" x="1339.31" y="-953.38" font-family="Times,serif" font-size="15.00">enter date termination request received</text>
</g>
<!-- 6621131472&#45;&#45;6621121872 -->
<g id="edge5" class="edge">
<title>6621131472&#45;&#45;6621121872</title>
<path fill="none" stroke="black" d="M951.81,-933.71C998.75,-936.78 1100.64,-943.45 1188.02,-949.17"/>
</g>
<!-- 6621130320 -->
<g id="node10" class="node">
<title>6621130320</title>
<ellipse fill="none" stroke="black" cx="1339.31" cy="-905" rx="27" ry="18"/>
<text text-anchor="middle" x="1339.31" y="-899.38" font-family="Times,serif" font-size="15.00">seq</text>
</g>
<!-- 6621131472&#45;&#45;6621130320 -->
<g id="edge25" class="edge">
<title>6621131472&#45;&#45;6621130320</title>
<path fill="none" stroke="black" d="M951.81,-930.29C1026.04,-925.43 1237.62,-911.59 1312.03,-906.72"/>
</g>
<!-- 6621122256 -->
<g id="node11" class="node">
<title>6621122256</title>
<ellipse fill="none" stroke="black" cx="1730.26" cy="-1121" rx="27" ry="18"/>
<text text-anchor="middle" x="1730.26" y="-1115.38" font-family="Times,serif" font-size="15.00">xor</text>
</g>
<!-- 6621130320&#45;&#45;6621122256 -->
<g id="edge14" class="edge">
<title>6621130320&#45;&#45;6621122256</title>
<path fill="none" stroke="black" d="M1360.67,-916.31C1427.88,-953.63 1642.18,-1072.64 1709.09,-1109.8"/>
</g>
<!-- 6621129488 -->
<g id="node20" class="node">
<title>6621129488</title>
<ellipse fill="none" stroke="black" cx="1730.26" cy="-1067" rx="47" ry="18"/>
<text text-anchor="middle" x="1730.26" y="-1061.38" font-family="Times,serif" font-size="15.00">xor loop</text>
</g>
<!-- 6621130320&#45;&#45;6621129488 -->
<g id="edge17" class="edge">
<title>6621130320&#45;&#45;6621129488</title>
<path fill="none" stroke="black" d="M1362.9,-914.41C1428.81,-941.86 1620.99,-1021.91 1697.4,-1053.73"/>
</g>
<!-- 6621118800 -->
<g id="node23" class="node">
<title>6621118800</title>
<ellipse fill="none" stroke="black" cx="1730.26" cy="-1013" rx="160.64" ry="18"/>
<text text-anchor="middle" x="1730.26" y="-1007.38" font-family="Times,serif" font-size="15.00">forward to the competent authority</text>
</g>
<!-- 6621130320&#45;&#45;6621118800 -->
<g id="edge18" class="edge">
<title>6621130320&#45;&#45;6621118800</title>
<path fill="none" stroke="black" d="M1364.64,-911.76C1424.59,-928.4 1580.88,-971.8 1668.12,-996.03"/>
</g>
<!-- 6621125776 -->
<g id="node24" class="node">
<title>6621125776</title>
<ellipse fill="none" stroke="black" cx="1730.26" cy="-959" rx="147.49" ry="18"/>
<text text-anchor="middle" x="1730.26" y="-953.38" font-family="Times,serif" font-size="15.00">regular procedure without MER</text>
</g>
<!-- 6621130320&#45;&#45;6621125776 -->
<g id="edge19" class="edge">
<title>6621130320&#45;&#45;6621125776</title>
<path fill="none" stroke="black" d="M1366.13,-908.58C1419.15,-915.95 1542.72,-933.1 1630.97,-945.35"/>
</g>
<!-- 6621120336 -->
<g id="node25" class="node">
<title>6621120336</title>
<ellipse fill="none" stroke="black" cx="1730.26" cy="-905" rx="176.42" ry="18"/>
<text text-anchor="middle" x="1730.26" y="-899.38" font-family="Times,serif" font-size="15.00">enter senddate procedure confirmation</text>
</g>
<!-- 6621130320&#45;&#45;6621120336 -->
<g id="edge20" class="edge">
<title>6621130320&#45;&#45;6621120336</title>
<path fill="none" stroke="black" d="M1366.74,-905C1405.55,-905 1481.21,-905 1553.41,-905"/>
</g>
<!-- 6621125200 -->
<g id="node26" class="node">
<title>6621125200</title>
<ellipse fill="none" stroke="black" cx="1730.26" cy="-851" rx="134.33" ry="18"/>
<text text-anchor="middle" x="1730.26" y="-845.38" font-family="Times,serif" font-size="15.00">send procedure confirmation</text>
</g>
<!-- 6621130320&#45;&#45;6621125200 -->
<g id="edge21" class="edge">
<title>6621130320&#45;&#45;6621125200</title>
<path fill="none" stroke="black" d="M1366.13,-901.42C1420,-893.94 1546.7,-876.35 1635.18,-864.06"/>
</g>
<!-- 6621124624 -->
<g id="node27" class="node">
<title>6621124624</title>
<ellipse fill="none" stroke="black" cx="1730.26" cy="-797" rx="68.04" ry="18"/>
<text text-anchor="middle" x="1730.26" y="-791.38" font-family="Times,serif" font-size="15.00">suspend term</text>
</g>
<!-- 6621130320&#45;&#45;6621124624 -->
<g id="edge22" class="edge">
<title>6621130320&#45;&#45;6621124624</title>
<path fill="none" stroke="black" d="M1364.64,-898.24C1427.92,-880.67 1598.52,-833.3 1681.98,-810.13"/>
</g>
<!-- 6621120720 -->
<g id="node28" class="node">
<title>6621120720</title>
<ellipse fill="none" stroke="black" cx="1730.26" cy="-743" rx="99.08" ry="18"/>
<text text-anchor="middle" x="1730.26" y="-737.38" font-family="Times,serif" font-size="15.00">terminate on request</text>
</g>
<!-- 6621130320&#45;&#45;6621120720 -->
<g id="edge23" class="edge">
<title>6621130320&#45;&#45;6621120720</title>
<path fill="none" stroke="black" d="M1362.9,-895.59C1426.54,-869.08 1607.91,-793.54 1689.1,-759.73"/>
</g>
<!-- 6621125712 -->
<g id="node29" class="node">
<title>6621125712</title>
<ellipse fill="none" stroke="black" cx="1730.26" cy="-689" rx="139.07" ry="18"/>
<text text-anchor="middle" x="1730.26" y="-683.38" font-family="Times,serif" font-size="15.00">initiative competent authority</text>
</g>
<!-- 6621130320&#45;&#45;6621125712 -->
<g id="edge24" class="edge">
<title>6621130320&#45;&#45;6621125712</title>
<path fill="none" stroke="black" d="M1360.67,-893.69C1424.29,-858.36 1619.67,-749.86 1697.14,-706.84"/>
</g>
<!-- 6621123664 -->
<g id="node12" class="node">
<title>6621123664</title>
<ellipse fill="none" stroke="black" cx="2063.86" cy="-1229" rx="27" ry="18"/>
<text text-anchor="middle" x="2063.86" y="-1223.38" font-family="Times,serif" font-size="15.00">seq</text>
</g>
<!-- 6621122256&#45;&#45;6621123664 -->
<g id="edge8" class="edge">
<title>6621122256&#45;&#45;6621123664</title>
<path fill="none" stroke="black" d="M1755.1,-1128.77C1816.29,-1148.69 1978.28,-1201.45 2039.23,-1221.3"/>
</g>
<!-- 6621124752 -->
<g id="node15" class="node">
<title>6621124752</title>
<ellipse fill="none" stroke="black" cx="2063.86" cy="-1121" rx="27" ry="18"/>
<text text-anchor="middle" x="2063.86" y="-1115.38" font-family="Times,serif" font-size="15.00">seq</text>
</g>
<!-- 6621122256&#45;&#45;6621124752 -->
<g id="edge13" class="edge">
<title>6621122256&#45;&#45;6621124752</title>
<path fill="none" stroke="black" d="M1757.55,-1121C1819.59,-1121 1974.52,-1121 2036.56,-1121"/>
</g>
<!-- 6621126544 -->
<g id="node13" class="node">
<title>6621126544</title>
<ellipse fill="none" stroke="black" cx="2414.3" cy="-1283" rx="112.76" ry="18"/>
<text text-anchor="middle" x="2414.3" y="-1277.38" font-family="Times,serif" font-size="15.00">applicant is stakeholder</text>
</g>
<!-- 6621123664&#45;&#45;6621126544 -->
<g id="edge6" class="edge">
<title>6621123664&#45;&#45;6621126544</title>
<path fill="none" stroke="black" d="M2090.48,-1232.97C2140.69,-1240.75 2253.95,-1258.3 2332.01,-1270.4"/>
</g>
<!-- 6621122960 -->
<g id="node14" class="node">
<title>6621122960</title>
<ellipse fill="none" stroke="black" cx="2414.3" cy="-1229" rx="135.39" ry="18"/>
<text text-anchor="middle" x="2414.3" y="-1223.38" font-family="Times,serif" font-size="15.00">calculate provisional charges</text>
</g>
<!-- 6621123664&#45;&#45;6621122960 -->
<g id="edge7" class="edge">
<title>6621123664&#45;&#45;6621122960</title>
<path fill="none" stroke="black" d="M2091.33,-1229C2131.2,-1229 2209.35,-1229 2278.68,-1229"/>
</g>
<!-- 6621118608 -->
<g id="node16" class="node">
<title>6621118608</title>
<ellipse fill="none" stroke="black" cx="2414.3" cy="-1175" rx="164.85" ry="18"/>
<text text-anchor="middle" x="2414.3" y="-1169.38" font-family="Times,serif" font-size="15.00">enter senddate confirmation request</text>
</g>
<!-- 6621124752&#45;&#45;6621118608 -->
<g id="edge9" class="edge">
<title>6621124752&#45;&#45;6621118608</title>
<path fill="none" stroke="black" d="M2090.48,-1124.97C2137.55,-1132.27 2240.01,-1148.15 2316.96,-1160.07"/>
</g>
<!-- 6621126672 -->
<g id="node17" class="node">
<title>6621126672</title>
<ellipse fill="none" stroke="black" cx="2414.3" cy="-1121" rx="193.26" ry="18"/>
<text text-anchor="middle" x="2414.3" y="-1115.38" font-family="Times,serif" font-size="15.00">register date decision terminate on request</text>
</g>
<!-- 6621124752&#45;&#45;6621126672 -->
<g id="edge10" class="edge">
<title>6621124752&#45;&#45;6621126672</title>
<path fill="none" stroke="black" d="M2091.33,-1121C2120.32,-1121 2169.55,-1121 2220.9,-1121"/>
</g>
<!-- 6621127440 -->
<g id="node18" class="node">
<title>6621127440</title>
<ellipse fill="none" stroke="black" cx="2414.3" cy="-1067" rx="82.77" ry="18"/>
<text text-anchor="middle" x="2414.3" y="-1061.38" font-family="Times,serif" font-size="15.00">register deadline</text>
</g>
<!-- 6621124752&#45;&#45;6621127440 -->
<g id="edge11" class="edge">
<title>6621124752&#45;&#45;6621127440</title>
<path fill="none" stroke="black" d="M2090.48,-1117.03C2143.76,-1108.77 2268,-1089.52 2345.88,-1077.45"/>
</g>
<!-- 6621132432 -->
<g id="node19" class="node">
<title>6621132432</title>
<ellipse fill="none" stroke="black" cx="2414.3" cy="-1013" rx="110.66" ry="18"/>
<text text-anchor="middle" x="2414.3" y="-1007.38" font-family="Times,serif" font-size="15.00">reception through OLO</text>
</g>
<!-- 6621124752&#45;&#45;6621132432 -->
<g id="edge12" class="edge">
<title>6621124752&#45;&#45;6621132432</title>
<path fill="none" stroke="black" d="M2088.81,-1113.58C2144.62,-1096.28 2284.4,-1052.95 2361.03,-1029.2"/>
</g>
<!-- 6621129808 -->
<g id="node21" class="node">
<title>6621129808</title>
<ellipse fill="none" stroke="black" cx="2063.86" cy="-1067" rx="121.18" ry="18"/>
<text text-anchor="middle" x="2063.86" y="-1061.38" font-family="Times,serif" font-size="15.00">send confirmation receipt</text>
</g>
<!-- 6621129488&#45;&#45;6621129808 -->
<g id="edge15" class="edge">
<title>6621129488&#45;&#45;6621129808</title>
<path fill="none" stroke="black" d="M1777.71,-1067C1820.31,-1067 1885.28,-1067 1942.44,-1067"/>
</g>
<!-- 6621122768 -->
<g id="node22" class="node">
<title>6621122768</title>
<ellipse fill="black" stroke="black" cx="2063.86" cy="-1028" rx="2.7" ry="2.7"/>
</g>
<!-- 6621129488&#45;&#45;6621122768 -->
<g id="edge16" class="edge">
<title>6621129488&#45;&#45;6621122768</title>
<path fill="none" stroke="black" d="M1775.63,-1061.78C1861.05,-1051.73 2041.65,-1030.49 2061.14,-1028.2"/>
</g>
<!-- 6622819216 -->
<g id="node31" class="node">
<title>6622819216</title>
<ellipse fill="none" stroke="black" cx="563.72" cy="-878" rx="27" ry="18"/>
<text text-anchor="middle" x="563.72" y="-872.38" font-family="Times,serif" font-size="15.00">seq</text>
</g>
<!-- 6621442064&#45;&#45;6622819216 -->
<g id="edge31" class="edge">
<title>6621442064&#45;&#45;6622819216</title>
<path fill="none" stroke="black" d="M273.77,-878C333.12,-878 476.75,-878 536.24,-878"/>
</g>
<!-- 6622807824 -->
<g id="node34" class="node">
<title>6622807824</title>
<ellipse fill="none" stroke="black" cx="563.72" cy="-770" rx="27" ry="18"/>
<text text-anchor="middle" x="563.72" y="-764.38" font-family="Times,serif" font-size="15.00">seq</text>
</g>
<!-- 6621442064&#45;&#45;6622807824 -->
<g id="edge34" class="edge">
<title>6621442064&#45;&#45;6622807824</title>
<path fill="none" stroke="black" d="M271.13,-869.88C329.7,-849.82 480.77,-798.07 539.18,-778.06"/>
</g>
<!-- 6625473872 -->
<g id="node32" class="node">
<title>6625473872</title>
<ellipse fill="none" stroke="black" cx="924.68" cy="-878" rx="153.27" ry="18"/>
<text text-anchor="middle" x="924.68" y="-872.38" font-family="Times,serif" font-size="15.00">create message terminate request</text>
</g>
<!-- 6622819216&#45;&#45;6625473872 -->
<g id="edge29" class="edge">
<title>6622819216&#45;&#45;6625473872</title>
<path fill="none" stroke="black" d="M591.12,-878C629.33,-878 702.97,-878 771.27,-878"/>
</g>
<!-- 6625462160 -->
<g id="node33" class="node">
<title>6625462160</title>
<ellipse fill="none" stroke="black" cx="924.68" cy="-824" rx="123.81" ry="18"/>
<text text-anchor="middle" x="924.68" y="-818.38" font-family="Times,serif" font-size="15.00">read publication date field</text>
</g>
<!-- 6622819216&#45;&#45;6625462160 -->
<g id="edge30" class="edge">
<title>6622819216&#45;&#45;6625462160</title>
<path fill="none" stroke="black" d="M590.54,-874.12C641.34,-866.47 756.33,-849.18 836.93,-837.05"/>
</g>
<!-- 6625471120 -->
<g id="node35" class="node">
<title>6625471120</title>
<ellipse fill="none" stroke="black" cx="924.68" cy="-770" rx="165.9" ry="18"/>
<text text-anchor="middle" x="924.68" y="-764.38" font-family="Times,serif" font-size="15.00">create decision terminate on request</text>
</g>
<!-- 6622807824&#45;&#45;6625471120 -->
<g id="edge32" class="edge">
<title>6622807824&#45;&#45;6625471120</title>
<path fill="none" stroke="black" d="M591.12,-770C626.98,-770 694.06,-770 758.63,-770"/>
</g>
<!-- 6621329808 -->
<g id="node36" class="node">
<title>6621329808</title>
<ellipse fill="none" stroke="black" cx="924.68" cy="-716" rx="137.49" ry="18"/>
<text text-anchor="middle" x="924.68" y="-710.38" font-family="Times,serif" font-size="15.00">decision terminate on request</text>
</g>
<!-- 6622807824&#45;&#45;6621329808 -->
<g id="edge33" class="edge">
<title>6622807824&#45;&#45;6621329808</title>
<path fill="none" stroke="black" d="M590.54,-766.12C640.45,-758.61 752.35,-741.77 832.69,-729.69"/>
</g>
<!-- 6624307728 -->
<g id="node47" class="node">
<title>6624307728</title>
<ellipse fill="none" stroke="black" cx="563.72" cy="-365" rx="47" ry="18"/>
<text text-anchor="middle" x="563.72" y="-359.38" font-family="Times,serif" font-size="15.00">xor loop</text>
</g>
<!-- 6621131216&#45;&#45;6624307728 -->
<g id="edge47" class="edge">
<title>6621131216&#45;&#45;6624307728</title>
<path fill="none" stroke="black" d="M273.5,-340.23C327.13,-344.83 450.39,-355.38 517.38,-361.12"/>
</g>
<!-- 6624306768 -->
<g id="node50" class="node">
<title>6624306768</title>
<ellipse fill="none" stroke="black" cx="563.72" cy="-311" rx="27" ry="18"/>
<text text-anchor="middle" x="563.72" y="-305.38" font-family="Times,serif" font-size="15.00">seq</text>
</g>
<!-- 6621131216&#45;&#45;6624306768 -->
<g id="edge60" class="edge">
<title>6621131216&#45;&#45;6624306768</title>
<path fill="none" stroke="black" d="M273.5,-335.77C332.81,-330.69 477.28,-318.32 536.62,-313.24"/>
</g>
<!-- 6624297872 -->
<g id="node48" class="node">
<title>6624297872</title>
<ellipse fill="none" stroke="black" cx="924.68" cy="-400" rx="200.1" ry="18"/>
<text text-anchor="middle" x="924.68" y="-394.38" font-family="Times,serif" font-size="15.00">registrer date of publishing received request</text>
</g>
<!-- 6624307728&#45;&#45;6624297872 -->
<g id="edge45" class="edge">
<title>6624307728&#45;&#45;6624297872</title>
<path fill="none" stroke="black" d="M609.82,-369.4C654.07,-373.71 723.82,-380.51 786.34,-386.61"/>
</g>
<!-- 6624309712 -->
<g id="node49" class="node">
<title>6624309712</title>
<ellipse fill="black" stroke="black" cx="924.68" cy="-361" rx="2.7" ry="2.7"/>
</g>
<!-- 6624307728&#45;&#45;6624309712 -->
<g id="edge46" class="edge">
<title>6624307728&#45;&#45;6624309712</title>
<path fill="none" stroke="black" d="M610.92,-364.49C702.56,-363.46 900.43,-361.26 921.8,-361.02"/>
</g>
<!-- 6624309072 -->
<g id="node51" class="node">
<title>6624309072</title>
<ellipse fill="none" stroke="black" cx="924.68" cy="-315" rx="84.35" ry="18"/>
<text text-anchor="middle" x="924.68" y="-309.38" font-family="Times,serif" font-size="15.00">request complete</text>
</g>
<!-- 6624306768&#45;&#45;6624309072 -->
<g id="edge48" class="edge">
<title>6624306768&#45;&#45;6624309072</title>
<path fill="none" stroke="black" d="M591.12,-311.29C642.93,-311.87 759.89,-313.17 840.32,-314.07"/>
</g>
<!-- 6624306064 -->
<g id="node52" class="node">
<title>6624306064</title>
<ellipse fill="none" stroke="black" cx="924.68" cy="-261" rx="27" ry="18"/>
<text text-anchor="middle" x="924.68" y="-255.38" font-family="Times,serif" font-size="15.00">xor</text>
</g>
<!-- 6624306768&#45;&#45;6624306064 -->
<g id="edge59" class="edge">
<title>6624306768&#45;&#45;6624306064</title>
<path fill="none" stroke="black" d="M590.54,-307.4C656.77,-298.18 832.13,-273.75 898.1,-264.56"/>
</g>
<!-- 6624310544 -->
<g id="node53" class="node">
<title>6624310544</title>
<ellipse fill="none" stroke="black" cx="1339.31" cy="-342" rx="27" ry="18"/>
<text text-anchor="middle" x="1339.31" y="-336.38" font-family="Times,serif" font-size="15.00">seq</text>
</g>
<!-- 6624306064&#45;&#45;6624310544 -->
<g id="edge51" class="edge">
<title>6624306064&#45;&#45;6624310544</title>
<path fill="none" stroke="black" d="M950.87,-265.94C1024.54,-280.41 1239.01,-322.51 1312.92,-337.02"/>
</g>
<!-- 6624308624 -->
<g id="node56" class="node">
<title>6624308624</title>
<ellipse fill="none" stroke="black" cx="1339.31" cy="-180" rx="27" ry="18"/>
<text text-anchor="middle" x="1339.31" y="-174.38" font-family="Times,serif" font-size="15.00">seq</text>
</g>
<!-- 6624306064&#45;&#45;6624308624 -->
<g id="edge58" class="edge">
<title>6624306064&#45;&#45;6624308624</title>
<path fill="none" stroke="black" d="M950.87,-256.06C1024.54,-241.59 1239.01,-199.49 1312.92,-184.98"/>
</g>
<!-- 6624302736 -->
<g id="node54" class="node">
<title>6624302736</title>
<ellipse fill="none" stroke="black" cx="1730.26" cy="-396" rx="105.92" ry="18"/>
<text text-anchor="middle" x="1730.26" y="-390.38" font-family="Times,serif" font-size="15.00">send letter in progress</text>
</g>
<!-- 6624310544&#45;&#45;6624302736 -->
<g id="edge49" class="edge">
<title>6624310544&#45;&#45;6624302736</title>
<path fill="none" stroke="black" d="M1366.13,-345.58C1422.46,-353.41 1558.42,-372.28 1647.06,-384.59"/>
</g>
<!-- 6624299536 -->
<g id="node55" class="node">
<title>6624299536</title>
<ellipse fill="none" stroke="black" cx="1730.26" cy="-342" rx="128.02" ry="18"/>
<text text-anchor="middle" x="1730.26" y="-336.38" font-family="Times,serif" font-size="15.00">phase application receptive</text>
</g>
<!-- 6624310544&#45;&#45;6624299536 -->
<g id="edge50" class="edge">
<title>6624310544&#45;&#45;6624299536</title>
<path fill="none" stroke="black" d="M1366.74,-342C1414.44,-342 1517.8,-342 1602,-342"/>
</g>
<!-- 6624304592 -->
<g id="node57" class="node">
<title>6624304592</title>
<ellipse fill="none" stroke="black" cx="1730.26" cy="-288" rx="148.01" ry="18"/>
<text text-anchor="middle" x="1730.26" y="-282.38" font-family="Times,serif" font-size="15.00">term for supplying missing data</text>
</g>
<!-- 6624308624&#45;&#45;6624304592 -->
<g id="edge52" class="edge">
<title>6624308624&#45;&#45;6624304592</title>
<path fill="none" stroke="black" d="M1364.64,-186.76C1424.76,-203.45 1581.75,-247.04 1668.85,-271.23"/>
</g>
<!-- 6624300176 -->
<g id="node58" class="node">
<title>6624300176</title>
<ellipse fill="none" stroke="black" cx="1730.26" cy="-234" rx="166.43" ry="18"/>
<text text-anchor="middle" x="1730.26" y="-228.38" font-family="Times,serif" font-size="15.00">create letter requesting missing data</text>
</g>
<!-- 6624308624&#45;&#45;6624300176 -->
<g id="edge53" class="edge">
<title>6624308624&#45;&#45;6624300176</title>
<path fill="none" stroke="black" d="M1366.13,-183.58C1418.13,-190.8 1538,-207.45 1625.85,-219.64"/>
</g>
<!-- 6624308560 -->
<g id="node59" class="node">
<title>6624308560</title>
<ellipse fill="none" stroke="black" cx="1730.26" cy="-180" rx="137.49" ry="18"/>
<text text-anchor="middle" x="1730.26" y="-174.38" font-family="Times,serif" font-size="15.00">create subcases completeness</text>
</g>
<!-- 6624308624&#45;&#45;6624308560 -->
<g id="edge54" class="edge">
<title>6624308624&#45;&#45;6624308560</title>
<path fill="none" stroke="black" d="M1366.74,-180C1412.64,-180 1510.1,-180 1592.41,-180"/>
</g>
<!-- 6624311632 -->
<g id="node60" class="node">
<title>6624311632</title>
<ellipse fill="none" stroke="black" cx="1730.26" cy="-126" rx="101.19" ry="18"/>
<text text-anchor="middle" x="1730.26" y="-120.38" font-family="Times,serif" font-size="15.00">retrieve missing data</text>
</g>
<!-- 6624308624&#45;&#45;6624311632 -->
<g id="edge55" class="edge">
<title>6624308624&#45;&#45;6624311632</title>
<path fill="none" stroke="black" d="M1366.13,-176.42C1422.97,-168.52 1560.88,-149.38 1649.45,-137.08"/>
</g>
<!-- 6624787728 -->
<g id="node61" class="node">
<title>6624787728</title>
<ellipse fill="none" stroke="black" cx="1730.26" cy="-72" rx="161.69" ry="18"/>
<text text-anchor="middle" x="1730.26" y="-66.38" font-family="Times,serif" font-size="15.00">phase asked additional information</text>
</g>
<!-- 6624308624&#45;&#45;6624787728 -->
<g id="edge56" class="edge">
<title>6624308624&#45;&#45;6624787728</title>
<path fill="none" stroke="black" d="M1364.64,-173.24C1424.59,-156.6 1580.88,-113.2 1668.12,-88.97"/>
</g>
<!-- 6621522960 -->
<g id="node62" class="node">
<title>6621522960</title>
<ellipse fill="none" stroke="black" cx="1730.26" cy="-18" rx="165.37" ry="18"/>
<text text-anchor="middle" x="1730.26" y="-12.38" font-family="Times,serif" font-size="15.00">enter senddate retrieve missing data</text>
</g>
<!-- 6624308624&#45;&#45;6621522960 -->
<g id="edge57" class="edge">
<title>6624308624&#45;&#45;6621522960</title>
<path fill="none" stroke="black" d="M1362.9,-170.59C1425.89,-144.36 1604.22,-70.08 1686.59,-35.77"/>
</g>
</g>
</svg>
