<?xml version="1.0" encoding="UTF-8" standalone="no"?>
<!DOCTYPE svg PUBLIC "-//W3C//DTD SVG 1.1//EN"
 "http://www.w3.org/Graphics/SVG/1.1/DTD/svg11.dtd">
<!-- Generated by graphviz version 8.0.5 (20230430.1635)
 -->
<!-- Title: pt Pages: 1 -->
<svg width="2904pt" height="1218pt"
 viewBox="0.00 0.00 2903.95 1218.00" xmlns="http://www.w3.org/2000/svg" xmlns:xlink="http://www.w3.org/1999/xlink">
<g id="graph0" class="graph" transform="scale(1 1) rotate(0) translate(4 1214)">
<title>pt</title>
<polygon fill="white" stroke="none" points="-4,4 -4,-1214 2899.95,-1214 2899.95,4 -4,4"/>
<!-- 6622969488 -->
<g id="node1" class="node">
<title>6622969488</title>
<ellipse fill="none" stroke="black" cx="27" cy="-745" rx="27" ry="18"/>
<text text-anchor="middle" x="27" y="-739.38" font-family="Times,serif" font-size="15.00">seq</text>
</g>
<!-- 6622995920 -->
<g id="node2" class="node">
<title>6622995920</title>
<ellipse fill="none" stroke="black" cx="117" cy="-943" rx="27" ry="18"/>
<text text-anchor="middle" x="117" y="-937.38" font-family="Times,serif" font-size="15.00">and</text>
</g>
<!-- 6622969488&#45;&#45;6622995920 -->
<g id="edge62" class="edge">
<title>6622969488&#45;&#45;6622995920</title>
<path fill="none" stroke="black" d="M35.66,-762.22C52.3,-799.67 91.62,-888.14 108.3,-925.67"/>
</g>
<!-- 6622011920 -->
<g id="node64" class="node">
<title>6622011920</title>
<ellipse fill="none" stroke="black" cx="117" cy="-811" rx="27" ry="18"/>
<text text-anchor="middle" x="117" y="-805.38" font-family="Times,serif" font-size="15.00">xor</text>
</g>
<!-- 6622969488&#45;&#45;6622011920 -->
<g id="edge65" class="edge">
<title>6622969488&#45;&#45;6622011920</title>
<path fill="none" stroke="black" d="M45.81,-758.36C61.08,-769.81 82.96,-786.22 98.22,-797.66"/>
</g>
<!-- 6742209488 -->
<g id="node67" class="node">
<title>6742209488</title>
<ellipse fill="none" stroke="black" cx="117" cy="-745" rx="27" ry="18"/>
<text text-anchor="middle" x="117" y="-739.38" font-family="Times,serif" font-size="15.00">xor</text>
</g>
<!-- 6622969488&#45;&#45;6742209488 -->
<g id="edge70" class="edge">
<title>6622969488&#45;&#45;6742209488</title>
<path fill="none" stroke="black" d="M54.4,-745C65.54,-745 78.48,-745 89.62,-745"/>
</g>
<!-- 6623050512 -->
<g id="node72" class="node">
<title>6623050512</title>
<ellipse fill="none" stroke="black" cx="117" cy="-625" rx="27" ry="18"/>
<text text-anchor="middle" x="117" y="-619.38" font-family="Times,serif" font-size="15.00">and</text>
</g>
<!-- 6622969488&#45;&#45;6623050512 -->
<g id="edge77" class="edge">
<title>6622969488&#45;&#45;6623050512</title>
<path fill="none" stroke="black" d="M39.87,-728.82C56.66,-705.91 87.19,-664.28 104.04,-641.31"/>
</g>
<!-- 6624012880 -->
<g id="node79" class="node">
<title>6624012880</title>
<ellipse fill="none" stroke="black" cx="117" cy="-378" rx="27" ry="18"/>
<text text-anchor="middle" x="117" y="-372.38" font-family="Times,serif" font-size="15.00">xor</text>
</g>
<!-- 6622969488&#45;&#45;6624012880 -->
<g id="edge93" class="edge">
<title>6622969488&#45;&#45;6624012880</title>
<path fill="none" stroke="black" d="M32.3,-727.05C47.25,-664.74 96.78,-458.18 111.7,-395.92"/>
</g>
<!-- 5453343696 -->
<g id="node3" class="node">
<title>5453343696</title>
<ellipse fill="none" stroke="black" cx="332.75" cy="-1051" rx="152.75" ry="18"/>
<text text-anchor="middle" x="332.75" y="-1045.38" font-family="Times,serif" font-size="15.00">enter senddate acknowledgement</text>
</g>
<!-- 6622995920&#45;&#45;5453343696 -->
<g id="edge1" class="edge">
<title>6622995920&#45;&#45;5453343696</title>
<path fill="none" stroke="black" d="M139.28,-953.75C176.02,-972.32 251.73,-1010.57 296.47,-1033.17"/>
</g>
<!-- 5453345040 -->
<g id="node4" class="node">
<title>5453345040</title>
<ellipse fill="none" stroke="black" cx="332.75" cy="-997" rx="124.86" ry="18"/>
<text text-anchor="middle" x="332.75" y="-991.38" font-family="Times,serif" font-size="15.00">phase application received</text>
</g>
<!-- 6622995920&#45;&#45;5453345040 -->
<g id="edge2" class="edge">
<title>6622995920&#45;&#45;5453345040</title>
<path fill="none" stroke="black" d="M142.52,-949.19C173.11,-956.92 226.55,-970.42 268.86,-981.11"/>
</g>
<!-- 5453333648 -->
<g id="node5" class="node">
<title>5453333648</title>
<ellipse fill="none" stroke="black" cx="332.75" cy="-943" rx="149.06" ry="18"/>
<text text-anchor="middle" x="332.75" y="-937.38" font-family="Times,serif" font-size="15.00">register submission date request</text>
</g>
<!-- 6622995920&#45;&#45;5453333648 -->
<g id="edge3" class="edge">
<title>6622995920&#45;&#45;5453333648</title>
<path fill="none" stroke="black" d="M144.21,-943C155.13,-943 168.75,-943 183.62,-943"/>
</g>
<!-- 5453347344 -->
<g id="node6" class="node">
<title>5453347344</title>
<ellipse fill="none" stroke="black" cx="332.75" cy="-889" rx="27" ry="18"/>
<text text-anchor="middle" x="332.75" y="-883.38" font-family="Times,serif" font-size="15.00">seq</text>
</g>
<!-- 6622995920&#45;&#45;5453347344 -->
<g id="edge61" class="edge">
<title>6622995920&#45;&#45;5453347344</title>
<path fill="none" stroke="black" d="M142.52,-936.81C183.64,-926.42 266.04,-905.6 307.19,-895.21"/>
</g>
<!-- 6624983568 -->
<g id="node7" class="node">
<title>6624983568</title>
<ellipse fill="none" stroke="black" cx="721.59" cy="-904" rx="108.55" ry="18"/>
<text text-anchor="middle" x="721.59" y="-898.38" font-family="Times,serif" font-size="15.00">OLO messaging active</text>
</g>
<!-- 5453347344&#45;&#45;6624983568 -->
<g id="edge4" class="edge">
<title>5453347344&#45;&#45;6624983568</title>
<path fill="none" stroke="black" d="M360.03,-890.02C411.64,-892.02 528.76,-896.56 615.59,-899.93"/>
</g>
<!-- 6624970448 -->
<g id="node8" class="node">
<title>6624970448</title>
<ellipse fill="none" stroke="black" cx="721.59" cy="-850" rx="27" ry="18"/>
<text text-anchor="middle" x="721.59" y="-844.38" font-family="Times,serif" font-size="15.00">and</text>
</g>
<!-- 5453347344&#45;&#45;6624970448 -->
<g id="edge60" class="edge">
<title>5453347344&#45;&#45;6624970448</title>
<path fill="none" stroke="black" d="M359.73,-886.38C430.12,-879.28 623.92,-859.75 694.47,-852.63"/>
</g>
<!-- 6620911760 -->
<g id="node9" class="node">
<title>6620911760</title>
<ellipse fill="none" stroke="black" cx="1119.38" cy="-964" rx="27" ry="18"/>
<text text-anchor="middle" x="1119.38" y="-958.38" font-family="Times,serif" font-size="15.00">xor</text>
</g>
<!-- 6624970448&#45;&#45;6620911760 -->
<g id="edge7" class="edge">
<title>6624970448&#45;&#45;6620911760</title>
<path fill="none" stroke="black" d="M746.75,-856.96C817.41,-877.31 1023.13,-936.57 1094.03,-956.99"/>
</g>
<!-- 6624781392 -->
<g id="node12" class="node">
<title>6624781392</title>
<ellipse fill="none" stroke="black" cx="1119.38" cy="-820" rx="27" ry="18"/>
<text text-anchor="middle" x="1119.38" y="-814.38" font-family="Times,serif" font-size="15.00">seq</text>
</g>
<!-- 6624970448&#45;&#45;6624781392 -->
<g id="edge59" class="edge">
<title>6624970448&#45;&#45;6624781392</title>
<path fill="none" stroke="black" d="M748.87,-848.01C820.78,-842.56 1020.22,-827.44 1092.11,-821.99"/>
</g>
<!-- 6624778768 -->
<g id="node10" class="node">
<title>6624778768</title>
<ellipse fill="black" stroke="black" cx="1399.85" cy="-1003" rx="2.7" ry="2.7"/>
</g>
<!-- 6620911760&#45;&#45;6624778768 -->
<g id="edge5" class="edge">
<title>6620911760&#45;&#45;6624778768</title>
<path fill="none" stroke="black" d="M1146.33,-967.63C1211.14,-976.71 1376.37,-999.85 1396.77,-1002.71"/>
</g>
<!-- 6624774032 -->
<g id="node11" class="node">
<title>6624774032</title>
<ellipse fill="none" stroke="black" cx="1399.85" cy="-964" rx="82.77" ry="18"/>
<text text-anchor="middle" x="1399.85" y="-958.38" font-family="Times,serif" font-size="15.00">register deadline</text>
</g>
<!-- 6620911760&#45;&#45;6624774032 -->
<g id="edge6" class="edge">
<title>6620911760&#45;&#45;6624774032</title>
<path fill="none" stroke="black" d="M1146.83,-964C1185.45,-964 1258.97,-964 1316.67,-964"/>
</g>
<!-- 6624777424 -->
<g id="node13" class="node">
<title>6624777424</title>
<ellipse fill="none" stroke="black" cx="1399.85" cy="-910" rx="27" ry="18"/>
<text text-anchor="middle" x="1399.85" y="-904.38" font-family="Times,serif" font-size="15.00">xor</text>
</g>
<!-- 6624781392&#45;&#45;6624777424 -->
<g id="edge15" class="edge">
<title>6624781392&#45;&#45;6624777424</title>
<path fill="none" stroke="black" d="M1144.12,-827.67C1196.73,-844.68 1322.61,-885.36 1375.16,-902.35"/>
</g>
<!-- 6624787536 -->
<g id="node21" class="node">
<title>6624787536</title>
<ellipse fill="none" stroke="black" cx="1399.85" cy="-820" rx="27" ry="18"/>
<text text-anchor="middle" x="1399.85" y="-814.38" font-family="Times,serif" font-size="15.00">and</text>
</g>
<!-- 6624781392&#45;&#45;6624787536 -->
<g id="edge27" class="edge">
<title>6624781392&#45;&#45;6624787536</title>
<path fill="none" stroke="black" d="M1146.83,-820C1200.05,-820 1319.5,-820 1372.57,-820"/>
</g>
<!-- 6624812624 -->
<g id="node33" class="node">
<title>6624812624</title>
<ellipse fill="none" stroke="black" cx="1399.85" cy="-676" rx="27" ry="18"/>
<text text-anchor="middle" x="1399.85" y="-670.38" font-family="Times,serif" font-size="15.00">and</text>
</g>
<!-- 6624781392&#45;&#45;6624812624 -->
<g id="edge32" class="edge">
<title>6624781392&#45;&#45;6624812624</title>
<path fill="none" stroke="black" d="M1141.31,-809.18C1193.04,-782.42 1326.46,-713.43 1378.05,-686.75"/>
</g>
<!-- 6624892880 -->
<g id="node38" class="node">
<title>6624892880</title>
<ellipse fill="none" stroke="black" cx="1399.85" cy="-448" rx="27" ry="18"/>
<text text-anchor="middle" x="1399.85" y="-442.38" font-family="Times,serif" font-size="15.00">xor</text>
</g>
<!-- 6624781392&#45;&#45;6624892880 -->
<g id="edge58" class="edge">
<title>6624781392&#45;&#45;6624892880</title>
<path fill="none" stroke="black" d="M1132.35,-804.02C1178.05,-742.96 1341.3,-524.87 1386.92,-463.92"/>
</g>
<!-- 6624808016 -->
<g id="node14" class="node">
<title>6624808016</title>
<ellipse fill="black" stroke="black" cx="1624.54" cy="-1069" rx="2.7" ry="2.7"/>
</g>
<!-- 6624777424&#45;&#45;6624808016 -->
<g id="edge8" class="edge">
<title>6624777424&#45;&#45;6624808016</title>
<path fill="none" stroke="black" d="M1419.07,-923.01C1468.93,-958.61 1605.02,-1055.77 1621.83,-1067.78"/>
</g>
<!-- 6624808272 -->
<g id="node15" class="node">
<title>6624808272</title>
<ellipse fill="none" stroke="black" cx="1624.54" cy="-1030" rx="27" ry="18"/>
<text text-anchor="middle" x="1624.54" y="-1024.38" font-family="Times,serif" font-size="15.00">seq</text>
</g>
<!-- 6624777424&#45;&#45;6624808272 -->
<g id="edge14" class="edge">
<title>6624777424&#45;&#45;6624808272</title>
<path fill="none" stroke="black" d="M1421.4,-921.07C1463.71,-943.88 1560.17,-995.85 1602.72,-1018.78"/>
</g>
<!-- 6624812432 -->
<g id="node16" class="node">
<title>6624812432</title>
<ellipse fill="none" stroke="black" cx="1959.72" cy="-1192" rx="176.42" ry="18"/>
<text text-anchor="middle" x="1959.72" y="-1186.38" font-family="Times,serif" font-size="15.00">enter senddate procedure confirmation</text>
</g>
<!-- 6624808272&#45;&#45;6624812432 -->
<g id="edge9" class="edge">
<title>6624808272&#45;&#45;6624812432</title>
<path fill="none" stroke="black" d="M1647.15,-1040.5C1702.88,-1067.6 1852.02,-1140.12 1921.79,-1174.04"/>
</g>
<!-- 6624888016 -->
<g id="node17" class="node">
<title>6624888016</title>
<ellipse fill="none" stroke="black" cx="1959.72" cy="-1138" rx="178.53" ry="18"/>
<text text-anchor="middle" x="1959.72" y="-1132.38" font-family="Times,serif" font-size="15.00">enter date termination request received</text>
</g>
<!-- 6624808272&#45;&#45;6624888016 -->
<g id="edge10" class="edge">
<title>6624808272&#45;&#45;6624888016</title>
<path fill="none" stroke="black" d="M1649.24,-1037.68C1702.09,-1054.81 1830.75,-1096.52 1904.47,-1120.41"/>
</g>
<!-- 6624901904 -->
<g id="node18" class="node">
<title>6624901904</title>
<ellipse fill="none" stroke="black" cx="1959.72" cy="-1084" rx="164.85" ry="18"/>
<text text-anchor="middle" x="1959.72" y="-1078.38" font-family="Times,serif" font-size="15.00">enter senddate confirmation request</text>
</g>
<!-- 6624808272&#45;&#45;6624901904 -->
<g id="edge11" class="edge">
<title>6624808272&#45;&#45;6624901904</title>
<path fill="none" stroke="black" d="M1651.13,-1034.15C1696.32,-1041.47 1792.32,-1057.03 1865.13,-1068.83"/>
</g>
<!-- 6624898064 -->
<g id="node19" class="node">
<title>6624898064</title>
<ellipse fill="none" stroke="black" cx="1959.72" cy="-1030" rx="193.26" ry="18"/>
<text text-anchor="middle" x="1959.72" y="-1024.38" font-family="Times,serif" font-size="15.00">register date decision terminate on request</text>
</g>
<!-- 6624808272&#45;&#45;6624898064 -->
<g id="edge12" class="edge">
<title>6624808272&#45;&#45;6624898064</title>
<path fill="none" stroke="black" d="M1651.97,-1030C1678.13,-1030 1720.74,-1030 1765.99,-1030"/>
</g>
<!-- 6624894800 -->
<g id="node20" class="node">
<title>6624894800</title>
<ellipse fill="none" stroke="black" cx="1959.72" cy="-976" rx="110.66" ry="18"/>
<text text-anchor="middle" x="1959.72" y="-970.38" font-family="Times,serif" font-size="15.00">reception through OLO</text>
</g>
<!-- 6624808272&#45;&#45;6624894800 -->
<g id="edge13" class="edge">
<title>6624808272&#45;&#45;6624894800</title>
<path fill="none" stroke="black" d="M1651.13,-1025.85C1699.44,-1018.02 1805.84,-1000.78 1879.88,-988.78"/>
</g>
<!-- 6624894864 -->
<g id="node22" class="node">
<title>6624894864</title>
<ellipse fill="none" stroke="black" cx="1624.54" cy="-883" rx="47" ry="18"/>
<text text-anchor="middle" x="1624.54" y="-877.38" font-family="Times,serif" font-size="15.00">xor loop</text>
</g>
<!-- 6624787536&#45;&#45;6624894864 -->
<g id="edge18" class="edge">
<title>6624787536&#45;&#45;6624894864</title>
<path fill="none" stroke="black" d="M1425.1,-826.86C1463.88,-837.83 1540.13,-859.4 1585.99,-872.38"/>
</g>
<!-- 6624896592 -->
<g id="node25" class="node">
<title>6624896592</title>
<ellipse fill="none" stroke="black" cx="1624.54" cy="-763" rx="27" ry="18"/>
<text text-anchor="middle" x="1624.54" y="-757.38" font-family="Times,serif" font-size="15.00">seq</text>
</g>
<!-- 6624787536&#45;&#45;6624896592 -->
<g id="edge26" class="edge">
<title>6624787536&#45;&#45;6624896592</title>
<path fill="none" stroke="black" d="M1425.53,-813.68C1468.34,-802.73 1555.87,-780.32 1598.75,-769.35"/>
</g>
<!-- 6624902416 -->
<g id="node23" class="node">
<title>6624902416</title>
<ellipse fill="none" stroke="black" cx="1959.72" cy="-922" rx="121.18" ry="18"/>
<text text-anchor="middle" x="1959.72" y="-916.38" font-family="Times,serif" font-size="15.00">send confirmation receipt</text>
</g>
<!-- 6624894864&#45;&#45;6624902416 -->
<g id="edge16" class="edge">
<title>6624894864&#45;&#45;6624902416</title>
<path fill="none" stroke="black" d="M1669.79,-888.18C1718.82,-893.92 1799.37,-903.35 1862.98,-910.79"/>
</g>
<!-- 6624898128 -->
<g id="node24" class="node">
<title>6624898128</title>
<ellipse fill="black" stroke="black" cx="1959.72" cy="-883" rx="2.7" ry="2.7"/>
</g>
<!-- 6624894864&#45;&#45;6624898128 -->
<g id="edge17" class="edge">
<title>6624894864&#45;&#45;6624898128</title>
<path fill="none" stroke="black" d="M1671.87,-883C1758.41,-883 1937.67,-883 1957.02,-883"/>
</g>
<!-- 6624898768 -->
<g id="node26" class="node">
<title>6624898768</title>
<ellipse fill="none" stroke="black" cx="1959.72" cy="-844" rx="112.76" ry="18"/>
<text text-anchor="middle" x="1959.72" y="-838.38" font-family="Times,serif" font-size="15.00">applicant is stakeholder</text>
</g>
<!-- 6624896592&#45;&#45;6624898768 -->
<g id="edge19" class="edge">
<title>6624896592&#45;&#45;6624898768</title>
<path fill="none" stroke="black" d="M1650.31,-769.02C1701.82,-781.54 1821.82,-810.72 1896.03,-828.76"/>
</g>
<!-- 6624889104 -->
<g id="node27" class="node">
<title>6624889104</title>
<ellipse fill="none" stroke="black" cx="1959.72" cy="-790" rx="27" ry="18"/>
<text text-anchor="middle" x="1959.72" y="-784.38" font-family="Times,serif" font-size="15.00">and</text>
</g>
<!-- 6624896592&#45;&#45;6624889104 -->
<g id="edge22" class="edge">
<title>6624896592&#45;&#45;6624889104</title>
<path fill="none" stroke="black" d="M1651.69,-765.12C1713.97,-770.17 1870.54,-782.85 1932.7,-787.89"/>
</g>
<!-- 6624893712 -->
<g id="node30" class="node">
<title>6624893712</title>
<ellipse fill="none" stroke="black" cx="1959.72" cy="-736" rx="160.64" ry="18"/>
<text text-anchor="middle" x="1959.72" y="-730.38" font-family="Times,serif" font-size="15.00">forward to the competent authority</text>
</g>
<!-- 6624896592&#45;&#45;6624893712 -->
<g id="edge23" class="edge">
<title>6624896592&#45;&#45;6624893712</title>
<path fill="none" stroke="black" d="M1651.69,-760.88C1689.66,-757.8 1762.66,-751.89 1827.96,-746.6"/>
</g>
<!-- 6624887824 -->
<g id="node31" class="node">
<title>6624887824</title>
<ellipse fill="none" stroke="black" cx="1959.72" cy="-682" rx="147.49" ry="18"/>
<text text-anchor="middle" x="1959.72" y="-676.38" font-family="Times,serif" font-size="15.00">regular procedure without MER</text>
</g>
<!-- 6624896592&#45;&#45;6624887824 -->
<g id="edge24" class="edge">
<title>6624896592&#45;&#45;6624887824</title>
<path fill="none" stroke="black" d="M1650.31,-756.98C1700.76,-744.71 1816.93,-716.47 1891.41,-698.36"/>
</g>
<!-- 6624886928 -->
<g id="node32" class="node">
<title>6624886928</title>
<ellipse fill="none" stroke="black" cx="1959.72" cy="-628" rx="140.65" ry="18"/>
<text text-anchor="middle" x="1959.72" y="-622.38" font-family="Times,serif" font-size="15.00">create procedure confirmation</text>
</g>
<!-- 6624896592&#45;&#45;6624886928 -->
<g id="edge25" class="edge">
<title>6624896592&#45;&#45;6624886928</title>
<path fill="none" stroke="black" d="M1648.18,-753.83C1703.03,-731.6 1843.79,-674.57 1915.43,-645.54"/>
</g>
<!-- 6624895952 -->
<g id="node28" class="node">
<title>6624895952</title>
<ellipse fill="none" stroke="black" cx="2324.37" cy="-817" rx="135.39" ry="18"/>
<text text-anchor="middle" x="2324.37" y="-811.38" font-family="Times,serif" font-size="15.00">calculate provisional charges</text>
</g>
<!-- 6624889104&#45;&#45;6624895952 -->
<g id="edge20" class="edge">
<title>6624889104&#45;&#45;6624895952</title>
<path fill="none" stroke="black" d="M1986.81,-791.94C2031.95,-795.3 2127.3,-802.4 2205.02,-808.19"/>
</g>
<!-- 6624897872 -->
<g id="node29" class="node">
<title>6624897872</title>
<ellipse fill="none" stroke="black" cx="2324.37" cy="-763" rx="99.08" ry="18"/>
<text text-anchor="middle" x="2324.37" y="-757.38" font-family="Times,serif" font-size="15.00">terminate on request</text>
</g>
<!-- 6624889104&#45;&#45;6624897872 -->
<g id="edge21" class="edge">
<title>6624889104&#45;&#45;6624897872</title>
<path fill="none" stroke="black" d="M1986.81,-788.06C2037.31,-784.3 2150.64,-775.86 2231.84,-769.81"/>
</g>
<!-- 6624888336 -->
<g id="node34" class="node">
<title>6624888336</title>
<ellipse fill="none" stroke="black" cx="1624.54" cy="-676" rx="105.92" ry="18"/>
<text text-anchor="middle" x="1624.54" y="-670.38" font-family="Times,serif" font-size="15.00">start WABOprocedure</text>
</g>
<!-- 6624812624&#45;&#45;6624888336 -->
<g id="edge28" class="edge">
<title>6624812624&#45;&#45;6624888336</title>
<path fill="none" stroke="black" d="M1427.27,-676C1450.08,-676 1484.6,-676 1518.36,-676"/>
</g>
<!-- 6624894736 -->
<g id="node35" class="node">
<title>6624894736</title>
<ellipse fill="none" stroke="black" cx="1624.54" cy="-589" rx="27" ry="18"/>
<text text-anchor="middle" x="1624.54" y="-583.38" font-family="Times,serif" font-size="15.00">xor</text>
</g>
<!-- 6624812624&#45;&#45;6624894736 -->
<g id="edge31" class="edge">
<title>6624812624&#45;&#45;6624894736</title>
<path fill="none" stroke="black" d="M1423.84,-667.02C1466.62,-650.3 1557.98,-614.61 1600.67,-597.93"/>
</g>
<!-- 6624887952 -->
<g id="node36" class="node">
<title>6624887952</title>
<ellipse fill="black" stroke="black" cx="1959.72" cy="-589" rx="2.7" ry="2.7"/>
</g>
<!-- 6624894736&#45;&#45;6624887952 -->
<g id="edge29" class="edge">
<title>6624894736&#45;&#45;6624887952</title>
<path fill="none" stroke="black" d="M1651.97,-589C1726.46,-589 1934.24,-589 1956.74,-589"/>
</g>
<!-- 6624895568 -->
<g id="node37" class="node">
<title>6624895568</title>
<ellipse fill="none" stroke="black" cx="1959.72" cy="-550" rx="42.79" ry="18"/>
<text text-anchor="middle" x="1959.72" y="-544.38" font-family="Times,serif" font-size="15.00">publish</text>
</g>
<!-- 6624894736&#45;&#45;6624895568 -->
<g id="edge30" class="edge">
<title>6624894736&#45;&#45;6624895568</title>
<path fill="none" stroke="black" d="M1651.41,-585.97C1709.05,-579.23 1848.43,-562.91 1917.92,-554.78"/>
</g>
<!-- 6621767312 -->
<g id="node39" class="node">
<title>6621767312</title>
<ellipse fill="black" stroke="black" cx="1624.54" cy="-448" rx="2.7" ry="2.7"/>
</g>
<!-- 6624892880&#45;&#45;6621767312 -->
<g id="edge33" class="edge">
<title>6624892880&#45;&#45;6621767312</title>
<path fill="none" stroke="black" d="M1427.27,-448C1482.11,-448 1604.62,-448 1621.58,-448"/>
</g>
<!-- 6621759888 -->
<g id="node40" class="node">
<title>6621759888</title>
<ellipse fill="none" stroke="black" cx="1624.54" cy="-307" rx="27" ry="18"/>
<text text-anchor="middle" x="1624.54" y="-301.38" font-family="Times,serif" font-size="15.00">seq</text>
</g>
<!-- 6624892880&#45;&#45;6621759888 -->
<g id="edge57" class="edge">
<title>6624892880&#45;&#45;6621759888</title>
<path fill="none" stroke="black" d="M1420.22,-435.73C1462.34,-409.07 1561.84,-346.07 1604.06,-319.34"/>
</g>
<!-- 6624946064 -->
<g id="node41" class="node">
<title>6624946064</title>
<ellipse fill="none" stroke="black" cx="1959.72" cy="-496" rx="27" ry="18"/>
<text text-anchor="middle" x="1959.72" y="-490.38" font-family="Times,serif" font-size="15.00">xor</text>
</g>
<!-- 6621759888&#45;&#45;6624946064 -->
<g id="edge44" class="edge">
<title>6621759888&#45;&#45;6624946064</title>
<path fill="none" stroke="black" d="M1645.88,-318.54C1705.51,-352.36 1879.37,-450.98 1938.65,-484.61"/>
</g>
<!-- 6624950032 -->
<g id="node52" class="node">
<title>6624950032</title>
<ellipse fill="none" stroke="black" cx="1959.72" cy="-442" rx="184.31" ry="18"/>
<text text-anchor="middle" x="1959.72" y="-436.38" font-family="Times,serif" font-size="15.00">phase procedure prematurely terminated</text>
</g>
<!-- 6621759888&#45;&#45;6624950032 -->
<g id="edge45" class="edge">
<title>6621759888&#45;&#45;6624950032</title>
<path fill="none" stroke="black" d="M1648.18,-316.17C1702.81,-338.31 1842.66,-394.97 1914.57,-424.11"/>
</g>
<!-- 6621809040 -->
<g id="node53" class="node">
<title>6621809040</title>
<ellipse fill="none" stroke="black" cx="1959.72" cy="-388" rx="132.23" ry="18"/>
<text text-anchor="middle" x="1959.72" y="-382.38" font-family="Times,serif" font-size="15.00">registration date publication</text>
</g>
<!-- 6621759888&#45;&#45;6621809040 -->
<g id="edge46" class="edge">
<title>6621759888&#45;&#45;6621809040</title>
<path fill="none" stroke="black" d="M1650.31,-313.02C1701.14,-325.38 1818.67,-353.95 1893.08,-372.04"/>
</g>
<!-- 6621820432 -->
<g id="node54" class="node">
<title>6621820432</title>
<ellipse fill="none" stroke="black" cx="1959.72" cy="-334" rx="95.93" ry="18"/>
<text text-anchor="middle" x="1959.72" y="-328.38" font-family="Times,serif" font-size="15.00">phase archived case</text>
</g>
<!-- 6621759888&#45;&#45;6621820432 -->
<g id="edge47" class="edge">
<title>6621759888&#45;&#45;6621820432</title>
<path fill="none" stroke="black" d="M1651.69,-309.12C1698.32,-312.9 1797.82,-320.96 1870.97,-326.89"/>
</g>
<!-- 6621814864 -->
<g id="node55" class="node">
<title>6621814864</title>
<ellipse fill="none" stroke="black" cx="1959.72" cy="-280" rx="92.77" ry="18"/>
<text text-anchor="middle" x="1959.72" y="-274.38" font-family="Times,serif" font-size="15.00">phase case handled</text>
</g>
<!-- 6621759888&#45;&#45;6621814864 -->
<g id="edge48" class="edge">
<title>6621759888&#45;&#45;6621814864</title>
<path fill="none" stroke="black" d="M1651.69,-304.88C1698.86,-301.06 1800.12,-292.85 1873.48,-286.91"/>
</g>
<!-- 6742205200 -->
<g id="node56" class="node">
<title>6742205200</title>
<ellipse fill="none" stroke="black" cx="1959.72" cy="-226" rx="115.39" ry="18"/>
<text text-anchor="middle" x="1959.72" y="-220.38" font-family="Times,serif" font-size="15.00">phase procedure aborted</text>
</g>
<!-- 6621759888&#45;&#45;6742205200 -->
<g id="edge49" class="edge">
<title>6621759888&#45;&#45;6742205200</title>
<path fill="none" stroke="black" d="M1650.31,-300.98C1701.74,-288.48 1821.47,-259.37 1895.71,-241.32"/>
</g>
<!-- 6742200016 -->
<g id="node57" class="node">
<title>6742200016</title>
<ellipse fill="none" stroke="black" cx="1959.72" cy="-172" rx="131.7" ry="18"/>
<text text-anchor="middle" x="1959.72" y="-166.38" font-family="Times,serif" font-size="15.00">stop all running subcases 2b</text>
</g>
<!-- 6621759888&#45;&#45;6742200016 -->
<g id="edge50" class="edge">
<title>6621759888&#45;&#45;6742200016</title>
<path fill="none" stroke="black" d="M1648.18,-297.83C1703.11,-275.57 1844.16,-218.42 1915.72,-189.43"/>
</g>
<!-- 6742198544 -->
<g id="node58" class="node">
<title>6742198544</title>
<ellipse fill="none" stroke="black" cx="1959.72" cy="-118" rx="54.36" ry="18"/>
<text text-anchor="middle" x="1959.72" y="-112.38" font-family="Times,serif" font-size="15.00">close case</text>
</g>
<!-- 6621759888&#45;&#45;6742198544 -->
<g id="edge51" class="edge">
<title>6621759888&#45;&#45;6742198544</title>
<path fill="none" stroke="black" d="M1645.88,-295.46C1703.25,-262.92 1866.35,-170.4 1931.43,-133.49"/>
</g>
<!-- 6742200592 -->
<g id="node59" class="node">
<title>6742200592</title>
<ellipse fill="none" stroke="black" cx="1959.72" cy="-64" rx="27" ry="18"/>
<text text-anchor="middle" x="1959.72" y="-58.38" font-family="Times,serif" font-size="15.00">xor</text>
</g>
<!-- 6621759888&#45;&#45;6742200592 -->
<g id="edge56" class="edge">
<title>6621759888&#45;&#45;6742200592</title>
<path fill="none" stroke="black" d="M1643.46,-293.94C1701.31,-251.74 1882.75,-119.41 1940.72,-77.13"/>
</g>
<!-- 6624944208 -->
<g id="node42" class="node">
<title>6624944208</title>
<ellipse fill="none" stroke="black" cx="2324.37" cy="-604" rx="27" ry="18"/>
<text text-anchor="middle" x="2324.37" y="-598.38" font-family="Times,serif" font-size="15.00">seq</text>
</g>
<!-- 6624946064&#45;&#45;6624944208 -->
<g id="edge36" class="edge">
<title>6624946064&#45;&#45;6624944208</title>
<path fill="none" stroke="black" d="M1984.8,-503.17C2050.61,-522.77 2232.99,-577.08 2299.06,-596.76"/>
</g>
<!-- 6624948624 -->
<g id="node45" class="node">
<title>6624948624</title>
<ellipse fill="none" stroke="black" cx="2324.37" cy="-496" rx="27" ry="18"/>
<text text-anchor="middle" x="2324.37" y="-490.38" font-family="Times,serif" font-size="15.00">seq</text>
</g>
<!-- 6624946064&#45;&#45;6624948624 -->
<g id="edge40" class="edge">
<title>6624946064&#45;&#45;6624948624</title>
<path fill="none" stroke="black" d="M1987.1,-496C2054.09,-496 2230.21,-496 2297.09,-496"/>
</g>
<!-- 6624946320 -->
<g id="node49" class="node">
<title>6624946320</title>
<ellipse fill="none" stroke="black" cx="2324.37" cy="-388" rx="27" ry="18"/>
<text text-anchor="middle" x="2324.37" y="-382.38" font-family="Times,serif" font-size="15.00">seq</text>
</g>
<!-- 6624946064&#45;&#45;6624946320 -->
<g id="edge43" class="edge">
<title>6624946064&#45;&#45;6624946320</title>
<path fill="none" stroke="black" d="M1984.8,-488.83C2050.61,-469.23 2232.99,-414.92 2299.06,-395.24"/>
</g>
<!-- 6624948816 -->
<g id="node43" class="node">
<title>6624948816</title>
<ellipse fill="none" stroke="black" cx="2695.85" cy="-658" rx="153.27" ry="18"/>
<text text-anchor="middle" x="2695.85" y="-652.38" font-family="Times,serif" font-size="15.00">create message terminate request</text>
</g>
<!-- 6624944208&#45;&#45;6624948816 -->
<g id="edge34" class="edge">
<title>6624944208&#45;&#45;6624948816</title>
<path fill="none" stroke="black" d="M2351.06,-607.75C2401.3,-615.1 2514.89,-631.7 2597.8,-643.82"/>
</g>
<!-- 6624949392 -->
<g id="node44" class="node">
<title>6624949392</title>
<ellipse fill="none" stroke="black" cx="2695.85" cy="-604" rx="123.81" ry="18"/>
<text text-anchor="middle" x="2695.85" y="-598.38" font-family="Times,serif" font-size="15.00">read publication date field</text>
</g>
<!-- 6624944208&#45;&#45;6624949392 -->
<g id="edge35" class="edge">
<title>6624944208&#45;&#45;6624949392</title>
<path fill="none" stroke="black" d="M2351.64,-604C2397.07,-604 2492.98,-604 2571.89,-604"/>
</g>
<!-- 6624939984 -->
<g id="node46" class="node">
<title>6624939984</title>
<ellipse fill="none" stroke="black" cx="2695.85" cy="-550" rx="110.13" ry="18"/>
<text text-anchor="middle" x="2695.85" y="-544.38" font-family="Times,serif" font-size="15.00">create forwarding copy</text>
</g>
<!-- 6624948624&#45;&#45;6624939984 -->
<g id="edge37" class="edge">
<title>6624948624&#45;&#45;6624939984</title>
<path fill="none" stroke="black" d="M2351.06,-499.75C2404.33,-507.54 2528.81,-525.73 2612.44,-537.96"/>
</g>
<!-- 6624944400 -->
<g id="node47" class="node">
<title>6624944400</title>
<ellipse fill="none" stroke="black" cx="2695.85" cy="-496" rx="200.1" ry="18"/>
<text text-anchor="middle" x="2695.85" y="-490.38" font-family="Times,serif" font-size="15.00">send send confirmation competent authority</text>
</g>
<!-- 6624948624&#45;&#45;6624944400 -->
<g id="edge38" class="edge">
<title>6624948624&#45;&#45;6624944400</title>
<path fill="none" stroke="black" d="M2351.64,-496C2382.97,-496 2438.31,-496 2495.52,-496"/>
</g>
<!-- 6624936336 -->
<g id="node48" class="node">
<title>6624936336</title>
<ellipse fill="none" stroke="black" cx="2695.85" cy="-442" rx="181.68" ry="18"/>
<text text-anchor="middle" x="2695.85" y="-436.38" font-family="Times,serif" font-size="15.00">phase forwarded to competent authority</text>
</g>
<!-- 6624948624&#45;&#45;6624936336 -->
<g id="edge39" class="edge">
<title>6624948624&#45;&#45;6624936336</title>
<path fill="none" stroke="black" d="M2351.06,-492.25C2399.99,-485.09 2509.02,-469.16 2591.26,-457.14"/>
</g>
<!-- 6624938256 -->
<g id="node50" class="node">
<title>6624938256</title>
<ellipse fill="none" stroke="black" cx="2695.85" cy="-388" rx="165.9" ry="18"/>
<text text-anchor="middle" x="2695.85" y="-382.38" font-family="Times,serif" font-size="15.00">create decision terminate on request</text>
</g>
<!-- 6624946320&#45;&#45;6624938256 -->
<g id="edge41" class="edge">
<title>6624946320&#45;&#45;6624938256</title>
<path fill="none" stroke="black" d="M2351.64,-388C2389.15,-388 2461.09,-388 2529.45,-388"/>
</g>
<!-- 6624943056 -->
<g id="node51" class="node">
<title>6624943056</title>
<ellipse fill="none" stroke="black" cx="2695.85" cy="-334" rx="137.49" ry="18"/>
<text text-anchor="middle" x="2695.85" y="-328.38" font-family="Times,serif" font-size="15.00">decision terminate on request</text>
</g>
<!-- 6624946320&#45;&#45;6624943056 -->
<g id="edge42" class="edge">
<title>6624946320&#45;&#45;6624943056</title>
<path fill="none" stroke="black" d="M2351.06,-384.25C2402.2,-376.77 2518.98,-359.7 2602.23,-347.54"/>
</g>
<!-- 6742199504 -->
<g id="node60" class="node">
<title>6742199504</title>
<ellipse fill="black" stroke="black" cx="2324.37" cy="-84" rx="2.7" ry="2.7"/>
</g>
<!-- 6742200592&#45;&#45;6742199504 -->
<g id="edge52" class="edge">
<title>6742200592&#45;&#45;6742199504</title>
<path fill="none" stroke="black" d="M1987.1,-65.45C2066.31,-69.82 2298.13,-82.61 2321.47,-83.9"/>
</g>
<!-- 6742201488 -->
<g id="node61" class="node">
<title>6742201488</title>
<ellipse fill="none" stroke="black" cx="2324.37" cy="-45" rx="27" ry="18"/>
<text text-anchor="middle" x="2324.37" y="-39.38" font-family="Times,serif" font-size="15.00">seq</text>
</g>
<!-- 6742200592&#45;&#45;6742201488 -->
<g id="edge55" class="edge">
<title>6742200592&#45;&#45;6742201488</title>
<path fill="none" stroke="black" d="M1987.1,-62.62C2054.09,-59.11 2230.21,-49.88 2297.09,-46.38"/>
</g>
<!-- 6742200144 -->
<g id="node62" class="node">
<title>6742200144</title>
<ellipse fill="none" stroke="black" cx="2695.85" cy="-72" rx="142.23" ry="18"/>
<text text-anchor="middle" x="2695.85" y="-66.38" font-family="Times,serif" font-size="15.00">request to competent authority</text>
</g>
<!-- 6742201488&#45;&#45;6742200144 -->
<g id="edge53" class="edge">
<title>6742201488&#45;&#45;6742200144</title>
<path fill="none" stroke="black" d="M2351.64,-46.92C2396.98,-50.23 2492.63,-57.22 2571.46,-62.98"/>
</g>
<!-- 6742208912 -->
<g id="node63" class="node">
<title>6742208912</title>
<ellipse fill="none" stroke="black" cx="2695.85" cy="-18" rx="197.99" ry="18"/>
<text text-anchor="middle" x="2695.85" y="-12.38" font-family="Times,serif" font-size="15.00">enter senddate letter to competent authority</text>
</g>
<!-- 6742201488&#45;&#45;6742208912 -->
<g id="edge54" class="edge">
<title>6742201488&#45;&#45;6742208912</title>
<path fill="none" stroke="black" d="M2351.64,-43.08C2390.96,-40.21 2468.12,-34.57 2539.34,-29.36"/>
</g>
<!-- 6742203920 -->
<g id="node65" class="node">
<title>6742203920</title>
<ellipse fill="black" stroke="black" cx="332.75" cy="-850" rx="2.7" ry="2.7"/>
</g>
<!-- 6622011920&#45;&#45;6742203920 -->
<g id="edge63" class="edge">
<title>6622011920&#45;&#45;6742203920</title>
<path fill="none" stroke="black" d="M143.36,-815.63C196,-825.23 313.59,-846.69 329.86,-849.66"/>
</g>
<!-- 6742211152 -->
<g id="node66" class="node">
<title>6742211152</title>
<ellipse fill="none" stroke="black" cx="332.75" cy="-811" rx="97.51" ry="18"/>
<text text-anchor="middle" x="332.75" y="-805.38" font-family="Times,serif" font-size="15.00">WAW permit aspect</text>
</g>
<!-- 6622011920&#45;&#45;6742211152 -->
<g id="edge64" class="edge">
<title>6622011920&#45;&#45;6742211152</title>
<path fill="none" stroke="black" d="M144.21,-811C167.06,-811 201.68,-811 234.98,-811"/>
</g>
<!-- 6623049808 -->
<g id="node68" class="node">
<title>6623049808</title>
<ellipse fill="black" stroke="black" cx="332.75" cy="-772" rx="2.7" ry="2.7"/>
</g>
<!-- 6742209488&#45;&#45;6623049808 -->
<g id="edge66" class="edge">
<title>6742209488&#45;&#45;6623049808</title>
<path fill="none" stroke="black" d="M143.78,-748.26C196.64,-754.93 313.68,-769.72 329.87,-771.76"/>
</g>
<!-- 6623049232 -->
<g id="node69" class="node">
<title>6623049232</title>
<ellipse fill="none" stroke="black" cx="332.75" cy="-733" rx="27" ry="18"/>
<text text-anchor="middle" x="332.75" y="-727.38" font-family="Times,serif" font-size="15.00">and</text>
</g>
<!-- 6742209488&#45;&#45;6623049232 -->
<g id="edge69" class="edge">
<title>6742209488&#45;&#45;6623049232</title>
<path fill="none" stroke="black" d="M144.21,-743.53C185.34,-741.22 264.6,-736.77 305.66,-734.46"/>
</g>
<!-- 6620545744 -->
<g id="node70" class="node">
<title>6620545744</title>
<ellipse fill="none" stroke="black" cx="721.59" cy="-772" rx="156.43" ry="18"/>
<text text-anchor="middle" x="721.59" y="-766.38" font-family="Times,serif" font-size="15.00">subcases completeness completed</text>
</g>
<!-- 6623049232&#45;&#45;6620545744 -->
<g id="edge67" class="edge">
<title>6623049232&#45;&#45;6620545744</title>
<path fill="none" stroke="black" d="M359.73,-735.62C408.6,-740.55 516.97,-751.47 602.27,-760.07"/>
</g>
<!-- 6620551184 -->
<g id="node71" class="node">
<title>6620551184</title>
<ellipse fill="none" stroke="black" cx="721.59" cy="-718" rx="131.18" ry="18"/>
<text text-anchor="middle" x="721.59" y="-712.38" font-family="Times,serif" font-size="15.00">treat subcases completeness</text>
</g>
<!-- 6623049232&#45;&#45;6620551184 -->
<g id="edge68" class="edge">
<title>6623049232&#45;&#45;6620551184</title>
<path fill="none" stroke="black" d="M360.03,-731.98C407.65,-730.13 511.02,-726.13 594.92,-722.87"/>
</g>
<!-- 6624008272 -->
<g id="node73" class="node">
<title>6624008272</title>
<ellipse fill="none" stroke="black" cx="332.75" cy="-679" rx="86.46" ry="18"/>
<text text-anchor="middle" x="332.75" y="-673.38" font-family="Times,serif" font-size="15.00">procedure change</text>
</g>
<!-- 6623050512&#45;&#45;6624008272 -->
<g id="edge71" class="edge">
<title>6623050512&#45;&#45;6624008272</title>
<path fill="none" stroke="black" d="M142.52,-631.19C174.98,-639.39 233.15,-654.09 276.46,-665.03"/>
</g>
<!-- 6624013072 -->
<g id="node74" class="node">
<title>6624013072</title>
<ellipse fill="none" stroke="black" cx="332.75" cy="-625" rx="137.49" ry="18"/>
<text text-anchor="middle" x="332.75" y="-619.38" font-family="Times,serif" font-size="15.00">create subcases completeness</text>
</g>
<!-- 6623050512&#45;&#45;6624013072 -->
<g id="edge72" class="edge">
<title>6623050512&#45;&#45;6624013072</title>
<path fill="none" stroke="black" d="M144.21,-625C157.92,-625 175.87,-625 195.22,-625"/>
</g>
<!-- 6624012752 -->
<g id="node75" class="node">
<title>6624012752</title>
<ellipse fill="none" stroke="black" cx="332.75" cy="-571" rx="84.35" ry="18"/>
<text text-anchor="middle" x="332.75" y="-565.38" font-family="Times,serif" font-size="15.00">request complete</text>
</g>
<!-- 6623050512&#45;&#45;6624012752 -->
<g id="edge73" class="edge">
<title>6623050512&#45;&#45;6624012752</title>
<path fill="none" stroke="black" d="M142.52,-618.81C175.09,-610.58 233.55,-595.81 276.9,-584.86"/>
</g>
<!-- 6624009232 -->
<g id="node76" class="node">
<title>6624009232</title>
<ellipse fill="none" stroke="black" cx="332.75" cy="-517" rx="27" ry="18"/>
<text text-anchor="middle" x="332.75" y="-511.38" font-family="Times,serif" font-size="15.00">seq</text>
</g>
<!-- 6623050512&#45;&#45;6624009232 -->
<g id="edge76" class="edge">
<title>6623050512&#45;&#45;6624009232</title>
<path fill="none" stroke="black" d="M139.28,-614.25C180.25,-593.55 269.65,-548.37 310.56,-527.71"/>
</g>
<!-- 6624004688 -->
<g id="node77" class="node">
<title>6624004688</title>
<ellipse fill="none" stroke="black" cx="721.59" cy="-571" rx="148.01" ry="18"/>
<text text-anchor="middle" x="721.59" y="-565.38" font-family="Times,serif" font-size="15.00">term for supplying missing data</text>
</g>
<!-- 6624009232&#45;&#45;6624004688 -->
<g id="edge74" class="edge">
<title>6624009232&#45;&#45;6624004688</title>
<path fill="none" stroke="black" d="M359.43,-520.58C412.08,-527.93 534.68,-545.05 622.42,-557.3"/>
</g>
<!-- 6624014288 -->
<g id="node78" class="node">
<title>6624014288</title>
<ellipse fill="none" stroke="black" cx="721.59" cy="-517" rx="166.43" ry="18"/>
<text text-anchor="middle" x="721.59" y="-511.38" font-family="Times,serif" font-size="15.00">create letter requesting missing data</text>
</g>
<!-- 6624009232&#45;&#45;6624014288 -->
<g id="edge75" class="edge">
<title>6624009232&#45;&#45;6624014288</title>
<path fill="none" stroke="black" d="M360.03,-517C400.25,-517 480.24,-517 554.69,-517"/>
</g>
<!-- 6624002768 -->
<g id="node80" class="node">
<title>6624002768</title>
<ellipse fill="none" stroke="black" cx="332.75" cy="-424" rx="47" ry="18"/>
<text text-anchor="middle" x="332.75" y="-418.38" font-family="Times,serif" font-size="15.00">xor loop</text>
</g>
<!-- 6624012880&#45;&#45;6624002768 -->
<g id="edge80" class="edge">
<title>6624012880&#45;&#45;6624002768</title>
<path fill="none" stroke="black" d="M142.94,-383.37C179.39,-391.21 247.62,-405.9 291.31,-415.3"/>
</g>
<!-- 6624293392 -->
<g id="node83" class="node">
<title>6624293392</title>
<ellipse fill="none" stroke="black" cx="332.75" cy="-331" rx="27" ry="18"/>
<text text-anchor="middle" x="332.75" y="-325.38" font-family="Times,serif" font-size="15.00">seq</text>
</g>
<!-- 6624012880&#45;&#45;6624293392 -->
<g id="edge87" class="edge">
<title>6624012880&#45;&#45;6624293392</title>
<path fill="none" stroke="black" d="M142.94,-372.52C184.01,-363.48 265.45,-345.58 306.64,-336.52"/>
</g>
<!-- 6624286800 -->
<g id="node90" class="node">
<title>6624286800</title>
<ellipse fill="none" stroke="black" cx="332.75" cy="-169" rx="27" ry="18"/>
<text text-anchor="middle" x="332.75" y="-163.38" font-family="Times,serif" font-size="15.00">seq</text>
</g>
<!-- 6624012880&#45;&#45;6624286800 -->
<g id="edge92" class="edge">
<title>6624012880&#45;&#45;6624286800</title>
<path fill="none" stroke="black" d="M133.03,-363.3C172.28,-324.93 277.51,-222.04 316.73,-183.68"/>
</g>
<!-- 6622242512 -->
<g id="node81" class="node">
<title>6622242512</title>
<ellipse fill="none" stroke="black" cx="721.59" cy="-463" rx="200.1" ry="18"/>
<text text-anchor="middle" x="721.59" y="-457.38" font-family="Times,serif" font-size="15.00">registrer date of publishing received request</text>
</g>
<!-- 6624002768&#45;&#45;6622242512 -->
<g id="edge78" class="edge">
<title>6624002768&#45;&#45;6622242512</title>
<path fill="none" stroke="black" d="M378.5,-428.51C429.02,-433.6 513.6,-442.13 586.02,-449.43"/>
</g>
<!-- 6624289040 -->
<g id="node82" class="node">
<title>6624289040</title>
<ellipse fill="black" stroke="black" cx="721.59" cy="-424" rx="2.7" ry="2.7"/>
</g>
<!-- 6624002768&#45;&#45;6624289040 -->
<g id="edge79" class="edge">
<title>6624002768&#45;&#45;6624289040</title>
<path fill="none" stroke="black" d="M380.03,-424C477.09,-424 694.98,-424 718.52,-424"/>
</g>
<!-- 6624290384 -->
<g id="node84" class="node">
<title>6624290384</title>
<ellipse fill="none" stroke="black" cx="721.59" cy="-385" rx="169.58" ry="18"/>
<text text-anchor="middle" x="721.59" y="-379.38" font-family="Times,serif" font-size="15.00">procedure change after completeness</text>
</g>
<!-- 6624293392&#45;&#45;6624290384 -->
<g id="edge81" class="edge">
<title>6624293392&#45;&#45;6624290384</title>
<path fill="none" stroke="black" d="M359.43,-334.58C410.9,-341.77 529.21,-358.28 616.46,-370.46"/>
</g>
<!-- 6624284816 -->
<g id="node85" class="node">
<title>6624284816</title>
<ellipse fill="none" stroke="black" cx="721.59" cy="-331" rx="105.92" ry="18"/>
<text text-anchor="middle" x="721.59" y="-325.38" font-family="Times,serif" font-size="15.00">send letter in progress</text>
</g>
<!-- 6624293392&#45;&#45;6624284816 -->
<g id="edge82" class="edge">
<title>6624293392&#45;&#45;6624284816</title>
<path fill="none" stroke="black" d="M360.03,-331C411.64,-331 528.76,-331 615.59,-331"/>
</g>
<!-- 6624283536 -->
<g id="node86" class="node">
<title>6624283536</title>
<ellipse fill="none" stroke="black" cx="721.59" cy="-277" rx="128.02" ry="18"/>
<text text-anchor="middle" x="721.59" y="-271.38" font-family="Times,serif" font-size="15.00">phase application receptive</text>
</g>
<!-- 6624293392&#45;&#45;6624283536 -->
<g id="edge83" class="edge">
<title>6624293392&#45;&#45;6624283536</title>
<path fill="none" stroke="black" d="M359.43,-327.42C413.43,-319.88 541.01,-302.07 629.1,-289.77"/>
</g>
<!-- 6624285072 -->
<g id="node87" class="node">
<title>6624285072</title>
<ellipse fill="none" stroke="black" cx="721.59" cy="-223" rx="27" ry="18"/>
<text text-anchor="middle" x="721.59" y="-217.38" font-family="Times,serif" font-size="15.00">xor</text>
</g>
<!-- 6624293392&#45;&#45;6624285072 -->
<g id="edge86" class="edge">
<title>6624293392&#45;&#45;6624285072</title>
<path fill="none" stroke="black" d="M358.24,-324.16C427.91,-304.71 626.67,-249.22 696.21,-229.81"/>
</g>
<!-- 6624295568 -->
<g id="node88" class="node">
<title>6624295568</title>
<ellipse fill="black" stroke="black" cx="1119.38" cy="-262" rx="2.7" ry="2.7"/>
</g>
<!-- 6624285072&#45;&#45;6624295568 -->
<g id="edge84" class="edge">
<title>6624285072&#45;&#45;6624295568</title>
<path fill="none" stroke="black" d="M748.56,-225.56C832.14,-233.79 1090.26,-259.23 1116.26,-261.79"/>
</g>
<!-- 6624293456 -->
<g id="node89" class="node">
<title>6624293456</title>
<ellipse fill="none" stroke="black" cx="1119.38" cy="-223" rx="120.13" ry="18"/>
<text text-anchor="middle" x="1119.38" y="-217.38" font-family="Times,serif" font-size="15.00">received OLO documents</text>
</g>
<!-- 6624285072&#45;&#45;6624293456 -->
<g id="edge85" class="edge">
<title>6624285072&#45;&#45;6624293456</title>
<path fill="none" stroke="black" d="M748.87,-223C799.02,-223 911.22,-223 998.91,-223"/>
</g>
<!-- 6624293712 -->
<g id="node91" class="node">
<title>6624293712</title>
<ellipse fill="none" stroke="black" cx="721.59" cy="-169" rx="27" ry="18"/>
<text text-anchor="middle" x="721.59" y="-163.38" font-family="Times,serif" font-size="15.00">and</text>
</g>
<!-- 6624286800&#45;&#45;6624293712 -->
<g id="edge90" class="edge">
<title>6624286800&#45;&#45;6624293712</title>
<path fill="none" stroke="black" d="M360.03,-169C430.61,-169 623.66,-169 694.27,-169"/>
</g>
<!-- 6624284624 -->
<g id="node94" class="node">
<title>6624284624</title>
<ellipse fill="none" stroke="black" cx="721.59" cy="-115" rx="165.37" ry="18"/>
<text text-anchor="middle" x="721.59" y="-109.38" font-family="Times,serif" font-size="15.00">enter senddate retrieve missing data</text>
</g>
<!-- 6624286800&#45;&#45;6624284624 -->
<g id="edge91" class="edge">
<title>6624286800&#45;&#45;6624284624</title>
<path fill="none" stroke="black" d="M359.43,-165.42C411.15,-158.2 530.37,-141.55 617.75,-129.36"/>
</g>
<!-- 6624296528 -->
<g id="node92" class="node">
<title>6624296528</title>
<ellipse fill="none" stroke="black" cx="1119.38" cy="-169" rx="101.19" ry="18"/>
<text text-anchor="middle" x="1119.38" y="-163.38" font-family="Times,serif" font-size="15.00">retrieve missing data</text>
</g>
<!-- 6624293712&#45;&#45;6624296528 -->
<g id="edge88" class="edge">
<title>6624293712&#45;&#45;6624296528</title>
<path fill="none" stroke="black" d="M748.87,-169C802.73,-169 928.16,-169 1017.94,-169"/>
</g>
<!-- 6624283216 -->
<g id="node93" class="node">
<title>6624283216</title>
<ellipse fill="none" stroke="black" cx="1119.38" cy="-115" rx="161.69" ry="18"/>
<text text-anchor="middle" x="1119.38" y="-109.38" font-family="Times,serif" font-size="15.00">phase asked additional information</text>
</g>
<!-- 6624293712&#45;&#45;6624283216 -->
<g id="edge89" class="edge">
<title>6624293712&#45;&#45;6624283216</title>
<path fill="none" stroke="black" d="M748.56,-165.46C801.7,-158.21 925.4,-141.33 1015.13,-129.09"/>
</g>
</g>
</svg>
