<?xml version="1.0" encoding="UTF-8" standalone="no"?>
<!DOCTYPE svg PUBLIC "-//W3C//DTD SVG 1.1//EN"
 "http://www.w3.org/Graphics/SVG/1.1/DTD/svg11.dtd">
<!-- Generated by graphviz version 8.0.5 (20230430.1635)
 -->
<!-- Title: pt Pages: 1 -->
<svg width="4499pt" height="961pt"
 viewBox="0.00 0.00 4499.32 960.70" xmlns="http://www.w3.org/2000/svg" xmlns:xlink="http://www.w3.org/1999/xlink">
<g id="graph0" class="graph" transform="scale(1 1) rotate(0) translate(4 956.7)">
<title>pt</title>
<polygon fill="white" stroke="none" points="-4,4 -4,-956.7 4495.32,-956.7 4495.32,4 -4,4"/>
<!-- 6622820496 -->
<g id="node1" class="node">
<title>6622820496</title>
<ellipse fill="none" stroke="black" cx="27" cy="-286" rx="27" ry="18"/>
<text text-anchor="middle" x="27" y="-280.38" font-family="Times,serif" font-size="15.00">seq</text>
</g>
<!-- 5452272528 -->
<g id="node2" class="node">
<title>5452272528</title>
<ellipse fill="none" stroke="black" cx="239.06" cy="-340" rx="149.06" ry="18"/>
<text text-anchor="middle" x="239.06" y="-334.38" font-family="Times,serif" font-size="15.00">register submission date request</text>
</g>
<!-- 6622820496&#45;&#45;5452272528 -->
<g id="edge1" class="edge">
<title>6622820496&#45;&#45;5452272528</title>
<path fill="none" stroke="black" d="M52.51,-292.3C82.05,-299.9 132.85,-312.95 173.83,-323.49"/>
</g>
<!-- 5452268176 -->
<g id="node3" class="node">
<title>5452268176</title>
<ellipse fill="none" stroke="black" cx="239.06" cy="-286" rx="27" ry="18"/>
<text text-anchor="middle" x="239.06" y="-280.38" font-family="Times,serif" font-size="15.00">and</text>
</g>
<!-- 6622820496&#45;&#45;5452268176 -->
<g id="edge84" class="edge">
<title>6622820496&#45;&#45;5452268176</title>
<path fill="none" stroke="black" d="M54.18,-286C94.54,-286 171.52,-286 211.89,-286"/>
</g>
<!-- 6625473872 -->
<g id="node86" class="node">
<title>6625473872</title>
<ellipse fill="none" stroke="black" cx="239.06" cy="-159" rx="27" ry="18"/>
<text text-anchor="middle" x="239.06" y="-153.38" font-family="Times,serif" font-size="15.00">xor</text>
</g>
<!-- 6622820496&#45;&#45;6625473872 -->
<g id="edge91" class="edge">
<title>6622820496&#45;&#45;6625473872</title>
<path fill="none" stroke="black" d="M47.76,-274.05C87.8,-249.85 178.08,-195.26 218.2,-171.01"/>
</g>
<!-- 5452270672 -->
<g id="node4" class="node">
<title>5452270672</title>
<ellipse fill="none" stroke="black" cx="584.77" cy="-421" rx="27" ry="18"/>
<text text-anchor="middle" x="584.77" y="-415.38" font-family="Times,serif" font-size="15.00">xor</text>
</g>
<!-- 5452268176&#45;&#45;5452270672 -->
<g id="edge4" class="edge">
<title>5452268176&#45;&#45;5452270672</title>
<path fill="none" stroke="black" d="M262.88,-294.96C325.4,-319.52 498.94,-387.68 561.18,-412.13"/>
</g>
<!-- 6624522448 -->
<g id="node7" class="node">
<title>6624522448</title>
<ellipse fill="none" stroke="black" cx="584.77" cy="-367" rx="160.64" ry="18"/>
<text text-anchor="middle" x="584.77" y="-361.38" font-family="Times,serif" font-size="15.00">forward to the competent authority</text>
</g>
<!-- 5452268176&#45;&#45;6624522448 -->
<g id="edge5" class="edge">
<title>5452268176&#45;&#45;6624522448</title>
<path fill="none" stroke="black" d="M265.06,-291.89C316.65,-304.05 436.56,-332.31 513.7,-350.49"/>
</g>
<!-- 5452275600 -->
<g id="node8" class="node">
<title>5452275600</title>
<ellipse fill="none" stroke="black" cx="584.77" cy="-313" rx="124.86" ry="18"/>
<text text-anchor="middle" x="584.77" y="-307.38" font-family="Times,serif" font-size="15.00">phase application received</text>
</g>
<!-- 5452268176&#45;&#45;5452275600 -->
<g id="edge6" class="edge">
<title>5452268176&#45;&#45;5452275600</title>
<path fill="none" stroke="black" d="M266.18,-288.05C310.04,-291.5 400.91,-298.64 474.26,-304.4"/>
</g>
<!-- 5452283408 -->
<g id="node9" class="node">
<title>5452283408</title>
<ellipse fill="none" stroke="black" cx="584.77" cy="-259" rx="147.49" ry="18"/>
<text text-anchor="middle" x="584.77" y="-253.38" font-family="Times,serif" font-size="15.00">regular procedure without MER</text>
</g>
<!-- 5452268176&#45;&#45;5452283408 -->
<g id="edge7" class="edge">
<title>5452268176&#45;&#45;5452283408</title>
<path fill="none" stroke="black" d="M266.18,-283.95C307.15,-280.73 389.11,-274.29 459.51,-268.76"/>
</g>
<!-- 6622481552 -->
<g id="node10" class="node">
<title>6622481552</title>
<ellipse fill="none" stroke="black" cx="584.77" cy="-205" rx="27" ry="18"/>
<text text-anchor="middle" x="584.77" y="-199.38" font-family="Times,serif" font-size="15.00">seq</text>
</g>
<!-- 5452268176&#45;&#45;6622481552 -->
<g id="edge83" class="edge">
<title>5452268176&#45;&#45;6622481552</title>
<path fill="none" stroke="black" d="M265.06,-280.11C328.55,-265.15 495.48,-225.81 558.87,-210.87"/>
</g>
<!-- 5452278800 -->
<g id="node5" class="node">
<title>5452278800</title>
<ellipse fill="black" stroke="black" cx="946.78" cy="-440" rx="2.7" ry="2.7"/>
</g>
<!-- 5452270672&#45;&#45;5452278800 -->
<g id="edge2" class="edge">
<title>5452270672&#45;&#45;5452278800</title>
<path fill="none" stroke="black" d="M611.95,-422.38C690.26,-426.51 918.83,-438.58 943.6,-439.88"/>
</g>
<!-- 5452281488 -->
<g id="node6" class="node">
<title>5452281488</title>
<ellipse fill="none" stroke="black" cx="946.78" cy="-401" rx="112.76" ry="18"/>
<text text-anchor="middle" x="946.78" y="-395.38" font-family="Times,serif" font-size="15.00">applicant is stakeholder</text>
</g>
<!-- 5452270672&#45;&#45;5452281488 -->
<g id="edge3" class="edge">
<title>5452270672&#45;&#45;5452281488</title>
<path fill="none" stroke="black" d="M611.95,-419.55C659.12,-416.93 760.78,-411.28 839.61,-406.9"/>
</g>
<!-- 6622490064 -->
<g id="node11" class="node">
<title>6622490064</title>
<ellipse fill="none" stroke="black" cx="946.78" cy="-267" rx="27" ry="18"/>
<text text-anchor="middle" x="946.78" y="-261.38" font-family="Times,serif" font-size="15.00">xor</text>
</g>
<!-- 6622481552&#45;&#45;6622490064 -->
<g id="edge10" class="edge">
<title>6622481552&#45;&#45;6622490064</title>
<path fill="none" stroke="black" d="M611.37,-209.41C677.72,-220.83 854.62,-251.3 920.55,-262.65"/>
</g>
<!-- 6624642960 -->
<g id="node14" class="node">
<title>6624642960</title>
<ellipse fill="none" stroke="black" cx="946.78" cy="-205" rx="27" ry="18"/>
<text text-anchor="middle" x="946.78" y="-199.38" font-family="Times,serif" font-size="15.00">and</text>
</g>
<!-- 6622481552&#45;&#45;6624642960 -->
<g id="edge82" class="edge">
<title>6622481552&#45;&#45;6624642960</title>
<path fill="none" stroke="black" d="M612.24,-205C678.98,-205 853.5,-205 919.75,-205"/>
</g>
<!-- 6624648976 -->
<g id="node12" class="node">
<title>6624648976</title>
<ellipse fill="black" stroke="black" cx="1351.93" cy="-306" rx="2.7" ry="2.7"/>
</g>
<!-- 6622490064&#45;&#45;6624648976 -->
<g id="edge8" class="edge">
<title>6622490064&#45;&#45;6624648976</title>
<path fill="none" stroke="black" d="M973.92,-269.53C1058.72,-277.73 1322.23,-303.22 1348.77,-305.79"/>
</g>
<!-- 6624648464 -->
<g id="node13" class="node">
<title>6624648464</title>
<ellipse fill="none" stroke="black" cx="1351.93" cy="-267" rx="203.78" ry="18"/>
<text text-anchor="middle" x="1351.93" y="-261.38" font-family="Times,serif" font-size="15.00">no permit needed or only notification needed</text>
</g>
<!-- 6622490064&#45;&#45;6624648464 -->
<g id="edge9" class="edge">
<title>6622490064&#45;&#45;6624648464</title>
<path fill="none" stroke="black" d="M974.23,-267C1010.49,-267 1079.01,-267 1147.77,-267"/>
</g>
<!-- 6624302160 -->
<g id="node15" class="node">
<title>6624302160</title>
<ellipse fill="none" stroke="black" cx="1351.93" cy="-213" rx="105.92" ry="18"/>
<text text-anchor="middle" x="1351.93" y="-207.38" font-family="Times,serif" font-size="15.00">start WABOprocedure</text>
</g>
<!-- 6624642960&#45;&#45;6624302160 -->
<g id="edge11" class="edge">
<title>6624642960&#45;&#45;6624302160</title>
<path fill="none" stroke="black" d="M974.23,-205.52C1028.45,-206.6 1154.77,-209.11 1246.21,-210.92"/>
</g>
<!-- 6624303248 -->
<g id="node16" class="node">
<title>6624303248</title>
<ellipse fill="none" stroke="black" cx="1351.93" cy="-159" rx="27" ry="18"/>
<text text-anchor="middle" x="1351.93" y="-153.38" font-family="Times,serif" font-size="15.00">seq</text>
</g>
<!-- 6624642960&#45;&#45;6624303248 -->
<g id="edge81" class="edge">
<title>6624642960&#45;&#45;6624303248</title>
<path fill="none" stroke="black" d="M973.61,-202.05C1046.26,-193.76 1251.78,-170.31 1324.8,-161.98"/>
</g>
<!-- 6624302480 -->
<g id="node17" class="node">
<title>6624302480</title>
<ellipse fill="none" stroke="black" cx="1646.08" cy="-347" rx="47" ry="18"/>
<text text-anchor="middle" x="1646.08" y="-341.38" font-family="Times,serif" font-size="15.00">xor loop</text>
</g>
<!-- 6624303248&#45;&#45;6624302480 -->
<g id="edge64" class="edge">
<title>6624303248&#45;&#45;6624302480</title>
<path fill="none" stroke="black" d="M1372.1,-171.34C1423.51,-204.42 1564.39,-295.08 1621.03,-331.53"/>
</g>
<!-- 6624303888 -->
<g id="node70" class="node">
<title>6624303888</title>
<ellipse fill="none" stroke="black" cx="1646.08" cy="-228" rx="27" ry="18"/>
<text text-anchor="middle" x="1646.08" y="-222.38" font-family="Times,serif" font-size="15.00">xor</text>
</g>
<!-- 6624303248&#45;&#45;6624303888 -->
<g id="edge71" class="edge">
<title>6624303248&#45;&#45;6624303888</title>
<path fill="none" stroke="black" d="M1377.84,-164.88C1433.04,-177.92 1565.1,-209.11 1620.23,-222.13"/>
</g>
<!-- 5452246160 -->
<g id="node77" class="node">
<title>5452246160</title>
<ellipse fill="none" stroke="black" cx="1646.08" cy="-159" rx="27" ry="18"/>
<text text-anchor="middle" x="1646.08" y="-153.38" font-family="Times,serif" font-size="15.00">xor</text>
</g>
<!-- 6624303248&#45;&#45;5452246160 -->
<g id="edge76" class="edge">
<title>6624303248&#45;&#45;5452246160</title>
<path fill="none" stroke="black" d="M1379.38,-159C1435,-159 1563.52,-159 1618.91,-159"/>
</g>
<!-- 6625466704 -->
<g id="node82" class="node">
<title>6625466704</title>
<ellipse fill="none" stroke="black" cx="1646.08" cy="-97" rx="27" ry="18"/>
<text text-anchor="middle" x="1646.08" y="-91.38" font-family="Times,serif" font-size="15.00">and</text>
</g>
<!-- 6624303248&#45;&#45;6625466704 -->
<g id="edge79" class="edge">
<title>6624303248&#45;&#45;6625466704</title>
<path fill="none" stroke="black" d="M1378.1,-153.66C1433.32,-141.94 1564.61,-114.08 1619.88,-102.35"/>
</g>
<!-- 6625463568 -->
<g id="node85" class="node">
<title>6625463568</title>
<ellipse fill="none" stroke="black" cx="1646.08" cy="-43" rx="54.36" ry="18"/>
<text text-anchor="middle" x="1646.08" y="-37.38" font-family="Times,serif" font-size="15.00">close case</text>
</g>
<!-- 6624303248&#45;&#45;6625463568 -->
<g id="edge80" class="edge">
<title>6624303248&#45;&#45;6625463568</title>
<path fill="none" stroke="black" d="M1375.86,-149.9C1426.84,-129.66 1549.86,-80.81 1610.34,-56.79"/>
</g>
<!-- 6624300880 -->
<g id="node18" class="node">
<title>6624300880</title>
<ellipse fill="none" stroke="black" cx="1851.84" cy="-401" rx="27" ry="18"/>
<text text-anchor="middle" x="1851.84" y="-395.38" font-family="Times,serif" font-size="15.00">seq</text>
</g>
<!-- 6624302480&#45;&#45;6624300880 -->
<g id="edge62" class="edge">
<title>6624302480&#45;&#45;6624300880</title>
<path fill="none" stroke="black" d="M1685.4,-357.16C1726.67,-368.09 1791.11,-385.17 1826.14,-394.46"/>
</g>
<!-- 6624306512 -->
<g id="node69" class="node">
<title>6624306512</title>
<ellipse fill="black" stroke="black" cx="1851.84" cy="-347" rx="2.7" ry="2.7"/>
</g>
<!-- 6624302480&#45;&#45;6624306512 -->
<g id="edge63" class="edge">
<title>6624302480&#45;&#45;6624306512</title>
<path fill="none" stroke="black" d="M1693.57,-347C1748.54,-347 1834.42,-347 1848.77,-347"/>
</g>
<!-- 6624308240 -->
<g id="node19" class="node">
<title>6624308240</title>
<ellipse fill="none" stroke="black" cx="2187.54" cy="-455" rx="27" ry="18"/>
<text text-anchor="middle" x="2187.54" y="-449.38" font-family="Times,serif" font-size="15.00">and</text>
</g>
<!-- 6624300880&#45;&#45;6624308240 -->
<g id="edge60" class="edge">
<title>6624300880&#45;&#45;6624308240</title>
<path fill="none" stroke="black" d="M1878.47,-405.15C1940.59,-415.2 2098.62,-440.77 2160.83,-450.84"/>
</g>
<!-- 6624302608 -->
<g id="node68" class="node">
<title>6624302608</title>
<ellipse fill="none" stroke="black" cx="2187.54" cy="-401" rx="178.53" ry="18"/>
<text text-anchor="middle" x="2187.54" y="-395.38" font-family="Times,serif" font-size="15.00">enter date termination request received</text>
</g>
<!-- 6624300880&#45;&#45;6624302608 -->
<g id="edge61" class="edge">
<title>6624300880&#45;&#45;6624302608</title>
<path fill="none" stroke="black" d="M1879.3,-401C1908.44,-401 1957.93,-401 2008.78,-401"/>
</g>
<!-- 6624302736 -->
<g id="node20" class="node">
<title>6624302736</title>
<ellipse fill="none" stroke="black" cx="2506.94" cy="-482" rx="99.08" ry="18"/>
<text text-anchor="middle" x="2506.94" y="-476.38" font-family="Times,serif" font-size="15.00">terminate on request</text>
</g>
<!-- 6624308240&#45;&#45;6624302736 -->
<g id="edge12" class="edge">
<title>6624308240&#45;&#45;6624302736</title>
<path fill="none" stroke="black" d="M2214.79,-457.23C2258.45,-460.95 2347.97,-468.56 2416.29,-474.37"/>
</g>
<!-- 6624297296 -->
<g id="node21" class="node">
<title>6624297296</title>
<ellipse fill="none" stroke="black" cx="2506.94" cy="-428" rx="27" ry="18"/>
<text text-anchor="middle" x="2506.94" y="-422.38" font-family="Times,serif" font-size="15.00">seq</text>
</g>
<!-- 6624308240&#45;&#45;6624297296 -->
<g id="edge59" class="edge">
<title>6624308240&#45;&#45;6624297296</title>
<path fill="none" stroke="black" d="M2214.79,-452.77C2274.5,-447.69 2419.93,-435.32 2479.67,-430.24"/>
</g>
<!-- 6621512528 -->
<g id="node22" class="node">
<title>6621512528</title>
<ellipse fill="none" stroke="black" cx="2794.77" cy="-911" rx="27" ry="18"/>
<text text-anchor="middle" x="2794.77" y="-905.38" font-family="Times,serif" font-size="15.00">xor</text>
</g>
<!-- 6624297296&#45;&#45;6621512528 -->
<g id="edge15" class="edge">
<title>6624297296&#45;&#45;6621512528</title>
<path fill="none" stroke="black" d="M2517.95,-444.91C2562.16,-519.63 2739.8,-819.79 2783.85,-894.23"/>
</g>
<!-- 6621515792 -->
<g id="node25" class="node">
<title>6621515792</title>
<ellipse fill="none" stroke="black" cx="2794.77" cy="-695" rx="27" ry="18"/>
<text text-anchor="middle" x="2794.77" y="-689.38" font-family="Times,serif" font-size="15.00">and</text>
</g>
<!-- 6624297296&#45;&#45;6621515792 -->
<g id="edge26" class="edge">
<title>6624297296&#45;&#45;6621515792</title>
<path fill="none" stroke="black" d="M2523.31,-442.36C2572.94,-488.72 2728.59,-634.11 2778.33,-680.57"/>
</g>
<!-- 6621514832 -->
<g id="node36" class="node">
<title>6621514832</title>
<ellipse fill="none" stroke="black" cx="2794.77" cy="-617" rx="125.39" ry="18"/>
<text text-anchor="middle" x="2794.77" y="-611.38" font-family="Times,serif" font-size="15.00">inform BAG administrator</text>
</g>
<!-- 6624297296&#45;&#45;6621514832 -->
<g id="edge27" class="edge">
<title>6624297296&#45;&#45;6621514832</title>
<path fill="none" stroke="black" d="M2526.7,-440.4C2576,-473 2709.42,-561.22 2766.87,-599.21"/>
</g>
<!-- 6621512912 -->
<g id="node37" class="node">
<title>6621512912</title>
<ellipse fill="none" stroke="black" cx="2794.77" cy="-563" rx="140.65" ry="18"/>
<text text-anchor="middle" x="2794.77" y="-557.38" font-family="Times,serif" font-size="15.00">create procedure confirmation</text>
</g>
<!-- 6624297296&#45;&#45;6621512912 -->
<g id="edge28" class="edge">
<title>6624297296&#45;&#45;6621512912</title>
<path fill="none" stroke="black" d="M2529.43,-438.15C2577.72,-460.96 2695.39,-516.53 2756.12,-545.22"/>
</g>
<!-- 6621514192 -->
<g id="node38" class="node">
<title>6621514192</title>
<ellipse fill="none" stroke="black" cx="2794.77" cy="-509" rx="27" ry="18"/>
<text text-anchor="middle" x="2794.77" y="-503.38" font-family="Times,serif" font-size="15.00">xor</text>
</g>
<!-- 6624297296&#45;&#45;6621514192 -->
<g id="edge31" class="edge">
<title>6624297296&#45;&#45;6621514192</title>
<path fill="none" stroke="black" d="M2532.31,-434.91C2586.31,-450.21 2715.52,-486.82 2769.47,-502.11"/>
</g>
<!-- 6621525456 -->
<g id="node41" class="node">
<title>6621525456</title>
<ellipse fill="none" stroke="black" cx="2794.77" cy="-455" rx="42.79" ry="18"/>
<text text-anchor="middle" x="2794.77" y="-449.38" font-family="Times,serif" font-size="15.00">publish</text>
</g>
<!-- 6624297296&#45;&#45;6621525456 -->
<g id="edge32" class="edge">
<title>6624297296&#45;&#45;6621525456</title>
<path fill="none" stroke="black" d="M2534.07,-430.47C2583.95,-435.18 2693.12,-445.49 2752.81,-451.13"/>
</g>
<!-- 6621523728 -->
<g id="node42" class="node">
<title>6621523728</title>
<ellipse fill="none" stroke="black" cx="2794.77" cy="-401" rx="27" ry="18"/>
<text text-anchor="middle" x="2794.77" y="-395.38" font-family="Times,serif" font-size="15.00">xor</text>
</g>
<!-- 6624297296&#45;&#45;6621523728 -->
<g id="edge35" class="edge">
<title>6624297296&#45;&#45;6621523728</title>
<path fill="none" stroke="black" d="M2534.07,-425.53C2588.5,-420.39 2713.52,-408.58 2767.81,-403.45"/>
</g>
<!-- 6625544080 -->
<g id="node45" class="node">
<title>6625544080</title>
<ellipse fill="none" stroke="black" cx="2794.77" cy="-347" rx="47" ry="18"/>
<text text-anchor="middle" x="2794.77" y="-341.38" font-family="Times,serif" font-size="15.00">xor loop</text>
</g>
<!-- 6624297296&#45;&#45;6625544080 -->
<g id="edge38" class="edge">
<title>6624297296&#45;&#45;6625544080</title>
<path fill="none" stroke="black" d="M2532.31,-421.09C2582.26,-406.94 2696.56,-374.55 2756.12,-357.67"/>
</g>
<!-- 6624535376 -->
<g id="node48" class="node">
<title>6624535376</title>
<ellipse fill="none" stroke="black" cx="2794.77" cy="-293" rx="152.75" ry="18"/>
<text text-anchor="middle" x="2794.77" y="-287.38" font-family="Times,serif" font-size="15.00">enter senddate acknowledgement</text>
</g>
<!-- 6624297296&#45;&#45;6624535376 -->
<g id="edge39" class="edge">
<title>6624297296&#45;&#45;6624535376</title>
<path fill="none" stroke="black" d="M2529.43,-417.85C2577.72,-395.04 2695.39,-339.47 2756.12,-310.78"/>
</g>
<!-- 6621513168 -->
<g id="node49" class="node">
<title>6621513168</title>
<ellipse fill="none" stroke="black" cx="2794.77" cy="-239" rx="27" ry="18"/>
<text text-anchor="middle" x="2794.77" y="-233.38" font-family="Times,serif" font-size="15.00">xor</text>
</g>
<!-- 6624297296&#45;&#45;6621513168 -->
<g id="edge42" class="edge">
<title>6624297296&#45;&#45;6621513168</title>
<path fill="none" stroke="black" d="M2526.7,-415.6C2578.49,-381.35 2723.08,-285.75 2774.95,-251.45"/>
</g>
<!-- 6624559312 -->
<g id="node52" class="node">
<title>6624559312</title>
<ellipse fill="none" stroke="black" cx="2794.77" cy="-161" rx="47" ry="18"/>
<text text-anchor="middle" x="2794.77" y="-155.38" font-family="Times,serif" font-size="15.00">xor loop</text>
</g>
<!-- 6624297296&#45;&#45;6624559312 -->
<g id="edge53" class="edge">
<title>6624297296&#45;&#45;6624559312</title>
<path fill="none" stroke="black" d="M2523.31,-413.64C2572.13,-368.04 2723.53,-226.62 2775.81,-177.78"/>
</g>
<!-- 6624749904 -->
<g id="node63" class="node">
<title>6624749904</title>
<ellipse fill="none" stroke="black" cx="2794.77" cy="-99" rx="27" ry="18"/>
<text text-anchor="middle" x="2794.77" y="-93.38" font-family="Times,serif" font-size="15.00">xor</text>
</g>
<!-- 6624297296&#45;&#45;6624749904 -->
<g id="edge58" class="edge">
<title>6624297296&#45;&#45;6624749904</title>
<path fill="none" stroke="black" d="M2521.35,-412.57C2569.36,-357.31 2732.43,-169.6 2780.4,-114.39"/>
</g>
<!-- 6621518096 -->
<g id="node23" class="node">
<title>6621518096</title>
<ellipse fill="black" stroke="black" cx="3159.94" cy="-950" rx="2.7" ry="2.7"/>
</g>
<!-- 6621512528&#45;&#45;6621518096 -->
<g id="edge13" class="edge">
<title>6621512528&#45;&#45;6621518096</title>
<path fill="none" stroke="black" d="M2821.89,-913.8C2900.93,-922.29 3133.61,-947.28 3157.04,-949.8"/>
</g>
<!-- 6621520144 -->
<g id="node24" class="node">
<title>6621520144</title>
<ellipse fill="none" stroke="black" cx="3159.94" cy="-911" rx="139.07" ry="18"/>
<text text-anchor="middle" x="3159.94" y="-905.38" font-family="Times,serif" font-size="15.00">initiative competent authority</text>
</g>
<!-- 6621512528&#45;&#45;6621520144 -->
<g id="edge14" class="edge">
<title>6621512528&#45;&#45;6621520144</title>
<path fill="none" stroke="black" d="M2822.18,-911C2863.73,-911 2947.17,-911 3020.61,-911"/>
</g>
<!-- 6621522000 -->
<g id="node26" class="node">
<title>6621522000</title>
<ellipse fill="none" stroke="black" cx="3159.94" cy="-857" rx="129.07" ry="18"/>
<text text-anchor="middle" x="3159.94" y="-851.38" font-family="Times,serif" font-size="15.00">activities regular procedure</text>
</g>
<!-- 6621515792&#45;&#45;6621522000 -->
<g id="edge16" class="edge">
<title>6621515792&#45;&#45;6621522000</title>
<path fill="none" stroke="black" d="M2817.94,-704.89C2877.85,-731.61 3043.57,-805.53 3119.73,-839.51"/>
</g>
<!-- 6621523344 -->
<g id="node27" class="node">
<title>6621523344</title>
<ellipse fill="none" stroke="black" cx="3159.94" cy="-803" rx="91.19" ry="18"/>
<text text-anchor="middle" x="3159.94" y="-797.38" font-family="Times,serif" font-size="15.00">phased application</text>
</g>
<!-- 6621515792&#45;&#45;6621523344 -->
<g id="edge17" class="edge">
<title>6621515792&#45;&#45;6621523344</title>
<path fill="none" stroke="black" d="M2819.88,-702.17C2878.34,-719.55 3028.65,-764.25 3108.05,-787.87"/>
</g>
<!-- 6621518864 -->
<g id="node28" class="node">
<title>6621518864</title>
<ellipse fill="none" stroke="black" cx="3159.94" cy="-749" rx="134.33" ry="18"/>
<text text-anchor="middle" x="3159.94" y="-743.38" font-family="Times,serif" font-size="15.00">send procedure confirmation</text>
</g>
<!-- 6621515792&#45;&#45;6621518864 -->
<g id="edge18" class="edge">
<title>6621515792&#45;&#45;6621518864</title>
<path fill="none" stroke="black" d="M2821.6,-698.84C2872.24,-706.37 2986.73,-723.39 3068.27,-735.52"/>
</g>
<!-- 6621526672 -->
<g id="node29" class="node">
<title>6621526672</title>
<ellipse fill="none" stroke="black" cx="3159.94" cy="-695" rx="176.42" ry="18"/>
<text text-anchor="middle" x="3159.94" y="-689.38" font-family="Times,serif" font-size="15.00">enter senddate procedure confirmation</text>
</g>
<!-- 6621515792&#45;&#45;6621526672 -->
<g id="edge19" class="edge">
<title>6621515792&#45;&#45;6621526672</title>
<path fill="none" stroke="black" d="M2822.18,-695C2856.79,-695 2920.47,-695 2983.22,-695"/>
</g>
<!-- 6621518416 -->
<g id="node30" class="node">
<title>6621518416</title>
<ellipse fill="none" stroke="black" cx="3159.94" cy="-641" rx="67.52" ry="18"/>
<text text-anchor="middle" x="3159.94" y="-635.38" font-family="Times,serif" font-size="15.00">MER present</text>
</g>
<!-- 6621515792&#45;&#45;6621518416 -->
<g id="edge20" class="edge">
<title>6621515792&#45;&#45;6621518416</title>
<path fill="none" stroke="black" d="M2821.6,-691.16C2879.29,-682.58 3019.85,-661.68 3100.14,-649.74"/>
</g>
<!-- 6621527888 -->
<g id="node31" class="node">
<title>6621527888</title>
<ellipse fill="none" stroke="black" cx="3159.94" cy="-587" rx="47" ry="18"/>
<text text-anchor="middle" x="3159.94" y="-581.38" font-family="Times,serif" font-size="15.00">xor loop</text>
</g>
<!-- 6621515792&#45;&#45;6621527888 -->
<g id="edge25" class="edge">
<title>6621515792&#45;&#45;6621527888</title>
<path fill="none" stroke="black" d="M2819.88,-687.83C2881.99,-669.36 3047.74,-620.07 3122.03,-597.98"/>
</g>
<!-- 6621523920 -->
<g id="node32" class="node">
<title>6621523920</title>
<ellipse fill="none" stroke="black" cx="3572.46" cy="-614" rx="200.1" ry="18"/>
<text text-anchor="middle" x="3572.46" y="-608.38" font-family="Times,serif" font-size="15.00">registrer date of publishing received request</text>
</g>
<!-- 6621527888&#45;&#45;6621523920 -->
<g id="edge21" class="edge">
<title>6621527888&#45;&#45;6621523920</title>
<path fill="none" stroke="black" d="M3206.44,-589.99C3255.4,-593.21 3336.08,-598.52 3409.16,-603.33"/>
</g>
<!-- 6621517904 -->
<g id="node33" class="node">
<title>6621517904</title>
<ellipse fill="none" stroke="black" cx="3572.46" cy="-560" rx="27" ry="18"/>
<text text-anchor="middle" x="3572.46" y="-554.38" font-family="Times,serif" font-size="15.00">seq</text>
</g>
<!-- 6621527888&#45;&#45;6621517904 -->
<g id="edge24" class="edge">
<title>6621527888&#45;&#45;6621517904</title>
<path fill="none" stroke="black" d="M3206.44,-584.01C3292.66,-578.34 3477.29,-566.19 3545.47,-561.71"/>
</g>
<!-- 6621511952 -->
<g id="node34" class="node">
<title>6621511952</title>
<ellipse fill="none" stroke="black" cx="3965.52" cy="-587" rx="156.96" ry="18"/>
<text text-anchor="middle" x="3965.52" y="-581.38" font-family="Times,serif" font-size="15.00">no permit required for application</text>
</g>
<!-- 6621517904&#45;&#45;6621511952 -->
<g id="edge22" class="edge">
<title>6621517904&#45;&#45;6621511952</title>
<path fill="none" stroke="black" d="M3599.73,-561.81C3646.31,-565.03 3746.35,-571.94 3829.9,-577.71"/>
</g>
<!-- 6621528016 -->
<g id="node35" class="node">
<title>6621528016</title>
<ellipse fill="none" stroke="black" cx="3965.52" cy="-533" rx="68.04" ry="18"/>
<text text-anchor="middle" x="3965.52" y="-527.38" font-family="Times,serif" font-size="15.00">suspend term</text>
</g>
<!-- 6621517904&#45;&#45;6621528016 -->
<g id="edge23" class="edge">
<title>6621517904&#45;&#45;6621528016</title>
<path fill="none" stroke="black" d="M3599.73,-558.19C3660.35,-554 3811.53,-543.56 3899.06,-537.52"/>
</g>
<!-- 6621516304 -->
<g id="node39" class="node">
<title>6621516304</title>
<ellipse fill="black" stroke="black" cx="3159.94" cy="-548" rx="2.7" ry="2.7"/>
</g>
<!-- 6621514192&#45;&#45;6621516304 -->
<g id="edge29" class="edge">
<title>6621514192&#45;&#45;6621516304</title>
<path fill="none" stroke="black" d="M2821.89,-511.8C2900.93,-520.29 3133.61,-545.28 3157.04,-547.8"/>
</g>
<!-- 6621523536 -->
<g id="node40" class="node">
<title>6621523536</title>
<ellipse fill="none" stroke="black" cx="3159.94" cy="-509" rx="153.27" ry="18"/>
<text text-anchor="middle" x="3159.94" y="-503.38" font-family="Times,serif" font-size="15.00">create message terminate request</text>
</g>
<!-- 6621514192&#45;&#45;6621523536 -->
<g id="edge30" class="edge">
<title>6621514192&#45;&#45;6621523536</title>
<path fill="none" stroke="black" d="M2822.18,-509C2861.03,-509 2936.53,-509 3006.21,-509"/>
</g>
<!-- 6620795216 -->
<g id="node43" class="node">
<title>6620795216</title>
<ellipse fill="none" stroke="black" cx="3159.94" cy="-455" rx="115.39" ry="18"/>
<text text-anchor="middle" x="3159.94" y="-449.38" font-family="Times,serif" font-size="15.00">investigate BAG objects</text>
</g>
<!-- 6621523728&#45;&#45;6620795216 -->
<g id="edge33" class="edge">
<title>6621523728&#45;&#45;6620795216</title>
<path fill="none" stroke="black" d="M2821.6,-404.84C2873.62,-412.57 2993.01,-430.33 3074.85,-442.5"/>
</g>
<!-- 6625035408 -->
<g id="node44" class="node">
<title>6625035408</title>
<ellipse fill="none" stroke="black" cx="3159.94" cy="-401" rx="108.55" ry="18"/>
<text text-anchor="middle" x="3159.94" y="-395.38" font-family="Times,serif" font-size="15.00">OLO messaging active</text>
</g>
<!-- 6621523728&#45;&#45;6625035408 -->
<g id="edge34" class="edge">
<title>6621523728&#45;&#45;6625035408</title>
<path fill="none" stroke="black" d="M2822.18,-401C2869.6,-401 2971.62,-401 3051.02,-401"/>
</g>
<!-- 6624541904 -->
<g id="node46" class="node">
<title>6624541904</title>
<ellipse fill="none" stroke="black" cx="3159.94" cy="-347" rx="121.18" ry="18"/>
<text text-anchor="middle" x="3159.94" y="-341.38" font-family="Times,serif" font-size="15.00">send confirmation receipt</text>
</g>
<!-- 6625544080&#45;&#45;6624541904 -->
<g id="edge36" class="edge">
<title>6625544080&#45;&#45;6624541904</title>
<path fill="none" stroke="black" d="M2842.14,-347C2891.38,-347 2971.22,-347 3038.43,-347"/>
</g>
<!-- 6624535248 -->
<g id="node47" class="node">
<title>6624535248</title>
<ellipse fill="black" stroke="black" cx="3159.94" cy="-308" rx="2.7" ry="2.7"/>
</g>
<!-- 6625544080&#45;&#45;6624535248 -->
<g id="edge37" class="edge">
<title>6625544080&#45;&#45;6624535248</title>
<path fill="none" stroke="black" d="M2840.31,-342.22C2931.98,-332.37 3135.07,-310.56 3157.01,-308.21"/>
</g>
<!-- 6624575120 -->
<g id="node50" class="node">
<title>6624575120</title>
<ellipse fill="none" stroke="black" cx="3159.94" cy="-269" rx="97.51" ry="18"/>
<text text-anchor="middle" x="3159.94" y="-263.38" font-family="Times,serif" font-size="15.00">WAW permit aspect</text>
</g>
<!-- 6621513168&#45;&#45;6624575120 -->
<g id="edge40" class="edge">
<title>6621513168&#45;&#45;6624575120</title>
<path fill="none" stroke="black" d="M2821.89,-241.16C2873.04,-245.38 2988.53,-254.92 3070.01,-261.65"/>
</g>
<!-- 6624563600 -->
<g id="node51" class="node">
<title>6624563600</title>
<ellipse fill="none" stroke="black" cx="3159.94" cy="-215" rx="137.49" ry="18"/>
<text text-anchor="middle" x="3159.94" y="-209.38" font-family="Times,serif" font-size="15.00">create subcases completeness</text>
</g>
<!-- 6621513168&#45;&#45;6624563600 -->
<g id="edge41" class="edge">
<title>6621513168&#45;&#45;6624563600</title>
<path fill="none" stroke="black" d="M2821.89,-237.27C2866.29,-234.34 2959.17,-228.2 3036.2,-223.11"/>
</g>
<!-- 6624741072 -->
<g id="node53" class="node">
<title>6624741072</title>
<ellipse fill="none" stroke="black" cx="3159.94" cy="-161" rx="27" ry="18"/>
<text text-anchor="middle" x="3159.94" y="-155.38" font-family="Times,serif" font-size="15.00">seq</text>
</g>
<!-- 6624559312&#45;&#45;6624741072 -->
<g id="edge51" class="edge">
<title>6624559312&#45;&#45;6624741072</title>
<path fill="none" stroke="black" d="M2842.14,-161C2919.2,-161 3071.22,-161 3132.46,-161"/>
</g>
<!-- 6624746832 -->
<g id="node62" class="node">
<title>6624746832</title>
<ellipse fill="black" stroke="black" cx="3159.94" cy="-122" rx="2.7" ry="2.7"/>
</g>
<!-- 6624559312&#45;&#45;6624746832 -->
<g id="edge52" class="edge">
<title>6624559312&#45;&#45;6624746832</title>
<path fill="none" stroke="black" d="M2840.31,-156.22C2931.98,-146.37 3135.07,-124.56 3157.01,-122.21"/>
</g>
<!-- 6624743824 -->
<g id="node54" class="node">
<title>6624743824</title>
<ellipse fill="none" stroke="black" cx="3572.46" cy="-203" rx="27" ry="18"/>
<text text-anchor="middle" x="3572.46" y="-197.38" font-family="Times,serif" font-size="15.00">xor</text>
</g>
<!-- 6624741072&#45;&#45;6624743824 -->
<g id="edge49" class="edge">
<title>6624741072&#45;&#45;6624743824</title>
<path fill="none" stroke="black" d="M3186.93,-163.66C3260.78,-171.21 3471.29,-192.75 3545.32,-200.33"/>
</g>
<!-- 6624750160 -->
<g id="node61" class="node">
<title>6624750160</title>
<ellipse fill="none" stroke="black" cx="3572.46" cy="-149" rx="156.43" ry="18"/>
<text text-anchor="middle" x="3572.46" y="-143.38" font-family="Times,serif" font-size="15.00">subcases completeness completed</text>
</g>
<!-- 6624741072&#45;&#45;6624750160 -->
<g id="edge50" class="edge">
<title>6624741072&#45;&#45;6624750160</title>
<path fill="none" stroke="black" d="M3187.25,-160.23C3233.79,-158.87 3333.89,-155.94 3420.26,-153.42"/>
</g>
<!-- 6624747344 -->
<g id="node55" class="node">
<title>6624747344</title>
<ellipse fill="none" stroke="black" cx="3965.52" cy="-230" rx="131.18" ry="18"/>
<text text-anchor="middle" x="3965.52" y="-224.38" font-family="Times,serif" font-size="15.00">treat subcases completeness</text>
</g>
<!-- 6624743824&#45;&#45;6624747344 -->
<g id="edge43" class="edge">
<title>6624743824&#45;&#45;6624747344</title>
<path fill="none" stroke="black" d="M3599.73,-204.81C3649.56,-208.25 3760.59,-215.92 3847.15,-221.9"/>
</g>
<!-- 6624754576 -->
<g id="node56" class="node">
<title>6624754576</title>
<ellipse fill="none" stroke="black" cx="3965.52" cy="-176" rx="27" ry="18"/>
<text text-anchor="middle" x="3965.52" y="-170.38" font-family="Times,serif" font-size="15.00">seq</text>
</g>
<!-- 6624743824&#45;&#45;6624754576 -->
<g id="edge48" class="edge">
<title>6624743824&#45;&#45;6624754576</title>
<path fill="none" stroke="black" d="M3599.73,-201.19C3670.97,-196.27 3867.26,-182.71 3938.36,-177.81"/>
</g>
<!-- 6624749712 -->
<g id="node57" class="node">
<title>6624749712</title>
<ellipse fill="none" stroke="black" cx="4324.9" cy="-257" rx="86.46" ry="18"/>
<text text-anchor="middle" x="4324.9" y="-251.38" font-family="Times,serif" font-size="15.00">procedure change</text>
</g>
<!-- 6624754576&#45;&#45;6624749712 -->
<g id="edge44" class="edge">
<title>6624754576&#45;&#45;6624749712</title>
<path fill="none" stroke="black" d="M3991.65,-181.7C4047.97,-194.46 4185.58,-225.65 4264.91,-243.63"/>
</g>
<!-- 6624752400 -->
<g id="node58" class="node">
<title>6624752400</title>
<ellipse fill="none" stroke="black" cx="4324.9" cy="-203" rx="84.35" ry="18"/>
<text text-anchor="middle" x="4324.9" y="-197.38" font-family="Times,serif" font-size="15.00">request complete</text>
</g>
<!-- 6624754576&#45;&#45;6624752400 -->
<g id="edge45" class="edge">
<title>6624754576&#45;&#45;6624752400</title>
<path fill="none" stroke="black" d="M3992.79,-177.99C4045.18,-181.94 4164.47,-190.96 4244.62,-197.01"/>
</g>
<!-- 5452238352 -->
<g id="node59" class="node">
<title>5452238352</title>
<ellipse fill="none" stroke="black" cx="4324.9" cy="-149" rx="148.01" ry="18"/>
<text text-anchor="middle" x="4324.9" y="-143.38" font-family="Times,serif" font-size="15.00">term for supplying missing data</text>
</g>
<!-- 6624754576&#45;&#45;5452238352 -->
<g id="edge46" class="edge">
<title>6624754576&#45;&#45;5452238352</title>
<path fill="none" stroke="black" d="M3992.79,-174.01C4035.67,-170.78 4123.37,-164.15 4197.74,-158.53"/>
</g>
<!-- 5452235664 -->
<g id="node60" class="node">
<title>5452235664</title>
<ellipse fill="none" stroke="black" cx="4324.9" cy="-95" rx="166.43" ry="18"/>
<text text-anchor="middle" x="4324.9" y="-89.38" font-family="Times,serif" font-size="15.00">create letter requesting missing data</text>
</g>
<!-- 6624754576&#45;&#45;5452235664 -->
<g id="edge47" class="edge">
<title>6624754576&#45;&#45;5452235664</title>
<path fill="none" stroke="black" d="M3991.65,-170.3C4044.79,-158.26 4170.31,-129.81 4250.95,-111.53"/>
</g>
<!-- 5452251088 -->
<g id="node64" class="node">
<title>5452251088</title>
<ellipse fill="black" stroke="black" cx="3159.94" cy="-99" rx="2.7" ry="2.7"/>
</g>
<!-- 6624749904&#45;&#45;5452251088 -->
<g id="edge54" class="edge">
<title>6624749904&#45;&#45;5452251088</title>
<path fill="none" stroke="black" d="M2822.18,-99C2901.51,-99 3133.67,-99 3157.04,-99"/>
</g>
<!-- 5452250576 -->
<g id="node65" class="node">
<title>5452250576</title>
<ellipse fill="none" stroke="black" cx="3159.94" cy="-60" rx="27" ry="18"/>
<text text-anchor="middle" x="3159.94" y="-54.38" font-family="Times,serif" font-size="15.00">seq</text>
</g>
<!-- 6624749904&#45;&#45;5452250576 -->
<g id="edge57" class="edge">
<title>6624749904&#45;&#45;5452250576</title>
<path fill="none" stroke="black" d="M2821.89,-96.2C2888.9,-89 3066.31,-69.95 3133.06,-62.78"/>
</g>
<!-- 5452250832 -->
<g id="node66" class="node">
<title>5452250832</title>
<ellipse fill="none" stroke="black" cx="3572.46" cy="-72" rx="128.02" ry="18"/>
<text text-anchor="middle" x="3572.46" y="-66.38" font-family="Times,serif" font-size="15.00">phase application receptive</text>
</g>
<!-- 5452250576&#45;&#45;5452250832 -->
<g id="edge55" class="edge">
<title>5452250576&#45;&#45;5452250832</title>
<path fill="none" stroke="black" d="M3187.25,-60.77C3238.66,-62.27 3355.42,-65.68 3446.82,-68.36"/>
</g>
<!-- 5452239696 -->
<g id="node67" class="node">
<title>5452239696</title>
<ellipse fill="none" stroke="black" cx="3572.46" cy="-18" rx="105.92" ry="18"/>
<text text-anchor="middle" x="3572.46" y="-12.38" font-family="Times,serif" font-size="15.00">send letter in progress</text>
</g>
<!-- 5452250576&#45;&#45;5452239696 -->
<g id="edge56" class="edge">
<title>5452250576&#45;&#45;5452239696</title>
<path fill="none" stroke="black" d="M3186.93,-57.34C3244.74,-51.43 3386.3,-36.94 3480.57,-27.3"/>
</g>
<!-- 5452246416 -->
<g id="node71" class="node">
<title>5452246416</title>
<ellipse fill="none" stroke="black" cx="1851.84" cy="-293" rx="27" ry="18"/>
<text text-anchor="middle" x="1851.84" y="-287.38" font-family="Times,serif" font-size="15.00">seq</text>
</g>
<!-- 6624303888&#45;&#45;5452246416 -->
<g id="edge67" class="edge">
<title>6624303888&#45;&#45;5452246416</title>
<path fill="none" stroke="black" d="M1670.85,-235.58C1710.01,-248.07 1787.64,-272.84 1826.9,-285.36"/>
</g>
<!-- 5452239632 -->
<g id="node74" class="node">
<title>5452239632</title>
<ellipse fill="none" stroke="black" cx="1851.84" cy="-228" rx="27" ry="18"/>
<text text-anchor="middle" x="1851.84" y="-222.38" font-family="Times,serif" font-size="15.00">seq</text>
</g>
<!-- 6624303888&#45;&#45;5452239632 -->
<g id="edge70" class="edge">
<title>6624303888&#45;&#45;5452239632</title>
<path fill="none" stroke="black" d="M1673.3,-228C1712.32,-228 1785.25,-228 1824.39,-228"/>
</g>
<!-- 5452245520 -->
<g id="node72" class="node">
<title>5452245520</title>
<ellipse fill="none" stroke="black" cx="2187.54" cy="-347" rx="184.31" ry="18"/>
<text text-anchor="middle" x="2187.54" y="-341.38" font-family="Times,serif" font-size="15.00">phase procedure prematurely terminated</text>
</g>
<!-- 5452246416&#45;&#45;5452245520 -->
<g id="edge65" class="edge">
<title>5452246416&#45;&#45;5452245520</title>
<path fill="none" stroke="black" d="M1878.47,-297.15C1923.11,-304.37 2017.29,-319.61 2089.84,-331.35"/>
</g>
<!-- 5452244560 -->
<g id="node73" class="node">
<title>5452244560</title>
<ellipse fill="none" stroke="black" cx="2187.54" cy="-293" rx="95.93" ry="18"/>
<text text-anchor="middle" x="2187.54" y="-287.38" font-family="Times,serif" font-size="15.00">phase archived case</text>
</g>
<!-- 5452246416&#45;&#45;5452244560 -->
<g id="edge66" class="edge">
<title>5452246416&#45;&#45;5452244560</title>
<path fill="none" stroke="black" d="M1879.3,-293C1924.55,-293 2018.88,-293 2091.16,-293"/>
</g>
<!-- 5452243920 -->
<g id="node75" class="node">
<title>5452243920</title>
<ellipse fill="none" stroke="black" cx="2187.54" cy="-239" rx="124.86" ry="18"/>
<text text-anchor="middle" x="2187.54" y="-233.38" font-family="Times,serif" font-size="15.00">message terminate request</text>
</g>
<!-- 5452239632&#45;&#45;5452243920 -->
<g id="edge68" class="edge">
<title>5452239632&#45;&#45;5452243920</title>
<path fill="none" stroke="black" d="M1879.3,-228.87C1919.31,-230.19 1997.68,-232.77 2065.26,-235"/>
</g>
<!-- 5452235920 -->
<g id="node76" class="node">
<title>5452235920</title>
<ellipse fill="none" stroke="black" cx="2187.54" cy="-185" rx="159.06" ry="18"/>
<text text-anchor="middle" x="2187.54" y="-179.38" font-family="Times,serif" font-size="15.00">enter senddate request termination</text>
</g>
<!-- 5452239632&#45;&#45;5452235920 -->
<g id="edge69" class="edge">
<title>5452239632&#45;&#45;5452235920</title>
<path fill="none" stroke="black" d="M1878.74,-224.66C1921.62,-219.14 2009.66,-207.79 2080.64,-198.65"/>
</g>
<!-- 5452250256 -->
<g id="node78" class="node">
<title>5452250256</title>
<ellipse fill="black" stroke="black" cx="1851.84" cy="-182" rx="2.7" ry="2.7"/>
</g>
<!-- 5452246160&#45;&#45;5452250256 -->
<g id="edge72" class="edge">
<title>5452246160&#45;&#45;5452250256</title>
<path fill="none" stroke="black" d="M1672.89,-161.91C1723.43,-167.62 1832.02,-179.88 1848.67,-181.76"/>
</g>
<!-- 6625463824 -->
<g id="node79" class="node">
<title>6625463824</title>
<ellipse fill="none" stroke="black" cx="1851.84" cy="-143" rx="27" ry="18"/>
<text text-anchor="middle" x="1851.84" y="-137.38" font-family="Times,serif" font-size="15.00">seq</text>
</g>
<!-- 5452246160&#45;&#45;6625463824 -->
<g id="edge75" class="edge">
<title>5452246160&#45;&#45;6625463824</title>
<path fill="none" stroke="black" d="M1673.3,-156.94C1712.42,-153.87 1785.65,-148.12 1824.72,-145.05"/>
</g>
<!-- 6625471760 -->
<g id="node80" class="node">
<title>6625471760</title>
<ellipse fill="none" stroke="black" cx="2187.54" cy="-131" rx="131.7" ry="18"/>
<text text-anchor="middle" x="2187.54" y="-125.38" font-family="Times,serif" font-size="15.00">stop all running subcases 2b</text>
</g>
<!-- 6625463824&#45;&#45;6625471760 -->
<g id="edge73" class="edge">
<title>6625463824&#45;&#45;6625471760</title>
<path fill="none" stroke="black" d="M1879.02,-142.06C1917.82,-140.66 1993.14,-137.95 2059.53,-135.57"/>
</g>
<!-- 6625474000 -->
<g id="node81" class="node">
<title>6625474000</title>
<ellipse fill="none" stroke="black" cx="2187.54" cy="-77" rx="92.77" ry="18"/>
<text text-anchor="middle" x="2187.54" y="-71.38" font-family="Times,serif" font-size="15.00">phase case handled</text>
</g>
<!-- 6625463824&#45;&#45;6625474000 -->
<g id="edge74" class="edge">
<title>6625463824&#45;&#45;6625474000</title>
<path fill="none" stroke="black" d="M1878.19,-137.99C1929.45,-127.85 2046.82,-104.63 2121.06,-89.95"/>
</g>
<!-- 6625472976 -->
<g id="node83" class="node">
<title>6625472976</title>
<ellipse fill="none" stroke="black" cx="1851.84" cy="-89" rx="82.77" ry="18"/>
<text text-anchor="middle" x="1851.84" y="-83.38" font-family="Times,serif" font-size="15.00">register deadline</text>
</g>
<!-- 6625466704&#45;&#45;6625472976 -->
<g id="edge77" class="edge">
<title>6625466704&#45;&#45;6625472976</title>
<path fill="none" stroke="black" d="M1673.3,-95.97C1697.81,-95.01 1735.69,-93.52 1770.18,-92.17"/>
</g>
<!-- 6625470352 -->
<g id="node84" class="node">
<title>6625470352</title>
<ellipse fill="none" stroke="black" cx="1851.84" cy="-35" rx="115.39" ry="18"/>
<text text-anchor="middle" x="1851.84" y="-29.38" font-family="Times,serif" font-size="15.00">phase procedure aborted</text>
</g>
<!-- 6625466704&#45;&#45;6625470352 -->
<g id="edge78" class="edge">
<title>6625466704&#45;&#45;6625470352</title>
<path fill="none" stroke="black" d="M1671.25,-89.64C1702.14,-80.25 1756.49,-63.71 1797.33,-51.28"/>
</g>
<!-- 6625471312 -->
<g id="node87" class="node">
<title>6625471312</title>
<ellipse fill="black" stroke="black" cx="584.77" cy="-159" rx="2.7" ry="2.7"/>
</g>
<!-- 6625473872&#45;&#45;6625471312 -->
<g id="edge85" class="edge">
<title>6625473872&#45;&#45;6625471312</title>
<path fill="none" stroke="black" d="M266.46,-159C342.54,-159 558.33,-159 581.71,-159"/>
</g>
<!-- 6625469520 -->
<g id="node88" class="node">
<title>6625469520</title>
<ellipse fill="none" stroke="black" cx="584.77" cy="-105" rx="27" ry="18"/>
<text text-anchor="middle" x="584.77" y="-99.38" font-family="Times,serif" font-size="15.00">seq</text>
</g>
<!-- 6625473872&#45;&#45;6625469520 -->
<g id="edge90" class="edge">
<title>6625473872&#45;&#45;6625469520</title>
<path fill="none" stroke="black" d="M265.62,-154.99C329.25,-144.99 494.24,-119.07 558.05,-109.04"/>
</g>
<!-- 6625461712 -->
<g id="node89" class="node">
<title>6625461712</title>
<ellipse fill="none" stroke="black" cx="946.78" cy="-105" rx="27" ry="18"/>
<text text-anchor="middle" x="946.78" y="-99.38" font-family="Times,serif" font-size="15.00">and</text>
</g>
<!-- 6625469520&#45;&#45;6625461712 -->
<g id="edge88" class="edge">
<title>6625469520&#45;&#45;6625461712</title>
<path fill="none" stroke="black" d="M612.24,-105C678.98,-105 853.5,-105 919.75,-105"/>
</g>
<!-- 6625466640 -->
<g id="node92" class="node">
<title>6625466640</title>
<ellipse fill="none" stroke="black" cx="946.78" cy="-51" rx="165.37" ry="18"/>
<text text-anchor="middle" x="946.78" y="-45.38" font-family="Times,serif" font-size="15.00">enter senddate retrieve missing data</text>
</g>
<!-- 6625469520&#45;&#45;6625466640 -->
<g id="edge89" class="edge">
<title>6625469520&#45;&#45;6625466640</title>
<path fill="none" stroke="black" d="M611.37,-101.16C659.8,-93.9 767.16,-77.79 847.24,-65.78"/>
</g>
<!-- 6625467920 -->
<g id="node90" class="node">
<title>6625467920</title>
<ellipse fill="none" stroke="black" cx="1351.93" cy="-105" rx="101.19" ry="18"/>
<text text-anchor="middle" x="1351.93" y="-99.38" font-family="Times,serif" font-size="15.00">retrieve missing data</text>
</g>
<!-- 6625461712&#45;&#45;6625467920 -->
<g id="edge86" class="edge">
<title>6625461712&#45;&#45;6625467920</title>
<path fill="none" stroke="black" d="M974.23,-105C1029.33,-105 1158.87,-105 1250.61,-105"/>
</g>
<!-- 6625464208 -->
<g id="node91" class="node">
<title>6625464208</title>
<ellipse fill="none" stroke="black" cx="1351.93" cy="-51" rx="161.69" ry="18"/>
<text text-anchor="middle" x="1351.93" y="-45.38" font-family="Times,serif" font-size="15.00">phase asked additional information</text>
</g>
<!-- 6625461712&#45;&#45;6625464208 -->
<g id="edge87" class="edge">
<title>6625461712&#45;&#45;6625464208</title>
<path fill="none" stroke="black" d="M973.61,-101.54C1027.49,-94.32 1154.45,-77.32 1246.24,-65.02"/>
</g>
</g>
</svg>
