<?xml version="1.0" encoding="UTF-8" standalone="no"?>
<!DOCTYPE svg PUBLIC "-//W3C//DTD SVG 1.1//EN"
 "http://www.w3.org/Graphics/SVG/1.1/DTD/svg11.dtd">
<!-- Generated by graphviz version 11.0.0 (20240428.1522)
 -->
<!-- Title: pt Pages: 1 -->
<svg width="1332pt" height="743pt"
 viewBox="0.00 0.00 1331.80 743.00" xmlns="http://www.w3.org/2000/svg" xmlns:xlink="http://www.w3.org/1999/xlink">
<g id="graph0" class="graph" transform="scale(1 1) rotate(0) translate(4 739)">
<title>pt</title>
<polygon fill="white" stroke="none" points="-4,4 -4,-739 1327.8,-739 1327.8,4 -4,4"/>
<!-- 2321377764528 -->
<g id="node1" class="node">
<title>2321377764528</title>
<ellipse fill="none" stroke="black" cx="27" cy="-555" rx="27" ry="18"/>
<text text-anchor="middle" x="27" y="-549" font-family="Times New Roman,serif" font-size="15.00">seq</text>
</g>
<!-- 2321377822336 -->
<g id="node2" class="node">
<title>2321377822336</title>
<ellipse fill="none" stroke="black" cx="229.38" cy="-717" rx="139.38" ry="18"/>
<text text-anchor="middle" x="229.38" y="-711" font-family="Times New Roman,serif" font-size="15.00">Record submission date request</text>
</g>
<!-- 2321377764528&#45;&#45;2321377822336 -->
<g id="edge1" class="edge">
<title>2321377764528&#45;&#45;2321377822336</title>
<path fill="none" stroke="black" d="M45.08,-568.81C81.24,-598.04 165.48,-666.14 205.92,-698.84"/>
</g>
<!-- 2321377822192 -->
<g id="node3" class="node">
<title>2321377822192</title>
<ellipse fill="none" stroke="black" cx="229.38" cy="-663" rx="27" ry="18"/>
<text text-anchor="middle" x="229.38" y="-657" font-family="Times New Roman,serif" font-size="15.00">xor</text>
</g>
<!-- 2321377764528&#45;&#45;2321377822192 -->
<g id="edge7" class="edge">
<title>2321377764528&#45;&#45;2321377822192</title>
<path fill="none" stroke="black" d="M48.69,-566.15C87.19,-586.9 169.39,-631.21 207.81,-651.91"/>
</g>
<!-- 2321377770720 -->
<g id="node9" class="node">
<title>2321377770720</title>
<ellipse fill="none" stroke="black" cx="229.38" cy="-609" rx="124.03" ry="18"/>
<text text-anchor="middle" x="229.38" y="-603" font-family="Times New Roman,serif" font-size="15.00">Period application received</text>
</g>
<!-- 2321377764528&#45;&#45;2321377770720 -->
<g id="edge8" class="edge">
<title>2321377764528&#45;&#45;2321377770720</title>
<path fill="none" stroke="black" d="M52.57,-561.62C81.31,-569.37 129.9,-582.46 168.72,-592.92"/>
</g>
<!-- 2321377823344 -->
<g id="node10" class="node">
<title>2321377823344</title>
<ellipse fill="none" stroke="black" cx="229.38" cy="-555" rx="27" ry="18"/>
<text text-anchor="middle" x="229.38" y="-549" font-family="Times New Roman,serif" font-size="15.00">xor</text>
</g>
<!-- 2321377764528&#45;&#45;2321377823344 -->
<g id="edge11" class="edge">
<title>2321377764528&#45;&#45;2321377823344</title>
<path fill="none" stroke="black" d="M54.2,-555C92.6,-555 163.77,-555 202.18,-555"/>
</g>
<!-- 2321377834672 -->
<g id="node13" class="node">
<title>2321377834672</title>
<ellipse fill="none" stroke="black" cx="229.38" cy="-501" rx="27" ry="18"/>
<text text-anchor="middle" x="229.38" y="-495" font-family="Times New Roman,serif" font-size="15.00">xor</text>
</g>
<!-- 2321377764528&#45;&#45;2321377834672 -->
<g id="edge14" class="edge">
<title>2321377764528&#45;&#45;2321377834672</title>
<path fill="none" stroke="black" d="M52.57,-548.38C91.13,-537.99 165.43,-517.96 203.92,-507.59"/>
</g>
<!-- 2321377832224 -->
<g id="node16" class="node">
<title>2321377832224</title>
<ellipse fill="none" stroke="black" cx="229.38" cy="-381" rx="27" ry="18"/>
<text text-anchor="middle" x="229.38" y="-375" font-family="Times New Roman,serif" font-size="15.00">and</text>
</g>
<!-- 2321377764528&#45;&#45;2321377832224 -->
<g id="edge21" class="edge">
<title>2321377764528&#45;&#45;2321377832224</title>
<path fill="none" stroke="black" d="M44.4,-540.76C82.07,-508.05 174.42,-427.86 212.04,-395.19"/>
</g>
<!-- 2321377835920 -->
<g id="node23" class="node">
<title>2321377835920</title>
<ellipse fill="none" stroke="black" cx="229.38" cy="-211" rx="27" ry="18"/>
<text text-anchor="middle" x="229.38" y="-205" font-family="Times New Roman,serif" font-size="15.00">xor</text>
</g>
<!-- 2321377764528&#45;&#45;2321377835920 -->
<g id="edge30" class="edge">
<title>2321377764528&#45;&#45;2321377835920</title>
<path fill="none" stroke="black" d="M37.66,-538.41C71.52,-480.3 184.51,-286.31 218.58,-227.83"/>
</g>
<!-- 2321377831984 -->
<g id="node4" class="node">
<title>2321377831984</title>
<ellipse fill="black" stroke="black" cx="609.66" cy="-699" rx="2.7" ry="2.7"/>
</g>
<!-- 2321377822192&#45;&#45;2321377831984 -->
<g id="edge2" class="edge">
<title>2321377822192&#45;&#45;2321377831984</title>
<path fill="none" stroke="black" d="M256.38,-665.47C337.51,-673.19 582.03,-696.47 606.65,-698.81"/>
</g>
<!-- 2321377829728 -->
<g id="node5" class="node">
<title>2321377829728</title>
<ellipse fill="none" stroke="black" cx="609.66" cy="-660" rx="27" ry="18"/>
<text text-anchor="middle" x="609.66" y="-654" font-family="Times New Roman,serif" font-size="15.00">seq</text>
</g>
<!-- 2321377822192&#45;&#45;2321377829728 -->
<g id="edge6" class="edge">
<title>2321377822192&#45;&#45;2321377829728</title>
<path fill="none" stroke="black" d="M256.68,-662.79C325.96,-662.24 512.91,-660.76 582.28,-660.21"/>
</g>
<!-- 2321377829200 -->
<g id="node6" class="node">
<title>2321377829200</title>
<ellipse fill="none" stroke="black" cx="1087.18" cy="-714" rx="109.19" ry="18"/>
<text text-anchor="middle" x="1087.18" y="-708" font-family="Times New Roman,serif" font-size="15.00">OLO messaging ongoing</text>
</g>
<!-- 2321377829728&#45;&#45;2321377829200 -->
<g id="edge3" class="edge">
<title>2321377829728&#45;&#45;2321377829200</title>
<path fill="none" stroke="black" d="M636.56,-662.94C703.62,-670.56 885.38,-691.2 996.18,-703.78"/>
</g>
<!-- 2321377834912 -->
<g id="node7" class="node">
<title>2321377834912</title>
<ellipse fill="none" stroke="black" cx="1087.18" cy="-660" rx="142.45" ry="18"/>
<text text-anchor="middle" x="1087.18" y="-654" font-family="Times New Roman,serif" font-size="15.00">Direct to the competent authority</text>
</g>
<!-- 2321377829728&#45;&#45;2321377834912 -->
<g id="edge4" class="edge">
<title>2321377829728&#45;&#45;2321377834912</title>
<path fill="none" stroke="black" d="M636.9,-660C694.49,-660 835.45,-660 944.26,-660"/>
</g>
<!-- 2321377826656 -->
<g id="node8" class="node">
<title>2321377826656</title>
<ellipse fill="none" stroke="black" cx="1087.18" cy="-606" rx="141.94" ry="18"/>
<text text-anchor="middle" x="1087.18" y="-600" font-family="Times New Roman,serif" font-size="15.00">Normal procedure without MER</text>
</g>
<!-- 2321377829728&#45;&#45;2321377826656 -->
<g id="edge5" class="edge">
<title>2321377829728&#45;&#45;2321377826656</title>
<path fill="none" stroke="black" d="M636.56,-657.06C700.37,-649.81 868.05,-630.77 979.61,-618.1"/>
</g>
<!-- 2321377820944 -->
<g id="node11" class="node">
<title>2321377820944</title>
<ellipse fill="black" stroke="black" cx="609.66" cy="-606" rx="2.7" ry="2.7"/>
</g>
<!-- 2321377823344&#45;&#45;2321377820944 -->
<g id="edge9" class="edge">
<title>2321377823344&#45;&#45;2321377820944</title>
<path fill="none" stroke="black" d="M256.38,-558.51C337.51,-569.44 582.03,-602.41 606.65,-605.73"/>
</g>
<!-- 2321377823104 -->
<g id="node12" class="node">
<title>2321377823104</title>
<ellipse fill="none" stroke="black" cx="609.66" cy="-567" rx="103.56" ry="18"/>
<text text-anchor="middle" x="609.66" y="-561" font-family="Times New Roman,serif" font-size="15.00">Start WABOprocedure</text>
</g>
<!-- 2321377823344&#45;&#45;2321377823104 -->
<g id="edge10" class="edge">
<title>2321377823344&#45;&#45;2321377823104</title>
<path fill="none" stroke="black" d="M256.68,-555.83C307.7,-557.45 422.53,-561.1 507.22,-563.78"/>
</g>
<!-- 2321377824064 -->
<g id="node14" class="node">
<title>2321377824064</title>
<ellipse fill="black" stroke="black" cx="609.66" cy="-528" rx="2.7" ry="2.7"/>
</g>
<!-- 2321377834672&#45;&#45;2321377824064 -->
<g id="edge12" class="edge">
<title>2321377834672&#45;&#45;2321377824064</title>
<path fill="none" stroke="black" d="M256.68,-502.88C338.11,-508.69 582.09,-526.1 606.66,-527.86"/>
</g>
<!-- 2321377821664 -->
<g id="node15" class="node">
<title>2321377821664</title>
<ellipse fill="none" stroke="black" cx="609.66" cy="-489" rx="138.87" ry="18"/>
<text text-anchor="middle" x="609.66" y="-483" font-family="Times New Roman,serif" font-size="15.00">Log senddate acknowledgement</text>
</g>
<!-- 2321377834672&#45;&#45;2321377821664 -->
<g id="edge13" class="edge">
<title>2321377834672&#45;&#45;2321377821664</title>
<path fill="none" stroke="black" d="M256.68,-500.17C301.33,-498.75 394.86,-495.78 474.29,-493.26"/>
</g>
<!-- 2321377832032 -->
<g id="node17" class="node">
<title>2321377832032</title>
<ellipse fill="none" stroke="black" cx="609.66" cy="-435" rx="204.89" ry="18"/>
<text text-anchor="middle" x="609.66" y="-429" font-family="Times New Roman,serif" font-size="15.00">No permit necessary or only notification needed</text>
</g>
<!-- 2321377832224&#45;&#45;2321377832032 -->
<g id="edge15" class="edge">
<title>2321377832224&#45;&#45;2321377832032</title>
<path fill="none" stroke="black" d="M256.09,-384.67C305.31,-391.7 415.46,-407.42 499.63,-419.44"/>
</g>
<!-- 2321377834144 -->
<g id="node18" class="node">
<title>2321377834144</title>
<ellipse fill="none" stroke="black" cx="609.66" cy="-381" rx="95.88" ry="18"/>
<text text-anchor="middle" x="609.66" y="-375" font-family="Times New Roman,serif" font-size="15.00">Terminate on request</text>
</g>
<!-- 2321377832224&#45;&#45;2321377834144 -->
<g id="edge16" class="edge">
<title>2321377832224&#45;&#45;2321377834144</title>
<path fill="none" stroke="black" d="M256.68,-381C308.96,-381 428.22,-381 513.42,-381"/>
</g>
<!-- 2321377827328 -->
<g id="node19" class="node">
<title>2321377827328</title>
<ellipse fill="none" stroke="black" cx="609.66" cy="-327" rx="98.95" ry="18"/>
<text text-anchor="middle" x="609.66" y="-321" font-family="Times New Roman,serif" font-size="15.00">Applicant is involved</text>
</g>
<!-- 2321377832224&#45;&#45;2321377827328 -->
<g id="edge17" class="edge">
<title>2321377832224&#45;&#45;2321377827328</title>
<path fill="none" stroke="black" d="M256.09,-377.33C311.63,-369.4 444.74,-350.4 530.59,-338.15"/>
</g>
<!-- 2321377827760 -->
<g id="node20" class="node">
<title>2321377827760</title>
<ellipse fill="none" stroke="black" cx="609.66" cy="-273" rx="45.21" ry="18"/>
<text text-anchor="middle" x="609.66" y="-267" font-family="Times New Roman,serif" font-size="15.00">xor loop</text>
</g>
<!-- 2321377832224&#45;&#45;2321377827760 -->
<g id="edge20" class="edge">
<title>2321377832224&#45;&#45;2321377827760</title>
<path fill="none" stroke="black" d="M254.62,-374.08C319.11,-355.67 495.22,-305.39 572.03,-283.46"/>
</g>
<!-- 2321377826368 -->
<g id="node21" class="node">
<title>2321377826368</title>
<ellipse fill="none" stroke="black" cx="1087.18" cy="-312" rx="115.84" ry="18"/>
<text text-anchor="middle" x="1087.18" y="-306" font-family="Times New Roman,serif" font-size="15.00">Issue confirmation receipt</text>
</g>
<!-- 2321377827760&#45;&#45;2321377826368 -->
<g id="edge18" class="edge">
<title>2321377827760&#45;&#45;2321377826368</title>
<path fill="none" stroke="black" d="M654.12,-276.56C728.29,-282.65 881.22,-295.19 983.77,-303.6"/>
</g>
<!-- 2321377836208 -->
<g id="node22" class="node">
<title>2321377836208</title>
<ellipse fill="black" stroke="black" cx="1087.18" cy="-273" rx="2.7" ry="2.7"/>
</g>
<!-- 2321377827760&#45;&#45;2321377836208 -->
<g id="edge19" class="edge">
<title>2321377827760&#45;&#45;2321377836208</title>
<path fill="none" stroke="black" d="M654.97,-273C767.48,-273 1057.25,-273 1084.17,-273"/>
</g>
<!-- 2321377820992 -->
<g id="node24" class="node">
<title>2321377820992</title>
<ellipse fill="black" stroke="black" cx="609.66" cy="-230" rx="2.7" ry="2.7"/>
</g>
<!-- 2321377835920&#45;&#45;2321377820992 -->
<g id="edge22" class="edge">
<title>2321377835920&#45;&#45;2321377820992</title>
<path fill="none" stroke="black" d="M256.68,-212.32C338.11,-216.41 582.09,-228.67 606.66,-229.9"/>
</g>
<!-- 2321377832848 -->
<g id="node25" class="node">
<title>2321377832848</title>
<ellipse fill="none" stroke="black" cx="609.66" cy="-191" rx="134.78" ry="18"/>
<text text-anchor="middle" x="609.66" y="-185" font-family="Times New Roman,serif" font-size="15.00">Create procedure confirmation</text>
</g>
<!-- 2321377835920&#45;&#45;2321377832848 -->
<g id="edge23" class="edge">
<title>2321377835920&#45;&#45;2321377832848</title>
<path fill="none" stroke="black" d="M256.68,-209.61C303.09,-207.16 402.31,-201.91 483.61,-197.61"/>
</g>
<!-- 2321377828672 -->
<g id="node26" class="node">
<title>2321377828672</title>
<ellipse fill="none" stroke="black" cx="609.66" cy="-130" rx="27" ry="18"/>
<text text-anchor="middle" x="609.66" y="-124" font-family="Times New Roman,serif" font-size="15.00">seq</text>
</g>
<!-- 2321377835920&#45;&#45;2321377828672 -->
<g id="edge29" class="edge">
<title>2321377835920&#45;&#45;2321377828672</title>
<path fill="none" stroke="black" d="M255.5,-205.62C324.31,-190.89 515.3,-149.99 583.8,-135.32"/>
</g>
<!-- 2321377834384 -->
<g id="node27" class="node">
<title>2321377834384</title>
<ellipse fill="none" stroke="black" cx="1087.18" cy="-234" rx="154.22" ry="18"/>
<text text-anchor="middle" x="1087.18" y="-228" font-family="Times New Roman,serif" font-size="15.00">draft no permit or notification letter</text>
</g>
<!-- 2321377828672&#45;&#45;2321377834384 -->
<g id="edge24" class="edge">
<title>2321377828672&#45;&#45;2321377834384</title>
<path fill="none" stroke="black" d="M635.89,-135.52C705.78,-150.8 903.89,-194.13 1012.58,-217.9"/>
</g>
<!-- 2321377828624 -->
<g id="node28" class="node">
<title>2321377828624</title>
<ellipse fill="none" stroke="black" cx="1087.18" cy="-180" rx="236.63" ry="18"/>
<text text-anchor="middle" x="1087.18" y="-174" font-family="Times New Roman,serif" font-size="15.00">record senddate letter no permit or notification required</text>
</g>
<!-- 2321377828672&#45;&#45;2321377828624 -->
<g id="edge25" class="edge">
<title>2321377828672&#45;&#45;2321377828624</title>
<path fill="none" stroke="black" d="M636.56,-132.72C694.12,-138.78 836.2,-153.71 945.37,-165.19"/>
</g>
<!-- 2321377827088 -->
<g id="node29" class="node">
<title>2321377827088</title>
<ellipse fill="none" stroke="black" cx="1087.18" cy="-126" rx="88.71" ry="18"/>
<text text-anchor="middle" x="1087.18" y="-120" font-family="Times New Roman,serif" font-size="15.00">Document deadline</text>
</g>
<!-- 2321377828672&#45;&#45;2321377827088 -->
<g id="edge26" class="edge">
<title>2321377828672&#45;&#45;2321377827088</title>
<path fill="none" stroke="black" d="M636.9,-129.78C704.66,-129.21 887.86,-127.67 998.28,-126.74"/>
</g>
<!-- 2321377826416 -->
<g id="node30" class="node">
<title>2321377826416</title>
<ellipse fill="none" stroke="black" cx="1087.18" cy="-72" rx="123" ry="18"/>
<text text-anchor="middle" x="1087.18" y="-66" font-family="Times New Roman,serif" font-size="15.00">Phase procedure terminated</text>
</g>
<!-- 2321377828672&#45;&#45;2321377826416 -->
<g id="edge27" class="edge">
<title>2321377828672&#45;&#45;2321377826416</title>
<path fill="none" stroke="black" d="M636.56,-126.84C702.65,-118.78 880.15,-97.13 991.34,-83.57"/>
</g>
<!-- 2321377824448 -->
<g id="node31" class="node">
<title>2321377824448</title>
<ellipse fill="none" stroke="black" cx="1087.18" cy="-18" rx="65.17" ry="18"/>
<text text-anchor="middle" x="1087.18" y="-12" font-family="Times New Roman,serif" font-size="15.00">Close the file</text>
</g>
<!-- 2321377828672&#45;&#45;2321377824448 -->
<g id="edge28" class="edge">
<title>2321377828672&#45;&#45;2321377824448</title>
<path fill="none" stroke="black" d="M635.56,-124.14C710.66,-106.45 935.96,-53.38 1036.64,-29.67"/>
</g>
</g>
</svg>
